<?xml version="1.0" encoding="utf-8" standalone="no"?>
<!DOCTYPE svg PUBLIC "-//W3C//DTD SVG 1.1//EN"
  "http://www.w3.org/Graphics/SVG/1.1/DTD/svg11.dtd">
<svg xmlns:xlink="http://www.w3.org/1999/xlink" width="720pt" height="288pt" viewBox="0 0 720 288" xmlns="http://www.w3.org/2000/svg" version="1.1">
 <metadata>
  <rdf:RDF xmlns:dc="http://purl.org/dc/elements/1.1/" xmlns:cc="http://creativecommons.org/ns#" xmlns:rdf="http://www.w3.org/1999/02/22-rdf-syntax-ns#">
   <cc:Work>
    <dc:type rdf:resource="http://purl.org/dc/dcmitype/StillImage"/>
    <dc:date>2024-03-17T20:29:45.803714</dc:date>
    <dc:format>image/svg+xml</dc:format>
    <dc:creator>
     <cc:Agent>
      <dc:title>Matplotlib v3.8.2, https://matplotlib.org/</dc:title>
     </cc:Agent>
    </dc:creator>
   </cc:Work>
  </rdf:RDF>
 </metadata>
 <defs>
  <style type="text/css">*{stroke-linejoin: round; stroke-linecap: butt}</style>
 </defs>
 <g id="figure_1">
  <g id="patch_1">
   <path d="M 0 288 
L 720 288 
L 720 0 
L 0 0 
z
" style="fill: #ffffff"/>
  </g>
  <g id="axes_1">
   <g id="patch_2">
    <path d="M 38.420552 121.071395 
L 421.772645 121.071395 
L 421.772645 18.118365 
L 38.420552 18.118365 
z
" style="fill: #ffffff"/>
   </g>
   <g id="PolyCollection_1">
    <path d="M 41.542941 69.59488 
L 41.542941 67.718591 
L 42.086727 67.718591 
L 42.086727 63.600302 
L 43.156759 63.600302 
L 43.156759 61.530567 
L 44.226791 61.530567 
L 44.226791 66.957402 
L 45.314365 66.957402 
L 45.314365 67.855405 
L 46.384397 67.855405 
L 46.384397 65.595354 
L 47.454429 65.595354 
L 47.454429 64.375154 
L 48.52446 64.375154 
L 48.52446 59.079207 
L 49.594492 59.079207 
L 49.594492 57.520291 
L 50.682066 57.520291 
L 50.682066 58.305361 
L 51.734556 58.305361 
L 51.734556 57.894478 
L 52.787047 57.894478 
L 52.787047 65.797193 
L 53.857079 65.797193 
L 53.857079 65.702904 
L 54.383324 65.702904 
L 54.383324 69.59488 
L 54.383324 69.59488 
L 53.857079 69.59488 
L 53.857079 69.59488 
L 52.787047 69.59488 
L 52.787047 69.59488 
L 51.734556 69.59488 
L 51.734556 69.59488 
L 50.682066 69.59488 
L 50.682066 69.59488 
L 49.594492 69.59488 
L 49.594492 69.59488 
L 48.52446 69.59488 
L 48.52446 69.59488 
L 47.454429 69.59488 
L 47.454429 69.59488 
L 46.384397 69.59488 
L 46.384397 69.59488 
L 45.314365 69.59488 
L 45.314365 69.59488 
L 44.226791 69.59488 
L 44.226791 69.59488 
L 43.156759 69.59488 
L 43.156759 69.59488 
L 42.086727 69.59488 
L 42.086727 69.59488 
L 41.542941 69.59488 
z
" clip-path="url(#p1f6e0020fc)" style="fill: #17becf; fill-opacity: 0.6; stroke: #1f77b4; stroke-opacity: 0.8; stroke-width: 1.5"/>
    <path d="M 57.610961 69.59488 
L 57.610961 64.94506 
L 58.154748 64.94506 
L 58.154748 62.866097 
L 59.22478 62.866097 
L 59.22478 59.582973 
L 60.294812 59.582973 
L 60.294812 60.852628 
L 61.364844 60.852628 
L 61.364844 65.115325 
L 62.434875 65.115325 
L 62.434875 60.978115 
L 63.522449 60.978115 
L 63.522449 62.912487 
L 64.557398 62.912487 
L 64.557398 62.180828 
L 65.592347 62.180828 
L 65.592347 66.21637 
L 66.662379 66.21637 
L 66.662379 60.94852 
L 67.732411 60.94852 
L 67.732411 65.377343 
L 68.802442 65.377343 
L 68.802442 61.022888 
L 69.872474 61.022888 
L 69.872474 56.863905 
L 70.960048 56.863905 
L 70.960048 57.730126 
L 72.03008 57.730126 
L 72.03008 56.018382 
L 73.100112 56.018382 
L 73.100112 57.175787 
L 74.170144 57.175787 
L 74.170144 62.601459 
L 75.240176 62.601459 
L 75.240176 61.697768 
L 76.327749 61.697768 
L 76.327749 62.52134 
L 77.362698 62.52134 
L 77.362698 61.654978 
L 78.397647 61.654978 
L 78.397647 62.855683 
L 79.467679 62.855683 
L 79.467679 63.924052 
L 80.537711 63.924052 
L 80.537711 69.052358 
L 81.607743 69.052358 
L 81.607743 68.772089 
L 82.677774 68.772089 
L 82.677774 69.427761 
L 83.221561 69.427761 
L 83.221561 69.59488 
L 83.221561 69.59488 
L 82.677774 69.59488 
L 82.677774 69.59488 
L 81.607743 69.59488 
L 81.607743 69.59488 
L 80.537711 69.59488 
L 80.537711 69.59488 
L 79.467679 69.59488 
L 79.467679 69.59488 
L 78.397647 69.59488 
L 78.397647 69.59488 
L 77.362698 69.59488 
L 77.362698 69.59488 
L 76.327749 69.59488 
L 76.327749 69.59488 
L 75.240176 69.59488 
L 75.240176 69.59488 
L 74.170144 69.59488 
L 74.170144 69.59488 
L 73.100112 69.59488 
L 73.100112 69.59488 
L 72.03008 69.59488 
L 72.03008 69.59488 
L 70.960048 69.59488 
L 70.960048 69.59488 
L 69.872474 69.59488 
L 69.872474 69.59488 
L 68.802442 69.59488 
L 68.802442 69.59488 
L 67.732411 69.59488 
L 67.732411 69.59488 
L 66.662379 69.59488 
L 66.662379 69.59488 
L 65.592347 69.59488 
L 65.592347 69.59488 
L 64.557398 69.59488 
L 64.557398 69.59488 
L 63.522449 69.59488 
L 63.522449 69.59488 
L 62.434875 69.59488 
L 62.434875 69.59488 
L 61.364844 69.59488 
L 61.364844 69.59488 
L 60.294812 69.59488 
L 60.294812 69.59488 
L 59.22478 69.59488 
L 59.22478 69.59488 
L 58.154748 69.59488 
L 58.154748 69.59488 
L 57.610961 69.59488 
z
" clip-path="url(#p1f6e0020fc)" style="fill: #17becf; fill-opacity: 0.6; stroke: #1f77b4; stroke-opacity: 0.8; stroke-width: 1.5"/>
    <path d="M 96.026861 69.59488 
L 96.026861 66.83754 
L 96.570648 66.83754 
L 96.570648 65.111815 
L 97.64068 65.111815 
L 97.64068 61.000313 
L 98.710712 61.000313 
L 98.710712 58.253912 
L 99.780744 58.253912 
L 99.780744 57.710331 
L 100.850776 57.710331 
L 100.850776 55.508079 
L 101.938349 55.508079 
L 101.938349 52.180935 
L 102.990839 52.180935 
L 102.990839 51.810914 
L 104.04333 51.810914 
L 104.04333 51.598829 
L 105.113362 51.598829 
L 105.113362 50.88263 
L 106.183394 50.88263 
L 106.183394 49.014032 
L 107.253426 49.014032 
L 107.253426 48.971084 
L 108.323458 48.971084 
L 108.323458 49.794675 
L 109.411031 49.794675 
L 109.411031 49.335028 
L 110.481063 49.335028 
L 110.481063 49.487116 
L 111.551095 49.487116 
L 111.551095 49.558933 
L 112.621127 49.558933 
L 112.621127 48.910618 
L 113.691159 48.910618 
L 113.691159 48.047777 
L 114.778732 48.047777 
L 114.778732 46.613451 
L 115.813681 46.613451 
L 115.813681 44.454887 
L 116.84863 44.454887 
L 116.84863 43.933597 
L 117.918662 43.933597 
L 117.918662 44.318211 
L 118.988694 44.318211 
L 118.988694 45.03061 
L 120.058726 45.03061 
L 120.058726 46.23313 
L 121.128758 46.23313 
L 121.128758 46.245441 
L 122.216331 46.245441 
L 122.216331 46.56972 
L 123.286363 46.56972 
L 123.286363 45.932636 
L 124.356395 45.932636 
L 124.356395 45.231855 
L 125.426427 45.231855 
L 125.426427 42.9002 
L 126.496459 42.9002 
L 126.496459 43.295152 
L 127.584032 43.295152 
L 127.584032 43.072613 
L 128.618981 43.072613 
L 128.618981 43.175084 
L 129.65393 43.175084 
L 129.65393 44.050028 
L 130.723962 44.050028 
L 130.723962 43.327291 
L 131.793994 43.327291 
L 131.793994 42.793499 
L 132.864026 42.793499 
L 132.864026 40.532484 
L 133.934058 40.532484 
L 133.934058 37.957823 
L 135.021631 37.957823 
L 135.021631 37.94191 
L 136.091663 37.94191 
L 136.091663 34.181641 
L 137.161695 34.181641 
L 137.161695 34.188723 
L 138.231727 34.188723 
L 138.231727 34.214569 
L 139.301759 34.214569 
L 139.301759 33.201413 
L 140.389332 33.201413 
L 140.389332 33.138104 
L 141.424281 33.138104 
L 141.424281 33.072496 
L 142.45923 33.072496 
L 142.45923 33.092921 
L 143.529262 33.092921 
L 143.529262 33.076521 
L 144.599294 33.076521 
L 144.599294 33.47035 
L 145.669326 33.47035 
L 145.669326 35.543657 
L 146.739358 35.543657 
L 146.739358 38.568224 
L 147.826931 38.568224 
L 147.826931 38.409038 
L 148.896963 38.409038 
L 148.896963 40.907828 
L 149.966995 40.907828 
L 149.966995 41.973164 
L 151.037027 41.973164 
L 151.037027 45.379992 
L 152.107059 45.379992 
L 152.107059 45.75056 
L 153.194632 45.75056 
L 153.194632 47.461866 
L 154.247123 47.461866 
L 154.247123 49.142682 
L 155.299613 49.142682 
L 155.299613 49.180973 
L 156.369645 49.180973 
L 156.369645 50.176523 
L 157.439677 50.176523 
L 157.439677 51.701962 
L 158.509709 51.701962 
L 158.509709 51.664311 
L 159.579741 51.664311 
L 159.579741 51.122708 
L 160.667314 51.122708 
L 160.667314 51.539562 
L 161.737346 51.539562 
L 161.737346 51.472394 
L 162.807378 51.472394 
L 162.807378 51.426767 
L 163.87741 51.426767 
L 163.87741 52.873707 
L 164.947442 52.873707 
L 164.947442 55.654982 
L 166.035015 55.654982 
L 166.035015 58.982593 
L 167.069964 58.982593 
L 167.069964 57.345796 
L 168.104913 57.345796 
L 168.104913 64.293687 
L 169.174945 64.293687 
L 169.174945 66.968027 
L 170.244977 66.968027 
L 170.244977 68.136468 
L 171.315009 68.136468 
L 171.315009 68.063885 
L 171.841254 68.063885 
L 171.841254 69.59488 
L 171.841254 69.59488 
L 171.315009 69.59488 
L 171.315009 69.59488 
L 170.244977 69.59488 
L 170.244977 69.59488 
L 169.174945 69.59488 
L 169.174945 69.59488 
L 168.104913 69.59488 
L 168.104913 69.59488 
L 167.069964 69.59488 
L 167.069964 69.59488 
L 166.035015 69.59488 
L 166.035015 69.59488 
L 164.947442 69.59488 
L 164.947442 69.59488 
L 163.87741 69.59488 
L 163.87741 69.59488 
L 162.807378 69.59488 
L 162.807378 69.59488 
L 161.737346 69.59488 
L 161.737346 69.59488 
L 160.667314 69.59488 
L 160.667314 69.59488 
L 159.579741 69.59488 
L 159.579741 69.59488 
L 158.509709 69.59488 
L 158.509709 69.59488 
L 157.439677 69.59488 
L 157.439677 69.59488 
L 156.369645 69.59488 
L 156.369645 69.59488 
L 155.299613 69.59488 
L 155.299613 69.59488 
L 154.247123 69.59488 
L 154.247123 69.59488 
L 153.194632 69.59488 
L 153.194632 69.59488 
L 152.107059 69.59488 
L 152.107059 69.59488 
L 151.037027 69.59488 
L 151.037027 69.59488 
L 149.966995 69.59488 
L 149.966995 69.59488 
L 148.896963 69.59488 
L 148.896963 69.59488 
L 147.826931 69.59488 
L 147.826931 69.59488 
L 146.739358 69.59488 
L 146.739358 69.59488 
L 145.669326 69.59488 
L 145.669326 69.59488 
L 144.599294 69.59488 
L 144.599294 69.59488 
L 143.529262 69.59488 
L 143.529262 69.59488 
L 142.45923 69.59488 
L 142.45923 69.59488 
L 141.424281 69.59488 
L 141.424281 69.59488 
L 140.389332 69.59488 
L 140.389332 69.59488 
L 139.301759 69.59488 
L 139.301759 69.59488 
L 138.231727 69.59488 
L 138.231727 69.59488 
L 137.161695 69.59488 
L 137.161695 69.59488 
L 136.091663 69.59488 
L 136.091663 69.59488 
L 135.021631 69.59488 
L 135.021631 69.59488 
L 133.934058 69.59488 
L 133.934058 69.59488 
L 132.864026 69.59488 
L 132.864026 69.59488 
L 131.793994 69.59488 
L 131.793994 69.59488 
L 130.723962 69.59488 
L 130.723962 69.59488 
L 129.65393 69.59488 
L 129.65393 69.59488 
L 128.618981 69.59488 
L 128.618981 69.59488 
L 127.584032 69.59488 
L 127.584032 69.59488 
L 126.496459 69.59488 
L 126.496459 69.59488 
L 125.426427 69.59488 
L 125.426427 69.59488 
L 124.356395 69.59488 
L 124.356395 69.59488 
L 123.286363 69.59488 
L 123.286363 69.59488 
L 122.216331 69.59488 
L 122.216331 69.59488 
L 121.128758 69.59488 
L 121.128758 69.59488 
L 120.058726 69.59488 
L 120.058726 69.59488 
L 118.988694 69.59488 
L 118.988694 69.59488 
L 117.918662 69.59488 
L 117.918662 69.59488 
L 116.84863 69.59488 
L 116.84863 69.59488 
L 115.813681 69.59488 
L 115.813681 69.59488 
L 114.778732 69.59488 
L 114.778732 69.59488 
L 113.691159 69.59488 
L 113.691159 69.59488 
L 112.621127 69.59488 
L 112.621127 69.59488 
L 111.551095 69.59488 
L 111.551095 69.59488 
L 110.481063 69.59488 
L 110.481063 69.59488 
L 109.411031 69.59488 
L 109.411031 69.59488 
L 108.323458 69.59488 
L 108.323458 69.59488 
L 107.253426 69.59488 
L 107.253426 69.59488 
L 106.183394 69.59488 
L 106.183394 69.59488 
L 105.113362 69.59488 
L 105.113362 69.59488 
L 104.04333 69.59488 
L 104.04333 69.59488 
L 102.990839 69.59488 
L 102.990839 69.59488 
L 101.938349 69.59488 
L 101.938349 69.59488 
L 100.850776 69.59488 
L 100.850776 69.59488 
L 99.780744 69.59488 
L 99.780744 69.59488 
L 98.710712 69.59488 
L 98.710712 69.59488 
L 97.64068 69.59488 
L 97.64068 69.59488 
L 96.570648 69.59488 
L 96.570648 69.59488 
L 96.026861 69.59488 
z
" clip-path="url(#p1f6e0020fc)" style="fill: #17becf; fill-opacity: 0.6; stroke: #1f77b4; stroke-opacity: 0.8; stroke-width: 1.5"/>
    <path d="M 230.640385 69.59488 
L 230.640385 67.609832 
L 231.131548 67.609832 
L 231.131548 67.034992 
L 232.166496 67.034992 
L 232.166496 67.515628 
L 233.236528 67.515628 
L 233.236528 67.621574 
L 233.762774 67.621574 
L 233.762774 69.59488 
L 233.762774 69.59488 
L 233.236528 69.59488 
L 233.236528 69.59488 
L 232.166496 69.59488 
L 232.166496 69.59488 
L 231.131548 69.59488 
L 231.131548 69.59488 
L 230.640385 69.59488 
z
" clip-path="url(#p1f6e0020fc)" style="fill: #17becf; fill-opacity: 0.6; stroke: #1f77b4; stroke-opacity: 0.8; stroke-width: 1.5"/>
    <path d="M 241.270539 69.59488 
L 241.270539 69.547757 
L 241.814325 69.547757 
L 241.814325 67.46928 
L 242.358112 67.46928 
L 242.358112 69.59488 
L 242.358112 69.59488 
L 241.814325 69.59488 
L 241.814325 69.59488 
L 241.270539 69.59488 
z
" clip-path="url(#p1f6e0020fc)" style="fill: #17becf; fill-opacity: 0.6; stroke: #1f77b4; stroke-opacity: 0.8; stroke-width: 1.5"/>
    <path d="M 258.355966 69.59488 
L 258.355966 69.13694 
L 258.882212 69.13694 
L 258.882212 67.841062 
L 259.408457 67.841062 
L 259.408457 69.59488 
L 259.408457 69.59488 
L 258.882212 69.59488 
L 258.882212 69.59488 
L 258.355966 69.59488 
z
" clip-path="url(#p1f6e0020fc)" style="fill: #17becf; fill-opacity: 0.6; stroke: #1f77b4; stroke-opacity: 0.8; stroke-width: 1.5"/>
    <path d="M 269.091369 69.59488 
L 269.091369 67.234822 
L 269.582531 67.234822 
L 269.582531 66.938603 
L 270.61748 66.938603 
L 270.61748 60.360577 
L 271.687512 60.360577 
L 271.687512 62.590163 
L 272.757543 62.590163 
L 272.757543 63.668248 
L 273.827575 63.668248 
L 273.827575 67.568109 
L 274.897607 67.568109 
L 274.897607 66.040457 
L 275.985181 66.040457 
L 275.985181 62.704779 
L 277.055213 62.704779 
L 277.055213 65.123046 
L 278.125245 65.123046 
L 278.125245 65.5848 
L 278.669031 65.5848 
L 278.669031 69.59488 
L 278.669031 69.59488 
L 278.125245 69.59488 
L 278.125245 69.59488 
L 277.055213 69.59488 
L 277.055213 69.59488 
L 275.985181 69.59488 
L 275.985181 69.59488 
L 274.897607 69.59488 
L 274.897607 69.59488 
L 273.827575 69.59488 
L 273.827575 69.59488 
L 272.757543 69.59488 
L 272.757543 69.59488 
L 271.687512 69.59488 
L 271.687512 69.59488 
L 270.61748 69.59488 
L 270.61748 69.59488 
L 269.582531 69.59488 
L 269.582531 69.59488 
L 269.091369 69.59488 
z
" clip-path="url(#p1f6e0020fc)" style="fill: #17becf; fill-opacity: 0.6; stroke: #1f77b4; stroke-opacity: 0.8; stroke-width: 1.5"/>
    <path d="M 297.824357 69.59488 
L 297.824357 67.293723 
L 298.368144 67.293723 
L 298.368144 63.026832 
L 299.438176 63.026832 
L 299.438176 61.246706 
L 300.508207 61.246706 
L 300.508207 60.373193 
L 301.595781 60.373193 
L 301.595781 61.005244 
L 302.665813 61.005244 
L 302.665813 63.18922 
L 303.735845 63.18922 
L 303.735845 64.284669 
L 304.805877 64.284669 
L 304.805877 65.067385 
L 305.875909 65.067385 
L 305.875909 67.177246 
L 306.963482 67.177246 
L 306.963482 64.88379 
L 308.015972 64.88379 
L 308.015972 65.252542 
L 309.068463 65.252542 
L 309.068463 64.001521 
L 310.138495 64.001521 
L 310.138495 64.74794 
L 311.208527 64.74794 
L 311.208527 62.519923 
L 312.278559 62.519923 
L 312.278559 66.06584 
L 313.348591 66.06584 
L 313.348591 65.60966 
L 314.436164 65.60966 
L 314.436164 68.549487 
L 314.979951 68.549487 
L 314.979951 69.59488 
L 314.979951 69.59488 
L 314.436164 69.59488 
L 314.436164 69.59488 
L 313.348591 69.59488 
L 313.348591 69.59488 
L 312.278559 69.59488 
L 312.278559 69.59488 
L 311.208527 69.59488 
L 311.208527 69.59488 
L 310.138495 69.59488 
L 310.138495 69.59488 
L 309.068463 69.59488 
L 309.068463 69.59488 
L 308.015972 69.59488 
L 308.015972 69.59488 
L 306.963482 69.59488 
L 306.963482 69.59488 
L 305.875909 69.59488 
L 305.875909 69.59488 
L 304.805877 69.59488 
L 304.805877 69.59488 
L 303.735845 69.59488 
L 303.735845 69.59488 
L 302.665813 69.59488 
L 302.665813 69.59488 
L 301.595781 69.59488 
L 301.595781 69.59488 
L 300.508207 69.59488 
L 300.508207 69.59488 
L 299.438176 69.59488 
L 299.438176 69.59488 
L 298.368144 69.59488 
L 298.368144 69.59488 
L 297.824357 69.59488 
z
" clip-path="url(#p1f6e0020fc)" style="fill: #17becf; fill-opacity: 0.6; stroke: #1f77b4; stroke-opacity: 0.8; stroke-width: 1.5"/>
    <path d="M 317.120014 69.59488 
L 317.120014 69.350282 
L 317.120014 69.350282 
L 317.120014 69.59488 
L 317.120014 69.59488 
L 317.120014 69.59488 
z
" clip-path="url(#p1f6e0020fc)" style="fill: #17becf; fill-opacity: 0.6; stroke: #1f77b4; stroke-opacity: 0.8; stroke-width: 1.5"/>
    <path d="M 334.135276 69.59488 
L 334.135276 63.685704 
L 334.679063 63.685704 
L 334.679063 56.654719 
L 335.749095 56.654719 
L 335.749095 55.036375 
L 336.819127 55.036375 
L 336.819127 57.808759 
L 337.889159 57.808759 
L 337.889159 61.891883 
L 338.959191 61.891883 
L 338.959191 63.03831 
L 340.046764 63.03831 
L 340.046764 61.233283 
L 341.116796 61.233283 
L 341.116796 61.35114 
L 342.186828 61.35114 
L 342.186828 62.991458 
L 343.25686 62.991458 
L 343.25686 60.331207 
L 344.326892 60.331207 
L 344.326892 59.174147 
L 345.414465 59.174147 
L 345.414465 60.33027 
L 346.449414 60.33027 
L 346.449414 59.929954 
L 347.484363 59.929954 
L 347.484363 67.547934 
L 348.02815 67.547934 
L 348.02815 69.59488 
L 348.02815 69.59488 
L 347.484363 69.59488 
L 347.484363 69.59488 
L 346.449414 69.59488 
L 346.449414 69.59488 
L 345.414465 69.59488 
L 345.414465 69.59488 
L 344.326892 69.59488 
L 344.326892 69.59488 
L 343.25686 69.59488 
L 343.25686 69.59488 
L 342.186828 69.59488 
L 342.186828 69.59488 
L 341.116796 69.59488 
L 341.116796 69.59488 
L 340.046764 69.59488 
L 340.046764 69.59488 
L 338.959191 69.59488 
L 338.959191 69.59488 
L 337.889159 69.59488 
L 337.889159 69.59488 
L 336.819127 69.59488 
L 336.819127 69.59488 
L 335.749095 69.59488 
L 335.749095 69.59488 
L 334.679063 69.59488 
L 334.679063 69.59488 
L 334.135276 69.59488 
z
" clip-path="url(#p1f6e0020fc)" style="fill: #17becf; fill-opacity: 0.6; stroke: #1f77b4; stroke-opacity: 0.8; stroke-width: 1.5"/>
    <path d="M 404.652134 69.59488 
L 404.652134 68.561458 
L 405.178379 68.561458 
L 405.178379 64.828042 
L 406.248411 64.828042 
L 406.248411 62.549099 
L 407.318443 62.549099 
L 407.318443 65.081511 
L 407.844688 65.081511 
L 407.844688 69.59488 
L 407.844688 69.59488 
L 407.318443 69.59488 
L 407.318443 69.59488 
L 406.248411 69.59488 
L 406.248411 69.59488 
L 405.178379 69.59488 
L 405.178379 69.59488 
L 404.652134 69.59488 
z
" clip-path="url(#p1f6e0020fc)" style="fill: #17becf; fill-opacity: 0.6; stroke: #1f77b4; stroke-opacity: 0.8; stroke-width: 1.5"/>
    <path d="M 410.019835 69.59488 
L 410.019835 64.321545 
L 410.528539 64.321545 
L 410.528539 58.831338 
L 411.581029 58.831338 
L 411.581029 62.938791 
L 412.651061 62.938791 
L 412.651061 60.627712 
L 413.721093 60.627712 
L 413.721093 58.49891 
L 414.791125 58.49891 
L 414.791125 55.917356 
L 415.861157 55.917356 
L 415.861157 57.917542 
L 416.94873 57.917542 
L 416.94873 58.256254 
L 418.018762 58.256254 
L 418.018762 58.769706 
L 419.088794 58.769706 
L 419.088794 59.420209 
L 420.158826 59.420209 
L 420.158826 59.587175 
L 421.228858 59.587175 
L 421.228858 60.904349 
L 421.772645 60.904349 
L 421.772645 69.59488 
L 421.772645 69.59488 
L 421.228858 69.59488 
L 421.228858 69.59488 
L 420.158826 69.59488 
L 420.158826 69.59488 
L 419.088794 69.59488 
L 419.088794 69.59488 
L 418.018762 69.59488 
L 418.018762 69.59488 
L 416.94873 69.59488 
L 416.94873 69.59488 
L 415.861157 69.59488 
L 415.861157 69.59488 
L 414.791125 69.59488 
L 414.791125 69.59488 
L 413.721093 69.59488 
L 413.721093 69.59488 
L 412.651061 69.59488 
L 412.651061 69.59488 
L 411.581029 69.59488 
L 411.581029 69.59488 
L 410.528539 69.59488 
L 410.528539 69.59488 
L 410.019835 69.59488 
z
" clip-path="url(#p1f6e0020fc)" style="fill: #17becf; fill-opacity: 0.6; stroke: #1f77b4; stroke-opacity: 0.8; stroke-width: 1.5"/>
   </g>
   <g id="PolyCollection_2">
    <path d="M 38.420552 69.59488 
L 38.420552 74.354413 
L 38.911715 74.354413 
L 38.911715 76.011175 
L 39.946664 76.011175 
L 39.946664 73.966826 
L 40.49045 73.966826 
L 40.49045 69.59488 
L 40.49045 69.59488 
L 39.946664 69.59488 
L 39.946664 69.59488 
L 38.911715 69.59488 
L 38.911715 69.59488 
L 38.420552 69.59488 
z
" clip-path="url(#p1f6e0020fc)" style="fill: #d62728; fill-opacity: 0.6; stroke: #b22222; stroke-opacity: 0.8; stroke-width: 1.5"/>
    <path d="M 55.470897 69.59488 
L 55.470897 71.006132 
L 55.997142 71.006132 
L 55.997142 70.343362 
L 56.523388 70.343362 
L 56.523388 69.59488 
L 56.523388 69.59488 
L 55.997142 69.59488 
L 55.997142 69.59488 
L 55.470897 69.59488 
z
" clip-path="url(#p1f6e0020fc)" style="fill: #d62728; fill-opacity: 0.6; stroke: #b22222; stroke-opacity: 0.8; stroke-width: 1.5"/>
    <path d="M 84.309135 69.59488 
L 84.309135 73.834228 
L 84.83538 73.834228 
L 84.83538 72.716891 
L 85.905412 72.716891 
L 85.905412 74.423711 
L 86.975444 74.423711 
L 86.975444 74.129622 
L 88.045476 74.129622 
L 88.045476 73.72075 
L 89.133049 73.72075 
L 89.133049 74.80651 
L 90.167998 74.80651 
L 90.167998 71.625311 
L 91.202947 71.625311 
L 91.202947 70.882824 
L 92.272979 70.882824 
L 92.272979 72.54542 
L 93.343011 72.54542 
L 93.343011 73.168392 
L 94.413043 73.168392 
L 94.413043 72.917539 
L 94.939288 72.917539 
L 94.939288 69.59488 
L 94.939288 69.59488 
L 94.413043 69.59488 
L 94.413043 69.59488 
L 93.343011 69.59488 
L 93.343011 69.59488 
L 92.272979 69.59488 
L 92.272979 69.59488 
L 91.202947 69.59488 
L 91.202947 69.59488 
L 90.167998 69.59488 
L 90.167998 69.59488 
L 89.133049 69.59488 
L 89.133049 69.59488 
L 88.045476 69.59488 
L 88.045476 69.59488 
L 86.975444 69.59488 
L 86.975444 69.59488 
L 85.905412 69.59488 
L 85.905412 69.59488 
L 84.83538 69.59488 
L 84.83538 69.59488 
L 84.309135 69.59488 
z
" clip-path="url(#p1f6e0020fc)" style="fill: #d62728; fill-opacity: 0.6; stroke: #b22222; stroke-opacity: 0.8; stroke-width: 1.5"/>
    <path d="M 172.928828 69.59488 
L 172.928828 70.033533 
L 173.472614 70.033533 
L 173.472614 73.435841 
L 174.542646 73.435841 
L 174.542646 77.262095 
L 175.612678 77.262095 
L 175.612678 77.251773 
L 176.68271 77.251773 
L 176.68271 78.752196 
L 177.752742 78.752196 
L 177.752742 76.969282 
L 178.840315 76.969282 
L 178.840315 76.303528 
L 179.875264 76.303528 
L 179.875264 78.787918 
L 180.910213 78.787918 
L 180.910213 75.009645 
L 181.980245 75.009645 
L 181.980245 76.968009 
L 183.050277 76.968009 
L 183.050277 76.702238 
L 184.120309 76.702238 
L 184.120309 80.931129 
L 185.190341 80.931129 
L 185.190341 83.237726 
L 186.277914 83.237726 
L 186.277914 79.436482 
L 187.347946 79.436482 
L 187.347946 82.670533 
L 188.417978 82.670533 
L 188.417978 83.53254 
L 189.48801 83.53254 
L 189.48801 88.808874 
L 190.558042 88.808874 
L 190.558042 99.052035 
L 191.645615 99.052035 
L 191.645615 96.003972 
L 192.680564 96.003972 
L 192.680564 104.743015 
L 193.715513 104.743015 
L 193.715513 88.640358 
L 194.785545 88.640358 
L 194.785545 87.697263 
L 195.855577 87.697263 
L 195.855577 85.297195 
L 196.925609 85.297195 
L 196.925609 89.147 
L 197.995641 89.147 
L 197.995641 89.591716 
L 199.083214 89.591716 
L 199.083214 91.887779 
L 200.153246 91.887779 
L 200.153246 97.317094 
L 201.223278 97.317094 
L 201.223278 93.128354 
L 202.29331 93.128354 
L 202.29331 87.417196 
L 203.363342 87.417196 
L 203.363342 91.22236 
L 204.450916 91.22236 
L 204.450916 90.449762 
L 205.503406 90.449762 
L 205.503406 96.627891 
L 206.555896 96.627891 
L 206.555896 96.453999 
L 207.625928 96.453999 
L 207.625928 97.92219 
L 208.69596 97.92219 
L 208.69596 89.575825 
L 209.765992 89.575825 
L 209.765992 85.231619 
L 210.836024 85.231619 
L 210.836024 83.217424 
L 211.923597 83.217424 
L 211.923597 75.535428 
L 212.993629 75.535428 
L 212.993629 72.299431 
L 214.063661 72.299431 
L 214.063661 76.896489 
L 215.133693 76.896489 
L 215.133693 76.243333 
L 216.203725 76.243333 
L 216.203725 76.035371 
L 217.291299 76.035371 
L 217.291299 72.728071 
L 218.326248 72.728071 
L 218.326248 78.065691 
L 219.361196 78.065691 
L 219.361196 76.781912 
L 220.431228 76.781912 
L 220.431228 78.008194 
L 221.50126 78.008194 
L 221.50126 70.208423 
L 222.571292 70.208423 
L 222.571292 70.950691 
L 223.641324 70.950691 
L 223.641324 75.588709 
L 224.728898 75.588709 
L 224.728898 73.814339 
L 225.798929 73.814339 
L 225.798929 70.632911 
L 226.868961 70.632911 
L 226.868961 74.906099 
L 227.938993 74.906099 
L 227.938993 70.693542 
L 229.009025 70.693542 
L 229.009025 70.127997 
L 229.552812 70.127997 
L 229.552812 69.59488 
L 229.552812 69.59488 
L 229.009025 69.59488 
L 229.009025 69.59488 
L 227.938993 69.59488 
L 227.938993 69.59488 
L 226.868961 69.59488 
L 226.868961 69.59488 
L 225.798929 69.59488 
L 225.798929 69.59488 
L 224.728898 69.59488 
L 224.728898 69.59488 
L 223.641324 69.59488 
L 223.641324 69.59488 
L 222.571292 69.59488 
L 222.571292 69.59488 
L 221.50126 69.59488 
L 221.50126 69.59488 
L 220.431228 69.59488 
L 220.431228 69.59488 
L 219.361196 69.59488 
L 219.361196 69.59488 
L 218.326248 69.59488 
L 218.326248 69.59488 
L 217.291299 69.59488 
L 217.291299 69.59488 
L 216.203725 69.59488 
L 216.203725 69.59488 
L 215.133693 69.59488 
L 215.133693 69.59488 
L 214.063661 69.59488 
L 214.063661 69.59488 
L 212.993629 69.59488 
L 212.993629 69.59488 
L 211.923597 69.59488 
L 211.923597 69.59488 
L 210.836024 69.59488 
L 210.836024 69.59488 
L 209.765992 69.59488 
L 209.765992 69.59488 
L 208.69596 69.59488 
L 208.69596 69.59488 
L 207.625928 69.59488 
L 207.625928 69.59488 
L 206.555896 69.59488 
L 206.555896 69.59488 
L 205.503406 69.59488 
L 205.503406 69.59488 
L 204.450916 69.59488 
L 204.450916 69.59488 
L 203.363342 69.59488 
L 203.363342 69.59488 
L 202.29331 69.59488 
L 202.29331 69.59488 
L 201.223278 69.59488 
L 201.223278 69.59488 
L 200.153246 69.59488 
L 200.153246 69.59488 
L 199.083214 69.59488 
L 199.083214 69.59488 
L 197.995641 69.59488 
L 197.995641 69.59488 
L 196.925609 69.59488 
L 196.925609 69.59488 
L 195.855577 69.59488 
L 195.855577 69.59488 
L 194.785545 69.59488 
L 194.785545 69.59488 
L 193.715513 69.59488 
L 193.715513 69.59488 
L 192.680564 69.59488 
L 192.680564 69.59488 
L 191.645615 69.59488 
L 191.645615 69.59488 
L 190.558042 69.59488 
L 190.558042 69.59488 
L 189.48801 69.59488 
L 189.48801 69.59488 
L 188.417978 69.59488 
L 188.417978 69.59488 
L 187.347946 69.59488 
L 187.347946 69.59488 
L 186.277914 69.59488 
L 186.277914 69.59488 
L 185.190341 69.59488 
L 185.190341 69.59488 
L 184.120309 69.59488 
L 184.120309 69.59488 
L 183.050277 69.59488 
L 183.050277 69.59488 
L 181.980245 69.59488 
L 181.980245 69.59488 
L 180.910213 69.59488 
L 180.910213 69.59488 
L 179.875264 69.59488 
L 179.875264 69.59488 
L 178.840315 69.59488 
L 178.840315 69.59488 
L 177.752742 69.59488 
L 177.752742 69.59488 
L 176.68271 69.59488 
L 176.68271 69.59488 
L 175.612678 69.59488 
L 175.612678 69.59488 
L 174.542646 69.59488 
L 174.542646 69.59488 
L 173.472614 69.59488 
L 173.472614 69.59488 
L 172.928828 69.59488 
z
" clip-path="url(#p1f6e0020fc)" style="fill: #d62728; fill-opacity: 0.6; stroke: #b22222; stroke-opacity: 0.8; stroke-width: 1.5"/>
    <path d="M 234.850347 69.59488 
L 234.850347 70.616866 
L 235.376592 70.616866 
L 235.376592 74.344308 
L 236.446624 74.344308 
L 236.446624 76.157921 
L 237.534198 76.157921 
L 237.534198 78.118121 
L 238.60423 78.118121 
L 238.60423 77.680804 
L 239.674261 77.680804 
L 239.674261 75.162055 
L 240.218048 75.162055 
L 240.218048 69.59488 
L 240.218048 69.59488 
L 239.674261 69.59488 
L 239.674261 69.59488 
L 238.60423 69.59488 
L 238.60423 69.59488 
L 237.534198 69.59488 
L 237.534198 69.59488 
L 236.446624 69.59488 
L 236.446624 69.59488 
L 235.376592 69.59488 
L 235.376592 69.59488 
L 234.850347 69.59488 
z
" clip-path="url(#p1f6e0020fc)" style="fill: #d62728; fill-opacity: 0.6; stroke: #b22222; stroke-opacity: 0.8; stroke-width: 1.5"/>
    <path d="M 243.445685 69.59488 
L 243.445685 70.673333 
L 243.936848 70.673333 
L 243.936848 71.980038 
L 244.971797 71.980038 
L 244.971797 83.294493 
L 246.041828 83.294493 
L 246.041828 86.298014 
L 247.11186 86.298014 
L 247.11186 86.64589 
L 248.181892 86.64589 
L 248.181892 83.026239 
L 249.251924 83.026239 
L 249.251924 82.812952 
L 250.339498 82.812952 
L 250.339498 83.731716 
L 251.40953 83.731716 
L 251.40953 82.914748 
L 252.479561 82.914748 
L 252.479561 78.666124 
L 253.549593 78.666124 
L 253.549593 80.366627 
L 254.619625 80.366627 
L 254.619625 79.509738 
L 255.707199 79.509738 
L 255.707199 78.625975 
L 256.759689 78.625975 
L 256.759689 75.241508 
L 257.268393 75.241508 
L 257.268393 69.59488 
L 257.268393 69.59488 
L 256.759689 69.59488 
L 256.759689 69.59488 
L 255.707199 69.59488 
L 255.707199 69.59488 
L 254.619625 69.59488 
L 254.619625 69.59488 
L 253.549593 69.59488 
L 253.549593 69.59488 
L 252.479561 69.59488 
L 252.479561 69.59488 
L 251.40953 69.59488 
L 251.40953 69.59488 
L 250.339498 69.59488 
L 250.339498 69.59488 
L 249.251924 69.59488 
L 249.251924 69.59488 
L 248.181892 69.59488 
L 248.181892 69.59488 
L 247.11186 69.59488 
L 247.11186 69.59488 
L 246.041828 69.59488 
L 246.041828 69.59488 
L 244.971797 69.59488 
L 244.971797 69.59488 
L 243.936848 69.59488 
L 243.936848 69.59488 
L 243.445685 69.59488 
z
" clip-path="url(#p1f6e0020fc)" style="fill: #d62728; fill-opacity: 0.6; stroke: #b22222; stroke-opacity: 0.8; stroke-width: 1.5"/>
    <path d="M 260.49603 69.59488 
L 260.49603 74.57708 
L 261.022275 74.57708 
L 261.022275 73.255969 
L 262.092307 73.255969 
L 262.092307 75.207824 
L 263.179881 75.207824 
L 263.179881 78.252809 
L 264.249913 78.252809 
L 264.249913 85.258808 
L 265.319945 85.258808 
L 265.319945 84.791992 
L 266.389976 84.791992 
L 266.389976 79.45296 
L 267.460008 79.45296 
L 267.460008 76.306541 
L 268.003795 76.306541 
L 268.003795 69.59488 
L 268.003795 69.59488 
L 267.460008 69.59488 
L 267.460008 69.59488 
L 266.389976 69.59488 
L 266.389976 69.59488 
L 265.319945 69.59488 
L 265.319945 69.59488 
L 264.249913 69.59488 
L 264.249913 69.59488 
L 263.179881 69.59488 
L 263.179881 69.59488 
L 262.092307 69.59488 
L 262.092307 69.59488 
L 261.022275 69.59488 
L 261.022275 69.59488 
L 260.49603 69.59488 
z
" clip-path="url(#p1f6e0020fc)" style="fill: #d62728; fill-opacity: 0.6; stroke: #b22222; stroke-opacity: 0.8; stroke-width: 1.5"/>
    <path d="M 279.721522 69.59488 
L 279.721522 71.236417 
L 280.265308 71.236417 
L 280.265308 74.96984 
L 281.352882 74.96984 
L 281.352882 81.005163 
L 282.387831 81.005163 
L 282.387831 88.026376 
L 283.42278 88.026376 
L 283.42278 89.287332 
L 284.492812 89.287332 
L 284.492812 93.429487 
L 285.562844 93.429487 
L 285.562844 88.984033 
L 286.632875 88.984033 
L 286.632875 84.013353 
L 287.702907 84.013353 
L 287.702907 81.960917 
L 288.790481 81.960917 
L 288.790481 80.042375 
L 289.860513 80.042375 
L 289.860513 81.274675 
L 290.930545 81.274675 
L 290.930545 80.35509 
L 292.000577 80.35509 
L 292.000577 84.408863 
L 293.070609 84.408863 
L 293.070609 84.395872 
L 294.158182 84.395872 
L 294.158182 76.953438 
L 295.193131 76.953438 
L 295.193131 80.992301 
L 296.22808 80.992301 
L 296.22808 72.628868 
L 296.771866 72.628868 
L 296.771866 69.59488 
L 296.771866 69.59488 
L 296.22808 69.59488 
L 296.22808 69.59488 
L 295.193131 69.59488 
L 295.193131 69.59488 
L 294.158182 69.59488 
L 294.158182 69.59488 
L 293.070609 69.59488 
L 293.070609 69.59488 
L 292.000577 69.59488 
L 292.000577 69.59488 
L 290.930545 69.59488 
L 290.930545 69.59488 
L 289.860513 69.59488 
L 289.860513 69.59488 
L 288.790481 69.59488 
L 288.790481 69.59488 
L 287.702907 69.59488 
L 287.702907 69.59488 
L 286.632875 69.59488 
L 286.632875 69.59488 
L 285.562844 69.59488 
L 285.562844 69.59488 
L 284.492812 69.59488 
L 284.492812 69.59488 
L 283.42278 69.59488 
L 283.42278 69.59488 
L 282.387831 69.59488 
L 282.387831 69.59488 
L 281.352882 69.59488 
L 281.352882 69.59488 
L 280.265308 69.59488 
L 280.265308 69.59488 
L 279.721522 69.59488 
z
" clip-path="url(#p1f6e0020fc)" style="fill: #d62728; fill-opacity: 0.6; stroke: #b22222; stroke-opacity: 0.8; stroke-width: 1.5"/>
    <path d="M 316.032441 69.59488 
L 316.032441 72.006453 
L 316.032441 72.006453 
L 316.032441 69.59488 
L 316.032441 69.59488 
L 316.032441 69.59488 
z
" clip-path="url(#p1f6e0020fc)" style="fill: #d62728; fill-opacity: 0.6; stroke: #b22222; stroke-opacity: 0.8; stroke-width: 1.5"/>
    <path d="M 318.172505 69.59488 
L 318.172505 71.932002 
L 318.716292 71.932002 
L 318.716292 72.076812 
L 319.803865 72.076812 
L 319.803865 77.489591 
L 320.838814 77.489591 
L 320.838814 78.930708 
L 321.873763 78.930708 
L 321.873763 82.31173 
L 322.943795 82.31173 
L 322.943795 81.644008 
L 324.013827 81.644008 
L 324.013827 83.832605 
L 325.083859 83.832605 
L 325.083859 84.934614 
L 326.153891 84.934614 
L 326.153891 87.317629 
L 327.241464 87.317629 
L 327.241464 90.909671 
L 328.311496 90.909671 
L 328.311496 86.278856 
L 329.381528 86.278856 
L 329.381528 89.834776 
L 330.45156 89.834776 
L 330.45156 84.298751 
L 331.521592 84.298751 
L 331.521592 80.271857 
L 332.609165 80.271857 
L 332.609165 75.299488 
L 333.152952 75.299488 
L 333.152952 69.59488 
L 333.152952 69.59488 
L 332.609165 69.59488 
L 332.609165 69.59488 
L 331.521592 69.59488 
L 331.521592 69.59488 
L 330.45156 69.59488 
L 330.45156 69.59488 
L 329.381528 69.59488 
L 329.381528 69.59488 
L 328.311496 69.59488 
L 328.311496 69.59488 
L 327.241464 69.59488 
L 327.241464 69.59488 
L 326.153891 69.59488 
L 326.153891 69.59488 
L 325.083859 69.59488 
L 325.083859 69.59488 
L 324.013827 69.59488 
L 324.013827 69.59488 
L 322.943795 69.59488 
L 322.943795 69.59488 
L 321.873763 69.59488 
L 321.873763 69.59488 
L 320.838814 69.59488 
L 320.838814 69.59488 
L 319.803865 69.59488 
L 319.803865 69.59488 
L 318.716292 69.59488 
L 318.716292 69.59488 
L 318.172505 69.59488 
z
" clip-path="url(#p1f6e0020fc)" style="fill: #d62728; fill-opacity: 0.6; stroke: #b22222; stroke-opacity: 0.8; stroke-width: 1.5"/>
    <path d="M 349.08064 69.59488 
L 349.08064 76.715124 
L 349.624427 76.715124 
L 349.624427 80.006226 
L 350.694459 80.006226 
L 350.694459 88.278445 
L 351.764491 88.278445 
L 351.764491 86.344807 
L 352.852064 86.344807 
L 352.852064 85.749734 
L 353.922096 85.749734 
L 353.922096 85.397261 
L 354.992128 85.397261 
L 354.992128 90.531371 
L 356.06216 90.531371 
L 356.06216 88.202511 
L 357.132192 88.202511 
L 357.132192 84.78901 
L 358.219765 84.78901 
L 358.219765 88.355311 
L 359.272256 88.355311 
L 359.272256 93.980648 
L 360.324746 93.980648 
L 360.324746 94.927601 
L 361.394778 94.927601 
L 361.394778 99.121541 
L 362.46481 99.121541 
L 362.46481 99.706064 
L 363.534842 99.706064 
L 363.534842 99.919301 
L 364.604874 99.919301 
L 364.604874 95.718743 
L 365.692447 95.718743 
L 365.692447 93.98671 
L 366.762479 93.98671 
L 366.762479 91.156835 
L 367.832511 91.156835 
L 367.832511 89.303806 
L 368.902543 89.303806 
L 368.902543 89.431058 
L 369.972575 89.431058 
L 369.972575 90.79173 
L 371.060148 90.79173 
L 371.060148 92.097122 
L 372.095097 92.097122 
L 372.095097 89.62798 
L 373.130046 89.62798 
L 373.130046 81.037172 
L 374.200078 81.037172 
L 374.200078 83.461229 
L 375.27011 83.461229 
L 375.27011 81.847741 
L 376.340142 81.847741 
L 376.340142 78.638174 
L 377.410174 78.638174 
L 377.410174 77.779534 
L 378.497747 77.779534 
L 378.497747 78.942658 
L 379.567779 78.942658 
L 379.567779 82.177054 
L 380.637811 82.177054 
L 380.637811 77.943698 
L 381.707843 77.943698 
L 381.707843 74.664015 
L 382.777875 74.664015 
L 382.777875 73.853444 
L 383.865448 73.853444 
L 383.865448 73.474491 
L 384.900397 73.474491 
L 384.900397 75.878829 
L 385.935346 75.878829 
L 385.935346 80.613132 
L 387.005378 80.613132 
L 387.005378 80.540114 
L 388.07541 80.540114 
L 388.07541 76.442475 
L 389.145442 76.442475 
L 389.145442 72.761684 
L 390.215474 72.761684 
L 390.215474 73.602029 
L 391.303047 73.602029 
L 391.303047 76.793318 
L 392.373079 76.793318 
L 392.373079 77.91936 
L 393.443111 77.91936 
L 393.443111 77.495381 
L 394.513143 77.495381 
L 394.513143 80.251648 
L 395.583175 80.251648 
L 395.583175 83.114312 
L 396.670748 83.114312 
L 396.670748 85.178927 
L 397.705697 85.178927 
L 397.705697 83.959255 
L 398.740646 83.959255 
L 398.740646 80.804647 
L 399.810678 80.804647 
L 399.810678 75.083489 
L 400.88071 75.083489 
L 400.88071 72.335016 
L 401.950742 72.335016 
L 401.950742 71.025976 
L 403.020774 71.025976 
L 403.020774 71.769403 
L 403.564561 71.769403 
L 403.564561 69.59488 
L 403.564561 69.59488 
L 403.020774 69.59488 
L 403.020774 69.59488 
L 401.950742 69.59488 
L 401.950742 69.59488 
L 400.88071 69.59488 
L 400.88071 69.59488 
L 399.810678 69.59488 
L 399.810678 69.59488 
L 398.740646 69.59488 
L 398.740646 69.59488 
L 397.705697 69.59488 
L 397.705697 69.59488 
L 396.670748 69.59488 
L 396.670748 69.59488 
L 395.583175 69.59488 
L 395.583175 69.59488 
L 394.513143 69.59488 
L 394.513143 69.59488 
L 393.443111 69.59488 
L 393.443111 69.59488 
L 392.373079 69.59488 
L 392.373079 69.59488 
L 391.303047 69.59488 
L 391.303047 69.59488 
L 390.215474 69.59488 
L 390.215474 69.59488 
L 389.145442 69.59488 
L 389.145442 69.59488 
L 388.07541 69.59488 
L 388.07541 69.59488 
L 387.005378 69.59488 
L 387.005378 69.59488 
L 385.935346 69.59488 
L 385.935346 69.59488 
L 384.900397 69.59488 
L 384.900397 69.59488 
L 383.865448 69.59488 
L 383.865448 69.59488 
L 382.777875 69.59488 
L 382.777875 69.59488 
L 381.707843 69.59488 
L 381.707843 69.59488 
L 380.637811 69.59488 
L 380.637811 69.59488 
L 379.567779 69.59488 
L 379.567779 69.59488 
L 378.497747 69.59488 
L 378.497747 69.59488 
L 377.410174 69.59488 
L 377.410174 69.59488 
L 376.340142 69.59488 
L 376.340142 69.59488 
L 375.27011 69.59488 
L 375.27011 69.59488 
L 374.200078 69.59488 
L 374.200078 69.59488 
L 373.130046 69.59488 
L 373.130046 69.59488 
L 372.095097 69.59488 
L 372.095097 69.59488 
L 371.060148 69.59488 
L 371.060148 69.59488 
L 369.972575 69.59488 
L 369.972575 69.59488 
L 368.902543 69.59488 
L 368.902543 69.59488 
L 367.832511 69.59488 
L 367.832511 69.59488 
L 366.762479 69.59488 
L 366.762479 69.59488 
L 365.692447 69.59488 
L 365.692447 69.59488 
L 364.604874 69.59488 
L 364.604874 69.59488 
L 363.534842 69.59488 
L 363.534842 69.59488 
L 362.46481 69.59488 
L 362.46481 69.59488 
L 361.394778 69.59488 
L 361.394778 69.59488 
L 360.324746 69.59488 
L 360.324746 69.59488 
L 359.272256 69.59488 
L 359.272256 69.59488 
L 358.219765 69.59488 
L 358.219765 69.59488 
L 357.132192 69.59488 
L 357.132192 69.59488 
L 356.06216 69.59488 
L 356.06216 69.59488 
L 354.992128 69.59488 
L 354.992128 69.59488 
L 353.922096 69.59488 
L 353.922096 69.59488 
L 352.852064 69.59488 
L 352.852064 69.59488 
L 351.764491 69.59488 
L 351.764491 69.59488 
L 350.694459 69.59488 
L 350.694459 69.59488 
L 349.624427 69.59488 
L 349.624427 69.59488 
L 349.08064 69.59488 
z
" clip-path="url(#p1f6e0020fc)" style="fill: #d62728; fill-opacity: 0.6; stroke: #b22222; stroke-opacity: 0.8; stroke-width: 1.5"/>
    <path d="M 408.932262 69.59488 
L 408.932262 70.682004 
L 408.932262 70.682004 
L 408.932262 69.59488 
L 408.932262 69.59488 
L 408.932262 69.59488 
z
" clip-path="url(#p1f6e0020fc)" style="fill: #d62728; fill-opacity: 0.6; stroke: #b22222; stroke-opacity: 0.8; stroke-width: 1.5"/>
   </g>
   <g id="matplotlib.axis_1">
    <g id="xtick_1">
     <g id="line2d_1">
      <defs>
       <path id="ma7e66ba8e4" d="M 0 0 
L 0 3.5 
" style="stroke: #000000; stroke-width: 0.8"/>
      </defs>
      <g>
       <use xlink:href="#ma7e66ba8e4" x="50.173362" y="121.071395" style="stroke: #000000; stroke-width: 0.8"/>
      </g>
     </g>
    </g>
    <g id="xtick_2">
     <g id="line2d_2">
      <g>
       <use xlink:href="#ma7e66ba8e4" x="101.429645" y="121.071395" style="stroke: #000000; stroke-width: 0.8"/>
      </g>
     </g>
    </g>
    <g id="xtick_3">
     <g id="line2d_3">
      <g>
       <use xlink:href="#ma7e66ba8e4" x="152.685929" y="121.071395" style="stroke: #000000; stroke-width: 0.8"/>
      </g>
     </g>
    </g>
    <g id="xtick_4">
     <g id="line2d_4">
      <g>
       <use xlink:href="#ma7e66ba8e4" x="203.942212" y="121.071395" style="stroke: #000000; stroke-width: 0.8"/>
      </g>
     </g>
    </g>
    <g id="xtick_5">
     <g id="line2d_5">
      <g>
       <use xlink:href="#ma7e66ba8e4" x="255.198495" y="121.071395" style="stroke: #000000; stroke-width: 0.8"/>
      </g>
     </g>
    </g>
    <g id="xtick_6">
     <g id="line2d_6">
      <g>
       <use xlink:href="#ma7e66ba8e4" x="306.454778" y="121.071395" style="stroke: #000000; stroke-width: 0.8"/>
      </g>
     </g>
    </g>
    <g id="xtick_7">
     <g id="line2d_7">
      <g>
       <use xlink:href="#ma7e66ba8e4" x="357.711062" y="121.071395" style="stroke: #000000; stroke-width: 0.8"/>
      </g>
     </g>
    </g>
    <g id="xtick_8">
     <g id="line2d_8">
      <g>
       <use xlink:href="#ma7e66ba8e4" x="408.967345" y="121.071395" style="stroke: #000000; stroke-width: 0.8"/>
      </g>
     </g>
    </g>
   </g>
   <g id="matplotlib.axis_2">
    <g id="ytick_1">
     <g id="line2d_9">
      <defs>
       <path id="me7318a7ef0" d="M 0 0 
L -3.5 0 
" style="stroke: #000000; stroke-width: 0.8"/>
      </defs>
      <g>
       <use xlink:href="#me7318a7ef0" x="38.420552" y="103.912557" style="stroke: #000000; stroke-width: 0.8"/>
      </g>
     </g>
     <g id="text_1">
      <!-- −2 -->
      <g transform="translate(16.678365 107.711775) scale(0.1 -0.1)">
       <defs>
        <path id="DejaVuSans-2212" d="M 678 2272 
L 4684 2272 
L 4684 1741 
L 678 1741 
L 678 2272 
z
" transform="scale(0.015625)"/>
        <path id="DejaVuSans-32" d="M 1228 531 
L 3431 531 
L 3431 0 
L 469 0 
L 469 531 
Q 828 903 1448 1529 
Q 2069 2156 2228 2338 
Q 2531 2678 2651 2914 
Q 2772 3150 2772 3378 
Q 2772 3750 2511 3984 
Q 2250 4219 1831 4219 
Q 1534 4219 1204 4116 
Q 875 4013 500 3803 
L 500 4441 
Q 881 4594 1212 4672 
Q 1544 4750 1819 4750 
Q 2544 4750 2975 4387 
Q 3406 4025 3406 3419 
Q 3406 3131 3298 2873 
Q 3191 2616 2906 2266 
Q 2828 2175 2409 1742 
Q 1991 1309 1228 531 
z
" transform="scale(0.015625)"/>
       </defs>
       <use xlink:href="#DejaVuSans-2212"/>
       <use xlink:href="#DejaVuSans-32" x="83.789062"/>
      </g>
     </g>
    </g>
    <g id="ytick_2">
     <g id="line2d_10">
      <g>
       <use xlink:href="#me7318a7ef0" x="38.420552" y="69.59488" style="stroke: #000000; stroke-width: 0.8"/>
      </g>
     </g>
     <g id="text_2">
      <!-- 0 -->
      <g transform="translate(25.058052 73.394099) scale(0.1 -0.1)">
       <defs>
        <path id="DejaVuSans-30" d="M 2034 4250 
Q 1547 4250 1301 3770 
Q 1056 3291 1056 2328 
Q 1056 1369 1301 889 
Q 1547 409 2034 409 
Q 2525 409 2770 889 
Q 3016 1369 3016 2328 
Q 3016 3291 2770 3770 
Q 2525 4250 2034 4250 
z
M 2034 4750 
Q 2819 4750 3233 4129 
Q 3647 3509 3647 2328 
Q 3647 1150 3233 529 
Q 2819 -91 2034 -91 
Q 1250 -91 836 529 
Q 422 1150 422 2328 
Q 422 3509 836 4129 
Q 1250 4750 2034 4750 
z
" transform="scale(0.015625)"/>
       </defs>
       <use xlink:href="#DejaVuSans-30"/>
      </g>
     </g>
    </g>
    <g id="ytick_3">
     <g id="line2d_11">
      <g>
       <use xlink:href="#me7318a7ef0" x="38.420552" y="35.277203" style="stroke: #000000; stroke-width: 0.8"/>
      </g>
     </g>
     <g id="text_3">
      <!-- 2 -->
      <g transform="translate(25.058052 39.076422) scale(0.1 -0.1)">
       <use xlink:href="#DejaVuSans-32"/>
      </g>
     </g>
    </g>
    <g id="text_4">
     <!-- SPEI-48 -->
     <g transform="translate(10.598677 88.584724) rotate(-90) scale(0.1 -0.1)">
      <defs>
       <path id="DejaVuSans-53" d="M 3425 4513 
L 3425 3897 
Q 3066 4069 2747 4153 
Q 2428 4238 2131 4238 
Q 1616 4238 1336 4038 
Q 1056 3838 1056 3469 
Q 1056 3159 1242 3001 
Q 1428 2844 1947 2747 
L 2328 2669 
Q 3034 2534 3370 2195 
Q 3706 1856 3706 1288 
Q 3706 609 3251 259 
Q 2797 -91 1919 -91 
Q 1588 -91 1214 -16 
Q 841 59 441 206 
L 441 856 
Q 825 641 1194 531 
Q 1563 422 1919 422 
Q 2459 422 2753 634 
Q 3047 847 3047 1241 
Q 3047 1584 2836 1778 
Q 2625 1972 2144 2069 
L 1759 2144 
Q 1053 2284 737 2584 
Q 422 2884 422 3419 
Q 422 4038 858 4394 
Q 1294 4750 2059 4750 
Q 2388 4750 2728 4690 
Q 3069 4631 3425 4513 
z
" transform="scale(0.015625)"/>
       <path id="DejaVuSans-50" d="M 1259 4147 
L 1259 2394 
L 2053 2394 
Q 2494 2394 2734 2622 
Q 2975 2850 2975 3272 
Q 2975 3691 2734 3919 
Q 2494 4147 2053 4147 
L 1259 4147 
z
M 628 4666 
L 2053 4666 
Q 2838 4666 3239 4311 
Q 3641 3956 3641 3272 
Q 3641 2581 3239 2228 
Q 2838 1875 2053 1875 
L 1259 1875 
L 1259 0 
L 628 0 
L 628 4666 
z
" transform="scale(0.015625)"/>
       <path id="DejaVuSans-45" d="M 628 4666 
L 3578 4666 
L 3578 4134 
L 1259 4134 
L 1259 2753 
L 3481 2753 
L 3481 2222 
L 1259 2222 
L 1259 531 
L 3634 531 
L 3634 0 
L 628 0 
L 628 4666 
z
" transform="scale(0.015625)"/>
       <path id="DejaVuSans-49" d="M 628 4666 
L 1259 4666 
L 1259 0 
L 628 0 
L 628 4666 
z
" transform="scale(0.015625)"/>
       <path id="DejaVuSans-2d" d="M 313 2009 
L 1997 2009 
L 1997 1497 
L 313 1497 
L 313 2009 
z
" transform="scale(0.015625)"/>
       <path id="DejaVuSans-34" d="M 2419 4116 
L 825 1625 
L 2419 1625 
L 2419 4116 
z
M 2253 4666 
L 3047 4666 
L 3047 1625 
L 3713 1625 
L 3713 1100 
L 3047 1100 
L 3047 0 
L 2419 0 
L 2419 1100 
L 313 1100 
L 313 1709 
L 2253 4666 
z
" transform="scale(0.015625)"/>
       <path id="DejaVuSans-38" d="M 2034 2216 
Q 1584 2216 1326 1975 
Q 1069 1734 1069 1313 
Q 1069 891 1326 650 
Q 1584 409 2034 409 
Q 2484 409 2743 651 
Q 3003 894 3003 1313 
Q 3003 1734 2745 1975 
Q 2488 2216 2034 2216 
z
M 1403 2484 
Q 997 2584 770 2862 
Q 544 3141 544 3541 
Q 544 4100 942 4425 
Q 1341 4750 2034 4750 
Q 2731 4750 3128 4425 
Q 3525 4100 3525 3541 
Q 3525 3141 3298 2862 
Q 3072 2584 2669 2484 
Q 3125 2378 3379 2068 
Q 3634 1759 3634 1313 
Q 3634 634 3220 271 
Q 2806 -91 2034 -91 
Q 1263 -91 848 271 
Q 434 634 434 1313 
Q 434 1759 690 2068 
Q 947 2378 1403 2484 
z
M 1172 3481 
Q 1172 3119 1398 2916 
Q 1625 2713 2034 2713 
Q 2441 2713 2670 2916 
Q 2900 3119 2900 3481 
Q 2900 3844 2670 4047 
Q 2441 4250 2034 4250 
Q 1625 4250 1398 4047 
Q 1172 3844 1172 3481 
z
" transform="scale(0.015625)"/>
      </defs>
      <use xlink:href="#DejaVuSans-53"/>
      <use xlink:href="#DejaVuSans-50" x="63.476562"/>
      <use xlink:href="#DejaVuSans-45" x="123.779297"/>
      <use xlink:href="#DejaVuSans-49" x="186.962891"/>
      <use xlink:href="#DejaVuSans-2d" x="216.455078"/>
      <use xlink:href="#DejaVuSans-34" x="252.539062"/>
      <use xlink:href="#DejaVuSans-38" x="316.162109"/>
     </g>
    </g>
   </g>
   <g id="line2d_12">
    <path d="M 38.420552 69.59488 
L 421.772645 69.59488 
" clip-path="url(#p1f6e0020fc)" style="fill: none; stroke: #000000; stroke-width: 1.5; stroke-linecap: square"/>
   </g>
   <g id="patch_3">
    <path d="M 38.420552 121.071395 
L 38.420552 18.118365 
" style="fill: none; stroke: #000000; stroke-width: 0.8; stroke-linejoin: miter; stroke-linecap: square"/>
   </g>
   <g id="patch_4">
    <path d="M 38.420552 121.071395 
L 421.772645 121.071395 
" style="fill: none; stroke: #000000; stroke-width: 0.8; stroke-linejoin: miter; stroke-linecap: square"/>
   </g>
   <g id="text_5">
    <!-- (a) -->
    <g transform="translate(38.420552 12.118365) scale(0.12 -0.12)">
     <defs>
      <path id="DejaVuSans-Bold-28" d="M 2413 -844 
L 1484 -844 
Q 1006 -72 778 623 
Q 550 1319 550 2003 
Q 550 2688 779 3389 
Q 1009 4091 1484 4856 
L 2413 4856 
Q 2013 4116 1813 3408 
Q 1613 2700 1613 2009 
Q 1613 1319 1811 609 
Q 2009 -100 2413 -844 
z
" transform="scale(0.015625)"/>
      <path id="DejaVuSans-Bold-61" d="M 2106 1575 
Q 1756 1575 1579 1456 
Q 1403 1338 1403 1106 
Q 1403 894 1545 773 
Q 1688 653 1941 653 
Q 2256 653 2472 879 
Q 2688 1106 2688 1447 
L 2688 1575 
L 2106 1575 
z
M 3816 1997 
L 3816 0 
L 2688 0 
L 2688 519 
Q 2463 200 2181 54 
Q 1900 -91 1497 -91 
Q 953 -91 614 226 
Q 275 544 275 1050 
Q 275 1666 698 1953 
Q 1122 2241 2028 2241 
L 2688 2241 
L 2688 2328 
Q 2688 2594 2478 2717 
Q 2269 2841 1825 2841 
Q 1466 2841 1156 2769 
Q 847 2697 581 2553 
L 581 3406 
Q 941 3494 1303 3539 
Q 1666 3584 2028 3584 
Q 2975 3584 3395 3211 
Q 3816 2838 3816 1997 
z
" transform="scale(0.015625)"/>
      <path id="DejaVuSans-Bold-29" d="M 513 -844 
Q 913 -100 1113 609 
Q 1313 1319 1313 2009 
Q 1313 2700 1113 3408 
Q 913 4116 513 4856 
L 1441 4856 
Q 1916 4091 2145 3389 
Q 2375 2688 2375 2003 
Q 2375 1319 2147 623 
Q 1919 -72 1441 -844 
L 513 -844 
z
" transform="scale(0.015625)"/>
     </defs>
     <use xlink:href="#DejaVuSans-Bold-28"/>
     <use xlink:href="#DejaVuSans-Bold-61" x="45.703125"/>
     <use xlink:href="#DejaVuSans-Bold-29" x="113.183594"/>
    </g>
   </g>
  </g>
  <g id="axes_2">
   <g id="patch_5">
    <path d="M 460.255457 254.64351 
L 715.823519 254.64351 
L 715.823519 18.118365 
L 460.255457 18.118365 
z
" style="fill: #ffffff"/>
   </g>
   <g id="matplotlib.axis_3">
    <g id="xtick_9">
     <g id="line2d_13">
      <g>
       <use xlink:href="#ma7e66ba8e4" x="465.471132" y="254.64351" style="stroke: #000000; stroke-width: 0.8"/>
      </g>
     </g>
     <g id="text_6">
      <!-- 1 -->
      <g transform="translate(462.289882 269.241947) scale(0.1 -0.1)">
       <defs>
        <path id="DejaVuSans-31" d="M 794 531 
L 1825 531 
L 1825 4091 
L 703 3866 
L 703 4441 
L 1819 4666 
L 2450 4666 
L 2450 531 
L 3481 531 
L 3481 0 
L 794 0 
L 794 531 
z
" transform="scale(0.015625)"/>
       </defs>
       <use xlink:href="#DejaVuSans-31"/>
      </g>
     </g>
    </g>
    <g id="xtick_10">
     <g id="line2d_14">
      <g>
       <use xlink:href="#ma7e66ba8e4" x="475.902481" y="254.64351" style="stroke: #000000; stroke-width: 0.8"/>
      </g>
     </g>
     <g id="text_7">
      <!-- 3 -->
      <g transform="translate(472.721231 269.241947) scale(0.1 -0.1)">
       <defs>
        <path id="DejaVuSans-33" d="M 2597 2516 
Q 3050 2419 3304 2112 
Q 3559 1806 3559 1356 
Q 3559 666 3084 287 
Q 2609 -91 1734 -91 
Q 1441 -91 1130 -33 
Q 819 25 488 141 
L 488 750 
Q 750 597 1062 519 
Q 1375 441 1716 441 
Q 2309 441 2620 675 
Q 2931 909 2931 1356 
Q 2931 1769 2642 2001 
Q 2353 2234 1838 2234 
L 1294 2234 
L 1294 2753 
L 1863 2753 
Q 2328 2753 2575 2939 
Q 2822 3125 2822 3475 
Q 2822 3834 2567 4026 
Q 2313 4219 1838 4219 
Q 1578 4219 1281 4162 
Q 984 4106 628 3988 
L 628 4550 
Q 988 4650 1302 4700 
Q 1616 4750 1894 4750 
Q 2613 4750 3031 4423 
Q 3450 4097 3450 3541 
Q 3450 3153 3228 2886 
Q 3006 2619 2597 2516 
z
" transform="scale(0.015625)"/>
       </defs>
       <use xlink:href="#DejaVuSans-33"/>
      </g>
     </g>
    </g>
    <g id="xtick_11">
     <g id="line2d_15">
      <g>
       <use xlink:href="#ma7e66ba8e4" x="491.549506" y="254.64351" style="stroke: #000000; stroke-width: 0.8"/>
      </g>
     </g>
     <g id="text_8">
      <!-- 6 -->
      <g transform="translate(488.368256 269.241947) scale(0.1 -0.1)">
       <defs>
        <path id="DejaVuSans-36" d="M 2113 2584 
Q 1688 2584 1439 2293 
Q 1191 2003 1191 1497 
Q 1191 994 1439 701 
Q 1688 409 2113 409 
Q 2538 409 2786 701 
Q 3034 994 3034 1497 
Q 3034 2003 2786 2293 
Q 2538 2584 2113 2584 
z
M 3366 4563 
L 3366 3988 
Q 3128 4100 2886 4159 
Q 2644 4219 2406 4219 
Q 1781 4219 1451 3797 
Q 1122 3375 1075 2522 
Q 1259 2794 1537 2939 
Q 1816 3084 2150 3084 
Q 2853 3084 3261 2657 
Q 3669 2231 3669 1497 
Q 3669 778 3244 343 
Q 2819 -91 2113 -91 
Q 1303 -91 875 529 
Q 447 1150 447 2328 
Q 447 3434 972 4092 
Q 1497 4750 2381 4750 
Q 2619 4750 2861 4703 
Q 3103 4656 3366 4563 
z
" transform="scale(0.015625)"/>
       </defs>
       <use xlink:href="#DejaVuSans-36"/>
      </g>
     </g>
    </g>
    <g id="xtick_12">
     <g id="line2d_16">
      <g>
       <use xlink:href="#ma7e66ba8e4" x="522.843554" y="254.64351" style="stroke: #000000; stroke-width: 0.8"/>
      </g>
     </g>
     <g id="text_9">
      <!-- 12 -->
      <g transform="translate(516.481054 269.241947) scale(0.1 -0.1)">
       <use xlink:href="#DejaVuSans-31"/>
       <use xlink:href="#DejaVuSans-32" x="63.623047"/>
      </g>
     </g>
    </g>
    <g id="xtick_13">
     <g id="line2d_17">
      <g>
       <use xlink:href="#ma7e66ba8e4" x="585.431651" y="254.64351" style="stroke: #000000; stroke-width: 0.8"/>
      </g>
     </g>
     <g id="text_10">
      <!-- 24 -->
      <g transform="translate(579.069151 269.241947) scale(0.1 -0.1)">
       <use xlink:href="#DejaVuSans-32"/>
       <use xlink:href="#DejaVuSans-34" x="63.623047"/>
      </g>
     </g>
    </g>
    <g id="xtick_14">
     <g id="line2d_18">
      <g>
       <use xlink:href="#ma7e66ba8e4" x="710.607844" y="254.64351" style="stroke: #000000; stroke-width: 0.8"/>
      </g>
     </g>
     <g id="text_11">
      <!-- 48 -->
      <g transform="translate(704.245344 269.241947) scale(0.1 -0.1)">
       <use xlink:href="#DejaVuSans-34"/>
       <use xlink:href="#DejaVuSans-38" x="63.623047"/>
      </g>
     </g>
    </g>
    <g id="text_12">
     <!-- SPEI Accumulation Period -->
     <g transform="translate(524.380113 282.920073) scale(0.1 -0.1)">
      <defs>
       <path id="DejaVuSans-20" transform="scale(0.015625)"/>
       <path id="DejaVuSans-41" d="M 2188 4044 
L 1331 1722 
L 3047 1722 
L 2188 4044 
z
M 1831 4666 
L 2547 4666 
L 4325 0 
L 3669 0 
L 3244 1197 
L 1141 1197 
L 716 0 
L 50 0 
L 1831 4666 
z
" transform="scale(0.015625)"/>
       <path id="DejaVuSans-63" d="M 3122 3366 
L 3122 2828 
Q 2878 2963 2633 3030 
Q 2388 3097 2138 3097 
Q 1578 3097 1268 2742 
Q 959 2388 959 1747 
Q 959 1106 1268 751 
Q 1578 397 2138 397 
Q 2388 397 2633 464 
Q 2878 531 3122 666 
L 3122 134 
Q 2881 22 2623 -34 
Q 2366 -91 2075 -91 
Q 1284 -91 818 406 
Q 353 903 353 1747 
Q 353 2603 823 3093 
Q 1294 3584 2113 3584 
Q 2378 3584 2631 3529 
Q 2884 3475 3122 3366 
z
" transform="scale(0.015625)"/>
       <path id="DejaVuSans-75" d="M 544 1381 
L 544 3500 
L 1119 3500 
L 1119 1403 
Q 1119 906 1312 657 
Q 1506 409 1894 409 
Q 2359 409 2629 706 
Q 2900 1003 2900 1516 
L 2900 3500 
L 3475 3500 
L 3475 0 
L 2900 0 
L 2900 538 
Q 2691 219 2414 64 
Q 2138 -91 1772 -91 
Q 1169 -91 856 284 
Q 544 659 544 1381 
z
M 1991 3584 
L 1991 3584 
z
" transform="scale(0.015625)"/>
       <path id="DejaVuSans-6d" d="M 3328 2828 
Q 3544 3216 3844 3400 
Q 4144 3584 4550 3584 
Q 5097 3584 5394 3201 
Q 5691 2819 5691 2113 
L 5691 0 
L 5113 0 
L 5113 2094 
Q 5113 2597 4934 2840 
Q 4756 3084 4391 3084 
Q 3944 3084 3684 2787 
Q 3425 2491 3425 1978 
L 3425 0 
L 2847 0 
L 2847 2094 
Q 2847 2600 2669 2842 
Q 2491 3084 2119 3084 
Q 1678 3084 1418 2786 
Q 1159 2488 1159 1978 
L 1159 0 
L 581 0 
L 581 3500 
L 1159 3500 
L 1159 2956 
Q 1356 3278 1631 3431 
Q 1906 3584 2284 3584 
Q 2666 3584 2933 3390 
Q 3200 3197 3328 2828 
z
" transform="scale(0.015625)"/>
       <path id="DejaVuSans-6c" d="M 603 4863 
L 1178 4863 
L 1178 0 
L 603 0 
L 603 4863 
z
" transform="scale(0.015625)"/>
       <path id="DejaVuSans-61" d="M 2194 1759 
Q 1497 1759 1228 1600 
Q 959 1441 959 1056 
Q 959 750 1161 570 
Q 1363 391 1709 391 
Q 2188 391 2477 730 
Q 2766 1069 2766 1631 
L 2766 1759 
L 2194 1759 
z
M 3341 1997 
L 3341 0 
L 2766 0 
L 2766 531 
Q 2569 213 2275 61 
Q 1981 -91 1556 -91 
Q 1019 -91 701 211 
Q 384 513 384 1019 
Q 384 1609 779 1909 
Q 1175 2209 1959 2209 
L 2766 2209 
L 2766 2266 
Q 2766 2663 2505 2880 
Q 2244 3097 1772 3097 
Q 1472 3097 1187 3025 
Q 903 2953 641 2809 
L 641 3341 
Q 956 3463 1253 3523 
Q 1550 3584 1831 3584 
Q 2591 3584 2966 3190 
Q 3341 2797 3341 1997 
z
" transform="scale(0.015625)"/>
       <path id="DejaVuSans-74" d="M 1172 4494 
L 1172 3500 
L 2356 3500 
L 2356 3053 
L 1172 3053 
L 1172 1153 
Q 1172 725 1289 603 
Q 1406 481 1766 481 
L 2356 481 
L 2356 0 
L 1766 0 
Q 1100 0 847 248 
Q 594 497 594 1153 
L 594 3053 
L 172 3053 
L 172 3500 
L 594 3500 
L 594 4494 
L 1172 4494 
z
" transform="scale(0.015625)"/>
       <path id="DejaVuSans-69" d="M 603 3500 
L 1178 3500 
L 1178 0 
L 603 0 
L 603 3500 
z
M 603 4863 
L 1178 4863 
L 1178 4134 
L 603 4134 
L 603 4863 
z
" transform="scale(0.015625)"/>
       <path id="DejaVuSans-6f" d="M 1959 3097 
Q 1497 3097 1228 2736 
Q 959 2375 959 1747 
Q 959 1119 1226 758 
Q 1494 397 1959 397 
Q 2419 397 2687 759 
Q 2956 1122 2956 1747 
Q 2956 2369 2687 2733 
Q 2419 3097 1959 3097 
z
M 1959 3584 
Q 2709 3584 3137 3096 
Q 3566 2609 3566 1747 
Q 3566 888 3137 398 
Q 2709 -91 1959 -91 
Q 1206 -91 779 398 
Q 353 888 353 1747 
Q 353 2609 779 3096 
Q 1206 3584 1959 3584 
z
" transform="scale(0.015625)"/>
       <path id="DejaVuSans-6e" d="M 3513 2113 
L 3513 0 
L 2938 0 
L 2938 2094 
Q 2938 2591 2744 2837 
Q 2550 3084 2163 3084 
Q 1697 3084 1428 2787 
Q 1159 2491 1159 1978 
L 1159 0 
L 581 0 
L 581 3500 
L 1159 3500 
L 1159 2956 
Q 1366 3272 1645 3428 
Q 1925 3584 2291 3584 
Q 2894 3584 3203 3211 
Q 3513 2838 3513 2113 
z
" transform="scale(0.015625)"/>
       <path id="DejaVuSans-65" d="M 3597 1894 
L 3597 1613 
L 953 1613 
Q 991 1019 1311 708 
Q 1631 397 2203 397 
Q 2534 397 2845 478 
Q 3156 559 3463 722 
L 3463 178 
Q 3153 47 2828 -22 
Q 2503 -91 2169 -91 
Q 1331 -91 842 396 
Q 353 884 353 1716 
Q 353 2575 817 3079 
Q 1281 3584 2069 3584 
Q 2775 3584 3186 3129 
Q 3597 2675 3597 1894 
z
M 3022 2063 
Q 3016 2534 2758 2815 
Q 2500 3097 2075 3097 
Q 1594 3097 1305 2825 
Q 1016 2553 972 2059 
L 3022 2063 
z
" transform="scale(0.015625)"/>
       <path id="DejaVuSans-72" d="M 2631 2963 
Q 2534 3019 2420 3045 
Q 2306 3072 2169 3072 
Q 1681 3072 1420 2755 
Q 1159 2438 1159 1844 
L 1159 0 
L 581 0 
L 581 3500 
L 1159 3500 
L 1159 2956 
Q 1341 3275 1631 3429 
Q 1922 3584 2338 3584 
Q 2397 3584 2469 3576 
Q 2541 3569 2628 3553 
L 2631 2963 
z
" transform="scale(0.015625)"/>
       <path id="DejaVuSans-64" d="M 2906 2969 
L 2906 4863 
L 3481 4863 
L 3481 0 
L 2906 0 
L 2906 525 
Q 2725 213 2448 61 
Q 2172 -91 1784 -91 
Q 1150 -91 751 415 
Q 353 922 353 1747 
Q 353 2572 751 3078 
Q 1150 3584 1784 3584 
Q 2172 3584 2448 3432 
Q 2725 3281 2906 2969 
z
M 947 1747 
Q 947 1113 1208 752 
Q 1469 391 1925 391 
Q 2381 391 2643 752 
Q 2906 1113 2906 1747 
Q 2906 2381 2643 2742 
Q 2381 3103 1925 3103 
Q 1469 3103 1208 2742 
Q 947 2381 947 1747 
z
" transform="scale(0.015625)"/>
      </defs>
      <use xlink:href="#DejaVuSans-53"/>
      <use xlink:href="#DejaVuSans-50" x="63.476562"/>
      <use xlink:href="#DejaVuSans-45" x="123.779297"/>
      <use xlink:href="#DejaVuSans-49" x="186.962891"/>
      <use xlink:href="#DejaVuSans-20" x="216.455078"/>
      <use xlink:href="#DejaVuSans-41" x="248.242188"/>
      <use xlink:href="#DejaVuSans-63" x="314.900391"/>
      <use xlink:href="#DejaVuSans-63" x="369.880859"/>
      <use xlink:href="#DejaVuSans-75" x="424.861328"/>
      <use xlink:href="#DejaVuSans-6d" x="488.240234"/>
      <use xlink:href="#DejaVuSans-75" x="585.652344"/>
      <use xlink:href="#DejaVuSans-6c" x="649.03125"/>
      <use xlink:href="#DejaVuSans-61" x="676.814453"/>
      <use xlink:href="#DejaVuSans-74" x="738.09375"/>
      <use xlink:href="#DejaVuSans-69" x="777.302734"/>
      <use xlink:href="#DejaVuSans-6f" x="805.085938"/>
      <use xlink:href="#DejaVuSans-6e" x="866.267578"/>
      <use xlink:href="#DejaVuSans-20" x="929.646484"/>
      <use xlink:href="#DejaVuSans-50" x="961.433594"/>
      <use xlink:href="#DejaVuSans-65" x="1018.111328"/>
      <use xlink:href="#DejaVuSans-72" x="1079.634766"/>
      <use xlink:href="#DejaVuSans-69" x="1120.748047"/>
      <use xlink:href="#DejaVuSans-6f" x="1148.53125"/>
      <use xlink:href="#DejaVuSans-64" x="1209.712891"/>
     </g>
    </g>
   </g>
   <g id="matplotlib.axis_4">
    <g id="ytick_4">
     <g id="line2d_19">
      <g>
       <use xlink:href="#me7318a7ef0" x="460.255457" y="242.914284" style="stroke: #000000; stroke-width: 0.8"/>
      </g>
     </g>
     <g id="text_13">
      <!-- −0.1 -->
      <g transform="translate(428.972645 246.713502) scale(0.1 -0.1)">
       <defs>
        <path id="DejaVuSans-2e" d="M 684 794 
L 1344 794 
L 1344 0 
L 684 0 
L 684 794 
z
" transform="scale(0.015625)"/>
       </defs>
       <use xlink:href="#DejaVuSans-2212"/>
       <use xlink:href="#DejaVuSans-30" x="83.789062"/>
       <use xlink:href="#DejaVuSans-2e" x="147.412109"/>
       <use xlink:href="#DejaVuSans-31" x="179.199219"/>
      </g>
     </g>
    </g>
    <g id="ytick_5">
     <g id="line2d_20">
      <g>
       <use xlink:href="#me7318a7ef0" x="460.255457" y="207.83074" style="stroke: #000000; stroke-width: 0.8"/>
      </g>
     </g>
     <g id="text_14">
      <!-- 0.0 -->
      <g transform="translate(437.352332 211.629959) scale(0.1 -0.1)">
       <use xlink:href="#DejaVuSans-30"/>
       <use xlink:href="#DejaVuSans-2e" x="63.623047"/>
       <use xlink:href="#DejaVuSans-30" x="95.410156"/>
      </g>
     </g>
    </g>
    <g id="ytick_6">
     <g id="line2d_21">
      <g>
       <use xlink:href="#me7318a7ef0" x="460.255457" y="172.747196" style="stroke: #000000; stroke-width: 0.8"/>
      </g>
     </g>
     <g id="text_15">
      <!-- 0.1 -->
      <g transform="translate(437.352332 176.546415) scale(0.1 -0.1)">
       <use xlink:href="#DejaVuSans-30"/>
       <use xlink:href="#DejaVuSans-2e" x="63.623047"/>
       <use xlink:href="#DejaVuSans-31" x="95.410156"/>
      </g>
     </g>
    </g>
    <g id="ytick_7">
     <g id="line2d_22">
      <g>
       <use xlink:href="#me7318a7ef0" x="460.255457" y="137.663652" style="stroke: #000000; stroke-width: 0.8"/>
      </g>
     </g>
     <g id="text_16">
      <!-- 0.2 -->
      <g transform="translate(437.352332 141.462871) scale(0.1 -0.1)">
       <use xlink:href="#DejaVuSans-30"/>
       <use xlink:href="#DejaVuSans-2e" x="63.623047"/>
       <use xlink:href="#DejaVuSans-32" x="95.410156"/>
      </g>
     </g>
    </g>
    <g id="ytick_8">
     <g id="line2d_23">
      <g>
       <use xlink:href="#me7318a7ef0" x="460.255457" y="102.580108" style="stroke: #000000; stroke-width: 0.8"/>
      </g>
     </g>
     <g id="text_17">
      <!-- 0.3 -->
      <g transform="translate(437.352332 106.379327) scale(0.1 -0.1)">
       <use xlink:href="#DejaVuSans-30"/>
       <use xlink:href="#DejaVuSans-2e" x="63.623047"/>
       <use xlink:href="#DejaVuSans-33" x="95.410156"/>
      </g>
     </g>
    </g>
    <g id="ytick_9">
     <g id="line2d_24">
      <g>
       <use xlink:href="#me7318a7ef0" x="460.255457" y="67.496564" style="stroke: #000000; stroke-width: 0.8"/>
      </g>
     </g>
     <g id="text_18">
      <!-- 0.4 -->
      <g transform="translate(437.352332 71.295783) scale(0.1 -0.1)">
       <use xlink:href="#DejaVuSans-30"/>
       <use xlink:href="#DejaVuSans-2e" x="63.623047"/>
       <use xlink:href="#DejaVuSans-34" x="95.410156"/>
      </g>
     </g>
    </g>
    <g id="ytick_10">
     <g id="line2d_25">
      <g>
       <use xlink:href="#me7318a7ef0" x="460.255457" y="32.41302" style="stroke: #000000; stroke-width: 0.8"/>
      </g>
     </g>
     <g id="text_19">
      <!-- 0.5 -->
      <g transform="translate(437.352332 36.212239) scale(0.1 -0.1)">
       <defs>
        <path id="DejaVuSans-35" d="M 691 4666 
L 3169 4666 
L 3169 4134 
L 1269 4134 
L 1269 2991 
Q 1406 3038 1543 3061 
Q 1681 3084 1819 3084 
Q 2600 3084 3056 2656 
Q 3513 2228 3513 1497 
Q 3513 744 3044 326 
Q 2575 -91 1722 -91 
Q 1428 -91 1123 -41 
Q 819 9 494 109 
L 494 744 
Q 775 591 1075 516 
Q 1375 441 1709 441 
Q 2250 441 2565 725 
Q 2881 1009 2881 1497 
Q 2881 1984 2565 2268 
Q 2250 2553 1709 2553 
Q 1456 2553 1204 2497 
Q 953 2441 691 2322 
L 691 4666 
z
" transform="scale(0.015625)"/>
       </defs>
       <use xlink:href="#DejaVuSans-30"/>
       <use xlink:href="#DejaVuSans-2e" x="63.623047"/>
       <use xlink:href="#DejaVuSans-35" x="95.410156"/>
      </g>
     </g>
    </g>
   </g>
   <g id="line2d_26">
    <path d="M 465.471132 243.892367 
L 470.686807 219.835889 
L 475.902481 212.544135 
L 481.118156 204.567383 
L 486.333831 187.430145 
L 491.549506 173.377701 
L 496.76518 157.588906 
L 501.980855 159.711627 
L 507.19653 161.129339 
L 512.412205 159.803986 
L 517.627879 164.231067 
L 522.843554 149.755311 
L 528.059229 148.169812 
L 533.274903 152.075065 
L 538.490578 148.274486 
L 543.706253 146.816751 
L 548.921928 154.521043 
L 554.137602 144.115246 
L 559.353277 141.629246 
L 564.568952 143.878191 
L 569.784627 135.299566 
L 575.000301 136.096933 
L 580.215976 139.588109 
L 585.431651 128.78055 
L 590.647325 139.42648 
L 595.863 137.677814 
L 601.078675 130.258296 
L 606.29435 133.398507 
L 611.510024 130.284464 
L 616.725699 125.076948 
L 621.941374 127.098074 
L 627.157049 124.652096 
L 632.372723 118.601033 
L 637.588398 117.802126 
L 642.804073 112.719295 
L 648.019747 112.608464 
L 653.235422 109.860779 
L 658.451097 105.76773 
L 663.666772 93.611728 
L 668.882446 92.946742 
L 674.098121 85.885885 
L 679.313796 77.567405 
L 684.52947 77.387305 
L 689.745145 60.718019 
L 694.96082 56.98671 
L 700.176495 50.604693 
L 705.392169 36.897057 
L 710.607844 28.869508 
" clip-path="url(#pee87f85c24)" style="fill: none; stroke: #7f7f7f; stroke-opacity: 0.6; stroke-width: 1.5; stroke-linecap: square"/>
   </g>
   <g id="line2d_27">
    <defs>
     <path id="m8dbdb3be42" d="M 0 3 
C 0.795609 3 1.55874 2.683901 2.12132 2.12132 
C 2.683901 1.55874 3 0.795609 3 0 
C 3 -0.795609 2.683901 -1.55874 2.12132 -2.12132 
C 1.55874 -2.683901 0.795609 -3 0 -3 
C -0.795609 -3 -1.55874 -2.683901 -2.12132 -2.12132 
C -2.683901 -1.55874 -3 -0.795609 -3 0 
C -3 0.795609 -2.683901 1.55874 -2.12132 2.12132 
C -1.55874 2.683901 -0.795609 3 0 3 
z
" style="stroke: #000000"/>
    </defs>
    <g clip-path="url(#pee87f85c24)">
     <use xlink:href="#m8dbdb3be42" x="710.607844" y="28.869508" style="stroke: #000000"/>
    </g>
   </g>
   <g id="line2d_28">
    <path d="M 710.607844 254.64351 
L 710.607844 28.869508 
" clip-path="url(#pee87f85c24)" style="fill: none; stroke-dasharray: 5.55,2.4; stroke-dashoffset: 0; stroke: #000000; stroke-width: 1.5"/>
   </g>
   <g id="patch_6">
    <path d="M 460.255457 254.64351 
L 460.255457 18.118365 
" style="fill: none; stroke: #000000; stroke-width: 0.8; stroke-linejoin: miter; stroke-linecap: square"/>
   </g>
   <g id="patch_7">
    <path d="M 460.255457 254.64351 
L 715.823519 254.64351 
" style="fill: none; stroke: #000000; stroke-width: 0.8; stroke-linejoin: miter; stroke-linecap: square"/>
   </g>
   <g id="text_20">
    <!-- (c) -->
    <g transform="translate(460.255457 12.118365) scale(0.12 -0.12)">
     <defs>
      <path id="DejaVuSans-Bold-63" d="M 3366 3391 
L 3366 2478 
Q 3138 2634 2908 2709 
Q 2678 2784 2431 2784 
Q 1963 2784 1702 2511 
Q 1441 2238 1441 1747 
Q 1441 1256 1702 982 
Q 1963 709 2431 709 
Q 2694 709 2930 787 
Q 3166 866 3366 1019 
L 3366 103 
Q 3103 6 2833 -42 
Q 2563 -91 2291 -91 
Q 1344 -91 809 395 
Q 275 881 275 1747 
Q 275 2613 809 3098 
Q 1344 3584 2291 3584 
Q 2566 3584 2833 3536 
Q 3100 3488 3366 3391 
z
" transform="scale(0.015625)"/>
     </defs>
     <use xlink:href="#DejaVuSans-Bold-28"/>
     <use xlink:href="#DejaVuSans-Bold-63" x="45.703125"/>
     <use xlink:href="#DejaVuSans-Bold-29" x="104.980469"/>
    </g>
   </g>
   <g id="legend_1">
    <g id="patch_8">
     <path d="M 467.255457 40.79649 
L 549.70077 40.79649 
Q 551.70077 40.79649 551.70077 38.79649 
L 551.70077 25.118365 
Q 551.70077 23.118365 549.70077 23.118365 
L 467.255457 23.118365 
Q 465.255457 23.118365 465.255457 25.118365 
L 465.255457 38.79649 
Q 465.255457 40.79649 467.255457 40.79649 
z
" style="fill: #ffffff; opacity: 0.8; stroke: #cccccc; stroke-linejoin: miter"/>
    </g>
    <g id="line2d_29">
     <g>
      <use xlink:href="#m8dbdb3be42" x="479.255457" y="31.216802" style="stroke: #000000"/>
     </g>
    </g>
    <g id="text_21">
     <!-- Max. Corr. -->
     <g transform="translate(497.255457 34.716802) scale(0.1 -0.1)">
      <defs>
       <path id="DejaVuSans-4d" d="M 628 4666 
L 1569 4666 
L 2759 1491 
L 3956 4666 
L 4897 4666 
L 4897 0 
L 4281 0 
L 4281 4097 
L 3078 897 
L 2444 897 
L 1241 4097 
L 1241 0 
L 628 0 
L 628 4666 
z
" transform="scale(0.015625)"/>
       <path id="DejaVuSans-78" d="M 3513 3500 
L 2247 1797 
L 3578 0 
L 2900 0 
L 1881 1375 
L 863 0 
L 184 0 
L 1544 1831 
L 300 3500 
L 978 3500 
L 1906 2253 
L 2834 3500 
L 3513 3500 
z
" transform="scale(0.015625)"/>
       <path id="DejaVuSans-43" d="M 4122 4306 
L 4122 3641 
Q 3803 3938 3442 4084 
Q 3081 4231 2675 4231 
Q 1875 4231 1450 3742 
Q 1025 3253 1025 2328 
Q 1025 1406 1450 917 
Q 1875 428 2675 428 
Q 3081 428 3442 575 
Q 3803 722 4122 1019 
L 4122 359 
Q 3791 134 3420 21 
Q 3050 -91 2638 -91 
Q 1578 -91 968 557 
Q 359 1206 359 2328 
Q 359 3453 968 4101 
Q 1578 4750 2638 4750 
Q 3056 4750 3426 4639 
Q 3797 4528 4122 4306 
z
" transform="scale(0.015625)"/>
      </defs>
      <use xlink:href="#DejaVuSans-4d"/>
      <use xlink:href="#DejaVuSans-61" x="86.279297"/>
      <use xlink:href="#DejaVuSans-78" x="147.558594"/>
      <use xlink:href="#DejaVuSans-2e" x="206.738281"/>
      <use xlink:href="#DejaVuSans-20" x="238.525391"/>
      <use xlink:href="#DejaVuSans-43" x="270.3125"/>
      <use xlink:href="#DejaVuSans-6f" x="340.136719"/>
      <use xlink:href="#DejaVuSans-72" x="401.318359"/>
      <use xlink:href="#DejaVuSans-72" x="440.681641"/>
      <use xlink:href="#DejaVuSans-2e" x="472.669922"/>
     </g>
    </g>
   </g>
  </g>
  <g id="axes_3">
   <g id="patch_9">
    <path d="M 38.420552 254.64351 
L 421.772645 254.64351 
L 421.772645 151.69048 
L 38.420552 151.69048 
z
" style="fill: #ffffff"/>
   </g>
   <g id="PolyCollection_3"/>
   <g id="matplotlib.axis_5">
    <g id="xtick_15">
     <g id="line2d_30">
      <g>
       <use xlink:href="#ma7e66ba8e4" x="50.173362" y="254.64351" style="stroke: #000000; stroke-width: 0.8"/>
      </g>
     </g>
     <g id="text_22">
      <!-- 1992 -->
      <g transform="translate(37.448362 269.241947) scale(0.1 -0.1)">
       <defs>
        <path id="DejaVuSans-39" d="M 703 97 
L 703 672 
Q 941 559 1184 500 
Q 1428 441 1663 441 
Q 2288 441 2617 861 
Q 2947 1281 2994 2138 
Q 2813 1869 2534 1725 
Q 2256 1581 1919 1581 
Q 1219 1581 811 2004 
Q 403 2428 403 3163 
Q 403 3881 828 4315 
Q 1253 4750 1959 4750 
Q 2769 4750 3195 4129 
Q 3622 3509 3622 2328 
Q 3622 1225 3098 567 
Q 2575 -91 1691 -91 
Q 1453 -91 1209 -44 
Q 966 3 703 97 
z
M 1959 2075 
Q 2384 2075 2632 2365 
Q 2881 2656 2881 3163 
Q 2881 3666 2632 3958 
Q 2384 4250 1959 4250 
Q 1534 4250 1286 3958 
Q 1038 3666 1038 3163 
Q 1038 2656 1286 2365 
Q 1534 2075 1959 2075 
z
" transform="scale(0.015625)"/>
       </defs>
       <use xlink:href="#DejaVuSans-31"/>
       <use xlink:href="#DejaVuSans-39" x="63.623047"/>
       <use xlink:href="#DejaVuSans-39" x="127.246094"/>
       <use xlink:href="#DejaVuSans-32" x="190.869141"/>
      </g>
     </g>
    </g>
    <g id="xtick_16">
     <g id="line2d_31">
      <g>
       <use xlink:href="#ma7e66ba8e4" x="101.429645" y="254.64351" style="stroke: #000000; stroke-width: 0.8"/>
      </g>
     </g>
     <g id="text_23">
      <!-- 1996 -->
      <g transform="translate(88.704645 269.241947) scale(0.1 -0.1)">
       <use xlink:href="#DejaVuSans-31"/>
       <use xlink:href="#DejaVuSans-39" x="63.623047"/>
       <use xlink:href="#DejaVuSans-39" x="127.246094"/>
       <use xlink:href="#DejaVuSans-36" x="190.869141"/>
      </g>
     </g>
    </g>
    <g id="xtick_17">
     <g id="line2d_32">
      <g>
       <use xlink:href="#ma7e66ba8e4" x="152.685929" y="254.64351" style="stroke: #000000; stroke-width: 0.8"/>
      </g>
     </g>
     <g id="text_24">
      <!-- 2000 -->
      <g transform="translate(139.960929 269.241947) scale(0.1 -0.1)">
       <use xlink:href="#DejaVuSans-32"/>
       <use xlink:href="#DejaVuSans-30" x="63.623047"/>
       <use xlink:href="#DejaVuSans-30" x="127.246094"/>
       <use xlink:href="#DejaVuSans-30" x="190.869141"/>
      </g>
     </g>
    </g>
    <g id="xtick_18">
     <g id="line2d_33">
      <g>
       <use xlink:href="#ma7e66ba8e4" x="203.942212" y="254.64351" style="stroke: #000000; stroke-width: 0.8"/>
      </g>
     </g>
     <g id="text_25">
      <!-- 2004 -->
      <g transform="translate(191.217212 269.241947) scale(0.1 -0.1)">
       <use xlink:href="#DejaVuSans-32"/>
       <use xlink:href="#DejaVuSans-30" x="63.623047"/>
       <use xlink:href="#DejaVuSans-30" x="127.246094"/>
       <use xlink:href="#DejaVuSans-34" x="190.869141"/>
      </g>
     </g>
    </g>
    <g id="xtick_19">
     <g id="line2d_34">
      <g>
       <use xlink:href="#ma7e66ba8e4" x="255.198495" y="254.64351" style="stroke: #000000; stroke-width: 0.8"/>
      </g>
     </g>
     <g id="text_26">
      <!-- 2008 -->
      <g transform="translate(242.473495 269.241947) scale(0.1 -0.1)">
       <use xlink:href="#DejaVuSans-32"/>
       <use xlink:href="#DejaVuSans-30" x="63.623047"/>
       <use xlink:href="#DejaVuSans-30" x="127.246094"/>
       <use xlink:href="#DejaVuSans-38" x="190.869141"/>
      </g>
     </g>
    </g>
    <g id="xtick_20">
     <g id="line2d_35">
      <g>
       <use xlink:href="#ma7e66ba8e4" x="306.454778" y="254.64351" style="stroke: #000000; stroke-width: 0.8"/>
      </g>
     </g>
     <g id="text_27">
      <!-- 2012 -->
      <g transform="translate(293.729778 269.241947) scale(0.1 -0.1)">
       <use xlink:href="#DejaVuSans-32"/>
       <use xlink:href="#DejaVuSans-30" x="63.623047"/>
       <use xlink:href="#DejaVuSans-31" x="127.246094"/>
       <use xlink:href="#DejaVuSans-32" x="190.869141"/>
      </g>
     </g>
    </g>
    <g id="xtick_21">
     <g id="line2d_36">
      <g>
       <use xlink:href="#ma7e66ba8e4" x="357.711062" y="254.64351" style="stroke: #000000; stroke-width: 0.8"/>
      </g>
     </g>
     <g id="text_28">
      <!-- 2016 -->
      <g transform="translate(344.986062 269.241947) scale(0.1 -0.1)">
       <use xlink:href="#DejaVuSans-32"/>
       <use xlink:href="#DejaVuSans-30" x="63.623047"/>
       <use xlink:href="#DejaVuSans-31" x="127.246094"/>
       <use xlink:href="#DejaVuSans-36" x="190.869141"/>
      </g>
     </g>
    </g>
    <g id="xtick_22">
     <g id="line2d_37">
      <g>
       <use xlink:href="#ma7e66ba8e4" x="408.967345" y="254.64351" style="stroke: #000000; stroke-width: 0.8"/>
      </g>
     </g>
     <g id="text_29">
      <!-- 2020 -->
      <g transform="translate(396.242345 269.241947) scale(0.1 -0.1)">
       <use xlink:href="#DejaVuSans-32"/>
       <use xlink:href="#DejaVuSans-30" x="63.623047"/>
       <use xlink:href="#DejaVuSans-32" x="127.246094"/>
       <use xlink:href="#DejaVuSans-30" x="190.869141"/>
      </g>
     </g>
    </g>
    <g id="text_30">
     <!-- Date -->
     <g transform="translate(218.145817 282.920073) scale(0.1 -0.1)">
      <defs>
       <path id="DejaVuSans-44" d="M 1259 4147 
L 1259 519 
L 2022 519 
Q 2988 519 3436 956 
Q 3884 1394 3884 2338 
Q 3884 3275 3436 3711 
Q 2988 4147 2022 4147 
L 1259 4147 
z
M 628 4666 
L 1925 4666 
Q 3281 4666 3915 4102 
Q 4550 3538 4550 2338 
Q 4550 1131 3912 565 
Q 3275 0 1925 0 
L 628 0 
L 628 4666 
z
" transform="scale(0.015625)"/>
      </defs>
      <use xlink:href="#DejaVuSans-44"/>
      <use xlink:href="#DejaVuSans-61" x="77.001953"/>
      <use xlink:href="#DejaVuSans-74" x="138.28125"/>
      <use xlink:href="#DejaVuSans-65" x="177.490234"/>
     </g>
    </g>
   </g>
   <g id="matplotlib.axis_6">
    <g id="ytick_11">
     <g id="line2d_38">
      <g>
       <use xlink:href="#me7318a7ef0" x="38.420552" y="237.484672" style="stroke: #000000; stroke-width: 0.8"/>
      </g>
     </g>
     <g id="text_31">
      <!-- −2 -->
      <g transform="translate(16.678365 241.28389) scale(0.1 -0.1)">
       <use xlink:href="#DejaVuSans-2212"/>
       <use xlink:href="#DejaVuSans-32" x="83.789062"/>
      </g>
     </g>
    </g>
    <g id="ytick_12">
     <g id="line2d_39">
      <g>
       <use xlink:href="#me7318a7ef0" x="38.420552" y="203.166995" style="stroke: #000000; stroke-width: 0.8"/>
      </g>
     </g>
     <g id="text_32">
      <!-- 0 -->
      <g transform="translate(25.058052 206.966214) scale(0.1 -0.1)">
       <use xlink:href="#DejaVuSans-30"/>
      </g>
     </g>
    </g>
    <g id="ytick_13">
     <g id="line2d_40">
      <g>
       <use xlink:href="#me7318a7ef0" x="38.420552" y="168.849318" style="stroke: #000000; stroke-width: 0.8"/>
      </g>
     </g>
     <g id="text_33">
      <!-- 2 -->
      <g transform="translate(25.058052 172.648537) scale(0.1 -0.1)">
       <use xlink:href="#DejaVuSans-32"/>
      </g>
     </g>
    </g>
    <g id="text_34">
     <!-- SGI (GWIC 130860) -->
     <g transform="translate(10.598677 251.641995) rotate(-90) scale(0.1 -0.1)">
      <defs>
       <path id="DejaVuSans-47" d="M 3809 666 
L 3809 1919 
L 2778 1919 
L 2778 2438 
L 4434 2438 
L 4434 434 
Q 4069 175 3628 42 
Q 3188 -91 2688 -91 
Q 1594 -91 976 548 
Q 359 1188 359 2328 
Q 359 3472 976 4111 
Q 1594 4750 2688 4750 
Q 3144 4750 3555 4637 
Q 3966 4525 4313 4306 
L 4313 3634 
Q 3963 3931 3569 4081 
Q 3175 4231 2741 4231 
Q 1884 4231 1454 3753 
Q 1025 3275 1025 2328 
Q 1025 1384 1454 906 
Q 1884 428 2741 428 
Q 3075 428 3337 486 
Q 3600 544 3809 666 
z
" transform="scale(0.015625)"/>
       <path id="DejaVuSans-28" d="M 1984 4856 
Q 1566 4138 1362 3434 
Q 1159 2731 1159 2009 
Q 1159 1288 1364 580 
Q 1569 -128 1984 -844 
L 1484 -844 
Q 1016 -109 783 600 
Q 550 1309 550 2009 
Q 550 2706 781 3412 
Q 1013 4119 1484 4856 
L 1984 4856 
z
" transform="scale(0.015625)"/>
       <path id="DejaVuSans-57" d="M 213 4666 
L 850 4666 
L 1831 722 
L 2809 4666 
L 3519 4666 
L 4500 722 
L 5478 4666 
L 6119 4666 
L 4947 0 
L 4153 0 
L 3169 4050 
L 2175 0 
L 1381 0 
L 213 4666 
z
" transform="scale(0.015625)"/>
       <path id="DejaVuSans-29" d="M 513 4856 
L 1013 4856 
Q 1481 4119 1714 3412 
Q 1947 2706 1947 2009 
Q 1947 1309 1714 600 
Q 1481 -109 1013 -844 
L 513 -844 
Q 928 -128 1133 580 
Q 1338 1288 1338 2009 
Q 1338 2731 1133 3434 
Q 928 4138 513 4856 
z
" transform="scale(0.015625)"/>
      </defs>
      <use xlink:href="#DejaVuSans-53"/>
      <use xlink:href="#DejaVuSans-47" x="63.476562"/>
      <use xlink:href="#DejaVuSans-49" x="140.966797"/>
      <use xlink:href="#DejaVuSans-20" x="170.458984"/>
      <use xlink:href="#DejaVuSans-28" x="202.246094"/>
      <use xlink:href="#DejaVuSans-47" x="241.259766"/>
      <use xlink:href="#DejaVuSans-57" x="318.75"/>
      <use xlink:href="#DejaVuSans-49" x="417.626953"/>
      <use xlink:href="#DejaVuSans-43" x="447.119141"/>
      <use xlink:href="#DejaVuSans-20" x="516.943359"/>
      <use xlink:href="#DejaVuSans-31" x="548.730469"/>
      <use xlink:href="#DejaVuSans-33" x="612.353516"/>
      <use xlink:href="#DejaVuSans-30" x="675.976562"/>
      <use xlink:href="#DejaVuSans-38" x="739.599609"/>
      <use xlink:href="#DejaVuSans-36" x="803.222656"/>
      <use xlink:href="#DejaVuSans-30" x="866.845703"/>
      <use xlink:href="#DejaVuSans-29" x="930.46875"/>
     </g>
    </g>
   </g>
   <g id="line2d_41">
    <path d="M 38.420552 203.166995 
L 421.772645 203.166995 
" clip-path="url(#p3e078f5f96)" style="fill: none; stroke: #000000; stroke-width: 1.5; stroke-linecap: square"/>
   </g>
   <g id="line2d_42">
    <path d="M 71.503835 185.91255 
L 75.783962 169.599877 
L 78.941433 191.598693 
L 82.133988 188.133575 
L 85.361625 185.19296 
L 88.589262 198.466075 
L 91.746734 206.771135 
L 94.939288 175.452366 
L 98.166925 175.481103 
L 101.394562 178.420749 
L 104.587117 197.47698 
L 107.779671 186.941104 
L 114.234945 182.551189 
L 123.812608 191.556022 
L 128.127819 179.606236 
L 130.197717 184.543448 
L 131.250207 199.843078 
L 133.390271 189.949064 
L 137.705482 183.114743 
L 138.757972 182.098333 
L 139.845546 194.06233 
L 140.933119 201.232519 
L 141.915443 192.938335 
L 143.003017 194.448907 
L 144.055507 179.932457 
L 145.143081 178.020446 
L 146.195571 195.738899 
L 148.370718 192.08579 
L 151.563272 199.562855 
L 152.650846 199.551003 
L 153.738419 193.321754 
L 156.89589 195.480773 
L 157.983464 197.92417 
L 163.351165 189.795022 
L 164.403655 190.126241 
L 165.491229 188.546435 
L 166.578802 203.616721 
L 167.561126 193.59883 
L 168.6487 201.974322 
L 169.70119 186.252391 
L 170.788764 189.58694 
L 178.296529 188.937805 
L 181.454 204.359668 
L 184.646554 206.489956 
L 194.2593 199.174599 
L 197.451854 199.607472 
L 203.907129 193.180812 
L 207.099683 188.384887 
L 214.607448 194.359074 
L 216.747512 203.541114 
L 219.904983 170.309012 
L 229.552812 200.853748 
L 232.710283 179.43233 
L 242.358112 201.974963 
L 262.636094 185.327789 
L 293.614395 207.295999 
L 296.771866 211.885083 
L 299.964421 203.093981 
L 303.192058 196.57088 
L 309.61225 209.259177 
L 311.752313 202.194142 
L 313.892377 194.909937 
L 325.610104 210.978449 
L 326.697677 202.591157 
L 328.837741 207.061937 
L 332.065378 211.691312 
L 335.22285 214.735297 
L 338.415404 219.256171 
L 342.730615 216.185138 
L 344.870678 209.441332 
L 349.08064 211.546577 
L 354.448341 212.538942 
L 357.675978 228.313544 
L 360.868533 222.489695 
L 367.288724 227.913796 
L 370.516362 219.765823 
L 373.673833 225.951362 
L 375.813897 228.313544 
L 383.321662 223.412173 
L 387.531623 218.387238 
L 389.671687 233.524759 
L 390.759261 221.99579 
L 391.846834 219.124856 
L 392.899324 222.878646 
L 393.986898 228.313544 
L 395.039388 226.90166 
L 396.126962 237.16184 
L 397.214535 226.90166 
L 398.196859 218.013058 
L 399.284433 236.024978 
L 400.336923 229.496113 
L 401.424497 216.74705 
L 402.476987 222.211155 
L 403.564561 213.522146 
L 404.652134 211.68896 
L 405.704624 208.849741 
L 406.792198 204.093798 
L 407.844688 206.771135 
L 408.932262 216.74705 
L 410.019835 214.735297 
L 411.037243 208.8341 
L 412.124816 217.949103 
L 413.177306 205.860788 
L 414.26488 209.441331 
L 415.31737 212.60387 
L 416.404944 201.377533 
L 417.492517 206.158082 
L 418.545008 201.978125 
L 419.632581 208.895803 
L 420.685071 214.735297 
L 421.772645 214.099856 
" clip-path="url(#p3e078f5f96)" style="fill: none; stroke: #7f7f7f; stroke-opacity: 0.6; stroke-width: 1.5; stroke-linecap: square"/>
   </g>
   <g id="patch_10">
    <path d="M 38.420552 254.64351 
L 38.420552 151.69048 
" style="fill: none; stroke: #000000; stroke-width: 0.8; stroke-linejoin: miter; stroke-linecap: square"/>
   </g>
   <g id="patch_11">
    <path d="M 38.420552 254.64351 
L 421.772645 254.64351 
" style="fill: none; stroke: #000000; stroke-width: 0.8; stroke-linejoin: miter; stroke-linecap: square"/>
   </g>
   <g id="text_35">
    <!-- (b) -->
    <g transform="translate(38.420552 145.69048) scale(0.12 -0.12)">
     <defs>
      <path id="DejaVuSans-Bold-62" d="M 2400 722 
Q 2759 722 2948 984 
Q 3138 1247 3138 1747 
Q 3138 2247 2948 2509 
Q 2759 2772 2400 2772 
Q 2041 2772 1848 2508 
Q 1656 2244 1656 1747 
Q 1656 1250 1848 986 
Q 2041 722 2400 722 
z
M 1656 2988 
Q 1888 3294 2169 3439 
Q 2450 3584 2816 3584 
Q 3463 3584 3878 3070 
Q 4294 2556 4294 1747 
Q 4294 938 3878 423 
Q 3463 -91 2816 -91 
Q 2450 -91 2169 54 
Q 1888 200 1656 506 
L 1656 0 
L 538 0 
L 538 4863 
L 1656 4863 
L 1656 2988 
z
" transform="scale(0.015625)"/>
     </defs>
     <use xlink:href="#DejaVuSans-Bold-28"/>
     <use xlink:href="#DejaVuSans-Bold-62" x="45.703125"/>
     <use xlink:href="#DejaVuSans-Bold-29" x="117.285156"/>
    </g>
   </g>
   <g id="PathCollection_1">
    <defs>
     <path id="m46a52a9fce" d="M 0 1.936492 
C 0.513564 1.936492 1.006162 1.732451 1.369306 1.369306 
C 1.732451 1.006162 1.936492 0.513564 1.936492 0 
C 1.936492 -0.513564 1.732451 -1.006162 1.369306 -1.369306 
C 1.006162 -1.732451 0.513564 -1.936492 0 -1.936492 
C -0.513564 -1.936492 -1.006162 -1.732451 -1.369306 -1.369306 
C -1.732451 -1.006162 -1.936492 -0.513564 -1.936492 0 
C -1.936492 0.513564 -1.732451 1.006162 -1.369306 1.369306 
C -1.006162 1.732451 -0.513564 1.936492 0 1.936492 
z
" style="stroke: #ffffff; stroke-width: 0.309839"/>
    </defs>
    <g clip-path="url(#p3e078f5f96)">
     <use xlink:href="#m46a52a9fce" x="71.503835" y="185.91255" style="stroke: #ffffff; stroke-width: 0.309839"/>
     <use xlink:href="#m46a52a9fce" x="75.783962" y="169.599877" style="stroke: #ffffff; stroke-width: 0.309839"/>
     <use xlink:href="#m46a52a9fce" x="78.941433" y="191.598693" style="stroke: #ffffff; stroke-width: 0.309839"/>
     <use xlink:href="#m46a52a9fce" x="82.133988" y="188.133575" style="stroke: #ffffff; stroke-width: 0.309839"/>
     <use xlink:href="#m46a52a9fce" x="85.361625" y="185.19296" style="stroke: #ffffff; stroke-width: 0.309839"/>
     <use xlink:href="#m46a52a9fce" x="88.589262" y="198.466075" style="stroke: #ffffff; stroke-width: 0.309839"/>
     <use xlink:href="#m46a52a9fce" x="91.746734" y="206.771135" style="stroke: #ffffff; stroke-width: 0.309839"/>
     <use xlink:href="#m46a52a9fce" x="94.939288" y="175.452366" style="stroke: #ffffff; stroke-width: 0.309839"/>
     <use xlink:href="#m46a52a9fce" x="98.166925" y="175.481103" style="stroke: #ffffff; stroke-width: 0.309839"/>
     <use xlink:href="#m46a52a9fce" x="101.394562" y="178.420749" style="stroke: #ffffff; stroke-width: 0.309839"/>
     <use xlink:href="#m46a52a9fce" x="104.587117" y="197.47698" style="stroke: #ffffff; stroke-width: 0.309839"/>
     <use xlink:href="#m46a52a9fce" x="107.779671" y="186.941104" style="stroke: #ffffff; stroke-width: 0.309839"/>
     <use xlink:href="#m46a52a9fce" x="114.234945" y="182.551189" style="stroke: #ffffff; stroke-width: 0.309839"/>
     <use xlink:href="#m46a52a9fce" x="123.812608" y="191.556022" style="stroke: #ffffff; stroke-width: 0.309839"/>
     <use xlink:href="#m46a52a9fce" x="128.127819" y="179.606236" style="stroke: #ffffff; stroke-width: 0.309839"/>
     <use xlink:href="#m46a52a9fce" x="130.197717" y="184.543448" style="stroke: #ffffff; stroke-width: 0.309839"/>
     <use xlink:href="#m46a52a9fce" x="131.250207" y="199.843078" style="stroke: #ffffff; stroke-width: 0.309839"/>
     <use xlink:href="#m46a52a9fce" x="133.390271" y="189.949064" style="stroke: #ffffff; stroke-width: 0.309839"/>
     <use xlink:href="#m46a52a9fce" x="137.705482" y="183.114743" style="stroke: #ffffff; stroke-width: 0.309839"/>
     <use xlink:href="#m46a52a9fce" x="138.757972" y="182.098333" style="stroke: #ffffff; stroke-width: 0.309839"/>
     <use xlink:href="#m46a52a9fce" x="139.845546" y="194.06233" style="stroke: #ffffff; stroke-width: 0.309839"/>
     <use xlink:href="#m46a52a9fce" x="140.933119" y="201.232519" style="stroke: #ffffff; stroke-width: 0.309839"/>
     <use xlink:href="#m46a52a9fce" x="141.915443" y="192.938335" style="stroke: #ffffff; stroke-width: 0.309839"/>
     <use xlink:href="#m46a52a9fce" x="143.003017" y="194.448907" style="stroke: #ffffff; stroke-width: 0.309839"/>
     <use xlink:href="#m46a52a9fce" x="144.055507" y="179.932457" style="stroke: #ffffff; stroke-width: 0.309839"/>
     <use xlink:href="#m46a52a9fce" x="145.143081" y="178.020446" style="stroke: #ffffff; stroke-width: 0.309839"/>
     <use xlink:href="#m46a52a9fce" x="146.195571" y="195.738899" style="stroke: #ffffff; stroke-width: 0.309839"/>
     <use xlink:href="#m46a52a9fce" x="148.370718" y="192.08579" style="stroke: #ffffff; stroke-width: 0.309839"/>
     <use xlink:href="#m46a52a9fce" x="151.563272" y="199.562855" style="stroke: #ffffff; stroke-width: 0.309839"/>
     <use xlink:href="#m46a52a9fce" x="152.650846" y="199.551003" style="stroke: #ffffff; stroke-width: 0.309839"/>
     <use xlink:href="#m46a52a9fce" x="153.738419" y="193.321754" style="stroke: #ffffff; stroke-width: 0.309839"/>
     <use xlink:href="#m46a52a9fce" x="156.89589" y="195.480773" style="stroke: #ffffff; stroke-width: 0.309839"/>
     <use xlink:href="#m46a52a9fce" x="157.983464" y="197.92417" style="stroke: #ffffff; stroke-width: 0.309839"/>
     <use xlink:href="#m46a52a9fce" x="163.351165" y="189.795022" style="stroke: #ffffff; stroke-width: 0.309839"/>
     <use xlink:href="#m46a52a9fce" x="164.403655" y="190.126241" style="stroke: #ffffff; stroke-width: 0.309839"/>
     <use xlink:href="#m46a52a9fce" x="165.491229" y="188.546435" style="stroke: #ffffff; stroke-width: 0.309839"/>
     <use xlink:href="#m46a52a9fce" x="166.578802" y="203.616721" style="stroke: #ffffff; stroke-width: 0.309839"/>
     <use xlink:href="#m46a52a9fce" x="167.561126" y="193.59883" style="stroke: #ffffff; stroke-width: 0.309839"/>
     <use xlink:href="#m46a52a9fce" x="168.6487" y="201.974322" style="stroke: #ffffff; stroke-width: 0.309839"/>
     <use xlink:href="#m46a52a9fce" x="169.70119" y="186.252391" style="stroke: #ffffff; stroke-width: 0.309839"/>
     <use xlink:href="#m46a52a9fce" x="170.788764" y="189.58694" style="stroke: #ffffff; stroke-width: 0.309839"/>
     <use xlink:href="#m46a52a9fce" x="178.296529" y="188.937805" style="stroke: #ffffff; stroke-width: 0.309839"/>
     <use xlink:href="#m46a52a9fce" x="181.454" y="204.359668" style="stroke: #ffffff; stroke-width: 0.309839"/>
     <use xlink:href="#m46a52a9fce" x="184.646554" y="206.489956" style="stroke: #ffffff; stroke-width: 0.309839"/>
     <use xlink:href="#m46a52a9fce" x="194.2593" y="199.174599" style="stroke: #ffffff; stroke-width: 0.309839"/>
     <use xlink:href="#m46a52a9fce" x="197.451854" y="199.607472" style="stroke: #ffffff; stroke-width: 0.309839"/>
     <use xlink:href="#m46a52a9fce" x="203.907129" y="193.180812" style="stroke: #ffffff; stroke-width: 0.309839"/>
     <use xlink:href="#m46a52a9fce" x="207.099683" y="188.384887" style="stroke: #ffffff; stroke-width: 0.309839"/>
     <use xlink:href="#m46a52a9fce" x="214.607448" y="194.359074" style="stroke: #ffffff; stroke-width: 0.309839"/>
     <use xlink:href="#m46a52a9fce" x="216.747512" y="203.541114" style="stroke: #ffffff; stroke-width: 0.309839"/>
     <use xlink:href="#m46a52a9fce" x="219.904983" y="170.309012" style="stroke: #ffffff; stroke-width: 0.309839"/>
     <use xlink:href="#m46a52a9fce" x="229.552812" y="200.853748" style="stroke: #ffffff; stroke-width: 0.309839"/>
     <use xlink:href="#m46a52a9fce" x="232.710283" y="179.43233" style="stroke: #ffffff; stroke-width: 0.309839"/>
     <use xlink:href="#m46a52a9fce" x="242.358112" y="201.974963" style="stroke: #ffffff; stroke-width: 0.309839"/>
     <use xlink:href="#m46a52a9fce" x="262.636094" y="185.327789" style="stroke: #ffffff; stroke-width: 0.309839"/>
     <use xlink:href="#m46a52a9fce" x="293.614395" y="207.295999" style="stroke: #ffffff; stroke-width: 0.309839"/>
     <use xlink:href="#m46a52a9fce" x="296.771866" y="211.885083" style="stroke: #ffffff; stroke-width: 0.309839"/>
     <use xlink:href="#m46a52a9fce" x="299.964421" y="203.093981" style="stroke: #ffffff; stroke-width: 0.309839"/>
     <use xlink:href="#m46a52a9fce" x="303.192058" y="196.57088" style="stroke: #ffffff; stroke-width: 0.309839"/>
     <use xlink:href="#m46a52a9fce" x="309.61225" y="209.259177" style="stroke: #ffffff; stroke-width: 0.309839"/>
     <use xlink:href="#m46a52a9fce" x="311.752313" y="202.194142" style="stroke: #ffffff; stroke-width: 0.309839"/>
     <use xlink:href="#m46a52a9fce" x="313.892377" y="194.909937" style="stroke: #ffffff; stroke-width: 0.309839"/>
     <use xlink:href="#m46a52a9fce" x="325.610104" y="210.978449" style="stroke: #ffffff; stroke-width: 0.309839"/>
     <use xlink:href="#m46a52a9fce" x="326.697677" y="202.591157" style="stroke: #ffffff; stroke-width: 0.309839"/>
     <use xlink:href="#m46a52a9fce" x="328.837741" y="207.061937" style="stroke: #ffffff; stroke-width: 0.309839"/>
     <use xlink:href="#m46a52a9fce" x="332.065378" y="211.691312" style="stroke: #ffffff; stroke-width: 0.309839"/>
     <use xlink:href="#m46a52a9fce" x="335.22285" y="214.735297" style="stroke: #ffffff; stroke-width: 0.309839"/>
     <use xlink:href="#m46a52a9fce" x="338.415404" y="219.256171" style="stroke: #ffffff; stroke-width: 0.309839"/>
     <use xlink:href="#m46a52a9fce" x="342.730615" y="216.185138" style="stroke: #ffffff; stroke-width: 0.309839"/>
     <use xlink:href="#m46a52a9fce" x="344.870678" y="209.441332" style="stroke: #ffffff; stroke-width: 0.309839"/>
     <use xlink:href="#m46a52a9fce" x="349.08064" y="211.546577" style="stroke: #ffffff; stroke-width: 0.309839"/>
     <use xlink:href="#m46a52a9fce" x="354.448341" y="212.538942" style="stroke: #ffffff; stroke-width: 0.309839"/>
     <use xlink:href="#m46a52a9fce" x="357.675978" y="228.313544" style="stroke: #ffffff; stroke-width: 0.309839"/>
     <use xlink:href="#m46a52a9fce" x="360.868533" y="222.489695" style="stroke: #ffffff; stroke-width: 0.309839"/>
     <use xlink:href="#m46a52a9fce" x="367.288724" y="227.913796" style="stroke: #ffffff; stroke-width: 0.309839"/>
     <use xlink:href="#m46a52a9fce" x="370.516362" y="219.765823" style="stroke: #ffffff; stroke-width: 0.309839"/>
     <use xlink:href="#m46a52a9fce" x="373.673833" y="225.951362" style="stroke: #ffffff; stroke-width: 0.309839"/>
     <use xlink:href="#m46a52a9fce" x="375.813897" y="228.313544" style="stroke: #ffffff; stroke-width: 0.309839"/>
     <use xlink:href="#m46a52a9fce" x="383.321662" y="223.412173" style="stroke: #ffffff; stroke-width: 0.309839"/>
     <use xlink:href="#m46a52a9fce" x="387.531623" y="218.387238" style="stroke: #ffffff; stroke-width: 0.309839"/>
     <use xlink:href="#m46a52a9fce" x="389.671687" y="233.524759" style="stroke: #ffffff; stroke-width: 0.309839"/>
     <use xlink:href="#m46a52a9fce" x="390.759261" y="221.99579" style="stroke: #ffffff; stroke-width: 0.309839"/>
     <use xlink:href="#m46a52a9fce" x="391.846834" y="219.124856" style="stroke: #ffffff; stroke-width: 0.309839"/>
     <use xlink:href="#m46a52a9fce" x="392.899324" y="222.878646" style="stroke: #ffffff; stroke-width: 0.309839"/>
     <use xlink:href="#m46a52a9fce" x="393.986898" y="228.313544" style="stroke: #ffffff; stroke-width: 0.309839"/>
     <use xlink:href="#m46a52a9fce" x="395.039388" y="226.90166" style="stroke: #ffffff; stroke-width: 0.309839"/>
     <use xlink:href="#m46a52a9fce" x="396.126962" y="237.16184" style="stroke: #ffffff; stroke-width: 0.309839"/>
     <use xlink:href="#m46a52a9fce" x="397.214535" y="226.90166" style="stroke: #ffffff; stroke-width: 0.309839"/>
     <use xlink:href="#m46a52a9fce" x="398.196859" y="218.013058" style="stroke: #ffffff; stroke-width: 0.309839"/>
     <use xlink:href="#m46a52a9fce" x="399.284433" y="236.024978" style="stroke: #ffffff; stroke-width: 0.309839"/>
     <use xlink:href="#m46a52a9fce" x="400.336923" y="229.496113" style="stroke: #ffffff; stroke-width: 0.309839"/>
     <use xlink:href="#m46a52a9fce" x="401.424497" y="216.74705" style="stroke: #ffffff; stroke-width: 0.309839"/>
     <use xlink:href="#m46a52a9fce" x="402.476987" y="222.211155" style="stroke: #ffffff; stroke-width: 0.309839"/>
     <use xlink:href="#m46a52a9fce" x="403.564561" y="213.522146" style="stroke: #ffffff; stroke-width: 0.309839"/>
     <use xlink:href="#m46a52a9fce" x="404.652134" y="211.68896" style="stroke: #ffffff; stroke-width: 0.309839"/>
     <use xlink:href="#m46a52a9fce" x="405.704624" y="208.849741" style="stroke: #ffffff; stroke-width: 0.309839"/>
     <use xlink:href="#m46a52a9fce" x="406.792198" y="204.093798" style="stroke: #ffffff; stroke-width: 0.309839"/>
     <use xlink:href="#m46a52a9fce" x="407.844688" y="206.771135" style="stroke: #ffffff; stroke-width: 0.309839"/>
     <use xlink:href="#m46a52a9fce" x="408.932262" y="216.74705" style="stroke: #ffffff; stroke-width: 0.309839"/>
     <use xlink:href="#m46a52a9fce" x="410.019835" y="214.735297" style="stroke: #ffffff; stroke-width: 0.309839"/>
     <use xlink:href="#m46a52a9fce" x="411.037243" y="208.8341" style="stroke: #ffffff; stroke-width: 0.309839"/>
     <use xlink:href="#m46a52a9fce" x="412.124816" y="217.949103" style="stroke: #ffffff; stroke-width: 0.309839"/>
     <use xlink:href="#m46a52a9fce" x="413.177306" y="205.860788" style="stroke: #ffffff; stroke-width: 0.309839"/>
     <use xlink:href="#m46a52a9fce" x="414.26488" y="209.441331" style="stroke: #ffffff; stroke-width: 0.309839"/>
     <use xlink:href="#m46a52a9fce" x="415.31737" y="212.60387" style="stroke: #ffffff; stroke-width: 0.309839"/>
     <use xlink:href="#m46a52a9fce" x="416.404944" y="201.377533" style="stroke: #ffffff; stroke-width: 0.309839"/>
     <use xlink:href="#m46a52a9fce" x="417.492517" y="206.158082" style="stroke: #ffffff; stroke-width: 0.309839"/>
     <use xlink:href="#m46a52a9fce" x="418.545008" y="201.978125" style="stroke: #ffffff; stroke-width: 0.309839"/>
     <use xlink:href="#m46a52a9fce" x="419.632581" y="208.895803" style="stroke: #ffffff; stroke-width: 0.309839"/>
     <use xlink:href="#m46a52a9fce" x="420.685071" y="214.735297" style="stroke: #ffffff; stroke-width: 0.309839"/>
     <use xlink:href="#m46a52a9fce" x="421.772645" y="214.099856" style="stroke: #ffffff; stroke-width: 0.309839"/>
    </g>
   </g>
  </g>
 </g>
 <defs>
  <clipPath id="p1f6e0020fc">
   <rect x="38.420552" y="18.118365" width="383.352092" height="102.95303"/>
  </clipPath>
  <clipPath id="pee87f85c24">
   <rect x="460.255457" y="18.118365" width="255.568062" height="236.525145"/>
  </clipPath>
  <clipPath id="p3e078f5f96">
   <rect x="38.420552" y="151.69048" width="383.352092" height="102.95303"/>
  </clipPath>
 </defs>
</svg>
