<?xml version="1.0" encoding="utf-8" standalone="no"?>
<!DOCTYPE svg PUBLIC "-//W3C//DTD SVG 1.1//EN"
  "http://www.w3.org/Graphics/SVG/1.1/DTD/svg11.dtd">
<svg xmlns:xlink="http://www.w3.org/1999/xlink" width="576pt" height="360pt" viewBox="0 0 576 360" xmlns="http://www.w3.org/2000/svg" version="1.1">
 <metadata>
  <rdf:RDF xmlns:dc="http://purl.org/dc/elements/1.1/" xmlns:cc="http://creativecommons.org/ns#" xmlns:rdf="http://www.w3.org/1999/02/22-rdf-syntax-ns#">
   <cc:Work>
    <dc:type rdf:resource="http://purl.org/dc/dcmitype/StillImage"/>
    <dc:date>2024-02-10T08:32:11.854999</dc:date>
    <dc:format>image/svg+xml</dc:format>
    <dc:creator>
     <cc:Agent>
      <dc:title>Matplotlib v3.8.2, https://matplotlib.org/</dc:title>
     </cc:Agent>
    </dc:creator>
   </cc:Work>
  </rdf:RDF>
 </metadata>
 <defs>
  <style type="text/css">*{stroke-linejoin: round; stroke-linecap: butt}</style>
 </defs>
 <g id="figure_1">
  <g id="patch_1">
   <path d="M 0 360 
L 576 360 
L 576 0 
L 0 0 
z
" style="fill: #ffffff"/>
  </g>
  <g id="axes_1">
   <g id="patch_2">
    <path d="M 46.64 169.4 
L 565.2 169.4 
L 565.2 38.52 
L 46.64 38.52 
z
" style="fill: #ffffff"/>
   </g>
   <g id="PolyCollection_1">
    <path d="M 50.97337 103.96 
L 50.97337 101.574751 
L 51.695599 101.574751 
L 51.695599 96.339337 
L 53.140056 96.339337 
L 53.140056 93.708167 
L 54.584513 93.708167 
L 54.584513 100.607081 
L 56.028969 100.607081 
L 56.028969 101.748676 
L 57.473426 101.748676 
L 57.473426 98.875565 
L 58.917883 98.875565 
L 58.917883 97.324375 
L 60.36234 97.324375 
L 60.36234 90.591853 
L 61.806797 90.591853 
L 61.806797 88.610065 
L 63.251253 88.610065 
L 63.251253 89.608093 
L 64.69571 89.608093 
L 64.69571 89.085755 
L 66.140167 89.085755 
L 66.140167 99.132156 
L 67.584624 99.132156 
L 67.584624 99.012289 
L 68.306852 99.012289 
L 68.306852 103.96 
L 68.306852 103.96 
L 67.584624 103.96 
L 67.584624 103.96 
L 66.140167 103.96 
L 66.140167 103.96 
L 64.69571 103.96 
L 64.69571 103.96 
L 63.251253 103.96 
L 63.251253 103.96 
L 61.806797 103.96 
L 61.806797 103.96 
L 60.36234 103.96 
L 60.36234 103.96 
L 58.917883 103.96 
L 58.917883 103.96 
L 57.473426 103.96 
L 57.473426 103.96 
L 56.028969 103.96 
L 56.028969 103.96 
L 54.584513 103.96 
L 54.584513 103.96 
L 53.140056 103.96 
L 53.140056 103.96 
L 51.695599 103.96 
L 51.695599 103.96 
L 50.97337 103.96 
z
" clip-path="url(#p6ffc81b776)" style="fill: #17becf; fill-opacity: 0.6; stroke: #1f77b4; stroke-opacity: 0.8; stroke-width: 1.5"/>
    <path d="M 72.640223 103.96 
L 72.640223 98.048873 
L 73.362451 98.048873 
L 73.362451 95.405972 
L 74.806908 95.405972 
L 74.806908 91.23227 
L 76.251365 91.23227 
L 76.251365 92.84633 
L 77.695822 92.84633 
L 77.695822 98.265324 
L 79.140279 98.265324 
L 79.140279 93.005857 
L 80.584735 93.005857 
L 80.584735 95.464946 
L 82.029192 95.464946 
L 82.029192 94.534817 
L 83.473649 94.534817 
L 83.473649 99.665037 
L 84.918106 99.665037 
L 84.918106 92.968235 
L 86.362563 92.968235 
L 86.362563 98.598417 
L 87.807019 98.598417 
L 87.807019 93.062775 
L 89.251476 93.062775 
L 89.251476 87.775629 
L 90.695933 87.775629 
L 90.695933 88.876821 
L 92.14039 88.876821 
L 92.14039 86.70075 
L 93.584847 86.70075 
L 93.584847 88.172112 
L 95.029304 88.172112 
L 95.029304 95.069548 
L 96.47376 95.069548 
L 96.47376 93.920722 
L 97.918217 93.920722 
L 97.918217 94.967697 
L 99.362674 94.967697 
L 99.362674 93.866326 
L 100.807131 93.866326 
L 100.807131 95.392733 
L 102.251588 95.392733 
L 102.251588 96.750907 
L 103.696045 96.750907 
L 103.696045 103.270314 
L 105.140501 103.270314 
L 105.140501 102.914019 
L 106.584958 102.914019 
L 106.584958 103.747548 
L 107.307187 103.747548 
L 107.307187 103.96 
L 107.307187 103.96 
L 106.584958 103.96 
L 106.584958 103.96 
L 105.140501 103.96 
L 105.140501 103.96 
L 103.696045 103.96 
L 103.696045 103.96 
L 102.251588 103.96 
L 102.251588 103.96 
L 100.807131 103.96 
L 100.807131 103.96 
L 99.362674 103.96 
L 99.362674 103.96 
L 97.918217 103.96 
L 97.918217 103.96 
L 96.47376 103.96 
L 96.47376 103.96 
L 95.029304 103.96 
L 95.029304 103.96 
L 93.584847 103.96 
L 93.584847 103.96 
L 92.14039 103.96 
L 92.14039 103.96 
L 90.695933 103.96 
L 90.695933 103.96 
L 89.251476 103.96 
L 89.251476 103.96 
L 87.807019 103.96 
L 87.807019 103.96 
L 86.362563 103.96 
L 86.362563 103.96 
L 84.918106 103.96 
L 84.918106 103.96 
L 83.473649 103.96 
L 83.473649 103.96 
L 82.029192 103.96 
L 82.029192 103.96 
L 80.584735 103.96 
L 80.584735 103.96 
L 79.140279 103.96 
L 79.140279 103.96 
L 77.695822 103.96 
L 77.695822 103.96 
L 76.251365 103.96 
L 76.251365 103.96 
L 74.806908 103.96 
L 74.806908 103.96 
L 73.362451 103.96 
L 73.362451 103.96 
L 72.640223 103.96 
z
" clip-path="url(#p6ffc81b776)" style="fill: #17becf; fill-opacity: 0.6; stroke: #1f77b4; stroke-opacity: 0.8; stroke-width: 1.5"/>
    <path d="M 124.640669 103.96 
L 124.640669 100.454706 
L 125.362897 100.454706 
L 125.362897 98.260862 
L 126.807354 98.260862 
L 126.807354 93.034076 
L 128.251811 93.034076 
L 128.251811 89.542689 
L 129.696267 89.542689 
L 129.696267 88.851657 
L 131.140724 88.851657 
L 131.140724 86.052023 
L 132.585181 86.052023 
L 132.585181 81.82236 
L 134.029638 81.82236 
L 134.029638 81.351968 
L 135.474095 81.351968 
L 135.474095 81.082353 
L 136.918552 81.082353 
L 136.918552 80.171877 
L 138.363008 80.171877 
L 138.363008 77.796405 
L 139.807465 77.796405 
L 139.807465 77.741807 
L 141.251922 77.741807 
L 141.251922 78.788805 
L 142.696379 78.788805 
L 142.696379 78.204474 
L 144.140836 78.204474 
L 144.140836 78.397818 
L 145.585292 78.397818 
L 145.585292 78.489115 
L 147.029749 78.489115 
L 147.029749 77.664938 
L 148.474206 77.664938 
L 148.474206 76.568044 
L 149.918663 76.568044 
L 149.918663 74.744644 
L 151.36312 74.744644 
L 151.36312 72.00055 
L 152.807577 72.00055 
L 152.807577 71.337855 
L 154.252033 71.337855 
L 154.252033 71.826799 
L 155.69649 71.826799 
L 155.69649 72.732442 
L 157.140947 72.732442 
L 157.140947 74.261157 
L 158.585404 74.261157 
L 158.585404 74.276808 
L 160.029861 74.276808 
L 160.029861 74.68905 
L 161.474318 74.68905 
L 161.474318 73.879152 
L 162.918774 73.879152 
L 162.918774 72.988277 
L 164.363231 72.988277 
L 164.363231 70.024139 
L 165.807688 70.024139 
L 165.807688 70.526226 
L 167.252145 70.526226 
L 167.252145 70.243321 
L 168.696602 70.243321 
L 168.696602 70.373588 
L 170.141058 70.373588 
L 170.141058 71.485868 
L 171.585515 71.485868 
L 171.585515 70.567083 
L 173.029972 70.567083 
L 173.029972 69.888495 
L 174.474429 69.888495 
L 174.474429 67.014158 
L 175.918886 67.014158 
L 175.918886 63.741097 
L 177.363343 63.741097 
L 177.363343 63.720867 
L 178.807799 63.720867 
L 178.807799 58.940589 
L 180.252256 58.940589 
L 180.252256 58.949593 
L 181.696713 58.949593 
L 181.696713 58.98245 
L 183.14117 58.98245 
L 183.14117 57.694466 
L 184.585627 57.694466 
L 184.585627 57.613983 
L 186.030084 57.613983 
L 186.030084 57.530578 
L 187.47454 57.530578 
L 187.47454 57.556544 
L 188.918997 57.556544 
L 188.918997 57.535696 
L 190.363454 57.535696 
L 190.363454 58.036354 
L 191.807911 58.036354 
L 191.807911 60.672065 
L 193.252368 60.672065 
L 193.252368 64.517074 
L 194.696825 64.517074 
L 194.696825 64.314707 
L 196.141281 64.314707 
L 196.141281 67.491317 
L 197.585738 67.491317 
L 197.585738 68.845635 
L 199.030195 68.845635 
L 199.030195 73.176598 
L 200.474652 73.176598 
L 200.474652 73.647686 
L 201.919109 73.647686 
L 201.919109 75.823199 
L 203.363565 75.823199 
L 203.363565 77.959952 
L 204.808022 77.959952 
L 204.808022 78.00863 
L 206.252479 78.00863 
L 206.252479 79.274233 
L 207.696936 79.274233 
L 207.696936 81.213461 
L 209.141393 81.213461 
L 209.141393 81.165597 
L 210.58585 81.165597 
L 210.58585 80.477079 
L 212.030306 80.477079 
L 212.030306 81.007009 
L 213.474763 81.007009 
L 213.474763 80.92162 
L 214.91922 80.92162 
L 214.91922 80.863617 
L 216.363677 80.863617 
L 216.363677 82.703053 
L 217.808134 82.703053 
L 217.808134 86.238775 
L 219.252591 86.238775 
L 219.252591 90.469031 
L 220.697047 90.469031 
L 220.697047 88.388237 
L 222.141504 88.388237 
L 222.141504 97.220809 
L 223.585961 97.220809 
L 223.585961 100.620588 
L 225.030418 100.620588 
L 225.030418 102.10598 
L 226.474875 102.10598 
L 226.474875 102.013708 
L 227.197103 102.013708 
L 227.197103 103.96 
L 227.197103 103.96 
L 226.474875 103.96 
L 226.474875 103.96 
L 225.030418 103.96 
L 225.030418 103.96 
L 223.585961 103.96 
L 223.585961 103.96 
L 222.141504 103.96 
L 222.141504 103.96 
L 220.697047 103.96 
L 220.697047 103.96 
L 219.252591 103.96 
L 219.252591 103.96 
L 217.808134 103.96 
L 217.808134 103.96 
L 216.363677 103.96 
L 216.363677 103.96 
L 214.91922 103.96 
L 214.91922 103.96 
L 213.474763 103.96 
L 213.474763 103.96 
L 212.030306 103.96 
L 212.030306 103.96 
L 210.58585 103.96 
L 210.58585 103.96 
L 209.141393 103.96 
L 209.141393 103.96 
L 207.696936 103.96 
L 207.696936 103.96 
L 206.252479 103.96 
L 206.252479 103.96 
L 204.808022 103.96 
L 204.808022 103.96 
L 203.363565 103.96 
L 203.363565 103.96 
L 201.919109 103.96 
L 201.919109 103.96 
L 200.474652 103.96 
L 200.474652 103.96 
L 199.030195 103.96 
L 199.030195 103.96 
L 197.585738 103.96 
L 197.585738 103.96 
L 196.141281 103.96 
L 196.141281 103.96 
L 194.696825 103.96 
L 194.696825 103.96 
L 193.252368 103.96 
L 193.252368 103.96 
L 191.807911 103.96 
L 191.807911 103.96 
L 190.363454 103.96 
L 190.363454 103.96 
L 188.918997 103.96 
L 188.918997 103.96 
L 187.47454 103.96 
L 187.47454 103.96 
L 186.030084 103.96 
L 186.030084 103.96 
L 184.585627 103.96 
L 184.585627 103.96 
L 183.14117 103.96 
L 183.14117 103.96 
L 181.696713 103.96 
L 181.696713 103.96 
L 180.252256 103.96 
L 180.252256 103.96 
L 178.807799 103.96 
L 178.807799 103.96 
L 177.363343 103.96 
L 177.363343 103.96 
L 175.918886 103.96 
L 175.918886 103.96 
L 174.474429 103.96 
L 174.474429 103.96 
L 173.029972 103.96 
L 173.029972 103.96 
L 171.585515 103.96 
L 171.585515 103.96 
L 170.141058 103.96 
L 170.141058 103.96 
L 168.696602 103.96 
L 168.696602 103.96 
L 167.252145 103.96 
L 167.252145 103.96 
L 165.807688 103.96 
L 165.807688 103.96 
L 164.363231 103.96 
L 164.363231 103.96 
L 162.918774 103.96 
L 162.918774 103.96 
L 161.474318 103.96 
L 161.474318 103.96 
L 160.029861 103.96 
L 160.029861 103.96 
L 158.585404 103.96 
L 158.585404 103.96 
L 157.140947 103.96 
L 157.140947 103.96 
L 155.69649 103.96 
L 155.69649 103.96 
L 154.252033 103.96 
L 154.252033 103.96 
L 152.807577 103.96 
L 152.807577 103.96 
L 151.36312 103.96 
L 151.36312 103.96 
L 149.918663 103.96 
L 149.918663 103.96 
L 148.474206 103.96 
L 148.474206 103.96 
L 147.029749 103.96 
L 147.029749 103.96 
L 145.585292 103.96 
L 145.585292 103.96 
L 144.140836 103.96 
L 144.140836 103.96 
L 142.696379 103.96 
L 142.696379 103.96 
L 141.251922 103.96 
L 141.251922 103.96 
L 139.807465 103.96 
L 139.807465 103.96 
L 138.363008 103.96 
L 138.363008 103.96 
L 136.918552 103.96 
L 136.918552 103.96 
L 135.474095 103.96 
L 135.474095 103.96 
L 134.029638 103.96 
L 134.029638 103.96 
L 132.585181 103.96 
L 132.585181 103.96 
L 131.140724 103.96 
L 131.140724 103.96 
L 129.696267 103.96 
L 129.696267 103.96 
L 128.251811 103.96 
L 128.251811 103.96 
L 126.807354 103.96 
L 126.807354 103.96 
L 125.362897 103.96 
L 125.362897 103.96 
L 124.640669 103.96 
z
" clip-path="url(#p6ffc81b776)" style="fill: #17becf; fill-opacity: 0.6; stroke: #1f77b4; stroke-opacity: 0.8; stroke-width: 1.5"/>
    <path d="M 306.642228 103.96 
L 306.642228 101.43649 
L 307.364457 101.43649 
L 307.364457 100.705719 
L 308.808914 100.705719 
L 308.808914 101.316732 
L 310.25337 101.316732 
L 310.25337 101.451416 
L 310.975599 101.451416 
L 310.975599 103.96 
L 310.975599 103.96 
L 310.25337 103.96 
L 310.25337 103.96 
L 308.808914 103.96 
L 308.808914 103.96 
L 307.364457 103.96 
L 307.364457 103.96 
L 306.642228 103.96 
z
" clip-path="url(#p6ffc81b776)" style="fill: #17becf; fill-opacity: 0.6; stroke: #1f77b4; stroke-opacity: 0.8; stroke-width: 1.5"/>
    <path d="M 321.086797 103.96 
L 321.086797 103.900094 
L 321.809025 103.900094 
L 321.809025 101.257811 
L 322.531253 101.257811 
L 322.531253 103.96 
L 322.531253 103.96 
L 321.809025 103.96 
L 321.809025 103.96 
L 321.086797 103.96 
z
" clip-path="url(#p6ffc81b776)" style="fill: #17becf; fill-opacity: 0.6; stroke: #1f77b4; stroke-opacity: 0.8; stroke-width: 1.5"/>
    <path d="M 344.198106 103.96 
L 344.198106 103.377839 
L 344.920334 103.377839 
L 344.920334 101.730442 
L 345.642563 101.730442 
L 345.642563 103.96 
L 345.642563 103.96 
L 344.920334 103.96 
L 344.920334 103.96 
L 344.198106 103.96 
z
" clip-path="url(#p6ffc81b776)" style="fill: #17becf; fill-opacity: 0.6; stroke: #1f77b4; stroke-opacity: 0.8; stroke-width: 1.5"/>
    <path d="M 358.642674 103.96 
L 358.642674 100.959755 
L 359.364903 100.959755 
L 359.364903 100.583183 
L 360.809359 100.583183 
L 360.809359 92.220806 
L 362.253816 92.220806 
L 362.253816 95.055189 
L 363.698273 95.055189 
L 363.698273 96.425714 
L 365.14273 96.425714 
L 365.14273 101.383449 
L 366.587187 101.383449 
L 366.587187 99.441407 
L 368.031643 99.441407 
L 368.031643 95.200895 
L 369.4761 95.200895 
L 369.4761 98.275139 
L 370.920557 98.275139 
L 370.920557 98.862148 
L 371.642786 98.862148 
L 371.642786 103.96 
L 371.642786 103.96 
L 370.920557 103.96 
L 370.920557 103.96 
L 369.4761 103.96 
L 369.4761 103.96 
L 368.031643 103.96 
L 368.031643 103.96 
L 366.587187 103.96 
L 366.587187 103.96 
L 365.14273 103.96 
L 365.14273 103.96 
L 363.698273 103.96 
L 363.698273 103.96 
L 362.253816 103.96 
L 362.253816 103.96 
L 360.809359 103.96 
L 360.809359 103.96 
L 359.364903 103.96 
L 359.364903 103.96 
L 358.642674 103.96 
z
" clip-path="url(#p6ffc81b776)" style="fill: #17becf; fill-opacity: 0.6; stroke: #1f77b4; stroke-opacity: 0.8; stroke-width: 1.5"/>
    <path d="M 397.643008 103.96 
L 397.643008 101.034632 
L 398.365237 101.034632 
L 398.365237 95.610307 
L 399.809694 95.610307 
L 399.809694 93.347306 
L 401.25415 93.347306 
L 401.25415 92.236845 
L 402.698607 92.236845 
L 402.698607 93.040345 
L 404.143064 93.040345 
L 404.143064 95.816745 
L 405.587521 95.816745 
L 405.587521 97.209345 
L 407.031978 97.209345 
L 407.031978 98.20438 
L 408.476435 98.20438 
L 408.476435 100.886561 
L 409.920891 100.886561 
L 409.920891 97.970983 
L 411.365348 97.970983 
L 411.365348 98.439763 
L 412.809805 98.439763 
L 412.809805 96.84939 
L 414.254262 96.84939 
L 414.254262 97.798282 
L 415.698719 97.798282 
L 415.698719 94.965895 
L 417.143175 94.965895 
L 417.143175 99.473675 
L 418.587632 99.473675 
L 418.587632 98.893752 
L 420.032089 98.893752 
L 420.032089 102.631034 
L 420.754318 102.631034 
L 420.754318 103.96 
L 420.754318 103.96 
L 420.032089 103.96 
L 420.032089 103.96 
L 418.587632 103.96 
L 418.587632 103.96 
L 417.143175 103.96 
L 417.143175 103.96 
L 415.698719 103.96 
L 415.698719 103.96 
L 414.254262 103.96 
L 414.254262 103.96 
L 412.809805 103.96 
L 412.809805 103.96 
L 411.365348 103.96 
L 411.365348 103.96 
L 409.920891 103.96 
L 409.920891 103.96 
L 408.476435 103.96 
L 408.476435 103.96 
L 407.031978 103.96 
L 407.031978 103.96 
L 405.587521 103.96 
L 405.587521 103.96 
L 404.143064 103.96 
L 404.143064 103.96 
L 402.698607 103.96 
L 402.698607 103.96 
L 401.25415 103.96 
L 401.25415 103.96 
L 399.809694 103.96 
L 399.809694 103.96 
L 398.365237 103.96 
L 398.365237 103.96 
L 397.643008 103.96 
z
" clip-path="url(#p6ffc81b776)" style="fill: #17becf; fill-opacity: 0.6; stroke: #1f77b4; stroke-opacity: 0.8; stroke-width: 1.5"/>
    <path d="M 423.643231 103.96 
L 423.643231 103.649052 
L 423.643231 103.649052 
L 423.643231 103.96 
L 423.643231 103.96 
L 423.643231 103.96 
z
" clip-path="url(#p6ffc81b776)" style="fill: #17becf; fill-opacity: 0.6; stroke: #1f77b4; stroke-opacity: 0.8; stroke-width: 1.5"/>
    <path d="M 446.75454 103.96 
L 446.75454 96.447905 
L 447.476769 96.447905 
L 447.476769 87.509699 
L 448.921226 87.509699 
L 448.921226 85.452365 
L 450.365682 85.452365 
L 450.365682 88.976783 
L 451.810139 88.976783 
L 451.810139 94.167493 
L 453.254596 94.167493 
L 453.254596 95.6249 
L 454.699053 95.6249 
L 454.699053 93.330242 
L 456.14351 93.330242 
L 456.14351 93.480068 
L 457.587967 93.480068 
L 457.587967 95.565338 
L 459.032423 95.565338 
L 459.032423 92.183469 
L 460.47688 92.183469 
L 460.47688 90.712546 
L 461.921337 90.712546 
L 461.921337 92.182279 
L 463.365794 92.182279 
L 463.365794 91.673373 
L 464.810251 91.673373 
L 464.810251 101.357801 
L 465.532479 101.357801 
L 465.532479 103.96 
L 465.532479 103.96 
L 464.810251 103.96 
L 464.810251 103.96 
L 463.365794 103.96 
L 463.365794 103.96 
L 461.921337 103.96 
L 461.921337 103.96 
L 460.47688 103.96 
L 460.47688 103.96 
L 459.032423 103.96 
L 459.032423 103.96 
L 457.587967 103.96 
L 457.587967 103.96 
L 456.14351 103.96 
L 456.14351 103.96 
L 454.699053 103.96 
L 454.699053 103.96 
L 453.254596 103.96 
L 453.254596 103.96 
L 451.810139 103.96 
L 451.810139 103.96 
L 450.365682 103.96 
L 450.365682 103.96 
L 448.921226 103.96 
L 448.921226 103.96 
L 447.476769 103.96 
L 447.476769 103.96 
L 446.75454 103.96 
z
" clip-path="url(#p6ffc81b776)" style="fill: #17becf; fill-opacity: 0.6; stroke: #1f77b4; stroke-opacity: 0.8; stroke-width: 1.5"/>
    <path d="M 542.088691 103.96 
L 542.088691 102.646252 
L 542.810919 102.646252 
L 542.810919 97.900113 
L 544.255376 97.900113 
L 544.255376 95.002985 
L 545.699833 95.002985 
L 545.699833 98.222338 
L 546.422061 98.222338 
L 546.422061 103.96 
L 546.422061 103.96 
L 545.699833 103.96 
L 545.699833 103.96 
L 544.255376 103.96 
L 544.255376 103.96 
L 542.810919 103.96 
L 542.810919 103.96 
L 542.088691 103.96 
z
" clip-path="url(#p6ffc81b776)" style="fill: #17becf; fill-opacity: 0.6; stroke: #1f77b4; stroke-opacity: 0.8; stroke-width: 1.5"/>
    <path d="M 549.310975 103.96 
L 549.310975 97.256223 
L 550.033203 97.256223 
L 550.033203 90.276747 
L 551.47766 90.276747 
L 551.47766 95.498384 
L 552.922117 95.498384 
L 552.922117 92.560404 
L 554.366574 92.560404 
L 554.366574 89.854144 
L 555.811031 89.854144 
L 555.811031 86.572321 
L 557.255487 86.572321 
L 557.255487 89.115075 
L 558.699944 89.115075 
L 558.699944 89.545666 
L 560.144401 89.545666 
L 560.144401 90.198397 
L 561.588858 90.198397 
L 561.588858 91.025354 
L 563.033315 91.025354 
L 563.033315 91.237612 
L 564.477772 91.237612 
L 564.477772 92.912081 
L 565.2 92.912081 
L 565.2 103.96 
L 565.2 103.96 
L 564.477772 103.96 
L 564.477772 103.96 
L 563.033315 103.96 
L 563.033315 103.96 
L 561.588858 103.96 
L 561.588858 103.96 
L 560.144401 103.96 
L 560.144401 103.96 
L 558.699944 103.96 
L 558.699944 103.96 
L 557.255487 103.96 
L 557.255487 103.96 
L 555.811031 103.96 
L 555.811031 103.96 
L 554.366574 103.96 
L 554.366574 103.96 
L 552.922117 103.96 
L 552.922117 103.96 
L 551.47766 103.96 
L 551.47766 103.96 
L 550.033203 103.96 
L 550.033203 103.96 
L 549.310975 103.96 
z
" clip-path="url(#p6ffc81b776)" style="fill: #17becf; fill-opacity: 0.6; stroke: #1f77b4; stroke-opacity: 0.8; stroke-width: 1.5"/>
   </g>
   <g id="PolyCollection_2">
    <path d="M 46.64 103.96 
L 46.64 110.010601 
L 47.362228 110.010601 
L 47.362228 112.116774 
L 48.806685 112.116774 
L 48.806685 109.517877 
L 49.528914 109.517877 
L 49.528914 103.96 
L 49.528914 103.96 
L 48.806685 103.96 
L 48.806685 103.96 
L 47.362228 103.96 
L 47.362228 103.96 
L 46.64 103.96 
z
" clip-path="url(#p6ffc81b776)" style="fill: #d62728; fill-opacity: 0.6; stroke: #b22222; stroke-opacity: 0.8; stroke-width: 1.5"/>
    <path d="M 69.751309 103.96 
L 69.751309 105.754068 
L 70.473538 105.754068 
L 70.473538 104.911515 
L 71.195766 104.911515 
L 71.195766 103.96 
L 71.195766 103.96 
L 70.473538 103.96 
L 70.473538 103.96 
L 69.751309 103.96 
z
" clip-path="url(#p6ffc81b776)" style="fill: #d62728; fill-opacity: 0.6; stroke: #b22222; stroke-opacity: 0.8; stroke-width: 1.5"/>
    <path d="M 108.751643 103.96 
L 108.751643 109.34931 
L 109.473872 109.34931 
L 109.473872 107.928886 
L 110.918329 107.928886 
L 110.918329 110.098696 
L 112.362786 110.098696 
L 112.362786 109.724833 
L 113.807242 109.724833 
L 113.807242 109.205051 
L 115.251699 109.205051 
L 115.251699 110.585333 
L 116.696156 110.585333 
L 116.696156 106.541204 
L 118.140613 106.541204 
L 118.140613 105.597311 
L 119.58507 105.597311 
L 119.58507 107.710902 
L 121.029526 107.710902 
L 121.029526 108.502861 
L 122.473983 108.502861 
L 122.473983 108.183961 
L 123.196212 108.183961 
L 123.196212 103.96 
L 123.196212 103.96 
L 122.473983 103.96 
L 122.473983 103.96 
L 121.029526 103.96 
L 121.029526 103.96 
L 119.58507 103.96 
L 119.58507 103.96 
L 118.140613 103.96 
L 118.140613 103.96 
L 116.696156 103.96 
L 116.696156 103.96 
L 115.251699 103.96 
L 115.251699 103.96 
L 113.807242 103.96 
L 113.807242 103.96 
L 112.362786 103.96 
L 112.362786 103.96 
L 110.918329 103.96 
L 110.918329 103.96 
L 109.473872 103.96 
L 109.473872 103.96 
L 108.751643 103.96 
z
" clip-path="url(#p6ffc81b776)" style="fill: #d62728; fill-opacity: 0.6; stroke: #b22222; stroke-opacity: 0.8; stroke-width: 1.5"/>
    <path d="M 228.64156 103.96 
L 228.64156 104.517642 
L 229.363788 104.517642 
L 229.363788 108.842857 
L 230.808245 108.842857 
L 230.808245 113.707018 
L 232.252702 113.707018 
L 232.252702 113.693897 
L 233.697159 113.693897 
L 233.697159 115.601324 
L 235.141616 115.601324 
L 235.141616 113.334777 
L 236.586072 113.334777 
L 236.586072 112.488431 
L 238.030529 112.488431 
L 238.030529 115.646735 
L 239.474986 115.646735 
L 239.474986 110.843571 
L 240.919443 110.843571 
L 240.919443 113.333159 
L 242.3639 113.333159 
L 242.3639 112.995295 
L 243.808357 112.995295 
L 243.808357 118.371313 
L 245.252813 118.371313 
L 245.252813 121.303595 
L 246.69727 121.303595 
L 246.69727 116.471228 
L 248.141727 116.471228 
L 248.141727 120.582545 
L 249.586184 120.582545 
L 249.586184 121.67838 
L 251.030641 121.67838 
L 251.030641 128.38597 
L 252.475097 128.38597 
L 252.475097 141.407683 
L 253.919554 141.407683 
L 253.919554 137.532804 
L 255.364011 137.532804 
L 255.364011 148.642395 
L 256.808468 148.642395 
L 256.808468 128.171742 
L 258.252925 128.171742 
L 258.252925 126.972824 
L 259.697382 126.972824 
L 259.697382 123.921715 
L 261.141838 123.921715 
L 261.141838 128.815815 
L 262.586295 128.815815 
L 262.586295 129.381164 
L 264.030752 129.381164 
L 264.030752 132.300056 
L 265.475209 132.300056 
L 265.475209 139.202123 
L 266.919666 139.202123 
L 266.919666 133.877148 
L 268.364123 133.877148 
L 268.364123 126.616785 
L 269.808579 126.616785 
L 269.808579 131.454136 
L 271.253036 131.454136 
L 271.253036 130.471963 
L 272.697493 130.471963 
L 272.697493 138.325968 
L 274.14195 138.325968 
L 274.14195 138.104905 
L 275.586407 138.104905 
L 275.586407 139.971358 
L 277.030864 139.971358 
L 277.030864 129.360962 
L 278.47532 129.360962 
L 278.47532 123.83835 
L 279.919777 123.83835 
L 279.919777 121.277786 
L 281.364234 121.277786 
L 281.364234 111.511977 
L 282.808691 111.511977 
L 282.808691 107.398186 
L 284.253148 107.398186 
L 284.253148 113.242239 
L 285.697604 113.242239 
L 285.697604 112.411907 
L 287.142061 112.411907 
L 287.142061 112.147534 
L 288.586518 112.147534 
L 288.586518 107.943098 
L 290.030975 107.943098 
L 290.030975 114.728597 
L 291.475432 114.728597 
L 291.475432 113.096581 
L 292.919889 113.096581 
L 292.919889 114.655504 
L 294.364345 114.655504 
L 294.364345 104.739973 
L 295.808802 104.739973 
L 295.808802 105.683587 
L 297.253259 105.683587 
L 297.253259 111.579712 
L 298.697716 111.579712 
L 298.697716 109.324027 
L 300.142173 109.324027 
L 300.142173 105.279606 
L 301.58663 105.279606 
L 301.58663 110.711937 
L 303.031086 110.711937 
L 303.031086 105.356685 
L 304.475543 105.356685 
L 304.475543 104.637729 
L 305.197772 104.637729 
L 305.197772 103.96 
L 305.197772 103.96 
L 304.475543 103.96 
L 304.475543 103.96 
L 303.031086 103.96 
L 303.031086 103.96 
L 301.58663 103.96 
L 301.58663 103.96 
L 300.142173 103.96 
L 300.142173 103.96 
L 298.697716 103.96 
L 298.697716 103.96 
L 297.253259 103.96 
L 297.253259 103.96 
L 295.808802 103.96 
L 295.808802 103.96 
L 294.364345 103.96 
L 294.364345 103.96 
L 292.919889 103.96 
L 292.919889 103.96 
L 291.475432 103.96 
L 291.475432 103.96 
L 290.030975 103.96 
L 290.030975 103.96 
L 288.586518 103.96 
L 288.586518 103.96 
L 287.142061 103.96 
L 287.142061 103.96 
L 285.697604 103.96 
L 285.697604 103.96 
L 284.253148 103.96 
L 284.253148 103.96 
L 282.808691 103.96 
L 282.808691 103.96 
L 281.364234 103.96 
L 281.364234 103.96 
L 279.919777 103.96 
L 279.919777 103.96 
L 278.47532 103.96 
L 278.47532 103.96 
L 277.030864 103.96 
L 277.030864 103.96 
L 275.586407 103.96 
L 275.586407 103.96 
L 274.14195 103.96 
L 274.14195 103.96 
L 272.697493 103.96 
L 272.697493 103.96 
L 271.253036 103.96 
L 271.253036 103.96 
L 269.808579 103.96 
L 269.808579 103.96 
L 268.364123 103.96 
L 268.364123 103.96 
L 266.919666 103.96 
L 266.919666 103.96 
L 265.475209 103.96 
L 265.475209 103.96 
L 264.030752 103.96 
L 264.030752 103.96 
L 262.586295 103.96 
L 262.586295 103.96 
L 261.141838 103.96 
L 261.141838 103.96 
L 259.697382 103.96 
L 259.697382 103.96 
L 258.252925 103.96 
L 258.252925 103.96 
L 256.808468 103.96 
L 256.808468 103.96 
L 255.364011 103.96 
L 255.364011 103.96 
L 253.919554 103.96 
L 253.919554 103.96 
L 252.475097 103.96 
L 252.475097 103.96 
L 251.030641 103.96 
L 251.030641 103.96 
L 249.586184 103.96 
L 249.586184 103.96 
L 248.141727 103.96 
L 248.141727 103.96 
L 246.69727 103.96 
L 246.69727 103.96 
L 245.252813 103.96 
L 245.252813 103.96 
L 243.808357 103.96 
L 243.808357 103.96 
L 242.3639 103.96 
L 242.3639 103.96 
L 240.919443 103.96 
L 240.919443 103.96 
L 239.474986 103.96 
L 239.474986 103.96 
L 238.030529 103.96 
L 238.030529 103.96 
L 236.586072 103.96 
L 236.586072 103.96 
L 235.141616 103.96 
L 235.141616 103.96 
L 233.697159 103.96 
L 233.697159 103.96 
L 232.252702 103.96 
L 232.252702 103.96 
L 230.808245 103.96 
L 230.808245 103.96 
L 229.363788 103.96 
L 229.363788 103.96 
L 228.64156 103.96 
z
" clip-path="url(#p6ffc81b776)" style="fill: #d62728; fill-opacity: 0.6; stroke: #b22222; stroke-opacity: 0.8; stroke-width: 1.5"/>
    <path d="M 312.420056 103.96 
L 312.420056 105.259209 
L 313.142284 105.259209 
L 313.142284 109.997755 
L 314.586741 109.997755 
L 314.586741 112.303327 
L 316.031198 112.303327 
L 316.031198 114.795249 
L 317.475655 114.795249 
L 317.475655 114.239307 
L 318.920111 114.239307 
L 318.920111 111.037323 
L 319.64234 111.037323 
L 319.64234 103.96 
L 319.64234 103.96 
L 318.920111 103.96 
L 318.920111 103.96 
L 317.475655 103.96 
L 317.475655 103.96 
L 316.031198 103.96 
L 316.031198 103.96 
L 314.586741 103.96 
L 314.586741 103.96 
L 313.142284 103.96 
L 313.142284 103.96 
L 312.420056 103.96 
z
" clip-path="url(#p6ffc81b776)" style="fill: #d62728; fill-opacity: 0.6; stroke: #b22222; stroke-opacity: 0.8; stroke-width: 1.5"/>
    <path d="M 323.97571 103.96 
L 323.97571 105.330994 
L 324.697939 105.330994 
L 324.697939 106.992155 
L 326.142396 106.992155 
L 326.142396 121.375761 
L 327.586852 121.375761 
L 327.586852 125.194015 
L 329.031309 125.194015 
L 329.031309 125.636255 
L 330.475766 125.636255 
L 330.475766 121.03474 
L 331.920223 121.03474 
L 331.920223 120.763597 
L 333.36468 120.763597 
L 333.36468 121.931584 
L 334.809136 121.931584 
L 334.809136 120.893007 
L 336.253593 120.893007 
L 336.253593 115.491904 
L 337.69805 115.491904 
L 337.69805 117.653684 
L 339.142507 117.653684 
L 339.142507 116.564356 
L 340.586964 116.564356 
L 340.586964 115.440864 
L 342.031421 115.440864 
L 342.031421 111.138328 
L 342.753649 111.138328 
L 342.753649 103.96 
L 342.753649 103.96 
L 342.031421 103.96 
L 342.031421 103.96 
L 340.586964 103.96 
L 340.586964 103.96 
L 339.142507 103.96 
L 339.142507 103.96 
L 337.69805 103.96 
L 337.69805 103.96 
L 336.253593 103.96 
L 336.253593 103.96 
L 334.809136 103.96 
L 334.809136 103.96 
L 333.36468 103.96 
L 333.36468 103.96 
L 331.920223 103.96 
L 331.920223 103.96 
L 330.475766 103.96 
L 330.475766 103.96 
L 329.031309 103.96 
L 329.031309 103.96 
L 327.586852 103.96 
L 327.586852 103.96 
L 326.142396 103.96 
L 326.142396 103.96 
L 324.697939 103.96 
L 324.697939 103.96 
L 323.97571 103.96 
z
" clip-path="url(#p6ffc81b776)" style="fill: #d62728; fill-opacity: 0.6; stroke: #b22222; stroke-opacity: 0.8; stroke-width: 1.5"/>
    <path d="M 347.087019 103.96 
L 347.087019 110.293669 
L 347.809248 110.293669 
L 347.809248 108.614193 
L 349.253705 108.614193 
L 349.253705 111.095507 
L 350.698162 111.095507 
L 350.698162 114.966473 
L 352.142618 114.966473 
L 352.142618 123.872915 
L 353.587075 123.872915 
L 353.587075 123.279471 
L 355.031532 123.279471 
L 355.031532 116.492176 
L 356.475989 116.492176 
L 356.475989 112.492262 
L 357.198217 112.492262 
L 357.198217 103.96 
L 357.198217 103.96 
L 356.475989 103.96 
L 356.475989 103.96 
L 355.031532 103.96 
L 355.031532 103.96 
L 353.587075 103.96 
L 353.587075 103.96 
L 352.142618 103.96 
L 352.142618 103.96 
L 350.698162 103.96 
L 350.698162 103.96 
L 349.253705 103.96 
L 349.253705 103.96 
L 347.809248 103.96 
L 347.809248 103.96 
L 347.087019 103.96 
z
" clip-path="url(#p6ffc81b776)" style="fill: #d62728; fill-opacity: 0.6; stroke: #b22222; stroke-opacity: 0.8; stroke-width: 1.5"/>
    <path d="M 373.087242 103.96 
L 373.087242 106.046819 
L 373.809471 106.046819 
L 373.809471 110.792969 
L 375.253928 110.792969 
L 375.253928 118.465429 
L 376.698384 118.465429 
L 376.698384 127.391212 
L 378.142841 127.391212 
L 378.142841 128.994213 
L 379.587298 128.994213 
L 379.587298 134.259967 
L 381.031755 134.259967 
L 381.031755 128.608642 
L 382.476212 128.608642 
L 382.476212 122.289619 
L 383.920669 122.289619 
L 383.920669 119.68044 
L 385.365125 119.68044 
L 385.365125 117.241475 
L 386.809582 117.241475 
L 386.809582 118.808048 
L 388.254039 118.808048 
L 388.254039 117.639017 
L 389.698496 117.639017 
L 389.698496 122.792414 
L 391.142953 122.792414 
L 391.142953 122.775899 
L 392.587409 122.775899 
L 392.587409 113.314636 
L 394.031866 113.314636 
L 394.031866 118.449078 
L 395.476323 118.449078 
L 395.476323 107.816986 
L 396.198552 107.816986 
L 396.198552 103.96 
L 396.198552 103.96 
L 395.476323 103.96 
L 395.476323 103.96 
L 394.031866 103.96 
L 394.031866 103.96 
L 392.587409 103.96 
L 392.587409 103.96 
L 391.142953 103.96 
L 391.142953 103.96 
L 389.698496 103.96 
L 389.698496 103.96 
L 388.254039 103.96 
L 388.254039 103.96 
L 386.809582 103.96 
L 386.809582 103.96 
L 385.365125 103.96 
L 385.365125 103.96 
L 383.920669 103.96 
L 383.920669 103.96 
L 382.476212 103.96 
L 382.476212 103.96 
L 381.031755 103.96 
L 381.031755 103.96 
L 379.587298 103.96 
L 379.587298 103.96 
L 378.142841 103.96 
L 378.142841 103.96 
L 376.698384 103.96 
L 376.698384 103.96 
L 375.253928 103.96 
L 375.253928 103.96 
L 373.809471 103.96 
L 373.809471 103.96 
L 373.087242 103.96 
z
" clip-path="url(#p6ffc81b776)" style="fill: #d62728; fill-opacity: 0.6; stroke: #b22222; stroke-opacity: 0.8; stroke-width: 1.5"/>
    <path d="M 422.198774 103.96 
L 422.198774 107.025735 
L 422.198774 107.025735 
L 422.198774 103.96 
L 422.198774 103.96 
L 422.198774 103.96 
z
" clip-path="url(#p6ffc81b776)" style="fill: #d62728; fill-opacity: 0.6; stroke: #b22222; stroke-opacity: 0.8; stroke-width: 1.5"/>
    <path d="M 425.087688 103.96 
L 425.087688 106.931088 
L 425.809916 106.931088 
L 425.809916 107.115179 
L 427.254373 107.115179 
L 427.254373 113.996225 
L 428.69883 113.996225 
L 428.69883 115.828258 
L 430.143287 115.828258 
L 430.143287 120.126414 
L 431.587744 120.126414 
L 431.587744 119.277566 
L 433.032201 119.277566 
L 433.032201 122.059841 
L 434.476657 122.059841 
L 434.476657 123.46078 
L 435.921114 123.46078 
L 435.921114 126.49021 
L 437.365571 126.49021 
L 437.365571 131.056627 
L 438.810028 131.056627 
L 438.810028 125.16966 
L 440.254485 125.16966 
L 440.254485 129.690157 
L 441.698942 129.690157 
L 441.698942 122.652433 
L 443.143398 122.652433 
L 443.143398 117.533207 
L 444.587855 117.533207 
L 444.587855 111.212036 
L 445.310084 111.212036 
L 445.310084 103.96 
L 445.310084 103.96 
L 444.587855 103.96 
L 444.587855 103.96 
L 443.143398 103.96 
L 443.143398 103.96 
L 441.698942 103.96 
L 441.698942 103.96 
L 440.254485 103.96 
L 440.254485 103.96 
L 438.810028 103.96 
L 438.810028 103.96 
L 437.365571 103.96 
L 437.365571 103.96 
L 435.921114 103.96 
L 435.921114 103.96 
L 434.476657 103.96 
L 434.476657 103.96 
L 433.032201 103.96 
L 433.032201 103.96 
L 431.587744 103.96 
L 431.587744 103.96 
L 430.143287 103.96 
L 430.143287 103.96 
L 428.69883 103.96 
L 428.69883 103.96 
L 427.254373 103.96 
L 427.254373 103.96 
L 425.809916 103.96 
L 425.809916 103.96 
L 425.087688 103.96 
z
" clip-path="url(#p6ffc81b776)" style="fill: #d62728; fill-opacity: 0.6; stroke: #b22222; stroke-opacity: 0.8; stroke-width: 1.5"/>
    <path d="M 466.976936 103.96 
L 466.976936 113.011677 
L 467.699164 113.011677 
L 467.699164 117.195521 
L 469.143621 117.195521 
L 469.143621 127.711657 
L 470.588078 127.711657 
L 470.588078 125.253501 
L 472.032535 125.253501 
L 472.032535 124.497009 
L 473.476992 124.497009 
L 473.476992 124.048924 
L 474.921448 124.048924 
L 474.921448 130.575709 
L 476.365905 130.575709 
L 476.365905 127.615124 
L 477.810362 127.615124 
L 477.810362 123.27568 
L 479.254819 123.27568 
L 479.254819 127.809374 
L 480.699276 127.809374 
L 480.699276 134.960635 
L 482.143733 134.960635 
L 482.143733 136.164457 
L 483.588189 136.164457 
L 483.588189 141.496043 
L 485.032646 141.496043 
L 485.032646 142.239123 
L 486.477103 142.239123 
L 486.477103 142.510204 
L 487.92156 142.510204 
L 487.92156 137.170204 
L 489.366017 137.170204 
L 489.366017 134.968341 
L 490.810474 134.968341 
L 490.810474 131.370837 
L 492.25493 131.370837 
L 492.25493 129.015156 
L 493.699387 129.015156 
L 493.699387 129.176927 
L 495.143844 129.176927 
L 495.143844 130.906694 
L 496.588301 130.906694 
L 496.588301 132.566186 
L 498.032758 132.566186 
L 498.032758 129.427266 
L 499.477214 129.427266 
L 499.477214 118.506121 
L 500.921671 118.506121 
L 500.921671 121.587726 
L 502.366128 121.587726 
L 502.366128 119.536564 
L 503.810585 119.536564 
L 503.810585 115.456372 
L 505.255042 115.456372 
L 505.255042 114.364818 
L 506.699499 114.364818 
L 506.699499 115.84345 
L 508.143955 115.84345 
L 508.143955 119.955206 
L 509.588412 119.955206 
L 509.588412 114.573513 
L 511.032869 114.573513 
L 511.032869 110.404186 
L 512.477326 110.404186 
L 512.477326 109.37374 
L 513.921783 109.37374 
L 513.921783 108.891992 
L 515.36624 108.891992 
L 515.36624 111.948529 
L 516.810696 111.948529 
L 516.810696 117.967055 
L 518.255153 117.967055 
L 518.255153 117.874231 
L 519.69961 117.874231 
L 519.69961 112.665069 
L 521.144067 112.665069 
L 521.144067 107.985829 
L 522.588524 107.985829 
L 522.588524 109.054125 
L 524.032981 109.054125 
L 524.032981 113.111081 
L 525.477437 113.111081 
L 525.477437 114.542572 
L 526.921894 114.542572 
L 526.921894 114.003585 
L 528.366351 114.003585 
L 528.366351 117.507515 
L 529.810808 117.507515 
L 529.810808 121.146704 
L 531.255265 121.146704 
L 531.255265 123.771365 
L 532.699721 123.771365 
L 532.699721 122.220846 
L 534.144178 122.220846 
L 534.144178 118.210521 
L 535.588635 118.210521 
L 535.588635 110.937445 
L 537.033092 110.937445 
L 537.033092 107.443423 
L 538.477549 107.443423 
L 538.477549 105.779294 
L 539.922006 105.779294 
L 539.922006 106.724383 
L 540.644234 106.724383 
L 540.644234 103.96 
L 540.644234 103.96 
L 539.922006 103.96 
L 539.922006 103.96 
L 538.477549 103.96 
L 538.477549 103.96 
L 537.033092 103.96 
L 537.033092 103.96 
L 535.588635 103.96 
L 535.588635 103.96 
L 534.144178 103.96 
L 534.144178 103.96 
L 532.699721 103.96 
L 532.699721 103.96 
L 531.255265 103.96 
L 531.255265 103.96 
L 529.810808 103.96 
L 529.810808 103.96 
L 528.366351 103.96 
L 528.366351 103.96 
L 526.921894 103.96 
L 526.921894 103.96 
L 525.477437 103.96 
L 525.477437 103.96 
L 524.032981 103.96 
L 524.032981 103.96 
L 522.588524 103.96 
L 522.588524 103.96 
L 521.144067 103.96 
L 521.144067 103.96 
L 519.69961 103.96 
L 519.69961 103.96 
L 518.255153 103.96 
L 518.255153 103.96 
L 516.810696 103.96 
L 516.810696 103.96 
L 515.36624 103.96 
L 515.36624 103.96 
L 513.921783 103.96 
L 513.921783 103.96 
L 512.477326 103.96 
L 512.477326 103.96 
L 511.032869 103.96 
L 511.032869 103.96 
L 509.588412 103.96 
L 509.588412 103.96 
L 508.143955 103.96 
L 508.143955 103.96 
L 506.699499 103.96 
L 506.699499 103.96 
L 505.255042 103.96 
L 505.255042 103.96 
L 503.810585 103.96 
L 503.810585 103.96 
L 502.366128 103.96 
L 502.366128 103.96 
L 500.921671 103.96 
L 500.921671 103.96 
L 499.477214 103.96 
L 499.477214 103.96 
L 498.032758 103.96 
L 498.032758 103.96 
L 496.588301 103.96 
L 496.588301 103.96 
L 495.143844 103.96 
L 495.143844 103.96 
L 493.699387 103.96 
L 493.699387 103.96 
L 492.25493 103.96 
L 492.25493 103.96 
L 490.810474 103.96 
L 490.810474 103.96 
L 489.366017 103.96 
L 489.366017 103.96 
L 487.92156 103.96 
L 487.92156 103.96 
L 486.477103 103.96 
L 486.477103 103.96 
L 485.032646 103.96 
L 485.032646 103.96 
L 483.588189 103.96 
L 483.588189 103.96 
L 482.143733 103.96 
L 482.143733 103.96 
L 480.699276 103.96 
L 480.699276 103.96 
L 479.254819 103.96 
L 479.254819 103.96 
L 477.810362 103.96 
L 477.810362 103.96 
L 476.365905 103.96 
L 476.365905 103.96 
L 474.921448 103.96 
L 474.921448 103.96 
L 473.476992 103.96 
L 473.476992 103.96 
L 472.032535 103.96 
L 472.032535 103.96 
L 470.588078 103.96 
L 470.588078 103.96 
L 469.143621 103.96 
L 469.143621 103.96 
L 467.699164 103.96 
L 467.699164 103.96 
L 466.976936 103.96 
z
" clip-path="url(#p6ffc81b776)" style="fill: #d62728; fill-opacity: 0.6; stroke: #b22222; stroke-opacity: 0.8; stroke-width: 1.5"/>
    <path d="M 547.866518 103.96 
L 547.866518 105.342017 
L 547.866518 105.342017 
L 547.866518 103.96 
L 547.866518 103.96 
L 547.866518 103.96 
z
" clip-path="url(#p6ffc81b776)" style="fill: #d62728; fill-opacity: 0.6; stroke: #b22222; stroke-opacity: 0.8; stroke-width: 1.5"/>
   </g>
   <g id="matplotlib.axis_1">
    <g id="xtick_1">
     <g id="line2d_1">
      <defs>
       <path id="m36f473aac6" d="M 0 0 
L 0 3.5 
" style="stroke: #000000; stroke-width: 0.8"/>
      </defs>
      <g>
       <use xlink:href="#m36f473aac6" x="115.973928" y="169.4" style="stroke: #000000; stroke-width: 0.8"/>
      </g>
     </g>
     <g id="text_1">
      <!-- 1995 -->
      <g transform="translate(103.248928 183.998438) scale(0.1 -0.1)">
       <defs>
        <path id="DejaVuSans-31" d="M 794 531 
L 1825 531 
L 1825 4091 
L 703 3866 
L 703 4441 
L 1819 4666 
L 2450 4666 
L 2450 531 
L 3481 531 
L 3481 0 
L 794 0 
L 794 531 
z
" transform="scale(0.015625)"/>
        <path id="DejaVuSans-39" d="M 703 97 
L 703 672 
Q 941 559 1184 500 
Q 1428 441 1663 441 
Q 2288 441 2617 861 
Q 2947 1281 2994 2138 
Q 2813 1869 2534 1725 
Q 2256 1581 1919 1581 
Q 1219 1581 811 2004 
Q 403 2428 403 3163 
Q 403 3881 828 4315 
Q 1253 4750 1959 4750 
Q 2769 4750 3195 4129 
Q 3622 3509 3622 2328 
Q 3622 1225 3098 567 
Q 2575 -91 1691 -91 
Q 1453 -91 1209 -44 
Q 966 3 703 97 
z
M 1959 2075 
Q 2384 2075 2632 2365 
Q 2881 2656 2881 3163 
Q 2881 3666 2632 3958 
Q 2384 4250 1959 4250 
Q 1534 4250 1286 3958 
Q 1038 3666 1038 3163 
Q 1038 2656 1286 2365 
Q 1534 2075 1959 2075 
z
" transform="scale(0.015625)"/>
        <path id="DejaVuSans-35" d="M 691 4666 
L 3169 4666 
L 3169 4134 
L 1269 4134 
L 1269 2991 
Q 1406 3038 1543 3061 
Q 1681 3084 1819 3084 
Q 2600 3084 3056 2656 
Q 3513 2228 3513 1497 
Q 3513 744 3044 326 
Q 2575 -91 1722 -91 
Q 1428 -91 1123 -41 
Q 819 9 494 109 
L 494 744 
Q 775 591 1075 516 
Q 1375 441 1709 441 
Q 2250 441 2565 725 
Q 2881 1009 2881 1497 
Q 2881 1984 2565 2268 
Q 2250 2553 1709 2553 
Q 1456 2553 1204 2497 
Q 953 2441 691 2322 
L 691 4666 
z
" transform="scale(0.015625)"/>
       </defs>
       <use xlink:href="#DejaVuSans-31"/>
       <use xlink:href="#DejaVuSans-39" x="63.623047"/>
       <use xlink:href="#DejaVuSans-39" x="127.246094"/>
       <use xlink:href="#DejaVuSans-35" x="190.869141"/>
      </g>
     </g>
    </g>
    <g id="xtick_2">
     <g id="line2d_2">
      <g>
       <use xlink:href="#m36f473aac6" x="202.641337" y="169.4" style="stroke: #000000; stroke-width: 0.8"/>
      </g>
     </g>
     <g id="text_2">
      <!-- 2000 -->
      <g transform="translate(189.916337 183.998438) scale(0.1 -0.1)">
       <defs>
        <path id="DejaVuSans-32" d="M 1228 531 
L 3431 531 
L 3431 0 
L 469 0 
L 469 531 
Q 828 903 1448 1529 
Q 2069 2156 2228 2338 
Q 2531 2678 2651 2914 
Q 2772 3150 2772 3378 
Q 2772 3750 2511 3984 
Q 2250 4219 1831 4219 
Q 1534 4219 1204 4116 
Q 875 4013 500 3803 
L 500 4441 
Q 881 4594 1212 4672 
Q 1544 4750 1819 4750 
Q 2544 4750 2975 4387 
Q 3406 4025 3406 3419 
Q 3406 3131 3298 2873 
Q 3191 2616 2906 2266 
Q 2828 2175 2409 1742 
Q 1991 1309 1228 531 
z
" transform="scale(0.015625)"/>
        <path id="DejaVuSans-30" d="M 2034 4250 
Q 1547 4250 1301 3770 
Q 1056 3291 1056 2328 
Q 1056 1369 1301 889 
Q 1547 409 2034 409 
Q 2525 409 2770 889 
Q 3016 1369 3016 2328 
Q 3016 3291 2770 3770 
Q 2525 4250 2034 4250 
z
M 2034 4750 
Q 2819 4750 3233 4129 
Q 3647 3509 3647 2328 
Q 3647 1150 3233 529 
Q 2819 -91 2034 -91 
Q 1250 -91 836 529 
Q 422 1150 422 2328 
Q 422 3509 836 4129 
Q 1250 4750 2034 4750 
z
" transform="scale(0.015625)"/>
       </defs>
       <use xlink:href="#DejaVuSans-32"/>
       <use xlink:href="#DejaVuSans-30" x="63.623047"/>
       <use xlink:href="#DejaVuSans-30" x="127.246094"/>
       <use xlink:href="#DejaVuSans-30" x="190.869141"/>
      </g>
     </g>
    </g>
    <g id="xtick_3">
     <g id="line2d_3">
      <g>
       <use xlink:href="#m36f473aac6" x="289.308747" y="169.4" style="stroke: #000000; stroke-width: 0.8"/>
      </g>
     </g>
     <g id="text_3">
      <!-- 2005 -->
      <g transform="translate(276.583747 183.998438) scale(0.1 -0.1)">
       <use xlink:href="#DejaVuSans-32"/>
       <use xlink:href="#DejaVuSans-30" x="63.623047"/>
       <use xlink:href="#DejaVuSans-30" x="127.246094"/>
       <use xlink:href="#DejaVuSans-35" x="190.869141"/>
      </g>
     </g>
    </g>
    <g id="xtick_4">
     <g id="line2d_4">
      <g>
       <use xlink:href="#m36f473aac6" x="375.976156" y="169.4" style="stroke: #000000; stroke-width: 0.8"/>
      </g>
     </g>
     <g id="text_4">
      <!-- 2010 -->
      <g transform="translate(363.251156 183.998438) scale(0.1 -0.1)">
       <use xlink:href="#DejaVuSans-32"/>
       <use xlink:href="#DejaVuSans-30" x="63.623047"/>
       <use xlink:href="#DejaVuSans-31" x="127.246094"/>
       <use xlink:href="#DejaVuSans-30" x="190.869141"/>
      </g>
     </g>
    </g>
    <g id="xtick_5">
     <g id="line2d_5">
      <g>
       <use xlink:href="#m36f473aac6" x="462.643565" y="169.4" style="stroke: #000000; stroke-width: 0.8"/>
      </g>
     </g>
     <g id="text_5">
      <!-- 2015 -->
      <g transform="translate(449.918565 183.998438) scale(0.1 -0.1)">
       <use xlink:href="#DejaVuSans-32"/>
       <use xlink:href="#DejaVuSans-30" x="63.623047"/>
       <use xlink:href="#DejaVuSans-31" x="127.246094"/>
       <use xlink:href="#DejaVuSans-35" x="190.869141"/>
      </g>
     </g>
    </g>
    <g id="xtick_6">
     <g id="line2d_6">
      <g>
       <use xlink:href="#m36f473aac6" x="549.310975" y="169.4" style="stroke: #000000; stroke-width: 0.8"/>
      </g>
     </g>
     <g id="text_6">
      <!-- 2020 -->
      <g transform="translate(536.585975 183.998438) scale(0.1 -0.1)">
       <use xlink:href="#DejaVuSans-32"/>
       <use xlink:href="#DejaVuSans-30" x="63.623047"/>
       <use xlink:href="#DejaVuSans-32" x="127.246094"/>
       <use xlink:href="#DejaVuSans-30" x="190.869141"/>
      </g>
     </g>
    </g>
   </g>
   <g id="matplotlib.axis_2">
    <g id="ytick_1">
     <g id="line2d_7">
      <defs>
       <path id="m3282b9e3c0" d="M 0 0 
L -3.5 0 
" style="stroke: #000000; stroke-width: 0.8"/>
      </defs>
      <g>
       <use xlink:href="#m3282b9e3c0" x="46.64" y="169.4" style="stroke: #000000; stroke-width: 0.8"/>
      </g>
     </g>
     <g id="text_7">
      <!-- −3 -->
      <g transform="translate(24.897813 173.199219) scale(0.1 -0.1)">
       <defs>
        <path id="DejaVuSans-2212" d="M 678 2272 
L 4684 2272 
L 4684 1741 
L 678 1741 
L 678 2272 
z
" transform="scale(0.015625)"/>
        <path id="DejaVuSans-33" d="M 2597 2516 
Q 3050 2419 3304 2112 
Q 3559 1806 3559 1356 
Q 3559 666 3084 287 
Q 2609 -91 1734 -91 
Q 1441 -91 1130 -33 
Q 819 25 488 141 
L 488 750 
Q 750 597 1062 519 
Q 1375 441 1716 441 
Q 2309 441 2620 675 
Q 2931 909 2931 1356 
Q 2931 1769 2642 2001 
Q 2353 2234 1838 2234 
L 1294 2234 
L 1294 2753 
L 1863 2753 
Q 2328 2753 2575 2939 
Q 2822 3125 2822 3475 
Q 2822 3834 2567 4026 
Q 2313 4219 1838 4219 
Q 1578 4219 1281 4162 
Q 984 4106 628 3988 
L 628 4550 
Q 988 4650 1302 4700 
Q 1616 4750 1894 4750 
Q 2613 4750 3031 4423 
Q 3450 4097 3450 3541 
Q 3450 3153 3228 2886 
Q 3006 2619 2597 2516 
z
" transform="scale(0.015625)"/>
       </defs>
       <use xlink:href="#DejaVuSans-2212"/>
       <use xlink:href="#DejaVuSans-33" x="83.789062"/>
      </g>
     </g>
    </g>
    <g id="ytick_2">
     <g id="line2d_8">
      <g>
       <use xlink:href="#m3282b9e3c0" x="46.64" y="147.586667" style="stroke: #000000; stroke-width: 0.8"/>
      </g>
     </g>
     <g id="text_8">
      <!-- −2 -->
      <g transform="translate(24.897813 151.385885) scale(0.1 -0.1)">
       <use xlink:href="#DejaVuSans-2212"/>
       <use xlink:href="#DejaVuSans-32" x="83.789062"/>
      </g>
     </g>
    </g>
    <g id="ytick_3">
     <g id="line2d_9">
      <g>
       <use xlink:href="#m3282b9e3c0" x="46.64" y="125.773333" style="stroke: #000000; stroke-width: 0.8"/>
      </g>
     </g>
     <g id="text_9">
      <!-- −1 -->
      <g transform="translate(24.897813 129.572552) scale(0.1 -0.1)">
       <use xlink:href="#DejaVuSans-2212"/>
       <use xlink:href="#DejaVuSans-31" x="83.789062"/>
      </g>
     </g>
    </g>
    <g id="ytick_4">
     <g id="line2d_10">
      <g>
       <use xlink:href="#m3282b9e3c0" x="46.64" y="103.96" style="stroke: #000000; stroke-width: 0.8"/>
      </g>
     </g>
     <g id="text_10">
      <!-- 0 -->
      <g transform="translate(33.2775 107.759219) scale(0.1 -0.1)">
       <use xlink:href="#DejaVuSans-30"/>
      </g>
     </g>
    </g>
    <g id="ytick_5">
     <g id="line2d_11">
      <g>
       <use xlink:href="#m3282b9e3c0" x="46.64" y="82.146667" style="stroke: #000000; stroke-width: 0.8"/>
      </g>
     </g>
     <g id="text_11">
      <!-- 1 -->
      <g transform="translate(33.2775 85.945885) scale(0.1 -0.1)">
       <use xlink:href="#DejaVuSans-31"/>
      </g>
     </g>
    </g>
    <g id="ytick_6">
     <g id="line2d_12">
      <g>
       <use xlink:href="#m3282b9e3c0" x="46.64" y="60.333333" style="stroke: #000000; stroke-width: 0.8"/>
      </g>
     </g>
     <g id="text_12">
      <!-- 2 -->
      <g transform="translate(33.2775 64.132552) scale(0.1 -0.1)">
       <use xlink:href="#DejaVuSans-32"/>
      </g>
     </g>
    </g>
    <g id="ytick_7">
     <g id="line2d_13">
      <g>
       <use xlink:href="#m3282b9e3c0" x="46.64" y="38.52" style="stroke: #000000; stroke-width: 0.8"/>
      </g>
     </g>
     <g id="text_13">
      <!-- 3 -->
      <g transform="translate(33.2775 42.319219) scale(0.1 -0.1)">
       <use xlink:href="#DejaVuSans-33"/>
      </g>
     </g>
    </g>
    <g id="text_14">
     <!-- Bitterroot -->
     <g transform="translate(18.818125 127.76625) rotate(-90) scale(0.1 -0.1)">
      <defs>
       <path id="DejaVuSans-42" d="M 1259 2228 
L 1259 519 
L 2272 519 
Q 2781 519 3026 730 
Q 3272 941 3272 1375 
Q 3272 1813 3026 2020 
Q 2781 2228 2272 2228 
L 1259 2228 
z
M 1259 4147 
L 1259 2741 
L 2194 2741 
Q 2656 2741 2882 2914 
Q 3109 3088 3109 3444 
Q 3109 3797 2882 3972 
Q 2656 4147 2194 4147 
L 1259 4147 
z
M 628 4666 
L 2241 4666 
Q 2963 4666 3353 4366 
Q 3744 4066 3744 3513 
Q 3744 3084 3544 2831 
Q 3344 2578 2956 2516 
Q 3422 2416 3680 2098 
Q 3938 1781 3938 1306 
Q 3938 681 3513 340 
Q 3088 0 2303 0 
L 628 0 
L 628 4666 
z
" transform="scale(0.015625)"/>
       <path id="DejaVuSans-69" d="M 603 3500 
L 1178 3500 
L 1178 0 
L 603 0 
L 603 3500 
z
M 603 4863 
L 1178 4863 
L 1178 4134 
L 603 4134 
L 603 4863 
z
" transform="scale(0.015625)"/>
       <path id="DejaVuSans-74" d="M 1172 4494 
L 1172 3500 
L 2356 3500 
L 2356 3053 
L 1172 3053 
L 1172 1153 
Q 1172 725 1289 603 
Q 1406 481 1766 481 
L 2356 481 
L 2356 0 
L 1766 0 
Q 1100 0 847 248 
Q 594 497 594 1153 
L 594 3053 
L 172 3053 
L 172 3500 
L 594 3500 
L 594 4494 
L 1172 4494 
z
" transform="scale(0.015625)"/>
       <path id="DejaVuSans-65" d="M 3597 1894 
L 3597 1613 
L 953 1613 
Q 991 1019 1311 708 
Q 1631 397 2203 397 
Q 2534 397 2845 478 
Q 3156 559 3463 722 
L 3463 178 
Q 3153 47 2828 -22 
Q 2503 -91 2169 -91 
Q 1331 -91 842 396 
Q 353 884 353 1716 
Q 353 2575 817 3079 
Q 1281 3584 2069 3584 
Q 2775 3584 3186 3129 
Q 3597 2675 3597 1894 
z
M 3022 2063 
Q 3016 2534 2758 2815 
Q 2500 3097 2075 3097 
Q 1594 3097 1305 2825 
Q 1016 2553 972 2059 
L 3022 2063 
z
" transform="scale(0.015625)"/>
       <path id="DejaVuSans-72" d="M 2631 2963 
Q 2534 3019 2420 3045 
Q 2306 3072 2169 3072 
Q 1681 3072 1420 2755 
Q 1159 2438 1159 1844 
L 1159 0 
L 581 0 
L 581 3500 
L 1159 3500 
L 1159 2956 
Q 1341 3275 1631 3429 
Q 1922 3584 2338 3584 
Q 2397 3584 2469 3576 
Q 2541 3569 2628 3553 
L 2631 2963 
z
" transform="scale(0.015625)"/>
       <path id="DejaVuSans-6f" d="M 1959 3097 
Q 1497 3097 1228 2736 
Q 959 2375 959 1747 
Q 959 1119 1226 758 
Q 1494 397 1959 397 
Q 2419 397 2687 759 
Q 2956 1122 2956 1747 
Q 2956 2369 2687 2733 
Q 2419 3097 1959 3097 
z
M 1959 3584 
Q 2709 3584 3137 3096 
Q 3566 2609 3566 1747 
Q 3566 888 3137 398 
Q 2709 -91 1959 -91 
Q 1206 -91 779 398 
Q 353 888 353 1747 
Q 353 2609 779 3096 
Q 1206 3584 1959 3584 
z
" transform="scale(0.015625)"/>
      </defs>
      <use xlink:href="#DejaVuSans-42"/>
      <use xlink:href="#DejaVuSans-69" x="68.603516"/>
      <use xlink:href="#DejaVuSans-74" x="96.386719"/>
      <use xlink:href="#DejaVuSans-74" x="135.595703"/>
      <use xlink:href="#DejaVuSans-65" x="174.804688"/>
      <use xlink:href="#DejaVuSans-72" x="236.328125"/>
      <use xlink:href="#DejaVuSans-72" x="275.691406"/>
      <use xlink:href="#DejaVuSans-6f" x="314.554688"/>
      <use xlink:href="#DejaVuSans-6f" x="375.736328"/>
      <use xlink:href="#DejaVuSans-74" x="436.917969"/>
     </g>
    </g>
   </g>
   <g id="line2d_14">
    <path d="M 46.64 103.96 
L 565.2 103.96 
" clip-path="url(#p6ffc81b776)" style="fill: none; stroke: #000000; stroke-width: 1.5; stroke-linecap: square"/>
   </g>
   <g id="patch_3">
    <path d="M 46.64 169.4 
L 46.64 38.52 
" style="fill: none; stroke: #000000; stroke-width: 0.8; stroke-linejoin: miter; stroke-linecap: square"/>
   </g>
   <g id="patch_4">
    <path d="M 46.64 169.4 
L 565.2 169.4 
" style="fill: none; stroke: #000000; stroke-width: 0.8; stroke-linejoin: miter; stroke-linecap: square"/>
   </g>
  </g>
  <g id="axes_2">
   <g id="patch_5">
    <path d="M 46.64 332.12 
L 565.2 332.12 
L 565.2 201.24 
L 46.64 201.24 
z
" style="fill: #ffffff"/>
   </g>
   <g id="PolyCollection_3">
    <path d="M 74.08468 266.68 
L 74.08468 266.004164 
L 74.806908 266.004164 
L 74.806908 265.770906 
L 76.251365 265.770906 
L 76.251365 265.476023 
L 76.973593 265.476023 
L 76.973593 266.68 
L 76.973593 266.68 
L 76.251365 266.68 
L 76.251365 266.68 
L 74.806908 266.68 
L 74.806908 266.68 
L 74.08468 266.68 
z
" clip-path="url(#p6fc0a09575)" style="fill: #17becf; fill-opacity: 0.6; stroke: #1f77b4; stroke-opacity: 0.8; stroke-width: 1.5"/>
    <path d="M 81.306964 266.68 
L 81.306964 264.447074 
L 82.029192 264.447074 
L 82.029192 263.68629 
L 82.751421 263.68629 
L 82.751421 266.68 
L 82.751421 266.68 
L 82.029192 266.68 
L 82.029192 266.68 
L 81.306964 266.68 
z
" clip-path="url(#p6fc0a09575)" style="fill: #17becf; fill-opacity: 0.6; stroke: #1f77b4; stroke-opacity: 0.8; stroke-width: 1.5"/>
    <path d="M 85.640334 266.68 
L 85.640334 265.157706 
L 86.362563 265.157706 
L 86.362563 265.57385 
L 87.807019 265.57385 
L 87.807019 260.582427 
L 89.251476 260.582427 
L 89.251476 251.973688 
L 90.695933 251.973688 
L 90.695933 251.973688 
L 92.14039 251.973688 
L 92.14039 251.973688 
L 93.584847 251.973688 
L 93.584847 251.544008 
L 95.029304 251.544008 
L 95.029304 249.813641 
L 96.47376 249.813641 
L 96.47376 249.593899 
L 97.918217 249.593899 
L 97.918217 250.733574 
L 99.362674 250.733574 
L 99.362674 250.020081 
L 100.807131 250.020081 
L 100.807131 254.189761 
L 102.251588 254.189761 
L 102.251588 254.326286 
L 103.696045 254.326286 
L 103.696045 255.347819 
L 105.140501 255.347819 
L 105.140501 255.520781 
L 106.584958 255.520781 
L 106.584958 256.283328 
L 108.029415 256.283328 
L 108.029415 256.283328 
L 109.473872 256.283328 
L 109.473872 256.283328 
L 110.918329 256.283328 
L 110.918329 256.106732 
L 112.362786 256.106732 
L 112.362786 256.271525 
L 113.807242 256.271525 
L 113.807242 256.283328 
L 115.251699 256.283328 
L 115.251699 250.480094 
L 116.696156 250.480094 
L 116.696156 251.574614 
L 118.140613 251.574614 
L 118.140613 249.593899 
L 119.58507 249.593899 
L 119.58507 249.841001 
L 121.029526 249.841001 
L 121.029526 249.159207 
L 122.473983 249.159207 
L 122.473983 249.142762 
L 123.91844 249.142762 
L 123.91844 244.071975 
L 125.362897 244.071975 
L 125.362897 240.659773 
L 126.807354 240.659773 
L 126.807354 236.507086 
L 128.251811 236.507086 
L 128.251811 233.400579 
L 129.696267 233.400579 
L 129.696267 236.005915 
L 131.140724 236.005915 
L 131.140724 236.507086 
L 132.585181 236.507086 
L 132.585181 236.453145 
L 134.029638 236.453145 
L 134.029638 230.792494 
L 135.474095 230.792494 
L 135.474095 230.792454 
L 136.918552 230.792454 
L 136.918552 232.864233 
L 138.363008 232.864233 
L 138.363008 223.95957 
L 139.807465 223.95957 
L 139.807465 235.181139 
L 141.251922 235.181139 
L 141.251922 230.792454 
L 142.696379 230.792454 
L 142.696379 232.493882 
L 144.140836 232.493882 
L 144.140836 230.792454 
L 145.585292 230.792454 
L 145.585292 236.34347 
L 147.029749 236.34347 
L 147.029749 231.513451 
L 148.474206 231.513451 
L 148.474206 230.792454 
L 149.918663 230.792454 
L 149.918663 234.475612 
L 151.36312 234.475612 
L 151.36312 236.50706 
L 152.807577 236.50706 
L 152.807577 240.679979 
L 154.252033 240.679979 
L 154.252033 238.917259 
L 155.69649 238.917259 
L 155.69649 239.701745 
L 157.140947 239.701745 
L 157.140947 241.303995 
L 158.585404 241.303995 
L 158.585404 246.990805 
L 160.029861 246.990805 
L 160.029861 247.25787 
L 161.474318 247.25787 
L 161.474318 246.990805 
L 162.918774 246.990805 
L 162.918774 242.513118 
L 164.363231 242.513118 
L 164.363231 240.704898 
L 165.807688 240.704898 
L 165.807688 240.679979 
L 167.252145 240.679979 
L 167.252145 238.463261 
L 168.696602 238.463261 
L 168.696602 240.679979 
L 170.141058 240.679979 
L 170.141058 236.507086 
L 171.585515 236.507086 
L 171.585515 233.40279 
L 173.029972 233.40279 
L 173.029972 234.396245 
L 174.474429 234.396245 
L 174.474429 224.127308 
L 175.918886 224.127308 
L 175.918886 220.250578 
L 177.363343 220.250578 
L 177.363343 220.250578 
L 178.807799 220.250578 
L 178.807799 220.250578 
L 180.252256 220.250578 
L 180.252256 220.250585 
L 181.696713 220.250585 
L 181.696713 220.250578 
L 183.14117 220.250578 
L 183.14117 220.250578 
L 184.585627 220.250578 
L 184.585627 220.285752 
L 186.030084 220.285752 
L 186.030084 220.250578 
L 187.47454 220.250578 
L 187.47454 220.250578 
L 188.918997 220.250578 
L 188.918997 232.662684 
L 190.363454 232.662684 
L 190.363454 234.912054 
L 191.807911 234.912054 
L 191.807911 237.271709 
L 193.252368 237.271709 
L 193.252368 240.679979 
L 194.696825 240.679979 
L 194.696825 235.264506 
L 196.141281 235.264506 
L 196.141281 240.679979 
L 197.585738 240.679979 
L 197.585738 246.943166 
L 199.030195 246.943166 
L 199.030195 247.070284 
L 200.474652 247.070284 
L 200.474652 246.990805 
L 201.919109 246.990805 
L 201.919109 247.305963 
L 203.363565 247.305963 
L 203.363565 246.990805 
L 204.808022 246.990805 
L 204.808022 251.973688 
L 206.252479 251.973688 
L 206.252479 252.311254 
L 207.696936 252.311254 
L 207.696936 253.649082 
L 209.141393 253.649082 
L 209.141393 253.263205 
L 210.58585 253.263205 
L 210.58585 254.189761 
L 212.030306 254.189761 
L 212.030306 254.189761 
L 213.474763 254.189761 
L 213.474763 254.189761 
L 214.91922 254.189761 
L 214.91922 252.501505 
L 216.363677 252.501505 
L 216.363677 254.191322 
L 217.808134 254.191322 
L 217.808134 254.189761 
L 219.252591 254.189761 
L 219.252591 253.865513 
L 220.697047 253.865513 
L 220.697047 256.283328 
L 222.141504 256.283328 
L 222.141504 256.283328 
L 223.585961 256.283328 
L 223.585961 257.093432 
L 225.030418 257.093432 
L 225.030418 259.731683 
L 226.474875 259.731683 
L 226.474875 262.209034 
L 227.919331 262.209034 
L 227.919331 263.945023 
L 228.64156 263.945023 
L 228.64156 266.68 
L 228.64156 266.68 
L 227.919331 266.68 
L 227.919331 266.68 
L 226.474875 266.68 
L 226.474875 266.68 
L 225.030418 266.68 
L 225.030418 266.68 
L 223.585961 266.68 
L 223.585961 266.68 
L 222.141504 266.68 
L 222.141504 266.68 
L 220.697047 266.68 
L 220.697047 266.68 
L 219.252591 266.68 
L 219.252591 266.68 
L 217.808134 266.68 
L 217.808134 266.68 
L 216.363677 266.68 
L 216.363677 266.68 
L 214.91922 266.68 
L 214.91922 266.68 
L 213.474763 266.68 
L 213.474763 266.68 
L 212.030306 266.68 
L 212.030306 266.68 
L 210.58585 266.68 
L 210.58585 266.68 
L 209.141393 266.68 
L 209.141393 266.68 
L 207.696936 266.68 
L 207.696936 266.68 
L 206.252479 266.68 
L 206.252479 266.68 
L 204.808022 266.68 
L 204.808022 266.68 
L 203.363565 266.68 
L 203.363565 266.68 
L 201.919109 266.68 
L 201.919109 266.68 
L 200.474652 266.68 
L 200.474652 266.68 
L 199.030195 266.68 
L 199.030195 266.68 
L 197.585738 266.68 
L 197.585738 266.68 
L 196.141281 266.68 
L 196.141281 266.68 
L 194.696825 266.68 
L 194.696825 266.68 
L 193.252368 266.68 
L 193.252368 266.68 
L 191.807911 266.68 
L 191.807911 266.68 
L 190.363454 266.68 
L 190.363454 266.68 
L 188.918997 266.68 
L 188.918997 266.68 
L 187.47454 266.68 
L 187.47454 266.68 
L 186.030084 266.68 
L 186.030084 266.68 
L 184.585627 266.68 
L 184.585627 266.68 
L 183.14117 266.68 
L 183.14117 266.68 
L 181.696713 266.68 
L 181.696713 266.68 
L 180.252256 266.68 
L 180.252256 266.68 
L 178.807799 266.68 
L 178.807799 266.68 
L 177.363343 266.68 
L 177.363343 266.68 
L 175.918886 266.68 
L 175.918886 266.68 
L 174.474429 266.68 
L 174.474429 266.68 
L 173.029972 266.68 
L 173.029972 266.68 
L 171.585515 266.68 
L 171.585515 266.68 
L 170.141058 266.68 
L 170.141058 266.68 
L 168.696602 266.68 
L 168.696602 266.68 
L 167.252145 266.68 
L 167.252145 266.68 
L 165.807688 266.68 
L 165.807688 266.68 
L 164.363231 266.68 
L 164.363231 266.68 
L 162.918774 266.68 
L 162.918774 266.68 
L 161.474318 266.68 
L 161.474318 266.68 
L 160.029861 266.68 
L 160.029861 266.68 
L 158.585404 266.68 
L 158.585404 266.68 
L 157.140947 266.68 
L 157.140947 266.68 
L 155.69649 266.68 
L 155.69649 266.68 
L 154.252033 266.68 
L 154.252033 266.68 
L 152.807577 266.68 
L 152.807577 266.68 
L 151.36312 266.68 
L 151.36312 266.68 
L 149.918663 266.68 
L 149.918663 266.68 
L 148.474206 266.68 
L 148.474206 266.68 
L 147.029749 266.68 
L 147.029749 266.68 
L 145.585292 266.68 
L 145.585292 266.68 
L 144.140836 266.68 
L 144.140836 266.68 
L 142.696379 266.68 
L 142.696379 266.68 
L 141.251922 266.68 
L 141.251922 266.68 
L 139.807465 266.68 
L 139.807465 266.68 
L 138.363008 266.68 
L 138.363008 266.68 
L 136.918552 266.68 
L 136.918552 266.68 
L 135.474095 266.68 
L 135.474095 266.68 
L 134.029638 266.68 
L 134.029638 266.68 
L 132.585181 266.68 
L 132.585181 266.68 
L 131.140724 266.68 
L 131.140724 266.68 
L 129.696267 266.68 
L 129.696267 266.68 
L 128.251811 266.68 
L 128.251811 266.68 
L 126.807354 266.68 
L 126.807354 266.68 
L 125.362897 266.68 
L 125.362897 266.68 
L 123.91844 266.68 
L 123.91844 266.68 
L 122.473983 266.68 
L 122.473983 266.68 
L 121.029526 266.68 
L 121.029526 266.68 
L 119.58507 266.68 
L 119.58507 266.68 
L 118.140613 266.68 
L 118.140613 266.68 
L 116.696156 266.68 
L 116.696156 266.68 
L 115.251699 266.68 
L 115.251699 266.68 
L 113.807242 266.68 
L 113.807242 266.68 
L 112.362786 266.68 
L 112.362786 266.68 
L 110.918329 266.68 
L 110.918329 266.68 
L 109.473872 266.68 
L 109.473872 266.68 
L 108.029415 266.68 
L 108.029415 266.68 
L 106.584958 266.68 
L 106.584958 266.68 
L 105.140501 266.68 
L 105.140501 266.68 
L 103.696045 266.68 
L 103.696045 266.68 
L 102.251588 266.68 
L 102.251588 266.68 
L 100.807131 266.68 
L 100.807131 266.68 
L 99.362674 266.68 
L 99.362674 266.68 
L 97.918217 266.68 
L 97.918217 266.68 
L 96.47376 266.68 
L 96.47376 266.68 
L 95.029304 266.68 
L 95.029304 266.68 
L 93.584847 266.68 
L 93.584847 266.68 
L 92.14039 266.68 
L 92.14039 266.68 
L 90.695933 266.68 
L 90.695933 266.68 
L 89.251476 266.68 
L 89.251476 266.68 
L 87.807019 266.68 
L 87.807019 266.68 
L 86.362563 266.68 
L 86.362563 266.68 
L 85.640334 266.68 
z
" clip-path="url(#p6fc0a09575)" style="fill: #17becf; fill-opacity: 0.6; stroke: #1f77b4; stroke-opacity: 0.8; stroke-width: 1.5"/>
    <path d="M 299.419944 266.68 
L 299.419944 263.75011 
L 300.142173 263.75011 
L 300.142173 262.098203 
L 301.58663 262.098203 
L 301.58663 263.385087 
L 303.031086 263.385087 
L 303.031086 260.21852 
L 304.475543 260.21852 
L 304.475543 260.216616 
L 305.92 260.216616 
L 305.92 259.386964 
L 307.364457 259.386964 
L 307.364457 258.660278 
L 308.808914 258.660278 
L 308.808914 258.284548 
L 310.25337 258.284548 
L 310.25337 258.728362 
L 311.697827 258.728362 
L 311.697827 260.131188 
L 313.142284 260.131188 
L 313.142284 264.61229 
L 314.586741 264.61229 
L 314.586741 262.098203 
L 315.308969 262.098203 
L 315.308969 266.68 
L 315.308969 266.68 
L 314.586741 266.68 
L 314.586741 266.68 
L 313.142284 266.68 
L 313.142284 266.68 
L 311.697827 266.68 
L 311.697827 266.68 
L 310.25337 266.68 
L 310.25337 266.68 
L 308.808914 266.68 
L 308.808914 266.68 
L 307.364457 266.68 
L 307.364457 266.68 
L 305.92 266.68 
L 305.92 266.68 
L 304.475543 266.68 
L 304.475543 266.68 
L 303.031086 266.68 
L 303.031086 266.68 
L 301.58663 266.68 
L 301.58663 266.68 
L 300.142173 266.68 
L 300.142173 266.68 
L 299.419944 266.68 
z
" clip-path="url(#p6fc0a09575)" style="fill: #17becf; fill-opacity: 0.6; stroke: #1f77b4; stroke-opacity: 0.8; stroke-width: 1.5"/>
    <path d="M 319.64234 266.68 
L 319.64234 261.758176 
L 320.364568 261.758176 
L 320.364568 262.584307 
L 321.809025 262.584307 
L 321.809025 263.945023 
L 323.253482 263.945023 
L 323.253482 263.444382 
L 324.697939 263.444382 
L 324.697939 262.360277 
L 326.142396 262.360277 
L 326.142396 263.945023 
L 326.864624 263.945023 
L 326.864624 266.68 
L 326.864624 266.68 
L 326.142396 266.68 
L 326.142396 266.68 
L 324.697939 266.68 
L 324.697939 266.68 
L 323.253482 266.68 
L 323.253482 266.68 
L 321.809025 266.68 
L 321.809025 266.68 
L 320.364568 266.68 
L 320.364568 266.68 
L 319.64234 266.68 
z
" clip-path="url(#p6fc0a09575)" style="fill: #17becf; fill-opacity: 0.6; stroke: #1f77b4; stroke-opacity: 0.8; stroke-width: 1.5"/>
    <path d="M 336.975822 266.68 
L 336.975822 263.321276 
L 337.69805 263.321276 
L 337.69805 265.512307 
L 339.142507 265.512307 
L 339.142507 266.059533 
L 340.586964 266.059533 
L 340.586964 263.682634 
L 342.031421 263.682634 
L 342.031421 265.770906 
L 343.475877 265.770906 
L 343.475877 262.098203 
L 344.920334 262.098203 
L 344.920334 263.678073 
L 346.364791 263.678073 
L 346.364791 263.530464 
L 347.809248 263.530464 
L 347.809248 265.221921 
L 348.531476 265.221921 
L 348.531476 266.68 
L 348.531476 266.68 
L 347.809248 266.68 
L 347.809248 266.68 
L 346.364791 266.68 
L 346.364791 266.68 
L 344.920334 266.68 
L 344.920334 266.68 
L 343.475877 266.68 
L 343.475877 266.68 
L 342.031421 266.68 
L 342.031421 266.68 
L 340.586964 266.68 
L 340.586964 266.68 
L 339.142507 266.68 
L 339.142507 266.68 
L 337.69805 266.68 
L 337.69805 266.68 
L 336.975822 266.68 
z
" clip-path="url(#p6fc0a09575)" style="fill: #17becf; fill-opacity: 0.6; stroke: #1f77b4; stroke-opacity: 0.8; stroke-width: 1.5"/>
    <path d="M 400.531922 266.68 
L 400.531922 264.742668 
L 401.25415 264.742668 
L 401.25415 260.216616 
L 402.698607 260.216616 
L 402.698607 260.217367 
L 404.143064 260.217367 
L 404.143064 263.945023 
L 404.865292 263.945023 
L 404.865292 266.68 
L 404.865292 266.68 
L 404.143064 266.68 
L 404.143064 266.68 
L 402.698607 266.68 
L 402.698607 266.68 
L 401.25415 266.68 
L 401.25415 266.68 
L 400.531922 266.68 
z
" clip-path="url(#p6fc0a09575)" style="fill: #17becf; fill-opacity: 0.6; stroke: #1f77b4; stroke-opacity: 0.8; stroke-width: 1.5"/>
    <path d="M 413.532033 266.68 
L 413.532033 266.059552 
L 413.532033 266.059552 
L 413.532033 266.68 
L 413.532033 266.68 
L 413.532033 266.68 
z
" clip-path="url(#p6fc0a09575)" style="fill: #17becf; fill-opacity: 0.6; stroke: #1f77b4; stroke-opacity: 0.8; stroke-width: 1.5"/>
    <path d="M 505.97727 266.68 
L 505.97727 265.770906 
L 506.699499 265.770906 
L 506.699499 262.295004 
L 508.143955 262.295004 
L 508.143955 260.216616 
L 509.588412 260.216616 
L 509.588412 265.855197 
L 511.032869 265.855197 
L 511.032869 263.805899 
L 512.477326 263.805899 
L 512.477326 262.098203 
L 513.921783 262.098203 
L 513.921783 258.956724 
L 515.36624 258.956724 
L 515.36624 259.850065 
L 516.810696 259.850065 
L 516.810696 260.216616 
L 518.255153 260.216616 
L 518.255153 258.124218 
L 519.69961 258.124218 
L 519.69961 255.172751 
L 521.144067 255.172751 
L 521.144067 255.448225 
L 522.588524 255.448225 
L 522.588524 258.284548 
L 524.032981 258.284548 
L 524.032981 258.284548 
L 525.477437 258.284548 
L 525.477437 258.284548 
L 526.921894 258.284548 
L 526.921894 258.367082 
L 528.366351 258.367082 
L 528.366351 258.284892 
L 529.810808 258.284892 
L 529.810808 258.284548 
L 531.255265 258.284548 
L 531.255265 257.17615 
L 532.699721 257.17615 
L 532.699721 254.189761 
L 534.144178 254.189761 
L 534.144178 246.990805 
L 535.588635 246.990805 
L 535.588635 247.180686 
L 537.033092 247.180686 
L 537.033092 247.922483 
L 538.477549 247.922483 
L 538.477549 247.683319 
L 539.922006 247.683319 
L 539.922006 249.593899 
L 541.366462 249.593899 
L 541.366462 249.349977 
L 542.810919 249.349977 
L 542.810919 244.071975 
L 544.255376 244.071975 
L 544.255376 241.510799 
L 545.699833 241.510799 
L 545.699833 244.047569 
L 547.14429 244.047569 
L 547.14429 244.071975 
L 548.588747 244.071975 
L 548.588747 244.858587 
L 550.033203 244.858587 
L 550.033203 244.071975 
L 551.47766 244.071975 
L 551.47766 244.071975 
L 552.922117 244.071975 
L 552.922117 244.436713 
L 554.366574 244.436713 
L 554.366574 245.831526 
L 555.811031 245.831526 
L 555.811031 242.726204 
L 557.255487 242.726204 
L 557.255487 236.507086 
L 558.699944 236.507086 
L 558.699944 244.071965 
L 560.144401 244.071965 
L 560.144401 249.593899 
L 561.588858 249.593899 
L 561.588858 251.915949 
L 563.033315 251.915949 
L 563.033315 251.713974 
L 564.477772 251.713974 
L 564.477772 251.973688 
L 565.2 251.973688 
L 565.2 266.68 
L 565.2 266.68 
L 564.477772 266.68 
L 564.477772 266.68 
L 563.033315 266.68 
L 563.033315 266.68 
L 561.588858 266.68 
L 561.588858 266.68 
L 560.144401 266.68 
L 560.144401 266.68 
L 558.699944 266.68 
L 558.699944 266.68 
L 557.255487 266.68 
L 557.255487 266.68 
L 555.811031 266.68 
L 555.811031 266.68 
L 554.366574 266.68 
L 554.366574 266.68 
L 552.922117 266.68 
L 552.922117 266.68 
L 551.47766 266.68 
L 551.47766 266.68 
L 550.033203 266.68 
L 550.033203 266.68 
L 548.588747 266.68 
L 548.588747 266.68 
L 547.14429 266.68 
L 547.14429 266.68 
L 545.699833 266.68 
L 545.699833 266.68 
L 544.255376 266.68 
L 544.255376 266.68 
L 542.810919 266.68 
L 542.810919 266.68 
L 541.366462 266.68 
L 541.366462 266.68 
L 539.922006 266.68 
L 539.922006 266.68 
L 538.477549 266.68 
L 538.477549 266.68 
L 537.033092 266.68 
L 537.033092 266.68 
L 535.588635 266.68 
L 535.588635 266.68 
L 534.144178 266.68 
L 534.144178 266.68 
L 532.699721 266.68 
L 532.699721 266.68 
L 531.255265 266.68 
L 531.255265 266.68 
L 529.810808 266.68 
L 529.810808 266.68 
L 528.366351 266.68 
L 528.366351 266.68 
L 526.921894 266.68 
L 526.921894 266.68 
L 525.477437 266.68 
L 525.477437 266.68 
L 524.032981 266.68 
L 524.032981 266.68 
L 522.588524 266.68 
L 522.588524 266.68 
L 521.144067 266.68 
L 521.144067 266.68 
L 519.69961 266.68 
L 519.69961 266.68 
L 518.255153 266.68 
L 518.255153 266.68 
L 516.810696 266.68 
L 516.810696 266.68 
L 515.36624 266.68 
L 515.36624 266.68 
L 513.921783 266.68 
L 513.921783 266.68 
L 512.477326 266.68 
L 512.477326 266.68 
L 511.032869 266.68 
L 511.032869 266.68 
L 509.588412 266.68 
L 509.588412 266.68 
L 508.143955 266.68 
L 508.143955 266.68 
L 506.699499 266.68 
L 506.699499 266.68 
L 505.97727 266.68 
z
" clip-path="url(#p6fc0a09575)" style="fill: #17becf; fill-opacity: 0.6; stroke: #1f77b4; stroke-opacity: 0.8; stroke-width: 1.5"/>
   </g>
   <g id="PolyCollection_4">
    <path d="M 46.64 266.68 
L 46.64 289.152713 
L 47.362228 289.152713 
L 47.362228 296.85291 
L 48.806685 296.85291 
L 48.806685 283.766101 
L 50.251142 283.766101 
L 50.251142 274.860126 
L 51.695599 274.860126 
L 51.695599 274.595249 
L 53.140056 274.595249 
L 53.140056 272.469585 
L 54.584513 272.469585 
L 54.584513 283.766101 
L 56.028969 283.766101 
L 56.028969 295.181889 
L 57.473426 295.181889 
L 57.473426 292.680021 
L 58.917883 292.680021 
L 58.917883 285.90598 
L 60.36234 285.90598 
L 60.36234 282.911799 
L 61.806797 282.911799 
L 61.806797 286.369195 
L 63.251253 286.369195 
L 63.251253 283.49931 
L 64.69571 283.49931 
L 64.69571 286.213126 
L 66.140167 286.213126 
L 66.140167 289.288025 
L 67.584624 289.288025 
L 67.584624 285.417351 
L 69.029081 285.417351 
L 69.029081 290.834327 
L 70.473538 290.834327 
L 70.473538 277.128813 
L 71.917994 277.128813 
L 71.917994 269.414977 
L 72.640223 269.414977 
L 72.640223 266.68 
L 72.640223 266.68 
L 71.917994 266.68 
L 71.917994 266.68 
L 70.473538 266.68 
L 70.473538 266.68 
L 69.029081 266.68 
L 69.029081 266.68 
L 67.584624 266.68 
L 67.584624 266.68 
L 66.140167 266.68 
L 66.140167 266.68 
L 64.69571 266.68 
L 64.69571 266.68 
L 63.251253 266.68 
L 63.251253 266.68 
L 61.806797 266.68 
L 61.806797 266.68 
L 60.36234 266.68 
L 60.36234 266.68 
L 58.917883 266.68 
L 58.917883 266.68 
L 57.473426 266.68 
L 57.473426 266.68 
L 56.028969 266.68 
L 56.028969 266.68 
L 54.584513 266.68 
L 54.584513 266.68 
L 53.140056 266.68 
L 53.140056 266.68 
L 51.695599 266.68 
L 51.695599 266.68 
L 50.251142 266.68 
L 50.251142 266.68 
L 48.806685 266.68 
L 48.806685 266.68 
L 47.362228 266.68 
L 47.362228 266.68 
L 46.64 266.68 
z
" clip-path="url(#p6fc0a09575)" style="fill: #d62728; fill-opacity: 0.6; stroke: #b22222; stroke-opacity: 0.8; stroke-width: 1.5"/>
    <path d="M 78.41805 266.68 
L 78.41805 267.507201 
L 79.140279 267.507201 
L 79.140279 267.300467 
L 79.862507 267.300467 
L 79.862507 266.68 
L 79.862507 266.68 
L 79.140279 266.68 
L 79.140279 266.68 
L 78.41805 266.68 
z
" clip-path="url(#p6fc0a09575)" style="fill: #d62728; fill-opacity: 0.6; stroke: #b22222; stroke-opacity: 0.8; stroke-width: 1.5"/>
    <path d="M 84.195877 266.68 
L 84.195877 267.300448 
L 84.195877 267.300448 
L 84.195877 266.68 
L 84.195877 266.68 
L 84.195877 266.68 
z
" clip-path="url(#p6fc0a09575)" style="fill: #d62728; fill-opacity: 0.6; stroke: #b22222; stroke-opacity: 0.8; stroke-width: 1.5"/>
    <path d="M 230.086017 266.68 
L 230.086017 271.945274 
L 230.808245 271.945274 
L 230.808245 274.764832 
L 232.252702 274.764832 
L 232.252702 275.421432 
L 233.697159 275.421432 
L 233.697159 276.28647 
L 235.141616 276.28647 
L 235.141616 277.076672 
L 236.586072 277.076672 
L 236.586072 277.092075 
L 238.030529 277.092075 
L 238.030529 277.076675 
L 239.474986 277.076675 
L 239.474986 277.076672 
L 240.919443 277.076672 
L 240.919443 285.704853 
L 242.3639 285.704853 
L 242.3639 282.909171 
L 243.808357 282.909171 
L 243.808357 289.751826 
L 245.252813 289.751826 
L 245.252813 292.680021 
L 246.69727 292.680021 
L 246.69727 286.369195 
L 248.141727 286.369195 
L 248.141727 289.288025 
L 249.586184 289.288025 
L 249.586184 292.458922 
L 251.030641 292.458922 
L 251.030641 296.348635 
L 252.475097 296.348635 
L 252.475097 296.852914 
L 253.919554 296.852914 
L 253.919554 297.264072 
L 255.364011 297.264072 
L 255.364011 292.680024 
L 256.808468 292.680024 
L 256.808468 292.680021 
L 258.252925 292.680021 
L 258.252925 280.845112 
L 259.697382 280.845112 
L 259.697382 284.81104 
L 261.141838 284.81104 
L 261.141838 286.793359 
L 262.586295 286.793359 
L 262.586295 286.369195 
L 264.030752 286.369195 
L 264.030752 292.214173 
L 265.475209 292.214173 
L 265.475209 302.567546 
L 266.919666 302.567546 
L 266.919666 298.264595 
L 268.364123 298.264595 
L 268.364123 293.093043 
L 269.808579 293.093043 
L 269.808579 292.680021 
L 271.253036 292.680021 
L 271.253036 291.700781 
L 272.697493 291.700781 
L 272.697493 289.288025 
L 274.14195 289.288025 
L 274.14195 302.567546 
L 275.586407 302.567546 
L 275.586407 289.097879 
L 277.030864 289.097879 
L 277.030864 288.450233 
L 278.47532 288.450233 
L 278.47532 285.154275 
L 279.919777 285.154275 
L 279.919777 281.386312 
L 281.364234 281.386312 
L 281.364234 276.757153 
L 282.808691 276.757153 
L 282.808691 271.261797 
L 284.253148 271.261797 
L 284.253148 274.167392 
L 285.697604 274.167392 
L 285.697604 273.792282 
L 287.142061 273.792282 
L 287.142061 275.075452 
L 288.586518 275.075452 
L 288.586518 274.945147 
L 290.030975 274.945147 
L 290.030975 273.143384 
L 291.475432 273.143384 
L 291.475432 275.075452 
L 292.919889 275.075452 
L 292.919889 276.76253 
L 294.364345 276.76253 
L 294.364345 269.703567 
L 295.808802 269.703567 
L 295.808802 267.351496 
L 297.253259 267.351496 
L 297.253259 272.841913 
L 297.975487 272.841913 
L 297.975487 266.68 
L 297.975487 266.68 
L 297.253259 266.68 
L 297.253259 266.68 
L 295.808802 266.68 
L 295.808802 266.68 
L 294.364345 266.68 
L 294.364345 266.68 
L 292.919889 266.68 
L 292.919889 266.68 
L 291.475432 266.68 
L 291.475432 266.68 
L 290.030975 266.68 
L 290.030975 266.68 
L 288.586518 266.68 
L 288.586518 266.68 
L 287.142061 266.68 
L 287.142061 266.68 
L 285.697604 266.68 
L 285.697604 266.68 
L 284.253148 266.68 
L 284.253148 266.68 
L 282.808691 266.68 
L 282.808691 266.68 
L 281.364234 266.68 
L 281.364234 266.68 
L 279.919777 266.68 
L 279.919777 266.68 
L 278.47532 266.68 
L 278.47532 266.68 
L 277.030864 266.68 
L 277.030864 266.68 
L 275.586407 266.68 
L 275.586407 266.68 
L 274.14195 266.68 
L 274.14195 266.68 
L 272.697493 266.68 
L 272.697493 266.68 
L 271.253036 266.68 
L 271.253036 266.68 
L 269.808579 266.68 
L 269.808579 266.68 
L 268.364123 266.68 
L 268.364123 266.68 
L 266.919666 266.68 
L 266.919666 266.68 
L 265.475209 266.68 
L 265.475209 266.68 
L 264.030752 266.68 
L 264.030752 266.68 
L 262.586295 266.68 
L 262.586295 266.68 
L 261.141838 266.68 
L 261.141838 266.68 
L 259.697382 266.68 
L 259.697382 266.68 
L 258.252925 266.68 
L 258.252925 266.68 
L 256.808468 266.68 
L 256.808468 266.68 
L 255.364011 266.68 
L 255.364011 266.68 
L 253.919554 266.68 
L 253.919554 266.68 
L 252.475097 266.68 
L 252.475097 266.68 
L 251.030641 266.68 
L 251.030641 266.68 
L 249.586184 266.68 
L 249.586184 266.68 
L 248.141727 266.68 
L 248.141727 266.68 
L 246.69727 266.68 
L 246.69727 266.68 
L 245.252813 266.68 
L 245.252813 266.68 
L 243.808357 266.68 
L 243.808357 266.68 
L 242.3639 266.68 
L 242.3639 266.68 
L 240.919443 266.68 
L 240.919443 266.68 
L 239.474986 266.68 
L 239.474986 266.68 
L 238.030529 266.68 
L 238.030529 266.68 
L 236.586072 266.68 
L 236.586072 266.68 
L 235.141616 266.68 
L 235.141616 266.68 
L 233.697159 266.68 
L 233.697159 266.68 
L 232.252702 266.68 
L 232.252702 266.68 
L 230.808245 266.68 
L 230.808245 266.68 
L 230.086017 266.68 
z
" clip-path="url(#p6fc0a09575)" style="fill: #d62728; fill-opacity: 0.6; stroke: #b22222; stroke-opacity: 0.8; stroke-width: 1.5"/>
    <path d="M 316.753426 266.68 
L 316.753426 267.355835 
L 317.475655 267.355835 
L 317.475655 267.589094 
L 318.197883 267.589094 
L 318.197883 266.68 
L 318.197883 266.68 
L 317.475655 266.68 
L 317.475655 266.68 
L 316.753426 266.68 
z
" clip-path="url(#p6fc0a09575)" style="fill: #d62728; fill-opacity: 0.6; stroke: #b22222; stroke-opacity: 0.8; stroke-width: 1.5"/>
    <path d="M 328.309081 266.68 
L 328.309081 269.698383 
L 329.031309 269.698383 
L 329.031309 268.553894 
L 330.475766 268.553894 
L 330.475766 270.623702 
L 331.920223 270.623702 
L 331.920223 271.557634 
L 333.36468 271.557634 
L 333.36468 269.415879 
L 334.809136 269.415879 
L 334.809136 269.414977 
L 335.531365 269.414977 
L 335.531365 266.68 
L 335.531365 266.68 
L 334.809136 266.68 
L 334.809136 266.68 
L 333.36468 266.68 
L 333.36468 266.68 
L 331.920223 266.68 
L 331.920223 266.68 
L 330.475766 266.68 
L 330.475766 266.68 
L 329.031309 266.68 
L 329.031309 266.68 
L 328.309081 266.68 
z
" clip-path="url(#p6fc0a09575)" style="fill: #d62728; fill-opacity: 0.6; stroke: #b22222; stroke-opacity: 0.8; stroke-width: 1.5"/>
    <path d="M 349.975933 266.68 
L 349.975933 267.589094 
L 350.698162 267.589094 
L 350.698162 272.449193 
L 352.142618 272.449193 
L 352.142618 273.446106 
L 353.587075 273.446106 
L 353.587075 278.142683 
L 355.031532 278.142683 
L 355.031532 275.175657 
L 356.475989 275.175657 
L 356.475989 273.143384 
L 357.920446 273.143384 
L 357.920446 273.037635 
L 359.364903 273.037635 
L 359.364903 271.261797 
L 360.809359 271.261797 
L 360.809359 271.261797 
L 362.253816 271.261797 
L 362.253816 269.970885 
L 363.698273 269.970885 
L 363.698273 275.452793 
L 365.14273 275.452793 
L 365.14273 280.996585 
L 366.587187 280.996585 
L 366.587187 277.076672 
L 368.031643 277.076672 
L 368.031643 281.324198 
L 369.4761 281.324198 
L 369.4761 283.766101 
L 370.920557 283.766101 
L 370.920557 279.508278 
L 372.365014 279.508278 
L 372.365014 286.658227 
L 373.809471 286.658227 
L 373.809471 289.288025 
L 375.253928 289.288025 
L 375.253928 283.748753 
L 376.698384 283.748753 
L 376.698384 283.141754 
L 378.142841 283.141754 
L 378.142841 286.369195 
L 379.587298 286.369195 
L 379.587298 291.157226 
L 381.031755 291.157226 
L 381.031755 284.497531 
L 382.476212 284.497531 
L 382.476212 279.943015 
L 383.920669 279.943015 
L 383.920669 279.170239 
L 385.365125 279.170239 
L 385.365125 279.091584 
L 386.809582 279.091584 
L 386.809582 277.076672 
L 388.254039 277.076672 
L 388.254039 289.575551 
L 389.698496 289.575551 
L 389.698496 286.992498 
L 391.142953 286.992498 
L 391.142953 281.386312 
L 392.587409 281.386312 
L 392.587409 278.174137 
L 394.031866 278.174137 
L 394.031866 279.170236 
L 395.476323 279.170236 
L 395.476323 273.143384 
L 396.92078 273.143384 
L 396.92078 273.378768 
L 398.365237 273.378768 
L 398.365237 268.640388 
L 399.087465 268.640388 
L 399.087465 266.68 
L 399.087465 266.68 
L 398.365237 266.68 
L 398.365237 266.68 
L 396.92078 266.68 
L 396.92078 266.68 
L 395.476323 266.68 
L 395.476323 266.68 
L 394.031866 266.68 
L 394.031866 266.68 
L 392.587409 266.68 
L 392.587409 266.68 
L 391.142953 266.68 
L 391.142953 266.68 
L 389.698496 266.68 
L 389.698496 266.68 
L 388.254039 266.68 
L 388.254039 266.68 
L 386.809582 266.68 
L 386.809582 266.68 
L 385.365125 266.68 
L 385.365125 266.68 
L 383.920669 266.68 
L 383.920669 266.68 
L 382.476212 266.68 
L 382.476212 266.68 
L 381.031755 266.68 
L 381.031755 266.68 
L 379.587298 266.68 
L 379.587298 266.68 
L 378.142841 266.68 
L 378.142841 266.68 
L 376.698384 266.68 
L 376.698384 266.68 
L 375.253928 266.68 
L 375.253928 266.68 
L 373.809471 266.68 
L 373.809471 266.68 
L 372.365014 266.68 
L 372.365014 266.68 
L 370.920557 266.68 
L 370.920557 266.68 
L 369.4761 266.68 
L 369.4761 266.68 
L 368.031643 266.68 
L 368.031643 266.68 
L 366.587187 266.68 
L 366.587187 266.68 
L 365.14273 266.68 
L 365.14273 266.68 
L 363.698273 266.68 
L 363.698273 266.68 
L 362.253816 266.68 
L 362.253816 266.68 
L 360.809359 266.68 
L 360.809359 266.68 
L 359.364903 266.68 
L 359.364903 266.68 
L 357.920446 266.68 
L 357.920446 266.68 
L 356.475989 266.68 
L 356.475989 266.68 
L 355.031532 266.68 
L 355.031532 266.68 
L 353.587075 266.68 
L 353.587075 266.68 
L 352.142618 266.68 
L 352.142618 266.68 
L 350.698162 266.68 
L 350.698162 266.68 
L 349.975933 266.68 
z
" clip-path="url(#p6fc0a09575)" style="fill: #d62728; fill-opacity: 0.6; stroke: #b22222; stroke-opacity: 0.8; stroke-width: 1.5"/>
    <path d="M 406.309749 266.68 
L 406.309749 269.371459 
L 407.031978 269.371459 
L 407.031978 269.414977 
L 408.476435 269.414977 
L 408.476435 269.414977 
L 409.920891 269.414977 
L 409.920891 267.494551 
L 411.365348 267.494551 
L 411.365348 267.589094 
L 412.087577 267.589094 
L 412.087577 266.68 
L 412.087577 266.68 
L 411.365348 266.68 
L 411.365348 266.68 
L 409.920891 266.68 
L 409.920891 266.68 
L 408.476435 266.68 
L 408.476435 266.68 
L 407.031978 266.68 
L 407.031978 266.68 
L 406.309749 266.68 
z
" clip-path="url(#p6fc0a09575)" style="fill: #d62728; fill-opacity: 0.6; stroke: #b22222; stroke-opacity: 0.8; stroke-width: 1.5"/>
    <path d="M 414.97649 266.68 
L 414.97649 267.40655 
L 415.698719 267.40655 
L 415.698719 270.084732 
L 417.143175 270.084732 
L 417.143175 275.260021 
L 418.587632 275.260021 
L 418.587632 275.075452 
L 420.032089 275.075452 
L 420.032089 275.510503 
L 421.476546 275.510503 
L 421.476546 281.386312 
L 422.921003 281.386312 
L 422.921003 280.673308 
L 424.36546 280.673308 
L 424.36546 280.687892 
L 425.809916 280.687892 
L 425.809916 283.766101 
L 427.254373 283.766101 
L 427.254373 278.873473 
L 428.69883 278.873473 
L 428.69883 275.075452 
L 430.143287 275.075452 
L 430.143287 281.386313 
L 431.587744 281.386313 
L 431.587744 289.825446 
L 433.032201 289.825446 
L 433.032201 283.002236 
L 434.476657 283.002236 
L 434.476657 287.498519 
L 435.921114 287.498519 
L 435.921114 302.567546 
L 437.365571 302.567546 
L 437.365571 302.857614 
L 438.810028 302.857614 
L 438.810028 296.852914 
L 440.254485 296.852914 
L 440.254485 302.070662 
L 441.698942 302.070662 
L 441.698942 308.37392 
L 443.143398 308.37392 
L 443.143398 313.109422 
L 444.587855 313.109422 
L 444.587855 304.25034 
L 446.032312 304.25034 
L 446.032312 302.567546 
L 447.476769 302.567546 
L 447.476769 279.170239 
L 448.921226 279.170239 
L 448.921226 282.721995 
L 450.365682 282.721995 
L 450.365682 288.083083 
L 451.810139 288.083083 
L 451.810139 288.095607 
L 453.254596 288.095607 
L 453.254596 289.288025 
L 454.699053 289.288025 
L 454.699053 283.766101 
L 456.14351 283.766101 
L 456.14351 279.170239 
L 457.587967 279.170239 
L 457.587967 280.692338 
L 459.032423 280.692338 
L 459.032423 282.141462 
L 460.47688 282.141462 
L 460.47688 279.170239 
L 461.921337 279.170239 
L 461.921337 279.415824 
L 463.365794 279.415824 
L 463.365794 282.108256 
L 464.810251 282.108256 
L 464.810251 296.852914 
L 466.254708 296.852914 
L 466.254708 298.203691 
L 467.699164 298.203691 
L 467.699164 302.424236 
L 469.143621 302.424236 
L 469.143621 308.817529 
L 470.588078 308.817529 
L 470.588078 313.109422 
L 472.032535 313.109422 
L 472.032535 312.419414 
L 473.476992 312.419414 
L 473.476992 313.109422 
L 474.921448 313.109422 
L 474.921448 305.008815 
L 476.365905 305.008815 
L 476.365905 305.202079 
L 477.810362 305.202079 
L 477.810362 302.567546 
L 479.254819 302.567546 
L 479.254819 298.799038 
L 480.699276 298.799038 
L 480.699276 313.109422 
L 482.143733 313.109422 
L 482.143733 313.109422 
L 483.588189 313.109422 
L 483.588189 302.581805 
L 485.032646 302.581805 
L 485.032646 297.926916 
L 486.477103 297.926916 
L 486.477103 296.049052 
L 487.92156 296.049052 
L 487.92156 296.852914 
L 489.366017 296.852914 
L 489.366017 290.904851 
L 490.810474 290.904851 
L 490.810474 286.369195 
L 492.25493 286.369195 
L 492.25493 272.641663 
L 493.699387 272.641663 
L 493.699387 271.267069 
L 495.143844 271.267069 
L 495.143844 271.261797 
L 496.588301 271.261797 
L 496.588301 269.602822 
L 498.032758 269.602822 
L 498.032758 269.414977 
L 499.477214 269.414977 
L 499.477214 269.414977 
L 500.921671 269.414977 
L 500.921671 267.543813 
L 502.366128 267.543813 
L 502.366128 269.839688 
L 503.810585 269.839688 
L 503.810585 268.686332 
L 504.532813 268.686332 
L 504.532813 266.68 
L 504.532813 266.68 
L 503.810585 266.68 
L 503.810585 266.68 
L 502.366128 266.68 
L 502.366128 266.68 
L 500.921671 266.68 
L 500.921671 266.68 
L 499.477214 266.68 
L 499.477214 266.68 
L 498.032758 266.68 
L 498.032758 266.68 
L 496.588301 266.68 
L 496.588301 266.68 
L 495.143844 266.68 
L 495.143844 266.68 
L 493.699387 266.68 
L 493.699387 266.68 
L 492.25493 266.68 
L 492.25493 266.68 
L 490.810474 266.68 
L 490.810474 266.68 
L 489.366017 266.68 
L 489.366017 266.68 
L 487.92156 266.68 
L 487.92156 266.68 
L 486.477103 266.68 
L 486.477103 266.68 
L 485.032646 266.68 
L 485.032646 266.68 
L 483.588189 266.68 
L 483.588189 266.68 
L 482.143733 266.68 
L 482.143733 266.68 
L 480.699276 266.68 
L 480.699276 266.68 
L 479.254819 266.68 
L 479.254819 266.68 
L 477.810362 266.68 
L 477.810362 266.68 
L 476.365905 266.68 
L 476.365905 266.68 
L 474.921448 266.68 
L 474.921448 266.68 
L 473.476992 266.68 
L 473.476992 266.68 
L 472.032535 266.68 
L 472.032535 266.68 
L 470.588078 266.68 
L 470.588078 266.68 
L 469.143621 266.68 
L 469.143621 266.68 
L 467.699164 266.68 
L 467.699164 266.68 
L 466.254708 266.68 
L 466.254708 266.68 
L 464.810251 266.68 
L 464.810251 266.68 
L 463.365794 266.68 
L 463.365794 266.68 
L 461.921337 266.68 
L 461.921337 266.68 
L 460.47688 266.68 
L 460.47688 266.68 
L 459.032423 266.68 
L 459.032423 266.68 
L 457.587967 266.68 
L 457.587967 266.68 
L 456.14351 266.68 
L 456.14351 266.68 
L 454.699053 266.68 
L 454.699053 266.68 
L 453.254596 266.68 
L 453.254596 266.68 
L 451.810139 266.68 
L 451.810139 266.68 
L 450.365682 266.68 
L 450.365682 266.68 
L 448.921226 266.68 
L 448.921226 266.68 
L 447.476769 266.68 
L 447.476769 266.68 
L 446.032312 266.68 
L 446.032312 266.68 
L 444.587855 266.68 
L 444.587855 266.68 
L 443.143398 266.68 
L 443.143398 266.68 
L 441.698942 266.68 
L 441.698942 266.68 
L 440.254485 266.68 
L 440.254485 266.68 
L 438.810028 266.68 
L 438.810028 266.68 
L 437.365571 266.68 
L 437.365571 266.68 
L 435.921114 266.68 
L 435.921114 266.68 
L 434.476657 266.68 
L 434.476657 266.68 
L 433.032201 266.68 
L 433.032201 266.68 
L 431.587744 266.68 
L 431.587744 266.68 
L 430.143287 266.68 
L 430.143287 266.68 
L 428.69883 266.68 
L 428.69883 266.68 
L 427.254373 266.68 
L 427.254373 266.68 
L 425.809916 266.68 
L 425.809916 266.68 
L 424.36546 266.68 
L 424.36546 266.68 
L 422.921003 266.68 
L 422.921003 266.68 
L 421.476546 266.68 
L 421.476546 266.68 
L 420.032089 266.68 
L 420.032089 266.68 
L 418.587632 266.68 
L 418.587632 266.68 
L 417.143175 266.68 
L 417.143175 266.68 
L 415.698719 266.68 
L 415.698719 266.68 
L 414.97649 266.68 
z
" clip-path="url(#p6fc0a09575)" style="fill: #d62728; fill-opacity: 0.6; stroke: #b22222; stroke-opacity: 0.8; stroke-width: 1.5"/>
   </g>
   <g id="matplotlib.axis_3">
    <g id="xtick_7">
     <g id="line2d_15">
      <g>
       <use xlink:href="#m36f473aac6" x="115.973928" y="332.12" style="stroke: #000000; stroke-width: 0.8"/>
      </g>
     </g>
     <g id="text_15">
      <!-- 1995 -->
      <g transform="translate(103.248928 346.718437) scale(0.1 -0.1)">
       <use xlink:href="#DejaVuSans-31"/>
       <use xlink:href="#DejaVuSans-39" x="63.623047"/>
       <use xlink:href="#DejaVuSans-39" x="127.246094"/>
       <use xlink:href="#DejaVuSans-35" x="190.869141"/>
      </g>
     </g>
    </g>
    <g id="xtick_8">
     <g id="line2d_16">
      <g>
       <use xlink:href="#m36f473aac6" x="202.641337" y="332.12" style="stroke: #000000; stroke-width: 0.8"/>
      </g>
     </g>
     <g id="text_16">
      <!-- 2000 -->
      <g transform="translate(189.916337 346.718437) scale(0.1 -0.1)">
       <use xlink:href="#DejaVuSans-32"/>
       <use xlink:href="#DejaVuSans-30" x="63.623047"/>
       <use xlink:href="#DejaVuSans-30" x="127.246094"/>
       <use xlink:href="#DejaVuSans-30" x="190.869141"/>
      </g>
     </g>
    </g>
    <g id="xtick_9">
     <g id="line2d_17">
      <g>
       <use xlink:href="#m36f473aac6" x="289.308747" y="332.12" style="stroke: #000000; stroke-width: 0.8"/>
      </g>
     </g>
     <g id="text_17">
      <!-- 2005 -->
      <g transform="translate(276.583747 346.718437) scale(0.1 -0.1)">
       <use xlink:href="#DejaVuSans-32"/>
       <use xlink:href="#DejaVuSans-30" x="63.623047"/>
       <use xlink:href="#DejaVuSans-30" x="127.246094"/>
       <use xlink:href="#DejaVuSans-35" x="190.869141"/>
      </g>
     </g>
    </g>
    <g id="xtick_10">
     <g id="line2d_18">
      <g>
       <use xlink:href="#m36f473aac6" x="375.976156" y="332.12" style="stroke: #000000; stroke-width: 0.8"/>
      </g>
     </g>
     <g id="text_18">
      <!-- 2010 -->
      <g transform="translate(363.251156 346.718437) scale(0.1 -0.1)">
       <use xlink:href="#DejaVuSans-32"/>
       <use xlink:href="#DejaVuSans-30" x="63.623047"/>
       <use xlink:href="#DejaVuSans-31" x="127.246094"/>
       <use xlink:href="#DejaVuSans-30" x="190.869141"/>
      </g>
     </g>
    </g>
    <g id="xtick_11">
     <g id="line2d_19">
      <g>
       <use xlink:href="#m36f473aac6" x="462.643565" y="332.12" style="stroke: #000000; stroke-width: 0.8"/>
      </g>
     </g>
     <g id="text_19">
      <!-- 2015 -->
      <g transform="translate(449.918565 346.718437) scale(0.1 -0.1)">
       <use xlink:href="#DejaVuSans-32"/>
       <use xlink:href="#DejaVuSans-30" x="63.623047"/>
       <use xlink:href="#DejaVuSans-31" x="127.246094"/>
       <use xlink:href="#DejaVuSans-35" x="190.869141"/>
      </g>
     </g>
    </g>
    <g id="xtick_12">
     <g id="line2d_20">
      <g>
       <use xlink:href="#m36f473aac6" x="549.310975" y="332.12" style="stroke: #000000; stroke-width: 0.8"/>
      </g>
     </g>
     <g id="text_20">
      <!-- 2020 -->
      <g transform="translate(536.585975 346.718437) scale(0.1 -0.1)">
       <use xlink:href="#DejaVuSans-32"/>
       <use xlink:href="#DejaVuSans-30" x="63.623047"/>
       <use xlink:href="#DejaVuSans-32" x="127.246094"/>
       <use xlink:href="#DejaVuSans-30" x="190.869141"/>
      </g>
     </g>
    </g>
   </g>
   <g id="matplotlib.axis_4">
    <g id="ytick_8">
     <g id="line2d_21">
      <g>
       <use xlink:href="#m3282b9e3c0" x="46.64" y="332.12" style="stroke: #000000; stroke-width: 0.8"/>
      </g>
     </g>
     <g id="text_21">
      <!-- −3 -->
      <g transform="translate(24.897813 335.919219) scale(0.1 -0.1)">
       <use xlink:href="#DejaVuSans-2212"/>
       <use xlink:href="#DejaVuSans-33" x="83.789062"/>
      </g>
     </g>
    </g>
    <g id="ytick_9">
     <g id="line2d_22">
      <g>
       <use xlink:href="#m3282b9e3c0" x="46.64" y="310.306667" style="stroke: #000000; stroke-width: 0.8"/>
      </g>
     </g>
     <g id="text_22">
      <!-- −2 -->
      <g transform="translate(24.897813 314.105885) scale(0.1 -0.1)">
       <use xlink:href="#DejaVuSans-2212"/>
       <use xlink:href="#DejaVuSans-32" x="83.789062"/>
      </g>
     </g>
    </g>
    <g id="ytick_10">
     <g id="line2d_23">
      <g>
       <use xlink:href="#m3282b9e3c0" x="46.64" y="288.493333" style="stroke: #000000; stroke-width: 0.8"/>
      </g>
     </g>
     <g id="text_23">
      <!-- −1 -->
      <g transform="translate(24.897813 292.292552) scale(0.1 -0.1)">
       <use xlink:href="#DejaVuSans-2212"/>
       <use xlink:href="#DejaVuSans-31" x="83.789062"/>
      </g>
     </g>
    </g>
    <g id="ytick_11">
     <g id="line2d_24">
      <g>
       <use xlink:href="#m3282b9e3c0" x="46.64" y="266.68" style="stroke: #000000; stroke-width: 0.8"/>
      </g>
     </g>
     <g id="text_24">
      <!-- 0 -->
      <g transform="translate(33.2775 270.479219) scale(0.1 -0.1)">
       <use xlink:href="#DejaVuSans-30"/>
      </g>
     </g>
    </g>
    <g id="ytick_12">
     <g id="line2d_25">
      <g>
       <use xlink:href="#m3282b9e3c0" x="46.64" y="244.866667" style="stroke: #000000; stroke-width: 0.8"/>
      </g>
     </g>
     <g id="text_25">
      <!-- 1 -->
      <g transform="translate(33.2775 248.665885) scale(0.1 -0.1)">
       <use xlink:href="#DejaVuSans-31"/>
      </g>
     </g>
    </g>
    <g id="ytick_13">
     <g id="line2d_26">
      <g>
       <use xlink:href="#m3282b9e3c0" x="46.64" y="223.053333" style="stroke: #000000; stroke-width: 0.8"/>
      </g>
     </g>
     <g id="text_26">
      <!-- 2 -->
      <g transform="translate(33.2775 226.852552) scale(0.1 -0.1)">
       <use xlink:href="#DejaVuSans-32"/>
      </g>
     </g>
    </g>
    <g id="ytick_14">
     <g id="line2d_27">
      <g>
       <use xlink:href="#m3282b9e3c0" x="46.64" y="201.24" style="stroke: #000000; stroke-width: 0.8"/>
      </g>
     </g>
     <g id="text_27">
      <!-- 3 -->
      <g transform="translate(33.2775 205.039219) scale(0.1 -0.1)">
       <use xlink:href="#DejaVuSans-33"/>
      </g>
     </g>
    </g>
    <g id="text_28">
     <!-- Gallatin -->
     <g transform="translate(18.818125 285.978438) rotate(-90) scale(0.1 -0.1)">
      <defs>
       <path id="DejaVuSans-47" d="M 3809 666 
L 3809 1919 
L 2778 1919 
L 2778 2438 
L 4434 2438 
L 4434 434 
Q 4069 175 3628 42 
Q 3188 -91 2688 -91 
Q 1594 -91 976 548 
Q 359 1188 359 2328 
Q 359 3472 976 4111 
Q 1594 4750 2688 4750 
Q 3144 4750 3555 4637 
Q 3966 4525 4313 4306 
L 4313 3634 
Q 3963 3931 3569 4081 
Q 3175 4231 2741 4231 
Q 1884 4231 1454 3753 
Q 1025 3275 1025 2328 
Q 1025 1384 1454 906 
Q 1884 428 2741 428 
Q 3075 428 3337 486 
Q 3600 544 3809 666 
z
" transform="scale(0.015625)"/>
       <path id="DejaVuSans-61" d="M 2194 1759 
Q 1497 1759 1228 1600 
Q 959 1441 959 1056 
Q 959 750 1161 570 
Q 1363 391 1709 391 
Q 2188 391 2477 730 
Q 2766 1069 2766 1631 
L 2766 1759 
L 2194 1759 
z
M 3341 1997 
L 3341 0 
L 2766 0 
L 2766 531 
Q 2569 213 2275 61 
Q 1981 -91 1556 -91 
Q 1019 -91 701 211 
Q 384 513 384 1019 
Q 384 1609 779 1909 
Q 1175 2209 1959 2209 
L 2766 2209 
L 2766 2266 
Q 2766 2663 2505 2880 
Q 2244 3097 1772 3097 
Q 1472 3097 1187 3025 
Q 903 2953 641 2809 
L 641 3341 
Q 956 3463 1253 3523 
Q 1550 3584 1831 3584 
Q 2591 3584 2966 3190 
Q 3341 2797 3341 1997 
z
" transform="scale(0.015625)"/>
       <path id="DejaVuSans-6c" d="M 603 4863 
L 1178 4863 
L 1178 0 
L 603 0 
L 603 4863 
z
" transform="scale(0.015625)"/>
       <path id="DejaVuSans-6e" d="M 3513 2113 
L 3513 0 
L 2938 0 
L 2938 2094 
Q 2938 2591 2744 2837 
Q 2550 3084 2163 3084 
Q 1697 3084 1428 2787 
Q 1159 2491 1159 1978 
L 1159 0 
L 581 0 
L 581 3500 
L 1159 3500 
L 1159 2956 
Q 1366 3272 1645 3428 
Q 1925 3584 2291 3584 
Q 2894 3584 3203 3211 
Q 3513 2838 3513 2113 
z
" transform="scale(0.015625)"/>
      </defs>
      <use xlink:href="#DejaVuSans-47"/>
      <use xlink:href="#DejaVuSans-61" x="77.490234"/>
      <use xlink:href="#DejaVuSans-6c" x="138.769531"/>
      <use xlink:href="#DejaVuSans-6c" x="166.552734"/>
      <use xlink:href="#DejaVuSans-61" x="194.335938"/>
      <use xlink:href="#DejaVuSans-74" x="255.615234"/>
      <use xlink:href="#DejaVuSans-69" x="294.824219"/>
      <use xlink:href="#DejaVuSans-6e" x="322.607422"/>
     </g>
    </g>
   </g>
   <g id="line2d_28">
    <path d="M 46.64 266.68 
L 565.2 266.68 
" clip-path="url(#p6fc0a09575)" style="fill: none; stroke: #000000; stroke-width: 1.5; stroke-linecap: square"/>
   </g>
   <g id="patch_6">
    <path d="M 46.64 332.12 
L 46.64 201.24 
" style="fill: none; stroke: #000000; stroke-width: 0.8; stroke-linejoin: miter; stroke-linecap: square"/>
   </g>
   <g id="patch_7">
    <path d="M 46.64 332.12 
L 565.2 332.12 
" style="fill: none; stroke: #000000; stroke-width: 0.8; stroke-linejoin: miter; stroke-linecap: square"/>
   </g>
  </g>
  <g id="text_29">
   <!-- SPEI-48 -->
   <g transform="translate(262.110937 16.318125) scale(0.12 -0.12)">
    <defs>
     <path id="DejaVuSans-Bold-53" d="M 3834 4519 
L 3834 3531 
Q 3450 3703 3084 3790 
Q 2719 3878 2394 3878 
Q 1963 3878 1756 3759 
Q 1550 3641 1550 3391 
Q 1550 3203 1689 3098 
Q 1828 2994 2194 2919 
L 2706 2816 
Q 3484 2659 3812 2340 
Q 4141 2022 4141 1434 
Q 4141 663 3683 286 
Q 3225 -91 2284 -91 
Q 1841 -91 1394 -6 
Q 947 78 500 244 
L 500 1259 
Q 947 1022 1364 901 
Q 1781 781 2169 781 
Q 2563 781 2772 912 
Q 2981 1044 2981 1288 
Q 2981 1506 2839 1625 
Q 2697 1744 2272 1838 
L 1806 1941 
Q 1106 2091 782 2419 
Q 459 2747 459 3303 
Q 459 4000 909 4375 
Q 1359 4750 2203 4750 
Q 2588 4750 2994 4692 
Q 3400 4634 3834 4519 
z
" transform="scale(0.015625)"/>
     <path id="DejaVuSans-Bold-50" d="M 588 4666 
L 2584 4666 
Q 3475 4666 3951 4270 
Q 4428 3875 4428 3144 
Q 4428 2409 3951 2014 
Q 3475 1619 2584 1619 
L 1791 1619 
L 1791 0 
L 588 0 
L 588 4666 
z
M 1791 3794 
L 1791 2491 
L 2456 2491 
Q 2806 2491 2997 2661 
Q 3188 2831 3188 3144 
Q 3188 3456 2997 3625 
Q 2806 3794 2456 3794 
L 1791 3794 
z
" transform="scale(0.015625)"/>
     <path id="DejaVuSans-Bold-45" d="M 588 4666 
L 3834 4666 
L 3834 3756 
L 1791 3756 
L 1791 2888 
L 3713 2888 
L 3713 1978 
L 1791 1978 
L 1791 909 
L 3903 909 
L 3903 0 
L 588 0 
L 588 4666 
z
" transform="scale(0.015625)"/>
     <path id="DejaVuSans-Bold-49" d="M 588 4666 
L 1791 4666 
L 1791 0 
L 588 0 
L 588 4666 
z
" transform="scale(0.015625)"/>
     <path id="DejaVuSans-Bold-2d" d="M 347 2297 
L 2309 2297 
L 2309 1388 
L 347 1388 
L 347 2297 
z
" transform="scale(0.015625)"/>
     <path id="DejaVuSans-Bold-34" d="M 2356 3675 
L 1038 1722 
L 2356 1722 
L 2356 3675 
z
M 2156 4666 
L 3494 4666 
L 3494 1722 
L 4159 1722 
L 4159 850 
L 3494 850 
L 3494 0 
L 2356 0 
L 2356 850 
L 288 850 
L 288 1881 
L 2156 4666 
z
" transform="scale(0.015625)"/>
     <path id="DejaVuSans-Bold-38" d="M 2228 2088 
Q 1891 2088 1709 1903 
Q 1528 1719 1528 1375 
Q 1528 1031 1709 848 
Q 1891 666 2228 666 
Q 2563 666 2741 848 
Q 2919 1031 2919 1375 
Q 2919 1722 2741 1905 
Q 2563 2088 2228 2088 
z
M 1350 2484 
Q 925 2613 709 2878 
Q 494 3144 494 3541 
Q 494 4131 934 4440 
Q 1375 4750 2228 4750 
Q 3075 4750 3515 4442 
Q 3956 4134 3956 3541 
Q 3956 3144 3739 2878 
Q 3522 2613 3097 2484 
Q 3572 2353 3814 2058 
Q 4056 1763 4056 1313 
Q 4056 619 3595 264 
Q 3134 -91 2228 -91 
Q 1319 -91 855 264 
Q 391 619 391 1313 
Q 391 1763 633 2058 
Q 875 2353 1350 2484 
z
M 1631 3419 
Q 1631 3141 1786 2991 
Q 1941 2841 2228 2841 
Q 2509 2841 2662 2991 
Q 2816 3141 2816 3419 
Q 2816 3697 2662 3845 
Q 2509 3994 2228 3994 
Q 1941 3994 1786 3844 
Q 1631 3694 1631 3419 
z
" transform="scale(0.015625)"/>
    </defs>
    <use xlink:href="#DejaVuSans-Bold-53"/>
    <use xlink:href="#DejaVuSans-Bold-50" x="72.021484"/>
    <use xlink:href="#DejaVuSans-Bold-45" x="145.3125"/>
    <use xlink:href="#DejaVuSans-Bold-49" x="213.623047"/>
    <use xlink:href="#DejaVuSans-Bold-2d" x="250.830078"/>
    <use xlink:href="#DejaVuSans-Bold-34" x="292.333984"/>
    <use xlink:href="#DejaVuSans-Bold-38" x="361.914062"/>
   </g>
  </g>
 </g>
 <defs>
  <clipPath id="p6ffc81b776">
   <rect x="46.64" y="38.52" width="518.56" height="130.88"/>
  </clipPath>
  <clipPath id="p6fc0a09575">
   <rect x="46.64" y="201.24" width="518.56" height="130.88"/>
  </clipPath>
 </defs>
</svg>
