<?xml version="1.0" encoding="utf-8" standalone="no"?>
<!DOCTYPE svg PUBLIC "-//W3C//DTD SVG 1.1//EN"
  "http://www.w3.org/Graphics/SVG/1.1/DTD/svg11.dtd">
<svg xmlns:xlink="http://www.w3.org/1999/xlink" width="576pt" height="360pt" viewBox="0 0 576 360" xmlns="http://www.w3.org/2000/svg" version="1.1">
 <metadata>
  <rdf:RDF xmlns:dc="http://purl.org/dc/elements/1.1/" xmlns:cc="http://creativecommons.org/ns#" xmlns:rdf="http://www.w3.org/1999/02/22-rdf-syntax-ns#">
   <cc:Work>
    <dc:type rdf:resource="http://purl.org/dc/dcmitype/StillImage"/>
    <dc:date>2024-02-10T08:32:11.654148</dc:date>
    <dc:format>image/svg+xml</dc:format>
    <dc:creator>
     <cc:Agent>
      <dc:title>Matplotlib v3.8.2, https://matplotlib.org/</dc:title>
     </cc:Agent>
    </dc:creator>
   </cc:Work>
  </rdf:RDF>
 </metadata>
 <defs>
  <style type="text/css">*{stroke-linejoin: round; stroke-linecap: butt}</style>
 </defs>
 <g id="figure_1">
  <g id="patch_1">
   <path d="M 0 360 
L 576 360 
L 576 0 
L 0 0 
z
" style="fill: #ffffff"/>
  </g>
  <g id="axes_1">
   <g id="patch_2">
    <path d="M 46.64 169.4 
L 565.2 169.4 
L 565.2 38.52 
L 46.64 38.52 
z
" style="fill: #ffffff"/>
   </g>
   <g id="PolyCollection_1">
    <path d="M 49.528914 103.96 
L 49.528914 101.223529 
L 50.251142 101.223529 
L 50.251142 96.910024 
L 51.695599 96.910024 
L 51.695599 98.978903 
L 53.140056 98.978903 
L 53.140056 98.108872 
L 54.584513 98.108872 
L 54.584513 97.367436 
L 56.028969 97.367436 
L 56.028969 91.884879 
L 57.473426 91.884879 
L 57.473426 90.156107 
L 58.917883 90.156107 
L 58.917883 94.71844 
L 60.36234 94.71844 
L 60.36234 89.994507 
L 61.806797 89.994507 
L 61.806797 89.839068 
L 63.251253 89.839068 
L 63.251253 91.379926 
L 64.69571 91.379926 
L 64.69571 95.625616 
L 66.140167 95.625616 
L 66.140167 100.931137 
L 67.584624 100.931137 
L 67.584624 97.708372 
L 69.029081 97.708372 
L 69.029081 100.873382 
L 70.473538 100.873382 
L 70.473538 99.65791 
L 71.917994 99.65791 
L 71.917994 94.579541 
L 73.362451 94.579541 
L 73.362451 92.309704 
L 74.806908 92.309704 
L 74.806908 95.220927 
L 76.251365 95.220927 
L 76.251365 95.699717 
L 77.695822 95.699717 
L 77.695822 97.795426 
L 79.140279 97.795426 
L 79.140279 93.26717 
L 80.584735 93.26717 
L 80.584735 96.322753 
L 82.029192 96.322753 
L 82.029192 97.871318 
L 83.473649 97.871318 
L 83.473649 100.338885 
L 84.918106 100.338885 
L 84.918106 95.936431 
L 86.362563 95.936431 
L 86.362563 97.091162 
L 87.807019 97.091162 
L 87.807019 98.097163 
L 89.251476 98.097163 
L 89.251476 89.397238 
L 90.695933 89.397238 
L 90.695933 84.434575 
L 92.14039 84.434575 
L 92.14039 87.766773 
L 93.584847 87.766773 
L 93.584847 88.052128 
L 95.029304 88.052128 
L 95.029304 94.895307 
L 96.47376 94.895307 
L 96.47376 98.608574 
L 97.918217 98.608574 
L 97.918217 93.130002 
L 99.362674 93.130002 
L 99.362674 92.831236 
L 100.807131 92.831236 
L 100.807131 101.139703 
L 102.251588 101.139703 
L 102.251588 100.789547 
L 103.696045 100.789547 
L 103.696045 102.03089 
L 104.418273 102.03089 
L 104.418273 103.96 
L 104.418273 103.96 
L 103.696045 103.96 
L 103.696045 103.96 
L 102.251588 103.96 
L 102.251588 103.96 
L 100.807131 103.96 
L 100.807131 103.96 
L 99.362674 103.96 
L 99.362674 103.96 
L 97.918217 103.96 
L 97.918217 103.96 
L 96.47376 103.96 
L 96.47376 103.96 
L 95.029304 103.96 
L 95.029304 103.96 
L 93.584847 103.96 
L 93.584847 103.96 
L 92.14039 103.96 
L 92.14039 103.96 
L 90.695933 103.96 
L 90.695933 103.96 
L 89.251476 103.96 
L 89.251476 103.96 
L 87.807019 103.96 
L 87.807019 103.96 
L 86.362563 103.96 
L 86.362563 103.96 
L 84.918106 103.96 
L 84.918106 103.96 
L 83.473649 103.96 
L 83.473649 103.96 
L 82.029192 103.96 
L 82.029192 103.96 
L 80.584735 103.96 
L 80.584735 103.96 
L 79.140279 103.96 
L 79.140279 103.96 
L 77.695822 103.96 
L 77.695822 103.96 
L 76.251365 103.96 
L 76.251365 103.96 
L 74.806908 103.96 
L 74.806908 103.96 
L 73.362451 103.96 
L 73.362451 103.96 
L 71.917994 103.96 
L 71.917994 103.96 
L 70.473538 103.96 
L 70.473538 103.96 
L 69.029081 103.96 
L 69.029081 103.96 
L 67.584624 103.96 
L 67.584624 103.96 
L 66.140167 103.96 
L 66.140167 103.96 
L 64.69571 103.96 
L 64.69571 103.96 
L 63.251253 103.96 
L 63.251253 103.96 
L 61.806797 103.96 
L 61.806797 103.96 
L 60.36234 103.96 
L 60.36234 103.96 
L 58.917883 103.96 
L 58.917883 103.96 
L 57.473426 103.96 
L 57.473426 103.96 
L 56.028969 103.96 
L 56.028969 103.96 
L 54.584513 103.96 
L 54.584513 103.96 
L 53.140056 103.96 
L 53.140056 103.96 
L 51.695599 103.96 
L 51.695599 103.96 
L 50.251142 103.96 
L 50.251142 103.96 
L 49.528914 103.96 
z
" clip-path="url(#p67776f8a21)" style="fill: #17becf; fill-opacity: 0.6; stroke: #1f77b4; stroke-opacity: 0.8; stroke-width: 1.5"/>
    <path d="M 107.307187 103.96 
L 107.307187 103.71695 
L 107.307187 103.71695 
L 107.307187 103.96 
L 107.307187 103.96 
L 107.307187 103.96 
z
" clip-path="url(#p67776f8a21)" style="fill: #17becf; fill-opacity: 0.6; stroke: #1f77b4; stroke-opacity: 0.8; stroke-width: 1.5"/>
    <path d="M 124.640669 103.96 
L 124.640669 98.115574 
L 125.362897 98.115574 
L 125.362897 94.680099 
L 126.807354 94.680099 
L 126.807354 97.396663 
L 128.251811 97.396663 
L 128.251811 95.068284 
L 129.696267 95.068284 
L 129.696267 85.352908 
L 131.140724 85.352908 
L 131.140724 82.879261 
L 132.585181 82.879261 
L 132.585181 81.276152 
L 134.029638 81.276152 
L 134.029638 80.831699 
L 135.474095 80.831699 
L 135.474095 79.479779 
L 136.918552 79.479779 
L 136.918552 78.482715 
L 138.363008 78.482715 
L 138.363008 77.480631 
L 139.807465 77.480631 
L 139.807465 77.564994 
L 141.251922 77.564994 
L 141.251922 78.819905 
L 142.696379 78.819905 
L 142.696379 77.976337 
L 144.140836 77.976337 
L 144.140836 78.15992 
L 145.585292 78.15992 
L 145.585292 78.007744 
L 147.029749 78.007744 
L 147.029749 76.873032 
L 148.474206 76.873032 
L 148.474206 73.294971 
L 149.918663 73.294971 
L 149.918663 73.600667 
L 151.36312 73.600667 
L 151.36312 73.510136 
L 152.807577 73.510136 
L 152.807577 72.009241 
L 154.252033 72.009241 
L 154.252033 73.212183 
L 155.69649 73.212183 
L 155.69649 76.172318 
L 157.140947 76.172318 
L 157.140947 76.116566 
L 158.585404 76.116566 
L 158.585404 73.981844 
L 160.029861 73.981844 
L 160.029861 73.78877 
L 161.474318 73.78877 
L 161.474318 70.720524 
L 162.918774 70.720524 
L 162.918774 67.89129 
L 164.363231 67.89129 
L 164.363231 68.775198 
L 165.807688 68.775198 
L 165.807688 70.410758 
L 167.252145 70.410758 
L 167.252145 69.475521 
L 168.696602 69.475521 
L 168.696602 69.309557 
L 170.141058 69.309557 
L 170.141058 70.382721 
L 171.585515 70.382721 
L 171.585515 69.327966 
L 173.029972 69.327966 
L 173.029972 66.978304 
L 174.474429 66.978304 
L 174.474429 63.596413 
L 175.918886 63.596413 
L 175.918886 58.859593 
L 177.363343 58.859593 
L 177.363343 57.964283 
L 178.807799 57.964283 
L 178.807799 57.796146 
L 180.252256 57.796146 
L 180.252256 61.001334 
L 181.696713 61.001334 
L 181.696713 58.614012 
L 183.14117 58.614012 
L 183.14117 57.645896 
L 184.585627 57.645896 
L 184.585627 57.642729 
L 186.030084 57.642729 
L 186.030084 57.553259 
L 187.47454 57.553259 
L 187.47454 57.552623 
L 188.918997 57.552623 
L 188.918997 58.014181 
L 190.363454 58.014181 
L 190.363454 60.06585 
L 191.807911 60.06585 
L 191.807911 64.295281 
L 193.252368 64.295281 
L 193.252368 67.511568 
L 194.696825 67.511568 
L 194.696825 67.893175 
L 196.141281 67.893175 
L 196.141281 71.707029 
L 197.585738 71.707029 
L 197.585738 73.378336 
L 199.030195 73.378336 
L 199.030195 74.740006 
L 200.474652 74.740006 
L 200.474652 77.023084 
L 201.919109 77.023084 
L 201.919109 77.395641 
L 203.363565 77.395641 
L 203.363565 78.099907 
L 204.808022 78.099907 
L 204.808022 79.961619 
L 206.252479 79.961619 
L 206.252479 80.596989 
L 207.696936 80.596989 
L 207.696936 79.970343 
L 209.141393 79.970343 
L 209.141393 80.061841 
L 210.58585 80.061841 
L 210.58585 80.485305 
L 212.030306 80.485305 
L 212.030306 81.340423 
L 213.474763 81.340423 
L 213.474763 81.242934 
L 214.91922 81.242934 
L 214.91922 83.678935 
L 216.363677 83.678935 
L 216.363677 87.881875 
L 217.808134 87.881875 
L 217.808134 89.060081 
L 219.252591 89.060081 
L 219.252591 93.874643 
L 220.697047 93.874643 
L 220.697047 98.329776 
L 222.141504 98.329776 
L 222.141504 96.988341 
L 223.585961 96.988341 
L 223.585961 101.29985 
L 224.308189 101.29985 
L 224.308189 103.96 
L 224.308189 103.96 
L 223.585961 103.96 
L 223.585961 103.96 
L 222.141504 103.96 
L 222.141504 103.96 
L 220.697047 103.96 
L 220.697047 103.96 
L 219.252591 103.96 
L 219.252591 103.96 
L 217.808134 103.96 
L 217.808134 103.96 
L 216.363677 103.96 
L 216.363677 103.96 
L 214.91922 103.96 
L 214.91922 103.96 
L 213.474763 103.96 
L 213.474763 103.96 
L 212.030306 103.96 
L 212.030306 103.96 
L 210.58585 103.96 
L 210.58585 103.96 
L 209.141393 103.96 
L 209.141393 103.96 
L 207.696936 103.96 
L 207.696936 103.96 
L 206.252479 103.96 
L 206.252479 103.96 
L 204.808022 103.96 
L 204.808022 103.96 
L 203.363565 103.96 
L 203.363565 103.96 
L 201.919109 103.96 
L 201.919109 103.96 
L 200.474652 103.96 
L 200.474652 103.96 
L 199.030195 103.96 
L 199.030195 103.96 
L 197.585738 103.96 
L 197.585738 103.96 
L 196.141281 103.96 
L 196.141281 103.96 
L 194.696825 103.96 
L 194.696825 103.96 
L 193.252368 103.96 
L 193.252368 103.96 
L 191.807911 103.96 
L 191.807911 103.96 
L 190.363454 103.96 
L 190.363454 103.96 
L 188.918997 103.96 
L 188.918997 103.96 
L 187.47454 103.96 
L 187.47454 103.96 
L 186.030084 103.96 
L 186.030084 103.96 
L 184.585627 103.96 
L 184.585627 103.96 
L 183.14117 103.96 
L 183.14117 103.96 
L 181.696713 103.96 
L 181.696713 103.96 
L 180.252256 103.96 
L 180.252256 103.96 
L 178.807799 103.96 
L 178.807799 103.96 
L 177.363343 103.96 
L 177.363343 103.96 
L 175.918886 103.96 
L 175.918886 103.96 
L 174.474429 103.96 
L 174.474429 103.96 
L 173.029972 103.96 
L 173.029972 103.96 
L 171.585515 103.96 
L 171.585515 103.96 
L 170.141058 103.96 
L 170.141058 103.96 
L 168.696602 103.96 
L 168.696602 103.96 
L 167.252145 103.96 
L 167.252145 103.96 
L 165.807688 103.96 
L 165.807688 103.96 
L 164.363231 103.96 
L 164.363231 103.96 
L 162.918774 103.96 
L 162.918774 103.96 
L 161.474318 103.96 
L 161.474318 103.96 
L 160.029861 103.96 
L 160.029861 103.96 
L 158.585404 103.96 
L 158.585404 103.96 
L 157.140947 103.96 
L 157.140947 103.96 
L 155.69649 103.96 
L 155.69649 103.96 
L 154.252033 103.96 
L 154.252033 103.96 
L 152.807577 103.96 
L 152.807577 103.96 
L 151.36312 103.96 
L 151.36312 103.96 
L 149.918663 103.96 
L 149.918663 103.96 
L 148.474206 103.96 
L 148.474206 103.96 
L 147.029749 103.96 
L 147.029749 103.96 
L 145.585292 103.96 
L 145.585292 103.96 
L 144.140836 103.96 
L 144.140836 103.96 
L 142.696379 103.96 
L 142.696379 103.96 
L 141.251922 103.96 
L 141.251922 103.96 
L 139.807465 103.96 
L 139.807465 103.96 
L 138.363008 103.96 
L 138.363008 103.96 
L 136.918552 103.96 
L 136.918552 103.96 
L 135.474095 103.96 
L 135.474095 103.96 
L 134.029638 103.96 
L 134.029638 103.96 
L 132.585181 103.96 
L 132.585181 103.96 
L 131.140724 103.96 
L 131.140724 103.96 
L 129.696267 103.96 
L 129.696267 103.96 
L 128.251811 103.96 
L 128.251811 103.96 
L 126.807354 103.96 
L 126.807354 103.96 
L 125.362897 103.96 
L 125.362897 103.96 
L 124.640669 103.96 
z
" clip-path="url(#p67776f8a21)" style="fill: #17becf; fill-opacity: 0.6; stroke: #1f77b4; stroke-opacity: 0.8; stroke-width: 1.5"/>
    <path d="M 306.642228 103.96 
L 306.642228 99.979418 
L 307.364457 99.979418 
L 307.364457 100.995739 
L 308.808914 100.995739 
L 308.808914 102.424214 
L 309.531142 102.424214 
L 309.531142 103.96 
L 309.531142 103.96 
L 308.808914 103.96 
L 308.808914 103.96 
L 307.364457 103.96 
L 307.364457 103.96 
L 306.642228 103.96 
z
" clip-path="url(#p67776f8a21)" style="fill: #17becf; fill-opacity: 0.6; stroke: #1f77b4; stroke-opacity: 0.8; stroke-width: 1.5"/>
    <path d="M 342.753649 103.96 
L 342.753649 103.482324 
L 342.753649 103.482324 
L 342.753649 103.96 
L 342.753649 103.96 
L 342.753649 103.96 
z
" clip-path="url(#p67776f8a21)" style="fill: #17becf; fill-opacity: 0.6; stroke: #1f77b4; stroke-opacity: 0.8; stroke-width: 1.5"/>
    <path d="M 357.198217 103.96 
L 357.198217 103.743941 
L 357.920446 103.743941 
L 357.920446 93.145497 
L 359.364903 93.145497 
L 359.364903 98.082009 
L 360.809359 98.082009 
L 360.809359 94.175374 
L 362.253816 94.175374 
L 362.253816 102.763162 
L 363.698273 102.763162 
L 363.698273 97.623434 
L 365.14273 97.623434 
L 365.14273 96.155059 
L 366.587187 96.155059 
L 366.587187 98.306554 
L 368.031643 98.306554 
L 368.031643 96.005978 
L 369.4761 96.005978 
L 369.4761 100.566602 
L 370.920557 100.566602 
L 370.920557 101.660111 
L 371.642786 101.660111 
L 371.642786 103.96 
L 371.642786 103.96 
L 370.920557 103.96 
L 370.920557 103.96 
L 369.4761 103.96 
L 369.4761 103.96 
L 368.031643 103.96 
L 368.031643 103.96 
L 366.587187 103.96 
L 366.587187 103.96 
L 365.14273 103.96 
L 365.14273 103.96 
L 363.698273 103.96 
L 363.698273 103.96 
L 362.253816 103.96 
L 362.253816 103.96 
L 360.809359 103.96 
L 360.809359 103.96 
L 359.364903 103.96 
L 359.364903 103.96 
L 357.920446 103.96 
L 357.920446 103.96 
L 357.198217 103.96 
z
" clip-path="url(#p67776f8a21)" style="fill: #17becf; fill-opacity: 0.6; stroke: #1f77b4; stroke-opacity: 0.8; stroke-width: 1.5"/>
    <path d="M 396.198552 103.96 
L 396.198552 103.894074 
L 396.92078 103.894074 
L 396.92078 97.810193 
L 398.365237 97.810193 
L 398.365237 91.525264 
L 399.809694 91.525264 
L 399.809694 88.934364 
L 401.25415 88.934364 
L 401.25415 90.243736 
L 402.698607 90.243736 
L 402.698607 96.192796 
L 404.143064 96.192796 
L 404.143064 97.47675 
L 405.587521 97.47675 
L 405.587521 99.854685 
L 407.031978 99.854685 
L 407.031978 101.188195 
L 407.754206 101.188195 
L 407.754206 103.96 
L 407.754206 103.96 
L 407.031978 103.96 
L 407.031978 103.96 
L 405.587521 103.96 
L 405.587521 103.96 
L 404.143064 103.96 
L 404.143064 103.96 
L 402.698607 103.96 
L 402.698607 103.96 
L 401.25415 103.96 
L 401.25415 103.96 
L 399.809694 103.96 
L 399.809694 103.96 
L 398.365237 103.96 
L 398.365237 103.96 
L 396.92078 103.96 
L 396.92078 103.96 
L 396.198552 103.96 
z
" clip-path="url(#p67776f8a21)" style="fill: #17becf; fill-opacity: 0.6; stroke: #1f77b4; stroke-opacity: 0.8; stroke-width: 1.5"/>
    <path d="M 410.64312 103.96 
L 410.64312 103.737169 
L 411.365348 103.737169 
L 411.365348 99.6205 
L 412.809805 99.6205 
L 412.809805 93.08279 
L 414.254262 93.08279 
L 414.254262 97.897358 
L 415.698719 97.897358 
L 415.698719 94.0985 
L 417.143175 94.0985 
L 417.143175 97.624113 
L 418.587632 97.624113 
L 418.587632 100.09108 
L 420.032089 100.09108 
L 420.032089 102.253973 
L 420.754318 102.253973 
L 420.754318 103.96 
L 420.754318 103.96 
L 420.032089 103.96 
L 420.032089 103.96 
L 418.587632 103.96 
L 418.587632 103.96 
L 417.143175 103.96 
L 417.143175 103.96 
L 415.698719 103.96 
L 415.698719 103.96 
L 414.254262 103.96 
L 414.254262 103.96 
L 412.809805 103.96 
L 412.809805 103.96 
L 411.365348 103.96 
L 411.365348 103.96 
L 410.64312 103.96 
z
" clip-path="url(#p67776f8a21)" style="fill: #17becf; fill-opacity: 0.6; stroke: #1f77b4; stroke-opacity: 0.8; stroke-width: 1.5"/>
    <path d="M 445.310084 103.96 
L 445.310084 102.031537 
L 446.032312 102.031537 
L 446.032312 90.915464 
L 447.476769 90.915464 
L 447.476769 86.341657 
L 448.921226 86.341657 
L 448.921226 89.51486 
L 450.365682 89.51486 
L 450.365682 90.538521 
L 451.810139 90.538521 
L 451.810139 93.118713 
L 453.254596 93.118713 
L 453.254596 95.524782 
L 454.699053 95.524782 
L 454.699053 92.84289 
L 456.14351 92.84289 
L 456.14351 93.980666 
L 457.587967 93.980666 
L 457.587967 96.546877 
L 459.032423 96.546877 
L 459.032423 95.709932 
L 460.47688 95.709932 
L 460.47688 94.498743 
L 461.921337 94.498743 
L 461.921337 94.695906 
L 463.365794 94.695906 
L 463.365794 102.855277 
L 464.088022 102.855277 
L 464.088022 103.96 
L 464.088022 103.96 
L 463.365794 103.96 
L 463.365794 103.96 
L 461.921337 103.96 
L 461.921337 103.96 
L 460.47688 103.96 
L 460.47688 103.96 
L 459.032423 103.96 
L 459.032423 103.96 
L 457.587967 103.96 
L 457.587967 103.96 
L 456.14351 103.96 
L 456.14351 103.96 
L 454.699053 103.96 
L 454.699053 103.96 
L 453.254596 103.96 
L 453.254596 103.96 
L 451.810139 103.96 
L 451.810139 103.96 
L 450.365682 103.96 
L 450.365682 103.96 
L 448.921226 103.96 
L 448.921226 103.96 
L 447.476769 103.96 
L 447.476769 103.96 
L 446.032312 103.96 
L 446.032312 103.96 
L 445.310084 103.96 
z
" clip-path="url(#p67776f8a21)" style="fill: #17becf; fill-opacity: 0.6; stroke: #1f77b4; stroke-opacity: 0.8; stroke-width: 1.5"/>
    <path d="M 536.310864 103.96 
L 536.310864 99.347345 
L 537.033092 99.347345 
L 537.033092 101.229433 
L 538.477549 101.229433 
L 538.477549 103.447202 
L 539.922006 103.447202 
L 539.922006 103.195322 
L 541.366462 103.195322 
L 541.366462 101.03206 
L 542.810919 101.03206 
L 542.810919 94.577439 
L 544.255376 94.577439 
L 544.255376 97.736247 
L 545.699833 97.736247 
L 545.699833 99.303902 
L 547.14429 99.303902 
L 547.14429 103.436913 
L 548.588747 103.436913 
L 548.588747 98.071734 
L 550.033203 98.071734 
L 550.033203 90.22676 
L 551.47766 90.22676 
L 551.47766 90.271179 
L 552.922117 90.271179 
L 552.922117 89.333877 
L 554.366574 89.333877 
L 554.366574 88.551968 
L 555.811031 88.551968 
L 555.811031 86.251601 
L 557.255487 86.251601 
L 557.255487 87.403264 
L 558.699944 87.403264 
L 558.699944 91.885927 
L 560.144401 91.885927 
L 560.144401 89.341618 
L 561.588858 89.341618 
L 561.588858 90.502249 
L 563.033315 90.502249 
L 563.033315 90.501162 
L 564.477772 90.501162 
L 564.477772 91.827107 
L 565.2 91.827107 
L 565.2 103.96 
L 565.2 103.96 
L 564.477772 103.96 
L 564.477772 103.96 
L 563.033315 103.96 
L 563.033315 103.96 
L 561.588858 103.96 
L 561.588858 103.96 
L 560.144401 103.96 
L 560.144401 103.96 
L 558.699944 103.96 
L 558.699944 103.96 
L 557.255487 103.96 
L 557.255487 103.96 
L 555.811031 103.96 
L 555.811031 103.96 
L 554.366574 103.96 
L 554.366574 103.96 
L 552.922117 103.96 
L 552.922117 103.96 
L 551.47766 103.96 
L 551.47766 103.96 
L 550.033203 103.96 
L 550.033203 103.96 
L 548.588747 103.96 
L 548.588747 103.96 
L 547.14429 103.96 
L 547.14429 103.96 
L 545.699833 103.96 
L 545.699833 103.96 
L 544.255376 103.96 
L 544.255376 103.96 
L 542.810919 103.96 
L 542.810919 103.96 
L 541.366462 103.96 
L 541.366462 103.96 
L 539.922006 103.96 
L 539.922006 103.96 
L 538.477549 103.96 
L 538.477549 103.96 
L 537.033092 103.96 
L 537.033092 103.96 
L 536.310864 103.96 
z
" clip-path="url(#p67776f8a21)" style="fill: #17becf; fill-opacity: 0.6; stroke: #1f77b4; stroke-opacity: 0.8; stroke-width: 1.5"/>
   </g>
   <g id="PolyCollection_2">
    <path d="M 46.64 103.96 
L 46.64 106.308346 
L 47.362228 106.308346 
L 47.362228 104.420749 
L 48.084457 104.420749 
L 48.084457 103.96 
L 48.084457 103.96 
L 47.362228 103.96 
L 47.362228 103.96 
L 46.64 103.96 
z
" clip-path="url(#p67776f8a21)" style="fill: #d62728; fill-opacity: 0.6; stroke: #b22222; stroke-opacity: 0.8; stroke-width: 1.5"/>
    <path d="M 105.86273 103.96 
L 105.86273 107.334982 
L 105.86273 107.334982 
L 105.86273 103.96 
L 105.86273 103.96 
L 105.86273 103.96 
z
" clip-path="url(#p67776f8a21)" style="fill: #d62728; fill-opacity: 0.6; stroke: #b22222; stroke-opacity: 0.8; stroke-width: 1.5"/>
    <path d="M 108.751643 103.96 
L 108.751643 107.890335 
L 109.473872 107.890335 
L 109.473872 114.822974 
L 110.918329 114.822974 
L 110.918329 110.040227 
L 112.362786 110.040227 
L 112.362786 106.174174 
L 113.807242 106.174174 
L 113.807242 105.061571 
L 115.251699 105.061571 
L 115.251699 108.112634 
L 116.696156 108.112634 
L 116.696156 110.984351 
L 118.140613 110.984351 
L 118.140613 111.771958 
L 119.58507 111.771958 
L 119.58507 112.236704 
L 121.029526 112.236704 
L 121.029526 109.074931 
L 122.473983 109.074931 
L 122.473983 104.891619 
L 123.196212 104.891619 
L 123.196212 103.96 
L 123.196212 103.96 
L 122.473983 103.96 
L 122.473983 103.96 
L 121.029526 103.96 
L 121.029526 103.96 
L 119.58507 103.96 
L 119.58507 103.96 
L 118.140613 103.96 
L 118.140613 103.96 
L 116.696156 103.96 
L 116.696156 103.96 
L 115.251699 103.96 
L 115.251699 103.96 
L 113.807242 103.96 
L 113.807242 103.96 
L 112.362786 103.96 
L 112.362786 103.96 
L 110.918329 103.96 
L 110.918329 103.96 
L 109.473872 103.96 
L 109.473872 103.96 
L 108.751643 103.96 
z
" clip-path="url(#p67776f8a21)" style="fill: #d62728; fill-opacity: 0.6; stroke: #b22222; stroke-opacity: 0.8; stroke-width: 1.5"/>
    <path d="M 225.752646 103.96 
L 225.752646 111.225981 
L 226.474875 111.225981 
L 226.474875 108.81357 
L 227.919331 108.81357 
L 227.919331 107.849679 
L 229.363788 107.849679 
L 229.363788 114.476601 
L 230.808245 114.476601 
L 230.808245 116.541539 
L 232.252702 116.541539 
L 232.252702 109.478426 
L 233.697159 109.478426 
L 233.697159 114.562858 
L 235.141616 114.562858 
L 235.141616 113.219627 
L 236.586072 113.219627 
L 236.586072 109.283148 
L 238.030529 109.283148 
L 238.030529 113.538421 
L 239.474986 113.538421 
L 239.474986 115.730629 
L 240.919443 115.730629 
L 240.919443 124.474762 
L 242.3639 124.474762 
L 242.3639 127.823937 
L 243.808357 127.823937 
L 243.808357 120.925539 
L 245.252813 120.925539 
L 245.252813 122.5912 
L 246.69727 122.5912 
L 246.69727 116.204556 
L 248.141727 116.204556 
L 248.141727 124.020069 
L 249.586184 124.020069 
L 249.586184 130.795229 
L 251.030641 130.795229 
L 251.030641 134.324905 
L 252.475097 134.324905 
L 252.475097 144.603439 
L 253.919554 144.603439 
L 253.919554 141.04173 
L 255.364011 141.04173 
L 255.364011 135.995786 
L 256.808468 135.995786 
L 256.808468 125.332642 
L 258.252925 125.332642 
L 258.252925 126.395045 
L 259.697382 126.395045 
L 259.697382 124.882614 
L 261.141838 124.882614 
L 261.141838 132.620164 
L 262.586295 132.620164 
L 262.586295 135.07765 
L 264.030752 135.07765 
L 264.030752 134.064888 
L 265.475209 134.064888 
L 265.475209 132.409784 
L 266.919666 132.409784 
L 266.919666 132.363861 
L 268.364123 132.363861 
L 268.364123 129.849206 
L 269.808579 129.849206 
L 269.808579 131.819568 
L 271.253036 131.819568 
L 271.253036 128.880934 
L 272.697493 128.880934 
L 272.697493 129.698044 
L 274.14195 129.698044 
L 274.14195 136.526492 
L 275.586407 136.526492 
L 275.586407 133.393697 
L 277.030864 133.393697 
L 277.030864 123.628278 
L 278.47532 123.628278 
L 278.47532 119.691119 
L 279.919777 119.691119 
L 279.919777 122.032968 
L 281.364234 122.032968 
L 281.364234 119.157537 
L 282.808691 119.157537 
L 282.808691 107.113684 
L 284.253148 107.113684 
L 284.253148 106.883668 
L 285.697604 106.883668 
L 285.697604 104.030892 
L 287.142061 104.030892 
L 287.142061 104.463074 
L 288.586518 104.463074 
L 288.586518 104.593385 
L 290.030975 104.593385 
L 290.030975 111.877032 
L 291.475432 111.877032 
L 291.475432 108.58786 
L 292.919889 108.58786 
L 292.919889 112.634529 
L 294.364345 112.634529 
L 294.364345 112.977075 
L 295.808802 112.977075 
L 295.808802 104.699116 
L 297.253259 104.699116 
L 297.253259 105.515955 
L 298.697716 105.515955 
L 298.697716 108.806287 
L 300.142173 108.806287 
L 300.142173 105.870978 
L 301.58663 105.870978 
L 301.58663 107.987207 
L 303.031086 107.987207 
L 303.031086 106.842017 
L 304.475543 106.842017 
L 304.475543 104.147359 
L 305.197772 104.147359 
L 305.197772 103.96 
L 305.197772 103.96 
L 304.475543 103.96 
L 304.475543 103.96 
L 303.031086 103.96 
L 303.031086 103.96 
L 301.58663 103.96 
L 301.58663 103.96 
L 300.142173 103.96 
L 300.142173 103.96 
L 298.697716 103.96 
L 298.697716 103.96 
L 297.253259 103.96 
L 297.253259 103.96 
L 295.808802 103.96 
L 295.808802 103.96 
L 294.364345 103.96 
L 294.364345 103.96 
L 292.919889 103.96 
L 292.919889 103.96 
L 291.475432 103.96 
L 291.475432 103.96 
L 290.030975 103.96 
L 290.030975 103.96 
L 288.586518 103.96 
L 288.586518 103.96 
L 287.142061 103.96 
L 287.142061 103.96 
L 285.697604 103.96 
L 285.697604 103.96 
L 284.253148 103.96 
L 284.253148 103.96 
L 282.808691 103.96 
L 282.808691 103.96 
L 281.364234 103.96 
L 281.364234 103.96 
L 279.919777 103.96 
L 279.919777 103.96 
L 278.47532 103.96 
L 278.47532 103.96 
L 277.030864 103.96 
L 277.030864 103.96 
L 275.586407 103.96 
L 275.586407 103.96 
L 274.14195 103.96 
L 274.14195 103.96 
L 272.697493 103.96 
L 272.697493 103.96 
L 271.253036 103.96 
L 271.253036 103.96 
L 269.808579 103.96 
L 269.808579 103.96 
L 268.364123 103.96 
L 268.364123 103.96 
L 266.919666 103.96 
L 266.919666 103.96 
L 265.475209 103.96 
L 265.475209 103.96 
L 264.030752 103.96 
L 264.030752 103.96 
L 262.586295 103.96 
L 262.586295 103.96 
L 261.141838 103.96 
L 261.141838 103.96 
L 259.697382 103.96 
L 259.697382 103.96 
L 258.252925 103.96 
L 258.252925 103.96 
L 256.808468 103.96 
L 256.808468 103.96 
L 255.364011 103.96 
L 255.364011 103.96 
L 253.919554 103.96 
L 253.919554 103.96 
L 252.475097 103.96 
L 252.475097 103.96 
L 251.030641 103.96 
L 251.030641 103.96 
L 249.586184 103.96 
L 249.586184 103.96 
L 248.141727 103.96 
L 248.141727 103.96 
L 246.69727 103.96 
L 246.69727 103.96 
L 245.252813 103.96 
L 245.252813 103.96 
L 243.808357 103.96 
L 243.808357 103.96 
L 242.3639 103.96 
L 242.3639 103.96 
L 240.919443 103.96 
L 240.919443 103.96 
L 239.474986 103.96 
L 239.474986 103.96 
L 238.030529 103.96 
L 238.030529 103.96 
L 236.586072 103.96 
L 236.586072 103.96 
L 235.141616 103.96 
L 235.141616 103.96 
L 233.697159 103.96 
L 233.697159 103.96 
L 232.252702 103.96 
L 232.252702 103.96 
L 230.808245 103.96 
L 230.808245 103.96 
L 229.363788 103.96 
L 229.363788 103.96 
L 227.919331 103.96 
L 227.919331 103.96 
L 226.474875 103.96 
L 226.474875 103.96 
L 225.752646 103.96 
z
" clip-path="url(#p67776f8a21)" style="fill: #d62728; fill-opacity: 0.6; stroke: #b22222; stroke-opacity: 0.8; stroke-width: 1.5"/>
    <path d="M 310.975599 103.96 
L 310.975599 105.80724 
L 311.697827 105.80724 
L 311.697827 108.218928 
L 313.142284 108.218928 
L 313.142284 112.251347 
L 314.586741 112.251347 
L 314.586741 114.116693 
L 316.031198 114.116693 
L 316.031198 108.781709 
L 317.475655 108.781709 
L 317.475655 107.063562 
L 318.920111 107.063562 
L 318.920111 106.150693 
L 320.364568 106.150693 
L 320.364568 104.025692 
L 321.809025 104.025692 
L 321.809025 107.853982 
L 323.253482 107.853982 
L 323.253482 118.916357 
L 324.697939 118.916357 
L 324.697939 117.706283 
L 326.142396 117.706283 
L 326.142396 123.306901 
L 327.586852 123.306901 
L 327.586852 118.887962 
L 329.031309 118.887962 
L 329.031309 117.002929 
L 330.475766 117.002929 
L 330.475766 118.328876 
L 331.920223 118.328876 
L 331.920223 120.029014 
L 333.36468 120.029014 
L 333.36468 120.676457 
L 334.809136 120.676457 
L 334.809136 120.715052 
L 336.253593 120.715052 
L 336.253593 118.854166 
L 337.69805 118.854166 
L 337.69805 119.549151 
L 339.142507 119.549151 
L 339.142507 115.54718 
L 340.586964 115.54718 
L 340.586964 109.898512 
L 341.309192 109.898512 
L 341.309192 103.96 
L 341.309192 103.96 
L 340.586964 103.96 
L 340.586964 103.96 
L 339.142507 103.96 
L 339.142507 103.96 
L 337.69805 103.96 
L 337.69805 103.96 
L 336.253593 103.96 
L 336.253593 103.96 
L 334.809136 103.96 
L 334.809136 103.96 
L 333.36468 103.96 
L 333.36468 103.96 
L 331.920223 103.96 
L 331.920223 103.96 
L 330.475766 103.96 
L 330.475766 103.96 
L 329.031309 103.96 
L 329.031309 103.96 
L 327.586852 103.96 
L 327.586852 103.96 
L 326.142396 103.96 
L 326.142396 103.96 
L 324.697939 103.96 
L 324.697939 103.96 
L 323.253482 103.96 
L 323.253482 103.96 
L 321.809025 103.96 
L 321.809025 103.96 
L 320.364568 103.96 
L 320.364568 103.96 
L 318.920111 103.96 
L 318.920111 103.96 
L 317.475655 103.96 
L 317.475655 103.96 
L 316.031198 103.96 
L 316.031198 103.96 
L 314.586741 103.96 
L 314.586741 103.96 
L 313.142284 103.96 
L 313.142284 103.96 
L 311.697827 103.96 
L 311.697827 103.96 
L 310.975599 103.96 
z
" clip-path="url(#p67776f8a21)" style="fill: #d62728; fill-opacity: 0.6; stroke: #b22222; stroke-opacity: 0.8; stroke-width: 1.5"/>
    <path d="M 344.198106 103.96 
L 344.198106 107.092792 
L 344.920334 107.092792 
L 344.920334 108.321351 
L 346.364791 108.321351 
L 346.364791 109.669771 
L 347.809248 109.669771 
L 347.809248 115.291905 
L 349.253705 115.291905 
L 349.253705 126.026926 
L 350.698162 126.026926 
L 350.698162 123.008247 
L 352.142618 123.008247 
L 352.142618 116.709236 
L 353.587075 116.709236 
L 353.587075 116.364971 
L 355.031532 116.364971 
L 355.031532 111.195557 
L 355.75376 111.195557 
L 355.75376 103.96 
L 355.75376 103.96 
L 355.031532 103.96 
L 355.031532 103.96 
L 353.587075 103.96 
L 353.587075 103.96 
L 352.142618 103.96 
L 352.142618 103.96 
L 350.698162 103.96 
L 350.698162 103.96 
L 349.253705 103.96 
L 349.253705 103.96 
L 347.809248 103.96 
L 347.809248 103.96 
L 346.364791 103.96 
L 346.364791 103.96 
L 344.920334 103.96 
L 344.920334 103.96 
L 344.198106 103.96 
z
" clip-path="url(#p67776f8a21)" style="fill: #d62728; fill-opacity: 0.6; stroke: #b22222; stroke-opacity: 0.8; stroke-width: 1.5"/>
    <path d="M 373.087242 103.96 
L 373.087242 109.201532 
L 373.809471 109.201532 
L 373.809471 114.465613 
L 375.253928 114.465613 
L 375.253928 117.668618 
L 376.698384 117.668618 
L 376.698384 126.39096 
L 378.142841 126.39096 
L 378.142841 129.392585 
L 379.587298 129.392585 
L 379.587298 127.862954 
L 381.031755 127.862954 
L 381.031755 124.104983 
L 382.476212 124.104983 
L 382.476212 118.993393 
L 383.920669 118.993393 
L 383.920669 120.091721 
L 385.365125 120.091721 
L 385.365125 118.391274 
L 386.809582 118.391274 
L 386.809582 126.043647 
L 388.254039 126.043647 
L 388.254039 122.297996 
L 389.698496 122.297996 
L 389.698496 119.405414 
L 391.142953 119.405414 
L 391.142953 121.651695 
L 392.587409 121.651695 
L 392.587409 112.31314 
L 394.031866 112.31314 
L 394.031866 110.531642 
L 394.754095 110.531642 
L 394.754095 103.96 
L 394.754095 103.96 
L 394.031866 103.96 
L 394.031866 103.96 
L 392.587409 103.96 
L 392.587409 103.96 
L 391.142953 103.96 
L 391.142953 103.96 
L 389.698496 103.96 
L 389.698496 103.96 
L 388.254039 103.96 
L 388.254039 103.96 
L 386.809582 103.96 
L 386.809582 103.96 
L 385.365125 103.96 
L 385.365125 103.96 
L 383.920669 103.96 
L 383.920669 103.96 
L 382.476212 103.96 
L 382.476212 103.96 
L 381.031755 103.96 
L 381.031755 103.96 
L 379.587298 103.96 
L 379.587298 103.96 
L 378.142841 103.96 
L 378.142841 103.96 
L 376.698384 103.96 
L 376.698384 103.96 
L 375.253928 103.96 
L 375.253928 103.96 
L 373.809471 103.96 
L 373.809471 103.96 
L 373.087242 103.96 
z
" clip-path="url(#p67776f8a21)" style="fill: #d62728; fill-opacity: 0.6; stroke: #b22222; stroke-opacity: 0.8; stroke-width: 1.5"/>
    <path d="M 409.198663 103.96 
L 409.198663 104.670493 
L 409.198663 104.670493 
L 409.198663 103.96 
L 409.198663 103.96 
L 409.198663 103.96 
z
" clip-path="url(#p67776f8a21)" style="fill: #d62728; fill-opacity: 0.6; stroke: #b22222; stroke-opacity: 0.8; stroke-width: 1.5"/>
    <path d="M 422.198774 103.96 
L 422.198774 106.817678 
L 422.921003 106.817678 
L 422.921003 108.082494 
L 424.36546 108.082494 
L 424.36546 115.107399 
L 425.809916 115.107399 
L 425.809916 110.41238 
L 427.254373 110.41238 
L 427.254373 115.586557 
L 428.69883 115.586557 
L 428.69883 117.30346 
L 430.143287 117.30346 
L 430.143287 120.22673 
L 431.587744 120.22673 
L 431.587744 119.476484 
L 433.032201 119.476484 
L 433.032201 123.165745 
L 434.476657 123.165745 
L 434.476657 128.962033 
L 435.921114 128.962033 
L 435.921114 129.120395 
L 437.365571 129.120395 
L 437.365571 135.675154 
L 438.810028 135.675154 
L 438.810028 117.905227 
L 440.254485 117.905227 
L 440.254485 116.201001 
L 441.698942 116.201001 
L 441.698942 113.679847 
L 443.143398 113.679847 
L 443.143398 107.755958 
L 443.865627 107.755958 
L 443.865627 103.96 
L 443.865627 103.96 
L 443.143398 103.96 
L 443.143398 103.96 
L 441.698942 103.96 
L 441.698942 103.96 
L 440.254485 103.96 
L 440.254485 103.96 
L 438.810028 103.96 
L 438.810028 103.96 
L 437.365571 103.96 
L 437.365571 103.96 
L 435.921114 103.96 
L 435.921114 103.96 
L 434.476657 103.96 
L 434.476657 103.96 
L 433.032201 103.96 
L 433.032201 103.96 
L 431.587744 103.96 
L 431.587744 103.96 
L 430.143287 103.96 
L 430.143287 103.96 
L 428.69883 103.96 
L 428.69883 103.96 
L 427.254373 103.96 
L 427.254373 103.96 
L 425.809916 103.96 
L 425.809916 103.96 
L 424.36546 103.96 
L 424.36546 103.96 
L 422.921003 103.96 
L 422.921003 103.96 
L 422.198774 103.96 
z
" clip-path="url(#p67776f8a21)" style="fill: #d62728; fill-opacity: 0.6; stroke: #b22222; stroke-opacity: 0.8; stroke-width: 1.5"/>
    <path d="M 465.532479 103.96 
L 465.532479 110.569078 
L 466.254708 110.569078 
L 466.254708 118.709108 
L 467.699164 118.709108 
L 467.699164 121.759279 
L 469.143621 121.759279 
L 469.143621 125.439737 
L 470.588078 125.439737 
L 470.588078 118.702505 
L 472.032535 118.702505 
L 472.032535 128.848976 
L 473.476992 128.848976 
L 473.476992 126.340963 
L 474.921448 126.340963 
L 474.921448 125.10359 
L 476.365905 125.10359 
L 476.365905 127.79867 
L 477.810362 127.79867 
L 477.810362 128.47352 
L 479.254819 128.47352 
L 479.254819 135.443555 
L 480.699276 135.443555 
L 480.699276 136.327364 
L 482.143733 136.327364 
L 482.143733 138.953682 
L 483.588189 138.953682 
L 483.588189 139.165176 
L 485.032646 139.165176 
L 485.032646 140.627759 
L 486.477103 140.627759 
L 486.477103 140.153334 
L 487.92156 140.153334 
L 487.92156 130.987536 
L 489.366017 130.987536 
L 489.366017 146.011033 
L 490.810474 146.011033 
L 490.810474 132.478453 
L 492.25493 132.478453 
L 492.25493 126.994715 
L 493.699387 126.994715 
L 493.699387 129.865827 
L 495.143844 129.865827 
L 495.143844 125.666975 
L 496.588301 125.666975 
L 496.588301 128.787629 
L 498.032758 128.787629 
L 498.032758 128.603245 
L 499.477214 128.603245 
L 499.477214 116.911125 
L 500.921671 116.911125 
L 500.921671 114.178126 
L 502.366128 114.178126 
L 502.366128 112.585304 
L 503.810585 112.585304 
L 503.810585 110.267485 
L 505.255042 110.267485 
L 505.255042 118.135362 
L 506.699499 118.135362 
L 506.699499 116.817139 
L 508.143955 116.817139 
L 508.143955 112.471093 
L 509.588412 112.471093 
L 509.588412 114.479813 
L 511.032869 114.479813 
L 511.032869 112.369891 
L 512.477326 112.369891 
L 512.477326 119.845577 
L 513.921783 119.845577 
L 513.921783 126.512122 
L 515.36624 126.512122 
L 515.36624 119.093598 
L 516.810696 119.093598 
L 516.810696 115.195156 
L 518.255153 115.195156 
L 518.255153 111.597226 
L 519.69961 111.597226 
L 519.69961 109.534522 
L 521.144067 109.534522 
L 521.144067 110.473049 
L 522.588524 110.473049 
L 522.588524 111.160802 
L 524.032981 111.160802 
L 524.032981 109.534818 
L 525.477437 109.534818 
L 525.477437 123.327964 
L 526.921894 123.327964 
L 526.921894 121.065276 
L 528.366351 121.065276 
L 528.366351 117.639852 
L 529.810808 117.639852 
L 529.810808 118.477439 
L 531.255265 118.477439 
L 531.255265 117.226059 
L 532.699721 117.226059 
L 532.699721 110.741191 
L 534.144178 110.741191 
L 534.144178 112.190335 
L 534.866407 112.190335 
L 534.866407 103.96 
L 534.866407 103.96 
L 534.144178 103.96 
L 534.144178 103.96 
L 532.699721 103.96 
L 532.699721 103.96 
L 531.255265 103.96 
L 531.255265 103.96 
L 529.810808 103.96 
L 529.810808 103.96 
L 528.366351 103.96 
L 528.366351 103.96 
L 526.921894 103.96 
L 526.921894 103.96 
L 525.477437 103.96 
L 525.477437 103.96 
L 524.032981 103.96 
L 524.032981 103.96 
L 522.588524 103.96 
L 522.588524 103.96 
L 521.144067 103.96 
L 521.144067 103.96 
L 519.69961 103.96 
L 519.69961 103.96 
L 518.255153 103.96 
L 518.255153 103.96 
L 516.810696 103.96 
L 516.810696 103.96 
L 515.36624 103.96 
L 515.36624 103.96 
L 513.921783 103.96 
L 513.921783 103.96 
L 512.477326 103.96 
L 512.477326 103.96 
L 511.032869 103.96 
L 511.032869 103.96 
L 509.588412 103.96 
L 509.588412 103.96 
L 508.143955 103.96 
L 508.143955 103.96 
L 506.699499 103.96 
L 506.699499 103.96 
L 505.255042 103.96 
L 505.255042 103.96 
L 503.810585 103.96 
L 503.810585 103.96 
L 502.366128 103.96 
L 502.366128 103.96 
L 500.921671 103.96 
L 500.921671 103.96 
L 499.477214 103.96 
L 499.477214 103.96 
L 498.032758 103.96 
L 498.032758 103.96 
L 496.588301 103.96 
L 496.588301 103.96 
L 495.143844 103.96 
L 495.143844 103.96 
L 493.699387 103.96 
L 493.699387 103.96 
L 492.25493 103.96 
L 492.25493 103.96 
L 490.810474 103.96 
L 490.810474 103.96 
L 489.366017 103.96 
L 489.366017 103.96 
L 487.92156 103.96 
L 487.92156 103.96 
L 486.477103 103.96 
L 486.477103 103.96 
L 485.032646 103.96 
L 485.032646 103.96 
L 483.588189 103.96 
L 483.588189 103.96 
L 482.143733 103.96 
L 482.143733 103.96 
L 480.699276 103.96 
L 480.699276 103.96 
L 479.254819 103.96 
L 479.254819 103.96 
L 477.810362 103.96 
L 477.810362 103.96 
L 476.365905 103.96 
L 476.365905 103.96 
L 474.921448 103.96 
L 474.921448 103.96 
L 473.476992 103.96 
L 473.476992 103.96 
L 472.032535 103.96 
L 472.032535 103.96 
L 470.588078 103.96 
L 470.588078 103.96 
L 469.143621 103.96 
L 469.143621 103.96 
L 467.699164 103.96 
L 467.699164 103.96 
L 466.254708 103.96 
L 466.254708 103.96 
L 465.532479 103.96 
z
" clip-path="url(#p67776f8a21)" style="fill: #d62728; fill-opacity: 0.6; stroke: #b22222; stroke-opacity: 0.8; stroke-width: 1.5"/>
   </g>
   <g id="matplotlib.axis_1">
    <g id="xtick_1">
     <g id="line2d_1">
      <defs>
       <path id="m3463cab0f3" d="M 0 0 
L 0 3.5 
" style="stroke: #000000; stroke-width: 0.8"/>
      </defs>
      <g>
       <use xlink:href="#m3463cab0f3" x="115.973928" y="169.4" style="stroke: #000000; stroke-width: 0.8"/>
      </g>
     </g>
     <g id="text_1">
      <!-- 1995 -->
      <g transform="translate(103.248928 183.998438) scale(0.1 -0.1)">
       <defs>
        <path id="DejaVuSans-31" d="M 794 531 
L 1825 531 
L 1825 4091 
L 703 3866 
L 703 4441 
L 1819 4666 
L 2450 4666 
L 2450 531 
L 3481 531 
L 3481 0 
L 794 0 
L 794 531 
z
" transform="scale(0.015625)"/>
        <path id="DejaVuSans-39" d="M 703 97 
L 703 672 
Q 941 559 1184 500 
Q 1428 441 1663 441 
Q 2288 441 2617 861 
Q 2947 1281 2994 2138 
Q 2813 1869 2534 1725 
Q 2256 1581 1919 1581 
Q 1219 1581 811 2004 
Q 403 2428 403 3163 
Q 403 3881 828 4315 
Q 1253 4750 1959 4750 
Q 2769 4750 3195 4129 
Q 3622 3509 3622 2328 
Q 3622 1225 3098 567 
Q 2575 -91 1691 -91 
Q 1453 -91 1209 -44 
Q 966 3 703 97 
z
M 1959 2075 
Q 2384 2075 2632 2365 
Q 2881 2656 2881 3163 
Q 2881 3666 2632 3958 
Q 2384 4250 1959 4250 
Q 1534 4250 1286 3958 
Q 1038 3666 1038 3163 
Q 1038 2656 1286 2365 
Q 1534 2075 1959 2075 
z
" transform="scale(0.015625)"/>
        <path id="DejaVuSans-35" d="M 691 4666 
L 3169 4666 
L 3169 4134 
L 1269 4134 
L 1269 2991 
Q 1406 3038 1543 3061 
Q 1681 3084 1819 3084 
Q 2600 3084 3056 2656 
Q 3513 2228 3513 1497 
Q 3513 744 3044 326 
Q 2575 -91 1722 -91 
Q 1428 -91 1123 -41 
Q 819 9 494 109 
L 494 744 
Q 775 591 1075 516 
Q 1375 441 1709 441 
Q 2250 441 2565 725 
Q 2881 1009 2881 1497 
Q 2881 1984 2565 2268 
Q 2250 2553 1709 2553 
Q 1456 2553 1204 2497 
Q 953 2441 691 2322 
L 691 4666 
z
" transform="scale(0.015625)"/>
       </defs>
       <use xlink:href="#DejaVuSans-31"/>
       <use xlink:href="#DejaVuSans-39" x="63.623047"/>
       <use xlink:href="#DejaVuSans-39" x="127.246094"/>
       <use xlink:href="#DejaVuSans-35" x="190.869141"/>
      </g>
     </g>
    </g>
    <g id="xtick_2">
     <g id="line2d_2">
      <g>
       <use xlink:href="#m3463cab0f3" x="202.641337" y="169.4" style="stroke: #000000; stroke-width: 0.8"/>
      </g>
     </g>
     <g id="text_2">
      <!-- 2000 -->
      <g transform="translate(189.916337 183.998438) scale(0.1 -0.1)">
       <defs>
        <path id="DejaVuSans-32" d="M 1228 531 
L 3431 531 
L 3431 0 
L 469 0 
L 469 531 
Q 828 903 1448 1529 
Q 2069 2156 2228 2338 
Q 2531 2678 2651 2914 
Q 2772 3150 2772 3378 
Q 2772 3750 2511 3984 
Q 2250 4219 1831 4219 
Q 1534 4219 1204 4116 
Q 875 4013 500 3803 
L 500 4441 
Q 881 4594 1212 4672 
Q 1544 4750 1819 4750 
Q 2544 4750 2975 4387 
Q 3406 4025 3406 3419 
Q 3406 3131 3298 2873 
Q 3191 2616 2906 2266 
Q 2828 2175 2409 1742 
Q 1991 1309 1228 531 
z
" transform="scale(0.015625)"/>
        <path id="DejaVuSans-30" d="M 2034 4250 
Q 1547 4250 1301 3770 
Q 1056 3291 1056 2328 
Q 1056 1369 1301 889 
Q 1547 409 2034 409 
Q 2525 409 2770 889 
Q 3016 1369 3016 2328 
Q 3016 3291 2770 3770 
Q 2525 4250 2034 4250 
z
M 2034 4750 
Q 2819 4750 3233 4129 
Q 3647 3509 3647 2328 
Q 3647 1150 3233 529 
Q 2819 -91 2034 -91 
Q 1250 -91 836 529 
Q 422 1150 422 2328 
Q 422 3509 836 4129 
Q 1250 4750 2034 4750 
z
" transform="scale(0.015625)"/>
       </defs>
       <use xlink:href="#DejaVuSans-32"/>
       <use xlink:href="#DejaVuSans-30" x="63.623047"/>
       <use xlink:href="#DejaVuSans-30" x="127.246094"/>
       <use xlink:href="#DejaVuSans-30" x="190.869141"/>
      </g>
     </g>
    </g>
    <g id="xtick_3">
     <g id="line2d_3">
      <g>
       <use xlink:href="#m3463cab0f3" x="289.308747" y="169.4" style="stroke: #000000; stroke-width: 0.8"/>
      </g>
     </g>
     <g id="text_3">
      <!-- 2005 -->
      <g transform="translate(276.583747 183.998438) scale(0.1 -0.1)">
       <use xlink:href="#DejaVuSans-32"/>
       <use xlink:href="#DejaVuSans-30" x="63.623047"/>
       <use xlink:href="#DejaVuSans-30" x="127.246094"/>
       <use xlink:href="#DejaVuSans-35" x="190.869141"/>
      </g>
     </g>
    </g>
    <g id="xtick_4">
     <g id="line2d_4">
      <g>
       <use xlink:href="#m3463cab0f3" x="375.976156" y="169.4" style="stroke: #000000; stroke-width: 0.8"/>
      </g>
     </g>
     <g id="text_4">
      <!-- 2010 -->
      <g transform="translate(363.251156 183.998438) scale(0.1 -0.1)">
       <use xlink:href="#DejaVuSans-32"/>
       <use xlink:href="#DejaVuSans-30" x="63.623047"/>
       <use xlink:href="#DejaVuSans-31" x="127.246094"/>
       <use xlink:href="#DejaVuSans-30" x="190.869141"/>
      </g>
     </g>
    </g>
    <g id="xtick_5">
     <g id="line2d_5">
      <g>
       <use xlink:href="#m3463cab0f3" x="462.643565" y="169.4" style="stroke: #000000; stroke-width: 0.8"/>
      </g>
     </g>
     <g id="text_5">
      <!-- 2015 -->
      <g transform="translate(449.918565 183.998438) scale(0.1 -0.1)">
       <use xlink:href="#DejaVuSans-32"/>
       <use xlink:href="#DejaVuSans-30" x="63.623047"/>
       <use xlink:href="#DejaVuSans-31" x="127.246094"/>
       <use xlink:href="#DejaVuSans-35" x="190.869141"/>
      </g>
     </g>
    </g>
    <g id="xtick_6">
     <g id="line2d_6">
      <g>
       <use xlink:href="#m3463cab0f3" x="549.310975" y="169.4" style="stroke: #000000; stroke-width: 0.8"/>
      </g>
     </g>
     <g id="text_6">
      <!-- 2020 -->
      <g transform="translate(536.585975 183.998438) scale(0.1 -0.1)">
       <use xlink:href="#DejaVuSans-32"/>
       <use xlink:href="#DejaVuSans-30" x="63.623047"/>
       <use xlink:href="#DejaVuSans-32" x="127.246094"/>
       <use xlink:href="#DejaVuSans-30" x="190.869141"/>
      </g>
     </g>
    </g>
   </g>
   <g id="matplotlib.axis_2">
    <g id="ytick_1">
     <g id="line2d_7">
      <defs>
       <path id="meff5b489e5" d="M 0 0 
L -3.5 0 
" style="stroke: #000000; stroke-width: 0.8"/>
      </defs>
      <g>
       <use xlink:href="#meff5b489e5" x="46.64" y="169.4" style="stroke: #000000; stroke-width: 0.8"/>
      </g>
     </g>
     <g id="text_7">
      <!-- −3 -->
      <g transform="translate(24.897813 173.199219) scale(0.1 -0.1)">
       <defs>
        <path id="DejaVuSans-2212" d="M 678 2272 
L 4684 2272 
L 4684 1741 
L 678 1741 
L 678 2272 
z
" transform="scale(0.015625)"/>
        <path id="DejaVuSans-33" d="M 2597 2516 
Q 3050 2419 3304 2112 
Q 3559 1806 3559 1356 
Q 3559 666 3084 287 
Q 2609 -91 1734 -91 
Q 1441 -91 1130 -33 
Q 819 25 488 141 
L 488 750 
Q 750 597 1062 519 
Q 1375 441 1716 441 
Q 2309 441 2620 675 
Q 2931 909 2931 1356 
Q 2931 1769 2642 2001 
Q 2353 2234 1838 2234 
L 1294 2234 
L 1294 2753 
L 1863 2753 
Q 2328 2753 2575 2939 
Q 2822 3125 2822 3475 
Q 2822 3834 2567 4026 
Q 2313 4219 1838 4219 
Q 1578 4219 1281 4162 
Q 984 4106 628 3988 
L 628 4550 
Q 988 4650 1302 4700 
Q 1616 4750 1894 4750 
Q 2613 4750 3031 4423 
Q 3450 4097 3450 3541 
Q 3450 3153 3228 2886 
Q 3006 2619 2597 2516 
z
" transform="scale(0.015625)"/>
       </defs>
       <use xlink:href="#DejaVuSans-2212"/>
       <use xlink:href="#DejaVuSans-33" x="83.789062"/>
      </g>
     </g>
    </g>
    <g id="ytick_2">
     <g id="line2d_8">
      <g>
       <use xlink:href="#meff5b489e5" x="46.64" y="147.586667" style="stroke: #000000; stroke-width: 0.8"/>
      </g>
     </g>
     <g id="text_8">
      <!-- −2 -->
      <g transform="translate(24.897813 151.385885) scale(0.1 -0.1)">
       <use xlink:href="#DejaVuSans-2212"/>
       <use xlink:href="#DejaVuSans-32" x="83.789062"/>
      </g>
     </g>
    </g>
    <g id="ytick_3">
     <g id="line2d_9">
      <g>
       <use xlink:href="#meff5b489e5" x="46.64" y="125.773333" style="stroke: #000000; stroke-width: 0.8"/>
      </g>
     </g>
     <g id="text_9">
      <!-- −1 -->
      <g transform="translate(24.897813 129.572552) scale(0.1 -0.1)">
       <use xlink:href="#DejaVuSans-2212"/>
       <use xlink:href="#DejaVuSans-31" x="83.789062"/>
      </g>
     </g>
    </g>
    <g id="ytick_4">
     <g id="line2d_10">
      <g>
       <use xlink:href="#meff5b489e5" x="46.64" y="103.96" style="stroke: #000000; stroke-width: 0.8"/>
      </g>
     </g>
     <g id="text_10">
      <!-- 0 -->
      <g transform="translate(33.2775 107.759219) scale(0.1 -0.1)">
       <use xlink:href="#DejaVuSans-30"/>
      </g>
     </g>
    </g>
    <g id="ytick_5">
     <g id="line2d_11">
      <g>
       <use xlink:href="#meff5b489e5" x="46.64" y="82.146667" style="stroke: #000000; stroke-width: 0.8"/>
      </g>
     </g>
     <g id="text_11">
      <!-- 1 -->
      <g transform="translate(33.2775 85.945885) scale(0.1 -0.1)">
       <use xlink:href="#DejaVuSans-31"/>
      </g>
     </g>
    </g>
    <g id="ytick_6">
     <g id="line2d_12">
      <g>
       <use xlink:href="#meff5b489e5" x="46.64" y="60.333333" style="stroke: #000000; stroke-width: 0.8"/>
      </g>
     </g>
     <g id="text_12">
      <!-- 2 -->
      <g transform="translate(33.2775 64.132552) scale(0.1 -0.1)">
       <use xlink:href="#DejaVuSans-32"/>
      </g>
     </g>
    </g>
    <g id="ytick_7">
     <g id="line2d_13">
      <g>
       <use xlink:href="#meff5b489e5" x="46.64" y="38.52" style="stroke: #000000; stroke-width: 0.8"/>
      </g>
     </g>
     <g id="text_13">
      <!-- 3 -->
      <g transform="translate(33.2775 42.319219) scale(0.1 -0.1)">
       <use xlink:href="#DejaVuSans-33"/>
      </g>
     </g>
    </g>
    <g id="text_14">
     <!-- Bitterroot -->
     <g transform="translate(18.818125 127.76625) rotate(-90) scale(0.1 -0.1)">
      <defs>
       <path id="DejaVuSans-42" d="M 1259 2228 
L 1259 519 
L 2272 519 
Q 2781 519 3026 730 
Q 3272 941 3272 1375 
Q 3272 1813 3026 2020 
Q 2781 2228 2272 2228 
L 1259 2228 
z
M 1259 4147 
L 1259 2741 
L 2194 2741 
Q 2656 2741 2882 2914 
Q 3109 3088 3109 3444 
Q 3109 3797 2882 3972 
Q 2656 4147 2194 4147 
L 1259 4147 
z
M 628 4666 
L 2241 4666 
Q 2963 4666 3353 4366 
Q 3744 4066 3744 3513 
Q 3744 3084 3544 2831 
Q 3344 2578 2956 2516 
Q 3422 2416 3680 2098 
Q 3938 1781 3938 1306 
Q 3938 681 3513 340 
Q 3088 0 2303 0 
L 628 0 
L 628 4666 
z
" transform="scale(0.015625)"/>
       <path id="DejaVuSans-69" d="M 603 3500 
L 1178 3500 
L 1178 0 
L 603 0 
L 603 3500 
z
M 603 4863 
L 1178 4863 
L 1178 4134 
L 603 4134 
L 603 4863 
z
" transform="scale(0.015625)"/>
       <path id="DejaVuSans-74" d="M 1172 4494 
L 1172 3500 
L 2356 3500 
L 2356 3053 
L 1172 3053 
L 1172 1153 
Q 1172 725 1289 603 
Q 1406 481 1766 481 
L 2356 481 
L 2356 0 
L 1766 0 
Q 1100 0 847 248 
Q 594 497 594 1153 
L 594 3053 
L 172 3053 
L 172 3500 
L 594 3500 
L 594 4494 
L 1172 4494 
z
" transform="scale(0.015625)"/>
       <path id="DejaVuSans-65" d="M 3597 1894 
L 3597 1613 
L 953 1613 
Q 991 1019 1311 708 
Q 1631 397 2203 397 
Q 2534 397 2845 478 
Q 3156 559 3463 722 
L 3463 178 
Q 3153 47 2828 -22 
Q 2503 -91 2169 -91 
Q 1331 -91 842 396 
Q 353 884 353 1716 
Q 353 2575 817 3079 
Q 1281 3584 2069 3584 
Q 2775 3584 3186 3129 
Q 3597 2675 3597 1894 
z
M 3022 2063 
Q 3016 2534 2758 2815 
Q 2500 3097 2075 3097 
Q 1594 3097 1305 2825 
Q 1016 2553 972 2059 
L 3022 2063 
z
" transform="scale(0.015625)"/>
       <path id="DejaVuSans-72" d="M 2631 2963 
Q 2534 3019 2420 3045 
Q 2306 3072 2169 3072 
Q 1681 3072 1420 2755 
Q 1159 2438 1159 1844 
L 1159 0 
L 581 0 
L 581 3500 
L 1159 3500 
L 1159 2956 
Q 1341 3275 1631 3429 
Q 1922 3584 2338 3584 
Q 2397 3584 2469 3576 
Q 2541 3569 2628 3553 
L 2631 2963 
z
" transform="scale(0.015625)"/>
       <path id="DejaVuSans-6f" d="M 1959 3097 
Q 1497 3097 1228 2736 
Q 959 2375 959 1747 
Q 959 1119 1226 758 
Q 1494 397 1959 397 
Q 2419 397 2687 759 
Q 2956 1122 2956 1747 
Q 2956 2369 2687 2733 
Q 2419 3097 1959 3097 
z
M 1959 3584 
Q 2709 3584 3137 3096 
Q 3566 2609 3566 1747 
Q 3566 888 3137 398 
Q 2709 -91 1959 -91 
Q 1206 -91 779 398 
Q 353 888 353 1747 
Q 353 2609 779 3096 
Q 1206 3584 1959 3584 
z
" transform="scale(0.015625)"/>
      </defs>
      <use xlink:href="#DejaVuSans-42"/>
      <use xlink:href="#DejaVuSans-69" x="68.603516"/>
      <use xlink:href="#DejaVuSans-74" x="96.386719"/>
      <use xlink:href="#DejaVuSans-74" x="135.595703"/>
      <use xlink:href="#DejaVuSans-65" x="174.804688"/>
      <use xlink:href="#DejaVuSans-72" x="236.328125"/>
      <use xlink:href="#DejaVuSans-72" x="275.691406"/>
      <use xlink:href="#DejaVuSans-6f" x="314.554688"/>
      <use xlink:href="#DejaVuSans-6f" x="375.736328"/>
      <use xlink:href="#DejaVuSans-74" x="436.917969"/>
     </g>
    </g>
   </g>
   <g id="line2d_14">
    <path d="M 46.64 103.96 
L 565.2 103.96 
" clip-path="url(#p67776f8a21)" style="fill: none; stroke: #000000; stroke-width: 1.5; stroke-linecap: square"/>
   </g>
   <g id="patch_3">
    <path d="M 46.64 169.4 
L 46.64 38.52 
" style="fill: none; stroke: #000000; stroke-width: 0.8; stroke-linejoin: miter; stroke-linecap: square"/>
   </g>
   <g id="patch_4">
    <path d="M 46.64 169.4 
L 565.2 169.4 
" style="fill: none; stroke: #000000; stroke-width: 0.8; stroke-linejoin: miter; stroke-linecap: square"/>
   </g>
  </g>
  <g id="axes_2">
   <g id="patch_5">
    <path d="M 46.64 332.12 
L 565.2 332.12 
L 565.2 201.24 
L 46.64 201.24 
z
" style="fill: #ffffff"/>
   </g>
   <g id="PolyCollection_3">
    <path d="M 72.640223 266.68 
L 72.640223 263.63126 
L 73.362451 263.63126 
L 73.362451 262.670632 
L 74.08468 262.670632 
L 74.08468 266.68 
L 74.08468 266.68 
L 73.362451 266.68 
L 73.362451 266.68 
L 72.640223 266.68 
z
" clip-path="url(#pcf9154201f)" style="fill: #17becf; fill-opacity: 0.6; stroke: #1f77b4; stroke-opacity: 0.8; stroke-width: 1.5"/>
    <path d="M 76.973593 266.68 
L 76.973593 266.338434 
L 76.973593 266.338434 
L 76.973593 266.68 
L 76.973593 266.68 
L 76.973593 266.68 
z
" clip-path="url(#pcf9154201f)" style="fill: #17becf; fill-opacity: 0.6; stroke: #1f77b4; stroke-opacity: 0.8; stroke-width: 1.5"/>
    <path d="M 81.306964 266.68 
L 81.306964 265.770906 
L 82.029192 265.770906 
L 82.029192 265.012823 
L 83.473649 265.012823 
L 83.473649 264.21767 
L 84.918106 264.21767 
L 84.918106 264.204486 
L 86.362563 264.204486 
L 86.362563 260.383812 
L 87.807019 260.383812 
L 87.807019 262.517805 
L 89.251476 262.517805 
L 89.251476 254.189761 
L 90.695933 254.189761 
L 90.695933 251.287813 
L 92.14039 251.287813 
L 92.14039 250.662919 
L 93.584847 250.662919 
L 93.584847 250.257773 
L 95.029304 250.257773 
L 95.029304 249.593894 
L 96.47376 249.593894 
L 96.47376 249.483394 
L 97.918217 249.483394 
L 97.918217 251.973688 
L 99.362674 251.973688 
L 99.362674 251.890093 
L 100.807131 251.890093 
L 100.807131 249.593899 
L 102.251588 249.593899 
L 102.251588 252.724929 
L 103.696045 252.724929 
L 103.696045 254.248501 
L 105.140501 254.248501 
L 105.140501 257.96384 
L 106.584958 257.96384 
L 106.584958 256.283328 
L 108.029415 256.283328 
L 108.029415 255.813556 
L 109.473872 255.813556 
L 109.473872 256.212132 
L 110.918329 256.212132 
L 110.918329 255.134937 
L 112.362786 255.134937 
L 112.362786 254.189614 
L 113.807242 254.189614 
L 113.807242 252.113833 
L 115.251699 252.113833 
L 115.251699 249.593899 
L 116.696156 249.593899 
L 116.696156 254.333109 
L 118.140613 254.333109 
L 118.140613 254.189761 
L 119.58507 254.189761 
L 119.58507 251.40619 
L 121.029526 251.40619 
L 121.029526 245.177908 
L 122.473983 245.177908 
L 122.473983 245.405216 
L 123.91844 245.405216 
L 123.91844 236.507086 
L 125.362897 236.507086 
L 125.362897 236.159166 
L 126.807354 236.159166 
L 126.807354 236.166053 
L 128.251811 236.166053 
L 128.251811 235.560501 
L 129.696267 235.560501 
L 129.696267 230.792554 
L 131.140724 230.792554 
L 131.140724 230.82341 
L 132.585181 230.82341 
L 132.585181 230.792454 
L 134.029638 230.792454 
L 134.029638 232.29243 
L 135.474095 232.29243 
L 135.474095 220.250578 
L 136.918552 220.250578 
L 136.918552 235.050046 
L 138.363008 235.050046 
L 138.363008 222.194564 
L 139.807465 222.194564 
L 139.807465 237.818949 
L 141.251922 237.818949 
L 141.251922 230.792454 
L 142.696379 230.792454 
L 142.696379 232.757002 
L 144.140836 232.757002 
L 144.140836 232.506091 
L 145.585292 232.506091 
L 145.585292 238.885052 
L 147.029749 238.885052 
L 147.029749 236.522506 
L 148.474206 236.522506 
L 148.474206 237.213038 
L 149.918663 237.213038 
L 149.918663 236.507086 
L 151.36312 236.507086 
L 151.36312 240.744556 
L 152.807577 240.744556 
L 152.807577 240.679979 
L 154.252033 240.679979 
L 154.252033 243.591474 
L 155.69649 243.591474 
L 155.69649 251.963247 
L 157.140947 251.963247 
L 157.140947 254.041647 
L 158.585404 254.041647 
L 158.585404 249.593899 
L 160.029861 249.593899 
L 160.029861 244.412664 
L 161.474318 244.412664 
L 161.474318 242.148166 
L 162.918774 242.148166 
L 162.918774 240.108613 
L 164.363231 240.108613 
L 164.363231 240.66786 
L 165.807688 240.66786 
L 165.807688 240.090715 
L 167.252145 240.090715 
L 167.252145 240.679979 
L 168.696602 240.679979 
L 168.696602 235.571276 
L 170.141058 235.571276 
L 170.141058 230.792454 
L 171.585515 230.792454 
L 171.585515 227.78272 
L 173.029972 227.78272 
L 173.029972 229.911822 
L 174.474429 229.911822 
L 174.474429 227.087243 
L 175.918886 227.087243 
L 175.918886 220.250578 
L 177.363343 220.250578 
L 177.363343 220.250578 
L 178.807799 220.250578 
L 178.807799 220.250578 
L 180.252256 220.250578 
L 180.252256 220.424212 
L 181.696713 220.424212 
L 181.696713 220.250578 
L 183.14117 220.250578 
L 183.14117 220.250578 
L 184.585627 220.250578 
L 184.585627 220.250578 
L 186.030084 220.250578 
L 186.030084 220.328279 
L 187.47454 220.328279 
L 187.47454 236.507086 
L 188.918997 236.507086 
L 188.918997 237.703041 
L 190.363454 237.703041 
L 190.363454 236.639868 
L 191.807911 236.639868 
L 191.807911 241.330414 
L 193.252368 241.330414 
L 193.252368 244.071975 
L 194.696825 244.071975 
L 194.696825 240.149822 
L 196.141281 240.149822 
L 196.141281 242.4183 
L 197.585738 242.4183 
L 197.585738 245.493407 
L 199.030195 245.493407 
L 199.030195 246.990812 
L 200.474652 246.990812 
L 200.474652 247.116408 
L 201.919109 247.116408 
L 201.919109 246.990805 
L 203.363565 246.990805 
L 203.363565 248.792196 
L 204.808022 248.792196 
L 204.808022 251.973688 
L 206.252479 251.973688 
L 206.252479 253.117074 
L 207.696936 253.117074 
L 207.696936 249.526433 
L 209.141393 249.526433 
L 209.141393 250.595518 
L 210.58585 250.595518 
L 210.58585 251.973688 
L 212.030306 251.973688 
L 212.030306 254.676132 
L 213.474763 254.676132 
L 213.474763 254.264825 
L 214.91922 254.264825 
L 214.91922 254.01076 
L 216.363677 254.01076 
L 216.363677 256.283255 
L 217.808134 256.283255 
L 217.808134 256.283315 
L 219.252591 256.283315 
L 219.252591 254.189761 
L 220.697047 254.189761 
L 220.697047 256.126689 
L 222.141504 256.126689 
L 222.141504 256.283328 
L 223.585961 256.283328 
L 223.585961 258.79547 
L 224.308189 258.79547 
L 224.308189 266.68 
L 224.308189 266.68 
L 223.585961 266.68 
L 223.585961 266.68 
L 222.141504 266.68 
L 222.141504 266.68 
L 220.697047 266.68 
L 220.697047 266.68 
L 219.252591 266.68 
L 219.252591 266.68 
L 217.808134 266.68 
L 217.808134 266.68 
L 216.363677 266.68 
L 216.363677 266.68 
L 214.91922 266.68 
L 214.91922 266.68 
L 213.474763 266.68 
L 213.474763 266.68 
L 212.030306 266.68 
L 212.030306 266.68 
L 210.58585 266.68 
L 210.58585 266.68 
L 209.141393 266.68 
L 209.141393 266.68 
L 207.696936 266.68 
L 207.696936 266.68 
L 206.252479 266.68 
L 206.252479 266.68 
L 204.808022 266.68 
L 204.808022 266.68 
L 203.363565 266.68 
L 203.363565 266.68 
L 201.919109 266.68 
L 201.919109 266.68 
L 200.474652 266.68 
L 200.474652 266.68 
L 199.030195 266.68 
L 199.030195 266.68 
L 197.585738 266.68 
L 197.585738 266.68 
L 196.141281 266.68 
L 196.141281 266.68 
L 194.696825 266.68 
L 194.696825 266.68 
L 193.252368 266.68 
L 193.252368 266.68 
L 191.807911 266.68 
L 191.807911 266.68 
L 190.363454 266.68 
L 190.363454 266.68 
L 188.918997 266.68 
L 188.918997 266.68 
L 187.47454 266.68 
L 187.47454 266.68 
L 186.030084 266.68 
L 186.030084 266.68 
L 184.585627 266.68 
L 184.585627 266.68 
L 183.14117 266.68 
L 183.14117 266.68 
L 181.696713 266.68 
L 181.696713 266.68 
L 180.252256 266.68 
L 180.252256 266.68 
L 178.807799 266.68 
L 178.807799 266.68 
L 177.363343 266.68 
L 177.363343 266.68 
L 175.918886 266.68 
L 175.918886 266.68 
L 174.474429 266.68 
L 174.474429 266.68 
L 173.029972 266.68 
L 173.029972 266.68 
L 171.585515 266.68 
L 171.585515 266.68 
L 170.141058 266.68 
L 170.141058 266.68 
L 168.696602 266.68 
L 168.696602 266.68 
L 167.252145 266.68 
L 167.252145 266.68 
L 165.807688 266.68 
L 165.807688 266.68 
L 164.363231 266.68 
L 164.363231 266.68 
L 162.918774 266.68 
L 162.918774 266.68 
L 161.474318 266.68 
L 161.474318 266.68 
L 160.029861 266.68 
L 160.029861 266.68 
L 158.585404 266.68 
L 158.585404 266.68 
L 157.140947 266.68 
L 157.140947 266.68 
L 155.69649 266.68 
L 155.69649 266.68 
L 154.252033 266.68 
L 154.252033 266.68 
L 152.807577 266.68 
L 152.807577 266.68 
L 151.36312 266.68 
L 151.36312 266.68 
L 149.918663 266.68 
L 149.918663 266.68 
L 148.474206 266.68 
L 148.474206 266.68 
L 147.029749 266.68 
L 147.029749 266.68 
L 145.585292 266.68 
L 145.585292 266.68 
L 144.140836 266.68 
L 144.140836 266.68 
L 142.696379 266.68 
L 142.696379 266.68 
L 141.251922 266.68 
L 141.251922 266.68 
L 139.807465 266.68 
L 139.807465 266.68 
L 138.363008 266.68 
L 138.363008 266.68 
L 136.918552 266.68 
L 136.918552 266.68 
L 135.474095 266.68 
L 135.474095 266.68 
L 134.029638 266.68 
L 134.029638 266.68 
L 132.585181 266.68 
L 132.585181 266.68 
L 131.140724 266.68 
L 131.140724 266.68 
L 129.696267 266.68 
L 129.696267 266.68 
L 128.251811 266.68 
L 128.251811 266.68 
L 126.807354 266.68 
L 126.807354 266.68 
L 125.362897 266.68 
L 125.362897 266.68 
L 123.91844 266.68 
L 123.91844 266.68 
L 122.473983 266.68 
L 122.473983 266.68 
L 121.029526 266.68 
L 121.029526 266.68 
L 119.58507 266.68 
L 119.58507 266.68 
L 118.140613 266.68 
L 118.140613 266.68 
L 116.696156 266.68 
L 116.696156 266.68 
L 115.251699 266.68 
L 115.251699 266.68 
L 113.807242 266.68 
L 113.807242 266.68 
L 112.362786 266.68 
L 112.362786 266.68 
L 110.918329 266.68 
L 110.918329 266.68 
L 109.473872 266.68 
L 109.473872 266.68 
L 108.029415 266.68 
L 108.029415 266.68 
L 106.584958 266.68 
L 106.584958 266.68 
L 105.140501 266.68 
L 105.140501 266.68 
L 103.696045 266.68 
L 103.696045 266.68 
L 102.251588 266.68 
L 102.251588 266.68 
L 100.807131 266.68 
L 100.807131 266.68 
L 99.362674 266.68 
L 99.362674 266.68 
L 97.918217 266.68 
L 97.918217 266.68 
L 96.47376 266.68 
L 96.47376 266.68 
L 95.029304 266.68 
L 95.029304 266.68 
L 93.584847 266.68 
L 93.584847 266.68 
L 92.14039 266.68 
L 92.14039 266.68 
L 90.695933 266.68 
L 90.695933 266.68 
L 89.251476 266.68 
L 89.251476 266.68 
L 87.807019 266.68 
L 87.807019 266.68 
L 86.362563 266.68 
L 86.362563 266.68 
L 84.918106 266.68 
L 84.918106 266.68 
L 83.473649 266.68 
L 83.473649 266.68 
L 82.029192 266.68 
L 82.029192 266.68 
L 81.306964 266.68 
z
" clip-path="url(#pcf9154201f)" style="fill: #17becf; fill-opacity: 0.6; stroke: #1f77b4; stroke-opacity: 0.8; stroke-width: 1.5"/>
    <path d="M 297.975487 266.68 
L 297.975487 262.415876 
L 298.697716 262.415876 
L 298.697716 261.904469 
L 300.142173 261.904469 
L 300.142173 262.248185 
L 301.58663 262.248185 
L 301.58663 262.389207 
L 303.031086 262.389207 
L 303.031086 260.216631 
L 304.475543 260.216631 
L 304.475543 260.216041 
L 305.92 260.216041 
L 305.92 258.284548 
L 307.364457 258.284548 
L 307.364457 258.286959 
L 308.808914 258.286959 
L 308.808914 260.216616 
L 310.25337 260.216616 
L 310.25337 260.405886 
L 311.697827 260.405886 
L 311.697827 260.859197 
L 313.142284 260.859197 
L 313.142284 266.186406 
L 313.864513 266.186406 
L 313.864513 266.68 
L 313.864513 266.68 
L 313.142284 266.68 
L 313.142284 266.68 
L 311.697827 266.68 
L 311.697827 266.68 
L 310.25337 266.68 
L 310.25337 266.68 
L 308.808914 266.68 
L 308.808914 266.68 
L 307.364457 266.68 
L 307.364457 266.68 
L 305.92 266.68 
L 305.92 266.68 
L 304.475543 266.68 
L 304.475543 266.68 
L 303.031086 266.68 
L 303.031086 266.68 
L 301.58663 266.68 
L 301.58663 266.68 
L 300.142173 266.68 
L 300.142173 266.68 
L 298.697716 266.68 
L 298.697716 266.68 
L 297.975487 266.68 
z
" clip-path="url(#pcf9154201f)" style="fill: #17becf; fill-opacity: 0.6; stroke: #1f77b4; stroke-opacity: 0.8; stroke-width: 1.5"/>
    <path d="M 316.753426 266.68 
L 316.753426 266.12527 
L 317.475655 266.12527 
L 317.475655 265.147239 
L 318.920111 265.147239 
L 318.920111 261.372481 
L 320.364568 261.372481 
L 320.364568 263.681073 
L 321.809025 263.681073 
L 321.809025 265.499715 
L 323.253482 265.499715 
L 323.253482 263.945023 
L 323.97571 263.945023 
L 323.97571 266.68 
L 323.97571 266.68 
L 323.253482 266.68 
L 323.253482 266.68 
L 321.809025 266.68 
L 321.809025 266.68 
L 320.364568 266.68 
L 320.364568 266.68 
L 318.920111 266.68 
L 318.920111 266.68 
L 317.475655 266.68 
L 317.475655 266.68 
L 316.753426 266.68 
z
" clip-path="url(#pcf9154201f)" style="fill: #17becf; fill-opacity: 0.6; stroke: #1f77b4; stroke-opacity: 0.8; stroke-width: 1.5"/>
    <path d="M 329.753538 266.68 
L 329.753538 265.708122 
L 329.753538 265.708122 
L 329.753538 266.68 
L 329.753538 266.68 
L 329.753538 266.68 
z
" clip-path="url(#pcf9154201f)" style="fill: #17becf; fill-opacity: 0.6; stroke: #1f77b4; stroke-opacity: 0.8; stroke-width: 1.5"/>
    <path d="M 334.086908 266.68 
L 334.086908 264.328952 
L 334.809136 264.328952 
L 334.809136 264.430096 
L 336.253593 264.430096 
L 336.253593 264.338206 
L 337.69805 264.338206 
L 337.69805 265.771721 
L 339.142507 265.771721 
L 339.142507 264.446648 
L 340.586964 264.446648 
L 340.586964 260.216616 
L 342.031421 260.216616 
L 342.031421 261.476603 
L 343.475877 261.476603 
L 343.475877 262.098203 
L 344.920334 262.098203 
L 344.920334 265.711713 
L 346.364791 265.711713 
L 346.364791 265.350608 
L 347.087019 265.350608 
L 347.087019 266.68 
L 347.087019 266.68 
L 346.364791 266.68 
L 346.364791 266.68 
L 344.920334 266.68 
L 344.920334 266.68 
L 343.475877 266.68 
L 343.475877 266.68 
L 342.031421 266.68 
L 342.031421 266.68 
L 340.586964 266.68 
L 340.586964 266.68 
L 339.142507 266.68 
L 339.142507 266.68 
L 337.69805 266.68 
L 337.69805 266.68 
L 336.253593 266.68 
L 336.253593 266.68 
L 334.809136 266.68 
L 334.809136 266.68 
L 334.086908 266.68 
z
" clip-path="url(#pcf9154201f)" style="fill: #17becf; fill-opacity: 0.6; stroke: #1f77b4; stroke-opacity: 0.8; stroke-width: 1.5"/>
    <path d="M 399.087465 266.68 
L 399.087465 261.957766 
L 399.809694 261.957766 
L 399.809694 261.817114 
L 401.25415 261.817114 
L 401.25415 260.216616 
L 402.698607 260.216616 
L 402.698607 265.753043 
L 403.420836 265.753043 
L 403.420836 266.68 
L 403.420836 266.68 
L 402.698607 266.68 
L 402.698607 266.68 
L 401.25415 266.68 
L 401.25415 266.68 
L 399.809694 266.68 
L 399.809694 266.68 
L 399.087465 266.68 
z
" clip-path="url(#pcf9154201f)" style="fill: #17becf; fill-opacity: 0.6; stroke: #1f77b4; stroke-opacity: 0.8; stroke-width: 1.5"/>
    <path d="M 412.087577 266.68 
L 412.087577 265.463029 
L 412.809805 265.463029 
L 412.809805 265.500086 
L 413.532033 265.500086 
L 413.532033 266.68 
L 413.532033 266.68 
L 412.809805 266.68 
L 412.809805 266.68 
L 412.087577 266.68 
z
" clip-path="url(#pcf9154201f)" style="fill: #17becf; fill-opacity: 0.6; stroke: #1f77b4; stroke-opacity: 0.8; stroke-width: 1.5"/>
    <path d="M 501.6439 266.68 
L 501.6439 266.133408 
L 502.366128 266.133408 
L 502.366128 264.079065 
L 503.810585 264.079065 
L 503.810585 264.059711 
L 505.255042 264.059711 
L 505.255042 265.77091 
L 505.97727 265.77091 
L 505.97727 266.68 
L 505.97727 266.68 
L 505.255042 266.68 
L 505.255042 266.68 
L 503.810585 266.68 
L 503.810585 266.68 
L 502.366128 266.68 
L 502.366128 266.68 
L 501.6439 266.68 
z
" clip-path="url(#pcf9154201f)" style="fill: #17becf; fill-opacity: 0.6; stroke: #1f77b4; stroke-opacity: 0.8; stroke-width: 1.5"/>
    <path d="M 508.866184 266.68 
L 508.866184 261.163066 
L 509.588412 261.163066 
L 509.588412 265.499208 
L 511.032869 265.499208 
L 511.032869 262.365535 
L 512.477326 262.365535 
L 512.477326 262.098187 
L 513.921783 262.098187 
L 513.921783 262.098203 
L 515.36624 262.098203 
L 515.36624 260.845541 
L 516.810696 260.845541 
L 516.810696 258.284548 
L 518.255153 258.284548 
L 518.255153 257.297179 
L 519.69961 257.297179 
L 519.69961 256.181746 
L 521.144067 256.181746 
L 521.144067 260.324726 
L 522.588524 260.324726 
L 522.588524 258.284548 
L 524.032981 258.284548 
L 524.032981 258.272745 
L 525.477437 258.272745 
L 525.477437 258.28779 
L 526.921894 258.28779 
L 526.921894 259.871579 
L 528.366351 259.871579 
L 528.366351 258.284548 
L 529.810808 258.284548 
L 529.810808 258.285167 
L 531.255265 258.285167 
L 531.255265 256.283328 
L 532.699721 256.283328 
L 532.699721 247.97128 
L 534.144178 247.97128 
L 534.144178 246.990805 
L 535.588635 246.990805 
L 535.588635 245.494644 
L 537.033092 245.494644 
L 537.033092 246.125646 
L 538.477549 246.125646 
L 538.477549 248.614295 
L 539.922006 248.614295 
L 539.922006 246.990805 
L 541.366462 246.990805 
L 541.366462 246.753117 
L 542.810919 246.753117 
L 542.810919 246.742609 
L 544.255376 246.742609 
L 544.255376 244.272242 
L 545.699833 244.272242 
L 545.699833 244.071975 
L 547.14429 244.071975 
L 547.14429 244.071199 
L 548.588747 244.071199 
L 548.588747 244.071975 
L 550.033203 244.071975 
L 550.033203 243.898197 
L 551.47766 243.898197 
L 551.47766 244.071975 
L 552.922117 244.071975 
L 552.922117 239.755687 
L 554.366574 239.755687 
L 554.366574 240.572521 
L 555.811031 240.572521 
L 555.811031 241.137528 
L 557.255487 241.137528 
L 557.255487 240.679979 
L 558.699944 240.679979 
L 558.699944 250.068592 
L 560.144401 250.068592 
L 560.144401 250.950159 
L 561.588858 250.950159 
L 561.588858 251.821621 
L 563.033315 251.821621 
L 563.033315 251.973925 
L 564.477772 251.973925 
L 564.477772 254.054604 
L 565.2 254.054604 
L 565.2 266.68 
L 565.2 266.68 
L 564.477772 266.68 
L 564.477772 266.68 
L 563.033315 266.68 
L 563.033315 266.68 
L 561.588858 266.68 
L 561.588858 266.68 
L 560.144401 266.68 
L 560.144401 266.68 
L 558.699944 266.68 
L 558.699944 266.68 
L 557.255487 266.68 
L 557.255487 266.68 
L 555.811031 266.68 
L 555.811031 266.68 
L 554.366574 266.68 
L 554.366574 266.68 
L 552.922117 266.68 
L 552.922117 266.68 
L 551.47766 266.68 
L 551.47766 266.68 
L 550.033203 266.68 
L 550.033203 266.68 
L 548.588747 266.68 
L 548.588747 266.68 
L 547.14429 266.68 
L 547.14429 266.68 
L 545.699833 266.68 
L 545.699833 266.68 
L 544.255376 266.68 
L 544.255376 266.68 
L 542.810919 266.68 
L 542.810919 266.68 
L 541.366462 266.68 
L 541.366462 266.68 
L 539.922006 266.68 
L 539.922006 266.68 
L 538.477549 266.68 
L 538.477549 266.68 
L 537.033092 266.68 
L 537.033092 266.68 
L 535.588635 266.68 
L 535.588635 266.68 
L 534.144178 266.68 
L 534.144178 266.68 
L 532.699721 266.68 
L 532.699721 266.68 
L 531.255265 266.68 
L 531.255265 266.68 
L 529.810808 266.68 
L 529.810808 266.68 
L 528.366351 266.68 
L 528.366351 266.68 
L 526.921894 266.68 
L 526.921894 266.68 
L 525.477437 266.68 
L 525.477437 266.68 
L 524.032981 266.68 
L 524.032981 266.68 
L 522.588524 266.68 
L 522.588524 266.68 
L 521.144067 266.68 
L 521.144067 266.68 
L 519.69961 266.68 
L 519.69961 266.68 
L 518.255153 266.68 
L 518.255153 266.68 
L 516.810696 266.68 
L 516.810696 266.68 
L 515.36624 266.68 
L 515.36624 266.68 
L 513.921783 266.68 
L 513.921783 266.68 
L 512.477326 266.68 
L 512.477326 266.68 
L 511.032869 266.68 
L 511.032869 266.68 
L 509.588412 266.68 
L 509.588412 266.68 
L 508.866184 266.68 
z
" clip-path="url(#pcf9154201f)" style="fill: #17becf; fill-opacity: 0.6; stroke: #1f77b4; stroke-opacity: 0.8; stroke-width: 1.5"/>
   </g>
   <g id="PolyCollection_4">
    <path d="M 46.64 266.68 
L 46.64 289.288025 
L 47.362228 289.288025 
L 47.362228 277.10214 
L 48.806685 277.10214 
L 48.806685 281.002573 
L 50.251142 281.002573 
L 50.251142 274.85572 
L 51.695599 274.85572 
L 51.695599 279.556563 
L 53.140056 279.556563 
L 53.140056 284.019155 
L 54.584513 284.019155 
L 54.584513 286.369195 
L 56.028969 286.369195 
L 56.028969 288.355695 
L 57.473426 288.355695 
L 57.473426 284.536742 
L 58.917883 284.536742 
L 58.917883 284.861715 
L 60.36234 284.861715 
L 60.36234 285.246211 
L 61.806797 285.246211 
L 61.806797 281.653375 
L 63.251253 281.653375 
L 63.251253 283.375416 
L 64.69571 283.375416 
L 64.69571 283.032153 
L 66.140167 283.032153 
L 66.140167 289.288025 
L 67.584624 289.288025 
L 67.584624 278.048276 
L 69.029081 278.048276 
L 69.029081 275.123467 
L 70.473538 275.123467 
L 70.473538 270.213243 
L 71.195766 270.213243 
L 71.195766 266.68 
L 71.195766 266.68 
L 70.473538 266.68 
L 70.473538 266.68 
L 69.029081 266.68 
L 69.029081 266.68 
L 67.584624 266.68 
L 67.584624 266.68 
L 66.140167 266.68 
L 66.140167 266.68 
L 64.69571 266.68 
L 64.69571 266.68 
L 63.251253 266.68 
L 63.251253 266.68 
L 61.806797 266.68 
L 61.806797 266.68 
L 60.36234 266.68 
L 60.36234 266.68 
L 58.917883 266.68 
L 58.917883 266.68 
L 57.473426 266.68 
L 57.473426 266.68 
L 56.028969 266.68 
L 56.028969 266.68 
L 54.584513 266.68 
L 54.584513 266.68 
L 53.140056 266.68 
L 53.140056 266.68 
L 51.695599 266.68 
L 51.695599 266.68 
L 50.251142 266.68 
L 50.251142 266.68 
L 48.806685 266.68 
L 48.806685 266.68 
L 47.362228 266.68 
L 47.362228 266.68 
L 46.64 266.68 
z
" clip-path="url(#pcf9154201f)" style="fill: #d62728; fill-opacity: 0.6; stroke: #b22222; stroke-opacity: 0.8; stroke-width: 1.5"/>
    <path d="M 75.529136 266.68 
L 75.529136 266.723886 
L 75.529136 266.723886 
L 75.529136 266.68 
L 75.529136 266.68 
L 75.529136 266.68 
z
" clip-path="url(#pcf9154201f)" style="fill: #d62728; fill-opacity: 0.6; stroke: #b22222; stroke-opacity: 0.8; stroke-width: 1.5"/>
    <path d="M 78.41805 266.68 
L 78.41805 267.588278 
L 79.140279 267.588278 
L 79.140279 267.442952 
L 79.862507 267.442952 
L 79.862507 266.68 
L 79.862507 266.68 
L 79.140279 266.68 
L 79.140279 266.68 
L 78.41805 266.68 
z
" clip-path="url(#pcf9154201f)" style="fill: #d62728; fill-opacity: 0.6; stroke: #b22222; stroke-opacity: 0.8; stroke-width: 1.5"/>
    <path d="M 225.752646 266.68 
L 225.752646 271.108947 
L 226.474875 271.108947 
L 226.474875 271.835073 
L 227.919331 271.835073 
L 227.919331 271.261797 
L 229.363788 271.261797 
L 229.363788 274.001765 
L 230.808245 274.001765 
L 230.808245 273.68495 
L 232.252702 273.68495 
L 232.252702 276.377072 
L 233.697159 276.377072 
L 233.697159 278.475883 
L 235.141616 278.475883 
L 235.141616 280.452226 
L 236.586072 280.452226 
L 236.586072 277.076672 
L 238.030529 277.076672 
L 238.030529 281.203514 
L 239.474986 281.203514 
L 239.474986 277.076672 
L 240.919443 277.076672 
L 240.919443 294.985844 
L 242.3639 294.985844 
L 242.3639 302.650605 
L 243.808357 302.650605 
L 243.808357 287.184012 
L 245.252813 287.184012 
L 245.252813 296.852914 
L 246.69727 296.852914 
L 246.69727 295.677186 
L 248.141727 295.677186 
L 248.141727 295.446494 
L 249.586184 295.446494 
L 249.586184 293.676824 
L 251.030641 293.676824 
L 251.030641 296.941019 
L 252.475097 296.941019 
L 252.475097 305.397407 
L 253.919554 305.397407 
L 253.919554 296.852914 
L 255.364011 296.852914 
L 255.364011 288.327922 
L 256.808468 288.327922 
L 256.808468 292.680021 
L 258.252925 292.680021 
L 258.252925 284.197413 
L 259.697382 284.197413 
L 259.697382 281.193357 
L 261.141838 281.193357 
L 261.141838 285.110046 
L 262.586295 285.110046 
L 262.586295 291.906563 
L 264.030752 291.906563 
L 264.030752 290.761998 
L 265.475209 290.761998 
L 265.475209 290.326628 
L 266.919666 290.326628 
L 266.919666 292.145706 
L 268.364123 292.145706 
L 268.364123 292.686551 
L 269.808579 292.686551 
L 269.808579 292.680127 
L 271.253036 292.680127 
L 271.253036 292.680021 
L 272.697493 292.680021 
L 272.697493 283.107914 
L 274.14195 283.107914 
L 274.14195 296.852914 
L 275.586407 296.852914 
L 275.586407 288.559276 
L 277.030864 288.559276 
L 277.030864 285.616917 
L 278.47532 285.616917 
L 278.47532 279.446861 
L 279.919777 279.446861 
L 279.919777 279.170239 
L 281.364234 279.170239 
L 281.364234 280.068294 
L 282.808691 280.068294 
L 282.808691 277.060388 
L 284.253148 277.060388 
L 284.253148 275.768132 
L 285.697604 275.768132 
L 285.697604 274.758656 
L 287.142061 274.758656 
L 287.142061 275.100461 
L 288.586518 275.100461 
L 288.586518 273.143384 
L 290.030975 273.143384 
L 290.030975 273.187167 
L 291.475432 273.187167 
L 291.475432 269.414977 
L 292.919889 269.414977 
L 292.919889 273.008411 
L 294.364345 273.008411 
L 294.364345 273.409381 
L 295.808802 273.409381 
L 295.808802 266.69774 
L 296.531031 266.69774 
L 296.531031 266.68 
L 296.531031 266.68 
L 295.808802 266.68 
L 295.808802 266.68 
L 294.364345 266.68 
L 294.364345 266.68 
L 292.919889 266.68 
L 292.919889 266.68 
L 291.475432 266.68 
L 291.475432 266.68 
L 290.030975 266.68 
L 290.030975 266.68 
L 288.586518 266.68 
L 288.586518 266.68 
L 287.142061 266.68 
L 287.142061 266.68 
L 285.697604 266.68 
L 285.697604 266.68 
L 284.253148 266.68 
L 284.253148 266.68 
L 282.808691 266.68 
L 282.808691 266.68 
L 281.364234 266.68 
L 281.364234 266.68 
L 279.919777 266.68 
L 279.919777 266.68 
L 278.47532 266.68 
L 278.47532 266.68 
L 277.030864 266.68 
L 277.030864 266.68 
L 275.586407 266.68 
L 275.586407 266.68 
L 274.14195 266.68 
L 274.14195 266.68 
L 272.697493 266.68 
L 272.697493 266.68 
L 271.253036 266.68 
L 271.253036 266.68 
L 269.808579 266.68 
L 269.808579 266.68 
L 268.364123 266.68 
L 268.364123 266.68 
L 266.919666 266.68 
L 266.919666 266.68 
L 265.475209 266.68 
L 265.475209 266.68 
L 264.030752 266.68 
L 264.030752 266.68 
L 262.586295 266.68 
L 262.586295 266.68 
L 261.141838 266.68 
L 261.141838 266.68 
L 259.697382 266.68 
L 259.697382 266.68 
L 258.252925 266.68 
L 258.252925 266.68 
L 256.808468 266.68 
L 256.808468 266.68 
L 255.364011 266.68 
L 255.364011 266.68 
L 253.919554 266.68 
L 253.919554 266.68 
L 252.475097 266.68 
L 252.475097 266.68 
L 251.030641 266.68 
L 251.030641 266.68 
L 249.586184 266.68 
L 249.586184 266.68 
L 248.141727 266.68 
L 248.141727 266.68 
L 246.69727 266.68 
L 246.69727 266.68 
L 245.252813 266.68 
L 245.252813 266.68 
L 243.808357 266.68 
L 243.808357 266.68 
L 242.3639 266.68 
L 242.3639 266.68 
L 240.919443 266.68 
L 240.919443 266.68 
L 239.474986 266.68 
L 239.474986 266.68 
L 238.030529 266.68 
L 238.030529 266.68 
L 236.586072 266.68 
L 236.586072 266.68 
L 235.141616 266.68 
L 235.141616 266.68 
L 233.697159 266.68 
L 233.697159 266.68 
L 232.252702 266.68 
L 232.252702 266.68 
L 230.808245 266.68 
L 230.808245 266.68 
L 229.363788 266.68 
L 229.363788 266.68 
L 227.919331 266.68 
L 227.919331 266.68 
L 226.474875 266.68 
L 226.474875 266.68 
L 225.752646 266.68 
z
" clip-path="url(#pcf9154201f)" style="fill: #d62728; fill-opacity: 0.6; stroke: #b22222; stroke-opacity: 0.8; stroke-width: 1.5"/>
    <path d="M 315.308969 266.68 
L 315.308969 269.250923 
L 315.308969 269.250923 
L 315.308969 266.68 
L 315.308969 266.68 
L 315.308969 266.68 
z
" clip-path="url(#pcf9154201f)" style="fill: #d62728; fill-opacity: 0.6; stroke: #b22222; stroke-opacity: 0.8; stroke-width: 1.5"/>
    <path d="M 325.420167 266.68 
L 325.420167 266.847087 
L 326.142396 266.847087 
L 326.142396 267.589094 
L 327.586852 267.589094 
L 327.586852 268.057917 
L 328.309081 268.057917 
L 328.309081 266.68 
L 328.309081 266.68 
L 327.586852 266.68 
L 327.586852 266.68 
L 326.142396 266.68 
L 326.142396 266.68 
L 325.420167 266.68 
z
" clip-path="url(#pcf9154201f)" style="fill: #d62728; fill-opacity: 0.6; stroke: #b22222; stroke-opacity: 0.8; stroke-width: 1.5"/>
    <path d="M 331.197994 266.68 
L 331.197994 268.066299 
L 331.920223 268.066299 
L 331.920223 267.751969 
L 332.642451 267.751969 
L 332.642451 266.68 
L 332.642451 266.68 
L 331.920223 266.68 
L 331.920223 266.68 
L 331.197994 266.68 
z
" clip-path="url(#pcf9154201f)" style="fill: #d62728; fill-opacity: 0.6; stroke: #b22222; stroke-opacity: 0.8; stroke-width: 1.5"/>
    <path d="M 348.531476 266.68 
L 348.531476 269.17499 
L 349.253705 269.17499 
L 349.253705 275.075452 
L 350.698162 275.075452 
L 350.698162 275.245855 
L 352.142618 275.245855 
L 352.142618 272.393132 
L 353.587075 272.393132 
L 353.587075 275.799492 
L 355.031532 275.799492 
L 355.031532 273.452127 
L 356.475989 273.452127 
L 356.475989 273.082324 
L 357.920446 273.082324 
L 357.920446 271.261797 
L 359.364903 271.261797 
L 359.364903 271.741815 
L 360.809359 271.741815 
L 360.809359 273.143384 
L 362.253816 273.143384 
L 362.253816 277.12104 
L 363.698273 277.12104 
L 363.698273 279.343772 
L 365.14273 279.343772 
L 365.14273 280.068227 
L 366.587187 280.068227 
L 366.587187 277.076672 
L 368.031643 277.076672 
L 368.031643 279.304004 
L 369.4761 279.304004 
L 369.4761 292.241486 
L 370.920557 292.241486 
L 370.920557 283.212503 
L 372.365014 283.212503 
L 372.365014 289.286821 
L 373.809471 289.286821 
L 373.809471 287.112604 
L 375.253928 287.112604 
L 375.253928 279.170239 
L 376.698384 279.170239 
L 376.698384 287.485477 
L 378.142841 287.485477 
L 378.142841 283.766101 
L 379.587298 283.766101 
L 379.587298 284.278497 
L 381.031755 284.278497 
L 381.031755 281.502153 
L 382.476212 281.502153 
L 382.476212 276.487286 
L 383.920669 276.487286 
L 383.920669 281.386312 
L 385.365125 281.386312 
L 385.365125 285.500124 
L 386.809582 285.500124 
L 386.809582 285.538208 
L 388.254039 285.538208 
L 388.254039 285.121606 
L 389.698496 285.121606 
L 389.698496 279.209134 
L 391.142953 279.209134 
L 391.142953 286.222201 
L 392.587409 286.222201 
L 392.587409 275.075452 
L 394.031866 275.075452 
L 394.031866 274.757796 
L 395.476323 274.757796 
L 395.476323 275.075452 
L 396.92078 275.075452 
L 396.92078 271.825409 
L 397.643008 271.825409 
L 397.643008 266.68 
L 397.643008 266.68 
L 396.92078 266.68 
L 396.92078 266.68 
L 395.476323 266.68 
L 395.476323 266.68 
L 394.031866 266.68 
L 394.031866 266.68 
L 392.587409 266.68 
L 392.587409 266.68 
L 391.142953 266.68 
L 391.142953 266.68 
L 389.698496 266.68 
L 389.698496 266.68 
L 388.254039 266.68 
L 388.254039 266.68 
L 386.809582 266.68 
L 386.809582 266.68 
L 385.365125 266.68 
L 385.365125 266.68 
L 383.920669 266.68 
L 383.920669 266.68 
L 382.476212 266.68 
L 382.476212 266.68 
L 381.031755 266.68 
L 381.031755 266.68 
L 379.587298 266.68 
L 379.587298 266.68 
L 378.142841 266.68 
L 378.142841 266.68 
L 376.698384 266.68 
L 376.698384 266.68 
L 375.253928 266.68 
L 375.253928 266.68 
L 373.809471 266.68 
L 373.809471 266.68 
L 372.365014 266.68 
L 372.365014 266.68 
L 370.920557 266.68 
L 370.920557 266.68 
L 369.4761 266.68 
L 369.4761 266.68 
L 368.031643 266.68 
L 368.031643 266.68 
L 366.587187 266.68 
L 366.587187 266.68 
L 365.14273 266.68 
L 365.14273 266.68 
L 363.698273 266.68 
L 363.698273 266.68 
L 362.253816 266.68 
L 362.253816 266.68 
L 360.809359 266.68 
L 360.809359 266.68 
L 359.364903 266.68 
L 359.364903 266.68 
L 357.920446 266.68 
L 357.920446 266.68 
L 356.475989 266.68 
L 356.475989 266.68 
L 355.031532 266.68 
L 355.031532 266.68 
L 353.587075 266.68 
L 353.587075 266.68 
L 352.142618 266.68 
L 352.142618 266.68 
L 350.698162 266.68 
L 350.698162 266.68 
L 349.253705 266.68 
L 349.253705 266.68 
L 348.531476 266.68 
z
" clip-path="url(#pcf9154201f)" style="fill: #d62728; fill-opacity: 0.6; stroke: #b22222; stroke-opacity: 0.8; stroke-width: 1.5"/>
    <path d="M 404.865292 266.68 
L 404.865292 269.361444 
L 405.587521 269.361444 
L 405.587521 268.964086 
L 407.031978 268.964086 
L 407.031978 269.414977 
L 408.476435 269.414977 
L 408.476435 269.333199 
L 409.920891 269.333199 
L 409.920891 267.589094 
L 410.64312 267.589094 
L 410.64312 266.68 
L 410.64312 266.68 
L 409.920891 266.68 
L 409.920891 266.68 
L 408.476435 266.68 
L 408.476435 266.68 
L 407.031978 266.68 
L 407.031978 266.68 
L 405.587521 266.68 
L 405.587521 266.68 
L 404.865292 266.68 
z
" clip-path="url(#pcf9154201f)" style="fill: #d62728; fill-opacity: 0.6; stroke: #b22222; stroke-opacity: 0.8; stroke-width: 1.5"/>
    <path d="M 414.97649 266.68 
L 414.97649 268.75278 
L 415.698719 268.75278 
L 415.698719 269.279758 
L 417.143175 269.279758 
L 417.143175 270.979137 
L 418.587632 270.979137 
L 418.587632 273.143384 
L 420.032089 273.143384 
L 420.032089 271.809725 
L 421.476546 271.809725 
L 421.476546 276.271029 
L 422.921003 276.271029 
L 422.921003 281.096556 
L 424.36546 281.096556 
L 424.36546 280.754774 
L 425.809916 280.754774 
L 425.809916 277.723111 
L 427.254373 277.723111 
L 427.254373 286.369195 
L 428.69883 286.369195 
L 428.69883 295.168659 
L 430.143287 295.168659 
L 430.143287 279.534265 
L 431.587744 279.534265 
L 431.587744 285.274639 
L 433.032201 285.274639 
L 433.032201 291.552135 
L 434.476657 291.552135 
L 434.476657 288.494139 
L 435.921114 288.494139 
L 435.921114 302.567546 
L 437.365571 302.567546 
L 437.365571 310.76328 
L 438.810028 310.76328 
L 438.810028 303.293008 
L 440.254485 303.293008 
L 440.254485 298.309396 
L 441.698942 298.309396 
L 441.698942 309.841721 
L 443.143398 309.841721 
L 443.143398 303.536026 
L 444.587855 303.536026 
L 444.587855 302.567546 
L 446.032312 302.567546 
L 446.032312 289.362937 
L 447.476769 289.362937 
L 447.476769 286.369195 
L 448.921226 286.369195 
L 448.921226 288.254306 
L 450.365682 288.254306 
L 450.365682 295.224362 
L 451.810139 295.224362 
L 451.810139 285.868064 
L 453.254596 285.868064 
L 453.254596 289.963184 
L 454.699053 289.963184 
L 454.699053 277.009823 
L 456.14351 277.009823 
L 456.14351 279.439734 
L 457.587967 279.439734 
L 457.587967 283.233426 
L 459.032423 283.233426 
L 459.032423 283.780618 
L 460.47688 283.780618 
L 460.47688 283.17127 
L 461.921337 283.17127 
L 461.921337 281.751724 
L 463.365794 281.751724 
L 463.365794 301.133126 
L 464.810251 301.133126 
L 464.810251 313.109422 
L 466.254708 313.109422 
L 466.254708 308.630267 
L 467.699164 308.630267 
L 467.699164 312.699609 
L 469.143621 312.699609 
L 469.143621 297.458581 
L 470.588078 297.458581 
L 470.588078 313.109422 
L 472.032535 313.109422 
L 472.032535 303.661477 
L 473.476992 303.661477 
L 473.476992 311.486545 
L 474.921448 311.486545 
L 474.921448 303.653096 
L 476.365905 303.653096 
L 476.365905 304.04597 
L 477.810362 304.04597 
L 477.810362 299.470634 
L 479.254819 299.470634 
L 479.254819 313.109422 
L 480.699276 313.109422 
L 480.699276 313.105987 
L 482.143733 313.105987 
L 482.143733 302.567546 
L 483.588189 302.567546 
L 483.588189 290.598293 
L 485.032646 290.598293 
L 485.032646 291.157973 
L 486.477103 291.157973 
L 486.477103 286.715385 
L 487.92156 286.715385 
L 487.92156 283.766101 
L 489.366017 283.766101 
L 489.366017 286.796009 
L 490.810474 286.796009 
L 490.810474 278.11039 
L 492.25493 278.11039 
L 492.25493 272.479654 
L 493.699387 272.479654 
L 493.699387 271.261824 
L 495.143844 271.261824 
L 495.143844 271.321551 
L 496.588301 271.321551 
L 496.588301 269.414977 
L 498.032758 269.414977 
L 498.032758 269.402548 
L 499.477214 269.402548 
L 499.477214 271.261797 
L 500.199443 271.261797 
L 500.199443 266.68 
L 500.199443 266.68 
L 499.477214 266.68 
L 499.477214 266.68 
L 498.032758 266.68 
L 498.032758 266.68 
L 496.588301 266.68 
L 496.588301 266.68 
L 495.143844 266.68 
L 495.143844 266.68 
L 493.699387 266.68 
L 493.699387 266.68 
L 492.25493 266.68 
L 492.25493 266.68 
L 490.810474 266.68 
L 490.810474 266.68 
L 489.366017 266.68 
L 489.366017 266.68 
L 487.92156 266.68 
L 487.92156 266.68 
L 486.477103 266.68 
L 486.477103 266.68 
L 485.032646 266.68 
L 485.032646 266.68 
L 483.588189 266.68 
L 483.588189 266.68 
L 482.143733 266.68 
L 482.143733 266.68 
L 480.699276 266.68 
L 480.699276 266.68 
L 479.254819 266.68 
L 479.254819 266.68 
L 477.810362 266.68 
L 477.810362 266.68 
L 476.365905 266.68 
L 476.365905 266.68 
L 474.921448 266.68 
L 474.921448 266.68 
L 473.476992 266.68 
L 473.476992 266.68 
L 472.032535 266.68 
L 472.032535 266.68 
L 470.588078 266.68 
L 470.588078 266.68 
L 469.143621 266.68 
L 469.143621 266.68 
L 467.699164 266.68 
L 467.699164 266.68 
L 466.254708 266.68 
L 466.254708 266.68 
L 464.810251 266.68 
L 464.810251 266.68 
L 463.365794 266.68 
L 463.365794 266.68 
L 461.921337 266.68 
L 461.921337 266.68 
L 460.47688 266.68 
L 460.47688 266.68 
L 459.032423 266.68 
L 459.032423 266.68 
L 457.587967 266.68 
L 457.587967 266.68 
L 456.14351 266.68 
L 456.14351 266.68 
L 454.699053 266.68 
L 454.699053 266.68 
L 453.254596 266.68 
L 453.254596 266.68 
L 451.810139 266.68 
L 451.810139 266.68 
L 450.365682 266.68 
L 450.365682 266.68 
L 448.921226 266.68 
L 448.921226 266.68 
L 447.476769 266.68 
L 447.476769 266.68 
L 446.032312 266.68 
L 446.032312 266.68 
L 444.587855 266.68 
L 444.587855 266.68 
L 443.143398 266.68 
L 443.143398 266.68 
L 441.698942 266.68 
L 441.698942 266.68 
L 440.254485 266.68 
L 440.254485 266.68 
L 438.810028 266.68 
L 438.810028 266.68 
L 437.365571 266.68 
L 437.365571 266.68 
L 435.921114 266.68 
L 435.921114 266.68 
L 434.476657 266.68 
L 434.476657 266.68 
L 433.032201 266.68 
L 433.032201 266.68 
L 431.587744 266.68 
L 431.587744 266.68 
L 430.143287 266.68 
L 430.143287 266.68 
L 428.69883 266.68 
L 428.69883 266.68 
L 427.254373 266.68 
L 427.254373 266.68 
L 425.809916 266.68 
L 425.809916 266.68 
L 424.36546 266.68 
L 424.36546 266.68 
L 422.921003 266.68 
L 422.921003 266.68 
L 421.476546 266.68 
L 421.476546 266.68 
L 420.032089 266.68 
L 420.032089 266.68 
L 418.587632 266.68 
L 418.587632 266.68 
L 417.143175 266.68 
L 417.143175 266.68 
L 415.698719 266.68 
L 415.698719 266.68 
L 414.97649 266.68 
z
" clip-path="url(#pcf9154201f)" style="fill: #d62728; fill-opacity: 0.6; stroke: #b22222; stroke-opacity: 0.8; stroke-width: 1.5"/>
    <path d="M 507.421727 266.68 
L 507.421727 268.330141 
L 507.421727 268.330141 
L 507.421727 266.68 
L 507.421727 266.68 
L 507.421727 266.68 
z
" clip-path="url(#pcf9154201f)" style="fill: #d62728; fill-opacity: 0.6; stroke: #b22222; stroke-opacity: 0.8; stroke-width: 1.5"/>
   </g>
   <g id="matplotlib.axis_3">
    <g id="xtick_7">
     <g id="line2d_15">
      <g>
       <use xlink:href="#m3463cab0f3" x="115.973928" y="332.12" style="stroke: #000000; stroke-width: 0.8"/>
      </g>
     </g>
     <g id="text_15">
      <!-- 1995 -->
      <g transform="translate(103.248928 346.718437) scale(0.1 -0.1)">
       <use xlink:href="#DejaVuSans-31"/>
       <use xlink:href="#DejaVuSans-39" x="63.623047"/>
       <use xlink:href="#DejaVuSans-39" x="127.246094"/>
       <use xlink:href="#DejaVuSans-35" x="190.869141"/>
      </g>
     </g>
    </g>
    <g id="xtick_8">
     <g id="line2d_16">
      <g>
       <use xlink:href="#m3463cab0f3" x="202.641337" y="332.12" style="stroke: #000000; stroke-width: 0.8"/>
      </g>
     </g>
     <g id="text_16">
      <!-- 2000 -->
      <g transform="translate(189.916337 346.718437) scale(0.1 -0.1)">
       <use xlink:href="#DejaVuSans-32"/>
       <use xlink:href="#DejaVuSans-30" x="63.623047"/>
       <use xlink:href="#DejaVuSans-30" x="127.246094"/>
       <use xlink:href="#DejaVuSans-30" x="190.869141"/>
      </g>
     </g>
    </g>
    <g id="xtick_9">
     <g id="line2d_17">
      <g>
       <use xlink:href="#m3463cab0f3" x="289.308747" y="332.12" style="stroke: #000000; stroke-width: 0.8"/>
      </g>
     </g>
     <g id="text_17">
      <!-- 2005 -->
      <g transform="translate(276.583747 346.718437) scale(0.1 -0.1)">
       <use xlink:href="#DejaVuSans-32"/>
       <use xlink:href="#DejaVuSans-30" x="63.623047"/>
       <use xlink:href="#DejaVuSans-30" x="127.246094"/>
       <use xlink:href="#DejaVuSans-35" x="190.869141"/>
      </g>
     </g>
    </g>
    <g id="xtick_10">
     <g id="line2d_18">
      <g>
       <use xlink:href="#m3463cab0f3" x="375.976156" y="332.12" style="stroke: #000000; stroke-width: 0.8"/>
      </g>
     </g>
     <g id="text_18">
      <!-- 2010 -->
      <g transform="translate(363.251156 346.718437) scale(0.1 -0.1)">
       <use xlink:href="#DejaVuSans-32"/>
       <use xlink:href="#DejaVuSans-30" x="63.623047"/>
       <use xlink:href="#DejaVuSans-31" x="127.246094"/>
       <use xlink:href="#DejaVuSans-30" x="190.869141"/>
      </g>
     </g>
    </g>
    <g id="xtick_11">
     <g id="line2d_19">
      <g>
       <use xlink:href="#m3463cab0f3" x="462.643565" y="332.12" style="stroke: #000000; stroke-width: 0.8"/>
      </g>
     </g>
     <g id="text_19">
      <!-- 2015 -->
      <g transform="translate(449.918565 346.718437) scale(0.1 -0.1)">
       <use xlink:href="#DejaVuSans-32"/>
       <use xlink:href="#DejaVuSans-30" x="63.623047"/>
       <use xlink:href="#DejaVuSans-31" x="127.246094"/>
       <use xlink:href="#DejaVuSans-35" x="190.869141"/>
      </g>
     </g>
    </g>
    <g id="xtick_12">
     <g id="line2d_20">
      <g>
       <use xlink:href="#m3463cab0f3" x="549.310975" y="332.12" style="stroke: #000000; stroke-width: 0.8"/>
      </g>
     </g>
     <g id="text_20">
      <!-- 2020 -->
      <g transform="translate(536.585975 346.718437) scale(0.1 -0.1)">
       <use xlink:href="#DejaVuSans-32"/>
       <use xlink:href="#DejaVuSans-30" x="63.623047"/>
       <use xlink:href="#DejaVuSans-32" x="127.246094"/>
       <use xlink:href="#DejaVuSans-30" x="190.869141"/>
      </g>
     </g>
    </g>
   </g>
   <g id="matplotlib.axis_4">
    <g id="ytick_8">
     <g id="line2d_21">
      <g>
       <use xlink:href="#meff5b489e5" x="46.64" y="332.12" style="stroke: #000000; stroke-width: 0.8"/>
      </g>
     </g>
     <g id="text_21">
      <!-- −3 -->
      <g transform="translate(24.897813 335.919219) scale(0.1 -0.1)">
       <use xlink:href="#DejaVuSans-2212"/>
       <use xlink:href="#DejaVuSans-33" x="83.789062"/>
      </g>
     </g>
    </g>
    <g id="ytick_9">
     <g id="line2d_22">
      <g>
       <use xlink:href="#meff5b489e5" x="46.64" y="310.306667" style="stroke: #000000; stroke-width: 0.8"/>
      </g>
     </g>
     <g id="text_22">
      <!-- −2 -->
      <g transform="translate(24.897813 314.105885) scale(0.1 -0.1)">
       <use xlink:href="#DejaVuSans-2212"/>
       <use xlink:href="#DejaVuSans-32" x="83.789062"/>
      </g>
     </g>
    </g>
    <g id="ytick_10">
     <g id="line2d_23">
      <g>
       <use xlink:href="#meff5b489e5" x="46.64" y="288.493333" style="stroke: #000000; stroke-width: 0.8"/>
      </g>
     </g>
     <g id="text_23">
      <!-- −1 -->
      <g transform="translate(24.897813 292.292552) scale(0.1 -0.1)">
       <use xlink:href="#DejaVuSans-2212"/>
       <use xlink:href="#DejaVuSans-31" x="83.789062"/>
      </g>
     </g>
    </g>
    <g id="ytick_11">
     <g id="line2d_24">
      <g>
       <use xlink:href="#meff5b489e5" x="46.64" y="266.68" style="stroke: #000000; stroke-width: 0.8"/>
      </g>
     </g>
     <g id="text_24">
      <!-- 0 -->
      <g transform="translate(33.2775 270.479219) scale(0.1 -0.1)">
       <use xlink:href="#DejaVuSans-30"/>
      </g>
     </g>
    </g>
    <g id="ytick_12">
     <g id="line2d_25">
      <g>
       <use xlink:href="#meff5b489e5" x="46.64" y="244.866667" style="stroke: #000000; stroke-width: 0.8"/>
      </g>
     </g>
     <g id="text_25">
      <!-- 1 -->
      <g transform="translate(33.2775 248.665885) scale(0.1 -0.1)">
       <use xlink:href="#DejaVuSans-31"/>
      </g>
     </g>
    </g>
    <g id="ytick_13">
     <g id="line2d_26">
      <g>
       <use xlink:href="#meff5b489e5" x="46.64" y="223.053333" style="stroke: #000000; stroke-width: 0.8"/>
      </g>
     </g>
     <g id="text_26">
      <!-- 2 -->
      <g transform="translate(33.2775 226.852552) scale(0.1 -0.1)">
       <use xlink:href="#DejaVuSans-32"/>
      </g>
     </g>
    </g>
    <g id="ytick_14">
     <g id="line2d_27">
      <g>
       <use xlink:href="#meff5b489e5" x="46.64" y="201.24" style="stroke: #000000; stroke-width: 0.8"/>
      </g>
     </g>
     <g id="text_27">
      <!-- 3 -->
      <g transform="translate(33.2775 205.039219) scale(0.1 -0.1)">
       <use xlink:href="#DejaVuSans-33"/>
      </g>
     </g>
    </g>
    <g id="text_28">
     <!-- Gallatin -->
     <g transform="translate(18.818125 285.978438) rotate(-90) scale(0.1 -0.1)">
      <defs>
       <path id="DejaVuSans-47" d="M 3809 666 
L 3809 1919 
L 2778 1919 
L 2778 2438 
L 4434 2438 
L 4434 434 
Q 4069 175 3628 42 
Q 3188 -91 2688 -91 
Q 1594 -91 976 548 
Q 359 1188 359 2328 
Q 359 3472 976 4111 
Q 1594 4750 2688 4750 
Q 3144 4750 3555 4637 
Q 3966 4525 4313 4306 
L 4313 3634 
Q 3963 3931 3569 4081 
Q 3175 4231 2741 4231 
Q 1884 4231 1454 3753 
Q 1025 3275 1025 2328 
Q 1025 1384 1454 906 
Q 1884 428 2741 428 
Q 3075 428 3337 486 
Q 3600 544 3809 666 
z
" transform="scale(0.015625)"/>
       <path id="DejaVuSans-61" d="M 2194 1759 
Q 1497 1759 1228 1600 
Q 959 1441 959 1056 
Q 959 750 1161 570 
Q 1363 391 1709 391 
Q 2188 391 2477 730 
Q 2766 1069 2766 1631 
L 2766 1759 
L 2194 1759 
z
M 3341 1997 
L 3341 0 
L 2766 0 
L 2766 531 
Q 2569 213 2275 61 
Q 1981 -91 1556 -91 
Q 1019 -91 701 211 
Q 384 513 384 1019 
Q 384 1609 779 1909 
Q 1175 2209 1959 2209 
L 2766 2209 
L 2766 2266 
Q 2766 2663 2505 2880 
Q 2244 3097 1772 3097 
Q 1472 3097 1187 3025 
Q 903 2953 641 2809 
L 641 3341 
Q 956 3463 1253 3523 
Q 1550 3584 1831 3584 
Q 2591 3584 2966 3190 
Q 3341 2797 3341 1997 
z
" transform="scale(0.015625)"/>
       <path id="DejaVuSans-6c" d="M 603 4863 
L 1178 4863 
L 1178 0 
L 603 0 
L 603 4863 
z
" transform="scale(0.015625)"/>
       <path id="DejaVuSans-6e" d="M 3513 2113 
L 3513 0 
L 2938 0 
L 2938 2094 
Q 2938 2591 2744 2837 
Q 2550 3084 2163 3084 
Q 1697 3084 1428 2787 
Q 1159 2491 1159 1978 
L 1159 0 
L 581 0 
L 581 3500 
L 1159 3500 
L 1159 2956 
Q 1366 3272 1645 3428 
Q 1925 3584 2291 3584 
Q 2894 3584 3203 3211 
Q 3513 2838 3513 2113 
z
" transform="scale(0.015625)"/>
      </defs>
      <use xlink:href="#DejaVuSans-47"/>
      <use xlink:href="#DejaVuSans-61" x="77.490234"/>
      <use xlink:href="#DejaVuSans-6c" x="138.769531"/>
      <use xlink:href="#DejaVuSans-6c" x="166.552734"/>
      <use xlink:href="#DejaVuSans-61" x="194.335938"/>
      <use xlink:href="#DejaVuSans-74" x="255.615234"/>
      <use xlink:href="#DejaVuSans-69" x="294.824219"/>
      <use xlink:href="#DejaVuSans-6e" x="322.607422"/>
     </g>
    </g>
   </g>
   <g id="line2d_28">
    <path d="M 46.64 266.68 
L 565.2 266.68 
" clip-path="url(#pcf9154201f)" style="fill: none; stroke: #000000; stroke-width: 1.5; stroke-linecap: square"/>
   </g>
   <g id="patch_6">
    <path d="M 46.64 332.12 
L 46.64 201.24 
" style="fill: none; stroke: #000000; stroke-width: 0.8; stroke-linejoin: miter; stroke-linecap: square"/>
   </g>
   <g id="patch_7">
    <path d="M 46.64 332.12 
L 565.2 332.12 
" style="fill: none; stroke: #000000; stroke-width: 0.8; stroke-linejoin: miter; stroke-linecap: square"/>
   </g>
  </g>
  <g id="text_29">
   <!-- SPEI-46 -->
   <g transform="translate(262.110937 16.318125) scale(0.12 -0.12)">
    <defs>
     <path id="DejaVuSans-Bold-53" d="M 3834 4519 
L 3834 3531 
Q 3450 3703 3084 3790 
Q 2719 3878 2394 3878 
Q 1963 3878 1756 3759 
Q 1550 3641 1550 3391 
Q 1550 3203 1689 3098 
Q 1828 2994 2194 2919 
L 2706 2816 
Q 3484 2659 3812 2340 
Q 4141 2022 4141 1434 
Q 4141 663 3683 286 
Q 3225 -91 2284 -91 
Q 1841 -91 1394 -6 
Q 947 78 500 244 
L 500 1259 
Q 947 1022 1364 901 
Q 1781 781 2169 781 
Q 2563 781 2772 912 
Q 2981 1044 2981 1288 
Q 2981 1506 2839 1625 
Q 2697 1744 2272 1838 
L 1806 1941 
Q 1106 2091 782 2419 
Q 459 2747 459 3303 
Q 459 4000 909 4375 
Q 1359 4750 2203 4750 
Q 2588 4750 2994 4692 
Q 3400 4634 3834 4519 
z
" transform="scale(0.015625)"/>
     <path id="DejaVuSans-Bold-50" d="M 588 4666 
L 2584 4666 
Q 3475 4666 3951 4270 
Q 4428 3875 4428 3144 
Q 4428 2409 3951 2014 
Q 3475 1619 2584 1619 
L 1791 1619 
L 1791 0 
L 588 0 
L 588 4666 
z
M 1791 3794 
L 1791 2491 
L 2456 2491 
Q 2806 2491 2997 2661 
Q 3188 2831 3188 3144 
Q 3188 3456 2997 3625 
Q 2806 3794 2456 3794 
L 1791 3794 
z
" transform="scale(0.015625)"/>
     <path id="DejaVuSans-Bold-45" d="M 588 4666 
L 3834 4666 
L 3834 3756 
L 1791 3756 
L 1791 2888 
L 3713 2888 
L 3713 1978 
L 1791 1978 
L 1791 909 
L 3903 909 
L 3903 0 
L 588 0 
L 588 4666 
z
" transform="scale(0.015625)"/>
     <path id="DejaVuSans-Bold-49" d="M 588 4666 
L 1791 4666 
L 1791 0 
L 588 0 
L 588 4666 
z
" transform="scale(0.015625)"/>
     <path id="DejaVuSans-Bold-2d" d="M 347 2297 
L 2309 2297 
L 2309 1388 
L 347 1388 
L 347 2297 
z
" transform="scale(0.015625)"/>
     <path id="DejaVuSans-Bold-34" d="M 2356 3675 
L 1038 1722 
L 2356 1722 
L 2356 3675 
z
M 2156 4666 
L 3494 4666 
L 3494 1722 
L 4159 1722 
L 4159 850 
L 3494 850 
L 3494 0 
L 2356 0 
L 2356 850 
L 288 850 
L 288 1881 
L 2156 4666 
z
" transform="scale(0.015625)"/>
     <path id="DejaVuSans-Bold-36" d="M 2316 2303 
Q 2000 2303 1842 2098 
Q 1684 1894 1684 1484 
Q 1684 1075 1842 870 
Q 2000 666 2316 666 
Q 2634 666 2792 870 
Q 2950 1075 2950 1484 
Q 2950 1894 2792 2098 
Q 2634 2303 2316 2303 
z
M 3803 4544 
L 3803 3681 
Q 3506 3822 3243 3889 
Q 2981 3956 2731 3956 
Q 2194 3956 1894 3657 
Q 1594 3359 1544 2772 
Q 1750 2925 1990 3001 
Q 2231 3078 2516 3078 
Q 3231 3078 3670 2659 
Q 4109 2241 4109 1563 
Q 4109 813 3618 361 
Q 3128 -91 2303 -91 
Q 1394 -91 895 523 
Q 397 1138 397 2266 
Q 397 3422 980 4083 
Q 1563 4744 2578 4744 
Q 2900 4744 3203 4694 
Q 3506 4644 3803 4544 
z
" transform="scale(0.015625)"/>
    </defs>
    <use xlink:href="#DejaVuSans-Bold-53"/>
    <use xlink:href="#DejaVuSans-Bold-50" x="72.021484"/>
    <use xlink:href="#DejaVuSans-Bold-45" x="145.3125"/>
    <use xlink:href="#DejaVuSans-Bold-49" x="213.623047"/>
    <use xlink:href="#DejaVuSans-Bold-2d" x="250.830078"/>
    <use xlink:href="#DejaVuSans-Bold-34" x="292.333984"/>
    <use xlink:href="#DejaVuSans-Bold-36" x="361.914062"/>
   </g>
  </g>
 </g>
 <defs>
  <clipPath id="p67776f8a21">
   <rect x="46.64" y="38.52" width="518.56" height="130.88"/>
  </clipPath>
  <clipPath id="pcf9154201f">
   <rect x="46.64" y="201.24" width="518.56" height="130.88"/>
  </clipPath>
 </defs>
</svg>
