<?xml version="1.0" encoding="utf-8" standalone="no"?>
<!DOCTYPE svg PUBLIC "-//W3C//DTD SVG 1.1//EN"
  "http://www.w3.org/Graphics/SVG/1.1/DTD/svg11.dtd">
<svg xmlns:xlink="http://www.w3.org/1999/xlink" width="576pt" height="360pt" viewBox="0 0 576 360" xmlns="http://www.w3.org/2000/svg" version="1.1">
 <metadata>
  <rdf:RDF xmlns:dc="http://purl.org/dc/elements/1.1/" xmlns:cc="http://creativecommons.org/ns#" xmlns:rdf="http://www.w3.org/1999/02/22-rdf-syntax-ns#">
   <cc:Work>
    <dc:type rdf:resource="http://purl.org/dc/dcmitype/StillImage"/>
    <dc:date>2024-02-04T11:03:39.913717</dc:date>
    <dc:format>image/svg+xml</dc:format>
    <dc:creator>
     <cc:Agent>
      <dc:title>Matplotlib v3.8.2, https://matplotlib.org/</dc:title>
     </cc:Agent>
    </dc:creator>
   </cc:Work>
  </rdf:RDF>
 </metadata>
 <defs>
  <style type="text/css">*{stroke-linejoin: round; stroke-linecap: butt}</style>
 </defs>
 <g id="figure_1">
  <g id="patch_1">
   <path d="M 0 360 
L 576 360 
L 576 0 
L 0 0 
z
" style="fill: #ffffff"/>
  </g>
  <g id="axes_1">
   <g id="patch_2">
    <path d="M 46.64 167.42 
L 565.2 167.42 
L 565.2 34.56 
L 46.64 34.56 
z
" style="fill: #ffffff"/>
   </g>
   <g id="PolyCollection_1">
    <path d="M 50.97337 99.060807 
L 50.97337 96.624145 
L 51.695599 96.624145 
L 51.695599 91.763943 
L 53.140056 91.763943 
L 53.140056 88.500416 
L 54.584513 88.500416 
L 54.584513 94.54306 
L 56.028969 94.54306 
L 56.028969 95.603887 
L 57.473426 95.603887 
L 57.473426 92.782224 
L 58.917883 92.782224 
L 58.917883 90.752614 
L 60.36234 90.752614 
L 60.36234 82.743005 
L 61.806797 82.743005 
L 61.806797 82.660989 
L 63.251253 82.660989 
L 63.251253 84.479802 
L 64.69571 84.479802 
L 64.69571 88.883143 
L 66.140167 88.883143 
L 66.140167 94.19038 
L 67.584624 94.19038 
L 67.584624 94.779117 
L 68.306852 94.779117 
L 68.306852 99.060807 
L 68.306852 99.060807 
L 67.584624 99.060807 
L 67.584624 99.060807 
L 66.140167 99.060807 
L 66.140167 99.060807 
L 64.69571 99.060807 
L 64.69571 99.060807 
L 63.251253 99.060807 
L 63.251253 99.060807 
L 61.806797 99.060807 
L 61.806797 99.060807 
L 60.36234 99.060807 
L 60.36234 99.060807 
L 58.917883 99.060807 
L 58.917883 99.060807 
L 57.473426 99.060807 
L 57.473426 99.060807 
L 56.028969 99.060807 
L 56.028969 99.060807 
L 54.584513 99.060807 
L 54.584513 99.060807 
L 53.140056 99.060807 
L 53.140056 99.060807 
L 51.695599 99.060807 
L 51.695599 99.060807 
L 50.97337 99.060807 
z
" clip-path="url(#p1aeee76650)" style="fill: #17becf; fill-opacity: 0.6; stroke: #1f77b4; stroke-opacity: 0.8; stroke-width: 1.5"/>
    <path d="M 72.640223 99.060807 
L 72.640223 91.895982 
L 73.362451 91.895982 
L 73.362451 88.848993 
L 74.806908 88.848993 
L 74.806908 85.578024 
L 76.251365 85.578024 
L 76.251365 86.250427 
L 77.695822 86.250427 
L 77.695822 91.074184 
L 79.140279 91.074184 
L 79.140279 86.896316 
L 80.584735 86.896316 
L 80.584735 89.962385 
L 82.029192 89.962385 
L 82.029192 91.159741 
L 83.473649 91.159741 
L 83.473649 94.644124 
L 84.918106 94.644124 
L 84.918106 90.561916 
L 86.362563 90.561916 
L 86.362563 93.724357 
L 87.807019 93.724357 
L 87.807019 87.884627 
L 89.251476 87.884627 
L 89.251476 81.167117 
L 90.695933 81.167117 
L 90.695933 82.085912 
L 92.14039 82.085912 
L 92.14039 81.336208 
L 93.584847 81.336208 
L 93.584847 81.809793 
L 95.029304 81.809793 
L 95.029304 87.520391 
L 96.47376 87.520391 
L 96.47376 87.80633 
L 97.918217 87.80633 
L 97.918217 89.502398 
L 99.362674 89.502398 
L 99.362674 90.872178 
L 100.807131 90.872178 
L 100.807131 91.07277 
L 102.251588 91.07277 
L 102.251588 93.201043 
L 103.696045 93.201043 
L 103.696045 97.933716 
L 105.140501 97.933716 
L 105.140501 97.289865 
L 106.584958 97.289865 
L 106.584958 97.905947 
L 107.307187 97.905947 
L 107.307187 99.060807 
L 107.307187 99.060807 
L 106.584958 99.060807 
L 106.584958 99.060807 
L 105.140501 99.060807 
L 105.140501 99.060807 
L 103.696045 99.060807 
L 103.696045 99.060807 
L 102.251588 99.060807 
L 102.251588 99.060807 
L 100.807131 99.060807 
L 100.807131 99.060807 
L 99.362674 99.060807 
L 99.362674 99.060807 
L 97.918217 99.060807 
L 97.918217 99.060807 
L 96.47376 99.060807 
L 96.47376 99.060807 
L 95.029304 99.060807 
L 95.029304 99.060807 
L 93.584847 99.060807 
L 93.584847 99.060807 
L 92.14039 99.060807 
L 92.14039 99.060807 
L 90.695933 99.060807 
L 90.695933 99.060807 
L 89.251476 99.060807 
L 89.251476 99.060807 
L 87.807019 99.060807 
L 87.807019 99.060807 
L 86.362563 99.060807 
L 86.362563 99.060807 
L 84.918106 99.060807 
L 84.918106 99.060807 
L 83.473649 99.060807 
L 83.473649 99.060807 
L 82.029192 99.060807 
L 82.029192 99.060807 
L 80.584735 99.060807 
L 80.584735 99.060807 
L 79.140279 99.060807 
L 79.140279 99.060807 
L 77.695822 99.060807 
L 77.695822 99.060807 
L 76.251365 99.060807 
L 76.251365 99.060807 
L 74.806908 99.060807 
L 74.806908 99.060807 
L 73.362451 99.060807 
L 73.362451 99.060807 
L 72.640223 99.060807 
z
" clip-path="url(#p1aeee76650)" style="fill: #17becf; fill-opacity: 0.6; stroke: #1f77b4; stroke-opacity: 0.8; stroke-width: 1.5"/>
    <path d="M 124.640669 99.060807 
L 124.640669 94.383371 
L 125.362897 94.383371 
L 125.362897 91.835099 
L 126.807354 91.835099 
L 126.807354 87.173401 
L 128.251811 87.173401 
L 128.251811 83.139003 
L 129.696267 83.139003 
L 129.696267 80.905865 
L 131.140724 80.905865 
L 131.140724 80.205075 
L 132.585181 80.205075 
L 132.585181 74.394329 
L 134.029638 74.394329 
L 134.029638 70.720846 
L 135.474095 70.720846 
L 135.474095 69.669065 
L 136.918552 69.669065 
L 136.918552 68.598957 
L 138.363008 68.598957 
L 138.363008 64.617253 
L 139.807465 64.617253 
L 139.807465 66.055796 
L 141.251922 66.055796 
L 141.251922 68.439576 
L 142.696379 68.439576 
L 142.696379 68.383861 
L 144.140836 68.383861 
L 144.140836 68.170071 
L 145.585292 68.170071 
L 145.585292 67.849343 
L 147.029749 67.849343 
L 147.029749 67.4955 
L 148.474206 67.4955 
L 148.474206 64.594511 
L 149.918663 64.594511 
L 149.918663 62.878046 
L 151.36312 62.878046 
L 151.36312 61.828084 
L 152.807577 61.828084 
L 152.807577 60.933967 
L 154.252033 60.933967 
L 154.252033 60.801138 
L 155.69649 60.801138 
L 155.69649 60.938915 
L 157.140947 60.938915 
L 157.140947 62.746237 
L 158.585404 62.746237 
L 158.585404 63.582092 
L 160.029861 63.582092 
L 160.029861 64.585197 
L 161.474318 64.585197 
L 161.474318 63.333889 
L 162.918774 63.333889 
L 162.918774 62.410674 
L 164.363231 62.410674 
L 164.363231 61.257965 
L 165.807688 61.257965 
L 165.807688 60.970673 
L 167.252145 60.970673 
L 167.252145 60.569044 
L 168.696602 60.569044 
L 168.696602 61.530013 
L 170.141058 61.530013 
L 170.141058 61.000873 
L 171.585515 61.000873 
L 171.585515 60.315495 
L 173.029972 60.315495 
L 173.029972 59.67003 
L 174.474429 59.67003 
L 174.474429 58.460303 
L 175.918886 58.460303 
L 175.918886 57.356935 
L 177.363343 57.356935 
L 177.363343 57.118123 
L 178.807799 57.118123 
L 178.807799 56.353042 
L 180.252256 56.353042 
L 180.252256 57.228447 
L 181.696713 57.228447 
L 181.696713 56.424989 
L 183.14117 56.424989 
L 183.14117 55.38053 
L 184.585627 55.38053 
L 184.585627 54.823178 
L 186.030084 54.823178 
L 186.030084 54.071663 
L 187.47454 54.071663 
L 187.47454 55.018231 
L 188.918997 55.018231 
L 188.918997 55.133036 
L 190.363454 55.133036 
L 190.363454 55.943026 
L 191.807911 55.943026 
L 191.807911 56.568935 
L 193.252368 56.568935 
L 193.252368 57.597324 
L 194.696825 57.597324 
L 194.696825 57.305777 
L 196.141281 57.305777 
L 196.141281 58.500619 
L 197.585738 58.500619 
L 197.585738 60.258264 
L 199.030195 60.258264 
L 199.030195 63.320661 
L 200.474652 63.320661 
L 200.474652 62.579776 
L 201.919109 62.579776 
L 201.919109 63.581125 
L 203.363565 63.581125 
L 203.363565 65.670642 
L 204.808022 65.670642 
L 204.808022 65.429233 
L 206.252479 65.429233 
L 206.252479 67.760621 
L 207.696936 67.760621 
L 207.696936 69.927593 
L 209.141393 69.927593 
L 209.141393 71.166242 
L 210.58585 71.166242 
L 210.58585 70.67012 
L 212.030306 70.67012 
L 212.030306 72.057784 
L 213.474763 72.057784 
L 213.474763 71.346266 
L 214.91922 71.346266 
L 214.91922 71.14052 
L 216.363677 71.14052 
L 216.363677 73.964237 
L 217.808134 73.964237 
L 217.808134 80.388173 
L 219.252591 80.388173 
L 219.252591 85.309441 
L 220.697047 85.309441 
L 220.697047 88.578511 
L 222.141504 88.578511 
L 222.141504 92.586001 
L 223.585961 92.586001 
L 223.585961 95.927427 
L 225.030418 95.927427 
L 225.030418 96.857801 
L 226.474875 96.857801 
L 226.474875 96.400467 
L 227.919331 96.400467 
L 227.919331 98.753675 
L 228.64156 98.753675 
L 228.64156 99.060807 
L 228.64156 99.060807 
L 227.919331 99.060807 
L 227.919331 99.060807 
L 226.474875 99.060807 
L 226.474875 99.060807 
L 225.030418 99.060807 
L 225.030418 99.060807 
L 223.585961 99.060807 
L 223.585961 99.060807 
L 222.141504 99.060807 
L 222.141504 99.060807 
L 220.697047 99.060807 
L 220.697047 99.060807 
L 219.252591 99.060807 
L 219.252591 99.060807 
L 217.808134 99.060807 
L 217.808134 99.060807 
L 216.363677 99.060807 
L 216.363677 99.060807 
L 214.91922 99.060807 
L 214.91922 99.060807 
L 213.474763 99.060807 
L 213.474763 99.060807 
L 212.030306 99.060807 
L 212.030306 99.060807 
L 210.58585 99.060807 
L 210.58585 99.060807 
L 209.141393 99.060807 
L 209.141393 99.060807 
L 207.696936 99.060807 
L 207.696936 99.060807 
L 206.252479 99.060807 
L 206.252479 99.060807 
L 204.808022 99.060807 
L 204.808022 99.060807 
L 203.363565 99.060807 
L 203.363565 99.060807 
L 201.919109 99.060807 
L 201.919109 99.060807 
L 200.474652 99.060807 
L 200.474652 99.060807 
L 199.030195 99.060807 
L 199.030195 99.060807 
L 197.585738 99.060807 
L 197.585738 99.060807 
L 196.141281 99.060807 
L 196.141281 99.060807 
L 194.696825 99.060807 
L 194.696825 99.060807 
L 193.252368 99.060807 
L 193.252368 99.060807 
L 191.807911 99.060807 
L 191.807911 99.060807 
L 190.363454 99.060807 
L 190.363454 99.060807 
L 188.918997 99.060807 
L 188.918997 99.060807 
L 187.47454 99.060807 
L 187.47454 99.060807 
L 186.030084 99.060807 
L 186.030084 99.060807 
L 184.585627 99.060807 
L 184.585627 99.060807 
L 183.14117 99.060807 
L 183.14117 99.060807 
L 181.696713 99.060807 
L 181.696713 99.060807 
L 180.252256 99.060807 
L 180.252256 99.060807 
L 178.807799 99.060807 
L 178.807799 99.060807 
L 177.363343 99.060807 
L 177.363343 99.060807 
L 175.918886 99.060807 
L 175.918886 99.060807 
L 174.474429 99.060807 
L 174.474429 99.060807 
L 173.029972 99.060807 
L 173.029972 99.060807 
L 171.585515 99.060807 
L 171.585515 99.060807 
L 170.141058 99.060807 
L 170.141058 99.060807 
L 168.696602 99.060807 
L 168.696602 99.060807 
L 167.252145 99.060807 
L 167.252145 99.060807 
L 165.807688 99.060807 
L 165.807688 99.060807 
L 164.363231 99.060807 
L 164.363231 99.060807 
L 162.918774 99.060807 
L 162.918774 99.060807 
L 161.474318 99.060807 
L 161.474318 99.060807 
L 160.029861 99.060807 
L 160.029861 99.060807 
L 158.585404 99.060807 
L 158.585404 99.060807 
L 157.140947 99.060807 
L 157.140947 99.060807 
L 155.69649 99.060807 
L 155.69649 99.060807 
L 154.252033 99.060807 
L 154.252033 99.060807 
L 152.807577 99.060807 
L 152.807577 99.060807 
L 151.36312 99.060807 
L 151.36312 99.060807 
L 149.918663 99.060807 
L 149.918663 99.060807 
L 148.474206 99.060807 
L 148.474206 99.060807 
L 147.029749 99.060807 
L 147.029749 99.060807 
L 145.585292 99.060807 
L 145.585292 99.060807 
L 144.140836 99.060807 
L 144.140836 99.060807 
L 142.696379 99.060807 
L 142.696379 99.060807 
L 141.251922 99.060807 
L 141.251922 99.060807 
L 139.807465 99.060807 
L 139.807465 99.060807 
L 138.363008 99.060807 
L 138.363008 99.060807 
L 136.918552 99.060807 
L 136.918552 99.060807 
L 135.474095 99.060807 
L 135.474095 99.060807 
L 134.029638 99.060807 
L 134.029638 99.060807 
L 132.585181 99.060807 
L 132.585181 99.060807 
L 131.140724 99.060807 
L 131.140724 99.060807 
L 129.696267 99.060807 
L 129.696267 99.060807 
L 128.251811 99.060807 
L 128.251811 99.060807 
L 126.807354 99.060807 
L 126.807354 99.060807 
L 125.362897 99.060807 
L 125.362897 99.060807 
L 124.640669 99.060807 
z
" clip-path="url(#p1aeee76650)" style="fill: #17becf; fill-opacity: 0.6; stroke: #1f77b4; stroke-opacity: 0.8; stroke-width: 1.5"/>
    <path d="M 306.642228 99.060807 
L 306.642228 95.62158 
L 307.364457 95.62158 
L 307.364457 94.534805 
L 308.808914 94.534805 
L 308.808914 96.073783 
L 310.25337 96.073783 
L 310.25337 96.533336 
L 310.975599 96.533336 
L 310.975599 99.060807 
L 310.975599 99.060807 
L 310.25337 99.060807 
L 310.25337 99.060807 
L 308.808914 99.060807 
L 308.808914 99.060807 
L 307.364457 99.060807 
L 307.364457 99.060807 
L 306.642228 99.060807 
z
" clip-path="url(#p1aeee76650)" style="fill: #17becf; fill-opacity: 0.6; stroke: #1f77b4; stroke-opacity: 0.8; stroke-width: 1.5"/>
    <path d="M 321.086797 99.060807 
L 321.086797 97.747935 
L 321.809025 97.747935 
L 321.809025 95.472209 
L 322.531253 95.472209 
L 322.531253 99.060807 
L 322.531253 99.060807 
L 321.809025 99.060807 
L 321.809025 99.060807 
L 321.086797 99.060807 
z
" clip-path="url(#p1aeee76650)" style="fill: #17becf; fill-opacity: 0.6; stroke: #1f77b4; stroke-opacity: 0.8; stroke-width: 1.5"/>
    <path d="M 344.198106 99.060807 
L 344.198106 97.91745 
L 344.920334 97.91745 
L 344.920334 96.739115 
L 345.642563 96.739115 
L 345.642563 99.060807 
L 345.642563 99.060807 
L 344.920334 99.060807 
L 344.920334 99.060807 
L 344.198106 99.060807 
z
" clip-path="url(#p1aeee76650)" style="fill: #17becf; fill-opacity: 0.6; stroke: #1f77b4; stroke-opacity: 0.8; stroke-width: 1.5"/>
    <path d="M 358.642674 99.060807 
L 358.642674 95.156005 
L 359.364903 95.156005 
L 359.364903 94.441896 
L 360.809359 94.441896 
L 360.809359 88.43448 
L 362.253816 88.43448 
L 362.253816 92.026769 
L 363.698273 92.026769 
L 363.698273 91.838463 
L 365.14273 91.838463 
L 365.14273 95.784152 
L 366.587187 95.784152 
L 366.587187 93.328423 
L 368.031643 93.328423 
L 368.031643 88.637051 
L 369.4761 88.637051 
L 369.4761 92.157701 
L 370.920557 92.157701 
L 370.920557 92.453746 
L 371.642786 92.453746 
L 371.642786 99.060807 
L 371.642786 99.060807 
L 370.920557 99.060807 
L 370.920557 99.060807 
L 369.4761 99.060807 
L 369.4761 99.060807 
L 368.031643 99.060807 
L 368.031643 99.060807 
L 366.587187 99.060807 
L 366.587187 99.060807 
L 365.14273 99.060807 
L 365.14273 99.060807 
L 363.698273 99.060807 
L 363.698273 99.060807 
L 362.253816 99.060807 
L 362.253816 99.060807 
L 360.809359 99.060807 
L 360.809359 99.060807 
L 359.364903 99.060807 
L 359.364903 99.060807 
L 358.642674 99.060807 
z
" clip-path="url(#p1aeee76650)" style="fill: #17becf; fill-opacity: 0.6; stroke: #1f77b4; stroke-opacity: 0.8; stroke-width: 1.5"/>
    <path d="M 397.643008 99.060807 
L 397.643008 96.228155 
L 398.365237 96.228155 
L 398.365237 91.135567 
L 399.809694 91.135567 
L 399.809694 88.156694 
L 401.25415 88.156694 
L 401.25415 85.996022 
L 402.698607 85.996022 
L 402.698607 86.415594 
L 404.143064 86.415594 
L 404.143064 89.727493 
L 405.587521 89.727493 
L 405.587521 90.628964 
L 407.031978 90.628964 
L 407.031978 91.004926 
L 408.476435 91.004926 
L 408.476435 95.072478 
L 409.920891 95.072478 
L 409.920891 92.298568 
L 411.365348 92.298568 
L 411.365348 93.060625 
L 412.809805 93.060625 
L 412.809805 92.277447 
L 414.254262 92.277447 
L 414.254262 93.928336 
L 415.698719 93.928336 
L 415.698719 90.580318 
L 417.143175 90.580318 
L 417.143175 93.94368 
L 418.587632 93.94368 
L 418.587632 92.762902 
L 420.032089 92.762902 
L 420.032089 96.581978 
L 420.754318 96.581978 
L 420.754318 99.060807 
L 420.754318 99.060807 
L 420.032089 99.060807 
L 420.032089 99.060807 
L 418.587632 99.060807 
L 418.587632 99.060807 
L 417.143175 99.060807 
L 417.143175 99.060807 
L 415.698719 99.060807 
L 415.698719 99.060807 
L 414.254262 99.060807 
L 414.254262 99.060807 
L 412.809805 99.060807 
L 412.809805 99.060807 
L 411.365348 99.060807 
L 411.365348 99.060807 
L 409.920891 99.060807 
L 409.920891 99.060807 
L 408.476435 99.060807 
L 408.476435 99.060807 
L 407.031978 99.060807 
L 407.031978 99.060807 
L 405.587521 99.060807 
L 405.587521 99.060807 
L 404.143064 99.060807 
L 404.143064 99.060807 
L 402.698607 99.060807 
L 402.698607 99.060807 
L 401.25415 99.060807 
L 401.25415 99.060807 
L 399.809694 99.060807 
L 399.809694 99.060807 
L 398.365237 99.060807 
L 398.365237 99.060807 
L 397.643008 99.060807 
z
" clip-path="url(#p1aeee76650)" style="fill: #17becf; fill-opacity: 0.6; stroke: #1f77b4; stroke-opacity: 0.8; stroke-width: 1.5"/>
    <path d="M 423.643231 99.060807 
L 423.643231 98.243335 
L 423.643231 98.243335 
L 423.643231 99.060807 
L 423.643231 99.060807 
L 423.643231 99.060807 
z
" clip-path="url(#p1aeee76650)" style="fill: #17becf; fill-opacity: 0.6; stroke: #1f77b4; stroke-opacity: 0.8; stroke-width: 1.5"/>
    <path d="M 446.75454 99.060807 
L 446.75454 92.030352 
L 447.476769 92.030352 
L 447.476769 84.088983 
L 448.921226 84.088983 
L 448.921226 83.815107 
L 450.365682 83.815107 
L 450.365682 85.194944 
L 451.810139 85.194944 
L 451.810139 88.93613 
L 453.254596 88.93613 
L 453.254596 89.434925 
L 454.699053 89.434925 
L 454.699053 86.71298 
L 456.14351 86.71298 
L 456.14351 87.572794 
L 457.587967 87.572794 
L 457.587967 88.913477 
L 459.032423 88.913477 
L 459.032423 84.42412 
L 460.47688 84.42412 
L 460.47688 84.664207 
L 461.921337 84.664207 
L 461.921337 86.923229 
L 463.365794 86.923229 
L 463.365794 89.960072 
L 464.810251 89.960072 
L 464.810251 96.109831 
L 465.532479 96.109831 
L 465.532479 99.060807 
L 465.532479 99.060807 
L 464.810251 99.060807 
L 464.810251 99.060807 
L 463.365794 99.060807 
L 463.365794 99.060807 
L 461.921337 99.060807 
L 461.921337 99.060807 
L 460.47688 99.060807 
L 460.47688 99.060807 
L 459.032423 99.060807 
L 459.032423 99.060807 
L 457.587967 99.060807 
L 457.587967 99.060807 
L 456.14351 99.060807 
L 456.14351 99.060807 
L 454.699053 99.060807 
L 454.699053 99.060807 
L 453.254596 99.060807 
L 453.254596 99.060807 
L 451.810139 99.060807 
L 451.810139 99.060807 
L 450.365682 99.060807 
L 450.365682 99.060807 
L 448.921226 99.060807 
L 448.921226 99.060807 
L 447.476769 99.060807 
L 447.476769 99.060807 
L 446.75454 99.060807 
z
" clip-path="url(#p1aeee76650)" style="fill: #17becf; fill-opacity: 0.6; stroke: #1f77b4; stroke-opacity: 0.8; stroke-width: 1.5"/>
    <path d="M 542.088691 99.060807 
L 542.088691 96.598939 
L 542.810919 96.598939 
L 542.810919 91.774045 
L 544.255376 91.774045 
L 544.255376 88.347143 
L 545.699833 88.347143 
L 545.699833 91.025328 
L 546.422061 91.025328 
L 546.422061 99.060807 
L 546.422061 99.060807 
L 545.699833 99.060807 
L 545.699833 99.060807 
L 544.255376 99.060807 
L 544.255376 99.060807 
L 542.810919 99.060807 
L 542.810919 99.060807 
L 542.088691 99.060807 
z
" clip-path="url(#p1aeee76650)" style="fill: #17becf; fill-opacity: 0.6; stroke: #1f77b4; stroke-opacity: 0.8; stroke-width: 1.5"/>
    <path d="M 549.310975 99.060807 
L 549.310975 91.628123 
L 550.033203 91.628123 
L 550.033203 89.384963 
L 551.47766 89.384963 
L 551.47766 91.159984 
L 552.922117 91.159984 
L 552.922117 90.269634 
L 554.366574 90.269634 
L 554.366574 86.040192 
L 555.811031 86.040192 
L 555.811031 80.962439 
L 557.255487 80.962439 
L 557.255487 82.688593 
L 558.699944 82.688593 
L 558.699944 82.79731 
L 560.144401 82.79731 
L 560.144401 84.66218 
L 561.588858 84.66218 
L 561.588858 84.535888 
L 563.033315 84.535888 
L 563.033315 83.423995 
L 564.477772 83.423995 
L 564.477772 86.803703 
L 565.2 86.803703 
L 565.2 99.060807 
L 565.2 99.060807 
L 564.477772 99.060807 
L 564.477772 99.060807 
L 563.033315 99.060807 
L 563.033315 99.060807 
L 561.588858 99.060807 
L 561.588858 99.060807 
L 560.144401 99.060807 
L 560.144401 99.060807 
L 558.699944 99.060807 
L 558.699944 99.060807 
L 557.255487 99.060807 
L 557.255487 99.060807 
L 555.811031 99.060807 
L 555.811031 99.060807 
L 554.366574 99.060807 
L 554.366574 99.060807 
L 552.922117 99.060807 
L 552.922117 99.060807 
L 551.47766 99.060807 
L 551.47766 99.060807 
L 550.033203 99.060807 
L 550.033203 99.060807 
L 549.310975 99.060807 
z
" clip-path="url(#p1aeee76650)" style="fill: #17becf; fill-opacity: 0.6; stroke: #1f77b4; stroke-opacity: 0.8; stroke-width: 1.5"/>
   </g>
   <g id="PolyCollection_2">
    <path d="M 46.64 99.060807 
L 46.64 104.634188 
L 47.362228 104.634188 
L 47.362228 106.423827 
L 48.806685 106.423827 
L 48.806685 103.923828 
L 49.528914 103.923828 
L 49.528914 99.060807 
L 49.528914 99.060807 
L 48.806685 99.060807 
L 48.806685 99.060807 
L 47.362228 99.060807 
L 47.362228 99.060807 
L 46.64 99.060807 
z
" clip-path="url(#p1aeee76650)" style="fill: #d62728; fill-opacity: 0.6; stroke: #b22222; stroke-opacity: 0.8; stroke-width: 1.5"/>
    <path d="M 69.751309 99.060807 
L 69.751309 100.303983 
L 70.473538 100.303983 
L 70.473538 99.305497 
L 71.195766 99.305497 
L 71.195766 99.060807 
L 71.195766 99.060807 
L 70.473538 99.060807 
L 70.473538 99.060807 
L 69.751309 99.060807 
z
" clip-path="url(#p1aeee76650)" style="fill: #d62728; fill-opacity: 0.6; stroke: #b22222; stroke-opacity: 0.8; stroke-width: 1.5"/>
    <path d="M 108.751643 99.060807 
L 108.751643 104.384399 
L 109.473872 104.384399 
L 109.473872 103.355638 
L 110.918329 103.355638 
L 110.918329 106.340008 
L 112.362786 106.340008 
L 112.362786 105.175372 
L 113.807242 105.175372 
L 113.807242 104.241813 
L 115.251699 104.241813 
L 115.251699 105.290616 
L 116.696156 105.290616 
L 116.696156 101.794138 
L 118.140613 101.794138 
L 118.140613 99.9914 
L 119.58507 99.9914 
L 119.58507 101.519505 
L 121.029526 101.519505 
L 121.029526 103.066853 
L 122.473983 103.066853 
L 122.473983 102.75612 
L 123.196212 102.75612 
L 123.196212 99.060807 
L 123.196212 99.060807 
L 122.473983 99.060807 
L 122.473983 99.060807 
L 121.029526 99.060807 
L 121.029526 99.060807 
L 119.58507 99.060807 
L 119.58507 99.060807 
L 118.140613 99.060807 
L 118.140613 99.060807 
L 116.696156 99.060807 
L 116.696156 99.060807 
L 115.251699 99.060807 
L 115.251699 99.060807 
L 113.807242 99.060807 
L 113.807242 99.060807 
L 112.362786 99.060807 
L 112.362786 99.060807 
L 110.918329 99.060807 
L 110.918329 99.060807 
L 109.473872 99.060807 
L 109.473872 99.060807 
L 108.751643 99.060807 
z
" clip-path="url(#p1aeee76650)" style="fill: #d62728; fill-opacity: 0.6; stroke: #b22222; stroke-opacity: 0.8; stroke-width: 1.5"/>
    <path d="M 230.086017 99.060807 
L 230.086017 103.77306 
L 230.808245 103.77306 
L 230.808245 110.318073 
L 232.252702 110.318073 
L 232.252702 110.717256 
L 233.697159 110.717256 
L 233.697159 113.131873 
L 235.141616 113.131873 
L 235.141616 109.015049 
L 236.586072 109.015049 
L 236.586072 107.520009 
L 238.030529 107.520009 
L 238.030529 108.850299 
L 239.474986 108.850299 
L 239.474986 105.340516 
L 240.919443 105.340516 
L 240.919443 106.864803 
L 242.3639 106.864803 
L 242.3639 107.958844 
L 243.808357 107.958844 
L 243.808357 115.021621 
L 245.252813 115.021621 
L 245.252813 120.087709 
L 246.69727 120.087709 
L 246.69727 113.424158 
L 248.141727 113.424158 
L 248.141727 118.44819 
L 249.586184 118.44819 
L 249.586184 120.2958 
L 251.030641 120.2958 
L 251.030641 131.949169 
L 252.475097 131.949169 
L 252.475097 153.390542 
L 253.919554 153.390542 
L 253.919554 150.096045 
L 255.364011 150.096045 
L 255.364011 151.872652 
L 256.808468 151.872652 
L 256.808468 128.583108 
L 258.252925 128.583108 
L 258.252925 124.055067 
L 259.697382 124.055067 
L 259.697382 122.320432 
L 261.141838 122.320432 
L 261.141838 130.676205 
L 262.586295 130.676205 
L 262.586295 132.680742 
L 264.030752 132.680742 
L 264.030752 137.600145 
L 265.475209 137.600145 
L 265.475209 143.434038 
L 266.919666 143.434038 
L 266.919666 135.769537 
L 268.364123 135.769537 
L 268.364123 129.19049 
L 269.808579 129.19049 
L 269.808579 133.768132 
L 271.253036 133.768132 
L 271.253036 134.319558 
L 272.697493 134.319558 
L 272.697493 139.662627 
L 274.14195 139.662627 
L 274.14195 147.845477 
L 275.586407 147.845477 
L 275.586407 146.190003 
L 277.030864 146.190003 
L 277.030864 131.226135 
L 278.47532 131.226135 
L 278.47532 122.748057 
L 279.919777 122.748057 
L 279.919777 120.05032 
L 281.364234 120.05032 
L 281.364234 107.040144 
L 282.808691 107.040144 
L 282.808691 102.708439 
L 284.253148 102.708439 
L 284.253148 110.172222 
L 285.697604 110.172222 
L 285.697604 108.761285 
L 287.142061 108.761285 
L 287.142061 107.622342 
L 288.586518 107.622342 
L 288.586518 102.333308 
L 290.030975 102.333308 
L 290.030975 108.216517 
L 291.475432 108.216517 
L 291.475432 107.856622 
L 292.919889 107.856622 
L 292.919889 108.259886 
L 294.364345 108.259886 
L 294.364345 99.323065 
L 295.808802 99.323065 
L 295.808802 100.101705 
L 297.253259 100.101705 
L 297.253259 107.030527 
L 298.697716 107.030527 
L 298.697716 104.353785 
L 300.142173 104.353785 
L 300.142173 100.128699 
L 301.58663 100.128699 
L 301.58663 107.093816 
L 303.031086 107.093816 
L 303.031086 99.557469 
L 304.475543 99.557469 
L 304.475543 99.150878 
L 305.197772 99.150878 
L 305.197772 99.060807 
L 305.197772 99.060807 
L 304.475543 99.060807 
L 304.475543 99.060807 
L 303.031086 99.060807 
L 303.031086 99.060807 
L 301.58663 99.060807 
L 301.58663 99.060807 
L 300.142173 99.060807 
L 300.142173 99.060807 
L 298.697716 99.060807 
L 298.697716 99.060807 
L 297.253259 99.060807 
L 297.253259 99.060807 
L 295.808802 99.060807 
L 295.808802 99.060807 
L 294.364345 99.060807 
L 294.364345 99.060807 
L 292.919889 99.060807 
L 292.919889 99.060807 
L 291.475432 99.060807 
L 291.475432 99.060807 
L 290.030975 99.060807 
L 290.030975 99.060807 
L 288.586518 99.060807 
L 288.586518 99.060807 
L 287.142061 99.060807 
L 287.142061 99.060807 
L 285.697604 99.060807 
L 285.697604 99.060807 
L 284.253148 99.060807 
L 284.253148 99.060807 
L 282.808691 99.060807 
L 282.808691 99.060807 
L 281.364234 99.060807 
L 281.364234 99.060807 
L 279.919777 99.060807 
L 279.919777 99.060807 
L 278.47532 99.060807 
L 278.47532 99.060807 
L 277.030864 99.060807 
L 277.030864 99.060807 
L 275.586407 99.060807 
L 275.586407 99.060807 
L 274.14195 99.060807 
L 274.14195 99.060807 
L 272.697493 99.060807 
L 272.697493 99.060807 
L 271.253036 99.060807 
L 271.253036 99.060807 
L 269.808579 99.060807 
L 269.808579 99.060807 
L 268.364123 99.060807 
L 268.364123 99.060807 
L 266.919666 99.060807 
L 266.919666 99.060807 
L 265.475209 99.060807 
L 265.475209 99.060807 
L 264.030752 99.060807 
L 264.030752 99.060807 
L 262.586295 99.060807 
L 262.586295 99.060807 
L 261.141838 99.060807 
L 261.141838 99.060807 
L 259.697382 99.060807 
L 259.697382 99.060807 
L 258.252925 99.060807 
L 258.252925 99.060807 
L 256.808468 99.060807 
L 256.808468 99.060807 
L 255.364011 99.060807 
L 255.364011 99.060807 
L 253.919554 99.060807 
L 253.919554 99.060807 
L 252.475097 99.060807 
L 252.475097 99.060807 
L 251.030641 99.060807 
L 251.030641 99.060807 
L 249.586184 99.060807 
L 249.586184 99.060807 
L 248.141727 99.060807 
L 248.141727 99.060807 
L 246.69727 99.060807 
L 246.69727 99.060807 
L 245.252813 99.060807 
L 245.252813 99.060807 
L 243.808357 99.060807 
L 243.808357 99.060807 
L 242.3639 99.060807 
L 242.3639 99.060807 
L 240.919443 99.060807 
L 240.919443 99.060807 
L 239.474986 99.060807 
L 239.474986 99.060807 
L 238.030529 99.060807 
L 238.030529 99.060807 
L 236.586072 99.060807 
L 236.586072 99.060807 
L 235.141616 99.060807 
L 235.141616 99.060807 
L 233.697159 99.060807 
L 233.697159 99.060807 
L 232.252702 99.060807 
L 232.252702 99.060807 
L 230.808245 99.060807 
L 230.808245 99.060807 
L 230.086017 99.060807 
z
" clip-path="url(#p1aeee76650)" style="fill: #d62728; fill-opacity: 0.6; stroke: #b22222; stroke-opacity: 0.8; stroke-width: 1.5"/>
    <path d="M 312.420056 99.060807 
L 312.420056 99.822898 
L 313.142284 99.822898 
L 313.142284 104.760936 
L 314.586741 104.760936 
L 314.586741 107.934024 
L 316.031198 107.934024 
L 316.031198 111.218589 
L 317.475655 111.218589 
L 317.475655 110.950353 
L 318.920111 110.950353 
L 318.920111 107.49245 
L 319.64234 107.49245 
L 319.64234 99.060807 
L 319.64234 99.060807 
L 318.920111 99.060807 
L 318.920111 99.060807 
L 317.475655 99.060807 
L 317.475655 99.060807 
L 316.031198 99.060807 
L 316.031198 99.060807 
L 314.586741 99.060807 
L 314.586741 99.060807 
L 313.142284 99.060807 
L 313.142284 99.060807 
L 312.420056 99.060807 
z
" clip-path="url(#p1aeee76650)" style="fill: #d62728; fill-opacity: 0.6; stroke: #b22222; stroke-opacity: 0.8; stroke-width: 1.5"/>
    <path d="M 323.97571 99.060807 
L 323.97571 99.551164 
L 324.697939 99.551164 
L 324.697939 102.274932 
L 326.142396 102.274932 
L 326.142396 118.350522 
L 327.586852 118.350522 
L 327.586852 121.430002 
L 329.031309 121.430002 
L 329.031309 124.96895 
L 330.475766 124.96895 
L 330.475766 118.673267 
L 331.920223 118.673267 
L 331.920223 119.308658 
L 333.36468 119.308658 
L 333.36468 120.993528 
L 334.809136 120.993528 
L 334.809136 118.816804 
L 336.253593 118.816804 
L 336.253593 112.87793 
L 337.69805 112.87793 
L 337.69805 116.006629 
L 339.142507 116.006629 
L 339.142507 112.904474 
L 340.586964 112.904474 
L 340.586964 111.161401 
L 342.031421 111.161401 
L 342.031421 105.731196 
L 342.753649 105.731196 
L 342.753649 99.060807 
L 342.753649 99.060807 
L 342.031421 99.060807 
L 342.031421 99.060807 
L 340.586964 99.060807 
L 340.586964 99.060807 
L 339.142507 99.060807 
L 339.142507 99.060807 
L 337.69805 99.060807 
L 337.69805 99.060807 
L 336.253593 99.060807 
L 336.253593 99.060807 
L 334.809136 99.060807 
L 334.809136 99.060807 
L 333.36468 99.060807 
L 333.36468 99.060807 
L 331.920223 99.060807 
L 331.920223 99.060807 
L 330.475766 99.060807 
L 330.475766 99.060807 
L 329.031309 99.060807 
L 329.031309 99.060807 
L 327.586852 99.060807 
L 327.586852 99.060807 
L 326.142396 99.060807 
L 326.142396 99.060807 
L 324.697939 99.060807 
L 324.697939 99.060807 
L 323.97571 99.060807 
z
" clip-path="url(#p1aeee76650)" style="fill: #d62728; fill-opacity: 0.6; stroke: #b22222; stroke-opacity: 0.8; stroke-width: 1.5"/>
    <path d="M 347.087019 99.060807 
L 347.087019 104.957134 
L 347.809248 104.957134 
L 347.809248 103.22536 
L 349.253705 103.22536 
L 349.253705 106.431892 
L 350.698162 106.431892 
L 350.698162 111.441589 
L 352.142618 111.441589 
L 352.142618 122.386174 
L 353.587075 122.386174 
L 353.587075 122.236315 
L 355.031532 122.236315 
L 355.031532 114.373754 
L 356.475989 114.373754 
L 356.475989 108.024872 
L 357.198217 108.024872 
L 357.198217 99.060807 
L 357.198217 99.060807 
L 356.475989 99.060807 
L 356.475989 99.060807 
L 355.031532 99.060807 
L 355.031532 99.060807 
L 353.587075 99.060807 
L 353.587075 99.060807 
L 352.142618 99.060807 
L 352.142618 99.060807 
L 350.698162 99.060807 
L 350.698162 99.060807 
L 349.253705 99.060807 
L 349.253705 99.060807 
L 347.809248 99.060807 
L 347.809248 99.060807 
L 347.087019 99.060807 
z
" clip-path="url(#p1aeee76650)" style="fill: #d62728; fill-opacity: 0.6; stroke: #b22222; stroke-opacity: 0.8; stroke-width: 1.5"/>
    <path d="M 373.087242 99.060807 
L 373.087242 100.426163 
L 373.809471 100.426163 
L 373.809471 106.054404 
L 375.253928 106.054404 
L 375.253928 115.14738 
L 376.698384 115.14738 
L 376.698384 123.632472 
L 378.142841 123.632472 
L 378.142841 129.940311 
L 379.587298 129.940311 
L 379.587298 135.92906 
L 381.031755 135.92906 
L 381.031755 129.899034 
L 382.476212 129.899034 
L 382.476212 120.466345 
L 383.920669 120.466345 
L 383.920669 117.766171 
L 385.365125 117.766171 
L 385.365125 114.45526 
L 386.809582 114.45526 
L 386.809582 116.348321 
L 388.254039 116.348321 
L 388.254039 115.447817 
L 389.698496 115.447817 
L 389.698496 123.425594 
L 391.142953 123.425594 
L 391.142953 120.909565 
L 392.587409 120.909565 
L 392.587409 108.515795 
L 394.031866 108.515795 
L 394.031866 110.906165 
L 395.476323 110.906165 
L 395.476323 102.172293 
L 396.198552 102.172293 
L 396.198552 99.060807 
L 396.198552 99.060807 
L 395.476323 99.060807 
L 395.476323 99.060807 
L 394.031866 99.060807 
L 394.031866 99.060807 
L 392.587409 99.060807 
L 392.587409 99.060807 
L 391.142953 99.060807 
L 391.142953 99.060807 
L 389.698496 99.060807 
L 389.698496 99.060807 
L 388.254039 99.060807 
L 388.254039 99.060807 
L 386.809582 99.060807 
L 386.809582 99.060807 
L 385.365125 99.060807 
L 385.365125 99.060807 
L 383.920669 99.060807 
L 383.920669 99.060807 
L 382.476212 99.060807 
L 382.476212 99.060807 
L 381.031755 99.060807 
L 381.031755 99.060807 
L 379.587298 99.060807 
L 379.587298 99.060807 
L 378.142841 99.060807 
L 378.142841 99.060807 
L 376.698384 99.060807 
L 376.698384 99.060807 
L 375.253928 99.060807 
L 375.253928 99.060807 
L 373.809471 99.060807 
L 373.809471 99.060807 
L 373.087242 99.060807 
z
" clip-path="url(#p1aeee76650)" style="fill: #d62728; fill-opacity: 0.6; stroke: #b22222; stroke-opacity: 0.8; stroke-width: 1.5"/>
    <path d="M 422.198774 99.060807 
L 422.198774 102.25409 
L 422.198774 102.25409 
L 422.198774 99.060807 
L 422.198774 99.060807 
L 422.198774 99.060807 
z
" clip-path="url(#p1aeee76650)" style="fill: #d62728; fill-opacity: 0.6; stroke: #b22222; stroke-opacity: 0.8; stroke-width: 1.5"/>
    <path d="M 425.087688 99.060807 
L 425.087688 101.549955 
L 425.809916 101.549955 
L 425.809916 101.892256 
L 427.254373 101.892256 
L 427.254373 109.350607 
L 428.69883 109.350607 
L 428.69883 108.976967 
L 430.143287 108.976967 
L 430.143287 116.636413 
L 431.587744 116.636413 
L 431.587744 113.566579 
L 433.032201 113.566579 
L 433.032201 119.583222 
L 434.476657 119.583222 
L 434.476657 122.184528 
L 435.921114 122.184528 
L 435.921114 127.946354 
L 437.365571 127.946354 
L 437.365571 135.391087 
L 438.810028 135.391087 
L 438.810028 123.963941 
L 440.254485 123.963941 
L 440.254485 130.232082 
L 441.698942 130.232082 
L 441.698942 123.218947 
L 443.143398 123.218947 
L 443.143398 114.1038 
L 444.587855 114.1038 
L 444.587855 106.015148 
L 445.310084 106.015148 
L 445.310084 99.060807 
L 445.310084 99.060807 
L 444.587855 99.060807 
L 444.587855 99.060807 
L 443.143398 99.060807 
L 443.143398 99.060807 
L 441.698942 99.060807 
L 441.698942 99.060807 
L 440.254485 99.060807 
L 440.254485 99.060807 
L 438.810028 99.060807 
L 438.810028 99.060807 
L 437.365571 99.060807 
L 437.365571 99.060807 
L 435.921114 99.060807 
L 435.921114 99.060807 
L 434.476657 99.060807 
L 434.476657 99.060807 
L 433.032201 99.060807 
L 433.032201 99.060807 
L 431.587744 99.060807 
L 431.587744 99.060807 
L 430.143287 99.060807 
L 430.143287 99.060807 
L 428.69883 99.060807 
L 428.69883 99.060807 
L 427.254373 99.060807 
L 427.254373 99.060807 
L 425.809916 99.060807 
L 425.809916 99.060807 
L 425.087688 99.060807 
z
" clip-path="url(#p1aeee76650)" style="fill: #d62728; fill-opacity: 0.6; stroke: #b22222; stroke-opacity: 0.8; stroke-width: 1.5"/>
    <path d="M 466.976936 99.060807 
L 466.976936 106.533737 
L 467.699164 106.533737 
L 467.699164 113.024082 
L 469.143621 113.024082 
L 469.143621 128.829156 
L 470.588078 128.829156 
L 470.588078 126.005608 
L 472.032535 126.005608 
L 472.032535 124.78327 
L 473.476992 124.78327 
L 473.476992 122.599283 
L 474.921448 122.599283 
L 474.921448 131.377 
L 476.365905 131.377 
L 476.365905 130.738936 
L 477.810362 130.738936 
L 477.810362 121.589998 
L 479.254819 121.589998 
L 479.254819 129.492 
L 480.699276 129.492 
L 480.699276 135.334306 
L 482.143733 135.334306 
L 482.143733 143.416027 
L 483.588189 143.416027 
L 483.588189 149.117031 
L 485.032646 149.117031 
L 485.032646 167.42 
L 486.477103 167.42 
L 486.477103 163.635514 
L 487.92156 163.635514 
L 487.92156 147.586303 
L 489.366017 147.586303 
L 489.366017 142.646588 
L 490.810474 142.646588 
L 490.810474 131.86268 
L 492.25493 131.86268 
L 492.25493 129.367366 
L 493.699387 129.367366 
L 493.699387 133.20545 
L 495.143844 133.20545 
L 495.143844 132.878811 
L 496.588301 132.878811 
L 496.588301 138.450986 
L 498.032758 138.450986 
L 498.032758 127.172179 
L 499.477214 127.172179 
L 499.477214 114.484098 
L 500.921671 114.484098 
L 500.921671 116.483932 
L 502.366128 116.483932 
L 502.366128 116.080573 
L 503.810585 116.080573 
L 503.810585 111.249454 
L 505.255042 111.249454 
L 505.255042 110.566745 
L 506.699499 110.566745 
L 506.699499 112.592005 
L 508.143955 112.592005 
L 508.143955 117.704626 
L 509.588412 117.704626 
L 509.588412 111.775852 
L 511.032869 111.775852 
L 511.032869 106.073208 
L 512.477326 106.073208 
L 512.477326 104.433169 
L 513.921783 104.433169 
L 513.921783 103.377851 
L 515.36624 103.377851 
L 515.36624 106.306191 
L 516.810696 106.306191 
L 516.810696 113.78544 
L 518.255153 113.78544 
L 518.255153 111.882998 
L 519.69961 111.882998 
L 519.69961 107.581731 
L 521.144067 107.581731 
L 521.144067 102.541305 
L 522.588524 102.541305 
L 522.588524 103.959809 
L 524.032981 103.959809 
L 524.032981 109.052454 
L 525.477437 109.052454 
L 525.477437 111.310054 
L 526.921894 111.310054 
L 526.921894 111.09036 
L 528.366351 111.09036 
L 528.366351 115.800287 
L 529.810808 115.800287 
L 529.810808 118.73234 
L 531.255265 118.73234 
L 531.255265 122.865977 
L 532.699721 122.865977 
L 532.699721 114.506631 
L 534.144178 114.506631 
L 534.144178 114.099917 
L 535.588635 114.099917 
L 535.588635 104.473082 
L 537.033092 104.473082 
L 537.033092 101.983044 
L 538.477549 101.983044 
L 538.477549 100.201137 
L 539.922006 100.201137 
L 539.922006 101.238305 
L 540.644234 101.238305 
L 540.644234 99.060807 
L 540.644234 99.060807 
L 539.922006 99.060807 
L 539.922006 99.060807 
L 538.477549 99.060807 
L 538.477549 99.060807 
L 537.033092 99.060807 
L 537.033092 99.060807 
L 535.588635 99.060807 
L 535.588635 99.060807 
L 534.144178 99.060807 
L 534.144178 99.060807 
L 532.699721 99.060807 
L 532.699721 99.060807 
L 531.255265 99.060807 
L 531.255265 99.060807 
L 529.810808 99.060807 
L 529.810808 99.060807 
L 528.366351 99.060807 
L 528.366351 99.060807 
L 526.921894 99.060807 
L 526.921894 99.060807 
L 525.477437 99.060807 
L 525.477437 99.060807 
L 524.032981 99.060807 
L 524.032981 99.060807 
L 522.588524 99.060807 
L 522.588524 99.060807 
L 521.144067 99.060807 
L 521.144067 99.060807 
L 519.69961 99.060807 
L 519.69961 99.060807 
L 518.255153 99.060807 
L 518.255153 99.060807 
L 516.810696 99.060807 
L 516.810696 99.060807 
L 515.36624 99.060807 
L 515.36624 99.060807 
L 513.921783 99.060807 
L 513.921783 99.060807 
L 512.477326 99.060807 
L 512.477326 99.060807 
L 511.032869 99.060807 
L 511.032869 99.060807 
L 509.588412 99.060807 
L 509.588412 99.060807 
L 508.143955 99.060807 
L 508.143955 99.060807 
L 506.699499 99.060807 
L 506.699499 99.060807 
L 505.255042 99.060807 
L 505.255042 99.060807 
L 503.810585 99.060807 
L 503.810585 99.060807 
L 502.366128 99.060807 
L 502.366128 99.060807 
L 500.921671 99.060807 
L 500.921671 99.060807 
L 499.477214 99.060807 
L 499.477214 99.060807 
L 498.032758 99.060807 
L 498.032758 99.060807 
L 496.588301 99.060807 
L 496.588301 99.060807 
L 495.143844 99.060807 
L 495.143844 99.060807 
L 493.699387 99.060807 
L 493.699387 99.060807 
L 492.25493 99.060807 
L 492.25493 99.060807 
L 490.810474 99.060807 
L 490.810474 99.060807 
L 489.366017 99.060807 
L 489.366017 99.060807 
L 487.92156 99.060807 
L 487.92156 99.060807 
L 486.477103 99.060807 
L 486.477103 99.060807 
L 485.032646 99.060807 
L 485.032646 99.060807 
L 483.588189 99.060807 
L 483.588189 99.060807 
L 482.143733 99.060807 
L 482.143733 99.060807 
L 480.699276 99.060807 
L 480.699276 99.060807 
L 479.254819 99.060807 
L 479.254819 99.060807 
L 477.810362 99.060807 
L 477.810362 99.060807 
L 476.365905 99.060807 
L 476.365905 99.060807 
L 474.921448 99.060807 
L 474.921448 99.060807 
L 473.476992 99.060807 
L 473.476992 99.060807 
L 472.032535 99.060807 
L 472.032535 99.060807 
L 470.588078 99.060807 
L 470.588078 99.060807 
L 469.143621 99.060807 
L 469.143621 99.060807 
L 467.699164 99.060807 
L 467.699164 99.060807 
L 466.976936 99.060807 
z
" clip-path="url(#p1aeee76650)" style="fill: #d62728; fill-opacity: 0.6; stroke: #b22222; stroke-opacity: 0.8; stroke-width: 1.5"/>
    <path d="M 547.866518 99.060807 
L 547.866518 99.925865 
L 547.866518 99.925865 
L 547.866518 99.060807 
L 547.866518 99.060807 
L 547.866518 99.060807 
z
" clip-path="url(#p1aeee76650)" style="fill: #d62728; fill-opacity: 0.6; stroke: #b22222; stroke-opacity: 0.8; stroke-width: 1.5"/>
   </g>
   <g id="matplotlib.axis_1">
    <g id="xtick_1">
     <g id="line2d_1">
      <defs>
       <path id="me335648d47" d="M 0 0 
L 0 3.5 
" style="stroke: #000000; stroke-width: 0.8"/>
      </defs>
      <g>
       <use xlink:href="#me335648d47" x="115.973928" y="167.42" style="stroke: #000000; stroke-width: 0.8"/>
      </g>
     </g>
     <g id="text_1">
      <!-- 1995 -->
      <g transform="translate(103.248928 182.018437) scale(0.1 -0.1)">
       <defs>
        <path id="DejaVuSans-31" d="M 794 531 
L 1825 531 
L 1825 4091 
L 703 3866 
L 703 4441 
L 1819 4666 
L 2450 4666 
L 2450 531 
L 3481 531 
L 3481 0 
L 794 0 
L 794 531 
z
" transform="scale(0.015625)"/>
        <path id="DejaVuSans-39" d="M 703 97 
L 703 672 
Q 941 559 1184 500 
Q 1428 441 1663 441 
Q 2288 441 2617 861 
Q 2947 1281 2994 2138 
Q 2813 1869 2534 1725 
Q 2256 1581 1919 1581 
Q 1219 1581 811 2004 
Q 403 2428 403 3163 
Q 403 3881 828 4315 
Q 1253 4750 1959 4750 
Q 2769 4750 3195 4129 
Q 3622 3509 3622 2328 
Q 3622 1225 3098 567 
Q 2575 -91 1691 -91 
Q 1453 -91 1209 -44 
Q 966 3 703 97 
z
M 1959 2075 
Q 2384 2075 2632 2365 
Q 2881 2656 2881 3163 
Q 2881 3666 2632 3958 
Q 2384 4250 1959 4250 
Q 1534 4250 1286 3958 
Q 1038 3666 1038 3163 
Q 1038 2656 1286 2365 
Q 1534 2075 1959 2075 
z
" transform="scale(0.015625)"/>
        <path id="DejaVuSans-35" d="M 691 4666 
L 3169 4666 
L 3169 4134 
L 1269 4134 
L 1269 2991 
Q 1406 3038 1543 3061 
Q 1681 3084 1819 3084 
Q 2600 3084 3056 2656 
Q 3513 2228 3513 1497 
Q 3513 744 3044 326 
Q 2575 -91 1722 -91 
Q 1428 -91 1123 -41 
Q 819 9 494 109 
L 494 744 
Q 775 591 1075 516 
Q 1375 441 1709 441 
Q 2250 441 2565 725 
Q 2881 1009 2881 1497 
Q 2881 1984 2565 2268 
Q 2250 2553 1709 2553 
Q 1456 2553 1204 2497 
Q 953 2441 691 2322 
L 691 4666 
z
" transform="scale(0.015625)"/>
       </defs>
       <use xlink:href="#DejaVuSans-31"/>
       <use xlink:href="#DejaVuSans-39" x="63.623047"/>
       <use xlink:href="#DejaVuSans-39" x="127.246094"/>
       <use xlink:href="#DejaVuSans-35" x="190.869141"/>
      </g>
     </g>
    </g>
    <g id="xtick_2">
     <g id="line2d_2">
      <g>
       <use xlink:href="#me335648d47" x="202.641337" y="167.42" style="stroke: #000000; stroke-width: 0.8"/>
      </g>
     </g>
     <g id="text_2">
      <!-- 2000 -->
      <g transform="translate(189.916337 182.018437) scale(0.1 -0.1)">
       <defs>
        <path id="DejaVuSans-32" d="M 1228 531 
L 3431 531 
L 3431 0 
L 469 0 
L 469 531 
Q 828 903 1448 1529 
Q 2069 2156 2228 2338 
Q 2531 2678 2651 2914 
Q 2772 3150 2772 3378 
Q 2772 3750 2511 3984 
Q 2250 4219 1831 4219 
Q 1534 4219 1204 4116 
Q 875 4013 500 3803 
L 500 4441 
Q 881 4594 1212 4672 
Q 1544 4750 1819 4750 
Q 2544 4750 2975 4387 
Q 3406 4025 3406 3419 
Q 3406 3131 3298 2873 
Q 3191 2616 2906 2266 
Q 2828 2175 2409 1742 
Q 1991 1309 1228 531 
z
" transform="scale(0.015625)"/>
        <path id="DejaVuSans-30" d="M 2034 4250 
Q 1547 4250 1301 3770 
Q 1056 3291 1056 2328 
Q 1056 1369 1301 889 
Q 1547 409 2034 409 
Q 2525 409 2770 889 
Q 3016 1369 3016 2328 
Q 3016 3291 2770 3770 
Q 2525 4250 2034 4250 
z
M 2034 4750 
Q 2819 4750 3233 4129 
Q 3647 3509 3647 2328 
Q 3647 1150 3233 529 
Q 2819 -91 2034 -91 
Q 1250 -91 836 529 
Q 422 1150 422 2328 
Q 422 3509 836 4129 
Q 1250 4750 2034 4750 
z
" transform="scale(0.015625)"/>
       </defs>
       <use xlink:href="#DejaVuSans-32"/>
       <use xlink:href="#DejaVuSans-30" x="63.623047"/>
       <use xlink:href="#DejaVuSans-30" x="127.246094"/>
       <use xlink:href="#DejaVuSans-30" x="190.869141"/>
      </g>
     </g>
    </g>
    <g id="xtick_3">
     <g id="line2d_3">
      <g>
       <use xlink:href="#me335648d47" x="289.308747" y="167.42" style="stroke: #000000; stroke-width: 0.8"/>
      </g>
     </g>
     <g id="text_3">
      <!-- 2005 -->
      <g transform="translate(276.583747 182.018437) scale(0.1 -0.1)">
       <use xlink:href="#DejaVuSans-32"/>
       <use xlink:href="#DejaVuSans-30" x="63.623047"/>
       <use xlink:href="#DejaVuSans-30" x="127.246094"/>
       <use xlink:href="#DejaVuSans-35" x="190.869141"/>
      </g>
     </g>
    </g>
    <g id="xtick_4">
     <g id="line2d_4">
      <g>
       <use xlink:href="#me335648d47" x="375.976156" y="167.42" style="stroke: #000000; stroke-width: 0.8"/>
      </g>
     </g>
     <g id="text_4">
      <!-- 2010 -->
      <g transform="translate(363.251156 182.018437) scale(0.1 -0.1)">
       <use xlink:href="#DejaVuSans-32"/>
       <use xlink:href="#DejaVuSans-30" x="63.623047"/>
       <use xlink:href="#DejaVuSans-31" x="127.246094"/>
       <use xlink:href="#DejaVuSans-30" x="190.869141"/>
      </g>
     </g>
    </g>
    <g id="xtick_5">
     <g id="line2d_5">
      <g>
       <use xlink:href="#me335648d47" x="462.643565" y="167.42" style="stroke: #000000; stroke-width: 0.8"/>
      </g>
     </g>
     <g id="text_5">
      <!-- 2015 -->
      <g transform="translate(449.918565 182.018437) scale(0.1 -0.1)">
       <use xlink:href="#DejaVuSans-32"/>
       <use xlink:href="#DejaVuSans-30" x="63.623047"/>
       <use xlink:href="#DejaVuSans-31" x="127.246094"/>
       <use xlink:href="#DejaVuSans-35" x="190.869141"/>
      </g>
     </g>
    </g>
    <g id="xtick_6">
     <g id="line2d_6">
      <g>
       <use xlink:href="#me335648d47" x="549.310975" y="167.42" style="stroke: #000000; stroke-width: 0.8"/>
      </g>
     </g>
     <g id="text_6">
      <!-- 2020 -->
      <g transform="translate(536.585975 182.018437) scale(0.1 -0.1)">
       <use xlink:href="#DejaVuSans-32"/>
       <use xlink:href="#DejaVuSans-30" x="63.623047"/>
       <use xlink:href="#DejaVuSans-32" x="127.246094"/>
       <use xlink:href="#DejaVuSans-30" x="190.869141"/>
      </g>
     </g>
    </g>
   </g>
   <g id="matplotlib.axis_2">
    <g id="ytick_1">
     <g id="line2d_7">
      <defs>
       <path id="m3874740b37" d="M 0 0 
L -3.5 0 
" style="stroke: #000000; stroke-width: 0.8"/>
      </defs>
      <g>
       <use xlink:href="#m3874740b37" x="46.64" y="142.061345" style="stroke: #000000; stroke-width: 0.8"/>
      </g>
     </g>
     <g id="text_7">
      <!-- −2 -->
      <g transform="translate(24.897813 145.860564) scale(0.1 -0.1)">
       <defs>
        <path id="DejaVuSans-2212" d="M 678 2272 
L 4684 2272 
L 4684 1741 
L 678 1741 
L 678 2272 
z
" transform="scale(0.015625)"/>
       </defs>
       <use xlink:href="#DejaVuSans-2212"/>
       <use xlink:href="#DejaVuSans-32" x="83.789062"/>
      </g>
     </g>
    </g>
    <g id="ytick_2">
     <g id="line2d_8">
      <g>
       <use xlink:href="#m3874740b37" x="46.64" y="99.060807" style="stroke: #000000; stroke-width: 0.8"/>
      </g>
     </g>
     <g id="text_8">
      <!-- 0 -->
      <g transform="translate(33.2775 102.860026) scale(0.1 -0.1)">
       <use xlink:href="#DejaVuSans-30"/>
      </g>
     </g>
    </g>
    <g id="ytick_3">
     <g id="line2d_9">
      <g>
       <use xlink:href="#m3874740b37" x="46.64" y="56.060269" style="stroke: #000000; stroke-width: 0.8"/>
      </g>
     </g>
     <g id="text_9">
      <!-- 2 -->
      <g transform="translate(33.2775 59.859488) scale(0.1 -0.1)">
       <use xlink:href="#DejaVuSans-32"/>
      </g>
     </g>
    </g>
    <g id="text_10">
     <!-- Bitterroot -->
     <g transform="translate(18.818125 124.79625) rotate(-90) scale(0.1 -0.1)">
      <defs>
       <path id="DejaVuSans-42" d="M 1259 2228 
L 1259 519 
L 2272 519 
Q 2781 519 3026 730 
Q 3272 941 3272 1375 
Q 3272 1813 3026 2020 
Q 2781 2228 2272 2228 
L 1259 2228 
z
M 1259 4147 
L 1259 2741 
L 2194 2741 
Q 2656 2741 2882 2914 
Q 3109 3088 3109 3444 
Q 3109 3797 2882 3972 
Q 2656 4147 2194 4147 
L 1259 4147 
z
M 628 4666 
L 2241 4666 
Q 2963 4666 3353 4366 
Q 3744 4066 3744 3513 
Q 3744 3084 3544 2831 
Q 3344 2578 2956 2516 
Q 3422 2416 3680 2098 
Q 3938 1781 3938 1306 
Q 3938 681 3513 340 
Q 3088 0 2303 0 
L 628 0 
L 628 4666 
z
" transform="scale(0.015625)"/>
       <path id="DejaVuSans-69" d="M 603 3500 
L 1178 3500 
L 1178 0 
L 603 0 
L 603 3500 
z
M 603 4863 
L 1178 4863 
L 1178 4134 
L 603 4134 
L 603 4863 
z
" transform="scale(0.015625)"/>
       <path id="DejaVuSans-74" d="M 1172 4494 
L 1172 3500 
L 2356 3500 
L 2356 3053 
L 1172 3053 
L 1172 1153 
Q 1172 725 1289 603 
Q 1406 481 1766 481 
L 2356 481 
L 2356 0 
L 1766 0 
Q 1100 0 847 248 
Q 594 497 594 1153 
L 594 3053 
L 172 3053 
L 172 3500 
L 594 3500 
L 594 4494 
L 1172 4494 
z
" transform="scale(0.015625)"/>
       <path id="DejaVuSans-65" d="M 3597 1894 
L 3597 1613 
L 953 1613 
Q 991 1019 1311 708 
Q 1631 397 2203 397 
Q 2534 397 2845 478 
Q 3156 559 3463 722 
L 3463 178 
Q 3153 47 2828 -22 
Q 2503 -91 2169 -91 
Q 1331 -91 842 396 
Q 353 884 353 1716 
Q 353 2575 817 3079 
Q 1281 3584 2069 3584 
Q 2775 3584 3186 3129 
Q 3597 2675 3597 1894 
z
M 3022 2063 
Q 3016 2534 2758 2815 
Q 2500 3097 2075 3097 
Q 1594 3097 1305 2825 
Q 1016 2553 972 2059 
L 3022 2063 
z
" transform="scale(0.015625)"/>
       <path id="DejaVuSans-72" d="M 2631 2963 
Q 2534 3019 2420 3045 
Q 2306 3072 2169 3072 
Q 1681 3072 1420 2755 
Q 1159 2438 1159 1844 
L 1159 0 
L 581 0 
L 581 3500 
L 1159 3500 
L 1159 2956 
Q 1341 3275 1631 3429 
Q 1922 3584 2338 3584 
Q 2397 3584 2469 3576 
Q 2541 3569 2628 3553 
L 2631 2963 
z
" transform="scale(0.015625)"/>
       <path id="DejaVuSans-6f" d="M 1959 3097 
Q 1497 3097 1228 2736 
Q 959 2375 959 1747 
Q 959 1119 1226 758 
Q 1494 397 1959 397 
Q 2419 397 2687 759 
Q 2956 1122 2956 1747 
Q 2956 2369 2687 2733 
Q 2419 3097 1959 3097 
z
M 1959 3584 
Q 2709 3584 3137 3096 
Q 3566 2609 3566 1747 
Q 3566 888 3137 398 
Q 2709 -91 1959 -91 
Q 1206 -91 779 398 
Q 353 888 353 1747 
Q 353 2609 779 3096 
Q 1206 3584 1959 3584 
z
" transform="scale(0.015625)"/>
      </defs>
      <use xlink:href="#DejaVuSans-42"/>
      <use xlink:href="#DejaVuSans-69" x="68.603516"/>
      <use xlink:href="#DejaVuSans-74" x="96.386719"/>
      <use xlink:href="#DejaVuSans-74" x="135.595703"/>
      <use xlink:href="#DejaVuSans-65" x="174.804688"/>
      <use xlink:href="#DejaVuSans-72" x="236.328125"/>
      <use xlink:href="#DejaVuSans-72" x="275.691406"/>
      <use xlink:href="#DejaVuSans-6f" x="314.554688"/>
      <use xlink:href="#DejaVuSans-6f" x="375.736328"/>
      <use xlink:href="#DejaVuSans-74" x="436.917969"/>
     </g>
    </g>
   </g>
   <g id="line2d_10">
    <path d="M 46.64 99.060807 
L 565.2 99.060807 
" clip-path="url(#p1aeee76650)" style="fill: none; stroke: #000000; stroke-width: 1.5; stroke-linecap: square"/>
   </g>
   <g id="patch_3">
    <path d="M 46.64 167.42 
L 46.64 34.56 
" style="fill: none; stroke: #000000; stroke-width: 0.8; stroke-linejoin: miter; stroke-linecap: square"/>
   </g>
   <g id="patch_4">
    <path d="M 46.64 167.42 
L 565.2 167.42 
" style="fill: none; stroke: #000000; stroke-width: 0.8; stroke-linejoin: miter; stroke-linecap: square"/>
   </g>
  </g>
  <g id="axes_2">
   <g id="patch_5">
    <path d="M 46.64 332.12 
L 565.2 332.12 
L 565.2 199.26 
L 46.64 199.26 
z
" style="fill: #ffffff"/>
   </g>
   <g id="PolyCollection_3">
    <path d="M 76.973593 265.69 
L 76.973593 263.749975 
L 77.695822 263.749975 
L 77.695822 263.730559 
L 79.140279 263.730559 
L 79.140279 263.28202 
L 80.584735 263.28202 
L 80.584735 261.299332 
L 82.029192 261.299332 
L 82.029192 261.550872 
L 82.751421 261.550872 
L 82.751421 265.69 
L 82.751421 265.69 
L 82.029192 265.69 
L 82.029192 265.69 
L 80.584735 265.69 
L 80.584735 265.69 
L 79.140279 265.69 
L 79.140279 265.69 
L 77.695822 265.69 
L 77.695822 265.69 
L 76.973593 265.69 
z
" clip-path="url(#pd6afbc3561)" style="fill: #17becf; fill-opacity: 0.6; stroke: #1f77b4; stroke-opacity: 0.8; stroke-width: 1.5"/>
    <path d="M 85.640334 265.69 
L 85.640334 264.032204 
L 86.362563 264.032204 
L 86.362563 263.700205 
L 87.807019 263.700205 
L 87.807019 256.161893 
L 89.251476 256.161893 
L 89.251476 241.752143 
L 90.695933 241.752143 
L 90.695933 238.740824 
L 92.14039 238.740824 
L 92.14039 237.487617 
L 93.584847 237.487617 
L 93.584847 240.643824 
L 95.029304 240.643824 
L 95.029304 239.414118 
L 96.47376 239.414118 
L 96.47376 240.116439 
L 97.918217 240.116439 
L 97.918217 239.752696 
L 99.362674 239.752696 
L 99.362674 239.500884 
L 100.807131 239.500884 
L 100.807131 243.300827 
L 102.251588 243.300827 
L 102.251588 244.734973 
L 103.696045 244.734973 
L 103.696045 247.946982 
L 105.140501 247.946982 
L 105.140501 248.329502 
L 106.584958 248.329502 
L 106.584958 246.574914 
L 108.029415 246.574914 
L 108.029415 251.665297 
L 109.473872 251.665297 
L 109.473872 251.277116 
L 110.918329 251.277116 
L 110.918329 246.21304 
L 112.362786 246.21304 
L 112.362786 244.100297 
L 113.807242 244.100297 
L 113.807242 243.31416 
L 115.251699 243.31416 
L 115.251699 239.507459 
L 116.696156 239.507459 
L 116.696156 239.554132 
L 118.140613 239.554132 
L 118.140613 239.035878 
L 119.58507 239.035878 
L 119.58507 238.923237 
L 121.029526 238.923237 
L 121.029526 239.798984 
L 122.473983 239.798984 
L 122.473983 239.160773 
L 123.91844 239.160773 
L 123.91844 232.78666 
L 125.362897 232.78666 
L 125.362897 231.370671 
L 126.807354 231.370671 
L 126.807354 231.632245 
L 128.251811 231.632245 
L 128.251811 229.379709 
L 129.696267 229.379709 
L 129.696267 230.372989 
L 131.140724 230.372989 
L 131.140724 230.06059 
L 132.585181 230.06059 
L 132.585181 228.869723 
L 134.029638 228.869723 
L 134.029638 228.821813 
L 135.474095 228.821813 
L 135.474095 227.654026 
L 136.918552 227.654026 
L 136.918552 227.001779 
L 138.363008 227.001779 
L 138.363008 222.157726 
L 139.807465 222.157726 
L 139.807465 227.334093 
L 141.251922 227.334093 
L 141.251922 229.789648 
L 142.696379 229.789648 
L 142.696379 230.540826 
L 144.140836 230.540826 
L 144.140836 230.076145 
L 145.585292 230.076145 
L 145.585292 230.387857 
L 147.029749 230.387857 
L 147.029749 229.71901 
L 148.474206 229.71901 
L 148.474206 229.169019 
L 149.918663 229.169019 
L 149.918663 228.174334 
L 151.36312 228.174334 
L 151.36312 228.990063 
L 152.807577 228.990063 
L 152.807577 229.146037 
L 154.252033 229.146037 
L 154.252033 229.654896 
L 155.69649 229.654896 
L 155.69649 229.817654 
L 157.140947 229.817654 
L 157.140947 231.321821 
L 158.585404 231.321821 
L 158.585404 234.352216 
L 160.029861 234.352216 
L 160.029861 235.764565 
L 161.474318 235.764565 
L 161.474318 233.514537 
L 162.918774 233.514537 
L 162.918774 232.957705 
L 164.363231 232.957705 
L 164.363231 232.03391 
L 165.807688 232.03391 
L 165.807688 231.379138 
L 167.252145 231.379138 
L 167.252145 229.683354 
L 168.696602 229.683354 
L 168.696602 230.096018 
L 170.141058 230.096018 
L 170.141058 228.282602 
L 171.585515 228.282602 
L 171.585515 227.200565 
L 173.029972 227.200565 
L 173.029972 226.362268 
L 174.474429 226.362268 
L 174.474429 222.244289 
L 175.918886 222.244289 
L 175.918886 221.404548 
L 177.363343 221.404548 
L 177.363343 220.995419 
L 178.807799 220.995419 
L 178.807799 220.328952 
L 180.252256 220.328952 
L 180.252256 221.138146 
L 181.696713 221.138146 
L 181.696713 221.135813 
L 183.14117 221.135813 
L 183.14117 221.067866 
L 184.585627 221.067866 
L 184.585627 222.822733 
L 186.030084 222.822733 
L 186.030084 223.177096 
L 187.47454 223.177096 
L 187.47454 225.355227 
L 188.918997 225.355227 
L 188.918997 226.928798 
L 190.363454 226.928798 
L 190.363454 226.639482 
L 191.807911 226.639482 
L 191.807911 228.560294 
L 193.252368 228.560294 
L 193.252368 232.089614 
L 194.696825 232.089614 
L 194.696825 230.706589 
L 196.141281 230.706589 
L 196.141281 231.8865 
L 197.585738 231.8865 
L 197.585738 236.30097 
L 199.030195 236.30097 
L 199.030195 238.106943 
L 200.474652 238.106943 
L 200.474652 237.108065 
L 201.919109 237.108065 
L 201.919109 236.735353 
L 203.363565 236.735353 
L 203.363565 237.991675 
L 204.808022 237.991675 
L 204.808022 239.18053 
L 206.252479 239.18053 
L 206.252479 241.991502 
L 207.696936 241.991502 
L 207.696936 245.573896 
L 209.141393 245.573896 
L 209.141393 244.902506 
L 210.58585 244.902506 
L 210.58585 243.785492 
L 212.030306 243.785492 
L 212.030306 244.386764 
L 213.474763 244.386764 
L 213.474763 243.968826 
L 214.91922 243.968826 
L 214.91922 241.502044 
L 216.363677 241.502044 
L 216.363677 242.146352 
L 217.808134 242.146352 
L 217.808134 243.045955 
L 219.252591 243.045955 
L 219.252591 243.654997 
L 220.697047 243.654997 
L 220.697047 245.108154 
L 222.141504 245.108154 
L 222.141504 245.831176 
L 223.585961 245.831176 
L 223.585961 248.948812 
L 225.030418 248.948812 
L 225.030418 254.484663 
L 226.474875 254.484663 
L 226.474875 258.677091 
L 227.919331 258.677091 
L 227.919331 264.942356 
L 228.64156 264.942356 
L 228.64156 265.69 
L 228.64156 265.69 
L 227.919331 265.69 
L 227.919331 265.69 
L 226.474875 265.69 
L 226.474875 265.69 
L 225.030418 265.69 
L 225.030418 265.69 
L 223.585961 265.69 
L 223.585961 265.69 
L 222.141504 265.69 
L 222.141504 265.69 
L 220.697047 265.69 
L 220.697047 265.69 
L 219.252591 265.69 
L 219.252591 265.69 
L 217.808134 265.69 
L 217.808134 265.69 
L 216.363677 265.69 
L 216.363677 265.69 
L 214.91922 265.69 
L 214.91922 265.69 
L 213.474763 265.69 
L 213.474763 265.69 
L 212.030306 265.69 
L 212.030306 265.69 
L 210.58585 265.69 
L 210.58585 265.69 
L 209.141393 265.69 
L 209.141393 265.69 
L 207.696936 265.69 
L 207.696936 265.69 
L 206.252479 265.69 
L 206.252479 265.69 
L 204.808022 265.69 
L 204.808022 265.69 
L 203.363565 265.69 
L 203.363565 265.69 
L 201.919109 265.69 
L 201.919109 265.69 
L 200.474652 265.69 
L 200.474652 265.69 
L 199.030195 265.69 
L 199.030195 265.69 
L 197.585738 265.69 
L 197.585738 265.69 
L 196.141281 265.69 
L 196.141281 265.69 
L 194.696825 265.69 
L 194.696825 265.69 
L 193.252368 265.69 
L 193.252368 265.69 
L 191.807911 265.69 
L 191.807911 265.69 
L 190.363454 265.69 
L 190.363454 265.69 
L 188.918997 265.69 
L 188.918997 265.69 
L 187.47454 265.69 
L 187.47454 265.69 
L 186.030084 265.69 
L 186.030084 265.69 
L 184.585627 265.69 
L 184.585627 265.69 
L 183.14117 265.69 
L 183.14117 265.69 
L 181.696713 265.69 
L 181.696713 265.69 
L 180.252256 265.69 
L 180.252256 265.69 
L 178.807799 265.69 
L 178.807799 265.69 
L 177.363343 265.69 
L 177.363343 265.69 
L 175.918886 265.69 
L 175.918886 265.69 
L 174.474429 265.69 
L 174.474429 265.69 
L 173.029972 265.69 
L 173.029972 265.69 
L 171.585515 265.69 
L 171.585515 265.69 
L 170.141058 265.69 
L 170.141058 265.69 
L 168.696602 265.69 
L 168.696602 265.69 
L 167.252145 265.69 
L 167.252145 265.69 
L 165.807688 265.69 
L 165.807688 265.69 
L 164.363231 265.69 
L 164.363231 265.69 
L 162.918774 265.69 
L 162.918774 265.69 
L 161.474318 265.69 
L 161.474318 265.69 
L 160.029861 265.69 
L 160.029861 265.69 
L 158.585404 265.69 
L 158.585404 265.69 
L 157.140947 265.69 
L 157.140947 265.69 
L 155.69649 265.69 
L 155.69649 265.69 
L 154.252033 265.69 
L 154.252033 265.69 
L 152.807577 265.69 
L 152.807577 265.69 
L 151.36312 265.69 
L 151.36312 265.69 
L 149.918663 265.69 
L 149.918663 265.69 
L 148.474206 265.69 
L 148.474206 265.69 
L 147.029749 265.69 
L 147.029749 265.69 
L 145.585292 265.69 
L 145.585292 265.69 
L 144.140836 265.69 
L 144.140836 265.69 
L 142.696379 265.69 
L 142.696379 265.69 
L 141.251922 265.69 
L 141.251922 265.69 
L 139.807465 265.69 
L 139.807465 265.69 
L 138.363008 265.69 
L 138.363008 265.69 
L 136.918552 265.69 
L 136.918552 265.69 
L 135.474095 265.69 
L 135.474095 265.69 
L 134.029638 265.69 
L 134.029638 265.69 
L 132.585181 265.69 
L 132.585181 265.69 
L 131.140724 265.69 
L 131.140724 265.69 
L 129.696267 265.69 
L 129.696267 265.69 
L 128.251811 265.69 
L 128.251811 265.69 
L 126.807354 265.69 
L 126.807354 265.69 
L 125.362897 265.69 
L 125.362897 265.69 
L 123.91844 265.69 
L 123.91844 265.69 
L 122.473983 265.69 
L 122.473983 265.69 
L 121.029526 265.69 
L 121.029526 265.69 
L 119.58507 265.69 
L 119.58507 265.69 
L 118.140613 265.69 
L 118.140613 265.69 
L 116.696156 265.69 
L 116.696156 265.69 
L 115.251699 265.69 
L 115.251699 265.69 
L 113.807242 265.69 
L 113.807242 265.69 
L 112.362786 265.69 
L 112.362786 265.69 
L 110.918329 265.69 
L 110.918329 265.69 
L 109.473872 265.69 
L 109.473872 265.69 
L 108.029415 265.69 
L 108.029415 265.69 
L 106.584958 265.69 
L 106.584958 265.69 
L 105.140501 265.69 
L 105.140501 265.69 
L 103.696045 265.69 
L 103.696045 265.69 
L 102.251588 265.69 
L 102.251588 265.69 
L 100.807131 265.69 
L 100.807131 265.69 
L 99.362674 265.69 
L 99.362674 265.69 
L 97.918217 265.69 
L 97.918217 265.69 
L 96.47376 265.69 
L 96.47376 265.69 
L 95.029304 265.69 
L 95.029304 265.69 
L 93.584847 265.69 
L 93.584847 265.69 
L 92.14039 265.69 
L 92.14039 265.69 
L 90.695933 265.69 
L 90.695933 265.69 
L 89.251476 265.69 
L 89.251476 265.69 
L 87.807019 265.69 
L 87.807019 265.69 
L 86.362563 265.69 
L 86.362563 265.69 
L 85.640334 265.69 
z
" clip-path="url(#pd6afbc3561)" style="fill: #17becf; fill-opacity: 0.6; stroke: #1f77b4; stroke-opacity: 0.8; stroke-width: 1.5"/>
    <path d="M 299.419944 265.69 
L 299.419944 264.056171 
L 300.142173 264.056171 
L 300.142173 263.331517 
L 301.58663 263.331517 
L 301.58663 261.011154 
L 303.031086 261.011154 
L 303.031086 256.327416 
L 304.475543 256.327416 
L 304.475543 254.919037 
L 305.92 254.919037 
L 305.92 253.117449 
L 307.364457 253.117449 
L 307.364457 253.878024 
L 308.808914 253.878024 
L 308.808914 253.52674 
L 310.25337 253.52674 
L 310.25337 251.752747 
L 311.697827 251.752747 
L 311.697827 255.101883 
L 313.142284 255.101883 
L 313.142284 262.403568 
L 314.586741 262.403568 
L 314.586741 264.769617 
L 315.308969 264.769617 
L 315.308969 265.69 
L 315.308969 265.69 
L 314.586741 265.69 
L 314.586741 265.69 
L 313.142284 265.69 
L 313.142284 265.69 
L 311.697827 265.69 
L 311.697827 265.69 
L 310.25337 265.69 
L 310.25337 265.69 
L 308.808914 265.69 
L 308.808914 265.69 
L 307.364457 265.69 
L 307.364457 265.69 
L 305.92 265.69 
L 305.92 265.69 
L 304.475543 265.69 
L 304.475543 265.69 
L 303.031086 265.69 
L 303.031086 265.69 
L 301.58663 265.69 
L 301.58663 265.69 
L 300.142173 265.69 
L 300.142173 265.69 
L 299.419944 265.69 
z
" clip-path="url(#pd6afbc3561)" style="fill: #17becf; fill-opacity: 0.6; stroke: #1f77b4; stroke-opacity: 0.8; stroke-width: 1.5"/>
    <path d="M 319.64234 265.69 
L 319.64234 258.87554 
L 320.364568 258.87554 
L 320.364568 259.651263 
L 321.809025 259.651263 
L 321.809025 260.126833 
L 323.253482 260.126833 
L 323.253482 259.522616 
L 324.697939 259.522616 
L 324.697939 261.439805 
L 326.142396 261.439805 
L 326.142396 264.731032 
L 326.864624 264.731032 
L 326.864624 265.69 
L 326.864624 265.69 
L 326.142396 265.69 
L 326.142396 265.69 
L 324.697939 265.69 
L 324.697939 265.69 
L 323.253482 265.69 
L 323.253482 265.69 
L 321.809025 265.69 
L 321.809025 265.69 
L 320.364568 265.69 
L 320.364568 265.69 
L 319.64234 265.69 
z
" clip-path="url(#pd6afbc3561)" style="fill: #17becf; fill-opacity: 0.6; stroke: #1f77b4; stroke-opacity: 0.8; stroke-width: 1.5"/>
    <path d="M 336.975822 265.69 
L 336.975822 260.929939 
L 337.69805 260.929939 
L 337.69805 261.697198 
L 339.142507 261.697198 
L 339.142507 263.218691 
L 340.586964 263.218691 
L 340.586964 259.93239 
L 342.031421 259.93239 
L 342.031421 262.467101 
L 343.475877 262.467101 
L 343.475877 259.40267 
L 344.920334 259.40267 
L 344.920334 261.245122 
L 346.364791 261.245122 
L 346.364791 260.435668 
L 347.809248 260.435668 
L 347.809248 263.353541 
L 348.531476 263.353541 
L 348.531476 265.69 
L 348.531476 265.69 
L 347.809248 265.69 
L 347.809248 265.69 
L 346.364791 265.69 
L 346.364791 265.69 
L 344.920334 265.69 
L 344.920334 265.69 
L 343.475877 265.69 
L 343.475877 265.69 
L 342.031421 265.69 
L 342.031421 265.69 
L 340.586964 265.69 
L 340.586964 265.69 
L 339.142507 265.69 
L 339.142507 265.69 
L 337.69805 265.69 
L 337.69805 265.69 
L 336.975822 265.69 
z
" clip-path="url(#pd6afbc3561)" style="fill: #17becf; fill-opacity: 0.6; stroke: #1f77b4; stroke-opacity: 0.8; stroke-width: 1.5"/>
    <path d="M 400.531922 265.69 
L 400.531922 262.606526 
L 401.25415 262.606526 
L 401.25415 261.853561 
L 402.698607 261.853561 
L 402.698607 261.549524 
L 403.420836 261.549524 
L 403.420836 265.69 
L 403.420836 265.69 
L 402.698607 265.69 
L 402.698607 265.69 
L 401.25415 265.69 
L 401.25415 265.69 
L 400.531922 265.69 
z
" clip-path="url(#pd6afbc3561)" style="fill: #17becf; fill-opacity: 0.6; stroke: #1f77b4; stroke-opacity: 0.8; stroke-width: 1.5"/>
    <path d="M 507.421727 265.69 
L 507.421727 263.368396 
L 508.143955 263.368396 
L 508.143955 259.828297 
L 509.588412 259.828297 
L 509.588412 264.291725 
L 511.032869 264.291725 
L 511.032869 260.497812 
L 512.477326 260.497812 
L 512.477326 257.386812 
L 513.921783 257.386812 
L 513.921783 252.46004 
L 515.36624 252.46004 
L 515.36624 253.953534 
L 516.810696 253.953534 
L 516.810696 254.274809 
L 518.255153 254.274809 
L 518.255153 250.686858 
L 519.69961 250.686858 
L 519.69961 247.697642 
L 521.144067 247.697642 
L 521.144067 248.217926 
L 522.588524 248.217926 
L 522.588524 248.519276 
L 524.032981 248.519276 
L 524.032981 254.509107 
L 525.477437 254.509107 
L 525.477437 257.081248 
L 526.921894 257.081248 
L 526.921894 252.286463 
L 528.366351 252.286463 
L 528.366351 252.699078 
L 529.810808 252.699078 
L 529.810808 253.171746 
L 531.255265 253.171746 
L 531.255265 249.642901 
L 532.699721 249.642901 
L 532.699721 242.496136 
L 534.144178 242.496136 
L 534.144178 238.642859 
L 535.588635 238.642859 
L 535.588635 235.98038 
L 537.033092 235.98038 
L 537.033092 238.319071 
L 538.477549 238.319071 
L 538.477549 237.382235 
L 539.922006 237.382235 
L 539.922006 237.213548 
L 541.366462 237.213548 
L 541.366462 236.150282 
L 542.810919 236.150282 
L 542.810919 233.130694 
L 544.255376 233.130694 
L 544.255376 232.450567 
L 545.699833 232.450567 
L 545.699833 233.409445 
L 547.14429 233.409445 
L 547.14429 234.963725 
L 548.588747 234.963725 
L 548.588747 234.605623 
L 550.033203 234.605623 
L 550.033203 232.592982 
L 551.47766 232.592982 
L 551.47766 232.677278 
L 552.922117 232.677278 
L 552.922117 233.400449 
L 554.366574 233.400449 
L 554.366574 235.904415 
L 555.811031 235.904415 
L 555.811031 232.460412 
L 557.255487 232.460412 
L 557.255487 231.860376 
L 558.699944 231.860376 
L 558.699944 232.56856 
L 560.144401 232.56856 
L 560.144401 235.927618 
L 561.588858 235.927618 
L 561.588858 240.971968 
L 563.033315 240.971968 
L 563.033315 240.254531 
L 564.477772 240.254531 
L 564.477772 242.816511 
L 565.2 242.816511 
L 565.2 265.69 
L 565.2 265.69 
L 564.477772 265.69 
L 564.477772 265.69 
L 563.033315 265.69 
L 563.033315 265.69 
L 561.588858 265.69 
L 561.588858 265.69 
L 560.144401 265.69 
L 560.144401 265.69 
L 558.699944 265.69 
L 558.699944 265.69 
L 557.255487 265.69 
L 557.255487 265.69 
L 555.811031 265.69 
L 555.811031 265.69 
L 554.366574 265.69 
L 554.366574 265.69 
L 552.922117 265.69 
L 552.922117 265.69 
L 551.47766 265.69 
L 551.47766 265.69 
L 550.033203 265.69 
L 550.033203 265.69 
L 548.588747 265.69 
L 548.588747 265.69 
L 547.14429 265.69 
L 547.14429 265.69 
L 545.699833 265.69 
L 545.699833 265.69 
L 544.255376 265.69 
L 544.255376 265.69 
L 542.810919 265.69 
L 542.810919 265.69 
L 541.366462 265.69 
L 541.366462 265.69 
L 539.922006 265.69 
L 539.922006 265.69 
L 538.477549 265.69 
L 538.477549 265.69 
L 537.033092 265.69 
L 537.033092 265.69 
L 535.588635 265.69 
L 535.588635 265.69 
L 534.144178 265.69 
L 534.144178 265.69 
L 532.699721 265.69 
L 532.699721 265.69 
L 531.255265 265.69 
L 531.255265 265.69 
L 529.810808 265.69 
L 529.810808 265.69 
L 528.366351 265.69 
L 528.366351 265.69 
L 526.921894 265.69 
L 526.921894 265.69 
L 525.477437 265.69 
L 525.477437 265.69 
L 524.032981 265.69 
L 524.032981 265.69 
L 522.588524 265.69 
L 522.588524 265.69 
L 521.144067 265.69 
L 521.144067 265.69 
L 519.69961 265.69 
L 519.69961 265.69 
L 518.255153 265.69 
L 518.255153 265.69 
L 516.810696 265.69 
L 516.810696 265.69 
L 515.36624 265.69 
L 515.36624 265.69 
L 513.921783 265.69 
L 513.921783 265.69 
L 512.477326 265.69 
L 512.477326 265.69 
L 511.032869 265.69 
L 511.032869 265.69 
L 509.588412 265.69 
L 509.588412 265.69 
L 508.143955 265.69 
L 508.143955 265.69 
L 507.421727 265.69 
z
" clip-path="url(#pd6afbc3561)" style="fill: #17becf; fill-opacity: 0.6; stroke: #1f77b4; stroke-opacity: 0.8; stroke-width: 1.5"/>
   </g>
   <g id="PolyCollection_4">
    <path d="M 46.64 265.69 
L 46.64 301.544071 
L 47.362228 301.544071 
L 47.362228 304.742937 
L 48.806685 304.742937 
L 48.806685 297.097139 
L 50.251142 297.097139 
L 50.251142 280.9237 
L 51.695599 280.9237 
L 51.695599 278.841036 
L 53.140056 278.841036 
L 53.140056 274.893413 
L 54.584513 274.893413 
L 54.584513 295.572256 
L 56.028969 295.572256 
L 56.028969 304.438196 
L 57.473426 304.438196 
L 57.473426 303.359099 
L 58.917883 303.359099 
L 58.917883 295.613143 
L 60.36234 295.613143 
L 60.36234 292.712831 
L 61.806797 292.712831 
L 61.806797 295.25522 
L 63.251253 295.25522 
L 63.251253 295.311146 
L 64.69571 295.311146 
L 64.69571 294.752716 
L 66.140167 294.752716 
L 66.140167 298.95694 
L 67.584624 298.95694 
L 67.584624 296.37461 
L 69.029081 296.37461 
L 69.029081 306.090759 
L 70.473538 306.090759 
L 70.473538 282.403575 
L 71.917994 282.403575 
L 71.917994 271.142589 
L 73.362451 271.142589 
L 73.362451 266.759735 
L 74.806908 266.759735 
L 74.806908 267.320682 
L 75.529136 267.320682 
L 75.529136 265.69 
L 75.529136 265.69 
L 74.806908 265.69 
L 74.806908 265.69 
L 73.362451 265.69 
L 73.362451 265.69 
L 71.917994 265.69 
L 71.917994 265.69 
L 70.473538 265.69 
L 70.473538 265.69 
L 69.029081 265.69 
L 69.029081 265.69 
L 67.584624 265.69 
L 67.584624 265.69 
L 66.140167 265.69 
L 66.140167 265.69 
L 64.69571 265.69 
L 64.69571 265.69 
L 63.251253 265.69 
L 63.251253 265.69 
L 61.806797 265.69 
L 61.806797 265.69 
L 60.36234 265.69 
L 60.36234 265.69 
L 58.917883 265.69 
L 58.917883 265.69 
L 57.473426 265.69 
L 57.473426 265.69 
L 56.028969 265.69 
L 56.028969 265.69 
L 54.584513 265.69 
L 54.584513 265.69 
L 53.140056 265.69 
L 53.140056 265.69 
L 51.695599 265.69 
L 51.695599 265.69 
L 50.251142 265.69 
L 50.251142 265.69 
L 48.806685 265.69 
L 48.806685 265.69 
L 47.362228 265.69 
L 47.362228 265.69 
L 46.64 265.69 
z
" clip-path="url(#pd6afbc3561)" style="fill: #d62728; fill-opacity: 0.6; stroke: #b22222; stroke-opacity: 0.8; stroke-width: 1.5"/>
    <path d="M 84.195877 265.69 
L 84.195877 266.14906 
L 84.195877 266.14906 
L 84.195877 265.69 
L 84.195877 265.69 
L 84.195877 265.69 
z
" clip-path="url(#pd6afbc3561)" style="fill: #d62728; fill-opacity: 0.6; stroke: #b22222; stroke-opacity: 0.8; stroke-width: 1.5"/>
    <path d="M 230.086017 265.69 
L 230.086017 275.442124 
L 230.808245 275.442124 
L 230.808245 280.783332 
L 232.252702 280.783332 
L 232.252702 283.518607 
L 233.697159 283.518607 
L 233.697159 287.331049 
L 235.141616 287.331049 
L 235.141616 288.339195 
L 236.586072 288.339195 
L 236.586072 287.768533 
L 238.030529 287.768533 
L 238.030529 290.17993 
L 239.474986 290.17993 
L 239.474986 293.410849 
L 240.919443 293.410849 
L 240.919443 296.732181 
L 242.3639 296.732181 
L 242.3639 293.232297 
L 243.808357 293.232297 
L 243.808357 301.20572 
L 245.252813 301.20572 
L 245.252813 302.289126 
L 246.69727 302.289126 
L 246.69727 299.813387 
L 248.141727 299.813387 
L 248.141727 302.889213 
L 249.586184 302.889213 
L 249.586184 303.878383 
L 251.030641 303.878383 
L 251.030641 307.8229 
L 252.475097 307.8229 
L 252.475097 310.265938 
L 253.919554 310.265938 
L 253.919554 309.95292 
L 255.364011 309.95292 
L 255.364011 303.88491 
L 256.808468 303.88491 
L 256.808468 299.213817 
L 258.252925 299.213817 
L 258.252925 290.261413 
L 259.697382 290.261413 
L 259.697382 296.398061 
L 261.141838 296.398061 
L 261.141838 297.023819 
L 262.586295 297.023819 
L 262.586295 295.757745 
L 264.030752 295.757745 
L 264.030752 303.909299 
L 265.475209 303.909299 
L 265.475209 316.338696 
L 266.919666 316.338696 
L 266.919666 309.448807 
L 268.364123 309.448807 
L 268.364123 305.78766 
L 269.808579 305.78766 
L 269.808579 303.855858 
L 271.253036 303.855858 
L 271.253036 304.271789 
L 272.697493 304.271789 
L 272.697493 300.972157 
L 274.14195 300.972157 
L 274.14195 307.214402 
L 275.586407 307.214402 
L 275.586407 300.758968 
L 277.030864 300.758968 
L 277.030864 302.301368 
L 278.47532 302.301368 
L 278.47532 294.658187 
L 279.919777 294.658187 
L 279.919777 290.583559 
L 281.364234 290.583559 
L 281.364234 280.599695 
L 282.808691 280.599695 
L 282.808691 276.990795 
L 284.253148 276.990795 
L 284.253148 281.866326 
L 285.697604 281.866326 
L 285.697604 285.44023 
L 287.142061 285.44023 
L 287.142061 287.687323 
L 288.586518 287.687323 
L 288.586518 284.854928 
L 290.030975 284.854928 
L 290.030975 287.231674 
L 291.475432 287.231674 
L 291.475432 283.441371 
L 292.919889 283.441371 
L 292.919889 284.041413 
L 294.364345 284.041413 
L 294.364345 270.465556 
L 295.808802 270.465556 
L 295.808802 266.694879 
L 297.253259 266.694879 
L 297.253259 273.311574 
L 297.975487 273.311574 
L 297.975487 265.69 
L 297.975487 265.69 
L 297.253259 265.69 
L 297.253259 265.69 
L 295.808802 265.69 
L 295.808802 265.69 
L 294.364345 265.69 
L 294.364345 265.69 
L 292.919889 265.69 
L 292.919889 265.69 
L 291.475432 265.69 
L 291.475432 265.69 
L 290.030975 265.69 
L 290.030975 265.69 
L 288.586518 265.69 
L 288.586518 265.69 
L 287.142061 265.69 
L 287.142061 265.69 
L 285.697604 265.69 
L 285.697604 265.69 
L 284.253148 265.69 
L 284.253148 265.69 
L 282.808691 265.69 
L 282.808691 265.69 
L 281.364234 265.69 
L 281.364234 265.69 
L 279.919777 265.69 
L 279.919777 265.69 
L 278.47532 265.69 
L 278.47532 265.69 
L 277.030864 265.69 
L 277.030864 265.69 
L 275.586407 265.69 
L 275.586407 265.69 
L 274.14195 265.69 
L 274.14195 265.69 
L 272.697493 265.69 
L 272.697493 265.69 
L 271.253036 265.69 
L 271.253036 265.69 
L 269.808579 265.69 
L 269.808579 265.69 
L 268.364123 265.69 
L 268.364123 265.69 
L 266.919666 265.69 
L 266.919666 265.69 
L 265.475209 265.69 
L 265.475209 265.69 
L 264.030752 265.69 
L 264.030752 265.69 
L 262.586295 265.69 
L 262.586295 265.69 
L 261.141838 265.69 
L 261.141838 265.69 
L 259.697382 265.69 
L 259.697382 265.69 
L 258.252925 265.69 
L 258.252925 265.69 
L 256.808468 265.69 
L 256.808468 265.69 
L 255.364011 265.69 
L 255.364011 265.69 
L 253.919554 265.69 
L 253.919554 265.69 
L 252.475097 265.69 
L 252.475097 265.69 
L 251.030641 265.69 
L 251.030641 265.69 
L 249.586184 265.69 
L 249.586184 265.69 
L 248.141727 265.69 
L 248.141727 265.69 
L 246.69727 265.69 
L 246.69727 265.69 
L 245.252813 265.69 
L 245.252813 265.69 
L 243.808357 265.69 
L 243.808357 265.69 
L 242.3639 265.69 
L 242.3639 265.69 
L 240.919443 265.69 
L 240.919443 265.69 
L 239.474986 265.69 
L 239.474986 265.69 
L 238.030529 265.69 
L 238.030529 265.69 
L 236.586072 265.69 
L 236.586072 265.69 
L 235.141616 265.69 
L 235.141616 265.69 
L 233.697159 265.69 
L 233.697159 265.69 
L 232.252702 265.69 
L 232.252702 265.69 
L 230.808245 265.69 
L 230.808245 265.69 
L 230.086017 265.69 
z
" clip-path="url(#pd6afbc3561)" style="fill: #d62728; fill-opacity: 0.6; stroke: #b22222; stroke-opacity: 0.8; stroke-width: 1.5"/>
    <path d="M 316.753426 265.69 
L 316.753426 267.414625 
L 317.475655 267.414625 
L 317.475655 267.429789 
L 318.197883 267.429789 
L 318.197883 265.69 
L 318.197883 265.69 
L 317.475655 265.69 
L 317.475655 265.69 
L 316.753426 265.69 
z
" clip-path="url(#pd6afbc3561)" style="fill: #d62728; fill-opacity: 0.6; stroke: #b22222; stroke-opacity: 0.8; stroke-width: 1.5"/>
    <path d="M 328.309081 265.69 
L 328.309081 272.115413 
L 329.031309 272.115413 
L 329.031309 268.554656 
L 330.475766 268.554656 
L 330.475766 271.913335 
L 331.920223 271.913335 
L 331.920223 273.297501 
L 333.36468 273.297501 
L 333.36468 273.340301 
L 334.809136 273.340301 
L 334.809136 268.255125 
L 335.531365 268.255125 
L 335.531365 265.69 
L 335.531365 265.69 
L 334.809136 265.69 
L 334.809136 265.69 
L 333.36468 265.69 
L 333.36468 265.69 
L 331.920223 265.69 
L 331.920223 265.69 
L 330.475766 265.69 
L 330.475766 265.69 
L 329.031309 265.69 
L 329.031309 265.69 
L 328.309081 265.69 
z
" clip-path="url(#pd6afbc3561)" style="fill: #d62728; fill-opacity: 0.6; stroke: #b22222; stroke-opacity: 0.8; stroke-width: 1.5"/>
    <path d="M 349.975933 265.69 
L 349.975933 268.377574 
L 350.698162 268.377574 
L 350.698162 275.658047 
L 352.142618 275.658047 
L 352.142618 280.780801 
L 353.587075 280.780801 
L 353.587075 286.691033 
L 355.031532 286.691033 
L 355.031532 286.499633 
L 356.475989 286.499633 
L 356.475989 282.751864 
L 357.920446 282.751864 
L 357.920446 281.851287 
L 359.364903 281.851287 
L 359.364903 281.277378 
L 360.809359 281.277378 
L 360.809359 274.855529 
L 362.253816 274.855529 
L 362.253816 272.587657 
L 363.698273 272.587657 
L 363.698273 280.339292 
L 365.14273 280.339292 
L 365.14273 288.453076 
L 366.587187 288.453076 
L 366.587187 281.668288 
L 368.031643 281.668288 
L 368.031643 282.925284 
L 369.4761 282.925284 
L 369.4761 291.016486 
L 370.920557 291.016486 
L 370.920557 288.191331 
L 372.365014 288.191331 
L 372.365014 294.159393 
L 373.809471 294.159393 
L 373.809471 296.714377 
L 375.253928 296.714377 
L 375.253928 295.590589 
L 376.698384 295.590589 
L 376.698384 294.476714 
L 378.142841 294.476714 
L 378.142841 298.46702 
L 379.587298 298.46702 
L 379.587298 303.056911 
L 381.031755 303.056911 
L 381.031755 295.880384 
L 382.476212 295.880384 
L 382.476212 286.830258 
L 383.920669 286.830258 
L 383.920669 286.957796 
L 385.365125 286.957796 
L 385.365125 281.648981 
L 386.809582 281.648981 
L 386.809582 286.659515 
L 388.254039 286.659515 
L 388.254039 300.39265 
L 389.698496 300.39265 
L 389.698496 294.297268 
L 391.142953 294.297268 
L 391.142953 292.947635 
L 392.587409 292.947635 
L 392.587409 289.126032 
L 394.031866 289.126032 
L 394.031866 290.913424 
L 395.476323 290.913424 
L 395.476323 282.928135 
L 396.92078 282.928135 
L 396.92078 278.432209 
L 398.365237 278.432209 
L 398.365237 268.697622 
L 399.087465 268.697622 
L 399.087465 265.69 
L 399.087465 265.69 
L 398.365237 265.69 
L 398.365237 265.69 
L 396.92078 265.69 
L 396.92078 265.69 
L 395.476323 265.69 
L 395.476323 265.69 
L 394.031866 265.69 
L 394.031866 265.69 
L 392.587409 265.69 
L 392.587409 265.69 
L 391.142953 265.69 
L 391.142953 265.69 
L 389.698496 265.69 
L 389.698496 265.69 
L 388.254039 265.69 
L 388.254039 265.69 
L 386.809582 265.69 
L 386.809582 265.69 
L 385.365125 265.69 
L 385.365125 265.69 
L 383.920669 265.69 
L 383.920669 265.69 
L 382.476212 265.69 
L 382.476212 265.69 
L 381.031755 265.69 
L 381.031755 265.69 
L 379.587298 265.69 
L 379.587298 265.69 
L 378.142841 265.69 
L 378.142841 265.69 
L 376.698384 265.69 
L 376.698384 265.69 
L 375.253928 265.69 
L 375.253928 265.69 
L 373.809471 265.69 
L 373.809471 265.69 
L 372.365014 265.69 
L 372.365014 265.69 
L 370.920557 265.69 
L 370.920557 265.69 
L 369.4761 265.69 
L 369.4761 265.69 
L 368.031643 265.69 
L 368.031643 265.69 
L 366.587187 265.69 
L 366.587187 265.69 
L 365.14273 265.69 
L 365.14273 265.69 
L 363.698273 265.69 
L 363.698273 265.69 
L 362.253816 265.69 
L 362.253816 265.69 
L 360.809359 265.69 
L 360.809359 265.69 
L 359.364903 265.69 
L 359.364903 265.69 
L 357.920446 265.69 
L 357.920446 265.69 
L 356.475989 265.69 
L 356.475989 265.69 
L 355.031532 265.69 
L 355.031532 265.69 
L 353.587075 265.69 
L 353.587075 265.69 
L 352.142618 265.69 
L 352.142618 265.69 
L 350.698162 265.69 
L 350.698162 265.69 
L 349.975933 265.69 
z
" clip-path="url(#pd6afbc3561)" style="fill: #d62728; fill-opacity: 0.6; stroke: #b22222; stroke-opacity: 0.8; stroke-width: 1.5"/>
    <path d="M 404.865292 265.69 
L 404.865292 266.233284 
L 405.587521 266.233284 
L 405.587521 271.676969 
L 407.031978 271.676969 
L 407.031978 269.896359 
L 408.476435 269.896359 
L 408.476435 270.090654 
L 409.920891 270.090654 
L 409.920891 268.166261 
L 411.365348 268.166261 
L 411.365348 266.802695 
L 412.809805 266.802695 
L 412.809805 266.121182 
L 414.254262 266.121182 
L 414.254262 268.100637 
L 415.698719 268.100637 
L 415.698719 271.104244 
L 417.143175 271.104244 
L 417.143175 279.406487 
L 418.587632 279.406487 
L 418.587632 278.713416 
L 420.032089 278.713416 
L 420.032089 280.077551 
L 421.476546 280.077551 
L 421.476546 289.353767 
L 422.921003 289.353767 
L 422.921003 289.46555 
L 424.36546 289.46555 
L 424.36546 291.718577 
L 425.809916 291.718577 
L 425.809916 294.374839 
L 427.254373 294.374839 
L 427.254373 289.976772 
L 428.69883 289.976772 
L 428.69883 288.277875 
L 430.143287 288.277875 
L 430.143287 296.884108 
L 431.587744 296.884108 
L 431.587744 301.581838 
L 433.032201 301.581838 
L 433.032201 293.388637 
L 434.476657 293.388637 
L 434.476657 298.029785 
L 435.921114 298.029785 
L 435.921114 308.128398 
L 437.365571 308.128398 
L 437.365571 315.811382 
L 438.810028 315.811382 
L 438.810028 310.536556 
L 440.254485 310.536556 
L 440.254485 312.315769 
L 441.698942 312.315769 
L 441.698942 313.531535 
L 443.143398 313.531535 
L 443.143398 312.396373 
L 444.587855 312.396373 
L 444.587855 316.571662 
L 446.032312 316.571662 
L 446.032312 308.899723 
L 447.476769 308.899723 
L 447.476769 296.237107 
L 448.921226 296.237107 
L 448.921226 292.874371 
L 450.365682 292.874371 
L 450.365682 301.71346 
L 451.810139 301.71346 
L 451.810139 298.876682 
L 453.254596 298.876682 
L 453.254596 298.93262 
L 454.699053 298.93262 
L 454.699053 289.210962 
L 456.14351 289.210962 
L 456.14351 288.138596 
L 457.587967 288.138596 
L 457.587967 289.486449 
L 459.032423 289.486449 
L 459.032423 292.396679 
L 460.47688 292.396679 
L 460.47688 291.715371 
L 461.921337 291.715371 
L 461.921337 290.625114 
L 463.365794 290.625114 
L 463.365794 294.391369 
L 464.810251 294.391369 
L 464.810251 305.039826 
L 466.254708 305.039826 
L 466.254708 310.358748 
L 467.699164 310.358748 
L 467.699164 324.874057 
L 469.143621 324.874057 
L 469.143621 328.636973 
L 470.588078 328.636973 
L 470.588078 317.294554 
L 472.032535 317.294554 
L 472.032535 317.172214 
L 473.476992 317.172214 
L 473.476992 322.647768 
L 474.921448 322.647768 
L 474.921448 314.267537 
L 476.365905 314.267537 
L 476.365905 312.813673 
L 477.810362 312.813673 
L 477.810362 310.934364 
L 479.254819 310.934364 
L 479.254819 311.450053 
L 480.699276 311.450053 
L 480.699276 320.633021 
L 482.143733 320.633021 
L 482.143733 318.050115 
L 483.588189 318.050115 
L 483.588189 314.620011 
L 485.032646 314.620011 
L 485.032646 317.359691 
L 486.477103 317.359691 
L 486.477103 309.933764 
L 487.92156 309.933764 
L 487.92156 307.417489 
L 489.366017 307.417489 
L 489.366017 303.649823 
L 490.810474 303.649823 
L 490.810474 293.146253 
L 492.25493 293.146253 
L 492.25493 279.520127 
L 493.699387 279.520127 
L 493.699387 281.333628 
L 495.143844 281.333628 
L 495.143844 277.715977 
L 496.588301 277.715977 
L 496.588301 274.283842 
L 498.032758 274.283842 
L 498.032758 274.915358 
L 499.477214 274.915358 
L 499.477214 273.111245 
L 500.921671 273.111245 
L 500.921671 268.343969 
L 502.366128 268.343969 
L 502.366128 270.693347 
L 503.810585 270.693347 
L 503.810585 268.811324 
L 505.255042 268.811324 
L 505.255042 266.762464 
L 505.97727 266.762464 
L 505.97727 265.69 
L 505.97727 265.69 
L 505.255042 265.69 
L 505.255042 265.69 
L 503.810585 265.69 
L 503.810585 265.69 
L 502.366128 265.69 
L 502.366128 265.69 
L 500.921671 265.69 
L 500.921671 265.69 
L 499.477214 265.69 
L 499.477214 265.69 
L 498.032758 265.69 
L 498.032758 265.69 
L 496.588301 265.69 
L 496.588301 265.69 
L 495.143844 265.69 
L 495.143844 265.69 
L 493.699387 265.69 
L 493.699387 265.69 
L 492.25493 265.69 
L 492.25493 265.69 
L 490.810474 265.69 
L 490.810474 265.69 
L 489.366017 265.69 
L 489.366017 265.69 
L 487.92156 265.69 
L 487.92156 265.69 
L 486.477103 265.69 
L 486.477103 265.69 
L 485.032646 265.69 
L 485.032646 265.69 
L 483.588189 265.69 
L 483.588189 265.69 
L 482.143733 265.69 
L 482.143733 265.69 
L 480.699276 265.69 
L 480.699276 265.69 
L 479.254819 265.69 
L 479.254819 265.69 
L 477.810362 265.69 
L 477.810362 265.69 
L 476.365905 265.69 
L 476.365905 265.69 
L 474.921448 265.69 
L 474.921448 265.69 
L 473.476992 265.69 
L 473.476992 265.69 
L 472.032535 265.69 
L 472.032535 265.69 
L 470.588078 265.69 
L 470.588078 265.69 
L 469.143621 265.69 
L 469.143621 265.69 
L 467.699164 265.69 
L 467.699164 265.69 
L 466.254708 265.69 
L 466.254708 265.69 
L 464.810251 265.69 
L 464.810251 265.69 
L 463.365794 265.69 
L 463.365794 265.69 
L 461.921337 265.69 
L 461.921337 265.69 
L 460.47688 265.69 
L 460.47688 265.69 
L 459.032423 265.69 
L 459.032423 265.69 
L 457.587967 265.69 
L 457.587967 265.69 
L 456.14351 265.69 
L 456.14351 265.69 
L 454.699053 265.69 
L 454.699053 265.69 
L 453.254596 265.69 
L 453.254596 265.69 
L 451.810139 265.69 
L 451.810139 265.69 
L 450.365682 265.69 
L 450.365682 265.69 
L 448.921226 265.69 
L 448.921226 265.69 
L 447.476769 265.69 
L 447.476769 265.69 
L 446.032312 265.69 
L 446.032312 265.69 
L 444.587855 265.69 
L 444.587855 265.69 
L 443.143398 265.69 
L 443.143398 265.69 
L 441.698942 265.69 
L 441.698942 265.69 
L 440.254485 265.69 
L 440.254485 265.69 
L 438.810028 265.69 
L 438.810028 265.69 
L 437.365571 265.69 
L 437.365571 265.69 
L 435.921114 265.69 
L 435.921114 265.69 
L 434.476657 265.69 
L 434.476657 265.69 
L 433.032201 265.69 
L 433.032201 265.69 
L 431.587744 265.69 
L 431.587744 265.69 
L 430.143287 265.69 
L 430.143287 265.69 
L 428.69883 265.69 
L 428.69883 265.69 
L 427.254373 265.69 
L 427.254373 265.69 
L 425.809916 265.69 
L 425.809916 265.69 
L 424.36546 265.69 
L 424.36546 265.69 
L 422.921003 265.69 
L 422.921003 265.69 
L 421.476546 265.69 
L 421.476546 265.69 
L 420.032089 265.69 
L 420.032089 265.69 
L 418.587632 265.69 
L 418.587632 265.69 
L 417.143175 265.69 
L 417.143175 265.69 
L 415.698719 265.69 
L 415.698719 265.69 
L 414.254262 265.69 
L 414.254262 265.69 
L 412.809805 265.69 
L 412.809805 265.69 
L 411.365348 265.69 
L 411.365348 265.69 
L 409.920891 265.69 
L 409.920891 265.69 
L 408.476435 265.69 
L 408.476435 265.69 
L 407.031978 265.69 
L 407.031978 265.69 
L 405.587521 265.69 
L 405.587521 265.69 
L 404.865292 265.69 
z
" clip-path="url(#pd6afbc3561)" style="fill: #d62728; fill-opacity: 0.6; stroke: #b22222; stroke-opacity: 0.8; stroke-width: 1.5"/>
   </g>
   <g id="matplotlib.axis_3">
    <g id="xtick_7">
     <g id="line2d_11">
      <g>
       <use xlink:href="#me335648d47" x="115.973928" y="332.12" style="stroke: #000000; stroke-width: 0.8"/>
      </g>
     </g>
     <g id="text_11">
      <!-- 1995 -->
      <g transform="translate(103.248928 346.718437) scale(0.1 -0.1)">
       <use xlink:href="#DejaVuSans-31"/>
       <use xlink:href="#DejaVuSans-39" x="63.623047"/>
       <use xlink:href="#DejaVuSans-39" x="127.246094"/>
       <use xlink:href="#DejaVuSans-35" x="190.869141"/>
      </g>
     </g>
    </g>
    <g id="xtick_8">
     <g id="line2d_12">
      <g>
       <use xlink:href="#me335648d47" x="202.641337" y="332.12" style="stroke: #000000; stroke-width: 0.8"/>
      </g>
     </g>
     <g id="text_12">
      <!-- 2000 -->
      <g transform="translate(189.916337 346.718437) scale(0.1 -0.1)">
       <use xlink:href="#DejaVuSans-32"/>
       <use xlink:href="#DejaVuSans-30" x="63.623047"/>
       <use xlink:href="#DejaVuSans-30" x="127.246094"/>
       <use xlink:href="#DejaVuSans-30" x="190.869141"/>
      </g>
     </g>
    </g>
    <g id="xtick_9">
     <g id="line2d_13">
      <g>
       <use xlink:href="#me335648d47" x="289.308747" y="332.12" style="stroke: #000000; stroke-width: 0.8"/>
      </g>
     </g>
     <g id="text_13">
      <!-- 2005 -->
      <g transform="translate(276.583747 346.718437) scale(0.1 -0.1)">
       <use xlink:href="#DejaVuSans-32"/>
       <use xlink:href="#DejaVuSans-30" x="63.623047"/>
       <use xlink:href="#DejaVuSans-30" x="127.246094"/>
       <use xlink:href="#DejaVuSans-35" x="190.869141"/>
      </g>
     </g>
    </g>
    <g id="xtick_10">
     <g id="line2d_14">
      <g>
       <use xlink:href="#me335648d47" x="375.976156" y="332.12" style="stroke: #000000; stroke-width: 0.8"/>
      </g>
     </g>
     <g id="text_14">
      <!-- 2010 -->
      <g transform="translate(363.251156 346.718437) scale(0.1 -0.1)">
       <use xlink:href="#DejaVuSans-32"/>
       <use xlink:href="#DejaVuSans-30" x="63.623047"/>
       <use xlink:href="#DejaVuSans-31" x="127.246094"/>
       <use xlink:href="#DejaVuSans-30" x="190.869141"/>
      </g>
     </g>
    </g>
    <g id="xtick_11">
     <g id="line2d_15">
      <g>
       <use xlink:href="#me335648d47" x="462.643565" y="332.12" style="stroke: #000000; stroke-width: 0.8"/>
      </g>
     </g>
     <g id="text_15">
      <!-- 2015 -->
      <g transform="translate(449.918565 346.718437) scale(0.1 -0.1)">
       <use xlink:href="#DejaVuSans-32"/>
       <use xlink:href="#DejaVuSans-30" x="63.623047"/>
       <use xlink:href="#DejaVuSans-31" x="127.246094"/>
       <use xlink:href="#DejaVuSans-35" x="190.869141"/>
      </g>
     </g>
    </g>
    <g id="xtick_12">
     <g id="line2d_16">
      <g>
       <use xlink:href="#me335648d47" x="549.310975" y="332.12" style="stroke: #000000; stroke-width: 0.8"/>
      </g>
     </g>
     <g id="text_16">
      <!-- 2020 -->
      <g transform="translate(536.585975 346.718437) scale(0.1 -0.1)">
       <use xlink:href="#DejaVuSans-32"/>
       <use xlink:href="#DejaVuSans-30" x="63.623047"/>
       <use xlink:href="#DejaVuSans-32" x="127.246094"/>
       <use xlink:href="#DejaVuSans-30" x="190.869141"/>
      </g>
     </g>
    </g>
   </g>
   <g id="matplotlib.axis_4">
    <g id="ytick_4">
     <g id="line2d_17">
      <g>
       <use xlink:href="#m3874740b37" x="46.64" y="332.12" style="stroke: #000000; stroke-width: 0.8"/>
      </g>
     </g>
     <g id="text_17">
      <!-- −3 -->
      <g transform="translate(24.897813 335.919219) scale(0.1 -0.1)">
       <defs>
        <path id="DejaVuSans-33" d="M 2597 2516 
Q 3050 2419 3304 2112 
Q 3559 1806 3559 1356 
Q 3559 666 3084 287 
Q 2609 -91 1734 -91 
Q 1441 -91 1130 -33 
Q 819 25 488 141 
L 488 750 
Q 750 597 1062 519 
Q 1375 441 1716 441 
Q 2309 441 2620 675 
Q 2931 909 2931 1356 
Q 2931 1769 2642 2001 
Q 2353 2234 1838 2234 
L 1294 2234 
L 1294 2753 
L 1863 2753 
Q 2328 2753 2575 2939 
Q 2822 3125 2822 3475 
Q 2822 3834 2567 4026 
Q 2313 4219 1838 4219 
Q 1578 4219 1281 4162 
Q 984 4106 628 3988 
L 628 4550 
Q 988 4650 1302 4700 
Q 1616 4750 1894 4750 
Q 2613 4750 3031 4423 
Q 3450 4097 3450 3541 
Q 3450 3153 3228 2886 
Q 3006 2619 2597 2516 
z
" transform="scale(0.015625)"/>
       </defs>
       <use xlink:href="#DejaVuSans-2212"/>
       <use xlink:href="#DejaVuSans-33" x="83.789062"/>
      </g>
     </g>
    </g>
    <g id="ytick_5">
     <g id="line2d_18">
      <g>
       <use xlink:href="#m3874740b37" x="46.64" y="309.976667" style="stroke: #000000; stroke-width: 0.8"/>
      </g>
     </g>
     <g id="text_18">
      <!-- −2 -->
      <g transform="translate(24.897813 313.775885) scale(0.1 -0.1)">
       <use xlink:href="#DejaVuSans-2212"/>
       <use xlink:href="#DejaVuSans-32" x="83.789062"/>
      </g>
     </g>
    </g>
    <g id="ytick_6">
     <g id="line2d_19">
      <g>
       <use xlink:href="#m3874740b37" x="46.64" y="287.833333" style="stroke: #000000; stroke-width: 0.8"/>
      </g>
     </g>
     <g id="text_19">
      <!-- −1 -->
      <g transform="translate(24.897813 291.632552) scale(0.1 -0.1)">
       <use xlink:href="#DejaVuSans-2212"/>
       <use xlink:href="#DejaVuSans-31" x="83.789062"/>
      </g>
     </g>
    </g>
    <g id="ytick_7">
     <g id="line2d_20">
      <g>
       <use xlink:href="#m3874740b37" x="46.64" y="265.69" style="stroke: #000000; stroke-width: 0.8"/>
      </g>
     </g>
     <g id="text_20">
      <!-- 0 -->
      <g transform="translate(33.2775 269.489219) scale(0.1 -0.1)">
       <use xlink:href="#DejaVuSans-30"/>
      </g>
     </g>
    </g>
    <g id="ytick_8">
     <g id="line2d_21">
      <g>
       <use xlink:href="#m3874740b37" x="46.64" y="243.546667" style="stroke: #000000; stroke-width: 0.8"/>
      </g>
     </g>
     <g id="text_21">
      <!-- 1 -->
      <g transform="translate(33.2775 247.345885) scale(0.1 -0.1)">
       <use xlink:href="#DejaVuSans-31"/>
      </g>
     </g>
    </g>
    <g id="ytick_9">
     <g id="line2d_22">
      <g>
       <use xlink:href="#m3874740b37" x="46.64" y="221.403333" style="stroke: #000000; stroke-width: 0.8"/>
      </g>
     </g>
     <g id="text_22">
      <!-- 2 -->
      <g transform="translate(33.2775 225.202552) scale(0.1 -0.1)">
       <use xlink:href="#DejaVuSans-32"/>
      </g>
     </g>
    </g>
    <g id="ytick_10">
     <g id="line2d_23">
      <g>
       <use xlink:href="#m3874740b37" x="46.64" y="199.26" style="stroke: #000000; stroke-width: 0.8"/>
      </g>
     </g>
     <g id="text_23">
      <!-- 3 -->
      <g transform="translate(33.2775 203.059219) scale(0.1 -0.1)">
       <use xlink:href="#DejaVuSans-33"/>
      </g>
     </g>
    </g>
    <g id="text_24">
     <!-- Gallatin -->
     <g transform="translate(18.818125 284.988438) rotate(-90) scale(0.1 -0.1)">
      <defs>
       <path id="DejaVuSans-47" d="M 3809 666 
L 3809 1919 
L 2778 1919 
L 2778 2438 
L 4434 2438 
L 4434 434 
Q 4069 175 3628 42 
Q 3188 -91 2688 -91 
Q 1594 -91 976 548 
Q 359 1188 359 2328 
Q 359 3472 976 4111 
Q 1594 4750 2688 4750 
Q 3144 4750 3555 4637 
Q 3966 4525 4313 4306 
L 4313 3634 
Q 3963 3931 3569 4081 
Q 3175 4231 2741 4231 
Q 1884 4231 1454 3753 
Q 1025 3275 1025 2328 
Q 1025 1384 1454 906 
Q 1884 428 2741 428 
Q 3075 428 3337 486 
Q 3600 544 3809 666 
z
" transform="scale(0.015625)"/>
       <path id="DejaVuSans-61" d="M 2194 1759 
Q 1497 1759 1228 1600 
Q 959 1441 959 1056 
Q 959 750 1161 570 
Q 1363 391 1709 391 
Q 2188 391 2477 730 
Q 2766 1069 2766 1631 
L 2766 1759 
L 2194 1759 
z
M 3341 1997 
L 3341 0 
L 2766 0 
L 2766 531 
Q 2569 213 2275 61 
Q 1981 -91 1556 -91 
Q 1019 -91 701 211 
Q 384 513 384 1019 
Q 384 1609 779 1909 
Q 1175 2209 1959 2209 
L 2766 2209 
L 2766 2266 
Q 2766 2663 2505 2880 
Q 2244 3097 1772 3097 
Q 1472 3097 1187 3025 
Q 903 2953 641 2809 
L 641 3341 
Q 956 3463 1253 3523 
Q 1550 3584 1831 3584 
Q 2591 3584 2966 3190 
Q 3341 2797 3341 1997 
z
" transform="scale(0.015625)"/>
       <path id="DejaVuSans-6c" d="M 603 4863 
L 1178 4863 
L 1178 0 
L 603 0 
L 603 4863 
z
" transform="scale(0.015625)"/>
       <path id="DejaVuSans-6e" d="M 3513 2113 
L 3513 0 
L 2938 0 
L 2938 2094 
Q 2938 2591 2744 2837 
Q 2550 3084 2163 3084 
Q 1697 3084 1428 2787 
Q 1159 2491 1159 1978 
L 1159 0 
L 581 0 
L 581 3500 
L 1159 3500 
L 1159 2956 
Q 1366 3272 1645 3428 
Q 1925 3584 2291 3584 
Q 2894 3584 3203 3211 
Q 3513 2838 3513 2113 
z
" transform="scale(0.015625)"/>
      </defs>
      <use xlink:href="#DejaVuSans-47"/>
      <use xlink:href="#DejaVuSans-61" x="77.490234"/>
      <use xlink:href="#DejaVuSans-6c" x="138.769531"/>
      <use xlink:href="#DejaVuSans-6c" x="166.552734"/>
      <use xlink:href="#DejaVuSans-61" x="194.335938"/>
      <use xlink:href="#DejaVuSans-74" x="255.615234"/>
      <use xlink:href="#DejaVuSans-69" x="294.824219"/>
      <use xlink:href="#DejaVuSans-6e" x="322.607422"/>
     </g>
    </g>
   </g>
   <g id="line2d_24">
    <path d="M 46.64 265.69 
L 565.2 265.69 
" clip-path="url(#pd6afbc3561)" style="fill: none; stroke: #000000; stroke-width: 1.5; stroke-linecap: square"/>
   </g>
   <g id="patch_6">
    <path d="M 46.64 332.12 
L 46.64 199.26 
" style="fill: none; stroke: #000000; stroke-width: 0.8; stroke-linejoin: miter; stroke-linecap: square"/>
   </g>
   <g id="patch_7">
    <path d="M 46.64 332.12 
L 565.2 332.12 
" style="fill: none; stroke: #000000; stroke-width: 0.8; stroke-linejoin: miter; stroke-linecap: square"/>
   </g>
  </g>
  <g id="text_25">
   <!-- SPEI-48 -->
   <g transform="translate(262.110937 16.318125) scale(0.12 -0.12)">
    <defs>
     <path id="DejaVuSans-Bold-53" d="M 3834 4519 
L 3834 3531 
Q 3450 3703 3084 3790 
Q 2719 3878 2394 3878 
Q 1963 3878 1756 3759 
Q 1550 3641 1550 3391 
Q 1550 3203 1689 3098 
Q 1828 2994 2194 2919 
L 2706 2816 
Q 3484 2659 3812 2340 
Q 4141 2022 4141 1434 
Q 4141 663 3683 286 
Q 3225 -91 2284 -91 
Q 1841 -91 1394 -6 
Q 947 78 500 244 
L 500 1259 
Q 947 1022 1364 901 
Q 1781 781 2169 781 
Q 2563 781 2772 912 
Q 2981 1044 2981 1288 
Q 2981 1506 2839 1625 
Q 2697 1744 2272 1838 
L 1806 1941 
Q 1106 2091 782 2419 
Q 459 2747 459 3303 
Q 459 4000 909 4375 
Q 1359 4750 2203 4750 
Q 2588 4750 2994 4692 
Q 3400 4634 3834 4519 
z
" transform="scale(0.015625)"/>
     <path id="DejaVuSans-Bold-50" d="M 588 4666 
L 2584 4666 
Q 3475 4666 3951 4270 
Q 4428 3875 4428 3144 
Q 4428 2409 3951 2014 
Q 3475 1619 2584 1619 
L 1791 1619 
L 1791 0 
L 588 0 
L 588 4666 
z
M 1791 3794 
L 1791 2491 
L 2456 2491 
Q 2806 2491 2997 2661 
Q 3188 2831 3188 3144 
Q 3188 3456 2997 3625 
Q 2806 3794 2456 3794 
L 1791 3794 
z
" transform="scale(0.015625)"/>
     <path id="DejaVuSans-Bold-45" d="M 588 4666 
L 3834 4666 
L 3834 3756 
L 1791 3756 
L 1791 2888 
L 3713 2888 
L 3713 1978 
L 1791 1978 
L 1791 909 
L 3903 909 
L 3903 0 
L 588 0 
L 588 4666 
z
" transform="scale(0.015625)"/>
     <path id="DejaVuSans-Bold-49" d="M 588 4666 
L 1791 4666 
L 1791 0 
L 588 0 
L 588 4666 
z
" transform="scale(0.015625)"/>
     <path id="DejaVuSans-Bold-2d" d="M 347 2297 
L 2309 2297 
L 2309 1388 
L 347 1388 
L 347 2297 
z
" transform="scale(0.015625)"/>
     <path id="DejaVuSans-Bold-34" d="M 2356 3675 
L 1038 1722 
L 2356 1722 
L 2356 3675 
z
M 2156 4666 
L 3494 4666 
L 3494 1722 
L 4159 1722 
L 4159 850 
L 3494 850 
L 3494 0 
L 2356 0 
L 2356 850 
L 288 850 
L 288 1881 
L 2156 4666 
z
" transform="scale(0.015625)"/>
     <path id="DejaVuSans-Bold-38" d="M 2228 2088 
Q 1891 2088 1709 1903 
Q 1528 1719 1528 1375 
Q 1528 1031 1709 848 
Q 1891 666 2228 666 
Q 2563 666 2741 848 
Q 2919 1031 2919 1375 
Q 2919 1722 2741 1905 
Q 2563 2088 2228 2088 
z
M 1350 2484 
Q 925 2613 709 2878 
Q 494 3144 494 3541 
Q 494 4131 934 4440 
Q 1375 4750 2228 4750 
Q 3075 4750 3515 4442 
Q 3956 4134 3956 3541 
Q 3956 3144 3739 2878 
Q 3522 2613 3097 2484 
Q 3572 2353 3814 2058 
Q 4056 1763 4056 1313 
Q 4056 619 3595 264 
Q 3134 -91 2228 -91 
Q 1319 -91 855 264 
Q 391 619 391 1313 
Q 391 1763 633 2058 
Q 875 2353 1350 2484 
z
M 1631 3419 
Q 1631 3141 1786 2991 
Q 1941 2841 2228 2841 
Q 2509 2841 2662 2991 
Q 2816 3141 2816 3419 
Q 2816 3697 2662 3845 
Q 2509 3994 2228 3994 
Q 1941 3994 1786 3844 
Q 1631 3694 1631 3419 
z
" transform="scale(0.015625)"/>
    </defs>
    <use xlink:href="#DejaVuSans-Bold-53"/>
    <use xlink:href="#DejaVuSans-Bold-50" x="72.021484"/>
    <use xlink:href="#DejaVuSans-Bold-45" x="145.3125"/>
    <use xlink:href="#DejaVuSans-Bold-49" x="213.623047"/>
    <use xlink:href="#DejaVuSans-Bold-2d" x="250.830078"/>
    <use xlink:href="#DejaVuSans-Bold-34" x="292.333984"/>
    <use xlink:href="#DejaVuSans-Bold-38" x="361.914062"/>
   </g>
  </g>
 </g>
 <defs>
  <clipPath id="p1aeee76650">
   <rect x="46.64" y="34.56" width="518.56" height="132.86"/>
  </clipPath>
  <clipPath id="pd6afbc3561">
   <rect x="46.64" y="199.26" width="518.56" height="132.86"/>
  </clipPath>
 </defs>
</svg>
