<?xml version="1.0" encoding="utf-8" standalone="no"?>
<!DOCTYPE svg PUBLIC "-//W3C//DTD SVG 1.1//EN"
  "http://www.w3.org/Graphics/SVG/1.1/DTD/svg11.dtd">
<svg xmlns:xlink="http://www.w3.org/1999/xlink" width="576pt" height="360pt" viewBox="0 0 576 360" xmlns="http://www.w3.org/2000/svg" version="1.1">
 <metadata>
  <rdf:RDF xmlns:dc="http://purl.org/dc/elements/1.1/" xmlns:cc="http://creativecommons.org/ns#" xmlns:rdf="http://www.w3.org/1999/02/22-rdf-syntax-ns#">
   <cc:Work>
    <dc:type rdf:resource="http://purl.org/dc/dcmitype/StillImage"/>
    <dc:date>2024-02-04T11:03:39.822309</dc:date>
    <dc:format>image/svg+xml</dc:format>
    <dc:creator>
     <cc:Agent>
      <dc:title>Matplotlib v3.8.2, https://matplotlib.org/</dc:title>
     </cc:Agent>
    </dc:creator>
   </cc:Work>
  </rdf:RDF>
 </metadata>
 <defs>
  <style type="text/css">*{stroke-linejoin: round; stroke-linecap: butt}</style>
 </defs>
 <g id="figure_1">
  <g id="patch_1">
   <path d="M 0 360 
L 576 360 
L 576 0 
L 0 0 
z
" style="fill: #ffffff"/>
  </g>
  <g id="axes_1">
   <g id="patch_2">
    <path d="M 46.64 169.4 
L 565.2 169.4 
L 565.2 38.52 
L 46.64 38.52 
z
" style="fill: #ffffff"/>
   </g>
   <g id="PolyCollection_1">
    <path d="M 49.528914 103.96 
L 49.528914 103.012389 
L 50.251142 103.012389 
L 50.251142 99.754683 
L 51.695599 99.754683 
L 51.695599 93.757182 
L 53.140056 93.757182 
L 53.140056 97.517746 
L 54.584513 97.517746 
L 54.584513 99.598753 
L 56.028969 99.598753 
L 56.028969 96.844326 
L 57.473426 96.844326 
L 57.473426 91.652328 
L 58.917883 91.652328 
L 58.917883 92.180038 
L 60.36234 92.180038 
L 60.36234 87.365826 
L 61.806797 87.365826 
L 61.806797 87.177991 
L 63.251253 87.177991 
L 63.251253 91.140953 
L 64.69571 91.140953 
L 64.69571 94.855584 
L 66.140167 94.855584 
L 66.140167 100.495373 
L 67.584624 100.495373 
L 67.584624 99.962937 
L 69.029081 99.962937 
L 69.029081 102.248359 
L 70.473538 102.248359 
L 70.473538 102.432653 
L 71.917994 102.432653 
L 71.917994 93.986808 
L 73.362451 93.986808 
L 73.362451 93.077232 
L 74.806908 93.077232 
L 74.806908 88.718772 
L 76.251365 88.718772 
L 76.251365 95.873303 
L 77.695822 95.873303 
L 77.695822 93.321237 
L 79.140279 93.321237 
L 79.140279 93.693344 
L 80.584735 93.693344 
L 80.584735 93.416308 
L 82.029192 93.416308 
L 82.029192 99.142421 
L 83.473649 99.142421 
L 83.473649 98.131666 
L 84.918106 98.131666 
L 84.918106 97.242591 
L 86.362563 97.242591 
L 86.362563 97.089411 
L 87.807019 97.089411 
L 87.807019 92.13477 
L 89.251476 92.13477 
L 89.251476 90.058849 
L 90.695933 90.058849 
L 90.695933 85.584573 
L 92.14039 85.584573 
L 92.14039 85.154096 
L 93.584847 85.154096 
L 93.584847 87.550297 
L 95.029304 87.550297 
L 95.029304 89.780021 
L 96.47376 89.780021 
L 96.47376 95.410008 
L 97.918217 95.410008 
L 97.918217 96.457353 
L 99.362674 96.457353 
L 99.362674 93.011948 
L 100.807131 93.011948 
L 100.807131 96.651914 
L 102.251588 96.651914 
L 102.251588 102.441728 
L 103.696045 102.441728 
L 103.696045 100.520837 
L 105.140501 100.520837 
L 105.140501 103.143862 
L 105.86273 103.143862 
L 105.86273 103.96 
L 105.86273 103.96 
L 105.140501 103.96 
L 105.140501 103.96 
L 103.696045 103.96 
L 103.696045 103.96 
L 102.251588 103.96 
L 102.251588 103.96 
L 100.807131 103.96 
L 100.807131 103.96 
L 99.362674 103.96 
L 99.362674 103.96 
L 97.918217 103.96 
L 97.918217 103.96 
L 96.47376 103.96 
L 96.47376 103.96 
L 95.029304 103.96 
L 95.029304 103.96 
L 93.584847 103.96 
L 93.584847 103.96 
L 92.14039 103.96 
L 92.14039 103.96 
L 90.695933 103.96 
L 90.695933 103.96 
L 89.251476 103.96 
L 89.251476 103.96 
L 87.807019 103.96 
L 87.807019 103.96 
L 86.362563 103.96 
L 86.362563 103.96 
L 84.918106 103.96 
L 84.918106 103.96 
L 83.473649 103.96 
L 83.473649 103.96 
L 82.029192 103.96 
L 82.029192 103.96 
L 80.584735 103.96 
L 80.584735 103.96 
L 79.140279 103.96 
L 79.140279 103.96 
L 77.695822 103.96 
L 77.695822 103.96 
L 76.251365 103.96 
L 76.251365 103.96 
L 74.806908 103.96 
L 74.806908 103.96 
L 73.362451 103.96 
L 73.362451 103.96 
L 71.917994 103.96 
L 71.917994 103.96 
L 70.473538 103.96 
L 70.473538 103.96 
L 69.029081 103.96 
L 69.029081 103.96 
L 67.584624 103.96 
L 67.584624 103.96 
L 66.140167 103.96 
L 66.140167 103.96 
L 64.69571 103.96 
L 64.69571 103.96 
L 63.251253 103.96 
L 63.251253 103.96 
L 61.806797 103.96 
L 61.806797 103.96 
L 60.36234 103.96 
L 60.36234 103.96 
L 58.917883 103.96 
L 58.917883 103.96 
L 57.473426 103.96 
L 57.473426 103.96 
L 56.028969 103.96 
L 56.028969 103.96 
L 54.584513 103.96 
L 54.584513 103.96 
L 53.140056 103.96 
L 53.140056 103.96 
L 51.695599 103.96 
L 51.695599 103.96 
L 50.251142 103.96 
L 50.251142 103.96 
L 49.528914 103.96 
z
" clip-path="url(#pa385bdc75e)" style="fill: #17becf; fill-opacity: 0.6; stroke: #1f77b4; stroke-opacity: 0.8; stroke-width: 1.5"/>
    <path d="M 124.640669 103.96 
L 124.640669 98.08103 
L 125.362897 98.08103 
L 125.362897 95.273837 
L 126.807354 95.273837 
L 126.807354 89.630395 
L 128.251811 89.630395 
L 128.251811 93.134977 
L 129.696267 93.134977 
L 129.696267 85.033874 
L 131.140724 85.033874 
L 131.140724 82.094665 
L 132.585181 82.094665 
L 132.585181 77.865735 
L 134.029638 77.865735 
L 134.029638 73.403694 
L 135.474095 73.403694 
L 135.474095 74.328184 
L 136.918552 74.328184 
L 136.918552 70.912569 
L 138.363008 70.912569 
L 138.363008 68.692977 
L 139.807465 68.692977 
L 139.807465 71.68539 
L 141.251922 71.68539 
L 141.251922 72.901689 
L 142.696379 72.901689 
L 142.696379 73.63713 
L 144.140836 73.63713 
L 144.140836 72.074018 
L 145.585292 72.074018 
L 145.585292 71.938935 
L 147.029749 71.938935 
L 147.029749 72.290582 
L 148.474206 72.290582 
L 148.474206 68.097848 
L 149.918663 68.097848 
L 149.918663 66.352786 
L 151.36312 66.352786 
L 151.36312 66.297184 
L 152.807577 66.297184 
L 152.807577 65.77288 
L 154.252033 65.77288 
L 154.252033 64.634081 
L 155.69649 64.634081 
L 155.69649 66.926615 
L 157.140947 66.926615 
L 157.140947 69.037725 
L 158.585404 69.037725 
L 158.585404 69.319213 
L 160.029861 69.319213 
L 160.029861 68.346811 
L 161.474318 68.346811 
L 161.474318 67.522549 
L 162.918774 67.522549 
L 162.918774 64.606574 
L 164.363231 64.606574 
L 164.363231 64.170982 
L 165.807688 64.170982 
L 165.807688 65.255054 
L 167.252145 65.255054 
L 167.252145 64.970577 
L 168.696602 64.970577 
L 168.696602 65.225288 
L 170.141058 65.225288 
L 170.141058 64.747793 
L 171.585515 64.747793 
L 171.585515 64.429581 
L 173.029972 64.429581 
L 173.029972 63.814147 
L 174.474429 63.814147 
L 174.474429 61.887626 
L 175.918886 61.887626 
L 175.918886 60.972908 
L 177.363343 60.972908 
L 177.363343 60.785598 
L 178.807799 60.785598 
L 178.807799 60.975868 
L 180.252256 60.975868 
L 180.252256 61.342698 
L 181.696713 61.342698 
L 181.696713 59.984983 
L 183.14117 59.984983 
L 183.14117 58.962847 
L 184.585627 58.962847 
L 184.585627 58.700877 
L 186.030084 58.700877 
L 186.030084 59.024589 
L 187.47454 59.024589 
L 187.47454 59.167969 
L 188.918997 59.167969 
L 188.918997 59.632141 
L 190.363454 59.632141 
L 190.363454 60.716991 
L 191.807911 60.716991 
L 191.807911 61.150654 
L 193.252368 61.150654 
L 193.252368 62.125761 
L 194.696825 62.125761 
L 194.696825 62.263619 
L 196.141281 62.263619 
L 196.141281 63.586254 
L 197.585738 63.586254 
L 197.585738 67.114467 
L 199.030195 67.114467 
L 199.030195 67.346345 
L 200.474652 67.346345 
L 200.474652 68.351302 
L 201.919109 68.351302 
L 201.919109 69.88751 
L 203.363565 69.88751 
L 203.363565 69.452278 
L 204.808022 69.452278 
L 204.808022 70.70127 
L 206.252479 70.70127 
L 206.252479 74.331271 
L 207.696936 74.331271 
L 207.696936 73.248151 
L 209.141393 73.248151 
L 209.141393 74.160228 
L 210.58585 74.160228 
L 210.58585 75.139895 
L 212.030306 75.139895 
L 212.030306 77.174843 
L 213.474763 77.174843 
L 213.474763 76.354821 
L 214.91922 76.354821 
L 214.91922 75.878448 
L 216.363677 75.878448 
L 216.363677 83.464909 
L 217.808134 83.464909 
L 217.808134 86.639965 
L 219.252591 86.639965 
L 219.252591 91.798233 
L 220.697047 91.798233 
L 220.697047 96.010415 
L 222.141504 96.010415 
L 222.141504 99.810374 
L 223.585961 99.810374 
L 223.585961 98.508732 
L 224.308189 98.508732 
L 224.308189 103.96 
L 224.308189 103.96 
L 223.585961 103.96 
L 223.585961 103.96 
L 222.141504 103.96 
L 222.141504 103.96 
L 220.697047 103.96 
L 220.697047 103.96 
L 219.252591 103.96 
L 219.252591 103.96 
L 217.808134 103.96 
L 217.808134 103.96 
L 216.363677 103.96 
L 216.363677 103.96 
L 214.91922 103.96 
L 214.91922 103.96 
L 213.474763 103.96 
L 213.474763 103.96 
L 212.030306 103.96 
L 212.030306 103.96 
L 210.58585 103.96 
L 210.58585 103.96 
L 209.141393 103.96 
L 209.141393 103.96 
L 207.696936 103.96 
L 207.696936 103.96 
L 206.252479 103.96 
L 206.252479 103.96 
L 204.808022 103.96 
L 204.808022 103.96 
L 203.363565 103.96 
L 203.363565 103.96 
L 201.919109 103.96 
L 201.919109 103.96 
L 200.474652 103.96 
L 200.474652 103.96 
L 199.030195 103.96 
L 199.030195 103.96 
L 197.585738 103.96 
L 197.585738 103.96 
L 196.141281 103.96 
L 196.141281 103.96 
L 194.696825 103.96 
L 194.696825 103.96 
L 193.252368 103.96 
L 193.252368 103.96 
L 191.807911 103.96 
L 191.807911 103.96 
L 190.363454 103.96 
L 190.363454 103.96 
L 188.918997 103.96 
L 188.918997 103.96 
L 187.47454 103.96 
L 187.47454 103.96 
L 186.030084 103.96 
L 186.030084 103.96 
L 184.585627 103.96 
L 184.585627 103.96 
L 183.14117 103.96 
L 183.14117 103.96 
L 181.696713 103.96 
L 181.696713 103.96 
L 180.252256 103.96 
L 180.252256 103.96 
L 178.807799 103.96 
L 178.807799 103.96 
L 177.363343 103.96 
L 177.363343 103.96 
L 175.918886 103.96 
L 175.918886 103.96 
L 174.474429 103.96 
L 174.474429 103.96 
L 173.029972 103.96 
L 173.029972 103.96 
L 171.585515 103.96 
L 171.585515 103.96 
L 170.141058 103.96 
L 170.141058 103.96 
L 168.696602 103.96 
L 168.696602 103.96 
L 167.252145 103.96 
L 167.252145 103.96 
L 165.807688 103.96 
L 165.807688 103.96 
L 164.363231 103.96 
L 164.363231 103.96 
L 162.918774 103.96 
L 162.918774 103.96 
L 161.474318 103.96 
L 161.474318 103.96 
L 160.029861 103.96 
L 160.029861 103.96 
L 158.585404 103.96 
L 158.585404 103.96 
L 157.140947 103.96 
L 157.140947 103.96 
L 155.69649 103.96 
L 155.69649 103.96 
L 154.252033 103.96 
L 154.252033 103.96 
L 152.807577 103.96 
L 152.807577 103.96 
L 151.36312 103.96 
L 151.36312 103.96 
L 149.918663 103.96 
L 149.918663 103.96 
L 148.474206 103.96 
L 148.474206 103.96 
L 147.029749 103.96 
L 147.029749 103.96 
L 145.585292 103.96 
L 145.585292 103.96 
L 144.140836 103.96 
L 144.140836 103.96 
L 142.696379 103.96 
L 142.696379 103.96 
L 141.251922 103.96 
L 141.251922 103.96 
L 139.807465 103.96 
L 139.807465 103.96 
L 138.363008 103.96 
L 138.363008 103.96 
L 136.918552 103.96 
L 136.918552 103.96 
L 135.474095 103.96 
L 135.474095 103.96 
L 134.029638 103.96 
L 134.029638 103.96 
L 132.585181 103.96 
L 132.585181 103.96 
L 131.140724 103.96 
L 131.140724 103.96 
L 129.696267 103.96 
L 129.696267 103.96 
L 128.251811 103.96 
L 128.251811 103.96 
L 126.807354 103.96 
L 126.807354 103.96 
L 125.362897 103.96 
L 125.362897 103.96 
L 124.640669 103.96 
z
" clip-path="url(#pa385bdc75e)" style="fill: #17becf; fill-opacity: 0.6; stroke: #1f77b4; stroke-opacity: 0.8; stroke-width: 1.5"/>
    <path d="M 306.642228 103.96 
L 306.642228 98.549861 
L 307.364457 98.549861 
L 307.364457 100.286544 
L 308.808914 100.286544 
L 308.808914 101.201694 
L 310.25337 101.201694 
L 310.25337 102.367067 
L 310.975599 102.367067 
L 310.975599 103.96 
L 310.975599 103.96 
L 310.25337 103.96 
L 310.25337 103.96 
L 308.808914 103.96 
L 308.808914 103.96 
L 307.364457 103.96 
L 307.364457 103.96 
L 306.642228 103.96 
z
" clip-path="url(#pa385bdc75e)" style="fill: #17becf; fill-opacity: 0.6; stroke: #1f77b4; stroke-opacity: 0.8; stroke-width: 1.5"/>
    <path d="M 321.086797 103.96 
L 321.086797 99.807972 
L 321.809025 99.807972 
L 321.809025 103.27637 
L 322.531253 103.27637 
L 322.531253 103.96 
L 322.531253 103.96 
L 321.809025 103.96 
L 321.809025 103.96 
L 321.086797 103.96 
z
" clip-path="url(#pa385bdc75e)" style="fill: #17becf; fill-opacity: 0.6; stroke: #1f77b4; stroke-opacity: 0.8; stroke-width: 1.5"/>
    <path d="M 344.198106 103.96 
L 344.198106 99.608515 
L 344.198106 99.608515 
L 344.198106 103.96 
L 344.198106 103.96 
L 344.198106 103.96 
z
" clip-path="url(#pa385bdc75e)" style="fill: #17becf; fill-opacity: 0.6; stroke: #1f77b4; stroke-opacity: 0.8; stroke-width: 1.5"/>
    <path d="M 358.642674 103.96 
L 358.642674 95.675354 
L 359.364903 95.675354 
L 359.364903 97.140358 
L 360.809359 97.140358 
L 360.809359 93.773905 
L 362.253816 93.773905 
L 362.253816 98.244436 
L 363.698273 98.244436 
L 363.698273 100.314119 
L 365.14273 100.314119 
L 365.14273 97.737718 
L 366.587187 97.737718 
L 366.587187 96.284389 
L 368.031643 96.284389 
L 368.031643 93.831164 
L 369.4761 93.831164 
L 369.4761 96.721316 
L 370.920557 96.721316 
L 370.920557 99.595369 
L 371.642786 99.595369 
L 371.642786 103.96 
L 371.642786 103.96 
L 370.920557 103.96 
L 370.920557 103.96 
L 369.4761 103.96 
L 369.4761 103.96 
L 368.031643 103.96 
L 368.031643 103.96 
L 366.587187 103.96 
L 366.587187 103.96 
L 365.14273 103.96 
L 365.14273 103.96 
L 363.698273 103.96 
L 363.698273 103.96 
L 362.253816 103.96 
L 362.253816 103.96 
L 360.809359 103.96 
L 360.809359 103.96 
L 359.364903 103.96 
L 359.364903 103.96 
L 358.642674 103.96 
z
" clip-path="url(#pa385bdc75e)" style="fill: #17becf; fill-opacity: 0.6; stroke: #1f77b4; stroke-opacity: 0.8; stroke-width: 1.5"/>
    <path d="M 397.643008 103.96 
L 397.643008 99.235227 
L 398.365237 99.235227 
L 398.365237 94.334422 
L 399.809694 94.334422 
L 399.809694 90.235961 
L 401.25415 90.235961 
L 401.25415 88.947057 
L 402.698607 88.947057 
L 402.698607 91.887071 
L 404.143064 91.887071 
L 404.143064 96.564632 
L 405.587521 96.564632 
L 405.587521 94.541645 
L 407.031978 94.541645 
L 407.031978 98.924871 
L 408.476435 98.924871 
L 408.476435 100.309903 
L 409.920891 100.309903 
L 409.920891 100.436162 
L 411.365348 100.436162 
L 411.365348 100.053476 
L 412.809805 100.053476 
L 412.809805 96.256138 
L 414.254262 96.256138 
L 414.254262 96.552933 
L 415.698719 96.552933 
L 415.698719 96.355412 
L 417.143175 96.355412 
L 417.143175 96.372997 
L 418.587632 96.372997 
L 418.587632 98.460129 
L 420.032089 98.460129 
L 420.032089 101.721767 
L 420.754318 101.721767 
L 420.754318 103.96 
L 420.754318 103.96 
L 420.032089 103.96 
L 420.032089 103.96 
L 418.587632 103.96 
L 418.587632 103.96 
L 417.143175 103.96 
L 417.143175 103.96 
L 415.698719 103.96 
L 415.698719 103.96 
L 414.254262 103.96 
L 414.254262 103.96 
L 412.809805 103.96 
L 412.809805 103.96 
L 411.365348 103.96 
L 411.365348 103.96 
L 409.920891 103.96 
L 409.920891 103.96 
L 408.476435 103.96 
L 408.476435 103.96 
L 407.031978 103.96 
L 407.031978 103.96 
L 405.587521 103.96 
L 405.587521 103.96 
L 404.143064 103.96 
L 404.143064 103.96 
L 402.698607 103.96 
L 402.698607 103.96 
L 401.25415 103.96 
L 401.25415 103.96 
L 399.809694 103.96 
L 399.809694 103.96 
L 398.365237 103.96 
L 398.365237 103.96 
L 397.643008 103.96 
z
" clip-path="url(#pa385bdc75e)" style="fill: #17becf; fill-opacity: 0.6; stroke: #1f77b4; stroke-opacity: 0.8; stroke-width: 1.5"/>
    <path d="M 446.75454 103.96 
L 446.75454 93.402753 
L 447.476769 93.402753 
L 447.476769 87.34812 
L 448.921226 87.34812 
L 448.921226 88.413199 
L 450.365682 88.413199 
L 450.365682 91.641997 
L 451.810139 91.641997 
L 451.810139 92.588431 
L 453.254596 92.588431 
L 453.254596 94.487714 
L 454.699053 94.487714 
L 454.699053 91.191714 
L 456.14351 91.191714 
L 456.14351 92.839963 
L 457.587967 92.839963 
L 457.587967 92.975712 
L 459.032423 92.975712 
L 459.032423 90.041502 
L 460.47688 90.041502 
L 460.47688 92.495413 
L 461.921337 92.495413 
L 461.921337 92.749545 
L 463.365794 92.749545 
L 463.365794 97.15532 
L 464.088022 97.15532 
L 464.088022 103.96 
L 464.088022 103.96 
L 463.365794 103.96 
L 463.365794 103.96 
L 461.921337 103.96 
L 461.921337 103.96 
L 460.47688 103.96 
L 460.47688 103.96 
L 459.032423 103.96 
L 459.032423 103.96 
L 457.587967 103.96 
L 457.587967 103.96 
L 456.14351 103.96 
L 456.14351 103.96 
L 454.699053 103.96 
L 454.699053 103.96 
L 453.254596 103.96 
L 453.254596 103.96 
L 451.810139 103.96 
L 451.810139 103.96 
L 450.365682 103.96 
L 450.365682 103.96 
L 448.921226 103.96 
L 448.921226 103.96 
L 447.476769 103.96 
L 447.476769 103.96 
L 446.75454 103.96 
z
" clip-path="url(#pa385bdc75e)" style="fill: #17becf; fill-opacity: 0.6; stroke: #1f77b4; stroke-opacity: 0.8; stroke-width: 1.5"/>
    <path d="M 537.75532 103.96 
L 537.75532 99.649558 
L 537.75532 99.649558 
L 537.75532 103.96 
L 537.75532 103.96 
L 537.75532 103.96 
z
" clip-path="url(#pa385bdc75e)" style="fill: #17becf; fill-opacity: 0.6; stroke: #1f77b4; stroke-opacity: 0.8; stroke-width: 1.5"/>
    <path d="M 540.644234 103.96 
L 540.644234 102.84048 
L 541.366462 102.84048 
L 541.366462 100.47448 
L 542.810919 100.47448 
L 542.810919 94.527541 
L 544.255376 94.527541 
L 544.255376 91.366806 
L 545.699833 91.366806 
L 545.699833 100.210373 
L 547.14429 100.210373 
L 547.14429 101.359936 
L 548.588747 101.359936 
L 548.588747 97.550052 
L 550.033203 97.550052 
L 550.033203 94.402375 
L 551.47766 94.402375 
L 551.47766 92.744744 
L 552.922117 92.744744 
L 552.922117 93.800285 
L 554.366574 93.800285 
L 554.366574 87.217679 
L 555.811031 87.217679 
L 555.811031 86.610302 
L 557.255487 86.610302 
L 557.255487 85.792081 
L 558.699944 85.792081 
L 558.699944 88.624446 
L 560.144401 88.624446 
L 560.144401 91.978881 
L 561.588858 91.978881 
L 561.588858 85.346993 
L 563.033315 85.346993 
L 563.033315 90.758769 
L 564.477772 90.758769 
L 564.477772 88.427704 
L 565.2 88.427704 
L 565.2 103.96 
L 565.2 103.96 
L 564.477772 103.96 
L 564.477772 103.96 
L 563.033315 103.96 
L 563.033315 103.96 
L 561.588858 103.96 
L 561.588858 103.96 
L 560.144401 103.96 
L 560.144401 103.96 
L 558.699944 103.96 
L 558.699944 103.96 
L 557.255487 103.96 
L 557.255487 103.96 
L 555.811031 103.96 
L 555.811031 103.96 
L 554.366574 103.96 
L 554.366574 103.96 
L 552.922117 103.96 
L 552.922117 103.96 
L 551.47766 103.96 
L 551.47766 103.96 
L 550.033203 103.96 
L 550.033203 103.96 
L 548.588747 103.96 
L 548.588747 103.96 
L 547.14429 103.96 
L 547.14429 103.96 
L 545.699833 103.96 
L 545.699833 103.96 
L 544.255376 103.96 
L 544.255376 103.96 
L 542.810919 103.96 
L 542.810919 103.96 
L 541.366462 103.96 
L 541.366462 103.96 
L 540.644234 103.96 
z
" clip-path="url(#pa385bdc75e)" style="fill: #17becf; fill-opacity: 0.6; stroke: #1f77b4; stroke-opacity: 0.8; stroke-width: 1.5"/>
   </g>
   <g id="PolyCollection_2">
    <path d="M 46.64 103.96 
L 46.64 107.062126 
L 47.362228 107.062126 
L 47.362228 109.421572 
L 48.084457 109.421572 
L 48.084457 103.96 
L 48.084457 103.96 
L 47.362228 103.96 
L 47.362228 103.96 
L 46.64 103.96 
z
" clip-path="url(#pa385bdc75e)" style="fill: #d62728; fill-opacity: 0.6; stroke: #b22222; stroke-opacity: 0.8; stroke-width: 1.5"/>
    <path d="M 107.307187 103.96 
L 107.307187 106.413128 
L 108.029415 106.413128 
L 108.029415 105.297789 
L 109.473872 105.297789 
L 109.473872 114.500151 
L 110.918329 114.500151 
L 110.918329 113.632579 
L 112.362786 113.632579 
L 112.362786 107.126513 
L 113.807242 107.126513 
L 113.807242 107.173793 
L 115.251699 107.173793 
L 115.251699 107.028035 
L 116.696156 107.028035 
L 116.696156 106.717453 
L 118.140613 106.717453 
L 118.140613 108.349285 
L 119.58507 108.349285 
L 119.58507 108.96842 
L 121.029526 108.96842 
L 121.029526 111.205564 
L 122.473983 111.205564 
L 122.473983 105.73354 
L 123.196212 105.73354 
L 123.196212 103.96 
L 123.196212 103.96 
L 122.473983 103.96 
L 122.473983 103.96 
L 121.029526 103.96 
L 121.029526 103.96 
L 119.58507 103.96 
L 119.58507 103.96 
L 118.140613 103.96 
L 118.140613 103.96 
L 116.696156 103.96 
L 116.696156 103.96 
L 115.251699 103.96 
L 115.251699 103.96 
L 113.807242 103.96 
L 113.807242 103.96 
L 112.362786 103.96 
L 112.362786 103.96 
L 110.918329 103.96 
L 110.918329 103.96 
L 109.473872 103.96 
L 109.473872 103.96 
L 108.029415 103.96 
L 108.029415 103.96 
L 107.307187 103.96 
z
" clip-path="url(#pa385bdc75e)" style="fill: #d62728; fill-opacity: 0.6; stroke: #b22222; stroke-opacity: 0.8; stroke-width: 1.5"/>
    <path d="M 225.752646 103.96 
L 225.752646 104.170472 
L 226.474875 104.170472 
L 226.474875 107.117299 
L 227.919331 107.117299 
L 227.919331 104.858148 
L 229.363788 104.858148 
L 229.363788 111.550485 
L 230.808245 111.550485 
L 230.808245 122.008907 
L 232.252702 122.008907 
L 232.252702 113.560029 
L 233.697159 113.560029 
L 233.697159 114.072867 
L 235.141616 114.072867 
L 235.141616 116.488537 
L 236.586072 116.488537 
L 236.586072 109.874439 
L 238.030529 109.874439 
L 238.030529 112.13236 
L 239.474986 112.13236 
L 239.474986 111.335901 
L 240.919443 111.335901 
L 240.919443 115.933407 
L 242.3639 115.933407 
L 242.3639 125.498386 
L 243.808357 125.498386 
L 243.808357 126.497236 
L 245.252813 126.497236 
L 245.252813 121.976237 
L 246.69727 121.976237 
L 246.69727 122.105034 
L 248.141727 122.105034 
L 248.141727 120.064238 
L 249.586184 120.064238 
L 249.586184 134.360121 
L 251.030641 134.360121 
L 251.030641 145.582016 
L 252.475097 145.582016 
L 252.475097 167.332992 
L 253.919554 167.332992 
L 253.919554 165.637991 
L 255.364011 165.637991 
L 255.364011 153.972254 
L 256.808468 153.972254 
L 256.808468 129.414906 
L 258.252925 129.414906 
L 258.252925 128.583635 
L 259.697382 128.583635 
L 259.697382 130.71471 
L 261.141838 130.71471 
L 261.141838 134.889775 
L 262.586295 134.889775 
L 262.586295 143.832595 
L 264.030752 143.832595 
L 264.030752 142.098716 
L 265.475209 142.098716 
L 265.475209 139.52804 
L 266.919666 139.52804 
L 266.919666 141.79056 
L 268.364123 141.79056 
L 268.364123 138.134797 
L 269.808579 138.134797 
L 269.808579 142.406501 
L 271.253036 142.406501 
L 271.253036 138.96492 
L 272.697493 138.96492 
L 272.697493 141.049545 
L 274.14195 141.049545 
L 274.14195 148.374609 
L 275.586407 148.374609 
L 275.586407 153.884734 
L 277.030864 153.884734 
L 277.030864 128.997698 
L 278.47532 128.997698 
L 278.47532 126.75857 
L 279.919777 126.75857 
L 279.919777 120.188561 
L 281.364234 120.188561 
L 281.364234 115.90812 
L 282.808691 115.90812 
L 282.808691 112.599768 
L 284.253148 112.599768 
L 284.253148 110.013286 
L 285.697604 110.013286 
L 285.697604 109.851649 
L 287.142061 109.851649 
L 287.142061 104.693896 
L 288.586518 104.693896 
L 288.586518 106.076505 
L 290.030975 106.076505 
L 290.030975 110.361256 
L 291.475432 110.361256 
L 291.475432 114.096892 
L 292.919889 114.096892 
L 292.919889 107.718902 
L 294.364345 107.718902 
L 294.364345 108.791899 
L 295.808802 108.791899 
L 295.808802 108.673808 
L 297.253259 108.673808 
L 297.253259 107.450233 
L 298.697716 107.450233 
L 298.697716 106.372012 
L 300.142173 106.372012 
L 300.142173 110.638871 
L 301.58663 110.638871 
L 301.58663 107.315029 
L 303.031086 107.315029 
L 303.031086 104.596584 
L 304.475543 104.596584 
L 304.475543 105.561186 
L 305.197772 105.561186 
L 305.197772 103.96 
L 305.197772 103.96 
L 304.475543 103.96 
L 304.475543 103.96 
L 303.031086 103.96 
L 303.031086 103.96 
L 301.58663 103.96 
L 301.58663 103.96 
L 300.142173 103.96 
L 300.142173 103.96 
L 298.697716 103.96 
L 298.697716 103.96 
L 297.253259 103.96 
L 297.253259 103.96 
L 295.808802 103.96 
L 295.808802 103.96 
L 294.364345 103.96 
L 294.364345 103.96 
L 292.919889 103.96 
L 292.919889 103.96 
L 291.475432 103.96 
L 291.475432 103.96 
L 290.030975 103.96 
L 290.030975 103.96 
L 288.586518 103.96 
L 288.586518 103.96 
L 287.142061 103.96 
L 287.142061 103.96 
L 285.697604 103.96 
L 285.697604 103.96 
L 284.253148 103.96 
L 284.253148 103.96 
L 282.808691 103.96 
L 282.808691 103.96 
L 281.364234 103.96 
L 281.364234 103.96 
L 279.919777 103.96 
L 279.919777 103.96 
L 278.47532 103.96 
L 278.47532 103.96 
L 277.030864 103.96 
L 277.030864 103.96 
L 275.586407 103.96 
L 275.586407 103.96 
L 274.14195 103.96 
L 274.14195 103.96 
L 272.697493 103.96 
L 272.697493 103.96 
L 271.253036 103.96 
L 271.253036 103.96 
L 269.808579 103.96 
L 269.808579 103.96 
L 268.364123 103.96 
L 268.364123 103.96 
L 266.919666 103.96 
L 266.919666 103.96 
L 265.475209 103.96 
L 265.475209 103.96 
L 264.030752 103.96 
L 264.030752 103.96 
L 262.586295 103.96 
L 262.586295 103.96 
L 261.141838 103.96 
L 261.141838 103.96 
L 259.697382 103.96 
L 259.697382 103.96 
L 258.252925 103.96 
L 258.252925 103.96 
L 256.808468 103.96 
L 256.808468 103.96 
L 255.364011 103.96 
L 255.364011 103.96 
L 253.919554 103.96 
L 253.919554 103.96 
L 252.475097 103.96 
L 252.475097 103.96 
L 251.030641 103.96 
L 251.030641 103.96 
L 249.586184 103.96 
L 249.586184 103.96 
L 248.141727 103.96 
L 248.141727 103.96 
L 246.69727 103.96 
L 246.69727 103.96 
L 245.252813 103.96 
L 245.252813 103.96 
L 243.808357 103.96 
L 243.808357 103.96 
L 242.3639 103.96 
L 242.3639 103.96 
L 240.919443 103.96 
L 240.919443 103.96 
L 239.474986 103.96 
L 239.474986 103.96 
L 238.030529 103.96 
L 238.030529 103.96 
L 236.586072 103.96 
L 236.586072 103.96 
L 235.141616 103.96 
L 235.141616 103.96 
L 233.697159 103.96 
L 233.697159 103.96 
L 232.252702 103.96 
L 232.252702 103.96 
L 230.808245 103.96 
L 230.808245 103.96 
L 229.363788 103.96 
L 229.363788 103.96 
L 227.919331 103.96 
L 227.919331 103.96 
L 226.474875 103.96 
L 226.474875 103.96 
L 225.752646 103.96 
z
" clip-path="url(#pa385bdc75e)" style="fill: #d62728; fill-opacity: 0.6; stroke: #b22222; stroke-opacity: 0.8; stroke-width: 1.5"/>
    <path d="M 312.420056 103.96 
L 312.420056 107.70764 
L 313.142284 107.70764 
L 313.142284 110.066297 
L 314.586741 110.066297 
L 314.586741 115.315993 
L 316.031198 115.315993 
L 316.031198 116.316336 
L 317.475655 116.316336 
L 317.475655 111.373253 
L 318.920111 111.373253 
L 318.920111 108.529249 
L 319.64234 108.529249 
L 319.64234 103.96 
L 319.64234 103.96 
L 318.920111 103.96 
L 318.920111 103.96 
L 317.475655 103.96 
L 317.475655 103.96 
L 316.031198 103.96 
L 316.031198 103.96 
L 314.586741 103.96 
L 314.586741 103.96 
L 313.142284 103.96 
L 313.142284 103.96 
L 312.420056 103.96 
z
" clip-path="url(#pa385bdc75e)" style="fill: #d62728; fill-opacity: 0.6; stroke: #b22222; stroke-opacity: 0.8; stroke-width: 1.5"/>
    <path d="M 323.97571 103.96 
L 323.97571 108.660401 
L 324.697939 108.660401 
L 324.697939 118.024449 
L 326.142396 118.024449 
L 326.142396 124.395295 
L 327.586852 124.395295 
L 327.586852 127.873217 
L 329.031309 127.873217 
L 329.031309 122.151869 
L 330.475766 122.151869 
L 330.475766 120.56092 
L 331.920223 120.56092 
L 331.920223 123.596767 
L 333.36468 123.596767 
L 333.36468 125.684008 
L 334.809136 125.684008 
L 334.809136 120.904614 
L 336.253593 120.904614 
L 336.253593 121.214861 
L 337.69805 121.214861 
L 337.69805 122.621745 
L 339.142507 122.621745 
L 339.142507 118.964025 
L 340.586964 118.964025 
L 340.586964 113.865666 
L 342.031421 113.865666 
L 342.031421 106.000878 
L 342.753649 106.000878 
L 342.753649 103.96 
L 342.753649 103.96 
L 342.031421 103.96 
L 342.031421 103.96 
L 340.586964 103.96 
L 340.586964 103.96 
L 339.142507 103.96 
L 339.142507 103.96 
L 337.69805 103.96 
L 337.69805 103.96 
L 336.253593 103.96 
L 336.253593 103.96 
L 334.809136 103.96 
L 334.809136 103.96 
L 333.36468 103.96 
L 333.36468 103.96 
L 331.920223 103.96 
L 331.920223 103.96 
L 330.475766 103.96 
L 330.475766 103.96 
L 329.031309 103.96 
L 329.031309 103.96 
L 327.586852 103.96 
L 327.586852 103.96 
L 326.142396 103.96 
L 326.142396 103.96 
L 324.697939 103.96 
L 324.697939 103.96 
L 323.97571 103.96 
z
" clip-path="url(#pa385bdc75e)" style="fill: #d62728; fill-opacity: 0.6; stroke: #b22222; stroke-opacity: 0.8; stroke-width: 1.5"/>
    <path d="M 345.642563 103.96 
L 345.642563 108.56703 
L 346.364791 108.56703 
L 346.364791 109.030436 
L 347.809248 109.030436 
L 347.809248 108.664628 
L 349.253705 108.664628 
L 349.253705 118.835434 
L 350.698162 118.835434 
L 350.698162 127.17322 
L 352.142618 127.17322 
L 352.142618 124.873202 
L 353.587075 124.873202 
L 353.587075 122.484494 
L 355.031532 122.484494 
L 355.031532 116.486209 
L 356.475989 116.486209 
L 356.475989 108.264923 
L 357.198217 108.264923 
L 357.198217 103.96 
L 357.198217 103.96 
L 356.475989 103.96 
L 356.475989 103.96 
L 355.031532 103.96 
L 355.031532 103.96 
L 353.587075 103.96 
L 353.587075 103.96 
L 352.142618 103.96 
L 352.142618 103.96 
L 350.698162 103.96 
L 350.698162 103.96 
L 349.253705 103.96 
L 349.253705 103.96 
L 347.809248 103.96 
L 347.809248 103.96 
L 346.364791 103.96 
L 346.364791 103.96 
L 345.642563 103.96 
z
" clip-path="url(#pa385bdc75e)" style="fill: #d62728; fill-opacity: 0.6; stroke: #b22222; stroke-opacity: 0.8; stroke-width: 1.5"/>
    <path d="M 373.087242 103.96 
L 373.087242 105.576462 
L 373.809471 105.576462 
L 373.809471 115.310975 
L 375.253928 115.310975 
L 375.253928 119.783432 
L 376.698384 119.783432 
L 376.698384 127.121425 
L 378.142841 127.121425 
L 378.142841 141.114232 
L 379.587298 141.114232 
L 379.587298 136.429148 
L 381.031755 136.429148 
L 381.031755 132.648217 
L 382.476212 132.648217 
L 382.476212 122.254366 
L 383.920669 122.254366 
L 383.920669 121.214504 
L 385.365125 121.214504 
L 385.365125 121.125099 
L 386.809582 121.125099 
L 386.809582 121.062198 
L 388.254039 121.062198 
L 388.254039 129.900954 
L 389.698496 129.900954 
L 389.698496 127.214604 
L 391.142953 127.214604 
L 391.142953 122.067604 
L 392.587409 122.067604 
L 392.587409 116.275571 
L 394.031866 116.275571 
L 394.031866 111.221398 
L 395.476323 111.221398 
L 395.476323 105.620577 
L 396.198552 105.620577 
L 396.198552 103.96 
L 396.198552 103.96 
L 395.476323 103.96 
L 395.476323 103.96 
L 394.031866 103.96 
L 394.031866 103.96 
L 392.587409 103.96 
L 392.587409 103.96 
L 391.142953 103.96 
L 391.142953 103.96 
L 389.698496 103.96 
L 389.698496 103.96 
L 388.254039 103.96 
L 388.254039 103.96 
L 386.809582 103.96 
L 386.809582 103.96 
L 385.365125 103.96 
L 385.365125 103.96 
L 383.920669 103.96 
L 383.920669 103.96 
L 382.476212 103.96 
L 382.476212 103.96 
L 381.031755 103.96 
L 381.031755 103.96 
L 379.587298 103.96 
L 379.587298 103.96 
L 378.142841 103.96 
L 378.142841 103.96 
L 376.698384 103.96 
L 376.698384 103.96 
L 375.253928 103.96 
L 375.253928 103.96 
L 373.809471 103.96 
L 373.809471 103.96 
L 373.087242 103.96 
z
" clip-path="url(#pa385bdc75e)" style="fill: #d62728; fill-opacity: 0.6; stroke: #b22222; stroke-opacity: 0.8; stroke-width: 1.5"/>
    <path d="M 422.198774 103.96 
L 422.198774 105.369383 
L 422.921003 105.369383 
L 422.921003 104.43141 
L 424.36546 104.43141 
L 424.36546 109.603647 
L 425.809916 109.603647 
L 425.809916 114.324802 
L 427.254373 114.324802 
L 427.254373 110.165529 
L 428.69883 110.165529 
L 428.69883 119.88174 
L 430.143287 119.88174 
L 430.143287 119.789417 
L 431.587744 119.789417 
L 431.587744 119.9362 
L 433.032201 119.9362 
L 433.032201 126.453432 
L 434.476657 126.453432 
L 434.476657 127.797358 
L 435.921114 127.797358 
L 435.921114 140.48568 
L 437.365571 140.48568 
L 437.365571 135.207966 
L 438.810028 135.207966 
L 438.810028 130.495382 
L 440.254485 130.495382 
L 440.254485 126.409621 
L 441.698942 126.409621 
L 441.698942 121.284522 
L 443.143398 121.284522 
L 443.143398 112.808807 
L 444.587855 112.808807 
L 444.587855 105.546192 
L 445.310084 105.546192 
L 445.310084 103.96 
L 445.310084 103.96 
L 444.587855 103.96 
L 444.587855 103.96 
L 443.143398 103.96 
L 443.143398 103.96 
L 441.698942 103.96 
L 441.698942 103.96 
L 440.254485 103.96 
L 440.254485 103.96 
L 438.810028 103.96 
L 438.810028 103.96 
L 437.365571 103.96 
L 437.365571 103.96 
L 435.921114 103.96 
L 435.921114 103.96 
L 434.476657 103.96 
L 434.476657 103.96 
L 433.032201 103.96 
L 433.032201 103.96 
L 431.587744 103.96 
L 431.587744 103.96 
L 430.143287 103.96 
L 430.143287 103.96 
L 428.69883 103.96 
L 428.69883 103.96 
L 427.254373 103.96 
L 427.254373 103.96 
L 425.809916 103.96 
L 425.809916 103.96 
L 424.36546 103.96 
L 424.36546 103.96 
L 422.921003 103.96 
L 422.921003 103.96 
L 422.198774 103.96 
z
" clip-path="url(#pa385bdc75e)" style="fill: #d62728; fill-opacity: 0.6; stroke: #b22222; stroke-opacity: 0.8; stroke-width: 1.5"/>
    <path d="M 465.532479 103.96 
L 465.532479 106.99819 
L 466.254708 106.99819 
L 466.254708 114.859572 
L 467.699164 114.859572 
L 467.699164 124.310572 
L 469.143621 124.310572 
L 469.143621 134.887327 
L 470.588078 134.887327 
L 470.588078 126.141786 
L 472.032535 126.141786 
L 472.032535 125.199175 
L 473.476992 125.199175 
L 473.476992 133.030798 
L 474.921448 133.030798 
L 474.921448 135.745384 
L 476.365905 135.745384 
L 476.365905 133.540739 
L 477.810362 133.540739 
L 477.810362 130.268651 
L 479.254819 130.268651 
L 479.254819 140.416912 
L 480.699276 140.416912 
L 480.699276 148.499559 
L 482.143733 148.499559 
L 482.143733 150.374265 
L 483.588189 150.374265 
L 483.588189 161.494126 
L 485.032646 161.494126 
L 485.032646 165.205202 
L 486.477103 165.205202 
L 486.477103 166.487302 
L 487.92156 166.487302 
L 487.92156 145.39981 
L 489.366017 145.39981 
L 489.366017 140.087106 
L 490.810474 140.087106 
L 490.810474 144.049352 
L 492.25493 144.049352 
L 492.25493 131.892065 
L 493.699387 131.892065 
L 493.699387 142.869272 
L 495.143844 142.869272 
L 495.143844 136.05983 
L 496.588301 136.05983 
L 496.588301 136.85854 
L 498.032758 136.85854 
L 498.032758 130.574704 
L 499.477214 130.574704 
L 499.477214 122.48201 
L 500.921671 122.48201 
L 500.921671 116.829904 
L 502.366128 116.829904 
L 502.366128 118.519699 
L 503.810585 118.519699 
L 503.810585 111.57476 
L 505.255042 111.57476 
L 505.255042 114.151212 
L 506.699499 114.151212 
L 506.699499 124.516977 
L 508.143955 124.516977 
L 508.143955 117.631174 
L 509.588412 117.631174 
L 509.588412 113.708749 
L 511.032869 113.708749 
L 511.032869 113.37118 
L 512.477326 113.37118 
L 512.477326 109.280932 
L 513.921783 109.280932 
L 513.921783 121.44661 
L 515.36624 121.44661 
L 515.36624 119.044156 
L 516.810696 119.044156 
L 516.810696 120.197619 
L 518.255153 120.197619 
L 518.255153 112.468297 
L 519.69961 112.468297 
L 519.69961 111.465928 
L 521.144067 111.465928 
L 521.144067 105.734936 
L 522.588524 105.734936 
L 522.588524 113.736041 
L 524.032981 113.736041 
L 524.032981 111.881497 
L 525.477437 111.881497 
L 525.477437 117.233004 
L 526.921894 117.233004 
L 526.921894 125.718134 
L 528.366351 125.718134 
L 528.366351 121.418288 
L 529.810808 121.418288 
L 529.810808 123.271282 
L 531.255265 123.271282 
L 531.255265 124.449824 
L 532.699721 124.449824 
L 532.699721 113.113828 
L 534.144178 113.113828 
L 534.144178 115.978394 
L 535.588635 115.978394 
L 535.588635 105.840753 
L 536.310864 105.840753 
L 536.310864 103.96 
L 536.310864 103.96 
L 535.588635 103.96 
L 535.588635 103.96 
L 534.144178 103.96 
L 534.144178 103.96 
L 532.699721 103.96 
L 532.699721 103.96 
L 531.255265 103.96 
L 531.255265 103.96 
L 529.810808 103.96 
L 529.810808 103.96 
L 528.366351 103.96 
L 528.366351 103.96 
L 526.921894 103.96 
L 526.921894 103.96 
L 525.477437 103.96 
L 525.477437 103.96 
L 524.032981 103.96 
L 524.032981 103.96 
L 522.588524 103.96 
L 522.588524 103.96 
L 521.144067 103.96 
L 521.144067 103.96 
L 519.69961 103.96 
L 519.69961 103.96 
L 518.255153 103.96 
L 518.255153 103.96 
L 516.810696 103.96 
L 516.810696 103.96 
L 515.36624 103.96 
L 515.36624 103.96 
L 513.921783 103.96 
L 513.921783 103.96 
L 512.477326 103.96 
L 512.477326 103.96 
L 511.032869 103.96 
L 511.032869 103.96 
L 509.588412 103.96 
L 509.588412 103.96 
L 508.143955 103.96 
L 508.143955 103.96 
L 506.699499 103.96 
L 506.699499 103.96 
L 505.255042 103.96 
L 505.255042 103.96 
L 503.810585 103.96 
L 503.810585 103.96 
L 502.366128 103.96 
L 502.366128 103.96 
L 500.921671 103.96 
L 500.921671 103.96 
L 499.477214 103.96 
L 499.477214 103.96 
L 498.032758 103.96 
L 498.032758 103.96 
L 496.588301 103.96 
L 496.588301 103.96 
L 495.143844 103.96 
L 495.143844 103.96 
L 493.699387 103.96 
L 493.699387 103.96 
L 492.25493 103.96 
L 492.25493 103.96 
L 490.810474 103.96 
L 490.810474 103.96 
L 489.366017 103.96 
L 489.366017 103.96 
L 487.92156 103.96 
L 487.92156 103.96 
L 486.477103 103.96 
L 486.477103 103.96 
L 485.032646 103.96 
L 485.032646 103.96 
L 483.588189 103.96 
L 483.588189 103.96 
L 482.143733 103.96 
L 482.143733 103.96 
L 480.699276 103.96 
L 480.699276 103.96 
L 479.254819 103.96 
L 479.254819 103.96 
L 477.810362 103.96 
L 477.810362 103.96 
L 476.365905 103.96 
L 476.365905 103.96 
L 474.921448 103.96 
L 474.921448 103.96 
L 473.476992 103.96 
L 473.476992 103.96 
L 472.032535 103.96 
L 472.032535 103.96 
L 470.588078 103.96 
L 470.588078 103.96 
L 469.143621 103.96 
L 469.143621 103.96 
L 467.699164 103.96 
L 467.699164 103.96 
L 466.254708 103.96 
L 466.254708 103.96 
L 465.532479 103.96 
z
" clip-path="url(#pa385bdc75e)" style="fill: #d62728; fill-opacity: 0.6; stroke: #b22222; stroke-opacity: 0.8; stroke-width: 1.5"/>
    <path d="M 539.199777 103.96 
L 539.199777 106.417706 
L 539.199777 106.417706 
L 539.199777 103.96 
L 539.199777 103.96 
L 539.199777 103.96 
z
" clip-path="url(#pa385bdc75e)" style="fill: #d62728; fill-opacity: 0.6; stroke: #b22222; stroke-opacity: 0.8; stroke-width: 1.5"/>
   </g>
   <g id="matplotlib.axis_1">
    <g id="xtick_1">
     <g id="line2d_1">
      <defs>
       <path id="m4e62bc419f" d="M 0 0 
L 0 3.5 
" style="stroke: #000000; stroke-width: 0.8"/>
      </defs>
      <g>
       <use xlink:href="#m4e62bc419f" x="115.973928" y="169.4" style="stroke: #000000; stroke-width: 0.8"/>
      </g>
     </g>
     <g id="text_1">
      <!-- 1995 -->
      <g transform="translate(103.248928 183.998438) scale(0.1 -0.1)">
       <defs>
        <path id="DejaVuSans-31" d="M 794 531 
L 1825 531 
L 1825 4091 
L 703 3866 
L 703 4441 
L 1819 4666 
L 2450 4666 
L 2450 531 
L 3481 531 
L 3481 0 
L 794 0 
L 794 531 
z
" transform="scale(0.015625)"/>
        <path id="DejaVuSans-39" d="M 703 97 
L 703 672 
Q 941 559 1184 500 
Q 1428 441 1663 441 
Q 2288 441 2617 861 
Q 2947 1281 2994 2138 
Q 2813 1869 2534 1725 
Q 2256 1581 1919 1581 
Q 1219 1581 811 2004 
Q 403 2428 403 3163 
Q 403 3881 828 4315 
Q 1253 4750 1959 4750 
Q 2769 4750 3195 4129 
Q 3622 3509 3622 2328 
Q 3622 1225 3098 567 
Q 2575 -91 1691 -91 
Q 1453 -91 1209 -44 
Q 966 3 703 97 
z
M 1959 2075 
Q 2384 2075 2632 2365 
Q 2881 2656 2881 3163 
Q 2881 3666 2632 3958 
Q 2384 4250 1959 4250 
Q 1534 4250 1286 3958 
Q 1038 3666 1038 3163 
Q 1038 2656 1286 2365 
Q 1534 2075 1959 2075 
z
" transform="scale(0.015625)"/>
        <path id="DejaVuSans-35" d="M 691 4666 
L 3169 4666 
L 3169 4134 
L 1269 4134 
L 1269 2991 
Q 1406 3038 1543 3061 
Q 1681 3084 1819 3084 
Q 2600 3084 3056 2656 
Q 3513 2228 3513 1497 
Q 3513 744 3044 326 
Q 2575 -91 1722 -91 
Q 1428 -91 1123 -41 
Q 819 9 494 109 
L 494 744 
Q 775 591 1075 516 
Q 1375 441 1709 441 
Q 2250 441 2565 725 
Q 2881 1009 2881 1497 
Q 2881 1984 2565 2268 
Q 2250 2553 1709 2553 
Q 1456 2553 1204 2497 
Q 953 2441 691 2322 
L 691 4666 
z
" transform="scale(0.015625)"/>
       </defs>
       <use xlink:href="#DejaVuSans-31"/>
       <use xlink:href="#DejaVuSans-39" x="63.623047"/>
       <use xlink:href="#DejaVuSans-39" x="127.246094"/>
       <use xlink:href="#DejaVuSans-35" x="190.869141"/>
      </g>
     </g>
    </g>
    <g id="xtick_2">
     <g id="line2d_2">
      <g>
       <use xlink:href="#m4e62bc419f" x="202.641337" y="169.4" style="stroke: #000000; stroke-width: 0.8"/>
      </g>
     </g>
     <g id="text_2">
      <!-- 2000 -->
      <g transform="translate(189.916337 183.998438) scale(0.1 -0.1)">
       <defs>
        <path id="DejaVuSans-32" d="M 1228 531 
L 3431 531 
L 3431 0 
L 469 0 
L 469 531 
Q 828 903 1448 1529 
Q 2069 2156 2228 2338 
Q 2531 2678 2651 2914 
Q 2772 3150 2772 3378 
Q 2772 3750 2511 3984 
Q 2250 4219 1831 4219 
Q 1534 4219 1204 4116 
Q 875 4013 500 3803 
L 500 4441 
Q 881 4594 1212 4672 
Q 1544 4750 1819 4750 
Q 2544 4750 2975 4387 
Q 3406 4025 3406 3419 
Q 3406 3131 3298 2873 
Q 3191 2616 2906 2266 
Q 2828 2175 2409 1742 
Q 1991 1309 1228 531 
z
" transform="scale(0.015625)"/>
        <path id="DejaVuSans-30" d="M 2034 4250 
Q 1547 4250 1301 3770 
Q 1056 3291 1056 2328 
Q 1056 1369 1301 889 
Q 1547 409 2034 409 
Q 2525 409 2770 889 
Q 3016 1369 3016 2328 
Q 3016 3291 2770 3770 
Q 2525 4250 2034 4250 
z
M 2034 4750 
Q 2819 4750 3233 4129 
Q 3647 3509 3647 2328 
Q 3647 1150 3233 529 
Q 2819 -91 2034 -91 
Q 1250 -91 836 529 
Q 422 1150 422 2328 
Q 422 3509 836 4129 
Q 1250 4750 2034 4750 
z
" transform="scale(0.015625)"/>
       </defs>
       <use xlink:href="#DejaVuSans-32"/>
       <use xlink:href="#DejaVuSans-30" x="63.623047"/>
       <use xlink:href="#DejaVuSans-30" x="127.246094"/>
       <use xlink:href="#DejaVuSans-30" x="190.869141"/>
      </g>
     </g>
    </g>
    <g id="xtick_3">
     <g id="line2d_3">
      <g>
       <use xlink:href="#m4e62bc419f" x="289.308747" y="169.4" style="stroke: #000000; stroke-width: 0.8"/>
      </g>
     </g>
     <g id="text_3">
      <!-- 2005 -->
      <g transform="translate(276.583747 183.998438) scale(0.1 -0.1)">
       <use xlink:href="#DejaVuSans-32"/>
       <use xlink:href="#DejaVuSans-30" x="63.623047"/>
       <use xlink:href="#DejaVuSans-30" x="127.246094"/>
       <use xlink:href="#DejaVuSans-35" x="190.869141"/>
      </g>
     </g>
    </g>
    <g id="xtick_4">
     <g id="line2d_4">
      <g>
       <use xlink:href="#m4e62bc419f" x="375.976156" y="169.4" style="stroke: #000000; stroke-width: 0.8"/>
      </g>
     </g>
     <g id="text_4">
      <!-- 2010 -->
      <g transform="translate(363.251156 183.998438) scale(0.1 -0.1)">
       <use xlink:href="#DejaVuSans-32"/>
       <use xlink:href="#DejaVuSans-30" x="63.623047"/>
       <use xlink:href="#DejaVuSans-31" x="127.246094"/>
       <use xlink:href="#DejaVuSans-30" x="190.869141"/>
      </g>
     </g>
    </g>
    <g id="xtick_5">
     <g id="line2d_5">
      <g>
       <use xlink:href="#m4e62bc419f" x="462.643565" y="169.4" style="stroke: #000000; stroke-width: 0.8"/>
      </g>
     </g>
     <g id="text_5">
      <!-- 2015 -->
      <g transform="translate(449.918565 183.998438) scale(0.1 -0.1)">
       <use xlink:href="#DejaVuSans-32"/>
       <use xlink:href="#DejaVuSans-30" x="63.623047"/>
       <use xlink:href="#DejaVuSans-31" x="127.246094"/>
       <use xlink:href="#DejaVuSans-35" x="190.869141"/>
      </g>
     </g>
    </g>
    <g id="xtick_6">
     <g id="line2d_6">
      <g>
       <use xlink:href="#m4e62bc419f" x="549.310975" y="169.4" style="stroke: #000000; stroke-width: 0.8"/>
      </g>
     </g>
     <g id="text_6">
      <!-- 2020 -->
      <g transform="translate(536.585975 183.998438) scale(0.1 -0.1)">
       <use xlink:href="#DejaVuSans-32"/>
       <use xlink:href="#DejaVuSans-30" x="63.623047"/>
       <use xlink:href="#DejaVuSans-32" x="127.246094"/>
       <use xlink:href="#DejaVuSans-30" x="190.869141"/>
      </g>
     </g>
    </g>
   </g>
   <g id="matplotlib.axis_2">
    <g id="ytick_1">
     <g id="line2d_7">
      <defs>
       <path id="m8a57c1429a" d="M 0 0 
L -3.5 0 
" style="stroke: #000000; stroke-width: 0.8"/>
      </defs>
      <g>
       <use xlink:href="#m8a57c1429a" x="46.64" y="169.4" style="stroke: #000000; stroke-width: 0.8"/>
      </g>
     </g>
     <g id="text_7">
      <!-- −3 -->
      <g transform="translate(24.897813 173.199219) scale(0.1 -0.1)">
       <defs>
        <path id="DejaVuSans-2212" d="M 678 2272 
L 4684 2272 
L 4684 1741 
L 678 1741 
L 678 2272 
z
" transform="scale(0.015625)"/>
        <path id="DejaVuSans-33" d="M 2597 2516 
Q 3050 2419 3304 2112 
Q 3559 1806 3559 1356 
Q 3559 666 3084 287 
Q 2609 -91 1734 -91 
Q 1441 -91 1130 -33 
Q 819 25 488 141 
L 488 750 
Q 750 597 1062 519 
Q 1375 441 1716 441 
Q 2309 441 2620 675 
Q 2931 909 2931 1356 
Q 2931 1769 2642 2001 
Q 2353 2234 1838 2234 
L 1294 2234 
L 1294 2753 
L 1863 2753 
Q 2328 2753 2575 2939 
Q 2822 3125 2822 3475 
Q 2822 3834 2567 4026 
Q 2313 4219 1838 4219 
Q 1578 4219 1281 4162 
Q 984 4106 628 3988 
L 628 4550 
Q 988 4650 1302 4700 
Q 1616 4750 1894 4750 
Q 2613 4750 3031 4423 
Q 3450 4097 3450 3541 
Q 3450 3153 3228 2886 
Q 3006 2619 2597 2516 
z
" transform="scale(0.015625)"/>
       </defs>
       <use xlink:href="#DejaVuSans-2212"/>
       <use xlink:href="#DejaVuSans-33" x="83.789062"/>
      </g>
     </g>
    </g>
    <g id="ytick_2">
     <g id="line2d_8">
      <g>
       <use xlink:href="#m8a57c1429a" x="46.64" y="147.586667" style="stroke: #000000; stroke-width: 0.8"/>
      </g>
     </g>
     <g id="text_8">
      <!-- −2 -->
      <g transform="translate(24.897813 151.385885) scale(0.1 -0.1)">
       <use xlink:href="#DejaVuSans-2212"/>
       <use xlink:href="#DejaVuSans-32" x="83.789062"/>
      </g>
     </g>
    </g>
    <g id="ytick_3">
     <g id="line2d_9">
      <g>
       <use xlink:href="#m8a57c1429a" x="46.64" y="125.773333" style="stroke: #000000; stroke-width: 0.8"/>
      </g>
     </g>
     <g id="text_9">
      <!-- −1 -->
      <g transform="translate(24.897813 129.572552) scale(0.1 -0.1)">
       <use xlink:href="#DejaVuSans-2212"/>
       <use xlink:href="#DejaVuSans-31" x="83.789062"/>
      </g>
     </g>
    </g>
    <g id="ytick_4">
     <g id="line2d_10">
      <g>
       <use xlink:href="#m8a57c1429a" x="46.64" y="103.96" style="stroke: #000000; stroke-width: 0.8"/>
      </g>
     </g>
     <g id="text_10">
      <!-- 0 -->
      <g transform="translate(33.2775 107.759219) scale(0.1 -0.1)">
       <use xlink:href="#DejaVuSans-30"/>
      </g>
     </g>
    </g>
    <g id="ytick_5">
     <g id="line2d_11">
      <g>
       <use xlink:href="#m8a57c1429a" x="46.64" y="82.146667" style="stroke: #000000; stroke-width: 0.8"/>
      </g>
     </g>
     <g id="text_11">
      <!-- 1 -->
      <g transform="translate(33.2775 85.945885) scale(0.1 -0.1)">
       <use xlink:href="#DejaVuSans-31"/>
      </g>
     </g>
    </g>
    <g id="ytick_6">
     <g id="line2d_12">
      <g>
       <use xlink:href="#m8a57c1429a" x="46.64" y="60.333333" style="stroke: #000000; stroke-width: 0.8"/>
      </g>
     </g>
     <g id="text_12">
      <!-- 2 -->
      <g transform="translate(33.2775 64.132552) scale(0.1 -0.1)">
       <use xlink:href="#DejaVuSans-32"/>
      </g>
     </g>
    </g>
    <g id="ytick_7">
     <g id="line2d_13">
      <g>
       <use xlink:href="#m8a57c1429a" x="46.64" y="38.52" style="stroke: #000000; stroke-width: 0.8"/>
      </g>
     </g>
     <g id="text_13">
      <!-- 3 -->
      <g transform="translate(33.2775 42.319219) scale(0.1 -0.1)">
       <use xlink:href="#DejaVuSans-33"/>
      </g>
     </g>
    </g>
    <g id="text_14">
     <!-- Bitterroot -->
     <g transform="translate(18.818125 127.76625) rotate(-90) scale(0.1 -0.1)">
      <defs>
       <path id="DejaVuSans-42" d="M 1259 2228 
L 1259 519 
L 2272 519 
Q 2781 519 3026 730 
Q 3272 941 3272 1375 
Q 3272 1813 3026 2020 
Q 2781 2228 2272 2228 
L 1259 2228 
z
M 1259 4147 
L 1259 2741 
L 2194 2741 
Q 2656 2741 2882 2914 
Q 3109 3088 3109 3444 
Q 3109 3797 2882 3972 
Q 2656 4147 2194 4147 
L 1259 4147 
z
M 628 4666 
L 2241 4666 
Q 2963 4666 3353 4366 
Q 3744 4066 3744 3513 
Q 3744 3084 3544 2831 
Q 3344 2578 2956 2516 
Q 3422 2416 3680 2098 
Q 3938 1781 3938 1306 
Q 3938 681 3513 340 
Q 3088 0 2303 0 
L 628 0 
L 628 4666 
z
" transform="scale(0.015625)"/>
       <path id="DejaVuSans-69" d="M 603 3500 
L 1178 3500 
L 1178 0 
L 603 0 
L 603 3500 
z
M 603 4863 
L 1178 4863 
L 1178 4134 
L 603 4134 
L 603 4863 
z
" transform="scale(0.015625)"/>
       <path id="DejaVuSans-74" d="M 1172 4494 
L 1172 3500 
L 2356 3500 
L 2356 3053 
L 1172 3053 
L 1172 1153 
Q 1172 725 1289 603 
Q 1406 481 1766 481 
L 2356 481 
L 2356 0 
L 1766 0 
Q 1100 0 847 248 
Q 594 497 594 1153 
L 594 3053 
L 172 3053 
L 172 3500 
L 594 3500 
L 594 4494 
L 1172 4494 
z
" transform="scale(0.015625)"/>
       <path id="DejaVuSans-65" d="M 3597 1894 
L 3597 1613 
L 953 1613 
Q 991 1019 1311 708 
Q 1631 397 2203 397 
Q 2534 397 2845 478 
Q 3156 559 3463 722 
L 3463 178 
Q 3153 47 2828 -22 
Q 2503 -91 2169 -91 
Q 1331 -91 842 396 
Q 353 884 353 1716 
Q 353 2575 817 3079 
Q 1281 3584 2069 3584 
Q 2775 3584 3186 3129 
Q 3597 2675 3597 1894 
z
M 3022 2063 
Q 3016 2534 2758 2815 
Q 2500 3097 2075 3097 
Q 1594 3097 1305 2825 
Q 1016 2553 972 2059 
L 3022 2063 
z
" transform="scale(0.015625)"/>
       <path id="DejaVuSans-72" d="M 2631 2963 
Q 2534 3019 2420 3045 
Q 2306 3072 2169 3072 
Q 1681 3072 1420 2755 
Q 1159 2438 1159 1844 
L 1159 0 
L 581 0 
L 581 3500 
L 1159 3500 
L 1159 2956 
Q 1341 3275 1631 3429 
Q 1922 3584 2338 3584 
Q 2397 3584 2469 3576 
Q 2541 3569 2628 3553 
L 2631 2963 
z
" transform="scale(0.015625)"/>
       <path id="DejaVuSans-6f" d="M 1959 3097 
Q 1497 3097 1228 2736 
Q 959 2375 959 1747 
Q 959 1119 1226 758 
Q 1494 397 1959 397 
Q 2419 397 2687 759 
Q 2956 1122 2956 1747 
Q 2956 2369 2687 2733 
Q 2419 3097 1959 3097 
z
M 1959 3584 
Q 2709 3584 3137 3096 
Q 3566 2609 3566 1747 
Q 3566 888 3137 398 
Q 2709 -91 1959 -91 
Q 1206 -91 779 398 
Q 353 888 353 1747 
Q 353 2609 779 3096 
Q 1206 3584 1959 3584 
z
" transform="scale(0.015625)"/>
      </defs>
      <use xlink:href="#DejaVuSans-42"/>
      <use xlink:href="#DejaVuSans-69" x="68.603516"/>
      <use xlink:href="#DejaVuSans-74" x="96.386719"/>
      <use xlink:href="#DejaVuSans-74" x="135.595703"/>
      <use xlink:href="#DejaVuSans-65" x="174.804688"/>
      <use xlink:href="#DejaVuSans-72" x="236.328125"/>
      <use xlink:href="#DejaVuSans-72" x="275.691406"/>
      <use xlink:href="#DejaVuSans-6f" x="314.554688"/>
      <use xlink:href="#DejaVuSans-6f" x="375.736328"/>
      <use xlink:href="#DejaVuSans-74" x="436.917969"/>
     </g>
    </g>
   </g>
   <g id="line2d_14">
    <path d="M 46.64 103.96 
L 565.2 103.96 
" clip-path="url(#pa385bdc75e)" style="fill: none; stroke: #000000; stroke-width: 1.5; stroke-linecap: square"/>
   </g>
   <g id="patch_3">
    <path d="M 46.64 169.4 
L 46.64 38.52 
" style="fill: none; stroke: #000000; stroke-width: 0.8; stroke-linejoin: miter; stroke-linecap: square"/>
   </g>
   <g id="patch_4">
    <path d="M 46.64 169.4 
L 565.2 169.4 
" style="fill: none; stroke: #000000; stroke-width: 0.8; stroke-linejoin: miter; stroke-linecap: square"/>
   </g>
  </g>
  <g id="axes_2">
   <g id="patch_5">
    <path d="M 46.64 332.12 
L 565.2 332.12 
L 565.2 201.24 
L 46.64 201.24 
z
" style="fill: #ffffff"/>
   </g>
   <g id="PolyCollection_3">
    <path d="M 72.640223 266.68 
L 72.640223 266.374489 
L 72.640223 266.374489 
L 72.640223 266.68 
L 72.640223 266.68 
L 72.640223 266.68 
z
" clip-path="url(#p7a9928c981)" style="fill: #17becf; fill-opacity: 0.6; stroke: #1f77b4; stroke-opacity: 0.8; stroke-width: 1.5"/>
    <path d="M 75.529136 266.68 
L 75.529136 263.929898 
L 76.251365 263.929898 
L 76.251365 266.651161 
L 77.695822 266.651161 
L 77.695822 264.628996 
L 79.140279 264.628996 
L 79.140279 266.008556 
L 80.584735 266.008556 
L 80.584735 263.800243 
L 82.029192 263.800243 
L 82.029192 265.461494 
L 82.751421 265.461494 
L 82.751421 266.68 
L 82.751421 266.68 
L 82.029192 266.68 
L 82.029192 266.68 
L 80.584735 266.68 
L 80.584735 266.68 
L 79.140279 266.68 
L 79.140279 266.68 
L 77.695822 266.68 
L 77.695822 266.68 
L 76.251365 266.68 
L 76.251365 266.68 
L 75.529136 266.68 
z
" clip-path="url(#p7a9928c981)" style="fill: #17becf; fill-opacity: 0.6; stroke: #1f77b4; stroke-opacity: 0.8; stroke-width: 1.5"/>
    <path d="M 85.640334 266.68 
L 85.640334 265.802893 
L 86.362563 265.802893 
L 86.362563 262.156425 
L 87.807019 262.156425 
L 87.807019 255.523322 
L 89.251476 255.523322 
L 89.251476 245.21257 
L 90.695933 245.21257 
L 90.695933 238.703823 
L 92.14039 238.703823 
L 92.14039 240.693809 
L 93.584847 240.693809 
L 93.584847 240.278221 
L 95.029304 240.278221 
L 95.029304 240.971941 
L 96.47376 240.971941 
L 96.47376 241.409627 
L 97.918217 241.409627 
L 97.918217 240.364596 
L 99.362674 240.364596 
L 99.362674 242.269183 
L 100.807131 242.269183 
L 100.807131 244.616948 
L 102.251588 244.616948 
L 102.251588 246.516671 
L 103.696045 246.516671 
L 103.696045 247.352323 
L 105.140501 247.352323 
L 105.140501 249.080314 
L 106.584958 249.080314 
L 106.584958 249.839914 
L 108.029415 249.839914 
L 108.029415 249.038208 
L 109.473872 249.038208 
L 109.473872 249.92396 
L 110.918329 249.92396 
L 110.918329 246.929394 
L 112.362786 246.929394 
L 112.362786 245.193582 
L 113.807242 245.193582 
L 113.807242 243.863858 
L 115.251699 243.863858 
L 115.251699 239.906557 
L 116.696156 239.906557 
L 116.696156 242.394388 
L 118.140613 242.394388 
L 118.140613 242.73337 
L 119.58507 242.73337 
L 119.58507 243.267053 
L 121.029526 243.267053 
L 121.029526 240.826361 
L 122.473983 240.826361 
L 122.473983 236.619008 
L 123.91844 236.619008 
L 123.91844 233.57118 
L 125.362897 233.57118 
L 125.362897 234.061675 
L 126.807354 234.061675 
L 126.807354 231.523007 
L 128.251811 231.523007 
L 128.251811 231.682322 
L 129.696267 231.682322 
L 129.696267 231.069054 
L 131.140724 231.069054 
L 131.140724 230.726918 
L 132.585181 230.726918 
L 132.585181 230.172875 
L 134.029638 230.172875 
L 134.029638 229.779721 
L 135.474095 229.779721 
L 135.474095 228.603046 
L 136.918552 228.603046 
L 136.918552 226.781054 
L 138.363008 226.781054 
L 138.363008 225.548253 
L 139.807465 225.548253 
L 139.807465 229.363351 
L 141.251922 229.363351 
L 141.251922 230.941554 
L 142.696379 230.941554 
L 142.696379 231.901743 
L 144.140836 231.901743 
L 144.140836 231.217563 
L 145.585292 231.217563 
L 145.585292 232.369224 
L 147.029749 232.369224 
L 147.029749 231.352709 
L 148.474206 231.352709 
L 148.474206 230.762524 
L 149.918663 230.762524 
L 149.918663 230.586521 
L 151.36312 230.586521 
L 151.36312 230.104466 
L 152.807577 230.104466 
L 152.807577 231.768678 
L 154.252033 231.768678 
L 154.252033 230.971208 
L 155.69649 230.971208 
L 155.69649 234.625427 
L 157.140947 234.625427 
L 157.140947 240.601538 
L 158.585404 240.601538 
L 158.585404 240.369684 
L 160.029861 240.369684 
L 160.029861 236.373963 
L 161.474318 236.373963 
L 161.474318 234.403061 
L 162.918774 234.403061 
L 162.918774 233.609318 
L 164.363231 233.609318 
L 164.363231 233.032445 
L 165.807688 233.032445 
L 165.807688 232.051858 
L 167.252145 232.051858 
L 167.252145 231.412747 
L 168.696602 231.412747 
L 168.696602 230.445966 
L 170.141058 230.445966 
L 170.141058 229.102731 
L 171.585515 229.102731 
L 171.585515 226.59569 
L 173.029972 226.59569 
L 173.029972 227.538669 
L 174.474429 227.538669 
L 174.474429 222.896607 
L 175.918886 222.896607 
L 175.918886 222.377028 
L 177.363343 222.377028 
L 177.363343 221.642264 
L 178.807799 221.642264 
L 178.807799 222.672167 
L 180.252256 222.672167 
L 180.252256 222.913578 
L 181.696713 222.913578 
L 181.696713 223.00215 
L 183.14117 223.00215 
L 183.14117 223.563835 
L 184.585627 223.563835 
L 184.585627 224.508948 
L 186.030084 224.508948 
L 186.030084 226.217361 
L 187.47454 226.217361 
L 187.47454 228.220345 
L 188.918997 228.220345 
L 188.918997 229.188918 
L 190.363454 229.188918 
L 190.363454 229.331542 
L 191.807911 229.331542 
L 191.807911 230.957754 
L 193.252368 230.957754 
L 193.252368 234.519252 
L 194.696825 234.519252 
L 194.696825 232.840733 
L 196.141281 232.840733 
L 196.141281 234.266354 
L 197.585738 234.266354 
L 197.585738 237.150353 
L 199.030195 237.150353 
L 199.030195 238.682561 
L 200.474652 238.682561 
L 200.474652 239.007041 
L 201.919109 239.007041 
L 201.919109 238.56651 
L 203.363565 238.56651 
L 203.363565 240.539609 
L 204.808022 240.539609 
L 204.808022 240.184197 
L 206.252479 240.184197 
L 206.252479 249.357945 
L 207.696936 249.357945 
L 207.696936 243.123245 
L 209.141393 243.123245 
L 209.141393 243.125394 
L 210.58585 243.125394 
L 210.58585 243.279507 
L 212.030306 243.279507 
L 212.030306 245.338363 
L 213.474763 245.338363 
L 213.474763 245.117999 
L 214.91922 245.117999 
L 214.91922 244.213815 
L 216.363677 244.213815 
L 216.363677 244.257046 
L 217.808134 244.257046 
L 217.808134 246.299723 
L 219.252591 246.299723 
L 219.252591 245.784083 
L 220.697047 245.784083 
L 220.697047 245.726006 
L 222.141504 245.726006 
L 222.141504 248.257361 
L 223.585961 248.257361 
L 223.585961 248.660469 
L 225.030418 248.660469 
L 225.030418 262.273773 
L 225.752646 262.273773 
L 225.752646 266.68 
L 225.752646 266.68 
L 225.030418 266.68 
L 225.030418 266.68 
L 223.585961 266.68 
L 223.585961 266.68 
L 222.141504 266.68 
L 222.141504 266.68 
L 220.697047 266.68 
L 220.697047 266.68 
L 219.252591 266.68 
L 219.252591 266.68 
L 217.808134 266.68 
L 217.808134 266.68 
L 216.363677 266.68 
L 216.363677 266.68 
L 214.91922 266.68 
L 214.91922 266.68 
L 213.474763 266.68 
L 213.474763 266.68 
L 212.030306 266.68 
L 212.030306 266.68 
L 210.58585 266.68 
L 210.58585 266.68 
L 209.141393 266.68 
L 209.141393 266.68 
L 207.696936 266.68 
L 207.696936 266.68 
L 206.252479 266.68 
L 206.252479 266.68 
L 204.808022 266.68 
L 204.808022 266.68 
L 203.363565 266.68 
L 203.363565 266.68 
L 201.919109 266.68 
L 201.919109 266.68 
L 200.474652 266.68 
L 200.474652 266.68 
L 199.030195 266.68 
L 199.030195 266.68 
L 197.585738 266.68 
L 197.585738 266.68 
L 196.141281 266.68 
L 196.141281 266.68 
L 194.696825 266.68 
L 194.696825 266.68 
L 193.252368 266.68 
L 193.252368 266.68 
L 191.807911 266.68 
L 191.807911 266.68 
L 190.363454 266.68 
L 190.363454 266.68 
L 188.918997 266.68 
L 188.918997 266.68 
L 187.47454 266.68 
L 187.47454 266.68 
L 186.030084 266.68 
L 186.030084 266.68 
L 184.585627 266.68 
L 184.585627 266.68 
L 183.14117 266.68 
L 183.14117 266.68 
L 181.696713 266.68 
L 181.696713 266.68 
L 180.252256 266.68 
L 180.252256 266.68 
L 178.807799 266.68 
L 178.807799 266.68 
L 177.363343 266.68 
L 177.363343 266.68 
L 175.918886 266.68 
L 175.918886 266.68 
L 174.474429 266.68 
L 174.474429 266.68 
L 173.029972 266.68 
L 173.029972 266.68 
L 171.585515 266.68 
L 171.585515 266.68 
L 170.141058 266.68 
L 170.141058 266.68 
L 168.696602 266.68 
L 168.696602 266.68 
L 167.252145 266.68 
L 167.252145 266.68 
L 165.807688 266.68 
L 165.807688 266.68 
L 164.363231 266.68 
L 164.363231 266.68 
L 162.918774 266.68 
L 162.918774 266.68 
L 161.474318 266.68 
L 161.474318 266.68 
L 160.029861 266.68 
L 160.029861 266.68 
L 158.585404 266.68 
L 158.585404 266.68 
L 157.140947 266.68 
L 157.140947 266.68 
L 155.69649 266.68 
L 155.69649 266.68 
L 154.252033 266.68 
L 154.252033 266.68 
L 152.807577 266.68 
L 152.807577 266.68 
L 151.36312 266.68 
L 151.36312 266.68 
L 149.918663 266.68 
L 149.918663 266.68 
L 148.474206 266.68 
L 148.474206 266.68 
L 147.029749 266.68 
L 147.029749 266.68 
L 145.585292 266.68 
L 145.585292 266.68 
L 144.140836 266.68 
L 144.140836 266.68 
L 142.696379 266.68 
L 142.696379 266.68 
L 141.251922 266.68 
L 141.251922 266.68 
L 139.807465 266.68 
L 139.807465 266.68 
L 138.363008 266.68 
L 138.363008 266.68 
L 136.918552 266.68 
L 136.918552 266.68 
L 135.474095 266.68 
L 135.474095 266.68 
L 134.029638 266.68 
L 134.029638 266.68 
L 132.585181 266.68 
L 132.585181 266.68 
L 131.140724 266.68 
L 131.140724 266.68 
L 129.696267 266.68 
L 129.696267 266.68 
L 128.251811 266.68 
L 128.251811 266.68 
L 126.807354 266.68 
L 126.807354 266.68 
L 125.362897 266.68 
L 125.362897 266.68 
L 123.91844 266.68 
L 123.91844 266.68 
L 122.473983 266.68 
L 122.473983 266.68 
L 121.029526 266.68 
L 121.029526 266.68 
L 119.58507 266.68 
L 119.58507 266.68 
L 118.140613 266.68 
L 118.140613 266.68 
L 116.696156 266.68 
L 116.696156 266.68 
L 115.251699 266.68 
L 115.251699 266.68 
L 113.807242 266.68 
L 113.807242 266.68 
L 112.362786 266.68 
L 112.362786 266.68 
L 110.918329 266.68 
L 110.918329 266.68 
L 109.473872 266.68 
L 109.473872 266.68 
L 108.029415 266.68 
L 108.029415 266.68 
L 106.584958 266.68 
L 106.584958 266.68 
L 105.140501 266.68 
L 105.140501 266.68 
L 103.696045 266.68 
L 103.696045 266.68 
L 102.251588 266.68 
L 102.251588 266.68 
L 100.807131 266.68 
L 100.807131 266.68 
L 99.362674 266.68 
L 99.362674 266.68 
L 97.918217 266.68 
L 97.918217 266.68 
L 96.47376 266.68 
L 96.47376 266.68 
L 95.029304 266.68 
L 95.029304 266.68 
L 93.584847 266.68 
L 93.584847 266.68 
L 92.14039 266.68 
L 92.14039 266.68 
L 90.695933 266.68 
L 90.695933 266.68 
L 89.251476 266.68 
L 89.251476 266.68 
L 87.807019 266.68 
L 87.807019 266.68 
L 86.362563 266.68 
L 86.362563 266.68 
L 85.640334 266.68 
z
" clip-path="url(#p7a9928c981)" style="fill: #17becf; fill-opacity: 0.6; stroke: #1f77b4; stroke-opacity: 0.8; stroke-width: 1.5"/>
    <path d="M 299.419944 266.68 
L 299.419944 263.50279 
L 300.142173 263.50279 
L 300.142173 264.308531 
L 301.58663 264.308531 
L 301.58663 260.111814 
L 303.031086 260.111814 
L 303.031086 256.952974 
L 304.475543 256.952974 
L 304.475543 256.572014 
L 305.92 256.572014 
L 305.92 253.381687 
L 307.364457 253.381687 
L 307.364457 254.506208 
L 308.808914 254.506208 
L 308.808914 253.009095 
L 310.25337 253.009095 
L 310.25337 252.742329 
L 311.697827 252.742329 
L 311.697827 260.862228 
L 313.142284 260.862228 
L 313.142284 263.47199 
L 314.586741 263.47199 
L 314.586741 266.504201 
L 315.308969 266.504201 
L 315.308969 266.68 
L 315.308969 266.68 
L 314.586741 266.68 
L 314.586741 266.68 
L 313.142284 266.68 
L 313.142284 266.68 
L 311.697827 266.68 
L 311.697827 266.68 
L 310.25337 266.68 
L 310.25337 266.68 
L 308.808914 266.68 
L 308.808914 266.68 
L 307.364457 266.68 
L 307.364457 266.68 
L 305.92 266.68 
L 305.92 266.68 
L 304.475543 266.68 
L 304.475543 266.68 
L 303.031086 266.68 
L 303.031086 266.68 
L 301.58663 266.68 
L 301.58663 266.68 
L 300.142173 266.68 
L 300.142173 266.68 
L 299.419944 266.68 
z
" clip-path="url(#p7a9928c981)" style="fill: #17becf; fill-opacity: 0.6; stroke: #1f77b4; stroke-opacity: 0.8; stroke-width: 1.5"/>
    <path d="M 318.197883 266.68 
L 318.197883 265.699888 
L 318.920111 265.699888 
L 318.920111 258.826651 
L 320.364568 258.826651 
L 320.364568 259.706135 
L 321.809025 259.706135 
L 321.809025 262.285908 
L 323.253482 262.285908 
L 323.253482 264.164768 
L 324.697939 264.164768 
L 324.697939 262.324822 
L 325.420167 262.324822 
L 325.420167 266.68 
L 325.420167 266.68 
L 324.697939 266.68 
L 324.697939 266.68 
L 323.253482 266.68 
L 323.253482 266.68 
L 321.809025 266.68 
L 321.809025 266.68 
L 320.364568 266.68 
L 320.364568 266.68 
L 318.920111 266.68 
L 318.920111 266.68 
L 318.197883 266.68 
z
" clip-path="url(#p7a9928c981)" style="fill: #17becf; fill-opacity: 0.6; stroke: #1f77b4; stroke-opacity: 0.8; stroke-width: 1.5"/>
    <path d="M 335.531365 266.68 
L 335.531365 264.559172 
L 336.253593 264.559172 
L 336.253593 261.35333 
L 337.69805 261.35333 
L 337.69805 264.405644 
L 339.142507 264.405644 
L 339.142507 263.93244 
L 340.586964 263.93244 
L 340.586964 262.1403 
L 342.031421 262.1403 
L 342.031421 259.425222 
L 343.475877 259.425222 
L 343.475877 259.73937 
L 344.920334 259.73937 
L 344.920334 264.860086 
L 346.364791 264.860086 
L 346.364791 262.475317 
L 347.809248 262.475317 
L 347.809248 265.85462 
L 348.531476 265.85462 
L 348.531476 266.68 
L 348.531476 266.68 
L 347.809248 266.68 
L 347.809248 266.68 
L 346.364791 266.68 
L 346.364791 266.68 
L 344.920334 266.68 
L 344.920334 266.68 
L 343.475877 266.68 
L 343.475877 266.68 
L 342.031421 266.68 
L 342.031421 266.68 
L 340.586964 266.68 
L 340.586964 266.68 
L 339.142507 266.68 
L 339.142507 266.68 
L 337.69805 266.68 
L 337.69805 266.68 
L 336.253593 266.68 
L 336.253593 266.68 
L 335.531365 266.68 
z
" clip-path="url(#p7a9928c981)" style="fill: #17becf; fill-opacity: 0.6; stroke: #1f77b4; stroke-opacity: 0.8; stroke-width: 1.5"/>
    <path d="M 399.087465 266.68 
L 399.087465 265.702421 
L 399.809694 265.702421 
L 399.809694 259.741459 
L 401.25415 259.741459 
L 401.25415 260.038439 
L 402.698607 260.038439 
L 402.698607 262.789176 
L 403.420836 262.789176 
L 403.420836 266.68 
L 403.420836 266.68 
L 402.698607 266.68 
L 402.698607 266.68 
L 401.25415 266.68 
L 401.25415 266.68 
L 399.809694 266.68 
L 399.809694 266.68 
L 399.087465 266.68 
z
" clip-path="url(#p7a9928c981)" style="fill: #17becf; fill-opacity: 0.6; stroke: #1f77b4; stroke-opacity: 0.8; stroke-width: 1.5"/>
    <path d="M 413.532033 266.68 
L 413.532033 266.654637 
L 413.532033 266.654637 
L 413.532033 266.68 
L 413.532033 266.68 
L 413.532033 266.68 
z
" clip-path="url(#p7a9928c981)" style="fill: #17becf; fill-opacity: 0.6; stroke: #1f77b4; stroke-opacity: 0.8; stroke-width: 1.5"/>
    <path d="M 504.532813 266.68 
L 504.532813 264.914874 
L 505.255042 264.914874 
L 505.255042 263.360348 
L 505.97727 263.360348 
L 505.97727 266.68 
L 505.97727 266.68 
L 505.255042 266.68 
L 505.255042 266.68 
L 504.532813 266.68 
z
" clip-path="url(#p7a9928c981)" style="fill: #17becf; fill-opacity: 0.6; stroke: #1f77b4; stroke-opacity: 0.8; stroke-width: 1.5"/>
    <path d="M 508.866184 266.68 
L 508.866184 261.73386 
L 509.588412 261.73386 
L 509.588412 264.846584 
L 511.032869 264.846584 
L 511.032869 261.712305 
L 512.477326 261.712305 
L 512.477326 256.92319 
L 513.921783 256.92319 
L 513.921783 256.458133 
L 515.36624 256.458133 
L 515.36624 257.98941 
L 516.810696 257.98941 
L 516.810696 255.310087 
L 518.255153 255.310087 
L 518.255153 248.961344 
L 519.69961 248.961344 
L 519.69961 251.861532 
L 521.144067 251.861532 
L 521.144067 247.548926 
L 522.588524 247.548926 
L 522.588524 257.054714 
L 524.032981 257.054714 
L 524.032981 256.403269 
L 525.477437 256.403269 
L 525.477437 253.846136 
L 526.921894 253.846136 
L 526.921894 255.043659 
L 528.366351 255.043659 
L 528.366351 254.030746 
L 529.810808 254.030746 
L 529.810808 253.485462 
L 531.255265 253.485462 
L 531.255265 249.785514 
L 532.699721 249.785514 
L 532.699721 240.656857 
L 534.144178 240.656857 
L 534.144178 239.128066 
L 535.588635 239.128066 
L 535.588635 239.612844 
L 537.033092 239.612844 
L 537.033092 236.27703 
L 538.477549 236.27703 
L 538.477549 240.209343 
L 539.922006 240.209343 
L 539.922006 237.681016 
L 541.366462 237.681016 
L 541.366462 237.337723 
L 542.810919 237.337723 
L 542.810919 234.388023 
L 544.255376 234.388023 
L 544.255376 234.842169 
L 545.699833 234.842169 
L 545.699833 235.582114 
L 547.14429 235.582114 
L 547.14429 235.820238 
L 548.588747 235.820238 
L 548.588747 234.499967 
L 550.033203 234.499967 
L 550.033203 233.930342 
L 551.47766 233.930342 
L 551.47766 232.594582 
L 552.922117 232.594582 
L 552.922117 235.21489 
L 554.366574 235.21489 
L 554.366574 233.8128 
L 555.811031 233.8128 
L 555.811031 232.429157 
L 557.255487 232.429157 
L 557.255487 232.665663 
L 558.699944 232.665663 
L 558.699944 236.324754 
L 560.144401 236.324754 
L 560.144401 240.662975 
L 561.588858 240.662975 
L 561.588858 240.809993 
L 563.033315 240.809993 
L 563.033315 243.011588 
L 564.477772 243.011588 
L 564.477772 243.990512 
L 565.2 243.990512 
L 565.2 266.68 
L 565.2 266.68 
L 564.477772 266.68 
L 564.477772 266.68 
L 563.033315 266.68 
L 563.033315 266.68 
L 561.588858 266.68 
L 561.588858 266.68 
L 560.144401 266.68 
L 560.144401 266.68 
L 558.699944 266.68 
L 558.699944 266.68 
L 557.255487 266.68 
L 557.255487 266.68 
L 555.811031 266.68 
L 555.811031 266.68 
L 554.366574 266.68 
L 554.366574 266.68 
L 552.922117 266.68 
L 552.922117 266.68 
L 551.47766 266.68 
L 551.47766 266.68 
L 550.033203 266.68 
L 550.033203 266.68 
L 548.588747 266.68 
L 548.588747 266.68 
L 547.14429 266.68 
L 547.14429 266.68 
L 545.699833 266.68 
L 545.699833 266.68 
L 544.255376 266.68 
L 544.255376 266.68 
L 542.810919 266.68 
L 542.810919 266.68 
L 541.366462 266.68 
L 541.366462 266.68 
L 539.922006 266.68 
L 539.922006 266.68 
L 538.477549 266.68 
L 538.477549 266.68 
L 537.033092 266.68 
L 537.033092 266.68 
L 535.588635 266.68 
L 535.588635 266.68 
L 534.144178 266.68 
L 534.144178 266.68 
L 532.699721 266.68 
L 532.699721 266.68 
L 531.255265 266.68 
L 531.255265 266.68 
L 529.810808 266.68 
L 529.810808 266.68 
L 528.366351 266.68 
L 528.366351 266.68 
L 526.921894 266.68 
L 526.921894 266.68 
L 525.477437 266.68 
L 525.477437 266.68 
L 524.032981 266.68 
L 524.032981 266.68 
L 522.588524 266.68 
L 522.588524 266.68 
L 521.144067 266.68 
L 521.144067 266.68 
L 519.69961 266.68 
L 519.69961 266.68 
L 518.255153 266.68 
L 518.255153 266.68 
L 516.810696 266.68 
L 516.810696 266.68 
L 515.36624 266.68 
L 515.36624 266.68 
L 513.921783 266.68 
L 513.921783 266.68 
L 512.477326 266.68 
L 512.477326 266.68 
L 511.032869 266.68 
L 511.032869 266.68 
L 509.588412 266.68 
L 509.588412 266.68 
L 508.866184 266.68 
z
" clip-path="url(#p7a9928c981)" style="fill: #17becf; fill-opacity: 0.6; stroke: #1f77b4; stroke-opacity: 0.8; stroke-width: 1.5"/>
   </g>
   <g id="PolyCollection_4">
    <path d="M 46.64 266.68 
L 46.64 302.129596 
L 47.362228 302.129596 
L 47.362228 303.601428 
L 48.806685 303.601428 
L 48.806685 286.386274 
L 50.251142 286.386274 
L 50.251142 286.697687 
L 51.695599 286.697687 
L 51.695599 273.421689 
L 53.140056 273.421689 
L 53.140056 290.829041 
L 54.584513 290.829041 
L 54.584513 302.916587 
L 56.028969 302.916587 
L 56.028969 306.533217 
L 57.473426 306.533217 
L 57.473426 294.001639 
L 58.917883 294.001639 
L 58.917883 296.227828 
L 60.36234 296.227828 
L 60.36234 293.397539 
L 61.806797 293.397539 
L 61.806797 295.708728 
L 63.251253 295.708728 
L 63.251253 293.344899 
L 64.69571 293.344899 
L 64.69571 298.019005 
L 66.140167 298.019005 
L 66.140167 297.8582 
L 67.584624 297.8582 
L 67.584624 297.462732 
L 69.029081 297.462732 
L 69.029081 290.888566 
L 70.473538 290.888566 
L 70.473538 277.366001 
L 71.195766 277.366001 
L 71.195766 266.68 
L 71.195766 266.68 
L 70.473538 266.68 
L 70.473538 266.68 
L 69.029081 266.68 
L 69.029081 266.68 
L 67.584624 266.68 
L 67.584624 266.68 
L 66.140167 266.68 
L 66.140167 266.68 
L 64.69571 266.68 
L 64.69571 266.68 
L 63.251253 266.68 
L 63.251253 266.68 
L 61.806797 266.68 
L 61.806797 266.68 
L 60.36234 266.68 
L 60.36234 266.68 
L 58.917883 266.68 
L 58.917883 266.68 
L 57.473426 266.68 
L 57.473426 266.68 
L 56.028969 266.68 
L 56.028969 266.68 
L 54.584513 266.68 
L 54.584513 266.68 
L 53.140056 266.68 
L 53.140056 266.68 
L 51.695599 266.68 
L 51.695599 266.68 
L 50.251142 266.68 
L 50.251142 266.68 
L 48.806685 266.68 
L 48.806685 266.68 
L 47.362228 266.68 
L 47.362228 266.68 
L 46.64 266.68 
z
" clip-path="url(#p7a9928c981)" style="fill: #d62728; fill-opacity: 0.6; stroke: #b22222; stroke-opacity: 0.8; stroke-width: 1.5"/>
    <path d="M 74.08468 266.68 
L 74.08468 268.442131 
L 74.08468 268.442131 
L 74.08468 266.68 
L 74.08468 266.68 
L 74.08468 266.68 
z
" clip-path="url(#p7a9928c981)" style="fill: #d62728; fill-opacity: 0.6; stroke: #b22222; stroke-opacity: 0.8; stroke-width: 1.5"/>
    <path d="M 84.195877 266.68 
L 84.195877 267.525403 
L 84.195877 267.525403 
L 84.195877 266.68 
L 84.195877 266.68 
L 84.195877 266.68 
z
" clip-path="url(#p7a9928c981)" style="fill: #d62728; fill-opacity: 0.6; stroke: #b22222; stroke-opacity: 0.8; stroke-width: 1.5"/>
    <path d="M 227.197103 266.68 
L 227.197103 268.702993 
L 227.919331 268.702993 
L 227.919331 271.175642 
L 229.363788 271.175642 
L 229.363788 279.811447 
L 230.808245 279.811447 
L 230.808245 284.069397 
L 232.252702 284.069397 
L 232.252702 284.768647 
L 233.697159 284.768647 
L 233.697159 288.228556 
L 235.141616 288.228556 
L 235.141616 292.117793 
L 236.586072 292.117793 
L 236.586072 289.287485 
L 238.030529 289.287485 
L 238.030529 294.357442 
L 239.474986 294.357442 
L 239.474986 294.826007 
L 240.919443 294.826007 
L 240.919443 293.091487 
L 242.3639 293.091487 
L 242.3639 310.316735 
L 243.808357 310.316735 
L 243.808357 303.725682 
L 245.252813 303.725682 
L 245.252813 302.441012 
L 246.69727 302.441012 
L 246.69727 303.835463 
L 248.141727 303.835463 
L 248.141727 303.187024 
L 249.586184 303.187024 
L 249.586184 305.285897 
L 251.030641 305.285897 
L 251.030641 309.004464 
L 252.475097 309.004464 
L 252.475097 311.979744 
L 253.919554 311.979744 
L 253.919554 311.527544 
L 255.364011 311.527544 
L 255.364011 301.307467 
L 256.808468 301.307467 
L 256.808468 297.749947 
L 258.252925 297.749947 
L 258.252925 294.12813 
L 259.697382 294.12813 
L 259.697382 296.131718 
L 261.141838 296.131718 
L 261.141838 293.156521 
L 262.586295 293.156521 
L 262.586295 302.699262 
L 264.030752 302.699262 
L 264.030752 307.112481 
L 265.475209 307.112481 
L 265.475209 306.645593 
L 266.919666 306.645593 
L 266.919666 304.098067 
L 268.364123 304.098067 
L 268.364123 306.557991 
L 269.808579 306.557991 
L 269.808579 305.173561 
L 271.253036 305.173561 
L 271.253036 303.969492 
L 272.697493 303.969492 
L 272.697493 302.740299 
L 274.14195 302.740299 
L 274.14195 301.175845 
L 275.586407 301.175845 
L 275.586407 304.439153 
L 277.030864 304.439153 
L 277.030864 297.094961 
L 278.47532 297.094961 
L 278.47532 293.480399 
L 279.919777 293.480399 
L 279.919777 286.481994 
L 281.364234 286.481994 
L 281.364234 281.702118 
L 282.808691 281.702118 
L 282.808691 285.338614 
L 284.253148 285.338614 
L 284.253148 284.277653 
L 285.697604 284.277653 
L 285.697604 285.876689 
L 287.142061 285.876689 
L 287.142061 288.147789 
L 288.586518 288.147789 
L 288.586518 285.270084 
L 290.030975 285.270084 
L 290.030975 285.695489 
L 291.475432 285.695489 
L 291.475432 283.5708 
L 292.919889 283.5708 
L 292.919889 272.482044 
L 294.364345 272.482044 
L 294.364345 276.651352 
L 295.808802 276.651352 
L 295.808802 270.839472 
L 297.253259 270.839472 
L 297.253259 268.370088 
L 297.975487 268.370088 
L 297.975487 266.68 
L 297.975487 266.68 
L 297.253259 266.68 
L 297.253259 266.68 
L 295.808802 266.68 
L 295.808802 266.68 
L 294.364345 266.68 
L 294.364345 266.68 
L 292.919889 266.68 
L 292.919889 266.68 
L 291.475432 266.68 
L 291.475432 266.68 
L 290.030975 266.68 
L 290.030975 266.68 
L 288.586518 266.68 
L 288.586518 266.68 
L 287.142061 266.68 
L 287.142061 266.68 
L 285.697604 266.68 
L 285.697604 266.68 
L 284.253148 266.68 
L 284.253148 266.68 
L 282.808691 266.68 
L 282.808691 266.68 
L 281.364234 266.68 
L 281.364234 266.68 
L 279.919777 266.68 
L 279.919777 266.68 
L 278.47532 266.68 
L 278.47532 266.68 
L 277.030864 266.68 
L 277.030864 266.68 
L 275.586407 266.68 
L 275.586407 266.68 
L 274.14195 266.68 
L 274.14195 266.68 
L 272.697493 266.68 
L 272.697493 266.68 
L 271.253036 266.68 
L 271.253036 266.68 
L 269.808579 266.68 
L 269.808579 266.68 
L 268.364123 266.68 
L 268.364123 266.68 
L 266.919666 266.68 
L 266.919666 266.68 
L 265.475209 266.68 
L 265.475209 266.68 
L 264.030752 266.68 
L 264.030752 266.68 
L 262.586295 266.68 
L 262.586295 266.68 
L 261.141838 266.68 
L 261.141838 266.68 
L 259.697382 266.68 
L 259.697382 266.68 
L 258.252925 266.68 
L 258.252925 266.68 
L 256.808468 266.68 
L 256.808468 266.68 
L 255.364011 266.68 
L 255.364011 266.68 
L 253.919554 266.68 
L 253.919554 266.68 
L 252.475097 266.68 
L 252.475097 266.68 
L 251.030641 266.68 
L 251.030641 266.68 
L 249.586184 266.68 
L 249.586184 266.68 
L 248.141727 266.68 
L 248.141727 266.68 
L 246.69727 266.68 
L 246.69727 266.68 
L 245.252813 266.68 
L 245.252813 266.68 
L 243.808357 266.68 
L 243.808357 266.68 
L 242.3639 266.68 
L 242.3639 266.68 
L 240.919443 266.68 
L 240.919443 266.68 
L 239.474986 266.68 
L 239.474986 266.68 
L 238.030529 266.68 
L 238.030529 266.68 
L 236.586072 266.68 
L 236.586072 266.68 
L 235.141616 266.68 
L 235.141616 266.68 
L 233.697159 266.68 
L 233.697159 266.68 
L 232.252702 266.68 
L 232.252702 266.68 
L 230.808245 266.68 
L 230.808245 266.68 
L 229.363788 266.68 
L 229.363788 266.68 
L 227.919331 266.68 
L 227.919331 266.68 
L 227.197103 266.68 
z
" clip-path="url(#p7a9928c981)" style="fill: #d62728; fill-opacity: 0.6; stroke: #b22222; stroke-opacity: 0.8; stroke-width: 1.5"/>
    <path d="M 316.753426 266.68 
L 316.753426 269.917567 
L 316.753426 269.917567 
L 316.753426 266.68 
L 316.753426 266.68 
L 316.753426 266.68 
z
" clip-path="url(#p7a9928c981)" style="fill: #d62728; fill-opacity: 0.6; stroke: #b22222; stroke-opacity: 0.8; stroke-width: 1.5"/>
    <path d="M 326.864624 266.68 
L 326.864624 271.417403 
L 327.586852 271.417403 
L 327.586852 271.618671 
L 329.031309 271.618671 
L 329.031309 267.438272 
L 330.475766 267.438272 
L 330.475766 269.797633 
L 331.920223 269.797633 
L 331.920223 271.839919 
L 333.36468 271.839919 
L 333.36468 270.245427 
L 334.086908 270.245427 
L 334.086908 266.68 
L 334.086908 266.68 
L 333.36468 266.68 
L 333.36468 266.68 
L 331.920223 266.68 
L 331.920223 266.68 
L 330.475766 266.68 
L 330.475766 266.68 
L 329.031309 266.68 
L 329.031309 266.68 
L 327.586852 266.68 
L 327.586852 266.68 
L 326.864624 266.68 
z
" clip-path="url(#p7a9928c981)" style="fill: #d62728; fill-opacity: 0.6; stroke: #b22222; stroke-opacity: 0.8; stroke-width: 1.5"/>
    <path d="M 349.975933 266.68 
L 349.975933 273.008735 
L 350.698162 273.008735 
L 350.698162 280.933674 
L 352.142618 280.933674 
L 352.142618 284.494754 
L 353.587075 284.494754 
L 353.587075 286.334945 
L 355.031532 286.334945 
L 355.031532 284.862136 
L 356.475989 284.862136 
L 356.475989 283.403803 
L 357.920446 283.403803 
L 357.920446 280.14175 
L 359.364903 280.14175 
L 359.364903 282.909969 
L 360.809359 282.909969 
L 360.809359 275.747139 
L 362.253816 275.747139 
L 362.253816 273.282629 
L 363.698273 273.282629 
L 363.698273 292.647363 
L 365.14273 292.647363 
L 365.14273 286.345655 
L 366.587187 286.345655 
L 366.587187 285.629908 
L 368.031643 285.629908 
L 368.031643 283.422297 
L 369.4761 283.422297 
L 369.4761 296.877939 
L 370.920557 296.877939 
L 370.920557 292.965937 
L 372.365014 292.965937 
L 372.365014 296.15432 
L 373.809471 296.15432 
L 373.809471 297.360403 
L 375.253928 297.360403 
L 375.253928 294.109733 
L 376.698384 294.109733 
L 376.698384 295.516019 
L 378.142841 295.516019 
L 378.142841 301.904773 
L 379.587298 301.904773 
L 379.587298 296.636543 
L 381.031755 296.636543 
L 381.031755 293.202665 
L 382.476212 293.202665 
L 382.476212 285.856309 
L 383.920669 285.856309 
L 383.920669 284.92577 
L 385.365125 284.92577 
L 385.365125 285.077925 
L 386.809582 285.077925 
L 386.809582 297.793091 
L 388.254039 297.793091 
L 388.254039 298.575686 
L 389.698496 298.575686 
L 389.698496 292.900015 
L 391.142953 292.900015 
L 391.142953 292.200391 
L 392.587409 292.200391 
L 392.587409 293.058653 
L 394.031866 293.058653 
L 394.031866 286.910182 
L 395.476323 286.910182 
L 395.476323 284.016657 
L 396.92078 284.016657 
L 396.92078 280.190992 
L 397.643008 280.190992 
L 397.643008 266.68 
L 397.643008 266.68 
L 396.92078 266.68 
L 396.92078 266.68 
L 395.476323 266.68 
L 395.476323 266.68 
L 394.031866 266.68 
L 394.031866 266.68 
L 392.587409 266.68 
L 392.587409 266.68 
L 391.142953 266.68 
L 391.142953 266.68 
L 389.698496 266.68 
L 389.698496 266.68 
L 388.254039 266.68 
L 388.254039 266.68 
L 386.809582 266.68 
L 386.809582 266.68 
L 385.365125 266.68 
L 385.365125 266.68 
L 383.920669 266.68 
L 383.920669 266.68 
L 382.476212 266.68 
L 382.476212 266.68 
L 381.031755 266.68 
L 381.031755 266.68 
L 379.587298 266.68 
L 379.587298 266.68 
L 378.142841 266.68 
L 378.142841 266.68 
L 376.698384 266.68 
L 376.698384 266.68 
L 375.253928 266.68 
L 375.253928 266.68 
L 373.809471 266.68 
L 373.809471 266.68 
L 372.365014 266.68 
L 372.365014 266.68 
L 370.920557 266.68 
L 370.920557 266.68 
L 369.4761 266.68 
L 369.4761 266.68 
L 368.031643 266.68 
L 368.031643 266.68 
L 366.587187 266.68 
L 366.587187 266.68 
L 365.14273 266.68 
L 365.14273 266.68 
L 363.698273 266.68 
L 363.698273 266.68 
L 362.253816 266.68 
L 362.253816 266.68 
L 360.809359 266.68 
L 360.809359 266.68 
L 359.364903 266.68 
L 359.364903 266.68 
L 357.920446 266.68 
L 357.920446 266.68 
L 356.475989 266.68 
L 356.475989 266.68 
L 355.031532 266.68 
L 355.031532 266.68 
L 353.587075 266.68 
L 353.587075 266.68 
L 352.142618 266.68 
L 352.142618 266.68 
L 350.698162 266.68 
L 350.698162 266.68 
L 349.975933 266.68 
z
" clip-path="url(#p7a9928c981)" style="fill: #d62728; fill-opacity: 0.6; stroke: #b22222; stroke-opacity: 0.8; stroke-width: 1.5"/>
    <path d="M 404.865292 266.68 
L 404.865292 271.826902 
L 405.587521 271.826902 
L 405.587521 271.337101 
L 407.031978 271.337101 
L 407.031978 271.032517 
L 408.476435 271.032517 
L 408.476435 270.89561 
L 409.920891 270.89561 
L 409.920891 267.93922 
L 411.365348 267.93922 
L 411.365348 266.789797 
L 412.087577 266.789797 
L 412.087577 266.68 
L 412.087577 266.68 
L 411.365348 266.68 
L 411.365348 266.68 
L 409.920891 266.68 
L 409.920891 266.68 
L 408.476435 266.68 
L 408.476435 266.68 
L 407.031978 266.68 
L 407.031978 266.68 
L 405.587521 266.68 
L 405.587521 266.68 
L 404.865292 266.68 
z
" clip-path="url(#p7a9928c981)" style="fill: #d62728; fill-opacity: 0.6; stroke: #b22222; stroke-opacity: 0.8; stroke-width: 1.5"/>
    <path d="M 414.97649 266.68 
L 414.97649 270.883226 
L 415.698719 270.883226 
L 415.698719 271.69925 
L 417.143175 271.69925 
L 417.143175 277.125305 
L 418.587632 277.125305 
L 418.587632 275.169557 
L 420.032089 275.169557 
L 420.032089 281.491807 
L 421.476546 281.491807 
L 421.476546 286.64251 
L 422.921003 286.64251 
L 422.921003 290.117282 
L 424.36546 290.117282 
L 424.36546 293.92809 
L 425.809916 293.92809 
L 425.809916 293.015178 
L 427.254373 293.015178 
L 427.254373 288.832309 
L 428.69883 288.832309 
L 428.69883 297.19469 
L 430.143287 297.19469 
L 430.143287 302.203436 
L 431.587744 302.203436 
L 431.587744 293.606521 
L 433.032201 293.606521 
L 433.032201 295.633957 
L 434.476657 295.633957 
L 434.476657 303.464746 
L 435.921114 303.464746 
L 435.921114 311.404724 
L 437.365571 311.404724 
L 437.365571 315.548667 
L 438.810028 315.548667 
L 438.810028 319.146271 
L 440.254485 319.146271 
L 440.254485 311.625741 
L 441.698942 311.625741 
L 441.698942 312.89558 
L 443.143398 312.89558 
L 443.143398 312.939421 
L 444.587855 312.939421 
L 444.587855 316.659587 
L 446.032312 316.659587 
L 446.032312 304.004601 
L 447.476769 304.004601 
L 447.476769 293.19999 
L 448.921226 293.19999 
L 448.921226 295.467873 
L 450.365682 295.467873 
L 450.365682 305.592813 
L 451.810139 305.592813 
L 451.810139 298.219652 
L 453.254596 298.219652 
L 453.254596 302.173886 
L 454.699053 302.173886 
L 454.699053 290.402839 
L 456.14351 290.402839 
L 456.14351 283.904885 
L 457.587967 283.904885 
L 457.587967 294.818062 
L 459.032423 294.818062 
L 459.032423 292.525975 
L 460.47688 292.525975 
L 460.47688 292.587323 
L 461.921337 292.587323 
L 461.921337 292.873719 
L 463.365794 292.873719 
L 463.365794 298.096784 
L 464.810251 298.096784 
L 464.810251 312.55157 
L 466.254708 312.55157 
L 466.254708 324.551119 
L 467.699164 324.551119 
L 467.699164 324.562622 
L 469.143621 324.562622 
L 469.143621 325.114564 
L 470.588078 325.114564 
L 470.588078 315.458745 
L 472.032535 315.458745 
L 472.032535 318.775134 
L 473.476992 318.775134 
L 473.476992 321.364543 
L 474.921448 321.364543 
L 474.921448 315.639503 
L 476.365905 315.639503 
L 476.365905 313.38973 
L 477.810362 313.38973 
L 477.810362 310.193802 
L 479.254819 310.193802 
L 479.254819 313.698309 
L 480.699276 313.698309 
L 480.699276 321.293991 
L 482.143733 321.293991 
L 482.143733 315.599098 
L 483.588189 315.599098 
L 483.588189 313.771739 
L 485.032646 313.771739 
L 485.032646 302.721801 
L 486.477103 302.721801 
L 486.477103 308.568403 
L 487.92156 308.568403 
L 487.92156 301.992435 
L 489.366017 301.992435 
L 489.366017 300.363395 
L 490.810474 300.363395 
L 490.810474 289.326432 
L 492.25493 289.326432 
L 492.25493 279.151661 
L 493.699387 279.151661 
L 493.699387 281.268026 
L 495.143844 281.268026 
L 495.143844 278.563978 
L 496.588301 278.563978 
L 496.588301 274.973052 
L 498.032758 274.973052 
L 498.032758 274.368619 
L 499.477214 274.368619 
L 499.477214 273.127586 
L 500.921671 273.127586 
L 500.921671 269.556506 
L 502.366128 269.556506 
L 502.366128 268.111264 
L 503.088357 268.111264 
L 503.088357 266.68 
L 503.088357 266.68 
L 502.366128 266.68 
L 502.366128 266.68 
L 500.921671 266.68 
L 500.921671 266.68 
L 499.477214 266.68 
L 499.477214 266.68 
L 498.032758 266.68 
L 498.032758 266.68 
L 496.588301 266.68 
L 496.588301 266.68 
L 495.143844 266.68 
L 495.143844 266.68 
L 493.699387 266.68 
L 493.699387 266.68 
L 492.25493 266.68 
L 492.25493 266.68 
L 490.810474 266.68 
L 490.810474 266.68 
L 489.366017 266.68 
L 489.366017 266.68 
L 487.92156 266.68 
L 487.92156 266.68 
L 486.477103 266.68 
L 486.477103 266.68 
L 485.032646 266.68 
L 485.032646 266.68 
L 483.588189 266.68 
L 483.588189 266.68 
L 482.143733 266.68 
L 482.143733 266.68 
L 480.699276 266.68 
L 480.699276 266.68 
L 479.254819 266.68 
L 479.254819 266.68 
L 477.810362 266.68 
L 477.810362 266.68 
L 476.365905 266.68 
L 476.365905 266.68 
L 474.921448 266.68 
L 474.921448 266.68 
L 473.476992 266.68 
L 473.476992 266.68 
L 472.032535 266.68 
L 472.032535 266.68 
L 470.588078 266.68 
L 470.588078 266.68 
L 469.143621 266.68 
L 469.143621 266.68 
L 467.699164 266.68 
L 467.699164 266.68 
L 466.254708 266.68 
L 466.254708 266.68 
L 464.810251 266.68 
L 464.810251 266.68 
L 463.365794 266.68 
L 463.365794 266.68 
L 461.921337 266.68 
L 461.921337 266.68 
L 460.47688 266.68 
L 460.47688 266.68 
L 459.032423 266.68 
L 459.032423 266.68 
L 457.587967 266.68 
L 457.587967 266.68 
L 456.14351 266.68 
L 456.14351 266.68 
L 454.699053 266.68 
L 454.699053 266.68 
L 453.254596 266.68 
L 453.254596 266.68 
L 451.810139 266.68 
L 451.810139 266.68 
L 450.365682 266.68 
L 450.365682 266.68 
L 448.921226 266.68 
L 448.921226 266.68 
L 447.476769 266.68 
L 447.476769 266.68 
L 446.032312 266.68 
L 446.032312 266.68 
L 444.587855 266.68 
L 444.587855 266.68 
L 443.143398 266.68 
L 443.143398 266.68 
L 441.698942 266.68 
L 441.698942 266.68 
L 440.254485 266.68 
L 440.254485 266.68 
L 438.810028 266.68 
L 438.810028 266.68 
L 437.365571 266.68 
L 437.365571 266.68 
L 435.921114 266.68 
L 435.921114 266.68 
L 434.476657 266.68 
L 434.476657 266.68 
L 433.032201 266.68 
L 433.032201 266.68 
L 431.587744 266.68 
L 431.587744 266.68 
L 430.143287 266.68 
L 430.143287 266.68 
L 428.69883 266.68 
L 428.69883 266.68 
L 427.254373 266.68 
L 427.254373 266.68 
L 425.809916 266.68 
L 425.809916 266.68 
L 424.36546 266.68 
L 424.36546 266.68 
L 422.921003 266.68 
L 422.921003 266.68 
L 421.476546 266.68 
L 421.476546 266.68 
L 420.032089 266.68 
L 420.032089 266.68 
L 418.587632 266.68 
L 418.587632 266.68 
L 417.143175 266.68 
L 417.143175 266.68 
L 415.698719 266.68 
L 415.698719 266.68 
L 414.97649 266.68 
z
" clip-path="url(#p7a9928c981)" style="fill: #d62728; fill-opacity: 0.6; stroke: #b22222; stroke-opacity: 0.8; stroke-width: 1.5"/>
    <path d="M 507.421727 266.68 
L 507.421727 268.666468 
L 507.421727 268.666468 
L 507.421727 266.68 
L 507.421727 266.68 
L 507.421727 266.68 
z
" clip-path="url(#p7a9928c981)" style="fill: #d62728; fill-opacity: 0.6; stroke: #b22222; stroke-opacity: 0.8; stroke-width: 1.5"/>
   </g>
   <g id="matplotlib.axis_3">
    <g id="xtick_7">
     <g id="line2d_15">
      <g>
       <use xlink:href="#m4e62bc419f" x="115.973928" y="332.12" style="stroke: #000000; stroke-width: 0.8"/>
      </g>
     </g>
     <g id="text_15">
      <!-- 1995 -->
      <g transform="translate(103.248928 346.718437) scale(0.1 -0.1)">
       <use xlink:href="#DejaVuSans-31"/>
       <use xlink:href="#DejaVuSans-39" x="63.623047"/>
       <use xlink:href="#DejaVuSans-39" x="127.246094"/>
       <use xlink:href="#DejaVuSans-35" x="190.869141"/>
      </g>
     </g>
    </g>
    <g id="xtick_8">
     <g id="line2d_16">
      <g>
       <use xlink:href="#m4e62bc419f" x="202.641337" y="332.12" style="stroke: #000000; stroke-width: 0.8"/>
      </g>
     </g>
     <g id="text_16">
      <!-- 2000 -->
      <g transform="translate(189.916337 346.718437) scale(0.1 -0.1)">
       <use xlink:href="#DejaVuSans-32"/>
       <use xlink:href="#DejaVuSans-30" x="63.623047"/>
       <use xlink:href="#DejaVuSans-30" x="127.246094"/>
       <use xlink:href="#DejaVuSans-30" x="190.869141"/>
      </g>
     </g>
    </g>
    <g id="xtick_9">
     <g id="line2d_17">
      <g>
       <use xlink:href="#m4e62bc419f" x="289.308747" y="332.12" style="stroke: #000000; stroke-width: 0.8"/>
      </g>
     </g>
     <g id="text_17">
      <!-- 2005 -->
      <g transform="translate(276.583747 346.718437) scale(0.1 -0.1)">
       <use xlink:href="#DejaVuSans-32"/>
       <use xlink:href="#DejaVuSans-30" x="63.623047"/>
       <use xlink:href="#DejaVuSans-30" x="127.246094"/>
       <use xlink:href="#DejaVuSans-35" x="190.869141"/>
      </g>
     </g>
    </g>
    <g id="xtick_10">
     <g id="line2d_18">
      <g>
       <use xlink:href="#m4e62bc419f" x="375.976156" y="332.12" style="stroke: #000000; stroke-width: 0.8"/>
      </g>
     </g>
     <g id="text_18">
      <!-- 2010 -->
      <g transform="translate(363.251156 346.718437) scale(0.1 -0.1)">
       <use xlink:href="#DejaVuSans-32"/>
       <use xlink:href="#DejaVuSans-30" x="63.623047"/>
       <use xlink:href="#DejaVuSans-31" x="127.246094"/>
       <use xlink:href="#DejaVuSans-30" x="190.869141"/>
      </g>
     </g>
    </g>
    <g id="xtick_11">
     <g id="line2d_19">
      <g>
       <use xlink:href="#m4e62bc419f" x="462.643565" y="332.12" style="stroke: #000000; stroke-width: 0.8"/>
      </g>
     </g>
     <g id="text_19">
      <!-- 2015 -->
      <g transform="translate(449.918565 346.718437) scale(0.1 -0.1)">
       <use xlink:href="#DejaVuSans-32"/>
       <use xlink:href="#DejaVuSans-30" x="63.623047"/>
       <use xlink:href="#DejaVuSans-31" x="127.246094"/>
       <use xlink:href="#DejaVuSans-35" x="190.869141"/>
      </g>
     </g>
    </g>
    <g id="xtick_12">
     <g id="line2d_20">
      <g>
       <use xlink:href="#m4e62bc419f" x="549.310975" y="332.12" style="stroke: #000000; stroke-width: 0.8"/>
      </g>
     </g>
     <g id="text_20">
      <!-- 2020 -->
      <g transform="translate(536.585975 346.718437) scale(0.1 -0.1)">
       <use xlink:href="#DejaVuSans-32"/>
       <use xlink:href="#DejaVuSans-30" x="63.623047"/>
       <use xlink:href="#DejaVuSans-32" x="127.246094"/>
       <use xlink:href="#DejaVuSans-30" x="190.869141"/>
      </g>
     </g>
    </g>
   </g>
   <g id="matplotlib.axis_4">
    <g id="ytick_8">
     <g id="line2d_21">
      <g>
       <use xlink:href="#m8a57c1429a" x="46.64" y="332.12" style="stroke: #000000; stroke-width: 0.8"/>
      </g>
     </g>
     <g id="text_21">
      <!-- −3 -->
      <g transform="translate(24.897813 335.919219) scale(0.1 -0.1)">
       <use xlink:href="#DejaVuSans-2212"/>
       <use xlink:href="#DejaVuSans-33" x="83.789062"/>
      </g>
     </g>
    </g>
    <g id="ytick_9">
     <g id="line2d_22">
      <g>
       <use xlink:href="#m8a57c1429a" x="46.64" y="310.306667" style="stroke: #000000; stroke-width: 0.8"/>
      </g>
     </g>
     <g id="text_22">
      <!-- −2 -->
      <g transform="translate(24.897813 314.105885) scale(0.1 -0.1)">
       <use xlink:href="#DejaVuSans-2212"/>
       <use xlink:href="#DejaVuSans-32" x="83.789062"/>
      </g>
     </g>
    </g>
    <g id="ytick_10">
     <g id="line2d_23">
      <g>
       <use xlink:href="#m8a57c1429a" x="46.64" y="288.493333" style="stroke: #000000; stroke-width: 0.8"/>
      </g>
     </g>
     <g id="text_23">
      <!-- −1 -->
      <g transform="translate(24.897813 292.292552) scale(0.1 -0.1)">
       <use xlink:href="#DejaVuSans-2212"/>
       <use xlink:href="#DejaVuSans-31" x="83.789062"/>
      </g>
     </g>
    </g>
    <g id="ytick_11">
     <g id="line2d_24">
      <g>
       <use xlink:href="#m8a57c1429a" x="46.64" y="266.68" style="stroke: #000000; stroke-width: 0.8"/>
      </g>
     </g>
     <g id="text_24">
      <!-- 0 -->
      <g transform="translate(33.2775 270.479219) scale(0.1 -0.1)">
       <use xlink:href="#DejaVuSans-30"/>
      </g>
     </g>
    </g>
    <g id="ytick_12">
     <g id="line2d_25">
      <g>
       <use xlink:href="#m8a57c1429a" x="46.64" y="244.866667" style="stroke: #000000; stroke-width: 0.8"/>
      </g>
     </g>
     <g id="text_25">
      <!-- 1 -->
      <g transform="translate(33.2775 248.665885) scale(0.1 -0.1)">
       <use xlink:href="#DejaVuSans-31"/>
      </g>
     </g>
    </g>
    <g id="ytick_13">
     <g id="line2d_26">
      <g>
       <use xlink:href="#m8a57c1429a" x="46.64" y="223.053333" style="stroke: #000000; stroke-width: 0.8"/>
      </g>
     </g>
     <g id="text_26">
      <!-- 2 -->
      <g transform="translate(33.2775 226.852552) scale(0.1 -0.1)">
       <use xlink:href="#DejaVuSans-32"/>
      </g>
     </g>
    </g>
    <g id="ytick_14">
     <g id="line2d_27">
      <g>
       <use xlink:href="#m8a57c1429a" x="46.64" y="201.24" style="stroke: #000000; stroke-width: 0.8"/>
      </g>
     </g>
     <g id="text_27">
      <!-- 3 -->
      <g transform="translate(33.2775 205.039219) scale(0.1 -0.1)">
       <use xlink:href="#DejaVuSans-33"/>
      </g>
     </g>
    </g>
    <g id="text_28">
     <!-- Gallatin -->
     <g transform="translate(18.818125 285.978438) rotate(-90) scale(0.1 -0.1)">
      <defs>
       <path id="DejaVuSans-47" d="M 3809 666 
L 3809 1919 
L 2778 1919 
L 2778 2438 
L 4434 2438 
L 4434 434 
Q 4069 175 3628 42 
Q 3188 -91 2688 -91 
Q 1594 -91 976 548 
Q 359 1188 359 2328 
Q 359 3472 976 4111 
Q 1594 4750 2688 4750 
Q 3144 4750 3555 4637 
Q 3966 4525 4313 4306 
L 4313 3634 
Q 3963 3931 3569 4081 
Q 3175 4231 2741 4231 
Q 1884 4231 1454 3753 
Q 1025 3275 1025 2328 
Q 1025 1384 1454 906 
Q 1884 428 2741 428 
Q 3075 428 3337 486 
Q 3600 544 3809 666 
z
" transform="scale(0.015625)"/>
       <path id="DejaVuSans-61" d="M 2194 1759 
Q 1497 1759 1228 1600 
Q 959 1441 959 1056 
Q 959 750 1161 570 
Q 1363 391 1709 391 
Q 2188 391 2477 730 
Q 2766 1069 2766 1631 
L 2766 1759 
L 2194 1759 
z
M 3341 1997 
L 3341 0 
L 2766 0 
L 2766 531 
Q 2569 213 2275 61 
Q 1981 -91 1556 -91 
Q 1019 -91 701 211 
Q 384 513 384 1019 
Q 384 1609 779 1909 
Q 1175 2209 1959 2209 
L 2766 2209 
L 2766 2266 
Q 2766 2663 2505 2880 
Q 2244 3097 1772 3097 
Q 1472 3097 1187 3025 
Q 903 2953 641 2809 
L 641 3341 
Q 956 3463 1253 3523 
Q 1550 3584 1831 3584 
Q 2591 3584 2966 3190 
Q 3341 2797 3341 1997 
z
" transform="scale(0.015625)"/>
       <path id="DejaVuSans-6c" d="M 603 4863 
L 1178 4863 
L 1178 0 
L 603 0 
L 603 4863 
z
" transform="scale(0.015625)"/>
       <path id="DejaVuSans-6e" d="M 3513 2113 
L 3513 0 
L 2938 0 
L 2938 2094 
Q 2938 2591 2744 2837 
Q 2550 3084 2163 3084 
Q 1697 3084 1428 2787 
Q 1159 2491 1159 1978 
L 1159 0 
L 581 0 
L 581 3500 
L 1159 3500 
L 1159 2956 
Q 1366 3272 1645 3428 
Q 1925 3584 2291 3584 
Q 2894 3584 3203 3211 
Q 3513 2838 3513 2113 
z
" transform="scale(0.015625)"/>
      </defs>
      <use xlink:href="#DejaVuSans-47"/>
      <use xlink:href="#DejaVuSans-61" x="77.490234"/>
      <use xlink:href="#DejaVuSans-6c" x="138.769531"/>
      <use xlink:href="#DejaVuSans-6c" x="166.552734"/>
      <use xlink:href="#DejaVuSans-61" x="194.335938"/>
      <use xlink:href="#DejaVuSans-74" x="255.615234"/>
      <use xlink:href="#DejaVuSans-69" x="294.824219"/>
      <use xlink:href="#DejaVuSans-6e" x="322.607422"/>
     </g>
    </g>
   </g>
   <g id="line2d_28">
    <path d="M 46.64 266.68 
L 565.2 266.68 
" clip-path="url(#p7a9928c981)" style="fill: none; stroke: #000000; stroke-width: 1.5; stroke-linecap: square"/>
   </g>
   <g id="patch_6">
    <path d="M 46.64 332.12 
L 46.64 201.24 
" style="fill: none; stroke: #000000; stroke-width: 0.8; stroke-linejoin: miter; stroke-linecap: square"/>
   </g>
   <g id="patch_7">
    <path d="M 46.64 332.12 
L 565.2 332.12 
" style="fill: none; stroke: #000000; stroke-width: 0.8; stroke-linejoin: miter; stroke-linecap: square"/>
   </g>
  </g>
  <g id="text_29">
   <!-- SPEI-47 -->
   <g transform="translate(262.110937 16.318125) scale(0.12 -0.12)">
    <defs>
     <path id="DejaVuSans-Bold-53" d="M 3834 4519 
L 3834 3531 
Q 3450 3703 3084 3790 
Q 2719 3878 2394 3878 
Q 1963 3878 1756 3759 
Q 1550 3641 1550 3391 
Q 1550 3203 1689 3098 
Q 1828 2994 2194 2919 
L 2706 2816 
Q 3484 2659 3812 2340 
Q 4141 2022 4141 1434 
Q 4141 663 3683 286 
Q 3225 -91 2284 -91 
Q 1841 -91 1394 -6 
Q 947 78 500 244 
L 500 1259 
Q 947 1022 1364 901 
Q 1781 781 2169 781 
Q 2563 781 2772 912 
Q 2981 1044 2981 1288 
Q 2981 1506 2839 1625 
Q 2697 1744 2272 1838 
L 1806 1941 
Q 1106 2091 782 2419 
Q 459 2747 459 3303 
Q 459 4000 909 4375 
Q 1359 4750 2203 4750 
Q 2588 4750 2994 4692 
Q 3400 4634 3834 4519 
z
" transform="scale(0.015625)"/>
     <path id="DejaVuSans-Bold-50" d="M 588 4666 
L 2584 4666 
Q 3475 4666 3951 4270 
Q 4428 3875 4428 3144 
Q 4428 2409 3951 2014 
Q 3475 1619 2584 1619 
L 1791 1619 
L 1791 0 
L 588 0 
L 588 4666 
z
M 1791 3794 
L 1791 2491 
L 2456 2491 
Q 2806 2491 2997 2661 
Q 3188 2831 3188 3144 
Q 3188 3456 2997 3625 
Q 2806 3794 2456 3794 
L 1791 3794 
z
" transform="scale(0.015625)"/>
     <path id="DejaVuSans-Bold-45" d="M 588 4666 
L 3834 4666 
L 3834 3756 
L 1791 3756 
L 1791 2888 
L 3713 2888 
L 3713 1978 
L 1791 1978 
L 1791 909 
L 3903 909 
L 3903 0 
L 588 0 
L 588 4666 
z
" transform="scale(0.015625)"/>
     <path id="DejaVuSans-Bold-49" d="M 588 4666 
L 1791 4666 
L 1791 0 
L 588 0 
L 588 4666 
z
" transform="scale(0.015625)"/>
     <path id="DejaVuSans-Bold-2d" d="M 347 2297 
L 2309 2297 
L 2309 1388 
L 347 1388 
L 347 2297 
z
" transform="scale(0.015625)"/>
     <path id="DejaVuSans-Bold-34" d="M 2356 3675 
L 1038 1722 
L 2356 1722 
L 2356 3675 
z
M 2156 4666 
L 3494 4666 
L 3494 1722 
L 4159 1722 
L 4159 850 
L 3494 850 
L 3494 0 
L 2356 0 
L 2356 850 
L 288 850 
L 288 1881 
L 2156 4666 
z
" transform="scale(0.015625)"/>
     <path id="DejaVuSans-Bold-37" d="M 428 4666 
L 3944 4666 
L 3944 3988 
L 2125 0 
L 953 0 
L 2675 3781 
L 428 3781 
L 428 4666 
z
" transform="scale(0.015625)"/>
    </defs>
    <use xlink:href="#DejaVuSans-Bold-53"/>
    <use xlink:href="#DejaVuSans-Bold-50" x="72.021484"/>
    <use xlink:href="#DejaVuSans-Bold-45" x="145.3125"/>
    <use xlink:href="#DejaVuSans-Bold-49" x="213.623047"/>
    <use xlink:href="#DejaVuSans-Bold-2d" x="250.830078"/>
    <use xlink:href="#DejaVuSans-Bold-34" x="292.333984"/>
    <use xlink:href="#DejaVuSans-Bold-37" x="361.914062"/>
   </g>
  </g>
 </g>
 <defs>
  <clipPath id="pa385bdc75e">
   <rect x="46.64" y="38.52" width="518.56" height="130.88"/>
  </clipPath>
  <clipPath id="p7a9928c981">
   <rect x="46.64" y="201.24" width="518.56" height="130.88"/>
  </clipPath>
 </defs>
</svg>
