<?xml version="1.0" encoding="utf-8" standalone="no"?>
<!DOCTYPE svg PUBLIC "-//W3C//DTD SVG 1.1//EN"
  "http://www.w3.org/Graphics/SVG/1.1/DTD/svg11.dtd">
<svg xmlns:xlink="http://www.w3.org/1999/xlink" width="576pt" height="360pt" viewBox="0 0 576 360" xmlns="http://www.w3.org/2000/svg" version="1.1">
 <metadata>
  <rdf:RDF xmlns:dc="http://purl.org/dc/elements/1.1/" xmlns:cc="http://creativecommons.org/ns#" xmlns:rdf="http://www.w3.org/1999/02/22-rdf-syntax-ns#">
   <cc:Work>
    <dc:type rdf:resource="http://purl.org/dc/dcmitype/StillImage"/>
    <dc:date>2024-02-10T08:32:11.754438</dc:date>
    <dc:format>image/svg+xml</dc:format>
    <dc:creator>
     <cc:Agent>
      <dc:title>Matplotlib v3.8.2, https://matplotlib.org/</dc:title>
     </cc:Agent>
    </dc:creator>
   </cc:Work>
  </rdf:RDF>
 </metadata>
 <defs>
  <style type="text/css">*{stroke-linejoin: round; stroke-linecap: butt}</style>
 </defs>
 <g id="figure_1">
  <g id="patch_1">
   <path d="M 0 360 
L 576 360 
L 576 0 
L 0 0 
z
" style="fill: #ffffff"/>
  </g>
  <g id="axes_1">
   <g id="patch_2">
    <path d="M 46.64 169.4 
L 565.2 169.4 
L 565.2 38.52 
L 46.64 38.52 
z
" style="fill: #ffffff"/>
   </g>
   <g id="PolyCollection_1">
    <path d="M 49.528914 103.96 
L 49.528914 103.685839 
L 50.251142 103.685839 
L 50.251142 99.391745 
L 51.695599 99.391745 
L 51.695599 93.860037 
L 53.140056 93.860037 
L 53.140056 98.114827 
L 54.584513 98.114827 
L 54.584513 100.888957 
L 56.028969 100.888957 
L 56.028969 98.483164 
L 57.473426 98.483164 
L 57.473426 93.201698 
L 58.917883 93.201698 
L 58.917883 94.26894 
L 60.36234 94.26894 
L 60.36234 90.233487 
L 61.806797 90.233487 
L 61.806797 88.507144 
L 63.251253 88.507144 
L 63.251253 91.111565 
L 64.69571 91.111565 
L 64.69571 94.144817 
L 66.140167 94.144817 
L 66.140167 101.008786 
L 67.584624 101.008786 
L 67.584624 99.653413 
L 69.029081 99.653413 
L 69.029081 102.802035 
L 70.473538 102.802035 
L 70.473538 103.13164 
L 71.917994 103.13164 
L 71.917994 95.488218 
L 73.362451 95.488218 
L 73.362451 94.765002 
L 74.806908 94.765002 
L 74.806908 89.314189 
L 76.251365 89.314189 
L 76.251365 97.74005 
L 77.695822 97.74005 
L 77.695822 95.922264 
L 79.140279 95.922264 
L 79.140279 94.94273 
L 80.584735 94.94273 
L 80.584735 93.60982 
L 82.029192 93.60982 
L 82.029192 99.255282 
L 83.473649 99.255282 
L 83.473649 98.390692 
L 84.918106 98.390692 
L 84.918106 96.198317 
L 86.362563 96.198317 
L 86.362563 97.451611 
L 87.807019 97.451611 
L 87.807019 92.529821 
L 89.251476 92.529821 
L 89.251476 91.637004 
L 90.695933 91.637004 
L 90.695933 87.171392 
L 92.14039 87.171392 
L 92.14039 85.353653 
L 93.584847 85.353653 
L 93.584847 89.778425 
L 95.029304 89.778425 
L 95.029304 92.573559 
L 96.47376 92.573559 
L 96.47376 96.626418 
L 97.918217 96.626418 
L 97.918217 96.993075 
L 99.362674 96.993075 
L 99.362674 91.932986 
L 100.807131 91.932986 
L 100.807131 96.7148 
L 102.251588 96.7148 
L 102.251588 102.704015 
L 103.696045 102.704015 
L 103.696045 101.053828 
L 105.140501 101.053828 
L 105.140501 103.836197 
L 105.86273 103.836197 
L 105.86273 103.96 
L 105.86273 103.96 
L 105.140501 103.96 
L 105.140501 103.96 
L 103.696045 103.96 
L 103.696045 103.96 
L 102.251588 103.96 
L 102.251588 103.96 
L 100.807131 103.96 
L 100.807131 103.96 
L 99.362674 103.96 
L 99.362674 103.96 
L 97.918217 103.96 
L 97.918217 103.96 
L 96.47376 103.96 
L 96.47376 103.96 
L 95.029304 103.96 
L 95.029304 103.96 
L 93.584847 103.96 
L 93.584847 103.96 
L 92.14039 103.96 
L 92.14039 103.96 
L 90.695933 103.96 
L 90.695933 103.96 
L 89.251476 103.96 
L 89.251476 103.96 
L 87.807019 103.96 
L 87.807019 103.96 
L 86.362563 103.96 
L 86.362563 103.96 
L 84.918106 103.96 
L 84.918106 103.96 
L 83.473649 103.96 
L 83.473649 103.96 
L 82.029192 103.96 
L 82.029192 103.96 
L 80.584735 103.96 
L 80.584735 103.96 
L 79.140279 103.96 
L 79.140279 103.96 
L 77.695822 103.96 
L 77.695822 103.96 
L 76.251365 103.96 
L 76.251365 103.96 
L 74.806908 103.96 
L 74.806908 103.96 
L 73.362451 103.96 
L 73.362451 103.96 
L 71.917994 103.96 
L 71.917994 103.96 
L 70.473538 103.96 
L 70.473538 103.96 
L 69.029081 103.96 
L 69.029081 103.96 
L 67.584624 103.96 
L 67.584624 103.96 
L 66.140167 103.96 
L 66.140167 103.96 
L 64.69571 103.96 
L 64.69571 103.96 
L 63.251253 103.96 
L 63.251253 103.96 
L 61.806797 103.96 
L 61.806797 103.96 
L 60.36234 103.96 
L 60.36234 103.96 
L 58.917883 103.96 
L 58.917883 103.96 
L 57.473426 103.96 
L 57.473426 103.96 
L 56.028969 103.96 
L 56.028969 103.96 
L 54.584513 103.96 
L 54.584513 103.96 
L 53.140056 103.96 
L 53.140056 103.96 
L 51.695599 103.96 
L 51.695599 103.96 
L 50.251142 103.96 
L 50.251142 103.96 
L 49.528914 103.96 
z
" clip-path="url(#p2c90077738)" style="fill: #17becf; fill-opacity: 0.6; stroke: #1f77b4; stroke-opacity: 0.8; stroke-width: 1.5"/>
    <path d="M 124.640669 103.96 
L 124.640669 99.457152 
L 125.362897 99.457152 
L 125.362897 96.96517 
L 126.807354 96.96517 
L 126.807354 90.513604 
L 128.251811 90.513604 
L 128.251811 95.183758 
L 129.696267 95.183758 
L 129.696267 87.966816 
L 131.140724 87.966816 
L 131.140724 83.875111 
L 132.585181 83.875111 
L 132.585181 81.459349 
L 134.029638 81.459349 
L 134.029638 81.00278 
L 135.474095 81.00278 
L 135.474095 80.921388 
L 136.918552 80.921388 
L 136.918552 78.390164 
L 138.363008 78.390164 
L 138.363008 77.170656 
L 139.807465 77.170656 
L 139.807465 78.114127 
L 141.251922 78.114127 
L 141.251922 78.485479 
L 142.696379 78.485479 
L 142.696379 78.486678 
L 144.140836 78.486678 
L 144.140836 78.028753 
L 145.585292 78.028753 
L 145.585292 78.280498 
L 147.029749 78.280498 
L 147.029749 77.707584 
L 148.474206 77.707584 
L 148.474206 75.127862 
L 149.918663 75.127862 
L 149.918663 72.91064 
L 151.36312 72.91064 
L 151.36312 72.78961 
L 152.807577 72.78961 
L 152.807577 72.327828 
L 154.252033 72.327828 
L 154.252033 71.448345 
L 155.69649 71.448345 
L 155.69649 74.617129 
L 157.140947 74.617129 
L 157.140947 75.144814 
L 158.585404 75.144814 
L 158.585404 74.925129 
L 160.029861 74.925129 
L 160.029861 74.027996 
L 161.474318 74.027996 
L 161.474318 73.79597 
L 162.918774 73.79597 
L 162.918774 68.833721 
L 164.363231 68.833721 
L 164.363231 69.018205 
L 165.807688 69.018205 
L 165.807688 70.200585 
L 167.252145 70.200585 
L 167.252145 70.398098 
L 168.696602 70.398098 
L 168.696602 70.485908 
L 170.141058 70.485908 
L 170.141058 70.268003 
L 171.585515 70.268003 
L 171.585515 70.974822 
L 173.029972 70.974822 
L 173.029972 68.501906 
L 174.474429 68.501906 
L 174.474429 65.186426 
L 175.918886 65.186426 
L 175.918886 62.053071 
L 177.363343 62.053071 
L 177.363343 61.011734 
L 178.807799 61.011734 
L 178.807799 57.769318 
L 180.252256 57.769318 
L 180.252256 59.481537 
L 181.696713 59.481537 
L 181.696713 59.509895 
L 183.14117 59.509895 
L 183.14117 57.615625 
L 184.585627 57.615625 
L 184.585627 57.595312 
L 186.030084 57.595312 
L 186.030084 57.544948 
L 187.47454 57.544948 
L 187.47454 57.568272 
L 188.918997 57.568272 
L 188.918997 57.611509 
L 190.363454 57.611509 
L 190.363454 58.638186 
L 191.807911 58.638186 
L 191.807911 62.635154 
L 193.252368 62.635154 
L 193.252368 65.676179 
L 194.696825 65.676179 
L 194.696825 66.359947 
L 196.141281 66.359947 
L 196.141281 67.993051 
L 197.585738 67.993051 
L 197.585738 73.203773 
L 199.030195 73.203773 
L 199.030195 73.418994 
L 200.474652 73.418994 
L 200.474652 75.477946 
L 201.919109 75.477946 
L 201.919109 77.365996 
L 203.363565 77.365996 
L 203.363565 77.733852 
L 204.808022 77.733852 
L 204.808022 78.305729 
L 206.252479 78.305729 
L 206.252479 80.96534 
L 207.696936 80.96534 
L 207.696936 81.046686 
L 209.141393 81.046686 
L 209.141393 80.292821 
L 210.58585 80.292821 
L 210.58585 80.311595 
L 212.030306 80.311595 
L 212.030306 81.016018 
L 213.474763 81.016018 
L 213.474763 81.283294 
L 214.91922 81.283294 
L 214.91922 81.037553 
L 216.363677 81.037553 
L 216.363677 86.46485 
L 217.808134 86.46485 
L 217.808134 87.984778 
L 219.252591 87.984778 
L 219.252591 91.824831 
L 220.697047 91.824831 
L 220.697047 95.539225 
L 222.141504 95.539225 
L 222.141504 100.259326 
L 223.585961 100.259326 
L 223.585961 97.814077 
L 224.308189 97.814077 
L 224.308189 103.96 
L 224.308189 103.96 
L 223.585961 103.96 
L 223.585961 103.96 
L 222.141504 103.96 
L 222.141504 103.96 
L 220.697047 103.96 
L 220.697047 103.96 
L 219.252591 103.96 
L 219.252591 103.96 
L 217.808134 103.96 
L 217.808134 103.96 
L 216.363677 103.96 
L 216.363677 103.96 
L 214.91922 103.96 
L 214.91922 103.96 
L 213.474763 103.96 
L 213.474763 103.96 
L 212.030306 103.96 
L 212.030306 103.96 
L 210.58585 103.96 
L 210.58585 103.96 
L 209.141393 103.96 
L 209.141393 103.96 
L 207.696936 103.96 
L 207.696936 103.96 
L 206.252479 103.96 
L 206.252479 103.96 
L 204.808022 103.96 
L 204.808022 103.96 
L 203.363565 103.96 
L 203.363565 103.96 
L 201.919109 103.96 
L 201.919109 103.96 
L 200.474652 103.96 
L 200.474652 103.96 
L 199.030195 103.96 
L 199.030195 103.96 
L 197.585738 103.96 
L 197.585738 103.96 
L 196.141281 103.96 
L 196.141281 103.96 
L 194.696825 103.96 
L 194.696825 103.96 
L 193.252368 103.96 
L 193.252368 103.96 
L 191.807911 103.96 
L 191.807911 103.96 
L 190.363454 103.96 
L 190.363454 103.96 
L 188.918997 103.96 
L 188.918997 103.96 
L 187.47454 103.96 
L 187.47454 103.96 
L 186.030084 103.96 
L 186.030084 103.96 
L 184.585627 103.96 
L 184.585627 103.96 
L 183.14117 103.96 
L 183.14117 103.96 
L 181.696713 103.96 
L 181.696713 103.96 
L 180.252256 103.96 
L 180.252256 103.96 
L 178.807799 103.96 
L 178.807799 103.96 
L 177.363343 103.96 
L 177.363343 103.96 
L 175.918886 103.96 
L 175.918886 103.96 
L 174.474429 103.96 
L 174.474429 103.96 
L 173.029972 103.96 
L 173.029972 103.96 
L 171.585515 103.96 
L 171.585515 103.96 
L 170.141058 103.96 
L 170.141058 103.96 
L 168.696602 103.96 
L 168.696602 103.96 
L 167.252145 103.96 
L 167.252145 103.96 
L 165.807688 103.96 
L 165.807688 103.96 
L 164.363231 103.96 
L 164.363231 103.96 
L 162.918774 103.96 
L 162.918774 103.96 
L 161.474318 103.96 
L 161.474318 103.96 
L 160.029861 103.96 
L 160.029861 103.96 
L 158.585404 103.96 
L 158.585404 103.96 
L 157.140947 103.96 
L 157.140947 103.96 
L 155.69649 103.96 
L 155.69649 103.96 
L 154.252033 103.96 
L 154.252033 103.96 
L 152.807577 103.96 
L 152.807577 103.96 
L 151.36312 103.96 
L 151.36312 103.96 
L 149.918663 103.96 
L 149.918663 103.96 
L 148.474206 103.96 
L 148.474206 103.96 
L 147.029749 103.96 
L 147.029749 103.96 
L 145.585292 103.96 
L 145.585292 103.96 
L 144.140836 103.96 
L 144.140836 103.96 
L 142.696379 103.96 
L 142.696379 103.96 
L 141.251922 103.96 
L 141.251922 103.96 
L 139.807465 103.96 
L 139.807465 103.96 
L 138.363008 103.96 
L 138.363008 103.96 
L 136.918552 103.96 
L 136.918552 103.96 
L 135.474095 103.96 
L 135.474095 103.96 
L 134.029638 103.96 
L 134.029638 103.96 
L 132.585181 103.96 
L 132.585181 103.96 
L 131.140724 103.96 
L 131.140724 103.96 
L 129.696267 103.96 
L 129.696267 103.96 
L 128.251811 103.96 
L 128.251811 103.96 
L 126.807354 103.96 
L 126.807354 103.96 
L 125.362897 103.96 
L 125.362897 103.96 
L 124.640669 103.96 
z
" clip-path="url(#p2c90077738)" style="fill: #17becf; fill-opacity: 0.6; stroke: #1f77b4; stroke-opacity: 0.8; stroke-width: 1.5"/>
    <path d="M 306.642228 103.96 
L 306.642228 99.285621 
L 307.364457 99.285621 
L 307.364457 100.569531 
L 308.808914 100.569531 
L 308.808914 101.772606 
L 310.25337 101.772606 
L 310.25337 102.614115 
L 310.975599 102.614115 
L 310.975599 103.96 
L 310.975599 103.96 
L 310.25337 103.96 
L 310.25337 103.96 
L 308.808914 103.96 
L 308.808914 103.96 
L 307.364457 103.96 
L 307.364457 103.96 
L 306.642228 103.96 
z
" clip-path="url(#p2c90077738)" style="fill: #17becf; fill-opacity: 0.6; stroke: #1f77b4; stroke-opacity: 0.8; stroke-width: 1.5"/>
    <path d="M 321.086797 103.96 
L 321.086797 101.68627 
L 321.086797 101.68627 
L 321.086797 103.96 
L 321.086797 103.96 
L 321.086797 103.96 
z
" clip-path="url(#p2c90077738)" style="fill: #17becf; fill-opacity: 0.6; stroke: #1f77b4; stroke-opacity: 0.8; stroke-width: 1.5"/>
    <path d="M 344.198106 103.96 
L 344.198106 100.036925 
L 344.198106 100.036925 
L 344.198106 103.96 
L 344.198106 103.96 
L 344.198106 103.96 
z
" clip-path="url(#p2c90077738)" style="fill: #17becf; fill-opacity: 0.6; stroke: #1f77b4; stroke-opacity: 0.8; stroke-width: 1.5"/>
    <path d="M 358.642674 103.96 
L 358.642674 96.125705 
L 359.364903 96.125705 
L 359.364903 96.895661 
L 360.809359 96.895661 
L 360.809359 93.436158 
L 362.253816 93.436158 
L 362.253816 97.477395 
L 363.698273 97.477395 
L 363.698273 100.841437 
L 365.14273 100.841437 
L 365.14273 98.343523 
L 366.587187 98.343523 
L 366.587187 97.731743 
L 368.031643 97.731743 
L 368.031643 95.529404 
L 369.4761 95.529404 
L 369.4761 98.774686 
L 370.920557 98.774686 
L 370.920557 101.035352 
L 371.642786 101.035352 
L 371.642786 103.96 
L 371.642786 103.96 
L 370.920557 103.96 
L 370.920557 103.96 
L 369.4761 103.96 
L 369.4761 103.96 
L 368.031643 103.96 
L 368.031643 103.96 
L 366.587187 103.96 
L 366.587187 103.96 
L 365.14273 103.96 
L 365.14273 103.96 
L 363.698273 103.96 
L 363.698273 103.96 
L 362.253816 103.96 
L 362.253816 103.96 
L 360.809359 103.96 
L 360.809359 103.96 
L 359.364903 103.96 
L 359.364903 103.96 
L 358.642674 103.96 
z
" clip-path="url(#p2c90077738)" style="fill: #17becf; fill-opacity: 0.6; stroke: #1f77b4; stroke-opacity: 0.8; stroke-width: 1.5"/>
    <path d="M 397.643008 103.96 
L 397.643008 98.736275 
L 398.365237 98.736275 
L 398.365237 94.482688 
L 399.809694 94.482688 
L 399.809694 90.638352 
L 401.25415 90.638352 
L 401.25415 90.570254 
L 402.698607 90.570254 
L 402.698607 93.542623 
L 404.143064 93.542623 
L 404.143064 98.639003 
L 405.587521 98.639003 
L 405.587521 96.510427 
L 407.031978 96.510427 
L 407.031978 100.930571 
L 408.476435 100.930571 
L 408.476435 101.341204 
L 409.920891 101.341204 
L 409.920891 101.302301 
L 411.365348 101.302301 
L 411.365348 100.30407 
L 412.809805 100.30407 
L 412.809805 96.26373 
L 414.254262 96.26373 
L 414.254262 95.318224 
L 415.698719 95.318224 
L 415.698719 96.664055 
L 417.143175 96.664055 
L 417.143175 96.921639 
L 418.587632 96.921639 
L 418.587632 99.81713 
L 420.032089 99.81713 
L 420.032089 102.902521 
L 420.754318 102.902521 
L 420.754318 103.96 
L 420.754318 103.96 
L 420.032089 103.96 
L 420.032089 103.96 
L 418.587632 103.96 
L 418.587632 103.96 
L 417.143175 103.96 
L 417.143175 103.96 
L 415.698719 103.96 
L 415.698719 103.96 
L 414.254262 103.96 
L 414.254262 103.96 
L 412.809805 103.96 
L 412.809805 103.96 
L 411.365348 103.96 
L 411.365348 103.96 
L 409.920891 103.96 
L 409.920891 103.96 
L 408.476435 103.96 
L 408.476435 103.96 
L 407.031978 103.96 
L 407.031978 103.96 
L 405.587521 103.96 
L 405.587521 103.96 
L 404.143064 103.96 
L 404.143064 103.96 
L 402.698607 103.96 
L 402.698607 103.96 
L 401.25415 103.96 
L 401.25415 103.96 
L 399.809694 103.96 
L 399.809694 103.96 
L 398.365237 103.96 
L 398.365237 103.96 
L 397.643008 103.96 
z
" clip-path="url(#p2c90077738)" style="fill: #17becf; fill-opacity: 0.6; stroke: #1f77b4; stroke-opacity: 0.8; stroke-width: 1.5"/>
    <path d="M 446.75454 103.96 
L 446.75454 92.397879 
L 447.476769 92.397879 
L 447.476769 86.892694 
L 448.921226 86.892694 
L 448.921226 86.294751 
L 450.365682 86.294751 
L 450.365682 91.607353 
L 451.810139 91.607353 
L 451.810139 92.992257 
L 453.254596 92.992257 
L 453.254596 95.979899 
L 454.699053 95.979899 
L 454.699053 92.822124 
L 456.14351 92.822124 
L 456.14351 94.707596 
L 457.587967 94.707596 
L 457.587967 95.031912 
L 459.032423 95.031912 
L 459.032423 92.824887 
L 460.47688 92.824887 
L 460.47688 93.760701 
L 461.921337 93.760701 
L 461.921337 92.870569 
L 463.365794 92.870569 
L 463.365794 96.913528 
L 464.088022 96.913528 
L 464.088022 103.96 
L 464.088022 103.96 
L 463.365794 103.96 
L 463.365794 103.96 
L 461.921337 103.96 
L 461.921337 103.96 
L 460.47688 103.96 
L 460.47688 103.96 
L 459.032423 103.96 
L 459.032423 103.96 
L 457.587967 103.96 
L 457.587967 103.96 
L 456.14351 103.96 
L 456.14351 103.96 
L 454.699053 103.96 
L 454.699053 103.96 
L 453.254596 103.96 
L 453.254596 103.96 
L 451.810139 103.96 
L 451.810139 103.96 
L 450.365682 103.96 
L 450.365682 103.96 
L 448.921226 103.96 
L 448.921226 103.96 
L 447.476769 103.96 
L 447.476769 103.96 
L 446.75454 103.96 
z
" clip-path="url(#p2c90077738)" style="fill: #17becf; fill-opacity: 0.6; stroke: #1f77b4; stroke-opacity: 0.8; stroke-width: 1.5"/>
    <path d="M 537.75532 103.96 
L 537.75532 100.154246 
L 537.75532 100.154246 
L 537.75532 103.96 
L 537.75532 103.96 
L 537.75532 103.96 
z
" clip-path="url(#p2c90077738)" style="fill: #17becf; fill-opacity: 0.6; stroke: #1f77b4; stroke-opacity: 0.8; stroke-width: 1.5"/>
    <path d="M 540.644234 103.96 
L 540.644234 103.858977 
L 541.366462 103.858977 
L 541.366462 101.811136 
L 542.810919 101.811136 
L 542.810919 96.655527 
L 544.255376 96.655527 
L 544.255376 93.482741 
L 545.699833 93.482741 
L 545.699833 102.027705 
L 547.14429 102.027705 
L 547.14429 102.330188 
L 548.588747 102.330188 
L 548.588747 98.196387 
L 550.033203 98.196387 
L 550.033203 93.597852 
L 551.47766 93.597852 
L 551.47766 92.281384 
L 552.922117 92.281384 
L 552.922117 91.877818 
L 554.366574 91.877818 
L 554.366574 87.337605 
L 555.811031 87.337605 
L 555.811031 87.360603 
L 557.255487 87.360603 
L 557.255487 87.701263 
L 558.699944 87.701263 
L 558.699944 90.161748 
L 560.144401 90.161748 
L 560.144401 93.624441 
L 561.588858 93.624441 
L 561.588858 87.728503 
L 563.033315 87.728503 
L 563.033315 93.511366 
L 564.477772 93.511366 
L 564.477772 89.732758 
L 565.2 89.732758 
L 565.2 103.96 
L 565.2 103.96 
L 564.477772 103.96 
L 564.477772 103.96 
L 563.033315 103.96 
L 563.033315 103.96 
L 561.588858 103.96 
L 561.588858 103.96 
L 560.144401 103.96 
L 560.144401 103.96 
L 558.699944 103.96 
L 558.699944 103.96 
L 557.255487 103.96 
L 557.255487 103.96 
L 555.811031 103.96 
L 555.811031 103.96 
L 554.366574 103.96 
L 554.366574 103.96 
L 552.922117 103.96 
L 552.922117 103.96 
L 551.47766 103.96 
L 551.47766 103.96 
L 550.033203 103.96 
L 550.033203 103.96 
L 548.588747 103.96 
L 548.588747 103.96 
L 547.14429 103.96 
L 547.14429 103.96 
L 545.699833 103.96 
L 545.699833 103.96 
L 544.255376 103.96 
L 544.255376 103.96 
L 542.810919 103.96 
L 542.810919 103.96 
L 541.366462 103.96 
L 541.366462 103.96 
L 540.644234 103.96 
z
" clip-path="url(#p2c90077738)" style="fill: #17becf; fill-opacity: 0.6; stroke: #1f77b4; stroke-opacity: 0.8; stroke-width: 1.5"/>
   </g>
   <g id="PolyCollection_2">
    <path d="M 46.64 103.96 
L 46.64 107.906445 
L 47.362228 107.906445 
L 47.362228 109.998974 
L 48.084457 109.998974 
L 48.084457 103.96 
L 48.084457 103.96 
L 47.362228 103.96 
L 47.362228 103.96 
L 46.64 103.96 
z
" clip-path="url(#p2c90077738)" style="fill: #d62728; fill-opacity: 0.6; stroke: #b22222; stroke-opacity: 0.8; stroke-width: 1.5"/>
    <path d="M 107.307187 103.96 
L 107.307187 106.993046 
L 108.029415 106.993046 
L 108.029415 105.920926 
L 109.473872 105.920926 
L 109.473872 111.69837 
L 110.918329 111.69837 
L 110.918329 112.221595 
L 112.362786 112.221595 
L 112.362786 107.637346 
L 113.807242 107.637346 
L 113.807242 107.639347 
L 115.251699 107.639347 
L 115.251699 107.874475 
L 116.696156 107.874475 
L 116.696156 107.401894 
L 118.140613 107.401894 
L 118.140613 108.930699 
L 119.58507 108.930699 
L 119.58507 109.994975 
L 121.029526 109.994975 
L 121.029526 111.077007 
L 122.473983 111.077007 
L 122.473983 106.346899 
L 123.196212 106.346899 
L 123.196212 103.96 
L 123.196212 103.96 
L 122.473983 103.96 
L 122.473983 103.96 
L 121.029526 103.96 
L 121.029526 103.96 
L 119.58507 103.96 
L 119.58507 103.96 
L 118.140613 103.96 
L 118.140613 103.96 
L 116.696156 103.96 
L 116.696156 103.96 
L 115.251699 103.96 
L 115.251699 103.96 
L 113.807242 103.96 
L 113.807242 103.96 
L 112.362786 103.96 
L 112.362786 103.96 
L 110.918329 103.96 
L 110.918329 103.96 
L 109.473872 103.96 
L 109.473872 103.96 
L 108.029415 103.96 
L 108.029415 103.96 
L 107.307187 103.96 
z
" clip-path="url(#p2c90077738)" style="fill: #d62728; fill-opacity: 0.6; stroke: #b22222; stroke-opacity: 0.8; stroke-width: 1.5"/>
    <path d="M 225.752646 103.96 
L 225.752646 104.688966 
L 226.474875 104.688966 
L 226.474875 107.650544 
L 227.919331 107.650544 
L 227.919331 105.646758 
L 229.363788 105.646758 
L 229.363788 110.95024 
L 230.808245 110.95024 
L 230.808245 119.456797 
L 232.252702 119.456797 
L 232.252702 112.166467 
L 233.697159 112.166467 
L 233.697159 112.844901 
L 235.141616 112.844901 
L 235.141616 115.442446 
L 236.586072 115.442446 
L 236.586072 110.473094 
L 238.030529 110.473094 
L 238.030529 112.456208 
L 239.474986 112.456208 
L 239.474986 111.615499 
L 240.919443 111.615499 
L 240.919443 116.552793 
L 242.3639 116.552793 
L 242.3639 121.982388 
L 243.808357 121.982388 
L 243.808357 123.273018 
L 245.252813 123.273018 
L 245.252813 119.164318 
L 246.69727 119.164318 
L 246.69727 119.121227 
L 248.141727 119.121227 
L 248.141727 117.401639 
L 249.586184 117.401639 
L 249.586184 127.357133 
L 251.030641 127.357133 
L 251.030641 132.623624 
L 252.475097 132.623624 
L 252.475097 142.097062 
L 253.919554 142.097062 
L 253.919554 141.862496 
L 255.364011 141.862496 
L 255.364011 138.492374 
L 256.808468 138.492374 
L 256.808468 124.995404 
L 258.252925 124.995404 
L 258.252925 125.997911 
L 259.697382 125.997911 
L 259.697382 125.396679 
L 261.141838 125.396679 
L 261.141838 128.770764 
L 262.586295 128.770764 
L 262.586295 132.945339 
L 264.030752 132.945339 
L 264.030752 133.282944 
L 265.475209 133.282944 
L 265.475209 136.796742 
L 266.919666 136.796742 
L 266.919666 132.323978 
L 268.364123 132.323978 
L 268.364123 128.494187 
L 269.808579 128.494187 
L 269.808579 132.34139 
L 271.253036 132.34139 
L 271.253036 130.695378 
L 272.697493 130.695378 
L 272.697493 132.35466 
L 274.14195 132.35466 
L 274.14195 135.180657 
L 275.586407 135.180657 
L 275.586407 139.063385 
L 277.030864 139.063385 
L 277.030864 124.304224 
L 278.47532 124.304224 
L 278.47532 123.454541 
L 279.919777 123.454541 
L 279.919777 117.871872 
L 281.364234 117.871872 
L 281.364234 114.3594 
L 282.808691 114.3594 
L 282.808691 109.898855 
L 284.253148 109.898855 
L 284.253148 109.449889 
L 285.697604 109.449889 
L 285.697604 109.726084 
L 287.142061 109.726084 
L 287.142061 105.411488 
L 288.586518 105.411488 
L 288.586518 106.973745 
L 290.030975 106.973745 
L 290.030975 110.866606 
L 291.475432 110.866606 
L 291.475432 113.954458 
L 292.919889 113.954458 
L 292.919889 108.688801 
L 294.364345 108.688801 
L 294.364345 108.973875 
L 295.808802 108.973875 
L 295.808802 109.084448 
L 297.253259 109.084448 
L 297.253259 107.875996 
L 298.697716 107.875996 
L 298.697716 106.802656 
L 300.142173 106.802656 
L 300.142173 108.172352 
L 301.58663 108.172352 
L 301.58663 107.347574 
L 303.031086 107.347574 
L 303.031086 105.639058 
L 304.475543 105.639058 
L 304.475543 106.19733 
L 305.197772 106.19733 
L 305.197772 103.96 
L 305.197772 103.96 
L 304.475543 103.96 
L 304.475543 103.96 
L 303.031086 103.96 
L 303.031086 103.96 
L 301.58663 103.96 
L 301.58663 103.96 
L 300.142173 103.96 
L 300.142173 103.96 
L 298.697716 103.96 
L 298.697716 103.96 
L 297.253259 103.96 
L 297.253259 103.96 
L 295.808802 103.96 
L 295.808802 103.96 
L 294.364345 103.96 
L 294.364345 103.96 
L 292.919889 103.96 
L 292.919889 103.96 
L 291.475432 103.96 
L 291.475432 103.96 
L 290.030975 103.96 
L 290.030975 103.96 
L 288.586518 103.96 
L 288.586518 103.96 
L 287.142061 103.96 
L 287.142061 103.96 
L 285.697604 103.96 
L 285.697604 103.96 
L 284.253148 103.96 
L 284.253148 103.96 
L 282.808691 103.96 
L 282.808691 103.96 
L 281.364234 103.96 
L 281.364234 103.96 
L 279.919777 103.96 
L 279.919777 103.96 
L 278.47532 103.96 
L 278.47532 103.96 
L 277.030864 103.96 
L 277.030864 103.96 
L 275.586407 103.96 
L 275.586407 103.96 
L 274.14195 103.96 
L 274.14195 103.96 
L 272.697493 103.96 
L 272.697493 103.96 
L 271.253036 103.96 
L 271.253036 103.96 
L 269.808579 103.96 
L 269.808579 103.96 
L 268.364123 103.96 
L 268.364123 103.96 
L 266.919666 103.96 
L 266.919666 103.96 
L 265.475209 103.96 
L 265.475209 103.96 
L 264.030752 103.96 
L 264.030752 103.96 
L 262.586295 103.96 
L 262.586295 103.96 
L 261.141838 103.96 
L 261.141838 103.96 
L 259.697382 103.96 
L 259.697382 103.96 
L 258.252925 103.96 
L 258.252925 103.96 
L 256.808468 103.96 
L 256.808468 103.96 
L 255.364011 103.96 
L 255.364011 103.96 
L 253.919554 103.96 
L 253.919554 103.96 
L 252.475097 103.96 
L 252.475097 103.96 
L 251.030641 103.96 
L 251.030641 103.96 
L 249.586184 103.96 
L 249.586184 103.96 
L 248.141727 103.96 
L 248.141727 103.96 
L 246.69727 103.96 
L 246.69727 103.96 
L 245.252813 103.96 
L 245.252813 103.96 
L 243.808357 103.96 
L 243.808357 103.96 
L 242.3639 103.96 
L 242.3639 103.96 
L 240.919443 103.96 
L 240.919443 103.96 
L 239.474986 103.96 
L 239.474986 103.96 
L 238.030529 103.96 
L 238.030529 103.96 
L 236.586072 103.96 
L 236.586072 103.96 
L 235.141616 103.96 
L 235.141616 103.96 
L 233.697159 103.96 
L 233.697159 103.96 
L 232.252702 103.96 
L 232.252702 103.96 
L 230.808245 103.96 
L 230.808245 103.96 
L 229.363788 103.96 
L 229.363788 103.96 
L 227.919331 103.96 
L 227.919331 103.96 
L 226.474875 103.96 
L 226.474875 103.96 
L 225.752646 103.96 
z
" clip-path="url(#p2c90077738)" style="fill: #d62728; fill-opacity: 0.6; stroke: #b22222; stroke-opacity: 0.8; stroke-width: 1.5"/>
    <path d="M 312.420056 103.96 
L 312.420056 107.999939 
L 313.142284 107.999939 
L 313.142284 110.33813 
L 314.586741 110.33813 
L 314.586741 114.219109 
L 316.031198 114.219109 
L 316.031198 114.676146 
L 317.475655 114.676146 
L 317.475655 108.801627 
L 318.920111 108.801627 
L 318.920111 108.298206 
L 319.64234 108.298206 
L 319.64234 103.96 
L 319.64234 103.96 
L 318.920111 103.96 
L 318.920111 103.96 
L 317.475655 103.96 
L 317.475655 103.96 
L 316.031198 103.96 
L 316.031198 103.96 
L 314.586741 103.96 
L 314.586741 103.96 
L 313.142284 103.96 
L 313.142284 103.96 
L 312.420056 103.96 
z
" clip-path="url(#p2c90077738)" style="fill: #d62728; fill-opacity: 0.6; stroke: #b22222; stroke-opacity: 0.8; stroke-width: 1.5"/>
    <path d="M 322.531253 103.96 
L 322.531253 104.112482 
L 323.253482 104.112482 
L 323.253482 109.382054 
L 324.697939 109.382054 
L 324.697939 117.357994 
L 326.142396 117.357994 
L 326.142396 121.687955 
L 327.586852 121.687955 
L 327.586852 125.533138 
L 329.031309 125.533138 
L 329.031309 119.640802 
L 330.475766 119.640802 
L 330.475766 118.960845 
L 331.920223 118.960845 
L 331.920223 120.314588 
L 333.36468 120.314588 
L 333.36468 121.817911 
L 334.809136 121.817911 
L 334.809136 118.28915 
L 336.253593 118.28915 
L 336.253593 117.90641 
L 337.69805 117.90641 
L 337.69805 118.791075 
L 339.142507 118.791075 
L 339.142507 117.359485 
L 340.586964 117.359485 
L 340.586964 113.887307 
L 342.031421 113.887307 
L 342.031421 106.68743 
L 342.753649 106.68743 
L 342.753649 103.96 
L 342.753649 103.96 
L 342.031421 103.96 
L 342.031421 103.96 
L 340.586964 103.96 
L 340.586964 103.96 
L 339.142507 103.96 
L 339.142507 103.96 
L 337.69805 103.96 
L 337.69805 103.96 
L 336.253593 103.96 
L 336.253593 103.96 
L 334.809136 103.96 
L 334.809136 103.96 
L 333.36468 103.96 
L 333.36468 103.96 
L 331.920223 103.96 
L 331.920223 103.96 
L 330.475766 103.96 
L 330.475766 103.96 
L 329.031309 103.96 
L 329.031309 103.96 
L 327.586852 103.96 
L 327.586852 103.96 
L 326.142396 103.96 
L 326.142396 103.96 
L 324.697939 103.96 
L 324.697939 103.96 
L 323.253482 103.96 
L 323.253482 103.96 
L 322.531253 103.96 
z
" clip-path="url(#p2c90077738)" style="fill: #d62728; fill-opacity: 0.6; stroke: #b22222; stroke-opacity: 0.8; stroke-width: 1.5"/>
    <path d="M 345.642563 103.96 
L 345.642563 109.579977 
L 346.364791 109.579977 
L 346.364791 109.185661 
L 347.809248 109.185661 
L 347.809248 109.076092 
L 349.253705 109.076092 
L 349.253705 116.876887 
L 350.698162 116.876887 
L 350.698162 122.925206 
L 352.142618 122.925206 
L 352.142618 122.471311 
L 353.587075 122.471311 
L 353.587075 118.844184 
L 355.031532 118.844184 
L 355.031532 114.570599 
L 356.475989 114.570599 
L 356.475989 108.600465 
L 357.198217 108.600465 
L 357.198217 103.96 
L 357.198217 103.96 
L 356.475989 103.96 
L 356.475989 103.96 
L 355.031532 103.96 
L 355.031532 103.96 
L 353.587075 103.96 
L 353.587075 103.96 
L 352.142618 103.96 
L 352.142618 103.96 
L 350.698162 103.96 
L 350.698162 103.96 
L 349.253705 103.96 
L 349.253705 103.96 
L 347.809248 103.96 
L 347.809248 103.96 
L 346.364791 103.96 
L 346.364791 103.96 
L 345.642563 103.96 
z
" clip-path="url(#p2c90077738)" style="fill: #d62728; fill-opacity: 0.6; stroke: #b22222; stroke-opacity: 0.8; stroke-width: 1.5"/>
    <path d="M 373.087242 103.96 
L 373.087242 106.420142 
L 373.809471 106.420142 
L 373.809471 114.507268 
L 375.253928 114.507268 
L 375.253928 118.507954 
L 376.698384 118.507954 
L 376.698384 123.964802 
L 378.142841 123.964802 
L 378.142841 131.709176 
L 379.587298 131.709176 
L 379.587298 130.728698 
L 381.031755 130.728698 
L 381.031755 126.589957 
L 382.476212 126.589957 
L 382.476212 120.228839 
L 383.920669 120.228839 
L 383.920669 118.616645 
L 385.365125 118.616645 
L 385.365125 118.375294 
L 386.809582 118.375294 
L 386.809582 118.455744 
L 388.254039 118.455744 
L 388.254039 124.22532 
L 389.698496 124.22532 
L 389.698496 121.806426 
L 391.142953 121.806426 
L 391.142953 119.669887 
L 392.587409 119.669887 
L 392.587409 115.828788 
L 394.031866 115.828788 
L 394.031866 111.645891 
L 395.476323 111.645891 
L 395.476323 106.323349 
L 396.198552 106.323349 
L 396.198552 103.96 
L 396.198552 103.96 
L 395.476323 103.96 
L 395.476323 103.96 
L 394.031866 103.96 
L 394.031866 103.96 
L 392.587409 103.96 
L 392.587409 103.96 
L 391.142953 103.96 
L 391.142953 103.96 
L 389.698496 103.96 
L 389.698496 103.96 
L 388.254039 103.96 
L 388.254039 103.96 
L 386.809582 103.96 
L 386.809582 103.96 
L 385.365125 103.96 
L 385.365125 103.96 
L 383.920669 103.96 
L 383.920669 103.96 
L 382.476212 103.96 
L 382.476212 103.96 
L 381.031755 103.96 
L 381.031755 103.96 
L 379.587298 103.96 
L 379.587298 103.96 
L 378.142841 103.96 
L 378.142841 103.96 
L 376.698384 103.96 
L 376.698384 103.96 
L 375.253928 103.96 
L 375.253928 103.96 
L 373.809471 103.96 
L 373.809471 103.96 
L 373.087242 103.96 
z
" clip-path="url(#p2c90077738)" style="fill: #d62728; fill-opacity: 0.6; stroke: #b22222; stroke-opacity: 0.8; stroke-width: 1.5"/>
    <path d="M 422.198774 103.96 
L 422.198774 104.330302 
L 422.921003 104.330302 
L 422.921003 105.052015 
L 424.36546 105.052015 
L 424.36546 109.53857 
L 425.809916 109.53857 
L 425.809916 113.712533 
L 427.254373 113.712533 
L 427.254373 110.730945 
L 428.69883 110.730945 
L 428.69883 118.793414 
L 430.143287 118.793414 
L 430.143287 118.402483 
L 431.587744 118.402483 
L 431.587744 119.8381 
L 433.032201 119.8381 
L 433.032201 122.628807 
L 434.476657 122.628807 
L 434.476657 124.169401 
L 435.921114 124.169401 
L 435.921114 131.091637 
L 437.365571 131.091637 
L 437.365571 128.697763 
L 438.810028 128.697763 
L 438.810028 128.216803 
L 440.254485 128.216803 
L 440.254485 121.714754 
L 441.698942 121.714754 
L 441.698942 117.890543 
L 443.143398 117.890543 
L 443.143398 112.470333 
L 444.587855 112.470333 
L 444.587855 106.464639 
L 445.310084 106.464639 
L 445.310084 103.96 
L 445.310084 103.96 
L 444.587855 103.96 
L 444.587855 103.96 
L 443.143398 103.96 
L 443.143398 103.96 
L 441.698942 103.96 
L 441.698942 103.96 
L 440.254485 103.96 
L 440.254485 103.96 
L 438.810028 103.96 
L 438.810028 103.96 
L 437.365571 103.96 
L 437.365571 103.96 
L 435.921114 103.96 
L 435.921114 103.96 
L 434.476657 103.96 
L 434.476657 103.96 
L 433.032201 103.96 
L 433.032201 103.96 
L 431.587744 103.96 
L 431.587744 103.96 
L 430.143287 103.96 
L 430.143287 103.96 
L 428.69883 103.96 
L 428.69883 103.96 
L 427.254373 103.96 
L 427.254373 103.96 
L 425.809916 103.96 
L 425.809916 103.96 
L 424.36546 103.96 
L 424.36546 103.96 
L 422.921003 103.96 
L 422.921003 103.96 
L 422.198774 103.96 
z
" clip-path="url(#p2c90077738)" style="fill: #d62728; fill-opacity: 0.6; stroke: #b22222; stroke-opacity: 0.8; stroke-width: 1.5"/>
    <path d="M 465.532479 103.96 
L 465.532479 107.658846 
L 466.254708 107.658846 
L 466.254708 115.615776 
L 467.699164 115.615776 
L 467.699164 121.164977 
L 469.143621 121.164977 
L 469.143621 128.769259 
L 470.588078 128.769259 
L 470.588078 122.080683 
L 472.032535 122.080683 
L 472.032535 121.455401 
L 473.476992 121.455401 
L 473.476992 130.707971 
L 474.921448 130.707971 
L 474.921448 128.309505 
L 476.365905 128.309505 
L 476.365905 125.765631 
L 477.810362 125.765631 
L 477.810362 125.287586 
L 479.254819 125.287586 
L 479.254819 131.473987 
L 480.699276 131.473987 
L 480.699276 136.091407 
L 482.143733 136.091407 
L 482.143733 136.039672 
L 483.588189 136.039672 
L 483.588189 141.800417 
L 485.032646 141.800417 
L 485.032646 140.485785 
L 486.477103 140.485785 
L 486.477103 143.087023 
L 487.92156 143.087023 
L 487.92156 133.777688 
L 489.366017 133.777688 
L 489.366017 131.986407 
L 490.810474 131.986407 
L 490.810474 140.782053 
L 492.25493 140.782053 
L 492.25493 125.635286 
L 493.699387 125.635286 
L 493.699387 131.164514 
L 495.143844 131.164514 
L 495.143844 128.839132 
L 496.588301 128.839132 
L 496.588301 129.532138 
L 498.032758 129.532138 
L 498.032758 126.221855 
L 499.477214 126.221855 
L 499.477214 120.354063 
L 500.921671 120.354063 
L 500.921671 117.316305 
L 502.366128 117.316305 
L 502.366128 116.960278 
L 503.810585 116.960278 
L 503.810585 111.665597 
L 505.255042 111.665597 
L 505.255042 113.316353 
L 506.699499 113.316353 
L 506.699499 120.943748 
L 508.143955 120.943748 
L 508.143955 114.855218 
L 509.588412 114.855218 
L 509.588412 112.279456 
L 511.032869 112.279456 
L 511.032869 112.335606 
L 512.477326 112.335606 
L 512.477326 109.48453 
L 513.921783 109.48453 
L 513.921783 119.721835 
L 515.36624 119.721835 
L 515.36624 118.152073 
L 516.810696 118.152073 
L 516.810696 118.704187 
L 518.255153 118.704187 
L 518.255153 113.43618 
L 519.69961 113.43618 
L 519.69961 111.298722 
L 521.144067 111.298722 
L 521.144067 106.348228 
L 522.588524 106.348228 
L 522.588524 112.991683 
L 524.032981 112.991683 
L 524.032981 111.211212 
L 525.477437 111.211212 
L 525.477437 114.444195 
L 526.921894 114.444195 
L 526.921894 121.212436 
L 528.366351 121.212436 
L 528.366351 117.981096 
L 529.810808 117.981096 
L 529.810808 120.538358 
L 531.255265 120.538358 
L 531.255265 121.829043 
L 532.699721 121.829043 
L 532.699721 113.312552 
L 534.144178 113.312552 
L 534.144178 115.477026 
L 535.588635 115.477026 
L 535.588635 106.645245 
L 536.310864 106.645245 
L 536.310864 103.96 
L 536.310864 103.96 
L 535.588635 103.96 
L 535.588635 103.96 
L 534.144178 103.96 
L 534.144178 103.96 
L 532.699721 103.96 
L 532.699721 103.96 
L 531.255265 103.96 
L 531.255265 103.96 
L 529.810808 103.96 
L 529.810808 103.96 
L 528.366351 103.96 
L 528.366351 103.96 
L 526.921894 103.96 
L 526.921894 103.96 
L 525.477437 103.96 
L 525.477437 103.96 
L 524.032981 103.96 
L 524.032981 103.96 
L 522.588524 103.96 
L 522.588524 103.96 
L 521.144067 103.96 
L 521.144067 103.96 
L 519.69961 103.96 
L 519.69961 103.96 
L 518.255153 103.96 
L 518.255153 103.96 
L 516.810696 103.96 
L 516.810696 103.96 
L 515.36624 103.96 
L 515.36624 103.96 
L 513.921783 103.96 
L 513.921783 103.96 
L 512.477326 103.96 
L 512.477326 103.96 
L 511.032869 103.96 
L 511.032869 103.96 
L 509.588412 103.96 
L 509.588412 103.96 
L 508.143955 103.96 
L 508.143955 103.96 
L 506.699499 103.96 
L 506.699499 103.96 
L 505.255042 103.96 
L 505.255042 103.96 
L 503.810585 103.96 
L 503.810585 103.96 
L 502.366128 103.96 
L 502.366128 103.96 
L 500.921671 103.96 
L 500.921671 103.96 
L 499.477214 103.96 
L 499.477214 103.96 
L 498.032758 103.96 
L 498.032758 103.96 
L 496.588301 103.96 
L 496.588301 103.96 
L 495.143844 103.96 
L 495.143844 103.96 
L 493.699387 103.96 
L 493.699387 103.96 
L 492.25493 103.96 
L 492.25493 103.96 
L 490.810474 103.96 
L 490.810474 103.96 
L 489.366017 103.96 
L 489.366017 103.96 
L 487.92156 103.96 
L 487.92156 103.96 
L 486.477103 103.96 
L 486.477103 103.96 
L 485.032646 103.96 
L 485.032646 103.96 
L 483.588189 103.96 
L 483.588189 103.96 
L 482.143733 103.96 
L 482.143733 103.96 
L 480.699276 103.96 
L 480.699276 103.96 
L 479.254819 103.96 
L 479.254819 103.96 
L 477.810362 103.96 
L 477.810362 103.96 
L 476.365905 103.96 
L 476.365905 103.96 
L 474.921448 103.96 
L 474.921448 103.96 
L 473.476992 103.96 
L 473.476992 103.96 
L 472.032535 103.96 
L 472.032535 103.96 
L 470.588078 103.96 
L 470.588078 103.96 
L 469.143621 103.96 
L 469.143621 103.96 
L 467.699164 103.96 
L 467.699164 103.96 
L 466.254708 103.96 
L 466.254708 103.96 
L 465.532479 103.96 
z
" clip-path="url(#p2c90077738)" style="fill: #d62728; fill-opacity: 0.6; stroke: #b22222; stroke-opacity: 0.8; stroke-width: 1.5"/>
    <path d="M 539.199777 103.96 
L 539.199777 106.994839 
L 539.199777 106.994839 
L 539.199777 103.96 
L 539.199777 103.96 
L 539.199777 103.96 
z
" clip-path="url(#p2c90077738)" style="fill: #d62728; fill-opacity: 0.6; stroke: #b22222; stroke-opacity: 0.8; stroke-width: 1.5"/>
   </g>
   <g id="matplotlib.axis_1">
    <g id="xtick_1">
     <g id="line2d_1">
      <defs>
       <path id="m2bd2e1ba06" d="M 0 0 
L 0 3.5 
" style="stroke: #000000; stroke-width: 0.8"/>
      </defs>
      <g>
       <use xlink:href="#m2bd2e1ba06" x="115.973928" y="169.4" style="stroke: #000000; stroke-width: 0.8"/>
      </g>
     </g>
     <g id="text_1">
      <!-- 1995 -->
      <g transform="translate(103.248928 183.998438) scale(0.1 -0.1)">
       <defs>
        <path id="DejaVuSans-31" d="M 794 531 
L 1825 531 
L 1825 4091 
L 703 3866 
L 703 4441 
L 1819 4666 
L 2450 4666 
L 2450 531 
L 3481 531 
L 3481 0 
L 794 0 
L 794 531 
z
" transform="scale(0.015625)"/>
        <path id="DejaVuSans-39" d="M 703 97 
L 703 672 
Q 941 559 1184 500 
Q 1428 441 1663 441 
Q 2288 441 2617 861 
Q 2947 1281 2994 2138 
Q 2813 1869 2534 1725 
Q 2256 1581 1919 1581 
Q 1219 1581 811 2004 
Q 403 2428 403 3163 
Q 403 3881 828 4315 
Q 1253 4750 1959 4750 
Q 2769 4750 3195 4129 
Q 3622 3509 3622 2328 
Q 3622 1225 3098 567 
Q 2575 -91 1691 -91 
Q 1453 -91 1209 -44 
Q 966 3 703 97 
z
M 1959 2075 
Q 2384 2075 2632 2365 
Q 2881 2656 2881 3163 
Q 2881 3666 2632 3958 
Q 2384 4250 1959 4250 
Q 1534 4250 1286 3958 
Q 1038 3666 1038 3163 
Q 1038 2656 1286 2365 
Q 1534 2075 1959 2075 
z
" transform="scale(0.015625)"/>
        <path id="DejaVuSans-35" d="M 691 4666 
L 3169 4666 
L 3169 4134 
L 1269 4134 
L 1269 2991 
Q 1406 3038 1543 3061 
Q 1681 3084 1819 3084 
Q 2600 3084 3056 2656 
Q 3513 2228 3513 1497 
Q 3513 744 3044 326 
Q 2575 -91 1722 -91 
Q 1428 -91 1123 -41 
Q 819 9 494 109 
L 494 744 
Q 775 591 1075 516 
Q 1375 441 1709 441 
Q 2250 441 2565 725 
Q 2881 1009 2881 1497 
Q 2881 1984 2565 2268 
Q 2250 2553 1709 2553 
Q 1456 2553 1204 2497 
Q 953 2441 691 2322 
L 691 4666 
z
" transform="scale(0.015625)"/>
       </defs>
       <use xlink:href="#DejaVuSans-31"/>
       <use xlink:href="#DejaVuSans-39" x="63.623047"/>
       <use xlink:href="#DejaVuSans-39" x="127.246094"/>
       <use xlink:href="#DejaVuSans-35" x="190.869141"/>
      </g>
     </g>
    </g>
    <g id="xtick_2">
     <g id="line2d_2">
      <g>
       <use xlink:href="#m2bd2e1ba06" x="202.641337" y="169.4" style="stroke: #000000; stroke-width: 0.8"/>
      </g>
     </g>
     <g id="text_2">
      <!-- 2000 -->
      <g transform="translate(189.916337 183.998438) scale(0.1 -0.1)">
       <defs>
        <path id="DejaVuSans-32" d="M 1228 531 
L 3431 531 
L 3431 0 
L 469 0 
L 469 531 
Q 828 903 1448 1529 
Q 2069 2156 2228 2338 
Q 2531 2678 2651 2914 
Q 2772 3150 2772 3378 
Q 2772 3750 2511 3984 
Q 2250 4219 1831 4219 
Q 1534 4219 1204 4116 
Q 875 4013 500 3803 
L 500 4441 
Q 881 4594 1212 4672 
Q 1544 4750 1819 4750 
Q 2544 4750 2975 4387 
Q 3406 4025 3406 3419 
Q 3406 3131 3298 2873 
Q 3191 2616 2906 2266 
Q 2828 2175 2409 1742 
Q 1991 1309 1228 531 
z
" transform="scale(0.015625)"/>
        <path id="DejaVuSans-30" d="M 2034 4250 
Q 1547 4250 1301 3770 
Q 1056 3291 1056 2328 
Q 1056 1369 1301 889 
Q 1547 409 2034 409 
Q 2525 409 2770 889 
Q 3016 1369 3016 2328 
Q 3016 3291 2770 3770 
Q 2525 4250 2034 4250 
z
M 2034 4750 
Q 2819 4750 3233 4129 
Q 3647 3509 3647 2328 
Q 3647 1150 3233 529 
Q 2819 -91 2034 -91 
Q 1250 -91 836 529 
Q 422 1150 422 2328 
Q 422 3509 836 4129 
Q 1250 4750 2034 4750 
z
" transform="scale(0.015625)"/>
       </defs>
       <use xlink:href="#DejaVuSans-32"/>
       <use xlink:href="#DejaVuSans-30" x="63.623047"/>
       <use xlink:href="#DejaVuSans-30" x="127.246094"/>
       <use xlink:href="#DejaVuSans-30" x="190.869141"/>
      </g>
     </g>
    </g>
    <g id="xtick_3">
     <g id="line2d_3">
      <g>
       <use xlink:href="#m2bd2e1ba06" x="289.308747" y="169.4" style="stroke: #000000; stroke-width: 0.8"/>
      </g>
     </g>
     <g id="text_3">
      <!-- 2005 -->
      <g transform="translate(276.583747 183.998438) scale(0.1 -0.1)">
       <use xlink:href="#DejaVuSans-32"/>
       <use xlink:href="#DejaVuSans-30" x="63.623047"/>
       <use xlink:href="#DejaVuSans-30" x="127.246094"/>
       <use xlink:href="#DejaVuSans-35" x="190.869141"/>
      </g>
     </g>
    </g>
    <g id="xtick_4">
     <g id="line2d_4">
      <g>
       <use xlink:href="#m2bd2e1ba06" x="375.976156" y="169.4" style="stroke: #000000; stroke-width: 0.8"/>
      </g>
     </g>
     <g id="text_4">
      <!-- 2010 -->
      <g transform="translate(363.251156 183.998438) scale(0.1 -0.1)">
       <use xlink:href="#DejaVuSans-32"/>
       <use xlink:href="#DejaVuSans-30" x="63.623047"/>
       <use xlink:href="#DejaVuSans-31" x="127.246094"/>
       <use xlink:href="#DejaVuSans-30" x="190.869141"/>
      </g>
     </g>
    </g>
    <g id="xtick_5">
     <g id="line2d_5">
      <g>
       <use xlink:href="#m2bd2e1ba06" x="462.643565" y="169.4" style="stroke: #000000; stroke-width: 0.8"/>
      </g>
     </g>
     <g id="text_5">
      <!-- 2015 -->
      <g transform="translate(449.918565 183.998438) scale(0.1 -0.1)">
       <use xlink:href="#DejaVuSans-32"/>
       <use xlink:href="#DejaVuSans-30" x="63.623047"/>
       <use xlink:href="#DejaVuSans-31" x="127.246094"/>
       <use xlink:href="#DejaVuSans-35" x="190.869141"/>
      </g>
     </g>
    </g>
    <g id="xtick_6">
     <g id="line2d_6">
      <g>
       <use xlink:href="#m2bd2e1ba06" x="549.310975" y="169.4" style="stroke: #000000; stroke-width: 0.8"/>
      </g>
     </g>
     <g id="text_6">
      <!-- 2020 -->
      <g transform="translate(536.585975 183.998438) scale(0.1 -0.1)">
       <use xlink:href="#DejaVuSans-32"/>
       <use xlink:href="#DejaVuSans-30" x="63.623047"/>
       <use xlink:href="#DejaVuSans-32" x="127.246094"/>
       <use xlink:href="#DejaVuSans-30" x="190.869141"/>
      </g>
     </g>
    </g>
   </g>
   <g id="matplotlib.axis_2">
    <g id="ytick_1">
     <g id="line2d_7">
      <defs>
       <path id="m9e0aa9a4b0" d="M 0 0 
L -3.5 0 
" style="stroke: #000000; stroke-width: 0.8"/>
      </defs>
      <g>
       <use xlink:href="#m9e0aa9a4b0" x="46.64" y="169.4" style="stroke: #000000; stroke-width: 0.8"/>
      </g>
     </g>
     <g id="text_7">
      <!-- −3 -->
      <g transform="translate(24.897813 173.199219) scale(0.1 -0.1)">
       <defs>
        <path id="DejaVuSans-2212" d="M 678 2272 
L 4684 2272 
L 4684 1741 
L 678 1741 
L 678 2272 
z
" transform="scale(0.015625)"/>
        <path id="DejaVuSans-33" d="M 2597 2516 
Q 3050 2419 3304 2112 
Q 3559 1806 3559 1356 
Q 3559 666 3084 287 
Q 2609 -91 1734 -91 
Q 1441 -91 1130 -33 
Q 819 25 488 141 
L 488 750 
Q 750 597 1062 519 
Q 1375 441 1716 441 
Q 2309 441 2620 675 
Q 2931 909 2931 1356 
Q 2931 1769 2642 2001 
Q 2353 2234 1838 2234 
L 1294 2234 
L 1294 2753 
L 1863 2753 
Q 2328 2753 2575 2939 
Q 2822 3125 2822 3475 
Q 2822 3834 2567 4026 
Q 2313 4219 1838 4219 
Q 1578 4219 1281 4162 
Q 984 4106 628 3988 
L 628 4550 
Q 988 4650 1302 4700 
Q 1616 4750 1894 4750 
Q 2613 4750 3031 4423 
Q 3450 4097 3450 3541 
Q 3450 3153 3228 2886 
Q 3006 2619 2597 2516 
z
" transform="scale(0.015625)"/>
       </defs>
       <use xlink:href="#DejaVuSans-2212"/>
       <use xlink:href="#DejaVuSans-33" x="83.789062"/>
      </g>
     </g>
    </g>
    <g id="ytick_2">
     <g id="line2d_8">
      <g>
       <use xlink:href="#m9e0aa9a4b0" x="46.64" y="147.586667" style="stroke: #000000; stroke-width: 0.8"/>
      </g>
     </g>
     <g id="text_8">
      <!-- −2 -->
      <g transform="translate(24.897813 151.385885) scale(0.1 -0.1)">
       <use xlink:href="#DejaVuSans-2212"/>
       <use xlink:href="#DejaVuSans-32" x="83.789062"/>
      </g>
     </g>
    </g>
    <g id="ytick_3">
     <g id="line2d_9">
      <g>
       <use xlink:href="#m9e0aa9a4b0" x="46.64" y="125.773333" style="stroke: #000000; stroke-width: 0.8"/>
      </g>
     </g>
     <g id="text_9">
      <!-- −1 -->
      <g transform="translate(24.897813 129.572552) scale(0.1 -0.1)">
       <use xlink:href="#DejaVuSans-2212"/>
       <use xlink:href="#DejaVuSans-31" x="83.789062"/>
      </g>
     </g>
    </g>
    <g id="ytick_4">
     <g id="line2d_10">
      <g>
       <use xlink:href="#m9e0aa9a4b0" x="46.64" y="103.96" style="stroke: #000000; stroke-width: 0.8"/>
      </g>
     </g>
     <g id="text_10">
      <!-- 0 -->
      <g transform="translate(33.2775 107.759219) scale(0.1 -0.1)">
       <use xlink:href="#DejaVuSans-30"/>
      </g>
     </g>
    </g>
    <g id="ytick_5">
     <g id="line2d_11">
      <g>
       <use xlink:href="#m9e0aa9a4b0" x="46.64" y="82.146667" style="stroke: #000000; stroke-width: 0.8"/>
      </g>
     </g>
     <g id="text_11">
      <!-- 1 -->
      <g transform="translate(33.2775 85.945885) scale(0.1 -0.1)">
       <use xlink:href="#DejaVuSans-31"/>
      </g>
     </g>
    </g>
    <g id="ytick_6">
     <g id="line2d_12">
      <g>
       <use xlink:href="#m9e0aa9a4b0" x="46.64" y="60.333333" style="stroke: #000000; stroke-width: 0.8"/>
      </g>
     </g>
     <g id="text_12">
      <!-- 2 -->
      <g transform="translate(33.2775 64.132552) scale(0.1 -0.1)">
       <use xlink:href="#DejaVuSans-32"/>
      </g>
     </g>
    </g>
    <g id="ytick_7">
     <g id="line2d_13">
      <g>
       <use xlink:href="#m9e0aa9a4b0" x="46.64" y="38.52" style="stroke: #000000; stroke-width: 0.8"/>
      </g>
     </g>
     <g id="text_13">
      <!-- 3 -->
      <g transform="translate(33.2775 42.319219) scale(0.1 -0.1)">
       <use xlink:href="#DejaVuSans-33"/>
      </g>
     </g>
    </g>
    <g id="text_14">
     <!-- Bitterroot -->
     <g transform="translate(18.818125 127.76625) rotate(-90) scale(0.1 -0.1)">
      <defs>
       <path id="DejaVuSans-42" d="M 1259 2228 
L 1259 519 
L 2272 519 
Q 2781 519 3026 730 
Q 3272 941 3272 1375 
Q 3272 1813 3026 2020 
Q 2781 2228 2272 2228 
L 1259 2228 
z
M 1259 4147 
L 1259 2741 
L 2194 2741 
Q 2656 2741 2882 2914 
Q 3109 3088 3109 3444 
Q 3109 3797 2882 3972 
Q 2656 4147 2194 4147 
L 1259 4147 
z
M 628 4666 
L 2241 4666 
Q 2963 4666 3353 4366 
Q 3744 4066 3744 3513 
Q 3744 3084 3544 2831 
Q 3344 2578 2956 2516 
Q 3422 2416 3680 2098 
Q 3938 1781 3938 1306 
Q 3938 681 3513 340 
Q 3088 0 2303 0 
L 628 0 
L 628 4666 
z
" transform="scale(0.015625)"/>
       <path id="DejaVuSans-69" d="M 603 3500 
L 1178 3500 
L 1178 0 
L 603 0 
L 603 3500 
z
M 603 4863 
L 1178 4863 
L 1178 4134 
L 603 4134 
L 603 4863 
z
" transform="scale(0.015625)"/>
       <path id="DejaVuSans-74" d="M 1172 4494 
L 1172 3500 
L 2356 3500 
L 2356 3053 
L 1172 3053 
L 1172 1153 
Q 1172 725 1289 603 
Q 1406 481 1766 481 
L 2356 481 
L 2356 0 
L 1766 0 
Q 1100 0 847 248 
Q 594 497 594 1153 
L 594 3053 
L 172 3053 
L 172 3500 
L 594 3500 
L 594 4494 
L 1172 4494 
z
" transform="scale(0.015625)"/>
       <path id="DejaVuSans-65" d="M 3597 1894 
L 3597 1613 
L 953 1613 
Q 991 1019 1311 708 
Q 1631 397 2203 397 
Q 2534 397 2845 478 
Q 3156 559 3463 722 
L 3463 178 
Q 3153 47 2828 -22 
Q 2503 -91 2169 -91 
Q 1331 -91 842 396 
Q 353 884 353 1716 
Q 353 2575 817 3079 
Q 1281 3584 2069 3584 
Q 2775 3584 3186 3129 
Q 3597 2675 3597 1894 
z
M 3022 2063 
Q 3016 2534 2758 2815 
Q 2500 3097 2075 3097 
Q 1594 3097 1305 2825 
Q 1016 2553 972 2059 
L 3022 2063 
z
" transform="scale(0.015625)"/>
       <path id="DejaVuSans-72" d="M 2631 2963 
Q 2534 3019 2420 3045 
Q 2306 3072 2169 3072 
Q 1681 3072 1420 2755 
Q 1159 2438 1159 1844 
L 1159 0 
L 581 0 
L 581 3500 
L 1159 3500 
L 1159 2956 
Q 1341 3275 1631 3429 
Q 1922 3584 2338 3584 
Q 2397 3584 2469 3576 
Q 2541 3569 2628 3553 
L 2631 2963 
z
" transform="scale(0.015625)"/>
       <path id="DejaVuSans-6f" d="M 1959 3097 
Q 1497 3097 1228 2736 
Q 959 2375 959 1747 
Q 959 1119 1226 758 
Q 1494 397 1959 397 
Q 2419 397 2687 759 
Q 2956 1122 2956 1747 
Q 2956 2369 2687 2733 
Q 2419 3097 1959 3097 
z
M 1959 3584 
Q 2709 3584 3137 3096 
Q 3566 2609 3566 1747 
Q 3566 888 3137 398 
Q 2709 -91 1959 -91 
Q 1206 -91 779 398 
Q 353 888 353 1747 
Q 353 2609 779 3096 
Q 1206 3584 1959 3584 
z
" transform="scale(0.015625)"/>
      </defs>
      <use xlink:href="#DejaVuSans-42"/>
      <use xlink:href="#DejaVuSans-69" x="68.603516"/>
      <use xlink:href="#DejaVuSans-74" x="96.386719"/>
      <use xlink:href="#DejaVuSans-74" x="135.595703"/>
      <use xlink:href="#DejaVuSans-65" x="174.804688"/>
      <use xlink:href="#DejaVuSans-72" x="236.328125"/>
      <use xlink:href="#DejaVuSans-72" x="275.691406"/>
      <use xlink:href="#DejaVuSans-6f" x="314.554688"/>
      <use xlink:href="#DejaVuSans-6f" x="375.736328"/>
      <use xlink:href="#DejaVuSans-74" x="436.917969"/>
     </g>
    </g>
   </g>
   <g id="line2d_14">
    <path d="M 46.64 103.96 
L 565.2 103.96 
" clip-path="url(#p2c90077738)" style="fill: none; stroke: #000000; stroke-width: 1.5; stroke-linecap: square"/>
   </g>
   <g id="patch_3">
    <path d="M 46.64 169.4 
L 46.64 38.52 
" style="fill: none; stroke: #000000; stroke-width: 0.8; stroke-linejoin: miter; stroke-linecap: square"/>
   </g>
   <g id="patch_4">
    <path d="M 46.64 169.4 
L 565.2 169.4 
" style="fill: none; stroke: #000000; stroke-width: 0.8; stroke-linejoin: miter; stroke-linecap: square"/>
   </g>
  </g>
  <g id="axes_2">
   <g id="patch_5">
    <path d="M 46.64 332.12 
L 565.2 332.12 
L 565.2 201.24 
L 46.64 201.24 
z
" style="fill: #ffffff"/>
   </g>
   <g id="PolyCollection_3">
    <path d="M 74.08468 266.68 
L 74.08468 264.316874 
L 74.806908 264.316874 
L 74.806908 262.098203 
L 76.251365 262.098203 
L 76.251365 266.492522 
L 76.973593 266.492522 
L 76.973593 266.68 
L 76.973593 266.68 
L 76.251365 266.68 
L 76.251365 266.68 
L 74.806908 266.68 
L 74.806908 266.68 
L 74.08468 266.68 
z
" clip-path="url(#p0a859d88ef)" style="fill: #17becf; fill-opacity: 0.6; stroke: #1f77b4; stroke-opacity: 0.8; stroke-width: 1.5"/>
    <path d="M 81.306964 266.68 
L 81.306964 264.173713 
L 82.029192 264.173713 
L 82.029192 265.853653 
L 83.473649 265.853653 
L 83.473649 265.991325 
L 84.918106 265.991325 
L 84.918106 263.682083 
L 86.362563 263.682083 
L 86.362563 261.720873 
L 87.807019 261.720873 
L 87.807019 259.755945 
L 89.251476 259.755945 
L 89.251476 253.982027 
L 90.695933 253.982027 
L 90.695933 251.973688 
L 92.14039 251.973688 
L 92.14039 251.705651 
L 93.584847 251.705651 
L 93.584847 250.466533 
L 95.029304 250.466533 
L 95.029304 249.593899 
L 96.47376 249.593899 
L 96.47376 249.593899 
L 97.918217 249.593899 
L 97.918217 251.968014 
L 99.362674 251.968014 
L 99.362674 252.837019 
L 100.807131 252.837019 
L 100.807131 253.595263 
L 102.251588 253.595263 
L 102.251588 251.974389 
L 103.696045 251.974389 
L 103.696045 254.199502 
L 105.140501 254.199502 
L 105.140501 255.631265 
L 106.584958 255.631265 
L 106.584958 257.301438 
L 108.029415 257.301438 
L 108.029415 256.283328 
L 109.473872 256.283328 
L 109.473872 256.283328 
L 110.918329 256.283328 
L 110.918329 255.561852 
L 112.362786 255.561852 
L 112.362786 256.280589 
L 113.807242 256.280589 
L 113.807242 252.426746 
L 115.251699 252.426746 
L 115.251699 249.600041 
L 116.696156 249.600041 
L 116.696156 253.359488 
L 118.140613 253.359488 
L 118.140613 252.016556 
L 119.58507 252.016556 
L 119.58507 249.593899 
L 121.029526 249.593899 
L 121.029526 249.834937 
L 122.473983 249.834937 
L 122.473983 245.234683 
L 123.91844 245.234683 
L 123.91844 243.199213 
L 125.362897 243.199213 
L 125.362897 240.679979 
L 126.807354 240.679979 
L 126.807354 236.507086 
L 128.251811 236.507086 
L 128.251811 236.142059 
L 129.696267 236.142059 
L 129.696267 231.374833 
L 131.140724 231.374833 
L 131.140724 233.120514 
L 132.585181 233.120514 
L 132.585181 230.79332 
L 134.029638 230.79332 
L 134.029638 231.571311 
L 135.474095 231.571311 
L 135.474095 231.94739 
L 136.918552 231.94739 
L 136.918552 228.613965 
L 138.363008 228.613965 
L 138.363008 220.798457 
L 139.807465 220.798457 
L 139.807465 235.547652 
L 141.251922 235.547652 
L 141.251922 239.977037 
L 142.696379 239.977037 
L 142.696379 230.792454 
L 144.140836 230.792454 
L 144.140836 230.792454 
L 145.585292 230.792454 
L 145.585292 237.754695 
L 147.029749 237.754695 
L 147.029749 236.101362 
L 148.474206 236.101362 
L 148.474206 234.696382 
L 149.918663 234.696382 
L 149.918663 236.506504 
L 151.36312 236.506504 
L 151.36312 236.467358 
L 152.807577 236.467358 
L 152.807577 240.808974 
L 154.252033 240.808974 
L 154.252033 240.679977 
L 155.69649 240.679977 
L 155.69649 243.591913 
L 157.140947 243.591913 
L 157.140947 249.173895 
L 158.585404 249.173895 
L 158.585404 250.036723 
L 160.029861 250.036723 
L 160.029861 246.033987 
L 161.474318 246.033987 
L 161.474318 246.335116 
L 162.918774 246.335116 
L 162.918774 240.504112 
L 164.363231 240.504112 
L 164.363231 240.679979 
L 165.807688 240.679979 
L 165.807688 240.679979 
L 167.252145 240.679979 
L 167.252145 240.679979 
L 168.696602 240.679979 
L 168.696602 240.284799 
L 170.141058 240.284799 
L 170.141058 233.80148 
L 171.585515 233.80148 
L 171.585515 224.337553 
L 173.029972 224.337553 
L 173.029972 230.984874 
L 174.474429 230.984874 
L 174.474429 222.982804 
L 175.918886 222.982804 
L 175.918886 226.374803 
L 177.363343 226.374803 
L 177.363343 220.250578 
L 178.807799 220.250578 
L 178.807799 220.250578 
L 180.252256 220.250578 
L 180.252256 220.265257 
L 181.696713 220.265257 
L 181.696713 220.250578 
L 183.14117 220.250578 
L 183.14117 220.250578 
L 184.585627 220.250578 
L 184.585627 220.250578 
L 186.030084 220.250578 
L 186.030084 220.250578 
L 187.47454 220.250578 
L 187.47454 230.393547 
L 188.918997 230.393547 
L 188.918997 236.507089 
L 190.363454 236.507089 
L 190.363454 236.223116 
L 191.807911 236.223116 
L 191.807911 238.015343 
L 193.252368 238.015343 
L 193.252368 244.271653 
L 194.696825 244.271653 
L 194.696825 236.507086 
L 196.141281 236.507086 
L 196.141281 240.679979 
L 197.585738 240.679979 
L 197.585738 246.679461 
L 199.030195 246.679461 
L 199.030195 246.990805 
L 200.474652 246.990805 
L 200.474652 246.990805 
L 201.919109 246.990805 
L 201.919109 246.990805 
L 203.363565 246.990805 
L 203.363565 248.01834 
L 204.808022 248.01834 
L 204.808022 249.652946 
L 206.252479 249.652946 
L 206.252479 257.479567 
L 207.696936 257.479567 
L 207.696936 251.780584 
L 209.141393 251.780584 
L 209.141393 251.313263 
L 210.58585 251.313263 
L 210.58585 252.476571 
L 212.030306 252.476571 
L 212.030306 254.189761 
L 213.474763 254.189761 
L 213.474763 254.189761 
L 214.91922 254.189761 
L 214.91922 253.875024 
L 216.363677 253.875024 
L 216.363677 254.192601 
L 217.808134 254.192601 
L 217.808134 256.283328 
L 219.252591 256.283328 
L 219.252591 254.189761 
L 220.697047 254.189761 
L 220.697047 256.283328 
L 222.141504 256.283328 
L 222.141504 256.130719 
L 223.585961 256.130719 
L 223.585961 255.158688 
L 225.030418 255.158688 
L 225.030418 261.865291 
L 225.752646 261.865291 
L 225.752646 266.68 
L 225.752646 266.68 
L 225.030418 266.68 
L 225.030418 266.68 
L 223.585961 266.68 
L 223.585961 266.68 
L 222.141504 266.68 
L 222.141504 266.68 
L 220.697047 266.68 
L 220.697047 266.68 
L 219.252591 266.68 
L 219.252591 266.68 
L 217.808134 266.68 
L 217.808134 266.68 
L 216.363677 266.68 
L 216.363677 266.68 
L 214.91922 266.68 
L 214.91922 266.68 
L 213.474763 266.68 
L 213.474763 266.68 
L 212.030306 266.68 
L 212.030306 266.68 
L 210.58585 266.68 
L 210.58585 266.68 
L 209.141393 266.68 
L 209.141393 266.68 
L 207.696936 266.68 
L 207.696936 266.68 
L 206.252479 266.68 
L 206.252479 266.68 
L 204.808022 266.68 
L 204.808022 266.68 
L 203.363565 266.68 
L 203.363565 266.68 
L 201.919109 266.68 
L 201.919109 266.68 
L 200.474652 266.68 
L 200.474652 266.68 
L 199.030195 266.68 
L 199.030195 266.68 
L 197.585738 266.68 
L 197.585738 266.68 
L 196.141281 266.68 
L 196.141281 266.68 
L 194.696825 266.68 
L 194.696825 266.68 
L 193.252368 266.68 
L 193.252368 266.68 
L 191.807911 266.68 
L 191.807911 266.68 
L 190.363454 266.68 
L 190.363454 266.68 
L 188.918997 266.68 
L 188.918997 266.68 
L 187.47454 266.68 
L 187.47454 266.68 
L 186.030084 266.68 
L 186.030084 266.68 
L 184.585627 266.68 
L 184.585627 266.68 
L 183.14117 266.68 
L 183.14117 266.68 
L 181.696713 266.68 
L 181.696713 266.68 
L 180.252256 266.68 
L 180.252256 266.68 
L 178.807799 266.68 
L 178.807799 266.68 
L 177.363343 266.68 
L 177.363343 266.68 
L 175.918886 266.68 
L 175.918886 266.68 
L 174.474429 266.68 
L 174.474429 266.68 
L 173.029972 266.68 
L 173.029972 266.68 
L 171.585515 266.68 
L 171.585515 266.68 
L 170.141058 266.68 
L 170.141058 266.68 
L 168.696602 266.68 
L 168.696602 266.68 
L 167.252145 266.68 
L 167.252145 266.68 
L 165.807688 266.68 
L 165.807688 266.68 
L 164.363231 266.68 
L 164.363231 266.68 
L 162.918774 266.68 
L 162.918774 266.68 
L 161.474318 266.68 
L 161.474318 266.68 
L 160.029861 266.68 
L 160.029861 266.68 
L 158.585404 266.68 
L 158.585404 266.68 
L 157.140947 266.68 
L 157.140947 266.68 
L 155.69649 266.68 
L 155.69649 266.68 
L 154.252033 266.68 
L 154.252033 266.68 
L 152.807577 266.68 
L 152.807577 266.68 
L 151.36312 266.68 
L 151.36312 266.68 
L 149.918663 266.68 
L 149.918663 266.68 
L 148.474206 266.68 
L 148.474206 266.68 
L 147.029749 266.68 
L 147.029749 266.68 
L 145.585292 266.68 
L 145.585292 266.68 
L 144.140836 266.68 
L 144.140836 266.68 
L 142.696379 266.68 
L 142.696379 266.68 
L 141.251922 266.68 
L 141.251922 266.68 
L 139.807465 266.68 
L 139.807465 266.68 
L 138.363008 266.68 
L 138.363008 266.68 
L 136.918552 266.68 
L 136.918552 266.68 
L 135.474095 266.68 
L 135.474095 266.68 
L 134.029638 266.68 
L 134.029638 266.68 
L 132.585181 266.68 
L 132.585181 266.68 
L 131.140724 266.68 
L 131.140724 266.68 
L 129.696267 266.68 
L 129.696267 266.68 
L 128.251811 266.68 
L 128.251811 266.68 
L 126.807354 266.68 
L 126.807354 266.68 
L 125.362897 266.68 
L 125.362897 266.68 
L 123.91844 266.68 
L 123.91844 266.68 
L 122.473983 266.68 
L 122.473983 266.68 
L 121.029526 266.68 
L 121.029526 266.68 
L 119.58507 266.68 
L 119.58507 266.68 
L 118.140613 266.68 
L 118.140613 266.68 
L 116.696156 266.68 
L 116.696156 266.68 
L 115.251699 266.68 
L 115.251699 266.68 
L 113.807242 266.68 
L 113.807242 266.68 
L 112.362786 266.68 
L 112.362786 266.68 
L 110.918329 266.68 
L 110.918329 266.68 
L 109.473872 266.68 
L 109.473872 266.68 
L 108.029415 266.68 
L 108.029415 266.68 
L 106.584958 266.68 
L 106.584958 266.68 
L 105.140501 266.68 
L 105.140501 266.68 
L 103.696045 266.68 
L 103.696045 266.68 
L 102.251588 266.68 
L 102.251588 266.68 
L 100.807131 266.68 
L 100.807131 266.68 
L 99.362674 266.68 
L 99.362674 266.68 
L 97.918217 266.68 
L 97.918217 266.68 
L 96.47376 266.68 
L 96.47376 266.68 
L 95.029304 266.68 
L 95.029304 266.68 
L 93.584847 266.68 
L 93.584847 266.68 
L 92.14039 266.68 
L 92.14039 266.68 
L 90.695933 266.68 
L 90.695933 266.68 
L 89.251476 266.68 
L 89.251476 266.68 
L 87.807019 266.68 
L 87.807019 266.68 
L 86.362563 266.68 
L 86.362563 266.68 
L 84.918106 266.68 
L 84.918106 266.68 
L 83.473649 266.68 
L 83.473649 266.68 
L 82.029192 266.68 
L 82.029192 266.68 
L 81.306964 266.68 
z
" clip-path="url(#p0a859d88ef)" style="fill: #17becf; fill-opacity: 0.6; stroke: #1f77b4; stroke-opacity: 0.8; stroke-width: 1.5"/>
    <path d="M 299.419944 266.68 
L 299.419944 262.094691 
L 300.142173 262.094691 
L 300.142173 263.945023 
L 301.58663 263.945023 
L 301.58663 262.583689 
L 303.031086 262.583689 
L 303.031086 260.216616 
L 304.475543 260.216616 
L 304.475543 260.298892 
L 305.92 260.298892 
L 305.92 258.284548 
L 307.364457 258.284548 
L 307.364457 258.284548 
L 308.808914 258.284548 
L 308.808914 258.795683 
L 310.25337 258.795683 
L 310.25337 260.216615 
L 311.697827 260.216615 
L 311.697827 260.206983 
L 313.142284 260.206983 
L 313.142284 264.73095 
L 313.864513 264.73095 
L 313.864513 266.68 
L 313.864513 266.68 
L 313.142284 266.68 
L 313.142284 266.68 
L 311.697827 266.68 
L 311.697827 266.68 
L 310.25337 266.68 
L 310.25337 266.68 
L 308.808914 266.68 
L 308.808914 266.68 
L 307.364457 266.68 
L 307.364457 266.68 
L 305.92 266.68 
L 305.92 266.68 
L 304.475543 266.68 
L 304.475543 266.68 
L 303.031086 266.68 
L 303.031086 266.68 
L 301.58663 266.68 
L 301.58663 266.68 
L 300.142173 266.68 
L 300.142173 266.68 
L 299.419944 266.68 
z
" clip-path="url(#p0a859d88ef)" style="fill: #17becf; fill-opacity: 0.6; stroke: #1f77b4; stroke-opacity: 0.8; stroke-width: 1.5"/>
    <path d="M 319.64234 266.68 
L 319.64234 261.781946 
L 320.364568 261.781946 
L 320.364568 262.09821 
L 321.809025 262.09821 
L 321.809025 263.945023 
L 323.253482 263.945023 
L 323.253482 265.543791 
L 324.697939 265.543791 
L 324.697939 263.945014 
L 325.420167 263.945014 
L 325.420167 266.68 
L 325.420167 266.68 
L 324.697939 266.68 
L 324.697939 266.68 
L 323.253482 266.68 
L 323.253482 266.68 
L 321.809025 266.68 
L 321.809025 266.68 
L 320.364568 266.68 
L 320.364568 266.68 
L 319.64234 266.68 
z
" clip-path="url(#p0a859d88ef)" style="fill: #17becf; fill-opacity: 0.6; stroke: #1f77b4; stroke-opacity: 0.8; stroke-width: 1.5"/>
    <path d="M 335.531365 266.68 
L 335.531365 265.770906 
L 336.253593 265.770906 
L 336.253593 263.361554 
L 337.69805 263.361554 
L 337.69805 266.352565 
L 339.142507 266.352565 
L 339.142507 265.770906 
L 340.586964 265.770906 
L 340.586964 262.098203 
L 342.031421 262.098203 
L 342.031421 262.068123 
L 343.475877 262.068123 
L 343.475877 262.093703 
L 344.920334 262.093703 
L 344.920334 262.364567 
L 346.364791 262.364567 
L 346.364791 262.114689 
L 347.809248 262.114689 
L 347.809248 266.22741 
L 348.531476 266.22741 
L 348.531476 266.68 
L 348.531476 266.68 
L 347.809248 266.68 
L 347.809248 266.68 
L 346.364791 266.68 
L 346.364791 266.68 
L 344.920334 266.68 
L 344.920334 266.68 
L 343.475877 266.68 
L 343.475877 266.68 
L 342.031421 266.68 
L 342.031421 266.68 
L 340.586964 266.68 
L 340.586964 266.68 
L 339.142507 266.68 
L 339.142507 266.68 
L 337.69805 266.68 
L 337.69805 266.68 
L 336.253593 266.68 
L 336.253593 266.68 
L 335.531365 266.68 
z
" clip-path="url(#p0a859d88ef)" style="fill: #17becf; fill-opacity: 0.6; stroke: #1f77b4; stroke-opacity: 0.8; stroke-width: 1.5"/>
    <path d="M 399.087465 266.68 
L 399.087465 265.98117 
L 399.809694 265.98117 
L 399.809694 262.39293 
L 401.25415 262.39293 
L 401.25415 263.711927 
L 402.698607 263.711927 
L 402.698607 260.220207 
L 403.420836 260.220207 
L 403.420836 266.68 
L 403.420836 266.68 
L 402.698607 266.68 
L 402.698607 266.68 
L 401.25415 266.68 
L 401.25415 266.68 
L 399.809694 266.68 
L 399.809694 266.68 
L 399.087465 266.68 
z
" clip-path="url(#p0a859d88ef)" style="fill: #17becf; fill-opacity: 0.6; stroke: #1f77b4; stroke-opacity: 0.8; stroke-width: 1.5"/>
    <path d="M 413.532033 266.68 
L 413.532033 265.531739 
L 413.532033 265.531739 
L 413.532033 266.68 
L 413.532033 266.68 
L 413.532033 266.68 
z
" clip-path="url(#p0a859d88ef)" style="fill: #17becf; fill-opacity: 0.6; stroke: #1f77b4; stroke-opacity: 0.8; stroke-width: 1.5"/>
    <path d="M 501.6439 266.68 
L 501.6439 265.946877 
L 501.6439 265.946877 
L 501.6439 266.68 
L 501.6439 266.68 
L 501.6439 266.68 
z
" clip-path="url(#p0a859d88ef)" style="fill: #17becf; fill-opacity: 0.6; stroke: #1f77b4; stroke-opacity: 0.8; stroke-width: 1.5"/>
    <path d="M 504.532813 266.68 
L 504.532813 265.637042 
L 505.255042 265.637042 
L 505.255042 265.633716 
L 506.699499 265.633716 
L 506.699499 265.401393 
L 508.143955 265.401393 
L 508.143955 260.216616 
L 509.588412 260.216616 
L 509.588412 265.478319 
L 511.032869 265.478319 
L 511.032869 263.945016 
L 512.477326 263.945016 
L 512.477326 262.017673 
L 513.921783 262.017673 
L 513.921783 260.216616 
L 515.36624 260.216616 
L 515.36624 260.247404 
L 516.810696 260.247404 
L 516.810696 259.959487 
L 518.255153 259.959487 
L 518.255153 256.181446 
L 519.69961 256.181446 
L 519.69961 256.24205 
L 521.144067 256.24205 
L 521.144067 254.592239 
L 522.588524 254.592239 
L 522.588524 261.9289 
L 524.032981 261.9289 
L 524.032981 258.284548 
L 525.477437 258.284548 
L 525.477437 258.284548 
L 526.921894 258.284548 
L 526.921894 259.560623 
L 528.366351 259.560623 
L 528.366351 258.284548 
L 529.810808 258.284548 
L 529.810808 258.284548 
L 531.255265 258.284548 
L 531.255265 256.283328 
L 532.699721 256.283328 
L 532.699721 248.628265 
L 534.144178 248.628265 
L 534.144178 248.660246 
L 535.588635 248.660246 
L 535.588635 246.990805 
L 537.033092 246.990805 
L 537.033092 246.519298 
L 538.477549 246.519298 
L 538.477549 248.819049 
L 539.922006 248.819049 
L 539.922006 247.551873 
L 541.366462 247.551873 
L 541.366462 249.593899 
L 542.810919 249.593899 
L 542.810919 244.795811 
L 544.255376 244.795811 
L 544.255376 242.940651 
L 545.699833 242.940651 
L 545.699833 244.071975 
L 547.14429 244.071975 
L 547.14429 244.071975 
L 548.588747 244.071975 
L 548.588747 244.071975 
L 550.033203 244.071975 
L 550.033203 244.071975 
L 551.47766 244.071975 
L 551.47766 242.198521 
L 552.922117 242.198521 
L 552.922117 244.071975 
L 554.366574 244.071975 
L 554.366574 241.846863 
L 555.811031 241.846863 
L 555.811031 240.110255 
L 557.255487 240.110255 
L 557.255487 242.132241 
L 558.699944 242.132241 
L 558.699944 245.113807 
L 560.144401 245.113807 
L 560.144401 249.881438 
L 561.588858 249.881438 
L 561.588858 251.004812 
L 563.033315 251.004812 
L 563.033315 251.973732 
L 564.477772 251.973732 
L 564.477772 253.759139 
L 565.2 253.759139 
L 565.2 266.68 
L 565.2 266.68 
L 564.477772 266.68 
L 564.477772 266.68 
L 563.033315 266.68 
L 563.033315 266.68 
L 561.588858 266.68 
L 561.588858 266.68 
L 560.144401 266.68 
L 560.144401 266.68 
L 558.699944 266.68 
L 558.699944 266.68 
L 557.255487 266.68 
L 557.255487 266.68 
L 555.811031 266.68 
L 555.811031 266.68 
L 554.366574 266.68 
L 554.366574 266.68 
L 552.922117 266.68 
L 552.922117 266.68 
L 551.47766 266.68 
L 551.47766 266.68 
L 550.033203 266.68 
L 550.033203 266.68 
L 548.588747 266.68 
L 548.588747 266.68 
L 547.14429 266.68 
L 547.14429 266.68 
L 545.699833 266.68 
L 545.699833 266.68 
L 544.255376 266.68 
L 544.255376 266.68 
L 542.810919 266.68 
L 542.810919 266.68 
L 541.366462 266.68 
L 541.366462 266.68 
L 539.922006 266.68 
L 539.922006 266.68 
L 538.477549 266.68 
L 538.477549 266.68 
L 537.033092 266.68 
L 537.033092 266.68 
L 535.588635 266.68 
L 535.588635 266.68 
L 534.144178 266.68 
L 534.144178 266.68 
L 532.699721 266.68 
L 532.699721 266.68 
L 531.255265 266.68 
L 531.255265 266.68 
L 529.810808 266.68 
L 529.810808 266.68 
L 528.366351 266.68 
L 528.366351 266.68 
L 526.921894 266.68 
L 526.921894 266.68 
L 525.477437 266.68 
L 525.477437 266.68 
L 524.032981 266.68 
L 524.032981 266.68 
L 522.588524 266.68 
L 522.588524 266.68 
L 521.144067 266.68 
L 521.144067 266.68 
L 519.69961 266.68 
L 519.69961 266.68 
L 518.255153 266.68 
L 518.255153 266.68 
L 516.810696 266.68 
L 516.810696 266.68 
L 515.36624 266.68 
L 515.36624 266.68 
L 513.921783 266.68 
L 513.921783 266.68 
L 512.477326 266.68 
L 512.477326 266.68 
L 511.032869 266.68 
L 511.032869 266.68 
L 509.588412 266.68 
L 509.588412 266.68 
L 508.143955 266.68 
L 508.143955 266.68 
L 506.699499 266.68 
L 506.699499 266.68 
L 505.255042 266.68 
L 505.255042 266.68 
L 504.532813 266.68 
z
" clip-path="url(#p0a859d88ef)" style="fill: #17becf; fill-opacity: 0.6; stroke: #1f77b4; stroke-opacity: 0.8; stroke-width: 1.5"/>
   </g>
   <g id="PolyCollection_4">
    <path d="M 46.64 266.68 
L 46.64 289.288837 
L 47.362228 289.288837 
L 47.362228 297.29983 
L 48.806685 297.29983 
L 48.806685 276.73206 
L 50.251142 276.73206 
L 50.251142 277.076672 
L 51.695599 277.076672 
L 51.695599 272.715101 
L 53.140056 272.715101 
L 53.140056 282.111173 
L 54.584513 282.111173 
L 54.584513 286.948461 
L 56.028969 286.948461 
L 56.028969 292.934919 
L 57.473426 292.934919 
L 57.473426 283.766101 
L 58.917883 283.766101 
L 58.917883 284.884764 
L 60.36234 284.884764 
L 60.36234 283.534437 
L 61.806797 283.534437 
L 61.806797 286.369195 
L 63.251253 286.369195 
L 63.251253 282.838991 
L 64.69571 282.838991 
L 64.69571 284.303242 
L 66.140167 284.303242 
L 66.140167 285.630072 
L 67.584624 285.630072 
L 67.584624 291.672386 
L 69.029081 291.672386 
L 69.029081 278.917071 
L 70.473538 278.917071 
L 70.473538 273.438628 
L 71.917994 273.438628 
L 71.917994 267.332319 
L 72.640223 267.332319 
L 72.640223 266.68 
L 72.640223 266.68 
L 71.917994 266.68 
L 71.917994 266.68 
L 70.473538 266.68 
L 70.473538 266.68 
L 69.029081 266.68 
L 69.029081 266.68 
L 67.584624 266.68 
L 67.584624 266.68 
L 66.140167 266.68 
L 66.140167 266.68 
L 64.69571 266.68 
L 64.69571 266.68 
L 63.251253 266.68 
L 63.251253 266.68 
L 61.806797 266.68 
L 61.806797 266.68 
L 60.36234 266.68 
L 60.36234 266.68 
L 58.917883 266.68 
L 58.917883 266.68 
L 57.473426 266.68 
L 57.473426 266.68 
L 56.028969 266.68 
L 56.028969 266.68 
L 54.584513 266.68 
L 54.584513 266.68 
L 53.140056 266.68 
L 53.140056 266.68 
L 51.695599 266.68 
L 51.695599 266.68 
L 50.251142 266.68 
L 50.251142 266.68 
L 48.806685 266.68 
L 48.806685 266.68 
L 47.362228 266.68 
L 47.362228 266.68 
L 46.64 266.68 
z
" clip-path="url(#p0a859d88ef)" style="fill: #d62728; fill-opacity: 0.6; stroke: #b22222; stroke-opacity: 0.8; stroke-width: 1.5"/>
    <path d="M 78.41805 266.68 
L 78.41805 267.007435 
L 79.140279 267.007435 
L 79.140279 267.589094 
L 79.862507 267.589094 
L 79.862507 266.68 
L 79.862507 266.68 
L 79.140279 266.68 
L 79.140279 266.68 
L 78.41805 266.68 
z
" clip-path="url(#p0a859d88ef)" style="fill: #d62728; fill-opacity: 0.6; stroke: #b22222; stroke-opacity: 0.8; stroke-width: 1.5"/>
    <path d="M 227.197103 266.68 
L 227.197103 268.016164 
L 227.919331 268.016164 
L 227.919331 269.972483 
L 229.363788 269.972483 
L 229.363788 271.26212 
L 230.808245 271.26212 
L 230.808245 273.136736 
L 232.252702 273.136736 
L 232.252702 275.841442 
L 233.697159 275.841442 
L 233.697159 277.076583 
L 235.141616 277.076583 
L 235.141616 278.021944 
L 236.586072 278.021944 
L 236.586072 276.752048 
L 238.030529 276.752048 
L 238.030529 277.422374 
L 239.474986 277.422374 
L 239.474986 282.991599 
L 240.919443 282.991599 
L 240.919443 280.311462 
L 242.3639 280.311462 
L 242.3639 301.356477 
L 243.808357 301.356477 
L 243.808357 291.264851 
L 245.252813 291.264851 
L 245.252813 286.690145 
L 246.69727 286.690145 
L 246.69727 289.288025 
L 248.141727 289.288025 
L 248.141727 292.680021 
L 249.586184 292.680021 
L 249.586184 293.604988 
L 251.030641 293.604988 
L 251.030641 296.85231 
L 252.475097 296.85231 
L 252.475097 302.586843 
L 253.919554 302.586843 
L 253.919554 296.853655 
L 255.364011 296.853655 
L 255.364011 289.823794 
L 256.808468 289.823794 
L 256.808468 285.532562 
L 258.252925 285.532562 
L 258.252925 282.870098 
L 259.697382 282.870098 
L 259.697382 285.040867 
L 261.141838 285.040867 
L 261.141838 283.692703 
L 262.586295 283.692703 
L 262.586295 286.830401 
L 264.030752 286.830401 
L 264.030752 296.532459 
L 265.475209 296.532459 
L 265.475209 296.852914 
L 266.919666 296.852914 
L 266.919666 292.399432 
L 268.364123 292.399432 
L 268.364123 292.680493 
L 269.808579 292.680493 
L 269.808579 292.680021 
L 271.253036 292.680021 
L 271.253036 292.679056 
L 272.697493 292.679056 
L 272.697493 293.761808 
L 274.14195 293.761808 
L 274.14195 288.72398 
L 275.586407 288.72398 
L 275.586407 296.852914 
L 277.030864 296.852914 
L 277.030864 286.317631 
L 278.47532 286.317631 
L 278.47532 283.915278 
L 279.919777 283.915278 
L 279.919777 278.129049 
L 281.364234 278.129049 
L 281.364234 276.545579 
L 282.808691 276.545579 
L 282.808691 277.076672 
L 284.253148 277.076672 
L 284.253148 275.522358 
L 285.697604 275.522358 
L 285.697604 274.989849 
L 287.142061 274.989849 
L 287.142061 275.075452 
L 288.586518 275.075452 
L 288.586518 273.143384 
L 290.030975 273.143384 
L 290.030975 273.37628 
L 291.475432 273.37628 
L 291.475432 274.96248 
L 292.919889 274.96248 
L 292.919889 271.206781 
L 294.364345 271.206781 
L 294.364345 274.567961 
L 295.808802 274.567961 
L 295.808802 269.355384 
L 297.253259 269.355384 
L 297.253259 268.438671 
L 297.975487 268.438671 
L 297.975487 266.68 
L 297.975487 266.68 
L 297.253259 266.68 
L 297.253259 266.68 
L 295.808802 266.68 
L 295.808802 266.68 
L 294.364345 266.68 
L 294.364345 266.68 
L 292.919889 266.68 
L 292.919889 266.68 
L 291.475432 266.68 
L 291.475432 266.68 
L 290.030975 266.68 
L 290.030975 266.68 
L 288.586518 266.68 
L 288.586518 266.68 
L 287.142061 266.68 
L 287.142061 266.68 
L 285.697604 266.68 
L 285.697604 266.68 
L 284.253148 266.68 
L 284.253148 266.68 
L 282.808691 266.68 
L 282.808691 266.68 
L 281.364234 266.68 
L 281.364234 266.68 
L 279.919777 266.68 
L 279.919777 266.68 
L 278.47532 266.68 
L 278.47532 266.68 
L 277.030864 266.68 
L 277.030864 266.68 
L 275.586407 266.68 
L 275.586407 266.68 
L 274.14195 266.68 
L 274.14195 266.68 
L 272.697493 266.68 
L 272.697493 266.68 
L 271.253036 266.68 
L 271.253036 266.68 
L 269.808579 266.68 
L 269.808579 266.68 
L 268.364123 266.68 
L 268.364123 266.68 
L 266.919666 266.68 
L 266.919666 266.68 
L 265.475209 266.68 
L 265.475209 266.68 
L 264.030752 266.68 
L 264.030752 266.68 
L 262.586295 266.68 
L 262.586295 266.68 
L 261.141838 266.68 
L 261.141838 266.68 
L 259.697382 266.68 
L 259.697382 266.68 
L 258.252925 266.68 
L 258.252925 266.68 
L 256.808468 266.68 
L 256.808468 266.68 
L 255.364011 266.68 
L 255.364011 266.68 
L 253.919554 266.68 
L 253.919554 266.68 
L 252.475097 266.68 
L 252.475097 266.68 
L 251.030641 266.68 
L 251.030641 266.68 
L 249.586184 266.68 
L 249.586184 266.68 
L 248.141727 266.68 
L 248.141727 266.68 
L 246.69727 266.68 
L 246.69727 266.68 
L 245.252813 266.68 
L 245.252813 266.68 
L 243.808357 266.68 
L 243.808357 266.68 
L 242.3639 266.68 
L 242.3639 266.68 
L 240.919443 266.68 
L 240.919443 266.68 
L 239.474986 266.68 
L 239.474986 266.68 
L 238.030529 266.68 
L 238.030529 266.68 
L 236.586072 266.68 
L 236.586072 266.68 
L 235.141616 266.68 
L 235.141616 266.68 
L 233.697159 266.68 
L 233.697159 266.68 
L 232.252702 266.68 
L 232.252702 266.68 
L 230.808245 266.68 
L 230.808245 266.68 
L 229.363788 266.68 
L 229.363788 266.68 
L 227.919331 266.68 
L 227.919331 266.68 
L 227.197103 266.68 
z
" clip-path="url(#p0a859d88ef)" style="fill: #d62728; fill-opacity: 0.6; stroke: #b22222; stroke-opacity: 0.8; stroke-width: 1.5"/>
    <path d="M 315.308969 266.68 
L 315.308969 267.404659 
L 316.031198 267.404659 
L 316.031198 267.803442 
L 317.475655 267.803442 
L 317.475655 267.589094 
L 318.197883 267.589094 
L 318.197883 266.68 
L 318.197883 266.68 
L 317.475655 266.68 
L 317.475655 266.68 
L 316.031198 266.68 
L 316.031198 266.68 
L 315.308969 266.68 
z
" clip-path="url(#p0a859d88ef)" style="fill: #d62728; fill-opacity: 0.6; stroke: #b22222; stroke-opacity: 0.8; stroke-width: 1.5"/>
    <path d="M 326.864624 266.68 
L 326.864624 268.095619 
L 327.586852 268.095619 
L 327.586852 269.402369 
L 329.031309 269.402369 
L 329.031309 267.791164 
L 330.475766 267.791164 
L 330.475766 268.702626 
L 331.920223 268.702626 
L 331.920223 270.332566 
L 333.36468 270.332566 
L 333.36468 269.199125 
L 334.086908 269.199125 
L 334.086908 266.68 
L 334.086908 266.68 
L 333.36468 266.68 
L 333.36468 266.68 
L 331.920223 266.68 
L 331.920223 266.68 
L 330.475766 266.68 
L 330.475766 266.68 
L 329.031309 266.68 
L 329.031309 266.68 
L 327.586852 266.68 
L 327.586852 266.68 
L 326.864624 266.68 
z
" clip-path="url(#p0a859d88ef)" style="fill: #d62728; fill-opacity: 0.6; stroke: #b22222; stroke-opacity: 0.8; stroke-width: 1.5"/>
    <path d="M 349.975933 266.68 
L 349.975933 270.963731 
L 350.698162 270.963731 
L 350.698162 273.231507 
L 352.142618 273.231507 
L 352.142618 275.075452 
L 353.587075 275.075452 
L 353.587075 276.90115 
L 355.031532 276.90115 
L 355.031532 273.2266 
L 356.475989 273.2266 
L 356.475989 273.143384 
L 357.920446 273.143384 
L 357.920446 271.261797 
L 359.364903 271.261797 
L 359.364903 271.268545 
L 360.809359 271.268545 
L 360.809359 270.482653 
L 362.253816 270.482653 
L 362.253816 272.656676 
L 363.698273 272.656676 
L 363.698273 280.660069 
L 365.14273 280.660069 
L 365.14273 279.147235 
L 366.587187 279.147235 
L 366.587187 277.677316 
L 368.031643 277.677316 
L 368.031643 279.170239 
L 369.4761 279.170239 
L 369.4761 286.369195 
L 370.920557 286.369195 
L 370.920557 282.037067 
L 372.365014 282.037067 
L 372.365014 289.287441 
L 373.809471 289.287441 
L 373.809471 289.288025 
L 375.253928 289.288025 
L 375.253928 286.166579 
L 376.698384 286.166579 
L 376.698384 279.062771 
L 378.142841 279.062771 
L 378.142841 289.428449 
L 379.587298 289.428449 
L 379.587298 289.488445 
L 381.031755 289.488445 
L 381.031755 281.294861 
L 382.476212 281.294861 
L 382.476212 278.829561 
L 383.920669 278.829561 
L 383.920669 277.304205 
L 385.365125 277.304205 
L 385.365125 281.386312 
L 386.809582 281.386312 
L 386.809582 289.288025 
L 388.254039 289.288025 
L 388.254039 287.038139 
L 389.698496 287.038139 
L 389.698496 281.356373 
L 391.142953 281.356373 
L 391.142953 278.559472 
L 392.587409 278.559472 
L 392.587409 281.248004 
L 394.031866 281.248004 
L 394.031866 274.829127 
L 395.476323 274.829127 
L 395.476323 275.234541 
L 396.92078 275.234541 
L 396.92078 275.075452 
L 397.643008 275.075452 
L 397.643008 266.68 
L 397.643008 266.68 
L 396.92078 266.68 
L 396.92078 266.68 
L 395.476323 266.68 
L 395.476323 266.68 
L 394.031866 266.68 
L 394.031866 266.68 
L 392.587409 266.68 
L 392.587409 266.68 
L 391.142953 266.68 
L 391.142953 266.68 
L 389.698496 266.68 
L 389.698496 266.68 
L 388.254039 266.68 
L 388.254039 266.68 
L 386.809582 266.68 
L 386.809582 266.68 
L 385.365125 266.68 
L 385.365125 266.68 
L 383.920669 266.68 
L 383.920669 266.68 
L 382.476212 266.68 
L 382.476212 266.68 
L 381.031755 266.68 
L 381.031755 266.68 
L 379.587298 266.68 
L 379.587298 266.68 
L 378.142841 266.68 
L 378.142841 266.68 
L 376.698384 266.68 
L 376.698384 266.68 
L 375.253928 266.68 
L 375.253928 266.68 
L 373.809471 266.68 
L 373.809471 266.68 
L 372.365014 266.68 
L 372.365014 266.68 
L 370.920557 266.68 
L 370.920557 266.68 
L 369.4761 266.68 
L 369.4761 266.68 
L 368.031643 266.68 
L 368.031643 266.68 
L 366.587187 266.68 
L 366.587187 266.68 
L 365.14273 266.68 
L 365.14273 266.68 
L 363.698273 266.68 
L 363.698273 266.68 
L 362.253816 266.68 
L 362.253816 266.68 
L 360.809359 266.68 
L 360.809359 266.68 
L 359.364903 266.68 
L 359.364903 266.68 
L 357.920446 266.68 
L 357.920446 266.68 
L 356.475989 266.68 
L 356.475989 266.68 
L 355.031532 266.68 
L 355.031532 266.68 
L 353.587075 266.68 
L 353.587075 266.68 
L 352.142618 266.68 
L 352.142618 266.68 
L 350.698162 266.68 
L 350.698162 266.68 
L 349.975933 266.68 
z
" clip-path="url(#p0a859d88ef)" style="fill: #d62728; fill-opacity: 0.6; stroke: #b22222; stroke-opacity: 0.8; stroke-width: 1.5"/>
    <path d="M 404.865292 266.68 
L 404.865292 269.414977 
L 405.587521 269.414977 
L 405.587521 268.844859 
L 407.031978 268.844859 
L 407.031978 269.414977 
L 408.476435 269.414977 
L 408.476435 269.414977 
L 409.920891 269.414977 
L 409.920891 267.589094 
L 411.365348 267.589094 
L 411.365348 267.50632 
L 412.087577 267.50632 
L 412.087577 266.68 
L 412.087577 266.68 
L 411.365348 266.68 
L 411.365348 266.68 
L 409.920891 266.68 
L 409.920891 266.68 
L 408.476435 266.68 
L 408.476435 266.68 
L 407.031978 266.68 
L 407.031978 266.68 
L 405.587521 266.68 
L 405.587521 266.68 
L 404.865292 266.68 
z
" clip-path="url(#p0a859d88ef)" style="fill: #d62728; fill-opacity: 0.6; stroke: #b22222; stroke-opacity: 0.8; stroke-width: 1.5"/>
    <path d="M 414.97649 266.68 
L 414.97649 267.946217 
L 415.698719 267.946217 
L 415.698719 271.476299 
L 417.143175 271.476299 
L 417.143175 273.287847 
L 418.587632 273.287847 
L 418.587632 272.123685 
L 420.032089 272.123685 
L 420.032089 275.49921 
L 421.476546 275.49921 
L 421.476546 279.170239 
L 422.921003 279.170239 
L 422.921003 279.711141 
L 424.36546 279.711141 
L 424.36546 285.676152 
L 425.809916 285.676152 
L 425.809916 283.550717 
L 427.254373 283.550717 
L 427.254373 275.389385 
L 428.69883 275.389385 
L 428.69883 282.28207 
L 430.143287 282.28207 
L 430.143287 289.71935 
L 431.587744 289.71935 
L 431.587744 281.508316 
L 433.032201 281.508316 
L 433.032201 284.37919 
L 434.476657 284.37919 
L 434.476657 291.070999 
L 435.921114 291.070999 
L 435.921114 291.566675 
L 437.365571 291.566675 
L 437.365571 302.567546 
L 438.810028 302.567546 
L 438.810028 302.567546 
L 440.254485 302.567546 
L 440.254485 300.369129 
L 441.698942 300.369129 
L 441.698942 304.370741 
L 443.143398 304.370741 
L 443.143398 313.061568 
L 444.587855 313.061568 
L 444.587855 313.109401 
L 446.032312 313.109401 
L 446.032312 299.131131 
L 447.476769 299.131131 
L 447.476769 281.660492 
L 448.921226 281.660492 
L 448.921226 286.386243 
L 450.365682 286.386243 
L 450.365682 296.141651 
L 451.810139 296.141651 
L 451.810139 287.243127 
L 453.254596 287.243127 
L 453.254596 286.54511 
L 454.699053 286.54511 
L 454.699053 283.766101 
L 456.14351 283.766101 
L 456.14351 271.268298 
L 457.587967 271.268298 
L 457.587967 283.632041 
L 459.032423 283.632041 
L 459.032423 279.959699 
L 460.47688 279.959699 
L 460.47688 281.194318 
L 461.921337 281.194318 
L 461.921337 280.293586 
L 463.365794 280.293586 
L 463.365794 284.493838 
L 464.810251 284.493838 
L 464.810251 300.325851 
L 466.254708 300.325851 
L 466.254708 313.109422 
L 467.699164 313.109422 
L 467.699164 313.083449 
L 469.143621 313.083449 
L 469.143621 307.445273 
L 470.588078 307.445273 
L 470.588078 293.759368 
L 472.032535 293.759368 
L 472.032535 313.109422 
L 473.476992 313.109422 
L 473.476992 313.109422 
L 474.921448 313.109422 
L 474.921448 304.948802 
L 476.365905 304.948802 
L 476.365905 309.582851 
L 477.810362 309.582851 
L 477.810362 296.852914 
L 479.254819 296.852914 
L 479.254819 302.566452 
L 480.699276 302.566452 
L 480.699276 313.109422 
L 482.143733 313.109422 
L 482.143733 303.536987 
L 483.588189 303.536987 
L 483.588189 302.567546 
L 485.032646 302.567546 
L 485.032646 292.999265 
L 486.477103 292.999265 
L 486.477103 294.906332 
L 487.92156 294.906332 
L 487.92156 286.446617 
L 489.366017 286.446617 
L 489.366017 286.369195 
L 490.810474 286.369195 
L 490.810474 281.386312 
L 492.25493 281.386312 
L 492.25493 272.55396 
L 493.699387 272.55396 
L 493.699387 271.261797 
L 495.143844 271.261797 
L 495.143844 271.261797 
L 496.588301 271.261797 
L 496.588301 269.414977 
L 498.032758 269.414977 
L 498.032758 269.414977 
L 499.477214 269.414977 
L 499.477214 269.035472 
L 500.199443 269.035472 
L 500.199443 266.68 
L 500.199443 266.68 
L 499.477214 266.68 
L 499.477214 266.68 
L 498.032758 266.68 
L 498.032758 266.68 
L 496.588301 266.68 
L 496.588301 266.68 
L 495.143844 266.68 
L 495.143844 266.68 
L 493.699387 266.68 
L 493.699387 266.68 
L 492.25493 266.68 
L 492.25493 266.68 
L 490.810474 266.68 
L 490.810474 266.68 
L 489.366017 266.68 
L 489.366017 266.68 
L 487.92156 266.68 
L 487.92156 266.68 
L 486.477103 266.68 
L 486.477103 266.68 
L 485.032646 266.68 
L 485.032646 266.68 
L 483.588189 266.68 
L 483.588189 266.68 
L 482.143733 266.68 
L 482.143733 266.68 
L 480.699276 266.68 
L 480.699276 266.68 
L 479.254819 266.68 
L 479.254819 266.68 
L 477.810362 266.68 
L 477.810362 266.68 
L 476.365905 266.68 
L 476.365905 266.68 
L 474.921448 266.68 
L 474.921448 266.68 
L 473.476992 266.68 
L 473.476992 266.68 
L 472.032535 266.68 
L 472.032535 266.68 
L 470.588078 266.68 
L 470.588078 266.68 
L 469.143621 266.68 
L 469.143621 266.68 
L 467.699164 266.68 
L 467.699164 266.68 
L 466.254708 266.68 
L 466.254708 266.68 
L 464.810251 266.68 
L 464.810251 266.68 
L 463.365794 266.68 
L 463.365794 266.68 
L 461.921337 266.68 
L 461.921337 266.68 
L 460.47688 266.68 
L 460.47688 266.68 
L 459.032423 266.68 
L 459.032423 266.68 
L 457.587967 266.68 
L 457.587967 266.68 
L 456.14351 266.68 
L 456.14351 266.68 
L 454.699053 266.68 
L 454.699053 266.68 
L 453.254596 266.68 
L 453.254596 266.68 
L 451.810139 266.68 
L 451.810139 266.68 
L 450.365682 266.68 
L 450.365682 266.68 
L 448.921226 266.68 
L 448.921226 266.68 
L 447.476769 266.68 
L 447.476769 266.68 
L 446.032312 266.68 
L 446.032312 266.68 
L 444.587855 266.68 
L 444.587855 266.68 
L 443.143398 266.68 
L 443.143398 266.68 
L 441.698942 266.68 
L 441.698942 266.68 
L 440.254485 266.68 
L 440.254485 266.68 
L 438.810028 266.68 
L 438.810028 266.68 
L 437.365571 266.68 
L 437.365571 266.68 
L 435.921114 266.68 
L 435.921114 266.68 
L 434.476657 266.68 
L 434.476657 266.68 
L 433.032201 266.68 
L 433.032201 266.68 
L 431.587744 266.68 
L 431.587744 266.68 
L 430.143287 266.68 
L 430.143287 266.68 
L 428.69883 266.68 
L 428.69883 266.68 
L 427.254373 266.68 
L 427.254373 266.68 
L 425.809916 266.68 
L 425.809916 266.68 
L 424.36546 266.68 
L 424.36546 266.68 
L 422.921003 266.68 
L 422.921003 266.68 
L 421.476546 266.68 
L 421.476546 266.68 
L 420.032089 266.68 
L 420.032089 266.68 
L 418.587632 266.68 
L 418.587632 266.68 
L 417.143175 266.68 
L 417.143175 266.68 
L 415.698719 266.68 
L 415.698719 266.68 
L 414.97649 266.68 
z
" clip-path="url(#p0a859d88ef)" style="fill: #d62728; fill-opacity: 0.6; stroke: #b22222; stroke-opacity: 0.8; stroke-width: 1.5"/>
    <path d="M 503.088357 266.68 
L 503.088357 268.439559 
L 503.088357 268.439559 
L 503.088357 266.68 
L 503.088357 266.68 
L 503.088357 266.68 
z
" clip-path="url(#p0a859d88ef)" style="fill: #d62728; fill-opacity: 0.6; stroke: #b22222; stroke-opacity: 0.8; stroke-width: 1.5"/>
   </g>
   <g id="matplotlib.axis_3">
    <g id="xtick_7">
     <g id="line2d_15">
      <g>
       <use xlink:href="#m2bd2e1ba06" x="115.973928" y="332.12" style="stroke: #000000; stroke-width: 0.8"/>
      </g>
     </g>
     <g id="text_15">
      <!-- 1995 -->
      <g transform="translate(103.248928 346.718437) scale(0.1 -0.1)">
       <use xlink:href="#DejaVuSans-31"/>
       <use xlink:href="#DejaVuSans-39" x="63.623047"/>
       <use xlink:href="#DejaVuSans-39" x="127.246094"/>
       <use xlink:href="#DejaVuSans-35" x="190.869141"/>
      </g>
     </g>
    </g>
    <g id="xtick_8">
     <g id="line2d_16">
      <g>
       <use xlink:href="#m2bd2e1ba06" x="202.641337" y="332.12" style="stroke: #000000; stroke-width: 0.8"/>
      </g>
     </g>
     <g id="text_16">
      <!-- 2000 -->
      <g transform="translate(189.916337 346.718437) scale(0.1 -0.1)">
       <use xlink:href="#DejaVuSans-32"/>
       <use xlink:href="#DejaVuSans-30" x="63.623047"/>
       <use xlink:href="#DejaVuSans-30" x="127.246094"/>
       <use xlink:href="#DejaVuSans-30" x="190.869141"/>
      </g>
     </g>
    </g>
    <g id="xtick_9">
     <g id="line2d_17">
      <g>
       <use xlink:href="#m2bd2e1ba06" x="289.308747" y="332.12" style="stroke: #000000; stroke-width: 0.8"/>
      </g>
     </g>
     <g id="text_17">
      <!-- 2005 -->
      <g transform="translate(276.583747 346.718437) scale(0.1 -0.1)">
       <use xlink:href="#DejaVuSans-32"/>
       <use xlink:href="#DejaVuSans-30" x="63.623047"/>
       <use xlink:href="#DejaVuSans-30" x="127.246094"/>
       <use xlink:href="#DejaVuSans-35" x="190.869141"/>
      </g>
     </g>
    </g>
    <g id="xtick_10">
     <g id="line2d_18">
      <g>
       <use xlink:href="#m2bd2e1ba06" x="375.976156" y="332.12" style="stroke: #000000; stroke-width: 0.8"/>
      </g>
     </g>
     <g id="text_18">
      <!-- 2010 -->
      <g transform="translate(363.251156 346.718437) scale(0.1 -0.1)">
       <use xlink:href="#DejaVuSans-32"/>
       <use xlink:href="#DejaVuSans-30" x="63.623047"/>
       <use xlink:href="#DejaVuSans-31" x="127.246094"/>
       <use xlink:href="#DejaVuSans-30" x="190.869141"/>
      </g>
     </g>
    </g>
    <g id="xtick_11">
     <g id="line2d_19">
      <g>
       <use xlink:href="#m2bd2e1ba06" x="462.643565" y="332.12" style="stroke: #000000; stroke-width: 0.8"/>
      </g>
     </g>
     <g id="text_19">
      <!-- 2015 -->
      <g transform="translate(449.918565 346.718437) scale(0.1 -0.1)">
       <use xlink:href="#DejaVuSans-32"/>
       <use xlink:href="#DejaVuSans-30" x="63.623047"/>
       <use xlink:href="#DejaVuSans-31" x="127.246094"/>
       <use xlink:href="#DejaVuSans-35" x="190.869141"/>
      </g>
     </g>
    </g>
    <g id="xtick_12">
     <g id="line2d_20">
      <g>
       <use xlink:href="#m2bd2e1ba06" x="549.310975" y="332.12" style="stroke: #000000; stroke-width: 0.8"/>
      </g>
     </g>
     <g id="text_20">
      <!-- 2020 -->
      <g transform="translate(536.585975 346.718437) scale(0.1 -0.1)">
       <use xlink:href="#DejaVuSans-32"/>
       <use xlink:href="#DejaVuSans-30" x="63.623047"/>
       <use xlink:href="#DejaVuSans-32" x="127.246094"/>
       <use xlink:href="#DejaVuSans-30" x="190.869141"/>
      </g>
     </g>
    </g>
   </g>
   <g id="matplotlib.axis_4">
    <g id="ytick_8">
     <g id="line2d_21">
      <g>
       <use xlink:href="#m9e0aa9a4b0" x="46.64" y="332.12" style="stroke: #000000; stroke-width: 0.8"/>
      </g>
     </g>
     <g id="text_21">
      <!-- −3 -->
      <g transform="translate(24.897813 335.919219) scale(0.1 -0.1)">
       <use xlink:href="#DejaVuSans-2212"/>
       <use xlink:href="#DejaVuSans-33" x="83.789062"/>
      </g>
     </g>
    </g>
    <g id="ytick_9">
     <g id="line2d_22">
      <g>
       <use xlink:href="#m9e0aa9a4b0" x="46.64" y="310.306667" style="stroke: #000000; stroke-width: 0.8"/>
      </g>
     </g>
     <g id="text_22">
      <!-- −2 -->
      <g transform="translate(24.897813 314.105885) scale(0.1 -0.1)">
       <use xlink:href="#DejaVuSans-2212"/>
       <use xlink:href="#DejaVuSans-32" x="83.789062"/>
      </g>
     </g>
    </g>
    <g id="ytick_10">
     <g id="line2d_23">
      <g>
       <use xlink:href="#m9e0aa9a4b0" x="46.64" y="288.493333" style="stroke: #000000; stroke-width: 0.8"/>
      </g>
     </g>
     <g id="text_23">
      <!-- −1 -->
      <g transform="translate(24.897813 292.292552) scale(0.1 -0.1)">
       <use xlink:href="#DejaVuSans-2212"/>
       <use xlink:href="#DejaVuSans-31" x="83.789062"/>
      </g>
     </g>
    </g>
    <g id="ytick_11">
     <g id="line2d_24">
      <g>
       <use xlink:href="#m9e0aa9a4b0" x="46.64" y="266.68" style="stroke: #000000; stroke-width: 0.8"/>
      </g>
     </g>
     <g id="text_24">
      <!-- 0 -->
      <g transform="translate(33.2775 270.479219) scale(0.1 -0.1)">
       <use xlink:href="#DejaVuSans-30"/>
      </g>
     </g>
    </g>
    <g id="ytick_12">
     <g id="line2d_25">
      <g>
       <use xlink:href="#m9e0aa9a4b0" x="46.64" y="244.866667" style="stroke: #000000; stroke-width: 0.8"/>
      </g>
     </g>
     <g id="text_25">
      <!-- 1 -->
      <g transform="translate(33.2775 248.665885) scale(0.1 -0.1)">
       <use xlink:href="#DejaVuSans-31"/>
      </g>
     </g>
    </g>
    <g id="ytick_13">
     <g id="line2d_26">
      <g>
       <use xlink:href="#m9e0aa9a4b0" x="46.64" y="223.053333" style="stroke: #000000; stroke-width: 0.8"/>
      </g>
     </g>
     <g id="text_26">
      <!-- 2 -->
      <g transform="translate(33.2775 226.852552) scale(0.1 -0.1)">
       <use xlink:href="#DejaVuSans-32"/>
      </g>
     </g>
    </g>
    <g id="ytick_14">
     <g id="line2d_27">
      <g>
       <use xlink:href="#m9e0aa9a4b0" x="46.64" y="201.24" style="stroke: #000000; stroke-width: 0.8"/>
      </g>
     </g>
     <g id="text_27">
      <!-- 3 -->
      <g transform="translate(33.2775 205.039219) scale(0.1 -0.1)">
       <use xlink:href="#DejaVuSans-33"/>
      </g>
     </g>
    </g>
    <g id="text_28">
     <!-- Gallatin -->
     <g transform="translate(18.818125 285.978438) rotate(-90) scale(0.1 -0.1)">
      <defs>
       <path id="DejaVuSans-47" d="M 3809 666 
L 3809 1919 
L 2778 1919 
L 2778 2438 
L 4434 2438 
L 4434 434 
Q 4069 175 3628 42 
Q 3188 -91 2688 -91 
Q 1594 -91 976 548 
Q 359 1188 359 2328 
Q 359 3472 976 4111 
Q 1594 4750 2688 4750 
Q 3144 4750 3555 4637 
Q 3966 4525 4313 4306 
L 4313 3634 
Q 3963 3931 3569 4081 
Q 3175 4231 2741 4231 
Q 1884 4231 1454 3753 
Q 1025 3275 1025 2328 
Q 1025 1384 1454 906 
Q 1884 428 2741 428 
Q 3075 428 3337 486 
Q 3600 544 3809 666 
z
" transform="scale(0.015625)"/>
       <path id="DejaVuSans-61" d="M 2194 1759 
Q 1497 1759 1228 1600 
Q 959 1441 959 1056 
Q 959 750 1161 570 
Q 1363 391 1709 391 
Q 2188 391 2477 730 
Q 2766 1069 2766 1631 
L 2766 1759 
L 2194 1759 
z
M 3341 1997 
L 3341 0 
L 2766 0 
L 2766 531 
Q 2569 213 2275 61 
Q 1981 -91 1556 -91 
Q 1019 -91 701 211 
Q 384 513 384 1019 
Q 384 1609 779 1909 
Q 1175 2209 1959 2209 
L 2766 2209 
L 2766 2266 
Q 2766 2663 2505 2880 
Q 2244 3097 1772 3097 
Q 1472 3097 1187 3025 
Q 903 2953 641 2809 
L 641 3341 
Q 956 3463 1253 3523 
Q 1550 3584 1831 3584 
Q 2591 3584 2966 3190 
Q 3341 2797 3341 1997 
z
" transform="scale(0.015625)"/>
       <path id="DejaVuSans-6c" d="M 603 4863 
L 1178 4863 
L 1178 0 
L 603 0 
L 603 4863 
z
" transform="scale(0.015625)"/>
       <path id="DejaVuSans-6e" d="M 3513 2113 
L 3513 0 
L 2938 0 
L 2938 2094 
Q 2938 2591 2744 2837 
Q 2550 3084 2163 3084 
Q 1697 3084 1428 2787 
Q 1159 2491 1159 1978 
L 1159 0 
L 581 0 
L 581 3500 
L 1159 3500 
L 1159 2956 
Q 1366 3272 1645 3428 
Q 1925 3584 2291 3584 
Q 2894 3584 3203 3211 
Q 3513 2838 3513 2113 
z
" transform="scale(0.015625)"/>
      </defs>
      <use xlink:href="#DejaVuSans-47"/>
      <use xlink:href="#DejaVuSans-61" x="77.490234"/>
      <use xlink:href="#DejaVuSans-6c" x="138.769531"/>
      <use xlink:href="#DejaVuSans-6c" x="166.552734"/>
      <use xlink:href="#DejaVuSans-61" x="194.335938"/>
      <use xlink:href="#DejaVuSans-74" x="255.615234"/>
      <use xlink:href="#DejaVuSans-69" x="294.824219"/>
      <use xlink:href="#DejaVuSans-6e" x="322.607422"/>
     </g>
    </g>
   </g>
   <g id="line2d_28">
    <path d="M 46.64 266.68 
L 565.2 266.68 
" clip-path="url(#p0a859d88ef)" style="fill: none; stroke: #000000; stroke-width: 1.5; stroke-linecap: square"/>
   </g>
   <g id="patch_6">
    <path d="M 46.64 332.12 
L 46.64 201.24 
" style="fill: none; stroke: #000000; stroke-width: 0.8; stroke-linejoin: miter; stroke-linecap: square"/>
   </g>
   <g id="patch_7">
    <path d="M 46.64 332.12 
L 565.2 332.12 
" style="fill: none; stroke: #000000; stroke-width: 0.8; stroke-linejoin: miter; stroke-linecap: square"/>
   </g>
  </g>
  <g id="text_29">
   <!-- SPEI-47 -->
   <g transform="translate(262.110937 16.318125) scale(0.12 -0.12)">
    <defs>
     <path id="DejaVuSans-Bold-53" d="M 3834 4519 
L 3834 3531 
Q 3450 3703 3084 3790 
Q 2719 3878 2394 3878 
Q 1963 3878 1756 3759 
Q 1550 3641 1550 3391 
Q 1550 3203 1689 3098 
Q 1828 2994 2194 2919 
L 2706 2816 
Q 3484 2659 3812 2340 
Q 4141 2022 4141 1434 
Q 4141 663 3683 286 
Q 3225 -91 2284 -91 
Q 1841 -91 1394 -6 
Q 947 78 500 244 
L 500 1259 
Q 947 1022 1364 901 
Q 1781 781 2169 781 
Q 2563 781 2772 912 
Q 2981 1044 2981 1288 
Q 2981 1506 2839 1625 
Q 2697 1744 2272 1838 
L 1806 1941 
Q 1106 2091 782 2419 
Q 459 2747 459 3303 
Q 459 4000 909 4375 
Q 1359 4750 2203 4750 
Q 2588 4750 2994 4692 
Q 3400 4634 3834 4519 
z
" transform="scale(0.015625)"/>
     <path id="DejaVuSans-Bold-50" d="M 588 4666 
L 2584 4666 
Q 3475 4666 3951 4270 
Q 4428 3875 4428 3144 
Q 4428 2409 3951 2014 
Q 3475 1619 2584 1619 
L 1791 1619 
L 1791 0 
L 588 0 
L 588 4666 
z
M 1791 3794 
L 1791 2491 
L 2456 2491 
Q 2806 2491 2997 2661 
Q 3188 2831 3188 3144 
Q 3188 3456 2997 3625 
Q 2806 3794 2456 3794 
L 1791 3794 
z
" transform="scale(0.015625)"/>
     <path id="DejaVuSans-Bold-45" d="M 588 4666 
L 3834 4666 
L 3834 3756 
L 1791 3756 
L 1791 2888 
L 3713 2888 
L 3713 1978 
L 1791 1978 
L 1791 909 
L 3903 909 
L 3903 0 
L 588 0 
L 588 4666 
z
" transform="scale(0.015625)"/>
     <path id="DejaVuSans-Bold-49" d="M 588 4666 
L 1791 4666 
L 1791 0 
L 588 0 
L 588 4666 
z
" transform="scale(0.015625)"/>
     <path id="DejaVuSans-Bold-2d" d="M 347 2297 
L 2309 2297 
L 2309 1388 
L 347 1388 
L 347 2297 
z
" transform="scale(0.015625)"/>
     <path id="DejaVuSans-Bold-34" d="M 2356 3675 
L 1038 1722 
L 2356 1722 
L 2356 3675 
z
M 2156 4666 
L 3494 4666 
L 3494 1722 
L 4159 1722 
L 4159 850 
L 3494 850 
L 3494 0 
L 2356 0 
L 2356 850 
L 288 850 
L 288 1881 
L 2156 4666 
z
" transform="scale(0.015625)"/>
     <path id="DejaVuSans-Bold-37" d="M 428 4666 
L 3944 4666 
L 3944 3988 
L 2125 0 
L 953 0 
L 2675 3781 
L 428 3781 
L 428 4666 
z
" transform="scale(0.015625)"/>
    </defs>
    <use xlink:href="#DejaVuSans-Bold-53"/>
    <use xlink:href="#DejaVuSans-Bold-50" x="72.021484"/>
    <use xlink:href="#DejaVuSans-Bold-45" x="145.3125"/>
    <use xlink:href="#DejaVuSans-Bold-49" x="213.623047"/>
    <use xlink:href="#DejaVuSans-Bold-2d" x="250.830078"/>
    <use xlink:href="#DejaVuSans-Bold-34" x="292.333984"/>
    <use xlink:href="#DejaVuSans-Bold-37" x="361.914062"/>
   </g>
  </g>
 </g>
 <defs>
  <clipPath id="p2c90077738">
   <rect x="46.64" y="38.52" width="518.56" height="130.88"/>
  </clipPath>
  <clipPath id="p0a859d88ef">
   <rect x="46.64" y="201.24" width="518.56" height="130.88"/>
  </clipPath>
 </defs>
</svg>
