<?xml version="1.0" encoding="utf-8" standalone="no"?>
<!DOCTYPE svg PUBLIC "-//W3C//DTD SVG 1.1//EN"
  "http://www.w3.org/Graphics/SVG/1.1/DTD/svg11.dtd">
<svg xmlns:xlink="http://www.w3.org/1999/xlink" width="576pt" height="360pt" viewBox="0 0 576 360" xmlns="http://www.w3.org/2000/svg" version="1.1">
 <metadata>
  <rdf:RDF xmlns:dc="http://purl.org/dc/elements/1.1/" xmlns:cc="http://creativecommons.org/ns#" xmlns:rdf="http://www.w3.org/1999/02/22-rdf-syntax-ns#">
   <cc:Work>
    <dc:type rdf:resource="http://purl.org/dc/dcmitype/StillImage"/>
    <dc:date>2024-02-04T11:03:39.480447</dc:date>
    <dc:format>image/svg+xml</dc:format>
    <dc:creator>
     <cc:Agent>
      <dc:title>Matplotlib v3.8.2, https://matplotlib.org/</dc:title>
     </cc:Agent>
    </dc:creator>
   </cc:Work>
  </rdf:RDF>
 </metadata>
 <defs>
  <style type="text/css">*{stroke-linejoin: round; stroke-linecap: butt}</style>
 </defs>
 <g id="figure_1">
  <g id="patch_1">
   <path d="M 0 360 
L 576 360 
L 576 0 
L 0 0 
z
" style="fill: #ffffff"/>
  </g>
  <g id="axes_1">
   <g id="patch_2">
    <path d="M 46.64 167.42 
L 565.2 167.42 
L 565.2 34.56 
L 46.64 34.56 
z
" style="fill: #ffffff"/>
   </g>
   <g id="PolyCollection_1">
    <path d="M 46.64 96.780951 
L 46.64 91.542002 
L 47.362228 91.542002 
L 47.362228 91.82475 
L 48.806685 91.82475 
L 48.806685 96.725036 
L 50.251142 96.725036 
L 50.251142 95.001551 
L 51.695599 95.001551 
L 51.695599 88.475388 
L 53.140056 88.475388 
L 53.140056 82.547515 
L 54.584513 82.547515 
L 54.584513 80.895796 
L 56.028969 80.895796 
L 56.028969 81.457937 
L 57.473426 81.457937 
L 57.473426 82.285347 
L 58.917883 82.285347 
L 58.917883 87.720493 
L 60.36234 87.720493 
L 60.36234 83.221657 
L 61.806797 83.221657 
L 61.806797 83.500522 
L 63.251253 83.500522 
L 63.251253 86.905539 
L 64.69571 86.905539 
L 64.69571 87.362274 
L 66.140167 87.362274 
L 66.140167 89.625134 
L 67.584624 89.625134 
L 67.584624 85.945555 
L 69.029081 85.945555 
L 69.029081 90.09415 
L 70.473538 90.09415 
L 70.473538 90.203012 
L 71.917994 90.203012 
L 71.917994 90.082406 
L 73.362451 90.082406 
L 73.362451 86.888173 
L 74.806908 86.888173 
L 74.806908 86.687216 
L 76.251365 86.687216 
L 76.251365 87.541904 
L 77.695822 87.541904 
L 77.695822 89.902929 
L 79.140279 89.902929 
L 79.140279 86.487887 
L 80.584735 86.487887 
L 80.584735 90.420572 
L 82.029192 90.420572 
L 82.029192 91.767342 
L 83.473649 91.767342 
L 83.473649 91.687892 
L 84.918106 91.687892 
L 84.918106 94.849637 
L 86.362563 94.849637 
L 86.362563 95.519673 
L 87.807019 95.519673 
L 87.807019 88.747919 
L 89.251476 88.747919 
L 89.251476 82.64158 
L 90.695933 82.64158 
L 90.695933 77.244281 
L 92.14039 77.244281 
L 92.14039 80.24857 
L 93.584847 80.24857 
L 93.584847 83.04633 
L 95.029304 83.04633 
L 95.029304 84.891737 
L 96.47376 84.891737 
L 96.47376 88.040352 
L 97.918217 88.040352 
L 97.918217 91.759687 
L 99.362674 91.759687 
L 99.362674 88.883975 
L 100.807131 88.883975 
L 100.807131 92.903467 
L 101.529359 92.903467 
L 101.529359 96.780951 
L 101.529359 96.780951 
L 100.807131 96.780951 
L 100.807131 96.780951 
L 99.362674 96.780951 
L 99.362674 96.780951 
L 97.918217 96.780951 
L 97.918217 96.780951 
L 96.47376 96.780951 
L 96.47376 96.780951 
L 95.029304 96.780951 
L 95.029304 96.780951 
L 93.584847 96.780951 
L 93.584847 96.780951 
L 92.14039 96.780951 
L 92.14039 96.780951 
L 90.695933 96.780951 
L 90.695933 96.780951 
L 89.251476 96.780951 
L 89.251476 96.780951 
L 87.807019 96.780951 
L 87.807019 96.780951 
L 86.362563 96.780951 
L 86.362563 96.780951 
L 84.918106 96.780951 
L 84.918106 96.780951 
L 83.473649 96.780951 
L 83.473649 96.780951 
L 82.029192 96.780951 
L 82.029192 96.780951 
L 80.584735 96.780951 
L 80.584735 96.780951 
L 79.140279 96.780951 
L 79.140279 96.780951 
L 77.695822 96.780951 
L 77.695822 96.780951 
L 76.251365 96.780951 
L 76.251365 96.780951 
L 74.806908 96.780951 
L 74.806908 96.780951 
L 73.362451 96.780951 
L 73.362451 96.780951 
L 71.917994 96.780951 
L 71.917994 96.780951 
L 70.473538 96.780951 
L 70.473538 96.780951 
L 69.029081 96.780951 
L 69.029081 96.780951 
L 67.584624 96.780951 
L 67.584624 96.780951 
L 66.140167 96.780951 
L 66.140167 96.780951 
L 64.69571 96.780951 
L 64.69571 96.780951 
L 63.251253 96.780951 
L 63.251253 96.780951 
L 61.806797 96.780951 
L 61.806797 96.780951 
L 60.36234 96.780951 
L 60.36234 96.780951 
L 58.917883 96.780951 
L 58.917883 96.780951 
L 57.473426 96.780951 
L 57.473426 96.780951 
L 56.028969 96.780951 
L 56.028969 96.780951 
L 54.584513 96.780951 
L 54.584513 96.780951 
L 53.140056 96.780951 
L 53.140056 96.780951 
L 51.695599 96.780951 
L 51.695599 96.780951 
L 50.251142 96.780951 
L 50.251142 96.780951 
L 48.806685 96.780951 
L 48.806685 96.780951 
L 47.362228 96.780951 
L 47.362228 96.780951 
L 46.64 96.780951 
z
" clip-path="url(#p0dd07bca78)" style="fill: #17becf; fill-opacity: 0.6; stroke: #1f77b4; stroke-opacity: 0.8; stroke-width: 1.5"/>
    <path d="M 104.418273 96.780951 
L 104.418273 94.337296 
L 104.418273 94.337296 
L 104.418273 96.780951 
L 104.418273 96.780951 
L 104.418273 96.780951 
z
" clip-path="url(#p0dd07bca78)" style="fill: #17becf; fill-opacity: 0.6; stroke: #1f77b4; stroke-opacity: 0.8; stroke-width: 1.5"/>
    <path d="M 113.085014 96.780951 
L 113.085014 95.147791 
L 113.085014 95.147791 
L 113.085014 96.780951 
L 113.085014 96.780951 
L 113.085014 96.780951 
z
" clip-path="url(#p0dd07bca78)" style="fill: #17becf; fill-opacity: 0.6; stroke: #1f77b4; stroke-opacity: 0.8; stroke-width: 1.5"/>
    <path d="M 123.196212 96.780951 
L 123.196212 93.087072 
L 123.91844 93.087072 
L 123.91844 94.029842 
L 125.362897 94.029842 
L 125.362897 91.679544 
L 126.807354 91.679544 
L 126.807354 84.791434 
L 128.251811 84.791434 
L 128.251811 81.147769 
L 129.696267 81.147769 
L 129.696267 72.101731 
L 131.140724 72.101731 
L 131.140724 72.088605 
L 132.585181 72.088605 
L 132.585181 67.673637 
L 134.029638 67.673637 
L 134.029638 65.431377 
L 135.474095 65.431377 
L 135.474095 67.415724 
L 136.918552 67.415724 
L 136.918552 66.285547 
L 138.363008 66.285547 
L 138.363008 65.059266 
L 139.807465 65.059266 
L 139.807465 66.353511 
L 141.251922 66.353511 
L 141.251922 67.104587 
L 142.696379 67.104587 
L 142.696379 67.331419 
L 144.140836 67.331419 
L 144.140836 65.551164 
L 145.585292 65.551164 
L 145.585292 64.432014 
L 147.029749 64.432014 
L 147.029749 64.195929 
L 148.474206 64.195929 
L 148.474206 61.837846 
L 149.918663 61.837846 
L 149.918663 60.749131 
L 151.36312 60.749131 
L 151.36312 62.480556 
L 152.807577 62.480556 
L 152.807577 63.209427 
L 154.252033 63.209427 
L 154.252033 64.219508 
L 155.69649 64.219508 
L 155.69649 64.214052 
L 157.140947 64.214052 
L 157.140947 64.134147 
L 158.585404 64.134147 
L 158.585404 60.858915 
L 160.029861 60.858915 
L 160.029861 59.15747 
L 161.474318 59.15747 
L 161.474318 58.711605 
L 162.918774 58.711605 
L 162.918774 57.598064 
L 164.363231 57.598064 
L 164.363231 57.883353 
L 165.807688 57.883353 
L 165.807688 58.228181 
L 167.252145 58.228181 
L 167.252145 57.991755 
L 168.696602 57.991755 
L 168.696602 58.836858 
L 170.141058 58.836858 
L 170.141058 58.209624 
L 171.585515 58.209624 
L 171.585515 57.588053 
L 173.029972 57.588053 
L 173.029972 56.489715 
L 174.474429 56.489715 
L 174.474429 55.674741 
L 175.918886 55.674741 
L 175.918886 55.4551 
L 177.363343 55.4551 
L 177.363343 55.203063 
L 178.807799 55.203063 
L 178.807799 54.254245 
L 180.252256 54.254245 
L 180.252256 54.006831 
L 181.696713 54.006831 
L 181.696713 54.194982 
L 183.14117 54.194982 
L 183.14117 53.721629 
L 184.585627 53.721629 
L 184.585627 54.076432 
L 186.030084 54.076432 
L 186.030084 54.399244 
L 187.47454 54.399244 
L 187.47454 54.890883 
L 188.918997 54.890883 
L 188.918997 55.761103 
L 190.363454 55.761103 
L 190.363454 56.735027 
L 191.807911 56.735027 
L 191.807911 57.509778 
L 193.252368 57.509778 
L 193.252368 60.580582 
L 194.696825 60.580582 
L 194.696825 59.602862 
L 196.141281 59.602862 
L 196.141281 61.534562 
L 197.585738 61.534562 
L 197.585738 64.654668 
L 199.030195 64.654668 
L 199.030195 64.350911 
L 200.474652 64.350911 
L 200.474652 64.420168 
L 201.919109 64.420168 
L 201.919109 66.170384 
L 203.363565 66.170384 
L 203.363565 65.500418 
L 204.808022 65.500418 
L 204.808022 64.535532 
L 206.252479 64.535532 
L 206.252479 66.056733 
L 207.696936 66.056733 
L 207.696936 66.851832 
L 209.141393 66.851832 
L 209.141393 69.545243 
L 210.58585 69.545243 
L 210.58585 70.615603 
L 212.030306 70.615603 
L 212.030306 76.836663 
L 213.474763 76.836663 
L 213.474763 77.016261 
L 214.91922 77.016261 
L 214.91922 77.001299 
L 216.363677 77.001299 
L 216.363677 81.824908 
L 217.808134 81.824908 
L 217.808134 84.750623 
L 219.252591 84.750623 
L 219.252591 87.792682 
L 220.697047 87.792682 
L 220.697047 91.382054 
L 221.419276 91.382054 
L 221.419276 96.780951 
L 221.419276 96.780951 
L 220.697047 96.780951 
L 220.697047 96.780951 
L 219.252591 96.780951 
L 219.252591 96.780951 
L 217.808134 96.780951 
L 217.808134 96.780951 
L 216.363677 96.780951 
L 216.363677 96.780951 
L 214.91922 96.780951 
L 214.91922 96.780951 
L 213.474763 96.780951 
L 213.474763 96.780951 
L 212.030306 96.780951 
L 212.030306 96.780951 
L 210.58585 96.780951 
L 210.58585 96.780951 
L 209.141393 96.780951 
L 209.141393 96.780951 
L 207.696936 96.780951 
L 207.696936 96.780951 
L 206.252479 96.780951 
L 206.252479 96.780951 
L 204.808022 96.780951 
L 204.808022 96.780951 
L 203.363565 96.780951 
L 203.363565 96.780951 
L 201.919109 96.780951 
L 201.919109 96.780951 
L 200.474652 96.780951 
L 200.474652 96.780951 
L 199.030195 96.780951 
L 199.030195 96.780951 
L 197.585738 96.780951 
L 197.585738 96.780951 
L 196.141281 96.780951 
L 196.141281 96.780951 
L 194.696825 96.780951 
L 194.696825 96.780951 
L 193.252368 96.780951 
L 193.252368 96.780951 
L 191.807911 96.780951 
L 191.807911 96.780951 
L 190.363454 96.780951 
L 190.363454 96.780951 
L 188.918997 96.780951 
L 188.918997 96.780951 
L 187.47454 96.780951 
L 187.47454 96.780951 
L 186.030084 96.780951 
L 186.030084 96.780951 
L 184.585627 96.780951 
L 184.585627 96.780951 
L 183.14117 96.780951 
L 183.14117 96.780951 
L 181.696713 96.780951 
L 181.696713 96.780951 
L 180.252256 96.780951 
L 180.252256 96.780951 
L 178.807799 96.780951 
L 178.807799 96.780951 
L 177.363343 96.780951 
L 177.363343 96.780951 
L 175.918886 96.780951 
L 175.918886 96.780951 
L 174.474429 96.780951 
L 174.474429 96.780951 
L 173.029972 96.780951 
L 173.029972 96.780951 
L 171.585515 96.780951 
L 171.585515 96.780951 
L 170.141058 96.780951 
L 170.141058 96.780951 
L 168.696602 96.780951 
L 168.696602 96.780951 
L 167.252145 96.780951 
L 167.252145 96.780951 
L 165.807688 96.780951 
L 165.807688 96.780951 
L 164.363231 96.780951 
L 164.363231 96.780951 
L 162.918774 96.780951 
L 162.918774 96.780951 
L 161.474318 96.780951 
L 161.474318 96.780951 
L 160.029861 96.780951 
L 160.029861 96.780951 
L 158.585404 96.780951 
L 158.585404 96.780951 
L 157.140947 96.780951 
L 157.140947 96.780951 
L 155.69649 96.780951 
L 155.69649 96.780951 
L 154.252033 96.780951 
L 154.252033 96.780951 
L 152.807577 96.780951 
L 152.807577 96.780951 
L 151.36312 96.780951 
L 151.36312 96.780951 
L 149.918663 96.780951 
L 149.918663 96.780951 
L 148.474206 96.780951 
L 148.474206 96.780951 
L 147.029749 96.780951 
L 147.029749 96.780951 
L 145.585292 96.780951 
L 145.585292 96.780951 
L 144.140836 96.780951 
L 144.140836 96.780951 
L 142.696379 96.780951 
L 142.696379 96.780951 
L 141.251922 96.780951 
L 141.251922 96.780951 
L 139.807465 96.780951 
L 139.807465 96.780951 
L 138.363008 96.780951 
L 138.363008 96.780951 
L 136.918552 96.780951 
L 136.918552 96.780951 
L 135.474095 96.780951 
L 135.474095 96.780951 
L 134.029638 96.780951 
L 134.029638 96.780951 
L 132.585181 96.780951 
L 132.585181 96.780951 
L 131.140724 96.780951 
L 131.140724 96.780951 
L 129.696267 96.780951 
L 129.696267 96.780951 
L 128.251811 96.780951 
L 128.251811 96.780951 
L 126.807354 96.780951 
L 126.807354 96.780951 
L 125.362897 96.780951 
L 125.362897 96.780951 
L 123.91844 96.780951 
L 123.91844 96.780951 
L 123.196212 96.780951 
z
" clip-path="url(#p0dd07bca78)" style="fill: #17becf; fill-opacity: 0.6; stroke: #1f77b4; stroke-opacity: 0.8; stroke-width: 1.5"/>
    <path d="M 283.530919 96.780951 
L 283.530919 89.92005 
L 284.253148 89.92005 
L 284.253148 91.410341 
L 285.697604 91.410341 
L 285.697604 92.222405 
L 287.142061 92.222405 
L 287.142061 93.917806 
L 288.586518 93.917806 
L 288.586518 92.600749 
L 289.308747 92.600749 
L 289.308747 96.780951 
L 289.308747 96.780951 
L 288.586518 96.780951 
L 288.586518 96.780951 
L 287.142061 96.780951 
L 287.142061 96.780951 
L 285.697604 96.780951 
L 285.697604 96.780951 
L 284.253148 96.780951 
L 284.253148 96.780951 
L 283.530919 96.780951 
z
" clip-path="url(#p0dd07bca78)" style="fill: #17becf; fill-opacity: 0.6; stroke: #1f77b4; stroke-opacity: 0.8; stroke-width: 1.5"/>
    <path d="M 306.642228 96.780951 
L 306.642228 93.887859 
L 306.642228 93.887859 
L 306.642228 96.780951 
L 306.642228 96.780951 
L 306.642228 96.780951 
z
" clip-path="url(#p0dd07bca78)" style="fill: #17becf; fill-opacity: 0.6; stroke: #1f77b4; stroke-opacity: 0.8; stroke-width: 1.5"/>
    <path d="M 355.75376 96.780951 
L 355.75376 96.255495 
L 356.475989 96.255495 
L 356.475989 93.953316 
L 357.920446 93.953316 
L 357.920446 89.176828 
L 359.364903 89.176828 
L 359.364903 96.719505 
L 360.809359 96.719505 
L 360.809359 88.919537 
L 362.253816 88.919537 
L 362.253816 89.802829 
L 363.698273 89.802829 
L 363.698273 89.417324 
L 365.14273 89.417324 
L 365.14273 89.755305 
L 366.587187 89.755305 
L 366.587187 92.038505 
L 368.031643 92.038505 
L 368.031643 88.871642 
L 369.4761 88.871642 
L 369.4761 95.808201 
L 370.920557 95.808201 
L 370.920557 96.137193 
L 371.642786 96.137193 
L 371.642786 96.780951 
L 371.642786 96.780951 
L 370.920557 96.780951 
L 370.920557 96.780951 
L 369.4761 96.780951 
L 369.4761 96.780951 
L 368.031643 96.780951 
L 368.031643 96.780951 
L 366.587187 96.780951 
L 366.587187 96.780951 
L 365.14273 96.780951 
L 365.14273 96.780951 
L 363.698273 96.780951 
L 363.698273 96.780951 
L 362.253816 96.780951 
L 362.253816 96.780951 
L 360.809359 96.780951 
L 360.809359 96.780951 
L 359.364903 96.780951 
L 359.364903 96.780951 
L 357.920446 96.780951 
L 357.920446 96.780951 
L 356.475989 96.780951 
L 356.475989 96.780951 
L 355.75376 96.780951 
z
" clip-path="url(#p0dd07bca78)" style="fill: #17becf; fill-opacity: 0.6; stroke: #1f77b4; stroke-opacity: 0.8; stroke-width: 1.5"/>
    <path d="M 396.198552 96.780951 
L 396.198552 91.347697 
L 396.92078 91.347697 
L 396.92078 85.544724 
L 398.365237 85.544724 
L 398.365237 84.153537 
L 399.809694 84.153537 
L 399.809694 84.688255 
L 401.25415 84.688255 
L 401.25415 83.897662 
L 402.698607 83.897662 
L 402.698607 89.00023 
L 404.143064 89.00023 
L 404.143064 92.924554 
L 405.587521 92.924554 
L 405.587521 94.680023 
L 406.309749 94.680023 
L 406.309749 96.780951 
L 406.309749 96.780951 
L 405.587521 96.780951 
L 405.587521 96.780951 
L 404.143064 96.780951 
L 404.143064 96.780951 
L 402.698607 96.780951 
L 402.698607 96.780951 
L 401.25415 96.780951 
L 401.25415 96.780951 
L 399.809694 96.780951 
L 399.809694 96.780951 
L 398.365237 96.780951 
L 398.365237 96.780951 
L 396.92078 96.780951 
L 396.92078 96.780951 
L 396.198552 96.780951 
z
" clip-path="url(#p0dd07bca78)" style="fill: #17becf; fill-opacity: 0.6; stroke: #1f77b4; stroke-opacity: 0.8; stroke-width: 1.5"/>
    <path d="M 410.64312 96.780951 
L 410.64312 93.111089 
L 411.365348 93.111089 
L 411.365348 91.447942 
L 412.809805 91.447942 
L 412.809805 86.092618 
L 414.254262 86.092618 
L 414.254262 89.006868 
L 415.698719 89.006868 
L 415.698719 88.450053 
L 417.143175 88.450053 
L 417.143175 89.567257 
L 418.587632 89.567257 
L 418.587632 91.317547 
L 419.309861 91.317547 
L 419.309861 96.780951 
L 419.309861 96.780951 
L 418.587632 96.780951 
L 418.587632 96.780951 
L 417.143175 96.780951 
L 417.143175 96.780951 
L 415.698719 96.780951 
L 415.698719 96.780951 
L 414.254262 96.780951 
L 414.254262 96.780951 
L 412.809805 96.780951 
L 412.809805 96.780951 
L 411.365348 96.780951 
L 411.365348 96.780951 
L 410.64312 96.780951 
z
" clip-path="url(#p0dd07bca78)" style="fill: #17becf; fill-opacity: 0.6; stroke: #1f77b4; stroke-opacity: 0.8; stroke-width: 1.5"/>
    <path d="M 443.865627 96.780951 
L 443.865627 93.662173 
L 444.587855 93.662173 
L 444.587855 93.256024 
L 446.032312 93.256024 
L 446.032312 87.316417 
L 447.476769 87.316417 
L 447.476769 81.383035 
L 448.921226 81.383035 
L 448.921226 82.545969 
L 450.365682 82.545969 
L 450.365682 84.372588 
L 451.810139 84.372588 
L 451.810139 86.905952 
L 453.254596 86.905952 
L 453.254596 87.4298 
L 454.699053 87.4298 
L 454.699053 85.291847 
L 456.14351 85.291847 
L 456.14351 90.670963 
L 457.587967 90.670963 
L 457.587967 92.472917 
L 459.032423 92.472917 
L 459.032423 89.509904 
L 460.47688 89.509904 
L 460.47688 93.014638 
L 461.921337 93.014638 
L 461.921337 95.087598 
L 462.643565 95.087598 
L 462.643565 96.780951 
L 462.643565 96.780951 
L 461.921337 96.780951 
L 461.921337 96.780951 
L 460.47688 96.780951 
L 460.47688 96.780951 
L 459.032423 96.780951 
L 459.032423 96.780951 
L 457.587967 96.780951 
L 457.587967 96.780951 
L 456.14351 96.780951 
L 456.14351 96.780951 
L 454.699053 96.780951 
L 454.699053 96.780951 
L 453.254596 96.780951 
L 453.254596 96.780951 
L 451.810139 96.780951 
L 451.810139 96.780951 
L 450.365682 96.780951 
L 450.365682 96.780951 
L 448.921226 96.780951 
L 448.921226 96.780951 
L 447.476769 96.780951 
L 447.476769 96.780951 
L 446.032312 96.780951 
L 446.032312 96.780951 
L 444.587855 96.780951 
L 444.587855 96.780951 
L 443.865627 96.780951 
z
" clip-path="url(#p0dd07bca78)" style="fill: #17becf; fill-opacity: 0.6; stroke: #1f77b4; stroke-opacity: 0.8; stroke-width: 1.5"/>
    <path d="M 533.42195 96.780951 
L 533.42195 92.336324 
L 533.42195 92.336324 
L 533.42195 96.780951 
L 533.42195 96.780951 
L 533.42195 96.780951 
z
" clip-path="url(#p0dd07bca78)" style="fill: #17becf; fill-opacity: 0.6; stroke: #1f77b4; stroke-opacity: 0.8; stroke-width: 1.5"/>
    <path d="M 536.310864 96.780951 
L 536.310864 89.665941 
L 537.033092 89.665941 
L 537.033092 89.846521 
L 538.477549 89.846521 
L 538.477549 92.868249 
L 539.922006 92.868249 
L 539.922006 90.629576 
L 541.366462 90.629576 
L 541.366462 94.010625 
L 542.810919 94.010625 
L 542.810919 87.700426 
L 544.255376 87.700426 
L 544.255376 87.068125 
L 545.699833 87.068125 
L 545.699833 91.270416 
L 547.14429 91.270416 
L 547.14429 91.754671 
L 548.588747 91.754671 
L 548.588747 86.893566 
L 550.033203 86.893566 
L 550.033203 80.488233 
L 551.47766 80.488233 
L 551.47766 82.790638 
L 552.922117 82.790638 
L 552.922117 82.858402 
L 554.366574 82.858402 
L 554.366574 81.963414 
L 555.811031 81.963414 
L 555.811031 82.401881 
L 557.255487 82.401881 
L 557.255487 78.972813 
L 558.699944 78.972813 
L 558.699944 83.071428 
L 560.144401 83.071428 
L 560.144401 81.369405 
L 561.588858 81.369405 
L 561.588858 81.045109 
L 563.033315 81.045109 
L 563.033315 87.886691 
L 564.477772 87.886691 
L 564.477772 88.632098 
L 565.2 88.632098 
L 565.2 96.780951 
L 565.2 96.780951 
L 564.477772 96.780951 
L 564.477772 96.780951 
L 563.033315 96.780951 
L 563.033315 96.780951 
L 561.588858 96.780951 
L 561.588858 96.780951 
L 560.144401 96.780951 
L 560.144401 96.780951 
L 558.699944 96.780951 
L 558.699944 96.780951 
L 557.255487 96.780951 
L 557.255487 96.780951 
L 555.811031 96.780951 
L 555.811031 96.780951 
L 554.366574 96.780951 
L 554.366574 96.780951 
L 552.922117 96.780951 
L 552.922117 96.780951 
L 551.47766 96.780951 
L 551.47766 96.780951 
L 550.033203 96.780951 
L 550.033203 96.780951 
L 548.588747 96.780951 
L 548.588747 96.780951 
L 547.14429 96.780951 
L 547.14429 96.780951 
L 545.699833 96.780951 
L 545.699833 96.780951 
L 544.255376 96.780951 
L 544.255376 96.780951 
L 542.810919 96.780951 
L 542.810919 96.780951 
L 541.366462 96.780951 
L 541.366462 96.780951 
L 539.922006 96.780951 
L 539.922006 96.780951 
L 538.477549 96.780951 
L 538.477549 96.780951 
L 537.033092 96.780951 
L 537.033092 96.780951 
L 536.310864 96.780951 
z
" clip-path="url(#p0dd07bca78)" style="fill: #17becf; fill-opacity: 0.6; stroke: #1f77b4; stroke-opacity: 0.8; stroke-width: 1.5"/>
   </g>
   <g id="PolyCollection_2">
    <path d="M 102.973816 96.780951 
L 102.973816 97.573702 
L 102.973816 97.573702 
L 102.973816 96.780951 
L 102.973816 96.780951 
L 102.973816 96.780951 
z
" clip-path="url(#p0dd07bca78)" style="fill: #d62728; fill-opacity: 0.6; stroke: #b22222; stroke-opacity: 0.8; stroke-width: 1.5"/>
    <path d="M 105.86273 96.780951 
L 105.86273 101.183612 
L 106.584958 101.183612 
L 106.584958 102.384796 
L 108.029415 102.384796 
L 108.029415 102.155202 
L 109.473872 102.155202 
L 109.473872 103.474929 
L 110.918329 103.474929 
L 110.918329 97.97077 
L 111.640557 97.97077 
L 111.640557 96.780951 
L 111.640557 96.780951 
L 110.918329 96.780951 
L 110.918329 96.780951 
L 109.473872 96.780951 
L 109.473872 96.780951 
L 108.029415 96.780951 
L 108.029415 96.780951 
L 106.584958 96.780951 
L 106.584958 96.780951 
L 105.86273 96.780951 
z
" clip-path="url(#p0dd07bca78)" style="fill: #d62728; fill-opacity: 0.6; stroke: #b22222; stroke-opacity: 0.8; stroke-width: 1.5"/>
    <path d="M 114.529471 96.780951 
L 114.529471 99.555233 
L 115.251699 99.555233 
L 115.251699 106.645907 
L 116.696156 106.645907 
L 116.696156 109.533243 
L 118.140613 109.533243 
L 118.140613 105.052411 
L 119.58507 105.052411 
L 119.58507 100.784479 
L 121.029526 100.784479 
L 121.029526 98.783864 
L 121.751755 98.783864 
L 121.751755 96.780951 
L 121.751755 96.780951 
L 121.029526 96.780951 
L 121.029526 96.780951 
L 119.58507 96.780951 
L 119.58507 96.780951 
L 118.140613 96.780951 
L 118.140613 96.780951 
L 116.696156 96.780951 
L 116.696156 96.780951 
L 115.251699 96.780951 
L 115.251699 96.780951 
L 114.529471 96.780951 
z
" clip-path="url(#p0dd07bca78)" style="fill: #d62728; fill-opacity: 0.6; stroke: #b22222; stroke-opacity: 0.8; stroke-width: 1.5"/>
    <path d="M 222.863733 96.780951 
L 222.863733 98.988734 
L 223.585961 98.988734 
L 223.585961 100.80356 
L 225.030418 100.80356 
L 225.030418 109.255371 
L 226.474875 109.255371 
L 226.474875 109.902472 
L 227.919331 109.902472 
L 227.919331 103.045225 
L 229.363788 103.045225 
L 229.363788 103.215467 
L 230.808245 103.215467 
L 230.808245 109.222393 
L 232.252702 109.222393 
L 232.252702 101.751986 
L 233.697159 101.751986 
L 233.697159 104.238293 
L 235.141616 104.238293 
L 235.141616 104.979037 
L 236.586072 104.979037 
L 236.586072 105.807436 
L 238.030529 105.807436 
L 238.030529 123.624174 
L 239.474986 123.624174 
L 239.474986 131.49051 
L 240.919443 131.49051 
L 240.919443 124.062773 
L 242.3639 124.062773 
L 242.3639 125.895742 
L 243.808357 125.895742 
L 243.808357 115.239516 
L 245.252813 115.239516 
L 245.252813 123.127068 
L 246.69727 123.127068 
L 246.69727 127.002797 
L 248.141727 127.002797 
L 248.141727 131.616524 
L 249.586184 131.616524 
L 249.586184 143.265433 
L 251.030641 143.265433 
L 251.030641 144.919342 
L 252.475097 144.919342 
L 252.475097 167.42 
L 253.919554 167.42 
L 253.919554 149.528485 
L 255.364011 149.528485 
L 255.364011 145.42462 
L 256.808468 145.42462 
L 256.808468 122.1628 
L 258.252925 122.1628 
L 258.252925 127.338752 
L 259.697382 127.338752 
L 259.697382 123.208677 
L 261.141838 123.208677 
L 261.141838 122.554006 
L 262.586295 122.554006 
L 262.586295 127.166521 
L 264.030752 127.166521 
L 264.030752 131.517313 
L 265.475209 131.517313 
L 265.475209 137.799177 
L 266.919666 137.799177 
L 266.919666 137.610561 
L 268.364123 137.610561 
L 268.364123 128.484596 
L 269.808579 128.484596 
L 269.808579 126.302112 
L 271.253036 126.302112 
L 271.253036 122.876679 
L 272.697493 122.876679 
L 272.697493 120.727908 
L 274.14195 120.727908 
L 274.14195 128.373408 
L 275.586407 128.373408 
L 275.586407 126.158251 
L 277.030864 126.158251 
L 277.030864 118.678456 
L 278.47532 118.678456 
L 278.47532 124.67851 
L 279.919777 124.67851 
L 279.919777 116.790083 
L 281.364234 116.790083 
L 281.364234 103.526393 
L 282.086462 103.526393 
L 282.086462 96.780951 
L 282.086462 96.780951 
L 281.364234 96.780951 
L 281.364234 96.780951 
L 279.919777 96.780951 
L 279.919777 96.780951 
L 278.47532 96.780951 
L 278.47532 96.780951 
L 277.030864 96.780951 
L 277.030864 96.780951 
L 275.586407 96.780951 
L 275.586407 96.780951 
L 274.14195 96.780951 
L 274.14195 96.780951 
L 272.697493 96.780951 
L 272.697493 96.780951 
L 271.253036 96.780951 
L 271.253036 96.780951 
L 269.808579 96.780951 
L 269.808579 96.780951 
L 268.364123 96.780951 
L 268.364123 96.780951 
L 266.919666 96.780951 
L 266.919666 96.780951 
L 265.475209 96.780951 
L 265.475209 96.780951 
L 264.030752 96.780951 
L 264.030752 96.780951 
L 262.586295 96.780951 
L 262.586295 96.780951 
L 261.141838 96.780951 
L 261.141838 96.780951 
L 259.697382 96.780951 
L 259.697382 96.780951 
L 258.252925 96.780951 
L 258.252925 96.780951 
L 256.808468 96.780951 
L 256.808468 96.780951 
L 255.364011 96.780951 
L 255.364011 96.780951 
L 253.919554 96.780951 
L 253.919554 96.780951 
L 252.475097 96.780951 
L 252.475097 96.780951 
L 251.030641 96.780951 
L 251.030641 96.780951 
L 249.586184 96.780951 
L 249.586184 96.780951 
L 248.141727 96.780951 
L 248.141727 96.780951 
L 246.69727 96.780951 
L 246.69727 96.780951 
L 245.252813 96.780951 
L 245.252813 96.780951 
L 243.808357 96.780951 
L 243.808357 96.780951 
L 242.3639 96.780951 
L 242.3639 96.780951 
L 240.919443 96.780951 
L 240.919443 96.780951 
L 239.474986 96.780951 
L 239.474986 96.780951 
L 238.030529 96.780951 
L 238.030529 96.780951 
L 236.586072 96.780951 
L 236.586072 96.780951 
L 235.141616 96.780951 
L 235.141616 96.780951 
L 233.697159 96.780951 
L 233.697159 96.780951 
L 232.252702 96.780951 
L 232.252702 96.780951 
L 230.808245 96.780951 
L 230.808245 96.780951 
L 229.363788 96.780951 
L 229.363788 96.780951 
L 227.919331 96.780951 
L 227.919331 96.780951 
L 226.474875 96.780951 
L 226.474875 96.780951 
L 225.030418 96.780951 
L 225.030418 96.780951 
L 223.585961 96.780951 
L 223.585961 96.780951 
L 222.863733 96.780951 
z
" clip-path="url(#p0dd07bca78)" style="fill: #d62728; fill-opacity: 0.6; stroke: #b22222; stroke-opacity: 0.8; stroke-width: 1.5"/>
    <path d="M 290.753203 96.780951 
L 290.753203 103.288591 
L 291.475432 103.288591 
L 291.475432 111.304499 
L 292.919889 111.304499 
L 292.919889 104.158207 
L 294.364345 104.158207 
L 294.364345 97.626577 
L 295.808802 97.626577 
L 295.808802 99.426936 
L 297.253259 99.426936 
L 297.253259 97.837698 
L 298.697716 97.837698 
L 298.697716 99.799528 
L 300.142173 99.799528 
L 300.142173 100.429351 
L 301.58663 100.429351 
L 301.58663 99.47478 
L 303.031086 99.47478 
L 303.031086 97.354517 
L 304.475543 97.354517 
L 304.475543 96.979462 
L 305.197772 96.979462 
L 305.197772 96.780951 
L 305.197772 96.780951 
L 304.475543 96.780951 
L 304.475543 96.780951 
L 303.031086 96.780951 
L 303.031086 96.780951 
L 301.58663 96.780951 
L 301.58663 96.780951 
L 300.142173 96.780951 
L 300.142173 96.780951 
L 298.697716 96.780951 
L 298.697716 96.780951 
L 297.253259 96.780951 
L 297.253259 96.780951 
L 295.808802 96.780951 
L 295.808802 96.780951 
L 294.364345 96.780951 
L 294.364345 96.780951 
L 292.919889 96.780951 
L 292.919889 96.780951 
L 291.475432 96.780951 
L 291.475432 96.780951 
L 290.753203 96.780951 
z
" clip-path="url(#p0dd07bca78)" style="fill: #d62728; fill-opacity: 0.6; stroke: #b22222; stroke-opacity: 0.8; stroke-width: 1.5"/>
    <path d="M 308.086685 96.780951 
L 308.086685 97.255267 
L 308.808914 97.255267 
L 308.808914 98.212158 
L 310.25337 98.212158 
L 310.25337 99.816658 
L 311.697827 99.816658 
L 311.697827 102.659159 
L 313.142284 102.659159 
L 313.142284 100.741229 
L 314.586741 100.741229 
L 314.586741 99.462176 
L 316.031198 99.462176 
L 316.031198 97.159319 
L 317.475655 97.159319 
L 317.475655 100.166119 
L 318.920111 100.166119 
L 318.920111 105.576888 
L 320.364568 105.576888 
L 320.364568 108.140759 
L 321.809025 108.140759 
L 321.809025 110.141898 
L 323.253482 110.141898 
L 323.253482 113.649269 
L 324.697939 113.649269 
L 324.697939 105.132776 
L 326.142396 105.132776 
L 326.142396 106.566341 
L 327.586852 106.566341 
L 327.586852 108.141062 
L 329.031309 108.141062 
L 329.031309 108.215184 
L 330.475766 108.215184 
L 330.475766 108.261824 
L 331.920223 108.261824 
L 331.920223 115.539228 
L 333.36468 115.539228 
L 333.36468 120.212364 
L 334.809136 120.212364 
L 334.809136 119.044712 
L 336.253593 119.044712 
L 336.253593 112.910444 
L 337.69805 112.910444 
L 337.69805 108.006748 
L 339.142507 108.006748 
L 339.142507 100.190056 
L 340.586964 100.190056 
L 340.586964 106.706692 
L 342.031421 106.706692 
L 342.031421 102.192378 
L 343.475877 102.192378 
L 343.475877 99.011526 
L 344.920334 99.011526 
L 344.920334 108.046317 
L 346.364791 108.046317 
L 346.364791 122.644737 
L 347.809248 122.644737 
L 347.809248 116.069666 
L 349.253705 116.069666 
L 349.253705 114.424514 
L 350.698162 114.424514 
L 350.698162 108.69506 
L 352.142618 108.69506 
L 352.142618 103.211154 
L 353.587075 103.211154 
L 353.587075 100.276399 
L 354.309304 100.276399 
L 354.309304 96.780951 
L 354.309304 96.780951 
L 353.587075 96.780951 
L 353.587075 96.780951 
L 352.142618 96.780951 
L 352.142618 96.780951 
L 350.698162 96.780951 
L 350.698162 96.780951 
L 349.253705 96.780951 
L 349.253705 96.780951 
L 347.809248 96.780951 
L 347.809248 96.780951 
L 346.364791 96.780951 
L 346.364791 96.780951 
L 344.920334 96.780951 
L 344.920334 96.780951 
L 343.475877 96.780951 
L 343.475877 96.780951 
L 342.031421 96.780951 
L 342.031421 96.780951 
L 340.586964 96.780951 
L 340.586964 96.780951 
L 339.142507 96.780951 
L 339.142507 96.780951 
L 337.69805 96.780951 
L 337.69805 96.780951 
L 336.253593 96.780951 
L 336.253593 96.780951 
L 334.809136 96.780951 
L 334.809136 96.780951 
L 333.36468 96.780951 
L 333.36468 96.780951 
L 331.920223 96.780951 
L 331.920223 96.780951 
L 330.475766 96.780951 
L 330.475766 96.780951 
L 329.031309 96.780951 
L 329.031309 96.780951 
L 327.586852 96.780951 
L 327.586852 96.780951 
L 326.142396 96.780951 
L 326.142396 96.780951 
L 324.697939 96.780951 
L 324.697939 96.780951 
L 323.253482 96.780951 
L 323.253482 96.780951 
L 321.809025 96.780951 
L 321.809025 96.780951 
L 320.364568 96.780951 
L 320.364568 96.780951 
L 318.920111 96.780951 
L 318.920111 96.780951 
L 317.475655 96.780951 
L 317.475655 96.780951 
L 316.031198 96.780951 
L 316.031198 96.780951 
L 314.586741 96.780951 
L 314.586741 96.780951 
L 313.142284 96.780951 
L 313.142284 96.780951 
L 311.697827 96.780951 
L 311.697827 96.780951 
L 310.25337 96.780951 
L 310.25337 96.780951 
L 308.808914 96.780951 
L 308.808914 96.780951 
L 308.086685 96.780951 
z
" clip-path="url(#p0dd07bca78)" style="fill: #d62728; fill-opacity: 0.6; stroke: #b22222; stroke-opacity: 0.8; stroke-width: 1.5"/>
    <path d="M 373.087242 96.780951 
L 373.087242 100.063903 
L 373.809471 100.063903 
L 373.809471 107.747786 
L 375.253928 107.747786 
L 375.253928 108.9578 
L 376.698384 108.9578 
L 376.698384 115.753959 
L 378.142841 115.753959 
L 378.142841 119.43529 
L 379.587298 119.43529 
L 379.587298 119.279108 
L 381.031755 119.279108 
L 381.031755 119.411183 
L 382.476212 119.411183 
L 382.476212 113.577958 
L 383.920669 113.577958 
L 383.920669 124.476986 
L 385.365125 124.476986 
L 385.365125 120.73452 
L 386.809582 120.73452 
L 386.809582 116.305089 
L 388.254039 116.305089 
L 388.254039 118.191162 
L 389.698496 118.191162 
L 389.698496 113.006244 
L 391.142953 113.006244 
L 391.142953 110.518608 
L 392.587409 110.518608 
L 392.587409 101.188047 
L 394.031866 101.188047 
L 394.031866 98.515276 
L 394.754095 98.515276 
L 394.754095 96.780951 
L 394.754095 96.780951 
L 394.031866 96.780951 
L 394.031866 96.780951 
L 392.587409 96.780951 
L 392.587409 96.780951 
L 391.142953 96.780951 
L 391.142953 96.780951 
L 389.698496 96.780951 
L 389.698496 96.780951 
L 388.254039 96.780951 
L 388.254039 96.780951 
L 386.809582 96.780951 
L 386.809582 96.780951 
L 385.365125 96.780951 
L 385.365125 96.780951 
L 383.920669 96.780951 
L 383.920669 96.780951 
L 382.476212 96.780951 
L 382.476212 96.780951 
L 381.031755 96.780951 
L 381.031755 96.780951 
L 379.587298 96.780951 
L 379.587298 96.780951 
L 378.142841 96.780951 
L 378.142841 96.780951 
L 376.698384 96.780951 
L 376.698384 96.780951 
L 375.253928 96.780951 
L 375.253928 96.780951 
L 373.809471 96.780951 
L 373.809471 96.780951 
L 373.087242 96.780951 
z
" clip-path="url(#p0dd07bca78)" style="fill: #d62728; fill-opacity: 0.6; stroke: #b22222; stroke-opacity: 0.8; stroke-width: 1.5"/>
    <path d="M 407.754206 96.780951 
L 407.754206 97.504922 
L 408.476435 97.504922 
L 408.476435 98.047657 
L 409.198663 98.047657 
L 409.198663 96.780951 
L 409.198663 96.780951 
L 408.476435 96.780951 
L 408.476435 96.780951 
L 407.754206 96.780951 
z
" clip-path="url(#p0dd07bca78)" style="fill: #d62728; fill-opacity: 0.6; stroke: #b22222; stroke-opacity: 0.8; stroke-width: 1.5"/>
    <path d="M 420.754318 96.780951 
L 420.754318 97.102848 
L 421.476546 97.102848 
L 421.476546 111.417493 
L 422.921003 111.417493 
L 422.921003 103.686438 
L 424.36546 103.686438 
L 424.36546 110.087365 
L 425.809916 110.087365 
L 425.809916 105.449092 
L 427.254373 105.449092 
L 427.254373 107.232763 
L 428.69883 107.232763 
L 428.69883 112.884006 
L 430.143287 112.884006 
L 430.143287 115.264224 
L 431.587744 115.264224 
L 431.587744 119.675856 
L 433.032201 119.675856 
L 433.032201 118.30181 
L 434.476657 118.30181 
L 434.476657 120.844618 
L 435.921114 120.844618 
L 435.921114 117.868245 
L 437.365571 117.868245 
L 437.365571 111.192309 
L 438.810028 111.192309 
L 438.810028 100.136099 
L 440.254485 100.136099 
L 440.254485 99.593448 
L 441.698942 99.593448 
L 441.698942 97.555358 
L 442.42117 97.555358 
L 442.42117 96.780951 
L 442.42117 96.780951 
L 441.698942 96.780951 
L 441.698942 96.780951 
L 440.254485 96.780951 
L 440.254485 96.780951 
L 438.810028 96.780951 
L 438.810028 96.780951 
L 437.365571 96.780951 
L 437.365571 96.780951 
L 435.921114 96.780951 
L 435.921114 96.780951 
L 434.476657 96.780951 
L 434.476657 96.780951 
L 433.032201 96.780951 
L 433.032201 96.780951 
L 431.587744 96.780951 
L 431.587744 96.780951 
L 430.143287 96.780951 
L 430.143287 96.780951 
L 428.69883 96.780951 
L 428.69883 96.780951 
L 427.254373 96.780951 
L 427.254373 96.780951 
L 425.809916 96.780951 
L 425.809916 96.780951 
L 424.36546 96.780951 
L 424.36546 96.780951 
L 422.921003 96.780951 
L 422.921003 96.780951 
L 421.476546 96.780951 
L 421.476546 96.780951 
L 420.754318 96.780951 
z
" clip-path="url(#p0dd07bca78)" style="fill: #d62728; fill-opacity: 0.6; stroke: #b22222; stroke-opacity: 0.8; stroke-width: 1.5"/>
    <path d="M 464.088022 96.780951 
L 464.088022 101.82044 
L 464.810251 101.82044 
L 464.810251 108.03529 
L 466.254708 108.03529 
L 466.254708 107.74016 
L 467.699164 107.74016 
L 467.699164 105.844566 
L 469.143621 105.844566 
L 469.143621 120.05379 
L 470.588078 120.05379 
L 470.588078 116.692493 
L 472.032535 116.692493 
L 472.032535 118.383502 
L 473.476992 118.383502 
L 473.476992 123.499415 
L 474.921448 123.499415 
L 474.921448 132.033549 
L 476.365905 132.033549 
L 476.365905 139.081532 
L 477.810362 139.081532 
L 477.810362 134.478025 
L 479.254819 134.478025 
L 479.254819 144.950699 
L 480.699276 144.950699 
L 480.699276 140.755141 
L 482.143733 140.755141 
L 482.143733 139.672791 
L 483.588189 139.672791 
L 483.588189 136.518586 
L 485.032646 136.518586 
L 485.032646 127.28113 
L 486.477103 127.28113 
L 486.477103 141.27646 
L 487.92156 141.27646 
L 487.92156 131.354661 
L 489.366017 131.354661 
L 489.366017 140.430536 
L 490.810474 140.430536 
L 490.810474 132.417838 
L 492.25493 132.417838 
L 492.25493 120.336544 
L 493.699387 120.336544 
L 493.699387 125.522732 
L 495.143844 125.522732 
L 495.143844 124.994199 
L 496.588301 124.994199 
L 496.588301 126.128125 
L 498.032758 126.128125 
L 498.032758 117.782984 
L 499.477214 117.782984 
L 499.477214 101.840705 
L 500.921671 101.840705 
L 500.921671 100.354182 
L 502.366128 100.354182 
L 502.366128 110.065523 
L 503.810585 110.065523 
L 503.810585 104.031063 
L 505.255042 104.031063 
L 505.255042 104.830096 
L 506.699499 104.830096 
L 506.699499 111.131694 
L 508.143955 111.131694 
L 508.143955 109.119649 
L 509.588412 109.119649 
L 509.588412 121.857334 
L 511.032869 121.857334 
L 511.032869 126.597373 
L 512.477326 126.597373 
L 512.477326 126.12862 
L 513.921783 126.12862 
L 513.921783 120.47807 
L 515.36624 120.47807 
L 515.36624 106.714879 
L 516.810696 106.714879 
L 516.810696 104.297353 
L 518.255153 104.297353 
L 518.255153 107.042886 
L 519.69961 107.042886 
L 519.69961 104.918275 
L 521.144067 104.918275 
L 521.144067 101.643155 
L 522.588524 101.643155 
L 522.588524 113.656221 
L 524.032981 113.656221 
L 524.032981 114.545612 
L 525.477437 114.545612 
L 525.477437 119.023876 
L 526.921894 119.023876 
L 526.921894 114.237418 
L 528.366351 114.237418 
L 528.366351 104.70101 
L 529.810808 104.70101 
L 529.810808 103.111088 
L 531.255265 103.111088 
L 531.255265 103.47629 
L 531.977493 103.47629 
L 531.977493 96.780951 
L 531.977493 96.780951 
L 531.255265 96.780951 
L 531.255265 96.780951 
L 529.810808 96.780951 
L 529.810808 96.780951 
L 528.366351 96.780951 
L 528.366351 96.780951 
L 526.921894 96.780951 
L 526.921894 96.780951 
L 525.477437 96.780951 
L 525.477437 96.780951 
L 524.032981 96.780951 
L 524.032981 96.780951 
L 522.588524 96.780951 
L 522.588524 96.780951 
L 521.144067 96.780951 
L 521.144067 96.780951 
L 519.69961 96.780951 
L 519.69961 96.780951 
L 518.255153 96.780951 
L 518.255153 96.780951 
L 516.810696 96.780951 
L 516.810696 96.780951 
L 515.36624 96.780951 
L 515.36624 96.780951 
L 513.921783 96.780951 
L 513.921783 96.780951 
L 512.477326 96.780951 
L 512.477326 96.780951 
L 511.032869 96.780951 
L 511.032869 96.780951 
L 509.588412 96.780951 
L 509.588412 96.780951 
L 508.143955 96.780951 
L 508.143955 96.780951 
L 506.699499 96.780951 
L 506.699499 96.780951 
L 505.255042 96.780951 
L 505.255042 96.780951 
L 503.810585 96.780951 
L 503.810585 96.780951 
L 502.366128 96.780951 
L 502.366128 96.780951 
L 500.921671 96.780951 
L 500.921671 96.780951 
L 499.477214 96.780951 
L 499.477214 96.780951 
L 498.032758 96.780951 
L 498.032758 96.780951 
L 496.588301 96.780951 
L 496.588301 96.780951 
L 495.143844 96.780951 
L 495.143844 96.780951 
L 493.699387 96.780951 
L 493.699387 96.780951 
L 492.25493 96.780951 
L 492.25493 96.780951 
L 490.810474 96.780951 
L 490.810474 96.780951 
L 489.366017 96.780951 
L 489.366017 96.780951 
L 487.92156 96.780951 
L 487.92156 96.780951 
L 486.477103 96.780951 
L 486.477103 96.780951 
L 485.032646 96.780951 
L 485.032646 96.780951 
L 483.588189 96.780951 
L 483.588189 96.780951 
L 482.143733 96.780951 
L 482.143733 96.780951 
L 480.699276 96.780951 
L 480.699276 96.780951 
L 479.254819 96.780951 
L 479.254819 96.780951 
L 477.810362 96.780951 
L 477.810362 96.780951 
L 476.365905 96.780951 
L 476.365905 96.780951 
L 474.921448 96.780951 
L 474.921448 96.780951 
L 473.476992 96.780951 
L 473.476992 96.780951 
L 472.032535 96.780951 
L 472.032535 96.780951 
L 470.588078 96.780951 
L 470.588078 96.780951 
L 469.143621 96.780951 
L 469.143621 96.780951 
L 467.699164 96.780951 
L 467.699164 96.780951 
L 466.254708 96.780951 
L 466.254708 96.780951 
L 464.810251 96.780951 
L 464.810251 96.780951 
L 464.088022 96.780951 
z
" clip-path="url(#p0dd07bca78)" style="fill: #d62728; fill-opacity: 0.6; stroke: #b22222; stroke-opacity: 0.8; stroke-width: 1.5"/>
    <path d="M 534.866407 96.780951 
L 534.866407 97.570475 
L 534.866407 97.570475 
L 534.866407 96.780951 
L 534.866407 96.780951 
L 534.866407 96.780951 
z
" clip-path="url(#p0dd07bca78)" style="fill: #d62728; fill-opacity: 0.6; stroke: #b22222; stroke-opacity: 0.8; stroke-width: 1.5"/>
   </g>
   <g id="matplotlib.axis_1">
    <g id="xtick_1">
     <g id="line2d_1">
      <defs>
       <path id="m13c3dad143" d="M 0 0 
L 0 3.5 
" style="stroke: #000000; stroke-width: 0.8"/>
      </defs>
      <g>
       <use xlink:href="#m13c3dad143" x="115.973928" y="167.42" style="stroke: #000000; stroke-width: 0.8"/>
      </g>
     </g>
     <g id="text_1">
      <!-- 1995 -->
      <g transform="translate(103.248928 182.018437) scale(0.1 -0.1)">
       <defs>
        <path id="DejaVuSans-31" d="M 794 531 
L 1825 531 
L 1825 4091 
L 703 3866 
L 703 4441 
L 1819 4666 
L 2450 4666 
L 2450 531 
L 3481 531 
L 3481 0 
L 794 0 
L 794 531 
z
" transform="scale(0.015625)"/>
        <path id="DejaVuSans-39" d="M 703 97 
L 703 672 
Q 941 559 1184 500 
Q 1428 441 1663 441 
Q 2288 441 2617 861 
Q 2947 1281 2994 2138 
Q 2813 1869 2534 1725 
Q 2256 1581 1919 1581 
Q 1219 1581 811 2004 
Q 403 2428 403 3163 
Q 403 3881 828 4315 
Q 1253 4750 1959 4750 
Q 2769 4750 3195 4129 
Q 3622 3509 3622 2328 
Q 3622 1225 3098 567 
Q 2575 -91 1691 -91 
Q 1453 -91 1209 -44 
Q 966 3 703 97 
z
M 1959 2075 
Q 2384 2075 2632 2365 
Q 2881 2656 2881 3163 
Q 2881 3666 2632 3958 
Q 2384 4250 1959 4250 
Q 1534 4250 1286 3958 
Q 1038 3666 1038 3163 
Q 1038 2656 1286 2365 
Q 1534 2075 1959 2075 
z
" transform="scale(0.015625)"/>
        <path id="DejaVuSans-35" d="M 691 4666 
L 3169 4666 
L 3169 4134 
L 1269 4134 
L 1269 2991 
Q 1406 3038 1543 3061 
Q 1681 3084 1819 3084 
Q 2600 3084 3056 2656 
Q 3513 2228 3513 1497 
Q 3513 744 3044 326 
Q 2575 -91 1722 -91 
Q 1428 -91 1123 -41 
Q 819 9 494 109 
L 494 744 
Q 775 591 1075 516 
Q 1375 441 1709 441 
Q 2250 441 2565 725 
Q 2881 1009 2881 1497 
Q 2881 1984 2565 2268 
Q 2250 2553 1709 2553 
Q 1456 2553 1204 2497 
Q 953 2441 691 2322 
L 691 4666 
z
" transform="scale(0.015625)"/>
       </defs>
       <use xlink:href="#DejaVuSans-31"/>
       <use xlink:href="#DejaVuSans-39" x="63.623047"/>
       <use xlink:href="#DejaVuSans-39" x="127.246094"/>
       <use xlink:href="#DejaVuSans-35" x="190.869141"/>
      </g>
     </g>
    </g>
    <g id="xtick_2">
     <g id="line2d_2">
      <g>
       <use xlink:href="#m13c3dad143" x="202.641337" y="167.42" style="stroke: #000000; stroke-width: 0.8"/>
      </g>
     </g>
     <g id="text_2">
      <!-- 2000 -->
      <g transform="translate(189.916337 182.018437) scale(0.1 -0.1)">
       <defs>
        <path id="DejaVuSans-32" d="M 1228 531 
L 3431 531 
L 3431 0 
L 469 0 
L 469 531 
Q 828 903 1448 1529 
Q 2069 2156 2228 2338 
Q 2531 2678 2651 2914 
Q 2772 3150 2772 3378 
Q 2772 3750 2511 3984 
Q 2250 4219 1831 4219 
Q 1534 4219 1204 4116 
Q 875 4013 500 3803 
L 500 4441 
Q 881 4594 1212 4672 
Q 1544 4750 1819 4750 
Q 2544 4750 2975 4387 
Q 3406 4025 3406 3419 
Q 3406 3131 3298 2873 
Q 3191 2616 2906 2266 
Q 2828 2175 2409 1742 
Q 1991 1309 1228 531 
z
" transform="scale(0.015625)"/>
        <path id="DejaVuSans-30" d="M 2034 4250 
Q 1547 4250 1301 3770 
Q 1056 3291 1056 2328 
Q 1056 1369 1301 889 
Q 1547 409 2034 409 
Q 2525 409 2770 889 
Q 3016 1369 3016 2328 
Q 3016 3291 2770 3770 
Q 2525 4250 2034 4250 
z
M 2034 4750 
Q 2819 4750 3233 4129 
Q 3647 3509 3647 2328 
Q 3647 1150 3233 529 
Q 2819 -91 2034 -91 
Q 1250 -91 836 529 
Q 422 1150 422 2328 
Q 422 3509 836 4129 
Q 1250 4750 2034 4750 
z
" transform="scale(0.015625)"/>
       </defs>
       <use xlink:href="#DejaVuSans-32"/>
       <use xlink:href="#DejaVuSans-30" x="63.623047"/>
       <use xlink:href="#DejaVuSans-30" x="127.246094"/>
       <use xlink:href="#DejaVuSans-30" x="190.869141"/>
      </g>
     </g>
    </g>
    <g id="xtick_3">
     <g id="line2d_3">
      <g>
       <use xlink:href="#m13c3dad143" x="289.308747" y="167.42" style="stroke: #000000; stroke-width: 0.8"/>
      </g>
     </g>
     <g id="text_3">
      <!-- 2005 -->
      <g transform="translate(276.583747 182.018437) scale(0.1 -0.1)">
       <use xlink:href="#DejaVuSans-32"/>
       <use xlink:href="#DejaVuSans-30" x="63.623047"/>
       <use xlink:href="#DejaVuSans-30" x="127.246094"/>
       <use xlink:href="#DejaVuSans-35" x="190.869141"/>
      </g>
     </g>
    </g>
    <g id="xtick_4">
     <g id="line2d_4">
      <g>
       <use xlink:href="#m13c3dad143" x="375.976156" y="167.42" style="stroke: #000000; stroke-width: 0.8"/>
      </g>
     </g>
     <g id="text_4">
      <!-- 2010 -->
      <g transform="translate(363.251156 182.018437) scale(0.1 -0.1)">
       <use xlink:href="#DejaVuSans-32"/>
       <use xlink:href="#DejaVuSans-30" x="63.623047"/>
       <use xlink:href="#DejaVuSans-31" x="127.246094"/>
       <use xlink:href="#DejaVuSans-30" x="190.869141"/>
      </g>
     </g>
    </g>
    <g id="xtick_5">
     <g id="line2d_5">
      <g>
       <use xlink:href="#m13c3dad143" x="462.643565" y="167.42" style="stroke: #000000; stroke-width: 0.8"/>
      </g>
     </g>
     <g id="text_5">
      <!-- 2015 -->
      <g transform="translate(449.918565 182.018437) scale(0.1 -0.1)">
       <use xlink:href="#DejaVuSans-32"/>
       <use xlink:href="#DejaVuSans-30" x="63.623047"/>
       <use xlink:href="#DejaVuSans-31" x="127.246094"/>
       <use xlink:href="#DejaVuSans-35" x="190.869141"/>
      </g>
     </g>
    </g>
    <g id="xtick_6">
     <g id="line2d_6">
      <g>
       <use xlink:href="#m13c3dad143" x="549.310975" y="167.42" style="stroke: #000000; stroke-width: 0.8"/>
      </g>
     </g>
     <g id="text_6">
      <!-- 2020 -->
      <g transform="translate(536.585975 182.018437) scale(0.1 -0.1)">
       <use xlink:href="#DejaVuSans-32"/>
       <use xlink:href="#DejaVuSans-30" x="63.623047"/>
       <use xlink:href="#DejaVuSans-32" x="127.246094"/>
       <use xlink:href="#DejaVuSans-30" x="190.869141"/>
      </g>
     </g>
    </g>
   </g>
   <g id="matplotlib.axis_2">
    <g id="ytick_1">
     <g id="line2d_7">
      <defs>
       <path id="mc775bf43f3" d="M 0 0 
L -3.5 0 
" style="stroke: #000000; stroke-width: 0.8"/>
      </defs>
      <g>
       <use xlink:href="#mc775bf43f3" x="46.64" y="138.261585" style="stroke: #000000; stroke-width: 0.8"/>
      </g>
     </g>
     <g id="text_7">
      <!-- −2 -->
      <g transform="translate(24.897813 142.060804) scale(0.1 -0.1)">
       <defs>
        <path id="DejaVuSans-2212" d="M 678 2272 
L 4684 2272 
L 4684 1741 
L 678 1741 
L 678 2272 
z
" transform="scale(0.015625)"/>
       </defs>
       <use xlink:href="#DejaVuSans-2212"/>
       <use xlink:href="#DejaVuSans-32" x="83.789062"/>
      </g>
     </g>
    </g>
    <g id="ytick_2">
     <g id="line2d_8">
      <g>
       <use xlink:href="#mc775bf43f3" x="46.64" y="96.780951" style="stroke: #000000; stroke-width: 0.8"/>
      </g>
     </g>
     <g id="text_8">
      <!-- 0 -->
      <g transform="translate(33.2775 100.58017) scale(0.1 -0.1)">
       <use xlink:href="#DejaVuSans-30"/>
      </g>
     </g>
    </g>
    <g id="ytick_3">
     <g id="line2d_9">
      <g>
       <use xlink:href="#mc775bf43f3" x="46.64" y="55.300317" style="stroke: #000000; stroke-width: 0.8"/>
      </g>
     </g>
     <g id="text_9">
      <!-- 2 -->
      <g transform="translate(33.2775 59.099536) scale(0.1 -0.1)">
       <use xlink:href="#DejaVuSans-32"/>
      </g>
     </g>
    </g>
    <g id="text_10">
     <!-- Bitterroot -->
     <g transform="translate(18.818125 124.79625) rotate(-90) scale(0.1 -0.1)">
      <defs>
       <path id="DejaVuSans-42" d="M 1259 2228 
L 1259 519 
L 2272 519 
Q 2781 519 3026 730 
Q 3272 941 3272 1375 
Q 3272 1813 3026 2020 
Q 2781 2228 2272 2228 
L 1259 2228 
z
M 1259 4147 
L 1259 2741 
L 2194 2741 
Q 2656 2741 2882 2914 
Q 3109 3088 3109 3444 
Q 3109 3797 2882 3972 
Q 2656 4147 2194 4147 
L 1259 4147 
z
M 628 4666 
L 2241 4666 
Q 2963 4666 3353 4366 
Q 3744 4066 3744 3513 
Q 3744 3084 3544 2831 
Q 3344 2578 2956 2516 
Q 3422 2416 3680 2098 
Q 3938 1781 3938 1306 
Q 3938 681 3513 340 
Q 3088 0 2303 0 
L 628 0 
L 628 4666 
z
" transform="scale(0.015625)"/>
       <path id="DejaVuSans-69" d="M 603 3500 
L 1178 3500 
L 1178 0 
L 603 0 
L 603 3500 
z
M 603 4863 
L 1178 4863 
L 1178 4134 
L 603 4134 
L 603 4863 
z
" transform="scale(0.015625)"/>
       <path id="DejaVuSans-74" d="M 1172 4494 
L 1172 3500 
L 2356 3500 
L 2356 3053 
L 1172 3053 
L 1172 1153 
Q 1172 725 1289 603 
Q 1406 481 1766 481 
L 2356 481 
L 2356 0 
L 1766 0 
Q 1100 0 847 248 
Q 594 497 594 1153 
L 594 3053 
L 172 3053 
L 172 3500 
L 594 3500 
L 594 4494 
L 1172 4494 
z
" transform="scale(0.015625)"/>
       <path id="DejaVuSans-65" d="M 3597 1894 
L 3597 1613 
L 953 1613 
Q 991 1019 1311 708 
Q 1631 397 2203 397 
Q 2534 397 2845 478 
Q 3156 559 3463 722 
L 3463 178 
Q 3153 47 2828 -22 
Q 2503 -91 2169 -91 
Q 1331 -91 842 396 
Q 353 884 353 1716 
Q 353 2575 817 3079 
Q 1281 3584 2069 3584 
Q 2775 3584 3186 3129 
Q 3597 2675 3597 1894 
z
M 3022 2063 
Q 3016 2534 2758 2815 
Q 2500 3097 2075 3097 
Q 1594 3097 1305 2825 
Q 1016 2553 972 2059 
L 3022 2063 
z
" transform="scale(0.015625)"/>
       <path id="DejaVuSans-72" d="M 2631 2963 
Q 2534 3019 2420 3045 
Q 2306 3072 2169 3072 
Q 1681 3072 1420 2755 
Q 1159 2438 1159 1844 
L 1159 0 
L 581 0 
L 581 3500 
L 1159 3500 
L 1159 2956 
Q 1341 3275 1631 3429 
Q 1922 3584 2338 3584 
Q 2397 3584 2469 3576 
Q 2541 3569 2628 3553 
L 2631 2963 
z
" transform="scale(0.015625)"/>
       <path id="DejaVuSans-6f" d="M 1959 3097 
Q 1497 3097 1228 2736 
Q 959 2375 959 1747 
Q 959 1119 1226 758 
Q 1494 397 1959 397 
Q 2419 397 2687 759 
Q 2956 1122 2956 1747 
Q 2956 2369 2687 2733 
Q 2419 3097 1959 3097 
z
M 1959 3584 
Q 2709 3584 3137 3096 
Q 3566 2609 3566 1747 
Q 3566 888 3137 398 
Q 2709 -91 1959 -91 
Q 1206 -91 779 398 
Q 353 888 353 1747 
Q 353 2609 779 3096 
Q 1206 3584 1959 3584 
z
" transform="scale(0.015625)"/>
      </defs>
      <use xlink:href="#DejaVuSans-42"/>
      <use xlink:href="#DejaVuSans-69" x="68.603516"/>
      <use xlink:href="#DejaVuSans-74" x="96.386719"/>
      <use xlink:href="#DejaVuSans-74" x="135.595703"/>
      <use xlink:href="#DejaVuSans-65" x="174.804688"/>
      <use xlink:href="#DejaVuSans-72" x="236.328125"/>
      <use xlink:href="#DejaVuSans-72" x="275.691406"/>
      <use xlink:href="#DejaVuSans-6f" x="314.554688"/>
      <use xlink:href="#DejaVuSans-6f" x="375.736328"/>
      <use xlink:href="#DejaVuSans-74" x="436.917969"/>
     </g>
    </g>
   </g>
   <g id="line2d_10">
    <path d="M 46.64 96.780951 
L 565.2 96.780951 
" clip-path="url(#p0dd07bca78)" style="fill: none; stroke: #000000; stroke-width: 1.5; stroke-linecap: square"/>
   </g>
   <g id="patch_3">
    <path d="M 46.64 167.42 
L 46.64 34.56 
" style="fill: none; stroke: #000000; stroke-width: 0.8; stroke-linejoin: miter; stroke-linecap: square"/>
   </g>
   <g id="patch_4">
    <path d="M 46.64 167.42 
L 565.2 167.42 
" style="fill: none; stroke: #000000; stroke-width: 0.8; stroke-linejoin: miter; stroke-linecap: square"/>
   </g>
  </g>
  <g id="axes_2">
   <g id="patch_5">
    <path d="M 46.64 332.12 
L 565.2 332.12 
L 565.2 199.26 
L 46.64 199.26 
z
" style="fill: #ffffff"/>
   </g>
   <g id="PolyCollection_3">
    <path d="M 72.640223 265.69 
L 72.640223 264.164002 
L 73.362451 264.164002 
L 73.362451 264.954332 
L 74.08468 264.954332 
L 74.08468 265.69 
L 74.08468 265.69 
L 73.362451 265.69 
L 73.362451 265.69 
L 72.640223 265.69 
z
" clip-path="url(#p8960ca4f00)" style="fill: #17becf; fill-opacity: 0.6; stroke: #1f77b4; stroke-opacity: 0.8; stroke-width: 1.5"/>
    <path d="M 82.751421 265.69 
L 82.751421 263.02898 
L 83.473649 263.02898 
L 83.473649 263.102028 
L 84.918106 263.102028 
L 84.918106 263.372151 
L 86.362563 263.372151 
L 86.362563 260.185084 
L 87.807019 260.185084 
L 87.807019 258.671746 
L 89.251476 258.671746 
L 89.251476 242.827382 
L 90.695933 242.827382 
L 90.695933 237.499521 
L 92.14039 237.499521 
L 92.14039 237.68677 
L 93.584847 237.68677 
L 93.584847 238.235685 
L 95.029304 238.235685 
L 95.029304 240.315302 
L 96.47376 240.315302 
L 96.47376 240.20442 
L 97.918217 240.20442 
L 97.918217 240.775882 
L 99.362674 240.775882 
L 99.362674 239.789882 
L 100.807131 239.789882 
L 100.807131 241.378861 
L 102.251588 241.378861 
L 102.251588 244.619371 
L 103.696045 244.619371 
L 103.696045 244.089929 
L 105.140501 244.089929 
L 105.140501 243.828101 
L 106.584958 243.828101 
L 106.584958 242.23073 
L 108.029415 242.23073 
L 108.029415 244.465993 
L 109.473872 244.465993 
L 109.473872 247.007469 
L 110.918329 247.007469 
L 110.918329 243.311729 
L 112.362786 243.311729 
L 112.362786 243.677636 
L 113.807242 243.677636 
L 113.807242 245.536595 
L 115.251699 245.536595 
L 115.251699 245.880664 
L 116.696156 245.880664 
L 116.696156 246.760936 
L 118.140613 246.760936 
L 118.140613 240.044715 
L 119.58507 240.044715 
L 119.58507 236.206194 
L 121.029526 236.206194 
L 121.029526 235.93122 
L 122.473983 235.93122 
L 122.473983 233.744443 
L 123.91844 233.744443 
L 123.91844 232.426229 
L 125.362897 232.426229 
L 125.362897 230.864629 
L 126.807354 230.864629 
L 126.807354 229.159229 
L 128.251811 229.159229 
L 128.251811 228.310219 
L 129.696267 228.310219 
L 129.696267 227.813463 
L 131.140724 227.813463 
L 131.140724 227.536018 
L 132.585181 227.536018 
L 132.585181 225.591665 
L 134.029638 225.591665 
L 134.029638 228.183733 
L 135.474095 228.183733 
L 135.474095 227.917331 
L 136.918552 227.917331 
L 136.918552 227.855028 
L 138.363008 227.855028 
L 138.363008 224.320044 
L 139.807465 224.320044 
L 139.807465 226.903519 
L 141.251922 226.903519 
L 141.251922 229.080343 
L 142.696379 229.080343 
L 142.696379 230.532054 
L 144.140836 230.532054 
L 144.140836 230.3038 
L 145.585292 230.3038 
L 145.585292 232.115262 
L 147.029749 232.115262 
L 147.029749 230.399952 
L 148.474206 230.399952 
L 148.474206 230.894211 
L 149.918663 230.894211 
L 149.918663 229.351778 
L 151.36312 229.351778 
L 151.36312 232.59946 
L 152.807577 232.59946 
L 152.807577 241.930386 
L 154.252033 241.930386 
L 154.252033 247.479708 
L 155.69649 247.479708 
L 155.69649 246.314276 
L 157.140947 246.314276 
L 157.140947 242.882022 
L 158.585404 242.882022 
L 158.585404 236.694494 
L 160.029861 236.694494 
L 160.029861 232.958054 
L 161.474318 232.958054 
L 161.474318 230.810341 
L 162.918774 230.810341 
L 162.918774 231.052358 
L 164.363231 231.052358 
L 164.363231 229.568324 
L 165.807688 229.568324 
L 165.807688 228.515642 
L 167.252145 228.515642 
L 167.252145 225.745201 
L 168.696602 225.745201 
L 168.696602 225.716487 
L 170.141058 225.716487 
L 170.141058 224.136136 
L 171.585515 224.136136 
L 171.585515 222.739519 
L 173.029972 222.739519 
L 173.029972 222.788528 
L 174.474429 222.788528 
L 174.474429 219.895112 
L 175.918886 219.895112 
L 175.918886 219.869304 
L 177.363343 219.869304 
L 177.363343 220.977799 
L 178.807799 220.977799 
L 178.807799 222.173443 
L 180.252256 222.173443 
L 180.252256 222.514771 
L 181.696713 222.514771 
L 181.696713 223.919579 
L 183.14117 223.919579 
L 183.14117 224.983524 
L 184.585627 224.983524 
L 184.585627 225.918645 
L 186.030084 225.918645 
L 186.030084 227.485859 
L 187.47454 227.485859 
L 187.47454 229.181382 
L 188.918997 229.181382 
L 188.918997 231.000196 
L 190.363454 231.000196 
L 190.363454 230.359849 
L 191.807911 230.359849 
L 191.807911 231.9034 
L 193.252368 231.9034 
L 193.252368 234.045939 
L 194.696825 234.045939 
L 194.696825 230.85766 
L 196.141281 230.85766 
L 196.141281 231.886689 
L 197.585738 231.886689 
L 197.585738 235.904898 
L 199.030195 235.904898 
L 199.030195 239.605681 
L 200.474652 239.605681 
L 200.474652 238.550768 
L 201.919109 238.550768 
L 201.919109 243.282071 
L 203.363565 243.282071 
L 203.363565 240.646551 
L 204.808022 240.646551 
L 204.808022 237.559165 
L 206.252479 237.559165 
L 206.252479 239.014009 
L 207.696936 239.014009 
L 207.696936 237.148619 
L 209.141393 237.148619 
L 209.141393 239.577668 
L 210.58585 239.577668 
L 210.58585 243.040208 
L 212.030306 243.040208 
L 212.030306 246.209703 
L 213.474763 246.209703 
L 213.474763 248.37518 
L 214.91922 248.37518 
L 214.91922 246.571507 
L 216.363677 246.571507 
L 216.363677 245.133926 
L 217.808134 245.133926 
L 217.808134 245.790537 
L 219.252591 245.790537 
L 219.252591 243.567829 
L 220.697047 243.567829 
L 220.697047 249.505126 
L 222.141504 249.505126 
L 222.141504 258.958984 
L 222.863733 258.958984 
L 222.863733 265.69 
L 222.863733 265.69 
L 222.141504 265.69 
L 222.141504 265.69 
L 220.697047 265.69 
L 220.697047 265.69 
L 219.252591 265.69 
L 219.252591 265.69 
L 217.808134 265.69 
L 217.808134 265.69 
L 216.363677 265.69 
L 216.363677 265.69 
L 214.91922 265.69 
L 214.91922 265.69 
L 213.474763 265.69 
L 213.474763 265.69 
L 212.030306 265.69 
L 212.030306 265.69 
L 210.58585 265.69 
L 210.58585 265.69 
L 209.141393 265.69 
L 209.141393 265.69 
L 207.696936 265.69 
L 207.696936 265.69 
L 206.252479 265.69 
L 206.252479 265.69 
L 204.808022 265.69 
L 204.808022 265.69 
L 203.363565 265.69 
L 203.363565 265.69 
L 201.919109 265.69 
L 201.919109 265.69 
L 200.474652 265.69 
L 200.474652 265.69 
L 199.030195 265.69 
L 199.030195 265.69 
L 197.585738 265.69 
L 197.585738 265.69 
L 196.141281 265.69 
L 196.141281 265.69 
L 194.696825 265.69 
L 194.696825 265.69 
L 193.252368 265.69 
L 193.252368 265.69 
L 191.807911 265.69 
L 191.807911 265.69 
L 190.363454 265.69 
L 190.363454 265.69 
L 188.918997 265.69 
L 188.918997 265.69 
L 187.47454 265.69 
L 187.47454 265.69 
L 186.030084 265.69 
L 186.030084 265.69 
L 184.585627 265.69 
L 184.585627 265.69 
L 183.14117 265.69 
L 183.14117 265.69 
L 181.696713 265.69 
L 181.696713 265.69 
L 180.252256 265.69 
L 180.252256 265.69 
L 178.807799 265.69 
L 178.807799 265.69 
L 177.363343 265.69 
L 177.363343 265.69 
L 175.918886 265.69 
L 175.918886 265.69 
L 174.474429 265.69 
L 174.474429 265.69 
L 173.029972 265.69 
L 173.029972 265.69 
L 171.585515 265.69 
L 171.585515 265.69 
L 170.141058 265.69 
L 170.141058 265.69 
L 168.696602 265.69 
L 168.696602 265.69 
L 167.252145 265.69 
L 167.252145 265.69 
L 165.807688 265.69 
L 165.807688 265.69 
L 164.363231 265.69 
L 164.363231 265.69 
L 162.918774 265.69 
L 162.918774 265.69 
L 161.474318 265.69 
L 161.474318 265.69 
L 160.029861 265.69 
L 160.029861 265.69 
L 158.585404 265.69 
L 158.585404 265.69 
L 157.140947 265.69 
L 157.140947 265.69 
L 155.69649 265.69 
L 155.69649 265.69 
L 154.252033 265.69 
L 154.252033 265.69 
L 152.807577 265.69 
L 152.807577 265.69 
L 151.36312 265.69 
L 151.36312 265.69 
L 149.918663 265.69 
L 149.918663 265.69 
L 148.474206 265.69 
L 148.474206 265.69 
L 147.029749 265.69 
L 147.029749 265.69 
L 145.585292 265.69 
L 145.585292 265.69 
L 144.140836 265.69 
L 144.140836 265.69 
L 142.696379 265.69 
L 142.696379 265.69 
L 141.251922 265.69 
L 141.251922 265.69 
L 139.807465 265.69 
L 139.807465 265.69 
L 138.363008 265.69 
L 138.363008 265.69 
L 136.918552 265.69 
L 136.918552 265.69 
L 135.474095 265.69 
L 135.474095 265.69 
L 134.029638 265.69 
L 134.029638 265.69 
L 132.585181 265.69 
L 132.585181 265.69 
L 131.140724 265.69 
L 131.140724 265.69 
L 129.696267 265.69 
L 129.696267 265.69 
L 128.251811 265.69 
L 128.251811 265.69 
L 126.807354 265.69 
L 126.807354 265.69 
L 125.362897 265.69 
L 125.362897 265.69 
L 123.91844 265.69 
L 123.91844 265.69 
L 122.473983 265.69 
L 122.473983 265.69 
L 121.029526 265.69 
L 121.029526 265.69 
L 119.58507 265.69 
L 119.58507 265.69 
L 118.140613 265.69 
L 118.140613 265.69 
L 116.696156 265.69 
L 116.696156 265.69 
L 115.251699 265.69 
L 115.251699 265.69 
L 113.807242 265.69 
L 113.807242 265.69 
L 112.362786 265.69 
L 112.362786 265.69 
L 110.918329 265.69 
L 110.918329 265.69 
L 109.473872 265.69 
L 109.473872 265.69 
L 108.029415 265.69 
L 108.029415 265.69 
L 106.584958 265.69 
L 106.584958 265.69 
L 105.140501 265.69 
L 105.140501 265.69 
L 103.696045 265.69 
L 103.696045 265.69 
L 102.251588 265.69 
L 102.251588 265.69 
L 100.807131 265.69 
L 100.807131 265.69 
L 99.362674 265.69 
L 99.362674 265.69 
L 97.918217 265.69 
L 97.918217 265.69 
L 96.47376 265.69 
L 96.47376 265.69 
L 95.029304 265.69 
L 95.029304 265.69 
L 93.584847 265.69 
L 93.584847 265.69 
L 92.14039 265.69 
L 92.14039 265.69 
L 90.695933 265.69 
L 90.695933 265.69 
L 89.251476 265.69 
L 89.251476 265.69 
L 87.807019 265.69 
L 87.807019 265.69 
L 86.362563 265.69 
L 86.362563 265.69 
L 84.918106 265.69 
L 84.918106 265.69 
L 83.473649 265.69 
L 83.473649 265.69 
L 82.751421 265.69 
z
" clip-path="url(#p8960ca4f00)" style="fill: #17becf; fill-opacity: 0.6; stroke: #1f77b4; stroke-opacity: 0.8; stroke-width: 1.5"/>
    <path d="M 296.531031 265.69 
L 296.531031 262.680677 
L 297.253259 262.680677 
L 297.253259 264.269127 
L 298.697716 264.269127 
L 298.697716 259.740921 
L 300.142173 259.740921 
L 300.142173 261.208723 
L 301.58663 261.208723 
L 301.58663 257.959725 
L 303.031086 257.959725 
L 303.031086 254.840626 
L 304.475543 254.840626 
L 304.475543 251.336057 
L 305.92 251.336057 
L 305.92 249.915627 
L 307.364457 249.915627 
L 307.364457 255.932769 
L 308.808914 255.932769 
L 308.808914 255.860675 
L 310.25337 255.860675 
L 310.25337 256.124853 
L 311.697827 256.124853 
L 311.697827 261.795506 
L 313.142284 261.795506 
L 313.142284 262.085701 
L 314.586741 262.085701 
L 314.586741 263.5516 
L 316.031198 263.5516 
L 316.031198 263.853401 
L 317.475655 263.853401 
L 317.475655 263.486562 
L 318.920111 263.486562 
L 318.920111 261.123532 
L 320.364568 261.123532 
L 320.364568 263.163301 
L 321.086797 263.163301 
L 321.086797 265.69 
L 321.086797 265.69 
L 320.364568 265.69 
L 320.364568 265.69 
L 318.920111 265.69 
L 318.920111 265.69 
L 317.475655 265.69 
L 317.475655 265.69 
L 316.031198 265.69 
L 316.031198 265.69 
L 314.586741 265.69 
L 314.586741 265.69 
L 313.142284 265.69 
L 313.142284 265.69 
L 311.697827 265.69 
L 311.697827 265.69 
L 310.25337 265.69 
L 310.25337 265.69 
L 308.808914 265.69 
L 308.808914 265.69 
L 307.364457 265.69 
L 307.364457 265.69 
L 305.92 265.69 
L 305.92 265.69 
L 304.475543 265.69 
L 304.475543 265.69 
L 303.031086 265.69 
L 303.031086 265.69 
L 301.58663 265.69 
L 301.58663 265.69 
L 300.142173 265.69 
L 300.142173 265.69 
L 298.697716 265.69 
L 298.697716 265.69 
L 297.253259 265.69 
L 297.253259 265.69 
L 296.531031 265.69 
z
" clip-path="url(#p8960ca4f00)" style="fill: #17becf; fill-opacity: 0.6; stroke: #1f77b4; stroke-opacity: 0.8; stroke-width: 1.5"/>
    <path d="M 325.420167 265.69 
L 325.420167 263.54336 
L 326.142396 263.54336 
L 326.142396 263.844861 
L 327.586852 263.844861 
L 327.586852 263.030623 
L 329.031309 263.030623 
L 329.031309 256.765861 
L 330.475766 256.765861 
L 330.475766 258.259726 
L 331.920223 258.259726 
L 331.920223 262.175834 
L 332.642451 262.175834 
L 332.642451 265.69 
L 332.642451 265.69 
L 331.920223 265.69 
L 331.920223 265.69 
L 330.475766 265.69 
L 330.475766 265.69 
L 329.031309 265.69 
L 329.031309 265.69 
L 327.586852 265.69 
L 327.586852 265.69 
L 326.142396 265.69 
L 326.142396 265.69 
L 325.420167 265.69 
z
" clip-path="url(#p8960ca4f00)" style="fill: #17becf; fill-opacity: 0.6; stroke: #1f77b4; stroke-opacity: 0.8; stroke-width: 1.5"/>
    <path d="M 335.531365 265.69 
L 335.531365 264.317405 
L 336.253593 264.317405 
L 336.253593 262.717293 
L 337.69805 262.717293 
L 337.69805 260.034915 
L 339.142507 260.034915 
L 339.142507 258.204633 
L 340.586964 258.204633 
L 340.586964 258.932688 
L 342.031421 258.932688 
L 342.031421 261.215528 
L 343.475877 261.215528 
L 343.475877 263.851709 
L 344.198106 263.851709 
L 344.198106 265.69 
L 344.198106 265.69 
L 343.475877 265.69 
L 343.475877 265.69 
L 342.031421 265.69 
L 342.031421 265.69 
L 340.586964 265.69 
L 340.586964 265.69 
L 339.142507 265.69 
L 339.142507 265.69 
L 337.69805 265.69 
L 337.69805 265.69 
L 336.253593 265.69 
L 336.253593 265.69 
L 335.531365 265.69 
z
" clip-path="url(#p8960ca4f00)" style="fill: #17becf; fill-opacity: 0.6; stroke: #1f77b4; stroke-opacity: 0.8; stroke-width: 1.5"/>
    <path d="M 399.087465 265.69 
L 399.087465 257.72703 
L 399.809694 257.72703 
L 399.809694 259.871355 
L 401.25415 259.871355 
L 401.25415 262.262813 
L 402.698607 262.262813 
L 402.698607 264.808773 
L 403.420836 264.808773 
L 403.420836 265.69 
L 403.420836 265.69 
L 402.698607 265.69 
L 402.698607 265.69 
L 401.25415 265.69 
L 401.25415 265.69 
L 399.809694 265.69 
L 399.809694 265.69 
L 399.087465 265.69 
z
" clip-path="url(#p8960ca4f00)" style="fill: #17becf; fill-opacity: 0.6; stroke: #1f77b4; stroke-opacity: 0.8; stroke-width: 1.5"/>
    <path d="M 413.532033 265.69 
L 413.532033 264.196209 
L 414.254262 264.196209 
L 414.254262 262.177729 
L 415.698719 262.177729 
L 415.698719 262.374473 
L 416.420947 262.374473 
L 416.420947 265.69 
L 416.420947 265.69 
L 415.698719 265.69 
L 415.698719 265.69 
L 414.254262 265.69 
L 414.254262 265.69 
L 413.532033 265.69 
z
" clip-path="url(#p8960ca4f00)" style="fill: #17becf; fill-opacity: 0.6; stroke: #1f77b4; stroke-opacity: 0.8; stroke-width: 1.5"/>
    <path d="M 500.199443 265.69 
L 500.199443 263.92914 
L 500.921671 263.92914 
L 500.921671 256.143314 
L 502.366128 256.143314 
L 502.366128 261.676574 
L 503.810585 261.676574 
L 503.810585 264.725777 
L 504.532813 264.725777 
L 504.532813 265.69 
L 504.532813 265.69 
L 503.810585 265.69 
L 503.810585 265.69 
L 502.366128 265.69 
L 502.366128 265.69 
L 500.921671 265.69 
L 500.921671 265.69 
L 500.199443 265.69 
z
" clip-path="url(#p8960ca4f00)" style="fill: #17becf; fill-opacity: 0.6; stroke: #1f77b4; stroke-opacity: 0.8; stroke-width: 1.5"/>
    <path d="M 508.866184 265.69 
L 508.866184 258.579029 
L 508.866184 258.579029 
L 508.866184 265.69 
L 508.866184 265.69 
L 508.866184 265.69 
z
" clip-path="url(#p8960ca4f00)" style="fill: #17becf; fill-opacity: 0.6; stroke: #1f77b4; stroke-opacity: 0.8; stroke-width: 1.5"/>
    <path d="M 513.199554 265.69 
L 513.199554 261.401834 
L 513.921783 261.401834 
L 513.921783 254.925739 
L 515.36624 254.925739 
L 515.36624 256.823914 
L 516.810696 256.823914 
L 516.810696 252.40194 
L 518.255153 252.40194 
L 518.255153 256.376868 
L 519.69961 256.376868 
L 519.69961 257.861282 
L 521.144067 257.861282 
L 521.144067 250.222947 
L 522.588524 250.222947 
L 522.588524 254.521272 
L 524.032981 254.521272 
L 524.032981 252.6782 
L 525.477437 252.6782 
L 525.477437 253.566557 
L 526.921894 253.566557 
L 526.921894 251.896159 
L 528.366351 251.896159 
L 528.366351 246.514142 
L 529.810808 246.514142 
L 529.810808 245.166192 
L 531.255265 245.166192 
L 531.255265 246.58099 
L 532.699721 246.58099 
L 532.699721 237.081897 
L 534.144178 237.081897 
L 534.144178 237.733226 
L 535.588635 237.733226 
L 535.588635 234.818962 
L 537.033092 234.818962 
L 537.033092 235.046341 
L 538.477549 235.046341 
L 538.477549 237.411742 
L 539.922006 237.411742 
L 539.922006 237.105764 
L 541.366462 237.105764 
L 541.366462 237.660713 
L 542.810919 237.660713 
L 542.810919 233.979857 
L 544.255376 233.979857 
L 544.255376 231.914098 
L 545.699833 231.914098 
L 545.699833 231.803607 
L 547.14429 231.803607 
L 547.14429 230.565723 
L 548.588747 230.565723 
L 548.588747 231.522952 
L 550.033203 231.522952 
L 550.033203 228.094827 
L 551.47766 228.094827 
L 551.47766 226.512985 
L 552.922117 226.512985 
L 552.922117 227.987863 
L 554.366574 227.987863 
L 554.366574 232.570319 
L 555.811031 232.570319 
L 555.811031 235.498241 
L 557.255487 235.498241 
L 557.255487 234.991858 
L 558.699944 234.991858 
L 558.699944 237.817319 
L 560.144401 237.817319 
L 560.144401 238.917263 
L 561.588858 238.917263 
L 561.588858 240.512244 
L 563.033315 240.512244 
L 563.033315 241.575335 
L 564.477772 241.575335 
L 564.477772 245.494665 
L 565.2 245.494665 
L 565.2 265.69 
L 565.2 265.69 
L 564.477772 265.69 
L 564.477772 265.69 
L 563.033315 265.69 
L 563.033315 265.69 
L 561.588858 265.69 
L 561.588858 265.69 
L 560.144401 265.69 
L 560.144401 265.69 
L 558.699944 265.69 
L 558.699944 265.69 
L 557.255487 265.69 
L 557.255487 265.69 
L 555.811031 265.69 
L 555.811031 265.69 
L 554.366574 265.69 
L 554.366574 265.69 
L 552.922117 265.69 
L 552.922117 265.69 
L 551.47766 265.69 
L 551.47766 265.69 
L 550.033203 265.69 
L 550.033203 265.69 
L 548.588747 265.69 
L 548.588747 265.69 
L 547.14429 265.69 
L 547.14429 265.69 
L 545.699833 265.69 
L 545.699833 265.69 
L 544.255376 265.69 
L 544.255376 265.69 
L 542.810919 265.69 
L 542.810919 265.69 
L 541.366462 265.69 
L 541.366462 265.69 
L 539.922006 265.69 
L 539.922006 265.69 
L 538.477549 265.69 
L 538.477549 265.69 
L 537.033092 265.69 
L 537.033092 265.69 
L 535.588635 265.69 
L 535.588635 265.69 
L 534.144178 265.69 
L 534.144178 265.69 
L 532.699721 265.69 
L 532.699721 265.69 
L 531.255265 265.69 
L 531.255265 265.69 
L 529.810808 265.69 
L 529.810808 265.69 
L 528.366351 265.69 
L 528.366351 265.69 
L 526.921894 265.69 
L 526.921894 265.69 
L 525.477437 265.69 
L 525.477437 265.69 
L 524.032981 265.69 
L 524.032981 265.69 
L 522.588524 265.69 
L 522.588524 265.69 
L 521.144067 265.69 
L 521.144067 265.69 
L 519.69961 265.69 
L 519.69961 265.69 
L 518.255153 265.69 
L 518.255153 265.69 
L 516.810696 265.69 
L 516.810696 265.69 
L 515.36624 265.69 
L 515.36624 265.69 
L 513.921783 265.69 
L 513.921783 265.69 
L 513.199554 265.69 
z
" clip-path="url(#p8960ca4f00)" style="fill: #17becf; fill-opacity: 0.6; stroke: #1f77b4; stroke-opacity: 0.8; stroke-width: 1.5"/>
   </g>
   <g id="PolyCollection_4">
    <path d="M 46.64 265.69 
L 46.64 293.877454 
L 47.362228 293.877454 
L 47.362228 287.828802 
L 48.806685 287.828802 
L 48.806685 301.601477 
L 50.251142 301.601477 
L 50.251142 302.389113 
L 51.695599 302.389113 
L 51.695599 295.681091 
L 53.140056 295.681091 
L 53.140056 287.896648 
L 54.584513 287.896648 
L 54.584513 293.88852 
L 56.028969 293.88852 
L 56.028969 297.021546 
L 57.473426 297.021546 
L 57.473426 293.488881 
L 58.917883 293.488881 
L 58.917883 293.493148 
L 60.36234 293.493148 
L 60.36234 292.37261 
L 61.806797 292.37261 
L 61.806797 293.642586 
L 63.251253 293.642586 
L 63.251253 294.211364 
L 64.69571 294.211364 
L 64.69571 281.667248 
L 66.140167 281.667248 
L 66.140167 277.314715 
L 67.584624 277.314715 
L 67.584624 272.124171 
L 69.029081 272.124171 
L 69.029081 278.653693 
L 70.473538 278.653693 
L 70.473538 267.067425 
L 71.195766 267.067425 
L 71.195766 265.69 
L 71.195766 265.69 
L 70.473538 265.69 
L 70.473538 265.69 
L 69.029081 265.69 
L 69.029081 265.69 
L 67.584624 265.69 
L 67.584624 265.69 
L 66.140167 265.69 
L 66.140167 265.69 
L 64.69571 265.69 
L 64.69571 265.69 
L 63.251253 265.69 
L 63.251253 265.69 
L 61.806797 265.69 
L 61.806797 265.69 
L 60.36234 265.69 
L 60.36234 265.69 
L 58.917883 265.69 
L 58.917883 265.69 
L 57.473426 265.69 
L 57.473426 265.69 
L 56.028969 265.69 
L 56.028969 265.69 
L 54.584513 265.69 
L 54.584513 265.69 
L 53.140056 265.69 
L 53.140056 265.69 
L 51.695599 265.69 
L 51.695599 265.69 
L 50.251142 265.69 
L 50.251142 265.69 
L 48.806685 265.69 
L 48.806685 265.69 
L 47.362228 265.69 
L 47.362228 265.69 
L 46.64 265.69 
z
" clip-path="url(#p8960ca4f00)" style="fill: #d62728; fill-opacity: 0.6; stroke: #b22222; stroke-opacity: 0.8; stroke-width: 1.5"/>
    <path d="M 75.529136 265.69 
L 75.529136 266.605746 
L 76.251365 266.605746 
L 76.251365 268.868879 
L 77.695822 268.868879 
L 77.695822 270.094922 
L 79.140279 270.094922 
L 79.140279 269.35904 
L 80.584735 269.35904 
L 80.584735 267.383848 
L 81.306964 267.383848 
L 81.306964 265.69 
L 81.306964 265.69 
L 80.584735 265.69 
L 80.584735 265.69 
L 79.140279 265.69 
L 79.140279 265.69 
L 77.695822 265.69 
L 77.695822 265.69 
L 76.251365 265.69 
L 76.251365 265.69 
L 75.529136 265.69 
z
" clip-path="url(#p8960ca4f00)" style="fill: #d62728; fill-opacity: 0.6; stroke: #b22222; stroke-opacity: 0.8; stroke-width: 1.5"/>
    <path d="M 224.308189 265.69 
L 224.308189 266.474785 
L 225.030418 266.474785 
L 225.030418 282.269088 
L 226.474875 282.269088 
L 226.474875 279.385796 
L 227.919331 279.385796 
L 227.919331 276.253713 
L 229.363788 276.253713 
L 229.363788 282.237637 
L 230.808245 282.237637 
L 230.808245 287.462795 
L 232.252702 287.462795 
L 232.252702 287.930506 
L 233.697159 287.930506 
L 233.697159 294.501733 
L 235.141616 294.501733 
L 235.141616 296.270362 
L 236.586072 296.270362 
L 236.586072 287.795345 
L 238.030529 287.795345 
L 238.030529 306.809 
L 239.474986 306.809 
L 239.474986 307.926268 
L 240.919443 307.926268 
L 240.919443 309.413274 
L 242.3639 309.413274 
L 242.3639 318.945339 
L 243.808357 318.945339 
L 243.808357 306.158264 
L 245.252813 306.158264 
L 245.252813 305.237207 
L 246.69727 305.237207 
L 246.69727 305.406883 
L 248.141727 305.406883 
L 248.141727 306.271824 
L 249.586184 306.271824 
L 249.586184 307.829017 
L 251.030641 307.829017 
L 251.030641 307.700903 
L 252.475097 307.700903 
L 252.475097 307.890613 
L 253.919554 307.890613 
L 253.919554 309.837247 
L 255.364011 309.837247 
L 255.364011 301.244655 
L 256.808468 301.244655 
L 256.808468 294.762049 
L 258.252925 294.762049 
L 258.252925 294.880379 
L 259.697382 294.880379 
L 259.697382 298.217352 
L 261.141838 298.217352 
L 261.141838 292.602362 
L 262.586295 292.602362 
L 262.586295 290.68468 
L 264.030752 290.68468 
L 264.030752 293.396721 
L 265.475209 293.396721 
L 265.475209 301.017423 
L 266.919666 301.017423 
L 266.919666 304.40805 
L 268.364123 304.40805 
L 268.364123 307.276791 
L 269.808579 307.276791 
L 269.808579 299.417448 
L 271.253036 299.417448 
L 271.253036 301.563425 
L 272.697493 301.563425 
L 272.697493 293.596912 
L 274.14195 293.596912 
L 274.14195 296.102144 
L 275.586407 296.102144 
L 275.586407 292.521999 
L 277.030864 292.521999 
L 277.030864 290.215567 
L 278.47532 290.215567 
L 278.47532 296.917101 
L 279.919777 296.917101 
L 279.919777 295.615946 
L 281.364234 295.615946 
L 281.364234 290.079141 
L 282.808691 290.079141 
L 282.808691 285.998226 
L 284.253148 285.998226 
L 284.253148 282.66311 
L 285.697604 282.66311 
L 285.697604 282.409596 
L 287.142061 282.409596 
L 287.142061 283.910162 
L 288.586518 283.910162 
L 288.586518 268.010971 
L 290.030975 268.010971 
L 290.030975 275.804269 
L 291.475432 275.804269 
L 291.475432 279.027531 
L 292.919889 279.027531 
L 292.919889 274.101683 
L 294.364345 274.101683 
L 294.364345 272.020284 
L 295.086574 272.020284 
L 295.086574 265.69 
L 295.086574 265.69 
L 294.364345 265.69 
L 294.364345 265.69 
L 292.919889 265.69 
L 292.919889 265.69 
L 291.475432 265.69 
L 291.475432 265.69 
L 290.030975 265.69 
L 290.030975 265.69 
L 288.586518 265.69 
L 288.586518 265.69 
L 287.142061 265.69 
L 287.142061 265.69 
L 285.697604 265.69 
L 285.697604 265.69 
L 284.253148 265.69 
L 284.253148 265.69 
L 282.808691 265.69 
L 282.808691 265.69 
L 281.364234 265.69 
L 281.364234 265.69 
L 279.919777 265.69 
L 279.919777 265.69 
L 278.47532 265.69 
L 278.47532 265.69 
L 277.030864 265.69 
L 277.030864 265.69 
L 275.586407 265.69 
L 275.586407 265.69 
L 274.14195 265.69 
L 274.14195 265.69 
L 272.697493 265.69 
L 272.697493 265.69 
L 271.253036 265.69 
L 271.253036 265.69 
L 269.808579 265.69 
L 269.808579 265.69 
L 268.364123 265.69 
L 268.364123 265.69 
L 266.919666 265.69 
L 266.919666 265.69 
L 265.475209 265.69 
L 265.475209 265.69 
L 264.030752 265.69 
L 264.030752 265.69 
L 262.586295 265.69 
L 262.586295 265.69 
L 261.141838 265.69 
L 261.141838 265.69 
L 259.697382 265.69 
L 259.697382 265.69 
L 258.252925 265.69 
L 258.252925 265.69 
L 256.808468 265.69 
L 256.808468 265.69 
L 255.364011 265.69 
L 255.364011 265.69 
L 253.919554 265.69 
L 253.919554 265.69 
L 252.475097 265.69 
L 252.475097 265.69 
L 251.030641 265.69 
L 251.030641 265.69 
L 249.586184 265.69 
L 249.586184 265.69 
L 248.141727 265.69 
L 248.141727 265.69 
L 246.69727 265.69 
L 246.69727 265.69 
L 245.252813 265.69 
L 245.252813 265.69 
L 243.808357 265.69 
L 243.808357 265.69 
L 242.3639 265.69 
L 242.3639 265.69 
L 240.919443 265.69 
L 240.919443 265.69 
L 239.474986 265.69 
L 239.474986 265.69 
L 238.030529 265.69 
L 238.030529 265.69 
L 236.586072 265.69 
L 236.586072 265.69 
L 235.141616 265.69 
L 235.141616 265.69 
L 233.697159 265.69 
L 233.697159 265.69 
L 232.252702 265.69 
L 232.252702 265.69 
L 230.808245 265.69 
L 230.808245 265.69 
L 229.363788 265.69 
L 229.363788 265.69 
L 227.919331 265.69 
L 227.919331 265.69 
L 226.474875 265.69 
L 226.474875 265.69 
L 225.030418 265.69 
L 225.030418 265.69 
L 224.308189 265.69 
z
" clip-path="url(#p8960ca4f00)" style="fill: #d62728; fill-opacity: 0.6; stroke: #b22222; stroke-opacity: 0.8; stroke-width: 1.5"/>
    <path d="M 322.531253 265.69 
L 322.531253 269.889913 
L 323.253482 269.889913 
L 323.253482 267.519009 
L 323.97571 267.519009 
L 323.97571 265.69 
L 323.97571 265.69 
L 323.253482 265.69 
L 323.253482 265.69 
L 322.531253 265.69 
z
" clip-path="url(#p8960ca4f00)" style="fill: #d62728; fill-opacity: 0.6; stroke: #b22222; stroke-opacity: 0.8; stroke-width: 1.5"/>
    <path d="M 334.086908 265.69 
L 334.086908 265.755482 
L 334.086908 265.755482 
L 334.086908 265.69 
L 334.086908 265.69 
L 334.086908 265.69 
z
" clip-path="url(#p8960ca4f00)" style="fill: #d62728; fill-opacity: 0.6; stroke: #b22222; stroke-opacity: 0.8; stroke-width: 1.5"/>
    <path d="M 345.642563 265.69 
L 345.642563 270.048769 
L 346.364791 270.048769 
L 346.364791 270.465669 
L 347.809248 270.465669 
L 347.809248 275.048856 
L 349.253705 275.048856 
L 349.253705 278.044864 
L 350.698162 278.044864 
L 350.698162 279.581463 
L 352.142618 279.581463 
L 352.142618 279.969676 
L 353.587075 279.969676 
L 353.587075 280.919667 
L 355.031532 280.919667 
L 355.031532 282.426851 
L 356.475989 282.426851 
L 356.475989 280.419446 
L 357.920446 280.419446 
L 357.920446 280.288309 
L 359.364903 280.288309 
L 359.364903 294.238451 
L 360.809359 294.238451 
L 360.809359 283.169103 
L 362.253816 283.169103 
L 362.253816 283.357228 
L 363.698273 283.357228 
L 363.698273 293.758665 
L 365.14273 293.758665 
L 365.14273 294.580018 
L 366.587187 294.580018 
L 366.587187 293.679809 
L 368.031643 293.679809 
L 368.031643 293.5404 
L 369.4761 293.5404 
L 369.4761 303.427328 
L 370.920557 303.427328 
L 370.920557 292.000096 
L 372.365014 292.000096 
L 372.365014 293.945734 
L 373.809471 293.945734 
L 373.809471 298.26409 
L 375.253928 298.26409 
L 375.253928 288.423161 
L 376.698384 288.423161 
L 376.698384 286.67723 
L 378.142841 286.67723 
L 378.142841 288.290575 
L 379.587298 288.290575 
L 379.587298 289.018108 
L 381.031755 289.018108 
L 381.031755 291.389774 
L 382.476212 291.389774 
L 382.476212 294.977186 
L 383.920669 294.977186 
L 383.920669 294.195594 
L 385.365125 294.195594 
L 385.365125 289.862458 
L 386.809582 289.862458 
L 386.809582 290.959845 
L 388.254039 290.959845 
L 388.254039 297.969174 
L 389.698496 297.969174 
L 389.698496 289.325679 
L 391.142953 289.325679 
L 391.142953 290.019526 
L 392.587409 290.019526 
L 392.587409 289.420772 
L 394.031866 289.420772 
L 394.031866 281.592866 
L 395.476323 281.592866 
L 395.476323 274.639897 
L 396.92078 274.639897 
L 396.92078 267.205502 
L 397.643008 267.205502 
L 397.643008 265.69 
L 397.643008 265.69 
L 396.92078 265.69 
L 396.92078 265.69 
L 395.476323 265.69 
L 395.476323 265.69 
L 394.031866 265.69 
L 394.031866 265.69 
L 392.587409 265.69 
L 392.587409 265.69 
L 391.142953 265.69 
L 391.142953 265.69 
L 389.698496 265.69 
L 389.698496 265.69 
L 388.254039 265.69 
L 388.254039 265.69 
L 386.809582 265.69 
L 386.809582 265.69 
L 385.365125 265.69 
L 385.365125 265.69 
L 383.920669 265.69 
L 383.920669 265.69 
L 382.476212 265.69 
L 382.476212 265.69 
L 381.031755 265.69 
L 381.031755 265.69 
L 379.587298 265.69 
L 379.587298 265.69 
L 378.142841 265.69 
L 378.142841 265.69 
L 376.698384 265.69 
L 376.698384 265.69 
L 375.253928 265.69 
L 375.253928 265.69 
L 373.809471 265.69 
L 373.809471 265.69 
L 372.365014 265.69 
L 372.365014 265.69 
L 370.920557 265.69 
L 370.920557 265.69 
L 369.4761 265.69 
L 369.4761 265.69 
L 368.031643 265.69 
L 368.031643 265.69 
L 366.587187 265.69 
L 366.587187 265.69 
L 365.14273 265.69 
L 365.14273 265.69 
L 363.698273 265.69 
L 363.698273 265.69 
L 362.253816 265.69 
L 362.253816 265.69 
L 360.809359 265.69 
L 360.809359 265.69 
L 359.364903 265.69 
L 359.364903 265.69 
L 357.920446 265.69 
L 357.920446 265.69 
L 356.475989 265.69 
L 356.475989 265.69 
L 355.031532 265.69 
L 355.031532 265.69 
L 353.587075 265.69 
L 353.587075 265.69 
L 352.142618 265.69 
L 352.142618 265.69 
L 350.698162 265.69 
L 350.698162 265.69 
L 349.253705 265.69 
L 349.253705 265.69 
L 347.809248 265.69 
L 347.809248 265.69 
L 346.364791 265.69 
L 346.364791 265.69 
L 345.642563 265.69 
z
" clip-path="url(#p8960ca4f00)" style="fill: #d62728; fill-opacity: 0.6; stroke: #b22222; stroke-opacity: 0.8; stroke-width: 1.5"/>
    <path d="M 404.865292 265.69 
L 404.865292 269.632629 
L 405.587521 269.632629 
L 405.587521 269.285204 
L 407.031978 269.285204 
L 407.031978 267.801474 
L 408.476435 267.801474 
L 408.476435 266.450411 
L 409.920891 266.450411 
L 409.920891 267.644855 
L 411.365348 267.644855 
L 411.365348 267.190435 
L 412.087577 267.190435 
L 412.087577 265.69 
L 412.087577 265.69 
L 411.365348 265.69 
L 411.365348 265.69 
L 409.920891 265.69 
L 409.920891 265.69 
L 408.476435 265.69 
L 408.476435 265.69 
L 407.031978 265.69 
L 407.031978 265.69 
L 405.587521 265.69 
L 405.587521 265.69 
L 404.865292 265.69 
z
" clip-path="url(#p8960ca4f00)" style="fill: #d62728; fill-opacity: 0.6; stroke: #b22222; stroke-opacity: 0.8; stroke-width: 1.5"/>
    <path d="M 417.865404 265.69 
L 417.865404 269.26374 
L 418.587632 269.26374 
L 418.587632 272.032463 
L 420.032089 272.032463 
L 420.032089 279.368949 
L 421.476546 279.368949 
L 421.476546 285.455432 
L 422.921003 285.455432 
L 422.921003 287.459 
L 424.36546 287.459 
L 424.36546 297.033754 
L 425.809916 297.033754 
L 425.809916 303.256162 
L 427.254373 303.256162 
L 427.254373 290.995112 
L 428.69883 290.995112 
L 428.69883 292.913965 
L 430.143287 292.913965 
L 430.143287 298.754001 
L 431.587744 298.754001 
L 431.587744 301.839425 
L 433.032201 301.839425 
L 433.032201 298.080155 
L 434.476657 298.080155 
L 434.476657 308.959778 
L 435.921114 308.959778 
L 435.921114 312.997516 
L 437.365571 312.997516 
L 437.365571 320.924448 
L 438.810028 320.924448 
L 438.810028 316.984876 
L 440.254485 316.984876 
L 440.254485 310.435171 
L 441.698942 310.435171 
L 441.698942 307.3424 
L 443.143398 307.3424 
L 443.143398 303.672117 
L 444.587855 303.672117 
L 444.587855 307.948721 
L 446.032312 307.948721 
L 446.032312 305.270402 
L 447.476769 305.270402 
L 447.476769 297.293187 
L 448.921226 297.293187 
L 448.921226 300.165705 
L 450.365682 300.165705 
L 450.365682 310.616406 
L 451.810139 310.616406 
L 451.810139 296.861372 
L 453.254596 296.861372 
L 453.254596 302.798407 
L 454.699053 302.798407 
L 454.699053 289.529598 
L 456.14351 289.529598 
L 456.14351 288.003435 
L 457.587967 288.003435 
L 457.587967 295.642937 
L 459.032423 295.642937 
L 459.032423 296.138771 
L 460.47688 296.138771 
L 460.47688 303.130084 
L 461.921337 303.130084 
L 461.921337 319.795351 
L 463.365794 319.795351 
L 463.365794 322.388662 
L 464.810251 322.388662 
L 464.810251 323.772195 
L 466.254708 323.772195 
L 466.254708 319.301194 
L 467.699164 319.301194 
L 467.699164 316.15571 
L 469.143621 316.15571 
L 469.143621 322.772921 
L 470.588078 322.772921 
L 470.588078 313.64611 
L 472.032535 313.64611 
L 472.032535 319.551645 
L 473.476992 319.551645 
L 473.476992 322.186831 
L 474.921448 322.186831 
L 474.921448 316.708183 
L 476.365905 316.708183 
L 476.365905 313.117558 
L 477.810362 313.117558 
L 477.810362 310.183592 
L 479.254819 310.183592 
L 479.254819 308.25567 
L 480.699276 308.25567 
L 480.699276 299.773827 
L 482.143733 299.773827 
L 482.143733 297.099044 
L 483.588189 297.099044 
L 483.588189 293.471086 
L 485.032646 293.471086 
L 485.032646 286.182309 
L 486.477103 286.182309 
L 486.477103 292.93663 
L 487.92156 292.93663 
L 487.92156 291.17473 
L 489.366017 291.17473 
L 489.366017 293.2328 
L 490.810474 293.2328 
L 490.810474 286.605463 
L 492.25493 286.605463 
L 492.25493 277.370056 
L 493.699387 277.370056 
L 493.699387 278.937817 
L 495.143844 278.937817 
L 495.143844 274.480951 
L 496.588301 274.480951 
L 496.588301 272.371144 
L 498.032758 272.371144 
L 498.032758 269.211111 
L 498.754986 269.211111 
L 498.754986 265.69 
L 498.754986 265.69 
L 498.032758 265.69 
L 498.032758 265.69 
L 496.588301 265.69 
L 496.588301 265.69 
L 495.143844 265.69 
L 495.143844 265.69 
L 493.699387 265.69 
L 493.699387 265.69 
L 492.25493 265.69 
L 492.25493 265.69 
L 490.810474 265.69 
L 490.810474 265.69 
L 489.366017 265.69 
L 489.366017 265.69 
L 487.92156 265.69 
L 487.92156 265.69 
L 486.477103 265.69 
L 486.477103 265.69 
L 485.032646 265.69 
L 485.032646 265.69 
L 483.588189 265.69 
L 483.588189 265.69 
L 482.143733 265.69 
L 482.143733 265.69 
L 480.699276 265.69 
L 480.699276 265.69 
L 479.254819 265.69 
L 479.254819 265.69 
L 477.810362 265.69 
L 477.810362 265.69 
L 476.365905 265.69 
L 476.365905 265.69 
L 474.921448 265.69 
L 474.921448 265.69 
L 473.476992 265.69 
L 473.476992 265.69 
L 472.032535 265.69 
L 472.032535 265.69 
L 470.588078 265.69 
L 470.588078 265.69 
L 469.143621 265.69 
L 469.143621 265.69 
L 467.699164 265.69 
L 467.699164 265.69 
L 466.254708 265.69 
L 466.254708 265.69 
L 464.810251 265.69 
L 464.810251 265.69 
L 463.365794 265.69 
L 463.365794 265.69 
L 461.921337 265.69 
L 461.921337 265.69 
L 460.47688 265.69 
L 460.47688 265.69 
L 459.032423 265.69 
L 459.032423 265.69 
L 457.587967 265.69 
L 457.587967 265.69 
L 456.14351 265.69 
L 456.14351 265.69 
L 454.699053 265.69 
L 454.699053 265.69 
L 453.254596 265.69 
L 453.254596 265.69 
L 451.810139 265.69 
L 451.810139 265.69 
L 450.365682 265.69 
L 450.365682 265.69 
L 448.921226 265.69 
L 448.921226 265.69 
L 447.476769 265.69 
L 447.476769 265.69 
L 446.032312 265.69 
L 446.032312 265.69 
L 444.587855 265.69 
L 444.587855 265.69 
L 443.143398 265.69 
L 443.143398 265.69 
L 441.698942 265.69 
L 441.698942 265.69 
L 440.254485 265.69 
L 440.254485 265.69 
L 438.810028 265.69 
L 438.810028 265.69 
L 437.365571 265.69 
L 437.365571 265.69 
L 435.921114 265.69 
L 435.921114 265.69 
L 434.476657 265.69 
L 434.476657 265.69 
L 433.032201 265.69 
L 433.032201 265.69 
L 431.587744 265.69 
L 431.587744 265.69 
L 430.143287 265.69 
L 430.143287 265.69 
L 428.69883 265.69 
L 428.69883 265.69 
L 427.254373 265.69 
L 427.254373 265.69 
L 425.809916 265.69 
L 425.809916 265.69 
L 424.36546 265.69 
L 424.36546 265.69 
L 422.921003 265.69 
L 422.921003 265.69 
L 421.476546 265.69 
L 421.476546 265.69 
L 420.032089 265.69 
L 420.032089 265.69 
L 418.587632 265.69 
L 418.587632 265.69 
L 417.865404 265.69 
z
" clip-path="url(#p8960ca4f00)" style="fill: #d62728; fill-opacity: 0.6; stroke: #b22222; stroke-opacity: 0.8; stroke-width: 1.5"/>
    <path d="M 505.97727 265.69 
L 505.97727 267.531036 
L 506.699499 267.531036 
L 506.699499 268.413098 
L 507.421727 268.413098 
L 507.421727 265.69 
L 507.421727 265.69 
L 506.699499 265.69 
L 506.699499 265.69 
L 505.97727 265.69 
z
" clip-path="url(#p8960ca4f00)" style="fill: #d62728; fill-opacity: 0.6; stroke: #b22222; stroke-opacity: 0.8; stroke-width: 1.5"/>
    <path d="M 510.310641 265.69 
L 510.310641 265.709129 
L 511.032869 265.709129 
L 511.032869 265.870932 
L 511.755097 265.870932 
L 511.755097 265.69 
L 511.755097 265.69 
L 511.032869 265.69 
L 511.032869 265.69 
L 510.310641 265.69 
z
" clip-path="url(#p8960ca4f00)" style="fill: #d62728; fill-opacity: 0.6; stroke: #b22222; stroke-opacity: 0.8; stroke-width: 1.5"/>
   </g>
   <g id="matplotlib.axis_3">
    <g id="xtick_7">
     <g id="line2d_11">
      <g>
       <use xlink:href="#m13c3dad143" x="115.973928" y="332.12" style="stroke: #000000; stroke-width: 0.8"/>
      </g>
     </g>
     <g id="text_11">
      <!-- 1995 -->
      <g transform="translate(103.248928 346.718437) scale(0.1 -0.1)">
       <use xlink:href="#DejaVuSans-31"/>
       <use xlink:href="#DejaVuSans-39" x="63.623047"/>
       <use xlink:href="#DejaVuSans-39" x="127.246094"/>
       <use xlink:href="#DejaVuSans-35" x="190.869141"/>
      </g>
     </g>
    </g>
    <g id="xtick_8">
     <g id="line2d_12">
      <g>
       <use xlink:href="#m13c3dad143" x="202.641337" y="332.12" style="stroke: #000000; stroke-width: 0.8"/>
      </g>
     </g>
     <g id="text_12">
      <!-- 2000 -->
      <g transform="translate(189.916337 346.718437) scale(0.1 -0.1)">
       <use xlink:href="#DejaVuSans-32"/>
       <use xlink:href="#DejaVuSans-30" x="63.623047"/>
       <use xlink:href="#DejaVuSans-30" x="127.246094"/>
       <use xlink:href="#DejaVuSans-30" x="190.869141"/>
      </g>
     </g>
    </g>
    <g id="xtick_9">
     <g id="line2d_13">
      <g>
       <use xlink:href="#m13c3dad143" x="289.308747" y="332.12" style="stroke: #000000; stroke-width: 0.8"/>
      </g>
     </g>
     <g id="text_13">
      <!-- 2005 -->
      <g transform="translate(276.583747 346.718437) scale(0.1 -0.1)">
       <use xlink:href="#DejaVuSans-32"/>
       <use xlink:href="#DejaVuSans-30" x="63.623047"/>
       <use xlink:href="#DejaVuSans-30" x="127.246094"/>
       <use xlink:href="#DejaVuSans-35" x="190.869141"/>
      </g>
     </g>
    </g>
    <g id="xtick_10">
     <g id="line2d_14">
      <g>
       <use xlink:href="#m13c3dad143" x="375.976156" y="332.12" style="stroke: #000000; stroke-width: 0.8"/>
      </g>
     </g>
     <g id="text_14">
      <!-- 2010 -->
      <g transform="translate(363.251156 346.718437) scale(0.1 -0.1)">
       <use xlink:href="#DejaVuSans-32"/>
       <use xlink:href="#DejaVuSans-30" x="63.623047"/>
       <use xlink:href="#DejaVuSans-31" x="127.246094"/>
       <use xlink:href="#DejaVuSans-30" x="190.869141"/>
      </g>
     </g>
    </g>
    <g id="xtick_11">
     <g id="line2d_15">
      <g>
       <use xlink:href="#m13c3dad143" x="462.643565" y="332.12" style="stroke: #000000; stroke-width: 0.8"/>
      </g>
     </g>
     <g id="text_15">
      <!-- 2015 -->
      <g transform="translate(449.918565 346.718437) scale(0.1 -0.1)">
       <use xlink:href="#DejaVuSans-32"/>
       <use xlink:href="#DejaVuSans-30" x="63.623047"/>
       <use xlink:href="#DejaVuSans-31" x="127.246094"/>
       <use xlink:href="#DejaVuSans-35" x="190.869141"/>
      </g>
     </g>
    </g>
    <g id="xtick_12">
     <g id="line2d_16">
      <g>
       <use xlink:href="#m13c3dad143" x="549.310975" y="332.12" style="stroke: #000000; stroke-width: 0.8"/>
      </g>
     </g>
     <g id="text_16">
      <!-- 2020 -->
      <g transform="translate(536.585975 346.718437) scale(0.1 -0.1)">
       <use xlink:href="#DejaVuSans-32"/>
       <use xlink:href="#DejaVuSans-30" x="63.623047"/>
       <use xlink:href="#DejaVuSans-32" x="127.246094"/>
       <use xlink:href="#DejaVuSans-30" x="190.869141"/>
      </g>
     </g>
    </g>
   </g>
   <g id="matplotlib.axis_4">
    <g id="ytick_4">
     <g id="line2d_17">
      <g>
       <use xlink:href="#mc775bf43f3" x="46.64" y="332.12" style="stroke: #000000; stroke-width: 0.8"/>
      </g>
     </g>
     <g id="text_17">
      <!-- −3 -->
      <g transform="translate(24.897813 335.919219) scale(0.1 -0.1)">
       <defs>
        <path id="DejaVuSans-33" d="M 2597 2516 
Q 3050 2419 3304 2112 
Q 3559 1806 3559 1356 
Q 3559 666 3084 287 
Q 2609 -91 1734 -91 
Q 1441 -91 1130 -33 
Q 819 25 488 141 
L 488 750 
Q 750 597 1062 519 
Q 1375 441 1716 441 
Q 2309 441 2620 675 
Q 2931 909 2931 1356 
Q 2931 1769 2642 2001 
Q 2353 2234 1838 2234 
L 1294 2234 
L 1294 2753 
L 1863 2753 
Q 2328 2753 2575 2939 
Q 2822 3125 2822 3475 
Q 2822 3834 2567 4026 
Q 2313 4219 1838 4219 
Q 1578 4219 1281 4162 
Q 984 4106 628 3988 
L 628 4550 
Q 988 4650 1302 4700 
Q 1616 4750 1894 4750 
Q 2613 4750 3031 4423 
Q 3450 4097 3450 3541 
Q 3450 3153 3228 2886 
Q 3006 2619 2597 2516 
z
" transform="scale(0.015625)"/>
       </defs>
       <use xlink:href="#DejaVuSans-2212"/>
       <use xlink:href="#DejaVuSans-33" x="83.789062"/>
      </g>
     </g>
    </g>
    <g id="ytick_5">
     <g id="line2d_18">
      <g>
       <use xlink:href="#mc775bf43f3" x="46.64" y="309.976667" style="stroke: #000000; stroke-width: 0.8"/>
      </g>
     </g>
     <g id="text_18">
      <!-- −2 -->
      <g transform="translate(24.897813 313.775885) scale(0.1 -0.1)">
       <use xlink:href="#DejaVuSans-2212"/>
       <use xlink:href="#DejaVuSans-32" x="83.789062"/>
      </g>
     </g>
    </g>
    <g id="ytick_6">
     <g id="line2d_19">
      <g>
       <use xlink:href="#mc775bf43f3" x="46.64" y="287.833333" style="stroke: #000000; stroke-width: 0.8"/>
      </g>
     </g>
     <g id="text_19">
      <!-- −1 -->
      <g transform="translate(24.897813 291.632552) scale(0.1 -0.1)">
       <use xlink:href="#DejaVuSans-2212"/>
       <use xlink:href="#DejaVuSans-31" x="83.789062"/>
      </g>
     </g>
    </g>
    <g id="ytick_7">
     <g id="line2d_20">
      <g>
       <use xlink:href="#mc775bf43f3" x="46.64" y="265.69" style="stroke: #000000; stroke-width: 0.8"/>
      </g>
     </g>
     <g id="text_20">
      <!-- 0 -->
      <g transform="translate(33.2775 269.489219) scale(0.1 -0.1)">
       <use xlink:href="#DejaVuSans-30"/>
      </g>
     </g>
    </g>
    <g id="ytick_8">
     <g id="line2d_21">
      <g>
       <use xlink:href="#mc775bf43f3" x="46.64" y="243.546667" style="stroke: #000000; stroke-width: 0.8"/>
      </g>
     </g>
     <g id="text_21">
      <!-- 1 -->
      <g transform="translate(33.2775 247.345885) scale(0.1 -0.1)">
       <use xlink:href="#DejaVuSans-31"/>
      </g>
     </g>
    </g>
    <g id="ytick_9">
     <g id="line2d_22">
      <g>
       <use xlink:href="#mc775bf43f3" x="46.64" y="221.403333" style="stroke: #000000; stroke-width: 0.8"/>
      </g>
     </g>
     <g id="text_22">
      <!-- 2 -->
      <g transform="translate(33.2775 225.202552) scale(0.1 -0.1)">
       <use xlink:href="#DejaVuSans-32"/>
      </g>
     </g>
    </g>
    <g id="ytick_10">
     <g id="line2d_23">
      <g>
       <use xlink:href="#mc775bf43f3" x="46.64" y="199.26" style="stroke: #000000; stroke-width: 0.8"/>
      </g>
     </g>
     <g id="text_23">
      <!-- 3 -->
      <g transform="translate(33.2775 203.059219) scale(0.1 -0.1)">
       <use xlink:href="#DejaVuSans-33"/>
      </g>
     </g>
    </g>
    <g id="text_24">
     <!-- Gallatin -->
     <g transform="translate(18.818125 284.988438) rotate(-90) scale(0.1 -0.1)">
      <defs>
       <path id="DejaVuSans-47" d="M 3809 666 
L 3809 1919 
L 2778 1919 
L 2778 2438 
L 4434 2438 
L 4434 434 
Q 4069 175 3628 42 
Q 3188 -91 2688 -91 
Q 1594 -91 976 548 
Q 359 1188 359 2328 
Q 359 3472 976 4111 
Q 1594 4750 2688 4750 
Q 3144 4750 3555 4637 
Q 3966 4525 4313 4306 
L 4313 3634 
Q 3963 3931 3569 4081 
Q 3175 4231 2741 4231 
Q 1884 4231 1454 3753 
Q 1025 3275 1025 2328 
Q 1025 1384 1454 906 
Q 1884 428 2741 428 
Q 3075 428 3337 486 
Q 3600 544 3809 666 
z
" transform="scale(0.015625)"/>
       <path id="DejaVuSans-61" d="M 2194 1759 
Q 1497 1759 1228 1600 
Q 959 1441 959 1056 
Q 959 750 1161 570 
Q 1363 391 1709 391 
Q 2188 391 2477 730 
Q 2766 1069 2766 1631 
L 2766 1759 
L 2194 1759 
z
M 3341 1997 
L 3341 0 
L 2766 0 
L 2766 531 
Q 2569 213 2275 61 
Q 1981 -91 1556 -91 
Q 1019 -91 701 211 
Q 384 513 384 1019 
Q 384 1609 779 1909 
Q 1175 2209 1959 2209 
L 2766 2209 
L 2766 2266 
Q 2766 2663 2505 2880 
Q 2244 3097 1772 3097 
Q 1472 3097 1187 3025 
Q 903 2953 641 2809 
L 641 3341 
Q 956 3463 1253 3523 
Q 1550 3584 1831 3584 
Q 2591 3584 2966 3190 
Q 3341 2797 3341 1997 
z
" transform="scale(0.015625)"/>
       <path id="DejaVuSans-6c" d="M 603 4863 
L 1178 4863 
L 1178 0 
L 603 0 
L 603 4863 
z
" transform="scale(0.015625)"/>
       <path id="DejaVuSans-6e" d="M 3513 2113 
L 3513 0 
L 2938 0 
L 2938 2094 
Q 2938 2591 2744 2837 
Q 2550 3084 2163 3084 
Q 1697 3084 1428 2787 
Q 1159 2491 1159 1978 
L 1159 0 
L 581 0 
L 581 3500 
L 1159 3500 
L 1159 2956 
Q 1366 3272 1645 3428 
Q 1925 3584 2291 3584 
Q 2894 3584 3203 3211 
Q 3513 2838 3513 2113 
z
" transform="scale(0.015625)"/>
      </defs>
      <use xlink:href="#DejaVuSans-47"/>
      <use xlink:href="#DejaVuSans-61" x="77.490234"/>
      <use xlink:href="#DejaVuSans-6c" x="138.769531"/>
      <use xlink:href="#DejaVuSans-6c" x="166.552734"/>
      <use xlink:href="#DejaVuSans-61" x="194.335938"/>
      <use xlink:href="#DejaVuSans-74" x="255.615234"/>
      <use xlink:href="#DejaVuSans-69" x="294.824219"/>
      <use xlink:href="#DejaVuSans-6e" x="322.607422"/>
     </g>
    </g>
   </g>
   <g id="line2d_24">
    <path d="M 46.64 265.69 
L 565.2 265.69 
" clip-path="url(#p8960ca4f00)" style="fill: none; stroke: #000000; stroke-width: 1.5; stroke-linecap: square"/>
   </g>
   <g id="patch_6">
    <path d="M 46.64 332.12 
L 46.64 199.26 
" style="fill: none; stroke: #000000; stroke-width: 0.8; stroke-linejoin: miter; stroke-linecap: square"/>
   </g>
   <g id="patch_7">
    <path d="M 46.64 332.12 
L 565.2 332.12 
" style="fill: none; stroke: #000000; stroke-width: 0.8; stroke-linejoin: miter; stroke-linecap: square"/>
   </g>
  </g>
  <g id="text_25">
   <!-- SPEI-44 -->
   <g transform="translate(262.110937 16.318125) scale(0.12 -0.12)">
    <defs>
     <path id="DejaVuSans-Bold-53" d="M 3834 4519 
L 3834 3531 
Q 3450 3703 3084 3790 
Q 2719 3878 2394 3878 
Q 1963 3878 1756 3759 
Q 1550 3641 1550 3391 
Q 1550 3203 1689 3098 
Q 1828 2994 2194 2919 
L 2706 2816 
Q 3484 2659 3812 2340 
Q 4141 2022 4141 1434 
Q 4141 663 3683 286 
Q 3225 -91 2284 -91 
Q 1841 -91 1394 -6 
Q 947 78 500 244 
L 500 1259 
Q 947 1022 1364 901 
Q 1781 781 2169 781 
Q 2563 781 2772 912 
Q 2981 1044 2981 1288 
Q 2981 1506 2839 1625 
Q 2697 1744 2272 1838 
L 1806 1941 
Q 1106 2091 782 2419 
Q 459 2747 459 3303 
Q 459 4000 909 4375 
Q 1359 4750 2203 4750 
Q 2588 4750 2994 4692 
Q 3400 4634 3834 4519 
z
" transform="scale(0.015625)"/>
     <path id="DejaVuSans-Bold-50" d="M 588 4666 
L 2584 4666 
Q 3475 4666 3951 4270 
Q 4428 3875 4428 3144 
Q 4428 2409 3951 2014 
Q 3475 1619 2584 1619 
L 1791 1619 
L 1791 0 
L 588 0 
L 588 4666 
z
M 1791 3794 
L 1791 2491 
L 2456 2491 
Q 2806 2491 2997 2661 
Q 3188 2831 3188 3144 
Q 3188 3456 2997 3625 
Q 2806 3794 2456 3794 
L 1791 3794 
z
" transform="scale(0.015625)"/>
     <path id="DejaVuSans-Bold-45" d="M 588 4666 
L 3834 4666 
L 3834 3756 
L 1791 3756 
L 1791 2888 
L 3713 2888 
L 3713 1978 
L 1791 1978 
L 1791 909 
L 3903 909 
L 3903 0 
L 588 0 
L 588 4666 
z
" transform="scale(0.015625)"/>
     <path id="DejaVuSans-Bold-49" d="M 588 4666 
L 1791 4666 
L 1791 0 
L 588 0 
L 588 4666 
z
" transform="scale(0.015625)"/>
     <path id="DejaVuSans-Bold-2d" d="M 347 2297 
L 2309 2297 
L 2309 1388 
L 347 1388 
L 347 2297 
z
" transform="scale(0.015625)"/>
     <path id="DejaVuSans-Bold-34" d="M 2356 3675 
L 1038 1722 
L 2356 1722 
L 2356 3675 
z
M 2156 4666 
L 3494 4666 
L 3494 1722 
L 4159 1722 
L 4159 850 
L 3494 850 
L 3494 0 
L 2356 0 
L 2356 850 
L 288 850 
L 288 1881 
L 2156 4666 
z
" transform="scale(0.015625)"/>
    </defs>
    <use xlink:href="#DejaVuSans-Bold-53"/>
    <use xlink:href="#DejaVuSans-Bold-50" x="72.021484"/>
    <use xlink:href="#DejaVuSans-Bold-45" x="145.3125"/>
    <use xlink:href="#DejaVuSans-Bold-49" x="213.623047"/>
    <use xlink:href="#DejaVuSans-Bold-2d" x="250.830078"/>
    <use xlink:href="#DejaVuSans-Bold-34" x="292.333984"/>
    <use xlink:href="#DejaVuSans-Bold-34" x="361.914062"/>
   </g>
  </g>
 </g>
 <defs>
  <clipPath id="p0dd07bca78">
   <rect x="46.64" y="34.56" width="518.56" height="132.86"/>
  </clipPath>
  <clipPath id="p8960ca4f00">
   <rect x="46.64" y="199.26" width="518.56" height="132.86"/>
  </clipPath>
 </defs>
</svg>
