<?xml version="1.0" encoding="utf-8" standalone="no"?>
<!DOCTYPE svg PUBLIC "-//W3C//DTD SVG 1.1//EN"
  "http://www.w3.org/Graphics/SVG/1.1/DTD/svg11.dtd">
<svg xmlns:xlink="http://www.w3.org/1999/xlink" width="432pt" height="360pt" viewBox="0 0 432 360" xmlns="http://www.w3.org/2000/svg" version="1.1">
 <metadata>
  <rdf:RDF xmlns:dc="http://purl.org/dc/elements/1.1/" xmlns:cc="http://creativecommons.org/ns#" xmlns:rdf="http://www.w3.org/1999/02/22-rdf-syntax-ns#">
   <cc:Work>
    <dc:type rdf:resource="http://purl.org/dc/dcmitype/StillImage"/>
    <dc:date>2024-03-17T21:56:50.583696</dc:date>
    <dc:format>image/svg+xml</dc:format>
    <dc:creator>
     <cc:Agent>
      <dc:title>Matplotlib v3.8.2, https://matplotlib.org/</dc:title>
     </cc:Agent>
    </dc:creator>
   </cc:Work>
  </rdf:RDF>
 </metadata>
 <defs>
  <style type="text/css">*{stroke-linejoin: round; stroke-linecap: butt}</style>
 </defs>
 <g id="figure_1">
  <g id="patch_1">
   <path d="M 0 360 
L 432 360 
L 432 0 
L 0 0 
z
" style="fill: #ffffff"/>
  </g>
  <g id="axes_1">
   <g id="patch_2">
    <path d="M 44.57 318.04 
L 421.2 318.04 
L 421.2 10.8 
L 44.57 10.8 
z
" style="fill: #ffffff"/>
   </g>
   <g id="matplotlib.axis_1">
    <g id="xtick_1">
     <g id="line2d_1">
      <path d="M 46.358609 318.04 
L 46.358609 10.8 
" clip-path="url(#pc27355db75)" style="fill: none; stroke: #b0b0b0; stroke-width: 0.8; stroke-linecap: square"/>
     </g>
     <g id="line2d_2">
      <defs>
       <path id="m8b6c808f15" d="M 0 0 
L 0 3.5 
" style="stroke: #000000; stroke-width: 0.8"/>
      </defs>
      <g>
       <use xlink:href="#m8b6c808f15" x="46.358609" y="318.04" style="stroke: #000000; stroke-width: 0.8"/>
      </g>
     </g>
     <g id="text_1">
      <!-- 0 -->
      <g transform="translate(43.177359 332.638438) scale(0.1 -0.1)">
       <defs>
        <path id="DejaVuSans-30" d="M 2034 4250 
Q 1547 4250 1301 3770 
Q 1056 3291 1056 2328 
Q 1056 1369 1301 889 
Q 1547 409 2034 409 
Q 2525 409 2770 889 
Q 3016 1369 3016 2328 
Q 3016 3291 2770 3770 
Q 2525 4250 2034 4250 
z
M 2034 4750 
Q 2819 4750 3233 4129 
Q 3647 3509 3647 2328 
Q 3647 1150 3233 529 
Q 2819 -91 2034 -91 
Q 1250 -91 836 529 
Q 422 1150 422 2328 
Q 422 3509 836 4129 
Q 1250 4750 2034 4750 
z
" transform="scale(0.015625)"/>
       </defs>
       <use xlink:href="#DejaVuSans-30"/>
      </g>
     </g>
    </g>
    <g id="xtick_2">
     <g id="line2d_3">
      <path d="M 103.139855 318.04 
L 103.139855 10.8 
" clip-path="url(#pc27355db75)" style="fill: none; stroke: #b0b0b0; stroke-width: 0.8; stroke-linecap: square"/>
     </g>
     <g id="line2d_4">
      <g>
       <use xlink:href="#m8b6c808f15" x="103.139855" y="318.04" style="stroke: #000000; stroke-width: 0.8"/>
      </g>
     </g>
     <g id="text_2">
      <!-- 50 -->
      <g transform="translate(96.777355 332.638438) scale(0.1 -0.1)">
       <defs>
        <path id="DejaVuSans-35" d="M 691 4666 
L 3169 4666 
L 3169 4134 
L 1269 4134 
L 1269 2991 
Q 1406 3038 1543 3061 
Q 1681 3084 1819 3084 
Q 2600 3084 3056 2656 
Q 3513 2228 3513 1497 
Q 3513 744 3044 326 
Q 2575 -91 1722 -91 
Q 1428 -91 1123 -41 
Q 819 9 494 109 
L 494 744 
Q 775 591 1075 516 
Q 1375 441 1709 441 
Q 2250 441 2565 725 
Q 2881 1009 2881 1497 
Q 2881 1984 2565 2268 
Q 2250 2553 1709 2553 
Q 1456 2553 1204 2497 
Q 953 2441 691 2322 
L 691 4666 
z
" transform="scale(0.015625)"/>
       </defs>
       <use xlink:href="#DejaVuSans-35"/>
       <use xlink:href="#DejaVuSans-30" x="63.623047"/>
      </g>
     </g>
    </g>
    <g id="xtick_3">
     <g id="line2d_5">
      <path d="M 159.9211 318.04 
L 159.9211 10.8 
" clip-path="url(#pc27355db75)" style="fill: none; stroke: #b0b0b0; stroke-width: 0.8; stroke-linecap: square"/>
     </g>
     <g id="line2d_6">
      <g>
       <use xlink:href="#m8b6c808f15" x="159.9211" y="318.04" style="stroke: #000000; stroke-width: 0.8"/>
      </g>
     </g>
     <g id="text_3">
      <!-- 100 -->
      <g transform="translate(150.37735 332.638438) scale(0.1 -0.1)">
       <defs>
        <path id="DejaVuSans-31" d="M 794 531 
L 1825 531 
L 1825 4091 
L 703 3866 
L 703 4441 
L 1819 4666 
L 2450 4666 
L 2450 531 
L 3481 531 
L 3481 0 
L 794 0 
L 794 531 
z
" transform="scale(0.015625)"/>
       </defs>
       <use xlink:href="#DejaVuSans-31"/>
       <use xlink:href="#DejaVuSans-30" x="63.623047"/>
       <use xlink:href="#DejaVuSans-30" x="127.246094"/>
      </g>
     </g>
    </g>
    <g id="xtick_4">
     <g id="line2d_7">
      <path d="M 216.702345 318.04 
L 216.702345 10.8 
" clip-path="url(#pc27355db75)" style="fill: none; stroke: #b0b0b0; stroke-width: 0.8; stroke-linecap: square"/>
     </g>
     <g id="line2d_8">
      <g>
       <use xlink:href="#m8b6c808f15" x="216.702345" y="318.04" style="stroke: #000000; stroke-width: 0.8"/>
      </g>
     </g>
     <g id="text_4">
      <!-- 150 -->
      <g transform="translate(207.158595 332.638438) scale(0.1 -0.1)">
       <use xlink:href="#DejaVuSans-31"/>
       <use xlink:href="#DejaVuSans-35" x="63.623047"/>
       <use xlink:href="#DejaVuSans-30" x="127.246094"/>
      </g>
     </g>
    </g>
    <g id="xtick_5">
     <g id="line2d_9">
      <path d="M 273.48359 318.04 
L 273.48359 10.8 
" clip-path="url(#pc27355db75)" style="fill: none; stroke: #b0b0b0; stroke-width: 0.8; stroke-linecap: square"/>
     </g>
     <g id="line2d_10">
      <g>
       <use xlink:href="#m8b6c808f15" x="273.48359" y="318.04" style="stroke: #000000; stroke-width: 0.8"/>
      </g>
     </g>
     <g id="text_5">
      <!-- 200 -->
      <g transform="translate(263.93984 332.638438) scale(0.1 -0.1)">
       <defs>
        <path id="DejaVuSans-32" d="M 1228 531 
L 3431 531 
L 3431 0 
L 469 0 
L 469 531 
Q 828 903 1448 1529 
Q 2069 2156 2228 2338 
Q 2531 2678 2651 2914 
Q 2772 3150 2772 3378 
Q 2772 3750 2511 3984 
Q 2250 4219 1831 4219 
Q 1534 4219 1204 4116 
Q 875 4013 500 3803 
L 500 4441 
Q 881 4594 1212 4672 
Q 1544 4750 1819 4750 
Q 2544 4750 2975 4387 
Q 3406 4025 3406 3419 
Q 3406 3131 3298 2873 
Q 3191 2616 2906 2266 
Q 2828 2175 2409 1742 
Q 1991 1309 1228 531 
z
" transform="scale(0.015625)"/>
       </defs>
       <use xlink:href="#DejaVuSans-32"/>
       <use xlink:href="#DejaVuSans-30" x="63.623047"/>
       <use xlink:href="#DejaVuSans-30" x="127.246094"/>
      </g>
     </g>
    </g>
    <g id="xtick_6">
     <g id="line2d_11">
      <path d="M 330.264836 318.04 
L 330.264836 10.8 
" clip-path="url(#pc27355db75)" style="fill: none; stroke: #b0b0b0; stroke-width: 0.8; stroke-linecap: square"/>
     </g>
     <g id="line2d_12">
      <g>
       <use xlink:href="#m8b6c808f15" x="330.264836" y="318.04" style="stroke: #000000; stroke-width: 0.8"/>
      </g>
     </g>
     <g id="text_6">
      <!-- 250 -->
      <g transform="translate(320.721086 332.638438) scale(0.1 -0.1)">
       <use xlink:href="#DejaVuSans-32"/>
       <use xlink:href="#DejaVuSans-35" x="63.623047"/>
       <use xlink:href="#DejaVuSans-30" x="127.246094"/>
      </g>
     </g>
    </g>
    <g id="xtick_7">
     <g id="line2d_13">
      <path d="M 387.046081 318.04 
L 387.046081 10.8 
" clip-path="url(#pc27355db75)" style="fill: none; stroke: #b0b0b0; stroke-width: 0.8; stroke-linecap: square"/>
     </g>
     <g id="line2d_14">
      <g>
       <use xlink:href="#m8b6c808f15" x="387.046081" y="318.04" style="stroke: #000000; stroke-width: 0.8"/>
      </g>
     </g>
     <g id="text_7">
      <!-- 300 -->
      <g transform="translate(377.502331 332.638438) scale(0.1 -0.1)">
       <defs>
        <path id="DejaVuSans-33" d="M 2597 2516 
Q 3050 2419 3304 2112 
Q 3559 1806 3559 1356 
Q 3559 666 3084 287 
Q 2609 -91 1734 -91 
Q 1441 -91 1130 -33 
Q 819 25 488 141 
L 488 750 
Q 750 597 1062 519 
Q 1375 441 1716 441 
Q 2309 441 2620 675 
Q 2931 909 2931 1356 
Q 2931 1769 2642 2001 
Q 2353 2234 1838 2234 
L 1294 2234 
L 1294 2753 
L 1863 2753 
Q 2328 2753 2575 2939 
Q 2822 3125 2822 3475 
Q 2822 3834 2567 4026 
Q 2313 4219 1838 4219 
Q 1578 4219 1281 4162 
Q 984 4106 628 3988 
L 628 4550 
Q 988 4650 1302 4700 
Q 1616 4750 1894 4750 
Q 2613 4750 3031 4423 
Q 3450 4097 3450 3541 
Q 3450 3153 3228 2886 
Q 3006 2619 2597 2516 
z
" transform="scale(0.015625)"/>
       </defs>
       <use xlink:href="#DejaVuSans-33"/>
       <use xlink:href="#DejaVuSans-30" x="63.623047"/>
       <use xlink:href="#DejaVuSans-30" x="127.246094"/>
      </g>
     </g>
    </g>
    <g id="text_8">
     <!-- Total Depth (ft) -->
     <g transform="translate(195.26625 346.316563) scale(0.1 -0.1)">
      <defs>
       <path id="DejaVuSans-54" d="M -19 4666 
L 3928 4666 
L 3928 4134 
L 2272 4134 
L 2272 0 
L 1638 0 
L 1638 4134 
L -19 4134 
L -19 4666 
z
" transform="scale(0.015625)"/>
       <path id="DejaVuSans-6f" d="M 1959 3097 
Q 1497 3097 1228 2736 
Q 959 2375 959 1747 
Q 959 1119 1226 758 
Q 1494 397 1959 397 
Q 2419 397 2687 759 
Q 2956 1122 2956 1747 
Q 2956 2369 2687 2733 
Q 2419 3097 1959 3097 
z
M 1959 3584 
Q 2709 3584 3137 3096 
Q 3566 2609 3566 1747 
Q 3566 888 3137 398 
Q 2709 -91 1959 -91 
Q 1206 -91 779 398 
Q 353 888 353 1747 
Q 353 2609 779 3096 
Q 1206 3584 1959 3584 
z
" transform="scale(0.015625)"/>
       <path id="DejaVuSans-74" d="M 1172 4494 
L 1172 3500 
L 2356 3500 
L 2356 3053 
L 1172 3053 
L 1172 1153 
Q 1172 725 1289 603 
Q 1406 481 1766 481 
L 2356 481 
L 2356 0 
L 1766 0 
Q 1100 0 847 248 
Q 594 497 594 1153 
L 594 3053 
L 172 3053 
L 172 3500 
L 594 3500 
L 594 4494 
L 1172 4494 
z
" transform="scale(0.015625)"/>
       <path id="DejaVuSans-61" d="M 2194 1759 
Q 1497 1759 1228 1600 
Q 959 1441 959 1056 
Q 959 750 1161 570 
Q 1363 391 1709 391 
Q 2188 391 2477 730 
Q 2766 1069 2766 1631 
L 2766 1759 
L 2194 1759 
z
M 3341 1997 
L 3341 0 
L 2766 0 
L 2766 531 
Q 2569 213 2275 61 
Q 1981 -91 1556 -91 
Q 1019 -91 701 211 
Q 384 513 384 1019 
Q 384 1609 779 1909 
Q 1175 2209 1959 2209 
L 2766 2209 
L 2766 2266 
Q 2766 2663 2505 2880 
Q 2244 3097 1772 3097 
Q 1472 3097 1187 3025 
Q 903 2953 641 2809 
L 641 3341 
Q 956 3463 1253 3523 
Q 1550 3584 1831 3584 
Q 2591 3584 2966 3190 
Q 3341 2797 3341 1997 
z
" transform="scale(0.015625)"/>
       <path id="DejaVuSans-6c" d="M 603 4863 
L 1178 4863 
L 1178 0 
L 603 0 
L 603 4863 
z
" transform="scale(0.015625)"/>
       <path id="DejaVuSans-20" transform="scale(0.015625)"/>
       <path id="DejaVuSans-44" d="M 1259 4147 
L 1259 519 
L 2022 519 
Q 2988 519 3436 956 
Q 3884 1394 3884 2338 
Q 3884 3275 3436 3711 
Q 2988 4147 2022 4147 
L 1259 4147 
z
M 628 4666 
L 1925 4666 
Q 3281 4666 3915 4102 
Q 4550 3538 4550 2338 
Q 4550 1131 3912 565 
Q 3275 0 1925 0 
L 628 0 
L 628 4666 
z
" transform="scale(0.015625)"/>
       <path id="DejaVuSans-65" d="M 3597 1894 
L 3597 1613 
L 953 1613 
Q 991 1019 1311 708 
Q 1631 397 2203 397 
Q 2534 397 2845 478 
Q 3156 559 3463 722 
L 3463 178 
Q 3153 47 2828 -22 
Q 2503 -91 2169 -91 
Q 1331 -91 842 396 
Q 353 884 353 1716 
Q 353 2575 817 3079 
Q 1281 3584 2069 3584 
Q 2775 3584 3186 3129 
Q 3597 2675 3597 1894 
z
M 3022 2063 
Q 3016 2534 2758 2815 
Q 2500 3097 2075 3097 
Q 1594 3097 1305 2825 
Q 1016 2553 972 2059 
L 3022 2063 
z
" transform="scale(0.015625)"/>
       <path id="DejaVuSans-70" d="M 1159 525 
L 1159 -1331 
L 581 -1331 
L 581 3500 
L 1159 3500 
L 1159 2969 
Q 1341 3281 1617 3432 
Q 1894 3584 2278 3584 
Q 2916 3584 3314 3078 
Q 3713 2572 3713 1747 
Q 3713 922 3314 415 
Q 2916 -91 2278 -91 
Q 1894 -91 1617 61 
Q 1341 213 1159 525 
z
M 3116 1747 
Q 3116 2381 2855 2742 
Q 2594 3103 2138 3103 
Q 1681 3103 1420 2742 
Q 1159 2381 1159 1747 
Q 1159 1113 1420 752 
Q 1681 391 2138 391 
Q 2594 391 2855 752 
Q 3116 1113 3116 1747 
z
" transform="scale(0.015625)"/>
       <path id="DejaVuSans-68" d="M 3513 2113 
L 3513 0 
L 2938 0 
L 2938 2094 
Q 2938 2591 2744 2837 
Q 2550 3084 2163 3084 
Q 1697 3084 1428 2787 
Q 1159 2491 1159 1978 
L 1159 0 
L 581 0 
L 581 4863 
L 1159 4863 
L 1159 2956 
Q 1366 3272 1645 3428 
Q 1925 3584 2291 3584 
Q 2894 3584 3203 3211 
Q 3513 2838 3513 2113 
z
" transform="scale(0.015625)"/>
       <path id="DejaVuSans-28" d="M 1984 4856 
Q 1566 4138 1362 3434 
Q 1159 2731 1159 2009 
Q 1159 1288 1364 580 
Q 1569 -128 1984 -844 
L 1484 -844 
Q 1016 -109 783 600 
Q 550 1309 550 2009 
Q 550 2706 781 3412 
Q 1013 4119 1484 4856 
L 1984 4856 
z
" transform="scale(0.015625)"/>
       <path id="DejaVuSans-66" d="M 2375 4863 
L 2375 4384 
L 1825 4384 
Q 1516 4384 1395 4259 
Q 1275 4134 1275 3809 
L 1275 3500 
L 2222 3500 
L 2222 3053 
L 1275 3053 
L 1275 0 
L 697 0 
L 697 3053 
L 147 3053 
L 147 3500 
L 697 3500 
L 697 3744 
Q 697 4328 969 4595 
Q 1241 4863 1831 4863 
L 2375 4863 
z
" transform="scale(0.015625)"/>
       <path id="DejaVuSans-29" d="M 513 4856 
L 1013 4856 
Q 1481 4119 1714 3412 
Q 1947 2706 1947 2009 
Q 1947 1309 1714 600 
Q 1481 -109 1013 -844 
L 513 -844 
Q 928 -128 1133 580 
Q 1338 1288 1338 2009 
Q 1338 2731 1133 3434 
Q 928 4138 513 4856 
z
" transform="scale(0.015625)"/>
      </defs>
      <use xlink:href="#DejaVuSans-54"/>
      <use xlink:href="#DejaVuSans-6f" x="44.083984"/>
      <use xlink:href="#DejaVuSans-74" x="105.265625"/>
      <use xlink:href="#DejaVuSans-61" x="144.474609"/>
      <use xlink:href="#DejaVuSans-6c" x="205.753906"/>
      <use xlink:href="#DejaVuSans-20" x="233.537109"/>
      <use xlink:href="#DejaVuSans-44" x="265.324219"/>
      <use xlink:href="#DejaVuSans-65" x="342.326172"/>
      <use xlink:href="#DejaVuSans-70" x="403.849609"/>
      <use xlink:href="#DejaVuSans-74" x="467.326172"/>
      <use xlink:href="#DejaVuSans-68" x="506.535156"/>
      <use xlink:href="#DejaVuSans-20" x="569.914062"/>
      <use xlink:href="#DejaVuSans-28" x="601.701172"/>
      <use xlink:href="#DejaVuSans-66" x="640.714844"/>
      <use xlink:href="#DejaVuSans-74" x="674.169922"/>
      <use xlink:href="#DejaVuSans-29" x="713.378906"/>
     </g>
    </g>
   </g>
   <g id="matplotlib.axis_2">
    <g id="ytick_1">
     <g id="line2d_15">
      <path d="M 44.57 311.769796 
L 421.2 311.769796 
" clip-path="url(#pc27355db75)" style="fill: none; stroke: #b0b0b0; stroke-width: 0.8; stroke-linecap: square"/>
     </g>
     <g id="line2d_16">
      <defs>
       <path id="m88c0e7a8e6" d="M 0 0 
L -3.5 0 
" style="stroke: #000000; stroke-width: 0.8"/>
      </defs>
      <g>
       <use xlink:href="#m88c0e7a8e6" x="44.57" y="311.769796" style="stroke: #000000; stroke-width: 0.8"/>
      </g>
     </g>
     <g id="text_9">
      <!-- 1 -->
      <g transform="translate(31.2075 315.569015) scale(0.1 -0.1)">
       <use xlink:href="#DejaVuSans-31"/>
      </g>
     </g>
    </g>
    <g id="ytick_2">
     <g id="line2d_17">
      <path d="M 44.57 299.229388 
L 421.2 299.229388 
" clip-path="url(#pc27355db75)" style="fill: none; stroke: #b0b0b0; stroke-width: 0.8; stroke-linecap: square"/>
     </g>
     <g id="line2d_18">
      <g>
       <use xlink:href="#m88c0e7a8e6" x="44.57" y="299.229388" style="stroke: #000000; stroke-width: 0.8"/>
      </g>
     </g>
     <g id="text_10">
      <!-- 3 -->
      <g transform="translate(31.2075 303.028607) scale(0.1 -0.1)">
       <use xlink:href="#DejaVuSans-33"/>
      </g>
     </g>
    </g>
    <g id="ytick_3">
     <g id="line2d_19">
      <path d="M 44.57 280.418776 
L 421.2 280.418776 
" clip-path="url(#pc27355db75)" style="fill: none; stroke: #b0b0b0; stroke-width: 0.8; stroke-linecap: square"/>
     </g>
     <g id="line2d_20">
      <g>
       <use xlink:href="#m88c0e7a8e6" x="44.57" y="280.418776" style="stroke: #000000; stroke-width: 0.8"/>
      </g>
     </g>
     <g id="text_11">
      <!-- 6 -->
      <g transform="translate(31.2075 284.217994) scale(0.1 -0.1)">
       <defs>
        <path id="DejaVuSans-36" d="M 2113 2584 
Q 1688 2584 1439 2293 
Q 1191 2003 1191 1497 
Q 1191 994 1439 701 
Q 1688 409 2113 409 
Q 2538 409 2786 701 
Q 3034 994 3034 1497 
Q 3034 2003 2786 2293 
Q 2538 2584 2113 2584 
z
M 3366 4563 
L 3366 3988 
Q 3128 4100 2886 4159 
Q 2644 4219 2406 4219 
Q 1781 4219 1451 3797 
Q 1122 3375 1075 2522 
Q 1259 2794 1537 2939 
Q 1816 3084 2150 3084 
Q 2853 3084 3261 2657 
Q 3669 2231 3669 1497 
Q 3669 778 3244 343 
Q 2819 -91 2113 -91 
Q 1303 -91 875 529 
Q 447 1150 447 2328 
Q 447 3434 972 4092 
Q 1497 4750 2381 4750 
Q 2619 4750 2861 4703 
Q 3103 4656 3366 4563 
z
" transform="scale(0.015625)"/>
       </defs>
       <use xlink:href="#DejaVuSans-36"/>
      </g>
     </g>
    </g>
    <g id="ytick_4">
     <g id="line2d_21">
      <path d="M 44.57 242.797551 
L 421.2 242.797551 
" clip-path="url(#pc27355db75)" style="fill: none; stroke: #b0b0b0; stroke-width: 0.8; stroke-linecap: square"/>
     </g>
     <g id="line2d_22">
      <g>
       <use xlink:href="#m88c0e7a8e6" x="44.57" y="242.797551" style="stroke: #000000; stroke-width: 0.8"/>
      </g>
     </g>
     <g id="text_12">
      <!-- 12 -->
      <g transform="translate(24.845 246.59677) scale(0.1 -0.1)">
       <use xlink:href="#DejaVuSans-31"/>
       <use xlink:href="#DejaVuSans-32" x="63.623047"/>
      </g>
     </g>
    </g>
    <g id="ytick_5">
     <g id="line2d_23">
      <path d="M 44.57 167.555102 
L 421.2 167.555102 
" clip-path="url(#pc27355db75)" style="fill: none; stroke: #b0b0b0; stroke-width: 0.8; stroke-linecap: square"/>
     </g>
     <g id="line2d_24">
      <g>
       <use xlink:href="#m88c0e7a8e6" x="44.57" y="167.555102" style="stroke: #000000; stroke-width: 0.8"/>
      </g>
     </g>
     <g id="text_13">
      <!-- 24 -->
      <g transform="translate(24.845 171.354321) scale(0.1 -0.1)">
       <defs>
        <path id="DejaVuSans-34" d="M 2419 4116 
L 825 1625 
L 2419 1625 
L 2419 4116 
z
M 2253 4666 
L 3047 4666 
L 3047 1625 
L 3713 1625 
L 3713 1100 
L 3047 1100 
L 3047 0 
L 2419 0 
L 2419 1100 
L 313 1100 
L 313 1709 
L 2253 4666 
z
" transform="scale(0.015625)"/>
       </defs>
       <use xlink:href="#DejaVuSans-32"/>
       <use xlink:href="#DejaVuSans-34" x="63.623047"/>
      </g>
     </g>
    </g>
    <g id="ytick_6">
     <g id="line2d_25">
      <path d="M 44.57 17.070204 
L 421.2 17.070204 
" clip-path="url(#pc27355db75)" style="fill: none; stroke: #b0b0b0; stroke-width: 0.8; stroke-linecap: square"/>
     </g>
     <g id="line2d_26">
      <g>
       <use xlink:href="#m88c0e7a8e6" x="44.57" y="17.070204" style="stroke: #000000; stroke-width: 0.8"/>
      </g>
     </g>
     <g id="text_14">
      <!-- 48 -->
      <g transform="translate(24.845 20.869423) scale(0.1 -0.1)">
       <defs>
        <path id="DejaVuSans-38" d="M 2034 2216 
Q 1584 2216 1326 1975 
Q 1069 1734 1069 1313 
Q 1069 891 1326 650 
Q 1584 409 2034 409 
Q 2484 409 2743 651 
Q 3003 894 3003 1313 
Q 3003 1734 2745 1975 
Q 2488 2216 2034 2216 
z
M 1403 2484 
Q 997 2584 770 2862 
Q 544 3141 544 3541 
Q 544 4100 942 4425 
Q 1341 4750 2034 4750 
Q 2731 4750 3128 4425 
Q 3525 4100 3525 3541 
Q 3525 3141 3298 2862 
Q 3072 2584 2669 2484 
Q 3125 2378 3379 2068 
Q 3634 1759 3634 1313 
Q 3634 634 3220 271 
Q 2806 -91 2034 -91 
Q 1263 -91 848 271 
Q 434 634 434 1313 
Q 434 1759 690 2068 
Q 947 2378 1403 2484 
z
M 1172 3481 
Q 1172 3119 1398 2916 
Q 1625 2713 2034 2713 
Q 2441 2713 2670 2916 
Q 2900 3119 2900 3481 
Q 2900 3844 2670 4047 
Q 2441 4250 2034 4250 
Q 1625 4250 1398 4047 
Q 1172 3844 1172 3481 
z
" transform="scale(0.015625)"/>
       </defs>
       <use xlink:href="#DejaVuSans-34"/>
       <use xlink:href="#DejaVuSans-38" x="63.623047"/>
      </g>
     </g>
    </g>
    <g id="text_15">
     <!-- SPEI Accumulation Period (months) -->
     <g transform="translate(18.765313 252.402031) rotate(-90) scale(0.1 -0.1)">
      <defs>
       <path id="DejaVuSans-53" d="M 3425 4513 
L 3425 3897 
Q 3066 4069 2747 4153 
Q 2428 4238 2131 4238 
Q 1616 4238 1336 4038 
Q 1056 3838 1056 3469 
Q 1056 3159 1242 3001 
Q 1428 2844 1947 2747 
L 2328 2669 
Q 3034 2534 3370 2195 
Q 3706 1856 3706 1288 
Q 3706 609 3251 259 
Q 2797 -91 1919 -91 
Q 1588 -91 1214 -16 
Q 841 59 441 206 
L 441 856 
Q 825 641 1194 531 
Q 1563 422 1919 422 
Q 2459 422 2753 634 
Q 3047 847 3047 1241 
Q 3047 1584 2836 1778 
Q 2625 1972 2144 2069 
L 1759 2144 
Q 1053 2284 737 2584 
Q 422 2884 422 3419 
Q 422 4038 858 4394 
Q 1294 4750 2059 4750 
Q 2388 4750 2728 4690 
Q 3069 4631 3425 4513 
z
" transform="scale(0.015625)"/>
       <path id="DejaVuSans-50" d="M 1259 4147 
L 1259 2394 
L 2053 2394 
Q 2494 2394 2734 2622 
Q 2975 2850 2975 3272 
Q 2975 3691 2734 3919 
Q 2494 4147 2053 4147 
L 1259 4147 
z
M 628 4666 
L 2053 4666 
Q 2838 4666 3239 4311 
Q 3641 3956 3641 3272 
Q 3641 2581 3239 2228 
Q 2838 1875 2053 1875 
L 1259 1875 
L 1259 0 
L 628 0 
L 628 4666 
z
" transform="scale(0.015625)"/>
       <path id="DejaVuSans-45" d="M 628 4666 
L 3578 4666 
L 3578 4134 
L 1259 4134 
L 1259 2753 
L 3481 2753 
L 3481 2222 
L 1259 2222 
L 1259 531 
L 3634 531 
L 3634 0 
L 628 0 
L 628 4666 
z
" transform="scale(0.015625)"/>
       <path id="DejaVuSans-49" d="M 628 4666 
L 1259 4666 
L 1259 0 
L 628 0 
L 628 4666 
z
" transform="scale(0.015625)"/>
       <path id="DejaVuSans-41" d="M 2188 4044 
L 1331 1722 
L 3047 1722 
L 2188 4044 
z
M 1831 4666 
L 2547 4666 
L 4325 0 
L 3669 0 
L 3244 1197 
L 1141 1197 
L 716 0 
L 50 0 
L 1831 4666 
z
" transform="scale(0.015625)"/>
       <path id="DejaVuSans-63" d="M 3122 3366 
L 3122 2828 
Q 2878 2963 2633 3030 
Q 2388 3097 2138 3097 
Q 1578 3097 1268 2742 
Q 959 2388 959 1747 
Q 959 1106 1268 751 
Q 1578 397 2138 397 
Q 2388 397 2633 464 
Q 2878 531 3122 666 
L 3122 134 
Q 2881 22 2623 -34 
Q 2366 -91 2075 -91 
Q 1284 -91 818 406 
Q 353 903 353 1747 
Q 353 2603 823 3093 
Q 1294 3584 2113 3584 
Q 2378 3584 2631 3529 
Q 2884 3475 3122 3366 
z
" transform="scale(0.015625)"/>
       <path id="DejaVuSans-75" d="M 544 1381 
L 544 3500 
L 1119 3500 
L 1119 1403 
Q 1119 906 1312 657 
Q 1506 409 1894 409 
Q 2359 409 2629 706 
Q 2900 1003 2900 1516 
L 2900 3500 
L 3475 3500 
L 3475 0 
L 2900 0 
L 2900 538 
Q 2691 219 2414 64 
Q 2138 -91 1772 -91 
Q 1169 -91 856 284 
Q 544 659 544 1381 
z
M 1991 3584 
L 1991 3584 
z
" transform="scale(0.015625)"/>
       <path id="DejaVuSans-6d" d="M 3328 2828 
Q 3544 3216 3844 3400 
Q 4144 3584 4550 3584 
Q 5097 3584 5394 3201 
Q 5691 2819 5691 2113 
L 5691 0 
L 5113 0 
L 5113 2094 
Q 5113 2597 4934 2840 
Q 4756 3084 4391 3084 
Q 3944 3084 3684 2787 
Q 3425 2491 3425 1978 
L 3425 0 
L 2847 0 
L 2847 2094 
Q 2847 2600 2669 2842 
Q 2491 3084 2119 3084 
Q 1678 3084 1418 2786 
Q 1159 2488 1159 1978 
L 1159 0 
L 581 0 
L 581 3500 
L 1159 3500 
L 1159 2956 
Q 1356 3278 1631 3431 
Q 1906 3584 2284 3584 
Q 2666 3584 2933 3390 
Q 3200 3197 3328 2828 
z
" transform="scale(0.015625)"/>
       <path id="DejaVuSans-69" d="M 603 3500 
L 1178 3500 
L 1178 0 
L 603 0 
L 603 3500 
z
M 603 4863 
L 1178 4863 
L 1178 4134 
L 603 4134 
L 603 4863 
z
" transform="scale(0.015625)"/>
       <path id="DejaVuSans-6e" d="M 3513 2113 
L 3513 0 
L 2938 0 
L 2938 2094 
Q 2938 2591 2744 2837 
Q 2550 3084 2163 3084 
Q 1697 3084 1428 2787 
Q 1159 2491 1159 1978 
L 1159 0 
L 581 0 
L 581 3500 
L 1159 3500 
L 1159 2956 
Q 1366 3272 1645 3428 
Q 1925 3584 2291 3584 
Q 2894 3584 3203 3211 
Q 3513 2838 3513 2113 
z
" transform="scale(0.015625)"/>
       <path id="DejaVuSans-72" d="M 2631 2963 
Q 2534 3019 2420 3045 
Q 2306 3072 2169 3072 
Q 1681 3072 1420 2755 
Q 1159 2438 1159 1844 
L 1159 0 
L 581 0 
L 581 3500 
L 1159 3500 
L 1159 2956 
Q 1341 3275 1631 3429 
Q 1922 3584 2338 3584 
Q 2397 3584 2469 3576 
Q 2541 3569 2628 3553 
L 2631 2963 
z
" transform="scale(0.015625)"/>
       <path id="DejaVuSans-64" d="M 2906 2969 
L 2906 4863 
L 3481 4863 
L 3481 0 
L 2906 0 
L 2906 525 
Q 2725 213 2448 61 
Q 2172 -91 1784 -91 
Q 1150 -91 751 415 
Q 353 922 353 1747 
Q 353 2572 751 3078 
Q 1150 3584 1784 3584 
Q 2172 3584 2448 3432 
Q 2725 3281 2906 2969 
z
M 947 1747 
Q 947 1113 1208 752 
Q 1469 391 1925 391 
Q 2381 391 2643 752 
Q 2906 1113 2906 1747 
Q 2906 2381 2643 2742 
Q 2381 3103 1925 3103 
Q 1469 3103 1208 2742 
Q 947 2381 947 1747 
z
" transform="scale(0.015625)"/>
       <path id="DejaVuSans-73" d="M 2834 3397 
L 2834 2853 
Q 2591 2978 2328 3040 
Q 2066 3103 1784 3103 
Q 1356 3103 1142 2972 
Q 928 2841 928 2578 
Q 928 2378 1081 2264 
Q 1234 2150 1697 2047 
L 1894 2003 
Q 2506 1872 2764 1633 
Q 3022 1394 3022 966 
Q 3022 478 2636 193 
Q 2250 -91 1575 -91 
Q 1294 -91 989 -36 
Q 684 19 347 128 
L 347 722 
Q 666 556 975 473 
Q 1284 391 1588 391 
Q 1994 391 2212 530 
Q 2431 669 2431 922 
Q 2431 1156 2273 1281 
Q 2116 1406 1581 1522 
L 1381 1569 
Q 847 1681 609 1914 
Q 372 2147 372 2553 
Q 372 3047 722 3315 
Q 1072 3584 1716 3584 
Q 2034 3584 2315 3537 
Q 2597 3491 2834 3397 
z
" transform="scale(0.015625)"/>
      </defs>
      <use xlink:href="#DejaVuSans-53"/>
      <use xlink:href="#DejaVuSans-50" x="63.476562"/>
      <use xlink:href="#DejaVuSans-45" x="123.779297"/>
      <use xlink:href="#DejaVuSans-49" x="186.962891"/>
      <use xlink:href="#DejaVuSans-20" x="216.455078"/>
      <use xlink:href="#DejaVuSans-41" x="248.242188"/>
      <use xlink:href="#DejaVuSans-63" x="314.900391"/>
      <use xlink:href="#DejaVuSans-63" x="369.880859"/>
      <use xlink:href="#DejaVuSans-75" x="424.861328"/>
      <use xlink:href="#DejaVuSans-6d" x="488.240234"/>
      <use xlink:href="#DejaVuSans-75" x="585.652344"/>
      <use xlink:href="#DejaVuSans-6c" x="649.03125"/>
      <use xlink:href="#DejaVuSans-61" x="676.814453"/>
      <use xlink:href="#DejaVuSans-74" x="738.09375"/>
      <use xlink:href="#DejaVuSans-69" x="777.302734"/>
      <use xlink:href="#DejaVuSans-6f" x="805.085938"/>
      <use xlink:href="#DejaVuSans-6e" x="866.267578"/>
      <use xlink:href="#DejaVuSans-20" x="929.646484"/>
      <use xlink:href="#DejaVuSans-50" x="961.433594"/>
      <use xlink:href="#DejaVuSans-65" x="1018.111328"/>
      <use xlink:href="#DejaVuSans-72" x="1079.634766"/>
      <use xlink:href="#DejaVuSans-69" x="1120.748047"/>
      <use xlink:href="#DejaVuSans-6f" x="1148.53125"/>
      <use xlink:href="#DejaVuSans-64" x="1209.712891"/>
      <use xlink:href="#DejaVuSans-20" x="1273.189453"/>
      <use xlink:href="#DejaVuSans-28" x="1304.976562"/>
      <use xlink:href="#DejaVuSans-6d" x="1343.990234"/>
      <use xlink:href="#DejaVuSans-6f" x="1441.402344"/>
      <use xlink:href="#DejaVuSans-6e" x="1502.583984"/>
      <use xlink:href="#DejaVuSans-74" x="1565.962891"/>
      <use xlink:href="#DejaVuSans-68" x="1605.171875"/>
      <use xlink:href="#DejaVuSans-73" x="1668.550781"/>
      <use xlink:href="#DejaVuSans-29" x="1720.650391"/>
     </g>
    </g>
   </g>
   <g id="patch_3">
    <path d="M 44.57 318.04 
L 44.57 10.8 
" style="fill: none; stroke: #000000; stroke-width: 0.8; stroke-linejoin: miter; stroke-linecap: square"/>
   </g>
   <g id="patch_4">
    <path d="M 421.2 318.04 
L 421.2 10.8 
" style="fill: none; stroke: #000000; stroke-width: 0.8; stroke-linejoin: miter; stroke-linecap: square"/>
   </g>
   <g id="patch_5">
    <path d="M 44.57 318.04 
L 421.2 318.04 
" style="fill: none; stroke: #000000; stroke-width: 0.8; stroke-linejoin: miter; stroke-linecap: square"/>
   </g>
   <g id="patch_6">
    <path d="M 44.57 10.8 
L 421.2 10.8 
" style="fill: none; stroke: #000000; stroke-width: 0.8; stroke-linejoin: miter; stroke-linecap: square"/>
   </g>
   <g id="legend_1">
    <g id="patch_7">
     <path d="M 334.0875 121.546875 
L 414.2 121.546875 
Q 416.2 121.546875 416.2 119.546875 
L 416.2 17.8 
Q 416.2 15.8 414.2 15.8 
L 334.0875 15.8 
Q 332.0875 15.8 332.0875 17.8 
L 332.0875 119.546875 
Q 332.0875 121.546875 334.0875 121.546875 
z
" style="fill: #ffffff; opacity: 0.8; stroke: #cccccc; stroke-linejoin: miter"/>
    </g>
    <g id="text_16">
     <!-- Aquifer -->
     <g transform="translate(356.186719 27.398438) scale(0.1 -0.1)">
      <defs>
       <path id="DejaVuSans-71" d="M 947 1747 
Q 947 1113 1208 752 
Q 1469 391 1925 391 
Q 2381 391 2643 752 
Q 2906 1113 2906 1747 
Q 2906 2381 2643 2742 
Q 2381 3103 1925 3103 
Q 1469 3103 1208 2742 
Q 947 2381 947 1747 
z
M 2906 525 
Q 2725 213 2448 61 
Q 2172 -91 1784 -91 
Q 1150 -91 751 415 
Q 353 922 353 1747 
Q 353 2572 751 3078 
Q 1150 3584 1784 3584 
Q 2172 3584 2448 3432 
Q 2725 3281 2906 2969 
L 2906 3500 
L 3481 3500 
L 3481 -1331 
L 2906 -1331 
L 2906 525 
z
" transform="scale(0.015625)"/>
      </defs>
      <use xlink:href="#DejaVuSans-41"/>
      <use xlink:href="#DejaVuSans-71" x="66.658203"/>
      <use xlink:href="#DejaVuSans-75" x="130.134766"/>
      <use xlink:href="#DejaVuSans-69" x="193.513672"/>
      <use xlink:href="#DejaVuSans-66" x="221.296875"/>
      <use xlink:href="#DejaVuSans-65" x="256.501953"/>
      <use xlink:href="#DejaVuSans-72" x="318.025391"/>
     </g>
    </g>
    <g id="line2d_27">
     <defs>
      <path id="m48e2021125" d="M 0 3 
C 0.795609 3 1.55874 2.683901 2.12132 2.12132 
C 2.683901 1.55874 3 0.795609 3 0 
C 3 -0.795609 2.683901 -1.55874 2.12132 -2.12132 
C 1.55874 -2.683901 0.795609 -3 0 -3 
C -0.795609 -3 -1.55874 -2.683901 -2.12132 -2.12132 
C -2.683901 -1.55874 -3 -0.795609 -3 0 
C -3 0.795609 -2.683901 1.55874 -2.12132 2.12132 
C -1.55874 2.683901 -0.795609 3 0 3 
z
" style="stroke: #ffffff; stroke-width: 0.48"/>
     </defs>
     <g>
      <use xlink:href="#m48e2021125" x="346.0875" y="38.576563" style="fill: #1f77b4; stroke: #ffffff; stroke-width: 0.48"/>
     </g>
    </g>
    <g id="text_17">
     <!-- 110ALVM -->
     <g transform="translate(364.0875 42.076563) scale(0.1 -0.1)">
      <defs>
       <path id="DejaVuSans-4c" d="M 628 4666 
L 1259 4666 
L 1259 531 
L 3531 531 
L 3531 0 
L 628 0 
L 628 4666 
z
" transform="scale(0.015625)"/>
       <path id="DejaVuSans-56" d="M 1831 0 
L 50 4666 
L 709 4666 
L 2188 738 
L 3669 4666 
L 4325 4666 
L 2547 0 
L 1831 0 
z
" transform="scale(0.015625)"/>
       <path id="DejaVuSans-4d" d="M 628 4666 
L 1569 4666 
L 2759 1491 
L 3956 4666 
L 4897 4666 
L 4897 0 
L 4281 0 
L 4281 4097 
L 3078 897 
L 2444 897 
L 1241 4097 
L 1241 0 
L 628 0 
L 628 4666 
z
" transform="scale(0.015625)"/>
      </defs>
      <use xlink:href="#DejaVuSans-31"/>
      <use xlink:href="#DejaVuSans-31" x="63.623047"/>
      <use xlink:href="#DejaVuSans-30" x="127.246094"/>
      <use xlink:href="#DejaVuSans-41" x="190.869141"/>
      <use xlink:href="#DejaVuSans-4c" x="259.277344"/>
      <use xlink:href="#DejaVuSans-56" x="303.990234"/>
      <use xlink:href="#DejaVuSans-4d" x="372.398438"/>
     </g>
    </g>
    <g id="line2d_28">
     <defs>
      <path id="m45e7bf9556" d="M -1.5 3 
L 0 1.5 
L 1.5 3 
L 3 1.5 
L 1.5 0 
L 3 -1.5 
L 1.5 -3 
L 0 -1.5 
L -1.5 -3 
L -3 -1.5 
L -1.5 0 
L -3 1.5 
z
" style="stroke: #ffffff; stroke-width: 0.48; stroke-linejoin: miter"/>
     </defs>
     <g>
      <use xlink:href="#m45e7bf9556" x="346.0875" y="53.254688" style="fill: #ff7f0e; stroke: #ffffff; stroke-width: 0.48; stroke-linejoin: miter"/>
     </g>
    </g>
    <g id="text_18">
     <!-- 110SNGR -->
     <g transform="translate(364.0875 56.754688) scale(0.1 -0.1)">
      <defs>
       <path id="DejaVuSans-4e" d="M 628 4666 
L 1478 4666 
L 3547 763 
L 3547 4666 
L 4159 4666 
L 4159 0 
L 3309 0 
L 1241 3903 
L 1241 0 
L 628 0 
L 628 4666 
z
" transform="scale(0.015625)"/>
       <path id="DejaVuSans-47" d="M 3809 666 
L 3809 1919 
L 2778 1919 
L 2778 2438 
L 4434 2438 
L 4434 434 
Q 4069 175 3628 42 
Q 3188 -91 2688 -91 
Q 1594 -91 976 548 
Q 359 1188 359 2328 
Q 359 3472 976 4111 
Q 1594 4750 2688 4750 
Q 3144 4750 3555 4637 
Q 3966 4525 4313 4306 
L 4313 3634 
Q 3963 3931 3569 4081 
Q 3175 4231 2741 4231 
Q 1884 4231 1454 3753 
Q 1025 3275 1025 2328 
Q 1025 1384 1454 906 
Q 1884 428 2741 428 
Q 3075 428 3337 486 
Q 3600 544 3809 666 
z
" transform="scale(0.015625)"/>
       <path id="DejaVuSans-52" d="M 2841 2188 
Q 3044 2119 3236 1894 
Q 3428 1669 3622 1275 
L 4263 0 
L 3584 0 
L 2988 1197 
Q 2756 1666 2539 1819 
Q 2322 1972 1947 1972 
L 1259 1972 
L 1259 0 
L 628 0 
L 628 4666 
L 2053 4666 
Q 2853 4666 3247 4331 
Q 3641 3997 3641 3322 
Q 3641 2881 3436 2590 
Q 3231 2300 2841 2188 
z
M 1259 4147 
L 1259 2491 
L 2053 2491 
Q 2509 2491 2742 2702 
Q 2975 2913 2975 3322 
Q 2975 3731 2742 3939 
Q 2509 4147 2053 4147 
L 1259 4147 
z
" transform="scale(0.015625)"/>
      </defs>
      <use xlink:href="#DejaVuSans-31"/>
      <use xlink:href="#DejaVuSans-31" x="63.623047"/>
      <use xlink:href="#DejaVuSans-30" x="127.246094"/>
      <use xlink:href="#DejaVuSans-53" x="190.869141"/>
      <use xlink:href="#DejaVuSans-4e" x="254.345703"/>
      <use xlink:href="#DejaVuSans-47" x="329.150391"/>
      <use xlink:href="#DejaVuSans-52" x="406.640625"/>
     </g>
    </g>
    <g id="line2d_29">
     <defs>
      <path id="m7d17835351" d="M -2.12132 -2.12132 
L -2.12132 2.12132 
L 2.12132 2.12132 
L 2.12132 -2.12132 
z
" style="stroke: #ffffff; stroke-width: 0.48; stroke-linejoin: miter"/>
     </defs>
     <g>
      <use xlink:href="#m7d17835351" x="346.0875" y="67.932813" style="fill: #2ca02c; stroke: #ffffff; stroke-width: 0.48; stroke-linejoin: miter"/>
     </g>
    </g>
    <g id="text_19">
     <!-- 111SNGR -->
     <g transform="translate(364.0875 71.432813) scale(0.1 -0.1)">
      <use xlink:href="#DejaVuSans-31"/>
      <use xlink:href="#DejaVuSans-31" x="63.623047"/>
      <use xlink:href="#DejaVuSans-31" x="127.246094"/>
      <use xlink:href="#DejaVuSans-53" x="190.869141"/>
      <use xlink:href="#DejaVuSans-4e" x="254.345703"/>
      <use xlink:href="#DejaVuSans-47" x="329.150391"/>
      <use xlink:href="#DejaVuSans-52" x="406.640625"/>
     </g>
    </g>
    <g id="line2d_30">
     <defs>
      <path id="m3156fe324e" d="M -1 3 
L 1 3 
L 1 1 
L 3 1 
L 3 -1 
L 1 -1 
L 1 -3 
L -1 -3 
L -1 -1 
L -3 -1 
L -3 1 
L -1 1 
z
" style="stroke: #ffffff; stroke-width: 0.48; stroke-linejoin: miter"/>
     </defs>
     <g>
      <use xlink:href="#m3156fe324e" x="346.0875" y="82.610938" style="fill: #d62728; stroke: #ffffff; stroke-width: 0.48; stroke-linejoin: miter"/>
     </g>
    </g>
    <g id="text_20">
     <!-- 112SNGR -->
     <g transform="translate(364.0875 86.110938) scale(0.1 -0.1)">
      <use xlink:href="#DejaVuSans-31"/>
      <use xlink:href="#DejaVuSans-31" x="63.623047"/>
      <use xlink:href="#DejaVuSans-32" x="127.246094"/>
      <use xlink:href="#DejaVuSans-53" x="190.869141"/>
      <use xlink:href="#DejaVuSans-4e" x="254.345703"/>
      <use xlink:href="#DejaVuSans-47" x="329.150391"/>
      <use xlink:href="#DejaVuSans-52" x="406.640625"/>
     </g>
    </g>
    <g id="line2d_31">
     <defs>
      <path id="m49308c16fa" d="M 0 -3 
L -3 -0 
L -0 3 
L 3 0 
z
" style="stroke: #ffffff; stroke-width: 0.48; stroke-linejoin: miter"/>
     </defs>
     <g>
      <use xlink:href="#m49308c16fa" x="346.0875" y="97.289062" style="fill: #9467bd; stroke: #ffffff; stroke-width: 0.48; stroke-linejoin: miter"/>
     </g>
    </g>
    <g id="text_21">
     <!-- 120SDMS -->
     <g transform="translate(364.0875 100.789062) scale(0.1 -0.1)">
      <use xlink:href="#DejaVuSans-31"/>
      <use xlink:href="#DejaVuSans-32" x="63.623047"/>
      <use xlink:href="#DejaVuSans-30" x="127.246094"/>
      <use xlink:href="#DejaVuSans-53" x="190.869141"/>
      <use xlink:href="#DejaVuSans-44" x="254.345703"/>
      <use xlink:href="#DejaVuSans-4d" x="331.347656"/>
      <use xlink:href="#DejaVuSans-53" x="417.626953"/>
     </g>
    </g>
    <g id="line2d_32">
     <defs>
      <path id="mb8e5b3ce9d" d="M 0 -3 
L -1.06066 -1.06066 
L -3 -0 
L -1.06066 1.06066 
L -0 3 
L 1.06066 1.06066 
L 3 0 
L 1.06066 -1.06066 
z
" style="stroke: #ffffff; stroke-width: 0.48; stroke-linejoin: bevel"/>
     </defs>
     <g>
      <use xlink:href="#mb8e5b3ce9d" x="346.0875" y="111.967188" style="fill: #8c564b; stroke: #ffffff; stroke-width: 0.48; stroke-linejoin: bevel"/>
     </g>
    </g>
    <g id="text_22">
     <!-- 120SNGR -->
     <g transform="translate(364.0875 115.467188) scale(0.1 -0.1)">
      <use xlink:href="#DejaVuSans-31"/>
      <use xlink:href="#DejaVuSans-32" x="63.623047"/>
      <use xlink:href="#DejaVuSans-30" x="127.246094"/>
      <use xlink:href="#DejaVuSans-53" x="190.869141"/>
      <use xlink:href="#DejaVuSans-4e" x="254.345703"/>
      <use xlink:href="#DejaVuSans-47" x="329.150391"/>
      <use xlink:href="#DejaVuSans-52" x="406.640625"/>
     </g>
    </g>
   </g>
   <g id="PathCollection_1">
    <path d="M 233.736719 302.229388 
C 234.532328 302.229388 235.295458 301.913289 235.858039 301.350708 
C 236.42062 300.788127 236.736719 300.024997 236.736719 299.229388 
C 236.736719 298.433778 236.42062 297.670648 235.858039 297.108067 
C 235.295458 296.545487 234.532328 296.229388 233.736719 296.229388 
C 232.941109 296.229388 232.177979 296.545487 231.615398 297.108067 
C 231.052818 297.670648 230.736719 298.433778 230.736719 299.229388 
C 230.736719 300.024997 231.052818 300.788127 231.615398 301.350708 
C 232.177979 301.913289 232.941109 302.229388 233.736719 302.229388 
z
" clip-path="url(#pc27355db75)" style="fill: #1f77b4; stroke: #ffffff; stroke-width: 0.48"/>
    <path d="M 83.242731 32.610612 
L 84.742731 31.110612 
L 86.242731 32.610612 
L 87.742731 31.110612 
L 86.242731 29.610612 
L 87.742731 28.110612 
L 86.242731 26.610612 
L 84.742731 28.110612 
L 83.242731 26.610612 
L 81.742731 28.110612 
L 83.242731 29.610612 
L 81.742731 31.110612 
z
" clip-path="url(#pc27355db75)" style="fill: #ff7f0e; stroke: #ffffff; stroke-width: 0.48"/>
    <path d="M 114.131728 158.014694 
L 115.631728 156.514694 
L 117.131728 158.014694 
L 118.631728 156.514694 
L 117.131728 155.014694 
L 118.631728 153.514694 
L 117.131728 152.014694 
L 115.631728 153.514694 
L 114.131728 152.014694 
L 112.631728 153.514694 
L 114.131728 155.014694 
L 112.631728 156.514694 
z
" clip-path="url(#pc27355db75)" style="fill: #ff7f0e; stroke: #ffffff; stroke-width: 0.48"/>
    <path d="M 60.189545 270.878367 
L 61.689545 269.378367 
L 63.189545 270.878367 
L 64.689545 269.378367 
L 63.189545 267.878367 
L 64.689545 266.378367 
L 63.189545 264.878367 
L 61.689545 266.378367 
L 60.189545 264.878367 
L 58.689545 266.378367 
L 60.189545 267.878367 
L 58.689545 269.378367 
z
" clip-path="url(#pc27355db75)" style="fill: #ff7f0e; stroke: #ffffff; stroke-width: 0.48"/>
    <path d="M 81.766419 264.608163 
L 83.266419 263.108163 
L 84.766419 264.608163 
L 86.266419 263.108163 
L 84.766419 261.608163 
L 86.266419 260.108163 
L 84.766419 258.608163 
L 83.266419 260.108163 
L 81.766419 258.608163 
L 80.266419 260.108163 
L 81.766419 261.608163 
L 80.266419 263.108163 
z
" clip-path="url(#pc27355db75)" style="fill: #ff7f0e; stroke: #ffffff; stroke-width: 0.48"/>
    <path d="M 95.96173 277.148571 
L 97.46173 275.648571 
L 98.96173 277.148571 
L 100.46173 275.648571 
L 98.96173 274.148571 
L 100.46173 272.648571 
L 98.96173 271.148571 
L 97.46173 272.648571 
L 95.96173 271.148571 
L 94.46173 272.648571 
L 95.96173 274.148571 
L 94.46173 275.648571 
z
" clip-path="url(#pc27355db75)" style="fill: #ff7f0e; stroke: #ffffff; stroke-width: 0.48"/>
    <path d="M 159.556725 26.340408 
L 161.056725 24.840408 
L 162.556725 26.340408 
L 164.056725 24.840408 
L 162.556725 23.340408 
L 164.056725 21.840408 
L 162.556725 20.340408 
L 161.056725 21.840408 
L 159.556725 20.340408 
L 158.056725 21.840408 
L 159.556725 23.340408 
L 158.056725 24.840408 
z
" clip-path="url(#pc27355db75)" style="fill: #ff7f0e; stroke: #ffffff; stroke-width: 0.48"/>
    <path d="M 155.582038 239.527347 
L 157.082038 238.027347 
L 158.582038 239.527347 
L 160.082038 238.027347 
L 158.582038 236.527347 
L 160.082038 235.027347 
L 158.582038 233.527347 
L 157.082038 235.027347 
L 155.582038 233.527347 
L 154.082038 235.027347 
L 155.582038 236.527347 
L 154.082038 238.027347 
z
" clip-path="url(#pc27355db75)" style="fill: #ff7f0e; stroke: #ffffff; stroke-width: 0.48"/>
    <path d="M 136.222906 14.948884 
L 136.222906 19.191524 
L 140.465547 19.191524 
L 140.465547 14.948884 
z
" clip-path="url(#pc27355db75)" style="fill: #2ca02c; stroke: #ffffff; stroke-width: 0.48"/>
    <path d="M 101.018534 14.948884 
L 101.018534 19.191524 
L 105.261175 19.191524 
L 105.261175 14.948884 
z
" clip-path="url(#pc27355db75)" style="fill: #2ca02c; stroke: #ffffff; stroke-width: 0.48"/>
    <path d="M 88.52666 240.676231 
L 88.52666 244.918871 
L 92.769301 244.918871 
L 92.769301 240.676231 
z
" clip-path="url(#pc27355db75)" style="fill: #2ca02c; stroke: #ffffff; stroke-width: 0.48"/>
    <path d="M 90.79791 297.108067 
L 90.79791 301.350708 
L 95.040551 301.350708 
L 95.040551 297.108067 
z
" clip-path="url(#pc27355db75)" style="fill: #2ca02c; stroke: #ffffff; stroke-width: 0.48"/>
    <path d="M 204.360401 253.216639 
L 204.360401 257.45928 
L 208.603041 257.45928 
L 208.603041 253.216639 
z
" clip-path="url(#pc27355db75)" style="fill: #2ca02c; stroke: #ffffff; stroke-width: 0.48"/>
    <path d="M 113.496104 20.070204 
L 115.496104 20.070204 
L 115.496104 18.070204 
L 117.496104 18.070204 
L 117.496104 16.070204 
L 115.496104 16.070204 
L 115.496104 14.070204 
L 113.496104 14.070204 
L 113.496104 16.070204 
L 111.496104 16.070204 
L 111.496104 18.070204 
L 113.496104 18.070204 
z
" clip-path="url(#pc27355db75)" style="fill: #d62728; stroke: #ffffff; stroke-width: 0.48"/>
    <path d="M 173.548599 45.421224 
L 170.548599 48.421224 
L 173.548599 51.421224 
L 176.548599 48.421224 
z
" clip-path="url(#pc27355db75)" style="fill: #9467bd; stroke: #ffffff; stroke-width: 0.48"/>
    <path d="M 228.058594 289.959184 
L 225.058594 292.959184 
L 228.058594 295.959184 
L 231.058594 292.959184 
z
" clip-path="url(#pc27355db75)" style="fill: #9467bd; stroke: #ffffff; stroke-width: 0.48"/>
    <path d="M 182.633598 39.15102 
L 179.633598 42.15102 
L 182.633598 45.15102 
L 185.633598 42.15102 
z
" clip-path="url(#pc27355db75)" style="fill: #9467bd; stroke: #ffffff; stroke-width: 0.48"/>
    <path d="M 387.046081 189.635918 
L 384.046081 192.635918 
L 387.046081 195.635918 
L 390.046081 192.635918 
z
" clip-path="url(#pc27355db75)" style="fill: #9467bd; stroke: #ffffff; stroke-width: 0.48"/>
    <path d="M 226.922969 20.340408 
L 223.922969 23.340408 
L 226.922969 26.340408 
L 229.922969 23.340408 
z
" clip-path="url(#pc27355db75)" style="fill: #9467bd; stroke: #ffffff; stroke-width: 0.48"/>
    <path d="M 223.516095 246.067755 
L 220.516095 249.067755 
L 223.516095 252.067755 
L 226.516095 249.067755 
z
" clip-path="url(#pc27355db75)" style="fill: #9467bd; stroke: #ffffff; stroke-width: 0.48"/>
    <path d="M 256.449217 20.340408 
L 253.449217 23.340408 
L 256.449217 26.340408 
L 259.449217 23.340408 
z
" clip-path="url(#pc27355db75)" style="fill: #9467bd; stroke: #ffffff; stroke-width: 0.48"/>
    <path d="M 255.313592 277.418776 
L 254.252932 279.358115 
L 252.313592 280.418776 
L 254.252932 281.479436 
L 255.313592 283.418776 
L 256.374252 281.479436 
L 258.313592 280.418776 
L 256.374252 279.358115 
z
" clip-path="url(#pc27355db75)" style="fill: #8c564b; stroke: #ffffff; stroke-width: 0.48"/>
    <path d="M 404.080455 296.229388 
L 403.019794 298.168728 
L 401.080455 299.229388 
L 403.019794 300.290048 
L 404.080455 302.229388 
L 405.141115 300.290048 
L 407.080455 299.229388 
L 405.141115 298.168728 
z
" clip-path="url(#pc27355db75)" style="fill: #8c564b; stroke: #ffffff; stroke-width: 0.48"/>
    <path d="M 179.226723 277.418776 
L 178.166063 279.358115 
L 176.226723 280.418776 
L 178.166063 281.479436 
L 179.226723 283.418776 
L 180.287383 281.479436 
L 182.226723 280.418776 
L 180.287383 279.358115 
z
" clip-path="url(#pc27355db75)" style="fill: #8c564b; stroke: #ffffff; stroke-width: 0.48"/>
    <path d="M 211.024221 32.880816 
L 209.96356 34.820156 
L 208.024221 35.880816 
L 209.96356 36.941476 
L 211.024221 38.880816 
L 212.084881 36.941476 
L 214.024221 35.880816 
L 212.084881 34.820156 
z
" clip-path="url(#pc27355db75)" style="fill: #8c564b; stroke: #ffffff; stroke-width: 0.48"/>
   </g>
   <g id="line2d_33"/>
   <g id="line2d_34"/>
   <g id="line2d_35"/>
   <g id="line2d_36"/>
   <g id="line2d_37"/>
   <g id="line2d_38"/>
  </g>
 </g>
 <defs>
  <clipPath id="pc27355db75">
   <rect x="44.57" y="10.8" width="376.63" height="307.24"/>
  </clipPath>
 </defs>
</svg>
