<?xml version="1.0" encoding="utf-8" standalone="no"?>
<!DOCTYPE svg PUBLIC "-//W3C//DTD SVG 1.1//EN"
  "http://www.w3.org/Graphics/SVG/1.1/DTD/svg11.dtd">
<svg xmlns:xlink="http://www.w3.org/1999/xlink" width="1080pt" height="360pt" viewBox="0 0 1080 360" xmlns="http://www.w3.org/2000/svg" version="1.1">
 <metadata>
  <rdf:RDF xmlns:dc="http://purl.org/dc/elements/1.1/" xmlns:cc="http://creativecommons.org/ns#" xmlns:rdf="http://www.w3.org/1999/02/22-rdf-syntax-ns#">
   <cc:Work>
    <dc:type rdf:resource="http://purl.org/dc/dcmitype/StillImage"/>
    <dc:date>2024-01-23T18:50:24.374290</dc:date>
    <dc:format>image/svg+xml</dc:format>
    <dc:creator>
     <cc:Agent>
      <dc:title>Matplotlib v3.8.2, https://matplotlib.org/</dc:title>
     </cc:Agent>
    </dc:creator>
   </cc:Work>
  </rdf:RDF>
 </metadata>
 <defs>
  <style type="text/css">*{stroke-linejoin: round; stroke-linecap: butt}</style>
 </defs>
 <g id="figure_1">
  <g id="patch_1">
   <path d="M 0 360 
L 1080 360 
L 1080 0 
L 0 0 
z
" style="fill: #ffffff"/>
  </g>
  <g id="axes_1">
   <g id="patch_2">
    <path d="M 135 320.4 
L 972 320.4 
L 972 43.2 
L 135 43.2 
z
" style="fill: #ffffff"/>
   </g>
   <g id="PolyCollection_1"/>
   <g id="matplotlib.axis_1">
    <g id="xtick_1">
     <g id="line2d_1">
      <defs>
       <path id="m0ad5e82598" d="M 0 0 
L 0 3.5 
" style="stroke: #000000; stroke-width: 0.8"/>
      </defs>
      <g>
       <use xlink:href="#m0ad5e82598" x="160.660749" y="320.4" style="stroke: #000000; stroke-width: 0.8"/>
      </g>
     </g>
     <g id="text_1">
      <!-- 1992 -->
      <g transform="translate(147.935749 334.998438) scale(0.1 -0.1)">
       <defs>
        <path id="DejaVuSans-31" d="M 794 531 
L 1825 531 
L 1825 4091 
L 703 3866 
L 703 4441 
L 1819 4666 
L 2450 4666 
L 2450 531 
L 3481 531 
L 3481 0 
L 794 0 
L 794 531 
z
" transform="scale(0.015625)"/>
        <path id="DejaVuSans-39" d="M 703 97 
L 703 672 
Q 941 559 1184 500 
Q 1428 441 1663 441 
Q 2288 441 2617 861 
Q 2947 1281 2994 2138 
Q 2813 1869 2534 1725 
Q 2256 1581 1919 1581 
Q 1219 1581 811 2004 
Q 403 2428 403 3163 
Q 403 3881 828 4315 
Q 1253 4750 1959 4750 
Q 2769 4750 3195 4129 
Q 3622 3509 3622 2328 
Q 3622 1225 3098 567 
Q 2575 -91 1691 -91 
Q 1453 -91 1209 -44 
Q 966 3 703 97 
z
M 1959 2075 
Q 2384 2075 2632 2365 
Q 2881 2656 2881 3163 
Q 2881 3666 2632 3958 
Q 2384 4250 1959 4250 
Q 1534 4250 1286 3958 
Q 1038 3666 1038 3163 
Q 1038 2656 1286 2365 
Q 1534 2075 1959 2075 
z
" transform="scale(0.015625)"/>
        <path id="DejaVuSans-32" d="M 1228 531 
L 3431 531 
L 3431 0 
L 469 0 
L 469 531 
Q 828 903 1448 1529 
Q 2069 2156 2228 2338 
Q 2531 2678 2651 2914 
Q 2772 3150 2772 3378 
Q 2772 3750 2511 3984 
Q 2250 4219 1831 4219 
Q 1534 4219 1204 4116 
Q 875 4013 500 3803 
L 500 4441 
Q 881 4594 1212 4672 
Q 1544 4750 1819 4750 
Q 2544 4750 2975 4387 
Q 3406 4025 3406 3419 
Q 3406 3131 3298 2873 
Q 3191 2616 2906 2266 
Q 2828 2175 2409 1742 
Q 1991 1309 1228 531 
z
" transform="scale(0.015625)"/>
       </defs>
       <use xlink:href="#DejaVuSans-31"/>
       <use xlink:href="#DejaVuSans-39" x="63.623047"/>
       <use xlink:href="#DejaVuSans-39" x="127.246094"/>
       <use xlink:href="#DejaVuSans-32" x="190.869141"/>
      </g>
     </g>
    </g>
    <g id="xtick_2">
     <g id="line2d_2">
      <g>
       <use xlink:href="#m0ad5e82598" x="272.572252" y="320.4" style="stroke: #000000; stroke-width: 0.8"/>
      </g>
     </g>
     <g id="text_2">
      <!-- 1996 -->
      <g transform="translate(259.847252 334.998438) scale(0.1 -0.1)">
       <defs>
        <path id="DejaVuSans-36" d="M 2113 2584 
Q 1688 2584 1439 2293 
Q 1191 2003 1191 1497 
Q 1191 994 1439 701 
Q 1688 409 2113 409 
Q 2538 409 2786 701 
Q 3034 994 3034 1497 
Q 3034 2003 2786 2293 
Q 2538 2584 2113 2584 
z
M 3366 4563 
L 3366 3988 
Q 3128 4100 2886 4159 
Q 2644 4219 2406 4219 
Q 1781 4219 1451 3797 
Q 1122 3375 1075 2522 
Q 1259 2794 1537 2939 
Q 1816 3084 2150 3084 
Q 2853 3084 3261 2657 
Q 3669 2231 3669 1497 
Q 3669 778 3244 343 
Q 2819 -91 2113 -91 
Q 1303 -91 875 529 
Q 447 1150 447 2328 
Q 447 3434 972 4092 
Q 1497 4750 2381 4750 
Q 2619 4750 2861 4703 
Q 3103 4656 3366 4563 
z
" transform="scale(0.015625)"/>
       </defs>
       <use xlink:href="#DejaVuSans-31"/>
       <use xlink:href="#DejaVuSans-39" x="63.623047"/>
       <use xlink:href="#DejaVuSans-39" x="127.246094"/>
       <use xlink:href="#DejaVuSans-36" x="190.869141"/>
      </g>
     </g>
    </g>
    <g id="xtick_3">
     <g id="line2d_3">
      <g>
       <use xlink:href="#m0ad5e82598" x="384.483756" y="320.4" style="stroke: #000000; stroke-width: 0.8"/>
      </g>
     </g>
     <g id="text_3">
      <!-- 2000 -->
      <g transform="translate(371.758756 334.998438) scale(0.1 -0.1)">
       <defs>
        <path id="DejaVuSans-30" d="M 2034 4250 
Q 1547 4250 1301 3770 
Q 1056 3291 1056 2328 
Q 1056 1369 1301 889 
Q 1547 409 2034 409 
Q 2525 409 2770 889 
Q 3016 1369 3016 2328 
Q 3016 3291 2770 3770 
Q 2525 4250 2034 4250 
z
M 2034 4750 
Q 2819 4750 3233 4129 
Q 3647 3509 3647 2328 
Q 3647 1150 3233 529 
Q 2819 -91 2034 -91 
Q 1250 -91 836 529 
Q 422 1150 422 2328 
Q 422 3509 836 4129 
Q 1250 4750 2034 4750 
z
" transform="scale(0.015625)"/>
       </defs>
       <use xlink:href="#DejaVuSans-32"/>
       <use xlink:href="#DejaVuSans-30" x="63.623047"/>
       <use xlink:href="#DejaVuSans-30" x="127.246094"/>
       <use xlink:href="#DejaVuSans-30" x="190.869141"/>
      </g>
     </g>
    </g>
    <g id="xtick_4">
     <g id="line2d_4">
      <g>
       <use xlink:href="#m0ad5e82598" x="496.395259" y="320.4" style="stroke: #000000; stroke-width: 0.8"/>
      </g>
     </g>
     <g id="text_4">
      <!-- 2004 -->
      <g transform="translate(483.670259 334.998438) scale(0.1 -0.1)">
       <defs>
        <path id="DejaVuSans-34" d="M 2419 4116 
L 825 1625 
L 2419 1625 
L 2419 4116 
z
M 2253 4666 
L 3047 4666 
L 3047 1625 
L 3713 1625 
L 3713 1100 
L 3047 1100 
L 3047 0 
L 2419 0 
L 2419 1100 
L 313 1100 
L 313 1709 
L 2253 4666 
z
" transform="scale(0.015625)"/>
       </defs>
       <use xlink:href="#DejaVuSans-32"/>
       <use xlink:href="#DejaVuSans-30" x="63.623047"/>
       <use xlink:href="#DejaVuSans-30" x="127.246094"/>
       <use xlink:href="#DejaVuSans-34" x="190.869141"/>
      </g>
     </g>
    </g>
    <g id="xtick_5">
     <g id="line2d_5">
      <g>
       <use xlink:href="#m0ad5e82598" x="608.306763" y="320.4" style="stroke: #000000; stroke-width: 0.8"/>
      </g>
     </g>
     <g id="text_5">
      <!-- 2008 -->
      <g transform="translate(595.581763 334.998438) scale(0.1 -0.1)">
       <defs>
        <path id="DejaVuSans-38" d="M 2034 2216 
Q 1584 2216 1326 1975 
Q 1069 1734 1069 1313 
Q 1069 891 1326 650 
Q 1584 409 2034 409 
Q 2484 409 2743 651 
Q 3003 894 3003 1313 
Q 3003 1734 2745 1975 
Q 2488 2216 2034 2216 
z
M 1403 2484 
Q 997 2584 770 2862 
Q 544 3141 544 3541 
Q 544 4100 942 4425 
Q 1341 4750 2034 4750 
Q 2731 4750 3128 4425 
Q 3525 4100 3525 3541 
Q 3525 3141 3298 2862 
Q 3072 2584 2669 2484 
Q 3125 2378 3379 2068 
Q 3634 1759 3634 1313 
Q 3634 634 3220 271 
Q 2806 -91 2034 -91 
Q 1263 -91 848 271 
Q 434 634 434 1313 
Q 434 1759 690 2068 
Q 947 2378 1403 2484 
z
M 1172 3481 
Q 1172 3119 1398 2916 
Q 1625 2713 2034 2713 
Q 2441 2713 2670 2916 
Q 2900 3119 2900 3481 
Q 2900 3844 2670 4047 
Q 2441 4250 2034 4250 
Q 1625 4250 1398 4047 
Q 1172 3844 1172 3481 
z
" transform="scale(0.015625)"/>
       </defs>
       <use xlink:href="#DejaVuSans-32"/>
       <use xlink:href="#DejaVuSans-30" x="63.623047"/>
       <use xlink:href="#DejaVuSans-30" x="127.246094"/>
       <use xlink:href="#DejaVuSans-38" x="190.869141"/>
      </g>
     </g>
    </g>
    <g id="xtick_6">
     <g id="line2d_6">
      <g>
       <use xlink:href="#m0ad5e82598" x="720.218267" y="320.4" style="stroke: #000000; stroke-width: 0.8"/>
      </g>
     </g>
     <g id="text_6">
      <!-- 2012 -->
      <g transform="translate(707.493267 334.998438) scale(0.1 -0.1)">
       <use xlink:href="#DejaVuSans-32"/>
       <use xlink:href="#DejaVuSans-30" x="63.623047"/>
       <use xlink:href="#DejaVuSans-31" x="127.246094"/>
       <use xlink:href="#DejaVuSans-32" x="190.869141"/>
      </g>
     </g>
    </g>
    <g id="xtick_7">
     <g id="line2d_7">
      <g>
       <use xlink:href="#m0ad5e82598" x="832.12977" y="320.4" style="stroke: #000000; stroke-width: 0.8"/>
      </g>
     </g>
     <g id="text_7">
      <!-- 2016 -->
      <g transform="translate(819.40477 334.998438) scale(0.1 -0.1)">
       <use xlink:href="#DejaVuSans-32"/>
       <use xlink:href="#DejaVuSans-30" x="63.623047"/>
       <use xlink:href="#DejaVuSans-31" x="127.246094"/>
       <use xlink:href="#DejaVuSans-36" x="190.869141"/>
      </g>
     </g>
    </g>
    <g id="xtick_8">
     <g id="line2d_8">
      <g>
       <use xlink:href="#m0ad5e82598" x="944.041274" y="320.4" style="stroke: #000000; stroke-width: 0.8"/>
      </g>
     </g>
     <g id="text_8">
      <!-- 2020 -->
      <g transform="translate(931.316274 334.998438) scale(0.1 -0.1)">
       <use xlink:href="#DejaVuSans-32"/>
       <use xlink:href="#DejaVuSans-30" x="63.623047"/>
       <use xlink:href="#DejaVuSans-32" x="127.246094"/>
       <use xlink:href="#DejaVuSans-30" x="190.869141"/>
      </g>
     </g>
    </g>
   </g>
   <g id="matplotlib.axis_2">
    <g id="ytick_1">
     <g id="line2d_9">
      <defs>
       <path id="m4c370aa2eb" d="M 0 0 
L -3.5 0 
" style="stroke: #000000; stroke-width: 0.8"/>
      </defs>
      <g>
       <use xlink:href="#m4c370aa2eb" x="135" y="305.554292" style="stroke: #000000; stroke-width: 0.8"/>
      </g>
     </g>
     <g id="text_9">
      <!-- −2.0 -->
      <g transform="translate(103.717187 309.353511) scale(0.1 -0.1)">
       <defs>
        <path id="DejaVuSans-2212" d="M 678 2272 
L 4684 2272 
L 4684 1741 
L 678 1741 
L 678 2272 
z
" transform="scale(0.015625)"/>
        <path id="DejaVuSans-2e" d="M 684 794 
L 1344 794 
L 1344 0 
L 684 0 
L 684 794 
z
" transform="scale(0.015625)"/>
       </defs>
       <use xlink:href="#DejaVuSans-2212"/>
       <use xlink:href="#DejaVuSans-32" x="83.789062"/>
       <use xlink:href="#DejaVuSans-2e" x="147.412109"/>
       <use xlink:href="#DejaVuSans-30" x="179.199219"/>
      </g>
     </g>
    </g>
    <g id="ytick_2">
     <g id="line2d_10">
      <g>
       <use xlink:href="#m4c370aa2eb" x="135" y="274.595257" style="stroke: #000000; stroke-width: 0.8"/>
      </g>
     </g>
     <g id="text_10">
      <!-- −1.5 -->
      <g transform="translate(103.717187 278.394475) scale(0.1 -0.1)">
       <defs>
        <path id="DejaVuSans-35" d="M 691 4666 
L 3169 4666 
L 3169 4134 
L 1269 4134 
L 1269 2991 
Q 1406 3038 1543 3061 
Q 1681 3084 1819 3084 
Q 2600 3084 3056 2656 
Q 3513 2228 3513 1497 
Q 3513 744 3044 326 
Q 2575 -91 1722 -91 
Q 1428 -91 1123 -41 
Q 819 9 494 109 
L 494 744 
Q 775 591 1075 516 
Q 1375 441 1709 441 
Q 2250 441 2565 725 
Q 2881 1009 2881 1497 
Q 2881 1984 2565 2268 
Q 2250 2553 1709 2553 
Q 1456 2553 1204 2497 
Q 953 2441 691 2322 
L 691 4666 
z
" transform="scale(0.015625)"/>
       </defs>
       <use xlink:href="#DejaVuSans-2212"/>
       <use xlink:href="#DejaVuSans-31" x="83.789062"/>
       <use xlink:href="#DejaVuSans-2e" x="147.412109"/>
       <use xlink:href="#DejaVuSans-35" x="179.199219"/>
      </g>
     </g>
    </g>
    <g id="ytick_3">
     <g id="line2d_11">
      <g>
       <use xlink:href="#m4c370aa2eb" x="135" y="243.636221" style="stroke: #000000; stroke-width: 0.8"/>
      </g>
     </g>
     <g id="text_11">
      <!-- −1.0 -->
      <g transform="translate(103.717187 247.43544) scale(0.1 -0.1)">
       <use xlink:href="#DejaVuSans-2212"/>
       <use xlink:href="#DejaVuSans-31" x="83.789062"/>
       <use xlink:href="#DejaVuSans-2e" x="147.412109"/>
       <use xlink:href="#DejaVuSans-30" x="179.199219"/>
      </g>
     </g>
    </g>
    <g id="ytick_4">
     <g id="line2d_12">
      <g>
       <use xlink:href="#m4c370aa2eb" x="135" y="212.677185" style="stroke: #000000; stroke-width: 0.8"/>
      </g>
     </g>
     <g id="text_12">
      <!-- −0.5 -->
      <g transform="translate(103.717187 216.476404) scale(0.1 -0.1)">
       <use xlink:href="#DejaVuSans-2212"/>
       <use xlink:href="#DejaVuSans-30" x="83.789062"/>
       <use xlink:href="#DejaVuSans-2e" x="147.412109"/>
       <use xlink:href="#DejaVuSans-35" x="179.199219"/>
      </g>
     </g>
    </g>
    <g id="ytick_5">
     <g id="line2d_13">
      <g>
       <use xlink:href="#m4c370aa2eb" x="135" y="181.718149" style="stroke: #000000; stroke-width: 0.8"/>
      </g>
     </g>
     <g id="text_13">
      <!-- 0.0 -->
      <g transform="translate(112.096875 185.517368) scale(0.1 -0.1)">
       <use xlink:href="#DejaVuSans-30"/>
       <use xlink:href="#DejaVuSans-2e" x="63.623047"/>
       <use xlink:href="#DejaVuSans-30" x="95.410156"/>
      </g>
     </g>
    </g>
    <g id="ytick_6">
     <g id="line2d_14">
      <g>
       <use xlink:href="#m4c370aa2eb" x="135" y="150.759114" style="stroke: #000000; stroke-width: 0.8"/>
      </g>
     </g>
     <g id="text_14">
      <!-- 0.5 -->
      <g transform="translate(112.096875 154.558333) scale(0.1 -0.1)">
       <use xlink:href="#DejaVuSans-30"/>
       <use xlink:href="#DejaVuSans-2e" x="63.623047"/>
       <use xlink:href="#DejaVuSans-35" x="95.410156"/>
      </g>
     </g>
    </g>
    <g id="ytick_7">
     <g id="line2d_15">
      <g>
       <use xlink:href="#m4c370aa2eb" x="135" y="119.800078" style="stroke: #000000; stroke-width: 0.8"/>
      </g>
     </g>
     <g id="text_15">
      <!-- 1.0 -->
      <g transform="translate(112.096875 123.599297) scale(0.1 -0.1)">
       <use xlink:href="#DejaVuSans-31"/>
       <use xlink:href="#DejaVuSans-2e" x="63.623047"/>
       <use xlink:href="#DejaVuSans-30" x="95.410156"/>
      </g>
     </g>
    </g>
    <g id="ytick_8">
     <g id="line2d_16">
      <g>
       <use xlink:href="#m4c370aa2eb" x="135" y="88.841042" style="stroke: #000000; stroke-width: 0.8"/>
      </g>
     </g>
     <g id="text_16">
      <!-- 1.5 -->
      <g transform="translate(112.096875 92.640261) scale(0.1 -0.1)">
       <use xlink:href="#DejaVuSans-31"/>
       <use xlink:href="#DejaVuSans-2e" x="63.623047"/>
       <use xlink:href="#DejaVuSans-35" x="95.410156"/>
      </g>
     </g>
    </g>
    <g id="ytick_9">
     <g id="line2d_17">
      <g>
       <use xlink:href="#m4c370aa2eb" x="135" y="57.882007" style="stroke: #000000; stroke-width: 0.8"/>
      </g>
     </g>
     <g id="text_17">
      <!-- 2.0 -->
      <g transform="translate(112.096875 61.681225) scale(0.1 -0.1)">
       <use xlink:href="#DejaVuSans-32"/>
       <use xlink:href="#DejaVuSans-2e" x="63.623047"/>
       <use xlink:href="#DejaVuSans-30" x="95.410156"/>
      </g>
     </g>
    </g>
    <g id="text_18">
     <!-- SGI -->
     <g transform="translate(97.6375 190.323437) rotate(-90) scale(0.1 -0.1)">
      <defs>
       <path id="DejaVuSans-53" d="M 3425 4513 
L 3425 3897 
Q 3066 4069 2747 4153 
Q 2428 4238 2131 4238 
Q 1616 4238 1336 4038 
Q 1056 3838 1056 3469 
Q 1056 3159 1242 3001 
Q 1428 2844 1947 2747 
L 2328 2669 
Q 3034 2534 3370 2195 
Q 3706 1856 3706 1288 
Q 3706 609 3251 259 
Q 2797 -91 1919 -91 
Q 1588 -91 1214 -16 
Q 841 59 441 206 
L 441 856 
Q 825 641 1194 531 
Q 1563 422 1919 422 
Q 2459 422 2753 634 
Q 3047 847 3047 1241 
Q 3047 1584 2836 1778 
Q 2625 1972 2144 2069 
L 1759 2144 
Q 1053 2284 737 2584 
Q 422 2884 422 3419 
Q 422 4038 858 4394 
Q 1294 4750 2059 4750 
Q 2388 4750 2728 4690 
Q 3069 4631 3425 4513 
z
" transform="scale(0.015625)"/>
       <path id="DejaVuSans-47" d="M 3809 666 
L 3809 1919 
L 2778 1919 
L 2778 2438 
L 4434 2438 
L 4434 434 
Q 4069 175 3628 42 
Q 3188 -91 2688 -91 
Q 1594 -91 976 548 
Q 359 1188 359 2328 
Q 359 3472 976 4111 
Q 1594 4750 2688 4750 
Q 3144 4750 3555 4637 
Q 3966 4525 4313 4306 
L 4313 3634 
Q 3963 3931 3569 4081 
Q 3175 4231 2741 4231 
Q 1884 4231 1454 3753 
Q 1025 3275 1025 2328 
Q 1025 1384 1454 906 
Q 1884 428 2741 428 
Q 3075 428 3337 486 
Q 3600 544 3809 666 
z
" transform="scale(0.015625)"/>
       <path id="DejaVuSans-49" d="M 628 4666 
L 1259 4666 
L 1259 0 
L 628 0 
L 628 4666 
z
" transform="scale(0.015625)"/>
      </defs>
      <use xlink:href="#DejaVuSans-53"/>
      <use xlink:href="#DejaVuSans-47" x="63.476562"/>
      <use xlink:href="#DejaVuSans-49" x="140.966797"/>
     </g>
    </g>
   </g>
   <g id="line2d_18">
    <path d="M 176.89979 271.023558 
L 186.244898 100.890818 
L 188.619475 160.708814 
L 190.994051 101.253 
L 193.13883 172.480773 
L 197.811385 125.779864 
L 200.185961 157.100912 
L 202.483939 74.472993 
L 204.858516 94.341698 
L 207.233092 83.049047 
L 209.53107 87.409921 
L 211.905647 96.959314 
L 214.203624 161.44675 
L 221.097557 232.431887 
L 228.144687 148.723907 
L 235.191818 261.317692 
L 242.16235 265.986924 
L 249.056283 231.965806 
L 258.401391 213.530775 
L 267.823099 136.199792 
L 274.87023 172.816855 
L 281.764162 189.964247 
L 288.811293 168.943317 
L 295.858424 55.8 
L 305.050334 149.699175 
L 309.722888 128.680798 
L 316.770019 119.490863 
L 323.81715 128.560311 
L 328.489704 147.113194 
L 330.864281 154.018123 
L 335.383637 168.014175 
L 337.681614 148.968308 
L 342.354169 174.32705 
L 344.728745 106.121545 
L 358.823007 136.869338 
L 368.014917 170.320611 
L 372.687471 200.077361 
L 379.734602 182.957659 
L 386.781733 175.229367 
L 393.675666 140.675363 
L 400.722797 215.306544 
L 407.769928 246.010429 
L 421.634392 57.829195 
L 428.681523 218.494722 
L 435.728654 255.067392 
L 442.775785 211.73593 
L 449.593118 219.987001 
L 451.967695 275.542754 
L 456.640249 201.951078 
L 463.68738 217.26484 
L 470.734511 174.023676 
L 477.551844 201.612069 
L 484.598975 200.880386 
L 491.646106 226.163548 
L 498.693237 307.8 
L 505.587169 92.637446 
L 512.6343 163.400241 
L 519.681431 103.992939 
L 526.728562 166.373765 
L 533.545895 187.0916 
L 540.593026 286.28546 
L 547.640157 202.773284 
L 554.687288 145.93564 
L 561.504622 170.687729 
L 566.177176 116.267807 
L 575.598883 184.184582 
L 582.646014 141.857966 
L 587.16537 136.380468 
L 603.55761 156.427292 
L 610.604741 255.466982 
L 617.498673 253.822432 
L 619.87325 238.134846 
L 622.171227 226.454044 
L 624.545804 202.218744 
L 626.920381 183.073894 
L 629.218358 194.284406 
L 631.592935 159.033245 
L 636.265489 141.139427 
L 638.640066 92.528869 
L 640.784845 103.086708 
L 643.159422 118.545406 
L 645.457399 173.455857 
L 647.831976 191.024007 
L 650.129953 151.679049 
L 654.879107 158.707286 
L 657.177084 153.456361 
L 659.551661 132.039364 
L 661.849639 135.663391 
L 664.224215 154.528274 
L 666.598792 56.023814 
L 668.743571 130.577474 
L 671.118148 131.879195 
L 673.416125 179.048662 
L 675.790702 193.824426 
L 678.088679 197.100234 
L 682.837833 210.660831 
L 685.13581 186.603781 
L 687.510387 153.799669 
L 689.808365 131.256695 
L 692.182941 97.695285 
L 694.557518 149.358016 
L 696.702297 178.346986 
L 699.076874 180.981404 
L 703.749428 231.417221 
L 706.047406 288.963322 
L 708.421982 117.871733 
L 715.469113 188.456506 
L 722.516244 178.837021 
L 727.112199 229.435756 
L 729.410177 214.476674 
L 731.784753 138.61117 
L 734.082731 198.652217 
L 736.457308 197.400934 
L 738.831884 135.694682 
L 741.129862 203.419313 
L 743.504439 231.759983 
L 745.802416 204.733987 
L 748.176993 224.183268 
L 750.55157 228.384964 
L 752.696348 215.886499 
L 755.070925 276.655924 
L 757.368903 235.714836 
L 762.041457 252.637388 
L 764.416034 187.248627 
L 766.79061 233.245562 
L 769.088588 255.509692 
L 771.463165 284.629177 
L 773.761142 226.766806 
L 776.135719 204.003585 
L 778.510296 251.970047 
L 780.655075 202.031615 
L 783.029651 197.242634 
L 785.327629 193.819988 
L 787.702206 214.120195 
L 790.000183 151.679049 
L 792.37476 157.078601 
L 794.749337 157.649665 
L 797.047314 166.325976 
L 799.421891 188.456506 
L 801.719868 170.645397 
L 804.094445 191.707892 
L 806.469022 187.572158 
L 808.613801 189.295443 
L 810.988377 210.69644 
L 813.286355 171.608224 
L 815.660932 140.216162 
L 817.958909 136.681219 
L 820.333486 224.573332 
L 822.708063 201.499664 
L 825.00604 242.586214 
L 827.380617 266.545008 
L 829.678594 212.349016 
L 832.053171 265.348899 
L 834.427748 238.640419 
L 841.32168 272.875402 
L 848.368811 232.938269 
L 855.415942 241.04777 
L 862.463073 196.547881 
L 869.280406 214.976027 
L 876.327537 166.83021 
L 883.374668 190.880259 
L 890.421799 232.055115 
L 897.239132 228.068595 
L 904.286263 142.346314 
L 911.333394 153.799669 
L 918.380525 187.966035 
L 925.197859 159.389053 
L 927.572435 83.482829 
L 932.244989 151.554491 
L 939.29212 136.890823 
L 946.339251 212.109683 
L 960.280315 162.872949 
L 964.952869 138.152298 
L 967.327446 191.484034 
L 969.625423 206.062167 
L 972 234.095179 
L 972 234.095179 
" clip-path="url(#p535da40a89)" style="fill: none; stroke: #7f7f7f; stroke-width: 1.5; stroke-linecap: square"/>
   </g>
   <g id="line2d_19">
    <path d="M 135 181.718149 
L 972 181.718149 
" clip-path="url(#p535da40a89)" style="fill: none; stroke: #000000; stroke-width: 1.5; stroke-linecap: square"/>
   </g>
   <g id="patch_3">
    <path d="M 135 320.4 
L 135 43.2 
" style="fill: none; stroke: #000000; stroke-width: 0.8; stroke-linejoin: miter; stroke-linecap: square"/>
   </g>
   <g id="patch_4">
    <path d="M 135 320.4 
L 972 320.4 
" style="fill: none; stroke: #000000; stroke-width: 0.8; stroke-linejoin: miter; stroke-linecap: square"/>
   </g>
   <g id="text_19">
    <!-- SGI for GWIC ID 133174 -->
    <g transform="translate(135 37.2) scale(0.12 -0.12)">
     <defs>
      <path id="DejaVuSans-Bold-53" d="M 3834 4519 
L 3834 3531 
Q 3450 3703 3084 3790 
Q 2719 3878 2394 3878 
Q 1963 3878 1756 3759 
Q 1550 3641 1550 3391 
Q 1550 3203 1689 3098 
Q 1828 2994 2194 2919 
L 2706 2816 
Q 3484 2659 3812 2340 
Q 4141 2022 4141 1434 
Q 4141 663 3683 286 
Q 3225 -91 2284 -91 
Q 1841 -91 1394 -6 
Q 947 78 500 244 
L 500 1259 
Q 947 1022 1364 901 
Q 1781 781 2169 781 
Q 2563 781 2772 912 
Q 2981 1044 2981 1288 
Q 2981 1506 2839 1625 
Q 2697 1744 2272 1838 
L 1806 1941 
Q 1106 2091 782 2419 
Q 459 2747 459 3303 
Q 459 4000 909 4375 
Q 1359 4750 2203 4750 
Q 2588 4750 2994 4692 
Q 3400 4634 3834 4519 
z
" transform="scale(0.015625)"/>
      <path id="DejaVuSans-Bold-47" d="M 4781 347 
Q 4331 128 3847 18 
Q 3363 -91 2847 -91 
Q 1681 -91 1000 561 
Q 319 1213 319 2328 
Q 319 3456 1012 4103 
Q 1706 4750 2913 4750 
Q 3378 4750 3804 4662 
Q 4231 4575 4609 4403 
L 4609 3438 
Q 4219 3659 3833 3768 
Q 3447 3878 3059 3878 
Q 2341 3878 1952 3476 
Q 1563 3075 1563 2328 
Q 1563 1588 1938 1184 
Q 2313 781 3003 781 
Q 3191 781 3352 804 
Q 3513 828 3641 878 
L 3641 1784 
L 2906 1784 
L 2906 2591 
L 4781 2591 
L 4781 347 
z
" transform="scale(0.015625)"/>
      <path id="DejaVuSans-Bold-49" d="M 588 4666 
L 1791 4666 
L 1791 0 
L 588 0 
L 588 4666 
z
" transform="scale(0.015625)"/>
      <path id="DejaVuSans-Bold-20" transform="scale(0.015625)"/>
      <path id="DejaVuSans-Bold-66" d="M 2841 4863 
L 2841 4128 
L 2222 4128 
Q 1984 4128 1890 4042 
Q 1797 3956 1797 3744 
L 1797 3500 
L 2753 3500 
L 2753 2700 
L 1797 2700 
L 1797 0 
L 678 0 
L 678 2700 
L 122 2700 
L 122 3500 
L 678 3500 
L 678 3744 
Q 678 4316 997 4589 
Q 1316 4863 1984 4863 
L 2841 4863 
z
" transform="scale(0.015625)"/>
      <path id="DejaVuSans-Bold-6f" d="M 2203 2784 
Q 1831 2784 1636 2517 
Q 1441 2250 1441 1747 
Q 1441 1244 1636 976 
Q 1831 709 2203 709 
Q 2569 709 2762 976 
Q 2956 1244 2956 1747 
Q 2956 2250 2762 2517 
Q 2569 2784 2203 2784 
z
M 2203 3584 
Q 3106 3584 3614 3096 
Q 4122 2609 4122 1747 
Q 4122 884 3614 396 
Q 3106 -91 2203 -91 
Q 1297 -91 786 396 
Q 275 884 275 1747 
Q 275 2609 786 3096 
Q 1297 3584 2203 3584 
z
" transform="scale(0.015625)"/>
      <path id="DejaVuSans-Bold-72" d="M 3138 2547 
Q 2991 2616 2845 2648 
Q 2700 2681 2553 2681 
Q 2122 2681 1889 2404 
Q 1656 2128 1656 1613 
L 1656 0 
L 538 0 
L 538 3500 
L 1656 3500 
L 1656 2925 
Q 1872 3269 2151 3426 
Q 2431 3584 2822 3584 
Q 2878 3584 2943 3579 
Q 3009 3575 3134 3559 
L 3138 2547 
z
" transform="scale(0.015625)"/>
      <path id="DejaVuSans-Bold-57" d="M 191 4666 
L 1344 4666 
L 2150 1275 
L 2950 4666 
L 4109 4666 
L 4909 1275 
L 5716 4666 
L 6859 4666 
L 5759 0 
L 4372 0 
L 3525 3547 
L 2688 0 
L 1300 0 
L 191 4666 
z
" transform="scale(0.015625)"/>
      <path id="DejaVuSans-Bold-43" d="M 4288 256 
Q 3956 84 3597 -3 
Q 3238 -91 2847 -91 
Q 1681 -91 1000 561 
Q 319 1213 319 2328 
Q 319 3447 1000 4098 
Q 1681 4750 2847 4750 
Q 3238 4750 3597 4662 
Q 3956 4575 4288 4403 
L 4288 3438 
Q 3953 3666 3628 3772 
Q 3303 3878 2944 3878 
Q 2300 3878 1931 3465 
Q 1563 3053 1563 2328 
Q 1563 1606 1931 1193 
Q 2300 781 2944 781 
Q 3303 781 3628 887 
Q 3953 994 4288 1222 
L 4288 256 
z
" transform="scale(0.015625)"/>
      <path id="DejaVuSans-Bold-44" d="M 1791 3756 
L 1791 909 
L 2222 909 
Q 2959 909 3348 1275 
Q 3738 1641 3738 2338 
Q 3738 3031 3350 3393 
Q 2963 3756 2222 3756 
L 1791 3756 
z
M 588 4666 
L 1856 4666 
Q 2919 4666 3439 4514 
Q 3959 4363 4331 4000 
Q 4659 3684 4818 3271 
Q 4978 2859 4978 2338 
Q 4978 1809 4818 1395 
Q 4659 981 4331 666 
Q 3956 303 3431 151 
Q 2906 0 1856 0 
L 588 0 
L 588 4666 
z
" transform="scale(0.015625)"/>
      <path id="DejaVuSans-Bold-31" d="M 750 831 
L 1813 831 
L 1813 3847 
L 722 3622 
L 722 4441 
L 1806 4666 
L 2950 4666 
L 2950 831 
L 4013 831 
L 4013 0 
L 750 0 
L 750 831 
z
" transform="scale(0.015625)"/>
      <path id="DejaVuSans-Bold-33" d="M 2981 2516 
Q 3453 2394 3698 2092 
Q 3944 1791 3944 1325 
Q 3944 631 3412 270 
Q 2881 -91 1863 -91 
Q 1503 -91 1142 -33 
Q 781 25 428 141 
L 428 1069 
Q 766 900 1098 814 
Q 1431 728 1753 728 
Q 2231 728 2486 893 
Q 2741 1059 2741 1369 
Q 2741 1688 2480 1852 
Q 2219 2016 1709 2016 
L 1228 2016 
L 1228 2791 
L 1734 2791 
Q 2188 2791 2409 2933 
Q 2631 3075 2631 3366 
Q 2631 3634 2415 3781 
Q 2200 3928 1806 3928 
Q 1516 3928 1219 3862 
Q 922 3797 628 3669 
L 628 4550 
Q 984 4650 1334 4700 
Q 1684 4750 2022 4750 
Q 2931 4750 3382 4451 
Q 3834 4153 3834 3553 
Q 3834 3144 3618 2883 
Q 3403 2622 2981 2516 
z
" transform="scale(0.015625)"/>
      <path id="DejaVuSans-Bold-37" d="M 428 4666 
L 3944 4666 
L 3944 3988 
L 2125 0 
L 953 0 
L 2675 3781 
L 428 3781 
L 428 4666 
z
" transform="scale(0.015625)"/>
      <path id="DejaVuSans-Bold-34" d="M 2356 3675 
L 1038 1722 
L 2356 1722 
L 2356 3675 
z
M 2156 4666 
L 3494 4666 
L 3494 1722 
L 4159 1722 
L 4159 850 
L 3494 850 
L 3494 0 
L 2356 0 
L 2356 850 
L 288 850 
L 288 1881 
L 2156 4666 
z
" transform="scale(0.015625)"/>
     </defs>
     <use xlink:href="#DejaVuSans-Bold-53"/>
     <use xlink:href="#DejaVuSans-Bold-47" x="72.021484"/>
     <use xlink:href="#DejaVuSans-Bold-49" x="154.101562"/>
     <use xlink:href="#DejaVuSans-Bold-20" x="191.308594"/>
     <use xlink:href="#DejaVuSans-Bold-66" x="226.123047"/>
     <use xlink:href="#DejaVuSans-Bold-6f" x="269.628906"/>
     <use xlink:href="#DejaVuSans-Bold-72" x="338.330078"/>
     <use xlink:href="#DejaVuSans-Bold-20" x="387.646484"/>
     <use xlink:href="#DejaVuSans-Bold-47" x="422.460938"/>
     <use xlink:href="#DejaVuSans-Bold-57" x="504.541016"/>
     <use xlink:href="#DejaVuSans-Bold-49" x="614.84375"/>
     <use xlink:href="#DejaVuSans-Bold-43" x="652.050781"/>
     <use xlink:href="#DejaVuSans-Bold-20" x="725.439453"/>
     <use xlink:href="#DejaVuSans-Bold-49" x="760.253906"/>
     <use xlink:href="#DejaVuSans-Bold-44" x="797.460938"/>
     <use xlink:href="#DejaVuSans-Bold-20" x="880.46875"/>
     <use xlink:href="#DejaVuSans-Bold-31" x="915.283203"/>
     <use xlink:href="#DejaVuSans-Bold-33" x="984.863281"/>
     <use xlink:href="#DejaVuSans-Bold-33" x="1054.443359"/>
     <use xlink:href="#DejaVuSans-Bold-31" x="1124.023438"/>
     <use xlink:href="#DejaVuSans-Bold-37" x="1193.603516"/>
     <use xlink:href="#DejaVuSans-Bold-34" x="1263.183594"/>
    </g>
   </g>
   <g id="PathCollection_1">
    <defs>
     <path id="m1b47371c6e" d="M 0 3 
C 0.795609 3 1.55874 2.683901 2.12132 2.12132 
C 2.683901 1.55874 3 0.795609 3 0 
C 3 -0.795609 2.683901 -1.55874 2.12132 -2.12132 
C 1.55874 -2.683901 0.795609 -3 0 -3 
C -0.795609 -3 -1.55874 -2.683901 -2.12132 -2.12132 
C -2.683901 -1.55874 -3 -0.795609 -3 0 
C -3 0.795609 -2.683901 1.55874 -2.12132 2.12132 
C -1.55874 2.683901 -0.795609 3 0 3 
z
" style="stroke: #ffffff; stroke-width: 0.48"/>
    </defs>
    <g clip-path="url(#p535da40a89)">
     <use xlink:href="#m1b47371c6e" x="176.89979" y="271.023558" style="stroke: #ffffff; stroke-width: 0.48"/>
     <use xlink:href="#m1b47371c6e" x="186.244898" y="100.890818" style="stroke: #ffffff; stroke-width: 0.48"/>
     <use xlink:href="#m1b47371c6e" x="188.619475" y="160.708814" style="stroke: #ffffff; stroke-width: 0.48"/>
     <use xlink:href="#m1b47371c6e" x="190.994051" y="101.253" style="stroke: #ffffff; stroke-width: 0.48"/>
     <use xlink:href="#m1b47371c6e" x="193.13883" y="172.480773" style="stroke: #ffffff; stroke-width: 0.48"/>
     <use xlink:href="#m1b47371c6e" x="197.811385" y="125.779864" style="stroke: #ffffff; stroke-width: 0.48"/>
     <use xlink:href="#m1b47371c6e" x="200.185961" y="157.100912" style="stroke: #ffffff; stroke-width: 0.48"/>
     <use xlink:href="#m1b47371c6e" x="202.483939" y="74.472993" style="stroke: #ffffff; stroke-width: 0.48"/>
     <use xlink:href="#m1b47371c6e" x="204.858516" y="94.341698" style="stroke: #ffffff; stroke-width: 0.48"/>
     <use xlink:href="#m1b47371c6e" x="207.233092" y="83.049047" style="stroke: #ffffff; stroke-width: 0.48"/>
     <use xlink:href="#m1b47371c6e" x="209.53107" y="87.409921" style="stroke: #ffffff; stroke-width: 0.48"/>
     <use xlink:href="#m1b47371c6e" x="211.905647" y="96.959314" style="stroke: #ffffff; stroke-width: 0.48"/>
     <use xlink:href="#m1b47371c6e" x="214.203624" y="161.44675" style="stroke: #ffffff; stroke-width: 0.48"/>
     <use xlink:href="#m1b47371c6e" x="221.097557" y="232.431887" style="stroke: #ffffff; stroke-width: 0.48"/>
     <use xlink:href="#m1b47371c6e" x="228.144687" y="148.723907" style="stroke: #ffffff; stroke-width: 0.48"/>
     <use xlink:href="#m1b47371c6e" x="235.191818" y="261.317692" style="stroke: #ffffff; stroke-width: 0.48"/>
     <use xlink:href="#m1b47371c6e" x="242.16235" y="265.986924" style="stroke: #ffffff; stroke-width: 0.48"/>
     <use xlink:href="#m1b47371c6e" x="249.056283" y="231.965806" style="stroke: #ffffff; stroke-width: 0.48"/>
     <use xlink:href="#m1b47371c6e" x="258.401391" y="213.530775" style="stroke: #ffffff; stroke-width: 0.48"/>
     <use xlink:href="#m1b47371c6e" x="267.823099" y="136.199792" style="stroke: #ffffff; stroke-width: 0.48"/>
     <use xlink:href="#m1b47371c6e" x="274.87023" y="172.816855" style="stroke: #ffffff; stroke-width: 0.48"/>
     <use xlink:href="#m1b47371c6e" x="281.764162" y="189.964247" style="stroke: #ffffff; stroke-width: 0.48"/>
     <use xlink:href="#m1b47371c6e" x="288.811293" y="168.943317" style="stroke: #ffffff; stroke-width: 0.48"/>
     <use xlink:href="#m1b47371c6e" x="295.858424" y="55.8" style="stroke: #ffffff; stroke-width: 0.48"/>
     <use xlink:href="#m1b47371c6e" x="305.050334" y="149.699175" style="stroke: #ffffff; stroke-width: 0.48"/>
     <use xlink:href="#m1b47371c6e" x="309.722888" y="128.680798" style="stroke: #ffffff; stroke-width: 0.48"/>
     <use xlink:href="#m1b47371c6e" x="316.770019" y="119.490863" style="stroke: #ffffff; stroke-width: 0.48"/>
     <use xlink:href="#m1b47371c6e" x="323.81715" y="128.560311" style="stroke: #ffffff; stroke-width: 0.48"/>
     <use xlink:href="#m1b47371c6e" x="328.489704" y="147.113194" style="stroke: #ffffff; stroke-width: 0.48"/>
     <use xlink:href="#m1b47371c6e" x="330.864281" y="154.018123" style="stroke: #ffffff; stroke-width: 0.48"/>
     <use xlink:href="#m1b47371c6e" x="335.383637" y="168.014175" style="stroke: #ffffff; stroke-width: 0.48"/>
     <use xlink:href="#m1b47371c6e" x="337.681614" y="148.968308" style="stroke: #ffffff; stroke-width: 0.48"/>
     <use xlink:href="#m1b47371c6e" x="342.354169" y="174.32705" style="stroke: #ffffff; stroke-width: 0.48"/>
     <use xlink:href="#m1b47371c6e" x="344.728745" y="106.121545" style="stroke: #ffffff; stroke-width: 0.48"/>
     <use xlink:href="#m1b47371c6e" x="358.823007" y="136.869338" style="stroke: #ffffff; stroke-width: 0.48"/>
     <use xlink:href="#m1b47371c6e" x="368.014917" y="170.320611" style="stroke: #ffffff; stroke-width: 0.48"/>
     <use xlink:href="#m1b47371c6e" x="372.687471" y="200.077361" style="stroke: #ffffff; stroke-width: 0.48"/>
     <use xlink:href="#m1b47371c6e" x="379.734602" y="182.957659" style="stroke: #ffffff; stroke-width: 0.48"/>
     <use xlink:href="#m1b47371c6e" x="386.781733" y="175.229367" style="stroke: #ffffff; stroke-width: 0.48"/>
     <use xlink:href="#m1b47371c6e" x="393.675666" y="140.675363" style="stroke: #ffffff; stroke-width: 0.48"/>
     <use xlink:href="#m1b47371c6e" x="400.722797" y="215.306544" style="stroke: #ffffff; stroke-width: 0.48"/>
     <use xlink:href="#m1b47371c6e" x="407.769928" y="246.010429" style="stroke: #ffffff; stroke-width: 0.48"/>
     <use xlink:href="#m1b47371c6e" x="421.634392" y="57.829195" style="stroke: #ffffff; stroke-width: 0.48"/>
     <use xlink:href="#m1b47371c6e" x="428.681523" y="218.494722" style="stroke: #ffffff; stroke-width: 0.48"/>
     <use xlink:href="#m1b47371c6e" x="435.728654" y="255.067392" style="stroke: #ffffff; stroke-width: 0.48"/>
     <use xlink:href="#m1b47371c6e" x="442.775785" y="211.73593" style="stroke: #ffffff; stroke-width: 0.48"/>
     <use xlink:href="#m1b47371c6e" x="449.593118" y="219.987001" style="stroke: #ffffff; stroke-width: 0.48"/>
     <use xlink:href="#m1b47371c6e" x="451.967695" y="275.542754" style="stroke: #ffffff; stroke-width: 0.48"/>
     <use xlink:href="#m1b47371c6e" x="456.640249" y="201.951078" style="stroke: #ffffff; stroke-width: 0.48"/>
     <use xlink:href="#m1b47371c6e" x="463.68738" y="217.26484" style="stroke: #ffffff; stroke-width: 0.48"/>
     <use xlink:href="#m1b47371c6e" x="470.734511" y="174.023676" style="stroke: #ffffff; stroke-width: 0.48"/>
     <use xlink:href="#m1b47371c6e" x="477.551844" y="201.612069" style="stroke: #ffffff; stroke-width: 0.48"/>
     <use xlink:href="#m1b47371c6e" x="484.598975" y="200.880386" style="stroke: #ffffff; stroke-width: 0.48"/>
     <use xlink:href="#m1b47371c6e" x="491.646106" y="226.163548" style="stroke: #ffffff; stroke-width: 0.48"/>
     <use xlink:href="#m1b47371c6e" x="498.693237" y="307.8" style="stroke: #ffffff; stroke-width: 0.48"/>
     <use xlink:href="#m1b47371c6e" x="505.587169" y="92.637446" style="stroke: #ffffff; stroke-width: 0.48"/>
     <use xlink:href="#m1b47371c6e" x="512.6343" y="163.400241" style="stroke: #ffffff; stroke-width: 0.48"/>
     <use xlink:href="#m1b47371c6e" x="519.681431" y="103.992939" style="stroke: #ffffff; stroke-width: 0.48"/>
     <use xlink:href="#m1b47371c6e" x="526.728562" y="166.373765" style="stroke: #ffffff; stroke-width: 0.48"/>
     <use xlink:href="#m1b47371c6e" x="533.545895" y="187.0916" style="stroke: #ffffff; stroke-width: 0.48"/>
     <use xlink:href="#m1b47371c6e" x="540.593026" y="286.28546" style="stroke: #ffffff; stroke-width: 0.48"/>
     <use xlink:href="#m1b47371c6e" x="547.640157" y="202.773284" style="stroke: #ffffff; stroke-width: 0.48"/>
     <use xlink:href="#m1b47371c6e" x="554.687288" y="145.93564" style="stroke: #ffffff; stroke-width: 0.48"/>
     <use xlink:href="#m1b47371c6e" x="561.504622" y="170.687729" style="stroke: #ffffff; stroke-width: 0.48"/>
     <use xlink:href="#m1b47371c6e" x="566.177176" y="116.267807" style="stroke: #ffffff; stroke-width: 0.48"/>
     <use xlink:href="#m1b47371c6e" x="575.598883" y="184.184582" style="stroke: #ffffff; stroke-width: 0.48"/>
     <use xlink:href="#m1b47371c6e" x="582.646014" y="141.857966" style="stroke: #ffffff; stroke-width: 0.48"/>
     <use xlink:href="#m1b47371c6e" x="587.16537" y="136.380468" style="stroke: #ffffff; stroke-width: 0.48"/>
     <use xlink:href="#m1b47371c6e" x="603.55761" y="156.427292" style="stroke: #ffffff; stroke-width: 0.48"/>
     <use xlink:href="#m1b47371c6e" x="610.604741" y="255.466982" style="stroke: #ffffff; stroke-width: 0.48"/>
     <use xlink:href="#m1b47371c6e" x="617.498673" y="253.822432" style="stroke: #ffffff; stroke-width: 0.48"/>
     <use xlink:href="#m1b47371c6e" x="619.87325" y="238.134846" style="stroke: #ffffff; stroke-width: 0.48"/>
     <use xlink:href="#m1b47371c6e" x="622.171227" y="226.454044" style="stroke: #ffffff; stroke-width: 0.48"/>
     <use xlink:href="#m1b47371c6e" x="624.545804" y="202.218744" style="stroke: #ffffff; stroke-width: 0.48"/>
     <use xlink:href="#m1b47371c6e" x="626.920381" y="183.073894" style="stroke: #ffffff; stroke-width: 0.48"/>
     <use xlink:href="#m1b47371c6e" x="629.218358" y="194.284406" style="stroke: #ffffff; stroke-width: 0.48"/>
     <use xlink:href="#m1b47371c6e" x="631.592935" y="159.033245" style="stroke: #ffffff; stroke-width: 0.48"/>
     <use xlink:href="#m1b47371c6e" x="636.265489" y="141.139427" style="stroke: #ffffff; stroke-width: 0.48"/>
     <use xlink:href="#m1b47371c6e" x="638.640066" y="92.528869" style="stroke: #ffffff; stroke-width: 0.48"/>
     <use xlink:href="#m1b47371c6e" x="640.784845" y="103.086708" style="stroke: #ffffff; stroke-width: 0.48"/>
     <use xlink:href="#m1b47371c6e" x="643.159422" y="118.545406" style="stroke: #ffffff; stroke-width: 0.48"/>
     <use xlink:href="#m1b47371c6e" x="645.457399" y="173.455857" style="stroke: #ffffff; stroke-width: 0.48"/>
     <use xlink:href="#m1b47371c6e" x="647.831976" y="191.024007" style="stroke: #ffffff; stroke-width: 0.48"/>
     <use xlink:href="#m1b47371c6e" x="650.129953" y="151.679049" style="stroke: #ffffff; stroke-width: 0.48"/>
     <use xlink:href="#m1b47371c6e" x="654.879107" y="158.707286" style="stroke: #ffffff; stroke-width: 0.48"/>
     <use xlink:href="#m1b47371c6e" x="657.177084" y="153.456361" style="stroke: #ffffff; stroke-width: 0.48"/>
     <use xlink:href="#m1b47371c6e" x="659.551661" y="132.039364" style="stroke: #ffffff; stroke-width: 0.48"/>
     <use xlink:href="#m1b47371c6e" x="661.849639" y="135.663391" style="stroke: #ffffff; stroke-width: 0.48"/>
     <use xlink:href="#m1b47371c6e" x="664.224215" y="154.528274" style="stroke: #ffffff; stroke-width: 0.48"/>
     <use xlink:href="#m1b47371c6e" x="666.598792" y="56.023814" style="stroke: #ffffff; stroke-width: 0.48"/>
     <use xlink:href="#m1b47371c6e" x="668.743571" y="130.577474" style="stroke: #ffffff; stroke-width: 0.48"/>
     <use xlink:href="#m1b47371c6e" x="671.118148" y="131.879195" style="stroke: #ffffff; stroke-width: 0.48"/>
     <use xlink:href="#m1b47371c6e" x="673.416125" y="179.048662" style="stroke: #ffffff; stroke-width: 0.48"/>
     <use xlink:href="#m1b47371c6e" x="675.790702" y="193.824426" style="stroke: #ffffff; stroke-width: 0.48"/>
     <use xlink:href="#m1b47371c6e" x="678.088679" y="197.100234" style="stroke: #ffffff; stroke-width: 0.48"/>
     <use xlink:href="#m1b47371c6e" x="682.837833" y="210.660831" style="stroke: #ffffff; stroke-width: 0.48"/>
     <use xlink:href="#m1b47371c6e" x="685.13581" y="186.603781" style="stroke: #ffffff; stroke-width: 0.48"/>
     <use xlink:href="#m1b47371c6e" x="687.510387" y="153.799669" style="stroke: #ffffff; stroke-width: 0.48"/>
     <use xlink:href="#m1b47371c6e" x="689.808365" y="131.256695" style="stroke: #ffffff; stroke-width: 0.48"/>
     <use xlink:href="#m1b47371c6e" x="692.182941" y="97.695285" style="stroke: #ffffff; stroke-width: 0.48"/>
     <use xlink:href="#m1b47371c6e" x="694.557518" y="149.358016" style="stroke: #ffffff; stroke-width: 0.48"/>
     <use xlink:href="#m1b47371c6e" x="696.702297" y="178.346986" style="stroke: #ffffff; stroke-width: 0.48"/>
     <use xlink:href="#m1b47371c6e" x="699.076874" y="180.981404" style="stroke: #ffffff; stroke-width: 0.48"/>
     <use xlink:href="#m1b47371c6e" x="703.749428" y="231.417221" style="stroke: #ffffff; stroke-width: 0.48"/>
     <use xlink:href="#m1b47371c6e" x="706.047406" y="288.963322" style="stroke: #ffffff; stroke-width: 0.48"/>
     <use xlink:href="#m1b47371c6e" x="708.421982" y="117.871733" style="stroke: #ffffff; stroke-width: 0.48"/>
     <use xlink:href="#m1b47371c6e" x="715.469113" y="188.456506" style="stroke: #ffffff; stroke-width: 0.48"/>
     <use xlink:href="#m1b47371c6e" x="722.516244" y="178.837021" style="stroke: #ffffff; stroke-width: 0.48"/>
     <use xlink:href="#m1b47371c6e" x="727.112199" y="229.435756" style="stroke: #ffffff; stroke-width: 0.48"/>
     <use xlink:href="#m1b47371c6e" x="729.410177" y="214.476674" style="stroke: #ffffff; stroke-width: 0.48"/>
     <use xlink:href="#m1b47371c6e" x="731.784753" y="138.61117" style="stroke: #ffffff; stroke-width: 0.48"/>
     <use xlink:href="#m1b47371c6e" x="734.082731" y="198.652217" style="stroke: #ffffff; stroke-width: 0.48"/>
     <use xlink:href="#m1b47371c6e" x="736.457308" y="197.400934" style="stroke: #ffffff; stroke-width: 0.48"/>
     <use xlink:href="#m1b47371c6e" x="738.831884" y="135.694682" style="stroke: #ffffff; stroke-width: 0.48"/>
     <use xlink:href="#m1b47371c6e" x="741.129862" y="203.419313" style="stroke: #ffffff; stroke-width: 0.48"/>
     <use xlink:href="#m1b47371c6e" x="743.504439" y="231.759983" style="stroke: #ffffff; stroke-width: 0.48"/>
     <use xlink:href="#m1b47371c6e" x="745.802416" y="204.733987" style="stroke: #ffffff; stroke-width: 0.48"/>
     <use xlink:href="#m1b47371c6e" x="748.176993" y="224.183268" style="stroke: #ffffff; stroke-width: 0.48"/>
     <use xlink:href="#m1b47371c6e" x="750.55157" y="228.384964" style="stroke: #ffffff; stroke-width: 0.48"/>
     <use xlink:href="#m1b47371c6e" x="752.696348" y="215.886499" style="stroke: #ffffff; stroke-width: 0.48"/>
     <use xlink:href="#m1b47371c6e" x="755.070925" y="276.655924" style="stroke: #ffffff; stroke-width: 0.48"/>
     <use xlink:href="#m1b47371c6e" x="757.368903" y="235.714836" style="stroke: #ffffff; stroke-width: 0.48"/>
     <use xlink:href="#m1b47371c6e" x="762.041457" y="252.637388" style="stroke: #ffffff; stroke-width: 0.48"/>
     <use xlink:href="#m1b47371c6e" x="764.416034" y="187.248627" style="stroke: #ffffff; stroke-width: 0.48"/>
     <use xlink:href="#m1b47371c6e" x="766.79061" y="233.245562" style="stroke: #ffffff; stroke-width: 0.48"/>
     <use xlink:href="#m1b47371c6e" x="769.088588" y="255.509692" style="stroke: #ffffff; stroke-width: 0.48"/>
     <use xlink:href="#m1b47371c6e" x="771.463165" y="284.629177" style="stroke: #ffffff; stroke-width: 0.48"/>
     <use xlink:href="#m1b47371c6e" x="773.761142" y="226.766806" style="stroke: #ffffff; stroke-width: 0.48"/>
     <use xlink:href="#m1b47371c6e" x="776.135719" y="204.003585" style="stroke: #ffffff; stroke-width: 0.48"/>
     <use xlink:href="#m1b47371c6e" x="778.510296" y="251.970047" style="stroke: #ffffff; stroke-width: 0.48"/>
     <use xlink:href="#m1b47371c6e" x="780.655075" y="202.031615" style="stroke: #ffffff; stroke-width: 0.48"/>
     <use xlink:href="#m1b47371c6e" x="783.029651" y="197.242634" style="stroke: #ffffff; stroke-width: 0.48"/>
     <use xlink:href="#m1b47371c6e" x="785.327629" y="193.819988" style="stroke: #ffffff; stroke-width: 0.48"/>
     <use xlink:href="#m1b47371c6e" x="787.702206" y="214.120195" style="stroke: #ffffff; stroke-width: 0.48"/>
     <use xlink:href="#m1b47371c6e" x="790.000183" y="151.679049" style="stroke: #ffffff; stroke-width: 0.48"/>
     <use xlink:href="#m1b47371c6e" x="792.37476" y="157.078601" style="stroke: #ffffff; stroke-width: 0.48"/>
     <use xlink:href="#m1b47371c6e" x="794.749337" y="157.649665" style="stroke: #ffffff; stroke-width: 0.48"/>
     <use xlink:href="#m1b47371c6e" x="797.047314" y="166.325976" style="stroke: #ffffff; stroke-width: 0.48"/>
     <use xlink:href="#m1b47371c6e" x="799.421891" y="188.456506" style="stroke: #ffffff; stroke-width: 0.48"/>
     <use xlink:href="#m1b47371c6e" x="801.719868" y="170.645397" style="stroke: #ffffff; stroke-width: 0.48"/>
     <use xlink:href="#m1b47371c6e" x="804.094445" y="191.707892" style="stroke: #ffffff; stroke-width: 0.48"/>
     <use xlink:href="#m1b47371c6e" x="806.469022" y="187.572158" style="stroke: #ffffff; stroke-width: 0.48"/>
     <use xlink:href="#m1b47371c6e" x="808.613801" y="189.295443" style="stroke: #ffffff; stroke-width: 0.48"/>
     <use xlink:href="#m1b47371c6e" x="810.988377" y="210.69644" style="stroke: #ffffff; stroke-width: 0.48"/>
     <use xlink:href="#m1b47371c6e" x="813.286355" y="171.608224" style="stroke: #ffffff; stroke-width: 0.48"/>
     <use xlink:href="#m1b47371c6e" x="815.660932" y="140.216162" style="stroke: #ffffff; stroke-width: 0.48"/>
     <use xlink:href="#m1b47371c6e" x="817.958909" y="136.681219" style="stroke: #ffffff; stroke-width: 0.48"/>
     <use xlink:href="#m1b47371c6e" x="820.333486" y="224.573332" style="stroke: #ffffff; stroke-width: 0.48"/>
     <use xlink:href="#m1b47371c6e" x="822.708063" y="201.499664" style="stroke: #ffffff; stroke-width: 0.48"/>
     <use xlink:href="#m1b47371c6e" x="825.00604" y="242.586214" style="stroke: #ffffff; stroke-width: 0.48"/>
     <use xlink:href="#m1b47371c6e" x="827.380617" y="266.545008" style="stroke: #ffffff; stroke-width: 0.48"/>
     <use xlink:href="#m1b47371c6e" x="829.678594" y="212.349016" style="stroke: #ffffff; stroke-width: 0.48"/>
     <use xlink:href="#m1b47371c6e" x="832.053171" y="265.348899" style="stroke: #ffffff; stroke-width: 0.48"/>
     <use xlink:href="#m1b47371c6e" x="834.427748" y="238.640419" style="stroke: #ffffff; stroke-width: 0.48"/>
     <use xlink:href="#m1b47371c6e" x="841.32168" y="272.875402" style="stroke: #ffffff; stroke-width: 0.48"/>
     <use xlink:href="#m1b47371c6e" x="848.368811" y="232.938269" style="stroke: #ffffff; stroke-width: 0.48"/>
     <use xlink:href="#m1b47371c6e" x="855.415942" y="241.04777" style="stroke: #ffffff; stroke-width: 0.48"/>
     <use xlink:href="#m1b47371c6e" x="862.463073" y="196.547881" style="stroke: #ffffff; stroke-width: 0.48"/>
     <use xlink:href="#m1b47371c6e" x="869.280406" y="214.976027" style="stroke: #ffffff; stroke-width: 0.48"/>
     <use xlink:href="#m1b47371c6e" x="876.327537" y="166.83021" style="stroke: #ffffff; stroke-width: 0.48"/>
     <use xlink:href="#m1b47371c6e" x="883.374668" y="190.880259" style="stroke: #ffffff; stroke-width: 0.48"/>
     <use xlink:href="#m1b47371c6e" x="890.421799" y="232.055115" style="stroke: #ffffff; stroke-width: 0.48"/>
     <use xlink:href="#m1b47371c6e" x="897.239132" y="228.068595" style="stroke: #ffffff; stroke-width: 0.48"/>
     <use xlink:href="#m1b47371c6e" x="904.286263" y="142.346314" style="stroke: #ffffff; stroke-width: 0.48"/>
     <use xlink:href="#m1b47371c6e" x="911.333394" y="153.799669" style="stroke: #ffffff; stroke-width: 0.48"/>
     <use xlink:href="#m1b47371c6e" x="918.380525" y="187.966035" style="stroke: #ffffff; stroke-width: 0.48"/>
     <use xlink:href="#m1b47371c6e" x="925.197859" y="159.389053" style="stroke: #ffffff; stroke-width: 0.48"/>
     <use xlink:href="#m1b47371c6e" x="927.572435" y="83.482829" style="stroke: #ffffff; stroke-width: 0.48"/>
     <use xlink:href="#m1b47371c6e" x="932.244989" y="151.554491" style="stroke: #ffffff; stroke-width: 0.48"/>
     <use xlink:href="#m1b47371c6e" x="939.29212" y="136.890823" style="stroke: #ffffff; stroke-width: 0.48"/>
     <use xlink:href="#m1b47371c6e" x="946.339251" y="212.109683" style="stroke: #ffffff; stroke-width: 0.48"/>
     <use xlink:href="#m1b47371c6e" x="960.280315" y="162.872949" style="stroke: #ffffff; stroke-width: 0.48"/>
     <use xlink:href="#m1b47371c6e" x="964.952869" y="138.152298" style="stroke: #ffffff; stroke-width: 0.48"/>
     <use xlink:href="#m1b47371c6e" x="967.327446" y="191.484034" style="stroke: #ffffff; stroke-width: 0.48"/>
     <use xlink:href="#m1b47371c6e" x="969.625423" y="206.062167" style="stroke: #ffffff; stroke-width: 0.48"/>
     <use xlink:href="#m1b47371c6e" x="972" y="234.095179" style="stroke: #ffffff; stroke-width: 0.48"/>
    </g>
   </g>
  </g>
 </g>
 <defs>
  <clipPath id="p535da40a89">
   <rect x="135" y="43.2" width="837" height="277.2"/>
  </clipPath>
 </defs>
</svg>
