<?xml version="1.0" encoding="utf-8" standalone="no"?>
<!DOCTYPE svg PUBLIC "-//W3C//DTD SVG 1.1//EN"
  "http://www.w3.org/Graphics/SVG/1.1/DTD/svg11.dtd">
<svg xmlns:xlink="http://www.w3.org/1999/xlink" width="1080pt" height="360pt" viewBox="0 0 1080 360" xmlns="http://www.w3.org/2000/svg" version="1.1">
 <metadata>
  <rdf:RDF xmlns:dc="http://purl.org/dc/elements/1.1/" xmlns:cc="http://creativecommons.org/ns#" xmlns:rdf="http://www.w3.org/1999/02/22-rdf-syntax-ns#">
   <cc:Work>
    <dc:type rdf:resource="http://purl.org/dc/dcmitype/StillImage"/>
    <dc:date>2024-01-23T18:50:26.092197</dc:date>
    <dc:format>image/svg+xml</dc:format>
    <dc:creator>
     <cc:Agent>
      <dc:title>Matplotlib v3.8.2, https://matplotlib.org/</dc:title>
     </cc:Agent>
    </dc:creator>
   </cc:Work>
  </rdf:RDF>
 </metadata>
 <defs>
  <style type="text/css">*{stroke-linejoin: round; stroke-linecap: butt}</style>
 </defs>
 <g id="figure_1">
  <g id="patch_1">
   <path d="M 0 360 
L 1080 360 
L 1080 0 
L 0 0 
z
" style="fill: #ffffff"/>
  </g>
  <g id="axes_1">
   <g id="patch_2">
    <path d="M 135 320.4 
L 972 320.4 
L 972 43.2 
L 135 43.2 
z
" style="fill: #ffffff"/>
   </g>
   <g id="PolyCollection_1"/>
   <g id="matplotlib.axis_1">
    <g id="xtick_1">
     <g id="line2d_1">
      <defs>
       <path id="mba14e1dc4e" d="M 0 0 
L 0 3.5 
" style="stroke: #000000; stroke-width: 0.8"/>
      </defs>
      <g>
       <use xlink:href="#mba14e1dc4e" x="146.994975" y="320.4" style="stroke: #000000; stroke-width: 0.8"/>
      </g>
     </g>
     <g id="text_1">
      <!-- 1992 -->
      <g transform="translate(134.269975 334.998438) scale(0.1 -0.1)">
       <defs>
        <path id="DejaVuSans-31" d="M 794 531 
L 1825 531 
L 1825 4091 
L 703 3866 
L 703 4441 
L 1819 4666 
L 2450 4666 
L 2450 531 
L 3481 531 
L 3481 0 
L 794 0 
L 794 531 
z
" transform="scale(0.015625)"/>
        <path id="DejaVuSans-39" d="M 703 97 
L 703 672 
Q 941 559 1184 500 
Q 1428 441 1663 441 
Q 2288 441 2617 861 
Q 2947 1281 2994 2138 
Q 2813 1869 2534 1725 
Q 2256 1581 1919 1581 
Q 1219 1581 811 2004 
Q 403 2428 403 3163 
Q 403 3881 828 4315 
Q 1253 4750 1959 4750 
Q 2769 4750 3195 4129 
Q 3622 3509 3622 2328 
Q 3622 1225 3098 567 
Q 2575 -91 1691 -91 
Q 1453 -91 1209 -44 
Q 966 3 703 97 
z
M 1959 2075 
Q 2384 2075 2632 2365 
Q 2881 2656 2881 3163 
Q 2881 3666 2632 3958 
Q 2384 4250 1959 4250 
Q 1534 4250 1286 3958 
Q 1038 3666 1038 3163 
Q 1038 2656 1286 2365 
Q 1534 2075 1959 2075 
z
" transform="scale(0.015625)"/>
        <path id="DejaVuSans-32" d="M 1228 531 
L 3431 531 
L 3431 0 
L 469 0 
L 469 531 
Q 828 903 1448 1529 
Q 2069 2156 2228 2338 
Q 2531 2678 2651 2914 
Q 2772 3150 2772 3378 
Q 2772 3750 2511 3984 
Q 2250 4219 1831 4219 
Q 1534 4219 1204 4116 
Q 875 4013 500 3803 
L 500 4441 
Q 881 4594 1212 4672 
Q 1544 4750 1819 4750 
Q 2544 4750 2975 4387 
Q 3406 4025 3406 3419 
Q 3406 3131 3298 2873 
Q 3191 2616 2906 2266 
Q 2828 2175 2409 1742 
Q 1991 1309 1228 531 
z
" transform="scale(0.015625)"/>
       </defs>
       <use xlink:href="#DejaVuSans-31"/>
       <use xlink:href="#DejaVuSans-39" x="63.623047"/>
       <use xlink:href="#DejaVuSans-39" x="127.246094"/>
       <use xlink:href="#DejaVuSans-32" x="190.869141"/>
      </g>
     </g>
    </g>
    <g id="xtick_2">
     <g id="line2d_2">
      <g>
       <use xlink:href="#mba14e1dc4e" x="260.791457" y="320.4" style="stroke: #000000; stroke-width: 0.8"/>
      </g>
     </g>
     <g id="text_2">
      <!-- 1996 -->
      <g transform="translate(248.066457 334.998438) scale(0.1 -0.1)">
       <defs>
        <path id="DejaVuSans-36" d="M 2113 2584 
Q 1688 2584 1439 2293 
Q 1191 2003 1191 1497 
Q 1191 994 1439 701 
Q 1688 409 2113 409 
Q 2538 409 2786 701 
Q 3034 994 3034 1497 
Q 3034 2003 2786 2293 
Q 2538 2584 2113 2584 
z
M 3366 4563 
L 3366 3988 
Q 3128 4100 2886 4159 
Q 2644 4219 2406 4219 
Q 1781 4219 1451 3797 
Q 1122 3375 1075 2522 
Q 1259 2794 1537 2939 
Q 1816 3084 2150 3084 
Q 2853 3084 3261 2657 
Q 3669 2231 3669 1497 
Q 3669 778 3244 343 
Q 2819 -91 2113 -91 
Q 1303 -91 875 529 
Q 447 1150 447 2328 
Q 447 3434 972 4092 
Q 1497 4750 2381 4750 
Q 2619 4750 2861 4703 
Q 3103 4656 3366 4563 
z
" transform="scale(0.015625)"/>
       </defs>
       <use xlink:href="#DejaVuSans-31"/>
       <use xlink:href="#DejaVuSans-39" x="63.623047"/>
       <use xlink:href="#DejaVuSans-39" x="127.246094"/>
       <use xlink:href="#DejaVuSans-36" x="190.869141"/>
      </g>
     </g>
    </g>
    <g id="xtick_3">
     <g id="line2d_3">
      <g>
       <use xlink:href="#mba14e1dc4e" x="374.58794" y="320.4" style="stroke: #000000; stroke-width: 0.8"/>
      </g>
     </g>
     <g id="text_3">
      <!-- 2000 -->
      <g transform="translate(361.86294 334.998438) scale(0.1 -0.1)">
       <defs>
        <path id="DejaVuSans-30" d="M 2034 4250 
Q 1547 4250 1301 3770 
Q 1056 3291 1056 2328 
Q 1056 1369 1301 889 
Q 1547 409 2034 409 
Q 2525 409 2770 889 
Q 3016 1369 3016 2328 
Q 3016 3291 2770 3770 
Q 2525 4250 2034 4250 
z
M 2034 4750 
Q 2819 4750 3233 4129 
Q 3647 3509 3647 2328 
Q 3647 1150 3233 529 
Q 2819 -91 2034 -91 
Q 1250 -91 836 529 
Q 422 1150 422 2328 
Q 422 3509 836 4129 
Q 1250 4750 2034 4750 
z
" transform="scale(0.015625)"/>
       </defs>
       <use xlink:href="#DejaVuSans-32"/>
       <use xlink:href="#DejaVuSans-30" x="63.623047"/>
       <use xlink:href="#DejaVuSans-30" x="127.246094"/>
       <use xlink:href="#DejaVuSans-30" x="190.869141"/>
      </g>
     </g>
    </g>
    <g id="xtick_4">
     <g id="line2d_4">
      <g>
       <use xlink:href="#mba14e1dc4e" x="488.384422" y="320.4" style="stroke: #000000; stroke-width: 0.8"/>
      </g>
     </g>
     <g id="text_4">
      <!-- 2004 -->
      <g transform="translate(475.659422 334.998438) scale(0.1 -0.1)">
       <defs>
        <path id="DejaVuSans-34" d="M 2419 4116 
L 825 1625 
L 2419 1625 
L 2419 4116 
z
M 2253 4666 
L 3047 4666 
L 3047 1625 
L 3713 1625 
L 3713 1100 
L 3047 1100 
L 3047 0 
L 2419 0 
L 2419 1100 
L 313 1100 
L 313 1709 
L 2253 4666 
z
" transform="scale(0.015625)"/>
       </defs>
       <use xlink:href="#DejaVuSans-32"/>
       <use xlink:href="#DejaVuSans-30" x="63.623047"/>
       <use xlink:href="#DejaVuSans-30" x="127.246094"/>
       <use xlink:href="#DejaVuSans-34" x="190.869141"/>
      </g>
     </g>
    </g>
    <g id="xtick_5">
     <g id="line2d_5">
      <g>
       <use xlink:href="#mba14e1dc4e" x="602.180905" y="320.4" style="stroke: #000000; stroke-width: 0.8"/>
      </g>
     </g>
     <g id="text_5">
      <!-- 2008 -->
      <g transform="translate(589.455905 334.998438) scale(0.1 -0.1)">
       <defs>
        <path id="DejaVuSans-38" d="M 2034 2216 
Q 1584 2216 1326 1975 
Q 1069 1734 1069 1313 
Q 1069 891 1326 650 
Q 1584 409 2034 409 
Q 2484 409 2743 651 
Q 3003 894 3003 1313 
Q 3003 1734 2745 1975 
Q 2488 2216 2034 2216 
z
M 1403 2484 
Q 997 2584 770 2862 
Q 544 3141 544 3541 
Q 544 4100 942 4425 
Q 1341 4750 2034 4750 
Q 2731 4750 3128 4425 
Q 3525 4100 3525 3541 
Q 3525 3141 3298 2862 
Q 3072 2584 2669 2484 
Q 3125 2378 3379 2068 
Q 3634 1759 3634 1313 
Q 3634 634 3220 271 
Q 2806 -91 2034 -91 
Q 1263 -91 848 271 
Q 434 634 434 1313 
Q 434 1759 690 2068 
Q 947 2378 1403 2484 
z
M 1172 3481 
Q 1172 3119 1398 2916 
Q 1625 2713 2034 2713 
Q 2441 2713 2670 2916 
Q 2900 3119 2900 3481 
Q 2900 3844 2670 4047 
Q 2441 4250 2034 4250 
Q 1625 4250 1398 4047 
Q 1172 3844 1172 3481 
z
" transform="scale(0.015625)"/>
       </defs>
       <use xlink:href="#DejaVuSans-32"/>
       <use xlink:href="#DejaVuSans-30" x="63.623047"/>
       <use xlink:href="#DejaVuSans-30" x="127.246094"/>
       <use xlink:href="#DejaVuSans-38" x="190.869141"/>
      </g>
     </g>
    </g>
    <g id="xtick_6">
     <g id="line2d_6">
      <g>
       <use xlink:href="#mba14e1dc4e" x="715.977387" y="320.4" style="stroke: #000000; stroke-width: 0.8"/>
      </g>
     </g>
     <g id="text_6">
      <!-- 2012 -->
      <g transform="translate(703.252387 334.998438) scale(0.1 -0.1)">
       <use xlink:href="#DejaVuSans-32"/>
       <use xlink:href="#DejaVuSans-30" x="63.623047"/>
       <use xlink:href="#DejaVuSans-31" x="127.246094"/>
       <use xlink:href="#DejaVuSans-32" x="190.869141"/>
      </g>
     </g>
    </g>
    <g id="xtick_7">
     <g id="line2d_7">
      <g>
       <use xlink:href="#mba14e1dc4e" x="829.773869" y="320.4" style="stroke: #000000; stroke-width: 0.8"/>
      </g>
     </g>
     <g id="text_7">
      <!-- 2016 -->
      <g transform="translate(817.048869 334.998438) scale(0.1 -0.1)">
       <use xlink:href="#DejaVuSans-32"/>
       <use xlink:href="#DejaVuSans-30" x="63.623047"/>
       <use xlink:href="#DejaVuSans-31" x="127.246094"/>
       <use xlink:href="#DejaVuSans-36" x="190.869141"/>
      </g>
     </g>
    </g>
    <g id="xtick_8">
     <g id="line2d_8">
      <g>
       <use xlink:href="#mba14e1dc4e" x="943.570352" y="320.4" style="stroke: #000000; stroke-width: 0.8"/>
      </g>
     </g>
     <g id="text_8">
      <!-- 2020 -->
      <g transform="translate(930.845352 334.998438) scale(0.1 -0.1)">
       <use xlink:href="#DejaVuSans-32"/>
       <use xlink:href="#DejaVuSans-30" x="63.623047"/>
       <use xlink:href="#DejaVuSans-32" x="127.246094"/>
       <use xlink:href="#DejaVuSans-30" x="190.869141"/>
      </g>
     </g>
    </g>
   </g>
   <g id="matplotlib.axis_2">
    <g id="ytick_1">
     <g id="line2d_9">
      <defs>
       <path id="mdc578d215b" d="M 0 0 
L -3.5 0 
" style="stroke: #000000; stroke-width: 0.8"/>
      </defs>
      <g>
       <use xlink:href="#mdc578d215b" x="135" y="308.062543" style="stroke: #000000; stroke-width: 0.8"/>
      </g>
     </g>
     <g id="text_9">
      <!-- −2.0 -->
      <g transform="translate(103.717187 311.861762) scale(0.1 -0.1)">
       <defs>
        <path id="DejaVuSans-2212" d="M 678 2272 
L 4684 2272 
L 4684 1741 
L 678 1741 
L 678 2272 
z
" transform="scale(0.015625)"/>
        <path id="DejaVuSans-2e" d="M 684 794 
L 1344 794 
L 1344 0 
L 684 0 
L 684 794 
z
" transform="scale(0.015625)"/>
       </defs>
       <use xlink:href="#DejaVuSans-2212"/>
       <use xlink:href="#DejaVuSans-32" x="83.789062"/>
       <use xlink:href="#DejaVuSans-2e" x="147.412109"/>
       <use xlink:href="#DejaVuSans-30" x="179.199219"/>
      </g>
     </g>
    </g>
    <g id="ytick_2">
     <g id="line2d_10">
      <g>
       <use xlink:href="#mdc578d215b" x="135" y="276.951189" style="stroke: #000000; stroke-width: 0.8"/>
      </g>
     </g>
     <g id="text_10">
      <!-- −1.5 -->
      <g transform="translate(103.717187 280.750408) scale(0.1 -0.1)">
       <defs>
        <path id="DejaVuSans-35" d="M 691 4666 
L 3169 4666 
L 3169 4134 
L 1269 4134 
L 1269 2991 
Q 1406 3038 1543 3061 
Q 1681 3084 1819 3084 
Q 2600 3084 3056 2656 
Q 3513 2228 3513 1497 
Q 3513 744 3044 326 
Q 2575 -91 1722 -91 
Q 1428 -91 1123 -41 
Q 819 9 494 109 
L 494 744 
Q 775 591 1075 516 
Q 1375 441 1709 441 
Q 2250 441 2565 725 
Q 2881 1009 2881 1497 
Q 2881 1984 2565 2268 
Q 2250 2553 1709 2553 
Q 1456 2553 1204 2497 
Q 953 2441 691 2322 
L 691 4666 
z
" transform="scale(0.015625)"/>
       </defs>
       <use xlink:href="#DejaVuSans-2212"/>
       <use xlink:href="#DejaVuSans-31" x="83.789062"/>
       <use xlink:href="#DejaVuSans-2e" x="147.412109"/>
       <use xlink:href="#DejaVuSans-35" x="179.199219"/>
      </g>
     </g>
    </g>
    <g id="ytick_3">
     <g id="line2d_11">
      <g>
       <use xlink:href="#mdc578d215b" x="135" y="245.839835" style="stroke: #000000; stroke-width: 0.8"/>
      </g>
     </g>
     <g id="text_11">
      <!-- −1.0 -->
      <g transform="translate(103.717187 249.639054) scale(0.1 -0.1)">
       <use xlink:href="#DejaVuSans-2212"/>
       <use xlink:href="#DejaVuSans-31" x="83.789062"/>
       <use xlink:href="#DejaVuSans-2e" x="147.412109"/>
       <use xlink:href="#DejaVuSans-30" x="179.199219"/>
      </g>
     </g>
    </g>
    <g id="ytick_4">
     <g id="line2d_12">
      <g>
       <use xlink:href="#mdc578d215b" x="135" y="214.728481" style="stroke: #000000; stroke-width: 0.8"/>
      </g>
     </g>
     <g id="text_12">
      <!-- −0.5 -->
      <g transform="translate(103.717187 218.527699) scale(0.1 -0.1)">
       <use xlink:href="#DejaVuSans-2212"/>
       <use xlink:href="#DejaVuSans-30" x="83.789062"/>
       <use xlink:href="#DejaVuSans-2e" x="147.412109"/>
       <use xlink:href="#DejaVuSans-35" x="179.199219"/>
      </g>
     </g>
    </g>
    <g id="ytick_5">
     <g id="line2d_13">
      <g>
       <use xlink:href="#mdc578d215b" x="135" y="183.617126" style="stroke: #000000; stroke-width: 0.8"/>
      </g>
     </g>
     <g id="text_13">
      <!-- 0.0 -->
      <g transform="translate(112.096875 187.416345) scale(0.1 -0.1)">
       <use xlink:href="#DejaVuSans-30"/>
       <use xlink:href="#DejaVuSans-2e" x="63.623047"/>
       <use xlink:href="#DejaVuSans-30" x="95.410156"/>
      </g>
     </g>
    </g>
    <g id="ytick_6">
     <g id="line2d_14">
      <g>
       <use xlink:href="#mdc578d215b" x="135" y="152.505772" style="stroke: #000000; stroke-width: 0.8"/>
      </g>
     </g>
     <g id="text_14">
      <!-- 0.5 -->
      <g transform="translate(112.096875 156.304991) scale(0.1 -0.1)">
       <use xlink:href="#DejaVuSans-30"/>
       <use xlink:href="#DejaVuSans-2e" x="63.623047"/>
       <use xlink:href="#DejaVuSans-35" x="95.410156"/>
      </g>
     </g>
    </g>
    <g id="ytick_7">
     <g id="line2d_15">
      <g>
       <use xlink:href="#mdc578d215b" x="135" y="121.394418" style="stroke: #000000; stroke-width: 0.8"/>
      </g>
     </g>
     <g id="text_15">
      <!-- 1.0 -->
      <g transform="translate(112.096875 125.193637) scale(0.1 -0.1)">
       <use xlink:href="#DejaVuSans-31"/>
       <use xlink:href="#DejaVuSans-2e" x="63.623047"/>
       <use xlink:href="#DejaVuSans-30" x="95.410156"/>
      </g>
     </g>
    </g>
    <g id="ytick_8">
     <g id="line2d_16">
      <g>
       <use xlink:href="#mdc578d215b" x="135" y="90.283064" style="stroke: #000000; stroke-width: 0.8"/>
      </g>
     </g>
     <g id="text_16">
      <!-- 1.5 -->
      <g transform="translate(112.096875 94.082283) scale(0.1 -0.1)">
       <use xlink:href="#DejaVuSans-31"/>
       <use xlink:href="#DejaVuSans-2e" x="63.623047"/>
       <use xlink:href="#DejaVuSans-35" x="95.410156"/>
      </g>
     </g>
    </g>
    <g id="ytick_9">
     <g id="line2d_17">
      <g>
       <use xlink:href="#mdc578d215b" x="135" y="59.17171" style="stroke: #000000; stroke-width: 0.8"/>
      </g>
     </g>
     <g id="text_17">
      <!-- 2.0 -->
      <g transform="translate(112.096875 62.970928) scale(0.1 -0.1)">
       <use xlink:href="#DejaVuSans-32"/>
       <use xlink:href="#DejaVuSans-2e" x="63.623047"/>
       <use xlink:href="#DejaVuSans-30" x="95.410156"/>
      </g>
     </g>
    </g>
    <g id="text_18">
     <!-- SGI -->
     <g transform="translate(97.6375 190.323437) rotate(-90) scale(0.1 -0.1)">
      <defs>
       <path id="DejaVuSans-53" d="M 3425 4513 
L 3425 3897 
Q 3066 4069 2747 4153 
Q 2428 4238 2131 4238 
Q 1616 4238 1336 4038 
Q 1056 3838 1056 3469 
Q 1056 3159 1242 3001 
Q 1428 2844 1947 2747 
L 2328 2669 
Q 3034 2534 3370 2195 
Q 3706 1856 3706 1288 
Q 3706 609 3251 259 
Q 2797 -91 1919 -91 
Q 1588 -91 1214 -16 
Q 841 59 441 206 
L 441 856 
Q 825 641 1194 531 
Q 1563 422 1919 422 
Q 2459 422 2753 634 
Q 3047 847 3047 1241 
Q 3047 1584 2836 1778 
Q 2625 1972 2144 2069 
L 1759 2144 
Q 1053 2284 737 2584 
Q 422 2884 422 3419 
Q 422 4038 858 4394 
Q 1294 4750 2059 4750 
Q 2388 4750 2728 4690 
Q 3069 4631 3425 4513 
z
" transform="scale(0.015625)"/>
       <path id="DejaVuSans-47" d="M 3809 666 
L 3809 1919 
L 2778 1919 
L 2778 2438 
L 4434 2438 
L 4434 434 
Q 4069 175 3628 42 
Q 3188 -91 2688 -91 
Q 1594 -91 976 548 
Q 359 1188 359 2328 
Q 359 3472 976 4111 
Q 1594 4750 2688 4750 
Q 3144 4750 3555 4637 
Q 3966 4525 4313 4306 
L 4313 3634 
Q 3963 3931 3569 4081 
Q 3175 4231 2741 4231 
Q 1884 4231 1454 3753 
Q 1025 3275 1025 2328 
Q 1025 1384 1454 906 
Q 1884 428 2741 428 
Q 3075 428 3337 486 
Q 3600 544 3809 666 
z
" transform="scale(0.015625)"/>
       <path id="DejaVuSans-49" d="M 628 4666 
L 1259 4666 
L 1259 0 
L 628 0 
L 628 4666 
z
" transform="scale(0.015625)"/>
      </defs>
      <use xlink:href="#DejaVuSans-53"/>
      <use xlink:href="#DejaVuSans-47" x="63.476562"/>
      <use xlink:href="#DejaVuSans-49" x="140.966797"/>
     </g>
    </g>
   </g>
   <g id="line2d_18">
    <path d="M 135 218.371743 
L 194.351759 263.369755 
L 210.864322 172.211506 
L 217.952261 194.50392 
L 225.11809 194.839336 
L 232.28392 175.928742 
L 239.29397 130.104686 
L 246.38191 140.18745 
L 253.547739 135.109715 
L 260.713568 64.843811 
L 267.801508 66.717114 
L 274.889447 154.252958 
L 282.055276 60.480261 
L 289.221106 113.866761 
L 303.319095 97.662485 
L 310.484925 124.278458 
L 320.065327 120.230277 
L 322.246231 170.228423 
L 324.660804 111.505401 
L 326.997487 100.371554 
L 331.748744 164.583271 
L 334.163317 98.985501 
L 338.914573 153.298196 
L 341.329146 202.472078 
L 343.665829 162.519495 
L 346.080402 98.54603 
L 348.494975 135.80379 
L 350.675879 197.00583 
L 353.090452 113.484409 
L 355.427136 130.187728 
L 357.841709 178.926692 
L 360.178392 149.537631 
L 362.592965 147.252567 
L 365.007538 152.686628 
L 369.758794 132.146481 
L 372.095477 135.785373 
L 374.51005 124.098727 
L 376.924623 173.790379 
L 379.183417 255.200347 
L 381.59799 120.371157 
L 383.934673 173.316104 
L 386.349246 143.157723 
L 388.68593 198.047113 
L 391.100503 198.953409 
L 393.515075 210.664008 
L 395.851759 174.138211 
L 398.266332 149.669453 
L 400.603015 201.824516 
L 403.017588 139.204301 
L 405.432161 186.883675 
L 407.613065 112.033906 
L 410.027638 162.338982 
L 412.364322 176.174526 
L 414.778894 216.221942 
L 417.115578 94.663731 
L 419.530151 187.448972 
L 424.281407 177.734432 
L 431.447236 160.216303 
L 438.457286 177.35829 
L 445.545226 175.842289 
L 452.711055 169.332123 
L 459.876884 160.935188 
L 466.886935 218.826034 
L 473.974874 186.158434 
L 481.140704 184.523099 
L 488.306533 138.380103 
L 495.394472 146.410992 
L 502.482412 188.76068 
L 512.062814 116.081219 
L 516.81407 140.845406 
L 523.824121 246.973212 
L 530.91206 232.495692 
L 538.077889 229.42023 
L 545.243719 303.927536 
L 552.253769 174.809468 
L 559.341709 226.281463 
L 566.507538 127.252815 
L 573.673367 155.047891 
L 580.683417 159.572633 
L 587.771357 127.19299 
L 594.937186 217.96164 
L 602.103015 212.930195 
L 609.190955 275.759136 
L 616.278894 215.178074 
L 623.444724 94.810487 
L 630.610553 162.357535 
L 637.620603 210.013329 
L 644.708543 210.250478 
L 651.874372 152.702115 
L 654.288945 170.199258 
L 659.040201 180.399027 
L 666.050251 162.338982 
L 673.138191 147.623338 
L 680.30402 144.863197 
L 687.469849 196.884085 
L 694.479899 205.304977 
L 701.567839 55.8 
L 708.733668 205.286312 
L 715.899497 199.279769 
L 722.987437 189.994318 
L 725.324121 201.551931 
L 727.738693 124.851471 
L 730.075377 117.332819 
L 732.48995 163.184007 
L 734.904523 174.33274 
L 737.241206 163.716644 
L 739.655779 196.29231 
L 741.992462 235.236924 
L 744.407035 181.974764 
L 746.821608 225.567025 
L 751.417085 222.475077 
L 758.505025 174.193735 
L 765.670854 202.107487 
L 772.836683 227.330407 
L 779.846734 176.514401 
L 786.934673 251.077651 
L 796.515075 239.184036 
L 801.266332 247.615394 
L 810.613065 235.842383 
L 815.364322 286.567092 
L 822.530151 248.968216 
L 829.69598 233.367346 
L 836.78392 258.932417 
L 846.286432 274.805489 
L 851.037688 237.29187 
L 858.203518 261.623566 
L 865.213568 234.959312 
L 869.964824 263.369761 
L 879.467337 260.44054 
L 886.633166 265.993753 
L 895.979899 268.966524 
L 900.731156 236.504823 
L 907.896985 301.754155 
L 915.062814 245.809289 
L 922.072864 307.8 
L 929.160804 299.809611 
L 936.326633 272.525337 
L 945.907035 269.684935 
L 957.668342 263.069407 
L 967.248744 278.282858 
L 967.248744 278.282858 
" clip-path="url(#pbc2dd0c3ff)" style="fill: none; stroke: #7f7f7f; stroke-width: 1.5; stroke-linecap: square"/>
   </g>
   <g id="line2d_19">
    <path d="M 135 183.617126 
L 972 183.617126 
" clip-path="url(#pbc2dd0c3ff)" style="fill: none; stroke: #000000; stroke-width: 1.5; stroke-linecap: square"/>
   </g>
   <g id="patch_3">
    <path d="M 135 320.4 
L 135 43.2 
" style="fill: none; stroke: #000000; stroke-width: 0.8; stroke-linejoin: miter; stroke-linecap: square"/>
   </g>
   <g id="patch_4">
    <path d="M 135 320.4 
L 972 320.4 
" style="fill: none; stroke: #000000; stroke-width: 0.8; stroke-linejoin: miter; stroke-linecap: square"/>
   </g>
   <g id="text_19">
    <!-- SGI for GWIC ID 60137 -->
    <g transform="translate(135 37.2) scale(0.12 -0.12)">
     <defs>
      <path id="DejaVuSans-Bold-53" d="M 3834 4519 
L 3834 3531 
Q 3450 3703 3084 3790 
Q 2719 3878 2394 3878 
Q 1963 3878 1756 3759 
Q 1550 3641 1550 3391 
Q 1550 3203 1689 3098 
Q 1828 2994 2194 2919 
L 2706 2816 
Q 3484 2659 3812 2340 
Q 4141 2022 4141 1434 
Q 4141 663 3683 286 
Q 3225 -91 2284 -91 
Q 1841 -91 1394 -6 
Q 947 78 500 244 
L 500 1259 
Q 947 1022 1364 901 
Q 1781 781 2169 781 
Q 2563 781 2772 912 
Q 2981 1044 2981 1288 
Q 2981 1506 2839 1625 
Q 2697 1744 2272 1838 
L 1806 1941 
Q 1106 2091 782 2419 
Q 459 2747 459 3303 
Q 459 4000 909 4375 
Q 1359 4750 2203 4750 
Q 2588 4750 2994 4692 
Q 3400 4634 3834 4519 
z
" transform="scale(0.015625)"/>
      <path id="DejaVuSans-Bold-47" d="M 4781 347 
Q 4331 128 3847 18 
Q 3363 -91 2847 -91 
Q 1681 -91 1000 561 
Q 319 1213 319 2328 
Q 319 3456 1012 4103 
Q 1706 4750 2913 4750 
Q 3378 4750 3804 4662 
Q 4231 4575 4609 4403 
L 4609 3438 
Q 4219 3659 3833 3768 
Q 3447 3878 3059 3878 
Q 2341 3878 1952 3476 
Q 1563 3075 1563 2328 
Q 1563 1588 1938 1184 
Q 2313 781 3003 781 
Q 3191 781 3352 804 
Q 3513 828 3641 878 
L 3641 1784 
L 2906 1784 
L 2906 2591 
L 4781 2591 
L 4781 347 
z
" transform="scale(0.015625)"/>
      <path id="DejaVuSans-Bold-49" d="M 588 4666 
L 1791 4666 
L 1791 0 
L 588 0 
L 588 4666 
z
" transform="scale(0.015625)"/>
      <path id="DejaVuSans-Bold-20" transform="scale(0.015625)"/>
      <path id="DejaVuSans-Bold-66" d="M 2841 4863 
L 2841 4128 
L 2222 4128 
Q 1984 4128 1890 4042 
Q 1797 3956 1797 3744 
L 1797 3500 
L 2753 3500 
L 2753 2700 
L 1797 2700 
L 1797 0 
L 678 0 
L 678 2700 
L 122 2700 
L 122 3500 
L 678 3500 
L 678 3744 
Q 678 4316 997 4589 
Q 1316 4863 1984 4863 
L 2841 4863 
z
" transform="scale(0.015625)"/>
      <path id="DejaVuSans-Bold-6f" d="M 2203 2784 
Q 1831 2784 1636 2517 
Q 1441 2250 1441 1747 
Q 1441 1244 1636 976 
Q 1831 709 2203 709 
Q 2569 709 2762 976 
Q 2956 1244 2956 1747 
Q 2956 2250 2762 2517 
Q 2569 2784 2203 2784 
z
M 2203 3584 
Q 3106 3584 3614 3096 
Q 4122 2609 4122 1747 
Q 4122 884 3614 396 
Q 3106 -91 2203 -91 
Q 1297 -91 786 396 
Q 275 884 275 1747 
Q 275 2609 786 3096 
Q 1297 3584 2203 3584 
z
" transform="scale(0.015625)"/>
      <path id="DejaVuSans-Bold-72" d="M 3138 2547 
Q 2991 2616 2845 2648 
Q 2700 2681 2553 2681 
Q 2122 2681 1889 2404 
Q 1656 2128 1656 1613 
L 1656 0 
L 538 0 
L 538 3500 
L 1656 3500 
L 1656 2925 
Q 1872 3269 2151 3426 
Q 2431 3584 2822 3584 
Q 2878 3584 2943 3579 
Q 3009 3575 3134 3559 
L 3138 2547 
z
" transform="scale(0.015625)"/>
      <path id="DejaVuSans-Bold-57" d="M 191 4666 
L 1344 4666 
L 2150 1275 
L 2950 4666 
L 4109 4666 
L 4909 1275 
L 5716 4666 
L 6859 4666 
L 5759 0 
L 4372 0 
L 3525 3547 
L 2688 0 
L 1300 0 
L 191 4666 
z
" transform="scale(0.015625)"/>
      <path id="DejaVuSans-Bold-43" d="M 4288 256 
Q 3956 84 3597 -3 
Q 3238 -91 2847 -91 
Q 1681 -91 1000 561 
Q 319 1213 319 2328 
Q 319 3447 1000 4098 
Q 1681 4750 2847 4750 
Q 3238 4750 3597 4662 
Q 3956 4575 4288 4403 
L 4288 3438 
Q 3953 3666 3628 3772 
Q 3303 3878 2944 3878 
Q 2300 3878 1931 3465 
Q 1563 3053 1563 2328 
Q 1563 1606 1931 1193 
Q 2300 781 2944 781 
Q 3303 781 3628 887 
Q 3953 994 4288 1222 
L 4288 256 
z
" transform="scale(0.015625)"/>
      <path id="DejaVuSans-Bold-44" d="M 1791 3756 
L 1791 909 
L 2222 909 
Q 2959 909 3348 1275 
Q 3738 1641 3738 2338 
Q 3738 3031 3350 3393 
Q 2963 3756 2222 3756 
L 1791 3756 
z
M 588 4666 
L 1856 4666 
Q 2919 4666 3439 4514 
Q 3959 4363 4331 4000 
Q 4659 3684 4818 3271 
Q 4978 2859 4978 2338 
Q 4978 1809 4818 1395 
Q 4659 981 4331 666 
Q 3956 303 3431 151 
Q 2906 0 1856 0 
L 588 0 
L 588 4666 
z
" transform="scale(0.015625)"/>
      <path id="DejaVuSans-Bold-36" d="M 2316 2303 
Q 2000 2303 1842 2098 
Q 1684 1894 1684 1484 
Q 1684 1075 1842 870 
Q 2000 666 2316 666 
Q 2634 666 2792 870 
Q 2950 1075 2950 1484 
Q 2950 1894 2792 2098 
Q 2634 2303 2316 2303 
z
M 3803 4544 
L 3803 3681 
Q 3506 3822 3243 3889 
Q 2981 3956 2731 3956 
Q 2194 3956 1894 3657 
Q 1594 3359 1544 2772 
Q 1750 2925 1990 3001 
Q 2231 3078 2516 3078 
Q 3231 3078 3670 2659 
Q 4109 2241 4109 1563 
Q 4109 813 3618 361 
Q 3128 -91 2303 -91 
Q 1394 -91 895 523 
Q 397 1138 397 2266 
Q 397 3422 980 4083 
Q 1563 4744 2578 4744 
Q 2900 4744 3203 4694 
Q 3506 4644 3803 4544 
z
" transform="scale(0.015625)"/>
      <path id="DejaVuSans-Bold-30" d="M 2944 2338 
Q 2944 3213 2780 3570 
Q 2616 3928 2228 3928 
Q 1841 3928 1675 3570 
Q 1509 3213 1509 2338 
Q 1509 1453 1675 1090 
Q 1841 728 2228 728 
Q 2613 728 2778 1090 
Q 2944 1453 2944 2338 
z
M 4147 2328 
Q 4147 1169 3647 539 
Q 3147 -91 2228 -91 
Q 1306 -91 806 539 
Q 306 1169 306 2328 
Q 306 3491 806 4120 
Q 1306 4750 2228 4750 
Q 3147 4750 3647 4120 
Q 4147 3491 4147 2328 
z
" transform="scale(0.015625)"/>
      <path id="DejaVuSans-Bold-31" d="M 750 831 
L 1813 831 
L 1813 3847 
L 722 3622 
L 722 4441 
L 1806 4666 
L 2950 4666 
L 2950 831 
L 4013 831 
L 4013 0 
L 750 0 
L 750 831 
z
" transform="scale(0.015625)"/>
      <path id="DejaVuSans-Bold-33" d="M 2981 2516 
Q 3453 2394 3698 2092 
Q 3944 1791 3944 1325 
Q 3944 631 3412 270 
Q 2881 -91 1863 -91 
Q 1503 -91 1142 -33 
Q 781 25 428 141 
L 428 1069 
Q 766 900 1098 814 
Q 1431 728 1753 728 
Q 2231 728 2486 893 
Q 2741 1059 2741 1369 
Q 2741 1688 2480 1852 
Q 2219 2016 1709 2016 
L 1228 2016 
L 1228 2791 
L 1734 2791 
Q 2188 2791 2409 2933 
Q 2631 3075 2631 3366 
Q 2631 3634 2415 3781 
Q 2200 3928 1806 3928 
Q 1516 3928 1219 3862 
Q 922 3797 628 3669 
L 628 4550 
Q 984 4650 1334 4700 
Q 1684 4750 2022 4750 
Q 2931 4750 3382 4451 
Q 3834 4153 3834 3553 
Q 3834 3144 3618 2883 
Q 3403 2622 2981 2516 
z
" transform="scale(0.015625)"/>
      <path id="DejaVuSans-Bold-37" d="M 428 4666 
L 3944 4666 
L 3944 3988 
L 2125 0 
L 953 0 
L 2675 3781 
L 428 3781 
L 428 4666 
z
" transform="scale(0.015625)"/>
     </defs>
     <use xlink:href="#DejaVuSans-Bold-53"/>
     <use xlink:href="#DejaVuSans-Bold-47" x="72.021484"/>
     <use xlink:href="#DejaVuSans-Bold-49" x="154.101562"/>
     <use xlink:href="#DejaVuSans-Bold-20" x="191.308594"/>
     <use xlink:href="#DejaVuSans-Bold-66" x="226.123047"/>
     <use xlink:href="#DejaVuSans-Bold-6f" x="269.628906"/>
     <use xlink:href="#DejaVuSans-Bold-72" x="338.330078"/>
     <use xlink:href="#DejaVuSans-Bold-20" x="387.646484"/>
     <use xlink:href="#DejaVuSans-Bold-47" x="422.460938"/>
     <use xlink:href="#DejaVuSans-Bold-57" x="504.541016"/>
     <use xlink:href="#DejaVuSans-Bold-49" x="614.84375"/>
     <use xlink:href="#DejaVuSans-Bold-43" x="652.050781"/>
     <use xlink:href="#DejaVuSans-Bold-20" x="725.439453"/>
     <use xlink:href="#DejaVuSans-Bold-49" x="760.253906"/>
     <use xlink:href="#DejaVuSans-Bold-44" x="797.460938"/>
     <use xlink:href="#DejaVuSans-Bold-20" x="880.46875"/>
     <use xlink:href="#DejaVuSans-Bold-36" x="915.283203"/>
     <use xlink:href="#DejaVuSans-Bold-30" x="984.863281"/>
     <use xlink:href="#DejaVuSans-Bold-31" x="1054.443359"/>
     <use xlink:href="#DejaVuSans-Bold-33" x="1124.023438"/>
     <use xlink:href="#DejaVuSans-Bold-37" x="1193.603516"/>
    </g>
   </g>
   <g id="PathCollection_1">
    <defs>
     <path id="m8317db8b34" d="M 0 3 
C 0.795609 3 1.55874 2.683901 2.12132 2.12132 
C 2.683901 1.55874 3 0.795609 3 0 
C 3 -0.795609 2.683901 -1.55874 2.12132 -2.12132 
C 1.55874 -2.683901 0.795609 -3 0 -3 
C -0.795609 -3 -1.55874 -2.683901 -2.12132 -2.12132 
C -2.683901 -1.55874 -3 -0.795609 -3 0 
C -3 0.795609 -2.683901 1.55874 -2.12132 2.12132 
C -1.55874 2.683901 -0.795609 3 0 3 
z
" style="stroke: #ffffff; stroke-width: 0.48"/>
    </defs>
    <g clip-path="url(#pbc2dd0c3ff)">
     <use xlink:href="#m8317db8b34" x="135" y="218.371743" style="stroke: #ffffff; stroke-width: 0.48"/>
     <use xlink:href="#m8317db8b34" x="194.351759" y="263.369755" style="stroke: #ffffff; stroke-width: 0.48"/>
     <use xlink:href="#m8317db8b34" x="203.854271" y="211.262526" style="stroke: #ffffff; stroke-width: 0.48"/>
     <use xlink:href="#m8317db8b34" x="210.864322" y="172.211506" style="stroke: #ffffff; stroke-width: 0.48"/>
     <use xlink:href="#m8317db8b34" x="217.952261" y="194.50392" style="stroke: #ffffff; stroke-width: 0.48"/>
     <use xlink:href="#m8317db8b34" x="225.11809" y="194.839336" style="stroke: #ffffff; stroke-width: 0.48"/>
     <use xlink:href="#m8317db8b34" x="232.28392" y="175.928742" style="stroke: #ffffff; stroke-width: 0.48"/>
     <use xlink:href="#m8317db8b34" x="239.29397" y="130.104686" style="stroke: #ffffff; stroke-width: 0.48"/>
     <use xlink:href="#m8317db8b34" x="246.38191" y="140.18745" style="stroke: #ffffff; stroke-width: 0.48"/>
     <use xlink:href="#m8317db8b34" x="253.547739" y="135.109715" style="stroke: #ffffff; stroke-width: 0.48"/>
     <use xlink:href="#m8317db8b34" x="260.713568" y="64.843811" style="stroke: #ffffff; stroke-width: 0.48"/>
     <use xlink:href="#m8317db8b34" x="267.801508" y="66.717114" style="stroke: #ffffff; stroke-width: 0.48"/>
     <use xlink:href="#m8317db8b34" x="274.889447" y="154.252958" style="stroke: #ffffff; stroke-width: 0.48"/>
     <use xlink:href="#m8317db8b34" x="282.055276" y="60.480261" style="stroke: #ffffff; stroke-width: 0.48"/>
     <use xlink:href="#m8317db8b34" x="289.221106" y="113.866761" style="stroke: #ffffff; stroke-width: 0.48"/>
     <use xlink:href="#m8317db8b34" x="303.319095" y="97.662485" style="stroke: #ffffff; stroke-width: 0.48"/>
     <use xlink:href="#m8317db8b34" x="310.484925" y="124.278458" style="stroke: #ffffff; stroke-width: 0.48"/>
     <use xlink:href="#m8317db8b34" x="320.065327" y="120.230277" style="stroke: #ffffff; stroke-width: 0.48"/>
     <use xlink:href="#m8317db8b34" x="322.246231" y="170.228423" style="stroke: #ffffff; stroke-width: 0.48"/>
     <use xlink:href="#m8317db8b34" x="324.660804" y="111.505401" style="stroke: #ffffff; stroke-width: 0.48"/>
     <use xlink:href="#m8317db8b34" x="326.997487" y="100.371554" style="stroke: #ffffff; stroke-width: 0.48"/>
     <use xlink:href="#m8317db8b34" x="331.748744" y="164.583271" style="stroke: #ffffff; stroke-width: 0.48"/>
     <use xlink:href="#m8317db8b34" x="334.163317" y="98.985501" style="stroke: #ffffff; stroke-width: 0.48"/>
     <use xlink:href="#m8317db8b34" x="336.577889" y="127.082235" style="stroke: #ffffff; stroke-width: 0.48"/>
     <use xlink:href="#m8317db8b34" x="338.914573" y="153.298196" style="stroke: #ffffff; stroke-width: 0.48"/>
     <use xlink:href="#m8317db8b34" x="341.329146" y="202.472078" style="stroke: #ffffff; stroke-width: 0.48"/>
     <use xlink:href="#m8317db8b34" x="343.665829" y="162.519495" style="stroke: #ffffff; stroke-width: 0.48"/>
     <use xlink:href="#m8317db8b34" x="346.080402" y="98.54603" style="stroke: #ffffff; stroke-width: 0.48"/>
     <use xlink:href="#m8317db8b34" x="348.494975" y="135.80379" style="stroke: #ffffff; stroke-width: 0.48"/>
     <use xlink:href="#m8317db8b34" x="350.675879" y="197.00583" style="stroke: #ffffff; stroke-width: 0.48"/>
     <use xlink:href="#m8317db8b34" x="353.090452" y="113.484409" style="stroke: #ffffff; stroke-width: 0.48"/>
     <use xlink:href="#m8317db8b34" x="355.427136" y="130.187728" style="stroke: #ffffff; stroke-width: 0.48"/>
     <use xlink:href="#m8317db8b34" x="357.841709" y="178.926692" style="stroke: #ffffff; stroke-width: 0.48"/>
     <use xlink:href="#m8317db8b34" x="360.178392" y="149.537631" style="stroke: #ffffff; stroke-width: 0.48"/>
     <use xlink:href="#m8317db8b34" x="362.592965" y="147.252567" style="stroke: #ffffff; stroke-width: 0.48"/>
     <use xlink:href="#m8317db8b34" x="365.007538" y="152.686628" style="stroke: #ffffff; stroke-width: 0.48"/>
     <use xlink:href="#m8317db8b34" x="369.758794" y="132.146481" style="stroke: #ffffff; stroke-width: 0.48"/>
     <use xlink:href="#m8317db8b34" x="372.095477" y="135.785373" style="stroke: #ffffff; stroke-width: 0.48"/>
     <use xlink:href="#m8317db8b34" x="374.51005" y="124.098727" style="stroke: #ffffff; stroke-width: 0.48"/>
     <use xlink:href="#m8317db8b34" x="376.924623" y="173.790379" style="stroke: #ffffff; stroke-width: 0.48"/>
     <use xlink:href="#m8317db8b34" x="379.183417" y="255.200347" style="stroke: #ffffff; stroke-width: 0.48"/>
     <use xlink:href="#m8317db8b34" x="381.59799" y="120.371157" style="stroke: #ffffff; stroke-width: 0.48"/>
     <use xlink:href="#m8317db8b34" x="383.934673" y="173.316104" style="stroke: #ffffff; stroke-width: 0.48"/>
     <use xlink:href="#m8317db8b34" x="386.349246" y="143.157723" style="stroke: #ffffff; stroke-width: 0.48"/>
     <use xlink:href="#m8317db8b34" x="388.68593" y="198.047113" style="stroke: #ffffff; stroke-width: 0.48"/>
     <use xlink:href="#m8317db8b34" x="391.100503" y="198.953409" style="stroke: #ffffff; stroke-width: 0.48"/>
     <use xlink:href="#m8317db8b34" x="393.515075" y="210.664008" style="stroke: #ffffff; stroke-width: 0.48"/>
     <use xlink:href="#m8317db8b34" x="395.851759" y="174.138211" style="stroke: #ffffff; stroke-width: 0.48"/>
     <use xlink:href="#m8317db8b34" x="398.266332" y="149.669453" style="stroke: #ffffff; stroke-width: 0.48"/>
     <use xlink:href="#m8317db8b34" x="400.603015" y="201.824516" style="stroke: #ffffff; stroke-width: 0.48"/>
     <use xlink:href="#m8317db8b34" x="403.017588" y="139.204301" style="stroke: #ffffff; stroke-width: 0.48"/>
     <use xlink:href="#m8317db8b34" x="405.432161" y="186.883675" style="stroke: #ffffff; stroke-width: 0.48"/>
     <use xlink:href="#m8317db8b34" x="407.613065" y="112.033906" style="stroke: #ffffff; stroke-width: 0.48"/>
     <use xlink:href="#m8317db8b34" x="410.027638" y="162.338982" style="stroke: #ffffff; stroke-width: 0.48"/>
     <use xlink:href="#m8317db8b34" x="412.364322" y="176.174526" style="stroke: #ffffff; stroke-width: 0.48"/>
     <use xlink:href="#m8317db8b34" x="414.778894" y="216.221942" style="stroke: #ffffff; stroke-width: 0.48"/>
     <use xlink:href="#m8317db8b34" x="417.115578" y="94.663731" style="stroke: #ffffff; stroke-width: 0.48"/>
     <use xlink:href="#m8317db8b34" x="419.530151" y="187.448972" style="stroke: #ffffff; stroke-width: 0.48"/>
     <use xlink:href="#m8317db8b34" x="424.281407" y="177.734432" style="stroke: #ffffff; stroke-width: 0.48"/>
     <use xlink:href="#m8317db8b34" x="431.447236" y="160.216303" style="stroke: #ffffff; stroke-width: 0.48"/>
     <use xlink:href="#m8317db8b34" x="438.457286" y="177.35829" style="stroke: #ffffff; stroke-width: 0.48"/>
     <use xlink:href="#m8317db8b34" x="445.545226" y="175.842289" style="stroke: #ffffff; stroke-width: 0.48"/>
     <use xlink:href="#m8317db8b34" x="452.711055" y="169.332123" style="stroke: #ffffff; stroke-width: 0.48"/>
     <use xlink:href="#m8317db8b34" x="459.876884" y="160.935188" style="stroke: #ffffff; stroke-width: 0.48"/>
     <use xlink:href="#m8317db8b34" x="466.886935" y="218.826034" style="stroke: #ffffff; stroke-width: 0.48"/>
     <use xlink:href="#m8317db8b34" x="473.974874" y="186.158434" style="stroke: #ffffff; stroke-width: 0.48"/>
     <use xlink:href="#m8317db8b34" x="481.140704" y="184.523099" style="stroke: #ffffff; stroke-width: 0.48"/>
     <use xlink:href="#m8317db8b34" x="488.306533" y="138.380103" style="stroke: #ffffff; stroke-width: 0.48"/>
     <use xlink:href="#m8317db8b34" x="495.394472" y="146.410992" style="stroke: #ffffff; stroke-width: 0.48"/>
     <use xlink:href="#m8317db8b34" x="502.482412" y="188.76068" style="stroke: #ffffff; stroke-width: 0.48"/>
     <use xlink:href="#m8317db8b34" x="512.062814" y="116.081219" style="stroke: #ffffff; stroke-width: 0.48"/>
     <use xlink:href="#m8317db8b34" x="516.81407" y="140.845406" style="stroke: #ffffff; stroke-width: 0.48"/>
     <use xlink:href="#m8317db8b34" x="523.824121" y="246.973212" style="stroke: #ffffff; stroke-width: 0.48"/>
     <use xlink:href="#m8317db8b34" x="530.91206" y="232.495692" style="stroke: #ffffff; stroke-width: 0.48"/>
     <use xlink:href="#m8317db8b34" x="538.077889" y="229.42023" style="stroke: #ffffff; stroke-width: 0.48"/>
     <use xlink:href="#m8317db8b34" x="545.243719" y="303.927536" style="stroke: #ffffff; stroke-width: 0.48"/>
     <use xlink:href="#m8317db8b34" x="552.253769" y="174.809468" style="stroke: #ffffff; stroke-width: 0.48"/>
     <use xlink:href="#m8317db8b34" x="559.341709" y="226.281463" style="stroke: #ffffff; stroke-width: 0.48"/>
     <use xlink:href="#m8317db8b34" x="566.507538" y="127.252815" style="stroke: #ffffff; stroke-width: 0.48"/>
     <use xlink:href="#m8317db8b34" x="573.673367" y="155.047891" style="stroke: #ffffff; stroke-width: 0.48"/>
     <use xlink:href="#m8317db8b34" x="580.683417" y="159.572633" style="stroke: #ffffff; stroke-width: 0.48"/>
     <use xlink:href="#m8317db8b34" x="587.771357" y="127.19299" style="stroke: #ffffff; stroke-width: 0.48"/>
     <use xlink:href="#m8317db8b34" x="594.937186" y="217.96164" style="stroke: #ffffff; stroke-width: 0.48"/>
     <use xlink:href="#m8317db8b34" x="602.103015" y="212.930195" style="stroke: #ffffff; stroke-width: 0.48"/>
     <use xlink:href="#m8317db8b34" x="609.190955" y="275.759136" style="stroke: #ffffff; stroke-width: 0.48"/>
     <use xlink:href="#m8317db8b34" x="616.278894" y="215.178074" style="stroke: #ffffff; stroke-width: 0.48"/>
     <use xlink:href="#m8317db8b34" x="623.444724" y="94.810487" style="stroke: #ffffff; stroke-width: 0.48"/>
     <use xlink:href="#m8317db8b34" x="630.610553" y="162.357535" style="stroke: #ffffff; stroke-width: 0.48"/>
     <use xlink:href="#m8317db8b34" x="637.620603" y="210.013329" style="stroke: #ffffff; stroke-width: 0.48"/>
     <use xlink:href="#m8317db8b34" x="644.708543" y="210.250478" style="stroke: #ffffff; stroke-width: 0.48"/>
     <use xlink:href="#m8317db8b34" x="651.874372" y="152.702115" style="stroke: #ffffff; stroke-width: 0.48"/>
     <use xlink:href="#m8317db8b34" x="654.288945" y="170.199258" style="stroke: #ffffff; stroke-width: 0.48"/>
     <use xlink:href="#m8317db8b34" x="659.040201" y="180.399027" style="stroke: #ffffff; stroke-width: 0.48"/>
     <use xlink:href="#m8317db8b34" x="666.050251" y="162.338982" style="stroke: #ffffff; stroke-width: 0.48"/>
     <use xlink:href="#m8317db8b34" x="673.138191" y="147.623338" style="stroke: #ffffff; stroke-width: 0.48"/>
     <use xlink:href="#m8317db8b34" x="680.30402" y="144.863197" style="stroke: #ffffff; stroke-width: 0.48"/>
     <use xlink:href="#m8317db8b34" x="687.469849" y="196.884085" style="stroke: #ffffff; stroke-width: 0.48"/>
     <use xlink:href="#m8317db8b34" x="694.479899" y="205.304977" style="stroke: #ffffff; stroke-width: 0.48"/>
     <use xlink:href="#m8317db8b34" x="701.567839" y="55.8" style="stroke: #ffffff; stroke-width: 0.48"/>
     <use xlink:href="#m8317db8b34" x="708.733668" y="205.286312" style="stroke: #ffffff; stroke-width: 0.48"/>
     <use xlink:href="#m8317db8b34" x="715.899497" y="199.279769" style="stroke: #ffffff; stroke-width: 0.48"/>
     <use xlink:href="#m8317db8b34" x="722.987437" y="189.994318" style="stroke: #ffffff; stroke-width: 0.48"/>
     <use xlink:href="#m8317db8b34" x="725.324121" y="201.551931" style="stroke: #ffffff; stroke-width: 0.48"/>
     <use xlink:href="#m8317db8b34" x="727.738693" y="124.851471" style="stroke: #ffffff; stroke-width: 0.48"/>
     <use xlink:href="#m8317db8b34" x="730.075377" y="117.332819" style="stroke: #ffffff; stroke-width: 0.48"/>
     <use xlink:href="#m8317db8b34" x="732.48995" y="163.184007" style="stroke: #ffffff; stroke-width: 0.48"/>
     <use xlink:href="#m8317db8b34" x="734.904523" y="174.33274" style="stroke: #ffffff; stroke-width: 0.48"/>
     <use xlink:href="#m8317db8b34" x="737.241206" y="163.716644" style="stroke: #ffffff; stroke-width: 0.48"/>
     <use xlink:href="#m8317db8b34" x="739.655779" y="196.29231" style="stroke: #ffffff; stroke-width: 0.48"/>
     <use xlink:href="#m8317db8b34" x="741.992462" y="235.236924" style="stroke: #ffffff; stroke-width: 0.48"/>
     <use xlink:href="#m8317db8b34" x="744.407035" y="181.974764" style="stroke: #ffffff; stroke-width: 0.48"/>
     <use xlink:href="#m8317db8b34" x="746.821608" y="225.567025" style="stroke: #ffffff; stroke-width: 0.48"/>
     <use xlink:href="#m8317db8b34" x="751.417085" y="222.475077" style="stroke: #ffffff; stroke-width: 0.48"/>
     <use xlink:href="#m8317db8b34" x="758.505025" y="174.193735" style="stroke: #ffffff; stroke-width: 0.48"/>
     <use xlink:href="#m8317db8b34" x="765.670854" y="202.107487" style="stroke: #ffffff; stroke-width: 0.48"/>
     <use xlink:href="#m8317db8b34" x="772.836683" y="227.330407" style="stroke: #ffffff; stroke-width: 0.48"/>
     <use xlink:href="#m8317db8b34" x="779.846734" y="176.514401" style="stroke: #ffffff; stroke-width: 0.48"/>
     <use xlink:href="#m8317db8b34" x="786.934673" y="251.077651" style="stroke: #ffffff; stroke-width: 0.48"/>
     <use xlink:href="#m8317db8b34" x="796.515075" y="239.184036" style="stroke: #ffffff; stroke-width: 0.48"/>
     <use xlink:href="#m8317db8b34" x="801.266332" y="247.615394" style="stroke: #ffffff; stroke-width: 0.48"/>
     <use xlink:href="#m8317db8b34" x="810.613065" y="235.842383" style="stroke: #ffffff; stroke-width: 0.48"/>
     <use xlink:href="#m8317db8b34" x="815.364322" y="286.567092" style="stroke: #ffffff; stroke-width: 0.48"/>
     <use xlink:href="#m8317db8b34" x="822.530151" y="248.968216" style="stroke: #ffffff; stroke-width: 0.48"/>
     <use xlink:href="#m8317db8b34" x="829.69598" y="233.367346" style="stroke: #ffffff; stroke-width: 0.48"/>
     <use xlink:href="#m8317db8b34" x="836.78392" y="258.932417" style="stroke: #ffffff; stroke-width: 0.48"/>
     <use xlink:href="#m8317db8b34" x="846.286432" y="274.805489" style="stroke: #ffffff; stroke-width: 0.48"/>
     <use xlink:href="#m8317db8b34" x="851.037688" y="237.29187" style="stroke: #ffffff; stroke-width: 0.48"/>
     <use xlink:href="#m8317db8b34" x="858.203518" y="261.623566" style="stroke: #ffffff; stroke-width: 0.48"/>
     <use xlink:href="#m8317db8b34" x="865.213568" y="234.959312" style="stroke: #ffffff; stroke-width: 0.48"/>
     <use xlink:href="#m8317db8b34" x="869.964824" y="263.369761" style="stroke: #ffffff; stroke-width: 0.48"/>
     <use xlink:href="#m8317db8b34" x="879.467337" y="260.44054" style="stroke: #ffffff; stroke-width: 0.48"/>
     <use xlink:href="#m8317db8b34" x="886.633166" y="265.993753" style="stroke: #ffffff; stroke-width: 0.48"/>
     <use xlink:href="#m8317db8b34" x="895.979899" y="268.966524" style="stroke: #ffffff; stroke-width: 0.48"/>
     <use xlink:href="#m8317db8b34" x="900.731156" y="236.504823" style="stroke: #ffffff; stroke-width: 0.48"/>
     <use xlink:href="#m8317db8b34" x="907.896985" y="301.754155" style="stroke: #ffffff; stroke-width: 0.48"/>
     <use xlink:href="#m8317db8b34" x="915.062814" y="245.809289" style="stroke: #ffffff; stroke-width: 0.48"/>
     <use xlink:href="#m8317db8b34" x="922.072864" y="307.8" style="stroke: #ffffff; stroke-width: 0.48"/>
     <use xlink:href="#m8317db8b34" x="929.160804" y="299.809611" style="stroke: #ffffff; stroke-width: 0.48"/>
     <use xlink:href="#m8317db8b34" x="936.326633" y="272.525337" style="stroke: #ffffff; stroke-width: 0.48"/>
     <use xlink:href="#m8317db8b34" x="945.907035" y="269.684935" style="stroke: #ffffff; stroke-width: 0.48"/>
     <use xlink:href="#m8317db8b34" x="957.668342" y="263.069407" style="stroke: #ffffff; stroke-width: 0.48"/>
     <use xlink:href="#m8317db8b34" x="967.248744" y="278.282858" style="stroke: #ffffff; stroke-width: 0.48"/>
    </g>
   </g>
  </g>
 </g>
 <defs>
  <clipPath id="pbc2dd0c3ff">
   <rect x="135" y="43.2" width="837" height="277.2"/>
  </clipPath>
 </defs>
</svg>
