<?xml version="1.0" encoding="utf-8" standalone="no"?>
<!DOCTYPE svg PUBLIC "-//W3C//DTD SVG 1.1//EN"
  "http://www.w3.org/Graphics/SVG/1.1/DTD/svg11.dtd">
<svg xmlns:xlink="http://www.w3.org/1999/xlink" width="1080pt" height="360pt" viewBox="0 0 1080 360" xmlns="http://www.w3.org/2000/svg" version="1.1">
 <metadata>
  <rdf:RDF xmlns:dc="http://purl.org/dc/elements/1.1/" xmlns:cc="http://creativecommons.org/ns#" xmlns:rdf="http://www.w3.org/1999/02/22-rdf-syntax-ns#">
   <cc:Work>
    <dc:type rdf:resource="http://purl.org/dc/dcmitype/StillImage"/>
    <dc:date>2024-01-23T18:50:26.429384</dc:date>
    <dc:format>image/svg+xml</dc:format>
    <dc:creator>
     <cc:Agent>
      <dc:title>Matplotlib v3.8.2, https://matplotlib.org/</dc:title>
     </cc:Agent>
    </dc:creator>
   </cc:Work>
  </rdf:RDF>
 </metadata>
 <defs>
  <style type="text/css">*{stroke-linejoin: round; stroke-linecap: butt}</style>
 </defs>
 <g id="figure_1">
  <g id="patch_1">
   <path d="M 0 360 
L 1080 360 
L 1080 0 
L 0 0 
z
" style="fill: #ffffff"/>
  </g>
  <g id="axes_1">
   <g id="patch_2">
    <path d="M 135 320.4 
L 972 320.4 
L 972 43.2 
L 135 43.2 
z
" style="fill: #ffffff"/>
   </g>
   <g id="PolyCollection_1"/>
   <g id="matplotlib.axis_1">
    <g id="xtick_1">
     <g id="line2d_1">
      <defs>
       <path id="m4efd2e7878" d="M 0 0 
L 0 3.5 
" style="stroke: #000000; stroke-width: 0.8"/>
      </defs>
      <g>
       <use xlink:href="#m4efd2e7878" x="226.957399" y="320.4" style="stroke: #000000; stroke-width: 0.8"/>
      </g>
     </g>
     <g id="text_1">
      <!-- 1996 -->
      <g transform="translate(214.232399 334.998438) scale(0.1 -0.1)">
       <defs>
        <path id="DejaVuSans-31" d="M 794 531 
L 1825 531 
L 1825 4091 
L 703 3866 
L 703 4441 
L 1819 4666 
L 2450 4666 
L 2450 531 
L 3481 531 
L 3481 0 
L 794 0 
L 794 531 
z
" transform="scale(0.015625)"/>
        <path id="DejaVuSans-39" d="M 703 97 
L 703 672 
Q 941 559 1184 500 
Q 1428 441 1663 441 
Q 2288 441 2617 861 
Q 2947 1281 2994 2138 
Q 2813 1869 2534 1725 
Q 2256 1581 1919 1581 
Q 1219 1581 811 2004 
Q 403 2428 403 3163 
Q 403 3881 828 4315 
Q 1253 4750 1959 4750 
Q 2769 4750 3195 4129 
Q 3622 3509 3622 2328 
Q 3622 1225 3098 567 
Q 2575 -91 1691 -91 
Q 1453 -91 1209 -44 
Q 966 3 703 97 
z
M 1959 2075 
Q 2384 2075 2632 2365 
Q 2881 2656 2881 3163 
Q 2881 3666 2632 3958 
Q 2384 4250 1959 4250 
Q 1534 4250 1286 3958 
Q 1038 3666 1038 3163 
Q 1038 2656 1286 2365 
Q 1534 2075 1959 2075 
z
" transform="scale(0.015625)"/>
        <path id="DejaVuSans-36" d="M 2113 2584 
Q 1688 2584 1439 2293 
Q 1191 2003 1191 1497 
Q 1191 994 1439 701 
Q 1688 409 2113 409 
Q 2538 409 2786 701 
Q 3034 994 3034 1497 
Q 3034 2003 2786 2293 
Q 2538 2584 2113 2584 
z
M 3366 4563 
L 3366 3988 
Q 3128 4100 2886 4159 
Q 2644 4219 2406 4219 
Q 1781 4219 1451 3797 
Q 1122 3375 1075 2522 
Q 1259 2794 1537 2939 
Q 1816 3084 2150 3084 
Q 2853 3084 3261 2657 
Q 3669 2231 3669 1497 
Q 3669 778 3244 343 
Q 2819 -91 2113 -91 
Q 1303 -91 875 529 
Q 447 1150 447 2328 
Q 447 3434 972 4092 
Q 1497 4750 2381 4750 
Q 2619 4750 2861 4703 
Q 3103 4656 3366 4563 
z
" transform="scale(0.015625)"/>
       </defs>
       <use xlink:href="#DejaVuSans-31"/>
       <use xlink:href="#DejaVuSans-39" x="63.623047"/>
       <use xlink:href="#DejaVuSans-39" x="127.246094"/>
       <use xlink:href="#DejaVuSans-36" x="190.869141"/>
      </g>
     </g>
    </g>
    <g id="xtick_2">
     <g id="line2d_2">
      <g>
       <use xlink:href="#m4efd2e7878" x="346.167479" y="320.4" style="stroke: #000000; stroke-width: 0.8"/>
      </g>
     </g>
     <g id="text_2">
      <!-- 2000 -->
      <g transform="translate(333.442479 334.998438) scale(0.1 -0.1)">
       <defs>
        <path id="DejaVuSans-32" d="M 1228 531 
L 3431 531 
L 3431 0 
L 469 0 
L 469 531 
Q 828 903 1448 1529 
Q 2069 2156 2228 2338 
Q 2531 2678 2651 2914 
Q 2772 3150 2772 3378 
Q 2772 3750 2511 3984 
Q 2250 4219 1831 4219 
Q 1534 4219 1204 4116 
Q 875 4013 500 3803 
L 500 4441 
Q 881 4594 1212 4672 
Q 1544 4750 1819 4750 
Q 2544 4750 2975 4387 
Q 3406 4025 3406 3419 
Q 3406 3131 3298 2873 
Q 3191 2616 2906 2266 
Q 2828 2175 2409 1742 
Q 1991 1309 1228 531 
z
" transform="scale(0.015625)"/>
        <path id="DejaVuSans-30" d="M 2034 4250 
Q 1547 4250 1301 3770 
Q 1056 3291 1056 2328 
Q 1056 1369 1301 889 
Q 1547 409 2034 409 
Q 2525 409 2770 889 
Q 3016 1369 3016 2328 
Q 3016 3291 2770 3770 
Q 2525 4250 2034 4250 
z
M 2034 4750 
Q 2819 4750 3233 4129 
Q 3647 3509 3647 2328 
Q 3647 1150 3233 529 
Q 2819 -91 2034 -91 
Q 1250 -91 836 529 
Q 422 1150 422 2328 
Q 422 3509 836 4129 
Q 1250 4750 2034 4750 
z
" transform="scale(0.015625)"/>
       </defs>
       <use xlink:href="#DejaVuSans-32"/>
       <use xlink:href="#DejaVuSans-30" x="63.623047"/>
       <use xlink:href="#DejaVuSans-30" x="127.246094"/>
       <use xlink:href="#DejaVuSans-30" x="190.869141"/>
      </g>
     </g>
    </g>
    <g id="xtick_3">
     <g id="line2d_3">
      <g>
       <use xlink:href="#m4efd2e7878" x="465.377559" y="320.4" style="stroke: #000000; stroke-width: 0.8"/>
      </g>
     </g>
     <g id="text_3">
      <!-- 2004 -->
      <g transform="translate(452.652559 334.998438) scale(0.1 -0.1)">
       <defs>
        <path id="DejaVuSans-34" d="M 2419 4116 
L 825 1625 
L 2419 1625 
L 2419 4116 
z
M 2253 4666 
L 3047 4666 
L 3047 1625 
L 3713 1625 
L 3713 1100 
L 3047 1100 
L 3047 0 
L 2419 0 
L 2419 1100 
L 313 1100 
L 313 1709 
L 2253 4666 
z
" transform="scale(0.015625)"/>
       </defs>
       <use xlink:href="#DejaVuSans-32"/>
       <use xlink:href="#DejaVuSans-30" x="63.623047"/>
       <use xlink:href="#DejaVuSans-30" x="127.246094"/>
       <use xlink:href="#DejaVuSans-34" x="190.869141"/>
      </g>
     </g>
    </g>
    <g id="xtick_4">
     <g id="line2d_4">
      <g>
       <use xlink:href="#m4efd2e7878" x="584.587639" y="320.4" style="stroke: #000000; stroke-width: 0.8"/>
      </g>
     </g>
     <g id="text_4">
      <!-- 2008 -->
      <g transform="translate(571.862639 334.998438) scale(0.1 -0.1)">
       <defs>
        <path id="DejaVuSans-38" d="M 2034 2216 
Q 1584 2216 1326 1975 
Q 1069 1734 1069 1313 
Q 1069 891 1326 650 
Q 1584 409 2034 409 
Q 2484 409 2743 651 
Q 3003 894 3003 1313 
Q 3003 1734 2745 1975 
Q 2488 2216 2034 2216 
z
M 1403 2484 
Q 997 2584 770 2862 
Q 544 3141 544 3541 
Q 544 4100 942 4425 
Q 1341 4750 2034 4750 
Q 2731 4750 3128 4425 
Q 3525 4100 3525 3541 
Q 3525 3141 3298 2862 
Q 3072 2584 2669 2484 
Q 3125 2378 3379 2068 
Q 3634 1759 3634 1313 
Q 3634 634 3220 271 
Q 2806 -91 2034 -91 
Q 1263 -91 848 271 
Q 434 634 434 1313 
Q 434 1759 690 2068 
Q 947 2378 1403 2484 
z
M 1172 3481 
Q 1172 3119 1398 2916 
Q 1625 2713 2034 2713 
Q 2441 2713 2670 2916 
Q 2900 3119 2900 3481 
Q 2900 3844 2670 4047 
Q 2441 4250 2034 4250 
Q 1625 4250 1398 4047 
Q 1172 3844 1172 3481 
z
" transform="scale(0.015625)"/>
       </defs>
       <use xlink:href="#DejaVuSans-32"/>
       <use xlink:href="#DejaVuSans-30" x="63.623047"/>
       <use xlink:href="#DejaVuSans-30" x="127.246094"/>
       <use xlink:href="#DejaVuSans-38" x="190.869141"/>
      </g>
     </g>
    </g>
    <g id="xtick_5">
     <g id="line2d_5">
      <g>
       <use xlink:href="#m4efd2e7878" x="703.797719" y="320.4" style="stroke: #000000; stroke-width: 0.8"/>
      </g>
     </g>
     <g id="text_5">
      <!-- 2012 -->
      <g transform="translate(691.072719 334.998438) scale(0.1 -0.1)">
       <use xlink:href="#DejaVuSans-32"/>
       <use xlink:href="#DejaVuSans-30" x="63.623047"/>
       <use xlink:href="#DejaVuSans-31" x="127.246094"/>
       <use xlink:href="#DejaVuSans-32" x="190.869141"/>
      </g>
     </g>
    </g>
    <g id="xtick_6">
     <g id="line2d_6">
      <g>
       <use xlink:href="#m4efd2e7878" x="823.007799" y="320.4" style="stroke: #000000; stroke-width: 0.8"/>
      </g>
     </g>
     <g id="text_6">
      <!-- 2016 -->
      <g transform="translate(810.282799 334.998438) scale(0.1 -0.1)">
       <use xlink:href="#DejaVuSans-32"/>
       <use xlink:href="#DejaVuSans-30" x="63.623047"/>
       <use xlink:href="#DejaVuSans-31" x="127.246094"/>
       <use xlink:href="#DejaVuSans-36" x="190.869141"/>
      </g>
     </g>
    </g>
    <g id="xtick_7">
     <g id="line2d_7">
      <g>
       <use xlink:href="#m4efd2e7878" x="942.217879" y="320.4" style="stroke: #000000; stroke-width: 0.8"/>
      </g>
     </g>
     <g id="text_7">
      <!-- 2020 -->
      <g transform="translate(929.492879 334.998438) scale(0.1 -0.1)">
       <use xlink:href="#DejaVuSans-32"/>
       <use xlink:href="#DejaVuSans-30" x="63.623047"/>
       <use xlink:href="#DejaVuSans-32" x="127.246094"/>
       <use xlink:href="#DejaVuSans-30" x="190.869141"/>
      </g>
     </g>
    </g>
   </g>
   <g id="matplotlib.axis_2">
    <g id="ytick_1">
     <g id="line2d_8">
      <defs>
       <path id="m45b1429b95" d="M 0 0 
L -3.5 0 
" style="stroke: #000000; stroke-width: 0.8"/>
      </defs>
      <g>
       <use xlink:href="#m45b1429b95" x="135" y="304.476176" style="stroke: #000000; stroke-width: 0.8"/>
      </g>
     </g>
     <g id="text_8">
      <!-- −2 -->
      <g transform="translate(113.257812 308.275394) scale(0.1 -0.1)">
       <defs>
        <path id="DejaVuSans-2212" d="M 678 2272 
L 4684 2272 
L 4684 1741 
L 678 1741 
L 678 2272 
z
" transform="scale(0.015625)"/>
       </defs>
       <use xlink:href="#DejaVuSans-2212"/>
       <use xlink:href="#DejaVuSans-32" x="83.789062"/>
      </g>
     </g>
    </g>
    <g id="ytick_2">
     <g id="line2d_9">
      <g>
       <use xlink:href="#m45b1429b95" x="135" y="243.138088" style="stroke: #000000; stroke-width: 0.8"/>
      </g>
     </g>
     <g id="text_9">
      <!-- −1 -->
      <g transform="translate(113.257812 246.937307) scale(0.1 -0.1)">
       <use xlink:href="#DejaVuSans-2212"/>
       <use xlink:href="#DejaVuSans-31" x="83.789062"/>
      </g>
     </g>
    </g>
    <g id="ytick_3">
     <g id="line2d_10">
      <g>
       <use xlink:href="#m45b1429b95" x="135" y="181.8" style="stroke: #000000; stroke-width: 0.8"/>
      </g>
     </g>
     <g id="text_10">
      <!-- 0 -->
      <g transform="translate(121.6375 185.599219) scale(0.1 -0.1)">
       <use xlink:href="#DejaVuSans-30"/>
      </g>
     </g>
    </g>
    <g id="ytick_4">
     <g id="line2d_11">
      <g>
       <use xlink:href="#m45b1429b95" x="135" y="120.461912" style="stroke: #000000; stroke-width: 0.8"/>
      </g>
     </g>
     <g id="text_11">
      <!-- 1 -->
      <g transform="translate(121.6375 124.261131) scale(0.1 -0.1)">
       <use xlink:href="#DejaVuSans-31"/>
      </g>
     </g>
    </g>
    <g id="ytick_5">
     <g id="line2d_12">
      <g>
       <use xlink:href="#m45b1429b95" x="135" y="59.123824" style="stroke: #000000; stroke-width: 0.8"/>
      </g>
     </g>
     <g id="text_12">
      <!-- 2 -->
      <g transform="translate(121.6375 62.923043) scale(0.1 -0.1)">
       <use xlink:href="#DejaVuSans-32"/>
      </g>
     </g>
    </g>
    <g id="text_13">
     <!-- SGI -->
     <g transform="translate(107.178125 190.323437) rotate(-90) scale(0.1 -0.1)">
      <defs>
       <path id="DejaVuSans-53" d="M 3425 4513 
L 3425 3897 
Q 3066 4069 2747 4153 
Q 2428 4238 2131 4238 
Q 1616 4238 1336 4038 
Q 1056 3838 1056 3469 
Q 1056 3159 1242 3001 
Q 1428 2844 1947 2747 
L 2328 2669 
Q 3034 2534 3370 2195 
Q 3706 1856 3706 1288 
Q 3706 609 3251 259 
Q 2797 -91 1919 -91 
Q 1588 -91 1214 -16 
Q 841 59 441 206 
L 441 856 
Q 825 641 1194 531 
Q 1563 422 1919 422 
Q 2459 422 2753 634 
Q 3047 847 3047 1241 
Q 3047 1584 2836 1778 
Q 2625 1972 2144 2069 
L 1759 2144 
Q 1053 2284 737 2584 
Q 422 2884 422 3419 
Q 422 4038 858 4394 
Q 1294 4750 2059 4750 
Q 2388 4750 2728 4690 
Q 3069 4631 3425 4513 
z
" transform="scale(0.015625)"/>
       <path id="DejaVuSans-47" d="M 3809 666 
L 3809 1919 
L 2778 1919 
L 2778 2438 
L 4434 2438 
L 4434 434 
Q 4069 175 3628 42 
Q 3188 -91 2688 -91 
Q 1594 -91 976 548 
Q 359 1188 359 2328 
Q 359 3472 976 4111 
Q 1594 4750 2688 4750 
Q 3144 4750 3555 4637 
Q 3966 4525 4313 4306 
L 4313 3634 
Q 3963 3931 3569 4081 
Q 3175 4231 2741 4231 
Q 1884 4231 1454 3753 
Q 1025 3275 1025 2328 
Q 1025 1384 1454 906 
Q 1884 428 2741 428 
Q 3075 428 3337 486 
Q 3600 544 3809 666 
z
" transform="scale(0.015625)"/>
       <path id="DejaVuSans-49" d="M 628 4666 
L 1259 4666 
L 1259 0 
L 628 0 
L 628 4666 
z
" transform="scale(0.015625)"/>
      </defs>
      <use xlink:href="#DejaVuSans-53"/>
      <use xlink:href="#DejaVuSans-47" x="63.476562"/>
      <use xlink:href="#DejaVuSans-49" x="140.966797"/>
     </g>
    </g>
   </g>
   <g id="line2d_13">
    <path d="M 135 66.495085 
L 137.52944 59.071139 
L 140.058881 56.66028 
L 142.343537 56.06074 
L 147.320823 142.513794 
L 154.827549 231.903744 
L 157.35699 266.945791 
L 159.804835 287.302478 
L 162.334276 275.301733 
L 164.782121 219.365571 
L 172.125658 218.743584 
L 179.632384 231.251229 
L 187.139111 226.643758 
L 194.564243 220.487867 
L 201.907779 169.729601 
L 204.43722 125.659518 
L 206.885065 104.556248 
L 209.414506 180.69423 
L 211.862351 245.821231 
L 214.391792 290.812973 
L 219.369078 211.549179 
L 221.898518 193.429434 
L 226.875804 118.445552 
L 229.405245 125.633668 
L 231.771495 113.426809 
L 234.300936 86.413344 
L 236.748781 127.434011 
L 241.726067 277.935538 
L 244.255508 203.308928 
L 246.784948 212.261195 
L 251.762234 173.614123 
L 254.21008 104.124741 
L 256.73952 109.594049 
L 259.268961 102.440805 
L 261.553617 90.879959 
L 264.083057 55.8 
L 266.530903 63.718545 
L 269.060343 174.167143 
L 271.508189 191.140525 
L 279.014915 149.5341 
L 281.544356 91.918865 
L 283.992201 81.402965 
L 286.521642 105.412883 
L 289.051082 147.890149 
L 291.335738 122.573641 
L 296.313024 85.583574 
L 301.29031 211.34845 
L 303.81975 216.097263 
L 306.349191 157.496083 
L 308.797036 204.496572 
L 311.326477 156.71573 
L 313.774322 155.880401 
L 316.303763 148.578807 
L 318.833203 134.935287 
L 321.117859 123.634634 
L 323.6473 103.181209 
L 326.095145 118.841107 
L 328.624586 208.339964 
L 331.072431 236.675271 
L 333.601872 231.552906 
L 336.131312 208.260395 
L 338.579158 210.308004 
L 341.108598 192.594354 
L 343.556444 190.815846 
L 346.085884 184.584553 
L 348.615325 175.754236 
L 350.981575 171.975377 
L 353.511016 163.08915 
L 355.958861 187.779247 
L 358.488302 211.179725 
L 360.936147 158.677882 
L 365.995028 251.646668 
L 368.442874 206.404362 
L 370.972314 126.33609 
L 378.479041 180.321418 
L 380.763697 176.147126 
L 383.293137 169.439239 
L 385.740983 216.015051 
L 388.270423 211.532669 
L 390.718269 203.832544 
L 393.247709 225.655777 
L 395.77715 207.345992 
L 398.224995 254.861761 
L 400.754436 245.667291 
L 408.261162 253.306789 
L 410.545818 246.839243 
L 413.075258 248.066742 
L 415.523104 269.734992 
L 418.052544 265.624543 
L 420.50039 300.718422 
L 423.02983 257.90456 
L 425.559271 260.199722 
L 428.007116 101.894646 
L 430.536557 133.949148 
L 438.043283 142.741173 
L 440.327939 203.518082 
L 442.85738 175.654169 
L 445.305225 215.401387 
L 452.811952 243.10333 
L 455.341392 272.283556 
L 457.789238 293.610023 
L 460.318678 290.126207 
L 462.766524 307.771368 
L 465.295964 304.528861 
L 467.825405 259.003964 
L 470.191655 253.589203 
L 472.721096 260.418791 
L 475.168941 263.822946 
L 477.698382 257.511643 
L 480.146227 253.868581 
L 482.675668 217.841245 
L 485.205108 235.614707 
L 487.652954 130.524148 
L 490.182394 182.637422 
L 497.689121 224.909941 
L 499.973777 211.032629 
L 502.503217 229.151194 
L 504.951063 257.107554 
L 507.480503 219.341004 
L 509.928349 127.47225 
L 512.457789 171.985898 
L 514.987229 201.363148 
L 517.435075 182.334644 
L 519.964516 228.417324 
L 522.412361 248.45565 
L 524.941802 234.664266 
L 527.471242 217.235558 
L 529.755898 211.365173 
L 532.285338 213.941273 
L 534.733184 190.521915 
L 537.262624 149.832167 
L 539.71047 150.058473 
L 542.23991 172.024615 
L 544.769351 188.588222 
L 547.217196 229.415111 
L 549.746637 237.914146 
L 552.194482 252.127854 
L 554.723923 240.494699 
L 557.253363 219.256665 
L 559.538019 211.393639 
L 562.06746 207.072735 
L 564.515305 179.035343 
L 572.022032 131.935144 
L 574.551472 181.948853 
L 576.999318 220.907204 
L 579.528758 152.368718 
L 581.976604 124.488535 
L 584.506044 154.520168 
L 587.035484 158.221012 
L 589.401735 162.433379 
L 591.931176 149.658727 
L 594.379021 195.247777 
L 596.908462 227.015512 
L 599.356307 179.903781 
L 601.885748 119.948783 
L 604.415188 105.16667 
L 606.863034 135.816575 
L 609.392474 171.702591 
L 611.84032 143.927261 
L 614.36976 141.571955 
L 616.899201 153.083807 
L 619.183857 139.910768 
L 621.713297 134.448806 
L 624.161143 148.38067 
L 626.690583 159.834725 
L 629.138429 151.901505 
L 631.667869 178.420984 
L 634.197309 125.986719 
L 636.645155 108.901549 
L 639.174595 163.303107 
L 641.622441 161.156939 
L 644.151881 167.959201 
L 646.681322 170.134428 
L 648.965978 166.710592 
L 651.495418 156.527265 
L 653.943264 176.517566 
L 656.472704 123.004008 
L 658.92055 110.482324 
L 661.44999 136.728813 
L 666.427276 148.888594 
L 668.956717 173.582015 
L 671.404562 170.441151 
L 673.934003 171.038416 
L 676.463443 169.436127 
L 678.748099 159.684918 
L 681.277539 142.358277 
L 683.725385 153.998741 
L 686.254826 180.469624 
L 688.702671 190.955192 
L 691.232112 148.555976 
L 693.761552 165.112481 
L 696.209398 175.367942 
L 698.738838 128.118348 
L 701.186684 125.93285 
L 703.716124 124.956347 
L 706.245564 133.328281 
L 708.611815 129.171018 
L 711.141256 115.533258 
L 713.589101 155.979518 
L 716.118542 172.856815 
L 718.566387 108.387331 
L 721.095828 103.651132 
L 723.625268 139.83474 
L 726.073114 159.710322 
L 728.602554 176.771379 
L 731.0504 192.328862 
L 733.57984 201.835273 
L 736.109281 191.477195 
L 738.393936 191.258958 
L 740.923377 195.157447 
L 743.371222 225.7049 
L 745.900663 212.992865 
L 748.348508 209.200037 
L 750.877949 196.576461 
L 753.407389 187.001704 
L 755.855235 227.182399 
L 758.384675 214.599018 
L 760.832521 252.875312 
L 763.361961 270.110374 
L 765.891402 259.815361 
L 768.176058 264.053049 
L 770.705498 307.8 
L 773.153344 221.008883 
L 775.682784 193.275534 
L 778.13063 153.69861 
L 780.66007 145.198248 
L 783.189511 103.13222 
L 785.637356 145.037799 
L 788.166797 165.753241 
L 790.614642 173.67578 
L 793.144083 189.994768 
L 795.673523 186.781928 
L 797.958179 184.633606 
L 800.487619 199.491333 
L 802.935465 188.268001 
L 805.464905 135.986545 
L 807.912751 170.069356 
L 810.442191 112.796348 
L 812.971632 136.128031 
L 815.419477 164.831711 
L 817.948918 114.011039 
L 820.396764 167.288567 
L 822.926204 205.079311 
L 825.455644 201.210935 
L 827.821895 215.697759 
L 832.799181 258.737987 
L 835.328622 156.115253 
L 837.776467 117.508667 
L 840.305908 146.070964 
L 842.835348 176.390266 
L 845.283194 233.450879 
L 847.812634 223.811056 
L 850.26048 256.190532 
L 852.78992 258.093961 
L 855.31936 249.359299 
L 857.604016 260.133416 
L 860.133457 277.186656 
L 862.581302 230.411221 
L 865.110743 102.885252 
L 867.558588 170.167381 
L 870.088029 151.509877 
L 872.617469 140.317637 
L 875.065315 83.625992 
L 877.594755 113.690232 
L 880.042601 189.508913 
L 882.572041 215.526361 
L 885.101482 205.115008 
L 887.386138 211.252419 
L 889.915578 221.241723 
L 894.892864 106.434022 
L 897.34071 184.209275 
L 899.87015 177.632076 
L 902.399591 147.242518 
L 904.847436 123.796767 
L 907.376877 191.720202 
L 909.824722 186.739438 
L 912.354163 179.763854 
L 914.883603 179.634702 
L 917.168259 181.232546 
L 919.697699 187.945831 
L 922.145545 161.939296 
L 924.674985 175.050642 
L 927.122831 119.014467 
L 929.652271 173.373967 
L 932.181712 147.988173 
L 934.629557 161.979906 
L 937.158998 210.227131 
L 939.606843 199.444249 
L 944.665724 205.364724 
L 947.031975 198.015643 
L 949.561415 181.799994 
L 954.538702 121.323901 
L 956.986547 189.595348 
L 959.515988 164.114062 
L 962.045428 170.322164 
L 964.493274 199.680149 
L 967.022714 204.3735 
L 969.47056 197.995613 
L 972 219.285706 
L 972 219.285706 
" clip-path="url(#pb478eec1d2)" style="fill: none; stroke: #7f7f7f; stroke-width: 1.5; stroke-linecap: square"/>
   </g>
   <g id="line2d_14">
    <path d="M 135 181.8 
L 972 181.8 
" clip-path="url(#pb478eec1d2)" style="fill: none; stroke: #000000; stroke-width: 1.5; stroke-linecap: square"/>
   </g>
   <g id="patch_3">
    <path d="M 135 320.4 
L 135 43.2 
" style="fill: none; stroke: #000000; stroke-width: 0.8; stroke-linejoin: miter; stroke-linecap: square"/>
   </g>
   <g id="patch_4">
    <path d="M 135 320.4 
L 972 320.4 
" style="fill: none; stroke: #000000; stroke-width: 0.8; stroke-linejoin: miter; stroke-linecap: square"/>
   </g>
   <g id="text_14">
    <!-- SGI for GWIC ID 96132 -->
    <g transform="translate(135 37.2) scale(0.12 -0.12)">
     <defs>
      <path id="DejaVuSans-Bold-53" d="M 3834 4519 
L 3834 3531 
Q 3450 3703 3084 3790 
Q 2719 3878 2394 3878 
Q 1963 3878 1756 3759 
Q 1550 3641 1550 3391 
Q 1550 3203 1689 3098 
Q 1828 2994 2194 2919 
L 2706 2816 
Q 3484 2659 3812 2340 
Q 4141 2022 4141 1434 
Q 4141 663 3683 286 
Q 3225 -91 2284 -91 
Q 1841 -91 1394 -6 
Q 947 78 500 244 
L 500 1259 
Q 947 1022 1364 901 
Q 1781 781 2169 781 
Q 2563 781 2772 912 
Q 2981 1044 2981 1288 
Q 2981 1506 2839 1625 
Q 2697 1744 2272 1838 
L 1806 1941 
Q 1106 2091 782 2419 
Q 459 2747 459 3303 
Q 459 4000 909 4375 
Q 1359 4750 2203 4750 
Q 2588 4750 2994 4692 
Q 3400 4634 3834 4519 
z
" transform="scale(0.015625)"/>
      <path id="DejaVuSans-Bold-47" d="M 4781 347 
Q 4331 128 3847 18 
Q 3363 -91 2847 -91 
Q 1681 -91 1000 561 
Q 319 1213 319 2328 
Q 319 3456 1012 4103 
Q 1706 4750 2913 4750 
Q 3378 4750 3804 4662 
Q 4231 4575 4609 4403 
L 4609 3438 
Q 4219 3659 3833 3768 
Q 3447 3878 3059 3878 
Q 2341 3878 1952 3476 
Q 1563 3075 1563 2328 
Q 1563 1588 1938 1184 
Q 2313 781 3003 781 
Q 3191 781 3352 804 
Q 3513 828 3641 878 
L 3641 1784 
L 2906 1784 
L 2906 2591 
L 4781 2591 
L 4781 347 
z
" transform="scale(0.015625)"/>
      <path id="DejaVuSans-Bold-49" d="M 588 4666 
L 1791 4666 
L 1791 0 
L 588 0 
L 588 4666 
z
" transform="scale(0.015625)"/>
      <path id="DejaVuSans-Bold-20" transform="scale(0.015625)"/>
      <path id="DejaVuSans-Bold-66" d="M 2841 4863 
L 2841 4128 
L 2222 4128 
Q 1984 4128 1890 4042 
Q 1797 3956 1797 3744 
L 1797 3500 
L 2753 3500 
L 2753 2700 
L 1797 2700 
L 1797 0 
L 678 0 
L 678 2700 
L 122 2700 
L 122 3500 
L 678 3500 
L 678 3744 
Q 678 4316 997 4589 
Q 1316 4863 1984 4863 
L 2841 4863 
z
" transform="scale(0.015625)"/>
      <path id="DejaVuSans-Bold-6f" d="M 2203 2784 
Q 1831 2784 1636 2517 
Q 1441 2250 1441 1747 
Q 1441 1244 1636 976 
Q 1831 709 2203 709 
Q 2569 709 2762 976 
Q 2956 1244 2956 1747 
Q 2956 2250 2762 2517 
Q 2569 2784 2203 2784 
z
M 2203 3584 
Q 3106 3584 3614 3096 
Q 4122 2609 4122 1747 
Q 4122 884 3614 396 
Q 3106 -91 2203 -91 
Q 1297 -91 786 396 
Q 275 884 275 1747 
Q 275 2609 786 3096 
Q 1297 3584 2203 3584 
z
" transform="scale(0.015625)"/>
      <path id="DejaVuSans-Bold-72" d="M 3138 2547 
Q 2991 2616 2845 2648 
Q 2700 2681 2553 2681 
Q 2122 2681 1889 2404 
Q 1656 2128 1656 1613 
L 1656 0 
L 538 0 
L 538 3500 
L 1656 3500 
L 1656 2925 
Q 1872 3269 2151 3426 
Q 2431 3584 2822 3584 
Q 2878 3584 2943 3579 
Q 3009 3575 3134 3559 
L 3138 2547 
z
" transform="scale(0.015625)"/>
      <path id="DejaVuSans-Bold-57" d="M 191 4666 
L 1344 4666 
L 2150 1275 
L 2950 4666 
L 4109 4666 
L 4909 1275 
L 5716 4666 
L 6859 4666 
L 5759 0 
L 4372 0 
L 3525 3547 
L 2688 0 
L 1300 0 
L 191 4666 
z
" transform="scale(0.015625)"/>
      <path id="DejaVuSans-Bold-43" d="M 4288 256 
Q 3956 84 3597 -3 
Q 3238 -91 2847 -91 
Q 1681 -91 1000 561 
Q 319 1213 319 2328 
Q 319 3447 1000 4098 
Q 1681 4750 2847 4750 
Q 3238 4750 3597 4662 
Q 3956 4575 4288 4403 
L 4288 3438 
Q 3953 3666 3628 3772 
Q 3303 3878 2944 3878 
Q 2300 3878 1931 3465 
Q 1563 3053 1563 2328 
Q 1563 1606 1931 1193 
Q 2300 781 2944 781 
Q 3303 781 3628 887 
Q 3953 994 4288 1222 
L 4288 256 
z
" transform="scale(0.015625)"/>
      <path id="DejaVuSans-Bold-44" d="M 1791 3756 
L 1791 909 
L 2222 909 
Q 2959 909 3348 1275 
Q 3738 1641 3738 2338 
Q 3738 3031 3350 3393 
Q 2963 3756 2222 3756 
L 1791 3756 
z
M 588 4666 
L 1856 4666 
Q 2919 4666 3439 4514 
Q 3959 4363 4331 4000 
Q 4659 3684 4818 3271 
Q 4978 2859 4978 2338 
Q 4978 1809 4818 1395 
Q 4659 981 4331 666 
Q 3956 303 3431 151 
Q 2906 0 1856 0 
L 588 0 
L 588 4666 
z
" transform="scale(0.015625)"/>
      <path id="DejaVuSans-Bold-39" d="M 641 103 
L 641 966 
Q 928 831 1190 764 
Q 1453 697 1709 697 
Q 2247 697 2547 995 
Q 2847 1294 2900 1881 
Q 2688 1725 2447 1647 
Q 2206 1569 1925 1569 
Q 1209 1569 770 1986 
Q 331 2403 331 3084 
Q 331 3838 820 4291 
Q 1309 4744 2131 4744 
Q 3044 4744 3544 4128 
Q 4044 3513 4044 2388 
Q 4044 1231 3459 570 
Q 2875 -91 1856 -91 
Q 1528 -91 1228 -42 
Q 928 6 641 103 
z
M 2125 2350 
Q 2441 2350 2600 2554 
Q 2759 2759 2759 3169 
Q 2759 3575 2600 3781 
Q 2441 3988 2125 3988 
Q 1809 3988 1650 3781 
Q 1491 3575 1491 3169 
Q 1491 2759 1650 2554 
Q 1809 2350 2125 2350 
z
" transform="scale(0.015625)"/>
      <path id="DejaVuSans-Bold-36" d="M 2316 2303 
Q 2000 2303 1842 2098 
Q 1684 1894 1684 1484 
Q 1684 1075 1842 870 
Q 2000 666 2316 666 
Q 2634 666 2792 870 
Q 2950 1075 2950 1484 
Q 2950 1894 2792 2098 
Q 2634 2303 2316 2303 
z
M 3803 4544 
L 3803 3681 
Q 3506 3822 3243 3889 
Q 2981 3956 2731 3956 
Q 2194 3956 1894 3657 
Q 1594 3359 1544 2772 
Q 1750 2925 1990 3001 
Q 2231 3078 2516 3078 
Q 3231 3078 3670 2659 
Q 4109 2241 4109 1563 
Q 4109 813 3618 361 
Q 3128 -91 2303 -91 
Q 1394 -91 895 523 
Q 397 1138 397 2266 
Q 397 3422 980 4083 
Q 1563 4744 2578 4744 
Q 2900 4744 3203 4694 
Q 3506 4644 3803 4544 
z
" transform="scale(0.015625)"/>
      <path id="DejaVuSans-Bold-31" d="M 750 831 
L 1813 831 
L 1813 3847 
L 722 3622 
L 722 4441 
L 1806 4666 
L 2950 4666 
L 2950 831 
L 4013 831 
L 4013 0 
L 750 0 
L 750 831 
z
" transform="scale(0.015625)"/>
      <path id="DejaVuSans-Bold-33" d="M 2981 2516 
Q 3453 2394 3698 2092 
Q 3944 1791 3944 1325 
Q 3944 631 3412 270 
Q 2881 -91 1863 -91 
Q 1503 -91 1142 -33 
Q 781 25 428 141 
L 428 1069 
Q 766 900 1098 814 
Q 1431 728 1753 728 
Q 2231 728 2486 893 
Q 2741 1059 2741 1369 
Q 2741 1688 2480 1852 
Q 2219 2016 1709 2016 
L 1228 2016 
L 1228 2791 
L 1734 2791 
Q 2188 2791 2409 2933 
Q 2631 3075 2631 3366 
Q 2631 3634 2415 3781 
Q 2200 3928 1806 3928 
Q 1516 3928 1219 3862 
Q 922 3797 628 3669 
L 628 4550 
Q 984 4650 1334 4700 
Q 1684 4750 2022 4750 
Q 2931 4750 3382 4451 
Q 3834 4153 3834 3553 
Q 3834 3144 3618 2883 
Q 3403 2622 2981 2516 
z
" transform="scale(0.015625)"/>
      <path id="DejaVuSans-Bold-32" d="M 1844 884 
L 3897 884 
L 3897 0 
L 506 0 
L 506 884 
L 2209 2388 
Q 2438 2594 2547 2791 
Q 2656 2988 2656 3200 
Q 2656 3528 2436 3728 
Q 2216 3928 1850 3928 
Q 1569 3928 1234 3808 
Q 900 3688 519 3450 
L 519 4475 
Q 925 4609 1322 4679 
Q 1719 4750 2100 4750 
Q 2938 4750 3402 4381 
Q 3866 4013 3866 3353 
Q 3866 2972 3669 2642 
Q 3472 2313 2841 1759 
L 1844 884 
z
" transform="scale(0.015625)"/>
     </defs>
     <use xlink:href="#DejaVuSans-Bold-53"/>
     <use xlink:href="#DejaVuSans-Bold-47" x="72.021484"/>
     <use xlink:href="#DejaVuSans-Bold-49" x="154.101562"/>
     <use xlink:href="#DejaVuSans-Bold-20" x="191.308594"/>
     <use xlink:href="#DejaVuSans-Bold-66" x="226.123047"/>
     <use xlink:href="#DejaVuSans-Bold-6f" x="269.628906"/>
     <use xlink:href="#DejaVuSans-Bold-72" x="338.330078"/>
     <use xlink:href="#DejaVuSans-Bold-20" x="387.646484"/>
     <use xlink:href="#DejaVuSans-Bold-47" x="422.460938"/>
     <use xlink:href="#DejaVuSans-Bold-57" x="504.541016"/>
     <use xlink:href="#DejaVuSans-Bold-49" x="614.84375"/>
     <use xlink:href="#DejaVuSans-Bold-43" x="652.050781"/>
     <use xlink:href="#DejaVuSans-Bold-20" x="725.439453"/>
     <use xlink:href="#DejaVuSans-Bold-49" x="760.253906"/>
     <use xlink:href="#DejaVuSans-Bold-44" x="797.460938"/>
     <use xlink:href="#DejaVuSans-Bold-20" x="880.46875"/>
     <use xlink:href="#DejaVuSans-Bold-39" x="915.283203"/>
     <use xlink:href="#DejaVuSans-Bold-36" x="984.863281"/>
     <use xlink:href="#DejaVuSans-Bold-31" x="1054.443359"/>
     <use xlink:href="#DejaVuSans-Bold-33" x="1124.023438"/>
     <use xlink:href="#DejaVuSans-Bold-32" x="1193.603516"/>
    </g>
   </g>
   <g id="PathCollection_1">
    <defs>
     <path id="ma13476cd28" d="M 0 3 
C 0.795609 3 1.55874 2.683901 2.12132 2.12132 
C 2.683901 1.55874 3 0.795609 3 0 
C 3 -0.795609 2.683901 -1.55874 2.12132 -2.12132 
C 1.55874 -2.683901 0.795609 -3 0 -3 
C -0.795609 -3 -1.55874 -2.683901 -2.12132 -2.12132 
C -2.683901 -1.55874 -3 -0.795609 -3 0 
C -3 0.795609 -2.683901 1.55874 -2.12132 2.12132 
C -1.55874 2.683901 -0.795609 3 0 3 
z
" style="stroke: #ffffff; stroke-width: 0.48"/>
    </defs>
    <g clip-path="url(#pb478eec1d2)">
     <use xlink:href="#ma13476cd28" x="135" y="66.495085" style="stroke: #ffffff; stroke-width: 0.48"/>
     <use xlink:href="#ma13476cd28" x="137.52944" y="59.071139" style="stroke: #ffffff; stroke-width: 0.48"/>
     <use xlink:href="#ma13476cd28" x="140.058881" y="56.66028" style="stroke: #ffffff; stroke-width: 0.48"/>
     <use xlink:href="#ma13476cd28" x="142.343537" y="56.06074" style="stroke: #ffffff; stroke-width: 0.48"/>
     <use xlink:href="#ma13476cd28" x="147.320823" y="142.513794" style="stroke: #ffffff; stroke-width: 0.48"/>
     <use xlink:href="#ma13476cd28" x="154.827549" y="231.903744" style="stroke: #ffffff; stroke-width: 0.48"/>
     <use xlink:href="#ma13476cd28" x="157.35699" y="266.945791" style="stroke: #ffffff; stroke-width: 0.48"/>
     <use xlink:href="#ma13476cd28" x="159.804835" y="287.302478" style="stroke: #ffffff; stroke-width: 0.48"/>
     <use xlink:href="#ma13476cd28" x="162.334276" y="275.301733" style="stroke: #ffffff; stroke-width: 0.48"/>
     <use xlink:href="#ma13476cd28" x="164.782121" y="219.365571" style="stroke: #ffffff; stroke-width: 0.48"/>
     <use xlink:href="#ma13476cd28" x="172.125658" y="218.743584" style="stroke: #ffffff; stroke-width: 0.48"/>
     <use xlink:href="#ma13476cd28" x="179.632384" y="231.251229" style="stroke: #ffffff; stroke-width: 0.48"/>
     <use xlink:href="#ma13476cd28" x="187.139111" y="226.643758" style="stroke: #ffffff; stroke-width: 0.48"/>
     <use xlink:href="#ma13476cd28" x="194.564243" y="220.487867" style="stroke: #ffffff; stroke-width: 0.48"/>
     <use xlink:href="#ma13476cd28" x="201.907779" y="169.729601" style="stroke: #ffffff; stroke-width: 0.48"/>
     <use xlink:href="#ma13476cd28" x="204.43722" y="125.659518" style="stroke: #ffffff; stroke-width: 0.48"/>
     <use xlink:href="#ma13476cd28" x="206.885065" y="104.556248" style="stroke: #ffffff; stroke-width: 0.48"/>
     <use xlink:href="#ma13476cd28" x="209.414506" y="180.69423" style="stroke: #ffffff; stroke-width: 0.48"/>
     <use xlink:href="#ma13476cd28" x="211.862351" y="245.821231" style="stroke: #ffffff; stroke-width: 0.48"/>
     <use xlink:href="#ma13476cd28" x="214.391792" y="290.812973" style="stroke: #ffffff; stroke-width: 0.48"/>
     <use xlink:href="#ma13476cd28" x="219.369078" y="211.549179" style="stroke: #ffffff; stroke-width: 0.48"/>
     <use xlink:href="#ma13476cd28" x="221.898518" y="193.429434" style="stroke: #ffffff; stroke-width: 0.48"/>
     <use xlink:href="#ma13476cd28" x="224.346364" y="155.718302" style="stroke: #ffffff; stroke-width: 0.48"/>
     <use xlink:href="#ma13476cd28" x="226.875804" y="118.445552" style="stroke: #ffffff; stroke-width: 0.48"/>
     <use xlink:href="#ma13476cd28" x="229.405245" y="125.633668" style="stroke: #ffffff; stroke-width: 0.48"/>
     <use xlink:href="#ma13476cd28" x="231.771495" y="113.426809" style="stroke: #ffffff; stroke-width: 0.48"/>
     <use xlink:href="#ma13476cd28" x="234.300936" y="86.413344" style="stroke: #ffffff; stroke-width: 0.48"/>
     <use xlink:href="#ma13476cd28" x="236.748781" y="127.434011" style="stroke: #ffffff; stroke-width: 0.48"/>
     <use xlink:href="#ma13476cd28" x="241.726067" y="277.935538" style="stroke: #ffffff; stroke-width: 0.48"/>
     <use xlink:href="#ma13476cd28" x="244.255508" y="203.308928" style="stroke: #ffffff; stroke-width: 0.48"/>
     <use xlink:href="#ma13476cd28" x="246.784948" y="212.261195" style="stroke: #ffffff; stroke-width: 0.48"/>
     <use xlink:href="#ma13476cd28" x="251.762234" y="173.614123" style="stroke: #ffffff; stroke-width: 0.48"/>
     <use xlink:href="#ma13476cd28" x="254.21008" y="104.124741" style="stroke: #ffffff; stroke-width: 0.48"/>
     <use xlink:href="#ma13476cd28" x="256.73952" y="109.594049" style="stroke: #ffffff; stroke-width: 0.48"/>
     <use xlink:href="#ma13476cd28" x="259.268961" y="102.440805" style="stroke: #ffffff; stroke-width: 0.48"/>
     <use xlink:href="#ma13476cd28" x="261.553617" y="90.879959" style="stroke: #ffffff; stroke-width: 0.48"/>
     <use xlink:href="#ma13476cd28" x="264.083057" y="55.8" style="stroke: #ffffff; stroke-width: 0.48"/>
     <use xlink:href="#ma13476cd28" x="266.530903" y="63.718545" style="stroke: #ffffff; stroke-width: 0.48"/>
     <use xlink:href="#ma13476cd28" x="269.060343" y="174.167143" style="stroke: #ffffff; stroke-width: 0.48"/>
     <use xlink:href="#ma13476cd28" x="271.508189" y="191.140525" style="stroke: #ffffff; stroke-width: 0.48"/>
     <use xlink:href="#ma13476cd28" x="279.014915" y="149.5341" style="stroke: #ffffff; stroke-width: 0.48"/>
     <use xlink:href="#ma13476cd28" x="281.544356" y="91.918865" style="stroke: #ffffff; stroke-width: 0.48"/>
     <use xlink:href="#ma13476cd28" x="283.992201" y="81.402965" style="stroke: #ffffff; stroke-width: 0.48"/>
     <use xlink:href="#ma13476cd28" x="286.521642" y="105.412883" style="stroke: #ffffff; stroke-width: 0.48"/>
     <use xlink:href="#ma13476cd28" x="289.051082" y="147.890149" style="stroke: #ffffff; stroke-width: 0.48"/>
     <use xlink:href="#ma13476cd28" x="291.335738" y="122.573641" style="stroke: #ffffff; stroke-width: 0.48"/>
     <use xlink:href="#ma13476cd28" x="296.313024" y="85.583574" style="stroke: #ffffff; stroke-width: 0.48"/>
     <use xlink:href="#ma13476cd28" x="301.29031" y="211.34845" style="stroke: #ffffff; stroke-width: 0.48"/>
     <use xlink:href="#ma13476cd28" x="303.81975" y="216.097263" style="stroke: #ffffff; stroke-width: 0.48"/>
     <use xlink:href="#ma13476cd28" x="306.349191" y="157.496083" style="stroke: #ffffff; stroke-width: 0.48"/>
     <use xlink:href="#ma13476cd28" x="308.797036" y="204.496572" style="stroke: #ffffff; stroke-width: 0.48"/>
     <use xlink:href="#ma13476cd28" x="311.326477" y="156.71573" style="stroke: #ffffff; stroke-width: 0.48"/>
     <use xlink:href="#ma13476cd28" x="313.774322" y="155.880401" style="stroke: #ffffff; stroke-width: 0.48"/>
     <use xlink:href="#ma13476cd28" x="316.303763" y="148.578807" style="stroke: #ffffff; stroke-width: 0.48"/>
     <use xlink:href="#ma13476cd28" x="318.833203" y="134.935287" style="stroke: #ffffff; stroke-width: 0.48"/>
     <use xlink:href="#ma13476cd28" x="321.117859" y="123.634634" style="stroke: #ffffff; stroke-width: 0.48"/>
     <use xlink:href="#ma13476cd28" x="323.6473" y="103.181209" style="stroke: #ffffff; stroke-width: 0.48"/>
     <use xlink:href="#ma13476cd28" x="326.095145" y="118.841107" style="stroke: #ffffff; stroke-width: 0.48"/>
     <use xlink:href="#ma13476cd28" x="328.624586" y="208.339964" style="stroke: #ffffff; stroke-width: 0.48"/>
     <use xlink:href="#ma13476cd28" x="331.072431" y="236.675271" style="stroke: #ffffff; stroke-width: 0.48"/>
     <use xlink:href="#ma13476cd28" x="333.601872" y="231.552906" style="stroke: #ffffff; stroke-width: 0.48"/>
     <use xlink:href="#ma13476cd28" x="336.131312" y="208.260395" style="stroke: #ffffff; stroke-width: 0.48"/>
     <use xlink:href="#ma13476cd28" x="338.579158" y="210.308004" style="stroke: #ffffff; stroke-width: 0.48"/>
     <use xlink:href="#ma13476cd28" x="341.108598" y="192.594354" style="stroke: #ffffff; stroke-width: 0.48"/>
     <use xlink:href="#ma13476cd28" x="343.556444" y="190.815846" style="stroke: #ffffff; stroke-width: 0.48"/>
     <use xlink:href="#ma13476cd28" x="346.085884" y="184.584553" style="stroke: #ffffff; stroke-width: 0.48"/>
     <use xlink:href="#ma13476cd28" x="348.615325" y="175.754236" style="stroke: #ffffff; stroke-width: 0.48"/>
     <use xlink:href="#ma13476cd28" x="350.981575" y="171.975377" style="stroke: #ffffff; stroke-width: 0.48"/>
     <use xlink:href="#ma13476cd28" x="353.511016" y="163.08915" style="stroke: #ffffff; stroke-width: 0.48"/>
     <use xlink:href="#ma13476cd28" x="355.958861" y="187.779247" style="stroke: #ffffff; stroke-width: 0.48"/>
     <use xlink:href="#ma13476cd28" x="358.488302" y="211.179725" style="stroke: #ffffff; stroke-width: 0.48"/>
     <use xlink:href="#ma13476cd28" x="360.936147" y="158.677882" style="stroke: #ffffff; stroke-width: 0.48"/>
     <use xlink:href="#ma13476cd28" x="363.465588" y="205.062492" style="stroke: #ffffff; stroke-width: 0.48"/>
     <use xlink:href="#ma13476cd28" x="365.995028" y="251.646668" style="stroke: #ffffff; stroke-width: 0.48"/>
     <use xlink:href="#ma13476cd28" x="368.442874" y="206.404362" style="stroke: #ffffff; stroke-width: 0.48"/>
     <use xlink:href="#ma13476cd28" x="370.972314" y="126.33609" style="stroke: #ffffff; stroke-width: 0.48"/>
     <use xlink:href="#ma13476cd28" x="378.479041" y="180.321418" style="stroke: #ffffff; stroke-width: 0.48"/>
     <use xlink:href="#ma13476cd28" x="380.763697" y="176.147126" style="stroke: #ffffff; stroke-width: 0.48"/>
     <use xlink:href="#ma13476cd28" x="383.293137" y="169.439239" style="stroke: #ffffff; stroke-width: 0.48"/>
     <use xlink:href="#ma13476cd28" x="385.740983" y="216.015051" style="stroke: #ffffff; stroke-width: 0.48"/>
     <use xlink:href="#ma13476cd28" x="388.270423" y="211.532669" style="stroke: #ffffff; stroke-width: 0.48"/>
     <use xlink:href="#ma13476cd28" x="390.718269" y="203.832544" style="stroke: #ffffff; stroke-width: 0.48"/>
     <use xlink:href="#ma13476cd28" x="393.247709" y="225.655777" style="stroke: #ffffff; stroke-width: 0.48"/>
     <use xlink:href="#ma13476cd28" x="395.77715" y="207.345992" style="stroke: #ffffff; stroke-width: 0.48"/>
     <use xlink:href="#ma13476cd28" x="398.224995" y="254.861761" style="stroke: #ffffff; stroke-width: 0.48"/>
     <use xlink:href="#ma13476cd28" x="400.754436" y="245.667291" style="stroke: #ffffff; stroke-width: 0.48"/>
     <use xlink:href="#ma13476cd28" x="408.261162" y="253.306789" style="stroke: #ffffff; stroke-width: 0.48"/>
     <use xlink:href="#ma13476cd28" x="410.545818" y="246.839243" style="stroke: #ffffff; stroke-width: 0.48"/>
     <use xlink:href="#ma13476cd28" x="413.075258" y="248.066742" style="stroke: #ffffff; stroke-width: 0.48"/>
     <use xlink:href="#ma13476cd28" x="415.523104" y="269.734992" style="stroke: #ffffff; stroke-width: 0.48"/>
     <use xlink:href="#ma13476cd28" x="418.052544" y="265.624543" style="stroke: #ffffff; stroke-width: 0.48"/>
     <use xlink:href="#ma13476cd28" x="420.50039" y="300.718422" style="stroke: #ffffff; stroke-width: 0.48"/>
     <use xlink:href="#ma13476cd28" x="423.02983" y="257.90456" style="stroke: #ffffff; stroke-width: 0.48"/>
     <use xlink:href="#ma13476cd28" x="425.559271" y="260.199722" style="stroke: #ffffff; stroke-width: 0.48"/>
     <use xlink:href="#ma13476cd28" x="428.007116" y="101.894646" style="stroke: #ffffff; stroke-width: 0.48"/>
     <use xlink:href="#ma13476cd28" x="430.536557" y="133.949148" style="stroke: #ffffff; stroke-width: 0.48"/>
     <use xlink:href="#ma13476cd28" x="438.043283" y="142.741173" style="stroke: #ffffff; stroke-width: 0.48"/>
     <use xlink:href="#ma13476cd28" x="440.327939" y="203.518082" style="stroke: #ffffff; stroke-width: 0.48"/>
     <use xlink:href="#ma13476cd28" x="442.85738" y="175.654169" style="stroke: #ffffff; stroke-width: 0.48"/>
     <use xlink:href="#ma13476cd28" x="445.305225" y="215.401387" style="stroke: #ffffff; stroke-width: 0.48"/>
     <use xlink:href="#ma13476cd28" x="452.811952" y="243.10333" style="stroke: #ffffff; stroke-width: 0.48"/>
     <use xlink:href="#ma13476cd28" x="455.341392" y="272.283556" style="stroke: #ffffff; stroke-width: 0.48"/>
     <use xlink:href="#ma13476cd28" x="457.789238" y="293.610023" style="stroke: #ffffff; stroke-width: 0.48"/>
     <use xlink:href="#ma13476cd28" x="460.318678" y="290.126207" style="stroke: #ffffff; stroke-width: 0.48"/>
     <use xlink:href="#ma13476cd28" x="462.766524" y="307.771368" style="stroke: #ffffff; stroke-width: 0.48"/>
     <use xlink:href="#ma13476cd28" x="465.295964" y="304.528861" style="stroke: #ffffff; stroke-width: 0.48"/>
     <use xlink:href="#ma13476cd28" x="467.825405" y="259.003964" style="stroke: #ffffff; stroke-width: 0.48"/>
     <use xlink:href="#ma13476cd28" x="470.191655" y="253.589203" style="stroke: #ffffff; stroke-width: 0.48"/>
     <use xlink:href="#ma13476cd28" x="472.721096" y="260.418791" style="stroke: #ffffff; stroke-width: 0.48"/>
     <use xlink:href="#ma13476cd28" x="475.168941" y="263.822946" style="stroke: #ffffff; stroke-width: 0.48"/>
     <use xlink:href="#ma13476cd28" x="477.698382" y="257.511643" style="stroke: #ffffff; stroke-width: 0.48"/>
     <use xlink:href="#ma13476cd28" x="480.146227" y="253.868581" style="stroke: #ffffff; stroke-width: 0.48"/>
     <use xlink:href="#ma13476cd28" x="482.675668" y="217.841245" style="stroke: #ffffff; stroke-width: 0.48"/>
     <use xlink:href="#ma13476cd28" x="485.205108" y="235.614707" style="stroke: #ffffff; stroke-width: 0.48"/>
     <use xlink:href="#ma13476cd28" x="487.652954" y="130.524148" style="stroke: #ffffff; stroke-width: 0.48"/>
     <use xlink:href="#ma13476cd28" x="490.182394" y="182.637422" style="stroke: #ffffff; stroke-width: 0.48"/>
     <use xlink:href="#ma13476cd28" x="497.689121" y="224.909941" style="stroke: #ffffff; stroke-width: 0.48"/>
     <use xlink:href="#ma13476cd28" x="499.973777" y="211.032629" style="stroke: #ffffff; stroke-width: 0.48"/>
     <use xlink:href="#ma13476cd28" x="502.503217" y="229.151194" style="stroke: #ffffff; stroke-width: 0.48"/>
     <use xlink:href="#ma13476cd28" x="504.951063" y="257.107554" style="stroke: #ffffff; stroke-width: 0.48"/>
     <use xlink:href="#ma13476cd28" x="507.480503" y="219.341004" style="stroke: #ffffff; stroke-width: 0.48"/>
     <use xlink:href="#ma13476cd28" x="509.928349" y="127.47225" style="stroke: #ffffff; stroke-width: 0.48"/>
     <use xlink:href="#ma13476cd28" x="512.457789" y="171.985898" style="stroke: #ffffff; stroke-width: 0.48"/>
     <use xlink:href="#ma13476cd28" x="514.987229" y="201.363148" style="stroke: #ffffff; stroke-width: 0.48"/>
     <use xlink:href="#ma13476cd28" x="517.435075" y="182.334644" style="stroke: #ffffff; stroke-width: 0.48"/>
     <use xlink:href="#ma13476cd28" x="519.964516" y="228.417324" style="stroke: #ffffff; stroke-width: 0.48"/>
     <use xlink:href="#ma13476cd28" x="522.412361" y="248.45565" style="stroke: #ffffff; stroke-width: 0.48"/>
     <use xlink:href="#ma13476cd28" x="524.941802" y="234.664266" style="stroke: #ffffff; stroke-width: 0.48"/>
     <use xlink:href="#ma13476cd28" x="527.471242" y="217.235558" style="stroke: #ffffff; stroke-width: 0.48"/>
     <use xlink:href="#ma13476cd28" x="529.755898" y="211.365173" style="stroke: #ffffff; stroke-width: 0.48"/>
     <use xlink:href="#ma13476cd28" x="532.285338" y="213.941273" style="stroke: #ffffff; stroke-width: 0.48"/>
     <use xlink:href="#ma13476cd28" x="534.733184" y="190.521915" style="stroke: #ffffff; stroke-width: 0.48"/>
     <use xlink:href="#ma13476cd28" x="537.262624" y="149.832167" style="stroke: #ffffff; stroke-width: 0.48"/>
     <use xlink:href="#ma13476cd28" x="539.71047" y="150.058473" style="stroke: #ffffff; stroke-width: 0.48"/>
     <use xlink:href="#ma13476cd28" x="542.23991" y="172.024615" style="stroke: #ffffff; stroke-width: 0.48"/>
     <use xlink:href="#ma13476cd28" x="544.769351" y="188.588222" style="stroke: #ffffff; stroke-width: 0.48"/>
     <use xlink:href="#ma13476cd28" x="547.217196" y="229.415111" style="stroke: #ffffff; stroke-width: 0.48"/>
     <use xlink:href="#ma13476cd28" x="549.746637" y="237.914146" style="stroke: #ffffff; stroke-width: 0.48"/>
     <use xlink:href="#ma13476cd28" x="552.194482" y="252.127854" style="stroke: #ffffff; stroke-width: 0.48"/>
     <use xlink:href="#ma13476cd28" x="554.723923" y="240.494699" style="stroke: #ffffff; stroke-width: 0.48"/>
     <use xlink:href="#ma13476cd28" x="557.253363" y="219.256665" style="stroke: #ffffff; stroke-width: 0.48"/>
     <use xlink:href="#ma13476cd28" x="559.538019" y="211.393639" style="stroke: #ffffff; stroke-width: 0.48"/>
     <use xlink:href="#ma13476cd28" x="562.06746" y="207.072735" style="stroke: #ffffff; stroke-width: 0.48"/>
     <use xlink:href="#ma13476cd28" x="564.515305" y="179.035343" style="stroke: #ffffff; stroke-width: 0.48"/>
     <use xlink:href="#ma13476cd28" x="572.022032" y="131.935144" style="stroke: #ffffff; stroke-width: 0.48"/>
     <use xlink:href="#ma13476cd28" x="574.551472" y="181.948853" style="stroke: #ffffff; stroke-width: 0.48"/>
     <use xlink:href="#ma13476cd28" x="576.999318" y="220.907204" style="stroke: #ffffff; stroke-width: 0.48"/>
     <use xlink:href="#ma13476cd28" x="579.528758" y="152.368718" style="stroke: #ffffff; stroke-width: 0.48"/>
     <use xlink:href="#ma13476cd28" x="581.976604" y="124.488535" style="stroke: #ffffff; stroke-width: 0.48"/>
     <use xlink:href="#ma13476cd28" x="584.506044" y="154.520168" style="stroke: #ffffff; stroke-width: 0.48"/>
     <use xlink:href="#ma13476cd28" x="587.035484" y="158.221012" style="stroke: #ffffff; stroke-width: 0.48"/>
     <use xlink:href="#ma13476cd28" x="589.401735" y="162.433379" style="stroke: #ffffff; stroke-width: 0.48"/>
     <use xlink:href="#ma13476cd28" x="591.931176" y="149.658727" style="stroke: #ffffff; stroke-width: 0.48"/>
     <use xlink:href="#ma13476cd28" x="594.379021" y="195.247777" style="stroke: #ffffff; stroke-width: 0.48"/>
     <use xlink:href="#ma13476cd28" x="596.908462" y="227.015512" style="stroke: #ffffff; stroke-width: 0.48"/>
     <use xlink:href="#ma13476cd28" x="599.356307" y="179.903781" style="stroke: #ffffff; stroke-width: 0.48"/>
     <use xlink:href="#ma13476cd28" x="601.885748" y="119.948783" style="stroke: #ffffff; stroke-width: 0.48"/>
     <use xlink:href="#ma13476cd28" x="604.415188" y="105.16667" style="stroke: #ffffff; stroke-width: 0.48"/>
     <use xlink:href="#ma13476cd28" x="606.863034" y="135.816575" style="stroke: #ffffff; stroke-width: 0.48"/>
     <use xlink:href="#ma13476cd28" x="609.392474" y="171.702591" style="stroke: #ffffff; stroke-width: 0.48"/>
     <use xlink:href="#ma13476cd28" x="611.84032" y="143.927261" style="stroke: #ffffff; stroke-width: 0.48"/>
     <use xlink:href="#ma13476cd28" x="614.36976" y="141.571955" style="stroke: #ffffff; stroke-width: 0.48"/>
     <use xlink:href="#ma13476cd28" x="616.899201" y="153.083807" style="stroke: #ffffff; stroke-width: 0.48"/>
     <use xlink:href="#ma13476cd28" x="619.183857" y="139.910768" style="stroke: #ffffff; stroke-width: 0.48"/>
     <use xlink:href="#ma13476cd28" x="621.713297" y="134.448806" style="stroke: #ffffff; stroke-width: 0.48"/>
     <use xlink:href="#ma13476cd28" x="624.161143" y="148.38067" style="stroke: #ffffff; stroke-width: 0.48"/>
     <use xlink:href="#ma13476cd28" x="626.690583" y="159.834725" style="stroke: #ffffff; stroke-width: 0.48"/>
     <use xlink:href="#ma13476cd28" x="629.138429" y="151.901505" style="stroke: #ffffff; stroke-width: 0.48"/>
     <use xlink:href="#ma13476cd28" x="631.667869" y="178.420984" style="stroke: #ffffff; stroke-width: 0.48"/>
     <use xlink:href="#ma13476cd28" x="634.197309" y="125.986719" style="stroke: #ffffff; stroke-width: 0.48"/>
     <use xlink:href="#ma13476cd28" x="636.645155" y="108.901549" style="stroke: #ffffff; stroke-width: 0.48"/>
     <use xlink:href="#ma13476cd28" x="639.174595" y="163.303107" style="stroke: #ffffff; stroke-width: 0.48"/>
     <use xlink:href="#ma13476cd28" x="641.622441" y="161.156939" style="stroke: #ffffff; stroke-width: 0.48"/>
     <use xlink:href="#ma13476cd28" x="644.151881" y="167.959201" style="stroke: #ffffff; stroke-width: 0.48"/>
     <use xlink:href="#ma13476cd28" x="646.681322" y="170.134428" style="stroke: #ffffff; stroke-width: 0.48"/>
     <use xlink:href="#ma13476cd28" x="648.965978" y="166.710592" style="stroke: #ffffff; stroke-width: 0.48"/>
     <use xlink:href="#ma13476cd28" x="651.495418" y="156.527265" style="stroke: #ffffff; stroke-width: 0.48"/>
     <use xlink:href="#ma13476cd28" x="653.943264" y="176.517566" style="stroke: #ffffff; stroke-width: 0.48"/>
     <use xlink:href="#ma13476cd28" x="656.472704" y="123.004008" style="stroke: #ffffff; stroke-width: 0.48"/>
     <use xlink:href="#ma13476cd28" x="658.92055" y="110.482324" style="stroke: #ffffff; stroke-width: 0.48"/>
     <use xlink:href="#ma13476cd28" x="661.44999" y="136.728813" style="stroke: #ffffff; stroke-width: 0.48"/>
     <use xlink:href="#ma13476cd28" x="663.979431" y="142.818488" style="stroke: #ffffff; stroke-width: 0.48"/>
     <use xlink:href="#ma13476cd28" x="666.427276" y="148.888594" style="stroke: #ffffff; stroke-width: 0.48"/>
     <use xlink:href="#ma13476cd28" x="668.956717" y="173.582015" style="stroke: #ffffff; stroke-width: 0.48"/>
     <use xlink:href="#ma13476cd28" x="671.404562" y="170.441151" style="stroke: #ffffff; stroke-width: 0.48"/>
     <use xlink:href="#ma13476cd28" x="673.934003" y="171.038416" style="stroke: #ffffff; stroke-width: 0.48"/>
     <use xlink:href="#ma13476cd28" x="676.463443" y="169.436127" style="stroke: #ffffff; stroke-width: 0.48"/>
     <use xlink:href="#ma13476cd28" x="678.748099" y="159.684918" style="stroke: #ffffff; stroke-width: 0.48"/>
     <use xlink:href="#ma13476cd28" x="681.277539" y="142.358277" style="stroke: #ffffff; stroke-width: 0.48"/>
     <use xlink:href="#ma13476cd28" x="683.725385" y="153.998741" style="stroke: #ffffff; stroke-width: 0.48"/>
     <use xlink:href="#ma13476cd28" x="686.254826" y="180.469624" style="stroke: #ffffff; stroke-width: 0.48"/>
     <use xlink:href="#ma13476cd28" x="688.702671" y="190.955192" style="stroke: #ffffff; stroke-width: 0.48"/>
     <use xlink:href="#ma13476cd28" x="691.232112" y="148.555976" style="stroke: #ffffff; stroke-width: 0.48"/>
     <use xlink:href="#ma13476cd28" x="693.761552" y="165.112481" style="stroke: #ffffff; stroke-width: 0.48"/>
     <use xlink:href="#ma13476cd28" x="696.209398" y="175.367942" style="stroke: #ffffff; stroke-width: 0.48"/>
     <use xlink:href="#ma13476cd28" x="698.738838" y="128.118348" style="stroke: #ffffff; stroke-width: 0.48"/>
     <use xlink:href="#ma13476cd28" x="701.186684" y="125.93285" style="stroke: #ffffff; stroke-width: 0.48"/>
     <use xlink:href="#ma13476cd28" x="703.716124" y="124.956347" style="stroke: #ffffff; stroke-width: 0.48"/>
     <use xlink:href="#ma13476cd28" x="706.245564" y="133.328281" style="stroke: #ffffff; stroke-width: 0.48"/>
     <use xlink:href="#ma13476cd28" x="708.611815" y="129.171018" style="stroke: #ffffff; stroke-width: 0.48"/>
     <use xlink:href="#ma13476cd28" x="711.141256" y="115.533258" style="stroke: #ffffff; stroke-width: 0.48"/>
     <use xlink:href="#ma13476cd28" x="713.589101" y="155.979518" style="stroke: #ffffff; stroke-width: 0.48"/>
     <use xlink:href="#ma13476cd28" x="716.118542" y="172.856815" style="stroke: #ffffff; stroke-width: 0.48"/>
     <use xlink:href="#ma13476cd28" x="718.566387" y="108.387331" style="stroke: #ffffff; stroke-width: 0.48"/>
     <use xlink:href="#ma13476cd28" x="721.095828" y="103.651132" style="stroke: #ffffff; stroke-width: 0.48"/>
     <use xlink:href="#ma13476cd28" x="723.625268" y="139.83474" style="stroke: #ffffff; stroke-width: 0.48"/>
     <use xlink:href="#ma13476cd28" x="726.073114" y="159.710322" style="stroke: #ffffff; stroke-width: 0.48"/>
     <use xlink:href="#ma13476cd28" x="728.602554" y="176.771379" style="stroke: #ffffff; stroke-width: 0.48"/>
     <use xlink:href="#ma13476cd28" x="731.0504" y="192.328862" style="stroke: #ffffff; stroke-width: 0.48"/>
     <use xlink:href="#ma13476cd28" x="733.57984" y="201.835273" style="stroke: #ffffff; stroke-width: 0.48"/>
     <use xlink:href="#ma13476cd28" x="736.109281" y="191.477195" style="stroke: #ffffff; stroke-width: 0.48"/>
     <use xlink:href="#ma13476cd28" x="738.393936" y="191.258958" style="stroke: #ffffff; stroke-width: 0.48"/>
     <use xlink:href="#ma13476cd28" x="740.923377" y="195.157447" style="stroke: #ffffff; stroke-width: 0.48"/>
     <use xlink:href="#ma13476cd28" x="743.371222" y="225.7049" style="stroke: #ffffff; stroke-width: 0.48"/>
     <use xlink:href="#ma13476cd28" x="745.900663" y="212.992865" style="stroke: #ffffff; stroke-width: 0.48"/>
     <use xlink:href="#ma13476cd28" x="748.348508" y="209.200037" style="stroke: #ffffff; stroke-width: 0.48"/>
     <use xlink:href="#ma13476cd28" x="750.877949" y="196.576461" style="stroke: #ffffff; stroke-width: 0.48"/>
     <use xlink:href="#ma13476cd28" x="753.407389" y="187.001704" style="stroke: #ffffff; stroke-width: 0.48"/>
     <use xlink:href="#ma13476cd28" x="755.855235" y="227.182399" style="stroke: #ffffff; stroke-width: 0.48"/>
     <use xlink:href="#ma13476cd28" x="758.384675" y="214.599018" style="stroke: #ffffff; stroke-width: 0.48"/>
     <use xlink:href="#ma13476cd28" x="760.832521" y="252.875312" style="stroke: #ffffff; stroke-width: 0.48"/>
     <use xlink:href="#ma13476cd28" x="763.361961" y="270.110374" style="stroke: #ffffff; stroke-width: 0.48"/>
     <use xlink:href="#ma13476cd28" x="765.891402" y="259.815361" style="stroke: #ffffff; stroke-width: 0.48"/>
     <use xlink:href="#ma13476cd28" x="768.176058" y="264.053049" style="stroke: #ffffff; stroke-width: 0.48"/>
     <use xlink:href="#ma13476cd28" x="770.705498" y="307.8" style="stroke: #ffffff; stroke-width: 0.48"/>
     <use xlink:href="#ma13476cd28" x="773.153344" y="221.008883" style="stroke: #ffffff; stroke-width: 0.48"/>
     <use xlink:href="#ma13476cd28" x="775.682784" y="193.275534" style="stroke: #ffffff; stroke-width: 0.48"/>
     <use xlink:href="#ma13476cd28" x="778.13063" y="153.69861" style="stroke: #ffffff; stroke-width: 0.48"/>
     <use xlink:href="#ma13476cd28" x="780.66007" y="145.198248" style="stroke: #ffffff; stroke-width: 0.48"/>
     <use xlink:href="#ma13476cd28" x="783.189511" y="103.13222" style="stroke: #ffffff; stroke-width: 0.48"/>
     <use xlink:href="#ma13476cd28" x="785.637356" y="145.037799" style="stroke: #ffffff; stroke-width: 0.48"/>
     <use xlink:href="#ma13476cd28" x="788.166797" y="165.753241" style="stroke: #ffffff; stroke-width: 0.48"/>
     <use xlink:href="#ma13476cd28" x="790.614642" y="173.67578" style="stroke: #ffffff; stroke-width: 0.48"/>
     <use xlink:href="#ma13476cd28" x="793.144083" y="189.994768" style="stroke: #ffffff; stroke-width: 0.48"/>
     <use xlink:href="#ma13476cd28" x="795.673523" y="186.781928" style="stroke: #ffffff; stroke-width: 0.48"/>
     <use xlink:href="#ma13476cd28" x="797.958179" y="184.633606" style="stroke: #ffffff; stroke-width: 0.48"/>
     <use xlink:href="#ma13476cd28" x="800.487619" y="199.491333" style="stroke: #ffffff; stroke-width: 0.48"/>
     <use xlink:href="#ma13476cd28" x="802.935465" y="188.268001" style="stroke: #ffffff; stroke-width: 0.48"/>
     <use xlink:href="#ma13476cd28" x="805.464905" y="135.986545" style="stroke: #ffffff; stroke-width: 0.48"/>
     <use xlink:href="#ma13476cd28" x="807.912751" y="170.069356" style="stroke: #ffffff; stroke-width: 0.48"/>
     <use xlink:href="#ma13476cd28" x="810.442191" y="112.796348" style="stroke: #ffffff; stroke-width: 0.48"/>
     <use xlink:href="#ma13476cd28" x="812.971632" y="136.128031" style="stroke: #ffffff; stroke-width: 0.48"/>
     <use xlink:href="#ma13476cd28" x="815.419477" y="164.831711" style="stroke: #ffffff; stroke-width: 0.48"/>
     <use xlink:href="#ma13476cd28" x="817.948918" y="114.011039" style="stroke: #ffffff; stroke-width: 0.48"/>
     <use xlink:href="#ma13476cd28" x="820.396764" y="167.288567" style="stroke: #ffffff; stroke-width: 0.48"/>
     <use xlink:href="#ma13476cd28" x="822.926204" y="205.079311" style="stroke: #ffffff; stroke-width: 0.48"/>
     <use xlink:href="#ma13476cd28" x="825.455644" y="201.210935" style="stroke: #ffffff; stroke-width: 0.48"/>
     <use xlink:href="#ma13476cd28" x="827.821895" y="215.697759" style="stroke: #ffffff; stroke-width: 0.48"/>
     <use xlink:href="#ma13476cd28" x="830.351336" y="237.940482" style="stroke: #ffffff; stroke-width: 0.48"/>
     <use xlink:href="#ma13476cd28" x="832.799181" y="258.737987" style="stroke: #ffffff; stroke-width: 0.48"/>
     <use xlink:href="#ma13476cd28" x="835.328622" y="156.115253" style="stroke: #ffffff; stroke-width: 0.48"/>
     <use xlink:href="#ma13476cd28" x="837.776467" y="117.508667" style="stroke: #ffffff; stroke-width: 0.48"/>
     <use xlink:href="#ma13476cd28" x="840.305908" y="146.070964" style="stroke: #ffffff; stroke-width: 0.48"/>
     <use xlink:href="#ma13476cd28" x="842.835348" y="176.390266" style="stroke: #ffffff; stroke-width: 0.48"/>
     <use xlink:href="#ma13476cd28" x="845.283194" y="233.450879" style="stroke: #ffffff; stroke-width: 0.48"/>
     <use xlink:href="#ma13476cd28" x="847.812634" y="223.811056" style="stroke: #ffffff; stroke-width: 0.48"/>
     <use xlink:href="#ma13476cd28" x="850.26048" y="256.190532" style="stroke: #ffffff; stroke-width: 0.48"/>
     <use xlink:href="#ma13476cd28" x="852.78992" y="258.093961" style="stroke: #ffffff; stroke-width: 0.48"/>
     <use xlink:href="#ma13476cd28" x="855.31936" y="249.359299" style="stroke: #ffffff; stroke-width: 0.48"/>
     <use xlink:href="#ma13476cd28" x="857.604016" y="260.133416" style="stroke: #ffffff; stroke-width: 0.48"/>
     <use xlink:href="#ma13476cd28" x="860.133457" y="277.186656" style="stroke: #ffffff; stroke-width: 0.48"/>
     <use xlink:href="#ma13476cd28" x="862.581302" y="230.411221" style="stroke: #ffffff; stroke-width: 0.48"/>
     <use xlink:href="#ma13476cd28" x="865.110743" y="102.885252" style="stroke: #ffffff; stroke-width: 0.48"/>
     <use xlink:href="#ma13476cd28" x="867.558588" y="170.167381" style="stroke: #ffffff; stroke-width: 0.48"/>
     <use xlink:href="#ma13476cd28" x="870.088029" y="151.509877" style="stroke: #ffffff; stroke-width: 0.48"/>
     <use xlink:href="#ma13476cd28" x="872.617469" y="140.317637" style="stroke: #ffffff; stroke-width: 0.48"/>
     <use xlink:href="#ma13476cd28" x="875.065315" y="83.625992" style="stroke: #ffffff; stroke-width: 0.48"/>
     <use xlink:href="#ma13476cd28" x="877.594755" y="113.690232" style="stroke: #ffffff; stroke-width: 0.48"/>
     <use xlink:href="#ma13476cd28" x="880.042601" y="189.508913" style="stroke: #ffffff; stroke-width: 0.48"/>
     <use xlink:href="#ma13476cd28" x="882.572041" y="215.526361" style="stroke: #ffffff; stroke-width: 0.48"/>
     <use xlink:href="#ma13476cd28" x="885.101482" y="205.115008" style="stroke: #ffffff; stroke-width: 0.48"/>
     <use xlink:href="#ma13476cd28" x="887.386138" y="211.252419" style="stroke: #ffffff; stroke-width: 0.48"/>
     <use xlink:href="#ma13476cd28" x="889.915578" y="221.241723" style="stroke: #ffffff; stroke-width: 0.48"/>
     <use xlink:href="#ma13476cd28" x="892.363424" y="163.652763" style="stroke: #ffffff; stroke-width: 0.48"/>
     <use xlink:href="#ma13476cd28" x="894.892864" y="106.434022" style="stroke: #ffffff; stroke-width: 0.48"/>
     <use xlink:href="#ma13476cd28" x="897.34071" y="184.209275" style="stroke: #ffffff; stroke-width: 0.48"/>
     <use xlink:href="#ma13476cd28" x="899.87015" y="177.632076" style="stroke: #ffffff; stroke-width: 0.48"/>
     <use xlink:href="#ma13476cd28" x="902.399591" y="147.242518" style="stroke: #ffffff; stroke-width: 0.48"/>
     <use xlink:href="#ma13476cd28" x="904.847436" y="123.796767" style="stroke: #ffffff; stroke-width: 0.48"/>
     <use xlink:href="#ma13476cd28" x="907.376877" y="191.720202" style="stroke: #ffffff; stroke-width: 0.48"/>
     <use xlink:href="#ma13476cd28" x="909.824722" y="186.739438" style="stroke: #ffffff; stroke-width: 0.48"/>
     <use xlink:href="#ma13476cd28" x="912.354163" y="179.763854" style="stroke: #ffffff; stroke-width: 0.48"/>
     <use xlink:href="#ma13476cd28" x="914.883603" y="179.634702" style="stroke: #ffffff; stroke-width: 0.48"/>
     <use xlink:href="#ma13476cd28" x="917.168259" y="181.232546" style="stroke: #ffffff; stroke-width: 0.48"/>
     <use xlink:href="#ma13476cd28" x="919.697699" y="187.945831" style="stroke: #ffffff; stroke-width: 0.48"/>
     <use xlink:href="#ma13476cd28" x="922.145545" y="161.939296" style="stroke: #ffffff; stroke-width: 0.48"/>
     <use xlink:href="#ma13476cd28" x="924.674985" y="175.050642" style="stroke: #ffffff; stroke-width: 0.48"/>
     <use xlink:href="#ma13476cd28" x="927.122831" y="119.014467" style="stroke: #ffffff; stroke-width: 0.48"/>
     <use xlink:href="#ma13476cd28" x="929.652271" y="173.373967" style="stroke: #ffffff; stroke-width: 0.48"/>
     <use xlink:href="#ma13476cd28" x="932.181712" y="147.988173" style="stroke: #ffffff; stroke-width: 0.48"/>
     <use xlink:href="#ma13476cd28" x="934.629557" y="161.979906" style="stroke: #ffffff; stroke-width: 0.48"/>
     <use xlink:href="#ma13476cd28" x="937.158998" y="210.227131" style="stroke: #ffffff; stroke-width: 0.48"/>
     <use xlink:href="#ma13476cd28" x="939.606843" y="199.444249" style="stroke: #ffffff; stroke-width: 0.48"/>
     <use xlink:href="#ma13476cd28" x="944.665724" y="205.364724" style="stroke: #ffffff; stroke-width: 0.48"/>
     <use xlink:href="#ma13476cd28" x="947.031975" y="198.015643" style="stroke: #ffffff; stroke-width: 0.48"/>
     <use xlink:href="#ma13476cd28" x="949.561415" y="181.799994" style="stroke: #ffffff; stroke-width: 0.48"/>
     <use xlink:href="#ma13476cd28" x="954.538702" y="121.323901" style="stroke: #ffffff; stroke-width: 0.48"/>
     <use xlink:href="#ma13476cd28" x="956.986547" y="189.595348" style="stroke: #ffffff; stroke-width: 0.48"/>
     <use xlink:href="#ma13476cd28" x="959.515988" y="164.114062" style="stroke: #ffffff; stroke-width: 0.48"/>
     <use xlink:href="#ma13476cd28" x="962.045428" y="170.322164" style="stroke: #ffffff; stroke-width: 0.48"/>
     <use xlink:href="#ma13476cd28" x="964.493274" y="199.680149" style="stroke: #ffffff; stroke-width: 0.48"/>
     <use xlink:href="#ma13476cd28" x="967.022714" y="204.3735" style="stroke: #ffffff; stroke-width: 0.48"/>
     <use xlink:href="#ma13476cd28" x="969.47056" y="197.995613" style="stroke: #ffffff; stroke-width: 0.48"/>
     <use xlink:href="#ma13476cd28" x="972" y="219.285706" style="stroke: #ffffff; stroke-width: 0.48"/>
    </g>
   </g>
  </g>
 </g>
 <defs>
  <clipPath id="pb478eec1d2">
   <rect x="135" y="43.2" width="837" height="277.2"/>
  </clipPath>
 </defs>
</svg>
