<?xml version="1.0" encoding="utf-8" standalone="no"?>
<!DOCTYPE svg PUBLIC "-//W3C//DTD SVG 1.1//EN"
  "http://www.w3.org/Graphics/SVG/1.1/DTD/svg11.dtd">
<svg xmlns:xlink="http://www.w3.org/1999/xlink" width="1080pt" height="360pt" viewBox="0 0 1080 360" xmlns="http://www.w3.org/2000/svg" version="1.1">
 <metadata>
  <rdf:RDF xmlns:dc="http://purl.org/dc/elements/1.1/" xmlns:cc="http://creativecommons.org/ns#" xmlns:rdf="http://www.w3.org/1999/02/22-rdf-syntax-ns#">
   <cc:Work>
    <dc:type rdf:resource="http://purl.org/dc/dcmitype/StillImage"/>
    <dc:date>2024-01-23T18:50:26.154207</dc:date>
    <dc:format>image/svg+xml</dc:format>
    <dc:creator>
     <cc:Agent>
      <dc:title>Matplotlib v3.8.2, https://matplotlib.org/</dc:title>
     </cc:Agent>
    </dc:creator>
   </cc:Work>
  </rdf:RDF>
 </metadata>
 <defs>
  <style type="text/css">*{stroke-linejoin: round; stroke-linecap: butt}</style>
 </defs>
 <g id="figure_1">
  <g id="patch_1">
   <path d="M 0 360 
L 1080 360 
L 1080 0 
L 0 0 
z
" style="fill: #ffffff"/>
  </g>
  <g id="axes_1">
   <g id="patch_2">
    <path d="M 135 320.4 
L 972 320.4 
L 972 43.2 
L 135 43.2 
z
" style="fill: #ffffff"/>
   </g>
   <g id="PolyCollection_1"/>
   <g id="matplotlib.axis_1">
    <g id="xtick_1">
     <g id="line2d_1">
      <defs>
       <path id="m439a1e5e58" d="M 0 0 
L 0 3.5 
" style="stroke: #000000; stroke-width: 0.8"/>
      </defs>
      <g>
       <use xlink:href="#m439a1e5e58" x="229.129957" y="320.4" style="stroke: #000000; stroke-width: 0.8"/>
      </g>
     </g>
     <g id="text_1">
      <!-- 1996 -->
      <g transform="translate(216.404957 334.998438) scale(0.1 -0.1)">
       <defs>
        <path id="DejaVuSans-31" d="M 794 531 
L 1825 531 
L 1825 4091 
L 703 3866 
L 703 4441 
L 1819 4666 
L 2450 4666 
L 2450 531 
L 3481 531 
L 3481 0 
L 794 0 
L 794 531 
z
" transform="scale(0.015625)"/>
        <path id="DejaVuSans-39" d="M 703 97 
L 703 672 
Q 941 559 1184 500 
Q 1428 441 1663 441 
Q 2288 441 2617 861 
Q 2947 1281 2994 2138 
Q 2813 1869 2534 1725 
Q 2256 1581 1919 1581 
Q 1219 1581 811 2004 
Q 403 2428 403 3163 
Q 403 3881 828 4315 
Q 1253 4750 1959 4750 
Q 2769 4750 3195 4129 
Q 3622 3509 3622 2328 
Q 3622 1225 3098 567 
Q 2575 -91 1691 -91 
Q 1453 -91 1209 -44 
Q 966 3 703 97 
z
M 1959 2075 
Q 2384 2075 2632 2365 
Q 2881 2656 2881 3163 
Q 2881 3666 2632 3958 
Q 2384 4250 1959 4250 
Q 1534 4250 1286 3958 
Q 1038 3666 1038 3163 
Q 1038 2656 1286 2365 
Q 1534 2075 1959 2075 
z
" transform="scale(0.015625)"/>
        <path id="DejaVuSans-36" d="M 2113 2584 
Q 1688 2584 1439 2293 
Q 1191 2003 1191 1497 
Q 1191 994 1439 701 
Q 1688 409 2113 409 
Q 2538 409 2786 701 
Q 3034 994 3034 1497 
Q 3034 2003 2786 2293 
Q 2538 2584 2113 2584 
z
M 3366 4563 
L 3366 3988 
Q 3128 4100 2886 4159 
Q 2644 4219 2406 4219 
Q 1781 4219 1451 3797 
Q 1122 3375 1075 2522 
Q 1259 2794 1537 2939 
Q 1816 3084 2150 3084 
Q 2853 3084 3261 2657 
Q 3669 2231 3669 1497 
Q 3669 778 3244 343 
Q 2819 -91 2113 -91 
Q 1303 -91 875 529 
Q 447 1150 447 2328 
Q 447 3434 972 4092 
Q 1497 4750 2381 4750 
Q 2619 4750 2861 4703 
Q 3103 4656 3366 4563 
z
" transform="scale(0.015625)"/>
       </defs>
       <use xlink:href="#DejaVuSans-31"/>
       <use xlink:href="#DejaVuSans-39" x="63.623047"/>
       <use xlink:href="#DejaVuSans-39" x="127.246094"/>
       <use xlink:href="#DejaVuSans-36" x="190.869141"/>
      </g>
     </g>
    </g>
    <g id="xtick_2">
     <g id="line2d_2">
      <g>
       <use xlink:href="#m439a1e5e58" x="347.992418" y="320.4" style="stroke: #000000; stroke-width: 0.8"/>
      </g>
     </g>
     <g id="text_2">
      <!-- 2000 -->
      <g transform="translate(335.267418 334.998438) scale(0.1 -0.1)">
       <defs>
        <path id="DejaVuSans-32" d="M 1228 531 
L 3431 531 
L 3431 0 
L 469 0 
L 469 531 
Q 828 903 1448 1529 
Q 2069 2156 2228 2338 
Q 2531 2678 2651 2914 
Q 2772 3150 2772 3378 
Q 2772 3750 2511 3984 
Q 2250 4219 1831 4219 
Q 1534 4219 1204 4116 
Q 875 4013 500 3803 
L 500 4441 
Q 881 4594 1212 4672 
Q 1544 4750 1819 4750 
Q 2544 4750 2975 4387 
Q 3406 4025 3406 3419 
Q 3406 3131 3298 2873 
Q 3191 2616 2906 2266 
Q 2828 2175 2409 1742 
Q 1991 1309 1228 531 
z
" transform="scale(0.015625)"/>
        <path id="DejaVuSans-30" d="M 2034 4250 
Q 1547 4250 1301 3770 
Q 1056 3291 1056 2328 
Q 1056 1369 1301 889 
Q 1547 409 2034 409 
Q 2525 409 2770 889 
Q 3016 1369 3016 2328 
Q 3016 3291 2770 3770 
Q 2525 4250 2034 4250 
z
M 2034 4750 
Q 2819 4750 3233 4129 
Q 3647 3509 3647 2328 
Q 3647 1150 3233 529 
Q 2819 -91 2034 -91 
Q 1250 -91 836 529 
Q 422 1150 422 2328 
Q 422 3509 836 4129 
Q 1250 4750 2034 4750 
z
" transform="scale(0.015625)"/>
       </defs>
       <use xlink:href="#DejaVuSans-32"/>
       <use xlink:href="#DejaVuSans-30" x="63.623047"/>
       <use xlink:href="#DejaVuSans-30" x="127.246094"/>
       <use xlink:href="#DejaVuSans-30" x="190.869141"/>
      </g>
     </g>
    </g>
    <g id="xtick_3">
     <g id="line2d_3">
      <g>
       <use xlink:href="#m439a1e5e58" x="466.854879" y="320.4" style="stroke: #000000; stroke-width: 0.8"/>
      </g>
     </g>
     <g id="text_3">
      <!-- 2004 -->
      <g transform="translate(454.129879 334.998438) scale(0.1 -0.1)">
       <defs>
        <path id="DejaVuSans-34" d="M 2419 4116 
L 825 1625 
L 2419 1625 
L 2419 4116 
z
M 2253 4666 
L 3047 4666 
L 3047 1625 
L 3713 1625 
L 3713 1100 
L 3047 1100 
L 3047 0 
L 2419 0 
L 2419 1100 
L 313 1100 
L 313 1709 
L 2253 4666 
z
" transform="scale(0.015625)"/>
       </defs>
       <use xlink:href="#DejaVuSans-32"/>
       <use xlink:href="#DejaVuSans-30" x="63.623047"/>
       <use xlink:href="#DejaVuSans-30" x="127.246094"/>
       <use xlink:href="#DejaVuSans-34" x="190.869141"/>
      </g>
     </g>
    </g>
    <g id="xtick_4">
     <g id="line2d_4">
      <g>
       <use xlink:href="#m439a1e5e58" x="585.717341" y="320.4" style="stroke: #000000; stroke-width: 0.8"/>
      </g>
     </g>
     <g id="text_4">
      <!-- 2008 -->
      <g transform="translate(572.992341 334.998438) scale(0.1 -0.1)">
       <defs>
        <path id="DejaVuSans-38" d="M 2034 2216 
Q 1584 2216 1326 1975 
Q 1069 1734 1069 1313 
Q 1069 891 1326 650 
Q 1584 409 2034 409 
Q 2484 409 2743 651 
Q 3003 894 3003 1313 
Q 3003 1734 2745 1975 
Q 2488 2216 2034 2216 
z
M 1403 2484 
Q 997 2584 770 2862 
Q 544 3141 544 3541 
Q 544 4100 942 4425 
Q 1341 4750 2034 4750 
Q 2731 4750 3128 4425 
Q 3525 4100 3525 3541 
Q 3525 3141 3298 2862 
Q 3072 2584 2669 2484 
Q 3125 2378 3379 2068 
Q 3634 1759 3634 1313 
Q 3634 634 3220 271 
Q 2806 -91 2034 -91 
Q 1263 -91 848 271 
Q 434 634 434 1313 
Q 434 1759 690 2068 
Q 947 2378 1403 2484 
z
M 1172 3481 
Q 1172 3119 1398 2916 
Q 1625 2713 2034 2713 
Q 2441 2713 2670 2916 
Q 2900 3119 2900 3481 
Q 2900 3844 2670 4047 
Q 2441 4250 2034 4250 
Q 1625 4250 1398 4047 
Q 1172 3844 1172 3481 
z
" transform="scale(0.015625)"/>
       </defs>
       <use xlink:href="#DejaVuSans-32"/>
       <use xlink:href="#DejaVuSans-30" x="63.623047"/>
       <use xlink:href="#DejaVuSans-30" x="127.246094"/>
       <use xlink:href="#DejaVuSans-38" x="190.869141"/>
      </g>
     </g>
    </g>
    <g id="xtick_5">
     <g id="line2d_5">
      <g>
       <use xlink:href="#m439a1e5e58" x="704.579802" y="320.4" style="stroke: #000000; stroke-width: 0.8"/>
      </g>
     </g>
     <g id="text_5">
      <!-- 2012 -->
      <g transform="translate(691.854802 334.998438) scale(0.1 -0.1)">
       <use xlink:href="#DejaVuSans-32"/>
       <use xlink:href="#DejaVuSans-30" x="63.623047"/>
       <use xlink:href="#DejaVuSans-31" x="127.246094"/>
       <use xlink:href="#DejaVuSans-32" x="190.869141"/>
      </g>
     </g>
    </g>
    <g id="xtick_6">
     <g id="line2d_6">
      <g>
       <use xlink:href="#m439a1e5e58" x="823.442263" y="320.4" style="stroke: #000000; stroke-width: 0.8"/>
      </g>
     </g>
     <g id="text_6">
      <!-- 2016 -->
      <g transform="translate(810.717263 334.998438) scale(0.1 -0.1)">
       <use xlink:href="#DejaVuSans-32"/>
       <use xlink:href="#DejaVuSans-30" x="63.623047"/>
       <use xlink:href="#DejaVuSans-31" x="127.246094"/>
       <use xlink:href="#DejaVuSans-36" x="190.869141"/>
      </g>
     </g>
    </g>
    <g id="xtick_7">
     <g id="line2d_7">
      <g>
       <use xlink:href="#m439a1e5e58" x="942.304724" y="320.4" style="stroke: #000000; stroke-width: 0.8"/>
      </g>
     </g>
     <g id="text_7">
      <!-- 2020 -->
      <g transform="translate(929.579724 334.998438) scale(0.1 -0.1)">
       <use xlink:href="#DejaVuSans-32"/>
       <use xlink:href="#DejaVuSans-30" x="63.623047"/>
       <use xlink:href="#DejaVuSans-32" x="127.246094"/>
       <use xlink:href="#DejaVuSans-30" x="190.869141"/>
      </g>
     </g>
    </g>
   </g>
   <g id="matplotlib.axis_2">
    <g id="ytick_1">
     <g id="line2d_8">
      <defs>
       <path id="m900face34e" d="M 0 0 
L -3.5 0 
" style="stroke: #000000; stroke-width: 0.8"/>
      </defs>
      <g>
       <use xlink:href="#m900face34e" x="135" y="312.318341" style="stroke: #000000; stroke-width: 0.8"/>
      </g>
     </g>
     <g id="text_8">
      <!-- −2.0 -->
      <g transform="translate(103.717187 316.11756) scale(0.1 -0.1)">
       <defs>
        <path id="DejaVuSans-2212" d="M 678 2272 
L 4684 2272 
L 4684 1741 
L 678 1741 
L 678 2272 
z
" transform="scale(0.015625)"/>
        <path id="DejaVuSans-2e" d="M 684 794 
L 1344 794 
L 1344 0 
L 684 0 
L 684 794 
z
" transform="scale(0.015625)"/>
       </defs>
       <use xlink:href="#DejaVuSans-2212"/>
       <use xlink:href="#DejaVuSans-32" x="83.789062"/>
       <use xlink:href="#DejaVuSans-2e" x="147.412109"/>
       <use xlink:href="#DejaVuSans-30" x="179.199219"/>
      </g>
     </g>
    </g>
    <g id="ytick_2">
     <g id="line2d_9">
      <g>
       <use xlink:href="#m900face34e" x="135" y="279.283932" style="stroke: #000000; stroke-width: 0.8"/>
      </g>
     </g>
     <g id="text_9">
      <!-- −1.5 -->
      <g transform="translate(103.717187 283.083151) scale(0.1 -0.1)">
       <defs>
        <path id="DejaVuSans-35" d="M 691 4666 
L 3169 4666 
L 3169 4134 
L 1269 4134 
L 1269 2991 
Q 1406 3038 1543 3061 
Q 1681 3084 1819 3084 
Q 2600 3084 3056 2656 
Q 3513 2228 3513 1497 
Q 3513 744 3044 326 
Q 2575 -91 1722 -91 
Q 1428 -91 1123 -41 
Q 819 9 494 109 
L 494 744 
Q 775 591 1075 516 
Q 1375 441 1709 441 
Q 2250 441 2565 725 
Q 2881 1009 2881 1497 
Q 2881 1984 2565 2268 
Q 2250 2553 1709 2553 
Q 1456 2553 1204 2497 
Q 953 2441 691 2322 
L 691 4666 
z
" transform="scale(0.015625)"/>
       </defs>
       <use xlink:href="#DejaVuSans-2212"/>
       <use xlink:href="#DejaVuSans-31" x="83.789062"/>
       <use xlink:href="#DejaVuSans-2e" x="147.412109"/>
       <use xlink:href="#DejaVuSans-35" x="179.199219"/>
      </g>
     </g>
    </g>
    <g id="ytick_3">
     <g id="line2d_10">
      <g>
       <use xlink:href="#m900face34e" x="135" y="246.249523" style="stroke: #000000; stroke-width: 0.8"/>
      </g>
     </g>
     <g id="text_10">
      <!-- −1.0 -->
      <g transform="translate(103.717187 250.048742) scale(0.1 -0.1)">
       <use xlink:href="#DejaVuSans-2212"/>
       <use xlink:href="#DejaVuSans-31" x="83.789062"/>
       <use xlink:href="#DejaVuSans-2e" x="147.412109"/>
       <use xlink:href="#DejaVuSans-30" x="179.199219"/>
      </g>
     </g>
    </g>
    <g id="ytick_4">
     <g id="line2d_11">
      <g>
       <use xlink:href="#m900face34e" x="135" y="213.215114" style="stroke: #000000; stroke-width: 0.8"/>
      </g>
     </g>
     <g id="text_11">
      <!-- −0.5 -->
      <g transform="translate(103.717187 217.014332) scale(0.1 -0.1)">
       <use xlink:href="#DejaVuSans-2212"/>
       <use xlink:href="#DejaVuSans-30" x="83.789062"/>
       <use xlink:href="#DejaVuSans-2e" x="147.412109"/>
       <use xlink:href="#DejaVuSans-35" x="179.199219"/>
      </g>
     </g>
    </g>
    <g id="ytick_5">
     <g id="line2d_12">
      <g>
       <use xlink:href="#m900face34e" x="135" y="180.180704" style="stroke: #000000; stroke-width: 0.8"/>
      </g>
     </g>
     <g id="text_12">
      <!-- 0.0 -->
      <g transform="translate(112.096875 183.979923) scale(0.1 -0.1)">
       <use xlink:href="#DejaVuSans-30"/>
       <use xlink:href="#DejaVuSans-2e" x="63.623047"/>
       <use xlink:href="#DejaVuSans-30" x="95.410156"/>
      </g>
     </g>
    </g>
    <g id="ytick_6">
     <g id="line2d_13">
      <g>
       <use xlink:href="#m900face34e" x="135" y="147.146295" style="stroke: #000000; stroke-width: 0.8"/>
      </g>
     </g>
     <g id="text_13">
      <!-- 0.5 -->
      <g transform="translate(112.096875 150.945514) scale(0.1 -0.1)">
       <use xlink:href="#DejaVuSans-30"/>
       <use xlink:href="#DejaVuSans-2e" x="63.623047"/>
       <use xlink:href="#DejaVuSans-35" x="95.410156"/>
      </g>
     </g>
    </g>
    <g id="ytick_7">
     <g id="line2d_14">
      <g>
       <use xlink:href="#m900face34e" x="135" y="114.111886" style="stroke: #000000; stroke-width: 0.8"/>
      </g>
     </g>
     <g id="text_14">
      <!-- 1.0 -->
      <g transform="translate(112.096875 117.911105) scale(0.1 -0.1)">
       <use xlink:href="#DejaVuSans-31"/>
       <use xlink:href="#DejaVuSans-2e" x="63.623047"/>
       <use xlink:href="#DejaVuSans-30" x="95.410156"/>
      </g>
     </g>
    </g>
    <g id="ytick_8">
     <g id="line2d_15">
      <g>
       <use xlink:href="#m900face34e" x="135" y="81.077477" style="stroke: #000000; stroke-width: 0.8"/>
      </g>
     </g>
     <g id="text_15">
      <!-- 1.5 -->
      <g transform="translate(112.096875 84.876695) scale(0.1 -0.1)">
       <use xlink:href="#DejaVuSans-31"/>
       <use xlink:href="#DejaVuSans-2e" x="63.623047"/>
       <use xlink:href="#DejaVuSans-35" x="95.410156"/>
      </g>
     </g>
    </g>
    <g id="ytick_9">
     <g id="line2d_16">
      <g>
       <use xlink:href="#m900face34e" x="135" y="48.043067" style="stroke: #000000; stroke-width: 0.8"/>
      </g>
     </g>
     <g id="text_16">
      <!-- 2.0 -->
      <g transform="translate(112.096875 51.842286) scale(0.1 -0.1)">
       <use xlink:href="#DejaVuSans-32"/>
       <use xlink:href="#DejaVuSans-2e" x="63.623047"/>
       <use xlink:href="#DejaVuSans-30" x="95.410156"/>
      </g>
     </g>
    </g>
    <g id="text_17">
     <!-- SGI -->
     <g transform="translate(97.6375 190.323437) rotate(-90) scale(0.1 -0.1)">
      <defs>
       <path id="DejaVuSans-53" d="M 3425 4513 
L 3425 3897 
Q 3066 4069 2747 4153 
Q 2428 4238 2131 4238 
Q 1616 4238 1336 4038 
Q 1056 3838 1056 3469 
Q 1056 3159 1242 3001 
Q 1428 2844 1947 2747 
L 2328 2669 
Q 3034 2534 3370 2195 
Q 3706 1856 3706 1288 
Q 3706 609 3251 259 
Q 2797 -91 1919 -91 
Q 1588 -91 1214 -16 
Q 841 59 441 206 
L 441 856 
Q 825 641 1194 531 
Q 1563 422 1919 422 
Q 2459 422 2753 634 
Q 3047 847 3047 1241 
Q 3047 1584 2836 1778 
Q 2625 1972 2144 2069 
L 1759 2144 
Q 1053 2284 737 2584 
Q 422 2884 422 3419 
Q 422 4038 858 4394 
Q 1294 4750 2059 4750 
Q 2388 4750 2728 4690 
Q 3069 4631 3425 4513 
z
" transform="scale(0.015625)"/>
       <path id="DejaVuSans-47" d="M 3809 666 
L 3809 1919 
L 2778 1919 
L 2778 2438 
L 4434 2438 
L 4434 434 
Q 4069 175 3628 42 
Q 3188 -91 2688 -91 
Q 1594 -91 976 548 
Q 359 1188 359 2328 
Q 359 3472 976 4111 
Q 1594 4750 2688 4750 
Q 3144 4750 3555 4637 
Q 3966 4525 4313 4306 
L 4313 3634 
Q 3963 3931 3569 4081 
Q 3175 4231 2741 4231 
Q 1884 4231 1454 3753 
Q 1025 3275 1025 2328 
Q 1025 1384 1454 906 
Q 1884 428 2741 428 
Q 3075 428 3337 486 
Q 3600 544 3809 666 
z
" transform="scale(0.015625)"/>
       <path id="DejaVuSans-49" d="M 628 4666 
L 1259 4666 
L 1259 0 
L 628 0 
L 628 4666 
z
" transform="scale(0.015625)"/>
      </defs>
      <use xlink:href="#DejaVuSans-53"/>
      <use xlink:href="#DejaVuSans-47" x="63.476562"/>
      <use xlink:href="#DejaVuSans-49" x="140.966797"/>
     </g>
    </g>
   </g>
   <g id="line2d_17">
    <path d="M 135 167.237934 
L 147.284895 153.056877 
L 154.688375 175.175625 
L 162.173212 162.899912 
L 169.658048 226.643087 
L 176.980171 232.469685 
L 184.383651 228.443735 
L 191.868488 152.003228 
L 199.353324 122.924945 
L 206.675447 171.586327 
L 216.600991 146.128326 
L 224.085828 170.438079 
L 231.570665 188.404491 
L 238.892788 133.655902 
L 246.377624 166.811487 
L 251.340397 117.900079 
L 261.347298 126.97884 
L 271.110128 181.038542 
L 278.594965 83.355807 
L 288.520509 148.2826 
L 305.768177 77.97013 
L 313.253013 121.740782 
L 320.73785 115.506639 
L 327.978616 184.600299 
L 335.463453 95.932725 
L 342.948289 168.039923 
L 350.433126 185.290337 
L 357.755249 223.372332 
L 365.240086 114.948122 
L 372.724922 156.714753 
L 380.209759 131.36922 
L 387.450525 143.315304 
L 392.413297 115.746894 
L 402.420198 124.928929 
L 409.905035 170.780133 
L 417.145801 202.664458 
L 424.630638 171.84221 
L 432.115474 145.25941 
L 439.600311 186.853024 
L 446.841077 160.200084 
L 454.325914 166.811487 
L 464.251458 121.653899 
L 476.61771 162.28179 
L 484.102547 226.221424 
L 491.587383 122.53524 
L 506.312986 182.623156 
L 513.797823 197.908764 
L 521.282659 242.265882 
L 528.767496 156.491531 
L 536.008262 185.58444 
L 563.26283 277.005602 
L 573.188375 267.118391 
L 580.673212 307.8 
L 588.158048 244.393887 
L 595.480171 228.28144 
L 600.442943 164.287524 
L 602.965008 211.140847 
L 605.487072 232.469685 
L 607.92778 214.718668 
L 610.449844 222.069963 
L 612.890552 196.290283 
L 615.412617 180.143958 
L 617.934681 138.364077 
L 620.212675 139.491642 
L 622.73474 194.186189 
L 625.175447 116.190574 
L 627.697512 126.686637 
L 630.138219 186.67307 
L 632.660284 190.356851 
L 635.182348 159.993648 
L 637.623056 206.670735 
L 640.145121 217.536367 
L 642.585828 186.343461 
L 645.107893 179.586848 
L 647.629957 205.308144 
L 649.907951 176.291559 
L 652.430016 83.824001 
L 654.870723 163.319916 
L 657.392788 165.325745 
L 659.833495 137.433515 
L 662.35556 151.864165 
L 664.877624 204.339565 
L 667.318332 167.619614 
L 669.840397 165.630287 
L 672.281104 162.024477 
L 674.803169 162.10328 
L 677.325233 182.926278 
L 679.603227 195.336872 
L 682.125292 153.056877 
L 684.565999 201.753156 
L 687.088064 256.155816 
L 689.528771 188.023276 
L 692.050836 226.221424 
L 699.535673 271.491569 
L 707.020509 295.05907 
L 714.342632 293.249683 
L 721.827469 306.870271 
L 729.312306 186.065686 
L 736.797142 246.580904 
L 744.037908 263.559193 
L 751.522745 212.767449 
L 759.007582 179.116533 
L 766.492418 158.194469 
L 773.733184 168.4814 
L 781.218021 136.406887 
L 788.702858 55.8 
L 796.187694 75.17118 
L 803.42846 99.404115 
L 810.913297 188.673682 
L 818.398134 220.14526 
L 825.88297 195.23546 
L 833.205093 278.62584 
L 843.211995 277.005602 
L 850.615474 140.838885 
L 857.937597 129.614809 
L 862.900369 133.655902 
L 870.385206 182.778214 
L 880.31075 244.845301 
L 885.354879 261.953083 
L 902.602547 127.891724 
L 907.565319 197.307125 
L 917.328149 201.706353 
L 922.290921 83.271108 
L 932.297823 176.434761 
L 939.701302 210.147442 
L 947.104782 239.137382 
L 957.030327 248.075964 
L 964.515163 239.585763 
L 972 247.295131 
L 972 247.295131 
" clip-path="url(#pfe04541889)" style="fill: none; stroke: #7f7f7f; stroke-width: 1.5; stroke-linecap: square"/>
   </g>
   <g id="line2d_18">
    <path d="M 135 180.180704 
L 972 180.180704 
" clip-path="url(#pfe04541889)" style="fill: none; stroke: #000000; stroke-width: 1.5; stroke-linecap: square"/>
   </g>
   <g id="patch_3">
    <path d="M 135 320.4 
L 135 43.2 
" style="fill: none; stroke: #000000; stroke-width: 0.8; stroke-linejoin: miter; stroke-linecap: square"/>
   </g>
   <g id="patch_4">
    <path d="M 135 320.4 
L 972 320.4 
" style="fill: none; stroke: #000000; stroke-width: 0.8; stroke-linejoin: miter; stroke-linecap: square"/>
   </g>
   <g id="text_18">
    <!-- SGI for GWIC ID 820 -->
    <g transform="translate(135 37.2) scale(0.12 -0.12)">
     <defs>
      <path id="DejaVuSans-Bold-53" d="M 3834 4519 
L 3834 3531 
Q 3450 3703 3084 3790 
Q 2719 3878 2394 3878 
Q 1963 3878 1756 3759 
Q 1550 3641 1550 3391 
Q 1550 3203 1689 3098 
Q 1828 2994 2194 2919 
L 2706 2816 
Q 3484 2659 3812 2340 
Q 4141 2022 4141 1434 
Q 4141 663 3683 286 
Q 3225 -91 2284 -91 
Q 1841 -91 1394 -6 
Q 947 78 500 244 
L 500 1259 
Q 947 1022 1364 901 
Q 1781 781 2169 781 
Q 2563 781 2772 912 
Q 2981 1044 2981 1288 
Q 2981 1506 2839 1625 
Q 2697 1744 2272 1838 
L 1806 1941 
Q 1106 2091 782 2419 
Q 459 2747 459 3303 
Q 459 4000 909 4375 
Q 1359 4750 2203 4750 
Q 2588 4750 2994 4692 
Q 3400 4634 3834 4519 
z
" transform="scale(0.015625)"/>
      <path id="DejaVuSans-Bold-47" d="M 4781 347 
Q 4331 128 3847 18 
Q 3363 -91 2847 -91 
Q 1681 -91 1000 561 
Q 319 1213 319 2328 
Q 319 3456 1012 4103 
Q 1706 4750 2913 4750 
Q 3378 4750 3804 4662 
Q 4231 4575 4609 4403 
L 4609 3438 
Q 4219 3659 3833 3768 
Q 3447 3878 3059 3878 
Q 2341 3878 1952 3476 
Q 1563 3075 1563 2328 
Q 1563 1588 1938 1184 
Q 2313 781 3003 781 
Q 3191 781 3352 804 
Q 3513 828 3641 878 
L 3641 1784 
L 2906 1784 
L 2906 2591 
L 4781 2591 
L 4781 347 
z
" transform="scale(0.015625)"/>
      <path id="DejaVuSans-Bold-49" d="M 588 4666 
L 1791 4666 
L 1791 0 
L 588 0 
L 588 4666 
z
" transform="scale(0.015625)"/>
      <path id="DejaVuSans-Bold-20" transform="scale(0.015625)"/>
      <path id="DejaVuSans-Bold-66" d="M 2841 4863 
L 2841 4128 
L 2222 4128 
Q 1984 4128 1890 4042 
Q 1797 3956 1797 3744 
L 1797 3500 
L 2753 3500 
L 2753 2700 
L 1797 2700 
L 1797 0 
L 678 0 
L 678 2700 
L 122 2700 
L 122 3500 
L 678 3500 
L 678 3744 
Q 678 4316 997 4589 
Q 1316 4863 1984 4863 
L 2841 4863 
z
" transform="scale(0.015625)"/>
      <path id="DejaVuSans-Bold-6f" d="M 2203 2784 
Q 1831 2784 1636 2517 
Q 1441 2250 1441 1747 
Q 1441 1244 1636 976 
Q 1831 709 2203 709 
Q 2569 709 2762 976 
Q 2956 1244 2956 1747 
Q 2956 2250 2762 2517 
Q 2569 2784 2203 2784 
z
M 2203 3584 
Q 3106 3584 3614 3096 
Q 4122 2609 4122 1747 
Q 4122 884 3614 396 
Q 3106 -91 2203 -91 
Q 1297 -91 786 396 
Q 275 884 275 1747 
Q 275 2609 786 3096 
Q 1297 3584 2203 3584 
z
" transform="scale(0.015625)"/>
      <path id="DejaVuSans-Bold-72" d="M 3138 2547 
Q 2991 2616 2845 2648 
Q 2700 2681 2553 2681 
Q 2122 2681 1889 2404 
Q 1656 2128 1656 1613 
L 1656 0 
L 538 0 
L 538 3500 
L 1656 3500 
L 1656 2925 
Q 1872 3269 2151 3426 
Q 2431 3584 2822 3584 
Q 2878 3584 2943 3579 
Q 3009 3575 3134 3559 
L 3138 2547 
z
" transform="scale(0.015625)"/>
      <path id="DejaVuSans-Bold-57" d="M 191 4666 
L 1344 4666 
L 2150 1275 
L 2950 4666 
L 4109 4666 
L 4909 1275 
L 5716 4666 
L 6859 4666 
L 5759 0 
L 4372 0 
L 3525 3547 
L 2688 0 
L 1300 0 
L 191 4666 
z
" transform="scale(0.015625)"/>
      <path id="DejaVuSans-Bold-43" d="M 4288 256 
Q 3956 84 3597 -3 
Q 3238 -91 2847 -91 
Q 1681 -91 1000 561 
Q 319 1213 319 2328 
Q 319 3447 1000 4098 
Q 1681 4750 2847 4750 
Q 3238 4750 3597 4662 
Q 3956 4575 4288 4403 
L 4288 3438 
Q 3953 3666 3628 3772 
Q 3303 3878 2944 3878 
Q 2300 3878 1931 3465 
Q 1563 3053 1563 2328 
Q 1563 1606 1931 1193 
Q 2300 781 2944 781 
Q 3303 781 3628 887 
Q 3953 994 4288 1222 
L 4288 256 
z
" transform="scale(0.015625)"/>
      <path id="DejaVuSans-Bold-44" d="M 1791 3756 
L 1791 909 
L 2222 909 
Q 2959 909 3348 1275 
Q 3738 1641 3738 2338 
Q 3738 3031 3350 3393 
Q 2963 3756 2222 3756 
L 1791 3756 
z
M 588 4666 
L 1856 4666 
Q 2919 4666 3439 4514 
Q 3959 4363 4331 4000 
Q 4659 3684 4818 3271 
Q 4978 2859 4978 2338 
Q 4978 1809 4818 1395 
Q 4659 981 4331 666 
Q 3956 303 3431 151 
Q 2906 0 1856 0 
L 588 0 
L 588 4666 
z
" transform="scale(0.015625)"/>
      <path id="DejaVuSans-Bold-38" d="M 2228 2088 
Q 1891 2088 1709 1903 
Q 1528 1719 1528 1375 
Q 1528 1031 1709 848 
Q 1891 666 2228 666 
Q 2563 666 2741 848 
Q 2919 1031 2919 1375 
Q 2919 1722 2741 1905 
Q 2563 2088 2228 2088 
z
M 1350 2484 
Q 925 2613 709 2878 
Q 494 3144 494 3541 
Q 494 4131 934 4440 
Q 1375 4750 2228 4750 
Q 3075 4750 3515 4442 
Q 3956 4134 3956 3541 
Q 3956 3144 3739 2878 
Q 3522 2613 3097 2484 
Q 3572 2353 3814 2058 
Q 4056 1763 4056 1313 
Q 4056 619 3595 264 
Q 3134 -91 2228 -91 
Q 1319 -91 855 264 
Q 391 619 391 1313 
Q 391 1763 633 2058 
Q 875 2353 1350 2484 
z
M 1631 3419 
Q 1631 3141 1786 2991 
Q 1941 2841 2228 2841 
Q 2509 2841 2662 2991 
Q 2816 3141 2816 3419 
Q 2816 3697 2662 3845 
Q 2509 3994 2228 3994 
Q 1941 3994 1786 3844 
Q 1631 3694 1631 3419 
z
" transform="scale(0.015625)"/>
      <path id="DejaVuSans-Bold-32" d="M 1844 884 
L 3897 884 
L 3897 0 
L 506 0 
L 506 884 
L 2209 2388 
Q 2438 2594 2547 2791 
Q 2656 2988 2656 3200 
Q 2656 3528 2436 3728 
Q 2216 3928 1850 3928 
Q 1569 3928 1234 3808 
Q 900 3688 519 3450 
L 519 4475 
Q 925 4609 1322 4679 
Q 1719 4750 2100 4750 
Q 2938 4750 3402 4381 
Q 3866 4013 3866 3353 
Q 3866 2972 3669 2642 
Q 3472 2313 2841 1759 
L 1844 884 
z
" transform="scale(0.015625)"/>
      <path id="DejaVuSans-Bold-30" d="M 2944 2338 
Q 2944 3213 2780 3570 
Q 2616 3928 2228 3928 
Q 1841 3928 1675 3570 
Q 1509 3213 1509 2338 
Q 1509 1453 1675 1090 
Q 1841 728 2228 728 
Q 2613 728 2778 1090 
Q 2944 1453 2944 2338 
z
M 4147 2328 
Q 4147 1169 3647 539 
Q 3147 -91 2228 -91 
Q 1306 -91 806 539 
Q 306 1169 306 2328 
Q 306 3491 806 4120 
Q 1306 4750 2228 4750 
Q 3147 4750 3647 4120 
Q 4147 3491 4147 2328 
z
" transform="scale(0.015625)"/>
     </defs>
     <use xlink:href="#DejaVuSans-Bold-53"/>
     <use xlink:href="#DejaVuSans-Bold-47" x="72.021484"/>
     <use xlink:href="#DejaVuSans-Bold-49" x="154.101562"/>
     <use xlink:href="#DejaVuSans-Bold-20" x="191.308594"/>
     <use xlink:href="#DejaVuSans-Bold-66" x="226.123047"/>
     <use xlink:href="#DejaVuSans-Bold-6f" x="269.628906"/>
     <use xlink:href="#DejaVuSans-Bold-72" x="338.330078"/>
     <use xlink:href="#DejaVuSans-Bold-20" x="387.646484"/>
     <use xlink:href="#DejaVuSans-Bold-47" x="422.460938"/>
     <use xlink:href="#DejaVuSans-Bold-57" x="504.541016"/>
     <use xlink:href="#DejaVuSans-Bold-49" x="614.84375"/>
     <use xlink:href="#DejaVuSans-Bold-43" x="652.050781"/>
     <use xlink:href="#DejaVuSans-Bold-20" x="725.439453"/>
     <use xlink:href="#DejaVuSans-Bold-49" x="760.253906"/>
     <use xlink:href="#DejaVuSans-Bold-44" x="797.460938"/>
     <use xlink:href="#DejaVuSans-Bold-20" x="880.46875"/>
     <use xlink:href="#DejaVuSans-Bold-38" x="915.283203"/>
     <use xlink:href="#DejaVuSans-Bold-32" x="984.863281"/>
     <use xlink:href="#DejaVuSans-Bold-30" x="1054.443359"/>
    </g>
   </g>
   <g id="PathCollection_1">
    <defs>
     <path id="ma78de4e133" d="M 0 3 
C 0.795609 3 1.55874 2.683901 2.12132 2.12132 
C 2.683901 1.55874 3 0.795609 3 0 
C 3 -0.795609 2.683901 -1.55874 2.12132 -2.12132 
C 1.55874 -2.683901 0.795609 -3 0 -3 
C -0.795609 -3 -1.55874 -2.683901 -2.12132 -2.12132 
C -2.683901 -1.55874 -3 -0.795609 -3 0 
C -3 0.795609 -2.683901 1.55874 -2.12132 2.12132 
C -1.55874 2.683901 -0.795609 3 0 3 
z
" style="stroke: #ffffff; stroke-width: 0.48"/>
    </defs>
    <g clip-path="url(#pfe04541889)">
     <use xlink:href="#ma78de4e133" x="135" y="167.237934" style="stroke: #ffffff; stroke-width: 0.48"/>
     <use xlink:href="#ma78de4e133" x="147.284895" y="153.056877" style="stroke: #ffffff; stroke-width: 0.48"/>
     <use xlink:href="#ma78de4e133" x="154.688375" y="175.175625" style="stroke: #ffffff; stroke-width: 0.48"/>
     <use xlink:href="#ma78de4e133" x="162.173212" y="162.899912" style="stroke: #ffffff; stroke-width: 0.48"/>
     <use xlink:href="#ma78de4e133" x="169.658048" y="226.643087" style="stroke: #ffffff; stroke-width: 0.48"/>
     <use xlink:href="#ma78de4e133" x="176.980171" y="232.469685" style="stroke: #ffffff; stroke-width: 0.48"/>
     <use xlink:href="#ma78de4e133" x="184.383651" y="228.443735" style="stroke: #ffffff; stroke-width: 0.48"/>
     <use xlink:href="#ma78de4e133" x="191.868488" y="152.003228" style="stroke: #ffffff; stroke-width: 0.48"/>
     <use xlink:href="#ma78de4e133" x="199.353324" y="122.924945" style="stroke: #ffffff; stroke-width: 0.48"/>
     <use xlink:href="#ma78de4e133" x="206.675447" y="171.586327" style="stroke: #ffffff; stroke-width: 0.48"/>
     <use xlink:href="#ma78de4e133" x="216.600991" y="146.128326" style="stroke: #ffffff; stroke-width: 0.48"/>
     <use xlink:href="#ma78de4e133" x="224.085828" y="170.438079" style="stroke: #ffffff; stroke-width: 0.48"/>
     <use xlink:href="#ma78de4e133" x="231.570665" y="188.404491" style="stroke: #ffffff; stroke-width: 0.48"/>
     <use xlink:href="#ma78de4e133" x="238.892788" y="133.655902" style="stroke: #ffffff; stroke-width: 0.48"/>
     <use xlink:href="#ma78de4e133" x="246.377624" y="166.811487" style="stroke: #ffffff; stroke-width: 0.48"/>
     <use xlink:href="#ma78de4e133" x="251.340397" y="117.900079" style="stroke: #ffffff; stroke-width: 0.48"/>
     <use xlink:href="#ma78de4e133" x="261.347298" y="126.97884" style="stroke: #ffffff; stroke-width: 0.48"/>
     <use xlink:href="#ma78de4e133" x="271.110128" y="181.038542" style="stroke: #ffffff; stroke-width: 0.48"/>
     <use xlink:href="#ma78de4e133" x="278.594965" y="83.355807" style="stroke: #ffffff; stroke-width: 0.48"/>
     <use xlink:href="#ma78de4e133" x="288.520509" y="148.2826" style="stroke: #ffffff; stroke-width: 0.48"/>
     <use xlink:href="#ma78de4e133" x="305.768177" y="77.97013" style="stroke: #ffffff; stroke-width: 0.48"/>
     <use xlink:href="#ma78de4e133" x="313.253013" y="121.740782" style="stroke: #ffffff; stroke-width: 0.48"/>
     <use xlink:href="#ma78de4e133" x="320.73785" y="115.506639" style="stroke: #ffffff; stroke-width: 0.48"/>
     <use xlink:href="#ma78de4e133" x="327.978616" y="184.600299" style="stroke: #ffffff; stroke-width: 0.48"/>
     <use xlink:href="#ma78de4e133" x="335.463453" y="95.932725" style="stroke: #ffffff; stroke-width: 0.48"/>
     <use xlink:href="#ma78de4e133" x="342.948289" y="168.039923" style="stroke: #ffffff; stroke-width: 0.48"/>
     <use xlink:href="#ma78de4e133" x="350.433126" y="185.290337" style="stroke: #ffffff; stroke-width: 0.48"/>
     <use xlink:href="#ma78de4e133" x="357.755249" y="223.372332" style="stroke: #ffffff; stroke-width: 0.48"/>
     <use xlink:href="#ma78de4e133" x="365.240086" y="114.948122" style="stroke: #ffffff; stroke-width: 0.48"/>
     <use xlink:href="#ma78de4e133" x="372.724922" y="156.714753" style="stroke: #ffffff; stroke-width: 0.48"/>
     <use xlink:href="#ma78de4e133" x="380.209759" y="131.36922" style="stroke: #ffffff; stroke-width: 0.48"/>
     <use xlink:href="#ma78de4e133" x="387.450525" y="143.315304" style="stroke: #ffffff; stroke-width: 0.48"/>
     <use xlink:href="#ma78de4e133" x="392.413297" y="115.746894" style="stroke: #ffffff; stroke-width: 0.48"/>
     <use xlink:href="#ma78de4e133" x="402.420198" y="124.928929" style="stroke: #ffffff; stroke-width: 0.48"/>
     <use xlink:href="#ma78de4e133" x="409.905035" y="170.780133" style="stroke: #ffffff; stroke-width: 0.48"/>
     <use xlink:href="#ma78de4e133" x="417.145801" y="202.664458" style="stroke: #ffffff; stroke-width: 0.48"/>
     <use xlink:href="#ma78de4e133" x="424.630638" y="171.84221" style="stroke: #ffffff; stroke-width: 0.48"/>
     <use xlink:href="#ma78de4e133" x="432.115474" y="145.25941" style="stroke: #ffffff; stroke-width: 0.48"/>
     <use xlink:href="#ma78de4e133" x="439.600311" y="186.853024" style="stroke: #ffffff; stroke-width: 0.48"/>
     <use xlink:href="#ma78de4e133" x="446.841077" y="160.200084" style="stroke: #ffffff; stroke-width: 0.48"/>
     <use xlink:href="#ma78de4e133" x="454.325914" y="166.811487" style="stroke: #ffffff; stroke-width: 0.48"/>
     <use xlink:href="#ma78de4e133" x="464.251458" y="121.653899" style="stroke: #ffffff; stroke-width: 0.48"/>
     <use xlink:href="#ma78de4e133" x="476.61771" y="162.28179" style="stroke: #ffffff; stroke-width: 0.48"/>
     <use xlink:href="#ma78de4e133" x="484.102547" y="226.221424" style="stroke: #ffffff; stroke-width: 0.48"/>
     <use xlink:href="#ma78de4e133" x="491.587383" y="122.53524" style="stroke: #ffffff; stroke-width: 0.48"/>
     <use xlink:href="#ma78de4e133" x="506.312986" y="182.623156" style="stroke: #ffffff; stroke-width: 0.48"/>
     <use xlink:href="#ma78de4e133" x="513.797823" y="197.908764" style="stroke: #ffffff; stroke-width: 0.48"/>
     <use xlink:href="#ma78de4e133" x="521.282659" y="242.265882" style="stroke: #ffffff; stroke-width: 0.48"/>
     <use xlink:href="#ma78de4e133" x="528.767496" y="156.491531" style="stroke: #ffffff; stroke-width: 0.48"/>
     <use xlink:href="#ma78de4e133" x="536.008262" y="185.58444" style="stroke: #ffffff; stroke-width: 0.48"/>
     <use xlink:href="#ma78de4e133" x="563.26283" y="277.005602" style="stroke: #ffffff; stroke-width: 0.48"/>
     <use xlink:href="#ma78de4e133" x="573.188375" y="267.118391" style="stroke: #ffffff; stroke-width: 0.48"/>
     <use xlink:href="#ma78de4e133" x="580.673212" y="307.8" style="stroke: #ffffff; stroke-width: 0.48"/>
     <use xlink:href="#ma78de4e133" x="588.158048" y="244.393887" style="stroke: #ffffff; stroke-width: 0.48"/>
     <use xlink:href="#ma78de4e133" x="595.480171" y="228.28144" style="stroke: #ffffff; stroke-width: 0.48"/>
     <use xlink:href="#ma78de4e133" x="600.442943" y="164.287524" style="stroke: #ffffff; stroke-width: 0.48"/>
     <use xlink:href="#ma78de4e133" x="602.965008" y="211.140847" style="stroke: #ffffff; stroke-width: 0.48"/>
     <use xlink:href="#ma78de4e133" x="605.487072" y="232.469685" style="stroke: #ffffff; stroke-width: 0.48"/>
     <use xlink:href="#ma78de4e133" x="607.92778" y="214.718668" style="stroke: #ffffff; stroke-width: 0.48"/>
     <use xlink:href="#ma78de4e133" x="610.449844" y="222.069963" style="stroke: #ffffff; stroke-width: 0.48"/>
     <use xlink:href="#ma78de4e133" x="612.890552" y="196.290283" style="stroke: #ffffff; stroke-width: 0.48"/>
     <use xlink:href="#ma78de4e133" x="615.412617" y="180.143958" style="stroke: #ffffff; stroke-width: 0.48"/>
     <use xlink:href="#ma78de4e133" x="617.934681" y="138.364077" style="stroke: #ffffff; stroke-width: 0.48"/>
     <use xlink:href="#ma78de4e133" x="620.212675" y="139.491642" style="stroke: #ffffff; stroke-width: 0.48"/>
     <use xlink:href="#ma78de4e133" x="622.73474" y="194.186189" style="stroke: #ffffff; stroke-width: 0.48"/>
     <use xlink:href="#ma78de4e133" x="625.175447" y="116.190574" style="stroke: #ffffff; stroke-width: 0.48"/>
     <use xlink:href="#ma78de4e133" x="627.697512" y="126.686637" style="stroke: #ffffff; stroke-width: 0.48"/>
     <use xlink:href="#ma78de4e133" x="630.138219" y="186.67307" style="stroke: #ffffff; stroke-width: 0.48"/>
     <use xlink:href="#ma78de4e133" x="632.660284" y="190.356851" style="stroke: #ffffff; stroke-width: 0.48"/>
     <use xlink:href="#ma78de4e133" x="635.182348" y="159.993648" style="stroke: #ffffff; stroke-width: 0.48"/>
     <use xlink:href="#ma78de4e133" x="637.623056" y="206.670735" style="stroke: #ffffff; stroke-width: 0.48"/>
     <use xlink:href="#ma78de4e133" x="640.145121" y="217.536367" style="stroke: #ffffff; stroke-width: 0.48"/>
     <use xlink:href="#ma78de4e133" x="642.585828" y="186.343461" style="stroke: #ffffff; stroke-width: 0.48"/>
     <use xlink:href="#ma78de4e133" x="645.107893" y="179.586848" style="stroke: #ffffff; stroke-width: 0.48"/>
     <use xlink:href="#ma78de4e133" x="647.629957" y="205.308144" style="stroke: #ffffff; stroke-width: 0.48"/>
     <use xlink:href="#ma78de4e133" x="649.907951" y="176.291559" style="stroke: #ffffff; stroke-width: 0.48"/>
     <use xlink:href="#ma78de4e133" x="652.430016" y="83.824001" style="stroke: #ffffff; stroke-width: 0.48"/>
     <use xlink:href="#ma78de4e133" x="654.870723" y="163.319916" style="stroke: #ffffff; stroke-width: 0.48"/>
     <use xlink:href="#ma78de4e133" x="657.392788" y="165.325745" style="stroke: #ffffff; stroke-width: 0.48"/>
     <use xlink:href="#ma78de4e133" x="659.833495" y="137.433515" style="stroke: #ffffff; stroke-width: 0.48"/>
     <use xlink:href="#ma78de4e133" x="662.35556" y="151.864165" style="stroke: #ffffff; stroke-width: 0.48"/>
     <use xlink:href="#ma78de4e133" x="664.877624" y="204.339565" style="stroke: #ffffff; stroke-width: 0.48"/>
     <use xlink:href="#ma78de4e133" x="667.318332" y="167.619614" style="stroke: #ffffff; stroke-width: 0.48"/>
     <use xlink:href="#ma78de4e133" x="669.840397" y="165.630287" style="stroke: #ffffff; stroke-width: 0.48"/>
     <use xlink:href="#ma78de4e133" x="672.281104" y="162.024477" style="stroke: #ffffff; stroke-width: 0.48"/>
     <use xlink:href="#ma78de4e133" x="674.803169" y="162.10328" style="stroke: #ffffff; stroke-width: 0.48"/>
     <use xlink:href="#ma78de4e133" x="677.325233" y="182.926278" style="stroke: #ffffff; stroke-width: 0.48"/>
     <use xlink:href="#ma78de4e133" x="679.603227" y="195.336872" style="stroke: #ffffff; stroke-width: 0.48"/>
     <use xlink:href="#ma78de4e133" x="682.125292" y="153.056877" style="stroke: #ffffff; stroke-width: 0.48"/>
     <use xlink:href="#ma78de4e133" x="684.565999" y="201.753156" style="stroke: #ffffff; stroke-width: 0.48"/>
     <use xlink:href="#ma78de4e133" x="687.088064" y="256.155816" style="stroke: #ffffff; stroke-width: 0.48"/>
     <use xlink:href="#ma78de4e133" x="689.528771" y="188.023276" style="stroke: #ffffff; stroke-width: 0.48"/>
     <use xlink:href="#ma78de4e133" x="692.050836" y="226.221424" style="stroke: #ffffff; stroke-width: 0.48"/>
     <use xlink:href="#ma78de4e133" x="699.535673" y="271.491569" style="stroke: #ffffff; stroke-width: 0.48"/>
     <use xlink:href="#ma78de4e133" x="707.020509" y="295.05907" style="stroke: #ffffff; stroke-width: 0.48"/>
     <use xlink:href="#ma78de4e133" x="714.342632" y="293.249683" style="stroke: #ffffff; stroke-width: 0.48"/>
     <use xlink:href="#ma78de4e133" x="721.827469" y="306.870271" style="stroke: #ffffff; stroke-width: 0.48"/>
     <use xlink:href="#ma78de4e133" x="729.312306" y="186.065686" style="stroke: #ffffff; stroke-width: 0.48"/>
     <use xlink:href="#ma78de4e133" x="736.797142" y="246.580904" style="stroke: #ffffff; stroke-width: 0.48"/>
     <use xlink:href="#ma78de4e133" x="744.037908" y="263.559193" style="stroke: #ffffff; stroke-width: 0.48"/>
     <use xlink:href="#ma78de4e133" x="751.522745" y="212.767449" style="stroke: #ffffff; stroke-width: 0.48"/>
     <use xlink:href="#ma78de4e133" x="759.007582" y="179.116533" style="stroke: #ffffff; stroke-width: 0.48"/>
     <use xlink:href="#ma78de4e133" x="766.492418" y="158.194469" style="stroke: #ffffff; stroke-width: 0.48"/>
     <use xlink:href="#ma78de4e133" x="773.733184" y="168.4814" style="stroke: #ffffff; stroke-width: 0.48"/>
     <use xlink:href="#ma78de4e133" x="781.218021" y="136.406887" style="stroke: #ffffff; stroke-width: 0.48"/>
     <use xlink:href="#ma78de4e133" x="788.702858" y="55.8" style="stroke: #ffffff; stroke-width: 0.48"/>
     <use xlink:href="#ma78de4e133" x="796.187694" y="75.17118" style="stroke: #ffffff; stroke-width: 0.48"/>
     <use xlink:href="#ma78de4e133" x="803.42846" y="99.404115" style="stroke: #ffffff; stroke-width: 0.48"/>
     <use xlink:href="#ma78de4e133" x="810.913297" y="188.673682" style="stroke: #ffffff; stroke-width: 0.48"/>
     <use xlink:href="#ma78de4e133" x="818.398134" y="220.14526" style="stroke: #ffffff; stroke-width: 0.48"/>
     <use xlink:href="#ma78de4e133" x="825.88297" y="195.23546" style="stroke: #ffffff; stroke-width: 0.48"/>
     <use xlink:href="#ma78de4e133" x="833.205093" y="278.62584" style="stroke: #ffffff; stroke-width: 0.48"/>
     <use xlink:href="#ma78de4e133" x="843.211995" y="277.005602" style="stroke: #ffffff; stroke-width: 0.48"/>
     <use xlink:href="#ma78de4e133" x="850.615474" y="140.838885" style="stroke: #ffffff; stroke-width: 0.48"/>
     <use xlink:href="#ma78de4e133" x="857.937597" y="129.614809" style="stroke: #ffffff; stroke-width: 0.48"/>
     <use xlink:href="#ma78de4e133" x="862.900369" y="133.655902" style="stroke: #ffffff; stroke-width: 0.48"/>
     <use xlink:href="#ma78de4e133" x="870.385206" y="182.778214" style="stroke: #ffffff; stroke-width: 0.48"/>
     <use xlink:href="#ma78de4e133" x="880.31075" y="244.845301" style="stroke: #ffffff; stroke-width: 0.48"/>
     <use xlink:href="#ma78de4e133" x="885.354879" y="261.953083" style="stroke: #ffffff; stroke-width: 0.48"/>
     <use xlink:href="#ma78de4e133" x="892.595645" y="205.366388" style="stroke: #ffffff; stroke-width: 0.48"/>
     <use xlink:href="#ma78de4e133" x="902.602547" y="127.891724" style="stroke: #ffffff; stroke-width: 0.48"/>
     <use xlink:href="#ma78de4e133" x="907.565319" y="197.307125" style="stroke: #ffffff; stroke-width: 0.48"/>
     <use xlink:href="#ma78de4e133" x="917.328149" y="201.706353" style="stroke: #ffffff; stroke-width: 0.48"/>
     <use xlink:href="#ma78de4e133" x="922.290921" y="83.271108" style="stroke: #ffffff; stroke-width: 0.48"/>
     <use xlink:href="#ma78de4e133" x="932.297823" y="176.434761" style="stroke: #ffffff; stroke-width: 0.48"/>
     <use xlink:href="#ma78de4e133" x="939.701302" y="210.147442" style="stroke: #ffffff; stroke-width: 0.48"/>
     <use xlink:href="#ma78de4e133" x="947.104782" y="239.137382" style="stroke: #ffffff; stroke-width: 0.48"/>
     <use xlink:href="#ma78de4e133" x="957.030327" y="248.075964" style="stroke: #ffffff; stroke-width: 0.48"/>
     <use xlink:href="#ma78de4e133" x="964.515163" y="239.585763" style="stroke: #ffffff; stroke-width: 0.48"/>
     <use xlink:href="#ma78de4e133" x="972" y="247.295131" style="stroke: #ffffff; stroke-width: 0.48"/>
    </g>
   </g>
  </g>
 </g>
 <defs>
  <clipPath id="pfe04541889">
   <rect x="135" y="43.2" width="837" height="277.2"/>
  </clipPath>
 </defs>
</svg>
