<?xml version="1.0" encoding="utf-8" standalone="no"?>
<!DOCTYPE svg PUBLIC "-//W3C//DTD SVG 1.1//EN"
  "http://www.w3.org/Graphics/SVG/1.1/DTD/svg11.dtd">
<svg xmlns:xlink="http://www.w3.org/1999/xlink" width="1080pt" height="360pt" viewBox="0 0 1080 360" xmlns="http://www.w3.org/2000/svg" version="1.1">
 <metadata>
  <rdf:RDF xmlns:dc="http://purl.org/dc/elements/1.1/" xmlns:cc="http://creativecommons.org/ns#" xmlns:rdf="http://www.w3.org/1999/02/22-rdf-syntax-ns#">
   <cc:Work>
    <dc:type rdf:resource="http://purl.org/dc/dcmitype/StillImage"/>
    <dc:date>2024-01-23T18:50:26.501502</dc:date>
    <dc:format>image/svg+xml</dc:format>
    <dc:creator>
     <cc:Agent>
      <dc:title>Matplotlib v3.8.2, https://matplotlib.org/</dc:title>
     </cc:Agent>
    </dc:creator>
   </cc:Work>
  </rdf:RDF>
 </metadata>
 <defs>
  <style type="text/css">*{stroke-linejoin: round; stroke-linecap: butt}</style>
 </defs>
 <g id="figure_1">
  <g id="patch_1">
   <path d="M 0 360 
L 1080 360 
L 1080 0 
L 0 0 
z
" style="fill: #ffffff"/>
  </g>
  <g id="axes_1">
   <g id="patch_2">
    <path d="M 135 320.4 
L 972 320.4 
L 972 43.2 
L 135 43.2 
z
" style="fill: #ffffff"/>
   </g>
   <g id="PolyCollection_1"/>
   <g id="matplotlib.axis_1">
    <g id="xtick_1">
     <g id="line2d_1">
      <defs>
       <path id="m2d242a6a10" d="M 0 0 
L 0 3.5 
" style="stroke: #000000; stroke-width: 0.8"/>
      </defs>
      <g>
       <use xlink:href="#m2d242a6a10" x="149.368099" y="320.4" style="stroke: #000000; stroke-width: 0.8"/>
      </g>
     </g>
     <g id="text_1">
      <!-- 1992 -->
      <g transform="translate(136.643099 334.998438) scale(0.1 -0.1)">
       <defs>
        <path id="DejaVuSans-31" d="M 794 531 
L 1825 531 
L 1825 4091 
L 703 3866 
L 703 4441 
L 1819 4666 
L 2450 4666 
L 2450 531 
L 3481 531 
L 3481 0 
L 794 0 
L 794 531 
z
" transform="scale(0.015625)"/>
        <path id="DejaVuSans-39" d="M 703 97 
L 703 672 
Q 941 559 1184 500 
Q 1428 441 1663 441 
Q 2288 441 2617 861 
Q 2947 1281 2994 2138 
Q 2813 1869 2534 1725 
Q 2256 1581 1919 1581 
Q 1219 1581 811 2004 
Q 403 2428 403 3163 
Q 403 3881 828 4315 
Q 1253 4750 1959 4750 
Q 2769 4750 3195 4129 
Q 3622 3509 3622 2328 
Q 3622 1225 3098 567 
Q 2575 -91 1691 -91 
Q 1453 -91 1209 -44 
Q 966 3 703 97 
z
M 1959 2075 
Q 2384 2075 2632 2365 
Q 2881 2656 2881 3163 
Q 2881 3666 2632 3958 
Q 2384 4250 1959 4250 
Q 1534 4250 1286 3958 
Q 1038 3666 1038 3163 
Q 1038 2656 1286 2365 
Q 1534 2075 1959 2075 
z
" transform="scale(0.015625)"/>
        <path id="DejaVuSans-32" d="M 1228 531 
L 3431 531 
L 3431 0 
L 469 0 
L 469 531 
Q 828 903 1448 1529 
Q 2069 2156 2228 2338 
Q 2531 2678 2651 2914 
Q 2772 3150 2772 3378 
Q 2772 3750 2511 3984 
Q 2250 4219 1831 4219 
Q 1534 4219 1204 4116 
Q 875 4013 500 3803 
L 500 4441 
Q 881 4594 1212 4672 
Q 1544 4750 1819 4750 
Q 2544 4750 2975 4387 
Q 3406 4025 3406 3419 
Q 3406 3131 3298 2873 
Q 3191 2616 2906 2266 
Q 2828 2175 2409 1742 
Q 1991 1309 1228 531 
z
" transform="scale(0.015625)"/>
       </defs>
       <use xlink:href="#DejaVuSans-31"/>
       <use xlink:href="#DejaVuSans-39" x="63.623047"/>
       <use xlink:href="#DejaVuSans-39" x="127.246094"/>
       <use xlink:href="#DejaVuSans-32" x="190.869141"/>
      </g>
     </g>
    </g>
    <g id="xtick_2">
     <g id="line2d_2">
      <g>
       <use xlink:href="#m2d242a6a10" x="262.837246" y="320.4" style="stroke: #000000; stroke-width: 0.8"/>
      </g>
     </g>
     <g id="text_2">
      <!-- 1996 -->
      <g transform="translate(250.112246 334.998438) scale(0.1 -0.1)">
       <defs>
        <path id="DejaVuSans-36" d="M 2113 2584 
Q 1688 2584 1439 2293 
Q 1191 2003 1191 1497 
Q 1191 994 1439 701 
Q 1688 409 2113 409 
Q 2538 409 2786 701 
Q 3034 994 3034 1497 
Q 3034 2003 2786 2293 
Q 2538 2584 2113 2584 
z
M 3366 4563 
L 3366 3988 
Q 3128 4100 2886 4159 
Q 2644 4219 2406 4219 
Q 1781 4219 1451 3797 
Q 1122 3375 1075 2522 
Q 1259 2794 1537 2939 
Q 1816 3084 2150 3084 
Q 2853 3084 3261 2657 
Q 3669 2231 3669 1497 
Q 3669 778 3244 343 
Q 2819 -91 2113 -91 
Q 1303 -91 875 529 
Q 447 1150 447 2328 
Q 447 3434 972 4092 
Q 1497 4750 2381 4750 
Q 2619 4750 2861 4703 
Q 3103 4656 3366 4563 
z
" transform="scale(0.015625)"/>
       </defs>
       <use xlink:href="#DejaVuSans-31"/>
       <use xlink:href="#DejaVuSans-39" x="63.623047"/>
       <use xlink:href="#DejaVuSans-39" x="127.246094"/>
       <use xlink:href="#DejaVuSans-36" x="190.869141"/>
      </g>
     </g>
    </g>
    <g id="xtick_3">
     <g id="line2d_3">
      <g>
       <use xlink:href="#m2d242a6a10" x="376.306393" y="320.4" style="stroke: #000000; stroke-width: 0.8"/>
      </g>
     </g>
     <g id="text_3">
      <!-- 2000 -->
      <g transform="translate(363.581393 334.998438) scale(0.1 -0.1)">
       <defs>
        <path id="DejaVuSans-30" d="M 2034 4250 
Q 1547 4250 1301 3770 
Q 1056 3291 1056 2328 
Q 1056 1369 1301 889 
Q 1547 409 2034 409 
Q 2525 409 2770 889 
Q 3016 1369 3016 2328 
Q 3016 3291 2770 3770 
Q 2525 4250 2034 4250 
z
M 2034 4750 
Q 2819 4750 3233 4129 
Q 3647 3509 3647 2328 
Q 3647 1150 3233 529 
Q 2819 -91 2034 -91 
Q 1250 -91 836 529 
Q 422 1150 422 2328 
Q 422 3509 836 4129 
Q 1250 4750 2034 4750 
z
" transform="scale(0.015625)"/>
       </defs>
       <use xlink:href="#DejaVuSans-32"/>
       <use xlink:href="#DejaVuSans-30" x="63.623047"/>
       <use xlink:href="#DejaVuSans-30" x="127.246094"/>
       <use xlink:href="#DejaVuSans-30" x="190.869141"/>
      </g>
     </g>
    </g>
    <g id="xtick_4">
     <g id="line2d_4">
      <g>
       <use xlink:href="#m2d242a6a10" x="489.775541" y="320.4" style="stroke: #000000; stroke-width: 0.8"/>
      </g>
     </g>
     <g id="text_4">
      <!-- 2004 -->
      <g transform="translate(477.050541 334.998438) scale(0.1 -0.1)">
       <defs>
        <path id="DejaVuSans-34" d="M 2419 4116 
L 825 1625 
L 2419 1625 
L 2419 4116 
z
M 2253 4666 
L 3047 4666 
L 3047 1625 
L 3713 1625 
L 3713 1100 
L 3047 1100 
L 3047 0 
L 2419 0 
L 2419 1100 
L 313 1100 
L 313 1709 
L 2253 4666 
z
" transform="scale(0.015625)"/>
       </defs>
       <use xlink:href="#DejaVuSans-32"/>
       <use xlink:href="#DejaVuSans-30" x="63.623047"/>
       <use xlink:href="#DejaVuSans-30" x="127.246094"/>
       <use xlink:href="#DejaVuSans-34" x="190.869141"/>
      </g>
     </g>
    </g>
    <g id="xtick_5">
     <g id="line2d_5">
      <g>
       <use xlink:href="#m2d242a6a10" x="603.244688" y="320.4" style="stroke: #000000; stroke-width: 0.8"/>
      </g>
     </g>
     <g id="text_5">
      <!-- 2008 -->
      <g transform="translate(590.519688 334.998438) scale(0.1 -0.1)">
       <defs>
        <path id="DejaVuSans-38" d="M 2034 2216 
Q 1584 2216 1326 1975 
Q 1069 1734 1069 1313 
Q 1069 891 1326 650 
Q 1584 409 2034 409 
Q 2484 409 2743 651 
Q 3003 894 3003 1313 
Q 3003 1734 2745 1975 
Q 2488 2216 2034 2216 
z
M 1403 2484 
Q 997 2584 770 2862 
Q 544 3141 544 3541 
Q 544 4100 942 4425 
Q 1341 4750 2034 4750 
Q 2731 4750 3128 4425 
Q 3525 4100 3525 3541 
Q 3525 3141 3298 2862 
Q 3072 2584 2669 2484 
Q 3125 2378 3379 2068 
Q 3634 1759 3634 1313 
Q 3634 634 3220 271 
Q 2806 -91 2034 -91 
Q 1263 -91 848 271 
Q 434 634 434 1313 
Q 434 1759 690 2068 
Q 947 2378 1403 2484 
z
M 1172 3481 
Q 1172 3119 1398 2916 
Q 1625 2713 2034 2713 
Q 2441 2713 2670 2916 
Q 2900 3119 2900 3481 
Q 2900 3844 2670 4047 
Q 2441 4250 2034 4250 
Q 1625 4250 1398 4047 
Q 1172 3844 1172 3481 
z
" transform="scale(0.015625)"/>
       </defs>
       <use xlink:href="#DejaVuSans-32"/>
       <use xlink:href="#DejaVuSans-30" x="63.623047"/>
       <use xlink:href="#DejaVuSans-30" x="127.246094"/>
       <use xlink:href="#DejaVuSans-38" x="190.869141"/>
      </g>
     </g>
    </g>
    <g id="xtick_6">
     <g id="line2d_6">
      <g>
       <use xlink:href="#m2d242a6a10" x="716.713835" y="320.4" style="stroke: #000000; stroke-width: 0.8"/>
      </g>
     </g>
     <g id="text_6">
      <!-- 2012 -->
      <g transform="translate(703.988835 334.998438) scale(0.1 -0.1)">
       <use xlink:href="#DejaVuSans-32"/>
       <use xlink:href="#DejaVuSans-30" x="63.623047"/>
       <use xlink:href="#DejaVuSans-31" x="127.246094"/>
       <use xlink:href="#DejaVuSans-32" x="190.869141"/>
      </g>
     </g>
    </g>
    <g id="xtick_7">
     <g id="line2d_7">
      <g>
       <use xlink:href="#m2d242a6a10" x="830.182982" y="320.4" style="stroke: #000000; stroke-width: 0.8"/>
      </g>
     </g>
     <g id="text_7">
      <!-- 2016 -->
      <g transform="translate(817.457982 334.998438) scale(0.1 -0.1)">
       <use xlink:href="#DejaVuSans-32"/>
       <use xlink:href="#DejaVuSans-30" x="63.623047"/>
       <use xlink:href="#DejaVuSans-31" x="127.246094"/>
       <use xlink:href="#DejaVuSans-36" x="190.869141"/>
      </g>
     </g>
    </g>
    <g id="xtick_8">
     <g id="line2d_8">
      <g>
       <use xlink:href="#m2d242a6a10" x="943.65213" y="320.4" style="stroke: #000000; stroke-width: 0.8"/>
      </g>
     </g>
     <g id="text_8">
      <!-- 2020 -->
      <g transform="translate(930.92713 334.998438) scale(0.1 -0.1)">
       <use xlink:href="#DejaVuSans-32"/>
       <use xlink:href="#DejaVuSans-30" x="63.623047"/>
       <use xlink:href="#DejaVuSans-32" x="127.246094"/>
       <use xlink:href="#DejaVuSans-30" x="190.869141"/>
      </g>
     </g>
    </g>
   </g>
   <g id="matplotlib.axis_2">
    <g id="ytick_1">
     <g id="line2d_9">
      <defs>
       <path id="mfa10424c0f" d="M 0 0 
L -3.5 0 
" style="stroke: #000000; stroke-width: 0.8"/>
      </defs>
      <g>
       <use xlink:href="#mfa10424c0f" x="135" y="304.476175" style="stroke: #000000; stroke-width: 0.8"/>
      </g>
     </g>
     <g id="text_9">
      <!-- −2 -->
      <g transform="translate(113.257812 308.275394) scale(0.1 -0.1)">
       <defs>
        <path id="DejaVuSans-2212" d="M 678 2272 
L 4684 2272 
L 4684 1741 
L 678 1741 
L 678 2272 
z
" transform="scale(0.015625)"/>
       </defs>
       <use xlink:href="#DejaVuSans-2212"/>
       <use xlink:href="#DejaVuSans-32" x="83.789062"/>
      </g>
     </g>
    </g>
    <g id="ytick_2">
     <g id="line2d_10">
      <g>
       <use xlink:href="#mfa10424c0f" x="135" y="243.138061" style="stroke: #000000; stroke-width: 0.8"/>
      </g>
     </g>
     <g id="text_10">
      <!-- −1 -->
      <g transform="translate(113.257812 246.93728) scale(0.1 -0.1)">
       <use xlink:href="#DejaVuSans-2212"/>
       <use xlink:href="#DejaVuSans-31" x="83.789062"/>
      </g>
     </g>
    </g>
    <g id="ytick_3">
     <g id="line2d_11">
      <g>
       <use xlink:href="#mfa10424c0f" x="135" y="181.799947" style="stroke: #000000; stroke-width: 0.8"/>
      </g>
     </g>
     <g id="text_11">
      <!-- 0 -->
      <g transform="translate(121.6375 185.599166) scale(0.1 -0.1)">
       <use xlink:href="#DejaVuSans-30"/>
      </g>
     </g>
    </g>
    <g id="ytick_4">
     <g id="line2d_12">
      <g>
       <use xlink:href="#mfa10424c0f" x="135" y="120.461833" style="stroke: #000000; stroke-width: 0.8"/>
      </g>
     </g>
     <g id="text_12">
      <!-- 1 -->
      <g transform="translate(121.6375 124.261052) scale(0.1 -0.1)">
       <use xlink:href="#DejaVuSans-31"/>
      </g>
     </g>
    </g>
    <g id="ytick_5">
     <g id="line2d_13">
      <g>
       <use xlink:href="#mfa10424c0f" x="135" y="59.123719" style="stroke: #000000; stroke-width: 0.8"/>
      </g>
     </g>
     <g id="text_13">
      <!-- 2 -->
      <g transform="translate(121.6375 62.922937) scale(0.1 -0.1)">
       <use xlink:href="#DejaVuSans-32"/>
      </g>
     </g>
    </g>
    <g id="text_14">
     <!-- SGI -->
     <g transform="translate(107.178125 190.323437) rotate(-90) scale(0.1 -0.1)">
      <defs>
       <path id="DejaVuSans-53" d="M 3425 4513 
L 3425 3897 
Q 3066 4069 2747 4153 
Q 2428 4238 2131 4238 
Q 1616 4238 1336 4038 
Q 1056 3838 1056 3469 
Q 1056 3159 1242 3001 
Q 1428 2844 1947 2747 
L 2328 2669 
Q 3034 2534 3370 2195 
Q 3706 1856 3706 1288 
Q 3706 609 3251 259 
Q 2797 -91 1919 -91 
Q 1588 -91 1214 -16 
Q 841 59 441 206 
L 441 856 
Q 825 641 1194 531 
Q 1563 422 1919 422 
Q 2459 422 2753 634 
Q 3047 847 3047 1241 
Q 3047 1584 2836 1778 
Q 2625 1972 2144 2069 
L 1759 2144 
Q 1053 2284 737 2584 
Q 422 2884 422 3419 
Q 422 4038 858 4394 
Q 1294 4750 2059 4750 
Q 2388 4750 2728 4690 
Q 3069 4631 3425 4513 
z
" transform="scale(0.015625)"/>
       <path id="DejaVuSans-47" d="M 3809 666 
L 3809 1919 
L 2778 1919 
L 2778 2438 
L 4434 2438 
L 4434 434 
Q 4069 175 3628 42 
Q 3188 -91 2688 -91 
Q 1594 -91 976 548 
Q 359 1188 359 2328 
Q 359 3472 976 4111 
Q 1594 4750 2688 4750 
Q 3144 4750 3555 4637 
Q 3966 4525 4313 4306 
L 4313 3634 
Q 3963 3931 3569 4081 
Q 3175 4231 2741 4231 
Q 1884 4231 1454 3753 
Q 1025 3275 1025 2328 
Q 1025 1384 1454 906 
Q 1884 428 2741 428 
Q 3075 428 3337 486 
Q 3600 544 3809 666 
z
" transform="scale(0.015625)"/>
       <path id="DejaVuSans-49" d="M 628 4666 
L 1259 4666 
L 1259 0 
L 628 0 
L 628 4666 
z
" transform="scale(0.015625)"/>
      </defs>
      <use xlink:href="#DejaVuSans-53"/>
      <use xlink:href="#DejaVuSans-47" x="63.476562"/>
      <use xlink:href="#DejaVuSans-49" x="140.966797"/>
     </g>
    </g>
   </g>
   <g id="line2d_14">
    <path d="M 135 191.452165 
L 175.308342 80.160761 
L 177.715969 93.465218 
L 180.123597 115.788831 
L 182.298228 147.243688 
L 187.035817 153.001508 
L 189.443444 146.743072 
L 191.773406 149.76916 
L 194.181034 145.857739 
L 196.588661 136.892568 
L 198.918623 134.468345 
L 201.32625 121.551338 
L 203.656212 143.817852 
L 210.646098 189.334982 
L 217.791315 176.38729 
L 224.936532 193.118192 
L 232.004083 184.598807 
L 234.41171 184.490106 
L 236.819337 187.371918 
L 238.993969 189.583694 
L 241.401596 138.646819 
L 243.731558 121.16577 
L 246.139185 149.902129 
L 248.469147 129.948954 
L 250.876775 110.541492 
L 253.284402 95.48867 
L 255.614364 116.279854 
L 258.021991 102.420206 
L 262.759581 135.459379 
L 265.167208 126.370932 
L 267.419505 105.95044 
L 269.827132 87.766218 
L 272.157094 148.222662 
L 274.564721 182.238437 
L 276.894683 186.246327 
L 279.30231 192.172275 
L 281.709938 188.800805 
L 284.0399 185.206827 
L 286.447527 186.161287 
L 288.777489 181.981582 
L 291.185116 182.77061 
L 293.592744 180.717078 
L 295.767375 179.906461 
L 298.175002 179.901828 
L 300.504964 103.640381 
L 302.912592 98.917764 
L 305.242554 108.426463 
L 307.650181 109.681977 
L 310.057808 120.759093 
L 312.38777 107.443677 
L 314.795398 113.035891 
L 317.12536 120.071314 
L 319.532987 124.287712 
L 321.940614 112.691613 
L 324.115245 105.203505 
L 326.522873 117.161474 
L 328.852835 109.492884 
L 331.260462 110.330495 
L 333.590424 136.622345 
L 335.998051 142.736135 
L 338.405679 136.242104 
L 340.735641 127.485086 
L 345.47323 149.43247 
L 347.880857 153.153346 
L 350.288485 152.577743 
L 352.463116 151.191883 
L 354.870743 155.762325 
L 357.200705 158.02379 
L 359.608333 125.77371 
L 361.938295 114.641806 
L 364.345922 107.567652 
L 366.753549 130.043879 
L 369.083511 129.855533 
L 371.491139 142.086006 
L 373.8211 146.015602 
L 376.228728 152.651867 
L 380.888652 157.383238 
L 383.296279 173.735432 
L 385.626241 187.707168 
L 388.033868 207.931786 
L 390.36383 191.880145 
L 392.771458 165.096101 
L 395.179085 172.333119 
L 397.509047 178.200027 
L 399.916674 180.528434 
L 402.246636 191.347278 
L 407.061891 194.918262 
L 413.974112 210.015758 
L 416.381739 222.536549 
L 418.711701 232.134073 
L 421.119328 233.690154 
L 428.264545 232.48513 
L 430.594507 229.635235 
L 433.002134 230.321051 
L 435.409762 232.519262 
L 437.584393 232.329174 
L 439.99202 230.714112 
L 442.321982 245.964346 
L 444.729609 256.710251 
L 449.467199 160.919383 
L 456.612415 196.326883 
L 458.942377 200.396936 
L 461.350005 207.073512 
L 463.757632 214.437461 
L 465.932263 217.063401 
L 468.339891 207.986412 
L 470.669852 226.200227 
L 473.07748 229.53321 
L 475.407442 231.510981 
L 477.815069 228.76626 
L 480.222696 224.378527 
L 482.552658 222.296056 
L 484.960286 228.148772 
L 487.290248 227.773994 
L 489.697875 229.798067 
L 492.105502 235.011601 
L 494.357799 237.404531 
L 496.765426 244.309986 
L 499.095388 246.948145 
L 501.503016 256.384105 
L 503.832978 264.826463 
L 506.240605 263.027059 
L 508.648232 254.961821 
L 510.978194 256.413637 
L 513.385822 263.067364 
L 515.715784 259.269533 
L 518.123411 259.666086 
L 520.531038 270.48977 
L 522.705669 275.250603 
L 525.113297 277.186621 
L 527.443259 274.847321 
L 529.850886 274.937654 
L 534.588475 280.962201 
L 536.996103 271.678829 
L 541.733692 284.72154 
L 544.063654 279.504769 
L 546.471281 281.777437 
L 548.878909 299.324257 
L 551.05354 306.064657 
L 553.461167 307.8 
L 555.791129 236.300233 
L 558.198757 203.742906 
L 560.528719 214.034734 
L 562.936346 219.964503 
L 565.343973 220.662138 
L 567.673935 221.684233 
L 570.081563 226.674651 
L 572.411525 225.721915 
L 574.819152 227.076362 
L 577.226779 230.236227 
L 579.40141 230.503519 
L 581.809038 217.737716 
L 584.139 207.561949 
L 586.546627 196.035866 
L 588.876589 164.998524 
L 591.284216 159.648943 
L 593.691844 162.910275 
L 596.021806 159.368897 
L 598.429433 168.275059 
L 600.759395 160.455325 
L 605.57465 155.560642 
L 607.826946 156.020234 
L 610.234574 171.813513 
L 612.564536 175.239595 
L 614.972163 164.836097 
L 617.302125 134.989217 
L 622.11738 135.661056 
L 626.854969 134.450898 
L 631.592558 130.976841 
L 634.000186 117.101737 
L 636.174817 117.529609 
L 638.582444 123.758262 
L 640.912406 172.303356 
L 643.320033 131.826669 
L 645.649995 138.429389 
L 648.057623 146.081347 
L 650.46525 152.587129 
L 652.795212 145.346046 
L 655.202839 153.125871 
L 657.532801 147.522134 
L 659.940429 151.1321 
L 662.348056 148.857809 
L 664.522687 147.524643 
L 666.930315 155.203227 
L 669.260277 165.905465 
L 671.667904 153.094895 
L 673.997866 142.606271 
L 676.405493 143.275054 
L 678.813121 150.789283 
L 681.143082 146.270781 
L 683.55071 134.296224 
L 685.880672 131.777237 
L 688.288299 133.616711 
L 690.695927 124.114847 
L 692.870558 113.250138 
L 695.278185 103.012323 
L 697.608147 82.274671 
L 700.015774 108.077558 
L 702.345736 114.536846 
L 704.753364 119.838725 
L 707.160991 132.962421 
L 709.490953 130.982239 
L 711.89858 135.868485 
L 714.228542 117.948963 
L 716.63617 117.065426 
L 719.043797 99.979176 
L 721.296094 87.051834 
L 723.703721 55.8 
L 726.033683 136.751709 
L 728.44131 172.255424 
L 730.771272 178.41002 
L 733.1789 190.360592 
L 735.586527 198.831744 
L 737.916489 188.779142 
L 740.324116 175.803829 
L 742.654078 168.394547 
L 745.061705 170.307468 
L 749.643964 175.976289 
L 752.051591 187.893529 
L 754.381553 195.260866 
L 756.789181 216.887915 
L 759.119143 232.494397 
L 761.52677 234.308346 
L 763.934397 241.336296 
L 766.264359 244.065522 
L 768.671987 234.204665 
L 771.001949 229.049617 
L 773.409576 229.746815 
L 775.817203 237.155271 
L 777.991834 232.563319 
L 780.399462 223.529359 
L 782.729424 227.149492 
L 785.137051 195.274934 
L 787.467013 194.337949 
L 789.87464 201.47405 
L 792.282268 208.253505 
L 794.61223 210.719201 
L 797.019857 200.52992 
L 799.349819 193.075481 
L 801.757446 194.052294 
L 804.165074 196.268128 
L 806.339705 198.039885 
L 808.747332 195.790534 
L 811.077294 207.781766 
L 813.484922 225.972925 
L 815.814884 241.232256 
L 818.222511 245.430487 
L 820.630138 246.805536 
L 822.9601 249.573824 
L 825.367728 239.220594 
L 827.69769 234.342698 
L 830.105317 232.822892 
L 832.512944 235.31184 
L 834.765241 235.18703 
L 837.172868 232.839093 
L 839.50283 242.588783 
L 844.240419 255.493517 
L 846.648047 254.998046 
L 849.055674 250.27271 
L 851.385636 243.461162 
L 853.793263 243.21662 
L 856.123225 237.826095 
L 858.530853 238.422261 
L 860.93848 243.880619 
L 863.113111 247.984104 
L 865.520739 257.272535 
L 870.258328 233.425557 
L 872.58829 208.783392 
L 874.995917 192.841417 
L 877.403545 196.779123 
L 879.733507 201.057401 
L 882.141134 203.376347 
L 884.471096 195.168498 
L 886.878723 196.735349 
L 891.460982 200.537943 
L 893.868609 198.84816 
L 896.198571 152.239645 
L 898.606198 129.388681 
L 900.93616 146.602679 
L 903.343788 152.22794 
L 905.751415 160.101396 
L 908.081377 156.611279 
L 910.489004 152.641714 
L 912.818966 145.890607 
L 915.226594 149.051828 
L 917.634221 147.720242 
L 919.808852 144.033245 
L 922.21648 152.10016 
L 924.546441 146.987163 
L 926.954069 140.001483 
L 929.284031 158.942999 
L 931.691658 170.439981 
L 934.099286 173.866978 
L 938.836875 159.461304 
L 941.166837 154.927856 
L 943.574464 158.167345 
L 945.982091 157.946889 
L 948.234388 156.852887 
L 950.642015 147.419434 
L 952.971977 123.0042 
L 955.379605 144.457147 
L 957.709567 168.300259 
L 960.117194 184.581529 
L 962.524821 190.452485 
L 964.854783 190.649535 
L 967.262411 186.643871 
L 969.592373 180.852182 
L 972 181.264612 
L 972 181.264612 
" clip-path="url(#pa12f37e71b)" style="fill: none; stroke: #7f7f7f; stroke-width: 1.5; stroke-linecap: square"/>
   </g>
   <g id="line2d_15">
    <path d="M 135 181.799947 
L 972 181.799947 
" clip-path="url(#pa12f37e71b)" style="fill: none; stroke: #000000; stroke-width: 1.5; stroke-linecap: square"/>
   </g>
   <g id="patch_3">
    <path d="M 135 320.4 
L 135 43.2 
" style="fill: none; stroke: #000000; stroke-width: 0.8; stroke-linejoin: miter; stroke-linecap: square"/>
   </g>
   <g id="patch_4">
    <path d="M 135 320.4 
L 972 320.4 
" style="fill: none; stroke: #000000; stroke-width: 0.8; stroke-linejoin: miter; stroke-linecap: square"/>
   </g>
   <g id="text_15">
    <!-- SGI for GWIC ID 96826 -->
    <g transform="translate(135 37.2) scale(0.12 -0.12)">
     <defs>
      <path id="DejaVuSans-Bold-53" d="M 3834 4519 
L 3834 3531 
Q 3450 3703 3084 3790 
Q 2719 3878 2394 3878 
Q 1963 3878 1756 3759 
Q 1550 3641 1550 3391 
Q 1550 3203 1689 3098 
Q 1828 2994 2194 2919 
L 2706 2816 
Q 3484 2659 3812 2340 
Q 4141 2022 4141 1434 
Q 4141 663 3683 286 
Q 3225 -91 2284 -91 
Q 1841 -91 1394 -6 
Q 947 78 500 244 
L 500 1259 
Q 947 1022 1364 901 
Q 1781 781 2169 781 
Q 2563 781 2772 912 
Q 2981 1044 2981 1288 
Q 2981 1506 2839 1625 
Q 2697 1744 2272 1838 
L 1806 1941 
Q 1106 2091 782 2419 
Q 459 2747 459 3303 
Q 459 4000 909 4375 
Q 1359 4750 2203 4750 
Q 2588 4750 2994 4692 
Q 3400 4634 3834 4519 
z
" transform="scale(0.015625)"/>
      <path id="DejaVuSans-Bold-47" d="M 4781 347 
Q 4331 128 3847 18 
Q 3363 -91 2847 -91 
Q 1681 -91 1000 561 
Q 319 1213 319 2328 
Q 319 3456 1012 4103 
Q 1706 4750 2913 4750 
Q 3378 4750 3804 4662 
Q 4231 4575 4609 4403 
L 4609 3438 
Q 4219 3659 3833 3768 
Q 3447 3878 3059 3878 
Q 2341 3878 1952 3476 
Q 1563 3075 1563 2328 
Q 1563 1588 1938 1184 
Q 2313 781 3003 781 
Q 3191 781 3352 804 
Q 3513 828 3641 878 
L 3641 1784 
L 2906 1784 
L 2906 2591 
L 4781 2591 
L 4781 347 
z
" transform="scale(0.015625)"/>
      <path id="DejaVuSans-Bold-49" d="M 588 4666 
L 1791 4666 
L 1791 0 
L 588 0 
L 588 4666 
z
" transform="scale(0.015625)"/>
      <path id="DejaVuSans-Bold-20" transform="scale(0.015625)"/>
      <path id="DejaVuSans-Bold-66" d="M 2841 4863 
L 2841 4128 
L 2222 4128 
Q 1984 4128 1890 4042 
Q 1797 3956 1797 3744 
L 1797 3500 
L 2753 3500 
L 2753 2700 
L 1797 2700 
L 1797 0 
L 678 0 
L 678 2700 
L 122 2700 
L 122 3500 
L 678 3500 
L 678 3744 
Q 678 4316 997 4589 
Q 1316 4863 1984 4863 
L 2841 4863 
z
" transform="scale(0.015625)"/>
      <path id="DejaVuSans-Bold-6f" d="M 2203 2784 
Q 1831 2784 1636 2517 
Q 1441 2250 1441 1747 
Q 1441 1244 1636 976 
Q 1831 709 2203 709 
Q 2569 709 2762 976 
Q 2956 1244 2956 1747 
Q 2956 2250 2762 2517 
Q 2569 2784 2203 2784 
z
M 2203 3584 
Q 3106 3584 3614 3096 
Q 4122 2609 4122 1747 
Q 4122 884 3614 396 
Q 3106 -91 2203 -91 
Q 1297 -91 786 396 
Q 275 884 275 1747 
Q 275 2609 786 3096 
Q 1297 3584 2203 3584 
z
" transform="scale(0.015625)"/>
      <path id="DejaVuSans-Bold-72" d="M 3138 2547 
Q 2991 2616 2845 2648 
Q 2700 2681 2553 2681 
Q 2122 2681 1889 2404 
Q 1656 2128 1656 1613 
L 1656 0 
L 538 0 
L 538 3500 
L 1656 3500 
L 1656 2925 
Q 1872 3269 2151 3426 
Q 2431 3584 2822 3584 
Q 2878 3584 2943 3579 
Q 3009 3575 3134 3559 
L 3138 2547 
z
" transform="scale(0.015625)"/>
      <path id="DejaVuSans-Bold-57" d="M 191 4666 
L 1344 4666 
L 2150 1275 
L 2950 4666 
L 4109 4666 
L 4909 1275 
L 5716 4666 
L 6859 4666 
L 5759 0 
L 4372 0 
L 3525 3547 
L 2688 0 
L 1300 0 
L 191 4666 
z
" transform="scale(0.015625)"/>
      <path id="DejaVuSans-Bold-43" d="M 4288 256 
Q 3956 84 3597 -3 
Q 3238 -91 2847 -91 
Q 1681 -91 1000 561 
Q 319 1213 319 2328 
Q 319 3447 1000 4098 
Q 1681 4750 2847 4750 
Q 3238 4750 3597 4662 
Q 3956 4575 4288 4403 
L 4288 3438 
Q 3953 3666 3628 3772 
Q 3303 3878 2944 3878 
Q 2300 3878 1931 3465 
Q 1563 3053 1563 2328 
Q 1563 1606 1931 1193 
Q 2300 781 2944 781 
Q 3303 781 3628 887 
Q 3953 994 4288 1222 
L 4288 256 
z
" transform="scale(0.015625)"/>
      <path id="DejaVuSans-Bold-44" d="M 1791 3756 
L 1791 909 
L 2222 909 
Q 2959 909 3348 1275 
Q 3738 1641 3738 2338 
Q 3738 3031 3350 3393 
Q 2963 3756 2222 3756 
L 1791 3756 
z
M 588 4666 
L 1856 4666 
Q 2919 4666 3439 4514 
Q 3959 4363 4331 4000 
Q 4659 3684 4818 3271 
Q 4978 2859 4978 2338 
Q 4978 1809 4818 1395 
Q 4659 981 4331 666 
Q 3956 303 3431 151 
Q 2906 0 1856 0 
L 588 0 
L 588 4666 
z
" transform="scale(0.015625)"/>
      <path id="DejaVuSans-Bold-39" d="M 641 103 
L 641 966 
Q 928 831 1190 764 
Q 1453 697 1709 697 
Q 2247 697 2547 995 
Q 2847 1294 2900 1881 
Q 2688 1725 2447 1647 
Q 2206 1569 1925 1569 
Q 1209 1569 770 1986 
Q 331 2403 331 3084 
Q 331 3838 820 4291 
Q 1309 4744 2131 4744 
Q 3044 4744 3544 4128 
Q 4044 3513 4044 2388 
Q 4044 1231 3459 570 
Q 2875 -91 1856 -91 
Q 1528 -91 1228 -42 
Q 928 6 641 103 
z
M 2125 2350 
Q 2441 2350 2600 2554 
Q 2759 2759 2759 3169 
Q 2759 3575 2600 3781 
Q 2441 3988 2125 3988 
Q 1809 3988 1650 3781 
Q 1491 3575 1491 3169 
Q 1491 2759 1650 2554 
Q 1809 2350 2125 2350 
z
" transform="scale(0.015625)"/>
      <path id="DejaVuSans-Bold-36" d="M 2316 2303 
Q 2000 2303 1842 2098 
Q 1684 1894 1684 1484 
Q 1684 1075 1842 870 
Q 2000 666 2316 666 
Q 2634 666 2792 870 
Q 2950 1075 2950 1484 
Q 2950 1894 2792 2098 
Q 2634 2303 2316 2303 
z
M 3803 4544 
L 3803 3681 
Q 3506 3822 3243 3889 
Q 2981 3956 2731 3956 
Q 2194 3956 1894 3657 
Q 1594 3359 1544 2772 
Q 1750 2925 1990 3001 
Q 2231 3078 2516 3078 
Q 3231 3078 3670 2659 
Q 4109 2241 4109 1563 
Q 4109 813 3618 361 
Q 3128 -91 2303 -91 
Q 1394 -91 895 523 
Q 397 1138 397 2266 
Q 397 3422 980 4083 
Q 1563 4744 2578 4744 
Q 2900 4744 3203 4694 
Q 3506 4644 3803 4544 
z
" transform="scale(0.015625)"/>
      <path id="DejaVuSans-Bold-38" d="M 2228 2088 
Q 1891 2088 1709 1903 
Q 1528 1719 1528 1375 
Q 1528 1031 1709 848 
Q 1891 666 2228 666 
Q 2563 666 2741 848 
Q 2919 1031 2919 1375 
Q 2919 1722 2741 1905 
Q 2563 2088 2228 2088 
z
M 1350 2484 
Q 925 2613 709 2878 
Q 494 3144 494 3541 
Q 494 4131 934 4440 
Q 1375 4750 2228 4750 
Q 3075 4750 3515 4442 
Q 3956 4134 3956 3541 
Q 3956 3144 3739 2878 
Q 3522 2613 3097 2484 
Q 3572 2353 3814 2058 
Q 4056 1763 4056 1313 
Q 4056 619 3595 264 
Q 3134 -91 2228 -91 
Q 1319 -91 855 264 
Q 391 619 391 1313 
Q 391 1763 633 2058 
Q 875 2353 1350 2484 
z
M 1631 3419 
Q 1631 3141 1786 2991 
Q 1941 2841 2228 2841 
Q 2509 2841 2662 2991 
Q 2816 3141 2816 3419 
Q 2816 3697 2662 3845 
Q 2509 3994 2228 3994 
Q 1941 3994 1786 3844 
Q 1631 3694 1631 3419 
z
" transform="scale(0.015625)"/>
      <path id="DejaVuSans-Bold-32" d="M 1844 884 
L 3897 884 
L 3897 0 
L 506 0 
L 506 884 
L 2209 2388 
Q 2438 2594 2547 2791 
Q 2656 2988 2656 3200 
Q 2656 3528 2436 3728 
Q 2216 3928 1850 3928 
Q 1569 3928 1234 3808 
Q 900 3688 519 3450 
L 519 4475 
Q 925 4609 1322 4679 
Q 1719 4750 2100 4750 
Q 2938 4750 3402 4381 
Q 3866 4013 3866 3353 
Q 3866 2972 3669 2642 
Q 3472 2313 2841 1759 
L 1844 884 
z
" transform="scale(0.015625)"/>
     </defs>
     <use xlink:href="#DejaVuSans-Bold-53"/>
     <use xlink:href="#DejaVuSans-Bold-47" x="72.021484"/>
     <use xlink:href="#DejaVuSans-Bold-49" x="154.101562"/>
     <use xlink:href="#DejaVuSans-Bold-20" x="191.308594"/>
     <use xlink:href="#DejaVuSans-Bold-66" x="226.123047"/>
     <use xlink:href="#DejaVuSans-Bold-6f" x="269.628906"/>
     <use xlink:href="#DejaVuSans-Bold-72" x="338.330078"/>
     <use xlink:href="#DejaVuSans-Bold-20" x="387.646484"/>
     <use xlink:href="#DejaVuSans-Bold-47" x="422.460938"/>
     <use xlink:href="#DejaVuSans-Bold-57" x="504.541016"/>
     <use xlink:href="#DejaVuSans-Bold-49" x="614.84375"/>
     <use xlink:href="#DejaVuSans-Bold-43" x="652.050781"/>
     <use xlink:href="#DejaVuSans-Bold-20" x="725.439453"/>
     <use xlink:href="#DejaVuSans-Bold-49" x="760.253906"/>
     <use xlink:href="#DejaVuSans-Bold-44" x="797.460938"/>
     <use xlink:href="#DejaVuSans-Bold-20" x="880.46875"/>
     <use xlink:href="#DejaVuSans-Bold-39" x="915.283203"/>
     <use xlink:href="#DejaVuSans-Bold-36" x="984.863281"/>
     <use xlink:href="#DejaVuSans-Bold-38" x="1054.443359"/>
     <use xlink:href="#DejaVuSans-Bold-32" x="1124.023438"/>
     <use xlink:href="#DejaVuSans-Bold-36" x="1193.603516"/>
    </g>
   </g>
   <g id="PathCollection_1">
    <defs>
     <path id="md57dfb3092" d="M 0 3 
C 0.795609 3 1.55874 2.683901 2.12132 2.12132 
C 2.683901 1.55874 3 0.795609 3 0 
C 3 -0.795609 2.683901 -1.55874 2.12132 -2.12132 
C 1.55874 -2.683901 0.795609 -3 0 -3 
C -0.795609 -3 -1.55874 -2.683901 -2.12132 -2.12132 
C -2.683901 -1.55874 -3 -0.795609 -3 0 
C -3 0.795609 -2.683901 1.55874 -2.12132 2.12132 
C -1.55874 2.683901 -0.795609 3 0 3 
z
" style="stroke: #ffffff; stroke-width: 0.48"/>
    </defs>
    <g clip-path="url(#pa12f37e71b)">
     <use xlink:href="#md57dfb3092" x="135" y="191.452165" style="stroke: #ffffff; stroke-width: 0.48"/>
     <use xlink:href="#md57dfb3092" x="175.308342" y="80.160761" style="stroke: #ffffff; stroke-width: 0.48"/>
     <use xlink:href="#md57dfb3092" x="177.715969" y="93.465218" style="stroke: #ffffff; stroke-width: 0.48"/>
     <use xlink:href="#md57dfb3092" x="180.123597" y="115.788831" style="stroke: #ffffff; stroke-width: 0.48"/>
     <use xlink:href="#md57dfb3092" x="182.298228" y="147.243688" style="stroke: #ffffff; stroke-width: 0.48"/>
     <use xlink:href="#md57dfb3092" x="187.035817" y="153.001508" style="stroke: #ffffff; stroke-width: 0.48"/>
     <use xlink:href="#md57dfb3092" x="189.443444" y="146.743072" style="stroke: #ffffff; stroke-width: 0.48"/>
     <use xlink:href="#md57dfb3092" x="191.773406" y="149.76916" style="stroke: #ffffff; stroke-width: 0.48"/>
     <use xlink:href="#md57dfb3092" x="194.181034" y="145.857739" style="stroke: #ffffff; stroke-width: 0.48"/>
     <use xlink:href="#md57dfb3092" x="196.588661" y="136.892568" style="stroke: #ffffff; stroke-width: 0.48"/>
     <use xlink:href="#md57dfb3092" x="198.918623" y="134.468345" style="stroke: #ffffff; stroke-width: 0.48"/>
     <use xlink:href="#md57dfb3092" x="201.32625" y="121.551338" style="stroke: #ffffff; stroke-width: 0.48"/>
     <use xlink:href="#md57dfb3092" x="203.656212" y="143.817852" style="stroke: #ffffff; stroke-width: 0.48"/>
     <use xlink:href="#md57dfb3092" x="210.646098" y="189.334982" style="stroke: #ffffff; stroke-width: 0.48"/>
     <use xlink:href="#md57dfb3092" x="217.791315" y="176.38729" style="stroke: #ffffff; stroke-width: 0.48"/>
     <use xlink:href="#md57dfb3092" x="224.936532" y="193.118192" style="stroke: #ffffff; stroke-width: 0.48"/>
     <use xlink:href="#md57dfb3092" x="232.004083" y="184.598807" style="stroke: #ffffff; stroke-width: 0.48"/>
     <use xlink:href="#md57dfb3092" x="234.41171" y="184.490106" style="stroke: #ffffff; stroke-width: 0.48"/>
     <use xlink:href="#md57dfb3092" x="236.819337" y="187.371918" style="stroke: #ffffff; stroke-width: 0.48"/>
     <use xlink:href="#md57dfb3092" x="238.993969" y="189.583694" style="stroke: #ffffff; stroke-width: 0.48"/>
     <use xlink:href="#md57dfb3092" x="241.401596" y="138.646819" style="stroke: #ffffff; stroke-width: 0.48"/>
     <use xlink:href="#md57dfb3092" x="243.731558" y="121.16577" style="stroke: #ffffff; stroke-width: 0.48"/>
     <use xlink:href="#md57dfb3092" x="246.139185" y="149.902129" style="stroke: #ffffff; stroke-width: 0.48"/>
     <use xlink:href="#md57dfb3092" x="248.469147" y="129.948954" style="stroke: #ffffff; stroke-width: 0.48"/>
     <use xlink:href="#md57dfb3092" x="250.876775" y="110.541492" style="stroke: #ffffff; stroke-width: 0.48"/>
     <use xlink:href="#md57dfb3092" x="253.284402" y="95.48867" style="stroke: #ffffff; stroke-width: 0.48"/>
     <use xlink:href="#md57dfb3092" x="255.614364" y="116.279854" style="stroke: #ffffff; stroke-width: 0.48"/>
     <use xlink:href="#md57dfb3092" x="258.021991" y="102.420206" style="stroke: #ffffff; stroke-width: 0.48"/>
     <use xlink:href="#md57dfb3092" x="262.759581" y="135.459379" style="stroke: #ffffff; stroke-width: 0.48"/>
     <use xlink:href="#md57dfb3092" x="265.167208" y="126.370932" style="stroke: #ffffff; stroke-width: 0.48"/>
     <use xlink:href="#md57dfb3092" x="267.419505" y="105.95044" style="stroke: #ffffff; stroke-width: 0.48"/>
     <use xlink:href="#md57dfb3092" x="269.827132" y="87.766218" style="stroke: #ffffff; stroke-width: 0.48"/>
     <use xlink:href="#md57dfb3092" x="272.157094" y="148.222662" style="stroke: #ffffff; stroke-width: 0.48"/>
     <use xlink:href="#md57dfb3092" x="274.564721" y="182.238437" style="stroke: #ffffff; stroke-width: 0.48"/>
     <use xlink:href="#md57dfb3092" x="276.894683" y="186.246327" style="stroke: #ffffff; stroke-width: 0.48"/>
     <use xlink:href="#md57dfb3092" x="279.30231" y="192.172275" style="stroke: #ffffff; stroke-width: 0.48"/>
     <use xlink:href="#md57dfb3092" x="281.709938" y="188.800805" style="stroke: #ffffff; stroke-width: 0.48"/>
     <use xlink:href="#md57dfb3092" x="284.0399" y="185.206827" style="stroke: #ffffff; stroke-width: 0.48"/>
     <use xlink:href="#md57dfb3092" x="286.447527" y="186.161287" style="stroke: #ffffff; stroke-width: 0.48"/>
     <use xlink:href="#md57dfb3092" x="288.777489" y="181.981582" style="stroke: #ffffff; stroke-width: 0.48"/>
     <use xlink:href="#md57dfb3092" x="291.185116" y="182.77061" style="stroke: #ffffff; stroke-width: 0.48"/>
     <use xlink:href="#md57dfb3092" x="293.592744" y="180.717078" style="stroke: #ffffff; stroke-width: 0.48"/>
     <use xlink:href="#md57dfb3092" x="295.767375" y="179.906461" style="stroke: #ffffff; stroke-width: 0.48"/>
     <use xlink:href="#md57dfb3092" x="298.175002" y="179.901828" style="stroke: #ffffff; stroke-width: 0.48"/>
     <use xlink:href="#md57dfb3092" x="300.504964" y="103.640381" style="stroke: #ffffff; stroke-width: 0.48"/>
     <use xlink:href="#md57dfb3092" x="302.912592" y="98.917764" style="stroke: #ffffff; stroke-width: 0.48"/>
     <use xlink:href="#md57dfb3092" x="305.242554" y="108.426463" style="stroke: #ffffff; stroke-width: 0.48"/>
     <use xlink:href="#md57dfb3092" x="307.650181" y="109.681977" style="stroke: #ffffff; stroke-width: 0.48"/>
     <use xlink:href="#md57dfb3092" x="310.057808" y="120.759093" style="stroke: #ffffff; stroke-width: 0.48"/>
     <use xlink:href="#md57dfb3092" x="312.38777" y="107.443677" style="stroke: #ffffff; stroke-width: 0.48"/>
     <use xlink:href="#md57dfb3092" x="314.795398" y="113.035891" style="stroke: #ffffff; stroke-width: 0.48"/>
     <use xlink:href="#md57dfb3092" x="317.12536" y="120.071314" style="stroke: #ffffff; stroke-width: 0.48"/>
     <use xlink:href="#md57dfb3092" x="319.532987" y="124.287712" style="stroke: #ffffff; stroke-width: 0.48"/>
     <use xlink:href="#md57dfb3092" x="321.940614" y="112.691613" style="stroke: #ffffff; stroke-width: 0.48"/>
     <use xlink:href="#md57dfb3092" x="324.115245" y="105.203505" style="stroke: #ffffff; stroke-width: 0.48"/>
     <use xlink:href="#md57dfb3092" x="326.522873" y="117.161474" style="stroke: #ffffff; stroke-width: 0.48"/>
     <use xlink:href="#md57dfb3092" x="328.852835" y="109.492884" style="stroke: #ffffff; stroke-width: 0.48"/>
     <use xlink:href="#md57dfb3092" x="331.260462" y="110.330495" style="stroke: #ffffff; stroke-width: 0.48"/>
     <use xlink:href="#md57dfb3092" x="333.590424" y="136.622345" style="stroke: #ffffff; stroke-width: 0.48"/>
     <use xlink:href="#md57dfb3092" x="335.998051" y="142.736135" style="stroke: #ffffff; stroke-width: 0.48"/>
     <use xlink:href="#md57dfb3092" x="338.405679" y="136.242104" style="stroke: #ffffff; stroke-width: 0.48"/>
     <use xlink:href="#md57dfb3092" x="340.735641" y="127.485086" style="stroke: #ffffff; stroke-width: 0.48"/>
     <use xlink:href="#md57dfb3092" x="343.143268" y="138.831765" style="stroke: #ffffff; stroke-width: 0.48"/>
     <use xlink:href="#md57dfb3092" x="345.47323" y="149.43247" style="stroke: #ffffff; stroke-width: 0.48"/>
     <use xlink:href="#md57dfb3092" x="347.880857" y="153.153346" style="stroke: #ffffff; stroke-width: 0.48"/>
     <use xlink:href="#md57dfb3092" x="350.288485" y="152.577743" style="stroke: #ffffff; stroke-width: 0.48"/>
     <use xlink:href="#md57dfb3092" x="352.463116" y="151.191883" style="stroke: #ffffff; stroke-width: 0.48"/>
     <use xlink:href="#md57dfb3092" x="354.870743" y="155.762325" style="stroke: #ffffff; stroke-width: 0.48"/>
     <use xlink:href="#md57dfb3092" x="357.200705" y="158.02379" style="stroke: #ffffff; stroke-width: 0.48"/>
     <use xlink:href="#md57dfb3092" x="359.608333" y="125.77371" style="stroke: #ffffff; stroke-width: 0.48"/>
     <use xlink:href="#md57dfb3092" x="361.938295" y="114.641806" style="stroke: #ffffff; stroke-width: 0.48"/>
     <use xlink:href="#md57dfb3092" x="364.345922" y="107.567652" style="stroke: #ffffff; stroke-width: 0.48"/>
     <use xlink:href="#md57dfb3092" x="366.753549" y="130.043879" style="stroke: #ffffff; stroke-width: 0.48"/>
     <use xlink:href="#md57dfb3092" x="369.083511" y="129.855533" style="stroke: #ffffff; stroke-width: 0.48"/>
     <use xlink:href="#md57dfb3092" x="371.491139" y="142.086006" style="stroke: #ffffff; stroke-width: 0.48"/>
     <use xlink:href="#md57dfb3092" x="373.8211" y="146.015602" style="stroke: #ffffff; stroke-width: 0.48"/>
     <use xlink:href="#md57dfb3092" x="376.228728" y="152.651867" style="stroke: #ffffff; stroke-width: 0.48"/>
     <use xlink:href="#md57dfb3092" x="378.636355" y="155.073568" style="stroke: #ffffff; stroke-width: 0.48"/>
     <use xlink:href="#md57dfb3092" x="380.888652" y="157.383238" style="stroke: #ffffff; stroke-width: 0.48"/>
     <use xlink:href="#md57dfb3092" x="383.296279" y="173.735432" style="stroke: #ffffff; stroke-width: 0.48"/>
     <use xlink:href="#md57dfb3092" x="385.626241" y="187.707168" style="stroke: #ffffff; stroke-width: 0.48"/>
     <use xlink:href="#md57dfb3092" x="388.033868" y="207.931786" style="stroke: #ffffff; stroke-width: 0.48"/>
     <use xlink:href="#md57dfb3092" x="390.36383" y="191.880145" style="stroke: #ffffff; stroke-width: 0.48"/>
     <use xlink:href="#md57dfb3092" x="392.771458" y="165.096101" style="stroke: #ffffff; stroke-width: 0.48"/>
     <use xlink:href="#md57dfb3092" x="395.179085" y="172.333119" style="stroke: #ffffff; stroke-width: 0.48"/>
     <use xlink:href="#md57dfb3092" x="397.509047" y="178.200027" style="stroke: #ffffff; stroke-width: 0.48"/>
     <use xlink:href="#md57dfb3092" x="399.916674" y="180.528434" style="stroke: #ffffff; stroke-width: 0.48"/>
     <use xlink:href="#md57dfb3092" x="402.246636" y="191.347278" style="stroke: #ffffff; stroke-width: 0.48"/>
     <use xlink:href="#md57dfb3092" x="407.061891" y="194.918262" style="stroke: #ffffff; stroke-width: 0.48"/>
     <use xlink:href="#md57dfb3092" x="413.974112" y="210.015758" style="stroke: #ffffff; stroke-width: 0.48"/>
     <use xlink:href="#md57dfb3092" x="416.381739" y="222.536549" style="stroke: #ffffff; stroke-width: 0.48"/>
     <use xlink:href="#md57dfb3092" x="418.711701" y="232.134073" style="stroke: #ffffff; stroke-width: 0.48"/>
     <use xlink:href="#md57dfb3092" x="421.119328" y="233.690154" style="stroke: #ffffff; stroke-width: 0.48"/>
     <use xlink:href="#md57dfb3092" x="428.264545" y="232.48513" style="stroke: #ffffff; stroke-width: 0.48"/>
     <use xlink:href="#md57dfb3092" x="430.594507" y="229.635235" style="stroke: #ffffff; stroke-width: 0.48"/>
     <use xlink:href="#md57dfb3092" x="433.002134" y="230.321051" style="stroke: #ffffff; stroke-width: 0.48"/>
     <use xlink:href="#md57dfb3092" x="435.409762" y="232.519262" style="stroke: #ffffff; stroke-width: 0.48"/>
     <use xlink:href="#md57dfb3092" x="437.584393" y="232.329174" style="stroke: #ffffff; stroke-width: 0.48"/>
     <use xlink:href="#md57dfb3092" x="439.99202" y="230.714112" style="stroke: #ffffff; stroke-width: 0.48"/>
     <use xlink:href="#md57dfb3092" x="442.321982" y="245.964346" style="stroke: #ffffff; stroke-width: 0.48"/>
     <use xlink:href="#md57dfb3092" x="444.729609" y="256.710251" style="stroke: #ffffff; stroke-width: 0.48"/>
     <use xlink:href="#md57dfb3092" x="447.059571" y="209.566357" style="stroke: #ffffff; stroke-width: 0.48"/>
     <use xlink:href="#md57dfb3092" x="449.467199" y="160.919383" style="stroke: #ffffff; stroke-width: 0.48"/>
     <use xlink:href="#md57dfb3092" x="456.612415" y="196.326883" style="stroke: #ffffff; stroke-width: 0.48"/>
     <use xlink:href="#md57dfb3092" x="458.942377" y="200.396936" style="stroke: #ffffff; stroke-width: 0.48"/>
     <use xlink:href="#md57dfb3092" x="461.350005" y="207.073512" style="stroke: #ffffff; stroke-width: 0.48"/>
     <use xlink:href="#md57dfb3092" x="463.757632" y="214.437461" style="stroke: #ffffff; stroke-width: 0.48"/>
     <use xlink:href="#md57dfb3092" x="465.932263" y="217.063401" style="stroke: #ffffff; stroke-width: 0.48"/>
     <use xlink:href="#md57dfb3092" x="468.339891" y="207.986412" style="stroke: #ffffff; stroke-width: 0.48"/>
     <use xlink:href="#md57dfb3092" x="470.669852" y="226.200227" style="stroke: #ffffff; stroke-width: 0.48"/>
     <use xlink:href="#md57dfb3092" x="473.07748" y="229.53321" style="stroke: #ffffff; stroke-width: 0.48"/>
     <use xlink:href="#md57dfb3092" x="475.407442" y="231.510981" style="stroke: #ffffff; stroke-width: 0.48"/>
     <use xlink:href="#md57dfb3092" x="477.815069" y="228.76626" style="stroke: #ffffff; stroke-width: 0.48"/>
     <use xlink:href="#md57dfb3092" x="480.222696" y="224.378527" style="stroke: #ffffff; stroke-width: 0.48"/>
     <use xlink:href="#md57dfb3092" x="482.552658" y="222.296056" style="stroke: #ffffff; stroke-width: 0.48"/>
     <use xlink:href="#md57dfb3092" x="484.960286" y="228.148772" style="stroke: #ffffff; stroke-width: 0.48"/>
     <use xlink:href="#md57dfb3092" x="487.290248" y="227.773994" style="stroke: #ffffff; stroke-width: 0.48"/>
     <use xlink:href="#md57dfb3092" x="489.697875" y="229.798067" style="stroke: #ffffff; stroke-width: 0.48"/>
     <use xlink:href="#md57dfb3092" x="492.105502" y="235.011601" style="stroke: #ffffff; stroke-width: 0.48"/>
     <use xlink:href="#md57dfb3092" x="494.357799" y="237.404531" style="stroke: #ffffff; stroke-width: 0.48"/>
     <use xlink:href="#md57dfb3092" x="496.765426" y="244.309986" style="stroke: #ffffff; stroke-width: 0.48"/>
     <use xlink:href="#md57dfb3092" x="499.095388" y="246.948145" style="stroke: #ffffff; stroke-width: 0.48"/>
     <use xlink:href="#md57dfb3092" x="501.503016" y="256.384105" style="stroke: #ffffff; stroke-width: 0.48"/>
     <use xlink:href="#md57dfb3092" x="503.832978" y="264.826463" style="stroke: #ffffff; stroke-width: 0.48"/>
     <use xlink:href="#md57dfb3092" x="506.240605" y="263.027059" style="stroke: #ffffff; stroke-width: 0.48"/>
     <use xlink:href="#md57dfb3092" x="508.648232" y="254.961821" style="stroke: #ffffff; stroke-width: 0.48"/>
     <use xlink:href="#md57dfb3092" x="510.978194" y="256.413637" style="stroke: #ffffff; stroke-width: 0.48"/>
     <use xlink:href="#md57dfb3092" x="513.385822" y="263.067364" style="stroke: #ffffff; stroke-width: 0.48"/>
     <use xlink:href="#md57dfb3092" x="515.715784" y="259.269533" style="stroke: #ffffff; stroke-width: 0.48"/>
     <use xlink:href="#md57dfb3092" x="518.123411" y="259.666086" style="stroke: #ffffff; stroke-width: 0.48"/>
     <use xlink:href="#md57dfb3092" x="520.531038" y="270.48977" style="stroke: #ffffff; stroke-width: 0.48"/>
     <use xlink:href="#md57dfb3092" x="522.705669" y="275.250603" style="stroke: #ffffff; stroke-width: 0.48"/>
     <use xlink:href="#md57dfb3092" x="525.113297" y="277.186621" style="stroke: #ffffff; stroke-width: 0.48"/>
     <use xlink:href="#md57dfb3092" x="527.443259" y="274.847321" style="stroke: #ffffff; stroke-width: 0.48"/>
     <use xlink:href="#md57dfb3092" x="529.850886" y="274.937654" style="stroke: #ffffff; stroke-width: 0.48"/>
     <use xlink:href="#md57dfb3092" x="532.180848" y="277.972881" style="stroke: #ffffff; stroke-width: 0.48"/>
     <use xlink:href="#md57dfb3092" x="534.588475" y="280.962201" style="stroke: #ffffff; stroke-width: 0.48"/>
     <use xlink:href="#md57dfb3092" x="536.996103" y="271.678829" style="stroke: #ffffff; stroke-width: 0.48"/>
     <use xlink:href="#md57dfb3092" x="539.326065" y="277.969709" style="stroke: #ffffff; stroke-width: 0.48"/>
     <use xlink:href="#md57dfb3092" x="541.733692" y="284.72154" style="stroke: #ffffff; stroke-width: 0.48"/>
     <use xlink:href="#md57dfb3092" x="544.063654" y="279.504769" style="stroke: #ffffff; stroke-width: 0.48"/>
     <use xlink:href="#md57dfb3092" x="546.471281" y="281.777437" style="stroke: #ffffff; stroke-width: 0.48"/>
     <use xlink:href="#md57dfb3092" x="548.878909" y="299.324257" style="stroke: #ffffff; stroke-width: 0.48"/>
     <use xlink:href="#md57dfb3092" x="551.05354" y="306.064657" style="stroke: #ffffff; stroke-width: 0.48"/>
     <use xlink:href="#md57dfb3092" x="553.461167" y="307.8" style="stroke: #ffffff; stroke-width: 0.48"/>
     <use xlink:href="#md57dfb3092" x="555.791129" y="236.300233" style="stroke: #ffffff; stroke-width: 0.48"/>
     <use xlink:href="#md57dfb3092" x="558.198757" y="203.742906" style="stroke: #ffffff; stroke-width: 0.48"/>
     <use xlink:href="#md57dfb3092" x="560.528719" y="214.034734" style="stroke: #ffffff; stroke-width: 0.48"/>
     <use xlink:href="#md57dfb3092" x="562.936346" y="219.964503" style="stroke: #ffffff; stroke-width: 0.48"/>
     <use xlink:href="#md57dfb3092" x="565.343973" y="220.662138" style="stroke: #ffffff; stroke-width: 0.48"/>
     <use xlink:href="#md57dfb3092" x="567.673935" y="221.684233" style="stroke: #ffffff; stroke-width: 0.48"/>
     <use xlink:href="#md57dfb3092" x="570.081563" y="226.674651" style="stroke: #ffffff; stroke-width: 0.48"/>
     <use xlink:href="#md57dfb3092" x="572.411525" y="225.721915" style="stroke: #ffffff; stroke-width: 0.48"/>
     <use xlink:href="#md57dfb3092" x="574.819152" y="227.076362" style="stroke: #ffffff; stroke-width: 0.48"/>
     <use xlink:href="#md57dfb3092" x="577.226779" y="230.236227" style="stroke: #ffffff; stroke-width: 0.48"/>
     <use xlink:href="#md57dfb3092" x="579.40141" y="230.503519" style="stroke: #ffffff; stroke-width: 0.48"/>
     <use xlink:href="#md57dfb3092" x="581.809038" y="217.737716" style="stroke: #ffffff; stroke-width: 0.48"/>
     <use xlink:href="#md57dfb3092" x="584.139" y="207.561949" style="stroke: #ffffff; stroke-width: 0.48"/>
     <use xlink:href="#md57dfb3092" x="586.546627" y="196.035866" style="stroke: #ffffff; stroke-width: 0.48"/>
     <use xlink:href="#md57dfb3092" x="588.876589" y="164.998524" style="stroke: #ffffff; stroke-width: 0.48"/>
     <use xlink:href="#md57dfb3092" x="591.284216" y="159.648943" style="stroke: #ffffff; stroke-width: 0.48"/>
     <use xlink:href="#md57dfb3092" x="593.691844" y="162.910275" style="stroke: #ffffff; stroke-width: 0.48"/>
     <use xlink:href="#md57dfb3092" x="596.021806" y="159.368897" style="stroke: #ffffff; stroke-width: 0.48"/>
     <use xlink:href="#md57dfb3092" x="598.429433" y="168.275059" style="stroke: #ffffff; stroke-width: 0.48"/>
     <use xlink:href="#md57dfb3092" x="600.759395" y="160.455325" style="stroke: #ffffff; stroke-width: 0.48"/>
     <use xlink:href="#md57dfb3092" x="605.57465" y="155.560642" style="stroke: #ffffff; stroke-width: 0.48"/>
     <use xlink:href="#md57dfb3092" x="607.826946" y="156.020234" style="stroke: #ffffff; stroke-width: 0.48"/>
     <use xlink:href="#md57dfb3092" x="610.234574" y="171.813513" style="stroke: #ffffff; stroke-width: 0.48"/>
     <use xlink:href="#md57dfb3092" x="612.564536" y="175.239595" style="stroke: #ffffff; stroke-width: 0.48"/>
     <use xlink:href="#md57dfb3092" x="614.972163" y="164.836097" style="stroke: #ffffff; stroke-width: 0.48"/>
     <use xlink:href="#md57dfb3092" x="617.302125" y="134.989217" style="stroke: #ffffff; stroke-width: 0.48"/>
     <use xlink:href="#md57dfb3092" x="622.11738" y="135.661056" style="stroke: #ffffff; stroke-width: 0.48"/>
     <use xlink:href="#md57dfb3092" x="626.854969" y="134.450898" style="stroke: #ffffff; stroke-width: 0.48"/>
     <use xlink:href="#md57dfb3092" x="631.592558" y="130.976841" style="stroke: #ffffff; stroke-width: 0.48"/>
     <use xlink:href="#md57dfb3092" x="634.000186" y="117.101737" style="stroke: #ffffff; stroke-width: 0.48"/>
     <use xlink:href="#md57dfb3092" x="636.174817" y="117.529609" style="stroke: #ffffff; stroke-width: 0.48"/>
     <use xlink:href="#md57dfb3092" x="638.582444" y="123.758262" style="stroke: #ffffff; stroke-width: 0.48"/>
     <use xlink:href="#md57dfb3092" x="640.912406" y="172.303356" style="stroke: #ffffff; stroke-width: 0.48"/>
     <use xlink:href="#md57dfb3092" x="643.320033" y="131.826669" style="stroke: #ffffff; stroke-width: 0.48"/>
     <use xlink:href="#md57dfb3092" x="645.649995" y="138.429389" style="stroke: #ffffff; stroke-width: 0.48"/>
     <use xlink:href="#md57dfb3092" x="648.057623" y="146.081347" style="stroke: #ffffff; stroke-width: 0.48"/>
     <use xlink:href="#md57dfb3092" x="650.46525" y="152.587129" style="stroke: #ffffff; stroke-width: 0.48"/>
     <use xlink:href="#md57dfb3092" x="652.795212" y="145.346046" style="stroke: #ffffff; stroke-width: 0.48"/>
     <use xlink:href="#md57dfb3092" x="655.202839" y="153.125871" style="stroke: #ffffff; stroke-width: 0.48"/>
     <use xlink:href="#md57dfb3092" x="657.532801" y="147.522134" style="stroke: #ffffff; stroke-width: 0.48"/>
     <use xlink:href="#md57dfb3092" x="659.940429" y="151.1321" style="stroke: #ffffff; stroke-width: 0.48"/>
     <use xlink:href="#md57dfb3092" x="662.348056" y="148.857809" style="stroke: #ffffff; stroke-width: 0.48"/>
     <use xlink:href="#md57dfb3092" x="664.522687" y="147.524643" style="stroke: #ffffff; stroke-width: 0.48"/>
     <use xlink:href="#md57dfb3092" x="666.930315" y="155.203227" style="stroke: #ffffff; stroke-width: 0.48"/>
     <use xlink:href="#md57dfb3092" x="669.260277" y="165.905465" style="stroke: #ffffff; stroke-width: 0.48"/>
     <use xlink:href="#md57dfb3092" x="671.667904" y="153.094895" style="stroke: #ffffff; stroke-width: 0.48"/>
     <use xlink:href="#md57dfb3092" x="673.997866" y="142.606271" style="stroke: #ffffff; stroke-width: 0.48"/>
     <use xlink:href="#md57dfb3092" x="676.405493" y="143.275054" style="stroke: #ffffff; stroke-width: 0.48"/>
     <use xlink:href="#md57dfb3092" x="678.813121" y="150.789283" style="stroke: #ffffff; stroke-width: 0.48"/>
     <use xlink:href="#md57dfb3092" x="681.143082" y="146.270781" style="stroke: #ffffff; stroke-width: 0.48"/>
     <use xlink:href="#md57dfb3092" x="683.55071" y="134.296224" style="stroke: #ffffff; stroke-width: 0.48"/>
     <use xlink:href="#md57dfb3092" x="685.880672" y="131.777237" style="stroke: #ffffff; stroke-width: 0.48"/>
     <use xlink:href="#md57dfb3092" x="688.288299" y="133.616711" style="stroke: #ffffff; stroke-width: 0.48"/>
     <use xlink:href="#md57dfb3092" x="690.695927" y="124.114847" style="stroke: #ffffff; stroke-width: 0.48"/>
     <use xlink:href="#md57dfb3092" x="692.870558" y="113.250138" style="stroke: #ffffff; stroke-width: 0.48"/>
     <use xlink:href="#md57dfb3092" x="695.278185" y="103.012323" style="stroke: #ffffff; stroke-width: 0.48"/>
     <use xlink:href="#md57dfb3092" x="697.608147" y="82.274671" style="stroke: #ffffff; stroke-width: 0.48"/>
     <use xlink:href="#md57dfb3092" x="700.015774" y="108.077558" style="stroke: #ffffff; stroke-width: 0.48"/>
     <use xlink:href="#md57dfb3092" x="702.345736" y="114.536846" style="stroke: #ffffff; stroke-width: 0.48"/>
     <use xlink:href="#md57dfb3092" x="704.753364" y="119.838725" style="stroke: #ffffff; stroke-width: 0.48"/>
     <use xlink:href="#md57dfb3092" x="707.160991" y="132.962421" style="stroke: #ffffff; stroke-width: 0.48"/>
     <use xlink:href="#md57dfb3092" x="709.490953" y="130.982239" style="stroke: #ffffff; stroke-width: 0.48"/>
     <use xlink:href="#md57dfb3092" x="711.89858" y="135.868485" style="stroke: #ffffff; stroke-width: 0.48"/>
     <use xlink:href="#md57dfb3092" x="714.228542" y="117.948963" style="stroke: #ffffff; stroke-width: 0.48"/>
     <use xlink:href="#md57dfb3092" x="716.63617" y="117.065426" style="stroke: #ffffff; stroke-width: 0.48"/>
     <use xlink:href="#md57dfb3092" x="719.043797" y="99.979176" style="stroke: #ffffff; stroke-width: 0.48"/>
     <use xlink:href="#md57dfb3092" x="721.296094" y="87.051834" style="stroke: #ffffff; stroke-width: 0.48"/>
     <use xlink:href="#md57dfb3092" x="723.703721" y="55.8" style="stroke: #ffffff; stroke-width: 0.48"/>
     <use xlink:href="#md57dfb3092" x="726.033683" y="136.751709" style="stroke: #ffffff; stroke-width: 0.48"/>
     <use xlink:href="#md57dfb3092" x="728.44131" y="172.255424" style="stroke: #ffffff; stroke-width: 0.48"/>
     <use xlink:href="#md57dfb3092" x="730.771272" y="178.41002" style="stroke: #ffffff; stroke-width: 0.48"/>
     <use xlink:href="#md57dfb3092" x="733.1789" y="190.360592" style="stroke: #ffffff; stroke-width: 0.48"/>
     <use xlink:href="#md57dfb3092" x="735.586527" y="198.831744" style="stroke: #ffffff; stroke-width: 0.48"/>
     <use xlink:href="#md57dfb3092" x="737.916489" y="188.779142" style="stroke: #ffffff; stroke-width: 0.48"/>
     <use xlink:href="#md57dfb3092" x="740.324116" y="175.803829" style="stroke: #ffffff; stroke-width: 0.48"/>
     <use xlink:href="#md57dfb3092" x="742.654078" y="168.394547" style="stroke: #ffffff; stroke-width: 0.48"/>
     <use xlink:href="#md57dfb3092" x="745.061705" y="170.307468" style="stroke: #ffffff; stroke-width: 0.48"/>
     <use xlink:href="#md57dfb3092" x="747.469333" y="173.351706" style="stroke: #ffffff; stroke-width: 0.48"/>
     <use xlink:href="#md57dfb3092" x="749.643964" y="175.976289" style="stroke: #ffffff; stroke-width: 0.48"/>
     <use xlink:href="#md57dfb3092" x="752.051591" y="187.893529" style="stroke: #ffffff; stroke-width: 0.48"/>
     <use xlink:href="#md57dfb3092" x="754.381553" y="195.260866" style="stroke: #ffffff; stroke-width: 0.48"/>
     <use xlink:href="#md57dfb3092" x="756.789181" y="216.887915" style="stroke: #ffffff; stroke-width: 0.48"/>
     <use xlink:href="#md57dfb3092" x="759.119143" y="232.494397" style="stroke: #ffffff; stroke-width: 0.48"/>
     <use xlink:href="#md57dfb3092" x="761.52677" y="234.308346" style="stroke: #ffffff; stroke-width: 0.48"/>
     <use xlink:href="#md57dfb3092" x="763.934397" y="241.336296" style="stroke: #ffffff; stroke-width: 0.48"/>
     <use xlink:href="#md57dfb3092" x="766.264359" y="244.065522" style="stroke: #ffffff; stroke-width: 0.48"/>
     <use xlink:href="#md57dfb3092" x="768.671987" y="234.204665" style="stroke: #ffffff; stroke-width: 0.48"/>
     <use xlink:href="#md57dfb3092" x="771.001949" y="229.049617" style="stroke: #ffffff; stroke-width: 0.48"/>
     <use xlink:href="#md57dfb3092" x="773.409576" y="229.746815" style="stroke: #ffffff; stroke-width: 0.48"/>
     <use xlink:href="#md57dfb3092" x="775.817203" y="237.155271" style="stroke: #ffffff; stroke-width: 0.48"/>
     <use xlink:href="#md57dfb3092" x="777.991834" y="232.563319" style="stroke: #ffffff; stroke-width: 0.48"/>
     <use xlink:href="#md57dfb3092" x="780.399462" y="223.529359" style="stroke: #ffffff; stroke-width: 0.48"/>
     <use xlink:href="#md57dfb3092" x="782.729424" y="227.149492" style="stroke: #ffffff; stroke-width: 0.48"/>
     <use xlink:href="#md57dfb3092" x="785.137051" y="195.274934" style="stroke: #ffffff; stroke-width: 0.48"/>
     <use xlink:href="#md57dfb3092" x="787.467013" y="194.337949" style="stroke: #ffffff; stroke-width: 0.48"/>
     <use xlink:href="#md57dfb3092" x="789.87464" y="201.47405" style="stroke: #ffffff; stroke-width: 0.48"/>
     <use xlink:href="#md57dfb3092" x="792.282268" y="208.253505" style="stroke: #ffffff; stroke-width: 0.48"/>
     <use xlink:href="#md57dfb3092" x="794.61223" y="210.719201" style="stroke: #ffffff; stroke-width: 0.48"/>
     <use xlink:href="#md57dfb3092" x="797.019857" y="200.52992" style="stroke: #ffffff; stroke-width: 0.48"/>
     <use xlink:href="#md57dfb3092" x="799.349819" y="193.075481" style="stroke: #ffffff; stroke-width: 0.48"/>
     <use xlink:href="#md57dfb3092" x="801.757446" y="194.052294" style="stroke: #ffffff; stroke-width: 0.48"/>
     <use xlink:href="#md57dfb3092" x="804.165074" y="196.268128" style="stroke: #ffffff; stroke-width: 0.48"/>
     <use xlink:href="#md57dfb3092" x="806.339705" y="198.039885" style="stroke: #ffffff; stroke-width: 0.48"/>
     <use xlink:href="#md57dfb3092" x="808.747332" y="195.790534" style="stroke: #ffffff; stroke-width: 0.48"/>
     <use xlink:href="#md57dfb3092" x="811.077294" y="207.781766" style="stroke: #ffffff; stroke-width: 0.48"/>
     <use xlink:href="#md57dfb3092" x="813.484922" y="225.972925" style="stroke: #ffffff; stroke-width: 0.48"/>
     <use xlink:href="#md57dfb3092" x="815.814884" y="241.232256" style="stroke: #ffffff; stroke-width: 0.48"/>
     <use xlink:href="#md57dfb3092" x="818.222511" y="245.430487" style="stroke: #ffffff; stroke-width: 0.48"/>
     <use xlink:href="#md57dfb3092" x="820.630138" y="246.805536" style="stroke: #ffffff; stroke-width: 0.48"/>
     <use xlink:href="#md57dfb3092" x="822.9601" y="249.573824" style="stroke: #ffffff; stroke-width: 0.48"/>
     <use xlink:href="#md57dfb3092" x="825.367728" y="239.220594" style="stroke: #ffffff; stroke-width: 0.48"/>
     <use xlink:href="#md57dfb3092" x="827.69769" y="234.342698" style="stroke: #ffffff; stroke-width: 0.48"/>
     <use xlink:href="#md57dfb3092" x="830.105317" y="232.822892" style="stroke: #ffffff; stroke-width: 0.48"/>
     <use xlink:href="#md57dfb3092" x="832.512944" y="235.31184" style="stroke: #ffffff; stroke-width: 0.48"/>
     <use xlink:href="#md57dfb3092" x="834.765241" y="235.18703" style="stroke: #ffffff; stroke-width: 0.48"/>
     <use xlink:href="#md57dfb3092" x="837.172868" y="232.839093" style="stroke: #ffffff; stroke-width: 0.48"/>
     <use xlink:href="#md57dfb3092" x="839.50283" y="242.588783" style="stroke: #ffffff; stroke-width: 0.48"/>
     <use xlink:href="#md57dfb3092" x="841.910457" y="249.233004" style="stroke: #ffffff; stroke-width: 0.48"/>
     <use xlink:href="#md57dfb3092" x="844.240419" y="255.493517" style="stroke: #ffffff; stroke-width: 0.48"/>
     <use xlink:href="#md57dfb3092" x="846.648047" y="254.998046" style="stroke: #ffffff; stroke-width: 0.48"/>
     <use xlink:href="#md57dfb3092" x="849.055674" y="250.27271" style="stroke: #ffffff; stroke-width: 0.48"/>
     <use xlink:href="#md57dfb3092" x="851.385636" y="243.461162" style="stroke: #ffffff; stroke-width: 0.48"/>
     <use xlink:href="#md57dfb3092" x="853.793263" y="243.21662" style="stroke: #ffffff; stroke-width: 0.48"/>
     <use xlink:href="#md57dfb3092" x="856.123225" y="237.826095" style="stroke: #ffffff; stroke-width: 0.48"/>
     <use xlink:href="#md57dfb3092" x="858.530853" y="238.422261" style="stroke: #ffffff; stroke-width: 0.48"/>
     <use xlink:href="#md57dfb3092" x="860.93848" y="243.880619" style="stroke: #ffffff; stroke-width: 0.48"/>
     <use xlink:href="#md57dfb3092" x="863.113111" y="247.984104" style="stroke: #ffffff; stroke-width: 0.48"/>
     <use xlink:href="#md57dfb3092" x="865.520739" y="257.272535" style="stroke: #ffffff; stroke-width: 0.48"/>
     <use xlink:href="#md57dfb3092" x="867.850701" y="245.636251" style="stroke: #ffffff; stroke-width: 0.48"/>
     <use xlink:href="#md57dfb3092" x="870.258328" y="233.425557" style="stroke: #ffffff; stroke-width: 0.48"/>
     <use xlink:href="#md57dfb3092" x="872.58829" y="208.783392" style="stroke: #ffffff; stroke-width: 0.48"/>
     <use xlink:href="#md57dfb3092" x="874.995917" y="192.841417" style="stroke: #ffffff; stroke-width: 0.48"/>
     <use xlink:href="#md57dfb3092" x="877.403545" y="196.779123" style="stroke: #ffffff; stroke-width: 0.48"/>
     <use xlink:href="#md57dfb3092" x="879.733507" y="201.057401" style="stroke: #ffffff; stroke-width: 0.48"/>
     <use xlink:href="#md57dfb3092" x="882.141134" y="203.376347" style="stroke: #ffffff; stroke-width: 0.48"/>
     <use xlink:href="#md57dfb3092" x="884.471096" y="195.168498" style="stroke: #ffffff; stroke-width: 0.48"/>
     <use xlink:href="#md57dfb3092" x="886.878723" y="196.735349" style="stroke: #ffffff; stroke-width: 0.48"/>
     <use xlink:href="#md57dfb3092" x="889.286351" y="198.744074" style="stroke: #ffffff; stroke-width: 0.48"/>
     <use xlink:href="#md57dfb3092" x="891.460982" y="200.537943" style="stroke: #ffffff; stroke-width: 0.48"/>
     <use xlink:href="#md57dfb3092" x="893.868609" y="198.84816" style="stroke: #ffffff; stroke-width: 0.48"/>
     <use xlink:href="#md57dfb3092" x="896.198571" y="152.239645" style="stroke: #ffffff; stroke-width: 0.48"/>
     <use xlink:href="#md57dfb3092" x="898.606198" y="129.388681" style="stroke: #ffffff; stroke-width: 0.48"/>
     <use xlink:href="#md57dfb3092" x="900.93616" y="146.602679" style="stroke: #ffffff; stroke-width: 0.48"/>
     <use xlink:href="#md57dfb3092" x="903.343788" y="152.22794" style="stroke: #ffffff; stroke-width: 0.48"/>
     <use xlink:href="#md57dfb3092" x="905.751415" y="160.101396" style="stroke: #ffffff; stroke-width: 0.48"/>
     <use xlink:href="#md57dfb3092" x="908.081377" y="156.611279" style="stroke: #ffffff; stroke-width: 0.48"/>
     <use xlink:href="#md57dfb3092" x="910.489004" y="152.641714" style="stroke: #ffffff; stroke-width: 0.48"/>
     <use xlink:href="#md57dfb3092" x="912.818966" y="145.890607" style="stroke: #ffffff; stroke-width: 0.48"/>
     <use xlink:href="#md57dfb3092" x="915.226594" y="149.051828" style="stroke: #ffffff; stroke-width: 0.48"/>
     <use xlink:href="#md57dfb3092" x="917.634221" y="147.720242" style="stroke: #ffffff; stroke-width: 0.48"/>
     <use xlink:href="#md57dfb3092" x="919.808852" y="144.033245" style="stroke: #ffffff; stroke-width: 0.48"/>
     <use xlink:href="#md57dfb3092" x="922.21648" y="152.10016" style="stroke: #ffffff; stroke-width: 0.48"/>
     <use xlink:href="#md57dfb3092" x="924.546441" y="146.987163" style="stroke: #ffffff; stroke-width: 0.48"/>
     <use xlink:href="#md57dfb3092" x="926.954069" y="140.001483" style="stroke: #ffffff; stroke-width: 0.48"/>
     <use xlink:href="#md57dfb3092" x="929.284031" y="158.942999" style="stroke: #ffffff; stroke-width: 0.48"/>
     <use xlink:href="#md57dfb3092" x="931.691658" y="170.439981" style="stroke: #ffffff; stroke-width: 0.48"/>
     <use xlink:href="#md57dfb3092" x="934.099286" y="173.866978" style="stroke: #ffffff; stroke-width: 0.48"/>
     <use xlink:href="#md57dfb3092" x="936.429247" y="166.711363" style="stroke: #ffffff; stroke-width: 0.48"/>
     <use xlink:href="#md57dfb3092" x="938.836875" y="159.461304" style="stroke: #ffffff; stroke-width: 0.48"/>
     <use xlink:href="#md57dfb3092" x="941.166837" y="154.927856" style="stroke: #ffffff; stroke-width: 0.48"/>
     <use xlink:href="#md57dfb3092" x="943.574464" y="158.167345" style="stroke: #ffffff; stroke-width: 0.48"/>
     <use xlink:href="#md57dfb3092" x="945.982091" y="157.946889" style="stroke: #ffffff; stroke-width: 0.48"/>
     <use xlink:href="#md57dfb3092" x="948.234388" y="156.852887" style="stroke: #ffffff; stroke-width: 0.48"/>
     <use xlink:href="#md57dfb3092" x="950.642015" y="147.419434" style="stroke: #ffffff; stroke-width: 0.48"/>
     <use xlink:href="#md57dfb3092" x="952.971977" y="123.0042" style="stroke: #ffffff; stroke-width: 0.48"/>
     <use xlink:href="#md57dfb3092" x="955.379605" y="144.457147" style="stroke: #ffffff; stroke-width: 0.48"/>
     <use xlink:href="#md57dfb3092" x="957.709567" y="168.300259" style="stroke: #ffffff; stroke-width: 0.48"/>
     <use xlink:href="#md57dfb3092" x="960.117194" y="184.581529" style="stroke: #ffffff; stroke-width: 0.48"/>
     <use xlink:href="#md57dfb3092" x="962.524821" y="190.452485" style="stroke: #ffffff; stroke-width: 0.48"/>
     <use xlink:href="#md57dfb3092" x="964.854783" y="190.649535" style="stroke: #ffffff; stroke-width: 0.48"/>
     <use xlink:href="#md57dfb3092" x="967.262411" y="186.643871" style="stroke: #ffffff; stroke-width: 0.48"/>
     <use xlink:href="#md57dfb3092" x="969.592373" y="180.852182" style="stroke: #ffffff; stroke-width: 0.48"/>
     <use xlink:href="#md57dfb3092" x="972" y="181.264612" style="stroke: #ffffff; stroke-width: 0.48"/>
    </g>
   </g>
  </g>
 </g>
 <defs>
  <clipPath id="pa12f37e71b">
   <rect x="135" y="43.2" width="837" height="277.2"/>
  </clipPath>
 </defs>
</svg>
