<?xml version="1.0" encoding="utf-8" standalone="no"?>
<!DOCTYPE svg PUBLIC "-//W3C//DTD SVG 1.1//EN"
  "http://www.w3.org/Graphics/SVG/1.1/DTD/svg11.dtd">
<svg xmlns:xlink="http://www.w3.org/1999/xlink" width="1080pt" height="360pt" viewBox="0 0 1080 360" xmlns="http://www.w3.org/2000/svg" version="1.1">
 <metadata>
  <rdf:RDF xmlns:dc="http://purl.org/dc/elements/1.1/" xmlns:cc="http://creativecommons.org/ns#" xmlns:rdf="http://www.w3.org/1999/02/22-rdf-syntax-ns#">
   <cc:Work>
    <dc:type rdf:resource="http://purl.org/dc/dcmitype/StillImage"/>
    <dc:date>2024-01-23T18:50:25.758085</dc:date>
    <dc:format>image/svg+xml</dc:format>
    <dc:creator>
     <cc:Agent>
      <dc:title>Matplotlib v3.8.2, https://matplotlib.org/</dc:title>
     </cc:Agent>
    </dc:creator>
   </cc:Work>
  </rdf:RDF>
 </metadata>
 <defs>
  <style type="text/css">*{stroke-linejoin: round; stroke-linecap: butt}</style>
 </defs>
 <g id="figure_1">
  <g id="patch_1">
   <path d="M 0 360 
L 1080 360 
L 1080 0 
L 0 0 
z
" style="fill: #ffffff"/>
  </g>
  <g id="axes_1">
   <g id="patch_2">
    <path d="M 135 320.4 
L 972 320.4 
L 972 43.2 
L 135 43.2 
z
" style="fill: #ffffff"/>
   </g>
   <g id="PolyCollection_1"/>
   <g id="matplotlib.axis_1">
    <g id="xtick_1">
     <g id="line2d_1">
      <defs>
       <path id="m8564062749" d="M 0 0 
L 0 3.5 
" style="stroke: #000000; stroke-width: 0.8"/>
      </defs>
      <g>
       <use xlink:href="#m8564062749" x="146.994975" y="320.4" style="stroke: #000000; stroke-width: 0.8"/>
      </g>
     </g>
     <g id="text_1">
      <!-- 1992 -->
      <g transform="translate(134.269975 334.998438) scale(0.1 -0.1)">
       <defs>
        <path id="DejaVuSans-31" d="M 794 531 
L 1825 531 
L 1825 4091 
L 703 3866 
L 703 4441 
L 1819 4666 
L 2450 4666 
L 2450 531 
L 3481 531 
L 3481 0 
L 794 0 
L 794 531 
z
" transform="scale(0.015625)"/>
        <path id="DejaVuSans-39" d="M 703 97 
L 703 672 
Q 941 559 1184 500 
Q 1428 441 1663 441 
Q 2288 441 2617 861 
Q 2947 1281 2994 2138 
Q 2813 1869 2534 1725 
Q 2256 1581 1919 1581 
Q 1219 1581 811 2004 
Q 403 2428 403 3163 
Q 403 3881 828 4315 
Q 1253 4750 1959 4750 
Q 2769 4750 3195 4129 
Q 3622 3509 3622 2328 
Q 3622 1225 3098 567 
Q 2575 -91 1691 -91 
Q 1453 -91 1209 -44 
Q 966 3 703 97 
z
M 1959 2075 
Q 2384 2075 2632 2365 
Q 2881 2656 2881 3163 
Q 2881 3666 2632 3958 
Q 2384 4250 1959 4250 
Q 1534 4250 1286 3958 
Q 1038 3666 1038 3163 
Q 1038 2656 1286 2365 
Q 1534 2075 1959 2075 
z
" transform="scale(0.015625)"/>
        <path id="DejaVuSans-32" d="M 1228 531 
L 3431 531 
L 3431 0 
L 469 0 
L 469 531 
Q 828 903 1448 1529 
Q 2069 2156 2228 2338 
Q 2531 2678 2651 2914 
Q 2772 3150 2772 3378 
Q 2772 3750 2511 3984 
Q 2250 4219 1831 4219 
Q 1534 4219 1204 4116 
Q 875 4013 500 3803 
L 500 4441 
Q 881 4594 1212 4672 
Q 1544 4750 1819 4750 
Q 2544 4750 2975 4387 
Q 3406 4025 3406 3419 
Q 3406 3131 3298 2873 
Q 3191 2616 2906 2266 
Q 2828 2175 2409 1742 
Q 1991 1309 1228 531 
z
" transform="scale(0.015625)"/>
       </defs>
       <use xlink:href="#DejaVuSans-31"/>
       <use xlink:href="#DejaVuSans-39" x="63.623047"/>
       <use xlink:href="#DejaVuSans-39" x="127.246094"/>
       <use xlink:href="#DejaVuSans-32" x="190.869141"/>
      </g>
     </g>
    </g>
    <g id="xtick_2">
     <g id="line2d_2">
      <g>
       <use xlink:href="#m8564062749" x="260.791457" y="320.4" style="stroke: #000000; stroke-width: 0.8"/>
      </g>
     </g>
     <g id="text_2">
      <!-- 1996 -->
      <g transform="translate(248.066457 334.998438) scale(0.1 -0.1)">
       <defs>
        <path id="DejaVuSans-36" d="M 2113 2584 
Q 1688 2584 1439 2293 
Q 1191 2003 1191 1497 
Q 1191 994 1439 701 
Q 1688 409 2113 409 
Q 2538 409 2786 701 
Q 3034 994 3034 1497 
Q 3034 2003 2786 2293 
Q 2538 2584 2113 2584 
z
M 3366 4563 
L 3366 3988 
Q 3128 4100 2886 4159 
Q 2644 4219 2406 4219 
Q 1781 4219 1451 3797 
Q 1122 3375 1075 2522 
Q 1259 2794 1537 2939 
Q 1816 3084 2150 3084 
Q 2853 3084 3261 2657 
Q 3669 2231 3669 1497 
Q 3669 778 3244 343 
Q 2819 -91 2113 -91 
Q 1303 -91 875 529 
Q 447 1150 447 2328 
Q 447 3434 972 4092 
Q 1497 4750 2381 4750 
Q 2619 4750 2861 4703 
Q 3103 4656 3366 4563 
z
" transform="scale(0.015625)"/>
       </defs>
       <use xlink:href="#DejaVuSans-31"/>
       <use xlink:href="#DejaVuSans-39" x="63.623047"/>
       <use xlink:href="#DejaVuSans-39" x="127.246094"/>
       <use xlink:href="#DejaVuSans-36" x="190.869141"/>
      </g>
     </g>
    </g>
    <g id="xtick_3">
     <g id="line2d_3">
      <g>
       <use xlink:href="#m8564062749" x="374.58794" y="320.4" style="stroke: #000000; stroke-width: 0.8"/>
      </g>
     </g>
     <g id="text_3">
      <!-- 2000 -->
      <g transform="translate(361.86294 334.998438) scale(0.1 -0.1)">
       <defs>
        <path id="DejaVuSans-30" d="M 2034 4250 
Q 1547 4250 1301 3770 
Q 1056 3291 1056 2328 
Q 1056 1369 1301 889 
Q 1547 409 2034 409 
Q 2525 409 2770 889 
Q 3016 1369 3016 2328 
Q 3016 3291 2770 3770 
Q 2525 4250 2034 4250 
z
M 2034 4750 
Q 2819 4750 3233 4129 
Q 3647 3509 3647 2328 
Q 3647 1150 3233 529 
Q 2819 -91 2034 -91 
Q 1250 -91 836 529 
Q 422 1150 422 2328 
Q 422 3509 836 4129 
Q 1250 4750 2034 4750 
z
" transform="scale(0.015625)"/>
       </defs>
       <use xlink:href="#DejaVuSans-32"/>
       <use xlink:href="#DejaVuSans-30" x="63.623047"/>
       <use xlink:href="#DejaVuSans-30" x="127.246094"/>
       <use xlink:href="#DejaVuSans-30" x="190.869141"/>
      </g>
     </g>
    </g>
    <g id="xtick_4">
     <g id="line2d_4">
      <g>
       <use xlink:href="#m8564062749" x="488.384422" y="320.4" style="stroke: #000000; stroke-width: 0.8"/>
      </g>
     </g>
     <g id="text_4">
      <!-- 2004 -->
      <g transform="translate(475.659422 334.998438) scale(0.1 -0.1)">
       <defs>
        <path id="DejaVuSans-34" d="M 2419 4116 
L 825 1625 
L 2419 1625 
L 2419 4116 
z
M 2253 4666 
L 3047 4666 
L 3047 1625 
L 3713 1625 
L 3713 1100 
L 3047 1100 
L 3047 0 
L 2419 0 
L 2419 1100 
L 313 1100 
L 313 1709 
L 2253 4666 
z
" transform="scale(0.015625)"/>
       </defs>
       <use xlink:href="#DejaVuSans-32"/>
       <use xlink:href="#DejaVuSans-30" x="63.623047"/>
       <use xlink:href="#DejaVuSans-30" x="127.246094"/>
       <use xlink:href="#DejaVuSans-34" x="190.869141"/>
      </g>
     </g>
    </g>
    <g id="xtick_5">
     <g id="line2d_5">
      <g>
       <use xlink:href="#m8564062749" x="602.180905" y="320.4" style="stroke: #000000; stroke-width: 0.8"/>
      </g>
     </g>
     <g id="text_5">
      <!-- 2008 -->
      <g transform="translate(589.455905 334.998438) scale(0.1 -0.1)">
       <defs>
        <path id="DejaVuSans-38" d="M 2034 2216 
Q 1584 2216 1326 1975 
Q 1069 1734 1069 1313 
Q 1069 891 1326 650 
Q 1584 409 2034 409 
Q 2484 409 2743 651 
Q 3003 894 3003 1313 
Q 3003 1734 2745 1975 
Q 2488 2216 2034 2216 
z
M 1403 2484 
Q 997 2584 770 2862 
Q 544 3141 544 3541 
Q 544 4100 942 4425 
Q 1341 4750 2034 4750 
Q 2731 4750 3128 4425 
Q 3525 4100 3525 3541 
Q 3525 3141 3298 2862 
Q 3072 2584 2669 2484 
Q 3125 2378 3379 2068 
Q 3634 1759 3634 1313 
Q 3634 634 3220 271 
Q 2806 -91 2034 -91 
Q 1263 -91 848 271 
Q 434 634 434 1313 
Q 434 1759 690 2068 
Q 947 2378 1403 2484 
z
M 1172 3481 
Q 1172 3119 1398 2916 
Q 1625 2713 2034 2713 
Q 2441 2713 2670 2916 
Q 2900 3119 2900 3481 
Q 2900 3844 2670 4047 
Q 2441 4250 2034 4250 
Q 1625 4250 1398 4047 
Q 1172 3844 1172 3481 
z
" transform="scale(0.015625)"/>
       </defs>
       <use xlink:href="#DejaVuSans-32"/>
       <use xlink:href="#DejaVuSans-30" x="63.623047"/>
       <use xlink:href="#DejaVuSans-30" x="127.246094"/>
       <use xlink:href="#DejaVuSans-38" x="190.869141"/>
      </g>
     </g>
    </g>
    <g id="xtick_6">
     <g id="line2d_6">
      <g>
       <use xlink:href="#m8564062749" x="715.977387" y="320.4" style="stroke: #000000; stroke-width: 0.8"/>
      </g>
     </g>
     <g id="text_6">
      <!-- 2012 -->
      <g transform="translate(703.252387 334.998438) scale(0.1 -0.1)">
       <use xlink:href="#DejaVuSans-32"/>
       <use xlink:href="#DejaVuSans-30" x="63.623047"/>
       <use xlink:href="#DejaVuSans-31" x="127.246094"/>
       <use xlink:href="#DejaVuSans-32" x="190.869141"/>
      </g>
     </g>
    </g>
    <g id="xtick_7">
     <g id="line2d_7">
      <g>
       <use xlink:href="#m8564062749" x="829.773869" y="320.4" style="stroke: #000000; stroke-width: 0.8"/>
      </g>
     </g>
     <g id="text_7">
      <!-- 2016 -->
      <g transform="translate(817.048869 334.998438) scale(0.1 -0.1)">
       <use xlink:href="#DejaVuSans-32"/>
       <use xlink:href="#DejaVuSans-30" x="63.623047"/>
       <use xlink:href="#DejaVuSans-31" x="127.246094"/>
       <use xlink:href="#DejaVuSans-36" x="190.869141"/>
      </g>
     </g>
    </g>
    <g id="xtick_8">
     <g id="line2d_8">
      <g>
       <use xlink:href="#m8564062749" x="943.570352" y="320.4" style="stroke: #000000; stroke-width: 0.8"/>
      </g>
     </g>
     <g id="text_8">
      <!-- 2020 -->
      <g transform="translate(930.845352 334.998438) scale(0.1 -0.1)">
       <use xlink:href="#DejaVuSans-32"/>
       <use xlink:href="#DejaVuSans-30" x="63.623047"/>
       <use xlink:href="#DejaVuSans-32" x="127.246094"/>
       <use xlink:href="#DejaVuSans-30" x="190.869141"/>
      </g>
     </g>
    </g>
   </g>
   <g id="matplotlib.axis_2">
    <g id="ytick_1">
     <g id="line2d_9">
      <defs>
       <path id="m1bc383b694" d="M 0 0 
L -3.5 0 
" style="stroke: #000000; stroke-width: 0.8"/>
      </defs>
      <g>
       <use xlink:href="#m1bc383b694" x="135" y="305.098972" style="stroke: #000000; stroke-width: 0.8"/>
      </g>
     </g>
     <g id="text_9">
      <!-- −2.0 -->
      <g transform="translate(103.717187 308.898191) scale(0.1 -0.1)">
       <defs>
        <path id="DejaVuSans-2212" d="M 678 2272 
L 4684 2272 
L 4684 1741 
L 678 1741 
L 678 2272 
z
" transform="scale(0.015625)"/>
        <path id="DejaVuSans-2e" d="M 684 794 
L 1344 794 
L 1344 0 
L 684 0 
L 684 794 
z
" transform="scale(0.015625)"/>
       </defs>
       <use xlink:href="#DejaVuSans-2212"/>
       <use xlink:href="#DejaVuSans-32" x="83.789062"/>
       <use xlink:href="#DejaVuSans-2e" x="147.412109"/>
       <use xlink:href="#DejaVuSans-30" x="179.199219"/>
      </g>
     </g>
    </g>
    <g id="ytick_2">
     <g id="line2d_10">
      <g>
       <use xlink:href="#m1bc383b694" x="135" y="274.191372" style="stroke: #000000; stroke-width: 0.8"/>
      </g>
     </g>
     <g id="text_10">
      <!-- −1.5 -->
      <g transform="translate(103.717187 277.990591) scale(0.1 -0.1)">
       <defs>
        <path id="DejaVuSans-35" d="M 691 4666 
L 3169 4666 
L 3169 4134 
L 1269 4134 
L 1269 2991 
Q 1406 3038 1543 3061 
Q 1681 3084 1819 3084 
Q 2600 3084 3056 2656 
Q 3513 2228 3513 1497 
Q 3513 744 3044 326 
Q 2575 -91 1722 -91 
Q 1428 -91 1123 -41 
Q 819 9 494 109 
L 494 744 
Q 775 591 1075 516 
Q 1375 441 1709 441 
Q 2250 441 2565 725 
Q 2881 1009 2881 1497 
Q 2881 1984 2565 2268 
Q 2250 2553 1709 2553 
Q 1456 2553 1204 2497 
Q 953 2441 691 2322 
L 691 4666 
z
" transform="scale(0.015625)"/>
       </defs>
       <use xlink:href="#DejaVuSans-2212"/>
       <use xlink:href="#DejaVuSans-31" x="83.789062"/>
       <use xlink:href="#DejaVuSans-2e" x="147.412109"/>
       <use xlink:href="#DejaVuSans-35" x="179.199219"/>
      </g>
     </g>
    </g>
    <g id="ytick_3">
     <g id="line2d_11">
      <g>
       <use xlink:href="#m1bc383b694" x="135" y="243.283771" style="stroke: #000000; stroke-width: 0.8"/>
      </g>
     </g>
     <g id="text_11">
      <!-- −1.0 -->
      <g transform="translate(103.717187 247.08299) scale(0.1 -0.1)">
       <use xlink:href="#DejaVuSans-2212"/>
       <use xlink:href="#DejaVuSans-31" x="83.789062"/>
       <use xlink:href="#DejaVuSans-2e" x="147.412109"/>
       <use xlink:href="#DejaVuSans-30" x="179.199219"/>
      </g>
     </g>
    </g>
    <g id="ytick_4">
     <g id="line2d_12">
      <g>
       <use xlink:href="#m1bc383b694" x="135" y="212.376171" style="stroke: #000000; stroke-width: 0.8"/>
      </g>
     </g>
     <g id="text_12">
      <!-- −0.5 -->
      <g transform="translate(103.717187 216.17539) scale(0.1 -0.1)">
       <use xlink:href="#DejaVuSans-2212"/>
       <use xlink:href="#DejaVuSans-30" x="83.789062"/>
       <use xlink:href="#DejaVuSans-2e" x="147.412109"/>
       <use xlink:href="#DejaVuSans-35" x="179.199219"/>
      </g>
     </g>
    </g>
    <g id="ytick_5">
     <g id="line2d_13">
      <g>
       <use xlink:href="#m1bc383b694" x="135" y="181.468571" style="stroke: #000000; stroke-width: 0.8"/>
      </g>
     </g>
     <g id="text_13">
      <!-- 0.0 -->
      <g transform="translate(112.096875 185.267789) scale(0.1 -0.1)">
       <use xlink:href="#DejaVuSans-30"/>
       <use xlink:href="#DejaVuSans-2e" x="63.623047"/>
       <use xlink:href="#DejaVuSans-30" x="95.410156"/>
      </g>
     </g>
    </g>
    <g id="ytick_6">
     <g id="line2d_14">
      <g>
       <use xlink:href="#m1bc383b694" x="135" y="150.56097" style="stroke: #000000; stroke-width: 0.8"/>
      </g>
     </g>
     <g id="text_14">
      <!-- 0.5 -->
      <g transform="translate(112.096875 154.360189) scale(0.1 -0.1)">
       <use xlink:href="#DejaVuSans-30"/>
       <use xlink:href="#DejaVuSans-2e" x="63.623047"/>
       <use xlink:href="#DejaVuSans-35" x="95.410156"/>
      </g>
     </g>
    </g>
    <g id="ytick_7">
     <g id="line2d_15">
      <g>
       <use xlink:href="#m1bc383b694" x="135" y="119.65337" style="stroke: #000000; stroke-width: 0.8"/>
      </g>
     </g>
     <g id="text_15">
      <!-- 1.0 -->
      <g transform="translate(112.096875 123.452589) scale(0.1 -0.1)">
       <use xlink:href="#DejaVuSans-31"/>
       <use xlink:href="#DejaVuSans-2e" x="63.623047"/>
       <use xlink:href="#DejaVuSans-30" x="95.410156"/>
      </g>
     </g>
    </g>
    <g id="ytick_8">
     <g id="line2d_16">
      <g>
       <use xlink:href="#m1bc383b694" x="135" y="88.74577" style="stroke: #000000; stroke-width: 0.8"/>
      </g>
     </g>
     <g id="text_16">
      <!-- 1.5 -->
      <g transform="translate(112.096875 92.544988) scale(0.1 -0.1)">
       <use xlink:href="#DejaVuSans-31"/>
       <use xlink:href="#DejaVuSans-2e" x="63.623047"/>
       <use xlink:href="#DejaVuSans-35" x="95.410156"/>
      </g>
     </g>
    </g>
    <g id="ytick_9">
     <g id="line2d_17">
      <g>
       <use xlink:href="#m1bc383b694" x="135" y="57.838169" style="stroke: #000000; stroke-width: 0.8"/>
      </g>
     </g>
     <g id="text_17">
      <!-- 2.0 -->
      <g transform="translate(112.096875 61.637388) scale(0.1 -0.1)">
       <use xlink:href="#DejaVuSans-32"/>
       <use xlink:href="#DejaVuSans-2e" x="63.623047"/>
       <use xlink:href="#DejaVuSans-30" x="95.410156"/>
      </g>
     </g>
    </g>
    <g id="text_18">
     <!-- SGI -->
     <g transform="translate(97.6375 190.323437) rotate(-90) scale(0.1 -0.1)">
      <defs>
       <path id="DejaVuSans-53" d="M 3425 4513 
L 3425 3897 
Q 3066 4069 2747 4153 
Q 2428 4238 2131 4238 
Q 1616 4238 1336 4038 
Q 1056 3838 1056 3469 
Q 1056 3159 1242 3001 
Q 1428 2844 1947 2747 
L 2328 2669 
Q 3034 2534 3370 2195 
Q 3706 1856 3706 1288 
Q 3706 609 3251 259 
Q 2797 -91 1919 -91 
Q 1588 -91 1214 -16 
Q 841 59 441 206 
L 441 856 
Q 825 641 1194 531 
Q 1563 422 1919 422 
Q 2459 422 2753 634 
Q 3047 847 3047 1241 
Q 3047 1584 2836 1778 
Q 2625 1972 2144 2069 
L 1759 2144 
Q 1053 2284 737 2584 
Q 422 2884 422 3419 
Q 422 4038 858 4394 
Q 1294 4750 2059 4750 
Q 2388 4750 2728 4690 
Q 3069 4631 3425 4513 
z
" transform="scale(0.015625)"/>
       <path id="DejaVuSans-47" d="M 3809 666 
L 3809 1919 
L 2778 1919 
L 2778 2438 
L 4434 2438 
L 4434 434 
Q 4069 175 3628 42 
Q 3188 -91 2688 -91 
Q 1594 -91 976 548 
Q 359 1188 359 2328 
Q 359 3472 976 4111 
Q 1594 4750 2688 4750 
Q 3144 4750 3555 4637 
Q 3966 4525 4313 4306 
L 4313 3634 
Q 3963 3931 3569 4081 
Q 3175 4231 2741 4231 
Q 1884 4231 1454 3753 
Q 1025 3275 1025 2328 
Q 1025 1384 1454 906 
Q 1884 428 2741 428 
Q 3075 428 3337 486 
Q 3600 544 3809 666 
z
" transform="scale(0.015625)"/>
       <path id="DejaVuSans-49" d="M 628 4666 
L 1259 4666 
L 1259 0 
L 628 0 
L 628 4666 
z
" transform="scale(0.015625)"/>
      </defs>
      <use xlink:href="#DejaVuSans-53"/>
      <use xlink:href="#DejaVuSans-47" x="63.476562"/>
      <use xlink:href="#DejaVuSans-49" x="140.966797"/>
     </g>
    </g>
   </g>
   <g id="line2d_18">
    <path d="M 135 123.656185 
L 194.351759 135.060528 
L 203.854271 86.594685 
L 210.864322 165.996095 
L 217.952261 178.453606 
L 225.11809 119.345606 
L 232.28392 164.399108 
L 234.698492 203.590873 
L 239.29397 186.06558 
L 244.045226 231.880447 
L 246.38191 170.403597 
L 251.211055 190.650948 
L 253.547739 90.609605 
L 255.962312 141.831552 
L 260.713568 55.8 
L 265.386935 115.73106 
L 267.801508 57.785074 
L 270.138191 141.472987 
L 272.552764 126.637214 
L 274.889447 102.452504 
L 277.30402 137.08613 
L 282.055276 78.479381 
L 286.806533 199.816406 
L 289.221106 121.438878 
L 291.635678 83.255796 
L 293.816583 105.521502 
L 298.567839 116.628088 
L 300.982412 86.61718 
L 303.319095 79.788658 
L 308.148241 134.275776 
L 310.484925 93.321097 
L 312.899497 104.968346 
L 320.065327 171.635482 
L 322.246231 181.699159 
L 324.660804 177.954152 
L 326.997487 206.669407 
L 331.748744 175.669835 
L 334.163317 154.052665 
L 336.577889 185.890955 
L 338.914573 136.772731 
L 341.329146 186.923258 
L 343.665829 165.906436 
L 346.080402 135.964597 
L 348.494975 132.906672 
L 350.675879 168.097547 
L 353.090452 120.005376 
L 355.427136 175.338178 
L 357.841709 151.280445 
L 360.178392 208.626977 
L 362.592965 168.974487 
L 365.007538 220.268033 
L 369.758794 168.518673 
L 372.095477 95.96377 
L 374.51005 109.376845 
L 376.924623 156.120472 
L 379.183417 210.633782 
L 381.59799 148.265187 
L 386.349246 215.171535 
L 388.68593 105.645089 
L 391.100503 241.749727 
L 398.266332 176.632134 
L 400.603015 142.897241 
L 403.017588 153.544465 
L 405.432161 199.677935 
L 407.613065 246.80823 
L 410.027638 216.817995 
L 412.364322 252.481643 
L 414.778894 276.319962 
L 417.115578 251.214318 
L 419.530151 201.688777 
L 431.447236 272.088139 
L 438.457286 230.47585 
L 445.545226 307.8 
L 452.711055 163.45047 
L 459.876884 177.807322 
L 466.886935 106.824158 
L 473.974874 127.914529 
L 481.140704 214.017502 
L 488.306533 201.564398 
L 495.394472 256.107696 
L 502.482412 217.96451 
L 509.648241 155.245439 
L 516.81407 159.403826 
L 523.824121 238.452445 
L 530.91206 182.592014 
L 538.077889 232.451215 
L 545.243719 245.99558 
L 552.253769 199.294751 
L 566.507538 265.887036 
L 573.673367 190.587956 
L 580.683417 206.784607 
L 587.771357 168.990324 
L 594.937186 205.641192 
L 602.103015 122.730063 
L 609.190955 130.246817 
L 616.278894 181.905415 
L 623.444724 128.432833 
L 630.610553 171.638655 
L 637.620603 168.094863 
L 644.708543 208.626977 
L 651.874372 145.925311 
L 659.040201 285.359478 
L 666.050251 305.152068 
L 673.138191 244.858658 
L 680.30402 199.83262 
L 687.469849 220.442423 
L 694.479899 226.450509 
L 701.567839 216.11715 
L 708.733668 168.183677 
L 722.987437 190.968038 
L 730.075377 165.798931 
L 737.241206 193.219061 
L 744.407035 221.988735 
L 751.417085 273.55862 
L 758.505025 236.333144 
L 765.670854 244.613635 
L 768.085427 231.531296 
L 772.836683 241.876169 
L 775.251256 258.425045 
L 777.432161 227.065226 
L 779.846734 139.794242 
L 782.183417 150.355035 
L 784.59799 171.764502 
L 786.934673 153.646432 
L 789.349246 176.634761 
L 791.763819 219.027064 
L 794.100503 173.548589 
L 796.515075 220.441379 
L 798.851759 243.988956 
L 801.266332 165.686032 
L 803.680905 172.156268 
L 805.861809 185.301529 
L 808.276382 156.650571 
L 810.613065 215.781611 
L 813.027638 191.17264 
L 815.364322 164.909912 
L 824.944724 210.980124 
L 827.281407 231.1004 
L 829.69598 195.678671 
L 846.286432 263.670981 
L 851.037688 178.891463 
L 858.203518 187.705915 
L 865.213568 89.378521 
L 872.301508 146.830358 
L 879.467337 223.675262 
L 886.633166 232.193258 
L 895.979899 194.352678 
L 900.731156 137.5237 
L 907.896985 299.071227 
L 915.062814 209.774658 
L 929.160804 171.108927 
L 936.326633 200.63858 
L 945.907035 248.5775 
L 957.668342 254.057089 
L 964.834171 267.919696 
L 964.834171 267.919696 
" clip-path="url(#p8d8a9777f8)" style="fill: none; stroke: #7f7f7f; stroke-width: 1.5; stroke-linecap: square"/>
   </g>
   <g id="line2d_19">
    <path d="M 135 181.468571 
L 972 181.468571 
" clip-path="url(#p8d8a9777f8)" style="fill: none; stroke: #000000; stroke-width: 1.5; stroke-linecap: square"/>
   </g>
   <g id="patch_3">
    <path d="M 135 320.4 
L 135 43.2 
" style="fill: none; stroke: #000000; stroke-width: 0.8; stroke-linejoin: miter; stroke-linecap: square"/>
   </g>
   <g id="patch_4">
    <path d="M 135 320.4 
L 972 320.4 
" style="fill: none; stroke: #000000; stroke-width: 0.8; stroke-linejoin: miter; stroke-linecap: square"/>
   </g>
   <g id="text_19">
    <!-- SGI for GWIC ID 55463 -->
    <g transform="translate(135 37.2) scale(0.12 -0.12)">
     <defs>
      <path id="DejaVuSans-Bold-53" d="M 3834 4519 
L 3834 3531 
Q 3450 3703 3084 3790 
Q 2719 3878 2394 3878 
Q 1963 3878 1756 3759 
Q 1550 3641 1550 3391 
Q 1550 3203 1689 3098 
Q 1828 2994 2194 2919 
L 2706 2816 
Q 3484 2659 3812 2340 
Q 4141 2022 4141 1434 
Q 4141 663 3683 286 
Q 3225 -91 2284 -91 
Q 1841 -91 1394 -6 
Q 947 78 500 244 
L 500 1259 
Q 947 1022 1364 901 
Q 1781 781 2169 781 
Q 2563 781 2772 912 
Q 2981 1044 2981 1288 
Q 2981 1506 2839 1625 
Q 2697 1744 2272 1838 
L 1806 1941 
Q 1106 2091 782 2419 
Q 459 2747 459 3303 
Q 459 4000 909 4375 
Q 1359 4750 2203 4750 
Q 2588 4750 2994 4692 
Q 3400 4634 3834 4519 
z
" transform="scale(0.015625)"/>
      <path id="DejaVuSans-Bold-47" d="M 4781 347 
Q 4331 128 3847 18 
Q 3363 -91 2847 -91 
Q 1681 -91 1000 561 
Q 319 1213 319 2328 
Q 319 3456 1012 4103 
Q 1706 4750 2913 4750 
Q 3378 4750 3804 4662 
Q 4231 4575 4609 4403 
L 4609 3438 
Q 4219 3659 3833 3768 
Q 3447 3878 3059 3878 
Q 2341 3878 1952 3476 
Q 1563 3075 1563 2328 
Q 1563 1588 1938 1184 
Q 2313 781 3003 781 
Q 3191 781 3352 804 
Q 3513 828 3641 878 
L 3641 1784 
L 2906 1784 
L 2906 2591 
L 4781 2591 
L 4781 347 
z
" transform="scale(0.015625)"/>
      <path id="DejaVuSans-Bold-49" d="M 588 4666 
L 1791 4666 
L 1791 0 
L 588 0 
L 588 4666 
z
" transform="scale(0.015625)"/>
      <path id="DejaVuSans-Bold-20" transform="scale(0.015625)"/>
      <path id="DejaVuSans-Bold-66" d="M 2841 4863 
L 2841 4128 
L 2222 4128 
Q 1984 4128 1890 4042 
Q 1797 3956 1797 3744 
L 1797 3500 
L 2753 3500 
L 2753 2700 
L 1797 2700 
L 1797 0 
L 678 0 
L 678 2700 
L 122 2700 
L 122 3500 
L 678 3500 
L 678 3744 
Q 678 4316 997 4589 
Q 1316 4863 1984 4863 
L 2841 4863 
z
" transform="scale(0.015625)"/>
      <path id="DejaVuSans-Bold-6f" d="M 2203 2784 
Q 1831 2784 1636 2517 
Q 1441 2250 1441 1747 
Q 1441 1244 1636 976 
Q 1831 709 2203 709 
Q 2569 709 2762 976 
Q 2956 1244 2956 1747 
Q 2956 2250 2762 2517 
Q 2569 2784 2203 2784 
z
M 2203 3584 
Q 3106 3584 3614 3096 
Q 4122 2609 4122 1747 
Q 4122 884 3614 396 
Q 3106 -91 2203 -91 
Q 1297 -91 786 396 
Q 275 884 275 1747 
Q 275 2609 786 3096 
Q 1297 3584 2203 3584 
z
" transform="scale(0.015625)"/>
      <path id="DejaVuSans-Bold-72" d="M 3138 2547 
Q 2991 2616 2845 2648 
Q 2700 2681 2553 2681 
Q 2122 2681 1889 2404 
Q 1656 2128 1656 1613 
L 1656 0 
L 538 0 
L 538 3500 
L 1656 3500 
L 1656 2925 
Q 1872 3269 2151 3426 
Q 2431 3584 2822 3584 
Q 2878 3584 2943 3579 
Q 3009 3575 3134 3559 
L 3138 2547 
z
" transform="scale(0.015625)"/>
      <path id="DejaVuSans-Bold-57" d="M 191 4666 
L 1344 4666 
L 2150 1275 
L 2950 4666 
L 4109 4666 
L 4909 1275 
L 5716 4666 
L 6859 4666 
L 5759 0 
L 4372 0 
L 3525 3547 
L 2688 0 
L 1300 0 
L 191 4666 
z
" transform="scale(0.015625)"/>
      <path id="DejaVuSans-Bold-43" d="M 4288 256 
Q 3956 84 3597 -3 
Q 3238 -91 2847 -91 
Q 1681 -91 1000 561 
Q 319 1213 319 2328 
Q 319 3447 1000 4098 
Q 1681 4750 2847 4750 
Q 3238 4750 3597 4662 
Q 3956 4575 4288 4403 
L 4288 3438 
Q 3953 3666 3628 3772 
Q 3303 3878 2944 3878 
Q 2300 3878 1931 3465 
Q 1563 3053 1563 2328 
Q 1563 1606 1931 1193 
Q 2300 781 2944 781 
Q 3303 781 3628 887 
Q 3953 994 4288 1222 
L 4288 256 
z
" transform="scale(0.015625)"/>
      <path id="DejaVuSans-Bold-44" d="M 1791 3756 
L 1791 909 
L 2222 909 
Q 2959 909 3348 1275 
Q 3738 1641 3738 2338 
Q 3738 3031 3350 3393 
Q 2963 3756 2222 3756 
L 1791 3756 
z
M 588 4666 
L 1856 4666 
Q 2919 4666 3439 4514 
Q 3959 4363 4331 4000 
Q 4659 3684 4818 3271 
Q 4978 2859 4978 2338 
Q 4978 1809 4818 1395 
Q 4659 981 4331 666 
Q 3956 303 3431 151 
Q 2906 0 1856 0 
L 588 0 
L 588 4666 
z
" transform="scale(0.015625)"/>
      <path id="DejaVuSans-Bold-35" d="M 678 4666 
L 3669 4666 
L 3669 3781 
L 1638 3781 
L 1638 3059 
Q 1775 3097 1914 3117 
Q 2053 3138 2203 3138 
Q 3056 3138 3531 2711 
Q 4006 2284 4006 1522 
Q 4006 766 3489 337 
Q 2972 -91 2053 -91 
Q 1656 -91 1267 -14 
Q 878 63 494 219 
L 494 1166 
Q 875 947 1217 837 
Q 1559 728 1863 728 
Q 2300 728 2551 942 
Q 2803 1156 2803 1522 
Q 2803 1891 2551 2103 
Q 2300 2316 1863 2316 
Q 1603 2316 1309 2248 
Q 1016 2181 678 2041 
L 678 4666 
z
" transform="scale(0.015625)"/>
      <path id="DejaVuSans-Bold-34" d="M 2356 3675 
L 1038 1722 
L 2356 1722 
L 2356 3675 
z
M 2156 4666 
L 3494 4666 
L 3494 1722 
L 4159 1722 
L 4159 850 
L 3494 850 
L 3494 0 
L 2356 0 
L 2356 850 
L 288 850 
L 288 1881 
L 2156 4666 
z
" transform="scale(0.015625)"/>
      <path id="DejaVuSans-Bold-36" d="M 2316 2303 
Q 2000 2303 1842 2098 
Q 1684 1894 1684 1484 
Q 1684 1075 1842 870 
Q 2000 666 2316 666 
Q 2634 666 2792 870 
Q 2950 1075 2950 1484 
Q 2950 1894 2792 2098 
Q 2634 2303 2316 2303 
z
M 3803 4544 
L 3803 3681 
Q 3506 3822 3243 3889 
Q 2981 3956 2731 3956 
Q 2194 3956 1894 3657 
Q 1594 3359 1544 2772 
Q 1750 2925 1990 3001 
Q 2231 3078 2516 3078 
Q 3231 3078 3670 2659 
Q 4109 2241 4109 1563 
Q 4109 813 3618 361 
Q 3128 -91 2303 -91 
Q 1394 -91 895 523 
Q 397 1138 397 2266 
Q 397 3422 980 4083 
Q 1563 4744 2578 4744 
Q 2900 4744 3203 4694 
Q 3506 4644 3803 4544 
z
" transform="scale(0.015625)"/>
      <path id="DejaVuSans-Bold-33" d="M 2981 2516 
Q 3453 2394 3698 2092 
Q 3944 1791 3944 1325 
Q 3944 631 3412 270 
Q 2881 -91 1863 -91 
Q 1503 -91 1142 -33 
Q 781 25 428 141 
L 428 1069 
Q 766 900 1098 814 
Q 1431 728 1753 728 
Q 2231 728 2486 893 
Q 2741 1059 2741 1369 
Q 2741 1688 2480 1852 
Q 2219 2016 1709 2016 
L 1228 2016 
L 1228 2791 
L 1734 2791 
Q 2188 2791 2409 2933 
Q 2631 3075 2631 3366 
Q 2631 3634 2415 3781 
Q 2200 3928 1806 3928 
Q 1516 3928 1219 3862 
Q 922 3797 628 3669 
L 628 4550 
Q 984 4650 1334 4700 
Q 1684 4750 2022 4750 
Q 2931 4750 3382 4451 
Q 3834 4153 3834 3553 
Q 3834 3144 3618 2883 
Q 3403 2622 2981 2516 
z
" transform="scale(0.015625)"/>
     </defs>
     <use xlink:href="#DejaVuSans-Bold-53"/>
     <use xlink:href="#DejaVuSans-Bold-47" x="72.021484"/>
     <use xlink:href="#DejaVuSans-Bold-49" x="154.101562"/>
     <use xlink:href="#DejaVuSans-Bold-20" x="191.308594"/>
     <use xlink:href="#DejaVuSans-Bold-66" x="226.123047"/>
     <use xlink:href="#DejaVuSans-Bold-6f" x="269.628906"/>
     <use xlink:href="#DejaVuSans-Bold-72" x="338.330078"/>
     <use xlink:href="#DejaVuSans-Bold-20" x="387.646484"/>
     <use xlink:href="#DejaVuSans-Bold-47" x="422.460938"/>
     <use xlink:href="#DejaVuSans-Bold-57" x="504.541016"/>
     <use xlink:href="#DejaVuSans-Bold-49" x="614.84375"/>
     <use xlink:href="#DejaVuSans-Bold-43" x="652.050781"/>
     <use xlink:href="#DejaVuSans-Bold-20" x="725.439453"/>
     <use xlink:href="#DejaVuSans-Bold-49" x="760.253906"/>
     <use xlink:href="#DejaVuSans-Bold-44" x="797.460938"/>
     <use xlink:href="#DejaVuSans-Bold-20" x="880.46875"/>
     <use xlink:href="#DejaVuSans-Bold-35" x="915.283203"/>
     <use xlink:href="#DejaVuSans-Bold-35" x="984.863281"/>
     <use xlink:href="#DejaVuSans-Bold-34" x="1054.443359"/>
     <use xlink:href="#DejaVuSans-Bold-36" x="1124.023438"/>
     <use xlink:href="#DejaVuSans-Bold-33" x="1193.603516"/>
    </g>
   </g>
   <g id="PathCollection_1">
    <defs>
     <path id="me6da210295" d="M 0 3 
C 0.795609 3 1.55874 2.683901 2.12132 2.12132 
C 2.683901 1.55874 3 0.795609 3 0 
C 3 -0.795609 2.683901 -1.55874 2.12132 -2.12132 
C 1.55874 -2.683901 0.795609 -3 0 -3 
C -0.795609 -3 -1.55874 -2.683901 -2.12132 -2.12132 
C -2.683901 -1.55874 -3 -0.795609 -3 0 
C -3 0.795609 -2.683901 1.55874 -2.12132 2.12132 
C -1.55874 2.683901 -0.795609 3 0 3 
z
" style="stroke: #ffffff; stroke-width: 0.48"/>
    </defs>
    <g clip-path="url(#p8d8a9777f8)">
     <use xlink:href="#me6da210295" x="135" y="123.656185" style="stroke: #ffffff; stroke-width: 0.48"/>
     <use xlink:href="#me6da210295" x="194.351759" y="135.060528" style="stroke: #ffffff; stroke-width: 0.48"/>
     <use xlink:href="#me6da210295" x="203.854271" y="86.594685" style="stroke: #ffffff; stroke-width: 0.48"/>
     <use xlink:href="#me6da210295" x="210.864322" y="165.996095" style="stroke: #ffffff; stroke-width: 0.48"/>
     <use xlink:href="#me6da210295" x="217.952261" y="178.453606" style="stroke: #ffffff; stroke-width: 0.48"/>
     <use xlink:href="#me6da210295" x="225.11809" y="119.345606" style="stroke: #ffffff; stroke-width: 0.48"/>
     <use xlink:href="#me6da210295" x="232.28392" y="164.399108" style="stroke: #ffffff; stroke-width: 0.48"/>
     <use xlink:href="#me6da210295" x="234.698492" y="203.590873" style="stroke: #ffffff; stroke-width: 0.48"/>
     <use xlink:href="#me6da210295" x="239.29397" y="186.06558" style="stroke: #ffffff; stroke-width: 0.48"/>
     <use xlink:href="#me6da210295" x="244.045226" y="231.880447" style="stroke: #ffffff; stroke-width: 0.48"/>
     <use xlink:href="#me6da210295" x="246.38191" y="170.403597" style="stroke: #ffffff; stroke-width: 0.48"/>
     <use xlink:href="#me6da210295" x="251.211055" y="190.650948" style="stroke: #ffffff; stroke-width: 0.48"/>
     <use xlink:href="#me6da210295" x="253.547739" y="90.609605" style="stroke: #ffffff; stroke-width: 0.48"/>
     <use xlink:href="#me6da210295" x="255.962312" y="141.831552" style="stroke: #ffffff; stroke-width: 0.48"/>
     <use xlink:href="#me6da210295" x="260.713568" y="55.8" style="stroke: #ffffff; stroke-width: 0.48"/>
     <use xlink:href="#me6da210295" x="265.386935" y="115.73106" style="stroke: #ffffff; stroke-width: 0.48"/>
     <use xlink:href="#me6da210295" x="267.801508" y="57.785074" style="stroke: #ffffff; stroke-width: 0.48"/>
     <use xlink:href="#me6da210295" x="270.138191" y="141.472987" style="stroke: #ffffff; stroke-width: 0.48"/>
     <use xlink:href="#me6da210295" x="272.552764" y="126.637214" style="stroke: #ffffff; stroke-width: 0.48"/>
     <use xlink:href="#me6da210295" x="274.889447" y="102.452504" style="stroke: #ffffff; stroke-width: 0.48"/>
     <use xlink:href="#me6da210295" x="277.30402" y="137.08613" style="stroke: #ffffff; stroke-width: 0.48"/>
     <use xlink:href="#me6da210295" x="282.055276" y="78.479381" style="stroke: #ffffff; stroke-width: 0.48"/>
     <use xlink:href="#me6da210295" x="286.806533" y="199.816406" style="stroke: #ffffff; stroke-width: 0.48"/>
     <use xlink:href="#me6da210295" x="289.221106" y="121.438878" style="stroke: #ffffff; stroke-width: 0.48"/>
     <use xlink:href="#me6da210295" x="291.635678" y="83.255796" style="stroke: #ffffff; stroke-width: 0.48"/>
     <use xlink:href="#me6da210295" x="293.816583" y="105.521502" style="stroke: #ffffff; stroke-width: 0.48"/>
     <use xlink:href="#me6da210295" x="298.567839" y="116.628088" style="stroke: #ffffff; stroke-width: 0.48"/>
     <use xlink:href="#me6da210295" x="300.982412" y="86.61718" style="stroke: #ffffff; stroke-width: 0.48"/>
     <use xlink:href="#me6da210295" x="303.319095" y="79.788658" style="stroke: #ffffff; stroke-width: 0.48"/>
     <use xlink:href="#me6da210295" x="308.148241" y="134.275776" style="stroke: #ffffff; stroke-width: 0.48"/>
     <use xlink:href="#me6da210295" x="310.484925" y="93.321097" style="stroke: #ffffff; stroke-width: 0.48"/>
     <use xlink:href="#me6da210295" x="312.899497" y="104.968346" style="stroke: #ffffff; stroke-width: 0.48"/>
     <use xlink:href="#me6da210295" x="320.065327" y="171.635482" style="stroke: #ffffff; stroke-width: 0.48"/>
     <use xlink:href="#me6da210295" x="322.246231" y="181.699159" style="stroke: #ffffff; stroke-width: 0.48"/>
     <use xlink:href="#me6da210295" x="324.660804" y="177.954152" style="stroke: #ffffff; stroke-width: 0.48"/>
     <use xlink:href="#me6da210295" x="326.997487" y="206.669407" style="stroke: #ffffff; stroke-width: 0.48"/>
     <use xlink:href="#me6da210295" x="331.748744" y="175.669835" style="stroke: #ffffff; stroke-width: 0.48"/>
     <use xlink:href="#me6da210295" x="334.163317" y="154.052665" style="stroke: #ffffff; stroke-width: 0.48"/>
     <use xlink:href="#me6da210295" x="336.577889" y="185.890955" style="stroke: #ffffff; stroke-width: 0.48"/>
     <use xlink:href="#me6da210295" x="338.914573" y="136.772731" style="stroke: #ffffff; stroke-width: 0.48"/>
     <use xlink:href="#me6da210295" x="341.329146" y="186.923258" style="stroke: #ffffff; stroke-width: 0.48"/>
     <use xlink:href="#me6da210295" x="343.665829" y="165.906436" style="stroke: #ffffff; stroke-width: 0.48"/>
     <use xlink:href="#me6da210295" x="346.080402" y="135.964597" style="stroke: #ffffff; stroke-width: 0.48"/>
     <use xlink:href="#me6da210295" x="348.494975" y="132.906672" style="stroke: #ffffff; stroke-width: 0.48"/>
     <use xlink:href="#me6da210295" x="350.675879" y="168.097547" style="stroke: #ffffff; stroke-width: 0.48"/>
     <use xlink:href="#me6da210295" x="353.090452" y="120.005376" style="stroke: #ffffff; stroke-width: 0.48"/>
     <use xlink:href="#me6da210295" x="355.427136" y="175.338178" style="stroke: #ffffff; stroke-width: 0.48"/>
     <use xlink:href="#me6da210295" x="357.841709" y="151.280445" style="stroke: #ffffff; stroke-width: 0.48"/>
     <use xlink:href="#me6da210295" x="360.178392" y="208.626977" style="stroke: #ffffff; stroke-width: 0.48"/>
     <use xlink:href="#me6da210295" x="362.592965" y="168.974487" style="stroke: #ffffff; stroke-width: 0.48"/>
     <use xlink:href="#me6da210295" x="365.007538" y="220.268033" style="stroke: #ffffff; stroke-width: 0.48"/>
     <use xlink:href="#me6da210295" x="369.758794" y="168.518673" style="stroke: #ffffff; stroke-width: 0.48"/>
     <use xlink:href="#me6da210295" x="372.095477" y="95.96377" style="stroke: #ffffff; stroke-width: 0.48"/>
     <use xlink:href="#me6da210295" x="374.51005" y="109.376845" style="stroke: #ffffff; stroke-width: 0.48"/>
     <use xlink:href="#me6da210295" x="376.924623" y="156.120472" style="stroke: #ffffff; stroke-width: 0.48"/>
     <use xlink:href="#me6da210295" x="379.183417" y="210.633782" style="stroke: #ffffff; stroke-width: 0.48"/>
     <use xlink:href="#me6da210295" x="381.59799" y="148.265187" style="stroke: #ffffff; stroke-width: 0.48"/>
     <use xlink:href="#me6da210295" x="383.934673" y="181.480063" style="stroke: #ffffff; stroke-width: 0.48"/>
     <use xlink:href="#me6da210295" x="386.349246" y="215.171535" style="stroke: #ffffff; stroke-width: 0.48"/>
     <use xlink:href="#me6da210295" x="388.68593" y="105.645089" style="stroke: #ffffff; stroke-width: 0.48"/>
     <use xlink:href="#me6da210295" x="391.100503" y="241.749727" style="stroke: #ffffff; stroke-width: 0.48"/>
     <use xlink:href="#me6da210295" x="398.266332" y="176.632134" style="stroke: #ffffff; stroke-width: 0.48"/>
     <use xlink:href="#me6da210295" x="400.603015" y="142.897241" style="stroke: #ffffff; stroke-width: 0.48"/>
     <use xlink:href="#me6da210295" x="403.017588" y="153.544465" style="stroke: #ffffff; stroke-width: 0.48"/>
     <use xlink:href="#me6da210295" x="405.432161" y="199.677935" style="stroke: #ffffff; stroke-width: 0.48"/>
     <use xlink:href="#me6da210295" x="407.613065" y="246.80823" style="stroke: #ffffff; stroke-width: 0.48"/>
     <use xlink:href="#me6da210295" x="410.027638" y="216.817995" style="stroke: #ffffff; stroke-width: 0.48"/>
     <use xlink:href="#me6da210295" x="412.364322" y="252.481643" style="stroke: #ffffff; stroke-width: 0.48"/>
     <use xlink:href="#me6da210295" x="414.778894" y="276.319962" style="stroke: #ffffff; stroke-width: 0.48"/>
     <use xlink:href="#me6da210295" x="417.115578" y="251.214318" style="stroke: #ffffff; stroke-width: 0.48"/>
     <use xlink:href="#me6da210295" x="419.530151" y="201.688777" style="stroke: #ffffff; stroke-width: 0.48"/>
     <use xlink:href="#me6da210295" x="431.447236" y="272.088139" style="stroke: #ffffff; stroke-width: 0.48"/>
     <use xlink:href="#me6da210295" x="438.457286" y="230.47585" style="stroke: #ffffff; stroke-width: 0.48"/>
     <use xlink:href="#me6da210295" x="445.545226" y="307.8" style="stroke: #ffffff; stroke-width: 0.48"/>
     <use xlink:href="#me6da210295" x="452.711055" y="163.45047" style="stroke: #ffffff; stroke-width: 0.48"/>
     <use xlink:href="#me6da210295" x="459.876884" y="177.807322" style="stroke: #ffffff; stroke-width: 0.48"/>
     <use xlink:href="#me6da210295" x="466.886935" y="106.824158" style="stroke: #ffffff; stroke-width: 0.48"/>
     <use xlink:href="#me6da210295" x="473.974874" y="127.914529" style="stroke: #ffffff; stroke-width: 0.48"/>
     <use xlink:href="#me6da210295" x="481.140704" y="214.017502" style="stroke: #ffffff; stroke-width: 0.48"/>
     <use xlink:href="#me6da210295" x="488.306533" y="201.564398" style="stroke: #ffffff; stroke-width: 0.48"/>
     <use xlink:href="#me6da210295" x="495.394472" y="256.107696" style="stroke: #ffffff; stroke-width: 0.48"/>
     <use xlink:href="#me6da210295" x="502.482412" y="217.96451" style="stroke: #ffffff; stroke-width: 0.48"/>
     <use xlink:href="#me6da210295" x="509.648241" y="155.245439" style="stroke: #ffffff; stroke-width: 0.48"/>
     <use xlink:href="#me6da210295" x="516.81407" y="159.403826" style="stroke: #ffffff; stroke-width: 0.48"/>
     <use xlink:href="#me6da210295" x="523.824121" y="238.452445" style="stroke: #ffffff; stroke-width: 0.48"/>
     <use xlink:href="#me6da210295" x="530.91206" y="182.592014" style="stroke: #ffffff; stroke-width: 0.48"/>
     <use xlink:href="#me6da210295" x="538.077889" y="232.451215" style="stroke: #ffffff; stroke-width: 0.48"/>
     <use xlink:href="#me6da210295" x="545.243719" y="245.99558" style="stroke: #ffffff; stroke-width: 0.48"/>
     <use xlink:href="#me6da210295" x="552.253769" y="199.294751" style="stroke: #ffffff; stroke-width: 0.48"/>
     <use xlink:href="#me6da210295" x="566.507538" y="265.887036" style="stroke: #ffffff; stroke-width: 0.48"/>
     <use xlink:href="#me6da210295" x="573.673367" y="190.587956" style="stroke: #ffffff; stroke-width: 0.48"/>
     <use xlink:href="#me6da210295" x="580.683417" y="206.784607" style="stroke: #ffffff; stroke-width: 0.48"/>
     <use xlink:href="#me6da210295" x="587.771357" y="168.990324" style="stroke: #ffffff; stroke-width: 0.48"/>
     <use xlink:href="#me6da210295" x="594.937186" y="205.641192" style="stroke: #ffffff; stroke-width: 0.48"/>
     <use xlink:href="#me6da210295" x="602.103015" y="122.730063" style="stroke: #ffffff; stroke-width: 0.48"/>
     <use xlink:href="#me6da210295" x="609.190955" y="130.246817" style="stroke: #ffffff; stroke-width: 0.48"/>
     <use xlink:href="#me6da210295" x="616.278894" y="181.905415" style="stroke: #ffffff; stroke-width: 0.48"/>
     <use xlink:href="#me6da210295" x="623.444724" y="128.432833" style="stroke: #ffffff; stroke-width: 0.48"/>
     <use xlink:href="#me6da210295" x="630.610553" y="171.638655" style="stroke: #ffffff; stroke-width: 0.48"/>
     <use xlink:href="#me6da210295" x="637.620603" y="168.094863" style="stroke: #ffffff; stroke-width: 0.48"/>
     <use xlink:href="#me6da210295" x="644.708543" y="208.626977" style="stroke: #ffffff; stroke-width: 0.48"/>
     <use xlink:href="#me6da210295" x="651.874372" y="145.925311" style="stroke: #ffffff; stroke-width: 0.48"/>
     <use xlink:href="#me6da210295" x="659.040201" y="285.359478" style="stroke: #ffffff; stroke-width: 0.48"/>
     <use xlink:href="#me6da210295" x="666.050251" y="305.152068" style="stroke: #ffffff; stroke-width: 0.48"/>
     <use xlink:href="#me6da210295" x="673.138191" y="244.858658" style="stroke: #ffffff; stroke-width: 0.48"/>
     <use xlink:href="#me6da210295" x="680.30402" y="199.83262" style="stroke: #ffffff; stroke-width: 0.48"/>
     <use xlink:href="#me6da210295" x="687.469849" y="220.442423" style="stroke: #ffffff; stroke-width: 0.48"/>
     <use xlink:href="#me6da210295" x="694.479899" y="226.450509" style="stroke: #ffffff; stroke-width: 0.48"/>
     <use xlink:href="#me6da210295" x="701.567839" y="216.11715" style="stroke: #ffffff; stroke-width: 0.48"/>
     <use xlink:href="#me6da210295" x="708.733668" y="168.183677" style="stroke: #ffffff; stroke-width: 0.48"/>
     <use xlink:href="#me6da210295" x="722.987437" y="190.968038" style="stroke: #ffffff; stroke-width: 0.48"/>
     <use xlink:href="#me6da210295" x="730.075377" y="165.798931" style="stroke: #ffffff; stroke-width: 0.48"/>
     <use xlink:href="#me6da210295" x="737.241206" y="193.219061" style="stroke: #ffffff; stroke-width: 0.48"/>
     <use xlink:href="#me6da210295" x="744.407035" y="221.988735" style="stroke: #ffffff; stroke-width: 0.48"/>
     <use xlink:href="#me6da210295" x="751.417085" y="273.55862" style="stroke: #ffffff; stroke-width: 0.48"/>
     <use xlink:href="#me6da210295" x="758.505025" y="236.333144" style="stroke: #ffffff; stroke-width: 0.48"/>
     <use xlink:href="#me6da210295" x="765.670854" y="244.613635" style="stroke: #ffffff; stroke-width: 0.48"/>
     <use xlink:href="#me6da210295" x="768.085427" y="231.531296" style="stroke: #ffffff; stroke-width: 0.48"/>
     <use xlink:href="#me6da210295" x="772.836683" y="241.876169" style="stroke: #ffffff; stroke-width: 0.48"/>
     <use xlink:href="#me6da210295" x="775.251256" y="258.425045" style="stroke: #ffffff; stroke-width: 0.48"/>
     <use xlink:href="#me6da210295" x="777.432161" y="227.065226" style="stroke: #ffffff; stroke-width: 0.48"/>
     <use xlink:href="#me6da210295" x="779.846734" y="139.794242" style="stroke: #ffffff; stroke-width: 0.48"/>
     <use xlink:href="#me6da210295" x="782.183417" y="150.355035" style="stroke: #ffffff; stroke-width: 0.48"/>
     <use xlink:href="#me6da210295" x="784.59799" y="171.764502" style="stroke: #ffffff; stroke-width: 0.48"/>
     <use xlink:href="#me6da210295" x="786.934673" y="153.646432" style="stroke: #ffffff; stroke-width: 0.48"/>
     <use xlink:href="#me6da210295" x="789.349246" y="176.634761" style="stroke: #ffffff; stroke-width: 0.48"/>
     <use xlink:href="#me6da210295" x="791.763819" y="219.027064" style="stroke: #ffffff; stroke-width: 0.48"/>
     <use xlink:href="#me6da210295" x="794.100503" y="173.548589" style="stroke: #ffffff; stroke-width: 0.48"/>
     <use xlink:href="#me6da210295" x="796.515075" y="220.441379" style="stroke: #ffffff; stroke-width: 0.48"/>
     <use xlink:href="#me6da210295" x="798.851759" y="243.988956" style="stroke: #ffffff; stroke-width: 0.48"/>
     <use xlink:href="#me6da210295" x="801.266332" y="165.686032" style="stroke: #ffffff; stroke-width: 0.48"/>
     <use xlink:href="#me6da210295" x="803.680905" y="172.156268" style="stroke: #ffffff; stroke-width: 0.48"/>
     <use xlink:href="#me6da210295" x="805.861809" y="185.301529" style="stroke: #ffffff; stroke-width: 0.48"/>
     <use xlink:href="#me6da210295" x="808.276382" y="156.650571" style="stroke: #ffffff; stroke-width: 0.48"/>
     <use xlink:href="#me6da210295" x="810.613065" y="215.781611" style="stroke: #ffffff; stroke-width: 0.48"/>
     <use xlink:href="#me6da210295" x="813.027638" y="191.17264" style="stroke: #ffffff; stroke-width: 0.48"/>
     <use xlink:href="#me6da210295" x="815.364322" y="164.909912" style="stroke: #ffffff; stroke-width: 0.48"/>
     <use xlink:href="#me6da210295" x="824.944724" y="210.980124" style="stroke: #ffffff; stroke-width: 0.48"/>
     <use xlink:href="#me6da210295" x="827.281407" y="231.1004" style="stroke: #ffffff; stroke-width: 0.48"/>
     <use xlink:href="#me6da210295" x="829.69598" y="195.678671" style="stroke: #ffffff; stroke-width: 0.48"/>
     <use xlink:href="#me6da210295" x="846.286432" y="263.670981" style="stroke: #ffffff; stroke-width: 0.48"/>
     <use xlink:href="#me6da210295" x="851.037688" y="178.891463" style="stroke: #ffffff; stroke-width: 0.48"/>
     <use xlink:href="#me6da210295" x="858.203518" y="187.705915" style="stroke: #ffffff; stroke-width: 0.48"/>
     <use xlink:href="#me6da210295" x="865.213568" y="89.378521" style="stroke: #ffffff; stroke-width: 0.48"/>
     <use xlink:href="#me6da210295" x="872.301508" y="146.830358" style="stroke: #ffffff; stroke-width: 0.48"/>
     <use xlink:href="#me6da210295" x="879.467337" y="223.675262" style="stroke: #ffffff; stroke-width: 0.48"/>
     <use xlink:href="#me6da210295" x="886.633166" y="232.193258" style="stroke: #ffffff; stroke-width: 0.48"/>
     <use xlink:href="#me6da210295" x="895.979899" y="194.352678" style="stroke: #ffffff; stroke-width: 0.48"/>
     <use xlink:href="#me6da210295" x="900.731156" y="137.5237" style="stroke: #ffffff; stroke-width: 0.48"/>
     <use xlink:href="#me6da210295" x="907.896985" y="299.071227" style="stroke: #ffffff; stroke-width: 0.48"/>
     <use xlink:href="#me6da210295" x="915.062814" y="209.774658" style="stroke: #ffffff; stroke-width: 0.48"/>
     <use xlink:href="#me6da210295" x="929.160804" y="171.108927" style="stroke: #ffffff; stroke-width: 0.48"/>
     <use xlink:href="#me6da210295" x="936.326633" y="200.63858" style="stroke: #ffffff; stroke-width: 0.48"/>
     <use xlink:href="#me6da210295" x="945.907035" y="248.5775" style="stroke: #ffffff; stroke-width: 0.48"/>
     <use xlink:href="#me6da210295" x="957.668342" y="254.057089" style="stroke: #ffffff; stroke-width: 0.48"/>
     <use xlink:href="#me6da210295" x="964.834171" y="267.919696" style="stroke: #ffffff; stroke-width: 0.48"/>
    </g>
   </g>
  </g>
 </g>
 <defs>
  <clipPath id="p8d8a9777f8">
   <rect x="135" y="43.2" width="837" height="277.2"/>
  </clipPath>
 </defs>
</svg>
