<?xml version="1.0" encoding="utf-8" standalone="no"?>
<!DOCTYPE svg PUBLIC "-//W3C//DTD SVG 1.1//EN"
  "http://www.w3.org/Graphics/SVG/1.1/DTD/svg11.dtd">
<svg xmlns:xlink="http://www.w3.org/1999/xlink" width="1080pt" height="360pt" viewBox="0 0 1080 360" xmlns="http://www.w3.org/2000/svg" version="1.1">
 <metadata>
  <rdf:RDF xmlns:dc="http://purl.org/dc/elements/1.1/" xmlns:cc="http://creativecommons.org/ns#" xmlns:rdf="http://www.w3.org/1999/02/22-rdf-syntax-ns#">
   <cc:Work>
    <dc:type rdf:resource="http://purl.org/dc/dcmitype/StillImage"/>
    <dc:date>2024-01-23T18:50:24.978955</dc:date>
    <dc:format>image/svg+xml</dc:format>
    <dc:creator>
     <cc:Agent>
      <dc:title>Matplotlib v3.8.2, https://matplotlib.org/</dc:title>
     </cc:Agent>
    </dc:creator>
   </cc:Work>
  </rdf:RDF>
 </metadata>
 <defs>
  <style type="text/css">*{stroke-linejoin: round; stroke-linecap: butt}</style>
 </defs>
 <g id="figure_1">
  <g id="patch_1">
   <path d="M 0 360 
L 1080 360 
L 1080 0 
L 0 0 
z
" style="fill: #ffffff"/>
  </g>
  <g id="axes_1">
   <g id="patch_2">
    <path d="M 135 320.4 
L 972 320.4 
L 972 43.2 
L 135 43.2 
z
" style="fill: #ffffff"/>
   </g>
   <g id="PolyCollection_1"/>
   <g id="matplotlib.axis_1">
    <g id="xtick_1">
     <g id="line2d_1">
      <defs>
       <path id="m16e7b7262c" d="M 0 0 
L 0 3.5 
" style="stroke: #000000; stroke-width: 0.8"/>
      </defs>
      <g>
       <use xlink:href="#m16e7b7262c" x="160.660749" y="320.4" style="stroke: #000000; stroke-width: 0.8"/>
      </g>
     </g>
     <g id="text_1">
      <!-- 1992 -->
      <g transform="translate(147.935749 334.998438) scale(0.1 -0.1)">
       <defs>
        <path id="DejaVuSans-31" d="M 794 531 
L 1825 531 
L 1825 4091 
L 703 3866 
L 703 4441 
L 1819 4666 
L 2450 4666 
L 2450 531 
L 3481 531 
L 3481 0 
L 794 0 
L 794 531 
z
" transform="scale(0.015625)"/>
        <path id="DejaVuSans-39" d="M 703 97 
L 703 672 
Q 941 559 1184 500 
Q 1428 441 1663 441 
Q 2288 441 2617 861 
Q 2947 1281 2994 2138 
Q 2813 1869 2534 1725 
Q 2256 1581 1919 1581 
Q 1219 1581 811 2004 
Q 403 2428 403 3163 
Q 403 3881 828 4315 
Q 1253 4750 1959 4750 
Q 2769 4750 3195 4129 
Q 3622 3509 3622 2328 
Q 3622 1225 3098 567 
Q 2575 -91 1691 -91 
Q 1453 -91 1209 -44 
Q 966 3 703 97 
z
M 1959 2075 
Q 2384 2075 2632 2365 
Q 2881 2656 2881 3163 
Q 2881 3666 2632 3958 
Q 2384 4250 1959 4250 
Q 1534 4250 1286 3958 
Q 1038 3666 1038 3163 
Q 1038 2656 1286 2365 
Q 1534 2075 1959 2075 
z
" transform="scale(0.015625)"/>
        <path id="DejaVuSans-32" d="M 1228 531 
L 3431 531 
L 3431 0 
L 469 0 
L 469 531 
Q 828 903 1448 1529 
Q 2069 2156 2228 2338 
Q 2531 2678 2651 2914 
Q 2772 3150 2772 3378 
Q 2772 3750 2511 3984 
Q 2250 4219 1831 4219 
Q 1534 4219 1204 4116 
Q 875 4013 500 3803 
L 500 4441 
Q 881 4594 1212 4672 
Q 1544 4750 1819 4750 
Q 2544 4750 2975 4387 
Q 3406 4025 3406 3419 
Q 3406 3131 3298 2873 
Q 3191 2616 2906 2266 
Q 2828 2175 2409 1742 
Q 1991 1309 1228 531 
z
" transform="scale(0.015625)"/>
       </defs>
       <use xlink:href="#DejaVuSans-31"/>
       <use xlink:href="#DejaVuSans-39" x="63.623047"/>
       <use xlink:href="#DejaVuSans-39" x="127.246094"/>
       <use xlink:href="#DejaVuSans-32" x="190.869141"/>
      </g>
     </g>
    </g>
    <g id="xtick_2">
     <g id="line2d_2">
      <g>
       <use xlink:href="#m16e7b7262c" x="272.572252" y="320.4" style="stroke: #000000; stroke-width: 0.8"/>
      </g>
     </g>
     <g id="text_2">
      <!-- 1996 -->
      <g transform="translate(259.847252 334.998438) scale(0.1 -0.1)">
       <defs>
        <path id="DejaVuSans-36" d="M 2113 2584 
Q 1688 2584 1439 2293 
Q 1191 2003 1191 1497 
Q 1191 994 1439 701 
Q 1688 409 2113 409 
Q 2538 409 2786 701 
Q 3034 994 3034 1497 
Q 3034 2003 2786 2293 
Q 2538 2584 2113 2584 
z
M 3366 4563 
L 3366 3988 
Q 3128 4100 2886 4159 
Q 2644 4219 2406 4219 
Q 1781 4219 1451 3797 
Q 1122 3375 1075 2522 
Q 1259 2794 1537 2939 
Q 1816 3084 2150 3084 
Q 2853 3084 3261 2657 
Q 3669 2231 3669 1497 
Q 3669 778 3244 343 
Q 2819 -91 2113 -91 
Q 1303 -91 875 529 
Q 447 1150 447 2328 
Q 447 3434 972 4092 
Q 1497 4750 2381 4750 
Q 2619 4750 2861 4703 
Q 3103 4656 3366 4563 
z
" transform="scale(0.015625)"/>
       </defs>
       <use xlink:href="#DejaVuSans-31"/>
       <use xlink:href="#DejaVuSans-39" x="63.623047"/>
       <use xlink:href="#DejaVuSans-39" x="127.246094"/>
       <use xlink:href="#DejaVuSans-36" x="190.869141"/>
      </g>
     </g>
    </g>
    <g id="xtick_3">
     <g id="line2d_3">
      <g>
       <use xlink:href="#m16e7b7262c" x="384.483756" y="320.4" style="stroke: #000000; stroke-width: 0.8"/>
      </g>
     </g>
     <g id="text_3">
      <!-- 2000 -->
      <g transform="translate(371.758756 334.998438) scale(0.1 -0.1)">
       <defs>
        <path id="DejaVuSans-30" d="M 2034 4250 
Q 1547 4250 1301 3770 
Q 1056 3291 1056 2328 
Q 1056 1369 1301 889 
Q 1547 409 2034 409 
Q 2525 409 2770 889 
Q 3016 1369 3016 2328 
Q 3016 3291 2770 3770 
Q 2525 4250 2034 4250 
z
M 2034 4750 
Q 2819 4750 3233 4129 
Q 3647 3509 3647 2328 
Q 3647 1150 3233 529 
Q 2819 -91 2034 -91 
Q 1250 -91 836 529 
Q 422 1150 422 2328 
Q 422 3509 836 4129 
Q 1250 4750 2034 4750 
z
" transform="scale(0.015625)"/>
       </defs>
       <use xlink:href="#DejaVuSans-32"/>
       <use xlink:href="#DejaVuSans-30" x="63.623047"/>
       <use xlink:href="#DejaVuSans-30" x="127.246094"/>
       <use xlink:href="#DejaVuSans-30" x="190.869141"/>
      </g>
     </g>
    </g>
    <g id="xtick_4">
     <g id="line2d_4">
      <g>
       <use xlink:href="#m16e7b7262c" x="496.395259" y="320.4" style="stroke: #000000; stroke-width: 0.8"/>
      </g>
     </g>
     <g id="text_4">
      <!-- 2004 -->
      <g transform="translate(483.670259 334.998438) scale(0.1 -0.1)">
       <defs>
        <path id="DejaVuSans-34" d="M 2419 4116 
L 825 1625 
L 2419 1625 
L 2419 4116 
z
M 2253 4666 
L 3047 4666 
L 3047 1625 
L 3713 1625 
L 3713 1100 
L 3047 1100 
L 3047 0 
L 2419 0 
L 2419 1100 
L 313 1100 
L 313 1709 
L 2253 4666 
z
" transform="scale(0.015625)"/>
       </defs>
       <use xlink:href="#DejaVuSans-32"/>
       <use xlink:href="#DejaVuSans-30" x="63.623047"/>
       <use xlink:href="#DejaVuSans-30" x="127.246094"/>
       <use xlink:href="#DejaVuSans-34" x="190.869141"/>
      </g>
     </g>
    </g>
    <g id="xtick_5">
     <g id="line2d_5">
      <g>
       <use xlink:href="#m16e7b7262c" x="608.306763" y="320.4" style="stroke: #000000; stroke-width: 0.8"/>
      </g>
     </g>
     <g id="text_5">
      <!-- 2008 -->
      <g transform="translate(595.581763 334.998438) scale(0.1 -0.1)">
       <defs>
        <path id="DejaVuSans-38" d="M 2034 2216 
Q 1584 2216 1326 1975 
Q 1069 1734 1069 1313 
Q 1069 891 1326 650 
Q 1584 409 2034 409 
Q 2484 409 2743 651 
Q 3003 894 3003 1313 
Q 3003 1734 2745 1975 
Q 2488 2216 2034 2216 
z
M 1403 2484 
Q 997 2584 770 2862 
Q 544 3141 544 3541 
Q 544 4100 942 4425 
Q 1341 4750 2034 4750 
Q 2731 4750 3128 4425 
Q 3525 4100 3525 3541 
Q 3525 3141 3298 2862 
Q 3072 2584 2669 2484 
Q 3125 2378 3379 2068 
Q 3634 1759 3634 1313 
Q 3634 634 3220 271 
Q 2806 -91 2034 -91 
Q 1263 -91 848 271 
Q 434 634 434 1313 
Q 434 1759 690 2068 
Q 947 2378 1403 2484 
z
M 1172 3481 
Q 1172 3119 1398 2916 
Q 1625 2713 2034 2713 
Q 2441 2713 2670 2916 
Q 2900 3119 2900 3481 
Q 2900 3844 2670 4047 
Q 2441 4250 2034 4250 
Q 1625 4250 1398 4047 
Q 1172 3844 1172 3481 
z
" transform="scale(0.015625)"/>
       </defs>
       <use xlink:href="#DejaVuSans-32"/>
       <use xlink:href="#DejaVuSans-30" x="63.623047"/>
       <use xlink:href="#DejaVuSans-30" x="127.246094"/>
       <use xlink:href="#DejaVuSans-38" x="190.869141"/>
      </g>
     </g>
    </g>
    <g id="xtick_6">
     <g id="line2d_6">
      <g>
       <use xlink:href="#m16e7b7262c" x="720.218267" y="320.4" style="stroke: #000000; stroke-width: 0.8"/>
      </g>
     </g>
     <g id="text_6">
      <!-- 2012 -->
      <g transform="translate(707.493267 334.998438) scale(0.1 -0.1)">
       <use xlink:href="#DejaVuSans-32"/>
       <use xlink:href="#DejaVuSans-30" x="63.623047"/>
       <use xlink:href="#DejaVuSans-31" x="127.246094"/>
       <use xlink:href="#DejaVuSans-32" x="190.869141"/>
      </g>
     </g>
    </g>
    <g id="xtick_7">
     <g id="line2d_7">
      <g>
       <use xlink:href="#m16e7b7262c" x="832.12977" y="320.4" style="stroke: #000000; stroke-width: 0.8"/>
      </g>
     </g>
     <g id="text_7">
      <!-- 2016 -->
      <g transform="translate(819.40477 334.998438) scale(0.1 -0.1)">
       <use xlink:href="#DejaVuSans-32"/>
       <use xlink:href="#DejaVuSans-30" x="63.623047"/>
       <use xlink:href="#DejaVuSans-31" x="127.246094"/>
       <use xlink:href="#DejaVuSans-36" x="190.869141"/>
      </g>
     </g>
    </g>
    <g id="xtick_8">
     <g id="line2d_8">
      <g>
       <use xlink:href="#m16e7b7262c" x="944.041274" y="320.4" style="stroke: #000000; stroke-width: 0.8"/>
      </g>
     </g>
     <g id="text_8">
      <!-- 2020 -->
      <g transform="translate(931.316274 334.998438) scale(0.1 -0.1)">
       <use xlink:href="#DejaVuSans-32"/>
       <use xlink:href="#DejaVuSans-30" x="63.623047"/>
       <use xlink:href="#DejaVuSans-32" x="127.246094"/>
       <use xlink:href="#DejaVuSans-30" x="190.869141"/>
      </g>
     </g>
    </g>
   </g>
   <g id="matplotlib.axis_2">
    <g id="ytick_1">
     <g id="line2d_9">
      <defs>
       <path id="m217e0c307c" d="M 0 0 
L -3.5 0 
" style="stroke: #000000; stroke-width: 0.8"/>
      </defs>
      <g>
       <use xlink:href="#m217e0c307c" x="135" y="300.938256" style="stroke: #000000; stroke-width: 0.8"/>
      </g>
     </g>
     <g id="text_9">
      <!-- −2 -->
      <g transform="translate(113.257812 304.737474) scale(0.1 -0.1)">
       <defs>
        <path id="DejaVuSans-2212" d="M 678 2272 
L 4684 2272 
L 4684 1741 
L 678 1741 
L 678 2272 
z
" transform="scale(0.015625)"/>
       </defs>
       <use xlink:href="#DejaVuSans-2212"/>
       <use xlink:href="#DejaVuSans-32" x="83.789062"/>
      </g>
     </g>
    </g>
    <g id="ytick_2">
     <g id="line2d_10">
      <g>
       <use xlink:href="#m217e0c307c" x="135" y="241.549654" style="stroke: #000000; stroke-width: 0.8"/>
      </g>
     </g>
     <g id="text_10">
      <!-- −1 -->
      <g transform="translate(113.257812 245.348873) scale(0.1 -0.1)">
       <use xlink:href="#DejaVuSans-2212"/>
       <use xlink:href="#DejaVuSans-31" x="83.789062"/>
      </g>
     </g>
    </g>
    <g id="ytick_3">
     <g id="line2d_11">
      <g>
       <use xlink:href="#m217e0c307c" x="135" y="182.161052" style="stroke: #000000; stroke-width: 0.8"/>
      </g>
     </g>
     <g id="text_11">
      <!-- 0 -->
      <g transform="translate(121.6375 185.960271) scale(0.1 -0.1)">
       <use xlink:href="#DejaVuSans-30"/>
      </g>
     </g>
    </g>
    <g id="ytick_4">
     <g id="line2d_12">
      <g>
       <use xlink:href="#m217e0c307c" x="135" y="122.77245" style="stroke: #000000; stroke-width: 0.8"/>
      </g>
     </g>
     <g id="text_12">
      <!-- 1 -->
      <g transform="translate(121.6375 126.571669) scale(0.1 -0.1)">
       <use xlink:href="#DejaVuSans-31"/>
      </g>
     </g>
    </g>
    <g id="ytick_5">
     <g id="line2d_13">
      <g>
       <use xlink:href="#m217e0c307c" x="135" y="63.383849" style="stroke: #000000; stroke-width: 0.8"/>
      </g>
     </g>
     <g id="text_13">
      <!-- 2 -->
      <g transform="translate(121.6375 67.183067) scale(0.1 -0.1)">
       <use xlink:href="#DejaVuSans-32"/>
      </g>
     </g>
    </g>
    <g id="text_14">
     <!-- SGI -->
     <g transform="translate(107.178125 190.323437) rotate(-90) scale(0.1 -0.1)">
      <defs>
       <path id="DejaVuSans-53" d="M 3425 4513 
L 3425 3897 
Q 3066 4069 2747 4153 
Q 2428 4238 2131 4238 
Q 1616 4238 1336 4038 
Q 1056 3838 1056 3469 
Q 1056 3159 1242 3001 
Q 1428 2844 1947 2747 
L 2328 2669 
Q 3034 2534 3370 2195 
Q 3706 1856 3706 1288 
Q 3706 609 3251 259 
Q 2797 -91 1919 -91 
Q 1588 -91 1214 -16 
Q 841 59 441 206 
L 441 856 
Q 825 641 1194 531 
Q 1563 422 1919 422 
Q 2459 422 2753 634 
Q 3047 847 3047 1241 
Q 3047 1584 2836 1778 
Q 2625 1972 2144 2069 
L 1759 2144 
Q 1053 2284 737 2584 
Q 422 2884 422 3419 
Q 422 4038 858 4394 
Q 1294 4750 2059 4750 
Q 2388 4750 2728 4690 
Q 3069 4631 3425 4513 
z
" transform="scale(0.015625)"/>
       <path id="DejaVuSans-47" d="M 3809 666 
L 3809 1919 
L 2778 1919 
L 2778 2438 
L 4434 2438 
L 4434 434 
Q 4069 175 3628 42 
Q 3188 -91 2688 -91 
Q 1594 -91 976 548 
Q 359 1188 359 2328 
Q 359 3472 976 4111 
Q 1594 4750 2688 4750 
Q 3144 4750 3555 4637 
Q 3966 4525 4313 4306 
L 4313 3634 
Q 3963 3931 3569 4081 
Q 3175 4231 2741 4231 
Q 1884 4231 1454 3753 
Q 1025 3275 1025 2328 
Q 1025 1384 1454 906 
Q 1884 428 2741 428 
Q 3075 428 3337 486 
Q 3600 544 3809 666 
z
" transform="scale(0.015625)"/>
       <path id="DejaVuSans-49" d="M 628 4666 
L 1259 4666 
L 1259 0 
L 628 0 
L 628 4666 
z
" transform="scale(0.015625)"/>
      </defs>
      <use xlink:href="#DejaVuSans-53"/>
      <use xlink:href="#DejaVuSans-47" x="63.476562"/>
      <use xlink:href="#DejaVuSans-49" x="140.966797"/>
     </g>
    </g>
   </g>
   <g id="line2d_14">
    <path d="M 146.489887 188.366961 
L 148.864464 196.592273 
L 151.239041 208.999763 
L 153.537018 188.409785 
L 155.911595 193.605199 
L 158.209573 217.171031 
L 160.584149 197.956752 
L 162.958726 221.576707 
L 165.180104 221.395831 
L 167.554681 202.904338 
L 169.852659 177.869245 
L 172.227235 204.745841 
L 174.525213 254.021776 
L 176.89979 238.104887 
L 181.572344 198.67352 
L 183.94692 198.847446 
L 186.244898 220.054737 
L 188.619475 244.976597 
L 190.994051 229.968298 
L 193.13883 245.270765 
L 195.513407 214.669763 
L 197.811385 221.518039 
L 200.185961 174.730528 
L 202.483939 208.288608 
L 204.858516 208.766846 
L 207.233092 179.833027 
L 209.53107 158.484618 
L 211.905647 147.417135 
L 214.203624 143.877853 
L 216.578201 153.889806 
L 218.952778 176.08202 
L 221.097557 215.968167 
L 223.472133 224.683568 
L 225.770111 201.347138 
L 228.144687 189.566215 
L 230.442665 198.919685 
L 232.817242 229.725138 
L 235.191818 210.029704 
L 237.489796 199.285573 
L 239.864373 202.58781 
L 242.16235 206.407923 
L 244.536927 215.159346 
L 246.911504 201.830832 
L 249.056283 159.248044 
L 251.430859 161.149336 
L 253.728837 189.902874 
L 256.103414 236.73136 
L 258.401391 164.415523 
L 260.775968 104.71986 
L 263.150545 150.956908 
L 265.448522 114.406226 
L 267.823099 121.103091 
L 270.121076 92.589982 
L 272.495653 55.8 
L 274.87023 98.687764 
L 277.091608 57.633152 
L 279.466185 119.264812 
L 281.764162 92.844804 
L 284.138739 118.138145 
L 286.436716 80.24588 
L 288.811293 142.121902 
L 291.18587 192.447083 
L 293.483847 173.041079 
L 295.858424 178.545244 
L 298.156402 188.103582 
L 300.530978 166.898693 
L 302.905555 120.435715 
L 305.050334 159.082994 
L 307.424911 63.164475 
L 309.722888 90.912133 
L 312.097465 56.569001 
L 314.395442 83.916836 
L 316.770019 155.555258 
L 319.144596 153.03115 
L 321.442573 138.332365 
L 323.81715 133.007038 
L 326.115128 132.849537 
L 330.864281 180.964917 
L 333.00906 197.080749 
L 335.383637 170.323423 
L 337.681614 193.615438 
L 340.056191 148.9777 
L 342.354169 156.784991 
L 344.728745 59.206307 
L 347.103322 124.709904 
L 349.4013 158.924258 
L 351.775876 177.595808 
L 354.073854 192.4579 
L 356.44843 159.042582 
L 358.823007 148.54671 
L 360.967786 121.762377 
L 363.342363 131.901661 
L 365.64034 151.153464 
L 368.014917 178.969033 
L 370.312895 119.739827 
L 372.687471 126.217217 
L 375.062048 96.778235 
L 377.360026 129.603727 
L 379.734602 150.147076 
L 382.03258 155.263961 
L 384.407157 144.261553 
L 386.781733 156.05264 
L 389.003112 154.36077 
L 391.377688 159.926401 
L 393.675666 157.633826 
L 396.050243 137.693395 
L 398.34822 174.135016 
L 400.722797 167.729832 
L 403.097373 180.175833 
L 407.769928 112.270811 
L 410.067905 127.820231 
L 412.442482 134.554815 
L 414.817059 160.235123 
L 416.961838 186.543763 
L 419.336414 157.488714 
L 421.634392 176.794308 
L 424.008969 179.7238 
L 426.306946 176.816716 
L 431.0561 170.406765 
L 433.354077 175.072454 
L 435.728654 193.674376 
L 438.026631 181.858156 
L 440.401208 191.66634 
L 442.775785 182.145373 
L 444.920564 201.301363 
L 447.29514 202.904338 
L 449.593118 193.702969 
L 451.967695 220.380998 
L 454.265672 137.333824 
L 456.640249 116.543318 
L 459.014826 131.299927 
L 461.312803 135.33951 
L 465.985357 209.535906 
L 468.359934 224.952935 
L 470.734511 224.600076 
L 472.87929 180.869199 
L 475.253867 159.881157 
L 477.551844 155.104959 
L 479.926421 158.457583 
L 482.224398 150.301049 
L 484.598975 202.570485 
L 486.973552 191.640077 
L 489.271529 178.881511 
L 491.646106 195.988728 
L 493.944083 198.967496 
L 496.31866 207.211281 
L 498.693237 234.69905 
L 500.914615 236.641595 
L 503.289192 234.767365 
L 505.587169 195.674505 
L 507.961746 164.497753 
L 510.259724 205.856197 
L 512.6343 179.60288 
L 515.008877 122.328378 
L 517.306855 57.359303 
L 519.681431 82.447562 
L 521.979409 102.635642 
L 524.353986 111.173381 
L 528.873341 144.622626 
L 531.247918 158.977069 
L 533.545895 190.644187 
L 535.920472 149.214928 
L 538.21845 173.930524 
L 540.593026 134.596966 
L 542.967603 170.225757 
L 545.265581 171.738272 
L 547.640157 171.488906 
L 549.938135 165.421766 
L 552.312712 160.440333 
L 554.687288 135.086931 
L 556.832067 158.91783 
L 559.206644 192.29596 
L 561.504622 135.811181 
L 563.879198 86.873507 
L 566.177176 171.433799 
L 568.551753 174.866406 
L 573.224307 161.639497 
L 575.598883 159.532685 
L 577.896861 93.434741 
L 580.271438 95.631069 
L 582.646014 124.159842 
L 584.790793 124.371952 
L 587.16537 118.603416 
L 589.463348 117.416291 
L 591.837924 112.324634 
L 594.135902 164.624346 
L 596.510479 183.426106 
L 598.885055 166.723617 
L 601.183033 177.1849 
L 603.55761 168.936427 
L 605.855587 165.058978 
L 608.230164 142.362102 
L 610.604741 160.663016 
L 612.826119 151.532057 
L 615.200696 153.765835 
L 617.498673 180.237824 
L 619.87325 170.11356 
L 622.171227 132.090042 
L 624.545804 88.637296 
L 626.920381 150.450117 
L 629.218358 106.935816 
L 631.592935 120.486471 
L 633.890912 95.862711 
L 636.265489 93.983833 
L 638.640066 76.672301 
L 640.784845 111.456115 
L 643.159422 154.615285 
L 645.457399 166.871485 
L 647.831976 157.152153 
L 650.129953 144.089759 
L 652.50453 149.051631 
L 654.879107 119.924639 
L 657.177084 143.339467 
L 659.551661 163.066487 
L 661.849639 170.928869 
L 664.224215 124.796044 
L 666.598792 104.503963 
L 668.743571 146.350887 
L 671.118148 172.391143 
L 673.416125 225.01188 
L 675.790702 240.627251 
L 680.463256 161.751619 
L 682.837833 132.623854 
L 685.13581 127.74267 
L 687.510387 154.14574 
L 689.808365 189.909841 
L 692.182941 230.654933 
L 694.557518 179.570706 
L 699.076874 224.365105 
L 701.374851 227.705036 
L 703.749428 307.757451 
L 706.047406 138.702938 
L 713.094536 216.695598 
L 717.767091 205.552413 
L 720.141667 228.33748 
L 722.516244 226.08836 
L 724.737622 219.103454 
L 727.112199 218.943403 
L 729.410177 198.256038 
L 731.784753 233.989251 
L 734.082731 252.840135 
L 741.129862 227.7135 
L 748.176993 245.754293 
L 750.55157 209.984441 
L 752.696348 230.596334 
L 755.070925 260.103253 
L 757.368903 263.540987 
L 759.743479 274.786916 
L 762.041457 266.664405 
L 764.416034 275.684808 
L 766.79061 248.53116 
L 769.088588 254.77421 
L 771.463165 258.819135 
L 773.761142 303.177515 
L 776.135719 307.8 
L 778.510296 293.801307 
L 780.655075 274.641622 
L 783.029651 198.503535 
L 785.327629 257.507101 
L 787.702206 246.088102 
L 790.000183 204.815409 
L 792.37476 215.270473 
L 794.749337 232.342599 
L 797.047314 222.048904 
L 799.421891 221.433918 
L 801.719868 204.819096 
L 804.094445 190.083602 
L 806.469022 205.439182 
L 808.613801 187.694946 
L 810.988377 219.56346 
L 813.286355 228.002674 
L 817.958909 272.750657 
L 820.333486 259.602244 
L 822.708063 239.600103 
L 825.00604 235.841038 
L 827.380617 260.42043 
L 829.678594 254.314443 
L 832.053171 226.725748 
L 834.427748 211.520034 
L 836.649126 195.953051 
L 839.023703 189.032968 
L 841.32168 145.124396 
L 843.696257 169.044247 
L 845.994234 226.883388 
L 848.368811 222.200202 
L 850.743388 228.070206 
L 853.041365 224.532115 
L 855.415942 198.867459 
L 857.71392 141.016604 
L 860.088496 165.295499 
L 862.463073 195.142346 
L 866.982429 87.482649 
L 869.280406 136.735627 
L 871.654983 191.595056 
L 881.000092 232.001872 
L 883.374668 229.787704 
L 885.672646 244.289553 
L 888.047222 197.691848 
L 890.421799 192.075541 
L 892.566578 155.640049 
L 894.941155 179.476883 
L 897.239132 210.581744 
L 899.613709 105.978389 
L 901.911687 215.047322 
L 904.286263 247.778786 
L 906.66084 272.803869 
L 911.333394 261.057868 
L 913.631372 233.950776 
L 916.005949 217.191533 
L 918.380525 227.81153 
L 920.525304 245.612471 
L 922.899881 244.614361 
L 925.197859 126.407805 
L 927.572435 197.810915 
L 929.870413 252.041953 
L 932.244989 305.115797 
L 934.619566 297.227294 
L 936.917544 278.889663 
L 939.29212 224.744809 
L 941.590098 250.155434 
L 943.964675 259.563055 
L 946.339251 250.259488 
L 950.935206 273.609738 
L 953.233184 264.165932 
L 955.607761 217.685358 
L 957.905738 168.560014 
L 960.280315 190.76122 
L 962.654892 243.84205 
L 964.952869 269.395094 
L 967.327446 248.292595 
L 969.625423 185.097938 
L 972 190.950833 
L 972 190.950833 
" clip-path="url(#p3fd95431a3)" style="fill: none; stroke: #7f7f7f; stroke-width: 1.5; stroke-linecap: square"/>
   </g>
   <g id="line2d_15">
    <path d="M 135 182.161052 
L 972 182.161052 
" clip-path="url(#p3fd95431a3)" style="fill: none; stroke: #000000; stroke-width: 1.5; stroke-linecap: square"/>
   </g>
   <g id="patch_3">
    <path d="M 135 320.4 
L 135 43.2 
" style="fill: none; stroke: #000000; stroke-width: 0.8; stroke-linejoin: miter; stroke-linecap: square"/>
   </g>
   <g id="patch_4">
    <path d="M 135 320.4 
L 972 320.4 
" style="fill: none; stroke: #000000; stroke-width: 0.8; stroke-linejoin: miter; stroke-linecap: square"/>
   </g>
   <g id="text_15">
    <!-- SGI for GWIC ID 136486 -->
    <g transform="translate(135 37.2) scale(0.12 -0.12)">
     <defs>
      <path id="DejaVuSans-Bold-53" d="M 3834 4519 
L 3834 3531 
Q 3450 3703 3084 3790 
Q 2719 3878 2394 3878 
Q 1963 3878 1756 3759 
Q 1550 3641 1550 3391 
Q 1550 3203 1689 3098 
Q 1828 2994 2194 2919 
L 2706 2816 
Q 3484 2659 3812 2340 
Q 4141 2022 4141 1434 
Q 4141 663 3683 286 
Q 3225 -91 2284 -91 
Q 1841 -91 1394 -6 
Q 947 78 500 244 
L 500 1259 
Q 947 1022 1364 901 
Q 1781 781 2169 781 
Q 2563 781 2772 912 
Q 2981 1044 2981 1288 
Q 2981 1506 2839 1625 
Q 2697 1744 2272 1838 
L 1806 1941 
Q 1106 2091 782 2419 
Q 459 2747 459 3303 
Q 459 4000 909 4375 
Q 1359 4750 2203 4750 
Q 2588 4750 2994 4692 
Q 3400 4634 3834 4519 
z
" transform="scale(0.015625)"/>
      <path id="DejaVuSans-Bold-47" d="M 4781 347 
Q 4331 128 3847 18 
Q 3363 -91 2847 -91 
Q 1681 -91 1000 561 
Q 319 1213 319 2328 
Q 319 3456 1012 4103 
Q 1706 4750 2913 4750 
Q 3378 4750 3804 4662 
Q 4231 4575 4609 4403 
L 4609 3438 
Q 4219 3659 3833 3768 
Q 3447 3878 3059 3878 
Q 2341 3878 1952 3476 
Q 1563 3075 1563 2328 
Q 1563 1588 1938 1184 
Q 2313 781 3003 781 
Q 3191 781 3352 804 
Q 3513 828 3641 878 
L 3641 1784 
L 2906 1784 
L 2906 2591 
L 4781 2591 
L 4781 347 
z
" transform="scale(0.015625)"/>
      <path id="DejaVuSans-Bold-49" d="M 588 4666 
L 1791 4666 
L 1791 0 
L 588 0 
L 588 4666 
z
" transform="scale(0.015625)"/>
      <path id="DejaVuSans-Bold-20" transform="scale(0.015625)"/>
      <path id="DejaVuSans-Bold-66" d="M 2841 4863 
L 2841 4128 
L 2222 4128 
Q 1984 4128 1890 4042 
Q 1797 3956 1797 3744 
L 1797 3500 
L 2753 3500 
L 2753 2700 
L 1797 2700 
L 1797 0 
L 678 0 
L 678 2700 
L 122 2700 
L 122 3500 
L 678 3500 
L 678 3744 
Q 678 4316 997 4589 
Q 1316 4863 1984 4863 
L 2841 4863 
z
" transform="scale(0.015625)"/>
      <path id="DejaVuSans-Bold-6f" d="M 2203 2784 
Q 1831 2784 1636 2517 
Q 1441 2250 1441 1747 
Q 1441 1244 1636 976 
Q 1831 709 2203 709 
Q 2569 709 2762 976 
Q 2956 1244 2956 1747 
Q 2956 2250 2762 2517 
Q 2569 2784 2203 2784 
z
M 2203 3584 
Q 3106 3584 3614 3096 
Q 4122 2609 4122 1747 
Q 4122 884 3614 396 
Q 3106 -91 2203 -91 
Q 1297 -91 786 396 
Q 275 884 275 1747 
Q 275 2609 786 3096 
Q 1297 3584 2203 3584 
z
" transform="scale(0.015625)"/>
      <path id="DejaVuSans-Bold-72" d="M 3138 2547 
Q 2991 2616 2845 2648 
Q 2700 2681 2553 2681 
Q 2122 2681 1889 2404 
Q 1656 2128 1656 1613 
L 1656 0 
L 538 0 
L 538 3500 
L 1656 3500 
L 1656 2925 
Q 1872 3269 2151 3426 
Q 2431 3584 2822 3584 
Q 2878 3584 2943 3579 
Q 3009 3575 3134 3559 
L 3138 2547 
z
" transform="scale(0.015625)"/>
      <path id="DejaVuSans-Bold-57" d="M 191 4666 
L 1344 4666 
L 2150 1275 
L 2950 4666 
L 4109 4666 
L 4909 1275 
L 5716 4666 
L 6859 4666 
L 5759 0 
L 4372 0 
L 3525 3547 
L 2688 0 
L 1300 0 
L 191 4666 
z
" transform="scale(0.015625)"/>
      <path id="DejaVuSans-Bold-43" d="M 4288 256 
Q 3956 84 3597 -3 
Q 3238 -91 2847 -91 
Q 1681 -91 1000 561 
Q 319 1213 319 2328 
Q 319 3447 1000 4098 
Q 1681 4750 2847 4750 
Q 3238 4750 3597 4662 
Q 3956 4575 4288 4403 
L 4288 3438 
Q 3953 3666 3628 3772 
Q 3303 3878 2944 3878 
Q 2300 3878 1931 3465 
Q 1563 3053 1563 2328 
Q 1563 1606 1931 1193 
Q 2300 781 2944 781 
Q 3303 781 3628 887 
Q 3953 994 4288 1222 
L 4288 256 
z
" transform="scale(0.015625)"/>
      <path id="DejaVuSans-Bold-44" d="M 1791 3756 
L 1791 909 
L 2222 909 
Q 2959 909 3348 1275 
Q 3738 1641 3738 2338 
Q 3738 3031 3350 3393 
Q 2963 3756 2222 3756 
L 1791 3756 
z
M 588 4666 
L 1856 4666 
Q 2919 4666 3439 4514 
Q 3959 4363 4331 4000 
Q 4659 3684 4818 3271 
Q 4978 2859 4978 2338 
Q 4978 1809 4818 1395 
Q 4659 981 4331 666 
Q 3956 303 3431 151 
Q 2906 0 1856 0 
L 588 0 
L 588 4666 
z
" transform="scale(0.015625)"/>
      <path id="DejaVuSans-Bold-31" d="M 750 831 
L 1813 831 
L 1813 3847 
L 722 3622 
L 722 4441 
L 1806 4666 
L 2950 4666 
L 2950 831 
L 4013 831 
L 4013 0 
L 750 0 
L 750 831 
z
" transform="scale(0.015625)"/>
      <path id="DejaVuSans-Bold-33" d="M 2981 2516 
Q 3453 2394 3698 2092 
Q 3944 1791 3944 1325 
Q 3944 631 3412 270 
Q 2881 -91 1863 -91 
Q 1503 -91 1142 -33 
Q 781 25 428 141 
L 428 1069 
Q 766 900 1098 814 
Q 1431 728 1753 728 
Q 2231 728 2486 893 
Q 2741 1059 2741 1369 
Q 2741 1688 2480 1852 
Q 2219 2016 1709 2016 
L 1228 2016 
L 1228 2791 
L 1734 2791 
Q 2188 2791 2409 2933 
Q 2631 3075 2631 3366 
Q 2631 3634 2415 3781 
Q 2200 3928 1806 3928 
Q 1516 3928 1219 3862 
Q 922 3797 628 3669 
L 628 4550 
Q 984 4650 1334 4700 
Q 1684 4750 2022 4750 
Q 2931 4750 3382 4451 
Q 3834 4153 3834 3553 
Q 3834 3144 3618 2883 
Q 3403 2622 2981 2516 
z
" transform="scale(0.015625)"/>
      <path id="DejaVuSans-Bold-36" d="M 2316 2303 
Q 2000 2303 1842 2098 
Q 1684 1894 1684 1484 
Q 1684 1075 1842 870 
Q 2000 666 2316 666 
Q 2634 666 2792 870 
Q 2950 1075 2950 1484 
Q 2950 1894 2792 2098 
Q 2634 2303 2316 2303 
z
M 3803 4544 
L 3803 3681 
Q 3506 3822 3243 3889 
Q 2981 3956 2731 3956 
Q 2194 3956 1894 3657 
Q 1594 3359 1544 2772 
Q 1750 2925 1990 3001 
Q 2231 3078 2516 3078 
Q 3231 3078 3670 2659 
Q 4109 2241 4109 1563 
Q 4109 813 3618 361 
Q 3128 -91 2303 -91 
Q 1394 -91 895 523 
Q 397 1138 397 2266 
Q 397 3422 980 4083 
Q 1563 4744 2578 4744 
Q 2900 4744 3203 4694 
Q 3506 4644 3803 4544 
z
" transform="scale(0.015625)"/>
      <path id="DejaVuSans-Bold-34" d="M 2356 3675 
L 1038 1722 
L 2356 1722 
L 2356 3675 
z
M 2156 4666 
L 3494 4666 
L 3494 1722 
L 4159 1722 
L 4159 850 
L 3494 850 
L 3494 0 
L 2356 0 
L 2356 850 
L 288 850 
L 288 1881 
L 2156 4666 
z
" transform="scale(0.015625)"/>
      <path id="DejaVuSans-Bold-38" d="M 2228 2088 
Q 1891 2088 1709 1903 
Q 1528 1719 1528 1375 
Q 1528 1031 1709 848 
Q 1891 666 2228 666 
Q 2563 666 2741 848 
Q 2919 1031 2919 1375 
Q 2919 1722 2741 1905 
Q 2563 2088 2228 2088 
z
M 1350 2484 
Q 925 2613 709 2878 
Q 494 3144 494 3541 
Q 494 4131 934 4440 
Q 1375 4750 2228 4750 
Q 3075 4750 3515 4442 
Q 3956 4134 3956 3541 
Q 3956 3144 3739 2878 
Q 3522 2613 3097 2484 
Q 3572 2353 3814 2058 
Q 4056 1763 4056 1313 
Q 4056 619 3595 264 
Q 3134 -91 2228 -91 
Q 1319 -91 855 264 
Q 391 619 391 1313 
Q 391 1763 633 2058 
Q 875 2353 1350 2484 
z
M 1631 3419 
Q 1631 3141 1786 2991 
Q 1941 2841 2228 2841 
Q 2509 2841 2662 2991 
Q 2816 3141 2816 3419 
Q 2816 3697 2662 3845 
Q 2509 3994 2228 3994 
Q 1941 3994 1786 3844 
Q 1631 3694 1631 3419 
z
" transform="scale(0.015625)"/>
     </defs>
     <use xlink:href="#DejaVuSans-Bold-53"/>
     <use xlink:href="#DejaVuSans-Bold-47" x="72.021484"/>
     <use xlink:href="#DejaVuSans-Bold-49" x="154.101562"/>
     <use xlink:href="#DejaVuSans-Bold-20" x="191.308594"/>
     <use xlink:href="#DejaVuSans-Bold-66" x="226.123047"/>
     <use xlink:href="#DejaVuSans-Bold-6f" x="269.628906"/>
     <use xlink:href="#DejaVuSans-Bold-72" x="338.330078"/>
     <use xlink:href="#DejaVuSans-Bold-20" x="387.646484"/>
     <use xlink:href="#DejaVuSans-Bold-47" x="422.460938"/>
     <use xlink:href="#DejaVuSans-Bold-57" x="504.541016"/>
     <use xlink:href="#DejaVuSans-Bold-49" x="614.84375"/>
     <use xlink:href="#DejaVuSans-Bold-43" x="652.050781"/>
     <use xlink:href="#DejaVuSans-Bold-20" x="725.439453"/>
     <use xlink:href="#DejaVuSans-Bold-49" x="760.253906"/>
     <use xlink:href="#DejaVuSans-Bold-44" x="797.460938"/>
     <use xlink:href="#DejaVuSans-Bold-20" x="880.46875"/>
     <use xlink:href="#DejaVuSans-Bold-31" x="915.283203"/>
     <use xlink:href="#DejaVuSans-Bold-33" x="984.863281"/>
     <use xlink:href="#DejaVuSans-Bold-36" x="1054.443359"/>
     <use xlink:href="#DejaVuSans-Bold-34" x="1124.023438"/>
     <use xlink:href="#DejaVuSans-Bold-38" x="1193.603516"/>
     <use xlink:href="#DejaVuSans-Bold-36" x="1263.183594"/>
    </g>
   </g>
   <g id="PathCollection_1">
    <defs>
     <path id="mfa36309530" d="M 0 3 
C 0.795609 3 1.55874 2.683901 2.12132 2.12132 
C 2.683901 1.55874 3 0.795609 3 0 
C 3 -0.795609 2.683901 -1.55874 2.12132 -2.12132 
C 1.55874 -2.683901 0.795609 -3 0 -3 
C -0.795609 -3 -1.55874 -2.683901 -2.12132 -2.12132 
C -2.683901 -1.55874 -3 -0.795609 -3 0 
C -3 0.795609 -2.683901 1.55874 -2.12132 2.12132 
C -1.55874 2.683901 -0.795609 3 0 3 
z
" style="stroke: #ffffff; stroke-width: 0.48"/>
    </defs>
    <g clip-path="url(#p3fd95431a3)">
     <use xlink:href="#mfa36309530" x="146.489887" y="188.366961" style="stroke: #ffffff; stroke-width: 0.48"/>
     <use xlink:href="#mfa36309530" x="148.864464" y="196.592273" style="stroke: #ffffff; stroke-width: 0.48"/>
     <use xlink:href="#mfa36309530" x="151.239041" y="208.999763" style="stroke: #ffffff; stroke-width: 0.48"/>
     <use xlink:href="#mfa36309530" x="153.537018" y="188.409785" style="stroke: #ffffff; stroke-width: 0.48"/>
     <use xlink:href="#mfa36309530" x="155.911595" y="193.605199" style="stroke: #ffffff; stroke-width: 0.48"/>
     <use xlink:href="#mfa36309530" x="158.209573" y="217.171031" style="stroke: #ffffff; stroke-width: 0.48"/>
     <use xlink:href="#mfa36309530" x="160.584149" y="197.956752" style="stroke: #ffffff; stroke-width: 0.48"/>
     <use xlink:href="#mfa36309530" x="162.958726" y="221.576707" style="stroke: #ffffff; stroke-width: 0.48"/>
     <use xlink:href="#mfa36309530" x="165.180104" y="221.395831" style="stroke: #ffffff; stroke-width: 0.48"/>
     <use xlink:href="#mfa36309530" x="167.554681" y="202.904338" style="stroke: #ffffff; stroke-width: 0.48"/>
     <use xlink:href="#mfa36309530" x="169.852659" y="177.869245" style="stroke: #ffffff; stroke-width: 0.48"/>
     <use xlink:href="#mfa36309530" x="172.227235" y="204.745841" style="stroke: #ffffff; stroke-width: 0.48"/>
     <use xlink:href="#mfa36309530" x="174.525213" y="254.021776" style="stroke: #ffffff; stroke-width: 0.48"/>
     <use xlink:href="#mfa36309530" x="176.89979" y="238.104887" style="stroke: #ffffff; stroke-width: 0.48"/>
     <use xlink:href="#mfa36309530" x="181.572344" y="198.67352" style="stroke: #ffffff; stroke-width: 0.48"/>
     <use xlink:href="#mfa36309530" x="183.94692" y="198.847446" style="stroke: #ffffff; stroke-width: 0.48"/>
     <use xlink:href="#mfa36309530" x="186.244898" y="220.054737" style="stroke: #ffffff; stroke-width: 0.48"/>
     <use xlink:href="#mfa36309530" x="188.619475" y="244.976597" style="stroke: #ffffff; stroke-width: 0.48"/>
     <use xlink:href="#mfa36309530" x="190.994051" y="229.968298" style="stroke: #ffffff; stroke-width: 0.48"/>
     <use xlink:href="#mfa36309530" x="193.13883" y="245.270765" style="stroke: #ffffff; stroke-width: 0.48"/>
     <use xlink:href="#mfa36309530" x="195.513407" y="214.669763" style="stroke: #ffffff; stroke-width: 0.48"/>
     <use xlink:href="#mfa36309530" x="197.811385" y="221.518039" style="stroke: #ffffff; stroke-width: 0.48"/>
     <use xlink:href="#mfa36309530" x="200.185961" y="174.730528" style="stroke: #ffffff; stroke-width: 0.48"/>
     <use xlink:href="#mfa36309530" x="202.483939" y="208.288608" style="stroke: #ffffff; stroke-width: 0.48"/>
     <use xlink:href="#mfa36309530" x="204.858516" y="208.766846" style="stroke: #ffffff; stroke-width: 0.48"/>
     <use xlink:href="#mfa36309530" x="207.233092" y="179.833027" style="stroke: #ffffff; stroke-width: 0.48"/>
     <use xlink:href="#mfa36309530" x="209.53107" y="158.484618" style="stroke: #ffffff; stroke-width: 0.48"/>
     <use xlink:href="#mfa36309530" x="211.905647" y="147.417135" style="stroke: #ffffff; stroke-width: 0.48"/>
     <use xlink:href="#mfa36309530" x="214.203624" y="143.877853" style="stroke: #ffffff; stroke-width: 0.48"/>
     <use xlink:href="#mfa36309530" x="216.578201" y="153.889806" style="stroke: #ffffff; stroke-width: 0.48"/>
     <use xlink:href="#mfa36309530" x="218.952778" y="176.08202" style="stroke: #ffffff; stroke-width: 0.48"/>
     <use xlink:href="#mfa36309530" x="221.097557" y="215.968167" style="stroke: #ffffff; stroke-width: 0.48"/>
     <use xlink:href="#mfa36309530" x="223.472133" y="224.683568" style="stroke: #ffffff; stroke-width: 0.48"/>
     <use xlink:href="#mfa36309530" x="225.770111" y="201.347138" style="stroke: #ffffff; stroke-width: 0.48"/>
     <use xlink:href="#mfa36309530" x="228.144687" y="189.566215" style="stroke: #ffffff; stroke-width: 0.48"/>
     <use xlink:href="#mfa36309530" x="230.442665" y="198.919685" style="stroke: #ffffff; stroke-width: 0.48"/>
     <use xlink:href="#mfa36309530" x="232.817242" y="229.725138" style="stroke: #ffffff; stroke-width: 0.48"/>
     <use xlink:href="#mfa36309530" x="235.191818" y="210.029704" style="stroke: #ffffff; stroke-width: 0.48"/>
     <use xlink:href="#mfa36309530" x="237.489796" y="199.285573" style="stroke: #ffffff; stroke-width: 0.48"/>
     <use xlink:href="#mfa36309530" x="239.864373" y="202.58781" style="stroke: #ffffff; stroke-width: 0.48"/>
     <use xlink:href="#mfa36309530" x="242.16235" y="206.407923" style="stroke: #ffffff; stroke-width: 0.48"/>
     <use xlink:href="#mfa36309530" x="244.536927" y="215.159346" style="stroke: #ffffff; stroke-width: 0.48"/>
     <use xlink:href="#mfa36309530" x="246.911504" y="201.830832" style="stroke: #ffffff; stroke-width: 0.48"/>
     <use xlink:href="#mfa36309530" x="249.056283" y="159.248044" style="stroke: #ffffff; stroke-width: 0.48"/>
     <use xlink:href="#mfa36309530" x="251.430859" y="161.149336" style="stroke: #ffffff; stroke-width: 0.48"/>
     <use xlink:href="#mfa36309530" x="253.728837" y="189.902874" style="stroke: #ffffff; stroke-width: 0.48"/>
     <use xlink:href="#mfa36309530" x="256.103414" y="236.73136" style="stroke: #ffffff; stroke-width: 0.48"/>
     <use xlink:href="#mfa36309530" x="258.401391" y="164.415523" style="stroke: #ffffff; stroke-width: 0.48"/>
     <use xlink:href="#mfa36309530" x="260.775968" y="104.71986" style="stroke: #ffffff; stroke-width: 0.48"/>
     <use xlink:href="#mfa36309530" x="263.150545" y="150.956908" style="stroke: #ffffff; stroke-width: 0.48"/>
     <use xlink:href="#mfa36309530" x="265.448522" y="114.406226" style="stroke: #ffffff; stroke-width: 0.48"/>
     <use xlink:href="#mfa36309530" x="267.823099" y="121.103091" style="stroke: #ffffff; stroke-width: 0.48"/>
     <use xlink:href="#mfa36309530" x="270.121076" y="92.589982" style="stroke: #ffffff; stroke-width: 0.48"/>
     <use xlink:href="#mfa36309530" x="272.495653" y="55.8" style="stroke: #ffffff; stroke-width: 0.48"/>
     <use xlink:href="#mfa36309530" x="274.87023" y="98.687764" style="stroke: #ffffff; stroke-width: 0.48"/>
     <use xlink:href="#mfa36309530" x="277.091608" y="57.633152" style="stroke: #ffffff; stroke-width: 0.48"/>
     <use xlink:href="#mfa36309530" x="279.466185" y="119.264812" style="stroke: #ffffff; stroke-width: 0.48"/>
     <use xlink:href="#mfa36309530" x="281.764162" y="92.844804" style="stroke: #ffffff; stroke-width: 0.48"/>
     <use xlink:href="#mfa36309530" x="284.138739" y="118.138145" style="stroke: #ffffff; stroke-width: 0.48"/>
     <use xlink:href="#mfa36309530" x="286.436716" y="80.24588" style="stroke: #ffffff; stroke-width: 0.48"/>
     <use xlink:href="#mfa36309530" x="288.811293" y="142.121902" style="stroke: #ffffff; stroke-width: 0.48"/>
     <use xlink:href="#mfa36309530" x="291.18587" y="192.447083" style="stroke: #ffffff; stroke-width: 0.48"/>
     <use xlink:href="#mfa36309530" x="293.483847" y="173.041079" style="stroke: #ffffff; stroke-width: 0.48"/>
     <use xlink:href="#mfa36309530" x="295.858424" y="178.545244" style="stroke: #ffffff; stroke-width: 0.48"/>
     <use xlink:href="#mfa36309530" x="298.156402" y="188.103582" style="stroke: #ffffff; stroke-width: 0.48"/>
     <use xlink:href="#mfa36309530" x="300.530978" y="166.898693" style="stroke: #ffffff; stroke-width: 0.48"/>
     <use xlink:href="#mfa36309530" x="302.905555" y="120.435715" style="stroke: #ffffff; stroke-width: 0.48"/>
     <use xlink:href="#mfa36309530" x="305.050334" y="159.082994" style="stroke: #ffffff; stroke-width: 0.48"/>
     <use xlink:href="#mfa36309530" x="307.424911" y="63.164475" style="stroke: #ffffff; stroke-width: 0.48"/>
     <use xlink:href="#mfa36309530" x="309.722888" y="90.912133" style="stroke: #ffffff; stroke-width: 0.48"/>
     <use xlink:href="#mfa36309530" x="312.097465" y="56.569001" style="stroke: #ffffff; stroke-width: 0.48"/>
     <use xlink:href="#mfa36309530" x="314.395442" y="83.916836" style="stroke: #ffffff; stroke-width: 0.48"/>
     <use xlink:href="#mfa36309530" x="316.770019" y="155.555258" style="stroke: #ffffff; stroke-width: 0.48"/>
     <use xlink:href="#mfa36309530" x="319.144596" y="153.03115" style="stroke: #ffffff; stroke-width: 0.48"/>
     <use xlink:href="#mfa36309530" x="321.442573" y="138.332365" style="stroke: #ffffff; stroke-width: 0.48"/>
     <use xlink:href="#mfa36309530" x="323.81715" y="133.007038" style="stroke: #ffffff; stroke-width: 0.48"/>
     <use xlink:href="#mfa36309530" x="326.115128" y="132.849537" style="stroke: #ffffff; stroke-width: 0.48"/>
     <use xlink:href="#mfa36309530" x="328.489704" y="156.506275" style="stroke: #ffffff; stroke-width: 0.48"/>
     <use xlink:href="#mfa36309530" x="330.864281" y="180.964917" style="stroke: #ffffff; stroke-width: 0.48"/>
     <use xlink:href="#mfa36309530" x="333.00906" y="197.080749" style="stroke: #ffffff; stroke-width: 0.48"/>
     <use xlink:href="#mfa36309530" x="335.383637" y="170.323423" style="stroke: #ffffff; stroke-width: 0.48"/>
     <use xlink:href="#mfa36309530" x="337.681614" y="193.615438" style="stroke: #ffffff; stroke-width: 0.48"/>
     <use xlink:href="#mfa36309530" x="340.056191" y="148.9777" style="stroke: #ffffff; stroke-width: 0.48"/>
     <use xlink:href="#mfa36309530" x="342.354169" y="156.784991" style="stroke: #ffffff; stroke-width: 0.48"/>
     <use xlink:href="#mfa36309530" x="344.728745" y="59.206307" style="stroke: #ffffff; stroke-width: 0.48"/>
     <use xlink:href="#mfa36309530" x="347.103322" y="124.709904" style="stroke: #ffffff; stroke-width: 0.48"/>
     <use xlink:href="#mfa36309530" x="349.4013" y="158.924258" style="stroke: #ffffff; stroke-width: 0.48"/>
     <use xlink:href="#mfa36309530" x="351.775876" y="177.595808" style="stroke: #ffffff; stroke-width: 0.48"/>
     <use xlink:href="#mfa36309530" x="354.073854" y="192.4579" style="stroke: #ffffff; stroke-width: 0.48"/>
     <use xlink:href="#mfa36309530" x="356.44843" y="159.042582" style="stroke: #ffffff; stroke-width: 0.48"/>
     <use xlink:href="#mfa36309530" x="358.823007" y="148.54671" style="stroke: #ffffff; stroke-width: 0.48"/>
     <use xlink:href="#mfa36309530" x="360.967786" y="121.762377" style="stroke: #ffffff; stroke-width: 0.48"/>
     <use xlink:href="#mfa36309530" x="363.342363" y="131.901661" style="stroke: #ffffff; stroke-width: 0.48"/>
     <use xlink:href="#mfa36309530" x="365.64034" y="151.153464" style="stroke: #ffffff; stroke-width: 0.48"/>
     <use xlink:href="#mfa36309530" x="368.014917" y="178.969033" style="stroke: #ffffff; stroke-width: 0.48"/>
     <use xlink:href="#mfa36309530" x="370.312895" y="119.739827" style="stroke: #ffffff; stroke-width: 0.48"/>
     <use xlink:href="#mfa36309530" x="372.687471" y="126.217217" style="stroke: #ffffff; stroke-width: 0.48"/>
     <use xlink:href="#mfa36309530" x="375.062048" y="96.778235" style="stroke: #ffffff; stroke-width: 0.48"/>
     <use xlink:href="#mfa36309530" x="377.360026" y="129.603727" style="stroke: #ffffff; stroke-width: 0.48"/>
     <use xlink:href="#mfa36309530" x="379.734602" y="150.147076" style="stroke: #ffffff; stroke-width: 0.48"/>
     <use xlink:href="#mfa36309530" x="382.03258" y="155.263961" style="stroke: #ffffff; stroke-width: 0.48"/>
     <use xlink:href="#mfa36309530" x="384.407157" y="144.261553" style="stroke: #ffffff; stroke-width: 0.48"/>
     <use xlink:href="#mfa36309530" x="386.781733" y="156.05264" style="stroke: #ffffff; stroke-width: 0.48"/>
     <use xlink:href="#mfa36309530" x="389.003112" y="154.36077" style="stroke: #ffffff; stroke-width: 0.48"/>
     <use xlink:href="#mfa36309530" x="391.377688" y="159.926401" style="stroke: #ffffff; stroke-width: 0.48"/>
     <use xlink:href="#mfa36309530" x="393.675666" y="157.633826" style="stroke: #ffffff; stroke-width: 0.48"/>
     <use xlink:href="#mfa36309530" x="396.050243" y="137.693395" style="stroke: #ffffff; stroke-width: 0.48"/>
     <use xlink:href="#mfa36309530" x="398.34822" y="174.135016" style="stroke: #ffffff; stroke-width: 0.48"/>
     <use xlink:href="#mfa36309530" x="400.722797" y="167.729832" style="stroke: #ffffff; stroke-width: 0.48"/>
     <use xlink:href="#mfa36309530" x="403.097373" y="180.175833" style="stroke: #ffffff; stroke-width: 0.48"/>
     <use xlink:href="#mfa36309530" x="405.395351" y="147.312169" style="stroke: #ffffff; stroke-width: 0.48"/>
     <use xlink:href="#mfa36309530" x="407.769928" y="112.270811" style="stroke: #ffffff; stroke-width: 0.48"/>
     <use xlink:href="#mfa36309530" x="410.067905" y="127.820231" style="stroke: #ffffff; stroke-width: 0.48"/>
     <use xlink:href="#mfa36309530" x="412.442482" y="134.554815" style="stroke: #ffffff; stroke-width: 0.48"/>
     <use xlink:href="#mfa36309530" x="414.817059" y="160.235123" style="stroke: #ffffff; stroke-width: 0.48"/>
     <use xlink:href="#mfa36309530" x="416.961838" y="186.543763" style="stroke: #ffffff; stroke-width: 0.48"/>
     <use xlink:href="#mfa36309530" x="419.336414" y="157.488714" style="stroke: #ffffff; stroke-width: 0.48"/>
     <use xlink:href="#mfa36309530" x="421.634392" y="176.794308" style="stroke: #ffffff; stroke-width: 0.48"/>
     <use xlink:href="#mfa36309530" x="424.008969" y="179.7238" style="stroke: #ffffff; stroke-width: 0.48"/>
     <use xlink:href="#mfa36309530" x="426.306946" y="176.816716" style="stroke: #ffffff; stroke-width: 0.48"/>
     <use xlink:href="#mfa36309530" x="431.0561" y="170.406765" style="stroke: #ffffff; stroke-width: 0.48"/>
     <use xlink:href="#mfa36309530" x="433.354077" y="175.072454" style="stroke: #ffffff; stroke-width: 0.48"/>
     <use xlink:href="#mfa36309530" x="435.728654" y="193.674376" style="stroke: #ffffff; stroke-width: 0.48"/>
     <use xlink:href="#mfa36309530" x="438.026631" y="181.858156" style="stroke: #ffffff; stroke-width: 0.48"/>
     <use xlink:href="#mfa36309530" x="440.401208" y="191.66634" style="stroke: #ffffff; stroke-width: 0.48"/>
     <use xlink:href="#mfa36309530" x="442.775785" y="182.145373" style="stroke: #ffffff; stroke-width: 0.48"/>
     <use xlink:href="#mfa36309530" x="444.920564" y="201.301363" style="stroke: #ffffff; stroke-width: 0.48"/>
     <use xlink:href="#mfa36309530" x="447.29514" y="202.904338" style="stroke: #ffffff; stroke-width: 0.48"/>
     <use xlink:href="#mfa36309530" x="449.593118" y="193.702969" style="stroke: #ffffff; stroke-width: 0.48"/>
     <use xlink:href="#mfa36309530" x="451.967695" y="220.380998" style="stroke: #ffffff; stroke-width: 0.48"/>
     <use xlink:href="#mfa36309530" x="454.265672" y="137.333824" style="stroke: #ffffff; stroke-width: 0.48"/>
     <use xlink:href="#mfa36309530" x="456.640249" y="116.543318" style="stroke: #ffffff; stroke-width: 0.48"/>
     <use xlink:href="#mfa36309530" x="459.014826" y="131.299927" style="stroke: #ffffff; stroke-width: 0.48"/>
     <use xlink:href="#mfa36309530" x="461.312803" y="135.33951" style="stroke: #ffffff; stroke-width: 0.48"/>
     <use xlink:href="#mfa36309530" x="463.68738" y="173.575955" style="stroke: #ffffff; stroke-width: 0.48"/>
     <use xlink:href="#mfa36309530" x="465.985357" y="209.535906" style="stroke: #ffffff; stroke-width: 0.48"/>
     <use xlink:href="#mfa36309530" x="468.359934" y="224.952935" style="stroke: #ffffff; stroke-width: 0.48"/>
     <use xlink:href="#mfa36309530" x="470.734511" y="224.600076" style="stroke: #ffffff; stroke-width: 0.48"/>
     <use xlink:href="#mfa36309530" x="472.87929" y="180.869199" style="stroke: #ffffff; stroke-width: 0.48"/>
     <use xlink:href="#mfa36309530" x="475.253867" y="159.881157" style="stroke: #ffffff; stroke-width: 0.48"/>
     <use xlink:href="#mfa36309530" x="477.551844" y="155.104959" style="stroke: #ffffff; stroke-width: 0.48"/>
     <use xlink:href="#mfa36309530" x="479.926421" y="158.457583" style="stroke: #ffffff; stroke-width: 0.48"/>
     <use xlink:href="#mfa36309530" x="482.224398" y="150.301049" style="stroke: #ffffff; stroke-width: 0.48"/>
     <use xlink:href="#mfa36309530" x="484.598975" y="202.570485" style="stroke: #ffffff; stroke-width: 0.48"/>
     <use xlink:href="#mfa36309530" x="486.973552" y="191.640077" style="stroke: #ffffff; stroke-width: 0.48"/>
     <use xlink:href="#mfa36309530" x="489.271529" y="178.881511" style="stroke: #ffffff; stroke-width: 0.48"/>
     <use xlink:href="#mfa36309530" x="491.646106" y="195.988728" style="stroke: #ffffff; stroke-width: 0.48"/>
     <use xlink:href="#mfa36309530" x="493.944083" y="198.967496" style="stroke: #ffffff; stroke-width: 0.48"/>
     <use xlink:href="#mfa36309530" x="496.31866" y="207.211281" style="stroke: #ffffff; stroke-width: 0.48"/>
     <use xlink:href="#mfa36309530" x="498.693237" y="234.69905" style="stroke: #ffffff; stroke-width: 0.48"/>
     <use xlink:href="#mfa36309530" x="500.914615" y="236.641595" style="stroke: #ffffff; stroke-width: 0.48"/>
     <use xlink:href="#mfa36309530" x="503.289192" y="234.767365" style="stroke: #ffffff; stroke-width: 0.48"/>
     <use xlink:href="#mfa36309530" x="505.587169" y="195.674505" style="stroke: #ffffff; stroke-width: 0.48"/>
     <use xlink:href="#mfa36309530" x="507.961746" y="164.497753" style="stroke: #ffffff; stroke-width: 0.48"/>
     <use xlink:href="#mfa36309530" x="510.259724" y="205.856197" style="stroke: #ffffff; stroke-width: 0.48"/>
     <use xlink:href="#mfa36309530" x="512.6343" y="179.60288" style="stroke: #ffffff; stroke-width: 0.48"/>
     <use xlink:href="#mfa36309530" x="515.008877" y="122.328378" style="stroke: #ffffff; stroke-width: 0.48"/>
     <use xlink:href="#mfa36309530" x="517.306855" y="57.359303" style="stroke: #ffffff; stroke-width: 0.48"/>
     <use xlink:href="#mfa36309530" x="519.681431" y="82.447562" style="stroke: #ffffff; stroke-width: 0.48"/>
     <use xlink:href="#mfa36309530" x="521.979409" y="102.635642" style="stroke: #ffffff; stroke-width: 0.48"/>
     <use xlink:href="#mfa36309530" x="524.353986" y="111.173381" style="stroke: #ffffff; stroke-width: 0.48"/>
     <use xlink:href="#mfa36309530" x="526.728562" y="129.069826" style="stroke: #ffffff; stroke-width: 0.48"/>
     <use xlink:href="#mfa36309530" x="528.873341" y="144.622626" style="stroke: #ffffff; stroke-width: 0.48"/>
     <use xlink:href="#mfa36309530" x="531.247918" y="158.977069" style="stroke: #ffffff; stroke-width: 0.48"/>
     <use xlink:href="#mfa36309530" x="533.545895" y="190.644187" style="stroke: #ffffff; stroke-width: 0.48"/>
     <use xlink:href="#mfa36309530" x="535.920472" y="149.214928" style="stroke: #ffffff; stroke-width: 0.48"/>
     <use xlink:href="#mfa36309530" x="538.21845" y="173.930524" style="stroke: #ffffff; stroke-width: 0.48"/>
     <use xlink:href="#mfa36309530" x="540.593026" y="134.596966" style="stroke: #ffffff; stroke-width: 0.48"/>
     <use xlink:href="#mfa36309530" x="542.967603" y="170.225757" style="stroke: #ffffff; stroke-width: 0.48"/>
     <use xlink:href="#mfa36309530" x="545.265581" y="171.738272" style="stroke: #ffffff; stroke-width: 0.48"/>
     <use xlink:href="#mfa36309530" x="547.640157" y="171.488906" style="stroke: #ffffff; stroke-width: 0.48"/>
     <use xlink:href="#mfa36309530" x="549.938135" y="165.421766" style="stroke: #ffffff; stroke-width: 0.48"/>
     <use xlink:href="#mfa36309530" x="552.312712" y="160.440333" style="stroke: #ffffff; stroke-width: 0.48"/>
     <use xlink:href="#mfa36309530" x="554.687288" y="135.086931" style="stroke: #ffffff; stroke-width: 0.48"/>
     <use xlink:href="#mfa36309530" x="556.832067" y="158.91783" style="stroke: #ffffff; stroke-width: 0.48"/>
     <use xlink:href="#mfa36309530" x="559.206644" y="192.29596" style="stroke: #ffffff; stroke-width: 0.48"/>
     <use xlink:href="#mfa36309530" x="561.504622" y="135.811181" style="stroke: #ffffff; stroke-width: 0.48"/>
     <use xlink:href="#mfa36309530" x="563.879198" y="86.873507" style="stroke: #ffffff; stroke-width: 0.48"/>
     <use xlink:href="#mfa36309530" x="566.177176" y="171.433799" style="stroke: #ffffff; stroke-width: 0.48"/>
     <use xlink:href="#mfa36309530" x="568.551753" y="174.866406" style="stroke: #ffffff; stroke-width: 0.48"/>
     <use xlink:href="#mfa36309530" x="570.926329" y="168.266143" style="stroke: #ffffff; stroke-width: 0.48"/>
     <use xlink:href="#mfa36309530" x="573.224307" y="161.639497" style="stroke: #ffffff; stroke-width: 0.48"/>
     <use xlink:href="#mfa36309530" x="575.598883" y="159.532685" style="stroke: #ffffff; stroke-width: 0.48"/>
     <use xlink:href="#mfa36309530" x="577.896861" y="93.434741" style="stroke: #ffffff; stroke-width: 0.48"/>
     <use xlink:href="#mfa36309530" x="580.271438" y="95.631069" style="stroke: #ffffff; stroke-width: 0.48"/>
     <use xlink:href="#mfa36309530" x="582.646014" y="124.159842" style="stroke: #ffffff; stroke-width: 0.48"/>
     <use xlink:href="#mfa36309530" x="584.790793" y="124.371952" style="stroke: #ffffff; stroke-width: 0.48"/>
     <use xlink:href="#mfa36309530" x="587.16537" y="118.603416" style="stroke: #ffffff; stroke-width: 0.48"/>
     <use xlink:href="#mfa36309530" x="589.463348" y="117.416291" style="stroke: #ffffff; stroke-width: 0.48"/>
     <use xlink:href="#mfa36309530" x="591.837924" y="112.324634" style="stroke: #ffffff; stroke-width: 0.48"/>
     <use xlink:href="#mfa36309530" x="594.135902" y="164.624346" style="stroke: #ffffff; stroke-width: 0.48"/>
     <use xlink:href="#mfa36309530" x="596.510479" y="183.426106" style="stroke: #ffffff; stroke-width: 0.48"/>
     <use xlink:href="#mfa36309530" x="598.885055" y="166.723617" style="stroke: #ffffff; stroke-width: 0.48"/>
     <use xlink:href="#mfa36309530" x="601.183033" y="177.1849" style="stroke: #ffffff; stroke-width: 0.48"/>
     <use xlink:href="#mfa36309530" x="603.55761" y="168.936427" style="stroke: #ffffff; stroke-width: 0.48"/>
     <use xlink:href="#mfa36309530" x="605.855587" y="165.058978" style="stroke: #ffffff; stroke-width: 0.48"/>
     <use xlink:href="#mfa36309530" x="608.230164" y="142.362102" style="stroke: #ffffff; stroke-width: 0.48"/>
     <use xlink:href="#mfa36309530" x="610.604741" y="160.663016" style="stroke: #ffffff; stroke-width: 0.48"/>
     <use xlink:href="#mfa36309530" x="612.826119" y="151.532057" style="stroke: #ffffff; stroke-width: 0.48"/>
     <use xlink:href="#mfa36309530" x="615.200696" y="153.765835" style="stroke: #ffffff; stroke-width: 0.48"/>
     <use xlink:href="#mfa36309530" x="617.498673" y="180.237824" style="stroke: #ffffff; stroke-width: 0.48"/>
     <use xlink:href="#mfa36309530" x="619.87325" y="170.11356" style="stroke: #ffffff; stroke-width: 0.48"/>
     <use xlink:href="#mfa36309530" x="622.171227" y="132.090042" style="stroke: #ffffff; stroke-width: 0.48"/>
     <use xlink:href="#mfa36309530" x="624.545804" y="88.637296" style="stroke: #ffffff; stroke-width: 0.48"/>
     <use xlink:href="#mfa36309530" x="626.920381" y="150.450117" style="stroke: #ffffff; stroke-width: 0.48"/>
     <use xlink:href="#mfa36309530" x="629.218358" y="106.935816" style="stroke: #ffffff; stroke-width: 0.48"/>
     <use xlink:href="#mfa36309530" x="631.592935" y="120.486471" style="stroke: #ffffff; stroke-width: 0.48"/>
     <use xlink:href="#mfa36309530" x="633.890912" y="95.862711" style="stroke: #ffffff; stroke-width: 0.48"/>
     <use xlink:href="#mfa36309530" x="636.265489" y="93.983833" style="stroke: #ffffff; stroke-width: 0.48"/>
     <use xlink:href="#mfa36309530" x="638.640066" y="76.672301" style="stroke: #ffffff; stroke-width: 0.48"/>
     <use xlink:href="#mfa36309530" x="640.784845" y="111.456115" style="stroke: #ffffff; stroke-width: 0.48"/>
     <use xlink:href="#mfa36309530" x="643.159422" y="154.615285" style="stroke: #ffffff; stroke-width: 0.48"/>
     <use xlink:href="#mfa36309530" x="645.457399" y="166.871485" style="stroke: #ffffff; stroke-width: 0.48"/>
     <use xlink:href="#mfa36309530" x="647.831976" y="157.152153" style="stroke: #ffffff; stroke-width: 0.48"/>
     <use xlink:href="#mfa36309530" x="650.129953" y="144.089759" style="stroke: #ffffff; stroke-width: 0.48"/>
     <use xlink:href="#mfa36309530" x="652.50453" y="149.051631" style="stroke: #ffffff; stroke-width: 0.48"/>
     <use xlink:href="#mfa36309530" x="654.879107" y="119.924639" style="stroke: #ffffff; stroke-width: 0.48"/>
     <use xlink:href="#mfa36309530" x="657.177084" y="143.339467" style="stroke: #ffffff; stroke-width: 0.48"/>
     <use xlink:href="#mfa36309530" x="659.551661" y="163.066487" style="stroke: #ffffff; stroke-width: 0.48"/>
     <use xlink:href="#mfa36309530" x="661.849639" y="170.928869" style="stroke: #ffffff; stroke-width: 0.48"/>
     <use xlink:href="#mfa36309530" x="664.224215" y="124.796044" style="stroke: #ffffff; stroke-width: 0.48"/>
     <use xlink:href="#mfa36309530" x="666.598792" y="104.503963" style="stroke: #ffffff; stroke-width: 0.48"/>
     <use xlink:href="#mfa36309530" x="668.743571" y="146.350887" style="stroke: #ffffff; stroke-width: 0.48"/>
     <use xlink:href="#mfa36309530" x="671.118148" y="172.391143" style="stroke: #ffffff; stroke-width: 0.48"/>
     <use xlink:href="#mfa36309530" x="673.416125" y="225.01188" style="stroke: #ffffff; stroke-width: 0.48"/>
     <use xlink:href="#mfa36309530" x="675.790702" y="240.627251" style="stroke: #ffffff; stroke-width: 0.48"/>
     <use xlink:href="#mfa36309530" x="678.088679" y="202.538438" style="stroke: #ffffff; stroke-width: 0.48"/>
     <use xlink:href="#mfa36309530" x="680.463256" y="161.751619" style="stroke: #ffffff; stroke-width: 0.48"/>
     <use xlink:href="#mfa36309530" x="682.837833" y="132.623854" style="stroke: #ffffff; stroke-width: 0.48"/>
     <use xlink:href="#mfa36309530" x="685.13581" y="127.74267" style="stroke: #ffffff; stroke-width: 0.48"/>
     <use xlink:href="#mfa36309530" x="687.510387" y="154.14574" style="stroke: #ffffff; stroke-width: 0.48"/>
     <use xlink:href="#mfa36309530" x="689.808365" y="189.909841" style="stroke: #ffffff; stroke-width: 0.48"/>
     <use xlink:href="#mfa36309530" x="692.182941" y="230.654933" style="stroke: #ffffff; stroke-width: 0.48"/>
     <use xlink:href="#mfa36309530" x="694.557518" y="179.570706" style="stroke: #ffffff; stroke-width: 0.48"/>
     <use xlink:href="#mfa36309530" x="699.076874" y="224.365105" style="stroke: #ffffff; stroke-width: 0.48"/>
     <use xlink:href="#mfa36309530" x="701.374851" y="227.705036" style="stroke: #ffffff; stroke-width: 0.48"/>
     <use xlink:href="#mfa36309530" x="703.749428" y="307.757451" style="stroke: #ffffff; stroke-width: 0.48"/>
     <use xlink:href="#mfa36309530" x="706.047406" y="138.702938" style="stroke: #ffffff; stroke-width: 0.48"/>
     <use xlink:href="#mfa36309530" x="713.094536" y="216.695598" style="stroke: #ffffff; stroke-width: 0.48"/>
     <use xlink:href="#mfa36309530" x="717.767091" y="205.552413" style="stroke: #ffffff; stroke-width: 0.48"/>
     <use xlink:href="#mfa36309530" x="720.141667" y="228.33748" style="stroke: #ffffff; stroke-width: 0.48"/>
     <use xlink:href="#mfa36309530" x="722.516244" y="226.08836" style="stroke: #ffffff; stroke-width: 0.48"/>
     <use xlink:href="#mfa36309530" x="724.737622" y="219.103454" style="stroke: #ffffff; stroke-width: 0.48"/>
     <use xlink:href="#mfa36309530" x="727.112199" y="218.943403" style="stroke: #ffffff; stroke-width: 0.48"/>
     <use xlink:href="#mfa36309530" x="729.410177" y="198.256038" style="stroke: #ffffff; stroke-width: 0.48"/>
     <use xlink:href="#mfa36309530" x="731.784753" y="233.989251" style="stroke: #ffffff; stroke-width: 0.48"/>
     <use xlink:href="#mfa36309530" x="734.082731" y="252.840135" style="stroke: #ffffff; stroke-width: 0.48"/>
     <use xlink:href="#mfa36309530" x="741.129862" y="227.7135" style="stroke: #ffffff; stroke-width: 0.48"/>
     <use xlink:href="#mfa36309530" x="748.176993" y="245.754293" style="stroke: #ffffff; stroke-width: 0.48"/>
     <use xlink:href="#mfa36309530" x="750.55157" y="209.984441" style="stroke: #ffffff; stroke-width: 0.48"/>
     <use xlink:href="#mfa36309530" x="752.696348" y="230.596334" style="stroke: #ffffff; stroke-width: 0.48"/>
     <use xlink:href="#mfa36309530" x="755.070925" y="260.103253" style="stroke: #ffffff; stroke-width: 0.48"/>
     <use xlink:href="#mfa36309530" x="757.368903" y="263.540987" style="stroke: #ffffff; stroke-width: 0.48"/>
     <use xlink:href="#mfa36309530" x="759.743479" y="274.786916" style="stroke: #ffffff; stroke-width: 0.48"/>
     <use xlink:href="#mfa36309530" x="762.041457" y="266.664405" style="stroke: #ffffff; stroke-width: 0.48"/>
     <use xlink:href="#mfa36309530" x="764.416034" y="275.684808" style="stroke: #ffffff; stroke-width: 0.48"/>
     <use xlink:href="#mfa36309530" x="766.79061" y="248.53116" style="stroke: #ffffff; stroke-width: 0.48"/>
     <use xlink:href="#mfa36309530" x="769.088588" y="254.77421" style="stroke: #ffffff; stroke-width: 0.48"/>
     <use xlink:href="#mfa36309530" x="771.463165" y="258.819135" style="stroke: #ffffff; stroke-width: 0.48"/>
     <use xlink:href="#mfa36309530" x="773.761142" y="303.177515" style="stroke: #ffffff; stroke-width: 0.48"/>
     <use xlink:href="#mfa36309530" x="776.135719" y="307.8" style="stroke: #ffffff; stroke-width: 0.48"/>
     <use xlink:href="#mfa36309530" x="778.510296" y="293.801307" style="stroke: #ffffff; stroke-width: 0.48"/>
     <use xlink:href="#mfa36309530" x="780.655075" y="274.641622" style="stroke: #ffffff; stroke-width: 0.48"/>
     <use xlink:href="#mfa36309530" x="783.029651" y="198.503535" style="stroke: #ffffff; stroke-width: 0.48"/>
     <use xlink:href="#mfa36309530" x="785.327629" y="257.507101" style="stroke: #ffffff; stroke-width: 0.48"/>
     <use xlink:href="#mfa36309530" x="787.702206" y="246.088102" style="stroke: #ffffff; stroke-width: 0.48"/>
     <use xlink:href="#mfa36309530" x="790.000183" y="204.815409" style="stroke: #ffffff; stroke-width: 0.48"/>
     <use xlink:href="#mfa36309530" x="792.37476" y="215.270473" style="stroke: #ffffff; stroke-width: 0.48"/>
     <use xlink:href="#mfa36309530" x="794.749337" y="232.342599" style="stroke: #ffffff; stroke-width: 0.48"/>
     <use xlink:href="#mfa36309530" x="797.047314" y="222.048904" style="stroke: #ffffff; stroke-width: 0.48"/>
     <use xlink:href="#mfa36309530" x="799.421891" y="221.433918" style="stroke: #ffffff; stroke-width: 0.48"/>
     <use xlink:href="#mfa36309530" x="801.719868" y="204.819096" style="stroke: #ffffff; stroke-width: 0.48"/>
     <use xlink:href="#mfa36309530" x="804.094445" y="190.083602" style="stroke: #ffffff; stroke-width: 0.48"/>
     <use xlink:href="#mfa36309530" x="806.469022" y="205.439182" style="stroke: #ffffff; stroke-width: 0.48"/>
     <use xlink:href="#mfa36309530" x="808.613801" y="187.694946" style="stroke: #ffffff; stroke-width: 0.48"/>
     <use xlink:href="#mfa36309530" x="810.988377" y="219.56346" style="stroke: #ffffff; stroke-width: 0.48"/>
     <use xlink:href="#mfa36309530" x="813.286355" y="228.002674" style="stroke: #ffffff; stroke-width: 0.48"/>
     <use xlink:href="#mfa36309530" x="815.660932" y="250.512016" style="stroke: #ffffff; stroke-width: 0.48"/>
     <use xlink:href="#mfa36309530" x="817.958909" y="272.750657" style="stroke: #ffffff; stroke-width: 0.48"/>
     <use xlink:href="#mfa36309530" x="820.333486" y="259.602244" style="stroke: #ffffff; stroke-width: 0.48"/>
     <use xlink:href="#mfa36309530" x="822.708063" y="239.600103" style="stroke: #ffffff; stroke-width: 0.48"/>
     <use xlink:href="#mfa36309530" x="825.00604" y="235.841038" style="stroke: #ffffff; stroke-width: 0.48"/>
     <use xlink:href="#mfa36309530" x="827.380617" y="260.42043" style="stroke: #ffffff; stroke-width: 0.48"/>
     <use xlink:href="#mfa36309530" x="829.678594" y="254.314443" style="stroke: #ffffff; stroke-width: 0.48"/>
     <use xlink:href="#mfa36309530" x="832.053171" y="226.725748" style="stroke: #ffffff; stroke-width: 0.48"/>
     <use xlink:href="#mfa36309530" x="834.427748" y="211.520034" style="stroke: #ffffff; stroke-width: 0.48"/>
     <use xlink:href="#mfa36309530" x="836.649126" y="195.953051" style="stroke: #ffffff; stroke-width: 0.48"/>
     <use xlink:href="#mfa36309530" x="839.023703" y="189.032968" style="stroke: #ffffff; stroke-width: 0.48"/>
     <use xlink:href="#mfa36309530" x="841.32168" y="145.124396" style="stroke: #ffffff; stroke-width: 0.48"/>
     <use xlink:href="#mfa36309530" x="843.696257" y="169.044247" style="stroke: #ffffff; stroke-width: 0.48"/>
     <use xlink:href="#mfa36309530" x="845.994234" y="226.883388" style="stroke: #ffffff; stroke-width: 0.48"/>
     <use xlink:href="#mfa36309530" x="848.368811" y="222.200202" style="stroke: #ffffff; stroke-width: 0.48"/>
     <use xlink:href="#mfa36309530" x="850.743388" y="228.070206" style="stroke: #ffffff; stroke-width: 0.48"/>
     <use xlink:href="#mfa36309530" x="853.041365" y="224.532115" style="stroke: #ffffff; stroke-width: 0.48"/>
     <use xlink:href="#mfa36309530" x="855.415942" y="198.867459" style="stroke: #ffffff; stroke-width: 0.48"/>
     <use xlink:href="#mfa36309530" x="857.71392" y="141.016604" style="stroke: #ffffff; stroke-width: 0.48"/>
     <use xlink:href="#mfa36309530" x="860.088496" y="165.295499" style="stroke: #ffffff; stroke-width: 0.48"/>
     <use xlink:href="#mfa36309530" x="862.463073" y="195.142346" style="stroke: #ffffff; stroke-width: 0.48"/>
     <use xlink:href="#mfa36309530" x="864.607852" y="145.237882" style="stroke: #ffffff; stroke-width: 0.48"/>
     <use xlink:href="#mfa36309530" x="866.982429" y="87.482649" style="stroke: #ffffff; stroke-width: 0.48"/>
     <use xlink:href="#mfa36309530" x="869.280406" y="136.735627" style="stroke: #ffffff; stroke-width: 0.48"/>
     <use xlink:href="#mfa36309530" x="871.654983" y="191.595056" style="stroke: #ffffff; stroke-width: 0.48"/>
     <use xlink:href="#mfa36309530" x="881.000092" y="232.001872" style="stroke: #ffffff; stroke-width: 0.48"/>
     <use xlink:href="#mfa36309530" x="883.374668" y="229.787704" style="stroke: #ffffff; stroke-width: 0.48"/>
     <use xlink:href="#mfa36309530" x="885.672646" y="244.289553" style="stroke: #ffffff; stroke-width: 0.48"/>
     <use xlink:href="#mfa36309530" x="888.047222" y="197.691848" style="stroke: #ffffff; stroke-width: 0.48"/>
     <use xlink:href="#mfa36309530" x="890.421799" y="192.075541" style="stroke: #ffffff; stroke-width: 0.48"/>
     <use xlink:href="#mfa36309530" x="892.566578" y="155.640049" style="stroke: #ffffff; stroke-width: 0.48"/>
     <use xlink:href="#mfa36309530" x="894.941155" y="179.476883" style="stroke: #ffffff; stroke-width: 0.48"/>
     <use xlink:href="#mfa36309530" x="897.239132" y="210.581744" style="stroke: #ffffff; stroke-width: 0.48"/>
     <use xlink:href="#mfa36309530" x="899.613709" y="105.978389" style="stroke: #ffffff; stroke-width: 0.48"/>
     <use xlink:href="#mfa36309530" x="901.911687" y="215.047322" style="stroke: #ffffff; stroke-width: 0.48"/>
     <use xlink:href="#mfa36309530" x="904.286263" y="247.778786" style="stroke: #ffffff; stroke-width: 0.48"/>
     <use xlink:href="#mfa36309530" x="906.66084" y="272.803869" style="stroke: #ffffff; stroke-width: 0.48"/>
     <use xlink:href="#mfa36309530" x="908.958818" y="266.94608" style="stroke: #ffffff; stroke-width: 0.48"/>
     <use xlink:href="#mfa36309530" x="911.333394" y="261.057868" style="stroke: #ffffff; stroke-width: 0.48"/>
     <use xlink:href="#mfa36309530" x="913.631372" y="233.950776" style="stroke: #ffffff; stroke-width: 0.48"/>
     <use xlink:href="#mfa36309530" x="916.005949" y="217.191533" style="stroke: #ffffff; stroke-width: 0.48"/>
     <use xlink:href="#mfa36309530" x="918.380525" y="227.81153" style="stroke: #ffffff; stroke-width: 0.48"/>
     <use xlink:href="#mfa36309530" x="920.525304" y="245.612471" style="stroke: #ffffff; stroke-width: 0.48"/>
     <use xlink:href="#mfa36309530" x="922.899881" y="244.614361" style="stroke: #ffffff; stroke-width: 0.48"/>
     <use xlink:href="#mfa36309530" x="925.197859" y="126.407805" style="stroke: #ffffff; stroke-width: 0.48"/>
     <use xlink:href="#mfa36309530" x="927.572435" y="197.810915" style="stroke: #ffffff; stroke-width: 0.48"/>
     <use xlink:href="#mfa36309530" x="929.870413" y="252.041953" style="stroke: #ffffff; stroke-width: 0.48"/>
     <use xlink:href="#mfa36309530" x="932.244989" y="305.115797" style="stroke: #ffffff; stroke-width: 0.48"/>
     <use xlink:href="#mfa36309530" x="934.619566" y="297.227294" style="stroke: #ffffff; stroke-width: 0.48"/>
     <use xlink:href="#mfa36309530" x="936.917544" y="278.889663" style="stroke: #ffffff; stroke-width: 0.48"/>
     <use xlink:href="#mfa36309530" x="939.29212" y="224.744809" style="stroke: #ffffff; stroke-width: 0.48"/>
     <use xlink:href="#mfa36309530" x="941.590098" y="250.155434" style="stroke: #ffffff; stroke-width: 0.48"/>
     <use xlink:href="#mfa36309530" x="943.964675" y="259.563055" style="stroke: #ffffff; stroke-width: 0.48"/>
     <use xlink:href="#mfa36309530" x="946.339251" y="250.259488" style="stroke: #ffffff; stroke-width: 0.48"/>
     <use xlink:href="#mfa36309530" x="948.56063" y="261.294597" style="stroke: #ffffff; stroke-width: 0.48"/>
     <use xlink:href="#mfa36309530" x="950.935206" y="273.609738" style="stroke: #ffffff; stroke-width: 0.48"/>
     <use xlink:href="#mfa36309530" x="953.233184" y="264.165932" style="stroke: #ffffff; stroke-width: 0.48"/>
     <use xlink:href="#mfa36309530" x="955.607761" y="217.685358" style="stroke: #ffffff; stroke-width: 0.48"/>
     <use xlink:href="#mfa36309530" x="957.905738" y="168.560014" style="stroke: #ffffff; stroke-width: 0.48"/>
     <use xlink:href="#mfa36309530" x="960.280315" y="190.76122" style="stroke: #ffffff; stroke-width: 0.48"/>
     <use xlink:href="#mfa36309530" x="962.654892" y="243.84205" style="stroke: #ffffff; stroke-width: 0.48"/>
     <use xlink:href="#mfa36309530" x="964.952869" y="269.395094" style="stroke: #ffffff; stroke-width: 0.48"/>
     <use xlink:href="#mfa36309530" x="967.327446" y="248.292595" style="stroke: #ffffff; stroke-width: 0.48"/>
     <use xlink:href="#mfa36309530" x="969.625423" y="185.097938" style="stroke: #ffffff; stroke-width: 0.48"/>
     <use xlink:href="#mfa36309530" x="972" y="190.950833" style="stroke: #ffffff; stroke-width: 0.48"/>
    </g>
   </g>
  </g>
 </g>
 <defs>
  <clipPath id="p3fd95431a3">
   <rect x="135" y="43.2" width="837" height="277.2"/>
  </clipPath>
 </defs>
</svg>
