<?xml version="1.0" encoding="utf-8" standalone="no"?>
<!DOCTYPE svg PUBLIC "-//W3C//DTD SVG 1.1//EN"
  "http://www.w3.org/Graphics/SVG/1.1/DTD/svg11.dtd">
<svg xmlns:xlink="http://www.w3.org/1999/xlink" width="1080pt" height="360pt" viewBox="0 0 1080 360" xmlns="http://www.w3.org/2000/svg" version="1.1">
 <metadata>
  <rdf:RDF xmlns:dc="http://purl.org/dc/elements/1.1/" xmlns:cc="http://creativecommons.org/ns#" xmlns:rdf="http://www.w3.org/1999/02/22-rdf-syntax-ns#">
   <cc:Work>
    <dc:type rdf:resource="http://purl.org/dc/dcmitype/StillImage"/>
    <dc:date>2024-01-23T18:50:24.777393</dc:date>
    <dc:format>image/svg+xml</dc:format>
    <dc:creator>
     <cc:Agent>
      <dc:title>Matplotlib v3.8.2, https://matplotlib.org/</dc:title>
     </cc:Agent>
    </dc:creator>
   </cc:Work>
  </rdf:RDF>
 </metadata>
 <defs>
  <style type="text/css">*{stroke-linejoin: round; stroke-linecap: butt}</style>
 </defs>
 <g id="figure_1">
  <g id="patch_1">
   <path d="M 0 360 
L 1080 360 
L 1080 0 
L 0 0 
z
" style="fill: #ffffff"/>
  </g>
  <g id="axes_1">
   <g id="patch_2">
    <path d="M 135 320.4 
L 972 320.4 
L 972 43.2 
L 135 43.2 
z
" style="fill: #ffffff"/>
   </g>
   <g id="PolyCollection_1"/>
   <g id="matplotlib.axis_1">
    <g id="xtick_1">
     <g id="line2d_1">
      <defs>
       <path id="m758b752818" d="M 0 0 
L 0 3.5 
" style="stroke: #000000; stroke-width: 0.8"/>
      </defs>
      <g>
       <use xlink:href="#m758b752818" x="160.660749" y="320.4" style="stroke: #000000; stroke-width: 0.8"/>
      </g>
     </g>
     <g id="text_1">
      <!-- 1992 -->
      <g transform="translate(147.935749 334.998438) scale(0.1 -0.1)">
       <defs>
        <path id="DejaVuSans-31" d="M 794 531 
L 1825 531 
L 1825 4091 
L 703 3866 
L 703 4441 
L 1819 4666 
L 2450 4666 
L 2450 531 
L 3481 531 
L 3481 0 
L 794 0 
L 794 531 
z
" transform="scale(0.015625)"/>
        <path id="DejaVuSans-39" d="M 703 97 
L 703 672 
Q 941 559 1184 500 
Q 1428 441 1663 441 
Q 2288 441 2617 861 
Q 2947 1281 2994 2138 
Q 2813 1869 2534 1725 
Q 2256 1581 1919 1581 
Q 1219 1581 811 2004 
Q 403 2428 403 3163 
Q 403 3881 828 4315 
Q 1253 4750 1959 4750 
Q 2769 4750 3195 4129 
Q 3622 3509 3622 2328 
Q 3622 1225 3098 567 
Q 2575 -91 1691 -91 
Q 1453 -91 1209 -44 
Q 966 3 703 97 
z
M 1959 2075 
Q 2384 2075 2632 2365 
Q 2881 2656 2881 3163 
Q 2881 3666 2632 3958 
Q 2384 4250 1959 4250 
Q 1534 4250 1286 3958 
Q 1038 3666 1038 3163 
Q 1038 2656 1286 2365 
Q 1534 2075 1959 2075 
z
" transform="scale(0.015625)"/>
        <path id="DejaVuSans-32" d="M 1228 531 
L 3431 531 
L 3431 0 
L 469 0 
L 469 531 
Q 828 903 1448 1529 
Q 2069 2156 2228 2338 
Q 2531 2678 2651 2914 
Q 2772 3150 2772 3378 
Q 2772 3750 2511 3984 
Q 2250 4219 1831 4219 
Q 1534 4219 1204 4116 
Q 875 4013 500 3803 
L 500 4441 
Q 881 4594 1212 4672 
Q 1544 4750 1819 4750 
Q 2544 4750 2975 4387 
Q 3406 4025 3406 3419 
Q 3406 3131 3298 2873 
Q 3191 2616 2906 2266 
Q 2828 2175 2409 1742 
Q 1991 1309 1228 531 
z
" transform="scale(0.015625)"/>
       </defs>
       <use xlink:href="#DejaVuSans-31"/>
       <use xlink:href="#DejaVuSans-39" x="63.623047"/>
       <use xlink:href="#DejaVuSans-39" x="127.246094"/>
       <use xlink:href="#DejaVuSans-32" x="190.869141"/>
      </g>
     </g>
    </g>
    <g id="xtick_2">
     <g id="line2d_2">
      <g>
       <use xlink:href="#m758b752818" x="272.572252" y="320.4" style="stroke: #000000; stroke-width: 0.8"/>
      </g>
     </g>
     <g id="text_2">
      <!-- 1996 -->
      <g transform="translate(259.847252 334.998438) scale(0.1 -0.1)">
       <defs>
        <path id="DejaVuSans-36" d="M 2113 2584 
Q 1688 2584 1439 2293 
Q 1191 2003 1191 1497 
Q 1191 994 1439 701 
Q 1688 409 2113 409 
Q 2538 409 2786 701 
Q 3034 994 3034 1497 
Q 3034 2003 2786 2293 
Q 2538 2584 2113 2584 
z
M 3366 4563 
L 3366 3988 
Q 3128 4100 2886 4159 
Q 2644 4219 2406 4219 
Q 1781 4219 1451 3797 
Q 1122 3375 1075 2522 
Q 1259 2794 1537 2939 
Q 1816 3084 2150 3084 
Q 2853 3084 3261 2657 
Q 3669 2231 3669 1497 
Q 3669 778 3244 343 
Q 2819 -91 2113 -91 
Q 1303 -91 875 529 
Q 447 1150 447 2328 
Q 447 3434 972 4092 
Q 1497 4750 2381 4750 
Q 2619 4750 2861 4703 
Q 3103 4656 3366 4563 
z
" transform="scale(0.015625)"/>
       </defs>
       <use xlink:href="#DejaVuSans-31"/>
       <use xlink:href="#DejaVuSans-39" x="63.623047"/>
       <use xlink:href="#DejaVuSans-39" x="127.246094"/>
       <use xlink:href="#DejaVuSans-36" x="190.869141"/>
      </g>
     </g>
    </g>
    <g id="xtick_3">
     <g id="line2d_3">
      <g>
       <use xlink:href="#m758b752818" x="384.483756" y="320.4" style="stroke: #000000; stroke-width: 0.8"/>
      </g>
     </g>
     <g id="text_3">
      <!-- 2000 -->
      <g transform="translate(371.758756 334.998438) scale(0.1 -0.1)">
       <defs>
        <path id="DejaVuSans-30" d="M 2034 4250 
Q 1547 4250 1301 3770 
Q 1056 3291 1056 2328 
Q 1056 1369 1301 889 
Q 1547 409 2034 409 
Q 2525 409 2770 889 
Q 3016 1369 3016 2328 
Q 3016 3291 2770 3770 
Q 2525 4250 2034 4250 
z
M 2034 4750 
Q 2819 4750 3233 4129 
Q 3647 3509 3647 2328 
Q 3647 1150 3233 529 
Q 2819 -91 2034 -91 
Q 1250 -91 836 529 
Q 422 1150 422 2328 
Q 422 3509 836 4129 
Q 1250 4750 2034 4750 
z
" transform="scale(0.015625)"/>
       </defs>
       <use xlink:href="#DejaVuSans-32"/>
       <use xlink:href="#DejaVuSans-30" x="63.623047"/>
       <use xlink:href="#DejaVuSans-30" x="127.246094"/>
       <use xlink:href="#DejaVuSans-30" x="190.869141"/>
      </g>
     </g>
    </g>
    <g id="xtick_4">
     <g id="line2d_4">
      <g>
       <use xlink:href="#m758b752818" x="496.395259" y="320.4" style="stroke: #000000; stroke-width: 0.8"/>
      </g>
     </g>
     <g id="text_4">
      <!-- 2004 -->
      <g transform="translate(483.670259 334.998438) scale(0.1 -0.1)">
       <defs>
        <path id="DejaVuSans-34" d="M 2419 4116 
L 825 1625 
L 2419 1625 
L 2419 4116 
z
M 2253 4666 
L 3047 4666 
L 3047 1625 
L 3713 1625 
L 3713 1100 
L 3047 1100 
L 3047 0 
L 2419 0 
L 2419 1100 
L 313 1100 
L 313 1709 
L 2253 4666 
z
" transform="scale(0.015625)"/>
       </defs>
       <use xlink:href="#DejaVuSans-32"/>
       <use xlink:href="#DejaVuSans-30" x="63.623047"/>
       <use xlink:href="#DejaVuSans-30" x="127.246094"/>
       <use xlink:href="#DejaVuSans-34" x="190.869141"/>
      </g>
     </g>
    </g>
    <g id="xtick_5">
     <g id="line2d_5">
      <g>
       <use xlink:href="#m758b752818" x="608.306763" y="320.4" style="stroke: #000000; stroke-width: 0.8"/>
      </g>
     </g>
     <g id="text_5">
      <!-- 2008 -->
      <g transform="translate(595.581763 334.998438) scale(0.1 -0.1)">
       <defs>
        <path id="DejaVuSans-38" d="M 2034 2216 
Q 1584 2216 1326 1975 
Q 1069 1734 1069 1313 
Q 1069 891 1326 650 
Q 1584 409 2034 409 
Q 2484 409 2743 651 
Q 3003 894 3003 1313 
Q 3003 1734 2745 1975 
Q 2488 2216 2034 2216 
z
M 1403 2484 
Q 997 2584 770 2862 
Q 544 3141 544 3541 
Q 544 4100 942 4425 
Q 1341 4750 2034 4750 
Q 2731 4750 3128 4425 
Q 3525 4100 3525 3541 
Q 3525 3141 3298 2862 
Q 3072 2584 2669 2484 
Q 3125 2378 3379 2068 
Q 3634 1759 3634 1313 
Q 3634 634 3220 271 
Q 2806 -91 2034 -91 
Q 1263 -91 848 271 
Q 434 634 434 1313 
Q 434 1759 690 2068 
Q 947 2378 1403 2484 
z
M 1172 3481 
Q 1172 3119 1398 2916 
Q 1625 2713 2034 2713 
Q 2441 2713 2670 2916 
Q 2900 3119 2900 3481 
Q 2900 3844 2670 4047 
Q 2441 4250 2034 4250 
Q 1625 4250 1398 4047 
Q 1172 3844 1172 3481 
z
" transform="scale(0.015625)"/>
       </defs>
       <use xlink:href="#DejaVuSans-32"/>
       <use xlink:href="#DejaVuSans-30" x="63.623047"/>
       <use xlink:href="#DejaVuSans-30" x="127.246094"/>
       <use xlink:href="#DejaVuSans-38" x="190.869141"/>
      </g>
     </g>
    </g>
    <g id="xtick_6">
     <g id="line2d_6">
      <g>
       <use xlink:href="#m758b752818" x="720.218267" y="320.4" style="stroke: #000000; stroke-width: 0.8"/>
      </g>
     </g>
     <g id="text_6">
      <!-- 2012 -->
      <g transform="translate(707.493267 334.998438) scale(0.1 -0.1)">
       <use xlink:href="#DejaVuSans-32"/>
       <use xlink:href="#DejaVuSans-30" x="63.623047"/>
       <use xlink:href="#DejaVuSans-31" x="127.246094"/>
       <use xlink:href="#DejaVuSans-32" x="190.869141"/>
      </g>
     </g>
    </g>
    <g id="xtick_7">
     <g id="line2d_7">
      <g>
       <use xlink:href="#m758b752818" x="832.12977" y="320.4" style="stroke: #000000; stroke-width: 0.8"/>
      </g>
     </g>
     <g id="text_7">
      <!-- 2016 -->
      <g transform="translate(819.40477 334.998438) scale(0.1 -0.1)">
       <use xlink:href="#DejaVuSans-32"/>
       <use xlink:href="#DejaVuSans-30" x="63.623047"/>
       <use xlink:href="#DejaVuSans-31" x="127.246094"/>
       <use xlink:href="#DejaVuSans-36" x="190.869141"/>
      </g>
     </g>
    </g>
    <g id="xtick_8">
     <g id="line2d_8">
      <g>
       <use xlink:href="#m758b752818" x="944.041274" y="320.4" style="stroke: #000000; stroke-width: 0.8"/>
      </g>
     </g>
     <g id="text_8">
      <!-- 2020 -->
      <g transform="translate(931.316274 334.998438) scale(0.1 -0.1)">
       <use xlink:href="#DejaVuSans-32"/>
       <use xlink:href="#DejaVuSans-30" x="63.623047"/>
       <use xlink:href="#DejaVuSans-32" x="127.246094"/>
       <use xlink:href="#DejaVuSans-30" x="190.869141"/>
      </g>
     </g>
    </g>
   </g>
   <g id="matplotlib.axis_2">
    <g id="ytick_1">
     <g id="line2d_9">
      <defs>
       <path id="me941e768c3" d="M 0 0 
L -3.5 0 
" style="stroke: #000000; stroke-width: 0.8"/>
      </defs>
      <g>
       <use xlink:href="#me941e768c3" x="135" y="308.996555" style="stroke: #000000; stroke-width: 0.8"/>
      </g>
     </g>
     <g id="text_9">
      <!-- −2.0 -->
      <g transform="translate(103.717187 312.795773) scale(0.1 -0.1)">
       <defs>
        <path id="DejaVuSans-2212" d="M 678 2272 
L 4684 2272 
L 4684 1741 
L 678 1741 
L 678 2272 
z
" transform="scale(0.015625)"/>
        <path id="DejaVuSans-2e" d="M 684 794 
L 1344 794 
L 1344 0 
L 684 0 
L 684 794 
z
" transform="scale(0.015625)"/>
       </defs>
       <use xlink:href="#DejaVuSans-2212"/>
       <use xlink:href="#DejaVuSans-32" x="83.789062"/>
       <use xlink:href="#DejaVuSans-2e" x="147.412109"/>
       <use xlink:href="#DejaVuSans-30" x="179.199219"/>
      </g>
     </g>
    </g>
    <g id="ytick_2">
     <g id="line2d_10">
      <g>
       <use xlink:href="#me941e768c3" x="135" y="277.197416" style="stroke: #000000; stroke-width: 0.8"/>
      </g>
     </g>
     <g id="text_10">
      <!-- −1.5 -->
      <g transform="translate(103.717187 280.996635) scale(0.1 -0.1)">
       <defs>
        <path id="DejaVuSans-35" d="M 691 4666 
L 3169 4666 
L 3169 4134 
L 1269 4134 
L 1269 2991 
Q 1406 3038 1543 3061 
Q 1681 3084 1819 3084 
Q 2600 3084 3056 2656 
Q 3513 2228 3513 1497 
Q 3513 744 3044 326 
Q 2575 -91 1722 -91 
Q 1428 -91 1123 -41 
Q 819 9 494 109 
L 494 744 
Q 775 591 1075 516 
Q 1375 441 1709 441 
Q 2250 441 2565 725 
Q 2881 1009 2881 1497 
Q 2881 1984 2565 2268 
Q 2250 2553 1709 2553 
Q 1456 2553 1204 2497 
Q 953 2441 691 2322 
L 691 4666 
z
" transform="scale(0.015625)"/>
       </defs>
       <use xlink:href="#DejaVuSans-2212"/>
       <use xlink:href="#DejaVuSans-31" x="83.789062"/>
       <use xlink:href="#DejaVuSans-2e" x="147.412109"/>
       <use xlink:href="#DejaVuSans-35" x="179.199219"/>
      </g>
     </g>
    </g>
    <g id="ytick_3">
     <g id="line2d_11">
      <g>
       <use xlink:href="#me941e768c3" x="135" y="245.398277" style="stroke: #000000; stroke-width: 0.8"/>
      </g>
     </g>
     <g id="text_11">
      <!-- −1.0 -->
      <g transform="translate(103.717187 249.197496) scale(0.1 -0.1)">
       <use xlink:href="#DejaVuSans-2212"/>
       <use xlink:href="#DejaVuSans-31" x="83.789062"/>
       <use xlink:href="#DejaVuSans-2e" x="147.412109"/>
       <use xlink:href="#DejaVuSans-30" x="179.199219"/>
      </g>
     </g>
    </g>
    <g id="ytick_4">
     <g id="line2d_12">
      <g>
       <use xlink:href="#me941e768c3" x="135" y="213.599139" style="stroke: #000000; stroke-width: 0.8"/>
      </g>
     </g>
     <g id="text_12">
      <!-- −0.5 -->
      <g transform="translate(103.717187 217.398357) scale(0.1 -0.1)">
       <use xlink:href="#DejaVuSans-2212"/>
       <use xlink:href="#DejaVuSans-30" x="83.789062"/>
       <use xlink:href="#DejaVuSans-2e" x="147.412109"/>
       <use xlink:href="#DejaVuSans-35" x="179.199219"/>
      </g>
     </g>
    </g>
    <g id="ytick_5">
     <g id="line2d_13">
      <g>
       <use xlink:href="#me941e768c3" x="135" y="181.8" style="stroke: #000000; stroke-width: 0.8"/>
      </g>
     </g>
     <g id="text_13">
      <!-- 0.0 -->
      <g transform="translate(112.096875 185.599219) scale(0.1 -0.1)">
       <use xlink:href="#DejaVuSans-30"/>
       <use xlink:href="#DejaVuSans-2e" x="63.623047"/>
       <use xlink:href="#DejaVuSans-30" x="95.410156"/>
      </g>
     </g>
    </g>
    <g id="ytick_6">
     <g id="line2d_14">
      <g>
       <use xlink:href="#me941e768c3" x="135" y="150.000861" style="stroke: #000000; stroke-width: 0.8"/>
      </g>
     </g>
     <g id="text_14">
      <!-- 0.5 -->
      <g transform="translate(112.096875 153.80008) scale(0.1 -0.1)">
       <use xlink:href="#DejaVuSans-30"/>
       <use xlink:href="#DejaVuSans-2e" x="63.623047"/>
       <use xlink:href="#DejaVuSans-35" x="95.410156"/>
      </g>
     </g>
    </g>
    <g id="ytick_7">
     <g id="line2d_15">
      <g>
       <use xlink:href="#me941e768c3" x="135" y="118.201723" style="stroke: #000000; stroke-width: 0.8"/>
      </g>
     </g>
     <g id="text_15">
      <!-- 1.0 -->
      <g transform="translate(112.096875 122.000941) scale(0.1 -0.1)">
       <use xlink:href="#DejaVuSans-31"/>
       <use xlink:href="#DejaVuSans-2e" x="63.623047"/>
       <use xlink:href="#DejaVuSans-30" x="95.410156"/>
      </g>
     </g>
    </g>
    <g id="ytick_8">
     <g id="line2d_16">
      <g>
       <use xlink:href="#me941e768c3" x="135" y="86.402584" style="stroke: #000000; stroke-width: 0.8"/>
      </g>
     </g>
     <g id="text_16">
      <!-- 1.5 -->
      <g transform="translate(112.096875 90.201803) scale(0.1 -0.1)">
       <use xlink:href="#DejaVuSans-31"/>
       <use xlink:href="#DejaVuSans-2e" x="63.623047"/>
       <use xlink:href="#DejaVuSans-35" x="95.410156"/>
      </g>
     </g>
    </g>
    <g id="ytick_9">
     <g id="line2d_17">
      <g>
       <use xlink:href="#me941e768c3" x="135" y="54.603445" style="stroke: #000000; stroke-width: 0.8"/>
      </g>
     </g>
     <g id="text_17">
      <!-- 2.0 -->
      <g transform="translate(112.096875 58.402664) scale(0.1 -0.1)">
       <use xlink:href="#DejaVuSans-32"/>
       <use xlink:href="#DejaVuSans-2e" x="63.623047"/>
       <use xlink:href="#DejaVuSans-30" x="95.410156"/>
      </g>
     </g>
    </g>
    <g id="text_18">
     <!-- SGI -->
     <g transform="translate(97.6375 190.323437) rotate(-90) scale(0.1 -0.1)">
      <defs>
       <path id="DejaVuSans-53" d="M 3425 4513 
L 3425 3897 
Q 3066 4069 2747 4153 
Q 2428 4238 2131 4238 
Q 1616 4238 1336 4038 
Q 1056 3838 1056 3469 
Q 1056 3159 1242 3001 
Q 1428 2844 1947 2747 
L 2328 2669 
Q 3034 2534 3370 2195 
Q 3706 1856 3706 1288 
Q 3706 609 3251 259 
Q 2797 -91 1919 -91 
Q 1588 -91 1214 -16 
Q 841 59 441 206 
L 441 856 
Q 825 641 1194 531 
Q 1563 422 1919 422 
Q 2459 422 2753 634 
Q 3047 847 3047 1241 
Q 3047 1584 2836 1778 
Q 2625 1972 2144 2069 
L 1759 2144 
Q 1053 2284 737 2584 
Q 422 2884 422 3419 
Q 422 4038 858 4394 
Q 1294 4750 2059 4750 
Q 2388 4750 2728 4690 
Q 3069 4631 3425 4513 
z
" transform="scale(0.015625)"/>
       <path id="DejaVuSans-47" d="M 3809 666 
L 3809 1919 
L 2778 1919 
L 2778 2438 
L 4434 2438 
L 4434 434 
Q 4069 175 3628 42 
Q 3188 -91 2688 -91 
Q 1594 -91 976 548 
Q 359 1188 359 2328 
Q 359 3472 976 4111 
Q 1594 4750 2688 4750 
Q 3144 4750 3555 4637 
Q 3966 4525 4313 4306 
L 4313 3634 
Q 3963 3931 3569 4081 
Q 3175 4231 2741 4231 
Q 1884 4231 1454 3753 
Q 1025 3275 1025 2328 
Q 1025 1384 1454 906 
Q 1884 428 2741 428 
Q 3075 428 3337 486 
Q 3600 544 3809 666 
z
" transform="scale(0.015625)"/>
       <path id="DejaVuSans-49" d="M 628 4666 
L 1259 4666 
L 1259 0 
L 628 0 
L 628 4666 
z
" transform="scale(0.015625)"/>
      </defs>
      <use xlink:href="#DejaVuSans-53"/>
      <use xlink:href="#DejaVuSans-47" x="63.476562"/>
      <use xlink:href="#DejaVuSans-49" x="140.966797"/>
     </g>
    </g>
   </g>
   <g id="line2d_18">
    <path d="M 137.144779 78.852757 
L 144.19191 89.792492 
L 158.209573 101.258672 
L 165.180104 100.664982 
L 186.244898 83.189911 
L 195.513407 74.601273 
L 200.185961 108.933788 
L 214.203624 130.382372 
L 242.16235 177.849776 
L 249.056283 188.787599 
L 274.87023 203.80503 
L 281.764162 231.631528 
L 295.858424 175.873713 
L 305.050334 211.876482 
L 309.722888 184.658761 
L 323.81715 205.055478 
L 330.864281 197.97758 
L 337.681614 203.61386 
L 344.728745 187.190722 
L 358.823007 155.911343 
L 365.64034 144.448535 
L 379.734602 150.205091 
L 386.781733 152.151398 
L 410.067905 174.514021 
L 428.681523 198.929279 
L 435.728654 180.145127 
L 442.775785 183.07788 
L 449.593118 202.763668 
L 470.734511 175.154436 
L 477.551844 169.798964 
L 491.646106 307.8 
L 498.693237 145.072903 
L 505.587169 219.52379 
L 512.6343 128.739271 
L 526.728562 78.663353 
L 533.545895 117.011195 
L 547.640157 55.8 
L 554.687288 87.106411 
L 561.504622 56.241405 
L 566.177176 109.555229 
L 575.598883 106.611663 
L 582.646014 132.665681 
L 587.16537 147.162604 
L 603.55761 141.277959 
L 610.604741 145.072903 
L 617.498673 133.018855 
L 619.87325 175.629591 
L 622.171227 165.54927 
L 626.920381 156.118804 
L 629.218358 106.673977 
L 631.592935 120.277371 
L 636.265489 118.140756 
L 638.640066 121.713583 
L 640.784845 130.812061 
L 643.159422 133.688564 
L 645.457399 92.052466 
L 647.831976 151.379134 
L 650.129953 253.533617 
L 659.551661 166.496077 
L 661.849639 181.123864 
L 664.224215 163.810383 
L 666.598792 168.191613 
L 668.743571 162.709469 
L 671.118148 172.566793 
L 673.416125 158.872689 
L 675.790702 200.115761 
L 678.088679 157.696325 
L 687.510387 189.392195 
L 689.808365 192.904363 
L 692.182941 181.304975 
L 694.557518 188.856458 
L 696.702297 210.500661 
L 699.076874 196.009493 
L 703.749428 221.002479 
L 715.469113 243.322629 
L 722.516244 237.978004 
L 727.112199 229.824132 
L 729.410177 255.458049 
L 731.784753 245.585534 
L 738.831884 256.327113 
L 741.129862 201.991003 
L 743.504439 275.00428 
L 748.176993 252.325449 
L 750.55157 267.02614 
L 752.696348 260.488034 
L 755.070925 249.793245 
L 757.368903 280.311442 
L 769.088588 265.124845 
L 771.463165 256.837625 
L 773.761142 257.071624 
L 776.135719 271.947248 
L 778.510296 271.707236 
L 780.655075 289.098715 
L 783.029651 260.121424 
L 785.327629 297.151056 
L 792.37476 247.782191 
L 797.047314 195.047459 
L 799.421891 222.322041 
L 801.719868 218.43279 
L 804.094445 210.769872 
L 806.469022 213.637958 
L 808.613801 236.519674 
L 810.988377 206.400183 
L 813.286355 226.964108 
L 815.660932 286.429811 
L 817.958909 201.875726 
L 822.708063 207.291077 
L 825.00604 205.903558 
L 827.380617 213.394909 
L 829.678594 218.544442 
L 832.053171 207.114688 
L 834.427748 202.742219 
L 841.32168 208.334336 
L 848.368811 181.088522 
L 855.415942 232.133715 
L 862.463073 230.450621 
L 869.280406 188.289593 
L 876.327537 150.658664 
L 883.374668 158.544522 
L 890.421799 266.795417 
L 892.566578 176.511975 
L 894.941155 177.612512 
L 897.239132 182.58118 
L 899.613709 186.215131 
L 906.66084 169.623223 
L 908.958818 167.594157 
L 911.333394 197.103923 
L 916.005949 174.22408 
L 918.380525 228.746185 
L 920.525304 179.325535 
L 925.197859 139.828191 
L 934.619566 127.785747 
L 939.29212 88.814653 
L 943.964675 118.813592 
L 946.339251 123.352974 
L 948.56063 138.971426 
L 950.935206 140.524178 
L 953.233184 119.998948 
L 955.607761 158.705492 
L 957.905738 202.283795 
L 964.952869 130.450657 
L 967.327446 131.466285 
L 969.625423 164.064724 
L 972 133.573383 
L 972 133.573383 
" clip-path="url(#pfa0b52ef06)" style="fill: none; stroke: #7f7f7f; stroke-width: 1.5; stroke-linecap: square"/>
   </g>
   <g id="line2d_19">
    <path d="M 135 181.8 
L 972 181.8 
" clip-path="url(#pfa0b52ef06)" style="fill: none; stroke: #000000; stroke-width: 1.5; stroke-linecap: square"/>
   </g>
   <g id="patch_3">
    <path d="M 135 320.4 
L 135 43.2 
" style="fill: none; stroke: #000000; stroke-width: 0.8; stroke-linejoin: miter; stroke-linecap: square"/>
   </g>
   <g id="patch_4">
    <path d="M 135 320.4 
L 972 320.4 
" style="fill: none; stroke: #000000; stroke-width: 0.8; stroke-linejoin: miter; stroke-linecap: square"/>
   </g>
   <g id="text_19">
    <!-- SGI for GWIC ID 135734 -->
    <g transform="translate(135 37.2) scale(0.12 -0.12)">
     <defs>
      <path id="DejaVuSans-Bold-53" d="M 3834 4519 
L 3834 3531 
Q 3450 3703 3084 3790 
Q 2719 3878 2394 3878 
Q 1963 3878 1756 3759 
Q 1550 3641 1550 3391 
Q 1550 3203 1689 3098 
Q 1828 2994 2194 2919 
L 2706 2816 
Q 3484 2659 3812 2340 
Q 4141 2022 4141 1434 
Q 4141 663 3683 286 
Q 3225 -91 2284 -91 
Q 1841 -91 1394 -6 
Q 947 78 500 244 
L 500 1259 
Q 947 1022 1364 901 
Q 1781 781 2169 781 
Q 2563 781 2772 912 
Q 2981 1044 2981 1288 
Q 2981 1506 2839 1625 
Q 2697 1744 2272 1838 
L 1806 1941 
Q 1106 2091 782 2419 
Q 459 2747 459 3303 
Q 459 4000 909 4375 
Q 1359 4750 2203 4750 
Q 2588 4750 2994 4692 
Q 3400 4634 3834 4519 
z
" transform="scale(0.015625)"/>
      <path id="DejaVuSans-Bold-47" d="M 4781 347 
Q 4331 128 3847 18 
Q 3363 -91 2847 -91 
Q 1681 -91 1000 561 
Q 319 1213 319 2328 
Q 319 3456 1012 4103 
Q 1706 4750 2913 4750 
Q 3378 4750 3804 4662 
Q 4231 4575 4609 4403 
L 4609 3438 
Q 4219 3659 3833 3768 
Q 3447 3878 3059 3878 
Q 2341 3878 1952 3476 
Q 1563 3075 1563 2328 
Q 1563 1588 1938 1184 
Q 2313 781 3003 781 
Q 3191 781 3352 804 
Q 3513 828 3641 878 
L 3641 1784 
L 2906 1784 
L 2906 2591 
L 4781 2591 
L 4781 347 
z
" transform="scale(0.015625)"/>
      <path id="DejaVuSans-Bold-49" d="M 588 4666 
L 1791 4666 
L 1791 0 
L 588 0 
L 588 4666 
z
" transform="scale(0.015625)"/>
      <path id="DejaVuSans-Bold-20" transform="scale(0.015625)"/>
      <path id="DejaVuSans-Bold-66" d="M 2841 4863 
L 2841 4128 
L 2222 4128 
Q 1984 4128 1890 4042 
Q 1797 3956 1797 3744 
L 1797 3500 
L 2753 3500 
L 2753 2700 
L 1797 2700 
L 1797 0 
L 678 0 
L 678 2700 
L 122 2700 
L 122 3500 
L 678 3500 
L 678 3744 
Q 678 4316 997 4589 
Q 1316 4863 1984 4863 
L 2841 4863 
z
" transform="scale(0.015625)"/>
      <path id="DejaVuSans-Bold-6f" d="M 2203 2784 
Q 1831 2784 1636 2517 
Q 1441 2250 1441 1747 
Q 1441 1244 1636 976 
Q 1831 709 2203 709 
Q 2569 709 2762 976 
Q 2956 1244 2956 1747 
Q 2956 2250 2762 2517 
Q 2569 2784 2203 2784 
z
M 2203 3584 
Q 3106 3584 3614 3096 
Q 4122 2609 4122 1747 
Q 4122 884 3614 396 
Q 3106 -91 2203 -91 
Q 1297 -91 786 396 
Q 275 884 275 1747 
Q 275 2609 786 3096 
Q 1297 3584 2203 3584 
z
" transform="scale(0.015625)"/>
      <path id="DejaVuSans-Bold-72" d="M 3138 2547 
Q 2991 2616 2845 2648 
Q 2700 2681 2553 2681 
Q 2122 2681 1889 2404 
Q 1656 2128 1656 1613 
L 1656 0 
L 538 0 
L 538 3500 
L 1656 3500 
L 1656 2925 
Q 1872 3269 2151 3426 
Q 2431 3584 2822 3584 
Q 2878 3584 2943 3579 
Q 3009 3575 3134 3559 
L 3138 2547 
z
" transform="scale(0.015625)"/>
      <path id="DejaVuSans-Bold-57" d="M 191 4666 
L 1344 4666 
L 2150 1275 
L 2950 4666 
L 4109 4666 
L 4909 1275 
L 5716 4666 
L 6859 4666 
L 5759 0 
L 4372 0 
L 3525 3547 
L 2688 0 
L 1300 0 
L 191 4666 
z
" transform="scale(0.015625)"/>
      <path id="DejaVuSans-Bold-43" d="M 4288 256 
Q 3956 84 3597 -3 
Q 3238 -91 2847 -91 
Q 1681 -91 1000 561 
Q 319 1213 319 2328 
Q 319 3447 1000 4098 
Q 1681 4750 2847 4750 
Q 3238 4750 3597 4662 
Q 3956 4575 4288 4403 
L 4288 3438 
Q 3953 3666 3628 3772 
Q 3303 3878 2944 3878 
Q 2300 3878 1931 3465 
Q 1563 3053 1563 2328 
Q 1563 1606 1931 1193 
Q 2300 781 2944 781 
Q 3303 781 3628 887 
Q 3953 994 4288 1222 
L 4288 256 
z
" transform="scale(0.015625)"/>
      <path id="DejaVuSans-Bold-44" d="M 1791 3756 
L 1791 909 
L 2222 909 
Q 2959 909 3348 1275 
Q 3738 1641 3738 2338 
Q 3738 3031 3350 3393 
Q 2963 3756 2222 3756 
L 1791 3756 
z
M 588 4666 
L 1856 4666 
Q 2919 4666 3439 4514 
Q 3959 4363 4331 4000 
Q 4659 3684 4818 3271 
Q 4978 2859 4978 2338 
Q 4978 1809 4818 1395 
Q 4659 981 4331 666 
Q 3956 303 3431 151 
Q 2906 0 1856 0 
L 588 0 
L 588 4666 
z
" transform="scale(0.015625)"/>
      <path id="DejaVuSans-Bold-31" d="M 750 831 
L 1813 831 
L 1813 3847 
L 722 3622 
L 722 4441 
L 1806 4666 
L 2950 4666 
L 2950 831 
L 4013 831 
L 4013 0 
L 750 0 
L 750 831 
z
" transform="scale(0.015625)"/>
      <path id="DejaVuSans-Bold-33" d="M 2981 2516 
Q 3453 2394 3698 2092 
Q 3944 1791 3944 1325 
Q 3944 631 3412 270 
Q 2881 -91 1863 -91 
Q 1503 -91 1142 -33 
Q 781 25 428 141 
L 428 1069 
Q 766 900 1098 814 
Q 1431 728 1753 728 
Q 2231 728 2486 893 
Q 2741 1059 2741 1369 
Q 2741 1688 2480 1852 
Q 2219 2016 1709 2016 
L 1228 2016 
L 1228 2791 
L 1734 2791 
Q 2188 2791 2409 2933 
Q 2631 3075 2631 3366 
Q 2631 3634 2415 3781 
Q 2200 3928 1806 3928 
Q 1516 3928 1219 3862 
Q 922 3797 628 3669 
L 628 4550 
Q 984 4650 1334 4700 
Q 1684 4750 2022 4750 
Q 2931 4750 3382 4451 
Q 3834 4153 3834 3553 
Q 3834 3144 3618 2883 
Q 3403 2622 2981 2516 
z
" transform="scale(0.015625)"/>
      <path id="DejaVuSans-Bold-35" d="M 678 4666 
L 3669 4666 
L 3669 3781 
L 1638 3781 
L 1638 3059 
Q 1775 3097 1914 3117 
Q 2053 3138 2203 3138 
Q 3056 3138 3531 2711 
Q 4006 2284 4006 1522 
Q 4006 766 3489 337 
Q 2972 -91 2053 -91 
Q 1656 -91 1267 -14 
Q 878 63 494 219 
L 494 1166 
Q 875 947 1217 837 
Q 1559 728 1863 728 
Q 2300 728 2551 942 
Q 2803 1156 2803 1522 
Q 2803 1891 2551 2103 
Q 2300 2316 1863 2316 
Q 1603 2316 1309 2248 
Q 1016 2181 678 2041 
L 678 4666 
z
" transform="scale(0.015625)"/>
      <path id="DejaVuSans-Bold-37" d="M 428 4666 
L 3944 4666 
L 3944 3988 
L 2125 0 
L 953 0 
L 2675 3781 
L 428 3781 
L 428 4666 
z
" transform="scale(0.015625)"/>
      <path id="DejaVuSans-Bold-34" d="M 2356 3675 
L 1038 1722 
L 2356 1722 
L 2356 3675 
z
M 2156 4666 
L 3494 4666 
L 3494 1722 
L 4159 1722 
L 4159 850 
L 3494 850 
L 3494 0 
L 2356 0 
L 2356 850 
L 288 850 
L 288 1881 
L 2156 4666 
z
" transform="scale(0.015625)"/>
     </defs>
     <use xlink:href="#DejaVuSans-Bold-53"/>
     <use xlink:href="#DejaVuSans-Bold-47" x="72.021484"/>
     <use xlink:href="#DejaVuSans-Bold-49" x="154.101562"/>
     <use xlink:href="#DejaVuSans-Bold-20" x="191.308594"/>
     <use xlink:href="#DejaVuSans-Bold-66" x="226.123047"/>
     <use xlink:href="#DejaVuSans-Bold-6f" x="269.628906"/>
     <use xlink:href="#DejaVuSans-Bold-72" x="338.330078"/>
     <use xlink:href="#DejaVuSans-Bold-20" x="387.646484"/>
     <use xlink:href="#DejaVuSans-Bold-47" x="422.460938"/>
     <use xlink:href="#DejaVuSans-Bold-57" x="504.541016"/>
     <use xlink:href="#DejaVuSans-Bold-49" x="614.84375"/>
     <use xlink:href="#DejaVuSans-Bold-43" x="652.050781"/>
     <use xlink:href="#DejaVuSans-Bold-20" x="725.439453"/>
     <use xlink:href="#DejaVuSans-Bold-49" x="760.253906"/>
     <use xlink:href="#DejaVuSans-Bold-44" x="797.460938"/>
     <use xlink:href="#DejaVuSans-Bold-20" x="880.46875"/>
     <use xlink:href="#DejaVuSans-Bold-31" x="915.283203"/>
     <use xlink:href="#DejaVuSans-Bold-33" x="984.863281"/>
     <use xlink:href="#DejaVuSans-Bold-35" x="1054.443359"/>
     <use xlink:href="#DejaVuSans-Bold-37" x="1124.023438"/>
     <use xlink:href="#DejaVuSans-Bold-33" x="1193.603516"/>
     <use xlink:href="#DejaVuSans-Bold-34" x="1263.183594"/>
    </g>
   </g>
   <g id="PathCollection_1">
    <defs>
     <path id="m8ecb37e891" d="M 0 3 
C 0.795609 3 1.55874 2.683901 2.12132 2.12132 
C 2.683901 1.55874 3 0.795609 3 0 
C 3 -0.795609 2.683901 -1.55874 2.12132 -2.12132 
C 1.55874 -2.683901 0.795609 -3 0 -3 
C -0.795609 -3 -1.55874 -2.683901 -2.12132 -2.12132 
C -2.683901 -1.55874 -3 -0.795609 -3 0 
C -3 0.795609 -2.683901 1.55874 -2.12132 2.12132 
C -1.55874 2.683901 -0.795609 3 0 3 
z
" style="stroke: #ffffff; stroke-width: 0.48"/>
    </defs>
    <g clip-path="url(#pfa0b52ef06)">
     <use xlink:href="#m8ecb37e891" x="137.144779" y="78.852757" style="stroke: #ffffff; stroke-width: 0.48"/>
     <use xlink:href="#m8ecb37e891" x="144.19191" y="89.792492" style="stroke: #ffffff; stroke-width: 0.48"/>
     <use xlink:href="#m8ecb37e891" x="158.209573" y="101.258672" style="stroke: #ffffff; stroke-width: 0.48"/>
     <use xlink:href="#m8ecb37e891" x="165.180104" y="100.664982" style="stroke: #ffffff; stroke-width: 0.48"/>
     <use xlink:href="#m8ecb37e891" x="186.244898" y="83.189911" style="stroke: #ffffff; stroke-width: 0.48"/>
     <use xlink:href="#m8ecb37e891" x="195.513407" y="74.601273" style="stroke: #ffffff; stroke-width: 0.48"/>
     <use xlink:href="#m8ecb37e891" x="200.185961" y="108.933788" style="stroke: #ffffff; stroke-width: 0.48"/>
     <use xlink:href="#m8ecb37e891" x="214.203624" y="130.382372" style="stroke: #ffffff; stroke-width: 0.48"/>
     <use xlink:href="#m8ecb37e891" x="242.16235" y="177.849776" style="stroke: #ffffff; stroke-width: 0.48"/>
     <use xlink:href="#m8ecb37e891" x="249.056283" y="188.787599" style="stroke: #ffffff; stroke-width: 0.48"/>
     <use xlink:href="#m8ecb37e891" x="274.87023" y="203.80503" style="stroke: #ffffff; stroke-width: 0.48"/>
     <use xlink:href="#m8ecb37e891" x="281.764162" y="231.631528" style="stroke: #ffffff; stroke-width: 0.48"/>
     <use xlink:href="#m8ecb37e891" x="295.858424" y="175.873713" style="stroke: #ffffff; stroke-width: 0.48"/>
     <use xlink:href="#m8ecb37e891" x="305.050334" y="211.876482" style="stroke: #ffffff; stroke-width: 0.48"/>
     <use xlink:href="#m8ecb37e891" x="309.722888" y="184.658761" style="stroke: #ffffff; stroke-width: 0.48"/>
     <use xlink:href="#m8ecb37e891" x="323.81715" y="205.055478" style="stroke: #ffffff; stroke-width: 0.48"/>
     <use xlink:href="#m8ecb37e891" x="330.864281" y="197.97758" style="stroke: #ffffff; stroke-width: 0.48"/>
     <use xlink:href="#m8ecb37e891" x="337.681614" y="203.61386" style="stroke: #ffffff; stroke-width: 0.48"/>
     <use xlink:href="#m8ecb37e891" x="344.728745" y="187.190722" style="stroke: #ffffff; stroke-width: 0.48"/>
     <use xlink:href="#m8ecb37e891" x="358.823007" y="155.911343" style="stroke: #ffffff; stroke-width: 0.48"/>
     <use xlink:href="#m8ecb37e891" x="365.64034" y="144.448535" style="stroke: #ffffff; stroke-width: 0.48"/>
     <use xlink:href="#m8ecb37e891" x="379.734602" y="150.205091" style="stroke: #ffffff; stroke-width: 0.48"/>
     <use xlink:href="#m8ecb37e891" x="386.781733" y="152.151398" style="stroke: #ffffff; stroke-width: 0.48"/>
     <use xlink:href="#m8ecb37e891" x="410.067905" y="174.514021" style="stroke: #ffffff; stroke-width: 0.48"/>
     <use xlink:href="#m8ecb37e891" x="428.681523" y="198.929279" style="stroke: #ffffff; stroke-width: 0.48"/>
     <use xlink:href="#m8ecb37e891" x="435.728654" y="180.145127" style="stroke: #ffffff; stroke-width: 0.48"/>
     <use xlink:href="#m8ecb37e891" x="442.775785" y="183.07788" style="stroke: #ffffff; stroke-width: 0.48"/>
     <use xlink:href="#m8ecb37e891" x="449.593118" y="202.763668" style="stroke: #ffffff; stroke-width: 0.48"/>
     <use xlink:href="#m8ecb37e891" x="470.734511" y="175.154436" style="stroke: #ffffff; stroke-width: 0.48"/>
     <use xlink:href="#m8ecb37e891" x="477.551844" y="169.798964" style="stroke: #ffffff; stroke-width: 0.48"/>
     <use xlink:href="#m8ecb37e891" x="491.646106" y="307.8" style="stroke: #ffffff; stroke-width: 0.48"/>
     <use xlink:href="#m8ecb37e891" x="498.693237" y="145.072903" style="stroke: #ffffff; stroke-width: 0.48"/>
     <use xlink:href="#m8ecb37e891" x="505.587169" y="219.52379" style="stroke: #ffffff; stroke-width: 0.48"/>
     <use xlink:href="#m8ecb37e891" x="512.6343" y="128.739271" style="stroke: #ffffff; stroke-width: 0.48"/>
     <use xlink:href="#m8ecb37e891" x="526.728562" y="78.663353" style="stroke: #ffffff; stroke-width: 0.48"/>
     <use xlink:href="#m8ecb37e891" x="533.545895" y="117.011195" style="stroke: #ffffff; stroke-width: 0.48"/>
     <use xlink:href="#m8ecb37e891" x="547.640157" y="55.8" style="stroke: #ffffff; stroke-width: 0.48"/>
     <use xlink:href="#m8ecb37e891" x="554.687288" y="87.106411" style="stroke: #ffffff; stroke-width: 0.48"/>
     <use xlink:href="#m8ecb37e891" x="561.504622" y="56.241405" style="stroke: #ffffff; stroke-width: 0.48"/>
     <use xlink:href="#m8ecb37e891" x="566.177176" y="109.555229" style="stroke: #ffffff; stroke-width: 0.48"/>
     <use xlink:href="#m8ecb37e891" x="575.598883" y="106.611663" style="stroke: #ffffff; stroke-width: 0.48"/>
     <use xlink:href="#m8ecb37e891" x="582.646014" y="132.665681" style="stroke: #ffffff; stroke-width: 0.48"/>
     <use xlink:href="#m8ecb37e891" x="587.16537" y="147.162604" style="stroke: #ffffff; stroke-width: 0.48"/>
     <use xlink:href="#m8ecb37e891" x="603.55761" y="141.277959" style="stroke: #ffffff; stroke-width: 0.48"/>
     <use xlink:href="#m8ecb37e891" x="610.604741" y="145.072903" style="stroke: #ffffff; stroke-width: 0.48"/>
     <use xlink:href="#m8ecb37e891" x="617.498673" y="133.018855" style="stroke: #ffffff; stroke-width: 0.48"/>
     <use xlink:href="#m8ecb37e891" x="619.87325" y="175.629591" style="stroke: #ffffff; stroke-width: 0.48"/>
     <use xlink:href="#m8ecb37e891" x="622.171227" y="165.54927" style="stroke: #ffffff; stroke-width: 0.48"/>
     <use xlink:href="#m8ecb37e891" x="626.920381" y="156.118804" style="stroke: #ffffff; stroke-width: 0.48"/>
     <use xlink:href="#m8ecb37e891" x="629.218358" y="106.673977" style="stroke: #ffffff; stroke-width: 0.48"/>
     <use xlink:href="#m8ecb37e891" x="631.592935" y="120.277371" style="stroke: #ffffff; stroke-width: 0.48"/>
     <use xlink:href="#m8ecb37e891" x="636.265489" y="118.140756" style="stroke: #ffffff; stroke-width: 0.48"/>
     <use xlink:href="#m8ecb37e891" x="638.640066" y="121.713583" style="stroke: #ffffff; stroke-width: 0.48"/>
     <use xlink:href="#m8ecb37e891" x="640.784845" y="130.812061" style="stroke: #ffffff; stroke-width: 0.48"/>
     <use xlink:href="#m8ecb37e891" x="643.159422" y="133.688564" style="stroke: #ffffff; stroke-width: 0.48"/>
     <use xlink:href="#m8ecb37e891" x="645.457399" y="92.052466" style="stroke: #ffffff; stroke-width: 0.48"/>
     <use xlink:href="#m8ecb37e891" x="647.831976" y="151.379134" style="stroke: #ffffff; stroke-width: 0.48"/>
     <use xlink:href="#m8ecb37e891" x="650.129953" y="253.533617" style="stroke: #ffffff; stroke-width: 0.48"/>
     <use xlink:href="#m8ecb37e891" x="659.551661" y="166.496077" style="stroke: #ffffff; stroke-width: 0.48"/>
     <use xlink:href="#m8ecb37e891" x="661.849639" y="181.123864" style="stroke: #ffffff; stroke-width: 0.48"/>
     <use xlink:href="#m8ecb37e891" x="664.224215" y="163.810383" style="stroke: #ffffff; stroke-width: 0.48"/>
     <use xlink:href="#m8ecb37e891" x="666.598792" y="168.191613" style="stroke: #ffffff; stroke-width: 0.48"/>
     <use xlink:href="#m8ecb37e891" x="668.743571" y="162.709469" style="stroke: #ffffff; stroke-width: 0.48"/>
     <use xlink:href="#m8ecb37e891" x="671.118148" y="172.566793" style="stroke: #ffffff; stroke-width: 0.48"/>
     <use xlink:href="#m8ecb37e891" x="673.416125" y="158.872689" style="stroke: #ffffff; stroke-width: 0.48"/>
     <use xlink:href="#m8ecb37e891" x="675.790702" y="200.115761" style="stroke: #ffffff; stroke-width: 0.48"/>
     <use xlink:href="#m8ecb37e891" x="678.088679" y="157.696325" style="stroke: #ffffff; stroke-width: 0.48"/>
     <use xlink:href="#m8ecb37e891" x="687.510387" y="189.392195" style="stroke: #ffffff; stroke-width: 0.48"/>
     <use xlink:href="#m8ecb37e891" x="689.808365" y="192.904363" style="stroke: #ffffff; stroke-width: 0.48"/>
     <use xlink:href="#m8ecb37e891" x="692.182941" y="181.304975" style="stroke: #ffffff; stroke-width: 0.48"/>
     <use xlink:href="#m8ecb37e891" x="694.557518" y="188.856458" style="stroke: #ffffff; stroke-width: 0.48"/>
     <use xlink:href="#m8ecb37e891" x="696.702297" y="210.500661" style="stroke: #ffffff; stroke-width: 0.48"/>
     <use xlink:href="#m8ecb37e891" x="699.076874" y="196.009493" style="stroke: #ffffff; stroke-width: 0.48"/>
     <use xlink:href="#m8ecb37e891" x="703.749428" y="221.002479" style="stroke: #ffffff; stroke-width: 0.48"/>
     <use xlink:href="#m8ecb37e891" x="715.469113" y="243.322629" style="stroke: #ffffff; stroke-width: 0.48"/>
     <use xlink:href="#m8ecb37e891" x="722.516244" y="237.978004" style="stroke: #ffffff; stroke-width: 0.48"/>
     <use xlink:href="#m8ecb37e891" x="727.112199" y="229.824132" style="stroke: #ffffff; stroke-width: 0.48"/>
     <use xlink:href="#m8ecb37e891" x="729.410177" y="255.458049" style="stroke: #ffffff; stroke-width: 0.48"/>
     <use xlink:href="#m8ecb37e891" x="731.784753" y="245.585534" style="stroke: #ffffff; stroke-width: 0.48"/>
     <use xlink:href="#m8ecb37e891" x="738.831884" y="256.327113" style="stroke: #ffffff; stroke-width: 0.48"/>
     <use xlink:href="#m8ecb37e891" x="741.129862" y="201.991003" style="stroke: #ffffff; stroke-width: 0.48"/>
     <use xlink:href="#m8ecb37e891" x="743.504439" y="275.00428" style="stroke: #ffffff; stroke-width: 0.48"/>
     <use xlink:href="#m8ecb37e891" x="745.802416" y="263.611727" style="stroke: #ffffff; stroke-width: 0.48"/>
     <use xlink:href="#m8ecb37e891" x="748.176993" y="252.325449" style="stroke: #ffffff; stroke-width: 0.48"/>
     <use xlink:href="#m8ecb37e891" x="750.55157" y="267.02614" style="stroke: #ffffff; stroke-width: 0.48"/>
     <use xlink:href="#m8ecb37e891" x="752.696348" y="260.488034" style="stroke: #ffffff; stroke-width: 0.48"/>
     <use xlink:href="#m8ecb37e891" x="755.070925" y="249.793245" style="stroke: #ffffff; stroke-width: 0.48"/>
     <use xlink:href="#m8ecb37e891" x="757.368903" y="280.311442" style="stroke: #ffffff; stroke-width: 0.48"/>
     <use xlink:href="#m8ecb37e891" x="769.088588" y="265.124845" style="stroke: #ffffff; stroke-width: 0.48"/>
     <use xlink:href="#m8ecb37e891" x="771.463165" y="256.837625" style="stroke: #ffffff; stroke-width: 0.48"/>
     <use xlink:href="#m8ecb37e891" x="773.761142" y="257.071624" style="stroke: #ffffff; stroke-width: 0.48"/>
     <use xlink:href="#m8ecb37e891" x="776.135719" y="271.947248" style="stroke: #ffffff; stroke-width: 0.48"/>
     <use xlink:href="#m8ecb37e891" x="778.510296" y="271.707236" style="stroke: #ffffff; stroke-width: 0.48"/>
     <use xlink:href="#m8ecb37e891" x="780.655075" y="289.098715" style="stroke: #ffffff; stroke-width: 0.48"/>
     <use xlink:href="#m8ecb37e891" x="783.029651" y="260.121424" style="stroke: #ffffff; stroke-width: 0.48"/>
     <use xlink:href="#m8ecb37e891" x="785.327629" y="297.151056" style="stroke: #ffffff; stroke-width: 0.48"/>
     <use xlink:href="#m8ecb37e891" x="792.37476" y="247.782191" style="stroke: #ffffff; stroke-width: 0.48"/>
     <use xlink:href="#m8ecb37e891" x="797.047314" y="195.047459" style="stroke: #ffffff; stroke-width: 0.48"/>
     <use xlink:href="#m8ecb37e891" x="799.421891" y="222.322041" style="stroke: #ffffff; stroke-width: 0.48"/>
     <use xlink:href="#m8ecb37e891" x="801.719868" y="218.43279" style="stroke: #ffffff; stroke-width: 0.48"/>
     <use xlink:href="#m8ecb37e891" x="804.094445" y="210.769872" style="stroke: #ffffff; stroke-width: 0.48"/>
     <use xlink:href="#m8ecb37e891" x="806.469022" y="213.637958" style="stroke: #ffffff; stroke-width: 0.48"/>
     <use xlink:href="#m8ecb37e891" x="808.613801" y="236.519674" style="stroke: #ffffff; stroke-width: 0.48"/>
     <use xlink:href="#m8ecb37e891" x="810.988377" y="206.400183" style="stroke: #ffffff; stroke-width: 0.48"/>
     <use xlink:href="#m8ecb37e891" x="813.286355" y="226.964108" style="stroke: #ffffff; stroke-width: 0.48"/>
     <use xlink:href="#m8ecb37e891" x="815.660932" y="286.429811" style="stroke: #ffffff; stroke-width: 0.48"/>
     <use xlink:href="#m8ecb37e891" x="817.958909" y="201.875726" style="stroke: #ffffff; stroke-width: 0.48"/>
     <use xlink:href="#m8ecb37e891" x="822.708063" y="207.291077" style="stroke: #ffffff; stroke-width: 0.48"/>
     <use xlink:href="#m8ecb37e891" x="825.00604" y="205.903558" style="stroke: #ffffff; stroke-width: 0.48"/>
     <use xlink:href="#m8ecb37e891" x="827.380617" y="213.394909" style="stroke: #ffffff; stroke-width: 0.48"/>
     <use xlink:href="#m8ecb37e891" x="829.678594" y="218.544442" style="stroke: #ffffff; stroke-width: 0.48"/>
     <use xlink:href="#m8ecb37e891" x="832.053171" y="207.114688" style="stroke: #ffffff; stroke-width: 0.48"/>
     <use xlink:href="#m8ecb37e891" x="834.427748" y="202.742219" style="stroke: #ffffff; stroke-width: 0.48"/>
     <use xlink:href="#m8ecb37e891" x="841.32168" y="208.334336" style="stroke: #ffffff; stroke-width: 0.48"/>
     <use xlink:href="#m8ecb37e891" x="848.368811" y="181.088522" style="stroke: #ffffff; stroke-width: 0.48"/>
     <use xlink:href="#m8ecb37e891" x="855.415942" y="232.133715" style="stroke: #ffffff; stroke-width: 0.48"/>
     <use xlink:href="#m8ecb37e891" x="862.463073" y="230.450621" style="stroke: #ffffff; stroke-width: 0.48"/>
     <use xlink:href="#m8ecb37e891" x="869.280406" y="188.289593" style="stroke: #ffffff; stroke-width: 0.48"/>
     <use xlink:href="#m8ecb37e891" x="876.327537" y="150.658664" style="stroke: #ffffff; stroke-width: 0.48"/>
     <use xlink:href="#m8ecb37e891" x="883.374668" y="158.544522" style="stroke: #ffffff; stroke-width: 0.48"/>
     <use xlink:href="#m8ecb37e891" x="890.421799" y="266.795417" style="stroke: #ffffff; stroke-width: 0.48"/>
     <use xlink:href="#m8ecb37e891" x="892.566578" y="176.511975" style="stroke: #ffffff; stroke-width: 0.48"/>
     <use xlink:href="#m8ecb37e891" x="894.941155" y="177.612512" style="stroke: #ffffff; stroke-width: 0.48"/>
     <use xlink:href="#m8ecb37e891" x="897.239132" y="182.58118" style="stroke: #ffffff; stroke-width: 0.48"/>
     <use xlink:href="#m8ecb37e891" x="899.613709" y="186.215131" style="stroke: #ffffff; stroke-width: 0.48"/>
     <use xlink:href="#m8ecb37e891" x="906.66084" y="169.623223" style="stroke: #ffffff; stroke-width: 0.48"/>
     <use xlink:href="#m8ecb37e891" x="908.958818" y="167.594157" style="stroke: #ffffff; stroke-width: 0.48"/>
     <use xlink:href="#m8ecb37e891" x="911.333394" y="197.103923" style="stroke: #ffffff; stroke-width: 0.48"/>
     <use xlink:href="#m8ecb37e891" x="913.631372" y="185.618309" style="stroke: #ffffff; stroke-width: 0.48"/>
     <use xlink:href="#m8ecb37e891" x="916.005949" y="174.22408" style="stroke: #ffffff; stroke-width: 0.48"/>
     <use xlink:href="#m8ecb37e891" x="918.380525" y="228.746185" style="stroke: #ffffff; stroke-width: 0.48"/>
     <use xlink:href="#m8ecb37e891" x="920.525304" y="179.325535" style="stroke: #ffffff; stroke-width: 0.48"/>
     <use xlink:href="#m8ecb37e891" x="925.197859" y="139.828191" style="stroke: #ffffff; stroke-width: 0.48"/>
     <use xlink:href="#m8ecb37e891" x="934.619566" y="127.785747" style="stroke: #ffffff; stroke-width: 0.48"/>
     <use xlink:href="#m8ecb37e891" x="939.29212" y="88.814653" style="stroke: #ffffff; stroke-width: 0.48"/>
     <use xlink:href="#m8ecb37e891" x="943.964675" y="118.813592" style="stroke: #ffffff; stroke-width: 0.48"/>
     <use xlink:href="#m8ecb37e891" x="946.339251" y="123.352974" style="stroke: #ffffff; stroke-width: 0.48"/>
     <use xlink:href="#m8ecb37e891" x="948.56063" y="138.971426" style="stroke: #ffffff; stroke-width: 0.48"/>
     <use xlink:href="#m8ecb37e891" x="950.935206" y="140.524178" style="stroke: #ffffff; stroke-width: 0.48"/>
     <use xlink:href="#m8ecb37e891" x="953.233184" y="119.998948" style="stroke: #ffffff; stroke-width: 0.48"/>
     <use xlink:href="#m8ecb37e891" x="955.607761" y="158.705492" style="stroke: #ffffff; stroke-width: 0.48"/>
     <use xlink:href="#m8ecb37e891" x="957.905738" y="202.283795" style="stroke: #ffffff; stroke-width: 0.48"/>
     <use xlink:href="#m8ecb37e891" x="964.952869" y="130.450657" style="stroke: #ffffff; stroke-width: 0.48"/>
     <use xlink:href="#m8ecb37e891" x="967.327446" y="131.466285" style="stroke: #ffffff; stroke-width: 0.48"/>
     <use xlink:href="#m8ecb37e891" x="969.625423" y="164.064724" style="stroke: #ffffff; stroke-width: 0.48"/>
     <use xlink:href="#m8ecb37e891" x="972" y="133.573383" style="stroke: #ffffff; stroke-width: 0.48"/>
    </g>
   </g>
  </g>
 </g>
 <defs>
  <clipPath id="pfa0b52ef06">
   <rect x="135" y="43.2" width="837" height="277.2"/>
  </clipPath>
 </defs>
</svg>
