<?xml version="1.0" encoding="utf-8" standalone="no"?>
<!DOCTYPE svg PUBLIC "-//W3C//DTD SVG 1.1//EN"
  "http://www.w3.org/Graphics/SVG/1.1/DTD/svg11.dtd">
<svg xmlns:xlink="http://www.w3.org/1999/xlink" width="1080pt" height="360pt" viewBox="0 0 1080 360" xmlns="http://www.w3.org/2000/svg" version="1.1">
 <metadata>
  <rdf:RDF xmlns:dc="http://purl.org/dc/elements/1.1/" xmlns:cc="http://creativecommons.org/ns#" xmlns:rdf="http://www.w3.org/1999/02/22-rdf-syntax-ns#">
   <cc:Work>
    <dc:type rdf:resource="http://purl.org/dc/dcmitype/StillImage"/>
    <dc:date>2024-01-23T18:50:25.436780</dc:date>
    <dc:format>image/svg+xml</dc:format>
    <dc:creator>
     <cc:Agent>
      <dc:title>Matplotlib v3.8.2, https://matplotlib.org/</dc:title>
     </cc:Agent>
    </dc:creator>
   </cc:Work>
  </rdf:RDF>
 </metadata>
 <defs>
  <style type="text/css">*{stroke-linejoin: round; stroke-linecap: butt}</style>
 </defs>
 <g id="figure_1">
  <g id="patch_1">
   <path d="M 0 360 
L 1080 360 
L 1080 0 
L 0 0 
z
" style="fill: #ffffff"/>
  </g>
  <g id="axes_1">
   <g id="patch_2">
    <path d="M 135 320.4 
L 972 320.4 
L 972 43.2 
L 135 43.2 
z
" style="fill: #ffffff"/>
   </g>
   <g id="PolyCollection_1"/>
   <g id="matplotlib.axis_1">
    <g id="xtick_1">
     <g id="line2d_1">
      <defs>
       <path id="m24c3a5d975" d="M 0 0 
L 0 3.5 
" style="stroke: #000000; stroke-width: 0.8"/>
      </defs>
      <g>
       <use xlink:href="#m24c3a5d975" x="215.826358" y="320.4" style="stroke: #000000; stroke-width: 0.8"/>
      </g>
     </g>
     <g id="text_1">
      <!-- 1996 -->
      <g transform="translate(203.101358 334.998438) scale(0.1 -0.1)">
       <defs>
        <path id="DejaVuSans-31" d="M 794 531 
L 1825 531 
L 1825 4091 
L 703 3866 
L 703 4441 
L 1819 4666 
L 2450 4666 
L 2450 531 
L 3481 531 
L 3481 0 
L 794 0 
L 794 531 
z
" transform="scale(0.015625)"/>
        <path id="DejaVuSans-39" d="M 703 97 
L 703 672 
Q 941 559 1184 500 
Q 1428 441 1663 441 
Q 2288 441 2617 861 
Q 2947 1281 2994 2138 
Q 2813 1869 2534 1725 
Q 2256 1581 1919 1581 
Q 1219 1581 811 2004 
Q 403 2428 403 3163 
Q 403 3881 828 4315 
Q 1253 4750 1959 4750 
Q 2769 4750 3195 4129 
Q 3622 3509 3622 2328 
Q 3622 1225 3098 567 
Q 2575 -91 1691 -91 
Q 1453 -91 1209 -44 
Q 966 3 703 97 
z
M 1959 2075 
Q 2384 2075 2632 2365 
Q 2881 2656 2881 3163 
Q 2881 3666 2632 3958 
Q 2384 4250 1959 4250 
Q 1534 4250 1286 3958 
Q 1038 3666 1038 3163 
Q 1038 2656 1286 2365 
Q 1534 2075 1959 2075 
z
" transform="scale(0.015625)"/>
        <path id="DejaVuSans-36" d="M 2113 2584 
Q 1688 2584 1439 2293 
Q 1191 2003 1191 1497 
Q 1191 994 1439 701 
Q 1688 409 2113 409 
Q 2538 409 2786 701 
Q 3034 994 3034 1497 
Q 3034 2003 2786 2293 
Q 2538 2584 2113 2584 
z
M 3366 4563 
L 3366 3988 
Q 3128 4100 2886 4159 
Q 2644 4219 2406 4219 
Q 1781 4219 1451 3797 
Q 1122 3375 1075 2522 
Q 1259 2794 1537 2939 
Q 1816 3084 2150 3084 
Q 2853 3084 3261 2657 
Q 3669 2231 3669 1497 
Q 3669 778 3244 343 
Q 2819 -91 2113 -91 
Q 1303 -91 875 529 
Q 447 1150 447 2328 
Q 447 3434 972 4092 
Q 1497 4750 2381 4750 
Q 2619 4750 2861 4703 
Q 3103 4656 3366 4563 
z
" transform="scale(0.015625)"/>
       </defs>
       <use xlink:href="#DejaVuSans-31"/>
       <use xlink:href="#DejaVuSans-39" x="63.623047"/>
       <use xlink:href="#DejaVuSans-39" x="127.246094"/>
       <use xlink:href="#DejaVuSans-36" x="190.869141"/>
      </g>
     </g>
    </g>
    <g id="xtick_2">
     <g id="line2d_2">
      <g>
       <use xlink:href="#m24c3a5d975" x="336.817453" y="320.4" style="stroke: #000000; stroke-width: 0.8"/>
      </g>
     </g>
     <g id="text_2">
      <!-- 2000 -->
      <g transform="translate(324.092453 334.998438) scale(0.1 -0.1)">
       <defs>
        <path id="DejaVuSans-32" d="M 1228 531 
L 3431 531 
L 3431 0 
L 469 0 
L 469 531 
Q 828 903 1448 1529 
Q 2069 2156 2228 2338 
Q 2531 2678 2651 2914 
Q 2772 3150 2772 3378 
Q 2772 3750 2511 3984 
Q 2250 4219 1831 4219 
Q 1534 4219 1204 4116 
Q 875 4013 500 3803 
L 500 4441 
Q 881 4594 1212 4672 
Q 1544 4750 1819 4750 
Q 2544 4750 2975 4387 
Q 3406 4025 3406 3419 
Q 3406 3131 3298 2873 
Q 3191 2616 2906 2266 
Q 2828 2175 2409 1742 
Q 1991 1309 1228 531 
z
" transform="scale(0.015625)"/>
        <path id="DejaVuSans-30" d="M 2034 4250 
Q 1547 4250 1301 3770 
Q 1056 3291 1056 2328 
Q 1056 1369 1301 889 
Q 1547 409 2034 409 
Q 2525 409 2770 889 
Q 3016 1369 3016 2328 
Q 3016 3291 2770 3770 
Q 2525 4250 2034 4250 
z
M 2034 4750 
Q 2819 4750 3233 4129 
Q 3647 3509 3647 2328 
Q 3647 1150 3233 529 
Q 2819 -91 2034 -91 
Q 1250 -91 836 529 
Q 422 1150 422 2328 
Q 422 3509 836 4129 
Q 1250 4750 2034 4750 
z
" transform="scale(0.015625)"/>
       </defs>
       <use xlink:href="#DejaVuSans-32"/>
       <use xlink:href="#DejaVuSans-30" x="63.623047"/>
       <use xlink:href="#DejaVuSans-30" x="127.246094"/>
       <use xlink:href="#DejaVuSans-30" x="190.869141"/>
      </g>
     </g>
    </g>
    <g id="xtick_3">
     <g id="line2d_3">
      <g>
       <use xlink:href="#m24c3a5d975" x="457.808549" y="320.4" style="stroke: #000000; stroke-width: 0.8"/>
      </g>
     </g>
     <g id="text_3">
      <!-- 2004 -->
      <g transform="translate(445.083549 334.998438) scale(0.1 -0.1)">
       <defs>
        <path id="DejaVuSans-34" d="M 2419 4116 
L 825 1625 
L 2419 1625 
L 2419 4116 
z
M 2253 4666 
L 3047 4666 
L 3047 1625 
L 3713 1625 
L 3713 1100 
L 3047 1100 
L 3047 0 
L 2419 0 
L 2419 1100 
L 313 1100 
L 313 1709 
L 2253 4666 
z
" transform="scale(0.015625)"/>
       </defs>
       <use xlink:href="#DejaVuSans-32"/>
       <use xlink:href="#DejaVuSans-30" x="63.623047"/>
       <use xlink:href="#DejaVuSans-30" x="127.246094"/>
       <use xlink:href="#DejaVuSans-34" x="190.869141"/>
      </g>
     </g>
    </g>
    <g id="xtick_4">
     <g id="line2d_4">
      <g>
       <use xlink:href="#m24c3a5d975" x="578.799644" y="320.4" style="stroke: #000000; stroke-width: 0.8"/>
      </g>
     </g>
     <g id="text_4">
      <!-- 2008 -->
      <g transform="translate(566.074644 334.998438) scale(0.1 -0.1)">
       <defs>
        <path id="DejaVuSans-38" d="M 2034 2216 
Q 1584 2216 1326 1975 
Q 1069 1734 1069 1313 
Q 1069 891 1326 650 
Q 1584 409 2034 409 
Q 2484 409 2743 651 
Q 3003 894 3003 1313 
Q 3003 1734 2745 1975 
Q 2488 2216 2034 2216 
z
M 1403 2484 
Q 997 2584 770 2862 
Q 544 3141 544 3541 
Q 544 4100 942 4425 
Q 1341 4750 2034 4750 
Q 2731 4750 3128 4425 
Q 3525 4100 3525 3541 
Q 3525 3141 3298 2862 
Q 3072 2584 2669 2484 
Q 3125 2378 3379 2068 
Q 3634 1759 3634 1313 
Q 3634 634 3220 271 
Q 2806 -91 2034 -91 
Q 1263 -91 848 271 
Q 434 634 434 1313 
Q 434 1759 690 2068 
Q 947 2378 1403 2484 
z
M 1172 3481 
Q 1172 3119 1398 2916 
Q 1625 2713 2034 2713 
Q 2441 2713 2670 2916 
Q 2900 3119 2900 3481 
Q 2900 3844 2670 4047 
Q 2441 4250 2034 4250 
Q 1625 4250 1398 4047 
Q 1172 3844 1172 3481 
z
" transform="scale(0.015625)"/>
       </defs>
       <use xlink:href="#DejaVuSans-32"/>
       <use xlink:href="#DejaVuSans-30" x="63.623047"/>
       <use xlink:href="#DejaVuSans-30" x="127.246094"/>
       <use xlink:href="#DejaVuSans-38" x="190.869141"/>
      </g>
     </g>
    </g>
    <g id="xtick_5">
     <g id="line2d_5">
      <g>
       <use xlink:href="#m24c3a5d975" x="699.790739" y="320.4" style="stroke: #000000; stroke-width: 0.8"/>
      </g>
     </g>
     <g id="text_5">
      <!-- 2012 -->
      <g transform="translate(687.065739 334.998438) scale(0.1 -0.1)">
       <use xlink:href="#DejaVuSans-32"/>
       <use xlink:href="#DejaVuSans-30" x="63.623047"/>
       <use xlink:href="#DejaVuSans-31" x="127.246094"/>
       <use xlink:href="#DejaVuSans-32" x="190.869141"/>
      </g>
     </g>
    </g>
    <g id="xtick_6">
     <g id="line2d_6">
      <g>
       <use xlink:href="#m24c3a5d975" x="820.781834" y="320.4" style="stroke: #000000; stroke-width: 0.8"/>
      </g>
     </g>
     <g id="text_6">
      <!-- 2016 -->
      <g transform="translate(808.056834 334.998438) scale(0.1 -0.1)">
       <use xlink:href="#DejaVuSans-32"/>
       <use xlink:href="#DejaVuSans-30" x="63.623047"/>
       <use xlink:href="#DejaVuSans-31" x="127.246094"/>
       <use xlink:href="#DejaVuSans-36" x="190.869141"/>
      </g>
     </g>
    </g>
    <g id="xtick_7">
     <g id="line2d_7">
      <g>
       <use xlink:href="#m24c3a5d975" x="941.77293" y="320.4" style="stroke: #000000; stroke-width: 0.8"/>
      </g>
     </g>
     <g id="text_7">
      <!-- 2020 -->
      <g transform="translate(929.04793 334.998438) scale(0.1 -0.1)">
       <use xlink:href="#DejaVuSans-32"/>
       <use xlink:href="#DejaVuSans-30" x="63.623047"/>
       <use xlink:href="#DejaVuSans-32" x="127.246094"/>
       <use xlink:href="#DejaVuSans-30" x="190.869141"/>
      </g>
     </g>
    </g>
   </g>
   <g id="matplotlib.axis_2">
    <g id="ytick_1">
     <g id="line2d_8">
      <defs>
       <path id="m9de68a9d9b" d="M 0 0 
L -3.5 0 
" style="stroke: #000000; stroke-width: 0.8"/>
      </defs>
      <g>
       <use xlink:href="#m9de68a9d9b" x="135" y="304.476176" style="stroke: #000000; stroke-width: 0.8"/>
      </g>
     </g>
     <g id="text_8">
      <!-- −2 -->
      <g transform="translate(113.257812 308.275394) scale(0.1 -0.1)">
       <defs>
        <path id="DejaVuSans-2212" d="M 678 2272 
L 4684 2272 
L 4684 1741 
L 678 1741 
L 678 2272 
z
" transform="scale(0.015625)"/>
       </defs>
       <use xlink:href="#DejaVuSans-2212"/>
       <use xlink:href="#DejaVuSans-32" x="83.789062"/>
      </g>
     </g>
    </g>
    <g id="ytick_2">
     <g id="line2d_9">
      <g>
       <use xlink:href="#m9de68a9d9b" x="135" y="243.138088" style="stroke: #000000; stroke-width: 0.8"/>
      </g>
     </g>
     <g id="text_9">
      <!-- −1 -->
      <g transform="translate(113.257812 246.937307) scale(0.1 -0.1)">
       <use xlink:href="#DejaVuSans-2212"/>
       <use xlink:href="#DejaVuSans-31" x="83.789062"/>
      </g>
     </g>
    </g>
    <g id="ytick_3">
     <g id="line2d_10">
      <g>
       <use xlink:href="#m9de68a9d9b" x="135" y="181.8" style="stroke: #000000; stroke-width: 0.8"/>
      </g>
     </g>
     <g id="text_10">
      <!-- 0 -->
      <g transform="translate(121.6375 185.599219) scale(0.1 -0.1)">
       <use xlink:href="#DejaVuSans-30"/>
      </g>
     </g>
    </g>
    <g id="ytick_4">
     <g id="line2d_11">
      <g>
       <use xlink:href="#m9de68a9d9b" x="135" y="120.461912" style="stroke: #000000; stroke-width: 0.8"/>
      </g>
     </g>
     <g id="text_11">
      <!-- 1 -->
      <g transform="translate(121.6375 124.261131) scale(0.1 -0.1)">
       <use xlink:href="#DejaVuSans-31"/>
      </g>
     </g>
    </g>
    <g id="ytick_5">
     <g id="line2d_12">
      <g>
       <use xlink:href="#m9de68a9d9b" x="135" y="59.123824" style="stroke: #000000; stroke-width: 0.8"/>
      </g>
     </g>
     <g id="text_12">
      <!-- 2 -->
      <g transform="translate(121.6375 62.923043) scale(0.1 -0.1)">
       <use xlink:href="#DejaVuSans-32"/>
      </g>
     </g>
    </g>
    <g id="text_13">
     <!-- SGI -->
     <g transform="translate(107.178125 190.323437) rotate(-90) scale(0.1 -0.1)">
      <defs>
       <path id="DejaVuSans-53" d="M 3425 4513 
L 3425 3897 
Q 3066 4069 2747 4153 
Q 2428 4238 2131 4238 
Q 1616 4238 1336 4038 
Q 1056 3838 1056 3469 
Q 1056 3159 1242 3001 
Q 1428 2844 1947 2747 
L 2328 2669 
Q 3034 2534 3370 2195 
Q 3706 1856 3706 1288 
Q 3706 609 3251 259 
Q 2797 -91 1919 -91 
Q 1588 -91 1214 -16 
Q 841 59 441 206 
L 441 856 
Q 825 641 1194 531 
Q 1563 422 1919 422 
Q 2459 422 2753 634 
Q 3047 847 3047 1241 
Q 3047 1584 2836 1778 
Q 2625 1972 2144 2069 
L 1759 2144 
Q 1053 2284 737 2584 
Q 422 2884 422 3419 
Q 422 4038 858 4394 
Q 1294 4750 2059 4750 
Q 2388 4750 2728 4690 
Q 3069 4631 3425 4513 
z
" transform="scale(0.015625)"/>
       <path id="DejaVuSans-47" d="M 3809 666 
L 3809 1919 
L 2778 1919 
L 2778 2438 
L 4434 2438 
L 4434 434 
Q 4069 175 3628 42 
Q 3188 -91 2688 -91 
Q 1594 -91 976 548 
Q 359 1188 359 2328 
Q 359 3472 976 4111 
Q 1594 4750 2688 4750 
Q 3144 4750 3555 4637 
Q 3966 4525 4313 4306 
L 4313 3634 
Q 3963 3931 3569 4081 
Q 3175 4231 2741 4231 
Q 1884 4231 1454 3753 
Q 1025 3275 1025 2328 
Q 1025 1384 1454 906 
Q 1884 428 2741 428 
Q 3075 428 3337 486 
Q 3600 544 3809 666 
z
" transform="scale(0.015625)"/>
       <path id="DejaVuSans-49" d="M 628 4666 
L 1259 4666 
L 1259 0 
L 628 0 
L 628 4666 
z
" transform="scale(0.015625)"/>
      </defs>
      <use xlink:href="#DejaVuSans-53"/>
      <use xlink:href="#DejaVuSans-47" x="63.476562"/>
      <use xlink:href="#DejaVuSans-49" x="140.966797"/>
     </g>
    </g>
   </g>
   <g id="line2d_13">
    <path d="M 135 139.216621 
L 142.618878 156.527265 
L 147.670525 229.060791 
L 155.289403 162.282229 
L 172.845948 115.533258 
L 177.897596 111.234479 
L 185.516474 111.234479 
L 192.969724 173.552679 
L 203.073019 55.8 
L 210.691897 122.464093 
L 218.310775 98.634756 
L 225.764025 107.593404 
L 233.382903 86.413344 
L 250.939448 111.234479 
L 255.991095 146.141819 
L 263.609973 134.448806 
L 271.228851 60.277855 
L 278.847729 102.567981 
L 286.218166 117.609787 
L 293.837044 103.181209 
L 309.0748 121.064646 
L 316.445236 57.926304 
L 324.064114 213.941273 
L 331.682992 208.959434 
L 339.30187 155.503011 
L 346.75512 89.01431 
L 354.373998 142.358277 
L 364.477293 181.800006 
L 376.982191 129.237463 
L 384.601069 194.160761 
L 392.219947 220.881929 
L 399.838825 213.05212 
L 407.209261 177.686873 
L 414.828139 248.066742 
L 417.39537 159.522982 
L 422.447017 240.67739 
L 430.065895 175.51464 
L 437.436331 153.77594 
L 445.055209 260.418791 
L 452.674087 230.759648 
L 460.292965 199.878431 
L 467.746215 169.802656 
L 475.365093 166.285557 
L 482.983972 143.179879 
L 490.60285 140.914056 
L 497.973286 192.956269 
L 505.592164 237.940482 
L 513.211042 133.254816 
L 520.82992 173.918878 
L 528.200356 212.104677 
L 530.767587 130.716799 
L 533.252004 138.845443 
L 543.438112 303.322145 
L 551.05699 59.071153 
L 555.94301 169.815608 
L 566.046305 207.072735 
L 573.665183 174.47762 
L 581.284061 190.063017 
L 588.737311 246.089465 
L 596.356189 125.659518 
L 603.975067 157.072999 
L 611.593945 173.918878 
L 618.964381 183.116786 
L 626.583259 187.945831 
L 634.202137 153.302746 
L 641.821015 154.060632 
L 649.191451 224.950286 
L 656.810329 200.51085 
L 664.429207 91.908063 
L 672.048085 145.861797 
L 679.418522 162.277663 
L 687.0374 149.658727 
L 694.656278 167.037822 
L 702.275156 181.945115 
L 707.243989 222.058047 
L 709.728406 184.925544 
L 717.347284 221.241723 
L 724.966162 204.229013 
L 732.58504 304.528828 
L 734.903829 168.724247 
L 737.47106 253.109243 
L 739.955476 278.344009 
L 742.522707 194.770799 
L 745.007124 194.490222 
L 750.141585 204.077018 
L 752.626002 211.734551 
L 755.193232 188.213751 
L 757.677649 223.023714 
L 760.24488 223.153473 
L 762.81211 238.084833 
L 765.130899 209.095097 
L 767.69813 162.218722 
L 770.182547 250.91525 
L 772.749777 216.383035 
L 775.234194 170.4649 
L 777.801425 181.799994 
L 785.420303 182.701877 
L 793.039181 213.05212 
L 800.409617 209.55646 
L 808.028495 307.8 
L 815.647373 271.691937 
L 823.266251 262.177627 
L 830.719501 272.384287 
L 838.338379 277.186656 
L 845.957257 254.14291 
L 853.576135 244.764038 
L 860.946572 224.950286 
L 868.56545 166.285557 
L 876.184328 109.429103 
L 883.803206 208.099672 
L 891.173642 224.950286 
L 898.79252 175.654169 
L 906.411398 199.630171 
L 914.030276 234.730475 
L 918.916296 114.084545 
L 929.01959 229.151194 
L 939.122885 140.576286 
L 946.658949 230.734688 
L 956.762244 223.068719 
L 964.381122 167.560309 
L 972 223.153473 
" clip-path="url(#pc117b9d2ec)" style="fill: none; stroke: #7f7f7f; stroke-width: 1.5; stroke-linecap: square"/>
   </g>
   <g id="line2d_14">
    <path d="M 135 181.8 
L 972 181.8 
" clip-path="url(#pc117b9d2ec)" style="fill: none; stroke: #000000; stroke-width: 1.5; stroke-linecap: square"/>
   </g>
   <g id="patch_3">
    <path d="M 135 320.4 
L 135 43.2 
" style="fill: none; stroke: #000000; stroke-width: 0.8; stroke-linejoin: miter; stroke-linecap: square"/>
   </g>
   <g id="patch_4">
    <path d="M 135 320.4 
L 972 320.4 
" style="fill: none; stroke: #000000; stroke-width: 0.8; stroke-linejoin: miter; stroke-linecap: square"/>
   </g>
   <g id="text_14">
    <!-- SGI for GWIC ID 21567 -->
    <g transform="translate(135 37.2) scale(0.12 -0.12)">
     <defs>
      <path id="DejaVuSans-Bold-53" d="M 3834 4519 
L 3834 3531 
Q 3450 3703 3084 3790 
Q 2719 3878 2394 3878 
Q 1963 3878 1756 3759 
Q 1550 3641 1550 3391 
Q 1550 3203 1689 3098 
Q 1828 2994 2194 2919 
L 2706 2816 
Q 3484 2659 3812 2340 
Q 4141 2022 4141 1434 
Q 4141 663 3683 286 
Q 3225 -91 2284 -91 
Q 1841 -91 1394 -6 
Q 947 78 500 244 
L 500 1259 
Q 947 1022 1364 901 
Q 1781 781 2169 781 
Q 2563 781 2772 912 
Q 2981 1044 2981 1288 
Q 2981 1506 2839 1625 
Q 2697 1744 2272 1838 
L 1806 1941 
Q 1106 2091 782 2419 
Q 459 2747 459 3303 
Q 459 4000 909 4375 
Q 1359 4750 2203 4750 
Q 2588 4750 2994 4692 
Q 3400 4634 3834 4519 
z
" transform="scale(0.015625)"/>
      <path id="DejaVuSans-Bold-47" d="M 4781 347 
Q 4331 128 3847 18 
Q 3363 -91 2847 -91 
Q 1681 -91 1000 561 
Q 319 1213 319 2328 
Q 319 3456 1012 4103 
Q 1706 4750 2913 4750 
Q 3378 4750 3804 4662 
Q 4231 4575 4609 4403 
L 4609 3438 
Q 4219 3659 3833 3768 
Q 3447 3878 3059 3878 
Q 2341 3878 1952 3476 
Q 1563 3075 1563 2328 
Q 1563 1588 1938 1184 
Q 2313 781 3003 781 
Q 3191 781 3352 804 
Q 3513 828 3641 878 
L 3641 1784 
L 2906 1784 
L 2906 2591 
L 4781 2591 
L 4781 347 
z
" transform="scale(0.015625)"/>
      <path id="DejaVuSans-Bold-49" d="M 588 4666 
L 1791 4666 
L 1791 0 
L 588 0 
L 588 4666 
z
" transform="scale(0.015625)"/>
      <path id="DejaVuSans-Bold-20" transform="scale(0.015625)"/>
      <path id="DejaVuSans-Bold-66" d="M 2841 4863 
L 2841 4128 
L 2222 4128 
Q 1984 4128 1890 4042 
Q 1797 3956 1797 3744 
L 1797 3500 
L 2753 3500 
L 2753 2700 
L 1797 2700 
L 1797 0 
L 678 0 
L 678 2700 
L 122 2700 
L 122 3500 
L 678 3500 
L 678 3744 
Q 678 4316 997 4589 
Q 1316 4863 1984 4863 
L 2841 4863 
z
" transform="scale(0.015625)"/>
      <path id="DejaVuSans-Bold-6f" d="M 2203 2784 
Q 1831 2784 1636 2517 
Q 1441 2250 1441 1747 
Q 1441 1244 1636 976 
Q 1831 709 2203 709 
Q 2569 709 2762 976 
Q 2956 1244 2956 1747 
Q 2956 2250 2762 2517 
Q 2569 2784 2203 2784 
z
M 2203 3584 
Q 3106 3584 3614 3096 
Q 4122 2609 4122 1747 
Q 4122 884 3614 396 
Q 3106 -91 2203 -91 
Q 1297 -91 786 396 
Q 275 884 275 1747 
Q 275 2609 786 3096 
Q 1297 3584 2203 3584 
z
" transform="scale(0.015625)"/>
      <path id="DejaVuSans-Bold-72" d="M 3138 2547 
Q 2991 2616 2845 2648 
Q 2700 2681 2553 2681 
Q 2122 2681 1889 2404 
Q 1656 2128 1656 1613 
L 1656 0 
L 538 0 
L 538 3500 
L 1656 3500 
L 1656 2925 
Q 1872 3269 2151 3426 
Q 2431 3584 2822 3584 
Q 2878 3584 2943 3579 
Q 3009 3575 3134 3559 
L 3138 2547 
z
" transform="scale(0.015625)"/>
      <path id="DejaVuSans-Bold-57" d="M 191 4666 
L 1344 4666 
L 2150 1275 
L 2950 4666 
L 4109 4666 
L 4909 1275 
L 5716 4666 
L 6859 4666 
L 5759 0 
L 4372 0 
L 3525 3547 
L 2688 0 
L 1300 0 
L 191 4666 
z
" transform="scale(0.015625)"/>
      <path id="DejaVuSans-Bold-43" d="M 4288 256 
Q 3956 84 3597 -3 
Q 3238 -91 2847 -91 
Q 1681 -91 1000 561 
Q 319 1213 319 2328 
Q 319 3447 1000 4098 
Q 1681 4750 2847 4750 
Q 3238 4750 3597 4662 
Q 3956 4575 4288 4403 
L 4288 3438 
Q 3953 3666 3628 3772 
Q 3303 3878 2944 3878 
Q 2300 3878 1931 3465 
Q 1563 3053 1563 2328 
Q 1563 1606 1931 1193 
Q 2300 781 2944 781 
Q 3303 781 3628 887 
Q 3953 994 4288 1222 
L 4288 256 
z
" transform="scale(0.015625)"/>
      <path id="DejaVuSans-Bold-44" d="M 1791 3756 
L 1791 909 
L 2222 909 
Q 2959 909 3348 1275 
Q 3738 1641 3738 2338 
Q 3738 3031 3350 3393 
Q 2963 3756 2222 3756 
L 1791 3756 
z
M 588 4666 
L 1856 4666 
Q 2919 4666 3439 4514 
Q 3959 4363 4331 4000 
Q 4659 3684 4818 3271 
Q 4978 2859 4978 2338 
Q 4978 1809 4818 1395 
Q 4659 981 4331 666 
Q 3956 303 3431 151 
Q 2906 0 1856 0 
L 588 0 
L 588 4666 
z
" transform="scale(0.015625)"/>
      <path id="DejaVuSans-Bold-32" d="M 1844 884 
L 3897 884 
L 3897 0 
L 506 0 
L 506 884 
L 2209 2388 
Q 2438 2594 2547 2791 
Q 2656 2988 2656 3200 
Q 2656 3528 2436 3728 
Q 2216 3928 1850 3928 
Q 1569 3928 1234 3808 
Q 900 3688 519 3450 
L 519 4475 
Q 925 4609 1322 4679 
Q 1719 4750 2100 4750 
Q 2938 4750 3402 4381 
Q 3866 4013 3866 3353 
Q 3866 2972 3669 2642 
Q 3472 2313 2841 1759 
L 1844 884 
z
" transform="scale(0.015625)"/>
      <path id="DejaVuSans-Bold-31" d="M 750 831 
L 1813 831 
L 1813 3847 
L 722 3622 
L 722 4441 
L 1806 4666 
L 2950 4666 
L 2950 831 
L 4013 831 
L 4013 0 
L 750 0 
L 750 831 
z
" transform="scale(0.015625)"/>
      <path id="DejaVuSans-Bold-35" d="M 678 4666 
L 3669 4666 
L 3669 3781 
L 1638 3781 
L 1638 3059 
Q 1775 3097 1914 3117 
Q 2053 3138 2203 3138 
Q 3056 3138 3531 2711 
Q 4006 2284 4006 1522 
Q 4006 766 3489 337 
Q 2972 -91 2053 -91 
Q 1656 -91 1267 -14 
Q 878 63 494 219 
L 494 1166 
Q 875 947 1217 837 
Q 1559 728 1863 728 
Q 2300 728 2551 942 
Q 2803 1156 2803 1522 
Q 2803 1891 2551 2103 
Q 2300 2316 1863 2316 
Q 1603 2316 1309 2248 
Q 1016 2181 678 2041 
L 678 4666 
z
" transform="scale(0.015625)"/>
      <path id="DejaVuSans-Bold-36" d="M 2316 2303 
Q 2000 2303 1842 2098 
Q 1684 1894 1684 1484 
Q 1684 1075 1842 870 
Q 2000 666 2316 666 
Q 2634 666 2792 870 
Q 2950 1075 2950 1484 
Q 2950 1894 2792 2098 
Q 2634 2303 2316 2303 
z
M 3803 4544 
L 3803 3681 
Q 3506 3822 3243 3889 
Q 2981 3956 2731 3956 
Q 2194 3956 1894 3657 
Q 1594 3359 1544 2772 
Q 1750 2925 1990 3001 
Q 2231 3078 2516 3078 
Q 3231 3078 3670 2659 
Q 4109 2241 4109 1563 
Q 4109 813 3618 361 
Q 3128 -91 2303 -91 
Q 1394 -91 895 523 
Q 397 1138 397 2266 
Q 397 3422 980 4083 
Q 1563 4744 2578 4744 
Q 2900 4744 3203 4694 
Q 3506 4644 3803 4544 
z
" transform="scale(0.015625)"/>
      <path id="DejaVuSans-Bold-37" d="M 428 4666 
L 3944 4666 
L 3944 3988 
L 2125 0 
L 953 0 
L 2675 3781 
L 428 3781 
L 428 4666 
z
" transform="scale(0.015625)"/>
     </defs>
     <use xlink:href="#DejaVuSans-Bold-53"/>
     <use xlink:href="#DejaVuSans-Bold-47" x="72.021484"/>
     <use xlink:href="#DejaVuSans-Bold-49" x="154.101562"/>
     <use xlink:href="#DejaVuSans-Bold-20" x="191.308594"/>
     <use xlink:href="#DejaVuSans-Bold-66" x="226.123047"/>
     <use xlink:href="#DejaVuSans-Bold-6f" x="269.628906"/>
     <use xlink:href="#DejaVuSans-Bold-72" x="338.330078"/>
     <use xlink:href="#DejaVuSans-Bold-20" x="387.646484"/>
     <use xlink:href="#DejaVuSans-Bold-47" x="422.460938"/>
     <use xlink:href="#DejaVuSans-Bold-57" x="504.541016"/>
     <use xlink:href="#DejaVuSans-Bold-49" x="614.84375"/>
     <use xlink:href="#DejaVuSans-Bold-43" x="652.050781"/>
     <use xlink:href="#DejaVuSans-Bold-20" x="725.439453"/>
     <use xlink:href="#DejaVuSans-Bold-49" x="760.253906"/>
     <use xlink:href="#DejaVuSans-Bold-44" x="797.460938"/>
     <use xlink:href="#DejaVuSans-Bold-20" x="880.46875"/>
     <use xlink:href="#DejaVuSans-Bold-32" x="915.283203"/>
     <use xlink:href="#DejaVuSans-Bold-31" x="984.863281"/>
     <use xlink:href="#DejaVuSans-Bold-35" x="1054.443359"/>
     <use xlink:href="#DejaVuSans-Bold-36" x="1124.023438"/>
     <use xlink:href="#DejaVuSans-Bold-37" x="1193.603516"/>
    </g>
   </g>
   <g id="PathCollection_1">
    <defs>
     <path id="ma33ca89dd7" d="M 0 3 
C 0.795609 3 1.55874 2.683901 2.12132 2.12132 
C 2.683901 1.55874 3 0.795609 3 0 
C 3 -0.795609 2.683901 -1.55874 2.12132 -2.12132 
C 1.55874 -2.683901 0.795609 -3 0 -3 
C -0.795609 -3 -1.55874 -2.683901 -2.12132 -2.12132 
C -2.683901 -1.55874 -3 -0.795609 -3 0 
C -3 0.795609 -2.683901 1.55874 -2.12132 2.12132 
C -1.55874 2.683901 -0.795609 3 0 3 
z
" style="stroke: #ffffff; stroke-width: 0.48"/>
    </defs>
    <g clip-path="url(#pc117b9d2ec)">
     <use xlink:href="#ma33ca89dd7" x="135" y="139.216621" style="stroke: #ffffff; stroke-width: 0.48"/>
     <use xlink:href="#ma33ca89dd7" x="142.618878" y="156.527265" style="stroke: #ffffff; stroke-width: 0.48"/>
     <use xlink:href="#ma33ca89dd7" x="147.670525" y="229.060791" style="stroke: #ffffff; stroke-width: 0.48"/>
     <use xlink:href="#ma33ca89dd7" x="155.289403" y="162.282229" style="stroke: #ffffff; stroke-width: 0.48"/>
     <use xlink:href="#ma33ca89dd7" x="172.845948" y="115.533258" style="stroke: #ffffff; stroke-width: 0.48"/>
     <use xlink:href="#ma33ca89dd7" x="177.897596" y="111.234479" style="stroke: #ffffff; stroke-width: 0.48"/>
     <use xlink:href="#ma33ca89dd7" x="185.516474" y="111.234479" style="stroke: #ffffff; stroke-width: 0.48"/>
     <use xlink:href="#ma33ca89dd7" x="192.969724" y="173.552679" style="stroke: #ffffff; stroke-width: 0.48"/>
     <use xlink:href="#ma33ca89dd7" x="203.073019" y="55.8" style="stroke: #ffffff; stroke-width: 0.48"/>
     <use xlink:href="#ma33ca89dd7" x="210.691897" y="122.464093" style="stroke: #ffffff; stroke-width: 0.48"/>
     <use xlink:href="#ma33ca89dd7" x="218.310775" y="98.634756" style="stroke: #ffffff; stroke-width: 0.48"/>
     <use xlink:href="#ma33ca89dd7" x="225.764025" y="107.593404" style="stroke: #ffffff; stroke-width: 0.48"/>
     <use xlink:href="#ma33ca89dd7" x="233.382903" y="86.413344" style="stroke: #ffffff; stroke-width: 0.48"/>
     <use xlink:href="#ma33ca89dd7" x="250.939448" y="111.234479" style="stroke: #ffffff; stroke-width: 0.48"/>
     <use xlink:href="#ma33ca89dd7" x="255.991095" y="146.141819" style="stroke: #ffffff; stroke-width: 0.48"/>
     <use xlink:href="#ma33ca89dd7" x="263.609973" y="134.448806" style="stroke: #ffffff; stroke-width: 0.48"/>
     <use xlink:href="#ma33ca89dd7" x="271.228851" y="60.277855" style="stroke: #ffffff; stroke-width: 0.48"/>
     <use xlink:href="#ma33ca89dd7" x="278.847729" y="102.567981" style="stroke: #ffffff; stroke-width: 0.48"/>
     <use xlink:href="#ma33ca89dd7" x="286.218166" y="117.609787" style="stroke: #ffffff; stroke-width: 0.48"/>
     <use xlink:href="#ma33ca89dd7" x="293.837044" y="103.181209" style="stroke: #ffffff; stroke-width: 0.48"/>
     <use xlink:href="#ma33ca89dd7" x="309.0748" y="121.064646" style="stroke: #ffffff; stroke-width: 0.48"/>
     <use xlink:href="#ma33ca89dd7" x="316.445236" y="57.926304" style="stroke: #ffffff; stroke-width: 0.48"/>
     <use xlink:href="#ma33ca89dd7" x="324.064114" y="213.941273" style="stroke: #ffffff; stroke-width: 0.48"/>
     <use xlink:href="#ma33ca89dd7" x="331.682992" y="208.959434" style="stroke: #ffffff; stroke-width: 0.48"/>
     <use xlink:href="#ma33ca89dd7" x="339.30187" y="155.503011" style="stroke: #ffffff; stroke-width: 0.48"/>
     <use xlink:href="#ma33ca89dd7" x="346.75512" y="89.01431" style="stroke: #ffffff; stroke-width: 0.48"/>
     <use xlink:href="#ma33ca89dd7" x="354.373998" y="142.358277" style="stroke: #ffffff; stroke-width: 0.48"/>
     <use xlink:href="#ma33ca89dd7" x="364.477293" y="181.800006" style="stroke: #ffffff; stroke-width: 0.48"/>
     <use xlink:href="#ma33ca89dd7" x="376.982191" y="129.237463" style="stroke: #ffffff; stroke-width: 0.48"/>
     <use xlink:href="#ma33ca89dd7" x="384.601069" y="194.160761" style="stroke: #ffffff; stroke-width: 0.48"/>
     <use xlink:href="#ma33ca89dd7" x="392.219947" y="220.881929" style="stroke: #ffffff; stroke-width: 0.48"/>
     <use xlink:href="#ma33ca89dd7" x="399.838825" y="213.05212" style="stroke: #ffffff; stroke-width: 0.48"/>
     <use xlink:href="#ma33ca89dd7" x="407.209261" y="177.686873" style="stroke: #ffffff; stroke-width: 0.48"/>
     <use xlink:href="#ma33ca89dd7" x="414.828139" y="248.066742" style="stroke: #ffffff; stroke-width: 0.48"/>
     <use xlink:href="#ma33ca89dd7" x="417.39537" y="159.522982" style="stroke: #ffffff; stroke-width: 0.48"/>
     <use xlink:href="#ma33ca89dd7" x="422.447017" y="240.67739" style="stroke: #ffffff; stroke-width: 0.48"/>
     <use xlink:href="#ma33ca89dd7" x="430.065895" y="175.51464" style="stroke: #ffffff; stroke-width: 0.48"/>
     <use xlink:href="#ma33ca89dd7" x="437.436331" y="153.77594" style="stroke: #ffffff; stroke-width: 0.48"/>
     <use xlink:href="#ma33ca89dd7" x="445.055209" y="260.418791" style="stroke: #ffffff; stroke-width: 0.48"/>
     <use xlink:href="#ma33ca89dd7" x="452.674087" y="230.759648" style="stroke: #ffffff; stroke-width: 0.48"/>
     <use xlink:href="#ma33ca89dd7" x="460.292965" y="199.878431" style="stroke: #ffffff; stroke-width: 0.48"/>
     <use xlink:href="#ma33ca89dd7" x="467.746215" y="169.802656" style="stroke: #ffffff; stroke-width: 0.48"/>
     <use xlink:href="#ma33ca89dd7" x="475.365093" y="166.285557" style="stroke: #ffffff; stroke-width: 0.48"/>
     <use xlink:href="#ma33ca89dd7" x="482.983972" y="143.179879" style="stroke: #ffffff; stroke-width: 0.48"/>
     <use xlink:href="#ma33ca89dd7" x="490.60285" y="140.914056" style="stroke: #ffffff; stroke-width: 0.48"/>
     <use xlink:href="#ma33ca89dd7" x="497.973286" y="192.956269" style="stroke: #ffffff; stroke-width: 0.48"/>
     <use xlink:href="#ma33ca89dd7" x="505.592164" y="237.940482" style="stroke: #ffffff; stroke-width: 0.48"/>
     <use xlink:href="#ma33ca89dd7" x="513.211042" y="133.254816" style="stroke: #ffffff; stroke-width: 0.48"/>
     <use xlink:href="#ma33ca89dd7" x="520.82992" y="173.918878" style="stroke: #ffffff; stroke-width: 0.48"/>
     <use xlink:href="#ma33ca89dd7" x="528.200356" y="212.104677" style="stroke: #ffffff; stroke-width: 0.48"/>
     <use xlink:href="#ma33ca89dd7" x="530.767587" y="130.716799" style="stroke: #ffffff; stroke-width: 0.48"/>
     <use xlink:href="#ma33ca89dd7" x="533.252004" y="138.845443" style="stroke: #ffffff; stroke-width: 0.48"/>
     <use xlink:href="#ma33ca89dd7" x="543.438112" y="303.322145" style="stroke: #ffffff; stroke-width: 0.48"/>
     <use xlink:href="#ma33ca89dd7" x="551.05699" y="59.071153" style="stroke: #ffffff; stroke-width: 0.48"/>
     <use xlink:href="#ma33ca89dd7" x="555.94301" y="169.815608" style="stroke: #ffffff; stroke-width: 0.48"/>
     <use xlink:href="#ma33ca89dd7" x="566.046305" y="207.072735" style="stroke: #ffffff; stroke-width: 0.48"/>
     <use xlink:href="#ma33ca89dd7" x="573.665183" y="174.47762" style="stroke: #ffffff; stroke-width: 0.48"/>
     <use xlink:href="#ma33ca89dd7" x="581.284061" y="190.063017" style="stroke: #ffffff; stroke-width: 0.48"/>
     <use xlink:href="#ma33ca89dd7" x="588.737311" y="246.089465" style="stroke: #ffffff; stroke-width: 0.48"/>
     <use xlink:href="#ma33ca89dd7" x="596.356189" y="125.659518" style="stroke: #ffffff; stroke-width: 0.48"/>
     <use xlink:href="#ma33ca89dd7" x="603.975067" y="157.072999" style="stroke: #ffffff; stroke-width: 0.48"/>
     <use xlink:href="#ma33ca89dd7" x="611.593945" y="173.918878" style="stroke: #ffffff; stroke-width: 0.48"/>
     <use xlink:href="#ma33ca89dd7" x="618.964381" y="183.116786" style="stroke: #ffffff; stroke-width: 0.48"/>
     <use xlink:href="#ma33ca89dd7" x="626.583259" y="187.945831" style="stroke: #ffffff; stroke-width: 0.48"/>
     <use xlink:href="#ma33ca89dd7" x="634.202137" y="153.302746" style="stroke: #ffffff; stroke-width: 0.48"/>
     <use xlink:href="#ma33ca89dd7" x="641.821015" y="154.060632" style="stroke: #ffffff; stroke-width: 0.48"/>
     <use xlink:href="#ma33ca89dd7" x="649.191451" y="224.950286" style="stroke: #ffffff; stroke-width: 0.48"/>
     <use xlink:href="#ma33ca89dd7" x="656.810329" y="200.51085" style="stroke: #ffffff; stroke-width: 0.48"/>
     <use xlink:href="#ma33ca89dd7" x="664.429207" y="91.908063" style="stroke: #ffffff; stroke-width: 0.48"/>
     <use xlink:href="#ma33ca89dd7" x="672.048085" y="145.861797" style="stroke: #ffffff; stroke-width: 0.48"/>
     <use xlink:href="#ma33ca89dd7" x="679.418522" y="162.277663" style="stroke: #ffffff; stroke-width: 0.48"/>
     <use xlink:href="#ma33ca89dd7" x="687.0374" y="149.658727" style="stroke: #ffffff; stroke-width: 0.48"/>
     <use xlink:href="#ma33ca89dd7" x="694.656278" y="167.037822" style="stroke: #ffffff; stroke-width: 0.48"/>
     <use xlink:href="#ma33ca89dd7" x="702.275156" y="181.945115" style="stroke: #ffffff; stroke-width: 0.48"/>
     <use xlink:href="#ma33ca89dd7" x="707.243989" y="222.058047" style="stroke: #ffffff; stroke-width: 0.48"/>
     <use xlink:href="#ma33ca89dd7" x="709.728406" y="184.925544" style="stroke: #ffffff; stroke-width: 0.48"/>
     <use xlink:href="#ma33ca89dd7" x="717.347284" y="221.241723" style="stroke: #ffffff; stroke-width: 0.48"/>
     <use xlink:href="#ma33ca89dd7" x="724.966162" y="204.229013" style="stroke: #ffffff; stroke-width: 0.48"/>
     <use xlink:href="#ma33ca89dd7" x="732.58504" y="304.528828" style="stroke: #ffffff; stroke-width: 0.48"/>
     <use xlink:href="#ma33ca89dd7" x="734.903829" y="168.724247" style="stroke: #ffffff; stroke-width: 0.48"/>
     <use xlink:href="#ma33ca89dd7" x="737.47106" y="253.109243" style="stroke: #ffffff; stroke-width: 0.48"/>
     <use xlink:href="#ma33ca89dd7" x="739.955476" y="278.344009" style="stroke: #ffffff; stroke-width: 0.48"/>
     <use xlink:href="#ma33ca89dd7" x="742.522707" y="194.770799" style="stroke: #ffffff; stroke-width: 0.48"/>
     <use xlink:href="#ma33ca89dd7" x="745.007124" y="194.490222" style="stroke: #ffffff; stroke-width: 0.48"/>
     <use xlink:href="#ma33ca89dd7" x="750.141585" y="204.077018" style="stroke: #ffffff; stroke-width: 0.48"/>
     <use xlink:href="#ma33ca89dd7" x="752.626002" y="211.734551" style="stroke: #ffffff; stroke-width: 0.48"/>
     <use xlink:href="#ma33ca89dd7" x="755.193232" y="188.213751" style="stroke: #ffffff; stroke-width: 0.48"/>
     <use xlink:href="#ma33ca89dd7" x="757.677649" y="223.023714" style="stroke: #ffffff; stroke-width: 0.48"/>
     <use xlink:href="#ma33ca89dd7" x="760.24488" y="223.153473" style="stroke: #ffffff; stroke-width: 0.48"/>
     <use xlink:href="#ma33ca89dd7" x="762.81211" y="238.084833" style="stroke: #ffffff; stroke-width: 0.48"/>
     <use xlink:href="#ma33ca89dd7" x="765.130899" y="209.095097" style="stroke: #ffffff; stroke-width: 0.48"/>
     <use xlink:href="#ma33ca89dd7" x="767.69813" y="162.218722" style="stroke: #ffffff; stroke-width: 0.48"/>
     <use xlink:href="#ma33ca89dd7" x="770.182547" y="250.91525" style="stroke: #ffffff; stroke-width: 0.48"/>
     <use xlink:href="#ma33ca89dd7" x="772.749777" y="216.383035" style="stroke: #ffffff; stroke-width: 0.48"/>
     <use xlink:href="#ma33ca89dd7" x="775.234194" y="170.4649" style="stroke: #ffffff; stroke-width: 0.48"/>
     <use xlink:href="#ma33ca89dd7" x="777.801425" y="181.799994" style="stroke: #ffffff; stroke-width: 0.48"/>
     <use xlink:href="#ma33ca89dd7" x="785.420303" y="182.701877" style="stroke: #ffffff; stroke-width: 0.48"/>
     <use xlink:href="#ma33ca89dd7" x="793.039181" y="213.05212" style="stroke: #ffffff; stroke-width: 0.48"/>
     <use xlink:href="#ma33ca89dd7" x="800.409617" y="209.55646" style="stroke: #ffffff; stroke-width: 0.48"/>
     <use xlink:href="#ma33ca89dd7" x="808.028495" y="307.8" style="stroke: #ffffff; stroke-width: 0.48"/>
     <use xlink:href="#ma33ca89dd7" x="815.647373" y="271.691937" style="stroke: #ffffff; stroke-width: 0.48"/>
     <use xlink:href="#ma33ca89dd7" x="823.266251" y="262.177627" style="stroke: #ffffff; stroke-width: 0.48"/>
     <use xlink:href="#ma33ca89dd7" x="830.719501" y="272.384287" style="stroke: #ffffff; stroke-width: 0.48"/>
     <use xlink:href="#ma33ca89dd7" x="838.338379" y="277.186656" style="stroke: #ffffff; stroke-width: 0.48"/>
     <use xlink:href="#ma33ca89dd7" x="845.957257" y="254.14291" style="stroke: #ffffff; stroke-width: 0.48"/>
     <use xlink:href="#ma33ca89dd7" x="853.576135" y="244.764038" style="stroke: #ffffff; stroke-width: 0.48"/>
     <use xlink:href="#ma33ca89dd7" x="860.946572" y="224.950286" style="stroke: #ffffff; stroke-width: 0.48"/>
     <use xlink:href="#ma33ca89dd7" x="868.56545" y="166.285557" style="stroke: #ffffff; stroke-width: 0.48"/>
     <use xlink:href="#ma33ca89dd7" x="876.184328" y="109.429103" style="stroke: #ffffff; stroke-width: 0.48"/>
     <use xlink:href="#ma33ca89dd7" x="883.803206" y="208.099672" style="stroke: #ffffff; stroke-width: 0.48"/>
     <use xlink:href="#ma33ca89dd7" x="891.173642" y="224.950286" style="stroke: #ffffff; stroke-width: 0.48"/>
     <use xlink:href="#ma33ca89dd7" x="898.79252" y="175.654169" style="stroke: #ffffff; stroke-width: 0.48"/>
     <use xlink:href="#ma33ca89dd7" x="906.411398" y="199.630171" style="stroke: #ffffff; stroke-width: 0.48"/>
     <use xlink:href="#ma33ca89dd7" x="914.030276" y="234.730475" style="stroke: #ffffff; stroke-width: 0.48"/>
     <use xlink:href="#ma33ca89dd7" x="918.916296" y="114.084545" style="stroke: #ffffff; stroke-width: 0.48"/>
     <use xlink:href="#ma33ca89dd7" x="929.01959" y="229.151194" style="stroke: #ffffff; stroke-width: 0.48"/>
     <use xlink:href="#ma33ca89dd7" x="939.122885" y="140.576286" style="stroke: #ffffff; stroke-width: 0.48"/>
     <use xlink:href="#ma33ca89dd7" x="946.658949" y="230.734688" style="stroke: #ffffff; stroke-width: 0.48"/>
     <use xlink:href="#ma33ca89dd7" x="956.762244" y="223.068719" style="stroke: #ffffff; stroke-width: 0.48"/>
     <use xlink:href="#ma33ca89dd7" x="964.381122" y="167.560309" style="stroke: #ffffff; stroke-width: 0.48"/>
     <use xlink:href="#ma33ca89dd7" x="972" y="223.153473" style="stroke: #ffffff; stroke-width: 0.48"/>
    </g>
   </g>
  </g>
 </g>
 <defs>
  <clipPath id="pc117b9d2ec">
   <rect x="135" y="43.2" width="837" height="277.2"/>
  </clipPath>
 </defs>
</svg>
