<?xml version="1.0" encoding="utf-8" standalone="no"?>
<!DOCTYPE svg PUBLIC "-//W3C//DTD SVG 1.1//EN"
  "http://www.w3.org/Graphics/SVG/1.1/DTD/svg11.dtd">
<svg xmlns:xlink="http://www.w3.org/1999/xlink" width="1080pt" height="360pt" viewBox="0 0 1080 360" xmlns="http://www.w3.org/2000/svg" version="1.1">
 <metadata>
  <rdf:RDF xmlns:dc="http://purl.org/dc/elements/1.1/" xmlns:cc="http://creativecommons.org/ns#" xmlns:rdf="http://www.w3.org/1999/02/22-rdf-syntax-ns#">
   <cc:Work>
    <dc:type rdf:resource="http://purl.org/dc/dcmitype/StillImage"/>
    <dc:date>2024-01-23T18:50:26.024317</dc:date>
    <dc:format>image/svg+xml</dc:format>
    <dc:creator>
     <cc:Agent>
      <dc:title>Matplotlib v3.8.2, https://matplotlib.org/</dc:title>
     </cc:Agent>
    </dc:creator>
   </cc:Work>
  </rdf:RDF>
 </metadata>
 <defs>
  <style type="text/css">*{stroke-linejoin: round; stroke-linecap: butt}</style>
 </defs>
 <g id="figure_1">
  <g id="patch_1">
   <path d="M 0 360 
L 1080 360 
L 1080 0 
L 0 0 
z
" style="fill: #ffffff"/>
  </g>
  <g id="axes_1">
   <g id="patch_2">
    <path d="M 135 320.4 
L 972 320.4 
L 972 43.2 
L 135 43.2 
z
" style="fill: #ffffff"/>
   </g>
   <g id="PolyCollection_1"/>
   <g id="matplotlib.axis_1">
    <g id="xtick_1">
     <g id="line2d_1">
      <defs>
       <path id="m0fd37884ab" d="M 0 0 
L 0 3.5 
" style="stroke: #000000; stroke-width: 0.8"/>
      </defs>
      <g>
       <use xlink:href="#m0fd37884ab" x="206.510517" y="320.4" style="stroke: #000000; stroke-width: 0.8"/>
      </g>
     </g>
     <g id="text_1">
      <!-- 1996 -->
      <g transform="translate(193.785517 334.998438) scale(0.1 -0.1)">
       <defs>
        <path id="DejaVuSans-31" d="M 794 531 
L 1825 531 
L 1825 4091 
L 703 3866 
L 703 4441 
L 1819 4666 
L 2450 4666 
L 2450 531 
L 3481 531 
L 3481 0 
L 794 0 
L 794 531 
z
" transform="scale(0.015625)"/>
        <path id="DejaVuSans-39" d="M 703 97 
L 703 672 
Q 941 559 1184 500 
Q 1428 441 1663 441 
Q 2288 441 2617 861 
Q 2947 1281 2994 2138 
Q 2813 1869 2534 1725 
Q 2256 1581 1919 1581 
Q 1219 1581 811 2004 
Q 403 2428 403 3163 
Q 403 3881 828 4315 
Q 1253 4750 1959 4750 
Q 2769 4750 3195 4129 
Q 3622 3509 3622 2328 
Q 3622 1225 3098 567 
Q 2575 -91 1691 -91 
Q 1453 -91 1209 -44 
Q 966 3 703 97 
z
M 1959 2075 
Q 2384 2075 2632 2365 
Q 2881 2656 2881 3163 
Q 2881 3666 2632 3958 
Q 2384 4250 1959 4250 
Q 1534 4250 1286 3958 
Q 1038 3666 1038 3163 
Q 1038 2656 1286 2365 
Q 1534 2075 1959 2075 
z
" transform="scale(0.015625)"/>
        <path id="DejaVuSans-36" d="M 2113 2584 
Q 1688 2584 1439 2293 
Q 1191 2003 1191 1497 
Q 1191 994 1439 701 
Q 1688 409 2113 409 
Q 2538 409 2786 701 
Q 3034 994 3034 1497 
Q 3034 2003 2786 2293 
Q 2538 2584 2113 2584 
z
M 3366 4563 
L 3366 3988 
Q 3128 4100 2886 4159 
Q 2644 4219 2406 4219 
Q 1781 4219 1451 3797 
Q 1122 3375 1075 2522 
Q 1259 2794 1537 2939 
Q 1816 3084 2150 3084 
Q 2853 3084 3261 2657 
Q 3669 2231 3669 1497 
Q 3669 778 3244 343 
Q 2819 -91 2113 -91 
Q 1303 -91 875 529 
Q 447 1150 447 2328 
Q 447 3434 972 4092 
Q 1497 4750 2381 4750 
Q 2619 4750 2861 4703 
Q 3103 4656 3366 4563 
z
" transform="scale(0.015625)"/>
       </defs>
       <use xlink:href="#DejaVuSans-31"/>
       <use xlink:href="#DejaVuSans-39" x="63.623047"/>
       <use xlink:href="#DejaVuSans-39" x="127.246094"/>
       <use xlink:href="#DejaVuSans-36" x="190.869141"/>
      </g>
     </g>
    </g>
    <g id="xtick_2">
     <g id="line2d_2">
      <g>
       <use xlink:href="#m0fd37884ab" x="328.992188" y="320.4" style="stroke: #000000; stroke-width: 0.8"/>
      </g>
     </g>
     <g id="text_2">
      <!-- 2000 -->
      <g transform="translate(316.267187 334.998438) scale(0.1 -0.1)">
       <defs>
        <path id="DejaVuSans-32" d="M 1228 531 
L 3431 531 
L 3431 0 
L 469 0 
L 469 531 
Q 828 903 1448 1529 
Q 2069 2156 2228 2338 
Q 2531 2678 2651 2914 
Q 2772 3150 2772 3378 
Q 2772 3750 2511 3984 
Q 2250 4219 1831 4219 
Q 1534 4219 1204 4116 
Q 875 4013 500 3803 
L 500 4441 
Q 881 4594 1212 4672 
Q 1544 4750 1819 4750 
Q 2544 4750 2975 4387 
Q 3406 4025 3406 3419 
Q 3406 3131 3298 2873 
Q 3191 2616 2906 2266 
Q 2828 2175 2409 1742 
Q 1991 1309 1228 531 
z
" transform="scale(0.015625)"/>
        <path id="DejaVuSans-30" d="M 2034 4250 
Q 1547 4250 1301 3770 
Q 1056 3291 1056 2328 
Q 1056 1369 1301 889 
Q 1547 409 2034 409 
Q 2525 409 2770 889 
Q 3016 1369 3016 2328 
Q 3016 3291 2770 3770 
Q 2525 4250 2034 4250 
z
M 2034 4750 
Q 2819 4750 3233 4129 
Q 3647 3509 3647 2328 
Q 3647 1150 3233 529 
Q 2819 -91 2034 -91 
Q 1250 -91 836 529 
Q 422 1150 422 2328 
Q 422 3509 836 4129 
Q 1250 4750 2034 4750 
z
" transform="scale(0.015625)"/>
       </defs>
       <use xlink:href="#DejaVuSans-32"/>
       <use xlink:href="#DejaVuSans-30" x="63.623047"/>
       <use xlink:href="#DejaVuSans-30" x="127.246094"/>
       <use xlink:href="#DejaVuSans-30" x="190.869141"/>
      </g>
     </g>
    </g>
    <g id="xtick_3">
     <g id="line2d_3">
      <g>
       <use xlink:href="#m0fd37884ab" x="451.473858" y="320.4" style="stroke: #000000; stroke-width: 0.8"/>
      </g>
     </g>
     <g id="text_3">
      <!-- 2004 -->
      <g transform="translate(438.748858 334.998438) scale(0.1 -0.1)">
       <defs>
        <path id="DejaVuSans-34" d="M 2419 4116 
L 825 1625 
L 2419 1625 
L 2419 4116 
z
M 2253 4666 
L 3047 4666 
L 3047 1625 
L 3713 1625 
L 3713 1100 
L 3047 1100 
L 3047 0 
L 2419 0 
L 2419 1100 
L 313 1100 
L 313 1709 
L 2253 4666 
z
" transform="scale(0.015625)"/>
       </defs>
       <use xlink:href="#DejaVuSans-32"/>
       <use xlink:href="#DejaVuSans-30" x="63.623047"/>
       <use xlink:href="#DejaVuSans-30" x="127.246094"/>
       <use xlink:href="#DejaVuSans-34" x="190.869141"/>
      </g>
     </g>
    </g>
    <g id="xtick_4">
     <g id="line2d_4">
      <g>
       <use xlink:href="#m0fd37884ab" x="573.955529" y="320.4" style="stroke: #000000; stroke-width: 0.8"/>
      </g>
     </g>
     <g id="text_4">
      <!-- 2008 -->
      <g transform="translate(561.230529 334.998438) scale(0.1 -0.1)">
       <defs>
        <path id="DejaVuSans-38" d="M 2034 2216 
Q 1584 2216 1326 1975 
Q 1069 1734 1069 1313 
Q 1069 891 1326 650 
Q 1584 409 2034 409 
Q 2484 409 2743 651 
Q 3003 894 3003 1313 
Q 3003 1734 2745 1975 
Q 2488 2216 2034 2216 
z
M 1403 2484 
Q 997 2584 770 2862 
Q 544 3141 544 3541 
Q 544 4100 942 4425 
Q 1341 4750 2034 4750 
Q 2731 4750 3128 4425 
Q 3525 4100 3525 3541 
Q 3525 3141 3298 2862 
Q 3072 2584 2669 2484 
Q 3125 2378 3379 2068 
Q 3634 1759 3634 1313 
Q 3634 634 3220 271 
Q 2806 -91 2034 -91 
Q 1263 -91 848 271 
Q 434 634 434 1313 
Q 434 1759 690 2068 
Q 947 2378 1403 2484 
z
M 1172 3481 
Q 1172 3119 1398 2916 
Q 1625 2713 2034 2713 
Q 2441 2713 2670 2916 
Q 2900 3119 2900 3481 
Q 2900 3844 2670 4047 
Q 2441 4250 2034 4250 
Q 1625 4250 1398 4047 
Q 1172 3844 1172 3481 
z
" transform="scale(0.015625)"/>
       </defs>
       <use xlink:href="#DejaVuSans-32"/>
       <use xlink:href="#DejaVuSans-30" x="63.623047"/>
       <use xlink:href="#DejaVuSans-30" x="127.246094"/>
       <use xlink:href="#DejaVuSans-38" x="190.869141"/>
      </g>
     </g>
    </g>
    <g id="xtick_5">
     <g id="line2d_5">
      <g>
       <use xlink:href="#m0fd37884ab" x="696.4372" y="320.4" style="stroke: #000000; stroke-width: 0.8"/>
      </g>
     </g>
     <g id="text_5">
      <!-- 2012 -->
      <g transform="translate(683.7122 334.998438) scale(0.1 -0.1)">
       <use xlink:href="#DejaVuSans-32"/>
       <use xlink:href="#DejaVuSans-30" x="63.623047"/>
       <use xlink:href="#DejaVuSans-31" x="127.246094"/>
       <use xlink:href="#DejaVuSans-32" x="190.869141"/>
      </g>
     </g>
    </g>
    <g id="xtick_6">
     <g id="line2d_6">
      <g>
       <use xlink:href="#m0fd37884ab" x="818.91887" y="320.4" style="stroke: #000000; stroke-width: 0.8"/>
      </g>
     </g>
     <g id="text_6">
      <!-- 2016 -->
      <g transform="translate(806.19387 334.998438) scale(0.1 -0.1)">
       <use xlink:href="#DejaVuSans-32"/>
       <use xlink:href="#DejaVuSans-30" x="63.623047"/>
       <use xlink:href="#DejaVuSans-31" x="127.246094"/>
       <use xlink:href="#DejaVuSans-36" x="190.869141"/>
      </g>
     </g>
    </g>
    <g id="xtick_7">
     <g id="line2d_7">
      <g>
       <use xlink:href="#m0fd37884ab" x="941.400541" y="320.4" style="stroke: #000000; stroke-width: 0.8"/>
      </g>
     </g>
     <g id="text_7">
      <!-- 2020 -->
      <g transform="translate(928.675541 334.998438) scale(0.1 -0.1)">
       <use xlink:href="#DejaVuSans-32"/>
       <use xlink:href="#DejaVuSans-30" x="63.623047"/>
       <use xlink:href="#DejaVuSans-32" x="127.246094"/>
       <use xlink:href="#DejaVuSans-30" x="190.869141"/>
      </g>
     </g>
    </g>
   </g>
   <g id="matplotlib.axis_2">
    <g id="ytick_1">
     <g id="line2d_8">
      <defs>
       <path id="m6610667fa9" d="M 0 0 
L -3.5 0 
" style="stroke: #000000; stroke-width: 0.8"/>
      </defs>
      <g>
       <use xlink:href="#m6610667fa9" x="135" y="305.484699" style="stroke: #000000; stroke-width: 0.8"/>
      </g>
     </g>
     <g id="text_8">
      <!-- −2.0 -->
      <g transform="translate(103.717187 309.283918) scale(0.1 -0.1)">
       <defs>
        <path id="DejaVuSans-2212" d="M 678 2272 
L 4684 2272 
L 4684 1741 
L 678 1741 
L 678 2272 
z
" transform="scale(0.015625)"/>
        <path id="DejaVuSans-2e" d="M 684 794 
L 1344 794 
L 1344 0 
L 684 0 
L 684 794 
z
" transform="scale(0.015625)"/>
       </defs>
       <use xlink:href="#DejaVuSans-2212"/>
       <use xlink:href="#DejaVuSans-32" x="83.789062"/>
       <use xlink:href="#DejaVuSans-2e" x="147.412109"/>
       <use xlink:href="#DejaVuSans-30" x="179.199219"/>
      </g>
     </g>
    </g>
    <g id="ytick_2">
     <g id="line2d_9">
      <g>
       <use xlink:href="#m6610667fa9" x="135" y="274.425705" style="stroke: #000000; stroke-width: 0.8"/>
      </g>
     </g>
     <g id="text_9">
      <!-- −1.5 -->
      <g transform="translate(103.717187 278.224924) scale(0.1 -0.1)">
       <defs>
        <path id="DejaVuSans-35" d="M 691 4666 
L 3169 4666 
L 3169 4134 
L 1269 4134 
L 1269 2991 
Q 1406 3038 1543 3061 
Q 1681 3084 1819 3084 
Q 2600 3084 3056 2656 
Q 3513 2228 3513 1497 
Q 3513 744 3044 326 
Q 2575 -91 1722 -91 
Q 1428 -91 1123 -41 
Q 819 9 494 109 
L 494 744 
Q 775 591 1075 516 
Q 1375 441 1709 441 
Q 2250 441 2565 725 
Q 2881 1009 2881 1497 
Q 2881 1984 2565 2268 
Q 2250 2553 1709 2553 
Q 1456 2553 1204 2497 
Q 953 2441 691 2322 
L 691 4666 
z
" transform="scale(0.015625)"/>
       </defs>
       <use xlink:href="#DejaVuSans-2212"/>
       <use xlink:href="#DejaVuSans-31" x="83.789062"/>
       <use xlink:href="#DejaVuSans-2e" x="147.412109"/>
       <use xlink:href="#DejaVuSans-35" x="179.199219"/>
      </g>
     </g>
    </g>
    <g id="ytick_3">
     <g id="line2d_10">
      <g>
       <use xlink:href="#m6610667fa9" x="135" y="243.366711" style="stroke: #000000; stroke-width: 0.8"/>
      </g>
     </g>
     <g id="text_10">
      <!-- −1.0 -->
      <g transform="translate(103.717187 247.16593) scale(0.1 -0.1)">
       <use xlink:href="#DejaVuSans-2212"/>
       <use xlink:href="#DejaVuSans-31" x="83.789062"/>
       <use xlink:href="#DejaVuSans-2e" x="147.412109"/>
       <use xlink:href="#DejaVuSans-30" x="179.199219"/>
      </g>
     </g>
    </g>
    <g id="ytick_4">
     <g id="line2d_11">
      <g>
       <use xlink:href="#m6610667fa9" x="135" y="212.307717" style="stroke: #000000; stroke-width: 0.8"/>
      </g>
     </g>
     <g id="text_11">
      <!-- −0.5 -->
      <g transform="translate(103.717187 216.106936) scale(0.1 -0.1)">
       <use xlink:href="#DejaVuSans-2212"/>
       <use xlink:href="#DejaVuSans-30" x="83.789062"/>
       <use xlink:href="#DejaVuSans-2e" x="147.412109"/>
       <use xlink:href="#DejaVuSans-35" x="179.199219"/>
      </g>
     </g>
    </g>
    <g id="ytick_5">
     <g id="line2d_12">
      <g>
       <use xlink:href="#m6610667fa9" x="135" y="181.248723" style="stroke: #000000; stroke-width: 0.8"/>
      </g>
     </g>
     <g id="text_12">
      <!-- 0.0 -->
      <g transform="translate(112.096875 185.047942) scale(0.1 -0.1)">
       <use xlink:href="#DejaVuSans-30"/>
       <use xlink:href="#DejaVuSans-2e" x="63.623047"/>
       <use xlink:href="#DejaVuSans-30" x="95.410156"/>
      </g>
     </g>
    </g>
    <g id="ytick_6">
     <g id="line2d_13">
      <g>
       <use xlink:href="#m6610667fa9" x="135" y="150.189729" style="stroke: #000000; stroke-width: 0.8"/>
      </g>
     </g>
     <g id="text_13">
      <!-- 0.5 -->
      <g transform="translate(112.096875 153.988948) scale(0.1 -0.1)">
       <use xlink:href="#DejaVuSans-30"/>
       <use xlink:href="#DejaVuSans-2e" x="63.623047"/>
       <use xlink:href="#DejaVuSans-35" x="95.410156"/>
      </g>
     </g>
    </g>
    <g id="ytick_7">
     <g id="line2d_14">
      <g>
       <use xlink:href="#m6610667fa9" x="135" y="119.130735" style="stroke: #000000; stroke-width: 0.8"/>
      </g>
     </g>
     <g id="text_14">
      <!-- 1.0 -->
      <g transform="translate(112.096875 122.929953) scale(0.1 -0.1)">
       <use xlink:href="#DejaVuSans-31"/>
       <use xlink:href="#DejaVuSans-2e" x="63.623047"/>
       <use xlink:href="#DejaVuSans-30" x="95.410156"/>
      </g>
     </g>
    </g>
    <g id="ytick_8">
     <g id="line2d_15">
      <g>
       <use xlink:href="#m6610667fa9" x="135" y="88.071741" style="stroke: #000000; stroke-width: 0.8"/>
      </g>
     </g>
     <g id="text_15">
      <!-- 1.5 -->
      <g transform="translate(112.096875 91.870959) scale(0.1 -0.1)">
       <use xlink:href="#DejaVuSans-31"/>
       <use xlink:href="#DejaVuSans-2e" x="63.623047"/>
       <use xlink:href="#DejaVuSans-35" x="95.410156"/>
      </g>
     </g>
    </g>
    <g id="ytick_9">
     <g id="line2d_16">
      <g>
       <use xlink:href="#m6610667fa9" x="135" y="57.012746" style="stroke: #000000; stroke-width: 0.8"/>
      </g>
     </g>
     <g id="text_16">
      <!-- 2.0 -->
      <g transform="translate(112.096875 60.811965) scale(0.1 -0.1)">
       <use xlink:href="#DejaVuSans-32"/>
       <use xlink:href="#DejaVuSans-2e" x="63.623047"/>
       <use xlink:href="#DejaVuSans-30" x="95.410156"/>
      </g>
     </g>
    </g>
    <g id="text_17">
     <!-- SGI -->
     <g transform="translate(97.6375 190.323437) rotate(-90) scale(0.1 -0.1)">
      <defs>
       <path id="DejaVuSans-53" d="M 3425 4513 
L 3425 3897 
Q 3066 4069 2747 4153 
Q 2428 4238 2131 4238 
Q 1616 4238 1336 4038 
Q 1056 3838 1056 3469 
Q 1056 3159 1242 3001 
Q 1428 2844 1947 2747 
L 2328 2669 
Q 3034 2534 3370 2195 
Q 3706 1856 3706 1288 
Q 3706 609 3251 259 
Q 2797 -91 1919 -91 
Q 1588 -91 1214 -16 
Q 841 59 441 206 
L 441 856 
Q 825 641 1194 531 
Q 1563 422 1919 422 
Q 2459 422 2753 634 
Q 3047 847 3047 1241 
Q 3047 1584 2836 1778 
Q 2625 1972 2144 2069 
L 1759 2144 
Q 1053 2284 737 2584 
Q 422 2884 422 3419 
Q 422 4038 858 4394 
Q 1294 4750 2059 4750 
Q 2388 4750 2728 4690 
Q 3069 4631 3425 4513 
z
" transform="scale(0.015625)"/>
       <path id="DejaVuSans-47" d="M 3809 666 
L 3809 1919 
L 2778 1919 
L 2778 2438 
L 4434 2438 
L 4434 434 
Q 4069 175 3628 42 
Q 3188 -91 2688 -91 
Q 1594 -91 976 548 
Q 359 1188 359 2328 
Q 359 3472 976 4111 
Q 1594 4750 2688 4750 
Q 3144 4750 3555 4637 
Q 3966 4525 4313 4306 
L 4313 3634 
Q 3963 3931 3569 4081 
Q 3175 4231 2741 4231 
Q 1884 4231 1454 3753 
Q 1025 3275 1025 2328 
Q 1025 1384 1454 906 
Q 1884 428 2741 428 
Q 3075 428 3337 486 
Q 3600 544 3809 666 
z
" transform="scale(0.015625)"/>
       <path id="DejaVuSans-49" d="M 628 4666 
L 1259 4666 
L 1259 0 
L 628 0 
L 628 4666 
z
" transform="scale(0.015625)"/>
      </defs>
      <use xlink:href="#DejaVuSans-53"/>
      <use xlink:href="#DejaVuSans-47" x="63.476562"/>
      <use xlink:href="#DejaVuSans-49" x="140.966797"/>
     </g>
    </g>
   </g>
   <g id="line2d_17">
    <path d="M 135 143.196027 
L 145.227764 84.93769 
L 152.772837 87.283212 
L 160.401743 112.152006 
L 168.114483 161.647863 
L 175.827224 201.511327 
L 183.372296 189.410874 
L 191.001202 146.581761 
L 198.713942 104.752211 
L 206.426683 57.018426 
L 214.055589 55.8 
L 221.684495 108.787486 
L 229.397236 91.062448 
L 237.109976 103.086777 
L 252.283954 97.74249 
L 259.996695 70.087746 
L 270.308293 95.325097 
L 272.655649 160.396688 
L 275.254507 145.547057 
L 277.769531 176.701943 
L 282.883413 143.28479 
L 285.482272 137.419285 
L 288.08113 149.764603 
L 290.596154 125.400379 
L 293.195012 199.037677 
L 295.710036 194.615072 
L 298.308894 141.896225 
L 300.907752 163.960713 
L 303.255108 127.299353 
L 305.853966 104.617494 
L 308.36899 136.441361 
L 310.967849 181.248675 
L 313.482873 140.874263 
L 316.081731 161.88747 
L 318.680589 157.917865 
L 323.794471 119.494356 
L 326.309495 109.785976 
L 328.908353 129.841935 
L 331.507212 144.407585 
L 333.938401 191.26151 
L 336.53726 137.217711 
L 339.052284 162.545097 
L 341.651142 148.698843 
L 344.166166 141.628725 
L 346.765024 182.071851 
L 349.363882 184.742914 
L 351.878906 158.645577 
L 354.477764 184.96366 
L 356.992788 167.882374 
L 359.591647 153.514622 
L 362.190505 194.29634 
L 364.537861 252.690939 
L 367.136719 232.499226 
L 369.651743 205.237661 
L 372.250601 219.623241 
L 374.765625 152.526844 
L 377.364483 153.249392 
L 382.478365 165.538485 
L 397.736178 248.98606 
L 405.365084 189.933105 
L 413.077825 152.276527 
L 420.790565 174.277141 
L 428.335637 153.276097 
L 435.964543 162.501977 
L 443.677284 173.816642 
L 451.390024 182.288415 
L 459.01893 217.121245 
L 466.647837 288.687002 
L 474.360577 125.189511 
L 482.073317 131.308098 
L 489.618389 167.624234 
L 497.247296 198.214423 
L 504.960036 223.842003 
L 512.672776 224.98354 
L 520.217849 209.221348 
L 527.846755 206.799901 
L 535.559495 233.644331 
L 543.272236 259.421697 
L 550.817308 270.343084 
L 558.446214 225.632796 
L 566.158954 253.657263 
L 573.871695 307.8 
L 581.500601 226.905876 
L 589.129507 232.409488 
L 596.842248 170.35824 
L 604.554988 155.480224 
L 612.10006 128.007206 
L 619.728966 202.647226 
L 635.154447 218.85428 
L 642.699519 292.914191 
L 650.328425 234.140001 
L 658.041166 192.255394 
L 665.753906 233.359411 
L 673.298978 201.856268 
L 680.927885 208.950277 
L 688.640625 185.916309 
L 696.353365 204.086124 
L 703.982272 174.481139 
L 706.497296 203.732614 
L 709.096154 250.710676 
L 711.611178 211.245895 
L 714.210036 228.524743 
L 716.808894 248.496091 
L 719.323918 241.637601 
L 721.922776 260.867135 
L 724.4378 252.71147 
L 727.036659 195.592789 
L 729.635517 267.172349 
L 734.581731 181.248717 
L 737.096755 239.152987 
L 742.210637 212.968875 
L 749.923377 240.031629 
L 757.636118 276.551036 
L 765.18119 160.590577 
L 772.810096 163.956569 
L 783.121695 149.261926 
L 788.235577 118.419871 
L 798.295673 114.045162 
L 803.409555 150.749775 
L 811.122296 199.894078 
L 818.835036 246.215649 
L 826.463942 261.534611 
L 836.691707 228.033426 
L 841.805589 195.911096 
L 849.518329 165.142417 
L 857.063401 117.444549 
L 862.177284 101.630311 
L 872.405048 194.690143 
L 890.177885 206.24283 
L 895.291767 166.857407 
L 900.489483 211.606228 
L 903.004507 187.418071 
L 910.717248 177.188271 
L 918.26232 193.5061 
L 925.891226 186.651064 
L 933.603966 198.359595 
L 943.915565 223.127996 
L 956.574519 260.87356 
L 964.28726 275.50415 
L 964.28726 275.50415 
" clip-path="url(#p65614c88a5)" style="fill: none; stroke: #7f7f7f; stroke-width: 1.5; stroke-linecap: square"/>
   </g>
   <g id="line2d_18">
    <path d="M 135 181.248723 
L 972 181.248723 
" clip-path="url(#p65614c88a5)" style="fill: none; stroke: #000000; stroke-width: 1.5; stroke-linecap: square"/>
   </g>
   <g id="patch_3">
    <path d="M 135 320.4 
L 135 43.2 
" style="fill: none; stroke: #000000; stroke-width: 0.8; stroke-linejoin: miter; stroke-linecap: square"/>
   </g>
   <g id="patch_4">
    <path d="M 135 320.4 
L 972 320.4 
" style="fill: none; stroke: #000000; stroke-width: 0.8; stroke-linejoin: miter; stroke-linecap: square"/>
   </g>
   <g id="text_18">
    <!-- SGI for GWIC ID 58096 -->
    <g transform="translate(135 37.2) scale(0.12 -0.12)">
     <defs>
      <path id="DejaVuSans-Bold-53" d="M 3834 4519 
L 3834 3531 
Q 3450 3703 3084 3790 
Q 2719 3878 2394 3878 
Q 1963 3878 1756 3759 
Q 1550 3641 1550 3391 
Q 1550 3203 1689 3098 
Q 1828 2994 2194 2919 
L 2706 2816 
Q 3484 2659 3812 2340 
Q 4141 2022 4141 1434 
Q 4141 663 3683 286 
Q 3225 -91 2284 -91 
Q 1841 -91 1394 -6 
Q 947 78 500 244 
L 500 1259 
Q 947 1022 1364 901 
Q 1781 781 2169 781 
Q 2563 781 2772 912 
Q 2981 1044 2981 1288 
Q 2981 1506 2839 1625 
Q 2697 1744 2272 1838 
L 1806 1941 
Q 1106 2091 782 2419 
Q 459 2747 459 3303 
Q 459 4000 909 4375 
Q 1359 4750 2203 4750 
Q 2588 4750 2994 4692 
Q 3400 4634 3834 4519 
z
" transform="scale(0.015625)"/>
      <path id="DejaVuSans-Bold-47" d="M 4781 347 
Q 4331 128 3847 18 
Q 3363 -91 2847 -91 
Q 1681 -91 1000 561 
Q 319 1213 319 2328 
Q 319 3456 1012 4103 
Q 1706 4750 2913 4750 
Q 3378 4750 3804 4662 
Q 4231 4575 4609 4403 
L 4609 3438 
Q 4219 3659 3833 3768 
Q 3447 3878 3059 3878 
Q 2341 3878 1952 3476 
Q 1563 3075 1563 2328 
Q 1563 1588 1938 1184 
Q 2313 781 3003 781 
Q 3191 781 3352 804 
Q 3513 828 3641 878 
L 3641 1784 
L 2906 1784 
L 2906 2591 
L 4781 2591 
L 4781 347 
z
" transform="scale(0.015625)"/>
      <path id="DejaVuSans-Bold-49" d="M 588 4666 
L 1791 4666 
L 1791 0 
L 588 0 
L 588 4666 
z
" transform="scale(0.015625)"/>
      <path id="DejaVuSans-Bold-20" transform="scale(0.015625)"/>
      <path id="DejaVuSans-Bold-66" d="M 2841 4863 
L 2841 4128 
L 2222 4128 
Q 1984 4128 1890 4042 
Q 1797 3956 1797 3744 
L 1797 3500 
L 2753 3500 
L 2753 2700 
L 1797 2700 
L 1797 0 
L 678 0 
L 678 2700 
L 122 2700 
L 122 3500 
L 678 3500 
L 678 3744 
Q 678 4316 997 4589 
Q 1316 4863 1984 4863 
L 2841 4863 
z
" transform="scale(0.015625)"/>
      <path id="DejaVuSans-Bold-6f" d="M 2203 2784 
Q 1831 2784 1636 2517 
Q 1441 2250 1441 1747 
Q 1441 1244 1636 976 
Q 1831 709 2203 709 
Q 2569 709 2762 976 
Q 2956 1244 2956 1747 
Q 2956 2250 2762 2517 
Q 2569 2784 2203 2784 
z
M 2203 3584 
Q 3106 3584 3614 3096 
Q 4122 2609 4122 1747 
Q 4122 884 3614 396 
Q 3106 -91 2203 -91 
Q 1297 -91 786 396 
Q 275 884 275 1747 
Q 275 2609 786 3096 
Q 1297 3584 2203 3584 
z
" transform="scale(0.015625)"/>
      <path id="DejaVuSans-Bold-72" d="M 3138 2547 
Q 2991 2616 2845 2648 
Q 2700 2681 2553 2681 
Q 2122 2681 1889 2404 
Q 1656 2128 1656 1613 
L 1656 0 
L 538 0 
L 538 3500 
L 1656 3500 
L 1656 2925 
Q 1872 3269 2151 3426 
Q 2431 3584 2822 3584 
Q 2878 3584 2943 3579 
Q 3009 3575 3134 3559 
L 3138 2547 
z
" transform="scale(0.015625)"/>
      <path id="DejaVuSans-Bold-57" d="M 191 4666 
L 1344 4666 
L 2150 1275 
L 2950 4666 
L 4109 4666 
L 4909 1275 
L 5716 4666 
L 6859 4666 
L 5759 0 
L 4372 0 
L 3525 3547 
L 2688 0 
L 1300 0 
L 191 4666 
z
" transform="scale(0.015625)"/>
      <path id="DejaVuSans-Bold-43" d="M 4288 256 
Q 3956 84 3597 -3 
Q 3238 -91 2847 -91 
Q 1681 -91 1000 561 
Q 319 1213 319 2328 
Q 319 3447 1000 4098 
Q 1681 4750 2847 4750 
Q 3238 4750 3597 4662 
Q 3956 4575 4288 4403 
L 4288 3438 
Q 3953 3666 3628 3772 
Q 3303 3878 2944 3878 
Q 2300 3878 1931 3465 
Q 1563 3053 1563 2328 
Q 1563 1606 1931 1193 
Q 2300 781 2944 781 
Q 3303 781 3628 887 
Q 3953 994 4288 1222 
L 4288 256 
z
" transform="scale(0.015625)"/>
      <path id="DejaVuSans-Bold-44" d="M 1791 3756 
L 1791 909 
L 2222 909 
Q 2959 909 3348 1275 
Q 3738 1641 3738 2338 
Q 3738 3031 3350 3393 
Q 2963 3756 2222 3756 
L 1791 3756 
z
M 588 4666 
L 1856 4666 
Q 2919 4666 3439 4514 
Q 3959 4363 4331 4000 
Q 4659 3684 4818 3271 
Q 4978 2859 4978 2338 
Q 4978 1809 4818 1395 
Q 4659 981 4331 666 
Q 3956 303 3431 151 
Q 2906 0 1856 0 
L 588 0 
L 588 4666 
z
" transform="scale(0.015625)"/>
      <path id="DejaVuSans-Bold-35" d="M 678 4666 
L 3669 4666 
L 3669 3781 
L 1638 3781 
L 1638 3059 
Q 1775 3097 1914 3117 
Q 2053 3138 2203 3138 
Q 3056 3138 3531 2711 
Q 4006 2284 4006 1522 
Q 4006 766 3489 337 
Q 2972 -91 2053 -91 
Q 1656 -91 1267 -14 
Q 878 63 494 219 
L 494 1166 
Q 875 947 1217 837 
Q 1559 728 1863 728 
Q 2300 728 2551 942 
Q 2803 1156 2803 1522 
Q 2803 1891 2551 2103 
Q 2300 2316 1863 2316 
Q 1603 2316 1309 2248 
Q 1016 2181 678 2041 
L 678 4666 
z
" transform="scale(0.015625)"/>
      <path id="DejaVuSans-Bold-38" d="M 2228 2088 
Q 1891 2088 1709 1903 
Q 1528 1719 1528 1375 
Q 1528 1031 1709 848 
Q 1891 666 2228 666 
Q 2563 666 2741 848 
Q 2919 1031 2919 1375 
Q 2919 1722 2741 1905 
Q 2563 2088 2228 2088 
z
M 1350 2484 
Q 925 2613 709 2878 
Q 494 3144 494 3541 
Q 494 4131 934 4440 
Q 1375 4750 2228 4750 
Q 3075 4750 3515 4442 
Q 3956 4134 3956 3541 
Q 3956 3144 3739 2878 
Q 3522 2613 3097 2484 
Q 3572 2353 3814 2058 
Q 4056 1763 4056 1313 
Q 4056 619 3595 264 
Q 3134 -91 2228 -91 
Q 1319 -91 855 264 
Q 391 619 391 1313 
Q 391 1763 633 2058 
Q 875 2353 1350 2484 
z
M 1631 3419 
Q 1631 3141 1786 2991 
Q 1941 2841 2228 2841 
Q 2509 2841 2662 2991 
Q 2816 3141 2816 3419 
Q 2816 3697 2662 3845 
Q 2509 3994 2228 3994 
Q 1941 3994 1786 3844 
Q 1631 3694 1631 3419 
z
" transform="scale(0.015625)"/>
      <path id="DejaVuSans-Bold-30" d="M 2944 2338 
Q 2944 3213 2780 3570 
Q 2616 3928 2228 3928 
Q 1841 3928 1675 3570 
Q 1509 3213 1509 2338 
Q 1509 1453 1675 1090 
Q 1841 728 2228 728 
Q 2613 728 2778 1090 
Q 2944 1453 2944 2338 
z
M 4147 2328 
Q 4147 1169 3647 539 
Q 3147 -91 2228 -91 
Q 1306 -91 806 539 
Q 306 1169 306 2328 
Q 306 3491 806 4120 
Q 1306 4750 2228 4750 
Q 3147 4750 3647 4120 
Q 4147 3491 4147 2328 
z
" transform="scale(0.015625)"/>
      <path id="DejaVuSans-Bold-39" d="M 641 103 
L 641 966 
Q 928 831 1190 764 
Q 1453 697 1709 697 
Q 2247 697 2547 995 
Q 2847 1294 2900 1881 
Q 2688 1725 2447 1647 
Q 2206 1569 1925 1569 
Q 1209 1569 770 1986 
Q 331 2403 331 3084 
Q 331 3838 820 4291 
Q 1309 4744 2131 4744 
Q 3044 4744 3544 4128 
Q 4044 3513 4044 2388 
Q 4044 1231 3459 570 
Q 2875 -91 1856 -91 
Q 1528 -91 1228 -42 
Q 928 6 641 103 
z
M 2125 2350 
Q 2441 2350 2600 2554 
Q 2759 2759 2759 3169 
Q 2759 3575 2600 3781 
Q 2441 3988 2125 3988 
Q 1809 3988 1650 3781 
Q 1491 3575 1491 3169 
Q 1491 2759 1650 2554 
Q 1809 2350 2125 2350 
z
" transform="scale(0.015625)"/>
      <path id="DejaVuSans-Bold-36" d="M 2316 2303 
Q 2000 2303 1842 2098 
Q 1684 1894 1684 1484 
Q 1684 1075 1842 870 
Q 2000 666 2316 666 
Q 2634 666 2792 870 
Q 2950 1075 2950 1484 
Q 2950 1894 2792 2098 
Q 2634 2303 2316 2303 
z
M 3803 4544 
L 3803 3681 
Q 3506 3822 3243 3889 
Q 2981 3956 2731 3956 
Q 2194 3956 1894 3657 
Q 1594 3359 1544 2772 
Q 1750 2925 1990 3001 
Q 2231 3078 2516 3078 
Q 3231 3078 3670 2659 
Q 4109 2241 4109 1563 
Q 4109 813 3618 361 
Q 3128 -91 2303 -91 
Q 1394 -91 895 523 
Q 397 1138 397 2266 
Q 397 3422 980 4083 
Q 1563 4744 2578 4744 
Q 2900 4744 3203 4694 
Q 3506 4644 3803 4544 
z
" transform="scale(0.015625)"/>
     </defs>
     <use xlink:href="#DejaVuSans-Bold-53"/>
     <use xlink:href="#DejaVuSans-Bold-47" x="72.021484"/>
     <use xlink:href="#DejaVuSans-Bold-49" x="154.101562"/>
     <use xlink:href="#DejaVuSans-Bold-20" x="191.308594"/>
     <use xlink:href="#DejaVuSans-Bold-66" x="226.123047"/>
     <use xlink:href="#DejaVuSans-Bold-6f" x="269.628906"/>
     <use xlink:href="#DejaVuSans-Bold-72" x="338.330078"/>
     <use xlink:href="#DejaVuSans-Bold-20" x="387.646484"/>
     <use xlink:href="#DejaVuSans-Bold-47" x="422.460938"/>
     <use xlink:href="#DejaVuSans-Bold-57" x="504.541016"/>
     <use xlink:href="#DejaVuSans-Bold-49" x="614.84375"/>
     <use xlink:href="#DejaVuSans-Bold-43" x="652.050781"/>
     <use xlink:href="#DejaVuSans-Bold-20" x="725.439453"/>
     <use xlink:href="#DejaVuSans-Bold-49" x="760.253906"/>
     <use xlink:href="#DejaVuSans-Bold-44" x="797.460938"/>
     <use xlink:href="#DejaVuSans-Bold-20" x="880.46875"/>
     <use xlink:href="#DejaVuSans-Bold-35" x="915.283203"/>
     <use xlink:href="#DejaVuSans-Bold-38" x="984.863281"/>
     <use xlink:href="#DejaVuSans-Bold-30" x="1054.443359"/>
     <use xlink:href="#DejaVuSans-Bold-39" x="1124.023438"/>
     <use xlink:href="#DejaVuSans-Bold-36" x="1193.603516"/>
    </g>
   </g>
   <g id="PathCollection_1">
    <defs>
     <path id="m26f2b598c5" d="M 0 3 
C 0.795609 3 1.55874 2.683901 2.12132 2.12132 
C 2.683901 1.55874 3 0.795609 3 0 
C 3 -0.795609 2.683901 -1.55874 2.12132 -2.12132 
C 1.55874 -2.683901 0.795609 -3 0 -3 
C -0.795609 -3 -1.55874 -2.683901 -2.12132 -2.12132 
C -2.683901 -1.55874 -3 -0.795609 -3 0 
C -3 0.795609 -2.683901 1.55874 -2.12132 2.12132 
C -1.55874 2.683901 -0.795609 3 0 3 
z
" style="stroke: #ffffff; stroke-width: 0.48"/>
    </defs>
    <g clip-path="url(#p65614c88a5)">
     <use xlink:href="#m26f2b598c5" x="135" y="143.196027" style="stroke: #ffffff; stroke-width: 0.48"/>
     <use xlink:href="#m26f2b598c5" x="145.227764" y="84.93769" style="stroke: #ffffff; stroke-width: 0.48"/>
     <use xlink:href="#m26f2b598c5" x="152.772837" y="87.283212" style="stroke: #ffffff; stroke-width: 0.48"/>
     <use xlink:href="#m26f2b598c5" x="160.401743" y="112.152006" style="stroke: #ffffff; stroke-width: 0.48"/>
     <use xlink:href="#m26f2b598c5" x="168.114483" y="161.647863" style="stroke: #ffffff; stroke-width: 0.48"/>
     <use xlink:href="#m26f2b598c5" x="175.827224" y="201.511327" style="stroke: #ffffff; stroke-width: 0.48"/>
     <use xlink:href="#m26f2b598c5" x="183.372296" y="189.410874" style="stroke: #ffffff; stroke-width: 0.48"/>
     <use xlink:href="#m26f2b598c5" x="191.001202" y="146.581761" style="stroke: #ffffff; stroke-width: 0.48"/>
     <use xlink:href="#m26f2b598c5" x="198.713942" y="104.752211" style="stroke: #ffffff; stroke-width: 0.48"/>
     <use xlink:href="#m26f2b598c5" x="206.426683" y="57.018426" style="stroke: #ffffff; stroke-width: 0.48"/>
     <use xlink:href="#m26f2b598c5" x="214.055589" y="55.8" style="stroke: #ffffff; stroke-width: 0.48"/>
     <use xlink:href="#m26f2b598c5" x="221.684495" y="108.787486" style="stroke: #ffffff; stroke-width: 0.48"/>
     <use xlink:href="#m26f2b598c5" x="229.397236" y="91.062448" style="stroke: #ffffff; stroke-width: 0.48"/>
     <use xlink:href="#m26f2b598c5" x="237.109976" y="103.086777" style="stroke: #ffffff; stroke-width: 0.48"/>
     <use xlink:href="#m26f2b598c5" x="252.283954" y="97.74249" style="stroke: #ffffff; stroke-width: 0.48"/>
     <use xlink:href="#m26f2b598c5" x="259.996695" y="70.087746" style="stroke: #ffffff; stroke-width: 0.48"/>
     <use xlink:href="#m26f2b598c5" x="270.308293" y="95.325097" style="stroke: #ffffff; stroke-width: 0.48"/>
     <use xlink:href="#m26f2b598c5" x="272.655649" y="160.396688" style="stroke: #ffffff; stroke-width: 0.48"/>
     <use xlink:href="#m26f2b598c5" x="275.254507" y="145.547057" style="stroke: #ffffff; stroke-width: 0.48"/>
     <use xlink:href="#m26f2b598c5" x="277.769531" y="176.701943" style="stroke: #ffffff; stroke-width: 0.48"/>
     <use xlink:href="#m26f2b598c5" x="282.883413" y="143.28479" style="stroke: #ffffff; stroke-width: 0.48"/>
     <use xlink:href="#m26f2b598c5" x="285.482272" y="137.419285" style="stroke: #ffffff; stroke-width: 0.48"/>
     <use xlink:href="#m26f2b598c5" x="288.08113" y="149.764603" style="stroke: #ffffff; stroke-width: 0.48"/>
     <use xlink:href="#m26f2b598c5" x="290.596154" y="125.400379" style="stroke: #ffffff; stroke-width: 0.48"/>
     <use xlink:href="#m26f2b598c5" x="293.195012" y="199.037677" style="stroke: #ffffff; stroke-width: 0.48"/>
     <use xlink:href="#m26f2b598c5" x="295.710036" y="194.615072" style="stroke: #ffffff; stroke-width: 0.48"/>
     <use xlink:href="#m26f2b598c5" x="298.308894" y="141.896225" style="stroke: #ffffff; stroke-width: 0.48"/>
     <use xlink:href="#m26f2b598c5" x="300.907752" y="163.960713" style="stroke: #ffffff; stroke-width: 0.48"/>
     <use xlink:href="#m26f2b598c5" x="303.255108" y="127.299353" style="stroke: #ffffff; stroke-width: 0.48"/>
     <use xlink:href="#m26f2b598c5" x="305.853966" y="104.617494" style="stroke: #ffffff; stroke-width: 0.48"/>
     <use xlink:href="#m26f2b598c5" x="308.36899" y="136.441361" style="stroke: #ffffff; stroke-width: 0.48"/>
     <use xlink:href="#m26f2b598c5" x="310.967849" y="181.248675" style="stroke: #ffffff; stroke-width: 0.48"/>
     <use xlink:href="#m26f2b598c5" x="313.482873" y="140.874263" style="stroke: #ffffff; stroke-width: 0.48"/>
     <use xlink:href="#m26f2b598c5" x="316.081731" y="161.88747" style="stroke: #ffffff; stroke-width: 0.48"/>
     <use xlink:href="#m26f2b598c5" x="318.680589" y="157.917865" style="stroke: #ffffff; stroke-width: 0.48"/>
     <use xlink:href="#m26f2b598c5" x="323.794471" y="119.494356" style="stroke: #ffffff; stroke-width: 0.48"/>
     <use xlink:href="#m26f2b598c5" x="326.309495" y="109.785976" style="stroke: #ffffff; stroke-width: 0.48"/>
     <use xlink:href="#m26f2b598c5" x="328.908353" y="129.841935" style="stroke: #ffffff; stroke-width: 0.48"/>
     <use xlink:href="#m26f2b598c5" x="331.507212" y="144.407585" style="stroke: #ffffff; stroke-width: 0.48"/>
     <use xlink:href="#m26f2b598c5" x="333.938401" y="191.26151" style="stroke: #ffffff; stroke-width: 0.48"/>
     <use xlink:href="#m26f2b598c5" x="336.53726" y="137.217711" style="stroke: #ffffff; stroke-width: 0.48"/>
     <use xlink:href="#m26f2b598c5" x="339.052284" y="162.545097" style="stroke: #ffffff; stroke-width: 0.48"/>
     <use xlink:href="#m26f2b598c5" x="341.651142" y="148.698843" style="stroke: #ffffff; stroke-width: 0.48"/>
     <use xlink:href="#m26f2b598c5" x="344.166166" y="141.628725" style="stroke: #ffffff; stroke-width: 0.48"/>
     <use xlink:href="#m26f2b598c5" x="346.765024" y="182.071851" style="stroke: #ffffff; stroke-width: 0.48"/>
     <use xlink:href="#m26f2b598c5" x="349.363882" y="184.742914" style="stroke: #ffffff; stroke-width: 0.48"/>
     <use xlink:href="#m26f2b598c5" x="351.878906" y="158.645577" style="stroke: #ffffff; stroke-width: 0.48"/>
     <use xlink:href="#m26f2b598c5" x="354.477764" y="184.96366" style="stroke: #ffffff; stroke-width: 0.48"/>
     <use xlink:href="#m26f2b598c5" x="356.992788" y="167.882374" style="stroke: #ffffff; stroke-width: 0.48"/>
     <use xlink:href="#m26f2b598c5" x="359.591647" y="153.514622" style="stroke: #ffffff; stroke-width: 0.48"/>
     <use xlink:href="#m26f2b598c5" x="362.190505" y="194.29634" style="stroke: #ffffff; stroke-width: 0.48"/>
     <use xlink:href="#m26f2b598c5" x="364.537861" y="252.690939" style="stroke: #ffffff; stroke-width: 0.48"/>
     <use xlink:href="#m26f2b598c5" x="367.136719" y="232.499226" style="stroke: #ffffff; stroke-width: 0.48"/>
     <use xlink:href="#m26f2b598c5" x="369.651743" y="205.237661" style="stroke: #ffffff; stroke-width: 0.48"/>
     <use xlink:href="#m26f2b598c5" x="372.250601" y="219.623241" style="stroke: #ffffff; stroke-width: 0.48"/>
     <use xlink:href="#m26f2b598c5" x="374.765625" y="152.526844" style="stroke: #ffffff; stroke-width: 0.48"/>
     <use xlink:href="#m26f2b598c5" x="377.364483" y="153.249392" style="stroke: #ffffff; stroke-width: 0.48"/>
     <use xlink:href="#m26f2b598c5" x="382.478365" y="165.538485" style="stroke: #ffffff; stroke-width: 0.48"/>
     <use xlink:href="#m26f2b598c5" x="390.191106" y="207.703751" style="stroke: #ffffff; stroke-width: 0.48"/>
     <use xlink:href="#m26f2b598c5" x="397.736178" y="248.98606" style="stroke: #ffffff; stroke-width: 0.48"/>
     <use xlink:href="#m26f2b598c5" x="405.365084" y="189.933105" style="stroke: #ffffff; stroke-width: 0.48"/>
     <use xlink:href="#m26f2b598c5" x="413.077825" y="152.276527" style="stroke: #ffffff; stroke-width: 0.48"/>
     <use xlink:href="#m26f2b598c5" x="420.790565" y="174.277141" style="stroke: #ffffff; stroke-width: 0.48"/>
     <use xlink:href="#m26f2b598c5" x="428.335637" y="153.276097" style="stroke: #ffffff; stroke-width: 0.48"/>
     <use xlink:href="#m26f2b598c5" x="435.964543" y="162.501977" style="stroke: #ffffff; stroke-width: 0.48"/>
     <use xlink:href="#m26f2b598c5" x="443.677284" y="173.816642" style="stroke: #ffffff; stroke-width: 0.48"/>
     <use xlink:href="#m26f2b598c5" x="451.390024" y="182.288415" style="stroke: #ffffff; stroke-width: 0.48"/>
     <use xlink:href="#m26f2b598c5" x="459.01893" y="217.121245" style="stroke: #ffffff; stroke-width: 0.48"/>
     <use xlink:href="#m26f2b598c5" x="466.647837" y="288.687002" style="stroke: #ffffff; stroke-width: 0.48"/>
     <use xlink:href="#m26f2b598c5" x="474.360577" y="125.189511" style="stroke: #ffffff; stroke-width: 0.48"/>
     <use xlink:href="#m26f2b598c5" x="482.073317" y="131.308098" style="stroke: #ffffff; stroke-width: 0.48"/>
     <use xlink:href="#m26f2b598c5" x="489.618389" y="167.624234" style="stroke: #ffffff; stroke-width: 0.48"/>
     <use xlink:href="#m26f2b598c5" x="497.247296" y="198.214423" style="stroke: #ffffff; stroke-width: 0.48"/>
     <use xlink:href="#m26f2b598c5" x="504.960036" y="223.842003" style="stroke: #ffffff; stroke-width: 0.48"/>
     <use xlink:href="#m26f2b598c5" x="512.672776" y="224.98354" style="stroke: #ffffff; stroke-width: 0.48"/>
     <use xlink:href="#m26f2b598c5" x="520.217849" y="209.221348" style="stroke: #ffffff; stroke-width: 0.48"/>
     <use xlink:href="#m26f2b598c5" x="527.846755" y="206.799901" style="stroke: #ffffff; stroke-width: 0.48"/>
     <use xlink:href="#m26f2b598c5" x="535.559495" y="233.644331" style="stroke: #ffffff; stroke-width: 0.48"/>
     <use xlink:href="#m26f2b598c5" x="543.272236" y="259.421697" style="stroke: #ffffff; stroke-width: 0.48"/>
     <use xlink:href="#m26f2b598c5" x="550.817308" y="270.343084" style="stroke: #ffffff; stroke-width: 0.48"/>
     <use xlink:href="#m26f2b598c5" x="558.446214" y="225.632796" style="stroke: #ffffff; stroke-width: 0.48"/>
     <use xlink:href="#m26f2b598c5" x="566.158954" y="253.657263" style="stroke: #ffffff; stroke-width: 0.48"/>
     <use xlink:href="#m26f2b598c5" x="573.871695" y="307.8" style="stroke: #ffffff; stroke-width: 0.48"/>
     <use xlink:href="#m26f2b598c5" x="581.500601" y="226.905876" style="stroke: #ffffff; stroke-width: 0.48"/>
     <use xlink:href="#m26f2b598c5" x="589.129507" y="232.409488" style="stroke: #ffffff; stroke-width: 0.48"/>
     <use xlink:href="#m26f2b598c5" x="596.842248" y="170.35824" style="stroke: #ffffff; stroke-width: 0.48"/>
     <use xlink:href="#m26f2b598c5" x="604.554988" y="155.480224" style="stroke: #ffffff; stroke-width: 0.48"/>
     <use xlink:href="#m26f2b598c5" x="612.10006" y="128.007206" style="stroke: #ffffff; stroke-width: 0.48"/>
     <use xlink:href="#m26f2b598c5" x="619.728966" y="202.647226" style="stroke: #ffffff; stroke-width: 0.48"/>
     <use xlink:href="#m26f2b598c5" x="635.154447" y="218.85428" style="stroke: #ffffff; stroke-width: 0.48"/>
     <use xlink:href="#m26f2b598c5" x="642.699519" y="292.914191" style="stroke: #ffffff; stroke-width: 0.48"/>
     <use xlink:href="#m26f2b598c5" x="650.328425" y="234.140001" style="stroke: #ffffff; stroke-width: 0.48"/>
     <use xlink:href="#m26f2b598c5" x="658.041166" y="192.255394" style="stroke: #ffffff; stroke-width: 0.48"/>
     <use xlink:href="#m26f2b598c5" x="665.753906" y="233.359411" style="stroke: #ffffff; stroke-width: 0.48"/>
     <use xlink:href="#m26f2b598c5" x="673.298978" y="201.856268" style="stroke: #ffffff; stroke-width: 0.48"/>
     <use xlink:href="#m26f2b598c5" x="680.927885" y="208.950277" style="stroke: #ffffff; stroke-width: 0.48"/>
     <use xlink:href="#m26f2b598c5" x="688.640625" y="185.916309" style="stroke: #ffffff; stroke-width: 0.48"/>
     <use xlink:href="#m26f2b598c5" x="696.353365" y="204.086124" style="stroke: #ffffff; stroke-width: 0.48"/>
     <use xlink:href="#m26f2b598c5" x="703.982272" y="174.481139" style="stroke: #ffffff; stroke-width: 0.48"/>
     <use xlink:href="#m26f2b598c5" x="706.497296" y="203.732614" style="stroke: #ffffff; stroke-width: 0.48"/>
     <use xlink:href="#m26f2b598c5" x="709.096154" y="250.710676" style="stroke: #ffffff; stroke-width: 0.48"/>
     <use xlink:href="#m26f2b598c5" x="711.611178" y="211.245895" style="stroke: #ffffff; stroke-width: 0.48"/>
     <use xlink:href="#m26f2b598c5" x="714.210036" y="228.524743" style="stroke: #ffffff; stroke-width: 0.48"/>
     <use xlink:href="#m26f2b598c5" x="716.808894" y="248.496091" style="stroke: #ffffff; stroke-width: 0.48"/>
     <use xlink:href="#m26f2b598c5" x="719.323918" y="241.637601" style="stroke: #ffffff; stroke-width: 0.48"/>
     <use xlink:href="#m26f2b598c5" x="721.922776" y="260.867135" style="stroke: #ffffff; stroke-width: 0.48"/>
     <use xlink:href="#m26f2b598c5" x="724.4378" y="252.71147" style="stroke: #ffffff; stroke-width: 0.48"/>
     <use xlink:href="#m26f2b598c5" x="727.036659" y="195.592789" style="stroke: #ffffff; stroke-width: 0.48"/>
     <use xlink:href="#m26f2b598c5" x="729.635517" y="267.172349" style="stroke: #ffffff; stroke-width: 0.48"/>
     <use xlink:href="#m26f2b598c5" x="734.581731" y="181.248717" style="stroke: #ffffff; stroke-width: 0.48"/>
     <use xlink:href="#m26f2b598c5" x="737.096755" y="239.152987" style="stroke: #ffffff; stroke-width: 0.48"/>
     <use xlink:href="#m26f2b598c5" x="742.210637" y="212.968875" style="stroke: #ffffff; stroke-width: 0.48"/>
     <use xlink:href="#m26f2b598c5" x="749.923377" y="240.031629" style="stroke: #ffffff; stroke-width: 0.48"/>
     <use xlink:href="#m26f2b598c5" x="757.636118" y="276.551036" style="stroke: #ffffff; stroke-width: 0.48"/>
     <use xlink:href="#m26f2b598c5" x="765.18119" y="160.590577" style="stroke: #ffffff; stroke-width: 0.48"/>
     <use xlink:href="#m26f2b598c5" x="772.810096" y="163.956569" style="stroke: #ffffff; stroke-width: 0.48"/>
     <use xlink:href="#m26f2b598c5" x="783.121695" y="149.261926" style="stroke: #ffffff; stroke-width: 0.48"/>
     <use xlink:href="#m26f2b598c5" x="788.235577" y="118.419871" style="stroke: #ffffff; stroke-width: 0.48"/>
     <use xlink:href="#m26f2b598c5" x="798.295673" y="114.045162" style="stroke: #ffffff; stroke-width: 0.48"/>
     <use xlink:href="#m26f2b598c5" x="803.409555" y="150.749775" style="stroke: #ffffff; stroke-width: 0.48"/>
     <use xlink:href="#m26f2b598c5" x="811.122296" y="199.894078" style="stroke: #ffffff; stroke-width: 0.48"/>
     <use xlink:href="#m26f2b598c5" x="818.835036" y="246.215649" style="stroke: #ffffff; stroke-width: 0.48"/>
     <use xlink:href="#m26f2b598c5" x="826.463942" y="261.534611" style="stroke: #ffffff; stroke-width: 0.48"/>
     <use xlink:href="#m26f2b598c5" x="836.691707" y="228.033426" style="stroke: #ffffff; stroke-width: 0.48"/>
     <use xlink:href="#m26f2b598c5" x="841.805589" y="195.911096" style="stroke: #ffffff; stroke-width: 0.48"/>
     <use xlink:href="#m26f2b598c5" x="849.518329" y="165.142417" style="stroke: #ffffff; stroke-width: 0.48"/>
     <use xlink:href="#m26f2b598c5" x="857.063401" y="117.444549" style="stroke: #ffffff; stroke-width: 0.48"/>
     <use xlink:href="#m26f2b598c5" x="862.177284" y="101.630311" style="stroke: #ffffff; stroke-width: 0.48"/>
     <use xlink:href="#m26f2b598c5" x="872.405048" y="194.690143" style="stroke: #ffffff; stroke-width: 0.48"/>
     <use xlink:href="#m26f2b598c5" x="890.177885" y="206.24283" style="stroke: #ffffff; stroke-width: 0.48"/>
     <use xlink:href="#m26f2b598c5" x="895.291767" y="166.857407" style="stroke: #ffffff; stroke-width: 0.48"/>
     <use xlink:href="#m26f2b598c5" x="900.489483" y="211.606228" style="stroke: #ffffff; stroke-width: 0.48"/>
     <use xlink:href="#m26f2b598c5" x="903.004507" y="187.418071" style="stroke: #ffffff; stroke-width: 0.48"/>
     <use xlink:href="#m26f2b598c5" x="910.717248" y="177.188271" style="stroke: #ffffff; stroke-width: 0.48"/>
     <use xlink:href="#m26f2b598c5" x="918.26232" y="193.5061" style="stroke: #ffffff; stroke-width: 0.48"/>
     <use xlink:href="#m26f2b598c5" x="925.891226" y="186.651064" style="stroke: #ffffff; stroke-width: 0.48"/>
     <use xlink:href="#m26f2b598c5" x="933.603966" y="198.359595" style="stroke: #ffffff; stroke-width: 0.48"/>
     <use xlink:href="#m26f2b598c5" x="943.915565" y="223.127996" style="stroke: #ffffff; stroke-width: 0.48"/>
     <use xlink:href="#m26f2b598c5" x="956.574519" y="260.87356" style="stroke: #ffffff; stroke-width: 0.48"/>
     <use xlink:href="#m26f2b598c5" x="964.28726" y="275.50415" style="stroke: #ffffff; stroke-width: 0.48"/>
    </g>
   </g>
  </g>
 </g>
 <defs>
  <clipPath id="p65614c88a5">
   <rect x="135" y="43.2" width="837" height="277.2"/>
  </clipPath>
 </defs>
</svg>
