<?xml version="1.0" encoding="utf-8" standalone="no"?>
<!DOCTYPE svg PUBLIC "-//W3C//DTD SVG 1.1//EN"
  "http://www.w3.org/Graphics/SVG/1.1/DTD/svg11.dtd">
<svg xmlns:xlink="http://www.w3.org/1999/xlink" width="1080pt" height="360pt" viewBox="0 0 1080 360" xmlns="http://www.w3.org/2000/svg" version="1.1">
 <metadata>
  <rdf:RDF xmlns:dc="http://purl.org/dc/elements/1.1/" xmlns:cc="http://creativecommons.org/ns#" xmlns:rdf="http://www.w3.org/1999/02/22-rdf-syntax-ns#">
   <cc:Work>
    <dc:type rdf:resource="http://purl.org/dc/dcmitype/StillImage"/>
    <dc:date>2024-01-23T18:50:25.177286</dc:date>
    <dc:format>image/svg+xml</dc:format>
    <dc:creator>
     <cc:Agent>
      <dc:title>Matplotlib v3.8.2, https://matplotlib.org/</dc:title>
     </cc:Agent>
    </dc:creator>
   </cc:Work>
  </rdf:RDF>
 </metadata>
 <defs>
  <style type="text/css">*{stroke-linejoin: round; stroke-linecap: butt}</style>
 </defs>
 <g id="figure_1">
  <g id="patch_1">
   <path d="M 0 360 
L 1080 360 
L 1080 0 
L 0 0 
z
" style="fill: #ffffff"/>
  </g>
  <g id="axes_1">
   <g id="patch_2">
    <path d="M 135 320.4 
L 972 320.4 
L 972 43.2 
L 135 43.2 
z
" style="fill: #ffffff"/>
   </g>
   <g id="PolyCollection_1"/>
   <g id="matplotlib.axis_1">
    <g id="xtick_1">
     <g id="line2d_1">
      <defs>
       <path id="ma7640194fd" d="M 0 0 
L 0 3.5 
" style="stroke: #000000; stroke-width: 0.8"/>
      </defs>
      <g>
       <use xlink:href="#ma7640194fd" x="160.660749" y="320.4" style="stroke: #000000; stroke-width: 0.8"/>
      </g>
     </g>
     <g id="text_1">
      <!-- 1992 -->
      <g transform="translate(147.935749 334.998438) scale(0.1 -0.1)">
       <defs>
        <path id="DejaVuSans-31" d="M 794 531 
L 1825 531 
L 1825 4091 
L 703 3866 
L 703 4441 
L 1819 4666 
L 2450 4666 
L 2450 531 
L 3481 531 
L 3481 0 
L 794 0 
L 794 531 
z
" transform="scale(0.015625)"/>
        <path id="DejaVuSans-39" d="M 703 97 
L 703 672 
Q 941 559 1184 500 
Q 1428 441 1663 441 
Q 2288 441 2617 861 
Q 2947 1281 2994 2138 
Q 2813 1869 2534 1725 
Q 2256 1581 1919 1581 
Q 1219 1581 811 2004 
Q 403 2428 403 3163 
Q 403 3881 828 4315 
Q 1253 4750 1959 4750 
Q 2769 4750 3195 4129 
Q 3622 3509 3622 2328 
Q 3622 1225 3098 567 
Q 2575 -91 1691 -91 
Q 1453 -91 1209 -44 
Q 966 3 703 97 
z
M 1959 2075 
Q 2384 2075 2632 2365 
Q 2881 2656 2881 3163 
Q 2881 3666 2632 3958 
Q 2384 4250 1959 4250 
Q 1534 4250 1286 3958 
Q 1038 3666 1038 3163 
Q 1038 2656 1286 2365 
Q 1534 2075 1959 2075 
z
" transform="scale(0.015625)"/>
        <path id="DejaVuSans-32" d="M 1228 531 
L 3431 531 
L 3431 0 
L 469 0 
L 469 531 
Q 828 903 1448 1529 
Q 2069 2156 2228 2338 
Q 2531 2678 2651 2914 
Q 2772 3150 2772 3378 
Q 2772 3750 2511 3984 
Q 2250 4219 1831 4219 
Q 1534 4219 1204 4116 
Q 875 4013 500 3803 
L 500 4441 
Q 881 4594 1212 4672 
Q 1544 4750 1819 4750 
Q 2544 4750 2975 4387 
Q 3406 4025 3406 3419 
Q 3406 3131 3298 2873 
Q 3191 2616 2906 2266 
Q 2828 2175 2409 1742 
Q 1991 1309 1228 531 
z
" transform="scale(0.015625)"/>
       </defs>
       <use xlink:href="#DejaVuSans-31"/>
       <use xlink:href="#DejaVuSans-39" x="63.623047"/>
       <use xlink:href="#DejaVuSans-39" x="127.246094"/>
       <use xlink:href="#DejaVuSans-32" x="190.869141"/>
      </g>
     </g>
    </g>
    <g id="xtick_2">
     <g id="line2d_2">
      <g>
       <use xlink:href="#ma7640194fd" x="272.572252" y="320.4" style="stroke: #000000; stroke-width: 0.8"/>
      </g>
     </g>
     <g id="text_2">
      <!-- 1996 -->
      <g transform="translate(259.847252 334.998438) scale(0.1 -0.1)">
       <defs>
        <path id="DejaVuSans-36" d="M 2113 2584 
Q 1688 2584 1439 2293 
Q 1191 2003 1191 1497 
Q 1191 994 1439 701 
Q 1688 409 2113 409 
Q 2538 409 2786 701 
Q 3034 994 3034 1497 
Q 3034 2003 2786 2293 
Q 2538 2584 2113 2584 
z
M 3366 4563 
L 3366 3988 
Q 3128 4100 2886 4159 
Q 2644 4219 2406 4219 
Q 1781 4219 1451 3797 
Q 1122 3375 1075 2522 
Q 1259 2794 1537 2939 
Q 1816 3084 2150 3084 
Q 2853 3084 3261 2657 
Q 3669 2231 3669 1497 
Q 3669 778 3244 343 
Q 2819 -91 2113 -91 
Q 1303 -91 875 529 
Q 447 1150 447 2328 
Q 447 3434 972 4092 
Q 1497 4750 2381 4750 
Q 2619 4750 2861 4703 
Q 3103 4656 3366 4563 
z
" transform="scale(0.015625)"/>
       </defs>
       <use xlink:href="#DejaVuSans-31"/>
       <use xlink:href="#DejaVuSans-39" x="63.623047"/>
       <use xlink:href="#DejaVuSans-39" x="127.246094"/>
       <use xlink:href="#DejaVuSans-36" x="190.869141"/>
      </g>
     </g>
    </g>
    <g id="xtick_3">
     <g id="line2d_3">
      <g>
       <use xlink:href="#ma7640194fd" x="384.483756" y="320.4" style="stroke: #000000; stroke-width: 0.8"/>
      </g>
     </g>
     <g id="text_3">
      <!-- 2000 -->
      <g transform="translate(371.758756 334.998438) scale(0.1 -0.1)">
       <defs>
        <path id="DejaVuSans-30" d="M 2034 4250 
Q 1547 4250 1301 3770 
Q 1056 3291 1056 2328 
Q 1056 1369 1301 889 
Q 1547 409 2034 409 
Q 2525 409 2770 889 
Q 3016 1369 3016 2328 
Q 3016 3291 2770 3770 
Q 2525 4250 2034 4250 
z
M 2034 4750 
Q 2819 4750 3233 4129 
Q 3647 3509 3647 2328 
Q 3647 1150 3233 529 
Q 2819 -91 2034 -91 
Q 1250 -91 836 529 
Q 422 1150 422 2328 
Q 422 3509 836 4129 
Q 1250 4750 2034 4750 
z
" transform="scale(0.015625)"/>
       </defs>
       <use xlink:href="#DejaVuSans-32"/>
       <use xlink:href="#DejaVuSans-30" x="63.623047"/>
       <use xlink:href="#DejaVuSans-30" x="127.246094"/>
       <use xlink:href="#DejaVuSans-30" x="190.869141"/>
      </g>
     </g>
    </g>
    <g id="xtick_4">
     <g id="line2d_4">
      <g>
       <use xlink:href="#ma7640194fd" x="496.395259" y="320.4" style="stroke: #000000; stroke-width: 0.8"/>
      </g>
     </g>
     <g id="text_4">
      <!-- 2004 -->
      <g transform="translate(483.670259 334.998438) scale(0.1 -0.1)">
       <defs>
        <path id="DejaVuSans-34" d="M 2419 4116 
L 825 1625 
L 2419 1625 
L 2419 4116 
z
M 2253 4666 
L 3047 4666 
L 3047 1625 
L 3713 1625 
L 3713 1100 
L 3047 1100 
L 3047 0 
L 2419 0 
L 2419 1100 
L 313 1100 
L 313 1709 
L 2253 4666 
z
" transform="scale(0.015625)"/>
       </defs>
       <use xlink:href="#DejaVuSans-32"/>
       <use xlink:href="#DejaVuSans-30" x="63.623047"/>
       <use xlink:href="#DejaVuSans-30" x="127.246094"/>
       <use xlink:href="#DejaVuSans-34" x="190.869141"/>
      </g>
     </g>
    </g>
    <g id="xtick_5">
     <g id="line2d_5">
      <g>
       <use xlink:href="#ma7640194fd" x="608.306763" y="320.4" style="stroke: #000000; stroke-width: 0.8"/>
      </g>
     </g>
     <g id="text_5">
      <!-- 2008 -->
      <g transform="translate(595.581763 334.998438) scale(0.1 -0.1)">
       <defs>
        <path id="DejaVuSans-38" d="M 2034 2216 
Q 1584 2216 1326 1975 
Q 1069 1734 1069 1313 
Q 1069 891 1326 650 
Q 1584 409 2034 409 
Q 2484 409 2743 651 
Q 3003 894 3003 1313 
Q 3003 1734 2745 1975 
Q 2488 2216 2034 2216 
z
M 1403 2484 
Q 997 2584 770 2862 
Q 544 3141 544 3541 
Q 544 4100 942 4425 
Q 1341 4750 2034 4750 
Q 2731 4750 3128 4425 
Q 3525 4100 3525 3541 
Q 3525 3141 3298 2862 
Q 3072 2584 2669 2484 
Q 3125 2378 3379 2068 
Q 3634 1759 3634 1313 
Q 3634 634 3220 271 
Q 2806 -91 2034 -91 
Q 1263 -91 848 271 
Q 434 634 434 1313 
Q 434 1759 690 2068 
Q 947 2378 1403 2484 
z
M 1172 3481 
Q 1172 3119 1398 2916 
Q 1625 2713 2034 2713 
Q 2441 2713 2670 2916 
Q 2900 3119 2900 3481 
Q 2900 3844 2670 4047 
Q 2441 4250 2034 4250 
Q 1625 4250 1398 4047 
Q 1172 3844 1172 3481 
z
" transform="scale(0.015625)"/>
       </defs>
       <use xlink:href="#DejaVuSans-32"/>
       <use xlink:href="#DejaVuSans-30" x="63.623047"/>
       <use xlink:href="#DejaVuSans-30" x="127.246094"/>
       <use xlink:href="#DejaVuSans-38" x="190.869141"/>
      </g>
     </g>
    </g>
    <g id="xtick_6">
     <g id="line2d_6">
      <g>
       <use xlink:href="#ma7640194fd" x="720.218267" y="320.4" style="stroke: #000000; stroke-width: 0.8"/>
      </g>
     </g>
     <g id="text_6">
      <!-- 2012 -->
      <g transform="translate(707.493267 334.998438) scale(0.1 -0.1)">
       <use xlink:href="#DejaVuSans-32"/>
       <use xlink:href="#DejaVuSans-30" x="63.623047"/>
       <use xlink:href="#DejaVuSans-31" x="127.246094"/>
       <use xlink:href="#DejaVuSans-32" x="190.869141"/>
      </g>
     </g>
    </g>
    <g id="xtick_7">
     <g id="line2d_7">
      <g>
       <use xlink:href="#ma7640194fd" x="832.12977" y="320.4" style="stroke: #000000; stroke-width: 0.8"/>
      </g>
     </g>
     <g id="text_7">
      <!-- 2016 -->
      <g transform="translate(819.40477 334.998438) scale(0.1 -0.1)">
       <use xlink:href="#DejaVuSans-32"/>
       <use xlink:href="#DejaVuSans-30" x="63.623047"/>
       <use xlink:href="#DejaVuSans-31" x="127.246094"/>
       <use xlink:href="#DejaVuSans-36" x="190.869141"/>
      </g>
     </g>
    </g>
    <g id="xtick_8">
     <g id="line2d_8">
      <g>
       <use xlink:href="#ma7640194fd" x="944.041274" y="320.4" style="stroke: #000000; stroke-width: 0.8"/>
      </g>
     </g>
     <g id="text_8">
      <!-- 2020 -->
      <g transform="translate(931.316274 334.998438) scale(0.1 -0.1)">
       <use xlink:href="#DejaVuSans-32"/>
       <use xlink:href="#DejaVuSans-30" x="63.623047"/>
       <use xlink:href="#DejaVuSans-32" x="127.246094"/>
       <use xlink:href="#DejaVuSans-30" x="190.869141"/>
      </g>
     </g>
    </g>
   </g>
   <g id="matplotlib.axis_2">
    <g id="ytick_1">
     <g id="line2d_9">
      <defs>
       <path id="m261697b2bf" d="M 0 0 
L -3.5 0 
" style="stroke: #000000; stroke-width: 0.8"/>
      </defs>
      <g>
       <use xlink:href="#m261697b2bf" x="135" y="304.476182" style="stroke: #000000; stroke-width: 0.8"/>
      </g>
     </g>
     <g id="text_9">
      <!-- −2 -->
      <g transform="translate(113.257812 308.2754) scale(0.1 -0.1)">
       <defs>
        <path id="DejaVuSans-2212" d="M 678 2272 
L 4684 2272 
L 4684 1741 
L 678 1741 
L 678 2272 
z
" transform="scale(0.015625)"/>
       </defs>
       <use xlink:href="#DejaVuSans-2212"/>
       <use xlink:href="#DejaVuSans-32" x="83.789062"/>
      </g>
     </g>
    </g>
    <g id="ytick_2">
     <g id="line2d_10">
      <g>
       <use xlink:href="#m261697b2bf" x="135" y="243.138092" style="stroke: #000000; stroke-width: 0.8"/>
      </g>
     </g>
     <g id="text_10">
      <!-- −1 -->
      <g transform="translate(113.257812 246.937311) scale(0.1 -0.1)">
       <use xlink:href="#DejaVuSans-2212"/>
       <use xlink:href="#DejaVuSans-31" x="83.789062"/>
      </g>
     </g>
    </g>
    <g id="ytick_3">
     <g id="line2d_11">
      <g>
       <use xlink:href="#m261697b2bf" x="135" y="181.800003" style="stroke: #000000; stroke-width: 0.8"/>
      </g>
     </g>
     <g id="text_11">
      <!-- 0 -->
      <g transform="translate(121.6375 185.599222) scale(0.1 -0.1)">
       <use xlink:href="#DejaVuSans-30"/>
      </g>
     </g>
    </g>
    <g id="ytick_4">
     <g id="line2d_12">
      <g>
       <use xlink:href="#m261697b2bf" x="135" y="120.461914" style="stroke: #000000; stroke-width: 0.8"/>
      </g>
     </g>
     <g id="text_12">
      <!-- 1 -->
      <g transform="translate(121.6375 124.261133) scale(0.1 -0.1)">
       <use xlink:href="#DejaVuSans-31"/>
      </g>
     </g>
    </g>
    <g id="ytick_5">
     <g id="line2d_13">
      <g>
       <use xlink:href="#m261697b2bf" x="135" y="59.123824" style="stroke: #000000; stroke-width: 0.8"/>
      </g>
     </g>
     <g id="text_13">
      <!-- 2 -->
      <g transform="translate(121.6375 62.923043) scale(0.1 -0.1)">
       <use xlink:href="#DejaVuSans-32"/>
      </g>
     </g>
    </g>
    <g id="text_14">
     <!-- SGI -->
     <g transform="translate(107.178125 190.323437) rotate(-90) scale(0.1 -0.1)">
      <defs>
       <path id="DejaVuSans-53" d="M 3425 4513 
L 3425 3897 
Q 3066 4069 2747 4153 
Q 2428 4238 2131 4238 
Q 1616 4238 1336 4038 
Q 1056 3838 1056 3469 
Q 1056 3159 1242 3001 
Q 1428 2844 1947 2747 
L 2328 2669 
Q 3034 2534 3370 2195 
Q 3706 1856 3706 1288 
Q 3706 609 3251 259 
Q 2797 -91 1919 -91 
Q 1588 -91 1214 -16 
Q 841 59 441 206 
L 441 856 
Q 825 641 1194 531 
Q 1563 422 1919 422 
Q 2459 422 2753 634 
Q 3047 847 3047 1241 
Q 3047 1584 2836 1778 
Q 2625 1972 2144 2069 
L 1759 2144 
Q 1053 2284 737 2584 
Q 422 2884 422 3419 
Q 422 4038 858 4394 
Q 1294 4750 2059 4750 
Q 2388 4750 2728 4690 
Q 3069 4631 3425 4513 
z
" transform="scale(0.015625)"/>
       <path id="DejaVuSans-47" d="M 3809 666 
L 3809 1919 
L 2778 1919 
L 2778 2438 
L 4434 2438 
L 4434 434 
Q 4069 175 3628 42 
Q 3188 -91 2688 -91 
Q 1594 -91 976 548 
Q 359 1188 359 2328 
Q 359 3472 976 4111 
Q 1594 4750 2688 4750 
Q 3144 4750 3555 4637 
Q 3966 4525 4313 4306 
L 4313 3634 
Q 3963 3931 3569 4081 
Q 3175 4231 2741 4231 
Q 1884 4231 1454 3753 
Q 1025 3275 1025 2328 
Q 1025 1384 1454 906 
Q 1884 428 2741 428 
Q 3075 428 3337 486 
Q 3600 544 3809 666 
z
" transform="scale(0.015625)"/>
       <path id="DejaVuSans-49" d="M 628 4666 
L 1259 4666 
L 1259 0 
L 628 0 
L 628 4666 
z
" transform="scale(0.015625)"/>
      </defs>
      <use xlink:href="#DejaVuSans-53"/>
      <use xlink:href="#DejaVuSans-47" x="63.476562"/>
      <use xlink:href="#DejaVuSans-49" x="140.966797"/>
     </g>
    </g>
   </g>
   <g id="line2d_14">
    <path d="M 153.537018 149.435743 
L 181.572344 213.189053 
L 223.472133 196.387456 
L 230.442665 192.707136 
L 237.489796 165.262223 
L 244.536927 232.63884 
L 251.430859 184.63908 
L 258.401391 217.779512 
L 263.150545 250.012618 
L 265.448522 182.666336 
L 272.495653 166.344328 
L 279.466185 146.176443 
L 286.436716 140.883964 
L 293.483847 115.533259 
L 300.530978 107.731722 
L 314.395442 91.352327 
L 321.442573 55.8 
L 330.864281 115.852226 
L 333.00906 124.640548 
L 335.383637 66.667974 
L 337.681614 130.327888 
L 342.354169 64.310718 
L 347.103322 149.646445 
L 349.4013 86.413345 
L 351.775876 128.325371 
L 354.073854 150.144891 
L 356.44843 64.05841 
L 358.823007 147.566556 
L 360.967786 166.329383 
L 363.342363 91.372945 
L 365.64034 97.346079 
L 368.014917 139.617676 
L 370.312895 99.392189 
L 372.687471 103.18121 
L 375.062048 103.205543 
L 379.734602 101.069353 
L 382.03258 157.41091 
L 384.407157 88.139554 
L 386.781733 153.283187 
L 389.003112 189.343062 
L 391.377688 104.564024 
L 393.675666 145.622705 
L 396.050243 147.249358 
L 398.34822 117.109996 
L 403.097373 181.799997 
L 405.395351 103.18121 
L 407.769928 159.370991 
L 410.067905 194.381667 
L 412.442482 120.574274 
L 414.817059 204.099035 
L 416.961838 252.365526 
L 419.336414 120.575695 
L 421.634392 172.175489 
L 424.008969 193.126426 
L 426.306946 130.076379 
L 428.681523 181.799997 
L 433.354077 156.53287 
L 440.401208 209.740903 
L 447.29514 213.811 
L 454.265672 195.1007 
L 461.312803 229.151208 
L 468.359934 255.875033 
L 475.253867 238.157322 
L 482.224398 202.611829 
L 489.271529 200.497498 
L 496.31866 152.719355 
L 503.289192 163.084294 
L 510.259724 177.879329 
L 519.681431 204.229016 
L 524.353986 190.784093 
L 531.247918 177.827734 
L 545.265581 220.041217 
L 552.312712 217.718909 
L 559.206644 198.977243 
L 566.177176 204.772783 
L 573.224307 208.868579 
L 580.271438 191.452762 
L 587.16537 186.059635 
L 594.135902 223.009019 
L 601.183033 244.035798 
L 615.200696 251.633032 
L 622.171227 280.383912 
L 629.218358 307.8 
L 636.265489 296.259658 
L 643.159422 275.489824 
L 650.129953 253.262908 
L 657.177084 260.418796 
L 664.224215 219.077656 
L 671.118148 231.482053 
L 678.088679 252.277772 
L 685.13581 277.186664 
L 692.182941 277.24549 
L 699.076874 292.6324 
L 706.047406 290.675196 
L 713.094536 241.58047 
L 720.141667 154.90757 
L 727.112199 154.884884 
L 729.410177 207.349449 
L 731.784753 204.582602 
L 734.082731 165.066806 
L 736.457308 219.689634 
L 738.831884 219.938238 
L 741.129862 188.442839 
L 743.504439 181.799997 
L 745.802416 227.212989 
L 748.176993 142.484164 
L 750.55157 248.810871 
L 755.070925 134.955483 
L 757.368903 199.648261 
L 762.041457 158.795961 
L 769.088588 142.596737 
L 776.135719 172.364045 
L 783.029651 204.746312 
L 790.000183 234.11476 
L 799.421891 271.691942 
L 804.094445 236.78635 
L 813.286355 275.796884 
L 817.958909 202.078538 
L 825.00604 134.448904 
L 832.053171 131.177345 
L 839.023703 143.359705 
L 848.368811 250.394623 
L 853.041365 175.982506 
L 860.088496 196.807432 
L 866.982429 214.264563 
L 871.654983 223.03411 
L 881.000092 192.453947 
L 888.047222 171.641502 
L 897.239132 230.496222 
L 901.911687 172.433678 
L 908.958818 167.299213 
L 929.870413 150.663952 
L 936.917544 125.659519 
L 946.339251 222.191483 
L 957.905738 140.359034 
L 967.327446 230.344933 
L 967.327446 230.344933 
" clip-path="url(#p51b182d58d)" style="fill: none; stroke: #7f7f7f; stroke-width: 1.5; stroke-linecap: square"/>
   </g>
   <g id="line2d_15">
    <path d="M 135 181.800003 
L 972 181.800003 
" clip-path="url(#p51b182d58d)" style="fill: none; stroke: #000000; stroke-width: 1.5; stroke-linecap: square"/>
   </g>
   <g id="patch_3">
    <path d="M 135 320.4 
L 135 43.2 
" style="fill: none; stroke: #000000; stroke-width: 0.8; stroke-linejoin: miter; stroke-linecap: square"/>
   </g>
   <g id="patch_4">
    <path d="M 135 320.4 
L 972 320.4 
" style="fill: none; stroke: #000000; stroke-width: 0.8; stroke-linejoin: miter; stroke-linecap: square"/>
   </g>
   <g id="text_15">
    <!-- SGI for GWIC ID 136970 -->
    <g transform="translate(135 37.2) scale(0.12 -0.12)">
     <defs>
      <path id="DejaVuSans-Bold-53" d="M 3834 4519 
L 3834 3531 
Q 3450 3703 3084 3790 
Q 2719 3878 2394 3878 
Q 1963 3878 1756 3759 
Q 1550 3641 1550 3391 
Q 1550 3203 1689 3098 
Q 1828 2994 2194 2919 
L 2706 2816 
Q 3484 2659 3812 2340 
Q 4141 2022 4141 1434 
Q 4141 663 3683 286 
Q 3225 -91 2284 -91 
Q 1841 -91 1394 -6 
Q 947 78 500 244 
L 500 1259 
Q 947 1022 1364 901 
Q 1781 781 2169 781 
Q 2563 781 2772 912 
Q 2981 1044 2981 1288 
Q 2981 1506 2839 1625 
Q 2697 1744 2272 1838 
L 1806 1941 
Q 1106 2091 782 2419 
Q 459 2747 459 3303 
Q 459 4000 909 4375 
Q 1359 4750 2203 4750 
Q 2588 4750 2994 4692 
Q 3400 4634 3834 4519 
z
" transform="scale(0.015625)"/>
      <path id="DejaVuSans-Bold-47" d="M 4781 347 
Q 4331 128 3847 18 
Q 3363 -91 2847 -91 
Q 1681 -91 1000 561 
Q 319 1213 319 2328 
Q 319 3456 1012 4103 
Q 1706 4750 2913 4750 
Q 3378 4750 3804 4662 
Q 4231 4575 4609 4403 
L 4609 3438 
Q 4219 3659 3833 3768 
Q 3447 3878 3059 3878 
Q 2341 3878 1952 3476 
Q 1563 3075 1563 2328 
Q 1563 1588 1938 1184 
Q 2313 781 3003 781 
Q 3191 781 3352 804 
Q 3513 828 3641 878 
L 3641 1784 
L 2906 1784 
L 2906 2591 
L 4781 2591 
L 4781 347 
z
" transform="scale(0.015625)"/>
      <path id="DejaVuSans-Bold-49" d="M 588 4666 
L 1791 4666 
L 1791 0 
L 588 0 
L 588 4666 
z
" transform="scale(0.015625)"/>
      <path id="DejaVuSans-Bold-20" transform="scale(0.015625)"/>
      <path id="DejaVuSans-Bold-66" d="M 2841 4863 
L 2841 4128 
L 2222 4128 
Q 1984 4128 1890 4042 
Q 1797 3956 1797 3744 
L 1797 3500 
L 2753 3500 
L 2753 2700 
L 1797 2700 
L 1797 0 
L 678 0 
L 678 2700 
L 122 2700 
L 122 3500 
L 678 3500 
L 678 3744 
Q 678 4316 997 4589 
Q 1316 4863 1984 4863 
L 2841 4863 
z
" transform="scale(0.015625)"/>
      <path id="DejaVuSans-Bold-6f" d="M 2203 2784 
Q 1831 2784 1636 2517 
Q 1441 2250 1441 1747 
Q 1441 1244 1636 976 
Q 1831 709 2203 709 
Q 2569 709 2762 976 
Q 2956 1244 2956 1747 
Q 2956 2250 2762 2517 
Q 2569 2784 2203 2784 
z
M 2203 3584 
Q 3106 3584 3614 3096 
Q 4122 2609 4122 1747 
Q 4122 884 3614 396 
Q 3106 -91 2203 -91 
Q 1297 -91 786 396 
Q 275 884 275 1747 
Q 275 2609 786 3096 
Q 1297 3584 2203 3584 
z
" transform="scale(0.015625)"/>
      <path id="DejaVuSans-Bold-72" d="M 3138 2547 
Q 2991 2616 2845 2648 
Q 2700 2681 2553 2681 
Q 2122 2681 1889 2404 
Q 1656 2128 1656 1613 
L 1656 0 
L 538 0 
L 538 3500 
L 1656 3500 
L 1656 2925 
Q 1872 3269 2151 3426 
Q 2431 3584 2822 3584 
Q 2878 3584 2943 3579 
Q 3009 3575 3134 3559 
L 3138 2547 
z
" transform="scale(0.015625)"/>
      <path id="DejaVuSans-Bold-57" d="M 191 4666 
L 1344 4666 
L 2150 1275 
L 2950 4666 
L 4109 4666 
L 4909 1275 
L 5716 4666 
L 6859 4666 
L 5759 0 
L 4372 0 
L 3525 3547 
L 2688 0 
L 1300 0 
L 191 4666 
z
" transform="scale(0.015625)"/>
      <path id="DejaVuSans-Bold-43" d="M 4288 256 
Q 3956 84 3597 -3 
Q 3238 -91 2847 -91 
Q 1681 -91 1000 561 
Q 319 1213 319 2328 
Q 319 3447 1000 4098 
Q 1681 4750 2847 4750 
Q 3238 4750 3597 4662 
Q 3956 4575 4288 4403 
L 4288 3438 
Q 3953 3666 3628 3772 
Q 3303 3878 2944 3878 
Q 2300 3878 1931 3465 
Q 1563 3053 1563 2328 
Q 1563 1606 1931 1193 
Q 2300 781 2944 781 
Q 3303 781 3628 887 
Q 3953 994 4288 1222 
L 4288 256 
z
" transform="scale(0.015625)"/>
      <path id="DejaVuSans-Bold-44" d="M 1791 3756 
L 1791 909 
L 2222 909 
Q 2959 909 3348 1275 
Q 3738 1641 3738 2338 
Q 3738 3031 3350 3393 
Q 2963 3756 2222 3756 
L 1791 3756 
z
M 588 4666 
L 1856 4666 
Q 2919 4666 3439 4514 
Q 3959 4363 4331 4000 
Q 4659 3684 4818 3271 
Q 4978 2859 4978 2338 
Q 4978 1809 4818 1395 
Q 4659 981 4331 666 
Q 3956 303 3431 151 
Q 2906 0 1856 0 
L 588 0 
L 588 4666 
z
" transform="scale(0.015625)"/>
      <path id="DejaVuSans-Bold-31" d="M 750 831 
L 1813 831 
L 1813 3847 
L 722 3622 
L 722 4441 
L 1806 4666 
L 2950 4666 
L 2950 831 
L 4013 831 
L 4013 0 
L 750 0 
L 750 831 
z
" transform="scale(0.015625)"/>
      <path id="DejaVuSans-Bold-33" d="M 2981 2516 
Q 3453 2394 3698 2092 
Q 3944 1791 3944 1325 
Q 3944 631 3412 270 
Q 2881 -91 1863 -91 
Q 1503 -91 1142 -33 
Q 781 25 428 141 
L 428 1069 
Q 766 900 1098 814 
Q 1431 728 1753 728 
Q 2231 728 2486 893 
Q 2741 1059 2741 1369 
Q 2741 1688 2480 1852 
Q 2219 2016 1709 2016 
L 1228 2016 
L 1228 2791 
L 1734 2791 
Q 2188 2791 2409 2933 
Q 2631 3075 2631 3366 
Q 2631 3634 2415 3781 
Q 2200 3928 1806 3928 
Q 1516 3928 1219 3862 
Q 922 3797 628 3669 
L 628 4550 
Q 984 4650 1334 4700 
Q 1684 4750 2022 4750 
Q 2931 4750 3382 4451 
Q 3834 4153 3834 3553 
Q 3834 3144 3618 2883 
Q 3403 2622 2981 2516 
z
" transform="scale(0.015625)"/>
      <path id="DejaVuSans-Bold-36" d="M 2316 2303 
Q 2000 2303 1842 2098 
Q 1684 1894 1684 1484 
Q 1684 1075 1842 870 
Q 2000 666 2316 666 
Q 2634 666 2792 870 
Q 2950 1075 2950 1484 
Q 2950 1894 2792 2098 
Q 2634 2303 2316 2303 
z
M 3803 4544 
L 3803 3681 
Q 3506 3822 3243 3889 
Q 2981 3956 2731 3956 
Q 2194 3956 1894 3657 
Q 1594 3359 1544 2772 
Q 1750 2925 1990 3001 
Q 2231 3078 2516 3078 
Q 3231 3078 3670 2659 
Q 4109 2241 4109 1563 
Q 4109 813 3618 361 
Q 3128 -91 2303 -91 
Q 1394 -91 895 523 
Q 397 1138 397 2266 
Q 397 3422 980 4083 
Q 1563 4744 2578 4744 
Q 2900 4744 3203 4694 
Q 3506 4644 3803 4544 
z
" transform="scale(0.015625)"/>
      <path id="DejaVuSans-Bold-39" d="M 641 103 
L 641 966 
Q 928 831 1190 764 
Q 1453 697 1709 697 
Q 2247 697 2547 995 
Q 2847 1294 2900 1881 
Q 2688 1725 2447 1647 
Q 2206 1569 1925 1569 
Q 1209 1569 770 1986 
Q 331 2403 331 3084 
Q 331 3838 820 4291 
Q 1309 4744 2131 4744 
Q 3044 4744 3544 4128 
Q 4044 3513 4044 2388 
Q 4044 1231 3459 570 
Q 2875 -91 1856 -91 
Q 1528 -91 1228 -42 
Q 928 6 641 103 
z
M 2125 2350 
Q 2441 2350 2600 2554 
Q 2759 2759 2759 3169 
Q 2759 3575 2600 3781 
Q 2441 3988 2125 3988 
Q 1809 3988 1650 3781 
Q 1491 3575 1491 3169 
Q 1491 2759 1650 2554 
Q 1809 2350 2125 2350 
z
" transform="scale(0.015625)"/>
      <path id="DejaVuSans-Bold-37" d="M 428 4666 
L 3944 4666 
L 3944 3988 
L 2125 0 
L 953 0 
L 2675 3781 
L 428 3781 
L 428 4666 
z
" transform="scale(0.015625)"/>
      <path id="DejaVuSans-Bold-30" d="M 2944 2338 
Q 2944 3213 2780 3570 
Q 2616 3928 2228 3928 
Q 1841 3928 1675 3570 
Q 1509 3213 1509 2338 
Q 1509 1453 1675 1090 
Q 1841 728 2228 728 
Q 2613 728 2778 1090 
Q 2944 1453 2944 2338 
z
M 4147 2328 
Q 4147 1169 3647 539 
Q 3147 -91 2228 -91 
Q 1306 -91 806 539 
Q 306 1169 306 2328 
Q 306 3491 806 4120 
Q 1306 4750 2228 4750 
Q 3147 4750 3647 4120 
Q 4147 3491 4147 2328 
z
" transform="scale(0.015625)"/>
     </defs>
     <use xlink:href="#DejaVuSans-Bold-53"/>
     <use xlink:href="#DejaVuSans-Bold-47" x="72.021484"/>
     <use xlink:href="#DejaVuSans-Bold-49" x="154.101562"/>
     <use xlink:href="#DejaVuSans-Bold-20" x="191.308594"/>
     <use xlink:href="#DejaVuSans-Bold-66" x="226.123047"/>
     <use xlink:href="#DejaVuSans-Bold-6f" x="269.628906"/>
     <use xlink:href="#DejaVuSans-Bold-72" x="338.330078"/>
     <use xlink:href="#DejaVuSans-Bold-20" x="387.646484"/>
     <use xlink:href="#DejaVuSans-Bold-47" x="422.460938"/>
     <use xlink:href="#DejaVuSans-Bold-57" x="504.541016"/>
     <use xlink:href="#DejaVuSans-Bold-49" x="614.84375"/>
     <use xlink:href="#DejaVuSans-Bold-43" x="652.050781"/>
     <use xlink:href="#DejaVuSans-Bold-20" x="725.439453"/>
     <use xlink:href="#DejaVuSans-Bold-49" x="760.253906"/>
     <use xlink:href="#DejaVuSans-Bold-44" x="797.460938"/>
     <use xlink:href="#DejaVuSans-Bold-20" x="880.46875"/>
     <use xlink:href="#DejaVuSans-Bold-31" x="915.283203"/>
     <use xlink:href="#DejaVuSans-Bold-33" x="984.863281"/>
     <use xlink:href="#DejaVuSans-Bold-36" x="1054.443359"/>
     <use xlink:href="#DejaVuSans-Bold-39" x="1124.023438"/>
     <use xlink:href="#DejaVuSans-Bold-37" x="1193.603516"/>
     <use xlink:href="#DejaVuSans-Bold-30" x="1263.183594"/>
    </g>
   </g>
   <g id="PathCollection_1">
    <defs>
     <path id="m839893ea09" d="M 0 3 
C 0.795609 3 1.55874 2.683901 2.12132 2.12132 
C 2.683901 1.55874 3 0.795609 3 0 
C 3 -0.795609 2.683901 -1.55874 2.12132 -2.12132 
C 1.55874 -2.683901 0.795609 -3 0 -3 
C -0.795609 -3 -1.55874 -2.683901 -2.12132 -2.12132 
C -2.683901 -1.55874 -3 -0.795609 -3 0 
C -3 0.795609 -2.683901 1.55874 -2.12132 2.12132 
C -1.55874 2.683901 -0.795609 3 0 3 
z
" style="stroke: #ffffff; stroke-width: 0.48"/>
    </defs>
    <g clip-path="url(#p51b182d58d)">
     <use xlink:href="#m839893ea09" x="153.537018" y="149.435743" style="stroke: #ffffff; stroke-width: 0.48"/>
     <use xlink:href="#m839893ea09" x="181.572344" y="213.189053" style="stroke: #ffffff; stroke-width: 0.48"/>
     <use xlink:href="#m839893ea09" x="223.472133" y="196.387456" style="stroke: #ffffff; stroke-width: 0.48"/>
     <use xlink:href="#m839893ea09" x="230.442665" y="192.707136" style="stroke: #ffffff; stroke-width: 0.48"/>
     <use xlink:href="#m839893ea09" x="237.489796" y="165.262223" style="stroke: #ffffff; stroke-width: 0.48"/>
     <use xlink:href="#m839893ea09" x="244.536927" y="232.63884" style="stroke: #ffffff; stroke-width: 0.48"/>
     <use xlink:href="#m839893ea09" x="251.430859" y="184.63908" style="stroke: #ffffff; stroke-width: 0.48"/>
     <use xlink:href="#m839893ea09" x="258.401391" y="217.779512" style="stroke: #ffffff; stroke-width: 0.48"/>
     <use xlink:href="#m839893ea09" x="263.150545" y="250.012618" style="stroke: #ffffff; stroke-width: 0.48"/>
     <use xlink:href="#m839893ea09" x="265.448522" y="182.666336" style="stroke: #ffffff; stroke-width: 0.48"/>
     <use xlink:href="#m839893ea09" x="272.495653" y="166.344328" style="stroke: #ffffff; stroke-width: 0.48"/>
     <use xlink:href="#m839893ea09" x="279.466185" y="146.176443" style="stroke: #ffffff; stroke-width: 0.48"/>
     <use xlink:href="#m839893ea09" x="286.436716" y="140.883964" style="stroke: #ffffff; stroke-width: 0.48"/>
     <use xlink:href="#m839893ea09" x="293.483847" y="115.533259" style="stroke: #ffffff; stroke-width: 0.48"/>
     <use xlink:href="#m839893ea09" x="300.530978" y="107.731722" style="stroke: #ffffff; stroke-width: 0.48"/>
     <use xlink:href="#m839893ea09" x="314.395442" y="91.352327" style="stroke: #ffffff; stroke-width: 0.48"/>
     <use xlink:href="#m839893ea09" x="321.442573" y="55.8" style="stroke: #ffffff; stroke-width: 0.48"/>
     <use xlink:href="#m839893ea09" x="330.864281" y="115.852226" style="stroke: #ffffff; stroke-width: 0.48"/>
     <use xlink:href="#m839893ea09" x="333.00906" y="124.640548" style="stroke: #ffffff; stroke-width: 0.48"/>
     <use xlink:href="#m839893ea09" x="335.383637" y="66.667974" style="stroke: #ffffff; stroke-width: 0.48"/>
     <use xlink:href="#m839893ea09" x="337.681614" y="130.327888" style="stroke: #ffffff; stroke-width: 0.48"/>
     <use xlink:href="#m839893ea09" x="342.354169" y="64.310718" style="stroke: #ffffff; stroke-width: 0.48"/>
     <use xlink:href="#m839893ea09" x="347.103322" y="149.646445" style="stroke: #ffffff; stroke-width: 0.48"/>
     <use xlink:href="#m839893ea09" x="349.4013" y="86.413345" style="stroke: #ffffff; stroke-width: 0.48"/>
     <use xlink:href="#m839893ea09" x="351.775876" y="128.325371" style="stroke: #ffffff; stroke-width: 0.48"/>
     <use xlink:href="#m839893ea09" x="354.073854" y="150.144891" style="stroke: #ffffff; stroke-width: 0.48"/>
     <use xlink:href="#m839893ea09" x="356.44843" y="64.05841" style="stroke: #ffffff; stroke-width: 0.48"/>
     <use xlink:href="#m839893ea09" x="358.823007" y="147.566556" style="stroke: #ffffff; stroke-width: 0.48"/>
     <use xlink:href="#m839893ea09" x="360.967786" y="166.329383" style="stroke: #ffffff; stroke-width: 0.48"/>
     <use xlink:href="#m839893ea09" x="363.342363" y="91.372945" style="stroke: #ffffff; stroke-width: 0.48"/>
     <use xlink:href="#m839893ea09" x="365.64034" y="97.346079" style="stroke: #ffffff; stroke-width: 0.48"/>
     <use xlink:href="#m839893ea09" x="368.014917" y="139.617676" style="stroke: #ffffff; stroke-width: 0.48"/>
     <use xlink:href="#m839893ea09" x="370.312895" y="99.392189" style="stroke: #ffffff; stroke-width: 0.48"/>
     <use xlink:href="#m839893ea09" x="372.687471" y="103.18121" style="stroke: #ffffff; stroke-width: 0.48"/>
     <use xlink:href="#m839893ea09" x="375.062048" y="103.205543" style="stroke: #ffffff; stroke-width: 0.48"/>
     <use xlink:href="#m839893ea09" x="379.734602" y="101.069353" style="stroke: #ffffff; stroke-width: 0.48"/>
     <use xlink:href="#m839893ea09" x="382.03258" y="157.41091" style="stroke: #ffffff; stroke-width: 0.48"/>
     <use xlink:href="#m839893ea09" x="384.407157" y="88.139554" style="stroke: #ffffff; stroke-width: 0.48"/>
     <use xlink:href="#m839893ea09" x="386.781733" y="153.283187" style="stroke: #ffffff; stroke-width: 0.48"/>
     <use xlink:href="#m839893ea09" x="389.003112" y="189.343062" style="stroke: #ffffff; stroke-width: 0.48"/>
     <use xlink:href="#m839893ea09" x="391.377688" y="104.564024" style="stroke: #ffffff; stroke-width: 0.48"/>
     <use xlink:href="#m839893ea09" x="393.675666" y="145.622705" style="stroke: #ffffff; stroke-width: 0.48"/>
     <use xlink:href="#m839893ea09" x="396.050243" y="147.249358" style="stroke: #ffffff; stroke-width: 0.48"/>
     <use xlink:href="#m839893ea09" x="398.34822" y="117.109996" style="stroke: #ffffff; stroke-width: 0.48"/>
     <use xlink:href="#m839893ea09" x="400.722797" y="149.65873" style="stroke: #ffffff; stroke-width: 0.48"/>
     <use xlink:href="#m839893ea09" x="403.097373" y="181.799997" style="stroke: #ffffff; stroke-width: 0.48"/>
     <use xlink:href="#m839893ea09" x="405.395351" y="103.18121" style="stroke: #ffffff; stroke-width: 0.48"/>
     <use xlink:href="#m839893ea09" x="407.769928" y="159.370991" style="stroke: #ffffff; stroke-width: 0.48"/>
     <use xlink:href="#m839893ea09" x="410.067905" y="194.381667" style="stroke: #ffffff; stroke-width: 0.48"/>
     <use xlink:href="#m839893ea09" x="412.442482" y="120.574274" style="stroke: #ffffff; stroke-width: 0.48"/>
     <use xlink:href="#m839893ea09" x="414.817059" y="204.099035" style="stroke: #ffffff; stroke-width: 0.48"/>
     <use xlink:href="#m839893ea09" x="416.961838" y="252.365526" style="stroke: #ffffff; stroke-width: 0.48"/>
     <use xlink:href="#m839893ea09" x="419.336414" y="120.575695" style="stroke: #ffffff; stroke-width: 0.48"/>
     <use xlink:href="#m839893ea09" x="421.634392" y="172.175489" style="stroke: #ffffff; stroke-width: 0.48"/>
     <use xlink:href="#m839893ea09" x="424.008969" y="193.126426" style="stroke: #ffffff; stroke-width: 0.48"/>
     <use xlink:href="#m839893ea09" x="426.306946" y="130.076379" style="stroke: #ffffff; stroke-width: 0.48"/>
     <use xlink:href="#m839893ea09" x="428.681523" y="181.799997" style="stroke: #ffffff; stroke-width: 0.48"/>
     <use xlink:href="#m839893ea09" x="433.354077" y="156.53287" style="stroke: #ffffff; stroke-width: 0.48"/>
     <use xlink:href="#m839893ea09" x="440.401208" y="209.740903" style="stroke: #ffffff; stroke-width: 0.48"/>
     <use xlink:href="#m839893ea09" x="447.29514" y="213.811" style="stroke: #ffffff; stroke-width: 0.48"/>
     <use xlink:href="#m839893ea09" x="454.265672" y="195.1007" style="stroke: #ffffff; stroke-width: 0.48"/>
     <use xlink:href="#m839893ea09" x="461.312803" y="229.151208" style="stroke: #ffffff; stroke-width: 0.48"/>
     <use xlink:href="#m839893ea09" x="468.359934" y="255.875033" style="stroke: #ffffff; stroke-width: 0.48"/>
     <use xlink:href="#m839893ea09" x="475.253867" y="238.157322" style="stroke: #ffffff; stroke-width: 0.48"/>
     <use xlink:href="#m839893ea09" x="482.224398" y="202.611829" style="stroke: #ffffff; stroke-width: 0.48"/>
     <use xlink:href="#m839893ea09" x="489.271529" y="200.497498" style="stroke: #ffffff; stroke-width: 0.48"/>
     <use xlink:href="#m839893ea09" x="496.31866" y="152.719355" style="stroke: #ffffff; stroke-width: 0.48"/>
     <use xlink:href="#m839893ea09" x="503.289192" y="163.084294" style="stroke: #ffffff; stroke-width: 0.48"/>
     <use xlink:href="#m839893ea09" x="510.259724" y="177.879329" style="stroke: #ffffff; stroke-width: 0.48"/>
     <use xlink:href="#m839893ea09" x="519.681431" y="204.229016" style="stroke: #ffffff; stroke-width: 0.48"/>
     <use xlink:href="#m839893ea09" x="524.353986" y="190.784093" style="stroke: #ffffff; stroke-width: 0.48"/>
     <use xlink:href="#m839893ea09" x="531.247918" y="177.827734" style="stroke: #ffffff; stroke-width: 0.48"/>
     <use xlink:href="#m839893ea09" x="545.265581" y="220.041217" style="stroke: #ffffff; stroke-width: 0.48"/>
     <use xlink:href="#m839893ea09" x="552.312712" y="217.718909" style="stroke: #ffffff; stroke-width: 0.48"/>
     <use xlink:href="#m839893ea09" x="559.206644" y="198.977243" style="stroke: #ffffff; stroke-width: 0.48"/>
     <use xlink:href="#m839893ea09" x="566.177176" y="204.772783" style="stroke: #ffffff; stroke-width: 0.48"/>
     <use xlink:href="#m839893ea09" x="573.224307" y="208.868579" style="stroke: #ffffff; stroke-width: 0.48"/>
     <use xlink:href="#m839893ea09" x="580.271438" y="191.452762" style="stroke: #ffffff; stroke-width: 0.48"/>
     <use xlink:href="#m839893ea09" x="587.16537" y="186.059635" style="stroke: #ffffff; stroke-width: 0.48"/>
     <use xlink:href="#m839893ea09" x="594.135902" y="223.009019" style="stroke: #ffffff; stroke-width: 0.48"/>
     <use xlink:href="#m839893ea09" x="601.183033" y="244.035798" style="stroke: #ffffff; stroke-width: 0.48"/>
     <use xlink:href="#m839893ea09" x="615.200696" y="251.633032" style="stroke: #ffffff; stroke-width: 0.48"/>
     <use xlink:href="#m839893ea09" x="622.171227" y="280.383912" style="stroke: #ffffff; stroke-width: 0.48"/>
     <use xlink:href="#m839893ea09" x="629.218358" y="307.8" style="stroke: #ffffff; stroke-width: 0.48"/>
     <use xlink:href="#m839893ea09" x="636.265489" y="296.259658" style="stroke: #ffffff; stroke-width: 0.48"/>
     <use xlink:href="#m839893ea09" x="643.159422" y="275.489824" style="stroke: #ffffff; stroke-width: 0.48"/>
     <use xlink:href="#m839893ea09" x="650.129953" y="253.262908" style="stroke: #ffffff; stroke-width: 0.48"/>
     <use xlink:href="#m839893ea09" x="657.177084" y="260.418796" style="stroke: #ffffff; stroke-width: 0.48"/>
     <use xlink:href="#m839893ea09" x="664.224215" y="219.077656" style="stroke: #ffffff; stroke-width: 0.48"/>
     <use xlink:href="#m839893ea09" x="671.118148" y="231.482053" style="stroke: #ffffff; stroke-width: 0.48"/>
     <use xlink:href="#m839893ea09" x="678.088679" y="252.277772" style="stroke: #ffffff; stroke-width: 0.48"/>
     <use xlink:href="#m839893ea09" x="685.13581" y="277.186664" style="stroke: #ffffff; stroke-width: 0.48"/>
     <use xlink:href="#m839893ea09" x="692.182941" y="277.24549" style="stroke: #ffffff; stroke-width: 0.48"/>
     <use xlink:href="#m839893ea09" x="699.076874" y="292.6324" style="stroke: #ffffff; stroke-width: 0.48"/>
     <use xlink:href="#m839893ea09" x="706.047406" y="290.675196" style="stroke: #ffffff; stroke-width: 0.48"/>
     <use xlink:href="#m839893ea09" x="713.094536" y="241.58047" style="stroke: #ffffff; stroke-width: 0.48"/>
     <use xlink:href="#m839893ea09" x="720.141667" y="154.90757" style="stroke: #ffffff; stroke-width: 0.48"/>
     <use xlink:href="#m839893ea09" x="727.112199" y="154.884884" style="stroke: #ffffff; stroke-width: 0.48"/>
     <use xlink:href="#m839893ea09" x="729.410177" y="207.349449" style="stroke: #ffffff; stroke-width: 0.48"/>
     <use xlink:href="#m839893ea09" x="731.784753" y="204.582602" style="stroke: #ffffff; stroke-width: 0.48"/>
     <use xlink:href="#m839893ea09" x="734.082731" y="165.066806" style="stroke: #ffffff; stroke-width: 0.48"/>
     <use xlink:href="#m839893ea09" x="736.457308" y="219.689634" style="stroke: #ffffff; stroke-width: 0.48"/>
     <use xlink:href="#m839893ea09" x="738.831884" y="219.938238" style="stroke: #ffffff; stroke-width: 0.48"/>
     <use xlink:href="#m839893ea09" x="741.129862" y="188.442839" style="stroke: #ffffff; stroke-width: 0.48"/>
     <use xlink:href="#m839893ea09" x="743.504439" y="181.799997" style="stroke: #ffffff; stroke-width: 0.48"/>
     <use xlink:href="#m839893ea09" x="745.802416" y="227.212989" style="stroke: #ffffff; stroke-width: 0.48"/>
     <use xlink:href="#m839893ea09" x="748.176993" y="142.484164" style="stroke: #ffffff; stroke-width: 0.48"/>
     <use xlink:href="#m839893ea09" x="750.55157" y="248.810871" style="stroke: #ffffff; stroke-width: 0.48"/>
     <use xlink:href="#m839893ea09" x="755.070925" y="134.955483" style="stroke: #ffffff; stroke-width: 0.48"/>
     <use xlink:href="#m839893ea09" x="757.368903" y="199.648261" style="stroke: #ffffff; stroke-width: 0.48"/>
     <use xlink:href="#m839893ea09" x="762.041457" y="158.795961" style="stroke: #ffffff; stroke-width: 0.48"/>
     <use xlink:href="#m839893ea09" x="769.088588" y="142.596737" style="stroke: #ffffff; stroke-width: 0.48"/>
     <use xlink:href="#m839893ea09" x="776.135719" y="172.364045" style="stroke: #ffffff; stroke-width: 0.48"/>
     <use xlink:href="#m839893ea09" x="783.029651" y="204.746312" style="stroke: #ffffff; stroke-width: 0.48"/>
     <use xlink:href="#m839893ea09" x="790.000183" y="234.11476" style="stroke: #ffffff; stroke-width: 0.48"/>
     <use xlink:href="#m839893ea09" x="799.421891" y="271.691942" style="stroke: #ffffff; stroke-width: 0.48"/>
     <use xlink:href="#m839893ea09" x="804.094445" y="236.78635" style="stroke: #ffffff; stroke-width: 0.48"/>
     <use xlink:href="#m839893ea09" x="813.286355" y="275.796884" style="stroke: #ffffff; stroke-width: 0.48"/>
     <use xlink:href="#m839893ea09" x="817.958909" y="202.078538" style="stroke: #ffffff; stroke-width: 0.48"/>
     <use xlink:href="#m839893ea09" x="825.00604" y="134.448904" style="stroke: #ffffff; stroke-width: 0.48"/>
     <use xlink:href="#m839893ea09" x="832.053171" y="131.177345" style="stroke: #ffffff; stroke-width: 0.48"/>
     <use xlink:href="#m839893ea09" x="839.023703" y="143.359705" style="stroke: #ffffff; stroke-width: 0.48"/>
     <use xlink:href="#m839893ea09" x="848.368811" y="250.394623" style="stroke: #ffffff; stroke-width: 0.48"/>
     <use xlink:href="#m839893ea09" x="853.041365" y="175.982506" style="stroke: #ffffff; stroke-width: 0.48"/>
     <use xlink:href="#m839893ea09" x="860.088496" y="196.807432" style="stroke: #ffffff; stroke-width: 0.48"/>
     <use xlink:href="#m839893ea09" x="866.982429" y="214.264563" style="stroke: #ffffff; stroke-width: 0.48"/>
     <use xlink:href="#m839893ea09" x="871.654983" y="223.03411" style="stroke: #ffffff; stroke-width: 0.48"/>
     <use xlink:href="#m839893ea09" x="881.000092" y="192.453947" style="stroke: #ffffff; stroke-width: 0.48"/>
     <use xlink:href="#m839893ea09" x="888.047222" y="171.641502" style="stroke: #ffffff; stroke-width: 0.48"/>
     <use xlink:href="#m839893ea09" x="897.239132" y="230.496222" style="stroke: #ffffff; stroke-width: 0.48"/>
     <use xlink:href="#m839893ea09" x="901.911687" y="172.433678" style="stroke: #ffffff; stroke-width: 0.48"/>
     <use xlink:href="#m839893ea09" x="908.958818" y="167.299213" style="stroke: #ffffff; stroke-width: 0.48"/>
     <use xlink:href="#m839893ea09" x="929.870413" y="150.663952" style="stroke: #ffffff; stroke-width: 0.48"/>
     <use xlink:href="#m839893ea09" x="936.917544" y="125.659519" style="stroke: #ffffff; stroke-width: 0.48"/>
     <use xlink:href="#m839893ea09" x="946.339251" y="222.191483" style="stroke: #ffffff; stroke-width: 0.48"/>
     <use xlink:href="#m839893ea09" x="957.905738" y="140.359034" style="stroke: #ffffff; stroke-width: 0.48"/>
     <use xlink:href="#m839893ea09" x="967.327446" y="230.344933" style="stroke: #ffffff; stroke-width: 0.48"/>
    </g>
   </g>
  </g>
 </g>
 <defs>
  <clipPath id="p51b182d58d">
   <rect x="135" y="43.2" width="837" height="277.2"/>
  </clipPath>
 </defs>
</svg>
