<?xml version="1.0" encoding="utf-8" standalone="no"?>
<!DOCTYPE svg PUBLIC "-//W3C//DTD SVG 1.1//EN"
  "http://www.w3.org/Graphics/SVG/1.1/DTD/svg11.dtd">
<svg xmlns:xlink="http://www.w3.org/1999/xlink" width="1080pt" height="360pt" viewBox="0 0 1080 360" xmlns="http://www.w3.org/2000/svg" version="1.1">
 <metadata>
  <rdf:RDF xmlns:dc="http://purl.org/dc/elements/1.1/" xmlns:cc="http://creativecommons.org/ns#" xmlns:rdf="http://www.w3.org/1999/02/22-rdf-syntax-ns#">
   <cc:Work>
    <dc:type rdf:resource="http://purl.org/dc/dcmitype/StillImage"/>
    <dc:date>2024-01-23T18:50:24.068999</dc:date>
    <dc:format>image/svg+xml</dc:format>
    <dc:creator>
     <cc:Agent>
      <dc:title>Matplotlib v3.8.2, https://matplotlib.org/</dc:title>
     </cc:Agent>
    </dc:creator>
   </cc:Work>
  </rdf:RDF>
 </metadata>
 <defs>
  <style type="text/css">*{stroke-linejoin: round; stroke-linecap: butt}</style>
 </defs>
 <g id="figure_1">
  <g id="patch_1">
   <path d="M 0 360 
L 1080 360 
L 1080 0 
L 0 0 
z
" style="fill: #ffffff"/>
  </g>
  <g id="axes_1">
   <g id="patch_2">
    <path d="M 135 320.4 
L 972 320.4 
L 972 43.2 
L 135 43.2 
z
" style="fill: #ffffff"/>
   </g>
   <g id="PolyCollection_1"/>
   <g id="matplotlib.axis_1">
    <g id="xtick_1">
     <g id="line2d_1">
      <defs>
       <path id="m542545a32d" d="M 0 0 
L 0 3.5 
" style="stroke: #000000; stroke-width: 0.8"/>
      </defs>
      <g>
       <use xlink:href="#m542545a32d" x="160.660749" y="320.4" style="stroke: #000000; stroke-width: 0.8"/>
      </g>
     </g>
     <g id="text_1">
      <!-- 1992 -->
      <g transform="translate(147.935749 334.998438) scale(0.1 -0.1)">
       <defs>
        <path id="DejaVuSans-31" d="M 794 531 
L 1825 531 
L 1825 4091 
L 703 3866 
L 703 4441 
L 1819 4666 
L 2450 4666 
L 2450 531 
L 3481 531 
L 3481 0 
L 794 0 
L 794 531 
z
" transform="scale(0.015625)"/>
        <path id="DejaVuSans-39" d="M 703 97 
L 703 672 
Q 941 559 1184 500 
Q 1428 441 1663 441 
Q 2288 441 2617 861 
Q 2947 1281 2994 2138 
Q 2813 1869 2534 1725 
Q 2256 1581 1919 1581 
Q 1219 1581 811 2004 
Q 403 2428 403 3163 
Q 403 3881 828 4315 
Q 1253 4750 1959 4750 
Q 2769 4750 3195 4129 
Q 3622 3509 3622 2328 
Q 3622 1225 3098 567 
Q 2575 -91 1691 -91 
Q 1453 -91 1209 -44 
Q 966 3 703 97 
z
M 1959 2075 
Q 2384 2075 2632 2365 
Q 2881 2656 2881 3163 
Q 2881 3666 2632 3958 
Q 2384 4250 1959 4250 
Q 1534 4250 1286 3958 
Q 1038 3666 1038 3163 
Q 1038 2656 1286 2365 
Q 1534 2075 1959 2075 
z
" transform="scale(0.015625)"/>
        <path id="DejaVuSans-32" d="M 1228 531 
L 3431 531 
L 3431 0 
L 469 0 
L 469 531 
Q 828 903 1448 1529 
Q 2069 2156 2228 2338 
Q 2531 2678 2651 2914 
Q 2772 3150 2772 3378 
Q 2772 3750 2511 3984 
Q 2250 4219 1831 4219 
Q 1534 4219 1204 4116 
Q 875 4013 500 3803 
L 500 4441 
Q 881 4594 1212 4672 
Q 1544 4750 1819 4750 
Q 2544 4750 2975 4387 
Q 3406 4025 3406 3419 
Q 3406 3131 3298 2873 
Q 3191 2616 2906 2266 
Q 2828 2175 2409 1742 
Q 1991 1309 1228 531 
z
" transform="scale(0.015625)"/>
       </defs>
       <use xlink:href="#DejaVuSans-31"/>
       <use xlink:href="#DejaVuSans-39" x="63.623047"/>
       <use xlink:href="#DejaVuSans-39" x="127.246094"/>
       <use xlink:href="#DejaVuSans-32" x="190.869141"/>
      </g>
     </g>
    </g>
    <g id="xtick_2">
     <g id="line2d_2">
      <g>
       <use xlink:href="#m542545a32d" x="272.572252" y="320.4" style="stroke: #000000; stroke-width: 0.8"/>
      </g>
     </g>
     <g id="text_2">
      <!-- 1996 -->
      <g transform="translate(259.847252 334.998438) scale(0.1 -0.1)">
       <defs>
        <path id="DejaVuSans-36" d="M 2113 2584 
Q 1688 2584 1439 2293 
Q 1191 2003 1191 1497 
Q 1191 994 1439 701 
Q 1688 409 2113 409 
Q 2538 409 2786 701 
Q 3034 994 3034 1497 
Q 3034 2003 2786 2293 
Q 2538 2584 2113 2584 
z
M 3366 4563 
L 3366 3988 
Q 3128 4100 2886 4159 
Q 2644 4219 2406 4219 
Q 1781 4219 1451 3797 
Q 1122 3375 1075 2522 
Q 1259 2794 1537 2939 
Q 1816 3084 2150 3084 
Q 2853 3084 3261 2657 
Q 3669 2231 3669 1497 
Q 3669 778 3244 343 
Q 2819 -91 2113 -91 
Q 1303 -91 875 529 
Q 447 1150 447 2328 
Q 447 3434 972 4092 
Q 1497 4750 2381 4750 
Q 2619 4750 2861 4703 
Q 3103 4656 3366 4563 
z
" transform="scale(0.015625)"/>
       </defs>
       <use xlink:href="#DejaVuSans-31"/>
       <use xlink:href="#DejaVuSans-39" x="63.623047"/>
       <use xlink:href="#DejaVuSans-39" x="127.246094"/>
       <use xlink:href="#DejaVuSans-36" x="190.869141"/>
      </g>
     </g>
    </g>
    <g id="xtick_3">
     <g id="line2d_3">
      <g>
       <use xlink:href="#m542545a32d" x="384.483756" y="320.4" style="stroke: #000000; stroke-width: 0.8"/>
      </g>
     </g>
     <g id="text_3">
      <!-- 2000 -->
      <g transform="translate(371.758756 334.998438) scale(0.1 -0.1)">
       <defs>
        <path id="DejaVuSans-30" d="M 2034 4250 
Q 1547 4250 1301 3770 
Q 1056 3291 1056 2328 
Q 1056 1369 1301 889 
Q 1547 409 2034 409 
Q 2525 409 2770 889 
Q 3016 1369 3016 2328 
Q 3016 3291 2770 3770 
Q 2525 4250 2034 4250 
z
M 2034 4750 
Q 2819 4750 3233 4129 
Q 3647 3509 3647 2328 
Q 3647 1150 3233 529 
Q 2819 -91 2034 -91 
Q 1250 -91 836 529 
Q 422 1150 422 2328 
Q 422 3509 836 4129 
Q 1250 4750 2034 4750 
z
" transform="scale(0.015625)"/>
       </defs>
       <use xlink:href="#DejaVuSans-32"/>
       <use xlink:href="#DejaVuSans-30" x="63.623047"/>
       <use xlink:href="#DejaVuSans-30" x="127.246094"/>
       <use xlink:href="#DejaVuSans-30" x="190.869141"/>
      </g>
     </g>
    </g>
    <g id="xtick_4">
     <g id="line2d_4">
      <g>
       <use xlink:href="#m542545a32d" x="496.395259" y="320.4" style="stroke: #000000; stroke-width: 0.8"/>
      </g>
     </g>
     <g id="text_4">
      <!-- 2004 -->
      <g transform="translate(483.670259 334.998438) scale(0.1 -0.1)">
       <defs>
        <path id="DejaVuSans-34" d="M 2419 4116 
L 825 1625 
L 2419 1625 
L 2419 4116 
z
M 2253 4666 
L 3047 4666 
L 3047 1625 
L 3713 1625 
L 3713 1100 
L 3047 1100 
L 3047 0 
L 2419 0 
L 2419 1100 
L 313 1100 
L 313 1709 
L 2253 4666 
z
" transform="scale(0.015625)"/>
       </defs>
       <use xlink:href="#DejaVuSans-32"/>
       <use xlink:href="#DejaVuSans-30" x="63.623047"/>
       <use xlink:href="#DejaVuSans-30" x="127.246094"/>
       <use xlink:href="#DejaVuSans-34" x="190.869141"/>
      </g>
     </g>
    </g>
    <g id="xtick_5">
     <g id="line2d_5">
      <g>
       <use xlink:href="#m542545a32d" x="608.306763" y="320.4" style="stroke: #000000; stroke-width: 0.8"/>
      </g>
     </g>
     <g id="text_5">
      <!-- 2008 -->
      <g transform="translate(595.581763 334.998438) scale(0.1 -0.1)">
       <defs>
        <path id="DejaVuSans-38" d="M 2034 2216 
Q 1584 2216 1326 1975 
Q 1069 1734 1069 1313 
Q 1069 891 1326 650 
Q 1584 409 2034 409 
Q 2484 409 2743 651 
Q 3003 894 3003 1313 
Q 3003 1734 2745 1975 
Q 2488 2216 2034 2216 
z
M 1403 2484 
Q 997 2584 770 2862 
Q 544 3141 544 3541 
Q 544 4100 942 4425 
Q 1341 4750 2034 4750 
Q 2731 4750 3128 4425 
Q 3525 4100 3525 3541 
Q 3525 3141 3298 2862 
Q 3072 2584 2669 2484 
Q 3125 2378 3379 2068 
Q 3634 1759 3634 1313 
Q 3634 634 3220 271 
Q 2806 -91 2034 -91 
Q 1263 -91 848 271 
Q 434 634 434 1313 
Q 434 1759 690 2068 
Q 947 2378 1403 2484 
z
M 1172 3481 
Q 1172 3119 1398 2916 
Q 1625 2713 2034 2713 
Q 2441 2713 2670 2916 
Q 2900 3119 2900 3481 
Q 2900 3844 2670 4047 
Q 2441 4250 2034 4250 
Q 1625 4250 1398 4047 
Q 1172 3844 1172 3481 
z
" transform="scale(0.015625)"/>
       </defs>
       <use xlink:href="#DejaVuSans-32"/>
       <use xlink:href="#DejaVuSans-30" x="63.623047"/>
       <use xlink:href="#DejaVuSans-30" x="127.246094"/>
       <use xlink:href="#DejaVuSans-38" x="190.869141"/>
      </g>
     </g>
    </g>
    <g id="xtick_6">
     <g id="line2d_6">
      <g>
       <use xlink:href="#m542545a32d" x="720.218267" y="320.4" style="stroke: #000000; stroke-width: 0.8"/>
      </g>
     </g>
     <g id="text_6">
      <!-- 2012 -->
      <g transform="translate(707.493267 334.998438) scale(0.1 -0.1)">
       <use xlink:href="#DejaVuSans-32"/>
       <use xlink:href="#DejaVuSans-30" x="63.623047"/>
       <use xlink:href="#DejaVuSans-31" x="127.246094"/>
       <use xlink:href="#DejaVuSans-32" x="190.869141"/>
      </g>
     </g>
    </g>
    <g id="xtick_7">
     <g id="line2d_7">
      <g>
       <use xlink:href="#m542545a32d" x="832.12977" y="320.4" style="stroke: #000000; stroke-width: 0.8"/>
      </g>
     </g>
     <g id="text_7">
      <!-- 2016 -->
      <g transform="translate(819.40477 334.998438) scale(0.1 -0.1)">
       <use xlink:href="#DejaVuSans-32"/>
       <use xlink:href="#DejaVuSans-30" x="63.623047"/>
       <use xlink:href="#DejaVuSans-31" x="127.246094"/>
       <use xlink:href="#DejaVuSans-36" x="190.869141"/>
      </g>
     </g>
    </g>
    <g id="xtick_8">
     <g id="line2d_8">
      <g>
       <use xlink:href="#m542545a32d" x="944.041274" y="320.4" style="stroke: #000000; stroke-width: 0.8"/>
      </g>
     </g>
     <g id="text_8">
      <!-- 2020 -->
      <g transform="translate(931.316274 334.998438) scale(0.1 -0.1)">
       <use xlink:href="#DejaVuSans-32"/>
       <use xlink:href="#DejaVuSans-30" x="63.623047"/>
       <use xlink:href="#DejaVuSans-32" x="127.246094"/>
       <use xlink:href="#DejaVuSans-30" x="190.869141"/>
      </g>
     </g>
    </g>
   </g>
   <g id="matplotlib.axis_2">
    <g id="ytick_1">
     <g id="line2d_9">
      <defs>
       <path id="mdfd45c1a60" d="M 0 0 
L -3.5 0 
" style="stroke: #000000; stroke-width: 0.8"/>
      </defs>
      <g>
       <use xlink:href="#mdfd45c1a60" x="135" y="305.468472" style="stroke: #000000; stroke-width: 0.8"/>
      </g>
     </g>
     <g id="text_9">
      <!-- −2.0 -->
      <g transform="translate(103.717187 309.267691) scale(0.1 -0.1)">
       <defs>
        <path id="DejaVuSans-2212" d="M 678 2272 
L 4684 2272 
L 4684 1741 
L 678 1741 
L 678 2272 
z
" transform="scale(0.015625)"/>
        <path id="DejaVuSans-2e" d="M 684 794 
L 1344 794 
L 1344 0 
L 684 0 
L 684 794 
z
" transform="scale(0.015625)"/>
       </defs>
       <use xlink:href="#DejaVuSans-2212"/>
       <use xlink:href="#DejaVuSans-32" x="83.789062"/>
       <use xlink:href="#DejaVuSans-2e" x="147.412109"/>
       <use xlink:href="#DejaVuSans-30" x="179.199219"/>
      </g>
     </g>
    </g>
    <g id="ytick_2">
     <g id="line2d_10">
      <g>
       <use xlink:href="#mdfd45c1a60" x="135" y="274.191791" style="stroke: #000000; stroke-width: 0.8"/>
      </g>
     </g>
     <g id="text_10">
      <!-- −1.5 -->
      <g transform="translate(103.717187 277.99101) scale(0.1 -0.1)">
       <defs>
        <path id="DejaVuSans-35" d="M 691 4666 
L 3169 4666 
L 3169 4134 
L 1269 4134 
L 1269 2991 
Q 1406 3038 1543 3061 
Q 1681 3084 1819 3084 
Q 2600 3084 3056 2656 
Q 3513 2228 3513 1497 
Q 3513 744 3044 326 
Q 2575 -91 1722 -91 
Q 1428 -91 1123 -41 
Q 819 9 494 109 
L 494 744 
Q 775 591 1075 516 
Q 1375 441 1709 441 
Q 2250 441 2565 725 
Q 2881 1009 2881 1497 
Q 2881 1984 2565 2268 
Q 2250 2553 1709 2553 
Q 1456 2553 1204 2497 
Q 953 2441 691 2322 
L 691 4666 
z
" transform="scale(0.015625)"/>
       </defs>
       <use xlink:href="#DejaVuSans-2212"/>
       <use xlink:href="#DejaVuSans-31" x="83.789062"/>
       <use xlink:href="#DejaVuSans-2e" x="147.412109"/>
       <use xlink:href="#DejaVuSans-35" x="179.199219"/>
      </g>
     </g>
    </g>
    <g id="ytick_3">
     <g id="line2d_11">
      <g>
       <use xlink:href="#mdfd45c1a60" x="135" y="242.91511" style="stroke: #000000; stroke-width: 0.8"/>
      </g>
     </g>
     <g id="text_11">
      <!-- −1.0 -->
      <g transform="translate(103.717187 246.714329) scale(0.1 -0.1)">
       <use xlink:href="#DejaVuSans-2212"/>
       <use xlink:href="#DejaVuSans-31" x="83.789062"/>
       <use xlink:href="#DejaVuSans-2e" x="147.412109"/>
       <use xlink:href="#DejaVuSans-30" x="179.199219"/>
      </g>
     </g>
    </g>
    <g id="ytick_4">
     <g id="line2d_12">
      <g>
       <use xlink:href="#mdfd45c1a60" x="135" y="211.63843" style="stroke: #000000; stroke-width: 0.8"/>
      </g>
     </g>
     <g id="text_12">
      <!-- −0.5 -->
      <g transform="translate(103.717187 215.437648) scale(0.1 -0.1)">
       <use xlink:href="#DejaVuSans-2212"/>
       <use xlink:href="#DejaVuSans-30" x="83.789062"/>
       <use xlink:href="#DejaVuSans-2e" x="147.412109"/>
       <use xlink:href="#DejaVuSans-35" x="179.199219"/>
      </g>
     </g>
    </g>
    <g id="ytick_5">
     <g id="line2d_13">
      <g>
       <use xlink:href="#mdfd45c1a60" x="135" y="180.361749" style="stroke: #000000; stroke-width: 0.8"/>
      </g>
     </g>
     <g id="text_13">
      <!-- 0.0 -->
      <g transform="translate(112.096875 184.160968) scale(0.1 -0.1)">
       <use xlink:href="#DejaVuSans-30"/>
       <use xlink:href="#DejaVuSans-2e" x="63.623047"/>
       <use xlink:href="#DejaVuSans-30" x="95.410156"/>
      </g>
     </g>
    </g>
    <g id="ytick_6">
     <g id="line2d_14">
      <g>
       <use xlink:href="#mdfd45c1a60" x="135" y="149.085068" style="stroke: #000000; stroke-width: 0.8"/>
      </g>
     </g>
     <g id="text_14">
      <!-- 0.5 -->
      <g transform="translate(112.096875 152.884287) scale(0.1 -0.1)">
       <use xlink:href="#DejaVuSans-30"/>
       <use xlink:href="#DejaVuSans-2e" x="63.623047"/>
       <use xlink:href="#DejaVuSans-35" x="95.410156"/>
      </g>
     </g>
    </g>
    <g id="ytick_7">
     <g id="line2d_15">
      <g>
       <use xlink:href="#mdfd45c1a60" x="135" y="117.808387" style="stroke: #000000; stroke-width: 0.8"/>
      </g>
     </g>
     <g id="text_15">
      <!-- 1.0 -->
      <g transform="translate(112.096875 121.607606) scale(0.1 -0.1)">
       <use xlink:href="#DejaVuSans-31"/>
       <use xlink:href="#DejaVuSans-2e" x="63.623047"/>
       <use xlink:href="#DejaVuSans-30" x="95.410156"/>
      </g>
     </g>
    </g>
    <g id="ytick_8">
     <g id="line2d_16">
      <g>
       <use xlink:href="#mdfd45c1a60" x="135" y="86.531707" style="stroke: #000000; stroke-width: 0.8"/>
      </g>
     </g>
     <g id="text_16">
      <!-- 1.5 -->
      <g transform="translate(112.096875 90.330925) scale(0.1 -0.1)">
       <use xlink:href="#DejaVuSans-31"/>
       <use xlink:href="#DejaVuSans-2e" x="63.623047"/>
       <use xlink:href="#DejaVuSans-35" x="95.410156"/>
      </g>
     </g>
    </g>
    <g id="ytick_9">
     <g id="line2d_17">
      <g>
       <use xlink:href="#mdfd45c1a60" x="135" y="55.255026" style="stroke: #000000; stroke-width: 0.8"/>
      </g>
     </g>
     <g id="text_17">
      <!-- 2.0 -->
      <g transform="translate(112.096875 59.054245) scale(0.1 -0.1)">
       <use xlink:href="#DejaVuSans-32"/>
       <use xlink:href="#DejaVuSans-2e" x="63.623047"/>
       <use xlink:href="#DejaVuSans-30" x="95.410156"/>
      </g>
     </g>
    </g>
    <g id="text_18">
     <!-- SGI -->
     <g transform="translate(97.6375 190.323437) rotate(-90) scale(0.1 -0.1)">
      <defs>
       <path id="DejaVuSans-53" d="M 3425 4513 
L 3425 3897 
Q 3066 4069 2747 4153 
Q 2428 4238 2131 4238 
Q 1616 4238 1336 4038 
Q 1056 3838 1056 3469 
Q 1056 3159 1242 3001 
Q 1428 2844 1947 2747 
L 2328 2669 
Q 3034 2534 3370 2195 
Q 3706 1856 3706 1288 
Q 3706 609 3251 259 
Q 2797 -91 1919 -91 
Q 1588 -91 1214 -16 
Q 841 59 441 206 
L 441 856 
Q 825 641 1194 531 
Q 1563 422 1919 422 
Q 2459 422 2753 634 
Q 3047 847 3047 1241 
Q 3047 1584 2836 1778 
Q 2625 1972 2144 2069 
L 1759 2144 
Q 1053 2284 737 2584 
Q 422 2884 422 3419 
Q 422 4038 858 4394 
Q 1294 4750 2059 4750 
Q 2388 4750 2728 4690 
Q 3069 4631 3425 4513 
z
" transform="scale(0.015625)"/>
       <path id="DejaVuSans-47" d="M 3809 666 
L 3809 1919 
L 2778 1919 
L 2778 2438 
L 4434 2438 
L 4434 434 
Q 4069 175 3628 42 
Q 3188 -91 2688 -91 
Q 1594 -91 976 548 
Q 359 1188 359 2328 
Q 359 3472 976 4111 
Q 1594 4750 2688 4750 
Q 3144 4750 3555 4637 
Q 3966 4525 4313 4306 
L 4313 3634 
Q 3963 3931 3569 4081 
Q 3175 4231 2741 4231 
Q 1884 4231 1454 3753 
Q 1025 3275 1025 2328 
Q 1025 1384 1454 906 
Q 1884 428 2741 428 
Q 3075 428 3337 486 
Q 3600 544 3809 666 
z
" transform="scale(0.015625)"/>
       <path id="DejaVuSans-49" d="M 628 4666 
L 1259 4666 
L 1259 0 
L 628 0 
L 628 4666 
z
" transform="scale(0.015625)"/>
      </defs>
      <use xlink:href="#DejaVuSans-53"/>
      <use xlink:href="#DejaVuSans-47" x="63.476562"/>
      <use xlink:href="#DejaVuSans-49" x="140.966797"/>
     </g>
    </g>
   </g>
   <g id="line2d_18">
    <path d="M 176.89979 72.016226 
L 186.244898 139.492812 
L 188.619475 148.981094 
L 190.994051 104.545783 
L 193.13883 132.07945 
L 197.811385 60.761338 
L 200.185961 94.24863 
L 202.483939 81.340118 
L 204.858516 72.016226 
L 207.233092 77.448243 
L 209.53107 112.08309 
L 211.905647 115.293709 
L 214.203624 124.164709 
L 221.097557 250.95561 
L 228.144687 250.534267 
L 235.191818 273.996329 
L 242.16235 270.872908 
L 249.056283 262.507395 
L 256.103414 241.478845 
L 267.823099 221.713196 
L 274.87023 196.796787 
L 281.764162 212.770534 
L 288.811293 230.793927 
L 295.858424 193.691837 
L 305.050334 217.269432 
L 309.722888 207.924954 
L 316.770019 201.931333 
L 323.81715 207.036427 
L 328.489704 264.57995 
L 330.864281 216.829992 
L 335.383637 280.044128 
L 337.681614 189.260018 
L 342.354169 186.276668 
L 344.728745 151.190541 
L 358.823007 203.734886 
L 365.64034 248.416851 
L 372.687471 255.32732 
L 379.734602 235.050934 
L 386.781733 307.8 
L 393.675666 241.065849 
L 400.722797 205.936702 
L 407.769928 250.049539 
L 421.634392 306.924257 
L 428.681523 213.120629 
L 435.728654 279.078487 
L 442.775785 226.735438 
L 449.593118 232.554176 
L 456.640249 247.959035 
L 463.68738 275.124536 
L 470.734511 236.97965 
L 477.551844 189.260018 
L 484.598975 307.669387 
L 491.646106 265.917913 
L 498.693237 275.957929 
L 505.587169 263.596908 
L 510.259724 228.329957 
L 512.6343 147.7526 
L 519.681431 76.693949 
L 526.728562 251.711118 
L 533.545895 241.065849 
L 540.593026 270.57977 
L 547.640157 225.793089 
L 554.687288 190.242276 
L 561.504622 143.379315 
L 566.177176 246.458907 
L 575.598883 203.844306 
L 582.646014 251.711118 
L 587.16537 80.679369 
L 596.510479 130.883415 
L 603.55761 66.867926 
L 610.604741 212.510469 
L 622.171227 220.439048 
L 624.545804 235.483101 
L 626.920381 249.598924 
L 629.218358 172.3647 
L 636.265489 180.161833 
L 638.640066 158.83272 
L 640.784845 172.133188 
L 643.159422 121.122841 
L 645.457399 108.724545 
L 647.831976 143.650878 
L 650.129953 208.801674 
L 652.50453 197.880911 
L 654.879107 187.568312 
L 657.177084 234.940775 
L 659.551661 178.917659 
L 661.849639 212.392113 
L 664.224215 211.023256 
L 666.598792 158.83272 
L 668.743571 162.872436 
L 671.118148 223.561824 
L 673.416125 154.119631 
L 675.790702 178.222739 
L 682.837833 152.971879 
L 685.13581 172.3647 
L 687.510387 180.829619 
L 689.808365 195.482402 
L 692.182941 171.655471 
L 694.557518 174.934156 
L 696.702297 181.007402 
L 699.076874 153.666981 
L 703.749428 169.10841 
L 706.047406 184.446771 
L 708.421982 172.62851 
L 715.469113 180.829619 
L 722.516244 140.646636 
L 727.112199 194.220927 
L 729.410177 145.104458 
L 731.784753 152.710879 
L 734.082731 156.115581 
L 736.457308 154.576128 
L 738.831884 187.568312 
L 741.129862 212.368057 
L 743.504439 147.234169 
L 745.802416 202.320401 
L 748.176993 157.463606 
L 750.55157 158.83272 
L 752.696348 153.285237 
L 755.070925 176.527786 
L 757.368903 170.448324 
L 759.743479 196.398733 
L 762.041457 137.708502 
L 764.416034 157.88374 
L 766.79061 212.329671 
L 769.088588 187.461324 
L 771.463165 176.989391 
L 773.761142 188.554201 
L 776.135719 180.161833 
L 778.510296 135.35838 
L 780.655075 178.828193 
L 783.029651 200.280913 
L 785.327629 136.88097 
L 787.702206 176.401409 
L 790.000183 193.670361 
L 792.37476 130.883415 
L 794.749337 170.634852 
L 797.047314 131.895685 
L 799.421891 108.644135 
L 801.719868 149.820045 
L 804.094445 96.726938 
L 806.469022 55.8 
L 808.613801 106.090246 
L 810.988377 188.202169 
L 813.286355 171.306018 
L 815.660932 198.211761 
L 817.958909 131.245158 
L 820.333486 137.428492 
L 822.708063 157.386077 
L 825.00604 212.368057 
L 827.380617 145.278017 
L 829.678594 154.457973 
L 832.053171 213.784009 
L 834.427748 83.348767 
L 841.32168 163.335074 
L 848.368811 197.880911 
L 855.415942 141.409396 
L 862.463073 183.167162 
L 869.280406 163.335074 
L 876.327537 172.62851 
L 883.374668 151.181201 
L 890.421799 125.52291 
L 897.239132 108.724545 
L 904.286263 172.62851 
L 911.333394 163.164894 
L 918.380525 111.876188 
L 925.197859 80.84489 
L 934.619566 135.960576 
L 939.29212 155.162139 
L 946.339251 167.733219 
L 953.233184 170.448324 
L 960.280315 101.660541 
L 967.327446 167.156329 
L 967.327446 167.156329 
" clip-path="url(#pb4b35f5890)" style="fill: none; stroke: #7f7f7f; stroke-width: 1.5; stroke-linecap: square"/>
   </g>
   <g id="line2d_19">
    <path d="M 135 180.361749 
L 972 180.361749 
" clip-path="url(#pb4b35f5890)" style="fill: none; stroke: #000000; stroke-width: 1.5; stroke-linecap: square"/>
   </g>
   <g id="patch_3">
    <path d="M 135 320.4 
L 135 43.2 
" style="fill: none; stroke: #000000; stroke-width: 0.8; stroke-linejoin: miter; stroke-linecap: square"/>
   </g>
   <g id="patch_4">
    <path d="M 135 320.4 
L 972 320.4 
" style="fill: none; stroke: #000000; stroke-width: 0.8; stroke-linejoin: miter; stroke-linecap: square"/>
   </g>
   <g id="text_19">
    <!-- SGI for GWIC ID 133162 -->
    <g transform="translate(135 37.2) scale(0.12 -0.12)">
     <defs>
      <path id="DejaVuSans-Bold-53" d="M 3834 4519 
L 3834 3531 
Q 3450 3703 3084 3790 
Q 2719 3878 2394 3878 
Q 1963 3878 1756 3759 
Q 1550 3641 1550 3391 
Q 1550 3203 1689 3098 
Q 1828 2994 2194 2919 
L 2706 2816 
Q 3484 2659 3812 2340 
Q 4141 2022 4141 1434 
Q 4141 663 3683 286 
Q 3225 -91 2284 -91 
Q 1841 -91 1394 -6 
Q 947 78 500 244 
L 500 1259 
Q 947 1022 1364 901 
Q 1781 781 2169 781 
Q 2563 781 2772 912 
Q 2981 1044 2981 1288 
Q 2981 1506 2839 1625 
Q 2697 1744 2272 1838 
L 1806 1941 
Q 1106 2091 782 2419 
Q 459 2747 459 3303 
Q 459 4000 909 4375 
Q 1359 4750 2203 4750 
Q 2588 4750 2994 4692 
Q 3400 4634 3834 4519 
z
" transform="scale(0.015625)"/>
      <path id="DejaVuSans-Bold-47" d="M 4781 347 
Q 4331 128 3847 18 
Q 3363 -91 2847 -91 
Q 1681 -91 1000 561 
Q 319 1213 319 2328 
Q 319 3456 1012 4103 
Q 1706 4750 2913 4750 
Q 3378 4750 3804 4662 
Q 4231 4575 4609 4403 
L 4609 3438 
Q 4219 3659 3833 3768 
Q 3447 3878 3059 3878 
Q 2341 3878 1952 3476 
Q 1563 3075 1563 2328 
Q 1563 1588 1938 1184 
Q 2313 781 3003 781 
Q 3191 781 3352 804 
Q 3513 828 3641 878 
L 3641 1784 
L 2906 1784 
L 2906 2591 
L 4781 2591 
L 4781 347 
z
" transform="scale(0.015625)"/>
      <path id="DejaVuSans-Bold-49" d="M 588 4666 
L 1791 4666 
L 1791 0 
L 588 0 
L 588 4666 
z
" transform="scale(0.015625)"/>
      <path id="DejaVuSans-Bold-20" transform="scale(0.015625)"/>
      <path id="DejaVuSans-Bold-66" d="M 2841 4863 
L 2841 4128 
L 2222 4128 
Q 1984 4128 1890 4042 
Q 1797 3956 1797 3744 
L 1797 3500 
L 2753 3500 
L 2753 2700 
L 1797 2700 
L 1797 0 
L 678 0 
L 678 2700 
L 122 2700 
L 122 3500 
L 678 3500 
L 678 3744 
Q 678 4316 997 4589 
Q 1316 4863 1984 4863 
L 2841 4863 
z
" transform="scale(0.015625)"/>
      <path id="DejaVuSans-Bold-6f" d="M 2203 2784 
Q 1831 2784 1636 2517 
Q 1441 2250 1441 1747 
Q 1441 1244 1636 976 
Q 1831 709 2203 709 
Q 2569 709 2762 976 
Q 2956 1244 2956 1747 
Q 2956 2250 2762 2517 
Q 2569 2784 2203 2784 
z
M 2203 3584 
Q 3106 3584 3614 3096 
Q 4122 2609 4122 1747 
Q 4122 884 3614 396 
Q 3106 -91 2203 -91 
Q 1297 -91 786 396 
Q 275 884 275 1747 
Q 275 2609 786 3096 
Q 1297 3584 2203 3584 
z
" transform="scale(0.015625)"/>
      <path id="DejaVuSans-Bold-72" d="M 3138 2547 
Q 2991 2616 2845 2648 
Q 2700 2681 2553 2681 
Q 2122 2681 1889 2404 
Q 1656 2128 1656 1613 
L 1656 0 
L 538 0 
L 538 3500 
L 1656 3500 
L 1656 2925 
Q 1872 3269 2151 3426 
Q 2431 3584 2822 3584 
Q 2878 3584 2943 3579 
Q 3009 3575 3134 3559 
L 3138 2547 
z
" transform="scale(0.015625)"/>
      <path id="DejaVuSans-Bold-57" d="M 191 4666 
L 1344 4666 
L 2150 1275 
L 2950 4666 
L 4109 4666 
L 4909 1275 
L 5716 4666 
L 6859 4666 
L 5759 0 
L 4372 0 
L 3525 3547 
L 2688 0 
L 1300 0 
L 191 4666 
z
" transform="scale(0.015625)"/>
      <path id="DejaVuSans-Bold-43" d="M 4288 256 
Q 3956 84 3597 -3 
Q 3238 -91 2847 -91 
Q 1681 -91 1000 561 
Q 319 1213 319 2328 
Q 319 3447 1000 4098 
Q 1681 4750 2847 4750 
Q 3238 4750 3597 4662 
Q 3956 4575 4288 4403 
L 4288 3438 
Q 3953 3666 3628 3772 
Q 3303 3878 2944 3878 
Q 2300 3878 1931 3465 
Q 1563 3053 1563 2328 
Q 1563 1606 1931 1193 
Q 2300 781 2944 781 
Q 3303 781 3628 887 
Q 3953 994 4288 1222 
L 4288 256 
z
" transform="scale(0.015625)"/>
      <path id="DejaVuSans-Bold-44" d="M 1791 3756 
L 1791 909 
L 2222 909 
Q 2959 909 3348 1275 
Q 3738 1641 3738 2338 
Q 3738 3031 3350 3393 
Q 2963 3756 2222 3756 
L 1791 3756 
z
M 588 4666 
L 1856 4666 
Q 2919 4666 3439 4514 
Q 3959 4363 4331 4000 
Q 4659 3684 4818 3271 
Q 4978 2859 4978 2338 
Q 4978 1809 4818 1395 
Q 4659 981 4331 666 
Q 3956 303 3431 151 
Q 2906 0 1856 0 
L 588 0 
L 588 4666 
z
" transform="scale(0.015625)"/>
      <path id="DejaVuSans-Bold-31" d="M 750 831 
L 1813 831 
L 1813 3847 
L 722 3622 
L 722 4441 
L 1806 4666 
L 2950 4666 
L 2950 831 
L 4013 831 
L 4013 0 
L 750 0 
L 750 831 
z
" transform="scale(0.015625)"/>
      <path id="DejaVuSans-Bold-33" d="M 2981 2516 
Q 3453 2394 3698 2092 
Q 3944 1791 3944 1325 
Q 3944 631 3412 270 
Q 2881 -91 1863 -91 
Q 1503 -91 1142 -33 
Q 781 25 428 141 
L 428 1069 
Q 766 900 1098 814 
Q 1431 728 1753 728 
Q 2231 728 2486 893 
Q 2741 1059 2741 1369 
Q 2741 1688 2480 1852 
Q 2219 2016 1709 2016 
L 1228 2016 
L 1228 2791 
L 1734 2791 
Q 2188 2791 2409 2933 
Q 2631 3075 2631 3366 
Q 2631 3634 2415 3781 
Q 2200 3928 1806 3928 
Q 1516 3928 1219 3862 
Q 922 3797 628 3669 
L 628 4550 
Q 984 4650 1334 4700 
Q 1684 4750 2022 4750 
Q 2931 4750 3382 4451 
Q 3834 4153 3834 3553 
Q 3834 3144 3618 2883 
Q 3403 2622 2981 2516 
z
" transform="scale(0.015625)"/>
      <path id="DejaVuSans-Bold-36" d="M 2316 2303 
Q 2000 2303 1842 2098 
Q 1684 1894 1684 1484 
Q 1684 1075 1842 870 
Q 2000 666 2316 666 
Q 2634 666 2792 870 
Q 2950 1075 2950 1484 
Q 2950 1894 2792 2098 
Q 2634 2303 2316 2303 
z
M 3803 4544 
L 3803 3681 
Q 3506 3822 3243 3889 
Q 2981 3956 2731 3956 
Q 2194 3956 1894 3657 
Q 1594 3359 1544 2772 
Q 1750 2925 1990 3001 
Q 2231 3078 2516 3078 
Q 3231 3078 3670 2659 
Q 4109 2241 4109 1563 
Q 4109 813 3618 361 
Q 3128 -91 2303 -91 
Q 1394 -91 895 523 
Q 397 1138 397 2266 
Q 397 3422 980 4083 
Q 1563 4744 2578 4744 
Q 2900 4744 3203 4694 
Q 3506 4644 3803 4544 
z
" transform="scale(0.015625)"/>
      <path id="DejaVuSans-Bold-32" d="M 1844 884 
L 3897 884 
L 3897 0 
L 506 0 
L 506 884 
L 2209 2388 
Q 2438 2594 2547 2791 
Q 2656 2988 2656 3200 
Q 2656 3528 2436 3728 
Q 2216 3928 1850 3928 
Q 1569 3928 1234 3808 
Q 900 3688 519 3450 
L 519 4475 
Q 925 4609 1322 4679 
Q 1719 4750 2100 4750 
Q 2938 4750 3402 4381 
Q 3866 4013 3866 3353 
Q 3866 2972 3669 2642 
Q 3472 2313 2841 1759 
L 1844 884 
z
" transform="scale(0.015625)"/>
     </defs>
     <use xlink:href="#DejaVuSans-Bold-53"/>
     <use xlink:href="#DejaVuSans-Bold-47" x="72.021484"/>
     <use xlink:href="#DejaVuSans-Bold-49" x="154.101562"/>
     <use xlink:href="#DejaVuSans-Bold-20" x="191.308594"/>
     <use xlink:href="#DejaVuSans-Bold-66" x="226.123047"/>
     <use xlink:href="#DejaVuSans-Bold-6f" x="269.628906"/>
     <use xlink:href="#DejaVuSans-Bold-72" x="338.330078"/>
     <use xlink:href="#DejaVuSans-Bold-20" x="387.646484"/>
     <use xlink:href="#DejaVuSans-Bold-47" x="422.460938"/>
     <use xlink:href="#DejaVuSans-Bold-57" x="504.541016"/>
     <use xlink:href="#DejaVuSans-Bold-49" x="614.84375"/>
     <use xlink:href="#DejaVuSans-Bold-43" x="652.050781"/>
     <use xlink:href="#DejaVuSans-Bold-20" x="725.439453"/>
     <use xlink:href="#DejaVuSans-Bold-49" x="760.253906"/>
     <use xlink:href="#DejaVuSans-Bold-44" x="797.460938"/>
     <use xlink:href="#DejaVuSans-Bold-20" x="880.46875"/>
     <use xlink:href="#DejaVuSans-Bold-31" x="915.283203"/>
     <use xlink:href="#DejaVuSans-Bold-33" x="984.863281"/>
     <use xlink:href="#DejaVuSans-Bold-33" x="1054.443359"/>
     <use xlink:href="#DejaVuSans-Bold-31" x="1124.023438"/>
     <use xlink:href="#DejaVuSans-Bold-36" x="1193.603516"/>
     <use xlink:href="#DejaVuSans-Bold-32" x="1263.183594"/>
    </g>
   </g>
   <g id="PathCollection_1">
    <defs>
     <path id="m851a91a834" d="M 0 3 
C 0.795609 3 1.55874 2.683901 2.12132 2.12132 
C 2.683901 1.55874 3 0.795609 3 0 
C 3 -0.795609 2.683901 -1.55874 2.12132 -2.12132 
C 1.55874 -2.683901 0.795609 -3 0 -3 
C -0.795609 -3 -1.55874 -2.683901 -2.12132 -2.12132 
C -2.683901 -1.55874 -3 -0.795609 -3 0 
C -3 0.795609 -2.683901 1.55874 -2.12132 2.12132 
C -1.55874 2.683901 -0.795609 3 0 3 
z
" style="stroke: #ffffff; stroke-width: 0.48"/>
    </defs>
    <g clip-path="url(#pb4b35f5890)">
     <use xlink:href="#m851a91a834" x="176.89979" y="72.016226" style="stroke: #ffffff; stroke-width: 0.48"/>
     <use xlink:href="#m851a91a834" x="186.244898" y="139.492812" style="stroke: #ffffff; stroke-width: 0.48"/>
     <use xlink:href="#m851a91a834" x="188.619475" y="148.981094" style="stroke: #ffffff; stroke-width: 0.48"/>
     <use xlink:href="#m851a91a834" x="190.994051" y="104.545783" style="stroke: #ffffff; stroke-width: 0.48"/>
     <use xlink:href="#m851a91a834" x="193.13883" y="132.07945" style="stroke: #ffffff; stroke-width: 0.48"/>
     <use xlink:href="#m851a91a834" x="197.811385" y="60.761338" style="stroke: #ffffff; stroke-width: 0.48"/>
     <use xlink:href="#m851a91a834" x="200.185961" y="94.24863" style="stroke: #ffffff; stroke-width: 0.48"/>
     <use xlink:href="#m851a91a834" x="202.483939" y="81.340118" style="stroke: #ffffff; stroke-width: 0.48"/>
     <use xlink:href="#m851a91a834" x="204.858516" y="72.016226" style="stroke: #ffffff; stroke-width: 0.48"/>
     <use xlink:href="#m851a91a834" x="207.233092" y="77.448243" style="stroke: #ffffff; stroke-width: 0.48"/>
     <use xlink:href="#m851a91a834" x="209.53107" y="112.08309" style="stroke: #ffffff; stroke-width: 0.48"/>
     <use xlink:href="#m851a91a834" x="211.905647" y="115.293709" style="stroke: #ffffff; stroke-width: 0.48"/>
     <use xlink:href="#m851a91a834" x="214.203624" y="124.164709" style="stroke: #ffffff; stroke-width: 0.48"/>
     <use xlink:href="#m851a91a834" x="221.097557" y="250.95561" style="stroke: #ffffff; stroke-width: 0.48"/>
     <use xlink:href="#m851a91a834" x="228.144687" y="250.534267" style="stroke: #ffffff; stroke-width: 0.48"/>
     <use xlink:href="#m851a91a834" x="235.191818" y="273.996329" style="stroke: #ffffff; stroke-width: 0.48"/>
     <use xlink:href="#m851a91a834" x="242.16235" y="270.872908" style="stroke: #ffffff; stroke-width: 0.48"/>
     <use xlink:href="#m851a91a834" x="249.056283" y="262.507395" style="stroke: #ffffff; stroke-width: 0.48"/>
     <use xlink:href="#m851a91a834" x="256.103414" y="241.478845" style="stroke: #ffffff; stroke-width: 0.48"/>
     <use xlink:href="#m851a91a834" x="267.823099" y="221.713196" style="stroke: #ffffff; stroke-width: 0.48"/>
     <use xlink:href="#m851a91a834" x="274.87023" y="196.796787" style="stroke: #ffffff; stroke-width: 0.48"/>
     <use xlink:href="#m851a91a834" x="281.764162" y="212.770534" style="stroke: #ffffff; stroke-width: 0.48"/>
     <use xlink:href="#m851a91a834" x="288.811293" y="230.793927" style="stroke: #ffffff; stroke-width: 0.48"/>
     <use xlink:href="#m851a91a834" x="295.858424" y="193.691837" style="stroke: #ffffff; stroke-width: 0.48"/>
     <use xlink:href="#m851a91a834" x="305.050334" y="217.269432" style="stroke: #ffffff; stroke-width: 0.48"/>
     <use xlink:href="#m851a91a834" x="309.722888" y="207.924954" style="stroke: #ffffff; stroke-width: 0.48"/>
     <use xlink:href="#m851a91a834" x="316.770019" y="201.931333" style="stroke: #ffffff; stroke-width: 0.48"/>
     <use xlink:href="#m851a91a834" x="323.81715" y="207.036427" style="stroke: #ffffff; stroke-width: 0.48"/>
     <use xlink:href="#m851a91a834" x="328.489704" y="264.57995" style="stroke: #ffffff; stroke-width: 0.48"/>
     <use xlink:href="#m851a91a834" x="330.864281" y="216.829992" style="stroke: #ffffff; stroke-width: 0.48"/>
     <use xlink:href="#m851a91a834" x="335.383637" y="280.044128" style="stroke: #ffffff; stroke-width: 0.48"/>
     <use xlink:href="#m851a91a834" x="337.681614" y="189.260018" style="stroke: #ffffff; stroke-width: 0.48"/>
     <use xlink:href="#m851a91a834" x="342.354169" y="186.276668" style="stroke: #ffffff; stroke-width: 0.48"/>
     <use xlink:href="#m851a91a834" x="344.728745" y="151.190541" style="stroke: #ffffff; stroke-width: 0.48"/>
     <use xlink:href="#m851a91a834" x="358.823007" y="203.734886" style="stroke: #ffffff; stroke-width: 0.48"/>
     <use xlink:href="#m851a91a834" x="365.64034" y="248.416851" style="stroke: #ffffff; stroke-width: 0.48"/>
     <use xlink:href="#m851a91a834" x="372.687471" y="255.32732" style="stroke: #ffffff; stroke-width: 0.48"/>
     <use xlink:href="#m851a91a834" x="379.734602" y="235.050934" style="stroke: #ffffff; stroke-width: 0.48"/>
     <use xlink:href="#m851a91a834" x="386.781733" y="307.8" style="stroke: #ffffff; stroke-width: 0.48"/>
     <use xlink:href="#m851a91a834" x="393.675666" y="241.065849" style="stroke: #ffffff; stroke-width: 0.48"/>
     <use xlink:href="#m851a91a834" x="400.722797" y="205.936702" style="stroke: #ffffff; stroke-width: 0.48"/>
     <use xlink:href="#m851a91a834" x="407.769928" y="250.049539" style="stroke: #ffffff; stroke-width: 0.48"/>
     <use xlink:href="#m851a91a834" x="421.634392" y="306.924257" style="stroke: #ffffff; stroke-width: 0.48"/>
     <use xlink:href="#m851a91a834" x="428.681523" y="213.120629" style="stroke: #ffffff; stroke-width: 0.48"/>
     <use xlink:href="#m851a91a834" x="435.728654" y="279.078487" style="stroke: #ffffff; stroke-width: 0.48"/>
     <use xlink:href="#m851a91a834" x="442.775785" y="226.735438" style="stroke: #ffffff; stroke-width: 0.48"/>
     <use xlink:href="#m851a91a834" x="449.593118" y="232.554176" style="stroke: #ffffff; stroke-width: 0.48"/>
     <use xlink:href="#m851a91a834" x="456.640249" y="247.959035" style="stroke: #ffffff; stroke-width: 0.48"/>
     <use xlink:href="#m851a91a834" x="463.68738" y="275.124536" style="stroke: #ffffff; stroke-width: 0.48"/>
     <use xlink:href="#m851a91a834" x="470.734511" y="236.97965" style="stroke: #ffffff; stroke-width: 0.48"/>
     <use xlink:href="#m851a91a834" x="477.551844" y="189.260018" style="stroke: #ffffff; stroke-width: 0.48"/>
     <use xlink:href="#m851a91a834" x="484.598975" y="307.669387" style="stroke: #ffffff; stroke-width: 0.48"/>
     <use xlink:href="#m851a91a834" x="491.646106" y="265.917913" style="stroke: #ffffff; stroke-width: 0.48"/>
     <use xlink:href="#m851a91a834" x="498.693237" y="275.957929" style="stroke: #ffffff; stroke-width: 0.48"/>
     <use xlink:href="#m851a91a834" x="505.587169" y="263.596908" style="stroke: #ffffff; stroke-width: 0.48"/>
     <use xlink:href="#m851a91a834" x="510.259724" y="228.329957" style="stroke: #ffffff; stroke-width: 0.48"/>
     <use xlink:href="#m851a91a834" x="512.6343" y="147.7526" style="stroke: #ffffff; stroke-width: 0.48"/>
     <use xlink:href="#m851a91a834" x="519.681431" y="76.693949" style="stroke: #ffffff; stroke-width: 0.48"/>
     <use xlink:href="#m851a91a834" x="526.728562" y="251.711118" style="stroke: #ffffff; stroke-width: 0.48"/>
     <use xlink:href="#m851a91a834" x="533.545895" y="241.065849" style="stroke: #ffffff; stroke-width: 0.48"/>
     <use xlink:href="#m851a91a834" x="540.593026" y="270.57977" style="stroke: #ffffff; stroke-width: 0.48"/>
     <use xlink:href="#m851a91a834" x="547.640157" y="225.793089" style="stroke: #ffffff; stroke-width: 0.48"/>
     <use xlink:href="#m851a91a834" x="554.687288" y="190.242276" style="stroke: #ffffff; stroke-width: 0.48"/>
     <use xlink:href="#m851a91a834" x="561.504622" y="143.379315" style="stroke: #ffffff; stroke-width: 0.48"/>
     <use xlink:href="#m851a91a834" x="566.177176" y="246.458907" style="stroke: #ffffff; stroke-width: 0.48"/>
     <use xlink:href="#m851a91a834" x="575.598883" y="203.844306" style="stroke: #ffffff; stroke-width: 0.48"/>
     <use xlink:href="#m851a91a834" x="582.646014" y="251.711118" style="stroke: #ffffff; stroke-width: 0.48"/>
     <use xlink:href="#m851a91a834" x="587.16537" y="80.679369" style="stroke: #ffffff; stroke-width: 0.48"/>
     <use xlink:href="#m851a91a834" x="596.510479" y="130.883415" style="stroke: #ffffff; stroke-width: 0.48"/>
     <use xlink:href="#m851a91a834" x="603.55761" y="66.867926" style="stroke: #ffffff; stroke-width: 0.48"/>
     <use xlink:href="#m851a91a834" x="610.604741" y="212.510469" style="stroke: #ffffff; stroke-width: 0.48"/>
     <use xlink:href="#m851a91a834" x="617.498673" y="217.215959" style="stroke: #ffffff; stroke-width: 0.48"/>
     <use xlink:href="#m851a91a834" x="622.171227" y="220.439048" style="stroke: #ffffff; stroke-width: 0.48"/>
     <use xlink:href="#m851a91a834" x="624.545804" y="235.483101" style="stroke: #ffffff; stroke-width: 0.48"/>
     <use xlink:href="#m851a91a834" x="626.920381" y="249.598924" style="stroke: #ffffff; stroke-width: 0.48"/>
     <use xlink:href="#m851a91a834" x="629.218358" y="172.3647" style="stroke: #ffffff; stroke-width: 0.48"/>
     <use xlink:href="#m851a91a834" x="631.592935" y="175.046234" style="stroke: #ffffff; stroke-width: 0.48"/>
     <use xlink:href="#m851a91a834" x="636.265489" y="180.161833" style="stroke: #ffffff; stroke-width: 0.48"/>
     <use xlink:href="#m851a91a834" x="638.640066" y="158.83272" style="stroke: #ffffff; stroke-width: 0.48"/>
     <use xlink:href="#m851a91a834" x="640.784845" y="172.133188" style="stroke: #ffffff; stroke-width: 0.48"/>
     <use xlink:href="#m851a91a834" x="643.159422" y="121.122841" style="stroke: #ffffff; stroke-width: 0.48"/>
     <use xlink:href="#m851a91a834" x="645.457399" y="108.724545" style="stroke: #ffffff; stroke-width: 0.48"/>
     <use xlink:href="#m851a91a834" x="647.831976" y="143.650878" style="stroke: #ffffff; stroke-width: 0.48"/>
     <use xlink:href="#m851a91a834" x="650.129953" y="208.801674" style="stroke: #ffffff; stroke-width: 0.48"/>
     <use xlink:href="#m851a91a834" x="652.50453" y="197.880911" style="stroke: #ffffff; stroke-width: 0.48"/>
     <use xlink:href="#m851a91a834" x="654.879107" y="187.568312" style="stroke: #ffffff; stroke-width: 0.48"/>
     <use xlink:href="#m851a91a834" x="657.177084" y="234.940775" style="stroke: #ffffff; stroke-width: 0.48"/>
     <use xlink:href="#m851a91a834" x="659.551661" y="178.917659" style="stroke: #ffffff; stroke-width: 0.48"/>
     <use xlink:href="#m851a91a834" x="661.849639" y="212.392113" style="stroke: #ffffff; stroke-width: 0.48"/>
     <use xlink:href="#m851a91a834" x="664.224215" y="211.023256" style="stroke: #ffffff; stroke-width: 0.48"/>
     <use xlink:href="#m851a91a834" x="666.598792" y="158.83272" style="stroke: #ffffff; stroke-width: 0.48"/>
     <use xlink:href="#m851a91a834" x="668.743571" y="162.872436" style="stroke: #ffffff; stroke-width: 0.48"/>
     <use xlink:href="#m851a91a834" x="671.118148" y="223.561824" style="stroke: #ffffff; stroke-width: 0.48"/>
     <use xlink:href="#m851a91a834" x="673.416125" y="154.119631" style="stroke: #ffffff; stroke-width: 0.48"/>
     <use xlink:href="#m851a91a834" x="675.790702" y="178.222739" style="stroke: #ffffff; stroke-width: 0.48"/>
     <use xlink:href="#m851a91a834" x="678.088679" y="170.062549" style="stroke: #ffffff; stroke-width: 0.48"/>
     <use xlink:href="#m851a91a834" x="682.837833" y="152.971879" style="stroke: #ffffff; stroke-width: 0.48"/>
     <use xlink:href="#m851a91a834" x="685.13581" y="172.3647" style="stroke: #ffffff; stroke-width: 0.48"/>
     <use xlink:href="#m851a91a834" x="687.510387" y="180.829619" style="stroke: #ffffff; stroke-width: 0.48"/>
     <use xlink:href="#m851a91a834" x="689.808365" y="195.482402" style="stroke: #ffffff; stroke-width: 0.48"/>
     <use xlink:href="#m851a91a834" x="692.182941" y="171.655471" style="stroke: #ffffff; stroke-width: 0.48"/>
     <use xlink:href="#m851a91a834" x="694.557518" y="174.934156" style="stroke: #ffffff; stroke-width: 0.48"/>
     <use xlink:href="#m851a91a834" x="696.702297" y="181.007402" style="stroke: #ffffff; stroke-width: 0.48"/>
     <use xlink:href="#m851a91a834" x="699.076874" y="153.666981" style="stroke: #ffffff; stroke-width: 0.48"/>
     <use xlink:href="#m851a91a834" x="703.749428" y="169.10841" style="stroke: #ffffff; stroke-width: 0.48"/>
     <use xlink:href="#m851a91a834" x="706.047406" y="184.446771" style="stroke: #ffffff; stroke-width: 0.48"/>
     <use xlink:href="#m851a91a834" x="708.421982" y="172.62851" style="stroke: #ffffff; stroke-width: 0.48"/>
     <use xlink:href="#m851a91a834" x="715.469113" y="180.829619" style="stroke: #ffffff; stroke-width: 0.48"/>
     <use xlink:href="#m851a91a834" x="722.516244" y="140.646636" style="stroke: #ffffff; stroke-width: 0.48"/>
     <use xlink:href="#m851a91a834" x="727.112199" y="194.220927" style="stroke: #ffffff; stroke-width: 0.48"/>
     <use xlink:href="#m851a91a834" x="729.410177" y="145.104458" style="stroke: #ffffff; stroke-width: 0.48"/>
     <use xlink:href="#m851a91a834" x="731.784753" y="152.710879" style="stroke: #ffffff; stroke-width: 0.48"/>
     <use xlink:href="#m851a91a834" x="734.082731" y="156.115581" style="stroke: #ffffff; stroke-width: 0.48"/>
     <use xlink:href="#m851a91a834" x="736.457308" y="154.576128" style="stroke: #ffffff; stroke-width: 0.48"/>
     <use xlink:href="#m851a91a834" x="738.831884" y="187.568312" style="stroke: #ffffff; stroke-width: 0.48"/>
     <use xlink:href="#m851a91a834" x="741.129862" y="212.368057" style="stroke: #ffffff; stroke-width: 0.48"/>
     <use xlink:href="#m851a91a834" x="743.504439" y="147.234169" style="stroke: #ffffff; stroke-width: 0.48"/>
     <use xlink:href="#m851a91a834" x="745.802416" y="202.320401" style="stroke: #ffffff; stroke-width: 0.48"/>
     <use xlink:href="#m851a91a834" x="748.176993" y="157.463606" style="stroke: #ffffff; stroke-width: 0.48"/>
     <use xlink:href="#m851a91a834" x="750.55157" y="158.83272" style="stroke: #ffffff; stroke-width: 0.48"/>
     <use xlink:href="#m851a91a834" x="752.696348" y="153.285237" style="stroke: #ffffff; stroke-width: 0.48"/>
     <use xlink:href="#m851a91a834" x="755.070925" y="176.527786" style="stroke: #ffffff; stroke-width: 0.48"/>
     <use xlink:href="#m851a91a834" x="757.368903" y="170.448324" style="stroke: #ffffff; stroke-width: 0.48"/>
     <use xlink:href="#m851a91a834" x="759.743479" y="196.398733" style="stroke: #ffffff; stroke-width: 0.48"/>
     <use xlink:href="#m851a91a834" x="762.041457" y="137.708502" style="stroke: #ffffff; stroke-width: 0.48"/>
     <use xlink:href="#m851a91a834" x="764.416034" y="157.88374" style="stroke: #ffffff; stroke-width: 0.48"/>
     <use xlink:href="#m851a91a834" x="766.79061" y="212.329671" style="stroke: #ffffff; stroke-width: 0.48"/>
     <use xlink:href="#m851a91a834" x="769.088588" y="187.461324" style="stroke: #ffffff; stroke-width: 0.48"/>
     <use xlink:href="#m851a91a834" x="771.463165" y="176.989391" style="stroke: #ffffff; stroke-width: 0.48"/>
     <use xlink:href="#m851a91a834" x="773.761142" y="188.554201" style="stroke: #ffffff; stroke-width: 0.48"/>
     <use xlink:href="#m851a91a834" x="776.135719" y="180.161833" style="stroke: #ffffff; stroke-width: 0.48"/>
     <use xlink:href="#m851a91a834" x="778.510296" y="135.35838" style="stroke: #ffffff; stroke-width: 0.48"/>
     <use xlink:href="#m851a91a834" x="780.655075" y="178.828193" style="stroke: #ffffff; stroke-width: 0.48"/>
     <use xlink:href="#m851a91a834" x="783.029651" y="200.280913" style="stroke: #ffffff; stroke-width: 0.48"/>
     <use xlink:href="#m851a91a834" x="785.327629" y="136.88097" style="stroke: #ffffff; stroke-width: 0.48"/>
     <use xlink:href="#m851a91a834" x="787.702206" y="176.401409" style="stroke: #ffffff; stroke-width: 0.48"/>
     <use xlink:href="#m851a91a834" x="790.000183" y="193.670361" style="stroke: #ffffff; stroke-width: 0.48"/>
     <use xlink:href="#m851a91a834" x="792.37476" y="130.883415" style="stroke: #ffffff; stroke-width: 0.48"/>
     <use xlink:href="#m851a91a834" x="794.749337" y="170.634852" style="stroke: #ffffff; stroke-width: 0.48"/>
     <use xlink:href="#m851a91a834" x="797.047314" y="131.895685" style="stroke: #ffffff; stroke-width: 0.48"/>
     <use xlink:href="#m851a91a834" x="799.421891" y="108.644135" style="stroke: #ffffff; stroke-width: 0.48"/>
     <use xlink:href="#m851a91a834" x="801.719868" y="149.820045" style="stroke: #ffffff; stroke-width: 0.48"/>
     <use xlink:href="#m851a91a834" x="804.094445" y="96.726938" style="stroke: #ffffff; stroke-width: 0.48"/>
     <use xlink:href="#m851a91a834" x="806.469022" y="55.8" style="stroke: #ffffff; stroke-width: 0.48"/>
     <use xlink:href="#m851a91a834" x="808.613801" y="106.090246" style="stroke: #ffffff; stroke-width: 0.48"/>
     <use xlink:href="#m851a91a834" x="810.988377" y="188.202169" style="stroke: #ffffff; stroke-width: 0.48"/>
     <use xlink:href="#m851a91a834" x="813.286355" y="171.306018" style="stroke: #ffffff; stroke-width: 0.48"/>
     <use xlink:href="#m851a91a834" x="815.660932" y="198.211761" style="stroke: #ffffff; stroke-width: 0.48"/>
     <use xlink:href="#m851a91a834" x="817.958909" y="131.245158" style="stroke: #ffffff; stroke-width: 0.48"/>
     <use xlink:href="#m851a91a834" x="820.333486" y="137.428492" style="stroke: #ffffff; stroke-width: 0.48"/>
     <use xlink:href="#m851a91a834" x="822.708063" y="157.386077" style="stroke: #ffffff; stroke-width: 0.48"/>
     <use xlink:href="#m851a91a834" x="825.00604" y="212.368057" style="stroke: #ffffff; stroke-width: 0.48"/>
     <use xlink:href="#m851a91a834" x="827.380617" y="145.278017" style="stroke: #ffffff; stroke-width: 0.48"/>
     <use xlink:href="#m851a91a834" x="829.678594" y="154.457973" style="stroke: #ffffff; stroke-width: 0.48"/>
     <use xlink:href="#m851a91a834" x="832.053171" y="213.784009" style="stroke: #ffffff; stroke-width: 0.48"/>
     <use xlink:href="#m851a91a834" x="834.427748" y="83.348767" style="stroke: #ffffff; stroke-width: 0.48"/>
     <use xlink:href="#m851a91a834" x="841.32168" y="163.335074" style="stroke: #ffffff; stroke-width: 0.48"/>
     <use xlink:href="#m851a91a834" x="848.368811" y="197.880911" style="stroke: #ffffff; stroke-width: 0.48"/>
     <use xlink:href="#m851a91a834" x="855.415942" y="141.409396" style="stroke: #ffffff; stroke-width: 0.48"/>
     <use xlink:href="#m851a91a834" x="862.463073" y="183.167162" style="stroke: #ffffff; stroke-width: 0.48"/>
     <use xlink:href="#m851a91a834" x="869.280406" y="163.335074" style="stroke: #ffffff; stroke-width: 0.48"/>
     <use xlink:href="#m851a91a834" x="876.327537" y="172.62851" style="stroke: #ffffff; stroke-width: 0.48"/>
     <use xlink:href="#m851a91a834" x="883.374668" y="151.181201" style="stroke: #ffffff; stroke-width: 0.48"/>
     <use xlink:href="#m851a91a834" x="890.421799" y="125.52291" style="stroke: #ffffff; stroke-width: 0.48"/>
     <use xlink:href="#m851a91a834" x="897.239132" y="108.724545" style="stroke: #ffffff; stroke-width: 0.48"/>
     <use xlink:href="#m851a91a834" x="904.286263" y="172.62851" style="stroke: #ffffff; stroke-width: 0.48"/>
     <use xlink:href="#m851a91a834" x="911.333394" y="163.164894" style="stroke: #ffffff; stroke-width: 0.48"/>
     <use xlink:href="#m851a91a834" x="918.380525" y="111.876188" style="stroke: #ffffff; stroke-width: 0.48"/>
     <use xlink:href="#m851a91a834" x="925.197859" y="80.84489" style="stroke: #ffffff; stroke-width: 0.48"/>
     <use xlink:href="#m851a91a834" x="934.619566" y="135.960576" style="stroke: #ffffff; stroke-width: 0.48"/>
     <use xlink:href="#m851a91a834" x="939.29212" y="155.162139" style="stroke: #ffffff; stroke-width: 0.48"/>
     <use xlink:href="#m851a91a834" x="946.339251" y="167.733219" style="stroke: #ffffff; stroke-width: 0.48"/>
     <use xlink:href="#m851a91a834" x="953.233184" y="170.448324" style="stroke: #ffffff; stroke-width: 0.48"/>
     <use xlink:href="#m851a91a834" x="960.280315" y="101.660541" style="stroke: #ffffff; stroke-width: 0.48"/>
     <use xlink:href="#m851a91a834" x="967.327446" y="167.156329" style="stroke: #ffffff; stroke-width: 0.48"/>
    </g>
   </g>
  </g>
 </g>
 <defs>
  <clipPath id="pb4b35f5890">
   <rect x="135" y="43.2" width="837" height="277.2"/>
  </clipPath>
 </defs>
</svg>
