<?xml version="1.0" encoding="utf-8" standalone="no"?>
<!DOCTYPE svg PUBLIC "-//W3C//DTD SVG 1.1//EN"
  "http://www.w3.org/Graphics/SVG/1.1/DTD/svg11.dtd">
<svg xmlns:xlink="http://www.w3.org/1999/xlink" width="1080pt" height="360pt" viewBox="0 0 1080 360" xmlns="http://www.w3.org/2000/svg" version="1.1">
 <metadata>
  <rdf:RDF xmlns:dc="http://purl.org/dc/elements/1.1/" xmlns:cc="http://creativecommons.org/ns#" xmlns:rdf="http://www.w3.org/1999/02/22-rdf-syntax-ns#">
   <cc:Work>
    <dc:type rdf:resource="http://purl.org/dc/dcmitype/StillImage"/>
    <dc:date>2024-01-23T18:50:26.662622</dc:date>
    <dc:format>image/svg+xml</dc:format>
    <dc:creator>
     <cc:Agent>
      <dc:title>Matplotlib v3.8.2, https://matplotlib.org/</dc:title>
     </cc:Agent>
    </dc:creator>
   </cc:Work>
  </rdf:RDF>
 </metadata>
 <defs>
  <style type="text/css">*{stroke-linejoin: round; stroke-linecap: butt}</style>
 </defs>
 <g id="figure_1">
  <g id="patch_1">
   <path d="M 0 360 
L 1080 360 
L 1080 0 
L 0 0 
z
" style="fill: #ffffff"/>
  </g>
  <g id="axes_1">
   <g id="patch_2">
    <path d="M 135 320.4 
L 972 320.4 
L 972 43.2 
L 135 43.2 
z
" style="fill: #ffffff"/>
   </g>
   <g id="PolyCollection_1"/>
   <g id="matplotlib.axis_1">
    <g id="xtick_1">
     <g id="line2d_1">
      <defs>
       <path id="mef78a59c75" d="M 0 0 
L 0 3.5 
" style="stroke: #000000; stroke-width: 0.8"/>
      </defs>
      <g>
       <use xlink:href="#mef78a59c75" x="149.368099" y="320.4" style="stroke: #000000; stroke-width: 0.8"/>
      </g>
     </g>
     <g id="text_1">
      <!-- 1992 -->
      <g transform="translate(136.643099 334.998438) scale(0.1 -0.1)">
       <defs>
        <path id="DejaVuSans-31" d="M 794 531 
L 1825 531 
L 1825 4091 
L 703 3866 
L 703 4441 
L 1819 4666 
L 2450 4666 
L 2450 531 
L 3481 531 
L 3481 0 
L 794 0 
L 794 531 
z
" transform="scale(0.015625)"/>
        <path id="DejaVuSans-39" d="M 703 97 
L 703 672 
Q 941 559 1184 500 
Q 1428 441 1663 441 
Q 2288 441 2617 861 
Q 2947 1281 2994 2138 
Q 2813 1869 2534 1725 
Q 2256 1581 1919 1581 
Q 1219 1581 811 2004 
Q 403 2428 403 3163 
Q 403 3881 828 4315 
Q 1253 4750 1959 4750 
Q 2769 4750 3195 4129 
Q 3622 3509 3622 2328 
Q 3622 1225 3098 567 
Q 2575 -91 1691 -91 
Q 1453 -91 1209 -44 
Q 966 3 703 97 
z
M 1959 2075 
Q 2384 2075 2632 2365 
Q 2881 2656 2881 3163 
Q 2881 3666 2632 3958 
Q 2384 4250 1959 4250 
Q 1534 4250 1286 3958 
Q 1038 3666 1038 3163 
Q 1038 2656 1286 2365 
Q 1534 2075 1959 2075 
z
" transform="scale(0.015625)"/>
        <path id="DejaVuSans-32" d="M 1228 531 
L 3431 531 
L 3431 0 
L 469 0 
L 469 531 
Q 828 903 1448 1529 
Q 2069 2156 2228 2338 
Q 2531 2678 2651 2914 
Q 2772 3150 2772 3378 
Q 2772 3750 2511 3984 
Q 2250 4219 1831 4219 
Q 1534 4219 1204 4116 
Q 875 4013 500 3803 
L 500 4441 
Q 881 4594 1212 4672 
Q 1544 4750 1819 4750 
Q 2544 4750 2975 4387 
Q 3406 4025 3406 3419 
Q 3406 3131 3298 2873 
Q 3191 2616 2906 2266 
Q 2828 2175 2409 1742 
Q 1991 1309 1228 531 
z
" transform="scale(0.015625)"/>
       </defs>
       <use xlink:href="#DejaVuSans-31"/>
       <use xlink:href="#DejaVuSans-39" x="63.623047"/>
       <use xlink:href="#DejaVuSans-39" x="127.246094"/>
       <use xlink:href="#DejaVuSans-32" x="190.869141"/>
      </g>
     </g>
    </g>
    <g id="xtick_2">
     <g id="line2d_2">
      <g>
       <use xlink:href="#mef78a59c75" x="262.837246" y="320.4" style="stroke: #000000; stroke-width: 0.8"/>
      </g>
     </g>
     <g id="text_2">
      <!-- 1996 -->
      <g transform="translate(250.112246 334.998438) scale(0.1 -0.1)">
       <defs>
        <path id="DejaVuSans-36" d="M 2113 2584 
Q 1688 2584 1439 2293 
Q 1191 2003 1191 1497 
Q 1191 994 1439 701 
Q 1688 409 2113 409 
Q 2538 409 2786 701 
Q 3034 994 3034 1497 
Q 3034 2003 2786 2293 
Q 2538 2584 2113 2584 
z
M 3366 4563 
L 3366 3988 
Q 3128 4100 2886 4159 
Q 2644 4219 2406 4219 
Q 1781 4219 1451 3797 
Q 1122 3375 1075 2522 
Q 1259 2794 1537 2939 
Q 1816 3084 2150 3084 
Q 2853 3084 3261 2657 
Q 3669 2231 3669 1497 
Q 3669 778 3244 343 
Q 2819 -91 2113 -91 
Q 1303 -91 875 529 
Q 447 1150 447 2328 
Q 447 3434 972 4092 
Q 1497 4750 2381 4750 
Q 2619 4750 2861 4703 
Q 3103 4656 3366 4563 
z
" transform="scale(0.015625)"/>
       </defs>
       <use xlink:href="#DejaVuSans-31"/>
       <use xlink:href="#DejaVuSans-39" x="63.623047"/>
       <use xlink:href="#DejaVuSans-39" x="127.246094"/>
       <use xlink:href="#DejaVuSans-36" x="190.869141"/>
      </g>
     </g>
    </g>
    <g id="xtick_3">
     <g id="line2d_3">
      <g>
       <use xlink:href="#mef78a59c75" x="376.306393" y="320.4" style="stroke: #000000; stroke-width: 0.8"/>
      </g>
     </g>
     <g id="text_3">
      <!-- 2000 -->
      <g transform="translate(363.581393 334.998438) scale(0.1 -0.1)">
       <defs>
        <path id="DejaVuSans-30" d="M 2034 4250 
Q 1547 4250 1301 3770 
Q 1056 3291 1056 2328 
Q 1056 1369 1301 889 
Q 1547 409 2034 409 
Q 2525 409 2770 889 
Q 3016 1369 3016 2328 
Q 3016 3291 2770 3770 
Q 2525 4250 2034 4250 
z
M 2034 4750 
Q 2819 4750 3233 4129 
Q 3647 3509 3647 2328 
Q 3647 1150 3233 529 
Q 2819 -91 2034 -91 
Q 1250 -91 836 529 
Q 422 1150 422 2328 
Q 422 3509 836 4129 
Q 1250 4750 2034 4750 
z
" transform="scale(0.015625)"/>
       </defs>
       <use xlink:href="#DejaVuSans-32"/>
       <use xlink:href="#DejaVuSans-30" x="63.623047"/>
       <use xlink:href="#DejaVuSans-30" x="127.246094"/>
       <use xlink:href="#DejaVuSans-30" x="190.869141"/>
      </g>
     </g>
    </g>
    <g id="xtick_4">
     <g id="line2d_4">
      <g>
       <use xlink:href="#mef78a59c75" x="489.775541" y="320.4" style="stroke: #000000; stroke-width: 0.8"/>
      </g>
     </g>
     <g id="text_4">
      <!-- 2004 -->
      <g transform="translate(477.050541 334.998438) scale(0.1 -0.1)">
       <defs>
        <path id="DejaVuSans-34" d="M 2419 4116 
L 825 1625 
L 2419 1625 
L 2419 4116 
z
M 2253 4666 
L 3047 4666 
L 3047 1625 
L 3713 1625 
L 3713 1100 
L 3047 1100 
L 3047 0 
L 2419 0 
L 2419 1100 
L 313 1100 
L 313 1709 
L 2253 4666 
z
" transform="scale(0.015625)"/>
       </defs>
       <use xlink:href="#DejaVuSans-32"/>
       <use xlink:href="#DejaVuSans-30" x="63.623047"/>
       <use xlink:href="#DejaVuSans-30" x="127.246094"/>
       <use xlink:href="#DejaVuSans-34" x="190.869141"/>
      </g>
     </g>
    </g>
    <g id="xtick_5">
     <g id="line2d_5">
      <g>
       <use xlink:href="#mef78a59c75" x="603.244688" y="320.4" style="stroke: #000000; stroke-width: 0.8"/>
      </g>
     </g>
     <g id="text_5">
      <!-- 2008 -->
      <g transform="translate(590.519688 334.998438) scale(0.1 -0.1)">
       <defs>
        <path id="DejaVuSans-38" d="M 2034 2216 
Q 1584 2216 1326 1975 
Q 1069 1734 1069 1313 
Q 1069 891 1326 650 
Q 1584 409 2034 409 
Q 2484 409 2743 651 
Q 3003 894 3003 1313 
Q 3003 1734 2745 1975 
Q 2488 2216 2034 2216 
z
M 1403 2484 
Q 997 2584 770 2862 
Q 544 3141 544 3541 
Q 544 4100 942 4425 
Q 1341 4750 2034 4750 
Q 2731 4750 3128 4425 
Q 3525 4100 3525 3541 
Q 3525 3141 3298 2862 
Q 3072 2584 2669 2484 
Q 3125 2378 3379 2068 
Q 3634 1759 3634 1313 
Q 3634 634 3220 271 
Q 2806 -91 2034 -91 
Q 1263 -91 848 271 
Q 434 634 434 1313 
Q 434 1759 690 2068 
Q 947 2378 1403 2484 
z
M 1172 3481 
Q 1172 3119 1398 2916 
Q 1625 2713 2034 2713 
Q 2441 2713 2670 2916 
Q 2900 3119 2900 3481 
Q 2900 3844 2670 4047 
Q 2441 4250 2034 4250 
Q 1625 4250 1398 4047 
Q 1172 3844 1172 3481 
z
" transform="scale(0.015625)"/>
       </defs>
       <use xlink:href="#DejaVuSans-32"/>
       <use xlink:href="#DejaVuSans-30" x="63.623047"/>
       <use xlink:href="#DejaVuSans-30" x="127.246094"/>
       <use xlink:href="#DejaVuSans-38" x="190.869141"/>
      </g>
     </g>
    </g>
    <g id="xtick_6">
     <g id="line2d_6">
      <g>
       <use xlink:href="#mef78a59c75" x="716.713835" y="320.4" style="stroke: #000000; stroke-width: 0.8"/>
      </g>
     </g>
     <g id="text_6">
      <!-- 2012 -->
      <g transform="translate(703.988835 334.998438) scale(0.1 -0.1)">
       <use xlink:href="#DejaVuSans-32"/>
       <use xlink:href="#DejaVuSans-30" x="63.623047"/>
       <use xlink:href="#DejaVuSans-31" x="127.246094"/>
       <use xlink:href="#DejaVuSans-32" x="190.869141"/>
      </g>
     </g>
    </g>
    <g id="xtick_7">
     <g id="line2d_7">
      <g>
       <use xlink:href="#mef78a59c75" x="830.182982" y="320.4" style="stroke: #000000; stroke-width: 0.8"/>
      </g>
     </g>
     <g id="text_7">
      <!-- 2016 -->
      <g transform="translate(817.457982 334.998438) scale(0.1 -0.1)">
       <use xlink:href="#DejaVuSans-32"/>
       <use xlink:href="#DejaVuSans-30" x="63.623047"/>
       <use xlink:href="#DejaVuSans-31" x="127.246094"/>
       <use xlink:href="#DejaVuSans-36" x="190.869141"/>
      </g>
     </g>
    </g>
    <g id="xtick_8">
     <g id="line2d_8">
      <g>
       <use xlink:href="#mef78a59c75" x="943.65213" y="320.4" style="stroke: #000000; stroke-width: 0.8"/>
      </g>
     </g>
     <g id="text_8">
      <!-- 2020 -->
      <g transform="translate(930.92713 334.998438) scale(0.1 -0.1)">
       <use xlink:href="#DejaVuSans-32"/>
       <use xlink:href="#DejaVuSans-30" x="63.623047"/>
       <use xlink:href="#DejaVuSans-32" x="127.246094"/>
       <use xlink:href="#DejaVuSans-30" x="190.869141"/>
      </g>
     </g>
    </g>
   </g>
   <g id="matplotlib.axis_2">
    <g id="ytick_1">
     <g id="line2d_9">
      <defs>
       <path id="mcc4ff2de60" d="M 0 0 
L -3.5 0 
" style="stroke: #000000; stroke-width: 0.8"/>
      </defs>
      <g>
       <use xlink:href="#mcc4ff2de60" x="135" y="286.492052" style="stroke: #000000; stroke-width: 0.8"/>
      </g>
     </g>
     <g id="text_9">
      <!-- −1.5 -->
      <g transform="translate(103.717187 290.291271) scale(0.1 -0.1)">
       <defs>
        <path id="DejaVuSans-2212" d="M 678 2272 
L 4684 2272 
L 4684 1741 
L 678 1741 
L 678 2272 
z
" transform="scale(0.015625)"/>
        <path id="DejaVuSans-2e" d="M 684 794 
L 1344 794 
L 1344 0 
L 684 0 
L 684 794 
z
" transform="scale(0.015625)"/>
        <path id="DejaVuSans-35" d="M 691 4666 
L 3169 4666 
L 3169 4134 
L 1269 4134 
L 1269 2991 
Q 1406 3038 1543 3061 
Q 1681 3084 1819 3084 
Q 2600 3084 3056 2656 
Q 3513 2228 3513 1497 
Q 3513 744 3044 326 
Q 2575 -91 1722 -91 
Q 1428 -91 1123 -41 
Q 819 9 494 109 
L 494 744 
Q 775 591 1075 516 
Q 1375 441 1709 441 
Q 2250 441 2565 725 
Q 2881 1009 2881 1497 
Q 2881 1984 2565 2268 
Q 2250 2553 1709 2553 
Q 1456 2553 1204 2497 
Q 953 2441 691 2322 
L 691 4666 
z
" transform="scale(0.015625)"/>
       </defs>
       <use xlink:href="#DejaVuSans-2212"/>
       <use xlink:href="#DejaVuSans-31" x="83.789062"/>
       <use xlink:href="#DejaVuSans-2e" x="147.412109"/>
       <use xlink:href="#DejaVuSans-35" x="179.199219"/>
      </g>
     </g>
    </g>
    <g id="ytick_2">
     <g id="line2d_10">
      <g>
       <use xlink:href="#mcc4ff2de60" x="135" y="247.714177" style="stroke: #000000; stroke-width: 0.8"/>
      </g>
     </g>
     <g id="text_10">
      <!-- −1.0 -->
      <g transform="translate(103.717187 251.513396) scale(0.1 -0.1)">
       <use xlink:href="#DejaVuSans-2212"/>
       <use xlink:href="#DejaVuSans-31" x="83.789062"/>
       <use xlink:href="#DejaVuSans-2e" x="147.412109"/>
       <use xlink:href="#DejaVuSans-30" x="179.199219"/>
      </g>
     </g>
    </g>
    <g id="ytick_3">
     <g id="line2d_11">
      <g>
       <use xlink:href="#mcc4ff2de60" x="135" y="208.936303" style="stroke: #000000; stroke-width: 0.8"/>
      </g>
     </g>
     <g id="text_11">
      <!-- −0.5 -->
      <g transform="translate(103.717187 212.735522) scale(0.1 -0.1)">
       <use xlink:href="#DejaVuSans-2212"/>
       <use xlink:href="#DejaVuSans-30" x="83.789062"/>
       <use xlink:href="#DejaVuSans-2e" x="147.412109"/>
       <use xlink:href="#DejaVuSans-35" x="179.199219"/>
      </g>
     </g>
    </g>
    <g id="ytick_4">
     <g id="line2d_12">
      <g>
       <use xlink:href="#mcc4ff2de60" x="135" y="170.158429" style="stroke: #000000; stroke-width: 0.8"/>
      </g>
     </g>
     <g id="text_12">
      <!-- 0.0 -->
      <g transform="translate(112.096875 173.957647) scale(0.1 -0.1)">
       <use xlink:href="#DejaVuSans-30"/>
       <use xlink:href="#DejaVuSans-2e" x="63.623047"/>
       <use xlink:href="#DejaVuSans-30" x="95.410156"/>
      </g>
     </g>
    </g>
    <g id="ytick_5">
     <g id="line2d_13">
      <g>
       <use xlink:href="#mcc4ff2de60" x="135" y="131.380554" style="stroke: #000000; stroke-width: 0.8"/>
      </g>
     </g>
     <g id="text_13">
      <!-- 0.5 -->
      <g transform="translate(112.096875 135.179773) scale(0.1 -0.1)">
       <use xlink:href="#DejaVuSans-30"/>
       <use xlink:href="#DejaVuSans-2e" x="63.623047"/>
       <use xlink:href="#DejaVuSans-35" x="95.410156"/>
      </g>
     </g>
    </g>
    <g id="ytick_6">
     <g id="line2d_14">
      <g>
       <use xlink:href="#mcc4ff2de60" x="135" y="92.60268" style="stroke: #000000; stroke-width: 0.8"/>
      </g>
     </g>
     <g id="text_14">
      <!-- 1.0 -->
      <g transform="translate(112.096875 96.401899) scale(0.1 -0.1)">
       <use xlink:href="#DejaVuSans-31"/>
       <use xlink:href="#DejaVuSans-2e" x="63.623047"/>
       <use xlink:href="#DejaVuSans-30" x="95.410156"/>
      </g>
     </g>
    </g>
    <g id="ytick_7">
     <g id="line2d_15">
      <g>
       <use xlink:href="#mcc4ff2de60" x="135" y="53.824806" style="stroke: #000000; stroke-width: 0.8"/>
      </g>
     </g>
     <g id="text_15">
      <!-- 1.5 -->
      <g transform="translate(112.096875 57.624024) scale(0.1 -0.1)">
       <use xlink:href="#DejaVuSans-31"/>
       <use xlink:href="#DejaVuSans-2e" x="63.623047"/>
       <use xlink:href="#DejaVuSans-35" x="95.410156"/>
      </g>
     </g>
    </g>
    <g id="text_16">
     <!-- SGI -->
     <g transform="translate(97.6375 190.323437) rotate(-90) scale(0.1 -0.1)">
      <defs>
       <path id="DejaVuSans-53" d="M 3425 4513 
L 3425 3897 
Q 3066 4069 2747 4153 
Q 2428 4238 2131 4238 
Q 1616 4238 1336 4038 
Q 1056 3838 1056 3469 
Q 1056 3159 1242 3001 
Q 1428 2844 1947 2747 
L 2328 2669 
Q 3034 2534 3370 2195 
Q 3706 1856 3706 1288 
Q 3706 609 3251 259 
Q 2797 -91 1919 -91 
Q 1588 -91 1214 -16 
Q 841 59 441 206 
L 441 856 
Q 825 641 1194 531 
Q 1563 422 1919 422 
Q 2459 422 2753 634 
Q 3047 847 3047 1241 
Q 3047 1584 2836 1778 
Q 2625 1972 2144 2069 
L 1759 2144 
Q 1053 2284 737 2584 
Q 422 2884 422 3419 
Q 422 4038 858 4394 
Q 1294 4750 2059 4750 
Q 2388 4750 2728 4690 
Q 3069 4631 3425 4513 
z
" transform="scale(0.015625)"/>
       <path id="DejaVuSans-47" d="M 3809 666 
L 3809 1919 
L 2778 1919 
L 2778 2438 
L 4434 2438 
L 4434 434 
Q 4069 175 3628 42 
Q 3188 -91 2688 -91 
Q 1594 -91 976 548 
Q 359 1188 359 2328 
Q 359 3472 976 4111 
Q 1594 4750 2688 4750 
Q 3144 4750 3555 4637 
Q 3966 4525 4313 4306 
L 4313 3634 
Q 3963 3931 3569 4081 
Q 3175 4231 2741 4231 
Q 1884 4231 1454 3753 
Q 1025 3275 1025 2328 
Q 1025 1384 1454 906 
Q 1884 428 2741 428 
Q 3075 428 3337 486 
Q 3600 544 3809 666 
z
" transform="scale(0.015625)"/>
       <path id="DejaVuSans-49" d="M 628 4666 
L 1259 4666 
L 1259 0 
L 628 0 
L 628 4666 
z
" transform="scale(0.015625)"/>
      </defs>
      <use xlink:href="#DejaVuSans-53"/>
      <use xlink:href="#DejaVuSans-47" x="63.476562"/>
      <use xlink:href="#DejaVuSans-49" x="140.966797"/>
     </g>
    </g>
   </g>
   <g id="line2d_16">
    <path d="M 135 111.21448 
L 175.308342 99.634852 
L 177.715969 75.76852 
L 180.123597 111.770878 
L 182.298228 135.188664 
L 187.035817 123.741359 
L 189.443444 120.776875 
L 191.773406 99.152518 
L 194.181034 70.792008 
L 196.588661 97.419237 
L 198.918623 88.291402 
L 201.32625 58.937257 
L 203.656212 62.132302 
L 210.646098 86.261236 
L 224.936532 133.348377 
L 232.004083 113.615901 
L 238.993969 124.845724 
L 246.139185 81.519825 
L 258.021991 87.717346 
L 265.167208 55.8 
L 272.157094 75.988959 
L 279.30231 105.509025 
L 286.447527 118.05632 
L 300.504964 102.662701 
L 307.650181 93.119462 
L 314.795398 85.439513 
L 321.940614 73.049306 
L 328.852835 63.002353 
L 333.590424 114.48535 
L 350.288485 86.942845 
L 359.608333 108.066293 
L 364.345922 127.95556 
L 371.491139 124.887907 
L 378.636355 123.308395 
L 385.626241 124.507704 
L 392.771458 156.175388 
L 399.916674 160.290702 
L 413.974112 122.205436 
L 421.119328 164.057141 
L 428.264545 174.12476 
L 435.409762 165.189935 
L 442.321982 161.324443 
L 444.729609 162.413033 
L 449.467199 166.897538 
L 456.612415 177.861898 
L 463.757632 162.654767 
L 470.669852 153.249102 
L 477.815069 168.590762 
L 484.960286 180.196214 
L 492.105502 171.74315 
L 499.095388 155.879358 
L 513.385822 167.34021 
L 520.531038 149.846295 
L 527.443259 147.694812 
L 534.588475 152.856378 
L 541.733692 142.72975 
L 548.878909 139.962095 
L 555.791129 123.229862 
L 560.528719 123.827307 
L 570.081563 124.401458 
L 577.226779 120.101722 
L 581.809038 88.403381 
L 591.284216 125.654007 
L 598.429433 142.012156 
L 605.57465 139.70028 
L 612.564536 170.852251 
L 617.302125 155.667625 
L 619.709752 108.779578 
L 622.11738 119.867481 
L 624.447342 88.701199 
L 626.854969 116.341152 
L 631.592558 97.39945 
L 634.000186 145.180207 
L 636.174817 156.079284 
L 638.582444 126.814436 
L 640.912406 162.967123 
L 643.320033 167.863976 
L 645.649995 181.134591 
L 652.795212 158.368772 
L 655.202839 193.02914 
L 657.532801 163.757294 
L 659.940429 158.26726 
L 662.348056 191.465473 
L 664.522687 191.169018 
L 666.930315 182.781432 
L 669.260277 191.814483 
L 671.667904 184.664573 
L 673.997866 186.037194 
L 676.405493 153.444262 
L 678.813121 158.566762 
L 681.143082 135.039175 
L 683.55071 187.895555 
L 685.880672 148.100942 
L 688.288299 134.98969 
L 690.695927 167.716681 
L 692.870558 158.062705 
L 695.278185 149.422144 
L 700.015774 160.525745 
L 702.345736 160.36036 
L 704.753364 127.746824 
L 711.89858 156.279104 
L 719.043797 164.683584 
L 723.703721 149.972754 
L 726.033683 176.789959 
L 728.44131 176.253642 
L 730.771272 194.38335 
L 733.1789 205.259574 
L 735.586527 192.326043 
L 737.916489 184.18735 
L 740.324116 217.909798 
L 742.654078 168.243934 
L 745.061705 188.270344 
L 747.469333 219.88714 
L 749.643964 214.912543 
L 752.051591 207.91574 
L 754.381553 227.376365 
L 756.789181 228.658938 
L 759.119143 226.515977 
L 763.934397 217.997775 
L 766.264359 227.752346 
L 771.001949 221.284215 
L 773.409576 230.335627 
L 775.817203 249.952025 
L 777.991834 241.005747 
L 780.399462 210.451972 
L 782.729424 226.696455 
L 787.467013 222.166111 
L 789.87464 210.180571 
L 792.282268 204.299555 
L 794.61223 192.089477 
L 797.019857 223.611452 
L 799.349819 199.08539 
L 801.757446 195.676366 
L 804.165074 227.387339 
L 806.339705 221.147419 
L 808.747332 242.427865 
L 811.077294 289.103418 
L 813.484922 254.914565 
L 815.814884 287.090813 
L 818.222511 279.083118 
L 820.630138 234.155547 
L 822.9601 227.752346 
L 825.367728 258.351003 
L 827.69769 216.261309 
L 830.105317 202.929222 
L 832.512944 264.385752 
L 839.50283 248.776801 
L 846.648047 240.964067 
L 853.793263 266.23325 
L 856.123225 230.780716 
L 860.93848 262.082018 
L 867.850701 249.255491 
L 874.995917 307.8 
L 882.141134 241.220698 
L 889.286351 239.84122 
L 896.198571 230.105762 
L 903.343788 226.046065 
L 917.634221 221.428923 
L 924.546441 230.56224 
L 931.691658 201.140364 
L 938.836875 223.849823 
L 945.982091 224.786894 
L 960.117194 225.884101 
L 964.854783 214.677035 
L 967.262411 255.081491 
L 969.592373 225.15408 
L 972 230.984982 
L 972 230.984982 
" clip-path="url(#p1edcb63abc)" style="fill: none; stroke: #7f7f7f; stroke-width: 1.5; stroke-linecap: square"/>
   </g>
   <g id="line2d_17">
    <path d="M 135 170.158429 
L 972 170.158429 
" clip-path="url(#p1edcb63abc)" style="fill: none; stroke: #000000; stroke-width: 1.5; stroke-linecap: square"/>
   </g>
   <g id="patch_3">
    <path d="M 135 320.4 
L 135 43.2 
" style="fill: none; stroke: #000000; stroke-width: 0.8; stroke-linejoin: miter; stroke-linecap: square"/>
   </g>
   <g id="patch_4">
    <path d="M 135 320.4 
L 972 320.4 
" style="fill: none; stroke: #000000; stroke-width: 0.8; stroke-linejoin: miter; stroke-linecap: square"/>
   </g>
   <g id="text_17">
    <!-- SGI for GWIC ID 9858 -->
    <g transform="translate(135 37.2) scale(0.12 -0.12)">
     <defs>
      <path id="DejaVuSans-Bold-53" d="M 3834 4519 
L 3834 3531 
Q 3450 3703 3084 3790 
Q 2719 3878 2394 3878 
Q 1963 3878 1756 3759 
Q 1550 3641 1550 3391 
Q 1550 3203 1689 3098 
Q 1828 2994 2194 2919 
L 2706 2816 
Q 3484 2659 3812 2340 
Q 4141 2022 4141 1434 
Q 4141 663 3683 286 
Q 3225 -91 2284 -91 
Q 1841 -91 1394 -6 
Q 947 78 500 244 
L 500 1259 
Q 947 1022 1364 901 
Q 1781 781 2169 781 
Q 2563 781 2772 912 
Q 2981 1044 2981 1288 
Q 2981 1506 2839 1625 
Q 2697 1744 2272 1838 
L 1806 1941 
Q 1106 2091 782 2419 
Q 459 2747 459 3303 
Q 459 4000 909 4375 
Q 1359 4750 2203 4750 
Q 2588 4750 2994 4692 
Q 3400 4634 3834 4519 
z
" transform="scale(0.015625)"/>
      <path id="DejaVuSans-Bold-47" d="M 4781 347 
Q 4331 128 3847 18 
Q 3363 -91 2847 -91 
Q 1681 -91 1000 561 
Q 319 1213 319 2328 
Q 319 3456 1012 4103 
Q 1706 4750 2913 4750 
Q 3378 4750 3804 4662 
Q 4231 4575 4609 4403 
L 4609 3438 
Q 4219 3659 3833 3768 
Q 3447 3878 3059 3878 
Q 2341 3878 1952 3476 
Q 1563 3075 1563 2328 
Q 1563 1588 1938 1184 
Q 2313 781 3003 781 
Q 3191 781 3352 804 
Q 3513 828 3641 878 
L 3641 1784 
L 2906 1784 
L 2906 2591 
L 4781 2591 
L 4781 347 
z
" transform="scale(0.015625)"/>
      <path id="DejaVuSans-Bold-49" d="M 588 4666 
L 1791 4666 
L 1791 0 
L 588 0 
L 588 4666 
z
" transform="scale(0.015625)"/>
      <path id="DejaVuSans-Bold-20" transform="scale(0.015625)"/>
      <path id="DejaVuSans-Bold-66" d="M 2841 4863 
L 2841 4128 
L 2222 4128 
Q 1984 4128 1890 4042 
Q 1797 3956 1797 3744 
L 1797 3500 
L 2753 3500 
L 2753 2700 
L 1797 2700 
L 1797 0 
L 678 0 
L 678 2700 
L 122 2700 
L 122 3500 
L 678 3500 
L 678 3744 
Q 678 4316 997 4589 
Q 1316 4863 1984 4863 
L 2841 4863 
z
" transform="scale(0.015625)"/>
      <path id="DejaVuSans-Bold-6f" d="M 2203 2784 
Q 1831 2784 1636 2517 
Q 1441 2250 1441 1747 
Q 1441 1244 1636 976 
Q 1831 709 2203 709 
Q 2569 709 2762 976 
Q 2956 1244 2956 1747 
Q 2956 2250 2762 2517 
Q 2569 2784 2203 2784 
z
M 2203 3584 
Q 3106 3584 3614 3096 
Q 4122 2609 4122 1747 
Q 4122 884 3614 396 
Q 3106 -91 2203 -91 
Q 1297 -91 786 396 
Q 275 884 275 1747 
Q 275 2609 786 3096 
Q 1297 3584 2203 3584 
z
" transform="scale(0.015625)"/>
      <path id="DejaVuSans-Bold-72" d="M 3138 2547 
Q 2991 2616 2845 2648 
Q 2700 2681 2553 2681 
Q 2122 2681 1889 2404 
Q 1656 2128 1656 1613 
L 1656 0 
L 538 0 
L 538 3500 
L 1656 3500 
L 1656 2925 
Q 1872 3269 2151 3426 
Q 2431 3584 2822 3584 
Q 2878 3584 2943 3579 
Q 3009 3575 3134 3559 
L 3138 2547 
z
" transform="scale(0.015625)"/>
      <path id="DejaVuSans-Bold-57" d="M 191 4666 
L 1344 4666 
L 2150 1275 
L 2950 4666 
L 4109 4666 
L 4909 1275 
L 5716 4666 
L 6859 4666 
L 5759 0 
L 4372 0 
L 3525 3547 
L 2688 0 
L 1300 0 
L 191 4666 
z
" transform="scale(0.015625)"/>
      <path id="DejaVuSans-Bold-43" d="M 4288 256 
Q 3956 84 3597 -3 
Q 3238 -91 2847 -91 
Q 1681 -91 1000 561 
Q 319 1213 319 2328 
Q 319 3447 1000 4098 
Q 1681 4750 2847 4750 
Q 3238 4750 3597 4662 
Q 3956 4575 4288 4403 
L 4288 3438 
Q 3953 3666 3628 3772 
Q 3303 3878 2944 3878 
Q 2300 3878 1931 3465 
Q 1563 3053 1563 2328 
Q 1563 1606 1931 1193 
Q 2300 781 2944 781 
Q 3303 781 3628 887 
Q 3953 994 4288 1222 
L 4288 256 
z
" transform="scale(0.015625)"/>
      <path id="DejaVuSans-Bold-44" d="M 1791 3756 
L 1791 909 
L 2222 909 
Q 2959 909 3348 1275 
Q 3738 1641 3738 2338 
Q 3738 3031 3350 3393 
Q 2963 3756 2222 3756 
L 1791 3756 
z
M 588 4666 
L 1856 4666 
Q 2919 4666 3439 4514 
Q 3959 4363 4331 4000 
Q 4659 3684 4818 3271 
Q 4978 2859 4978 2338 
Q 4978 1809 4818 1395 
Q 4659 981 4331 666 
Q 3956 303 3431 151 
Q 2906 0 1856 0 
L 588 0 
L 588 4666 
z
" transform="scale(0.015625)"/>
      <path id="DejaVuSans-Bold-39" d="M 641 103 
L 641 966 
Q 928 831 1190 764 
Q 1453 697 1709 697 
Q 2247 697 2547 995 
Q 2847 1294 2900 1881 
Q 2688 1725 2447 1647 
Q 2206 1569 1925 1569 
Q 1209 1569 770 1986 
Q 331 2403 331 3084 
Q 331 3838 820 4291 
Q 1309 4744 2131 4744 
Q 3044 4744 3544 4128 
Q 4044 3513 4044 2388 
Q 4044 1231 3459 570 
Q 2875 -91 1856 -91 
Q 1528 -91 1228 -42 
Q 928 6 641 103 
z
M 2125 2350 
Q 2441 2350 2600 2554 
Q 2759 2759 2759 3169 
Q 2759 3575 2600 3781 
Q 2441 3988 2125 3988 
Q 1809 3988 1650 3781 
Q 1491 3575 1491 3169 
Q 1491 2759 1650 2554 
Q 1809 2350 2125 2350 
z
" transform="scale(0.015625)"/>
      <path id="DejaVuSans-Bold-38" d="M 2228 2088 
Q 1891 2088 1709 1903 
Q 1528 1719 1528 1375 
Q 1528 1031 1709 848 
Q 1891 666 2228 666 
Q 2563 666 2741 848 
Q 2919 1031 2919 1375 
Q 2919 1722 2741 1905 
Q 2563 2088 2228 2088 
z
M 1350 2484 
Q 925 2613 709 2878 
Q 494 3144 494 3541 
Q 494 4131 934 4440 
Q 1375 4750 2228 4750 
Q 3075 4750 3515 4442 
Q 3956 4134 3956 3541 
Q 3956 3144 3739 2878 
Q 3522 2613 3097 2484 
Q 3572 2353 3814 2058 
Q 4056 1763 4056 1313 
Q 4056 619 3595 264 
Q 3134 -91 2228 -91 
Q 1319 -91 855 264 
Q 391 619 391 1313 
Q 391 1763 633 2058 
Q 875 2353 1350 2484 
z
M 1631 3419 
Q 1631 3141 1786 2991 
Q 1941 2841 2228 2841 
Q 2509 2841 2662 2991 
Q 2816 3141 2816 3419 
Q 2816 3697 2662 3845 
Q 2509 3994 2228 3994 
Q 1941 3994 1786 3844 
Q 1631 3694 1631 3419 
z
" transform="scale(0.015625)"/>
      <path id="DejaVuSans-Bold-35" d="M 678 4666 
L 3669 4666 
L 3669 3781 
L 1638 3781 
L 1638 3059 
Q 1775 3097 1914 3117 
Q 2053 3138 2203 3138 
Q 3056 3138 3531 2711 
Q 4006 2284 4006 1522 
Q 4006 766 3489 337 
Q 2972 -91 2053 -91 
Q 1656 -91 1267 -14 
Q 878 63 494 219 
L 494 1166 
Q 875 947 1217 837 
Q 1559 728 1863 728 
Q 2300 728 2551 942 
Q 2803 1156 2803 1522 
Q 2803 1891 2551 2103 
Q 2300 2316 1863 2316 
Q 1603 2316 1309 2248 
Q 1016 2181 678 2041 
L 678 4666 
z
" transform="scale(0.015625)"/>
     </defs>
     <use xlink:href="#DejaVuSans-Bold-53"/>
     <use xlink:href="#DejaVuSans-Bold-47" x="72.021484"/>
     <use xlink:href="#DejaVuSans-Bold-49" x="154.101562"/>
     <use xlink:href="#DejaVuSans-Bold-20" x="191.308594"/>
     <use xlink:href="#DejaVuSans-Bold-66" x="226.123047"/>
     <use xlink:href="#DejaVuSans-Bold-6f" x="269.628906"/>
     <use xlink:href="#DejaVuSans-Bold-72" x="338.330078"/>
     <use xlink:href="#DejaVuSans-Bold-20" x="387.646484"/>
     <use xlink:href="#DejaVuSans-Bold-47" x="422.460938"/>
     <use xlink:href="#DejaVuSans-Bold-57" x="504.541016"/>
     <use xlink:href="#DejaVuSans-Bold-49" x="614.84375"/>
     <use xlink:href="#DejaVuSans-Bold-43" x="652.050781"/>
     <use xlink:href="#DejaVuSans-Bold-20" x="725.439453"/>
     <use xlink:href="#DejaVuSans-Bold-49" x="760.253906"/>
     <use xlink:href="#DejaVuSans-Bold-44" x="797.460938"/>
     <use xlink:href="#DejaVuSans-Bold-20" x="880.46875"/>
     <use xlink:href="#DejaVuSans-Bold-39" x="915.283203"/>
     <use xlink:href="#DejaVuSans-Bold-38" x="984.863281"/>
     <use xlink:href="#DejaVuSans-Bold-35" x="1054.443359"/>
     <use xlink:href="#DejaVuSans-Bold-38" x="1124.023438"/>
    </g>
   </g>
   <g id="PathCollection_1">
    <defs>
     <path id="m1d22b6fb60" d="M 0 3 
C 0.795609 3 1.55874 2.683901 2.12132 2.12132 
C 2.683901 1.55874 3 0.795609 3 0 
C 3 -0.795609 2.683901 -1.55874 2.12132 -2.12132 
C 1.55874 -2.683901 0.795609 -3 0 -3 
C -0.795609 -3 -1.55874 -2.683901 -2.12132 -2.12132 
C -2.683901 -1.55874 -3 -0.795609 -3 0 
C -3 0.795609 -2.683901 1.55874 -2.12132 2.12132 
C -1.55874 2.683901 -0.795609 3 0 3 
z
" style="stroke: #ffffff; stroke-width: 0.48"/>
    </defs>
    <g clip-path="url(#p1edcb63abc)">
     <use xlink:href="#m1d22b6fb60" x="135" y="111.21448" style="stroke: #ffffff; stroke-width: 0.48"/>
     <use xlink:href="#m1d22b6fb60" x="175.308342" y="99.634852" style="stroke: #ffffff; stroke-width: 0.48"/>
     <use xlink:href="#m1d22b6fb60" x="177.715969" y="75.76852" style="stroke: #ffffff; stroke-width: 0.48"/>
     <use xlink:href="#m1d22b6fb60" x="180.123597" y="111.770878" style="stroke: #ffffff; stroke-width: 0.48"/>
     <use xlink:href="#m1d22b6fb60" x="182.298228" y="135.188664" style="stroke: #ffffff; stroke-width: 0.48"/>
     <use xlink:href="#m1d22b6fb60" x="187.035817" y="123.741359" style="stroke: #ffffff; stroke-width: 0.48"/>
     <use xlink:href="#m1d22b6fb60" x="189.443444" y="120.776875" style="stroke: #ffffff; stroke-width: 0.48"/>
     <use xlink:href="#m1d22b6fb60" x="191.773406" y="99.152518" style="stroke: #ffffff; stroke-width: 0.48"/>
     <use xlink:href="#m1d22b6fb60" x="194.181034" y="70.792008" style="stroke: #ffffff; stroke-width: 0.48"/>
     <use xlink:href="#m1d22b6fb60" x="196.588661" y="97.419237" style="stroke: #ffffff; stroke-width: 0.48"/>
     <use xlink:href="#m1d22b6fb60" x="198.918623" y="88.291402" style="stroke: #ffffff; stroke-width: 0.48"/>
     <use xlink:href="#m1d22b6fb60" x="201.32625" y="58.937257" style="stroke: #ffffff; stroke-width: 0.48"/>
     <use xlink:href="#m1d22b6fb60" x="203.656212" y="62.132302" style="stroke: #ffffff; stroke-width: 0.48"/>
     <use xlink:href="#m1d22b6fb60" x="210.646098" y="86.261236" style="stroke: #ffffff; stroke-width: 0.48"/>
     <use xlink:href="#m1d22b6fb60" x="224.936532" y="133.348377" style="stroke: #ffffff; stroke-width: 0.48"/>
     <use xlink:href="#m1d22b6fb60" x="232.004083" y="113.615901" style="stroke: #ffffff; stroke-width: 0.48"/>
     <use xlink:href="#m1d22b6fb60" x="238.993969" y="124.845724" style="stroke: #ffffff; stroke-width: 0.48"/>
     <use xlink:href="#m1d22b6fb60" x="246.139185" y="81.519825" style="stroke: #ffffff; stroke-width: 0.48"/>
     <use xlink:href="#m1d22b6fb60" x="258.021991" y="87.717346" style="stroke: #ffffff; stroke-width: 0.48"/>
     <use xlink:href="#m1d22b6fb60" x="265.167208" y="55.8" style="stroke: #ffffff; stroke-width: 0.48"/>
     <use xlink:href="#m1d22b6fb60" x="272.157094" y="75.988959" style="stroke: #ffffff; stroke-width: 0.48"/>
     <use xlink:href="#m1d22b6fb60" x="279.30231" y="105.509025" style="stroke: #ffffff; stroke-width: 0.48"/>
     <use xlink:href="#m1d22b6fb60" x="286.447527" y="118.05632" style="stroke: #ffffff; stroke-width: 0.48"/>
     <use xlink:href="#m1d22b6fb60" x="300.504964" y="102.662701" style="stroke: #ffffff; stroke-width: 0.48"/>
     <use xlink:href="#m1d22b6fb60" x="307.650181" y="93.119462" style="stroke: #ffffff; stroke-width: 0.48"/>
     <use xlink:href="#m1d22b6fb60" x="314.795398" y="85.439513" style="stroke: #ffffff; stroke-width: 0.48"/>
     <use xlink:href="#m1d22b6fb60" x="321.940614" y="73.049306" style="stroke: #ffffff; stroke-width: 0.48"/>
     <use xlink:href="#m1d22b6fb60" x="328.852835" y="63.002353" style="stroke: #ffffff; stroke-width: 0.48"/>
     <use xlink:href="#m1d22b6fb60" x="333.590424" y="114.48535" style="stroke: #ffffff; stroke-width: 0.48"/>
     <use xlink:href="#m1d22b6fb60" x="350.288485" y="86.942845" style="stroke: #ffffff; stroke-width: 0.48"/>
     <use xlink:href="#m1d22b6fb60" x="359.608333" y="108.066293" style="stroke: #ffffff; stroke-width: 0.48"/>
     <use xlink:href="#m1d22b6fb60" x="364.345922" y="127.95556" style="stroke: #ffffff; stroke-width: 0.48"/>
     <use xlink:href="#m1d22b6fb60" x="371.491139" y="124.887907" style="stroke: #ffffff; stroke-width: 0.48"/>
     <use xlink:href="#m1d22b6fb60" x="378.636355" y="123.308395" style="stroke: #ffffff; stroke-width: 0.48"/>
     <use xlink:href="#m1d22b6fb60" x="385.626241" y="124.507704" style="stroke: #ffffff; stroke-width: 0.48"/>
     <use xlink:href="#m1d22b6fb60" x="392.771458" y="156.175388" style="stroke: #ffffff; stroke-width: 0.48"/>
     <use xlink:href="#m1d22b6fb60" x="399.916674" y="160.290702" style="stroke: #ffffff; stroke-width: 0.48"/>
     <use xlink:href="#m1d22b6fb60" x="413.974112" y="122.205436" style="stroke: #ffffff; stroke-width: 0.48"/>
     <use xlink:href="#m1d22b6fb60" x="421.119328" y="164.057141" style="stroke: #ffffff; stroke-width: 0.48"/>
     <use xlink:href="#m1d22b6fb60" x="428.264545" y="174.12476" style="stroke: #ffffff; stroke-width: 0.48"/>
     <use xlink:href="#m1d22b6fb60" x="435.409762" y="165.189935" style="stroke: #ffffff; stroke-width: 0.48"/>
     <use xlink:href="#m1d22b6fb60" x="442.321982" y="161.324443" style="stroke: #ffffff; stroke-width: 0.48"/>
     <use xlink:href="#m1d22b6fb60" x="444.729609" y="162.413033" style="stroke: #ffffff; stroke-width: 0.48"/>
     <use xlink:href="#m1d22b6fb60" x="449.467199" y="166.897538" style="stroke: #ffffff; stroke-width: 0.48"/>
     <use xlink:href="#m1d22b6fb60" x="456.612415" y="177.861898" style="stroke: #ffffff; stroke-width: 0.48"/>
     <use xlink:href="#m1d22b6fb60" x="463.757632" y="162.654767" style="stroke: #ffffff; stroke-width: 0.48"/>
     <use xlink:href="#m1d22b6fb60" x="470.669852" y="153.249102" style="stroke: #ffffff; stroke-width: 0.48"/>
     <use xlink:href="#m1d22b6fb60" x="477.815069" y="168.590762" style="stroke: #ffffff; stroke-width: 0.48"/>
     <use xlink:href="#m1d22b6fb60" x="484.960286" y="180.196214" style="stroke: #ffffff; stroke-width: 0.48"/>
     <use xlink:href="#m1d22b6fb60" x="492.105502" y="171.74315" style="stroke: #ffffff; stroke-width: 0.48"/>
     <use xlink:href="#m1d22b6fb60" x="499.095388" y="155.879358" style="stroke: #ffffff; stroke-width: 0.48"/>
     <use xlink:href="#m1d22b6fb60" x="513.385822" y="167.34021" style="stroke: #ffffff; stroke-width: 0.48"/>
     <use xlink:href="#m1d22b6fb60" x="520.531038" y="149.846295" style="stroke: #ffffff; stroke-width: 0.48"/>
     <use xlink:href="#m1d22b6fb60" x="527.443259" y="147.694812" style="stroke: #ffffff; stroke-width: 0.48"/>
     <use xlink:href="#m1d22b6fb60" x="534.588475" y="152.856378" style="stroke: #ffffff; stroke-width: 0.48"/>
     <use xlink:href="#m1d22b6fb60" x="541.733692" y="142.72975" style="stroke: #ffffff; stroke-width: 0.48"/>
     <use xlink:href="#m1d22b6fb60" x="548.878909" y="139.962095" style="stroke: #ffffff; stroke-width: 0.48"/>
     <use xlink:href="#m1d22b6fb60" x="555.791129" y="123.229862" style="stroke: #ffffff; stroke-width: 0.48"/>
     <use xlink:href="#m1d22b6fb60" x="560.528719" y="123.827307" style="stroke: #ffffff; stroke-width: 0.48"/>
     <use xlink:href="#m1d22b6fb60" x="570.081563" y="124.401458" style="stroke: #ffffff; stroke-width: 0.48"/>
     <use xlink:href="#m1d22b6fb60" x="577.226779" y="120.101722" style="stroke: #ffffff; stroke-width: 0.48"/>
     <use xlink:href="#m1d22b6fb60" x="581.809038" y="88.403381" style="stroke: #ffffff; stroke-width: 0.48"/>
     <use xlink:href="#m1d22b6fb60" x="591.284216" y="125.654007" style="stroke: #ffffff; stroke-width: 0.48"/>
     <use xlink:href="#m1d22b6fb60" x="598.429433" y="142.012156" style="stroke: #ffffff; stroke-width: 0.48"/>
     <use xlink:href="#m1d22b6fb60" x="605.57465" y="139.70028" style="stroke: #ffffff; stroke-width: 0.48"/>
     <use xlink:href="#m1d22b6fb60" x="612.564536" y="170.852251" style="stroke: #ffffff; stroke-width: 0.48"/>
     <use xlink:href="#m1d22b6fb60" x="617.302125" y="155.667625" style="stroke: #ffffff; stroke-width: 0.48"/>
     <use xlink:href="#m1d22b6fb60" x="619.709752" y="108.779578" style="stroke: #ffffff; stroke-width: 0.48"/>
     <use xlink:href="#m1d22b6fb60" x="622.11738" y="119.867481" style="stroke: #ffffff; stroke-width: 0.48"/>
     <use xlink:href="#m1d22b6fb60" x="624.447342" y="88.701199" style="stroke: #ffffff; stroke-width: 0.48"/>
     <use xlink:href="#m1d22b6fb60" x="626.854969" y="116.341152" style="stroke: #ffffff; stroke-width: 0.48"/>
     <use xlink:href="#m1d22b6fb60" x="631.592558" y="97.39945" style="stroke: #ffffff; stroke-width: 0.48"/>
     <use xlink:href="#m1d22b6fb60" x="634.000186" y="145.180207" style="stroke: #ffffff; stroke-width: 0.48"/>
     <use xlink:href="#m1d22b6fb60" x="636.174817" y="156.079284" style="stroke: #ffffff; stroke-width: 0.48"/>
     <use xlink:href="#m1d22b6fb60" x="638.582444" y="126.814436" style="stroke: #ffffff; stroke-width: 0.48"/>
     <use xlink:href="#m1d22b6fb60" x="640.912406" y="162.967123" style="stroke: #ffffff; stroke-width: 0.48"/>
     <use xlink:href="#m1d22b6fb60" x="643.320033" y="167.863976" style="stroke: #ffffff; stroke-width: 0.48"/>
     <use xlink:href="#m1d22b6fb60" x="645.649995" y="181.134591" style="stroke: #ffffff; stroke-width: 0.48"/>
     <use xlink:href="#m1d22b6fb60" x="652.795212" y="158.368772" style="stroke: #ffffff; stroke-width: 0.48"/>
     <use xlink:href="#m1d22b6fb60" x="655.202839" y="193.02914" style="stroke: #ffffff; stroke-width: 0.48"/>
     <use xlink:href="#m1d22b6fb60" x="657.532801" y="163.757294" style="stroke: #ffffff; stroke-width: 0.48"/>
     <use xlink:href="#m1d22b6fb60" x="659.940429" y="158.26726" style="stroke: #ffffff; stroke-width: 0.48"/>
     <use xlink:href="#m1d22b6fb60" x="662.348056" y="191.465473" style="stroke: #ffffff; stroke-width: 0.48"/>
     <use xlink:href="#m1d22b6fb60" x="664.522687" y="191.169018" style="stroke: #ffffff; stroke-width: 0.48"/>
     <use xlink:href="#m1d22b6fb60" x="666.930315" y="182.781432" style="stroke: #ffffff; stroke-width: 0.48"/>
     <use xlink:href="#m1d22b6fb60" x="669.260277" y="191.814483" style="stroke: #ffffff; stroke-width: 0.48"/>
     <use xlink:href="#m1d22b6fb60" x="671.667904" y="184.664573" style="stroke: #ffffff; stroke-width: 0.48"/>
     <use xlink:href="#m1d22b6fb60" x="673.997866" y="186.037194" style="stroke: #ffffff; stroke-width: 0.48"/>
     <use xlink:href="#m1d22b6fb60" x="676.405493" y="153.444262" style="stroke: #ffffff; stroke-width: 0.48"/>
     <use xlink:href="#m1d22b6fb60" x="678.813121" y="158.566762" style="stroke: #ffffff; stroke-width: 0.48"/>
     <use xlink:href="#m1d22b6fb60" x="681.143082" y="135.039175" style="stroke: #ffffff; stroke-width: 0.48"/>
     <use xlink:href="#m1d22b6fb60" x="683.55071" y="187.895555" style="stroke: #ffffff; stroke-width: 0.48"/>
     <use xlink:href="#m1d22b6fb60" x="685.880672" y="148.100942" style="stroke: #ffffff; stroke-width: 0.48"/>
     <use xlink:href="#m1d22b6fb60" x="688.288299" y="134.98969" style="stroke: #ffffff; stroke-width: 0.48"/>
     <use xlink:href="#m1d22b6fb60" x="690.695927" y="167.716681" style="stroke: #ffffff; stroke-width: 0.48"/>
     <use xlink:href="#m1d22b6fb60" x="692.870558" y="158.062705" style="stroke: #ffffff; stroke-width: 0.48"/>
     <use xlink:href="#m1d22b6fb60" x="695.278185" y="149.422144" style="stroke: #ffffff; stroke-width: 0.48"/>
     <use xlink:href="#m1d22b6fb60" x="700.015774" y="160.525745" style="stroke: #ffffff; stroke-width: 0.48"/>
     <use xlink:href="#m1d22b6fb60" x="702.345736" y="160.36036" style="stroke: #ffffff; stroke-width: 0.48"/>
     <use xlink:href="#m1d22b6fb60" x="704.753364" y="127.746824" style="stroke: #ffffff; stroke-width: 0.48"/>
     <use xlink:href="#m1d22b6fb60" x="711.89858" y="156.279104" style="stroke: #ffffff; stroke-width: 0.48"/>
     <use xlink:href="#m1d22b6fb60" x="719.043797" y="164.683584" style="stroke: #ffffff; stroke-width: 0.48"/>
     <use xlink:href="#m1d22b6fb60" x="723.703721" y="149.972754" style="stroke: #ffffff; stroke-width: 0.48"/>
     <use xlink:href="#m1d22b6fb60" x="726.033683" y="176.789959" style="stroke: #ffffff; stroke-width: 0.48"/>
     <use xlink:href="#m1d22b6fb60" x="728.44131" y="176.253642" style="stroke: #ffffff; stroke-width: 0.48"/>
     <use xlink:href="#m1d22b6fb60" x="730.771272" y="194.38335" style="stroke: #ffffff; stroke-width: 0.48"/>
     <use xlink:href="#m1d22b6fb60" x="733.1789" y="205.259574" style="stroke: #ffffff; stroke-width: 0.48"/>
     <use xlink:href="#m1d22b6fb60" x="735.586527" y="192.326043" style="stroke: #ffffff; stroke-width: 0.48"/>
     <use xlink:href="#m1d22b6fb60" x="737.916489" y="184.18735" style="stroke: #ffffff; stroke-width: 0.48"/>
     <use xlink:href="#m1d22b6fb60" x="740.324116" y="217.909798" style="stroke: #ffffff; stroke-width: 0.48"/>
     <use xlink:href="#m1d22b6fb60" x="742.654078" y="168.243934" style="stroke: #ffffff; stroke-width: 0.48"/>
     <use xlink:href="#m1d22b6fb60" x="745.061705" y="188.270344" style="stroke: #ffffff; stroke-width: 0.48"/>
     <use xlink:href="#m1d22b6fb60" x="747.469333" y="219.88714" style="stroke: #ffffff; stroke-width: 0.48"/>
     <use xlink:href="#m1d22b6fb60" x="749.643964" y="214.912543" style="stroke: #ffffff; stroke-width: 0.48"/>
     <use xlink:href="#m1d22b6fb60" x="752.051591" y="207.91574" style="stroke: #ffffff; stroke-width: 0.48"/>
     <use xlink:href="#m1d22b6fb60" x="754.381553" y="227.376365" style="stroke: #ffffff; stroke-width: 0.48"/>
     <use xlink:href="#m1d22b6fb60" x="756.789181" y="228.658938" style="stroke: #ffffff; stroke-width: 0.48"/>
     <use xlink:href="#m1d22b6fb60" x="759.119143" y="226.515977" style="stroke: #ffffff; stroke-width: 0.48"/>
     <use xlink:href="#m1d22b6fb60" x="763.934397" y="217.997775" style="stroke: #ffffff; stroke-width: 0.48"/>
     <use xlink:href="#m1d22b6fb60" x="766.264359" y="227.752346" style="stroke: #ffffff; stroke-width: 0.48"/>
     <use xlink:href="#m1d22b6fb60" x="771.001949" y="221.284215" style="stroke: #ffffff; stroke-width: 0.48"/>
     <use xlink:href="#m1d22b6fb60" x="773.409576" y="230.335627" style="stroke: #ffffff; stroke-width: 0.48"/>
     <use xlink:href="#m1d22b6fb60" x="775.817203" y="249.952025" style="stroke: #ffffff; stroke-width: 0.48"/>
     <use xlink:href="#m1d22b6fb60" x="777.991834" y="241.005747" style="stroke: #ffffff; stroke-width: 0.48"/>
     <use xlink:href="#m1d22b6fb60" x="780.399462" y="210.451972" style="stroke: #ffffff; stroke-width: 0.48"/>
     <use xlink:href="#m1d22b6fb60" x="782.729424" y="226.696455" style="stroke: #ffffff; stroke-width: 0.48"/>
     <use xlink:href="#m1d22b6fb60" x="785.137051" y="224.364818" style="stroke: #ffffff; stroke-width: 0.48"/>
     <use xlink:href="#m1d22b6fb60" x="787.467013" y="222.166111" style="stroke: #ffffff; stroke-width: 0.48"/>
     <use xlink:href="#m1d22b6fb60" x="789.87464" y="210.180571" style="stroke: #ffffff; stroke-width: 0.48"/>
     <use xlink:href="#m1d22b6fb60" x="792.282268" y="204.299555" style="stroke: #ffffff; stroke-width: 0.48"/>
     <use xlink:href="#m1d22b6fb60" x="794.61223" y="192.089477" style="stroke: #ffffff; stroke-width: 0.48"/>
     <use xlink:href="#m1d22b6fb60" x="797.019857" y="223.611452" style="stroke: #ffffff; stroke-width: 0.48"/>
     <use xlink:href="#m1d22b6fb60" x="799.349819" y="199.08539" style="stroke: #ffffff; stroke-width: 0.48"/>
     <use xlink:href="#m1d22b6fb60" x="801.757446" y="195.676366" style="stroke: #ffffff; stroke-width: 0.48"/>
     <use xlink:href="#m1d22b6fb60" x="804.165074" y="227.387339" style="stroke: #ffffff; stroke-width: 0.48"/>
     <use xlink:href="#m1d22b6fb60" x="806.339705" y="221.147419" style="stroke: #ffffff; stroke-width: 0.48"/>
     <use xlink:href="#m1d22b6fb60" x="808.747332" y="242.427865" style="stroke: #ffffff; stroke-width: 0.48"/>
     <use xlink:href="#m1d22b6fb60" x="811.077294" y="289.103418" style="stroke: #ffffff; stroke-width: 0.48"/>
     <use xlink:href="#m1d22b6fb60" x="813.484922" y="254.914565" style="stroke: #ffffff; stroke-width: 0.48"/>
     <use xlink:href="#m1d22b6fb60" x="815.814884" y="287.090813" style="stroke: #ffffff; stroke-width: 0.48"/>
     <use xlink:href="#m1d22b6fb60" x="818.222511" y="279.083118" style="stroke: #ffffff; stroke-width: 0.48"/>
     <use xlink:href="#m1d22b6fb60" x="820.630138" y="234.155547" style="stroke: #ffffff; stroke-width: 0.48"/>
     <use xlink:href="#m1d22b6fb60" x="822.9601" y="227.752346" style="stroke: #ffffff; stroke-width: 0.48"/>
     <use xlink:href="#m1d22b6fb60" x="825.367728" y="258.351003" style="stroke: #ffffff; stroke-width: 0.48"/>
     <use xlink:href="#m1d22b6fb60" x="827.69769" y="216.261309" style="stroke: #ffffff; stroke-width: 0.48"/>
     <use xlink:href="#m1d22b6fb60" x="830.105317" y="202.929222" style="stroke: #ffffff; stroke-width: 0.48"/>
     <use xlink:href="#m1d22b6fb60" x="832.512944" y="264.385752" style="stroke: #ffffff; stroke-width: 0.48"/>
     <use xlink:href="#m1d22b6fb60" x="839.50283" y="248.776801" style="stroke: #ffffff; stroke-width: 0.48"/>
     <use xlink:href="#m1d22b6fb60" x="846.648047" y="240.964067" style="stroke: #ffffff; stroke-width: 0.48"/>
     <use xlink:href="#m1d22b6fb60" x="853.793263" y="266.23325" style="stroke: #ffffff; stroke-width: 0.48"/>
     <use xlink:href="#m1d22b6fb60" x="856.123225" y="230.780716" style="stroke: #ffffff; stroke-width: 0.48"/>
     <use xlink:href="#m1d22b6fb60" x="860.93848" y="262.082018" style="stroke: #ffffff; stroke-width: 0.48"/>
     <use xlink:href="#m1d22b6fb60" x="867.850701" y="249.255491" style="stroke: #ffffff; stroke-width: 0.48"/>
     <use xlink:href="#m1d22b6fb60" x="874.995917" y="307.8" style="stroke: #ffffff; stroke-width: 0.48"/>
     <use xlink:href="#m1d22b6fb60" x="882.141134" y="241.220698" style="stroke: #ffffff; stroke-width: 0.48"/>
     <use xlink:href="#m1d22b6fb60" x="889.286351" y="239.84122" style="stroke: #ffffff; stroke-width: 0.48"/>
     <use xlink:href="#m1d22b6fb60" x="896.198571" y="230.105762" style="stroke: #ffffff; stroke-width: 0.48"/>
     <use xlink:href="#m1d22b6fb60" x="903.343788" y="226.046065" style="stroke: #ffffff; stroke-width: 0.48"/>
     <use xlink:href="#m1d22b6fb60" x="917.634221" y="221.428923" style="stroke: #ffffff; stroke-width: 0.48"/>
     <use xlink:href="#m1d22b6fb60" x="924.546441" y="230.56224" style="stroke: #ffffff; stroke-width: 0.48"/>
     <use xlink:href="#m1d22b6fb60" x="931.691658" y="201.140364" style="stroke: #ffffff; stroke-width: 0.48"/>
     <use xlink:href="#m1d22b6fb60" x="938.836875" y="223.849823" style="stroke: #ffffff; stroke-width: 0.48"/>
     <use xlink:href="#m1d22b6fb60" x="945.982091" y="224.786894" style="stroke: #ffffff; stroke-width: 0.48"/>
     <use xlink:href="#m1d22b6fb60" x="960.117194" y="225.884101" style="stroke: #ffffff; stroke-width: 0.48"/>
     <use xlink:href="#m1d22b6fb60" x="964.854783" y="214.677035" style="stroke: #ffffff; stroke-width: 0.48"/>
     <use xlink:href="#m1d22b6fb60" x="967.262411" y="255.081491" style="stroke: #ffffff; stroke-width: 0.48"/>
     <use xlink:href="#m1d22b6fb60" x="969.592373" y="225.15408" style="stroke: #ffffff; stroke-width: 0.48"/>
     <use xlink:href="#m1d22b6fb60" x="972" y="230.984982" style="stroke: #ffffff; stroke-width: 0.48"/>
    </g>
   </g>
  </g>
 </g>
 <defs>
  <clipPath id="p1edcb63abc">
   <rect x="135" y="43.2" width="837" height="277.2"/>
  </clipPath>
 </defs>
</svg>
