<?xml version="1.0" encoding="utf-8" standalone="no"?>
<!DOCTYPE svg PUBLIC "-//W3C//DTD SVG 1.1//EN"
  "http://www.w3.org/Graphics/SVG/1.1/DTD/svg11.dtd">
<svg xmlns:xlink="http://www.w3.org/1999/xlink" width="1080pt" height="360pt" viewBox="0 0 1080 360" xmlns="http://www.w3.org/2000/svg" version="1.1">
 <metadata>
  <rdf:RDF xmlns:dc="http://purl.org/dc/elements/1.1/" xmlns:cc="http://creativecommons.org/ns#" xmlns:rdf="http://www.w3.org/1999/02/22-rdf-syntax-ns#">
   <cc:Work>
    <dc:type rdf:resource="http://purl.org/dc/dcmitype/StillImage"/>
    <dc:date>2024-01-23T18:50:25.373901</dc:date>
    <dc:format>image/svg+xml</dc:format>
    <dc:creator>
     <cc:Agent>
      <dc:title>Matplotlib v3.8.2, https://matplotlib.org/</dc:title>
     </cc:Agent>
    </dc:creator>
   </cc:Work>
  </rdf:RDF>
 </metadata>
 <defs>
  <style type="text/css">*{stroke-linejoin: round; stroke-linecap: butt}</style>
 </defs>
 <g id="figure_1">
  <g id="patch_1">
   <path d="M 0 360 
L 1080 360 
L 1080 0 
L 0 0 
z
" style="fill: #ffffff"/>
  </g>
  <g id="axes_1">
   <g id="patch_2">
    <path d="M 135 320.4 
L 972 320.4 
L 972 43.2 
L 135 43.2 
z
" style="fill: #ffffff"/>
   </g>
   <g id="PolyCollection_1"/>
   <g id="matplotlib.axis_1">
    <g id="xtick_1">
     <g id="line2d_1">
      <defs>
       <path id="mf59ee302a6" d="M 0 0 
L 0 3.5 
" style="stroke: #000000; stroke-width: 0.8"/>
      </defs>
      <g>
       <use xlink:href="#mf59ee302a6" x="160.660749" y="320.4" style="stroke: #000000; stroke-width: 0.8"/>
      </g>
     </g>
     <g id="text_1">
      <!-- 1992 -->
      <g transform="translate(147.935749 334.998438) scale(0.1 -0.1)">
       <defs>
        <path id="DejaVuSans-31" d="M 794 531 
L 1825 531 
L 1825 4091 
L 703 3866 
L 703 4441 
L 1819 4666 
L 2450 4666 
L 2450 531 
L 3481 531 
L 3481 0 
L 794 0 
L 794 531 
z
" transform="scale(0.015625)"/>
        <path id="DejaVuSans-39" d="M 703 97 
L 703 672 
Q 941 559 1184 500 
Q 1428 441 1663 441 
Q 2288 441 2617 861 
Q 2947 1281 2994 2138 
Q 2813 1869 2534 1725 
Q 2256 1581 1919 1581 
Q 1219 1581 811 2004 
Q 403 2428 403 3163 
Q 403 3881 828 4315 
Q 1253 4750 1959 4750 
Q 2769 4750 3195 4129 
Q 3622 3509 3622 2328 
Q 3622 1225 3098 567 
Q 2575 -91 1691 -91 
Q 1453 -91 1209 -44 
Q 966 3 703 97 
z
M 1959 2075 
Q 2384 2075 2632 2365 
Q 2881 2656 2881 3163 
Q 2881 3666 2632 3958 
Q 2384 4250 1959 4250 
Q 1534 4250 1286 3958 
Q 1038 3666 1038 3163 
Q 1038 2656 1286 2365 
Q 1534 2075 1959 2075 
z
" transform="scale(0.015625)"/>
        <path id="DejaVuSans-32" d="M 1228 531 
L 3431 531 
L 3431 0 
L 469 0 
L 469 531 
Q 828 903 1448 1529 
Q 2069 2156 2228 2338 
Q 2531 2678 2651 2914 
Q 2772 3150 2772 3378 
Q 2772 3750 2511 3984 
Q 2250 4219 1831 4219 
Q 1534 4219 1204 4116 
Q 875 4013 500 3803 
L 500 4441 
Q 881 4594 1212 4672 
Q 1544 4750 1819 4750 
Q 2544 4750 2975 4387 
Q 3406 4025 3406 3419 
Q 3406 3131 3298 2873 
Q 3191 2616 2906 2266 
Q 2828 2175 2409 1742 
Q 1991 1309 1228 531 
z
" transform="scale(0.015625)"/>
       </defs>
       <use xlink:href="#DejaVuSans-31"/>
       <use xlink:href="#DejaVuSans-39" x="63.623047"/>
       <use xlink:href="#DejaVuSans-39" x="127.246094"/>
       <use xlink:href="#DejaVuSans-32" x="190.869141"/>
      </g>
     </g>
    </g>
    <g id="xtick_2">
     <g id="line2d_2">
      <g>
       <use xlink:href="#mf59ee302a6" x="272.572252" y="320.4" style="stroke: #000000; stroke-width: 0.8"/>
      </g>
     </g>
     <g id="text_2">
      <!-- 1996 -->
      <g transform="translate(259.847252 334.998438) scale(0.1 -0.1)">
       <defs>
        <path id="DejaVuSans-36" d="M 2113 2584 
Q 1688 2584 1439 2293 
Q 1191 2003 1191 1497 
Q 1191 994 1439 701 
Q 1688 409 2113 409 
Q 2538 409 2786 701 
Q 3034 994 3034 1497 
Q 3034 2003 2786 2293 
Q 2538 2584 2113 2584 
z
M 3366 4563 
L 3366 3988 
Q 3128 4100 2886 4159 
Q 2644 4219 2406 4219 
Q 1781 4219 1451 3797 
Q 1122 3375 1075 2522 
Q 1259 2794 1537 2939 
Q 1816 3084 2150 3084 
Q 2853 3084 3261 2657 
Q 3669 2231 3669 1497 
Q 3669 778 3244 343 
Q 2819 -91 2113 -91 
Q 1303 -91 875 529 
Q 447 1150 447 2328 
Q 447 3434 972 4092 
Q 1497 4750 2381 4750 
Q 2619 4750 2861 4703 
Q 3103 4656 3366 4563 
z
" transform="scale(0.015625)"/>
       </defs>
       <use xlink:href="#DejaVuSans-31"/>
       <use xlink:href="#DejaVuSans-39" x="63.623047"/>
       <use xlink:href="#DejaVuSans-39" x="127.246094"/>
       <use xlink:href="#DejaVuSans-36" x="190.869141"/>
      </g>
     </g>
    </g>
    <g id="xtick_3">
     <g id="line2d_3">
      <g>
       <use xlink:href="#mf59ee302a6" x="384.483756" y="320.4" style="stroke: #000000; stroke-width: 0.8"/>
      </g>
     </g>
     <g id="text_3">
      <!-- 2000 -->
      <g transform="translate(371.758756 334.998438) scale(0.1 -0.1)">
       <defs>
        <path id="DejaVuSans-30" d="M 2034 4250 
Q 1547 4250 1301 3770 
Q 1056 3291 1056 2328 
Q 1056 1369 1301 889 
Q 1547 409 2034 409 
Q 2525 409 2770 889 
Q 3016 1369 3016 2328 
Q 3016 3291 2770 3770 
Q 2525 4250 2034 4250 
z
M 2034 4750 
Q 2819 4750 3233 4129 
Q 3647 3509 3647 2328 
Q 3647 1150 3233 529 
Q 2819 -91 2034 -91 
Q 1250 -91 836 529 
Q 422 1150 422 2328 
Q 422 3509 836 4129 
Q 1250 4750 2034 4750 
z
" transform="scale(0.015625)"/>
       </defs>
       <use xlink:href="#DejaVuSans-32"/>
       <use xlink:href="#DejaVuSans-30" x="63.623047"/>
       <use xlink:href="#DejaVuSans-30" x="127.246094"/>
       <use xlink:href="#DejaVuSans-30" x="190.869141"/>
      </g>
     </g>
    </g>
    <g id="xtick_4">
     <g id="line2d_4">
      <g>
       <use xlink:href="#mf59ee302a6" x="496.395259" y="320.4" style="stroke: #000000; stroke-width: 0.8"/>
      </g>
     </g>
     <g id="text_4">
      <!-- 2004 -->
      <g transform="translate(483.670259 334.998438) scale(0.1 -0.1)">
       <defs>
        <path id="DejaVuSans-34" d="M 2419 4116 
L 825 1625 
L 2419 1625 
L 2419 4116 
z
M 2253 4666 
L 3047 4666 
L 3047 1625 
L 3713 1625 
L 3713 1100 
L 3047 1100 
L 3047 0 
L 2419 0 
L 2419 1100 
L 313 1100 
L 313 1709 
L 2253 4666 
z
" transform="scale(0.015625)"/>
       </defs>
       <use xlink:href="#DejaVuSans-32"/>
       <use xlink:href="#DejaVuSans-30" x="63.623047"/>
       <use xlink:href="#DejaVuSans-30" x="127.246094"/>
       <use xlink:href="#DejaVuSans-34" x="190.869141"/>
      </g>
     </g>
    </g>
    <g id="xtick_5">
     <g id="line2d_5">
      <g>
       <use xlink:href="#mf59ee302a6" x="608.306763" y="320.4" style="stroke: #000000; stroke-width: 0.8"/>
      </g>
     </g>
     <g id="text_5">
      <!-- 2008 -->
      <g transform="translate(595.581763 334.998438) scale(0.1 -0.1)">
       <defs>
        <path id="DejaVuSans-38" d="M 2034 2216 
Q 1584 2216 1326 1975 
Q 1069 1734 1069 1313 
Q 1069 891 1326 650 
Q 1584 409 2034 409 
Q 2484 409 2743 651 
Q 3003 894 3003 1313 
Q 3003 1734 2745 1975 
Q 2488 2216 2034 2216 
z
M 1403 2484 
Q 997 2584 770 2862 
Q 544 3141 544 3541 
Q 544 4100 942 4425 
Q 1341 4750 2034 4750 
Q 2731 4750 3128 4425 
Q 3525 4100 3525 3541 
Q 3525 3141 3298 2862 
Q 3072 2584 2669 2484 
Q 3125 2378 3379 2068 
Q 3634 1759 3634 1313 
Q 3634 634 3220 271 
Q 2806 -91 2034 -91 
Q 1263 -91 848 271 
Q 434 634 434 1313 
Q 434 1759 690 2068 
Q 947 2378 1403 2484 
z
M 1172 3481 
Q 1172 3119 1398 2916 
Q 1625 2713 2034 2713 
Q 2441 2713 2670 2916 
Q 2900 3119 2900 3481 
Q 2900 3844 2670 4047 
Q 2441 4250 2034 4250 
Q 1625 4250 1398 4047 
Q 1172 3844 1172 3481 
z
" transform="scale(0.015625)"/>
       </defs>
       <use xlink:href="#DejaVuSans-32"/>
       <use xlink:href="#DejaVuSans-30" x="63.623047"/>
       <use xlink:href="#DejaVuSans-30" x="127.246094"/>
       <use xlink:href="#DejaVuSans-38" x="190.869141"/>
      </g>
     </g>
    </g>
    <g id="xtick_6">
     <g id="line2d_6">
      <g>
       <use xlink:href="#mf59ee302a6" x="720.218267" y="320.4" style="stroke: #000000; stroke-width: 0.8"/>
      </g>
     </g>
     <g id="text_6">
      <!-- 2012 -->
      <g transform="translate(707.493267 334.998438) scale(0.1 -0.1)">
       <use xlink:href="#DejaVuSans-32"/>
       <use xlink:href="#DejaVuSans-30" x="63.623047"/>
       <use xlink:href="#DejaVuSans-31" x="127.246094"/>
       <use xlink:href="#DejaVuSans-32" x="190.869141"/>
      </g>
     </g>
    </g>
    <g id="xtick_7">
     <g id="line2d_7">
      <g>
       <use xlink:href="#mf59ee302a6" x="832.12977" y="320.4" style="stroke: #000000; stroke-width: 0.8"/>
      </g>
     </g>
     <g id="text_7">
      <!-- 2016 -->
      <g transform="translate(819.40477 334.998438) scale(0.1 -0.1)">
       <use xlink:href="#DejaVuSans-32"/>
       <use xlink:href="#DejaVuSans-30" x="63.623047"/>
       <use xlink:href="#DejaVuSans-31" x="127.246094"/>
       <use xlink:href="#DejaVuSans-36" x="190.869141"/>
      </g>
     </g>
    </g>
    <g id="xtick_8">
     <g id="line2d_8">
      <g>
       <use xlink:href="#mf59ee302a6" x="944.041274" y="320.4" style="stroke: #000000; stroke-width: 0.8"/>
      </g>
     </g>
     <g id="text_8">
      <!-- 2020 -->
      <g transform="translate(931.316274 334.998438) scale(0.1 -0.1)">
       <use xlink:href="#DejaVuSans-32"/>
       <use xlink:href="#DejaVuSans-30" x="63.623047"/>
       <use xlink:href="#DejaVuSans-32" x="127.246094"/>
       <use xlink:href="#DejaVuSans-30" x="190.869141"/>
      </g>
     </g>
    </g>
   </g>
   <g id="matplotlib.axis_2">
    <g id="ytick_1">
     <g id="line2d_9">
      <defs>
       <path id="m0ffb389189" d="M 0 0 
L -3.5 0 
" style="stroke: #000000; stroke-width: 0.8"/>
      </defs>
      <g>
       <use xlink:href="#m0ffb389189" x="135" y="288.654281" style="stroke: #000000; stroke-width: 0.8"/>
      </g>
     </g>
     <g id="text_9">
      <!-- −1.5 -->
      <g transform="translate(103.717187 292.453499) scale(0.1 -0.1)">
       <defs>
        <path id="DejaVuSans-2212" d="M 678 2272 
L 4684 2272 
L 4684 1741 
L 678 1741 
L 678 2272 
z
" transform="scale(0.015625)"/>
        <path id="DejaVuSans-2e" d="M 684 794 
L 1344 794 
L 1344 0 
L 684 0 
L 684 794 
z
" transform="scale(0.015625)"/>
        <path id="DejaVuSans-35" d="M 691 4666 
L 3169 4666 
L 3169 4134 
L 1269 4134 
L 1269 2991 
Q 1406 3038 1543 3061 
Q 1681 3084 1819 3084 
Q 2600 3084 3056 2656 
Q 3513 2228 3513 1497 
Q 3513 744 3044 326 
Q 2575 -91 1722 -91 
Q 1428 -91 1123 -41 
Q 819 9 494 109 
L 494 744 
Q 775 591 1075 516 
Q 1375 441 1709 441 
Q 2250 441 2565 725 
Q 2881 1009 2881 1497 
Q 2881 1984 2565 2268 
Q 2250 2553 1709 2553 
Q 1456 2553 1204 2497 
Q 953 2441 691 2322 
L 691 4666 
z
" transform="scale(0.015625)"/>
       </defs>
       <use xlink:href="#DejaVuSans-2212"/>
       <use xlink:href="#DejaVuSans-31" x="83.789062"/>
       <use xlink:href="#DejaVuSans-2e" x="147.412109"/>
       <use xlink:href="#DejaVuSans-35" x="179.199219"/>
      </g>
     </g>
    </g>
    <g id="ytick_2">
     <g id="line2d_10">
      <g>
       <use xlink:href="#m0ffb389189" x="135" y="254.78585" style="stroke: #000000; stroke-width: 0.8"/>
      </g>
     </g>
     <g id="text_10">
      <!-- −1.0 -->
      <g transform="translate(103.717187 258.585069) scale(0.1 -0.1)">
       <use xlink:href="#DejaVuSans-2212"/>
       <use xlink:href="#DejaVuSans-31" x="83.789062"/>
       <use xlink:href="#DejaVuSans-2e" x="147.412109"/>
       <use xlink:href="#DejaVuSans-30" x="179.199219"/>
      </g>
     </g>
    </g>
    <g id="ytick_3">
     <g id="line2d_11">
      <g>
       <use xlink:href="#m0ffb389189" x="135" y="220.91742" style="stroke: #000000; stroke-width: 0.8"/>
      </g>
     </g>
     <g id="text_11">
      <!-- −0.5 -->
      <g transform="translate(103.717187 224.716638) scale(0.1 -0.1)">
       <use xlink:href="#DejaVuSans-2212"/>
       <use xlink:href="#DejaVuSans-30" x="83.789062"/>
       <use xlink:href="#DejaVuSans-2e" x="147.412109"/>
       <use xlink:href="#DejaVuSans-35" x="179.199219"/>
      </g>
     </g>
    </g>
    <g id="ytick_4">
     <g id="line2d_12">
      <g>
       <use xlink:href="#m0ffb389189" x="135" y="187.048989" style="stroke: #000000; stroke-width: 0.8"/>
      </g>
     </g>
     <g id="text_12">
      <!-- 0.0 -->
      <g transform="translate(112.096875 190.848208) scale(0.1 -0.1)">
       <use xlink:href="#DejaVuSans-30"/>
       <use xlink:href="#DejaVuSans-2e" x="63.623047"/>
       <use xlink:href="#DejaVuSans-30" x="95.410156"/>
      </g>
     </g>
    </g>
    <g id="ytick_5">
     <g id="line2d_13">
      <g>
       <use xlink:href="#m0ffb389189" x="135" y="153.180559" style="stroke: #000000; stroke-width: 0.8"/>
      </g>
     </g>
     <g id="text_13">
      <!-- 0.5 -->
      <g transform="translate(112.096875 156.979778) scale(0.1 -0.1)">
       <use xlink:href="#DejaVuSans-30"/>
       <use xlink:href="#DejaVuSans-2e" x="63.623047"/>
       <use xlink:href="#DejaVuSans-35" x="95.410156"/>
      </g>
     </g>
    </g>
    <g id="ytick_6">
     <g id="line2d_14">
      <g>
       <use xlink:href="#m0ffb389189" x="135" y="119.312128" style="stroke: #000000; stroke-width: 0.8"/>
      </g>
     </g>
     <g id="text_14">
      <!-- 1.0 -->
      <g transform="translate(112.096875 123.111347) scale(0.1 -0.1)">
       <use xlink:href="#DejaVuSans-31"/>
       <use xlink:href="#DejaVuSans-2e" x="63.623047"/>
       <use xlink:href="#DejaVuSans-30" x="95.410156"/>
      </g>
     </g>
    </g>
    <g id="ytick_7">
     <g id="line2d_15">
      <g>
       <use xlink:href="#m0ffb389189" x="135" y="85.443698" style="stroke: #000000; stroke-width: 0.8"/>
      </g>
     </g>
     <g id="text_15">
      <!-- 1.5 -->
      <g transform="translate(112.096875 89.242917) scale(0.1 -0.1)">
       <use xlink:href="#DejaVuSans-31"/>
       <use xlink:href="#DejaVuSans-2e" x="63.623047"/>
       <use xlink:href="#DejaVuSans-35" x="95.410156"/>
      </g>
     </g>
    </g>
    <g id="ytick_8">
     <g id="line2d_16">
      <g>
       <use xlink:href="#m0ffb389189" x="135" y="51.575267" style="stroke: #000000; stroke-width: 0.8"/>
      </g>
     </g>
     <g id="text_16">
      <!-- 2.0 -->
      <g transform="translate(112.096875 55.374486) scale(0.1 -0.1)">
       <use xlink:href="#DejaVuSans-32"/>
       <use xlink:href="#DejaVuSans-2e" x="63.623047"/>
       <use xlink:href="#DejaVuSans-30" x="95.410156"/>
      </g>
     </g>
    </g>
    <g id="text_17">
     <!-- SGI -->
     <g transform="translate(97.6375 190.323437) rotate(-90) scale(0.1 -0.1)">
      <defs>
       <path id="DejaVuSans-53" d="M 3425 4513 
L 3425 3897 
Q 3066 4069 2747 4153 
Q 2428 4238 2131 4238 
Q 1616 4238 1336 4038 
Q 1056 3838 1056 3469 
Q 1056 3159 1242 3001 
Q 1428 2844 1947 2747 
L 2328 2669 
Q 3034 2534 3370 2195 
Q 3706 1856 3706 1288 
Q 3706 609 3251 259 
Q 2797 -91 1919 -91 
Q 1588 -91 1214 -16 
Q 841 59 441 206 
L 441 856 
Q 825 641 1194 531 
Q 1563 422 1919 422 
Q 2459 422 2753 634 
Q 3047 847 3047 1241 
Q 3047 1584 2836 1778 
Q 2625 1972 2144 2069 
L 1759 2144 
Q 1053 2284 737 2584 
Q 422 2884 422 3419 
Q 422 4038 858 4394 
Q 1294 4750 2059 4750 
Q 2388 4750 2728 4690 
Q 3069 4631 3425 4513 
z
" transform="scale(0.015625)"/>
       <path id="DejaVuSans-47" d="M 3809 666 
L 3809 1919 
L 2778 1919 
L 2778 2438 
L 4434 2438 
L 4434 434 
Q 4069 175 3628 42 
Q 3188 -91 2688 -91 
Q 1594 -91 976 548 
Q 359 1188 359 2328 
Q 359 3472 976 4111 
Q 1594 4750 2688 4750 
Q 3144 4750 3555 4637 
Q 3966 4525 4313 4306 
L 4313 3634 
Q 3963 3931 3569 4081 
Q 3175 4231 2741 4231 
Q 1884 4231 1454 3753 
Q 1025 3275 1025 2328 
Q 1025 1384 1454 906 
Q 1884 428 2741 428 
Q 3075 428 3337 486 
Q 3600 544 3809 666 
z
" transform="scale(0.015625)"/>
       <path id="DejaVuSans-49" d="M 628 4666 
L 1259 4666 
L 1259 0 
L 628 0 
L 628 4666 
z
" transform="scale(0.015625)"/>
      </defs>
      <use xlink:href="#DejaVuSans-53"/>
      <use xlink:href="#DejaVuSans-47" x="63.476562"/>
      <use xlink:href="#DejaVuSans-49" x="140.966797"/>
     </g>
    </g>
   </g>
   <g id="line2d_17">
    <path d="M 148.864464 185.146672 
L 158.209573 217.143684 
L 172.227235 188.031848 
L 186.244898 162.771809 
L 193.13883 203.488047 
L 200.185961 110.910619 
L 214.203624 72.993069 
L 242.16235 175.873385 
L 249.056283 158.015448 
L 258.401391 187.239634 
L 267.823099 57.248361 
L 274.87023 63.72982 
L 281.764162 91.235704 
L 288.811293 55.8 
L 295.858424 122.652443 
L 305.050334 73.541753 
L 309.722888 104.138306 
L 316.770019 88.55159 
L 323.81715 96.935909 
L 330.864281 99.976388 
L 337.681614 97.354725 
L 344.728745 132.985288 
L 358.823007 117.317222 
L 365.64034 117.661358 
L 372.687471 121.740765 
L 379.734602 160.580067 
L 386.781733 148.304179 
L 396.050243 107.30292 
L 400.722797 197.71917 
L 407.769928 187.441613 
L 428.681523 171.1977 
L 435.728654 187.243228 
L 442.775785 197.21367 
L 449.593118 198.100516 
L 491.646106 226.416142 
L 505.587169 254.985699 
L 510.259724 246.820249 
L 512.6343 274.065731 
L 519.681431 243.061665 
L 526.728562 241.739101 
L 533.545895 258.200648 
L 540.593026 307.8 
L 547.640157 263.423529 
L 554.687288 248.059545 
L 561.504622 251.144314 
L 566.177176 276.250768 
L 575.598883 254.435861 
L 582.646014 283.343226 
L 587.16537 285.171726 
L 603.55761 269.434439 
L 610.604741 243.295149 
L 617.498673 254.765051 
L 619.87325 296.875038 
L 622.171227 240.345023 
L 624.545804 282.739549 
L 626.920381 238.275249 
L 629.218358 213.73386 
L 631.592935 160.345021 
L 636.265489 139.312243 
L 638.640066 184.200511 
L 640.784845 202.782763 
L 643.159422 205.974409 
L 645.457399 194.106717 
L 647.831976 221.208044 
L 650.129953 193.927089 
L 652.50453 233.97281 
L 654.879107 193.901654 
L 657.177084 141.138485 
L 659.551661 181.93367 
L 661.849639 198.448781 
L 664.224215 199.996654 
L 666.598792 188.6631 
L 668.743571 202.077694 
L 671.118148 204.742397 
L 673.416125 190.622276 
L 675.790702 217.418447 
L 678.088679 194.977826 
L 682.837833 188.293952 
L 685.13581 153.065389 
L 687.510387 138.505294 
L 689.808365 160.060619 
L 692.182941 163.898365 
L 694.557518 163.677307 
L 696.702297 162.576886 
L 699.076874 164.77786 
L 703.749428 175.313011 
L 706.047406 180.026283 
L 708.421982 197.345755 
L 715.469113 168.355876 
L 722.516244 166.869611 
L 727.112199 168.918369 
L 729.410177 169.130259 
L 731.784753 178.907339 
L 734.082731 148.166816 
L 736.457308 226.239634 
L 738.831884 241.543619 
L 741.129862 257.492847 
L 743.504439 233.782826 
L 745.802416 252.012462 
L 748.176993 246.957447 
L 750.55157 222.700401 
L 752.696348 251.804754 
L 755.070925 240.98732 
L 757.368903 223.312947 
L 759.743479 256.198288 
L 762.041457 196.757842 
L 764.416034 196.037958 
L 766.79061 233.297199 
L 769.088588 275.031148 
L 771.463165 238.029984 
L 773.761142 263.26657 
L 776.135719 263.028969 
L 778.510296 235.624252 
L 780.655075 273.501959 
L 783.029651 261.551204 
L 785.327629 236.616713 
L 787.702206 264.636183 
L 790.000183 217.358558 
L 792.37476 197.159001 
L 794.749337 143.848213 
L 797.047314 102.636191 
L 799.421891 132.672844 
L 801.719868 125.511704 
L 804.094445 121.982871 
L 806.469022 145.375664 
L 808.613801 141.2868 
L 810.988377 133.674894 
L 813.286355 158.756147 
L 815.660932 152.870916 
L 817.958909 143.398921 
L 820.333486 195.383727 
L 822.708063 207.069171 
L 825.00604 223.10176 
L 827.380617 214.587478 
L 829.678594 230.663221 
L 832.053171 230.978059 
L 834.427748 207.71513 
L 841.32168 208.559327 
L 848.368811 241.440272 
L 855.415942 212.415885 
L 862.463073 204.007958 
L 869.280406 202.159637 
L 876.327537 184.225985 
L 883.374668 210.129771 
L 890.421799 212.504971 
L 892.566578 230.430713 
L 894.941155 102.343047 
L 897.239132 190.179375 
L 899.613709 200.28973 
L 901.911687 121.411365 
L 904.286263 163.170162 
L 906.66084 170.242952 
L 908.958818 172.361537 
L 911.333394 161.873499 
L 913.631372 177.004684 
L 916.005949 173.199181 
L 918.380525 169.687921 
L 920.525304 173.392856 
L 922.899881 173.990102 
L 925.197859 156.742027 
L 927.572435 135.036849 
L 929.870413 84.649569 
L 932.244989 114.223709 
L 934.619566 117.8238 
L 939.29212 156.628991 
L 943.964675 155.542067 
L 946.339251 153.026419 
L 948.56063 142.551757 
L 950.935206 129.891927 
L 953.233184 153.293498 
L 955.607761 135.036849 
L 957.905738 178.10891 
L 960.280315 152.654955 
L 962.654892 130.383618 
L 964.952869 154.052799 
L 967.327446 177.030703 
L 969.625423 189.077954 
L 972 184.85002 
L 972 184.85002 
" clip-path="url(#pd56f404d8c)" style="fill: none; stroke: #7f7f7f; stroke-width: 1.5; stroke-linecap: square"/>
   </g>
   <g id="line2d_18">
    <path d="M 135 187.048989 
L 972 187.048989 
" clip-path="url(#pd56f404d8c)" style="fill: none; stroke: #000000; stroke-width: 1.5; stroke-linecap: square"/>
   </g>
   <g id="patch_3">
    <path d="M 135 320.4 
L 135 43.2 
" style="fill: none; stroke: #000000; stroke-width: 0.8; stroke-linejoin: miter; stroke-linecap: square"/>
   </g>
   <g id="patch_4">
    <path d="M 135 320.4 
L 972 320.4 
" style="fill: none; stroke: #000000; stroke-width: 0.8; stroke-linejoin: miter; stroke-linecap: square"/>
   </g>
   <g id="text_18">
    <!-- SGI for GWIC ID 148531 -->
    <g transform="translate(135 37.2) scale(0.12 -0.12)">
     <defs>
      <path id="DejaVuSans-Bold-53" d="M 3834 4519 
L 3834 3531 
Q 3450 3703 3084 3790 
Q 2719 3878 2394 3878 
Q 1963 3878 1756 3759 
Q 1550 3641 1550 3391 
Q 1550 3203 1689 3098 
Q 1828 2994 2194 2919 
L 2706 2816 
Q 3484 2659 3812 2340 
Q 4141 2022 4141 1434 
Q 4141 663 3683 286 
Q 3225 -91 2284 -91 
Q 1841 -91 1394 -6 
Q 947 78 500 244 
L 500 1259 
Q 947 1022 1364 901 
Q 1781 781 2169 781 
Q 2563 781 2772 912 
Q 2981 1044 2981 1288 
Q 2981 1506 2839 1625 
Q 2697 1744 2272 1838 
L 1806 1941 
Q 1106 2091 782 2419 
Q 459 2747 459 3303 
Q 459 4000 909 4375 
Q 1359 4750 2203 4750 
Q 2588 4750 2994 4692 
Q 3400 4634 3834 4519 
z
" transform="scale(0.015625)"/>
      <path id="DejaVuSans-Bold-47" d="M 4781 347 
Q 4331 128 3847 18 
Q 3363 -91 2847 -91 
Q 1681 -91 1000 561 
Q 319 1213 319 2328 
Q 319 3456 1012 4103 
Q 1706 4750 2913 4750 
Q 3378 4750 3804 4662 
Q 4231 4575 4609 4403 
L 4609 3438 
Q 4219 3659 3833 3768 
Q 3447 3878 3059 3878 
Q 2341 3878 1952 3476 
Q 1563 3075 1563 2328 
Q 1563 1588 1938 1184 
Q 2313 781 3003 781 
Q 3191 781 3352 804 
Q 3513 828 3641 878 
L 3641 1784 
L 2906 1784 
L 2906 2591 
L 4781 2591 
L 4781 347 
z
" transform="scale(0.015625)"/>
      <path id="DejaVuSans-Bold-49" d="M 588 4666 
L 1791 4666 
L 1791 0 
L 588 0 
L 588 4666 
z
" transform="scale(0.015625)"/>
      <path id="DejaVuSans-Bold-20" transform="scale(0.015625)"/>
      <path id="DejaVuSans-Bold-66" d="M 2841 4863 
L 2841 4128 
L 2222 4128 
Q 1984 4128 1890 4042 
Q 1797 3956 1797 3744 
L 1797 3500 
L 2753 3500 
L 2753 2700 
L 1797 2700 
L 1797 0 
L 678 0 
L 678 2700 
L 122 2700 
L 122 3500 
L 678 3500 
L 678 3744 
Q 678 4316 997 4589 
Q 1316 4863 1984 4863 
L 2841 4863 
z
" transform="scale(0.015625)"/>
      <path id="DejaVuSans-Bold-6f" d="M 2203 2784 
Q 1831 2784 1636 2517 
Q 1441 2250 1441 1747 
Q 1441 1244 1636 976 
Q 1831 709 2203 709 
Q 2569 709 2762 976 
Q 2956 1244 2956 1747 
Q 2956 2250 2762 2517 
Q 2569 2784 2203 2784 
z
M 2203 3584 
Q 3106 3584 3614 3096 
Q 4122 2609 4122 1747 
Q 4122 884 3614 396 
Q 3106 -91 2203 -91 
Q 1297 -91 786 396 
Q 275 884 275 1747 
Q 275 2609 786 3096 
Q 1297 3584 2203 3584 
z
" transform="scale(0.015625)"/>
      <path id="DejaVuSans-Bold-72" d="M 3138 2547 
Q 2991 2616 2845 2648 
Q 2700 2681 2553 2681 
Q 2122 2681 1889 2404 
Q 1656 2128 1656 1613 
L 1656 0 
L 538 0 
L 538 3500 
L 1656 3500 
L 1656 2925 
Q 1872 3269 2151 3426 
Q 2431 3584 2822 3584 
Q 2878 3584 2943 3579 
Q 3009 3575 3134 3559 
L 3138 2547 
z
" transform="scale(0.015625)"/>
      <path id="DejaVuSans-Bold-57" d="M 191 4666 
L 1344 4666 
L 2150 1275 
L 2950 4666 
L 4109 4666 
L 4909 1275 
L 5716 4666 
L 6859 4666 
L 5759 0 
L 4372 0 
L 3525 3547 
L 2688 0 
L 1300 0 
L 191 4666 
z
" transform="scale(0.015625)"/>
      <path id="DejaVuSans-Bold-43" d="M 4288 256 
Q 3956 84 3597 -3 
Q 3238 -91 2847 -91 
Q 1681 -91 1000 561 
Q 319 1213 319 2328 
Q 319 3447 1000 4098 
Q 1681 4750 2847 4750 
Q 3238 4750 3597 4662 
Q 3956 4575 4288 4403 
L 4288 3438 
Q 3953 3666 3628 3772 
Q 3303 3878 2944 3878 
Q 2300 3878 1931 3465 
Q 1563 3053 1563 2328 
Q 1563 1606 1931 1193 
Q 2300 781 2944 781 
Q 3303 781 3628 887 
Q 3953 994 4288 1222 
L 4288 256 
z
" transform="scale(0.015625)"/>
      <path id="DejaVuSans-Bold-44" d="M 1791 3756 
L 1791 909 
L 2222 909 
Q 2959 909 3348 1275 
Q 3738 1641 3738 2338 
Q 3738 3031 3350 3393 
Q 2963 3756 2222 3756 
L 1791 3756 
z
M 588 4666 
L 1856 4666 
Q 2919 4666 3439 4514 
Q 3959 4363 4331 4000 
Q 4659 3684 4818 3271 
Q 4978 2859 4978 2338 
Q 4978 1809 4818 1395 
Q 4659 981 4331 666 
Q 3956 303 3431 151 
Q 2906 0 1856 0 
L 588 0 
L 588 4666 
z
" transform="scale(0.015625)"/>
      <path id="DejaVuSans-Bold-31" d="M 750 831 
L 1813 831 
L 1813 3847 
L 722 3622 
L 722 4441 
L 1806 4666 
L 2950 4666 
L 2950 831 
L 4013 831 
L 4013 0 
L 750 0 
L 750 831 
z
" transform="scale(0.015625)"/>
      <path id="DejaVuSans-Bold-34" d="M 2356 3675 
L 1038 1722 
L 2356 1722 
L 2356 3675 
z
M 2156 4666 
L 3494 4666 
L 3494 1722 
L 4159 1722 
L 4159 850 
L 3494 850 
L 3494 0 
L 2356 0 
L 2356 850 
L 288 850 
L 288 1881 
L 2156 4666 
z
" transform="scale(0.015625)"/>
      <path id="DejaVuSans-Bold-38" d="M 2228 2088 
Q 1891 2088 1709 1903 
Q 1528 1719 1528 1375 
Q 1528 1031 1709 848 
Q 1891 666 2228 666 
Q 2563 666 2741 848 
Q 2919 1031 2919 1375 
Q 2919 1722 2741 1905 
Q 2563 2088 2228 2088 
z
M 1350 2484 
Q 925 2613 709 2878 
Q 494 3144 494 3541 
Q 494 4131 934 4440 
Q 1375 4750 2228 4750 
Q 3075 4750 3515 4442 
Q 3956 4134 3956 3541 
Q 3956 3144 3739 2878 
Q 3522 2613 3097 2484 
Q 3572 2353 3814 2058 
Q 4056 1763 4056 1313 
Q 4056 619 3595 264 
Q 3134 -91 2228 -91 
Q 1319 -91 855 264 
Q 391 619 391 1313 
Q 391 1763 633 2058 
Q 875 2353 1350 2484 
z
M 1631 3419 
Q 1631 3141 1786 2991 
Q 1941 2841 2228 2841 
Q 2509 2841 2662 2991 
Q 2816 3141 2816 3419 
Q 2816 3697 2662 3845 
Q 2509 3994 2228 3994 
Q 1941 3994 1786 3844 
Q 1631 3694 1631 3419 
z
" transform="scale(0.015625)"/>
      <path id="DejaVuSans-Bold-35" d="M 678 4666 
L 3669 4666 
L 3669 3781 
L 1638 3781 
L 1638 3059 
Q 1775 3097 1914 3117 
Q 2053 3138 2203 3138 
Q 3056 3138 3531 2711 
Q 4006 2284 4006 1522 
Q 4006 766 3489 337 
Q 2972 -91 2053 -91 
Q 1656 -91 1267 -14 
Q 878 63 494 219 
L 494 1166 
Q 875 947 1217 837 
Q 1559 728 1863 728 
Q 2300 728 2551 942 
Q 2803 1156 2803 1522 
Q 2803 1891 2551 2103 
Q 2300 2316 1863 2316 
Q 1603 2316 1309 2248 
Q 1016 2181 678 2041 
L 678 4666 
z
" transform="scale(0.015625)"/>
      <path id="DejaVuSans-Bold-33" d="M 2981 2516 
Q 3453 2394 3698 2092 
Q 3944 1791 3944 1325 
Q 3944 631 3412 270 
Q 2881 -91 1863 -91 
Q 1503 -91 1142 -33 
Q 781 25 428 141 
L 428 1069 
Q 766 900 1098 814 
Q 1431 728 1753 728 
Q 2231 728 2486 893 
Q 2741 1059 2741 1369 
Q 2741 1688 2480 1852 
Q 2219 2016 1709 2016 
L 1228 2016 
L 1228 2791 
L 1734 2791 
Q 2188 2791 2409 2933 
Q 2631 3075 2631 3366 
Q 2631 3634 2415 3781 
Q 2200 3928 1806 3928 
Q 1516 3928 1219 3862 
Q 922 3797 628 3669 
L 628 4550 
Q 984 4650 1334 4700 
Q 1684 4750 2022 4750 
Q 2931 4750 3382 4451 
Q 3834 4153 3834 3553 
Q 3834 3144 3618 2883 
Q 3403 2622 2981 2516 
z
" transform="scale(0.015625)"/>
     </defs>
     <use xlink:href="#DejaVuSans-Bold-53"/>
     <use xlink:href="#DejaVuSans-Bold-47" x="72.021484"/>
     <use xlink:href="#DejaVuSans-Bold-49" x="154.101562"/>
     <use xlink:href="#DejaVuSans-Bold-20" x="191.308594"/>
     <use xlink:href="#DejaVuSans-Bold-66" x="226.123047"/>
     <use xlink:href="#DejaVuSans-Bold-6f" x="269.628906"/>
     <use xlink:href="#DejaVuSans-Bold-72" x="338.330078"/>
     <use xlink:href="#DejaVuSans-Bold-20" x="387.646484"/>
     <use xlink:href="#DejaVuSans-Bold-47" x="422.460938"/>
     <use xlink:href="#DejaVuSans-Bold-57" x="504.541016"/>
     <use xlink:href="#DejaVuSans-Bold-49" x="614.84375"/>
     <use xlink:href="#DejaVuSans-Bold-43" x="652.050781"/>
     <use xlink:href="#DejaVuSans-Bold-20" x="725.439453"/>
     <use xlink:href="#DejaVuSans-Bold-49" x="760.253906"/>
     <use xlink:href="#DejaVuSans-Bold-44" x="797.460938"/>
     <use xlink:href="#DejaVuSans-Bold-20" x="880.46875"/>
     <use xlink:href="#DejaVuSans-Bold-31" x="915.283203"/>
     <use xlink:href="#DejaVuSans-Bold-34" x="984.863281"/>
     <use xlink:href="#DejaVuSans-Bold-38" x="1054.443359"/>
     <use xlink:href="#DejaVuSans-Bold-35" x="1124.023438"/>
     <use xlink:href="#DejaVuSans-Bold-33" x="1193.603516"/>
     <use xlink:href="#DejaVuSans-Bold-31" x="1263.183594"/>
    </g>
   </g>
   <g id="PathCollection_1">
    <defs>
     <path id="m9fcc4dea9d" d="M 0 3 
C 0.795609 3 1.55874 2.683901 2.12132 2.12132 
C 2.683901 1.55874 3 0.795609 3 0 
C 3 -0.795609 2.683901 -1.55874 2.12132 -2.12132 
C 1.55874 -2.683901 0.795609 -3 0 -3 
C -0.795609 -3 -1.55874 -2.683901 -2.12132 -2.12132 
C -2.683901 -1.55874 -3 -0.795609 -3 0 
C -3 0.795609 -2.683901 1.55874 -2.12132 2.12132 
C -1.55874 2.683901 -0.795609 3 0 3 
z
" style="stroke: #ffffff; stroke-width: 0.48"/>
    </defs>
    <g clip-path="url(#pd56f404d8c)">
     <use xlink:href="#m9fcc4dea9d" x="148.864464" y="185.146672" style="stroke: #ffffff; stroke-width: 0.48"/>
     <use xlink:href="#m9fcc4dea9d" x="158.209573" y="217.143684" style="stroke: #ffffff; stroke-width: 0.48"/>
     <use xlink:href="#m9fcc4dea9d" x="165.180104" y="202.547716" style="stroke: #ffffff; stroke-width: 0.48"/>
     <use xlink:href="#m9fcc4dea9d" x="172.227235" y="188.031848" style="stroke: #ffffff; stroke-width: 0.48"/>
     <use xlink:href="#m9fcc4dea9d" x="186.244898" y="162.771809" style="stroke: #ffffff; stroke-width: 0.48"/>
     <use xlink:href="#m9fcc4dea9d" x="193.13883" y="203.488047" style="stroke: #ffffff; stroke-width: 0.48"/>
     <use xlink:href="#m9fcc4dea9d" x="200.185961" y="110.910619" style="stroke: #ffffff; stroke-width: 0.48"/>
     <use xlink:href="#m9fcc4dea9d" x="214.203624" y="72.993069" style="stroke: #ffffff; stroke-width: 0.48"/>
     <use xlink:href="#m9fcc4dea9d" x="242.16235" y="175.873385" style="stroke: #ffffff; stroke-width: 0.48"/>
     <use xlink:href="#m9fcc4dea9d" x="249.056283" y="158.015448" style="stroke: #ffffff; stroke-width: 0.48"/>
     <use xlink:href="#m9fcc4dea9d" x="258.401391" y="187.239634" style="stroke: #ffffff; stroke-width: 0.48"/>
     <use xlink:href="#m9fcc4dea9d" x="267.823099" y="57.248361" style="stroke: #ffffff; stroke-width: 0.48"/>
     <use xlink:href="#m9fcc4dea9d" x="274.87023" y="63.72982" style="stroke: #ffffff; stroke-width: 0.48"/>
     <use xlink:href="#m9fcc4dea9d" x="281.764162" y="91.235704" style="stroke: #ffffff; stroke-width: 0.48"/>
     <use xlink:href="#m9fcc4dea9d" x="288.811293" y="55.8" style="stroke: #ffffff; stroke-width: 0.48"/>
     <use xlink:href="#m9fcc4dea9d" x="295.858424" y="122.652443" style="stroke: #ffffff; stroke-width: 0.48"/>
     <use xlink:href="#m9fcc4dea9d" x="305.050334" y="73.541753" style="stroke: #ffffff; stroke-width: 0.48"/>
     <use xlink:href="#m9fcc4dea9d" x="309.722888" y="104.138306" style="stroke: #ffffff; stroke-width: 0.48"/>
     <use xlink:href="#m9fcc4dea9d" x="316.770019" y="88.55159" style="stroke: #ffffff; stroke-width: 0.48"/>
     <use xlink:href="#m9fcc4dea9d" x="323.81715" y="96.935909" style="stroke: #ffffff; stroke-width: 0.48"/>
     <use xlink:href="#m9fcc4dea9d" x="330.864281" y="99.976388" style="stroke: #ffffff; stroke-width: 0.48"/>
     <use xlink:href="#m9fcc4dea9d" x="337.681614" y="97.354725" style="stroke: #ffffff; stroke-width: 0.48"/>
     <use xlink:href="#m9fcc4dea9d" x="344.728745" y="132.985288" style="stroke: #ffffff; stroke-width: 0.48"/>
     <use xlink:href="#m9fcc4dea9d" x="358.823007" y="117.317222" style="stroke: #ffffff; stroke-width: 0.48"/>
     <use xlink:href="#m9fcc4dea9d" x="365.64034" y="117.661358" style="stroke: #ffffff; stroke-width: 0.48"/>
     <use xlink:href="#m9fcc4dea9d" x="372.687471" y="121.740765" style="stroke: #ffffff; stroke-width: 0.48"/>
     <use xlink:href="#m9fcc4dea9d" x="379.734602" y="160.580067" style="stroke: #ffffff; stroke-width: 0.48"/>
     <use xlink:href="#m9fcc4dea9d" x="386.781733" y="148.304179" style="stroke: #ffffff; stroke-width: 0.48"/>
     <use xlink:href="#m9fcc4dea9d" x="396.050243" y="107.30292" style="stroke: #ffffff; stroke-width: 0.48"/>
     <use xlink:href="#m9fcc4dea9d" x="400.722797" y="197.71917" style="stroke: #ffffff; stroke-width: 0.48"/>
     <use xlink:href="#m9fcc4dea9d" x="407.769928" y="187.441613" style="stroke: #ffffff; stroke-width: 0.48"/>
     <use xlink:href="#m9fcc4dea9d" x="428.681523" y="171.1977" style="stroke: #ffffff; stroke-width: 0.48"/>
     <use xlink:href="#m9fcc4dea9d" x="435.728654" y="187.243228" style="stroke: #ffffff; stroke-width: 0.48"/>
     <use xlink:href="#m9fcc4dea9d" x="442.775785" y="197.21367" style="stroke: #ffffff; stroke-width: 0.48"/>
     <use xlink:href="#m9fcc4dea9d" x="449.593118" y="198.100516" style="stroke: #ffffff; stroke-width: 0.48"/>
     <use xlink:href="#m9fcc4dea9d" x="491.646106" y="226.416142" style="stroke: #ffffff; stroke-width: 0.48"/>
     <use xlink:href="#m9fcc4dea9d" x="505.587169" y="254.985699" style="stroke: #ffffff; stroke-width: 0.48"/>
     <use xlink:href="#m9fcc4dea9d" x="510.259724" y="246.820249" style="stroke: #ffffff; stroke-width: 0.48"/>
     <use xlink:href="#m9fcc4dea9d" x="512.6343" y="274.065731" style="stroke: #ffffff; stroke-width: 0.48"/>
     <use xlink:href="#m9fcc4dea9d" x="519.681431" y="243.061665" style="stroke: #ffffff; stroke-width: 0.48"/>
     <use xlink:href="#m9fcc4dea9d" x="526.728562" y="241.739101" style="stroke: #ffffff; stroke-width: 0.48"/>
     <use xlink:href="#m9fcc4dea9d" x="533.545895" y="258.200648" style="stroke: #ffffff; stroke-width: 0.48"/>
     <use xlink:href="#m9fcc4dea9d" x="540.593026" y="307.8" style="stroke: #ffffff; stroke-width: 0.48"/>
     <use xlink:href="#m9fcc4dea9d" x="547.640157" y="263.423529" style="stroke: #ffffff; stroke-width: 0.48"/>
     <use xlink:href="#m9fcc4dea9d" x="554.687288" y="248.059545" style="stroke: #ffffff; stroke-width: 0.48"/>
     <use xlink:href="#m9fcc4dea9d" x="561.504622" y="251.144314" style="stroke: #ffffff; stroke-width: 0.48"/>
     <use xlink:href="#m9fcc4dea9d" x="566.177176" y="276.250768" style="stroke: #ffffff; stroke-width: 0.48"/>
     <use xlink:href="#m9fcc4dea9d" x="575.598883" y="254.435861" style="stroke: #ffffff; stroke-width: 0.48"/>
     <use xlink:href="#m9fcc4dea9d" x="582.646014" y="283.343226" style="stroke: #ffffff; stroke-width: 0.48"/>
     <use xlink:href="#m9fcc4dea9d" x="587.16537" y="285.171726" style="stroke: #ffffff; stroke-width: 0.48"/>
     <use xlink:href="#m9fcc4dea9d" x="603.55761" y="269.434439" style="stroke: #ffffff; stroke-width: 0.48"/>
     <use xlink:href="#m9fcc4dea9d" x="610.604741" y="243.295149" style="stroke: #ffffff; stroke-width: 0.48"/>
     <use xlink:href="#m9fcc4dea9d" x="617.498673" y="254.765051" style="stroke: #ffffff; stroke-width: 0.48"/>
     <use xlink:href="#m9fcc4dea9d" x="619.87325" y="296.875038" style="stroke: #ffffff; stroke-width: 0.48"/>
     <use xlink:href="#m9fcc4dea9d" x="622.171227" y="240.345023" style="stroke: #ffffff; stroke-width: 0.48"/>
     <use xlink:href="#m9fcc4dea9d" x="624.545804" y="282.739549" style="stroke: #ffffff; stroke-width: 0.48"/>
     <use xlink:href="#m9fcc4dea9d" x="626.920381" y="238.275249" style="stroke: #ffffff; stroke-width: 0.48"/>
     <use xlink:href="#m9fcc4dea9d" x="629.218358" y="213.73386" style="stroke: #ffffff; stroke-width: 0.48"/>
     <use xlink:href="#m9fcc4dea9d" x="631.592935" y="160.345021" style="stroke: #ffffff; stroke-width: 0.48"/>
     <use xlink:href="#m9fcc4dea9d" x="636.265489" y="139.312243" style="stroke: #ffffff; stroke-width: 0.48"/>
     <use xlink:href="#m9fcc4dea9d" x="638.640066" y="184.200511" style="stroke: #ffffff; stroke-width: 0.48"/>
     <use xlink:href="#m9fcc4dea9d" x="640.784845" y="202.782763" style="stroke: #ffffff; stroke-width: 0.48"/>
     <use xlink:href="#m9fcc4dea9d" x="643.159422" y="205.974409" style="stroke: #ffffff; stroke-width: 0.48"/>
     <use xlink:href="#m9fcc4dea9d" x="645.457399" y="194.106717" style="stroke: #ffffff; stroke-width: 0.48"/>
     <use xlink:href="#m9fcc4dea9d" x="647.831976" y="221.208044" style="stroke: #ffffff; stroke-width: 0.48"/>
     <use xlink:href="#m9fcc4dea9d" x="650.129953" y="193.927089" style="stroke: #ffffff; stroke-width: 0.48"/>
     <use xlink:href="#m9fcc4dea9d" x="652.50453" y="233.97281" style="stroke: #ffffff; stroke-width: 0.48"/>
     <use xlink:href="#m9fcc4dea9d" x="654.879107" y="193.901654" style="stroke: #ffffff; stroke-width: 0.48"/>
     <use xlink:href="#m9fcc4dea9d" x="657.177084" y="141.138485" style="stroke: #ffffff; stroke-width: 0.48"/>
     <use xlink:href="#m9fcc4dea9d" x="659.551661" y="181.93367" style="stroke: #ffffff; stroke-width: 0.48"/>
     <use xlink:href="#m9fcc4dea9d" x="661.849639" y="198.448781" style="stroke: #ffffff; stroke-width: 0.48"/>
     <use xlink:href="#m9fcc4dea9d" x="664.224215" y="199.996654" style="stroke: #ffffff; stroke-width: 0.48"/>
     <use xlink:href="#m9fcc4dea9d" x="666.598792" y="188.6631" style="stroke: #ffffff; stroke-width: 0.48"/>
     <use xlink:href="#m9fcc4dea9d" x="668.743571" y="202.077694" style="stroke: #ffffff; stroke-width: 0.48"/>
     <use xlink:href="#m9fcc4dea9d" x="671.118148" y="204.742397" style="stroke: #ffffff; stroke-width: 0.48"/>
     <use xlink:href="#m9fcc4dea9d" x="673.416125" y="190.622276" style="stroke: #ffffff; stroke-width: 0.48"/>
     <use xlink:href="#m9fcc4dea9d" x="675.790702" y="217.418447" style="stroke: #ffffff; stroke-width: 0.48"/>
     <use xlink:href="#m9fcc4dea9d" x="678.088679" y="194.977826" style="stroke: #ffffff; stroke-width: 0.48"/>
     <use xlink:href="#m9fcc4dea9d" x="682.837833" y="188.293952" style="stroke: #ffffff; stroke-width: 0.48"/>
     <use xlink:href="#m9fcc4dea9d" x="685.13581" y="153.065389" style="stroke: #ffffff; stroke-width: 0.48"/>
     <use xlink:href="#m9fcc4dea9d" x="687.510387" y="138.505294" style="stroke: #ffffff; stroke-width: 0.48"/>
     <use xlink:href="#m9fcc4dea9d" x="689.808365" y="160.060619" style="stroke: #ffffff; stroke-width: 0.48"/>
     <use xlink:href="#m9fcc4dea9d" x="692.182941" y="163.898365" style="stroke: #ffffff; stroke-width: 0.48"/>
     <use xlink:href="#m9fcc4dea9d" x="694.557518" y="163.677307" style="stroke: #ffffff; stroke-width: 0.48"/>
     <use xlink:href="#m9fcc4dea9d" x="696.702297" y="162.576886" style="stroke: #ffffff; stroke-width: 0.48"/>
     <use xlink:href="#m9fcc4dea9d" x="699.076874" y="164.77786" style="stroke: #ffffff; stroke-width: 0.48"/>
     <use xlink:href="#m9fcc4dea9d" x="703.749428" y="175.313011" style="stroke: #ffffff; stroke-width: 0.48"/>
     <use xlink:href="#m9fcc4dea9d" x="706.047406" y="180.026283" style="stroke: #ffffff; stroke-width: 0.48"/>
     <use xlink:href="#m9fcc4dea9d" x="708.421982" y="197.345755" style="stroke: #ffffff; stroke-width: 0.48"/>
     <use xlink:href="#m9fcc4dea9d" x="715.469113" y="168.355876" style="stroke: #ffffff; stroke-width: 0.48"/>
     <use xlink:href="#m9fcc4dea9d" x="722.516244" y="166.869611" style="stroke: #ffffff; stroke-width: 0.48"/>
     <use xlink:href="#m9fcc4dea9d" x="727.112199" y="168.918369" style="stroke: #ffffff; stroke-width: 0.48"/>
     <use xlink:href="#m9fcc4dea9d" x="729.410177" y="169.130259" style="stroke: #ffffff; stroke-width: 0.48"/>
     <use xlink:href="#m9fcc4dea9d" x="731.784753" y="178.907339" style="stroke: #ffffff; stroke-width: 0.48"/>
     <use xlink:href="#m9fcc4dea9d" x="734.082731" y="148.166816" style="stroke: #ffffff; stroke-width: 0.48"/>
     <use xlink:href="#m9fcc4dea9d" x="736.457308" y="226.239634" style="stroke: #ffffff; stroke-width: 0.48"/>
     <use xlink:href="#m9fcc4dea9d" x="738.831884" y="241.543619" style="stroke: #ffffff; stroke-width: 0.48"/>
     <use xlink:href="#m9fcc4dea9d" x="741.129862" y="257.492847" style="stroke: #ffffff; stroke-width: 0.48"/>
     <use xlink:href="#m9fcc4dea9d" x="743.504439" y="233.782826" style="stroke: #ffffff; stroke-width: 0.48"/>
     <use xlink:href="#m9fcc4dea9d" x="745.802416" y="252.012462" style="stroke: #ffffff; stroke-width: 0.48"/>
     <use xlink:href="#m9fcc4dea9d" x="748.176993" y="246.957447" style="stroke: #ffffff; stroke-width: 0.48"/>
     <use xlink:href="#m9fcc4dea9d" x="750.55157" y="222.700401" style="stroke: #ffffff; stroke-width: 0.48"/>
     <use xlink:href="#m9fcc4dea9d" x="752.696348" y="251.804754" style="stroke: #ffffff; stroke-width: 0.48"/>
     <use xlink:href="#m9fcc4dea9d" x="755.070925" y="240.98732" style="stroke: #ffffff; stroke-width: 0.48"/>
     <use xlink:href="#m9fcc4dea9d" x="757.368903" y="223.312947" style="stroke: #ffffff; stroke-width: 0.48"/>
     <use xlink:href="#m9fcc4dea9d" x="759.743479" y="256.198288" style="stroke: #ffffff; stroke-width: 0.48"/>
     <use xlink:href="#m9fcc4dea9d" x="762.041457" y="196.757842" style="stroke: #ffffff; stroke-width: 0.48"/>
     <use xlink:href="#m9fcc4dea9d" x="764.416034" y="196.037958" style="stroke: #ffffff; stroke-width: 0.48"/>
     <use xlink:href="#m9fcc4dea9d" x="766.79061" y="233.297199" style="stroke: #ffffff; stroke-width: 0.48"/>
     <use xlink:href="#m9fcc4dea9d" x="769.088588" y="275.031148" style="stroke: #ffffff; stroke-width: 0.48"/>
     <use xlink:href="#m9fcc4dea9d" x="771.463165" y="238.029984" style="stroke: #ffffff; stroke-width: 0.48"/>
     <use xlink:href="#m9fcc4dea9d" x="773.761142" y="263.26657" style="stroke: #ffffff; stroke-width: 0.48"/>
     <use xlink:href="#m9fcc4dea9d" x="776.135719" y="263.028969" style="stroke: #ffffff; stroke-width: 0.48"/>
     <use xlink:href="#m9fcc4dea9d" x="778.510296" y="235.624252" style="stroke: #ffffff; stroke-width: 0.48"/>
     <use xlink:href="#m9fcc4dea9d" x="780.655075" y="273.501959" style="stroke: #ffffff; stroke-width: 0.48"/>
     <use xlink:href="#m9fcc4dea9d" x="783.029651" y="261.551204" style="stroke: #ffffff; stroke-width: 0.48"/>
     <use xlink:href="#m9fcc4dea9d" x="785.327629" y="236.616713" style="stroke: #ffffff; stroke-width: 0.48"/>
     <use xlink:href="#m9fcc4dea9d" x="787.702206" y="264.636183" style="stroke: #ffffff; stroke-width: 0.48"/>
     <use xlink:href="#m9fcc4dea9d" x="790.000183" y="217.358558" style="stroke: #ffffff; stroke-width: 0.48"/>
     <use xlink:href="#m9fcc4dea9d" x="792.37476" y="197.159001" style="stroke: #ffffff; stroke-width: 0.48"/>
     <use xlink:href="#m9fcc4dea9d" x="794.749337" y="143.848213" style="stroke: #ffffff; stroke-width: 0.48"/>
     <use xlink:href="#m9fcc4dea9d" x="797.047314" y="102.636191" style="stroke: #ffffff; stroke-width: 0.48"/>
     <use xlink:href="#m9fcc4dea9d" x="799.421891" y="132.672844" style="stroke: #ffffff; stroke-width: 0.48"/>
     <use xlink:href="#m9fcc4dea9d" x="801.719868" y="125.511704" style="stroke: #ffffff; stroke-width: 0.48"/>
     <use xlink:href="#m9fcc4dea9d" x="804.094445" y="121.982871" style="stroke: #ffffff; stroke-width: 0.48"/>
     <use xlink:href="#m9fcc4dea9d" x="806.469022" y="145.375664" style="stroke: #ffffff; stroke-width: 0.48"/>
     <use xlink:href="#m9fcc4dea9d" x="808.613801" y="141.2868" style="stroke: #ffffff; stroke-width: 0.48"/>
     <use xlink:href="#m9fcc4dea9d" x="810.988377" y="133.674894" style="stroke: #ffffff; stroke-width: 0.48"/>
     <use xlink:href="#m9fcc4dea9d" x="813.286355" y="158.756147" style="stroke: #ffffff; stroke-width: 0.48"/>
     <use xlink:href="#m9fcc4dea9d" x="815.660932" y="152.870916" style="stroke: #ffffff; stroke-width: 0.48"/>
     <use xlink:href="#m9fcc4dea9d" x="817.958909" y="143.398921" style="stroke: #ffffff; stroke-width: 0.48"/>
     <use xlink:href="#m9fcc4dea9d" x="820.333486" y="195.383727" style="stroke: #ffffff; stroke-width: 0.48"/>
     <use xlink:href="#m9fcc4dea9d" x="822.708063" y="207.069171" style="stroke: #ffffff; stroke-width: 0.48"/>
     <use xlink:href="#m9fcc4dea9d" x="825.00604" y="223.10176" style="stroke: #ffffff; stroke-width: 0.48"/>
     <use xlink:href="#m9fcc4dea9d" x="827.380617" y="214.587478" style="stroke: #ffffff; stroke-width: 0.48"/>
     <use xlink:href="#m9fcc4dea9d" x="829.678594" y="230.663221" style="stroke: #ffffff; stroke-width: 0.48"/>
     <use xlink:href="#m9fcc4dea9d" x="832.053171" y="230.978059" style="stroke: #ffffff; stroke-width: 0.48"/>
     <use xlink:href="#m9fcc4dea9d" x="834.427748" y="207.71513" style="stroke: #ffffff; stroke-width: 0.48"/>
     <use xlink:href="#m9fcc4dea9d" x="841.32168" y="208.559327" style="stroke: #ffffff; stroke-width: 0.48"/>
     <use xlink:href="#m9fcc4dea9d" x="848.368811" y="241.440272" style="stroke: #ffffff; stroke-width: 0.48"/>
     <use xlink:href="#m9fcc4dea9d" x="855.415942" y="212.415885" style="stroke: #ffffff; stroke-width: 0.48"/>
     <use xlink:href="#m9fcc4dea9d" x="862.463073" y="204.007958" style="stroke: #ffffff; stroke-width: 0.48"/>
     <use xlink:href="#m9fcc4dea9d" x="869.280406" y="202.159637" style="stroke: #ffffff; stroke-width: 0.48"/>
     <use xlink:href="#m9fcc4dea9d" x="876.327537" y="184.225985" style="stroke: #ffffff; stroke-width: 0.48"/>
     <use xlink:href="#m9fcc4dea9d" x="883.374668" y="210.129771" style="stroke: #ffffff; stroke-width: 0.48"/>
     <use xlink:href="#m9fcc4dea9d" x="890.421799" y="212.504971" style="stroke: #ffffff; stroke-width: 0.48"/>
     <use xlink:href="#m9fcc4dea9d" x="892.566578" y="230.430713" style="stroke: #ffffff; stroke-width: 0.48"/>
     <use xlink:href="#m9fcc4dea9d" x="894.941155" y="102.343047" style="stroke: #ffffff; stroke-width: 0.48"/>
     <use xlink:href="#m9fcc4dea9d" x="897.239132" y="190.179375" style="stroke: #ffffff; stroke-width: 0.48"/>
     <use xlink:href="#m9fcc4dea9d" x="899.613709" y="200.28973" style="stroke: #ffffff; stroke-width: 0.48"/>
     <use xlink:href="#m9fcc4dea9d" x="901.911687" y="121.411365" style="stroke: #ffffff; stroke-width: 0.48"/>
     <use xlink:href="#m9fcc4dea9d" x="904.286263" y="163.170162" style="stroke: #ffffff; stroke-width: 0.48"/>
     <use xlink:href="#m9fcc4dea9d" x="906.66084" y="170.242952" style="stroke: #ffffff; stroke-width: 0.48"/>
     <use xlink:href="#m9fcc4dea9d" x="908.958818" y="172.361537" style="stroke: #ffffff; stroke-width: 0.48"/>
     <use xlink:href="#m9fcc4dea9d" x="911.333394" y="161.873499" style="stroke: #ffffff; stroke-width: 0.48"/>
     <use xlink:href="#m9fcc4dea9d" x="913.631372" y="177.004684" style="stroke: #ffffff; stroke-width: 0.48"/>
     <use xlink:href="#m9fcc4dea9d" x="916.005949" y="173.199181" style="stroke: #ffffff; stroke-width: 0.48"/>
     <use xlink:href="#m9fcc4dea9d" x="918.380525" y="169.687921" style="stroke: #ffffff; stroke-width: 0.48"/>
     <use xlink:href="#m9fcc4dea9d" x="920.525304" y="173.392856" style="stroke: #ffffff; stroke-width: 0.48"/>
     <use xlink:href="#m9fcc4dea9d" x="922.899881" y="173.990102" style="stroke: #ffffff; stroke-width: 0.48"/>
     <use xlink:href="#m9fcc4dea9d" x="925.197859" y="156.742027" style="stroke: #ffffff; stroke-width: 0.48"/>
     <use xlink:href="#m9fcc4dea9d" x="927.572435" y="135.036849" style="stroke: #ffffff; stroke-width: 0.48"/>
     <use xlink:href="#m9fcc4dea9d" x="929.870413" y="84.649569" style="stroke: #ffffff; stroke-width: 0.48"/>
     <use xlink:href="#m9fcc4dea9d" x="932.244989" y="114.223709" style="stroke: #ffffff; stroke-width: 0.48"/>
     <use xlink:href="#m9fcc4dea9d" x="934.619566" y="117.8238" style="stroke: #ffffff; stroke-width: 0.48"/>
     <use xlink:href="#m9fcc4dea9d" x="939.29212" y="156.628991" style="stroke: #ffffff; stroke-width: 0.48"/>
     <use xlink:href="#m9fcc4dea9d" x="943.964675" y="155.542067" style="stroke: #ffffff; stroke-width: 0.48"/>
     <use xlink:href="#m9fcc4dea9d" x="946.339251" y="153.026419" style="stroke: #ffffff; stroke-width: 0.48"/>
     <use xlink:href="#m9fcc4dea9d" x="948.56063" y="142.551757" style="stroke: #ffffff; stroke-width: 0.48"/>
     <use xlink:href="#m9fcc4dea9d" x="950.935206" y="129.891927" style="stroke: #ffffff; stroke-width: 0.48"/>
     <use xlink:href="#m9fcc4dea9d" x="953.233184" y="153.293498" style="stroke: #ffffff; stroke-width: 0.48"/>
     <use xlink:href="#m9fcc4dea9d" x="955.607761" y="135.036849" style="stroke: #ffffff; stroke-width: 0.48"/>
     <use xlink:href="#m9fcc4dea9d" x="957.905738" y="178.10891" style="stroke: #ffffff; stroke-width: 0.48"/>
     <use xlink:href="#m9fcc4dea9d" x="960.280315" y="152.654955" style="stroke: #ffffff; stroke-width: 0.48"/>
     <use xlink:href="#m9fcc4dea9d" x="962.654892" y="130.383618" style="stroke: #ffffff; stroke-width: 0.48"/>
     <use xlink:href="#m9fcc4dea9d" x="964.952869" y="154.052799" style="stroke: #ffffff; stroke-width: 0.48"/>
     <use xlink:href="#m9fcc4dea9d" x="967.327446" y="177.030703" style="stroke: #ffffff; stroke-width: 0.48"/>
     <use xlink:href="#m9fcc4dea9d" x="969.625423" y="189.077954" style="stroke: #ffffff; stroke-width: 0.48"/>
     <use xlink:href="#m9fcc4dea9d" x="972" y="184.85002" style="stroke: #ffffff; stroke-width: 0.48"/>
    </g>
   </g>
  </g>
 </g>
 <defs>
  <clipPath id="pd56f404d8c">
   <rect x="135" y="43.2" width="837" height="277.2"/>
  </clipPath>
 </defs>
</svg>
