<?xml version="1.0" encoding="utf-8" standalone="no"?>
<!DOCTYPE svg PUBLIC "-//W3C//DTD SVG 1.1//EN"
  "http://www.w3.org/Graphics/SVG/1.1/DTD/svg11.dtd">
<svg xmlns:xlink="http://www.w3.org/1999/xlink" width="1080pt" height="360pt" viewBox="0 0 1080 360" xmlns="http://www.w3.org/2000/svg" version="1.1">
 <metadata>
  <rdf:RDF xmlns:dc="http://purl.org/dc/elements/1.1/" xmlns:cc="http://creativecommons.org/ns#" xmlns:rdf="http://www.w3.org/1999/02/22-rdf-syntax-ns#">
   <cc:Work>
    <dc:type rdf:resource="http://purl.org/dc/dcmitype/StillImage"/>
    <dc:date>2024-01-23T18:50:26.586955</dc:date>
    <dc:format>image/svg+xml</dc:format>
    <dc:creator>
     <cc:Agent>
      <dc:title>Matplotlib v3.8.2, https://matplotlib.org/</dc:title>
     </cc:Agent>
    </dc:creator>
   </cc:Work>
  </rdf:RDF>
 </metadata>
 <defs>
  <style type="text/css">*{stroke-linejoin: round; stroke-linecap: butt}</style>
 </defs>
 <g id="figure_1">
  <g id="patch_1">
   <path d="M 0 360 
L 1080 360 
L 1080 0 
L 0 0 
z
" style="fill: #ffffff"/>
  </g>
  <g id="axes_1">
   <g id="patch_2">
    <path d="M 135 320.4 
L 972 320.4 
L 972 43.2 
L 135 43.2 
z
" style="fill: #ffffff"/>
   </g>
   <g id="PolyCollection_1"/>
   <g id="matplotlib.axis_1">
    <g id="xtick_1">
     <g id="line2d_1">
      <defs>
       <path id="m663371cb89" d="M 0 0 
L 0 3.5 
" style="stroke: #000000; stroke-width: 0.8"/>
      </defs>
      <g>
       <use xlink:href="#m663371cb89" x="208.87998" y="320.4" style="stroke: #000000; stroke-width: 0.8"/>
      </g>
     </g>
     <g id="text_1">
      <!-- 1996 -->
      <g transform="translate(196.15498 334.998438) scale(0.1 -0.1)">
       <defs>
        <path id="DejaVuSans-31" d="M 794 531 
L 1825 531 
L 1825 4091 
L 703 3866 
L 703 4441 
L 1819 4666 
L 2450 4666 
L 2450 531 
L 3481 531 
L 3481 0 
L 794 0 
L 794 531 
z
" transform="scale(0.015625)"/>
        <path id="DejaVuSans-39" d="M 703 97 
L 703 672 
Q 941 559 1184 500 
Q 1428 441 1663 441 
Q 2288 441 2617 861 
Q 2947 1281 2994 2138 
Q 2813 1869 2534 1725 
Q 2256 1581 1919 1581 
Q 1219 1581 811 2004 
Q 403 2428 403 3163 
Q 403 3881 828 4315 
Q 1253 4750 1959 4750 
Q 2769 4750 3195 4129 
Q 3622 3509 3622 2328 
Q 3622 1225 3098 567 
Q 2575 -91 1691 -91 
Q 1453 -91 1209 -44 
Q 966 3 703 97 
z
M 1959 2075 
Q 2384 2075 2632 2365 
Q 2881 2656 2881 3163 
Q 2881 3666 2632 3958 
Q 2384 4250 1959 4250 
Q 1534 4250 1286 3958 
Q 1038 3666 1038 3163 
Q 1038 2656 1286 2365 
Q 1534 2075 1959 2075 
z
" transform="scale(0.015625)"/>
        <path id="DejaVuSans-36" d="M 2113 2584 
Q 1688 2584 1439 2293 
Q 1191 2003 1191 1497 
Q 1191 994 1439 701 
Q 1688 409 2113 409 
Q 2538 409 2786 701 
Q 3034 994 3034 1497 
Q 3034 2003 2786 2293 
Q 2538 2584 2113 2584 
z
M 3366 4563 
L 3366 3988 
Q 3128 4100 2886 4159 
Q 2644 4219 2406 4219 
Q 1781 4219 1451 3797 
Q 1122 3375 1075 2522 
Q 1259 2794 1537 2939 
Q 1816 3084 2150 3084 
Q 2853 3084 3261 2657 
Q 3669 2231 3669 1497 
Q 3669 778 3244 343 
Q 2819 -91 2113 -91 
Q 1303 -91 875 529 
Q 447 1150 447 2328 
Q 447 3434 972 4092 
Q 1497 4750 2381 4750 
Q 2619 4750 2861 4703 
Q 3103 4656 3366 4563 
z
" transform="scale(0.015625)"/>
       </defs>
       <use xlink:href="#DejaVuSans-31"/>
       <use xlink:href="#DejaVuSans-39" x="63.623047"/>
       <use xlink:href="#DejaVuSans-39" x="127.246094"/>
       <use xlink:href="#DejaVuSans-36" x="190.869141"/>
      </g>
     </g>
    </g>
    <g id="xtick_2">
     <g id="line2d_2">
      <g>
       <use xlink:href="#m663371cb89" x="330.982526" y="320.4" style="stroke: #000000; stroke-width: 0.8"/>
      </g>
     </g>
     <g id="text_2">
      <!-- 2000 -->
      <g transform="translate(318.257526 334.998438) scale(0.1 -0.1)">
       <defs>
        <path id="DejaVuSans-32" d="M 1228 531 
L 3431 531 
L 3431 0 
L 469 0 
L 469 531 
Q 828 903 1448 1529 
Q 2069 2156 2228 2338 
Q 2531 2678 2651 2914 
Q 2772 3150 2772 3378 
Q 2772 3750 2511 3984 
Q 2250 4219 1831 4219 
Q 1534 4219 1204 4116 
Q 875 4013 500 3803 
L 500 4441 
Q 881 4594 1212 4672 
Q 1544 4750 1819 4750 
Q 2544 4750 2975 4387 
Q 3406 4025 3406 3419 
Q 3406 3131 3298 2873 
Q 3191 2616 2906 2266 
Q 2828 2175 2409 1742 
Q 1991 1309 1228 531 
z
" transform="scale(0.015625)"/>
        <path id="DejaVuSans-30" d="M 2034 4250 
Q 1547 4250 1301 3770 
Q 1056 3291 1056 2328 
Q 1056 1369 1301 889 
Q 1547 409 2034 409 
Q 2525 409 2770 889 
Q 3016 1369 3016 2328 
Q 3016 3291 2770 3770 
Q 2525 4250 2034 4250 
z
M 2034 4750 
Q 2819 4750 3233 4129 
Q 3647 3509 3647 2328 
Q 3647 1150 3233 529 
Q 2819 -91 2034 -91 
Q 1250 -91 836 529 
Q 422 1150 422 2328 
Q 422 3509 836 4129 
Q 1250 4750 2034 4750 
z
" transform="scale(0.015625)"/>
       </defs>
       <use xlink:href="#DejaVuSans-32"/>
       <use xlink:href="#DejaVuSans-30" x="63.623047"/>
       <use xlink:href="#DejaVuSans-30" x="127.246094"/>
       <use xlink:href="#DejaVuSans-30" x="190.869141"/>
      </g>
     </g>
    </g>
    <g id="xtick_3">
     <g id="line2d_3">
      <g>
       <use xlink:href="#m663371cb89" x="453.085072" y="320.4" style="stroke: #000000; stroke-width: 0.8"/>
      </g>
     </g>
     <g id="text_3">
      <!-- 2004 -->
      <g transform="translate(440.360072 334.998438) scale(0.1 -0.1)">
       <defs>
        <path id="DejaVuSans-34" d="M 2419 4116 
L 825 1625 
L 2419 1625 
L 2419 4116 
z
M 2253 4666 
L 3047 4666 
L 3047 1625 
L 3713 1625 
L 3713 1100 
L 3047 1100 
L 3047 0 
L 2419 0 
L 2419 1100 
L 313 1100 
L 313 1709 
L 2253 4666 
z
" transform="scale(0.015625)"/>
       </defs>
       <use xlink:href="#DejaVuSans-32"/>
       <use xlink:href="#DejaVuSans-30" x="63.623047"/>
       <use xlink:href="#DejaVuSans-30" x="127.246094"/>
       <use xlink:href="#DejaVuSans-34" x="190.869141"/>
      </g>
     </g>
    </g>
    <g id="xtick_4">
     <g id="line2d_4">
      <g>
       <use xlink:href="#m663371cb89" x="575.187619" y="320.4" style="stroke: #000000; stroke-width: 0.8"/>
      </g>
     </g>
     <g id="text_4">
      <!-- 2008 -->
      <g transform="translate(562.462619 334.998438) scale(0.1 -0.1)">
       <defs>
        <path id="DejaVuSans-38" d="M 2034 2216 
Q 1584 2216 1326 1975 
Q 1069 1734 1069 1313 
Q 1069 891 1326 650 
Q 1584 409 2034 409 
Q 2484 409 2743 651 
Q 3003 894 3003 1313 
Q 3003 1734 2745 1975 
Q 2488 2216 2034 2216 
z
M 1403 2484 
Q 997 2584 770 2862 
Q 544 3141 544 3541 
Q 544 4100 942 4425 
Q 1341 4750 2034 4750 
Q 2731 4750 3128 4425 
Q 3525 4100 3525 3541 
Q 3525 3141 3298 2862 
Q 3072 2584 2669 2484 
Q 3125 2378 3379 2068 
Q 3634 1759 3634 1313 
Q 3634 634 3220 271 
Q 2806 -91 2034 -91 
Q 1263 -91 848 271 
Q 434 634 434 1313 
Q 434 1759 690 2068 
Q 947 2378 1403 2484 
z
M 1172 3481 
Q 1172 3119 1398 2916 
Q 1625 2713 2034 2713 
Q 2441 2713 2670 2916 
Q 2900 3119 2900 3481 
Q 2900 3844 2670 4047 
Q 2441 4250 2034 4250 
Q 1625 4250 1398 4047 
Q 1172 3844 1172 3481 
z
" transform="scale(0.015625)"/>
       </defs>
       <use xlink:href="#DejaVuSans-32"/>
       <use xlink:href="#DejaVuSans-30" x="63.623047"/>
       <use xlink:href="#DejaVuSans-30" x="127.246094"/>
       <use xlink:href="#DejaVuSans-38" x="190.869141"/>
      </g>
     </g>
    </g>
    <g id="xtick_5">
     <g id="line2d_5">
      <g>
       <use xlink:href="#m663371cb89" x="697.290165" y="320.4" style="stroke: #000000; stroke-width: 0.8"/>
      </g>
     </g>
     <g id="text_5">
      <!-- 2012 -->
      <g transform="translate(684.565165 334.998438) scale(0.1 -0.1)">
       <use xlink:href="#DejaVuSans-32"/>
       <use xlink:href="#DejaVuSans-30" x="63.623047"/>
       <use xlink:href="#DejaVuSans-31" x="127.246094"/>
       <use xlink:href="#DejaVuSans-32" x="190.869141"/>
      </g>
     </g>
    </g>
    <g id="xtick_6">
     <g id="line2d_6">
      <g>
       <use xlink:href="#m663371cb89" x="819.392711" y="320.4" style="stroke: #000000; stroke-width: 0.8"/>
      </g>
     </g>
     <g id="text_6">
      <!-- 2016 -->
      <g transform="translate(806.667711 334.998438) scale(0.1 -0.1)">
       <use xlink:href="#DejaVuSans-32"/>
       <use xlink:href="#DejaVuSans-30" x="63.623047"/>
       <use xlink:href="#DejaVuSans-31" x="127.246094"/>
       <use xlink:href="#DejaVuSans-36" x="190.869141"/>
      </g>
     </g>
    </g>
    <g id="xtick_7">
     <g id="line2d_7">
      <g>
       <use xlink:href="#m663371cb89" x="941.495257" y="320.4" style="stroke: #000000; stroke-width: 0.8"/>
      </g>
     </g>
     <g id="text_7">
      <!-- 2020 -->
      <g transform="translate(928.770257 334.998438) scale(0.1 -0.1)">
       <use xlink:href="#DejaVuSans-32"/>
       <use xlink:href="#DejaVuSans-30" x="63.623047"/>
       <use xlink:href="#DejaVuSans-32" x="127.246094"/>
       <use xlink:href="#DejaVuSans-30" x="190.869141"/>
      </g>
     </g>
    </g>
   </g>
   <g id="matplotlib.axis_2">
    <g id="ytick_1">
     <g id="line2d_8">
      <defs>
       <path id="m178db29efe" d="M 0 0 
L -3.5 0 
" style="stroke: #000000; stroke-width: 0.8"/>
      </defs>
      <g>
       <use xlink:href="#m178db29efe" x="135" y="307.746743" style="stroke: #000000; stroke-width: 0.8"/>
      </g>
     </g>
     <g id="text_8">
      <!-- −2.0 -->
      <g transform="translate(103.717187 311.545961) scale(0.1 -0.1)">
       <defs>
        <path id="DejaVuSans-2212" d="M 678 2272 
L 4684 2272 
L 4684 1741 
L 678 1741 
L 678 2272 
z
" transform="scale(0.015625)"/>
        <path id="DejaVuSans-2e" d="M 684 794 
L 1344 794 
L 1344 0 
L 684 0 
L 684 794 
z
" transform="scale(0.015625)"/>
       </defs>
       <use xlink:href="#DejaVuSans-2212"/>
       <use xlink:href="#DejaVuSans-32" x="83.789062"/>
       <use xlink:href="#DejaVuSans-2e" x="147.412109"/>
       <use xlink:href="#DejaVuSans-30" x="179.199219"/>
      </g>
     </g>
    </g>
    <g id="ytick_2">
     <g id="line2d_9">
      <g>
       <use xlink:href="#m178db29efe" x="135" y="276.672359" style="stroke: #000000; stroke-width: 0.8"/>
      </g>
     </g>
     <g id="text_9">
      <!-- −1.5 -->
      <g transform="translate(103.717187 280.471578) scale(0.1 -0.1)">
       <defs>
        <path id="DejaVuSans-35" d="M 691 4666 
L 3169 4666 
L 3169 4134 
L 1269 4134 
L 1269 2991 
Q 1406 3038 1543 3061 
Q 1681 3084 1819 3084 
Q 2600 3084 3056 2656 
Q 3513 2228 3513 1497 
Q 3513 744 3044 326 
Q 2575 -91 1722 -91 
Q 1428 -91 1123 -41 
Q 819 9 494 109 
L 494 744 
Q 775 591 1075 516 
Q 1375 441 1709 441 
Q 2250 441 2565 725 
Q 2881 1009 2881 1497 
Q 2881 1984 2565 2268 
Q 2250 2553 1709 2553 
Q 1456 2553 1204 2497 
Q 953 2441 691 2322 
L 691 4666 
z
" transform="scale(0.015625)"/>
       </defs>
       <use xlink:href="#DejaVuSans-2212"/>
       <use xlink:href="#DejaVuSans-31" x="83.789062"/>
       <use xlink:href="#DejaVuSans-2e" x="147.412109"/>
       <use xlink:href="#DejaVuSans-35" x="179.199219"/>
      </g>
     </g>
    </g>
    <g id="ytick_3">
     <g id="line2d_10">
      <g>
       <use xlink:href="#m178db29efe" x="135" y="245.597976" style="stroke: #000000; stroke-width: 0.8"/>
      </g>
     </g>
     <g id="text_10">
      <!-- −1.0 -->
      <g transform="translate(103.717187 249.397195) scale(0.1 -0.1)">
       <use xlink:href="#DejaVuSans-2212"/>
       <use xlink:href="#DejaVuSans-31" x="83.789062"/>
       <use xlink:href="#DejaVuSans-2e" x="147.412109"/>
       <use xlink:href="#DejaVuSans-30" x="179.199219"/>
      </g>
     </g>
    </g>
    <g id="ytick_4">
     <g id="line2d_11">
      <g>
       <use xlink:href="#m178db29efe" x="135" y="214.523592" style="stroke: #000000; stroke-width: 0.8"/>
      </g>
     </g>
     <g id="text_11">
      <!-- −0.5 -->
      <g transform="translate(103.717187 218.322811) scale(0.1 -0.1)">
       <use xlink:href="#DejaVuSans-2212"/>
       <use xlink:href="#DejaVuSans-30" x="83.789062"/>
       <use xlink:href="#DejaVuSans-2e" x="147.412109"/>
       <use xlink:href="#DejaVuSans-35" x="179.199219"/>
      </g>
     </g>
    </g>
    <g id="ytick_5">
     <g id="line2d_12">
      <g>
       <use xlink:href="#m178db29efe" x="135" y="183.449209" style="stroke: #000000; stroke-width: 0.8"/>
      </g>
     </g>
     <g id="text_12">
      <!-- 0.0 -->
      <g transform="translate(112.096875 187.248428) scale(0.1 -0.1)">
       <use xlink:href="#DejaVuSans-30"/>
       <use xlink:href="#DejaVuSans-2e" x="63.623047"/>
       <use xlink:href="#DejaVuSans-30" x="95.410156"/>
      </g>
     </g>
    </g>
    <g id="ytick_6">
     <g id="line2d_13">
      <g>
       <use xlink:href="#m178db29efe" x="135" y="152.374825" style="stroke: #000000; stroke-width: 0.8"/>
      </g>
     </g>
     <g id="text_13">
      <!-- 0.5 -->
      <g transform="translate(112.096875 156.174044) scale(0.1 -0.1)">
       <use xlink:href="#DejaVuSans-30"/>
       <use xlink:href="#DejaVuSans-2e" x="63.623047"/>
       <use xlink:href="#DejaVuSans-35" x="95.410156"/>
      </g>
     </g>
    </g>
    <g id="ytick_7">
     <g id="line2d_14">
      <g>
       <use xlink:href="#m178db29efe" x="135" y="121.300442" style="stroke: #000000; stroke-width: 0.8"/>
      </g>
     </g>
     <g id="text_14">
      <!-- 1.0 -->
      <g transform="translate(112.096875 125.099661) scale(0.1 -0.1)">
       <use xlink:href="#DejaVuSans-31"/>
       <use xlink:href="#DejaVuSans-2e" x="63.623047"/>
       <use xlink:href="#DejaVuSans-30" x="95.410156"/>
      </g>
     </g>
    </g>
    <g id="ytick_8">
     <g id="line2d_15">
      <g>
       <use xlink:href="#m178db29efe" x="135" y="90.226058" style="stroke: #000000; stroke-width: 0.8"/>
      </g>
     </g>
     <g id="text_15">
      <!-- 1.5 -->
      <g transform="translate(112.096875 94.025277) scale(0.1 -0.1)">
       <use xlink:href="#DejaVuSans-31"/>
       <use xlink:href="#DejaVuSans-2e" x="63.623047"/>
       <use xlink:href="#DejaVuSans-35" x="95.410156"/>
      </g>
     </g>
    </g>
    <g id="ytick_9">
     <g id="line2d_16">
      <g>
       <use xlink:href="#m178db29efe" x="135" y="59.151675" style="stroke: #000000; stroke-width: 0.8"/>
      </g>
     </g>
     <g id="text_16">
      <!-- 2.0 -->
      <g transform="translate(112.096875 62.950894) scale(0.1 -0.1)">
       <use xlink:href="#DejaVuSans-32"/>
       <use xlink:href="#DejaVuSans-2e" x="63.623047"/>
       <use xlink:href="#DejaVuSans-30" x="95.410156"/>
      </g>
     </g>
    </g>
    <g id="text_17">
     <!-- SGI -->
     <g transform="translate(97.6375 190.323437) rotate(-90) scale(0.1 -0.1)">
      <defs>
       <path id="DejaVuSans-53" d="M 3425 4513 
L 3425 3897 
Q 3066 4069 2747 4153 
Q 2428 4238 2131 4238 
Q 1616 4238 1336 4038 
Q 1056 3838 1056 3469 
Q 1056 3159 1242 3001 
Q 1428 2844 1947 2747 
L 2328 2669 
Q 3034 2534 3370 2195 
Q 3706 1856 3706 1288 
Q 3706 609 3251 259 
Q 2797 -91 1919 -91 
Q 1588 -91 1214 -16 
Q 841 59 441 206 
L 441 856 
Q 825 641 1194 531 
Q 1563 422 1919 422 
Q 2459 422 2753 634 
Q 3047 847 3047 1241 
Q 3047 1584 2836 1778 
Q 2625 1972 2144 2069 
L 1759 2144 
Q 1053 2284 737 2584 
Q 422 2884 422 3419 
Q 422 4038 858 4394 
Q 1294 4750 2059 4750 
Q 2388 4750 2728 4690 
Q 3069 4631 3425 4513 
z
" transform="scale(0.015625)"/>
       <path id="DejaVuSans-47" d="M 3809 666 
L 3809 1919 
L 2778 1919 
L 2778 2438 
L 4434 2438 
L 4434 434 
Q 4069 175 3628 42 
Q 3188 -91 2688 -91 
Q 1594 -91 976 548 
Q 359 1188 359 2328 
Q 359 3472 976 4111 
Q 1594 4750 2688 4750 
Q 3144 4750 3555 4637 
Q 3966 4525 4313 4306 
L 4313 3634 
Q 3963 3931 3569 4081 
Q 3175 4231 2741 4231 
Q 1884 4231 1454 3753 
Q 1025 3275 1025 2328 
Q 1025 1384 1454 906 
Q 1884 428 2741 428 
Q 3075 428 3337 486 
Q 3600 544 3809 666 
z
" transform="scale(0.015625)"/>
       <path id="DejaVuSans-49" d="M 628 4666 
L 1259 4666 
L 1259 0 
L 628 0 
L 628 4666 
z
" transform="scale(0.015625)"/>
      </defs>
      <use xlink:href="#DejaVuSans-53"/>
      <use xlink:href="#DejaVuSans-47" x="63.476562"/>
      <use xlink:href="#DejaVuSans-49" x="140.966797"/>
     </g>
    </g>
   </g>
   <g id="line2d_17">
    <path d="M 135 86.818979 
L 137.590814 84.424413 
L 160.40669 217.772709 
L 168.095557 180.324074 
L 175.700849 171.438077 
L 183.222566 270.542337 
L 190.911433 78.355978 
L 203.698352 100.167971 
L 211.387219 99.577992 
L 218.908937 115.164104 
L 226.597803 191.230877 
L 234.28667 141.182519 
L 257.102546 127.376274 
L 264.791413 92.350377 
L 279.918422 98.283092 
L 287.607289 141.219504 
L 302.985022 136.721428 
L 313.013979 224.335587 
L 318.112032 192.401637 
L 325.800899 162.586095 
L 333.489765 209.4658 
L 341.011483 175.875812 
L 348.700349 276.299693 
L 356.389216 213.555629 
L 371.516226 224.153813 
L 379.205092 225.543818 
L 386.893959 203.890052 
L 394.582826 216.908057 
L 402.020969 263.420284 
L 409.709835 237.16069 
L 417.398702 219.531681 
L 425.087569 198.446424 
L 432.525711 153.475052 
L 440.214578 268.693942 
L 447.903445 266.063206 
L 455.592312 72.427826 
L 463.114029 280.078505 
L 468.212082 237.195445 
L 470.802896 221.500204 
L 478.491762 138.237508 
L 486.180629 202.095633 
L 493.618772 195.105801 
L 501.307639 229.543738 
L 508.996505 176.099511 
L 516.685372 187.66722 
L 524.123515 122.204735 
L 529.221568 229.710851 
L 539.501248 292.425027 
L 547.190115 307.8 
L 552.121018 132.128831 
L 562.317124 206.020157 
L 570.005991 186.469394 
L 577.694858 170.250506 
L 585.216575 230.16306 
L 587.807389 121.287383 
L 590.314628 132.499258 
L 592.905442 107.961235 
L 595.496256 147.575174 
L 598.003495 131.991819 
L 600.594309 154.179527 
L 605.692361 92.404069 
L 608.283175 151.658763 
L 610.623265 126.081968 
L 613.214079 130.81191 
L 615.721318 171.114997 
L 618.312132 142.666679 
L 620.819371 184.990642 
L 623.410185 161.396614 
L 626.000999 166.17197 
L 628.508238 177.799935 
L 631.099051 147.012876 
L 633.606291 141.053187 
L 636.197104 170.440866 
L 638.787918 193.024006 
L 641.128008 165.784433 
L 643.718822 200.894001 
L 646.226061 185.454771 
L 648.816875 197.711467 
L 651.324114 152.708622 
L 653.914928 123.42096 
L 656.505741 162.244192 
L 659.012981 96.048001 
L 661.603794 144.107963 
L 664.111033 134.190837 
L 666.701847 139.248959 
L 669.292661 151.658763 
L 671.632751 165.784433 
L 674.223565 158.821623 
L 679.321618 153.402114 
L 681.828857 126.680355 
L 684.41967 128.644709 
L 689.517723 179.593263 
L 692.108537 162.586095 
L 699.797404 133.428897 
L 704.811882 189.161383 
L 707.319121 166.377239 
L 709.909935 182.128201 
L 712.417174 196.076165 
L 715.007988 221.500204 
L 717.598802 217.732902 
L 720.106041 221.713556 
L 722.696855 230.220968 
L 725.204094 209.419624 
L 727.794908 178.95353 
L 730.385721 222.513722 
L 732.725811 206.577897 
L 735.316625 230.179736 
L 737.823864 224.153813 
L 740.414678 288.468115 
L 742.921917 227.589934 
L 745.512731 200.907885 
L 748.103545 248.396283 
L 750.610784 267.23201 
L 753.201598 215.950694 
L 755.708837 201.198503 
L 758.299651 232.59954 
L 760.890464 244.606348 
L 763.230554 225.731677 
L 765.821368 234.250376 
L 768.328607 202.374261 
L 770.919421 162.990388 
L 773.42666 195.064181 
L 776.017474 173.100626 
L 778.608288 201.37638 
L 781.115527 157.835226 
L 783.70634 158.410098 
L 786.21358 181.405927 
L 788.804393 197.236637 
L 791.395207 182.377505 
L 793.735297 137.443859 
L 796.326111 189.161383 
L 798.83335 195.105801 
L 801.424164 251.649584 
L 803.931403 150.662309 
L 806.522217 55.8 
L 809.11303 225.527903 
L 811.62027 234.7041 
L 814.211083 248.019628 
L 816.718323 248.880543 
L 819.309136 274.529026 
L 821.89995 233.687909 
L 829.421667 210.860573 
L 837.110534 302.121679 
L 844.799401 248.019628 
L 852.488268 237.370025 
L 859.92641 178.264007 
L 867.615277 207.830566 
L 875.304144 201.4466 
L 882.99301 200.26776 
L 890.431153 165.196619 
L 898.12002 162.364047 
L 905.808887 149.896348 
L 913.497753 133.428897 
L 920.935896 113.981493 
L 928.624763 155.176128 
L 936.31363 158.410098 
L 944.002496 148.321899 
L 959.21308 169.905098 
L 966.901947 201.4466 
L 966.901947 201.4466 
" clip-path="url(#p1e6160218a)" style="fill: none; stroke: #7f7f7f; stroke-width: 1.5; stroke-linecap: square"/>
   </g>
   <g id="line2d_18">
    <path d="M 135 183.449209 
L 972 183.449209 
" clip-path="url(#p1e6160218a)" style="fill: none; stroke: #000000; stroke-width: 1.5; stroke-linecap: square"/>
   </g>
   <g id="patch_3">
    <path d="M 135 320.4 
L 135 43.2 
" style="fill: none; stroke: #000000; stroke-width: 0.8; stroke-linejoin: miter; stroke-linecap: square"/>
   </g>
   <g id="patch_4">
    <path d="M 135 320.4 
L 972 320.4 
" style="fill: none; stroke: #000000; stroke-width: 0.8; stroke-linejoin: miter; stroke-linecap: square"/>
   </g>
   <g id="text_18">
    <!-- SGI for GWIC ID 9771 -->
    <g transform="translate(135 37.2) scale(0.12 -0.12)">
     <defs>
      <path id="DejaVuSans-Bold-53" d="M 3834 4519 
L 3834 3531 
Q 3450 3703 3084 3790 
Q 2719 3878 2394 3878 
Q 1963 3878 1756 3759 
Q 1550 3641 1550 3391 
Q 1550 3203 1689 3098 
Q 1828 2994 2194 2919 
L 2706 2816 
Q 3484 2659 3812 2340 
Q 4141 2022 4141 1434 
Q 4141 663 3683 286 
Q 3225 -91 2284 -91 
Q 1841 -91 1394 -6 
Q 947 78 500 244 
L 500 1259 
Q 947 1022 1364 901 
Q 1781 781 2169 781 
Q 2563 781 2772 912 
Q 2981 1044 2981 1288 
Q 2981 1506 2839 1625 
Q 2697 1744 2272 1838 
L 1806 1941 
Q 1106 2091 782 2419 
Q 459 2747 459 3303 
Q 459 4000 909 4375 
Q 1359 4750 2203 4750 
Q 2588 4750 2994 4692 
Q 3400 4634 3834 4519 
z
" transform="scale(0.015625)"/>
      <path id="DejaVuSans-Bold-47" d="M 4781 347 
Q 4331 128 3847 18 
Q 3363 -91 2847 -91 
Q 1681 -91 1000 561 
Q 319 1213 319 2328 
Q 319 3456 1012 4103 
Q 1706 4750 2913 4750 
Q 3378 4750 3804 4662 
Q 4231 4575 4609 4403 
L 4609 3438 
Q 4219 3659 3833 3768 
Q 3447 3878 3059 3878 
Q 2341 3878 1952 3476 
Q 1563 3075 1563 2328 
Q 1563 1588 1938 1184 
Q 2313 781 3003 781 
Q 3191 781 3352 804 
Q 3513 828 3641 878 
L 3641 1784 
L 2906 1784 
L 2906 2591 
L 4781 2591 
L 4781 347 
z
" transform="scale(0.015625)"/>
      <path id="DejaVuSans-Bold-49" d="M 588 4666 
L 1791 4666 
L 1791 0 
L 588 0 
L 588 4666 
z
" transform="scale(0.015625)"/>
      <path id="DejaVuSans-Bold-20" transform="scale(0.015625)"/>
      <path id="DejaVuSans-Bold-66" d="M 2841 4863 
L 2841 4128 
L 2222 4128 
Q 1984 4128 1890 4042 
Q 1797 3956 1797 3744 
L 1797 3500 
L 2753 3500 
L 2753 2700 
L 1797 2700 
L 1797 0 
L 678 0 
L 678 2700 
L 122 2700 
L 122 3500 
L 678 3500 
L 678 3744 
Q 678 4316 997 4589 
Q 1316 4863 1984 4863 
L 2841 4863 
z
" transform="scale(0.015625)"/>
      <path id="DejaVuSans-Bold-6f" d="M 2203 2784 
Q 1831 2784 1636 2517 
Q 1441 2250 1441 1747 
Q 1441 1244 1636 976 
Q 1831 709 2203 709 
Q 2569 709 2762 976 
Q 2956 1244 2956 1747 
Q 2956 2250 2762 2517 
Q 2569 2784 2203 2784 
z
M 2203 3584 
Q 3106 3584 3614 3096 
Q 4122 2609 4122 1747 
Q 4122 884 3614 396 
Q 3106 -91 2203 -91 
Q 1297 -91 786 396 
Q 275 884 275 1747 
Q 275 2609 786 3096 
Q 1297 3584 2203 3584 
z
" transform="scale(0.015625)"/>
      <path id="DejaVuSans-Bold-72" d="M 3138 2547 
Q 2991 2616 2845 2648 
Q 2700 2681 2553 2681 
Q 2122 2681 1889 2404 
Q 1656 2128 1656 1613 
L 1656 0 
L 538 0 
L 538 3500 
L 1656 3500 
L 1656 2925 
Q 1872 3269 2151 3426 
Q 2431 3584 2822 3584 
Q 2878 3584 2943 3579 
Q 3009 3575 3134 3559 
L 3138 2547 
z
" transform="scale(0.015625)"/>
      <path id="DejaVuSans-Bold-57" d="M 191 4666 
L 1344 4666 
L 2150 1275 
L 2950 4666 
L 4109 4666 
L 4909 1275 
L 5716 4666 
L 6859 4666 
L 5759 0 
L 4372 0 
L 3525 3547 
L 2688 0 
L 1300 0 
L 191 4666 
z
" transform="scale(0.015625)"/>
      <path id="DejaVuSans-Bold-43" d="M 4288 256 
Q 3956 84 3597 -3 
Q 3238 -91 2847 -91 
Q 1681 -91 1000 561 
Q 319 1213 319 2328 
Q 319 3447 1000 4098 
Q 1681 4750 2847 4750 
Q 3238 4750 3597 4662 
Q 3956 4575 4288 4403 
L 4288 3438 
Q 3953 3666 3628 3772 
Q 3303 3878 2944 3878 
Q 2300 3878 1931 3465 
Q 1563 3053 1563 2328 
Q 1563 1606 1931 1193 
Q 2300 781 2944 781 
Q 3303 781 3628 887 
Q 3953 994 4288 1222 
L 4288 256 
z
" transform="scale(0.015625)"/>
      <path id="DejaVuSans-Bold-44" d="M 1791 3756 
L 1791 909 
L 2222 909 
Q 2959 909 3348 1275 
Q 3738 1641 3738 2338 
Q 3738 3031 3350 3393 
Q 2963 3756 2222 3756 
L 1791 3756 
z
M 588 4666 
L 1856 4666 
Q 2919 4666 3439 4514 
Q 3959 4363 4331 4000 
Q 4659 3684 4818 3271 
Q 4978 2859 4978 2338 
Q 4978 1809 4818 1395 
Q 4659 981 4331 666 
Q 3956 303 3431 151 
Q 2906 0 1856 0 
L 588 0 
L 588 4666 
z
" transform="scale(0.015625)"/>
      <path id="DejaVuSans-Bold-39" d="M 641 103 
L 641 966 
Q 928 831 1190 764 
Q 1453 697 1709 697 
Q 2247 697 2547 995 
Q 2847 1294 2900 1881 
Q 2688 1725 2447 1647 
Q 2206 1569 1925 1569 
Q 1209 1569 770 1986 
Q 331 2403 331 3084 
Q 331 3838 820 4291 
Q 1309 4744 2131 4744 
Q 3044 4744 3544 4128 
Q 4044 3513 4044 2388 
Q 4044 1231 3459 570 
Q 2875 -91 1856 -91 
Q 1528 -91 1228 -42 
Q 928 6 641 103 
z
M 2125 2350 
Q 2441 2350 2600 2554 
Q 2759 2759 2759 3169 
Q 2759 3575 2600 3781 
Q 2441 3988 2125 3988 
Q 1809 3988 1650 3781 
Q 1491 3575 1491 3169 
Q 1491 2759 1650 2554 
Q 1809 2350 2125 2350 
z
" transform="scale(0.015625)"/>
      <path id="DejaVuSans-Bold-37" d="M 428 4666 
L 3944 4666 
L 3944 3988 
L 2125 0 
L 953 0 
L 2675 3781 
L 428 3781 
L 428 4666 
z
" transform="scale(0.015625)"/>
      <path id="DejaVuSans-Bold-31" d="M 750 831 
L 1813 831 
L 1813 3847 
L 722 3622 
L 722 4441 
L 1806 4666 
L 2950 4666 
L 2950 831 
L 4013 831 
L 4013 0 
L 750 0 
L 750 831 
z
" transform="scale(0.015625)"/>
     </defs>
     <use xlink:href="#DejaVuSans-Bold-53"/>
     <use xlink:href="#DejaVuSans-Bold-47" x="72.021484"/>
     <use xlink:href="#DejaVuSans-Bold-49" x="154.101562"/>
     <use xlink:href="#DejaVuSans-Bold-20" x="191.308594"/>
     <use xlink:href="#DejaVuSans-Bold-66" x="226.123047"/>
     <use xlink:href="#DejaVuSans-Bold-6f" x="269.628906"/>
     <use xlink:href="#DejaVuSans-Bold-72" x="338.330078"/>
     <use xlink:href="#DejaVuSans-Bold-20" x="387.646484"/>
     <use xlink:href="#DejaVuSans-Bold-47" x="422.460938"/>
     <use xlink:href="#DejaVuSans-Bold-57" x="504.541016"/>
     <use xlink:href="#DejaVuSans-Bold-49" x="614.84375"/>
     <use xlink:href="#DejaVuSans-Bold-43" x="652.050781"/>
     <use xlink:href="#DejaVuSans-Bold-20" x="725.439453"/>
     <use xlink:href="#DejaVuSans-Bold-49" x="760.253906"/>
     <use xlink:href="#DejaVuSans-Bold-44" x="797.460938"/>
     <use xlink:href="#DejaVuSans-Bold-20" x="880.46875"/>
     <use xlink:href="#DejaVuSans-Bold-39" x="915.283203"/>
     <use xlink:href="#DejaVuSans-Bold-37" x="984.863281"/>
     <use xlink:href="#DejaVuSans-Bold-37" x="1054.443359"/>
     <use xlink:href="#DejaVuSans-Bold-31" x="1124.023438"/>
    </g>
   </g>
   <g id="PathCollection_1">
    <defs>
     <path id="m88de11b6f6" d="M 0 3 
C 0.795609 3 1.55874 2.683901 2.12132 2.12132 
C 2.683901 1.55874 3 0.795609 3 0 
C 3 -0.795609 2.683901 -1.55874 2.12132 -2.12132 
C 1.55874 -2.683901 0.795609 -3 0 -3 
C -0.795609 -3 -1.55874 -2.683901 -2.12132 -2.12132 
C -2.683901 -1.55874 -3 -0.795609 -3 0 
C -3 0.795609 -2.683901 1.55874 -2.12132 2.12132 
C -1.55874 2.683901 -0.795609 3 0 3 
z
" style="stroke: #ffffff; stroke-width: 0.48"/>
    </defs>
    <g clip-path="url(#p1e6160218a)">
     <use xlink:href="#m88de11b6f6" x="135" y="86.818979" style="stroke: #ffffff; stroke-width: 0.48"/>
     <use xlink:href="#m88de11b6f6" x="137.590814" y="84.424413" style="stroke: #ffffff; stroke-width: 0.48"/>
     <use xlink:href="#m88de11b6f6" x="160.40669" y="217.772709" style="stroke: #ffffff; stroke-width: 0.48"/>
     <use xlink:href="#m88de11b6f6" x="168.095557" y="180.324074" style="stroke: #ffffff; stroke-width: 0.48"/>
     <use xlink:href="#m88de11b6f6" x="175.700849" y="171.438077" style="stroke: #ffffff; stroke-width: 0.48"/>
     <use xlink:href="#m88de11b6f6" x="183.222566" y="270.542337" style="stroke: #ffffff; stroke-width: 0.48"/>
     <use xlink:href="#m88de11b6f6" x="190.911433" y="78.355978" style="stroke: #ffffff; stroke-width: 0.48"/>
     <use xlink:href="#m88de11b6f6" x="203.698352" y="100.167971" style="stroke: #ffffff; stroke-width: 0.48"/>
     <use xlink:href="#m88de11b6f6" x="211.387219" y="99.577992" style="stroke: #ffffff; stroke-width: 0.48"/>
     <use xlink:href="#m88de11b6f6" x="218.908937" y="115.164104" style="stroke: #ffffff; stroke-width: 0.48"/>
     <use xlink:href="#m88de11b6f6" x="226.597803" y="191.230877" style="stroke: #ffffff; stroke-width: 0.48"/>
     <use xlink:href="#m88de11b6f6" x="234.28667" y="141.182519" style="stroke: #ffffff; stroke-width: 0.48"/>
     <use xlink:href="#m88de11b6f6" x="257.102546" y="127.376274" style="stroke: #ffffff; stroke-width: 0.48"/>
     <use xlink:href="#m88de11b6f6" x="264.791413" y="92.350377" style="stroke: #ffffff; stroke-width: 0.48"/>
     <use xlink:href="#m88de11b6f6" x="279.918422" y="98.283092" style="stroke: #ffffff; stroke-width: 0.48"/>
     <use xlink:href="#m88de11b6f6" x="287.607289" y="141.219504" style="stroke: #ffffff; stroke-width: 0.48"/>
     <use xlink:href="#m88de11b6f6" x="302.985022" y="136.721428" style="stroke: #ffffff; stroke-width: 0.48"/>
     <use xlink:href="#m88de11b6f6" x="313.013979" y="224.335587" style="stroke: #ffffff; stroke-width: 0.48"/>
     <use xlink:href="#m88de11b6f6" x="318.112032" y="192.401637" style="stroke: #ffffff; stroke-width: 0.48"/>
     <use xlink:href="#m88de11b6f6" x="325.800899" y="162.586095" style="stroke: #ffffff; stroke-width: 0.48"/>
     <use xlink:href="#m88de11b6f6" x="333.489765" y="209.4658" style="stroke: #ffffff; stroke-width: 0.48"/>
     <use xlink:href="#m88de11b6f6" x="341.011483" y="175.875812" style="stroke: #ffffff; stroke-width: 0.48"/>
     <use xlink:href="#m88de11b6f6" x="348.700349" y="276.299693" style="stroke: #ffffff; stroke-width: 0.48"/>
     <use xlink:href="#m88de11b6f6" x="356.389216" y="213.555629" style="stroke: #ffffff; stroke-width: 0.48"/>
     <use xlink:href="#m88de11b6f6" x="371.516226" y="224.153813" style="stroke: #ffffff; stroke-width: 0.48"/>
     <use xlink:href="#m88de11b6f6" x="379.205092" y="225.543818" style="stroke: #ffffff; stroke-width: 0.48"/>
     <use xlink:href="#m88de11b6f6" x="386.893959" y="203.890052" style="stroke: #ffffff; stroke-width: 0.48"/>
     <use xlink:href="#m88de11b6f6" x="394.582826" y="216.908057" style="stroke: #ffffff; stroke-width: 0.48"/>
     <use xlink:href="#m88de11b6f6" x="402.020969" y="263.420284" style="stroke: #ffffff; stroke-width: 0.48"/>
     <use xlink:href="#m88de11b6f6" x="409.709835" y="237.16069" style="stroke: #ffffff; stroke-width: 0.48"/>
     <use xlink:href="#m88de11b6f6" x="417.398702" y="219.531681" style="stroke: #ffffff; stroke-width: 0.48"/>
     <use xlink:href="#m88de11b6f6" x="425.087569" y="198.446424" style="stroke: #ffffff; stroke-width: 0.48"/>
     <use xlink:href="#m88de11b6f6" x="432.525711" y="153.475052" style="stroke: #ffffff; stroke-width: 0.48"/>
     <use xlink:href="#m88de11b6f6" x="440.214578" y="268.693942" style="stroke: #ffffff; stroke-width: 0.48"/>
     <use xlink:href="#m88de11b6f6" x="447.903445" y="266.063206" style="stroke: #ffffff; stroke-width: 0.48"/>
     <use xlink:href="#m88de11b6f6" x="455.592312" y="72.427826" style="stroke: #ffffff; stroke-width: 0.48"/>
     <use xlink:href="#m88de11b6f6" x="463.114029" y="280.078505" style="stroke: #ffffff; stroke-width: 0.48"/>
     <use xlink:href="#m88de11b6f6" x="468.212082" y="237.195445" style="stroke: #ffffff; stroke-width: 0.48"/>
     <use xlink:href="#m88de11b6f6" x="470.802896" y="221.500204" style="stroke: #ffffff; stroke-width: 0.48"/>
     <use xlink:href="#m88de11b6f6" x="478.491762" y="138.237508" style="stroke: #ffffff; stroke-width: 0.48"/>
     <use xlink:href="#m88de11b6f6" x="486.180629" y="202.095633" style="stroke: #ffffff; stroke-width: 0.48"/>
     <use xlink:href="#m88de11b6f6" x="493.618772" y="195.105801" style="stroke: #ffffff; stroke-width: 0.48"/>
     <use xlink:href="#m88de11b6f6" x="501.307639" y="229.543738" style="stroke: #ffffff; stroke-width: 0.48"/>
     <use xlink:href="#m88de11b6f6" x="508.996505" y="176.099511" style="stroke: #ffffff; stroke-width: 0.48"/>
     <use xlink:href="#m88de11b6f6" x="516.685372" y="187.66722" style="stroke: #ffffff; stroke-width: 0.48"/>
     <use xlink:href="#m88de11b6f6" x="524.123515" y="122.204735" style="stroke: #ffffff; stroke-width: 0.48"/>
     <use xlink:href="#m88de11b6f6" x="529.221568" y="229.710851" style="stroke: #ffffff; stroke-width: 0.48"/>
     <use xlink:href="#m88de11b6f6" x="539.501248" y="292.425027" style="stroke: #ffffff; stroke-width: 0.48"/>
     <use xlink:href="#m88de11b6f6" x="547.190115" y="307.8" style="stroke: #ffffff; stroke-width: 0.48"/>
     <use xlink:href="#m88de11b6f6" x="552.121018" y="132.128831" style="stroke: #ffffff; stroke-width: 0.48"/>
     <use xlink:href="#m88de11b6f6" x="562.317124" y="206.020157" style="stroke: #ffffff; stroke-width: 0.48"/>
     <use xlink:href="#m88de11b6f6" x="570.005991" y="186.469394" style="stroke: #ffffff; stroke-width: 0.48"/>
     <use xlink:href="#m88de11b6f6" x="577.694858" y="170.250506" style="stroke: #ffffff; stroke-width: 0.48"/>
     <use xlink:href="#m88de11b6f6" x="585.216575" y="230.16306" style="stroke: #ffffff; stroke-width: 0.48"/>
     <use xlink:href="#m88de11b6f6" x="587.807389" y="121.287383" style="stroke: #ffffff; stroke-width: 0.48"/>
     <use xlink:href="#m88de11b6f6" x="590.314628" y="132.499258" style="stroke: #ffffff; stroke-width: 0.48"/>
     <use xlink:href="#m88de11b6f6" x="592.905442" y="107.961235" style="stroke: #ffffff; stroke-width: 0.48"/>
     <use xlink:href="#m88de11b6f6" x="595.496256" y="147.575174" style="stroke: #ffffff; stroke-width: 0.48"/>
     <use xlink:href="#m88de11b6f6" x="598.003495" y="131.991819" style="stroke: #ffffff; stroke-width: 0.48"/>
     <use xlink:href="#m88de11b6f6" x="600.594309" y="154.179527" style="stroke: #ffffff; stroke-width: 0.48"/>
     <use xlink:href="#m88de11b6f6" x="605.692361" y="92.404069" style="stroke: #ffffff; stroke-width: 0.48"/>
     <use xlink:href="#m88de11b6f6" x="608.283175" y="151.658763" style="stroke: #ffffff; stroke-width: 0.48"/>
     <use xlink:href="#m88de11b6f6" x="610.623265" y="126.081968" style="stroke: #ffffff; stroke-width: 0.48"/>
     <use xlink:href="#m88de11b6f6" x="613.214079" y="130.81191" style="stroke: #ffffff; stroke-width: 0.48"/>
     <use xlink:href="#m88de11b6f6" x="615.721318" y="171.114997" style="stroke: #ffffff; stroke-width: 0.48"/>
     <use xlink:href="#m88de11b6f6" x="618.312132" y="142.666679" style="stroke: #ffffff; stroke-width: 0.48"/>
     <use xlink:href="#m88de11b6f6" x="620.819371" y="184.990642" style="stroke: #ffffff; stroke-width: 0.48"/>
     <use xlink:href="#m88de11b6f6" x="623.410185" y="161.396614" style="stroke: #ffffff; stroke-width: 0.48"/>
     <use xlink:href="#m88de11b6f6" x="626.000999" y="166.17197" style="stroke: #ffffff; stroke-width: 0.48"/>
     <use xlink:href="#m88de11b6f6" x="628.508238" y="177.799935" style="stroke: #ffffff; stroke-width: 0.48"/>
     <use xlink:href="#m88de11b6f6" x="631.099051" y="147.012876" style="stroke: #ffffff; stroke-width: 0.48"/>
     <use xlink:href="#m88de11b6f6" x="633.606291" y="141.053187" style="stroke: #ffffff; stroke-width: 0.48"/>
     <use xlink:href="#m88de11b6f6" x="636.197104" y="170.440866" style="stroke: #ffffff; stroke-width: 0.48"/>
     <use xlink:href="#m88de11b6f6" x="638.787918" y="193.024006" style="stroke: #ffffff; stroke-width: 0.48"/>
     <use xlink:href="#m88de11b6f6" x="641.128008" y="165.784433" style="stroke: #ffffff; stroke-width: 0.48"/>
     <use xlink:href="#m88de11b6f6" x="643.718822" y="200.894001" style="stroke: #ffffff; stroke-width: 0.48"/>
     <use xlink:href="#m88de11b6f6" x="646.226061" y="185.454771" style="stroke: #ffffff; stroke-width: 0.48"/>
     <use xlink:href="#m88de11b6f6" x="648.816875" y="197.711467" style="stroke: #ffffff; stroke-width: 0.48"/>
     <use xlink:href="#m88de11b6f6" x="651.324114" y="152.708622" style="stroke: #ffffff; stroke-width: 0.48"/>
     <use xlink:href="#m88de11b6f6" x="653.914928" y="123.42096" style="stroke: #ffffff; stroke-width: 0.48"/>
     <use xlink:href="#m88de11b6f6" x="656.505741" y="162.244192" style="stroke: #ffffff; stroke-width: 0.48"/>
     <use xlink:href="#m88de11b6f6" x="659.012981" y="96.048001" style="stroke: #ffffff; stroke-width: 0.48"/>
     <use xlink:href="#m88de11b6f6" x="661.603794" y="144.107963" style="stroke: #ffffff; stroke-width: 0.48"/>
     <use xlink:href="#m88de11b6f6" x="664.111033" y="134.190837" style="stroke: #ffffff; stroke-width: 0.48"/>
     <use xlink:href="#m88de11b6f6" x="666.701847" y="139.248959" style="stroke: #ffffff; stroke-width: 0.48"/>
     <use xlink:href="#m88de11b6f6" x="669.292661" y="151.658763" style="stroke: #ffffff; stroke-width: 0.48"/>
     <use xlink:href="#m88de11b6f6" x="671.632751" y="165.784433" style="stroke: #ffffff; stroke-width: 0.48"/>
     <use xlink:href="#m88de11b6f6" x="674.223565" y="158.821623" style="stroke: #ffffff; stroke-width: 0.48"/>
     <use xlink:href="#m88de11b6f6" x="679.321618" y="153.402114" style="stroke: #ffffff; stroke-width: 0.48"/>
     <use xlink:href="#m88de11b6f6" x="681.828857" y="126.680355" style="stroke: #ffffff; stroke-width: 0.48"/>
     <use xlink:href="#m88de11b6f6" x="684.41967" y="128.644709" style="stroke: #ffffff; stroke-width: 0.48"/>
     <use xlink:href="#m88de11b6f6" x="689.517723" y="179.593263" style="stroke: #ffffff; stroke-width: 0.48"/>
     <use xlink:href="#m88de11b6f6" x="692.108537" y="162.586095" style="stroke: #ffffff; stroke-width: 0.48"/>
     <use xlink:href="#m88de11b6f6" x="699.797404" y="133.428897" style="stroke: #ffffff; stroke-width: 0.48"/>
     <use xlink:href="#m88de11b6f6" x="704.811882" y="189.161383" style="stroke: #ffffff; stroke-width: 0.48"/>
     <use xlink:href="#m88de11b6f6" x="707.319121" y="166.377239" style="stroke: #ffffff; stroke-width: 0.48"/>
     <use xlink:href="#m88de11b6f6" x="709.909935" y="182.128201" style="stroke: #ffffff; stroke-width: 0.48"/>
     <use xlink:href="#m88de11b6f6" x="712.417174" y="196.076165" style="stroke: #ffffff; stroke-width: 0.48"/>
     <use xlink:href="#m88de11b6f6" x="715.007988" y="221.500204" style="stroke: #ffffff; stroke-width: 0.48"/>
     <use xlink:href="#m88de11b6f6" x="717.598802" y="217.732902" style="stroke: #ffffff; stroke-width: 0.48"/>
     <use xlink:href="#m88de11b6f6" x="720.106041" y="221.713556" style="stroke: #ffffff; stroke-width: 0.48"/>
     <use xlink:href="#m88de11b6f6" x="722.696855" y="230.220968" style="stroke: #ffffff; stroke-width: 0.48"/>
     <use xlink:href="#m88de11b6f6" x="725.204094" y="209.419624" style="stroke: #ffffff; stroke-width: 0.48"/>
     <use xlink:href="#m88de11b6f6" x="727.794908" y="178.95353" style="stroke: #ffffff; stroke-width: 0.48"/>
     <use xlink:href="#m88de11b6f6" x="730.385721" y="222.513722" style="stroke: #ffffff; stroke-width: 0.48"/>
     <use xlink:href="#m88de11b6f6" x="732.725811" y="206.577897" style="stroke: #ffffff; stroke-width: 0.48"/>
     <use xlink:href="#m88de11b6f6" x="735.316625" y="230.179736" style="stroke: #ffffff; stroke-width: 0.48"/>
     <use xlink:href="#m88de11b6f6" x="737.823864" y="224.153813" style="stroke: #ffffff; stroke-width: 0.48"/>
     <use xlink:href="#m88de11b6f6" x="740.414678" y="288.468115" style="stroke: #ffffff; stroke-width: 0.48"/>
     <use xlink:href="#m88de11b6f6" x="742.921917" y="227.589934" style="stroke: #ffffff; stroke-width: 0.48"/>
     <use xlink:href="#m88de11b6f6" x="745.512731" y="200.907885" style="stroke: #ffffff; stroke-width: 0.48"/>
     <use xlink:href="#m88de11b6f6" x="748.103545" y="248.396283" style="stroke: #ffffff; stroke-width: 0.48"/>
     <use xlink:href="#m88de11b6f6" x="750.610784" y="267.23201" style="stroke: #ffffff; stroke-width: 0.48"/>
     <use xlink:href="#m88de11b6f6" x="753.201598" y="215.950694" style="stroke: #ffffff; stroke-width: 0.48"/>
     <use xlink:href="#m88de11b6f6" x="755.708837" y="201.198503" style="stroke: #ffffff; stroke-width: 0.48"/>
     <use xlink:href="#m88de11b6f6" x="758.299651" y="232.59954" style="stroke: #ffffff; stroke-width: 0.48"/>
     <use xlink:href="#m88de11b6f6" x="760.890464" y="244.606348" style="stroke: #ffffff; stroke-width: 0.48"/>
     <use xlink:href="#m88de11b6f6" x="763.230554" y="225.731677" style="stroke: #ffffff; stroke-width: 0.48"/>
     <use xlink:href="#m88de11b6f6" x="765.821368" y="234.250376" style="stroke: #ffffff; stroke-width: 0.48"/>
     <use xlink:href="#m88de11b6f6" x="768.328607" y="202.374261" style="stroke: #ffffff; stroke-width: 0.48"/>
     <use xlink:href="#m88de11b6f6" x="770.919421" y="162.990388" style="stroke: #ffffff; stroke-width: 0.48"/>
     <use xlink:href="#m88de11b6f6" x="773.42666" y="195.064181" style="stroke: #ffffff; stroke-width: 0.48"/>
     <use xlink:href="#m88de11b6f6" x="776.017474" y="173.100626" style="stroke: #ffffff; stroke-width: 0.48"/>
     <use xlink:href="#m88de11b6f6" x="778.608288" y="201.37638" style="stroke: #ffffff; stroke-width: 0.48"/>
     <use xlink:href="#m88de11b6f6" x="781.115527" y="157.835226" style="stroke: #ffffff; stroke-width: 0.48"/>
     <use xlink:href="#m88de11b6f6" x="783.70634" y="158.410098" style="stroke: #ffffff; stroke-width: 0.48"/>
     <use xlink:href="#m88de11b6f6" x="786.21358" y="181.405927" style="stroke: #ffffff; stroke-width: 0.48"/>
     <use xlink:href="#m88de11b6f6" x="788.804393" y="197.236637" style="stroke: #ffffff; stroke-width: 0.48"/>
     <use xlink:href="#m88de11b6f6" x="791.395207" y="182.377505" style="stroke: #ffffff; stroke-width: 0.48"/>
     <use xlink:href="#m88de11b6f6" x="793.735297" y="137.443859" style="stroke: #ffffff; stroke-width: 0.48"/>
     <use xlink:href="#m88de11b6f6" x="796.326111" y="189.161383" style="stroke: #ffffff; stroke-width: 0.48"/>
     <use xlink:href="#m88de11b6f6" x="798.83335" y="195.105801" style="stroke: #ffffff; stroke-width: 0.48"/>
     <use xlink:href="#m88de11b6f6" x="801.424164" y="251.649584" style="stroke: #ffffff; stroke-width: 0.48"/>
     <use xlink:href="#m88de11b6f6" x="803.931403" y="150.662309" style="stroke: #ffffff; stroke-width: 0.48"/>
     <use xlink:href="#m88de11b6f6" x="806.522217" y="55.8" style="stroke: #ffffff; stroke-width: 0.48"/>
     <use xlink:href="#m88de11b6f6" x="809.11303" y="225.527903" style="stroke: #ffffff; stroke-width: 0.48"/>
     <use xlink:href="#m88de11b6f6" x="811.62027" y="234.7041" style="stroke: #ffffff; stroke-width: 0.48"/>
     <use xlink:href="#m88de11b6f6" x="814.211083" y="248.019628" style="stroke: #ffffff; stroke-width: 0.48"/>
     <use xlink:href="#m88de11b6f6" x="816.718323" y="248.880543" style="stroke: #ffffff; stroke-width: 0.48"/>
     <use xlink:href="#m88de11b6f6" x="819.309136" y="274.529026" style="stroke: #ffffff; stroke-width: 0.48"/>
     <use xlink:href="#m88de11b6f6" x="821.89995" y="233.687909" style="stroke: #ffffff; stroke-width: 0.48"/>
     <use xlink:href="#m88de11b6f6" x="829.421667" y="210.860573" style="stroke: #ffffff; stroke-width: 0.48"/>
     <use xlink:href="#m88de11b6f6" x="837.110534" y="302.121679" style="stroke: #ffffff; stroke-width: 0.48"/>
     <use xlink:href="#m88de11b6f6" x="844.799401" y="248.019628" style="stroke: #ffffff; stroke-width: 0.48"/>
     <use xlink:href="#m88de11b6f6" x="852.488268" y="237.370025" style="stroke: #ffffff; stroke-width: 0.48"/>
     <use xlink:href="#m88de11b6f6" x="859.92641" y="178.264007" style="stroke: #ffffff; stroke-width: 0.48"/>
     <use xlink:href="#m88de11b6f6" x="867.615277" y="207.830566" style="stroke: #ffffff; stroke-width: 0.48"/>
     <use xlink:href="#m88de11b6f6" x="875.304144" y="201.4466" style="stroke: #ffffff; stroke-width: 0.48"/>
     <use xlink:href="#m88de11b6f6" x="882.99301" y="200.26776" style="stroke: #ffffff; stroke-width: 0.48"/>
     <use xlink:href="#m88de11b6f6" x="890.431153" y="165.196619" style="stroke: #ffffff; stroke-width: 0.48"/>
     <use xlink:href="#m88de11b6f6" x="898.12002" y="162.364047" style="stroke: #ffffff; stroke-width: 0.48"/>
     <use xlink:href="#m88de11b6f6" x="905.808887" y="149.896348" style="stroke: #ffffff; stroke-width: 0.48"/>
     <use xlink:href="#m88de11b6f6" x="913.497753" y="133.428897" style="stroke: #ffffff; stroke-width: 0.48"/>
     <use xlink:href="#m88de11b6f6" x="920.935896" y="113.981493" style="stroke: #ffffff; stroke-width: 0.48"/>
     <use xlink:href="#m88de11b6f6" x="928.624763" y="155.176128" style="stroke: #ffffff; stroke-width: 0.48"/>
     <use xlink:href="#m88de11b6f6" x="936.31363" y="158.410098" style="stroke: #ffffff; stroke-width: 0.48"/>
     <use xlink:href="#m88de11b6f6" x="944.002496" y="148.321899" style="stroke: #ffffff; stroke-width: 0.48"/>
     <use xlink:href="#m88de11b6f6" x="959.21308" y="169.905098" style="stroke: #ffffff; stroke-width: 0.48"/>
     <use xlink:href="#m88de11b6f6" x="966.901947" y="201.4466" style="stroke: #ffffff; stroke-width: 0.48"/>
    </g>
   </g>
  </g>
 </g>
 <defs>
  <clipPath id="p1e6160218a">
   <rect x="135" y="43.2" width="837" height="277.2"/>
  </clipPath>
 </defs>
</svg>
