<?xml version="1.0" encoding="utf-8" standalone="no"?>
<!DOCTYPE svg PUBLIC "-//W3C//DTD SVG 1.1//EN"
  "http://www.w3.org/Graphics/SVG/1.1/DTD/svg11.dtd">
<svg xmlns:xlink="http://www.w3.org/1999/xlink" width="1080pt" height="360pt" viewBox="0 0 1080 360" xmlns="http://www.w3.org/2000/svg" version="1.1">
 <metadata>
  <rdf:RDF xmlns:dc="http://purl.org/dc/elements/1.1/" xmlns:cc="http://creativecommons.org/ns#" xmlns:rdf="http://www.w3.org/1999/02/22-rdf-syntax-ns#">
   <cc:Work>
    <dc:type rdf:resource="http://purl.org/dc/dcmitype/StillImage"/>
    <dc:date>2024-01-23T18:50:23.866109</dc:date>
    <dc:format>image/svg+xml</dc:format>
    <dc:creator>
     <cc:Agent>
      <dc:title>Matplotlib v3.8.2, https://matplotlib.org/</dc:title>
     </cc:Agent>
    </dc:creator>
   </cc:Work>
  </rdf:RDF>
 </metadata>
 <defs>
  <style type="text/css">*{stroke-linejoin: round; stroke-linecap: butt}</style>
 </defs>
 <g id="figure_1">
  <g id="patch_1">
   <path d="M 0 360 
L 1080 360 
L 1080 0 
L 0 0 
z
" style="fill: #ffffff"/>
  </g>
  <g id="axes_1">
   <g id="patch_2">
    <path d="M 135 320.4 
L 972 320.4 
L 972 43.2 
L 135 43.2 
z
" style="fill: #ffffff"/>
   </g>
   <g id="PolyCollection_1"/>
   <g id="matplotlib.axis_1">
    <g id="xtick_1">
     <g id="line2d_1">
      <defs>
       <path id="m961fe24bef" d="M 0 0 
L 0 3.5 
" style="stroke: #000000; stroke-width: 0.8"/>
      </defs>
      <g>
       <use xlink:href="#m961fe24bef" x="160.660749" y="320.4" style="stroke: #000000; stroke-width: 0.8"/>
      </g>
     </g>
     <g id="text_1">
      <!-- 1992 -->
      <g transform="translate(147.935749 334.998438) scale(0.1 -0.1)">
       <defs>
        <path id="DejaVuSans-31" d="M 794 531 
L 1825 531 
L 1825 4091 
L 703 3866 
L 703 4441 
L 1819 4666 
L 2450 4666 
L 2450 531 
L 3481 531 
L 3481 0 
L 794 0 
L 794 531 
z
" transform="scale(0.015625)"/>
        <path id="DejaVuSans-39" d="M 703 97 
L 703 672 
Q 941 559 1184 500 
Q 1428 441 1663 441 
Q 2288 441 2617 861 
Q 2947 1281 2994 2138 
Q 2813 1869 2534 1725 
Q 2256 1581 1919 1581 
Q 1219 1581 811 2004 
Q 403 2428 403 3163 
Q 403 3881 828 4315 
Q 1253 4750 1959 4750 
Q 2769 4750 3195 4129 
Q 3622 3509 3622 2328 
Q 3622 1225 3098 567 
Q 2575 -91 1691 -91 
Q 1453 -91 1209 -44 
Q 966 3 703 97 
z
M 1959 2075 
Q 2384 2075 2632 2365 
Q 2881 2656 2881 3163 
Q 2881 3666 2632 3958 
Q 2384 4250 1959 4250 
Q 1534 4250 1286 3958 
Q 1038 3666 1038 3163 
Q 1038 2656 1286 2365 
Q 1534 2075 1959 2075 
z
" transform="scale(0.015625)"/>
        <path id="DejaVuSans-32" d="M 1228 531 
L 3431 531 
L 3431 0 
L 469 0 
L 469 531 
Q 828 903 1448 1529 
Q 2069 2156 2228 2338 
Q 2531 2678 2651 2914 
Q 2772 3150 2772 3378 
Q 2772 3750 2511 3984 
Q 2250 4219 1831 4219 
Q 1534 4219 1204 4116 
Q 875 4013 500 3803 
L 500 4441 
Q 881 4594 1212 4672 
Q 1544 4750 1819 4750 
Q 2544 4750 2975 4387 
Q 3406 4025 3406 3419 
Q 3406 3131 3298 2873 
Q 3191 2616 2906 2266 
Q 2828 2175 2409 1742 
Q 1991 1309 1228 531 
z
" transform="scale(0.015625)"/>
       </defs>
       <use xlink:href="#DejaVuSans-31"/>
       <use xlink:href="#DejaVuSans-39" x="63.623047"/>
       <use xlink:href="#DejaVuSans-39" x="127.246094"/>
       <use xlink:href="#DejaVuSans-32" x="190.869141"/>
      </g>
     </g>
    </g>
    <g id="xtick_2">
     <g id="line2d_2">
      <g>
       <use xlink:href="#m961fe24bef" x="272.572252" y="320.4" style="stroke: #000000; stroke-width: 0.8"/>
      </g>
     </g>
     <g id="text_2">
      <!-- 1996 -->
      <g transform="translate(259.847252 334.998438) scale(0.1 -0.1)">
       <defs>
        <path id="DejaVuSans-36" d="M 2113 2584 
Q 1688 2584 1439 2293 
Q 1191 2003 1191 1497 
Q 1191 994 1439 701 
Q 1688 409 2113 409 
Q 2538 409 2786 701 
Q 3034 994 3034 1497 
Q 3034 2003 2786 2293 
Q 2538 2584 2113 2584 
z
M 3366 4563 
L 3366 3988 
Q 3128 4100 2886 4159 
Q 2644 4219 2406 4219 
Q 1781 4219 1451 3797 
Q 1122 3375 1075 2522 
Q 1259 2794 1537 2939 
Q 1816 3084 2150 3084 
Q 2853 3084 3261 2657 
Q 3669 2231 3669 1497 
Q 3669 778 3244 343 
Q 2819 -91 2113 -91 
Q 1303 -91 875 529 
Q 447 1150 447 2328 
Q 447 3434 972 4092 
Q 1497 4750 2381 4750 
Q 2619 4750 2861 4703 
Q 3103 4656 3366 4563 
z
" transform="scale(0.015625)"/>
       </defs>
       <use xlink:href="#DejaVuSans-31"/>
       <use xlink:href="#DejaVuSans-39" x="63.623047"/>
       <use xlink:href="#DejaVuSans-39" x="127.246094"/>
       <use xlink:href="#DejaVuSans-36" x="190.869141"/>
      </g>
     </g>
    </g>
    <g id="xtick_3">
     <g id="line2d_3">
      <g>
       <use xlink:href="#m961fe24bef" x="384.483756" y="320.4" style="stroke: #000000; stroke-width: 0.8"/>
      </g>
     </g>
     <g id="text_3">
      <!-- 2000 -->
      <g transform="translate(371.758756 334.998438) scale(0.1 -0.1)">
       <defs>
        <path id="DejaVuSans-30" d="M 2034 4250 
Q 1547 4250 1301 3770 
Q 1056 3291 1056 2328 
Q 1056 1369 1301 889 
Q 1547 409 2034 409 
Q 2525 409 2770 889 
Q 3016 1369 3016 2328 
Q 3016 3291 2770 3770 
Q 2525 4250 2034 4250 
z
M 2034 4750 
Q 2819 4750 3233 4129 
Q 3647 3509 3647 2328 
Q 3647 1150 3233 529 
Q 2819 -91 2034 -91 
Q 1250 -91 836 529 
Q 422 1150 422 2328 
Q 422 3509 836 4129 
Q 1250 4750 2034 4750 
z
" transform="scale(0.015625)"/>
       </defs>
       <use xlink:href="#DejaVuSans-32"/>
       <use xlink:href="#DejaVuSans-30" x="63.623047"/>
       <use xlink:href="#DejaVuSans-30" x="127.246094"/>
       <use xlink:href="#DejaVuSans-30" x="190.869141"/>
      </g>
     </g>
    </g>
    <g id="xtick_4">
     <g id="line2d_4">
      <g>
       <use xlink:href="#m961fe24bef" x="496.395259" y="320.4" style="stroke: #000000; stroke-width: 0.8"/>
      </g>
     </g>
     <g id="text_4">
      <!-- 2004 -->
      <g transform="translate(483.670259 334.998438) scale(0.1 -0.1)">
       <defs>
        <path id="DejaVuSans-34" d="M 2419 4116 
L 825 1625 
L 2419 1625 
L 2419 4116 
z
M 2253 4666 
L 3047 4666 
L 3047 1625 
L 3713 1625 
L 3713 1100 
L 3047 1100 
L 3047 0 
L 2419 0 
L 2419 1100 
L 313 1100 
L 313 1709 
L 2253 4666 
z
" transform="scale(0.015625)"/>
       </defs>
       <use xlink:href="#DejaVuSans-32"/>
       <use xlink:href="#DejaVuSans-30" x="63.623047"/>
       <use xlink:href="#DejaVuSans-30" x="127.246094"/>
       <use xlink:href="#DejaVuSans-34" x="190.869141"/>
      </g>
     </g>
    </g>
    <g id="xtick_5">
     <g id="line2d_5">
      <g>
       <use xlink:href="#m961fe24bef" x="608.306763" y="320.4" style="stroke: #000000; stroke-width: 0.8"/>
      </g>
     </g>
     <g id="text_5">
      <!-- 2008 -->
      <g transform="translate(595.581763 334.998438) scale(0.1 -0.1)">
       <defs>
        <path id="DejaVuSans-38" d="M 2034 2216 
Q 1584 2216 1326 1975 
Q 1069 1734 1069 1313 
Q 1069 891 1326 650 
Q 1584 409 2034 409 
Q 2484 409 2743 651 
Q 3003 894 3003 1313 
Q 3003 1734 2745 1975 
Q 2488 2216 2034 2216 
z
M 1403 2484 
Q 997 2584 770 2862 
Q 544 3141 544 3541 
Q 544 4100 942 4425 
Q 1341 4750 2034 4750 
Q 2731 4750 3128 4425 
Q 3525 4100 3525 3541 
Q 3525 3141 3298 2862 
Q 3072 2584 2669 2484 
Q 3125 2378 3379 2068 
Q 3634 1759 3634 1313 
Q 3634 634 3220 271 
Q 2806 -91 2034 -91 
Q 1263 -91 848 271 
Q 434 634 434 1313 
Q 434 1759 690 2068 
Q 947 2378 1403 2484 
z
M 1172 3481 
Q 1172 3119 1398 2916 
Q 1625 2713 2034 2713 
Q 2441 2713 2670 2916 
Q 2900 3119 2900 3481 
Q 2900 3844 2670 4047 
Q 2441 4250 2034 4250 
Q 1625 4250 1398 4047 
Q 1172 3844 1172 3481 
z
" transform="scale(0.015625)"/>
       </defs>
       <use xlink:href="#DejaVuSans-32"/>
       <use xlink:href="#DejaVuSans-30" x="63.623047"/>
       <use xlink:href="#DejaVuSans-30" x="127.246094"/>
       <use xlink:href="#DejaVuSans-38" x="190.869141"/>
      </g>
     </g>
    </g>
    <g id="xtick_6">
     <g id="line2d_6">
      <g>
       <use xlink:href="#m961fe24bef" x="720.218267" y="320.4" style="stroke: #000000; stroke-width: 0.8"/>
      </g>
     </g>
     <g id="text_6">
      <!-- 2012 -->
      <g transform="translate(707.493267 334.998438) scale(0.1 -0.1)">
       <use xlink:href="#DejaVuSans-32"/>
       <use xlink:href="#DejaVuSans-30" x="63.623047"/>
       <use xlink:href="#DejaVuSans-31" x="127.246094"/>
       <use xlink:href="#DejaVuSans-32" x="190.869141"/>
      </g>
     </g>
    </g>
    <g id="xtick_7">
     <g id="line2d_7">
      <g>
       <use xlink:href="#m961fe24bef" x="832.12977" y="320.4" style="stroke: #000000; stroke-width: 0.8"/>
      </g>
     </g>
     <g id="text_7">
      <!-- 2016 -->
      <g transform="translate(819.40477 334.998438) scale(0.1 -0.1)">
       <use xlink:href="#DejaVuSans-32"/>
       <use xlink:href="#DejaVuSans-30" x="63.623047"/>
       <use xlink:href="#DejaVuSans-31" x="127.246094"/>
       <use xlink:href="#DejaVuSans-36" x="190.869141"/>
      </g>
     </g>
    </g>
    <g id="xtick_8">
     <g id="line2d_8">
      <g>
       <use xlink:href="#m961fe24bef" x="944.041274" y="320.4" style="stroke: #000000; stroke-width: 0.8"/>
      </g>
     </g>
     <g id="text_8">
      <!-- 2020 -->
      <g transform="translate(931.316274 334.998438) scale(0.1 -0.1)">
       <use xlink:href="#DejaVuSans-32"/>
       <use xlink:href="#DejaVuSans-30" x="63.623047"/>
       <use xlink:href="#DejaVuSans-32" x="127.246094"/>
       <use xlink:href="#DejaVuSans-30" x="190.869141"/>
      </g>
     </g>
    </g>
   </g>
   <g id="matplotlib.axis_2">
    <g id="ytick_1">
     <g id="line2d_9">
      <defs>
       <path id="m8485ebfd6c" d="M 0 0 
L -3.5 0 
" style="stroke: #000000; stroke-width: 0.8"/>
      </defs>
      <g>
       <use xlink:href="#m8485ebfd6c" x="135" y="307.743603" style="stroke: #000000; stroke-width: 0.8"/>
      </g>
     </g>
     <g id="text_9">
      <!-- −2.0 -->
      <g transform="translate(103.717187 311.542821) scale(0.1 -0.1)">
       <defs>
        <path id="DejaVuSans-2212" d="M 678 2272 
L 4684 2272 
L 4684 1741 
L 678 1741 
L 678 2272 
z
" transform="scale(0.015625)"/>
        <path id="DejaVuSans-2e" d="M 684 794 
L 1344 794 
L 1344 0 
L 684 0 
L 684 794 
z
" transform="scale(0.015625)"/>
       </defs>
       <use xlink:href="#DejaVuSans-2212"/>
       <use xlink:href="#DejaVuSans-32" x="83.789062"/>
       <use xlink:href="#DejaVuSans-2e" x="147.412109"/>
       <use xlink:href="#DejaVuSans-30" x="179.199219"/>
      </g>
     </g>
    </g>
    <g id="ytick_2">
     <g id="line2d_10">
      <g>
       <use xlink:href="#m8485ebfd6c" x="135" y="274.703974" style="stroke: #000000; stroke-width: 0.8"/>
      </g>
     </g>
     <g id="text_10">
      <!-- −1.5 -->
      <g transform="translate(103.717187 278.503193) scale(0.1 -0.1)">
       <defs>
        <path id="DejaVuSans-35" d="M 691 4666 
L 3169 4666 
L 3169 4134 
L 1269 4134 
L 1269 2991 
Q 1406 3038 1543 3061 
Q 1681 3084 1819 3084 
Q 2600 3084 3056 2656 
Q 3513 2228 3513 1497 
Q 3513 744 3044 326 
Q 2575 -91 1722 -91 
Q 1428 -91 1123 -41 
Q 819 9 494 109 
L 494 744 
Q 775 591 1075 516 
Q 1375 441 1709 441 
Q 2250 441 2565 725 
Q 2881 1009 2881 1497 
Q 2881 1984 2565 2268 
Q 2250 2553 1709 2553 
Q 1456 2553 1204 2497 
Q 953 2441 691 2322 
L 691 4666 
z
" transform="scale(0.015625)"/>
       </defs>
       <use xlink:href="#DejaVuSans-2212"/>
       <use xlink:href="#DejaVuSans-31" x="83.789062"/>
       <use xlink:href="#DejaVuSans-2e" x="147.412109"/>
       <use xlink:href="#DejaVuSans-35" x="179.199219"/>
      </g>
     </g>
    </g>
    <g id="ytick_3">
     <g id="line2d_11">
      <g>
       <use xlink:href="#m8485ebfd6c" x="135" y="241.664346" style="stroke: #000000; stroke-width: 0.8"/>
      </g>
     </g>
     <g id="text_11">
      <!-- −1.0 -->
      <g transform="translate(103.717187 245.463565) scale(0.1 -0.1)">
       <use xlink:href="#DejaVuSans-2212"/>
       <use xlink:href="#DejaVuSans-31" x="83.789062"/>
       <use xlink:href="#DejaVuSans-2e" x="147.412109"/>
       <use xlink:href="#DejaVuSans-30" x="179.199219"/>
      </g>
     </g>
    </g>
    <g id="ytick_4">
     <g id="line2d_12">
      <g>
       <use xlink:href="#m8485ebfd6c" x="135" y="208.624718" style="stroke: #000000; stroke-width: 0.8"/>
      </g>
     </g>
     <g id="text_12">
      <!-- −0.5 -->
      <g transform="translate(103.717187 212.423937) scale(0.1 -0.1)">
       <use xlink:href="#DejaVuSans-2212"/>
       <use xlink:href="#DejaVuSans-30" x="83.789062"/>
       <use xlink:href="#DejaVuSans-2e" x="147.412109"/>
       <use xlink:href="#DejaVuSans-35" x="179.199219"/>
      </g>
     </g>
    </g>
    <g id="ytick_5">
     <g id="line2d_13">
      <g>
       <use xlink:href="#m8485ebfd6c" x="135" y="175.58509" style="stroke: #000000; stroke-width: 0.8"/>
      </g>
     </g>
     <g id="text_13">
      <!-- 0.0 -->
      <g transform="translate(112.096875 179.384309) scale(0.1 -0.1)">
       <use xlink:href="#DejaVuSans-30"/>
       <use xlink:href="#DejaVuSans-2e" x="63.623047"/>
       <use xlink:href="#DejaVuSans-30" x="95.410156"/>
      </g>
     </g>
    </g>
    <g id="ytick_6">
     <g id="line2d_14">
      <g>
       <use xlink:href="#m8485ebfd6c" x="135" y="142.545462" style="stroke: #000000; stroke-width: 0.8"/>
      </g>
     </g>
     <g id="text_14">
      <!-- 0.5 -->
      <g transform="translate(112.096875 146.34468) scale(0.1 -0.1)">
       <use xlink:href="#DejaVuSans-30"/>
       <use xlink:href="#DejaVuSans-2e" x="63.623047"/>
       <use xlink:href="#DejaVuSans-35" x="95.410156"/>
      </g>
     </g>
    </g>
    <g id="ytick_7">
     <g id="line2d_15">
      <g>
       <use xlink:href="#m8485ebfd6c" x="135" y="109.505833" style="stroke: #000000; stroke-width: 0.8"/>
      </g>
     </g>
     <g id="text_15">
      <!-- 1.0 -->
      <g transform="translate(112.096875 113.305052) scale(0.1 -0.1)">
       <use xlink:href="#DejaVuSans-31"/>
       <use xlink:href="#DejaVuSans-2e" x="63.623047"/>
       <use xlink:href="#DejaVuSans-30" x="95.410156"/>
      </g>
     </g>
    </g>
    <g id="ytick_8">
     <g id="line2d_16">
      <g>
       <use xlink:href="#m8485ebfd6c" x="135" y="76.466205" style="stroke: #000000; stroke-width: 0.8"/>
      </g>
     </g>
     <g id="text_16">
      <!-- 1.5 -->
      <g transform="translate(112.096875 80.265424) scale(0.1 -0.1)">
       <use xlink:href="#DejaVuSans-31"/>
       <use xlink:href="#DejaVuSans-2e" x="63.623047"/>
       <use xlink:href="#DejaVuSans-35" x="95.410156"/>
      </g>
     </g>
    </g>
    <g id="ytick_9">
     <g id="line2d_17">
      <g>
       <use xlink:href="#m8485ebfd6c" x="135" y="43.426577" style="stroke: #000000; stroke-width: 0.8"/>
      </g>
     </g>
     <g id="text_17">
      <!-- 2.0 -->
      <g transform="translate(112.096875 47.225796) scale(0.1 -0.1)">
       <use xlink:href="#DejaVuSans-32"/>
       <use xlink:href="#DejaVuSans-2e" x="63.623047"/>
       <use xlink:href="#DejaVuSans-30" x="95.410156"/>
      </g>
     </g>
    </g>
    <g id="text_18">
     <!-- SGI -->
     <g transform="translate(97.6375 190.323437) rotate(-90) scale(0.1 -0.1)">
      <defs>
       <path id="DejaVuSans-53" d="M 3425 4513 
L 3425 3897 
Q 3066 4069 2747 4153 
Q 2428 4238 2131 4238 
Q 1616 4238 1336 4038 
Q 1056 3838 1056 3469 
Q 1056 3159 1242 3001 
Q 1428 2844 1947 2747 
L 2328 2669 
Q 3034 2534 3370 2195 
Q 3706 1856 3706 1288 
Q 3706 609 3251 259 
Q 2797 -91 1919 -91 
Q 1588 -91 1214 -16 
Q 841 59 441 206 
L 441 856 
Q 825 641 1194 531 
Q 1563 422 1919 422 
Q 2459 422 2753 634 
Q 3047 847 3047 1241 
Q 3047 1584 2836 1778 
Q 2625 1972 2144 2069 
L 1759 2144 
Q 1053 2284 737 2584 
Q 422 2884 422 3419 
Q 422 4038 858 4394 
Q 1294 4750 2059 4750 
Q 2388 4750 2728 4690 
Q 3069 4631 3425 4513 
z
" transform="scale(0.015625)"/>
       <path id="DejaVuSans-47" d="M 3809 666 
L 3809 1919 
L 2778 1919 
L 2778 2438 
L 4434 2438 
L 4434 434 
Q 4069 175 3628 42 
Q 3188 -91 2688 -91 
Q 1594 -91 976 548 
Q 359 1188 359 2328 
Q 359 3472 976 4111 
Q 1594 4750 2688 4750 
Q 3144 4750 3555 4637 
Q 3966 4525 4313 4306 
L 4313 3634 
Q 3963 3931 3569 4081 
Q 3175 4231 2741 4231 
Q 1884 4231 1454 3753 
Q 1025 3275 1025 2328 
Q 1025 1384 1454 906 
Q 1884 428 2741 428 
Q 3075 428 3337 486 
Q 3600 544 3809 666 
z
" transform="scale(0.015625)"/>
       <path id="DejaVuSans-49" d="M 628 4666 
L 1259 4666 
L 1259 0 
L 628 0 
L 628 4666 
z
" transform="scale(0.015625)"/>
      </defs>
      <use xlink:href="#DejaVuSans-53"/>
      <use xlink:href="#DejaVuSans-47" x="63.476562"/>
      <use xlink:href="#DejaVuSans-49" x="140.966797"/>
     </g>
    </g>
   </g>
   <g id="line2d_18">
    <path d="M 221.097557 267.948779 
L 235.191818 263.465724 
L 239.864373 279.378352 
L 242.16235 160.349935 
L 249.056283 126.992368 
L 256.103414 206.461239 
L 265.448522 145.871758 
L 274.87023 210.452086 
L 281.764162 179.632788 
L 288.811293 241.606894 
L 295.858424 135.213391 
L 305.050334 112.307185 
L 309.722888 127.816486 
L 316.770019 148.54442 
L 323.81715 177.925102 
L 330.864281 222.684303 
L 337.681614 120.709918 
L 344.728745 186.307574 
L 358.823007 179.010602 
L 365.64034 192.659413 
L 372.687471 222.347659 
L 379.734602 208.095649 
L 386.781733 248.727055 
L 393.675666 260.635547 
L 400.722797 277.039406 
L 410.067905 256.886419 
L 424.008969 232.5839 
L 428.681523 230.444979 
L 435.728654 293.959198 
L 442.775785 302.749551 
L 449.593118 266.944684 
L 456.640249 215.372436 
L 463.68738 223.772986 
L 470.734511 245.490304 
L 477.551844 157.125391 
L 484.598975 236.90887 
L 491.646106 252.739665 
L 498.693237 70.479874 
L 505.587169 307.8 
L 510.259724 212.924559 
L 512.6343 193.610841 
L 519.681431 114.018818 
L 526.728562 177.604358 
L 533.545895 206.011401 
L 540.593026 195.883278 
L 547.640157 120.722757 
L 554.687288 55.8 
L 561.504622 102.935631 
L 566.177176 185.935571 
L 575.598883 80.704189 
L 582.646014 144.789097 
L 587.16537 78.744896 
L 589.463348 126.087218 
L 596.510479 202.125468 
L 603.55761 193.365553 
L 610.604741 169.085968 
L 617.498673 101.879733 
L 619.87325 153.523727 
L 622.171227 158.667097 
L 626.920381 175.822889 
L 631.592935 171.846915 
L 636.265489 196.34048 
L 638.640066 140.587898 
L 640.784845 181.377307 
L 643.159422 175.585096 
L 645.457399 135.204673 
L 647.831976 118.926235 
L 650.129953 193.291133 
L 652.50453 158.972391 
L 654.879107 150.888137 
L 657.177084 170.741978 
L 659.551661 200.270469 
L 661.849639 132.473038 
L 664.224215 91.231203 
L 666.598792 146.199922 
L 668.743571 165.192729 
L 671.118148 132.664492 
L 675.790702 150.689403 
L 678.088679 133.9165 
L 682.837833 125.315951 
L 685.13581 131.472812 
L 687.510387 158.216597 
L 689.808365 186.655104 
L 692.182941 182.511825 
L 694.557518 181.808831 
L 696.702297 162.068072 
L 699.076874 143.507574 
L 703.749428 129.159323 
L 706.047406 130.526522 
L 708.421982 165.486474 
L 715.469113 212.435532 
L 722.516244 173.361334 
L 727.112199 249.737703 
L 729.410177 220.348331 
L 731.784753 200.230849 
L 734.082731 191.26079 
L 736.457308 211.96957 
L 738.831884 207.041318 
L 741.129862 223.745162 
L 743.504439 211.360391 
L 745.802416 193.543779 
L 748.176993 235.819124 
L 750.55157 194.081646 
L 752.696348 198.646535 
L 755.070925 225.044942 
L 757.368903 211.750439 
L 759.743479 236.628968 
L 762.041457 277.124733 
L 764.416034 105.373573 
L 766.79061 146.502835 
L 769.088588 207.172655 
L 771.463165 129.983786 
L 773.761142 135.064357 
L 776.135719 161.386622 
L 778.510296 157.610651 
L 780.655075 201.590252 
L 783.029651 213.108253 
L 785.327629 94.301268 
L 787.702206 156.745765 
L 790.000183 113.994761 
L 792.37476 55.997937 
L 799.421891 182.735617 
L 806.469022 129.694333 
L 813.286355 222.59918 
L 820.333486 141.497644 
L 834.427748 127.061373 
L 841.32168 171.919073 
L 848.368811 116.978353 
L 855.415942 164.454231 
L 862.463073 201.871713 
L 869.280406 235.730257 
L 876.327537 120.449554 
L 883.374668 98.992174 
L 890.421799 187.336246 
L 897.239132 158.773543 
L 904.286263 110.539586 
L 911.333394 142.976125 
L 918.380525 273.982951 
L 925.197859 185.377174 
L 932.244989 114.146244 
L 939.29212 149.372161 
L 946.339251 107.837018 
L 953.233184 125.210693 
L 960.280315 186.307574 
L 967.327446 171.846915 
L 967.327446 171.846915 
" clip-path="url(#p20be389e30)" style="fill: none; stroke: #7f7f7f; stroke-width: 1.5; stroke-linecap: square"/>
   </g>
   <g id="line2d_19">
    <path d="M 135 175.58509 
L 972 175.58509 
" clip-path="url(#p20be389e30)" style="fill: none; stroke: #000000; stroke-width: 1.5; stroke-linecap: square"/>
   </g>
   <g id="patch_3">
    <path d="M 135 320.4 
L 135 43.2 
" style="fill: none; stroke: #000000; stroke-width: 0.8; stroke-linejoin: miter; stroke-linecap: square"/>
   </g>
   <g id="patch_4">
    <path d="M 135 320.4 
L 972 320.4 
" style="fill: none; stroke: #000000; stroke-width: 0.8; stroke-linejoin: miter; stroke-linecap: square"/>
   </g>
   <g id="text_19">
    <!-- SGI for GWIC ID 129952 -->
    <g transform="translate(135 37.2) scale(0.12 -0.12)">
     <defs>
      <path id="DejaVuSans-Bold-53" d="M 3834 4519 
L 3834 3531 
Q 3450 3703 3084 3790 
Q 2719 3878 2394 3878 
Q 1963 3878 1756 3759 
Q 1550 3641 1550 3391 
Q 1550 3203 1689 3098 
Q 1828 2994 2194 2919 
L 2706 2816 
Q 3484 2659 3812 2340 
Q 4141 2022 4141 1434 
Q 4141 663 3683 286 
Q 3225 -91 2284 -91 
Q 1841 -91 1394 -6 
Q 947 78 500 244 
L 500 1259 
Q 947 1022 1364 901 
Q 1781 781 2169 781 
Q 2563 781 2772 912 
Q 2981 1044 2981 1288 
Q 2981 1506 2839 1625 
Q 2697 1744 2272 1838 
L 1806 1941 
Q 1106 2091 782 2419 
Q 459 2747 459 3303 
Q 459 4000 909 4375 
Q 1359 4750 2203 4750 
Q 2588 4750 2994 4692 
Q 3400 4634 3834 4519 
z
" transform="scale(0.015625)"/>
      <path id="DejaVuSans-Bold-47" d="M 4781 347 
Q 4331 128 3847 18 
Q 3363 -91 2847 -91 
Q 1681 -91 1000 561 
Q 319 1213 319 2328 
Q 319 3456 1012 4103 
Q 1706 4750 2913 4750 
Q 3378 4750 3804 4662 
Q 4231 4575 4609 4403 
L 4609 3438 
Q 4219 3659 3833 3768 
Q 3447 3878 3059 3878 
Q 2341 3878 1952 3476 
Q 1563 3075 1563 2328 
Q 1563 1588 1938 1184 
Q 2313 781 3003 781 
Q 3191 781 3352 804 
Q 3513 828 3641 878 
L 3641 1784 
L 2906 1784 
L 2906 2591 
L 4781 2591 
L 4781 347 
z
" transform="scale(0.015625)"/>
      <path id="DejaVuSans-Bold-49" d="M 588 4666 
L 1791 4666 
L 1791 0 
L 588 0 
L 588 4666 
z
" transform="scale(0.015625)"/>
      <path id="DejaVuSans-Bold-20" transform="scale(0.015625)"/>
      <path id="DejaVuSans-Bold-66" d="M 2841 4863 
L 2841 4128 
L 2222 4128 
Q 1984 4128 1890 4042 
Q 1797 3956 1797 3744 
L 1797 3500 
L 2753 3500 
L 2753 2700 
L 1797 2700 
L 1797 0 
L 678 0 
L 678 2700 
L 122 2700 
L 122 3500 
L 678 3500 
L 678 3744 
Q 678 4316 997 4589 
Q 1316 4863 1984 4863 
L 2841 4863 
z
" transform="scale(0.015625)"/>
      <path id="DejaVuSans-Bold-6f" d="M 2203 2784 
Q 1831 2784 1636 2517 
Q 1441 2250 1441 1747 
Q 1441 1244 1636 976 
Q 1831 709 2203 709 
Q 2569 709 2762 976 
Q 2956 1244 2956 1747 
Q 2956 2250 2762 2517 
Q 2569 2784 2203 2784 
z
M 2203 3584 
Q 3106 3584 3614 3096 
Q 4122 2609 4122 1747 
Q 4122 884 3614 396 
Q 3106 -91 2203 -91 
Q 1297 -91 786 396 
Q 275 884 275 1747 
Q 275 2609 786 3096 
Q 1297 3584 2203 3584 
z
" transform="scale(0.015625)"/>
      <path id="DejaVuSans-Bold-72" d="M 3138 2547 
Q 2991 2616 2845 2648 
Q 2700 2681 2553 2681 
Q 2122 2681 1889 2404 
Q 1656 2128 1656 1613 
L 1656 0 
L 538 0 
L 538 3500 
L 1656 3500 
L 1656 2925 
Q 1872 3269 2151 3426 
Q 2431 3584 2822 3584 
Q 2878 3584 2943 3579 
Q 3009 3575 3134 3559 
L 3138 2547 
z
" transform="scale(0.015625)"/>
      <path id="DejaVuSans-Bold-57" d="M 191 4666 
L 1344 4666 
L 2150 1275 
L 2950 4666 
L 4109 4666 
L 4909 1275 
L 5716 4666 
L 6859 4666 
L 5759 0 
L 4372 0 
L 3525 3547 
L 2688 0 
L 1300 0 
L 191 4666 
z
" transform="scale(0.015625)"/>
      <path id="DejaVuSans-Bold-43" d="M 4288 256 
Q 3956 84 3597 -3 
Q 3238 -91 2847 -91 
Q 1681 -91 1000 561 
Q 319 1213 319 2328 
Q 319 3447 1000 4098 
Q 1681 4750 2847 4750 
Q 3238 4750 3597 4662 
Q 3956 4575 4288 4403 
L 4288 3438 
Q 3953 3666 3628 3772 
Q 3303 3878 2944 3878 
Q 2300 3878 1931 3465 
Q 1563 3053 1563 2328 
Q 1563 1606 1931 1193 
Q 2300 781 2944 781 
Q 3303 781 3628 887 
Q 3953 994 4288 1222 
L 4288 256 
z
" transform="scale(0.015625)"/>
      <path id="DejaVuSans-Bold-44" d="M 1791 3756 
L 1791 909 
L 2222 909 
Q 2959 909 3348 1275 
Q 3738 1641 3738 2338 
Q 3738 3031 3350 3393 
Q 2963 3756 2222 3756 
L 1791 3756 
z
M 588 4666 
L 1856 4666 
Q 2919 4666 3439 4514 
Q 3959 4363 4331 4000 
Q 4659 3684 4818 3271 
Q 4978 2859 4978 2338 
Q 4978 1809 4818 1395 
Q 4659 981 4331 666 
Q 3956 303 3431 151 
Q 2906 0 1856 0 
L 588 0 
L 588 4666 
z
" transform="scale(0.015625)"/>
      <path id="DejaVuSans-Bold-31" d="M 750 831 
L 1813 831 
L 1813 3847 
L 722 3622 
L 722 4441 
L 1806 4666 
L 2950 4666 
L 2950 831 
L 4013 831 
L 4013 0 
L 750 0 
L 750 831 
z
" transform="scale(0.015625)"/>
      <path id="DejaVuSans-Bold-32" d="M 1844 884 
L 3897 884 
L 3897 0 
L 506 0 
L 506 884 
L 2209 2388 
Q 2438 2594 2547 2791 
Q 2656 2988 2656 3200 
Q 2656 3528 2436 3728 
Q 2216 3928 1850 3928 
Q 1569 3928 1234 3808 
Q 900 3688 519 3450 
L 519 4475 
Q 925 4609 1322 4679 
Q 1719 4750 2100 4750 
Q 2938 4750 3402 4381 
Q 3866 4013 3866 3353 
Q 3866 2972 3669 2642 
Q 3472 2313 2841 1759 
L 1844 884 
z
" transform="scale(0.015625)"/>
      <path id="DejaVuSans-Bold-39" d="M 641 103 
L 641 966 
Q 928 831 1190 764 
Q 1453 697 1709 697 
Q 2247 697 2547 995 
Q 2847 1294 2900 1881 
Q 2688 1725 2447 1647 
Q 2206 1569 1925 1569 
Q 1209 1569 770 1986 
Q 331 2403 331 3084 
Q 331 3838 820 4291 
Q 1309 4744 2131 4744 
Q 3044 4744 3544 4128 
Q 4044 3513 4044 2388 
Q 4044 1231 3459 570 
Q 2875 -91 1856 -91 
Q 1528 -91 1228 -42 
Q 928 6 641 103 
z
M 2125 2350 
Q 2441 2350 2600 2554 
Q 2759 2759 2759 3169 
Q 2759 3575 2600 3781 
Q 2441 3988 2125 3988 
Q 1809 3988 1650 3781 
Q 1491 3575 1491 3169 
Q 1491 2759 1650 2554 
Q 1809 2350 2125 2350 
z
" transform="scale(0.015625)"/>
      <path id="DejaVuSans-Bold-35" d="M 678 4666 
L 3669 4666 
L 3669 3781 
L 1638 3781 
L 1638 3059 
Q 1775 3097 1914 3117 
Q 2053 3138 2203 3138 
Q 3056 3138 3531 2711 
Q 4006 2284 4006 1522 
Q 4006 766 3489 337 
Q 2972 -91 2053 -91 
Q 1656 -91 1267 -14 
Q 878 63 494 219 
L 494 1166 
Q 875 947 1217 837 
Q 1559 728 1863 728 
Q 2300 728 2551 942 
Q 2803 1156 2803 1522 
Q 2803 1891 2551 2103 
Q 2300 2316 1863 2316 
Q 1603 2316 1309 2248 
Q 1016 2181 678 2041 
L 678 4666 
z
" transform="scale(0.015625)"/>
     </defs>
     <use xlink:href="#DejaVuSans-Bold-53"/>
     <use xlink:href="#DejaVuSans-Bold-47" x="72.021484"/>
     <use xlink:href="#DejaVuSans-Bold-49" x="154.101562"/>
     <use xlink:href="#DejaVuSans-Bold-20" x="191.308594"/>
     <use xlink:href="#DejaVuSans-Bold-66" x="226.123047"/>
     <use xlink:href="#DejaVuSans-Bold-6f" x="269.628906"/>
     <use xlink:href="#DejaVuSans-Bold-72" x="338.330078"/>
     <use xlink:href="#DejaVuSans-Bold-20" x="387.646484"/>
     <use xlink:href="#DejaVuSans-Bold-47" x="422.460938"/>
     <use xlink:href="#DejaVuSans-Bold-57" x="504.541016"/>
     <use xlink:href="#DejaVuSans-Bold-49" x="614.84375"/>
     <use xlink:href="#DejaVuSans-Bold-43" x="652.050781"/>
     <use xlink:href="#DejaVuSans-Bold-20" x="725.439453"/>
     <use xlink:href="#DejaVuSans-Bold-49" x="760.253906"/>
     <use xlink:href="#DejaVuSans-Bold-44" x="797.460938"/>
     <use xlink:href="#DejaVuSans-Bold-20" x="880.46875"/>
     <use xlink:href="#DejaVuSans-Bold-31" x="915.283203"/>
     <use xlink:href="#DejaVuSans-Bold-32" x="984.863281"/>
     <use xlink:href="#DejaVuSans-Bold-39" x="1054.443359"/>
     <use xlink:href="#DejaVuSans-Bold-39" x="1124.023438"/>
     <use xlink:href="#DejaVuSans-Bold-35" x="1193.603516"/>
     <use xlink:href="#DejaVuSans-Bold-32" x="1263.183594"/>
    </g>
   </g>
   <g id="PathCollection_1">
    <defs>
     <path id="mdbc8ee98da" d="M 0 3 
C 0.795609 3 1.55874 2.683901 2.12132 2.12132 
C 2.683901 1.55874 3 0.795609 3 0 
C 3 -0.795609 2.683901 -1.55874 2.12132 -2.12132 
C 1.55874 -2.683901 0.795609 -3 0 -3 
C -0.795609 -3 -1.55874 -2.683901 -2.12132 -2.12132 
C -2.683901 -1.55874 -3 -0.795609 -3 0 
C -3 0.795609 -2.683901 1.55874 -2.12132 2.12132 
C -1.55874 2.683901 -0.795609 3 0 3 
z
" style="stroke: #ffffff; stroke-width: 0.48"/>
    </defs>
    <g clip-path="url(#p20be389e30)">
     <use xlink:href="#mdbc8ee98da" x="221.097557" y="267.948779" style="stroke: #ffffff; stroke-width: 0.48"/>
     <use xlink:href="#mdbc8ee98da" x="235.191818" y="263.465724" style="stroke: #ffffff; stroke-width: 0.48"/>
     <use xlink:href="#mdbc8ee98da" x="239.864373" y="279.378352" style="stroke: #ffffff; stroke-width: 0.48"/>
     <use xlink:href="#mdbc8ee98da" x="242.16235" y="160.349935" style="stroke: #ffffff; stroke-width: 0.48"/>
     <use xlink:href="#mdbc8ee98da" x="249.056283" y="126.992368" style="stroke: #ffffff; stroke-width: 0.48"/>
     <use xlink:href="#mdbc8ee98da" x="256.103414" y="206.461239" style="stroke: #ffffff; stroke-width: 0.48"/>
     <use xlink:href="#mdbc8ee98da" x="265.448522" y="145.871758" style="stroke: #ffffff; stroke-width: 0.48"/>
     <use xlink:href="#mdbc8ee98da" x="274.87023" y="210.452086" style="stroke: #ffffff; stroke-width: 0.48"/>
     <use xlink:href="#mdbc8ee98da" x="281.764162" y="179.632788" style="stroke: #ffffff; stroke-width: 0.48"/>
     <use xlink:href="#mdbc8ee98da" x="288.811293" y="241.606894" style="stroke: #ffffff; stroke-width: 0.48"/>
     <use xlink:href="#mdbc8ee98da" x="295.858424" y="135.213391" style="stroke: #ffffff; stroke-width: 0.48"/>
     <use xlink:href="#mdbc8ee98da" x="305.050334" y="112.307185" style="stroke: #ffffff; stroke-width: 0.48"/>
     <use xlink:href="#mdbc8ee98da" x="309.722888" y="127.816486" style="stroke: #ffffff; stroke-width: 0.48"/>
     <use xlink:href="#mdbc8ee98da" x="316.770019" y="148.54442" style="stroke: #ffffff; stroke-width: 0.48"/>
     <use xlink:href="#mdbc8ee98da" x="323.81715" y="177.925102" style="stroke: #ffffff; stroke-width: 0.48"/>
     <use xlink:href="#mdbc8ee98da" x="330.864281" y="222.684303" style="stroke: #ffffff; stroke-width: 0.48"/>
     <use xlink:href="#mdbc8ee98da" x="337.681614" y="120.709918" style="stroke: #ffffff; stroke-width: 0.48"/>
     <use xlink:href="#mdbc8ee98da" x="344.728745" y="186.307574" style="stroke: #ffffff; stroke-width: 0.48"/>
     <use xlink:href="#mdbc8ee98da" x="358.823007" y="179.010602" style="stroke: #ffffff; stroke-width: 0.48"/>
     <use xlink:href="#mdbc8ee98da" x="365.64034" y="192.659413" style="stroke: #ffffff; stroke-width: 0.48"/>
     <use xlink:href="#mdbc8ee98da" x="372.687471" y="222.347659" style="stroke: #ffffff; stroke-width: 0.48"/>
     <use xlink:href="#mdbc8ee98da" x="379.734602" y="208.095649" style="stroke: #ffffff; stroke-width: 0.48"/>
     <use xlink:href="#mdbc8ee98da" x="386.781733" y="248.727055" style="stroke: #ffffff; stroke-width: 0.48"/>
     <use xlink:href="#mdbc8ee98da" x="393.675666" y="260.635547" style="stroke: #ffffff; stroke-width: 0.48"/>
     <use xlink:href="#mdbc8ee98da" x="400.722797" y="277.039406" style="stroke: #ffffff; stroke-width: 0.48"/>
     <use xlink:href="#mdbc8ee98da" x="410.067905" y="256.886419" style="stroke: #ffffff; stroke-width: 0.48"/>
     <use xlink:href="#mdbc8ee98da" x="424.008969" y="232.5839" style="stroke: #ffffff; stroke-width: 0.48"/>
     <use xlink:href="#mdbc8ee98da" x="428.681523" y="230.444979" style="stroke: #ffffff; stroke-width: 0.48"/>
     <use xlink:href="#mdbc8ee98da" x="435.728654" y="293.959198" style="stroke: #ffffff; stroke-width: 0.48"/>
     <use xlink:href="#mdbc8ee98da" x="442.775785" y="302.749551" style="stroke: #ffffff; stroke-width: 0.48"/>
     <use xlink:href="#mdbc8ee98da" x="449.593118" y="266.944684" style="stroke: #ffffff; stroke-width: 0.48"/>
     <use xlink:href="#mdbc8ee98da" x="456.640249" y="215.372436" style="stroke: #ffffff; stroke-width: 0.48"/>
     <use xlink:href="#mdbc8ee98da" x="463.68738" y="223.772986" style="stroke: #ffffff; stroke-width: 0.48"/>
     <use xlink:href="#mdbc8ee98da" x="470.734511" y="245.490304" style="stroke: #ffffff; stroke-width: 0.48"/>
     <use xlink:href="#mdbc8ee98da" x="477.551844" y="157.125391" style="stroke: #ffffff; stroke-width: 0.48"/>
     <use xlink:href="#mdbc8ee98da" x="484.598975" y="236.90887" style="stroke: #ffffff; stroke-width: 0.48"/>
     <use xlink:href="#mdbc8ee98da" x="491.646106" y="252.739665" style="stroke: #ffffff; stroke-width: 0.48"/>
     <use xlink:href="#mdbc8ee98da" x="498.693237" y="70.479874" style="stroke: #ffffff; stroke-width: 0.48"/>
     <use xlink:href="#mdbc8ee98da" x="505.587169" y="307.8" style="stroke: #ffffff; stroke-width: 0.48"/>
     <use xlink:href="#mdbc8ee98da" x="510.259724" y="212.924559" style="stroke: #ffffff; stroke-width: 0.48"/>
     <use xlink:href="#mdbc8ee98da" x="512.6343" y="193.610841" style="stroke: #ffffff; stroke-width: 0.48"/>
     <use xlink:href="#mdbc8ee98da" x="519.681431" y="114.018818" style="stroke: #ffffff; stroke-width: 0.48"/>
     <use xlink:href="#mdbc8ee98da" x="526.728562" y="177.604358" style="stroke: #ffffff; stroke-width: 0.48"/>
     <use xlink:href="#mdbc8ee98da" x="533.545895" y="206.011401" style="stroke: #ffffff; stroke-width: 0.48"/>
     <use xlink:href="#mdbc8ee98da" x="540.593026" y="195.883278" style="stroke: #ffffff; stroke-width: 0.48"/>
     <use xlink:href="#mdbc8ee98da" x="547.640157" y="120.722757" style="stroke: #ffffff; stroke-width: 0.48"/>
     <use xlink:href="#mdbc8ee98da" x="554.687288" y="55.8" style="stroke: #ffffff; stroke-width: 0.48"/>
     <use xlink:href="#mdbc8ee98da" x="561.504622" y="102.935631" style="stroke: #ffffff; stroke-width: 0.48"/>
     <use xlink:href="#mdbc8ee98da" x="566.177176" y="185.935571" style="stroke: #ffffff; stroke-width: 0.48"/>
     <use xlink:href="#mdbc8ee98da" x="575.598883" y="80.704189" style="stroke: #ffffff; stroke-width: 0.48"/>
     <use xlink:href="#mdbc8ee98da" x="582.646014" y="144.789097" style="stroke: #ffffff; stroke-width: 0.48"/>
     <use xlink:href="#mdbc8ee98da" x="587.16537" y="78.744896" style="stroke: #ffffff; stroke-width: 0.48"/>
     <use xlink:href="#mdbc8ee98da" x="589.463348" y="126.087218" style="stroke: #ffffff; stroke-width: 0.48"/>
     <use xlink:href="#mdbc8ee98da" x="596.510479" y="202.125468" style="stroke: #ffffff; stroke-width: 0.48"/>
     <use xlink:href="#mdbc8ee98da" x="603.55761" y="193.365553" style="stroke: #ffffff; stroke-width: 0.48"/>
     <use xlink:href="#mdbc8ee98da" x="610.604741" y="169.085968" style="stroke: #ffffff; stroke-width: 0.48"/>
     <use xlink:href="#mdbc8ee98da" x="617.498673" y="101.879733" style="stroke: #ffffff; stroke-width: 0.48"/>
     <use xlink:href="#mdbc8ee98da" x="619.87325" y="153.523727" style="stroke: #ffffff; stroke-width: 0.48"/>
     <use xlink:href="#mdbc8ee98da" x="622.171227" y="158.667097" style="stroke: #ffffff; stroke-width: 0.48"/>
     <use xlink:href="#mdbc8ee98da" x="626.920381" y="175.822889" style="stroke: #ffffff; stroke-width: 0.48"/>
     <use xlink:href="#mdbc8ee98da" x="631.592935" y="171.846915" style="stroke: #ffffff; stroke-width: 0.48"/>
     <use xlink:href="#mdbc8ee98da" x="636.265489" y="196.34048" style="stroke: #ffffff; stroke-width: 0.48"/>
     <use xlink:href="#mdbc8ee98da" x="638.640066" y="140.587898" style="stroke: #ffffff; stroke-width: 0.48"/>
     <use xlink:href="#mdbc8ee98da" x="640.784845" y="181.377307" style="stroke: #ffffff; stroke-width: 0.48"/>
     <use xlink:href="#mdbc8ee98da" x="643.159422" y="175.585096" style="stroke: #ffffff; stroke-width: 0.48"/>
     <use xlink:href="#mdbc8ee98da" x="645.457399" y="135.204673" style="stroke: #ffffff; stroke-width: 0.48"/>
     <use xlink:href="#mdbc8ee98da" x="647.831976" y="118.926235" style="stroke: #ffffff; stroke-width: 0.48"/>
     <use xlink:href="#mdbc8ee98da" x="650.129953" y="193.291133" style="stroke: #ffffff; stroke-width: 0.48"/>
     <use xlink:href="#mdbc8ee98da" x="652.50453" y="158.972391" style="stroke: #ffffff; stroke-width: 0.48"/>
     <use xlink:href="#mdbc8ee98da" x="654.879107" y="150.888137" style="stroke: #ffffff; stroke-width: 0.48"/>
     <use xlink:href="#mdbc8ee98da" x="657.177084" y="170.741978" style="stroke: #ffffff; stroke-width: 0.48"/>
     <use xlink:href="#mdbc8ee98da" x="659.551661" y="200.270469" style="stroke: #ffffff; stroke-width: 0.48"/>
     <use xlink:href="#mdbc8ee98da" x="661.849639" y="132.473038" style="stroke: #ffffff; stroke-width: 0.48"/>
     <use xlink:href="#mdbc8ee98da" x="664.224215" y="91.231203" style="stroke: #ffffff; stroke-width: 0.48"/>
     <use xlink:href="#mdbc8ee98da" x="666.598792" y="146.199922" style="stroke: #ffffff; stroke-width: 0.48"/>
     <use xlink:href="#mdbc8ee98da" x="668.743571" y="165.192729" style="stroke: #ffffff; stroke-width: 0.48"/>
     <use xlink:href="#mdbc8ee98da" x="671.118148" y="132.664492" style="stroke: #ffffff; stroke-width: 0.48"/>
     <use xlink:href="#mdbc8ee98da" x="675.790702" y="150.689403" style="stroke: #ffffff; stroke-width: 0.48"/>
     <use xlink:href="#mdbc8ee98da" x="678.088679" y="133.9165" style="stroke: #ffffff; stroke-width: 0.48"/>
     <use xlink:href="#mdbc8ee98da" x="682.837833" y="125.315951" style="stroke: #ffffff; stroke-width: 0.48"/>
     <use xlink:href="#mdbc8ee98da" x="685.13581" y="131.472812" style="stroke: #ffffff; stroke-width: 0.48"/>
     <use xlink:href="#mdbc8ee98da" x="687.510387" y="158.216597" style="stroke: #ffffff; stroke-width: 0.48"/>
     <use xlink:href="#mdbc8ee98da" x="689.808365" y="186.655104" style="stroke: #ffffff; stroke-width: 0.48"/>
     <use xlink:href="#mdbc8ee98da" x="692.182941" y="182.511825" style="stroke: #ffffff; stroke-width: 0.48"/>
     <use xlink:href="#mdbc8ee98da" x="694.557518" y="181.808831" style="stroke: #ffffff; stroke-width: 0.48"/>
     <use xlink:href="#mdbc8ee98da" x="696.702297" y="162.068072" style="stroke: #ffffff; stroke-width: 0.48"/>
     <use xlink:href="#mdbc8ee98da" x="699.076874" y="143.507574" style="stroke: #ffffff; stroke-width: 0.48"/>
     <use xlink:href="#mdbc8ee98da" x="703.749428" y="129.159323" style="stroke: #ffffff; stroke-width: 0.48"/>
     <use xlink:href="#mdbc8ee98da" x="706.047406" y="130.526522" style="stroke: #ffffff; stroke-width: 0.48"/>
     <use xlink:href="#mdbc8ee98da" x="708.421982" y="165.486474" style="stroke: #ffffff; stroke-width: 0.48"/>
     <use xlink:href="#mdbc8ee98da" x="715.469113" y="212.435532" style="stroke: #ffffff; stroke-width: 0.48"/>
     <use xlink:href="#mdbc8ee98da" x="722.516244" y="173.361334" style="stroke: #ffffff; stroke-width: 0.48"/>
     <use xlink:href="#mdbc8ee98da" x="727.112199" y="249.737703" style="stroke: #ffffff; stroke-width: 0.48"/>
     <use xlink:href="#mdbc8ee98da" x="729.410177" y="220.348331" style="stroke: #ffffff; stroke-width: 0.48"/>
     <use xlink:href="#mdbc8ee98da" x="731.784753" y="200.230849" style="stroke: #ffffff; stroke-width: 0.48"/>
     <use xlink:href="#mdbc8ee98da" x="734.082731" y="191.26079" style="stroke: #ffffff; stroke-width: 0.48"/>
     <use xlink:href="#mdbc8ee98da" x="736.457308" y="211.96957" style="stroke: #ffffff; stroke-width: 0.48"/>
     <use xlink:href="#mdbc8ee98da" x="738.831884" y="207.041318" style="stroke: #ffffff; stroke-width: 0.48"/>
     <use xlink:href="#mdbc8ee98da" x="741.129862" y="223.745162" style="stroke: #ffffff; stroke-width: 0.48"/>
     <use xlink:href="#mdbc8ee98da" x="743.504439" y="211.360391" style="stroke: #ffffff; stroke-width: 0.48"/>
     <use xlink:href="#mdbc8ee98da" x="745.802416" y="193.543779" style="stroke: #ffffff; stroke-width: 0.48"/>
     <use xlink:href="#mdbc8ee98da" x="748.176993" y="235.819124" style="stroke: #ffffff; stroke-width: 0.48"/>
     <use xlink:href="#mdbc8ee98da" x="750.55157" y="194.081646" style="stroke: #ffffff; stroke-width: 0.48"/>
     <use xlink:href="#mdbc8ee98da" x="752.696348" y="198.646535" style="stroke: #ffffff; stroke-width: 0.48"/>
     <use xlink:href="#mdbc8ee98da" x="755.070925" y="225.044942" style="stroke: #ffffff; stroke-width: 0.48"/>
     <use xlink:href="#mdbc8ee98da" x="757.368903" y="211.750439" style="stroke: #ffffff; stroke-width: 0.48"/>
     <use xlink:href="#mdbc8ee98da" x="759.743479" y="236.628968" style="stroke: #ffffff; stroke-width: 0.48"/>
     <use xlink:href="#mdbc8ee98da" x="762.041457" y="277.124733" style="stroke: #ffffff; stroke-width: 0.48"/>
     <use xlink:href="#mdbc8ee98da" x="764.416034" y="105.373573" style="stroke: #ffffff; stroke-width: 0.48"/>
     <use xlink:href="#mdbc8ee98da" x="766.79061" y="146.502835" style="stroke: #ffffff; stroke-width: 0.48"/>
     <use xlink:href="#mdbc8ee98da" x="769.088588" y="207.172655" style="stroke: #ffffff; stroke-width: 0.48"/>
     <use xlink:href="#mdbc8ee98da" x="771.463165" y="129.983786" style="stroke: #ffffff; stroke-width: 0.48"/>
     <use xlink:href="#mdbc8ee98da" x="773.761142" y="135.064357" style="stroke: #ffffff; stroke-width: 0.48"/>
     <use xlink:href="#mdbc8ee98da" x="776.135719" y="161.386622" style="stroke: #ffffff; stroke-width: 0.48"/>
     <use xlink:href="#mdbc8ee98da" x="778.510296" y="157.610651" style="stroke: #ffffff; stroke-width: 0.48"/>
     <use xlink:href="#mdbc8ee98da" x="780.655075" y="201.590252" style="stroke: #ffffff; stroke-width: 0.48"/>
     <use xlink:href="#mdbc8ee98da" x="783.029651" y="213.108253" style="stroke: #ffffff; stroke-width: 0.48"/>
     <use xlink:href="#mdbc8ee98da" x="785.327629" y="94.301268" style="stroke: #ffffff; stroke-width: 0.48"/>
     <use xlink:href="#mdbc8ee98da" x="787.702206" y="156.745765" style="stroke: #ffffff; stroke-width: 0.48"/>
     <use xlink:href="#mdbc8ee98da" x="790.000183" y="113.994761" style="stroke: #ffffff; stroke-width: 0.48"/>
     <use xlink:href="#mdbc8ee98da" x="792.37476" y="55.997937" style="stroke: #ffffff; stroke-width: 0.48"/>
     <use xlink:href="#mdbc8ee98da" x="799.421891" y="182.735617" style="stroke: #ffffff; stroke-width: 0.48"/>
     <use xlink:href="#mdbc8ee98da" x="806.469022" y="129.694333" style="stroke: #ffffff; stroke-width: 0.48"/>
     <use xlink:href="#mdbc8ee98da" x="813.286355" y="222.59918" style="stroke: #ffffff; stroke-width: 0.48"/>
     <use xlink:href="#mdbc8ee98da" x="820.333486" y="141.497644" style="stroke: #ffffff; stroke-width: 0.48"/>
     <use xlink:href="#mdbc8ee98da" x="834.427748" y="127.061373" style="stroke: #ffffff; stroke-width: 0.48"/>
     <use xlink:href="#mdbc8ee98da" x="841.32168" y="171.919073" style="stroke: #ffffff; stroke-width: 0.48"/>
     <use xlink:href="#mdbc8ee98da" x="848.368811" y="116.978353" style="stroke: #ffffff; stroke-width: 0.48"/>
     <use xlink:href="#mdbc8ee98da" x="855.415942" y="164.454231" style="stroke: #ffffff; stroke-width: 0.48"/>
     <use xlink:href="#mdbc8ee98da" x="862.463073" y="201.871713" style="stroke: #ffffff; stroke-width: 0.48"/>
     <use xlink:href="#mdbc8ee98da" x="869.280406" y="235.730257" style="stroke: #ffffff; stroke-width: 0.48"/>
     <use xlink:href="#mdbc8ee98da" x="876.327537" y="120.449554" style="stroke: #ffffff; stroke-width: 0.48"/>
     <use xlink:href="#mdbc8ee98da" x="883.374668" y="98.992174" style="stroke: #ffffff; stroke-width: 0.48"/>
     <use xlink:href="#mdbc8ee98da" x="890.421799" y="187.336246" style="stroke: #ffffff; stroke-width: 0.48"/>
     <use xlink:href="#mdbc8ee98da" x="897.239132" y="158.773543" style="stroke: #ffffff; stroke-width: 0.48"/>
     <use xlink:href="#mdbc8ee98da" x="904.286263" y="110.539586" style="stroke: #ffffff; stroke-width: 0.48"/>
     <use xlink:href="#mdbc8ee98da" x="911.333394" y="142.976125" style="stroke: #ffffff; stroke-width: 0.48"/>
     <use xlink:href="#mdbc8ee98da" x="918.380525" y="273.982951" style="stroke: #ffffff; stroke-width: 0.48"/>
     <use xlink:href="#mdbc8ee98da" x="925.197859" y="185.377174" style="stroke: #ffffff; stroke-width: 0.48"/>
     <use xlink:href="#mdbc8ee98da" x="932.244989" y="114.146244" style="stroke: #ffffff; stroke-width: 0.48"/>
     <use xlink:href="#mdbc8ee98da" x="939.29212" y="149.372161" style="stroke: #ffffff; stroke-width: 0.48"/>
     <use xlink:href="#mdbc8ee98da" x="946.339251" y="107.837018" style="stroke: #ffffff; stroke-width: 0.48"/>
     <use xlink:href="#mdbc8ee98da" x="953.233184" y="125.210693" style="stroke: #ffffff; stroke-width: 0.48"/>
     <use xlink:href="#mdbc8ee98da" x="960.280315" y="186.307574" style="stroke: #ffffff; stroke-width: 0.48"/>
     <use xlink:href="#mdbc8ee98da" x="967.327446" y="171.846915" style="stroke: #ffffff; stroke-width: 0.48"/>
    </g>
   </g>
  </g>
 </g>
 <defs>
  <clipPath id="p20be389e30">
   <rect x="135" y="43.2" width="837" height="277.2"/>
  </clipPath>
 </defs>
</svg>
