<?xml version="1.0" encoding="utf-8" standalone="no"?>
<!DOCTYPE svg PUBLIC "-//W3C//DTD SVG 1.1//EN"
  "http://www.w3.org/Graphics/SVG/1.1/DTD/svg11.dtd">
<svg xmlns:xlink="http://www.w3.org/1999/xlink" width="1080pt" height="360pt" viewBox="0 0 1080 360" xmlns="http://www.w3.org/2000/svg" version="1.1">
 <metadata>
  <rdf:RDF xmlns:dc="http://purl.org/dc/elements/1.1/" xmlns:cc="http://creativecommons.org/ns#" xmlns:rdf="http://www.w3.org/1999/02/22-rdf-syntax-ns#">
   <cc:Work>
    <dc:type rdf:resource="http://purl.org/dc/dcmitype/StillImage"/>
    <dc:date>2024-01-23T18:50:25.306677</dc:date>
    <dc:format>image/svg+xml</dc:format>
    <dc:creator>
     <cc:Agent>
      <dc:title>Matplotlib v3.8.2, https://matplotlib.org/</dc:title>
     </cc:Agent>
    </dc:creator>
   </cc:Work>
  </rdf:RDF>
 </metadata>
 <defs>
  <style type="text/css">*{stroke-linejoin: round; stroke-linecap: butt}</style>
 </defs>
 <g id="figure_1">
  <g id="patch_1">
   <path d="M 0 360 
L 1080 360 
L 1080 0 
L 0 0 
z
" style="fill: #ffffff"/>
  </g>
  <g id="axes_1">
   <g id="patch_2">
    <path d="M 135 320.4 
L 972 320.4 
L 972 43.2 
L 135 43.2 
z
" style="fill: #ffffff"/>
   </g>
   <g id="PolyCollection_1"/>
   <g id="matplotlib.axis_1">
    <g id="xtick_1">
     <g id="line2d_1">
      <defs>
       <path id="m3e35e73544" d="M 0 0 
L 0 3.5 
" style="stroke: #000000; stroke-width: 0.8"/>
      </defs>
      <g>
       <use xlink:href="#m3e35e73544" x="189.9035" y="320.4" style="stroke: #000000; stroke-width: 0.8"/>
      </g>
     </g>
     <g id="text_1">
      <!-- 1996 -->
      <g transform="translate(177.1785 334.998438) scale(0.1 -0.1)">
       <defs>
        <path id="DejaVuSans-31" d="M 794 531 
L 1825 531 
L 1825 4091 
L 703 3866 
L 703 4441 
L 1819 4666 
L 2450 4666 
L 2450 531 
L 3481 531 
L 3481 0 
L 794 0 
L 794 531 
z
" transform="scale(0.015625)"/>
        <path id="DejaVuSans-39" d="M 703 97 
L 703 672 
Q 941 559 1184 500 
Q 1428 441 1663 441 
Q 2288 441 2617 861 
Q 2947 1281 2994 2138 
Q 2813 1869 2534 1725 
Q 2256 1581 1919 1581 
Q 1219 1581 811 2004 
Q 403 2428 403 3163 
Q 403 3881 828 4315 
Q 1253 4750 1959 4750 
Q 2769 4750 3195 4129 
Q 3622 3509 3622 2328 
Q 3622 1225 3098 567 
Q 2575 -91 1691 -91 
Q 1453 -91 1209 -44 
Q 966 3 703 97 
z
M 1959 2075 
Q 2384 2075 2632 2365 
Q 2881 2656 2881 3163 
Q 2881 3666 2632 3958 
Q 2384 4250 1959 4250 
Q 1534 4250 1286 3958 
Q 1038 3666 1038 3163 
Q 1038 2656 1286 2365 
Q 1534 2075 1959 2075 
z
" transform="scale(0.015625)"/>
        <path id="DejaVuSans-36" d="M 2113 2584 
Q 1688 2584 1439 2293 
Q 1191 2003 1191 1497 
Q 1191 994 1439 701 
Q 1688 409 2113 409 
Q 2538 409 2786 701 
Q 3034 994 3034 1497 
Q 3034 2003 2786 2293 
Q 2538 2584 2113 2584 
z
M 3366 4563 
L 3366 3988 
Q 3128 4100 2886 4159 
Q 2644 4219 2406 4219 
Q 1781 4219 1451 3797 
Q 1122 3375 1075 2522 
Q 1259 2794 1537 2939 
Q 1816 3084 2150 3084 
Q 2853 3084 3261 2657 
Q 3669 2231 3669 1497 
Q 3669 778 3244 343 
Q 2819 -91 2113 -91 
Q 1303 -91 875 529 
Q 447 1150 447 2328 
Q 447 3434 972 4092 
Q 1497 4750 2381 4750 
Q 2619 4750 2861 4703 
Q 3103 4656 3366 4563 
z
" transform="scale(0.015625)"/>
       </defs>
       <use xlink:href="#DejaVuSans-31"/>
       <use xlink:href="#DejaVuSans-39" x="63.623047"/>
       <use xlink:href="#DejaVuSans-39" x="127.246094"/>
       <use xlink:href="#DejaVuSans-36" x="190.869141"/>
      </g>
     </g>
    </g>
    <g id="xtick_2">
     <g id="line2d_2">
      <g>
       <use xlink:href="#m3e35e73544" x="315.042366" y="320.4" style="stroke: #000000; stroke-width: 0.8"/>
      </g>
     </g>
     <g id="text_2">
      <!-- 2000 -->
      <g transform="translate(302.317366 334.998438) scale(0.1 -0.1)">
       <defs>
        <path id="DejaVuSans-32" d="M 1228 531 
L 3431 531 
L 3431 0 
L 469 0 
L 469 531 
Q 828 903 1448 1529 
Q 2069 2156 2228 2338 
Q 2531 2678 2651 2914 
Q 2772 3150 2772 3378 
Q 2772 3750 2511 3984 
Q 2250 4219 1831 4219 
Q 1534 4219 1204 4116 
Q 875 4013 500 3803 
L 500 4441 
Q 881 4594 1212 4672 
Q 1544 4750 1819 4750 
Q 2544 4750 2975 4387 
Q 3406 4025 3406 3419 
Q 3406 3131 3298 2873 
Q 3191 2616 2906 2266 
Q 2828 2175 2409 1742 
Q 1991 1309 1228 531 
z
" transform="scale(0.015625)"/>
        <path id="DejaVuSans-30" d="M 2034 4250 
Q 1547 4250 1301 3770 
Q 1056 3291 1056 2328 
Q 1056 1369 1301 889 
Q 1547 409 2034 409 
Q 2525 409 2770 889 
Q 3016 1369 3016 2328 
Q 3016 3291 2770 3770 
Q 2525 4250 2034 4250 
z
M 2034 4750 
Q 2819 4750 3233 4129 
Q 3647 3509 3647 2328 
Q 3647 1150 3233 529 
Q 2819 -91 2034 -91 
Q 1250 -91 836 529 
Q 422 1150 422 2328 
Q 422 3509 836 4129 
Q 1250 4750 2034 4750 
z
" transform="scale(0.015625)"/>
       </defs>
       <use xlink:href="#DejaVuSans-32"/>
       <use xlink:href="#DejaVuSans-30" x="63.623047"/>
       <use xlink:href="#DejaVuSans-30" x="127.246094"/>
       <use xlink:href="#DejaVuSans-30" x="190.869141"/>
      </g>
     </g>
    </g>
    <g id="xtick_3">
     <g id="line2d_3">
      <g>
       <use xlink:href="#m3e35e73544" x="440.181232" y="320.4" style="stroke: #000000; stroke-width: 0.8"/>
      </g>
     </g>
     <g id="text_3">
      <!-- 2004 -->
      <g transform="translate(427.456232 334.998438) scale(0.1 -0.1)">
       <defs>
        <path id="DejaVuSans-34" d="M 2419 4116 
L 825 1625 
L 2419 1625 
L 2419 4116 
z
M 2253 4666 
L 3047 4666 
L 3047 1625 
L 3713 1625 
L 3713 1100 
L 3047 1100 
L 3047 0 
L 2419 0 
L 2419 1100 
L 313 1100 
L 313 1709 
L 2253 4666 
z
" transform="scale(0.015625)"/>
       </defs>
       <use xlink:href="#DejaVuSans-32"/>
       <use xlink:href="#DejaVuSans-30" x="63.623047"/>
       <use xlink:href="#DejaVuSans-30" x="127.246094"/>
       <use xlink:href="#DejaVuSans-34" x="190.869141"/>
      </g>
     </g>
    </g>
    <g id="xtick_4">
     <g id="line2d_4">
      <g>
       <use xlink:href="#m3e35e73544" x="565.320098" y="320.4" style="stroke: #000000; stroke-width: 0.8"/>
      </g>
     </g>
     <g id="text_4">
      <!-- 2008 -->
      <g transform="translate(552.595098 334.998438) scale(0.1 -0.1)">
       <defs>
        <path id="DejaVuSans-38" d="M 2034 2216 
Q 1584 2216 1326 1975 
Q 1069 1734 1069 1313 
Q 1069 891 1326 650 
Q 1584 409 2034 409 
Q 2484 409 2743 651 
Q 3003 894 3003 1313 
Q 3003 1734 2745 1975 
Q 2488 2216 2034 2216 
z
M 1403 2484 
Q 997 2584 770 2862 
Q 544 3141 544 3541 
Q 544 4100 942 4425 
Q 1341 4750 2034 4750 
Q 2731 4750 3128 4425 
Q 3525 4100 3525 3541 
Q 3525 3141 3298 2862 
Q 3072 2584 2669 2484 
Q 3125 2378 3379 2068 
Q 3634 1759 3634 1313 
Q 3634 634 3220 271 
Q 2806 -91 2034 -91 
Q 1263 -91 848 271 
Q 434 634 434 1313 
Q 434 1759 690 2068 
Q 947 2378 1403 2484 
z
M 1172 3481 
Q 1172 3119 1398 2916 
Q 1625 2713 2034 2713 
Q 2441 2713 2670 2916 
Q 2900 3119 2900 3481 
Q 2900 3844 2670 4047 
Q 2441 4250 2034 4250 
Q 1625 4250 1398 4047 
Q 1172 3844 1172 3481 
z
" transform="scale(0.015625)"/>
       </defs>
       <use xlink:href="#DejaVuSans-32"/>
       <use xlink:href="#DejaVuSans-30" x="63.623047"/>
       <use xlink:href="#DejaVuSans-30" x="127.246094"/>
       <use xlink:href="#DejaVuSans-38" x="190.869141"/>
      </g>
     </g>
    </g>
    <g id="xtick_5">
     <g id="line2d_5">
      <g>
       <use xlink:href="#m3e35e73544" x="690.458964" y="320.4" style="stroke: #000000; stroke-width: 0.8"/>
      </g>
     </g>
     <g id="text_5">
      <!-- 2012 -->
      <g transform="translate(677.733964 334.998438) scale(0.1 -0.1)">
       <use xlink:href="#DejaVuSans-32"/>
       <use xlink:href="#DejaVuSans-30" x="63.623047"/>
       <use xlink:href="#DejaVuSans-31" x="127.246094"/>
       <use xlink:href="#DejaVuSans-32" x="190.869141"/>
      </g>
     </g>
    </g>
    <g id="xtick_6">
     <g id="line2d_6">
      <g>
       <use xlink:href="#m3e35e73544" x="815.597831" y="320.4" style="stroke: #000000; stroke-width: 0.8"/>
      </g>
     </g>
     <g id="text_6">
      <!-- 2016 -->
      <g transform="translate(802.872831 334.998438) scale(0.1 -0.1)">
       <use xlink:href="#DejaVuSans-32"/>
       <use xlink:href="#DejaVuSans-30" x="63.623047"/>
       <use xlink:href="#DejaVuSans-31" x="127.246094"/>
       <use xlink:href="#DejaVuSans-36" x="190.869141"/>
      </g>
     </g>
    </g>
    <g id="xtick_7">
     <g id="line2d_7">
      <g>
       <use xlink:href="#m3e35e73544" x="940.736697" y="320.4" style="stroke: #000000; stroke-width: 0.8"/>
      </g>
     </g>
     <g id="text_7">
      <!-- 2020 -->
      <g transform="translate(928.011697 334.998438) scale(0.1 -0.1)">
       <use xlink:href="#DejaVuSans-32"/>
       <use xlink:href="#DejaVuSans-30" x="63.623047"/>
       <use xlink:href="#DejaVuSans-32" x="127.246094"/>
       <use xlink:href="#DejaVuSans-30" x="190.869141"/>
      </g>
     </g>
    </g>
   </g>
   <g id="matplotlib.axis_2">
    <g id="ytick_1">
     <g id="line2d_8">
      <defs>
       <path id="mc672953937" d="M 0 0 
L -3.5 0 
" style="stroke: #000000; stroke-width: 0.8"/>
      </defs>
      <g>
       <use xlink:href="#mc672953937" x="135" y="301.229333" style="stroke: #000000; stroke-width: 0.8"/>
      </g>
     </g>
     <g id="text_8">
      <!-- −1.5 -->
      <g transform="translate(103.717187 305.028552) scale(0.1 -0.1)">
       <defs>
        <path id="DejaVuSans-2212" d="M 678 2272 
L 4684 2272 
L 4684 1741 
L 678 1741 
L 678 2272 
z
" transform="scale(0.015625)"/>
        <path id="DejaVuSans-2e" d="M 684 794 
L 1344 794 
L 1344 0 
L 684 0 
L 684 794 
z
" transform="scale(0.015625)"/>
        <path id="DejaVuSans-35" d="M 691 4666 
L 3169 4666 
L 3169 4134 
L 1269 4134 
L 1269 2991 
Q 1406 3038 1543 3061 
Q 1681 3084 1819 3084 
Q 2600 3084 3056 2656 
Q 3513 2228 3513 1497 
Q 3513 744 3044 326 
Q 2575 -91 1722 -91 
Q 1428 -91 1123 -41 
Q 819 9 494 109 
L 494 744 
Q 775 591 1075 516 
Q 1375 441 1709 441 
Q 2250 441 2565 725 
Q 2881 1009 2881 1497 
Q 2881 1984 2565 2268 
Q 2250 2553 1709 2553 
Q 1456 2553 1204 2497 
Q 953 2441 691 2322 
L 691 4666 
z
" transform="scale(0.015625)"/>
       </defs>
       <use xlink:href="#DejaVuSans-2212"/>
       <use xlink:href="#DejaVuSans-31" x="83.789062"/>
       <use xlink:href="#DejaVuSans-2e" x="147.412109"/>
       <use xlink:href="#DejaVuSans-35" x="179.199219"/>
      </g>
     </g>
    </g>
    <g id="ytick_2">
     <g id="line2d_9">
      <g>
       <use xlink:href="#mc672953937" x="135" y="266.858536" style="stroke: #000000; stroke-width: 0.8"/>
      </g>
     </g>
     <g id="text_9">
      <!-- −1.0 -->
      <g transform="translate(103.717187 270.657755) scale(0.1 -0.1)">
       <use xlink:href="#DejaVuSans-2212"/>
       <use xlink:href="#DejaVuSans-31" x="83.789062"/>
       <use xlink:href="#DejaVuSans-2e" x="147.412109"/>
       <use xlink:href="#DejaVuSans-30" x="179.199219"/>
      </g>
     </g>
    </g>
    <g id="ytick_3">
     <g id="line2d_10">
      <g>
       <use xlink:href="#mc672953937" x="135" y="232.487739" style="stroke: #000000; stroke-width: 0.8"/>
      </g>
     </g>
     <g id="text_10">
      <!-- −0.5 -->
      <g transform="translate(103.717187 236.286958) scale(0.1 -0.1)">
       <use xlink:href="#DejaVuSans-2212"/>
       <use xlink:href="#DejaVuSans-30" x="83.789062"/>
       <use xlink:href="#DejaVuSans-2e" x="147.412109"/>
       <use xlink:href="#DejaVuSans-35" x="179.199219"/>
      </g>
     </g>
    </g>
    <g id="ytick_4">
     <g id="line2d_11">
      <g>
       <use xlink:href="#mc672953937" x="135" y="198.116942" style="stroke: #000000; stroke-width: 0.8"/>
      </g>
     </g>
     <g id="text_11">
      <!-- 0.0 -->
      <g transform="translate(112.096875 201.916161) scale(0.1 -0.1)">
       <use xlink:href="#DejaVuSans-30"/>
       <use xlink:href="#DejaVuSans-2e" x="63.623047"/>
       <use xlink:href="#DejaVuSans-30" x="95.410156"/>
      </g>
     </g>
    </g>
    <g id="ytick_5">
     <g id="line2d_12">
      <g>
       <use xlink:href="#mc672953937" x="135" y="163.746145" style="stroke: #000000; stroke-width: 0.8"/>
      </g>
     </g>
     <g id="text_12">
      <!-- 0.5 -->
      <g transform="translate(112.096875 167.545364) scale(0.1 -0.1)">
       <use xlink:href="#DejaVuSans-30"/>
       <use xlink:href="#DejaVuSans-2e" x="63.623047"/>
       <use xlink:href="#DejaVuSans-35" x="95.410156"/>
      </g>
     </g>
    </g>
    <g id="ytick_6">
     <g id="line2d_13">
      <g>
       <use xlink:href="#mc672953937" x="135" y="129.375348" style="stroke: #000000; stroke-width: 0.8"/>
      </g>
     </g>
     <g id="text_13">
      <!-- 1.0 -->
      <g transform="translate(112.096875 133.174567) scale(0.1 -0.1)">
       <use xlink:href="#DejaVuSans-31"/>
       <use xlink:href="#DejaVuSans-2e" x="63.623047"/>
       <use xlink:href="#DejaVuSans-30" x="95.410156"/>
      </g>
     </g>
    </g>
    <g id="ytick_7">
     <g id="line2d_14">
      <g>
       <use xlink:href="#mc672953937" x="135" y="95.004551" style="stroke: #000000; stroke-width: 0.8"/>
      </g>
     </g>
     <g id="text_14">
      <!-- 1.5 -->
      <g transform="translate(112.096875 98.80377) scale(0.1 -0.1)">
       <use xlink:href="#DejaVuSans-31"/>
       <use xlink:href="#DejaVuSans-2e" x="63.623047"/>
       <use xlink:href="#DejaVuSans-35" x="95.410156"/>
      </g>
     </g>
    </g>
    <g id="ytick_8">
     <g id="line2d_15">
      <g>
       <use xlink:href="#mc672953937" x="135" y="60.633754" style="stroke: #000000; stroke-width: 0.8"/>
      </g>
     </g>
     <g id="text_15">
      <!-- 2.0 -->
      <g transform="translate(112.096875 64.432973) scale(0.1 -0.1)">
       <use xlink:href="#DejaVuSans-32"/>
       <use xlink:href="#DejaVuSans-2e" x="63.623047"/>
       <use xlink:href="#DejaVuSans-30" x="95.410156"/>
      </g>
     </g>
    </g>
    <g id="text_16">
     <!-- SGI -->
     <g transform="translate(97.6375 190.323437) rotate(-90) scale(0.1 -0.1)">
      <defs>
       <path id="DejaVuSans-53" d="M 3425 4513 
L 3425 3897 
Q 3066 4069 2747 4153 
Q 2428 4238 2131 4238 
Q 1616 4238 1336 4038 
Q 1056 3838 1056 3469 
Q 1056 3159 1242 3001 
Q 1428 2844 1947 2747 
L 2328 2669 
Q 3034 2534 3370 2195 
Q 3706 1856 3706 1288 
Q 3706 609 3251 259 
Q 2797 -91 1919 -91 
Q 1588 -91 1214 -16 
Q 841 59 441 206 
L 441 856 
Q 825 641 1194 531 
Q 1563 422 1919 422 
Q 2459 422 2753 634 
Q 3047 847 3047 1241 
Q 3047 1584 2836 1778 
Q 2625 1972 2144 2069 
L 1759 2144 
Q 1053 2284 737 2584 
Q 422 2884 422 3419 
Q 422 4038 858 4394 
Q 1294 4750 2059 4750 
Q 2388 4750 2728 4690 
Q 3069 4631 3425 4513 
z
" transform="scale(0.015625)"/>
       <path id="DejaVuSans-47" d="M 3809 666 
L 3809 1919 
L 2778 1919 
L 2778 2438 
L 4434 2438 
L 4434 434 
Q 4069 175 3628 42 
Q 3188 -91 2688 -91 
Q 1594 -91 976 548 
Q 359 1188 359 2328 
Q 359 3472 976 4111 
Q 1594 4750 2688 4750 
Q 3144 4750 3555 4637 
Q 3966 4525 4313 4306 
L 4313 3634 
Q 3963 3931 3569 4081 
Q 3175 4231 2741 4231 
Q 1884 4231 1454 3753 
Q 1025 3275 1025 2328 
Q 1025 1384 1454 906 
Q 1884 428 2741 428 
Q 3075 428 3337 486 
Q 3600 544 3809 666 
z
" transform="scale(0.015625)"/>
       <path id="DejaVuSans-49" d="M 628 4666 
L 1259 4666 
L 1259 0 
L 628 0 
L 628 4666 
z
" transform="scale(0.015625)"/>
      </defs>
      <use xlink:href="#DejaVuSans-53"/>
      <use xlink:href="#DejaVuSans-47" x="63.476562"/>
      <use xlink:href="#DejaVuSans-49" x="140.966797"/>
     </g>
    </g>
   </g>
   <g id="line2d_16">
    <path d="M 135 119.589971 
L 142.794413 162.35503 
L 148.104892 247.275156 
L 150.674478 168.060813 
L 158.554544 189.213011 
L 166.263303 161.280286 
L 174.057716 130.008605 
L 181.937781 148.330421 
L 189.817847 156.272465 
L 197.61226 106.265299 
L 205.406672 190.743144 
L 213.286738 131.325205 
L 221.166803 130.164927 
L 236.669975 55.8 
L 244.550041 85.925378 
L 255.085346 149.204271 
L 260.138866 151.028687 
L 262.708453 153.035728 
L 267.933279 163.919835 
L 270.588518 189.2908 
L 273.243758 211.014346 
L 275.813344 133.936939 
L 278.468584 196.687126 
L 281.03817 264.614495 
L 283.69341 147.410132 
L 286.348649 216.508538 
L 288.74693 235.727015 
L 291.402169 174.161964 
L 293.971756 182.233604 
L 296.626995 188.901541 
L 299.196582 228.197086 
L 301.851822 210.023947 
L 304.507061 180.959438 
L 309.731887 142.176117 
L 312.301474 144.965242 
L 314.956713 131.348926 
L 317.611953 191.761537 
L 320.095886 211.86711 
L 322.751126 167.733195 
L 325.320712 190.18191 
L 327.975952 264.609492 
L 330.545538 154.730722 
L 333.200778 140.358527 
L 335.856017 154.198285 
L 338.425604 134.309409 
L 341.080843 185.227698 
L 343.65043 188.98368 
L 346.305669 113.778935 
L 348.960909 160.702501 
L 351.35919 143.313657 
L 354.014429 152.400691 
L 356.584016 162.187831 
L 359.239255 145.079439 
L 361.808842 149.690597 
L 364.464081 179.046563 
L 369.688907 179.974623 
L 377.568973 198.855285 
L 385.277732 230.960534 
L 393.072145 224.113983 
L 400.95221 162.517855 
L 408.832276 282.554131 
L 416.541036 135.80894 
L 424.335448 153.407239 
L 432.215514 182.817383 
L 440.095579 181.656907 
L 447.889992 225.578983 
L 455.684404 161.30926 
L 463.56447 172.726114 
L 471.444535 147.639232 
L 479.153295 196.031548 
L 486.947708 239.488478 
L 494.827773 181.5689 
L 502.707839 188.137102 
L 510.416598 198.043303 
L 518.211011 147.561036 
L 526.091077 188.447076 
L 533.971142 203.555323 
L 549.474314 179.29255 
L 565.234445 229.79119 
L 573.028858 235.670651 
L 580.823271 128.432542 
L 588.703336 174.925012 
L 596.583402 169.860377 
L 604.292161 197.372829 
L 612.086574 232.520894 
L 619.966639 202.230761 
L 627.846705 198.855285 
L 635.555465 225.242698 
L 643.349877 196.863084 
L 651.229943 214.579636 
L 659.110008 223.93581 
L 666.818768 236.007124 
L 674.613181 268.061098 
L 682.493246 222.89117 
L 690.373312 230.00887 
L 698.167724 205.421541 
L 705.962137 241.410702 
L 713.842202 236.062627 
L 721.722268 263.383628 
L 729.431027 263.617056 
L 737.22544 207.519958 
L 745.105506 242.034189 
L 752.985571 257.857194 
L 760.694331 203.073083 
L 768.488743 194.667169 
L 779.024048 277.19934 
L 784.248874 256.257653 
L 794.527221 263.620792 
L 799.752047 222.19249 
L 807.632112 251.036604 
L 815.512178 261.764859 
L 823.30659 280.854086 
L 833.756242 282.951478 
L 838.981068 298.632889 
L 854.569894 301.007661 
L 862.364306 307.8 
L 870.244372 265.919008 
L 888.402783 244.795805 
L 893.627609 271.18339 
L 901.507675 276.783085 
L 924.890913 233.241605 
L 932.770978 253.77937 
L 943.306283 286.225013 
L 956.239869 304.488168 
L 964.119935 247.975148 
" clip-path="url(#p669909e052)" style="fill: none; stroke: #7f7f7f; stroke-width: 1.5; stroke-linecap: square"/>
   </g>
   <g id="line2d_17">
    <path d="M 135 198.116942 
L 972 198.116942 
" clip-path="url(#p669909e052)" style="fill: none; stroke: #000000; stroke-width: 1.5; stroke-linecap: square"/>
   </g>
   <g id="patch_3">
    <path d="M 135 320.4 
L 135 43.2 
" style="fill: none; stroke: #000000; stroke-width: 0.8; stroke-linejoin: miter; stroke-linecap: square"/>
   </g>
   <g id="patch_4">
    <path d="M 135 320.4 
L 972 320.4 
" style="fill: none; stroke: #000000; stroke-width: 0.8; stroke-linejoin: miter; stroke-linecap: square"/>
   </g>
   <g id="text_17">
    <!-- SGI for GWIC ID 140366 -->
    <g transform="translate(135 37.2) scale(0.12 -0.12)">
     <defs>
      <path id="DejaVuSans-Bold-53" d="M 3834 4519 
L 3834 3531 
Q 3450 3703 3084 3790 
Q 2719 3878 2394 3878 
Q 1963 3878 1756 3759 
Q 1550 3641 1550 3391 
Q 1550 3203 1689 3098 
Q 1828 2994 2194 2919 
L 2706 2816 
Q 3484 2659 3812 2340 
Q 4141 2022 4141 1434 
Q 4141 663 3683 286 
Q 3225 -91 2284 -91 
Q 1841 -91 1394 -6 
Q 947 78 500 244 
L 500 1259 
Q 947 1022 1364 901 
Q 1781 781 2169 781 
Q 2563 781 2772 912 
Q 2981 1044 2981 1288 
Q 2981 1506 2839 1625 
Q 2697 1744 2272 1838 
L 1806 1941 
Q 1106 2091 782 2419 
Q 459 2747 459 3303 
Q 459 4000 909 4375 
Q 1359 4750 2203 4750 
Q 2588 4750 2994 4692 
Q 3400 4634 3834 4519 
z
" transform="scale(0.015625)"/>
      <path id="DejaVuSans-Bold-47" d="M 4781 347 
Q 4331 128 3847 18 
Q 3363 -91 2847 -91 
Q 1681 -91 1000 561 
Q 319 1213 319 2328 
Q 319 3456 1012 4103 
Q 1706 4750 2913 4750 
Q 3378 4750 3804 4662 
Q 4231 4575 4609 4403 
L 4609 3438 
Q 4219 3659 3833 3768 
Q 3447 3878 3059 3878 
Q 2341 3878 1952 3476 
Q 1563 3075 1563 2328 
Q 1563 1588 1938 1184 
Q 2313 781 3003 781 
Q 3191 781 3352 804 
Q 3513 828 3641 878 
L 3641 1784 
L 2906 1784 
L 2906 2591 
L 4781 2591 
L 4781 347 
z
" transform="scale(0.015625)"/>
      <path id="DejaVuSans-Bold-49" d="M 588 4666 
L 1791 4666 
L 1791 0 
L 588 0 
L 588 4666 
z
" transform="scale(0.015625)"/>
      <path id="DejaVuSans-Bold-20" transform="scale(0.015625)"/>
      <path id="DejaVuSans-Bold-66" d="M 2841 4863 
L 2841 4128 
L 2222 4128 
Q 1984 4128 1890 4042 
Q 1797 3956 1797 3744 
L 1797 3500 
L 2753 3500 
L 2753 2700 
L 1797 2700 
L 1797 0 
L 678 0 
L 678 2700 
L 122 2700 
L 122 3500 
L 678 3500 
L 678 3744 
Q 678 4316 997 4589 
Q 1316 4863 1984 4863 
L 2841 4863 
z
" transform="scale(0.015625)"/>
      <path id="DejaVuSans-Bold-6f" d="M 2203 2784 
Q 1831 2784 1636 2517 
Q 1441 2250 1441 1747 
Q 1441 1244 1636 976 
Q 1831 709 2203 709 
Q 2569 709 2762 976 
Q 2956 1244 2956 1747 
Q 2956 2250 2762 2517 
Q 2569 2784 2203 2784 
z
M 2203 3584 
Q 3106 3584 3614 3096 
Q 4122 2609 4122 1747 
Q 4122 884 3614 396 
Q 3106 -91 2203 -91 
Q 1297 -91 786 396 
Q 275 884 275 1747 
Q 275 2609 786 3096 
Q 1297 3584 2203 3584 
z
" transform="scale(0.015625)"/>
      <path id="DejaVuSans-Bold-72" d="M 3138 2547 
Q 2991 2616 2845 2648 
Q 2700 2681 2553 2681 
Q 2122 2681 1889 2404 
Q 1656 2128 1656 1613 
L 1656 0 
L 538 0 
L 538 3500 
L 1656 3500 
L 1656 2925 
Q 1872 3269 2151 3426 
Q 2431 3584 2822 3584 
Q 2878 3584 2943 3579 
Q 3009 3575 3134 3559 
L 3138 2547 
z
" transform="scale(0.015625)"/>
      <path id="DejaVuSans-Bold-57" d="M 191 4666 
L 1344 4666 
L 2150 1275 
L 2950 4666 
L 4109 4666 
L 4909 1275 
L 5716 4666 
L 6859 4666 
L 5759 0 
L 4372 0 
L 3525 3547 
L 2688 0 
L 1300 0 
L 191 4666 
z
" transform="scale(0.015625)"/>
      <path id="DejaVuSans-Bold-43" d="M 4288 256 
Q 3956 84 3597 -3 
Q 3238 -91 2847 -91 
Q 1681 -91 1000 561 
Q 319 1213 319 2328 
Q 319 3447 1000 4098 
Q 1681 4750 2847 4750 
Q 3238 4750 3597 4662 
Q 3956 4575 4288 4403 
L 4288 3438 
Q 3953 3666 3628 3772 
Q 3303 3878 2944 3878 
Q 2300 3878 1931 3465 
Q 1563 3053 1563 2328 
Q 1563 1606 1931 1193 
Q 2300 781 2944 781 
Q 3303 781 3628 887 
Q 3953 994 4288 1222 
L 4288 256 
z
" transform="scale(0.015625)"/>
      <path id="DejaVuSans-Bold-44" d="M 1791 3756 
L 1791 909 
L 2222 909 
Q 2959 909 3348 1275 
Q 3738 1641 3738 2338 
Q 3738 3031 3350 3393 
Q 2963 3756 2222 3756 
L 1791 3756 
z
M 588 4666 
L 1856 4666 
Q 2919 4666 3439 4514 
Q 3959 4363 4331 4000 
Q 4659 3684 4818 3271 
Q 4978 2859 4978 2338 
Q 4978 1809 4818 1395 
Q 4659 981 4331 666 
Q 3956 303 3431 151 
Q 2906 0 1856 0 
L 588 0 
L 588 4666 
z
" transform="scale(0.015625)"/>
      <path id="DejaVuSans-Bold-31" d="M 750 831 
L 1813 831 
L 1813 3847 
L 722 3622 
L 722 4441 
L 1806 4666 
L 2950 4666 
L 2950 831 
L 4013 831 
L 4013 0 
L 750 0 
L 750 831 
z
" transform="scale(0.015625)"/>
      <path id="DejaVuSans-Bold-34" d="M 2356 3675 
L 1038 1722 
L 2356 1722 
L 2356 3675 
z
M 2156 4666 
L 3494 4666 
L 3494 1722 
L 4159 1722 
L 4159 850 
L 3494 850 
L 3494 0 
L 2356 0 
L 2356 850 
L 288 850 
L 288 1881 
L 2156 4666 
z
" transform="scale(0.015625)"/>
      <path id="DejaVuSans-Bold-30" d="M 2944 2338 
Q 2944 3213 2780 3570 
Q 2616 3928 2228 3928 
Q 1841 3928 1675 3570 
Q 1509 3213 1509 2338 
Q 1509 1453 1675 1090 
Q 1841 728 2228 728 
Q 2613 728 2778 1090 
Q 2944 1453 2944 2338 
z
M 4147 2328 
Q 4147 1169 3647 539 
Q 3147 -91 2228 -91 
Q 1306 -91 806 539 
Q 306 1169 306 2328 
Q 306 3491 806 4120 
Q 1306 4750 2228 4750 
Q 3147 4750 3647 4120 
Q 4147 3491 4147 2328 
z
" transform="scale(0.015625)"/>
      <path id="DejaVuSans-Bold-33" d="M 2981 2516 
Q 3453 2394 3698 2092 
Q 3944 1791 3944 1325 
Q 3944 631 3412 270 
Q 2881 -91 1863 -91 
Q 1503 -91 1142 -33 
Q 781 25 428 141 
L 428 1069 
Q 766 900 1098 814 
Q 1431 728 1753 728 
Q 2231 728 2486 893 
Q 2741 1059 2741 1369 
Q 2741 1688 2480 1852 
Q 2219 2016 1709 2016 
L 1228 2016 
L 1228 2791 
L 1734 2791 
Q 2188 2791 2409 2933 
Q 2631 3075 2631 3366 
Q 2631 3634 2415 3781 
Q 2200 3928 1806 3928 
Q 1516 3928 1219 3862 
Q 922 3797 628 3669 
L 628 4550 
Q 984 4650 1334 4700 
Q 1684 4750 2022 4750 
Q 2931 4750 3382 4451 
Q 3834 4153 3834 3553 
Q 3834 3144 3618 2883 
Q 3403 2622 2981 2516 
z
" transform="scale(0.015625)"/>
      <path id="DejaVuSans-Bold-36" d="M 2316 2303 
Q 2000 2303 1842 2098 
Q 1684 1894 1684 1484 
Q 1684 1075 1842 870 
Q 2000 666 2316 666 
Q 2634 666 2792 870 
Q 2950 1075 2950 1484 
Q 2950 1894 2792 2098 
Q 2634 2303 2316 2303 
z
M 3803 4544 
L 3803 3681 
Q 3506 3822 3243 3889 
Q 2981 3956 2731 3956 
Q 2194 3956 1894 3657 
Q 1594 3359 1544 2772 
Q 1750 2925 1990 3001 
Q 2231 3078 2516 3078 
Q 3231 3078 3670 2659 
Q 4109 2241 4109 1563 
Q 4109 813 3618 361 
Q 3128 -91 2303 -91 
Q 1394 -91 895 523 
Q 397 1138 397 2266 
Q 397 3422 980 4083 
Q 1563 4744 2578 4744 
Q 2900 4744 3203 4694 
Q 3506 4644 3803 4544 
z
" transform="scale(0.015625)"/>
     </defs>
     <use xlink:href="#DejaVuSans-Bold-53"/>
     <use xlink:href="#DejaVuSans-Bold-47" x="72.021484"/>
     <use xlink:href="#DejaVuSans-Bold-49" x="154.101562"/>
     <use xlink:href="#DejaVuSans-Bold-20" x="191.308594"/>
     <use xlink:href="#DejaVuSans-Bold-66" x="226.123047"/>
     <use xlink:href="#DejaVuSans-Bold-6f" x="269.628906"/>
     <use xlink:href="#DejaVuSans-Bold-72" x="338.330078"/>
     <use xlink:href="#DejaVuSans-Bold-20" x="387.646484"/>
     <use xlink:href="#DejaVuSans-Bold-47" x="422.460938"/>
     <use xlink:href="#DejaVuSans-Bold-57" x="504.541016"/>
     <use xlink:href="#DejaVuSans-Bold-49" x="614.84375"/>
     <use xlink:href="#DejaVuSans-Bold-43" x="652.050781"/>
     <use xlink:href="#DejaVuSans-Bold-20" x="725.439453"/>
     <use xlink:href="#DejaVuSans-Bold-49" x="760.253906"/>
     <use xlink:href="#DejaVuSans-Bold-44" x="797.460938"/>
     <use xlink:href="#DejaVuSans-Bold-20" x="880.46875"/>
     <use xlink:href="#DejaVuSans-Bold-31" x="915.283203"/>
     <use xlink:href="#DejaVuSans-Bold-34" x="984.863281"/>
     <use xlink:href="#DejaVuSans-Bold-30" x="1054.443359"/>
     <use xlink:href="#DejaVuSans-Bold-33" x="1124.023438"/>
     <use xlink:href="#DejaVuSans-Bold-36" x="1193.603516"/>
     <use xlink:href="#DejaVuSans-Bold-36" x="1263.183594"/>
    </g>
   </g>
   <g id="PathCollection_1">
    <defs>
     <path id="m5aee2ce8ef" d="M 0 3 
C 0.795609 3 1.55874 2.683901 2.12132 2.12132 
C 2.683901 1.55874 3 0.795609 3 0 
C 3 -0.795609 2.683901 -1.55874 2.12132 -2.12132 
C 1.55874 -2.683901 0.795609 -3 0 -3 
C -0.795609 -3 -1.55874 -2.683901 -2.12132 -2.12132 
C -2.683901 -1.55874 -3 -0.795609 -3 0 
C -3 0.795609 -2.683901 1.55874 -2.12132 2.12132 
C -1.55874 2.683901 -0.795609 3 0 3 
z
" style="stroke: #ffffff; stroke-width: 0.48"/>
    </defs>
    <g clip-path="url(#p669909e052)">
     <use xlink:href="#m5aee2ce8ef" x="135" y="119.589971" style="stroke: #ffffff; stroke-width: 0.48"/>
     <use xlink:href="#m5aee2ce8ef" x="142.794413" y="162.35503" style="stroke: #ffffff; stroke-width: 0.48"/>
     <use xlink:href="#m5aee2ce8ef" x="148.104892" y="247.275156" style="stroke: #ffffff; stroke-width: 0.48"/>
     <use xlink:href="#m5aee2ce8ef" x="150.674478" y="168.060813" style="stroke: #ffffff; stroke-width: 0.48"/>
     <use xlink:href="#m5aee2ce8ef" x="158.554544" y="189.213011" style="stroke: #ffffff; stroke-width: 0.48"/>
     <use xlink:href="#m5aee2ce8ef" x="166.263303" y="161.280286" style="stroke: #ffffff; stroke-width: 0.48"/>
     <use xlink:href="#m5aee2ce8ef" x="174.057716" y="130.008605" style="stroke: #ffffff; stroke-width: 0.48"/>
     <use xlink:href="#m5aee2ce8ef" x="181.937781" y="148.330421" style="stroke: #ffffff; stroke-width: 0.48"/>
     <use xlink:href="#m5aee2ce8ef" x="189.817847" y="156.272465" style="stroke: #ffffff; stroke-width: 0.48"/>
     <use xlink:href="#m5aee2ce8ef" x="197.61226" y="106.265299" style="stroke: #ffffff; stroke-width: 0.48"/>
     <use xlink:href="#m5aee2ce8ef" x="205.406672" y="190.743144" style="stroke: #ffffff; stroke-width: 0.48"/>
     <use xlink:href="#m5aee2ce8ef" x="213.286738" y="131.325205" style="stroke: #ffffff; stroke-width: 0.48"/>
     <use xlink:href="#m5aee2ce8ef" x="221.166803" y="130.164927" style="stroke: #ffffff; stroke-width: 0.48"/>
     <use xlink:href="#m5aee2ce8ef" x="236.669975" y="55.8" style="stroke: #ffffff; stroke-width: 0.48"/>
     <use xlink:href="#m5aee2ce8ef" x="244.550041" y="85.925378" style="stroke: #ffffff; stroke-width: 0.48"/>
     <use xlink:href="#m5aee2ce8ef" x="255.085346" y="149.204271" style="stroke: #ffffff; stroke-width: 0.48"/>
     <use xlink:href="#m5aee2ce8ef" x="260.138866" y="151.028687" style="stroke: #ffffff; stroke-width: 0.48"/>
     <use xlink:href="#m5aee2ce8ef" x="262.708453" y="153.035728" style="stroke: #ffffff; stroke-width: 0.48"/>
     <use xlink:href="#m5aee2ce8ef" x="267.933279" y="163.919835" style="stroke: #ffffff; stroke-width: 0.48"/>
     <use xlink:href="#m5aee2ce8ef" x="270.588518" y="189.2908" style="stroke: #ffffff; stroke-width: 0.48"/>
     <use xlink:href="#m5aee2ce8ef" x="273.243758" y="211.014346" style="stroke: #ffffff; stroke-width: 0.48"/>
     <use xlink:href="#m5aee2ce8ef" x="275.813344" y="133.936939" style="stroke: #ffffff; stroke-width: 0.48"/>
     <use xlink:href="#m5aee2ce8ef" x="278.468584" y="196.687126" style="stroke: #ffffff; stroke-width: 0.48"/>
     <use xlink:href="#m5aee2ce8ef" x="281.03817" y="264.614495" style="stroke: #ffffff; stroke-width: 0.48"/>
     <use xlink:href="#m5aee2ce8ef" x="283.69341" y="147.410132" style="stroke: #ffffff; stroke-width: 0.48"/>
     <use xlink:href="#m5aee2ce8ef" x="286.348649" y="216.508538" style="stroke: #ffffff; stroke-width: 0.48"/>
     <use xlink:href="#m5aee2ce8ef" x="288.74693" y="235.727015" style="stroke: #ffffff; stroke-width: 0.48"/>
     <use xlink:href="#m5aee2ce8ef" x="291.402169" y="174.161964" style="stroke: #ffffff; stroke-width: 0.48"/>
     <use xlink:href="#m5aee2ce8ef" x="293.971756" y="182.233604" style="stroke: #ffffff; stroke-width: 0.48"/>
     <use xlink:href="#m5aee2ce8ef" x="296.626995" y="188.901541" style="stroke: #ffffff; stroke-width: 0.48"/>
     <use xlink:href="#m5aee2ce8ef" x="299.196582" y="228.197086" style="stroke: #ffffff; stroke-width: 0.48"/>
     <use xlink:href="#m5aee2ce8ef" x="301.851822" y="210.023947" style="stroke: #ffffff; stroke-width: 0.48"/>
     <use xlink:href="#m5aee2ce8ef" x="304.507061" y="180.959438" style="stroke: #ffffff; stroke-width: 0.48"/>
     <use xlink:href="#m5aee2ce8ef" x="309.731887" y="142.176117" style="stroke: #ffffff; stroke-width: 0.48"/>
     <use xlink:href="#m5aee2ce8ef" x="312.301474" y="144.965242" style="stroke: #ffffff; stroke-width: 0.48"/>
     <use xlink:href="#m5aee2ce8ef" x="314.956713" y="131.348926" style="stroke: #ffffff; stroke-width: 0.48"/>
     <use xlink:href="#m5aee2ce8ef" x="317.611953" y="191.761537" style="stroke: #ffffff; stroke-width: 0.48"/>
     <use xlink:href="#m5aee2ce8ef" x="320.095886" y="211.86711" style="stroke: #ffffff; stroke-width: 0.48"/>
     <use xlink:href="#m5aee2ce8ef" x="322.751126" y="167.733195" style="stroke: #ffffff; stroke-width: 0.48"/>
     <use xlink:href="#m5aee2ce8ef" x="325.320712" y="190.18191" style="stroke: #ffffff; stroke-width: 0.48"/>
     <use xlink:href="#m5aee2ce8ef" x="327.975952" y="264.609492" style="stroke: #ffffff; stroke-width: 0.48"/>
     <use xlink:href="#m5aee2ce8ef" x="330.545538" y="154.730722" style="stroke: #ffffff; stroke-width: 0.48"/>
     <use xlink:href="#m5aee2ce8ef" x="333.200778" y="140.358527" style="stroke: #ffffff; stroke-width: 0.48"/>
     <use xlink:href="#m5aee2ce8ef" x="335.856017" y="154.198285" style="stroke: #ffffff; stroke-width: 0.48"/>
     <use xlink:href="#m5aee2ce8ef" x="338.425604" y="134.309409" style="stroke: #ffffff; stroke-width: 0.48"/>
     <use xlink:href="#m5aee2ce8ef" x="341.080843" y="185.227698" style="stroke: #ffffff; stroke-width: 0.48"/>
     <use xlink:href="#m5aee2ce8ef" x="343.65043" y="188.98368" style="stroke: #ffffff; stroke-width: 0.48"/>
     <use xlink:href="#m5aee2ce8ef" x="346.305669" y="113.778935" style="stroke: #ffffff; stroke-width: 0.48"/>
     <use xlink:href="#m5aee2ce8ef" x="348.960909" y="160.702501" style="stroke: #ffffff; stroke-width: 0.48"/>
     <use xlink:href="#m5aee2ce8ef" x="351.35919" y="143.313657" style="stroke: #ffffff; stroke-width: 0.48"/>
     <use xlink:href="#m5aee2ce8ef" x="354.014429" y="152.400691" style="stroke: #ffffff; stroke-width: 0.48"/>
     <use xlink:href="#m5aee2ce8ef" x="356.584016" y="162.187831" style="stroke: #ffffff; stroke-width: 0.48"/>
     <use xlink:href="#m5aee2ce8ef" x="359.239255" y="145.079439" style="stroke: #ffffff; stroke-width: 0.48"/>
     <use xlink:href="#m5aee2ce8ef" x="361.808842" y="149.690597" style="stroke: #ffffff; stroke-width: 0.48"/>
     <use xlink:href="#m5aee2ce8ef" x="364.464081" y="179.046563" style="stroke: #ffffff; stroke-width: 0.48"/>
     <use xlink:href="#m5aee2ce8ef" x="369.688907" y="179.974623" style="stroke: #ffffff; stroke-width: 0.48"/>
     <use xlink:href="#m5aee2ce8ef" x="377.568973" y="198.855285" style="stroke: #ffffff; stroke-width: 0.48"/>
     <use xlink:href="#m5aee2ce8ef" x="385.277732" y="230.960534" style="stroke: #ffffff; stroke-width: 0.48"/>
     <use xlink:href="#m5aee2ce8ef" x="393.072145" y="224.113983" style="stroke: #ffffff; stroke-width: 0.48"/>
     <use xlink:href="#m5aee2ce8ef" x="400.95221" y="162.517855" style="stroke: #ffffff; stroke-width: 0.48"/>
     <use xlink:href="#m5aee2ce8ef" x="408.832276" y="282.554131" style="stroke: #ffffff; stroke-width: 0.48"/>
     <use xlink:href="#m5aee2ce8ef" x="416.541036" y="135.80894" style="stroke: #ffffff; stroke-width: 0.48"/>
     <use xlink:href="#m5aee2ce8ef" x="424.335448" y="153.407239" style="stroke: #ffffff; stroke-width: 0.48"/>
     <use xlink:href="#m5aee2ce8ef" x="432.215514" y="182.817383" style="stroke: #ffffff; stroke-width: 0.48"/>
     <use xlink:href="#m5aee2ce8ef" x="440.095579" y="181.656907" style="stroke: #ffffff; stroke-width: 0.48"/>
     <use xlink:href="#m5aee2ce8ef" x="447.889992" y="225.578983" style="stroke: #ffffff; stroke-width: 0.48"/>
     <use xlink:href="#m5aee2ce8ef" x="455.684404" y="161.30926" style="stroke: #ffffff; stroke-width: 0.48"/>
     <use xlink:href="#m5aee2ce8ef" x="463.56447" y="172.726114" style="stroke: #ffffff; stroke-width: 0.48"/>
     <use xlink:href="#m5aee2ce8ef" x="471.444535" y="147.639232" style="stroke: #ffffff; stroke-width: 0.48"/>
     <use xlink:href="#m5aee2ce8ef" x="479.153295" y="196.031548" style="stroke: #ffffff; stroke-width: 0.48"/>
     <use xlink:href="#m5aee2ce8ef" x="486.947708" y="239.488478" style="stroke: #ffffff; stroke-width: 0.48"/>
     <use xlink:href="#m5aee2ce8ef" x="494.827773" y="181.5689" style="stroke: #ffffff; stroke-width: 0.48"/>
     <use xlink:href="#m5aee2ce8ef" x="502.707839" y="188.137102" style="stroke: #ffffff; stroke-width: 0.48"/>
     <use xlink:href="#m5aee2ce8ef" x="510.416598" y="198.043303" style="stroke: #ffffff; stroke-width: 0.48"/>
     <use xlink:href="#m5aee2ce8ef" x="518.211011" y="147.561036" style="stroke: #ffffff; stroke-width: 0.48"/>
     <use xlink:href="#m5aee2ce8ef" x="526.091077" y="188.447076" style="stroke: #ffffff; stroke-width: 0.48"/>
     <use xlink:href="#m5aee2ce8ef" x="533.971142" y="203.555323" style="stroke: #ffffff; stroke-width: 0.48"/>
     <use xlink:href="#m5aee2ce8ef" x="549.474314" y="179.29255" style="stroke: #ffffff; stroke-width: 0.48"/>
     <use xlink:href="#m5aee2ce8ef" x="565.234445" y="229.79119" style="stroke: #ffffff; stroke-width: 0.48"/>
     <use xlink:href="#m5aee2ce8ef" x="573.028858" y="235.670651" style="stroke: #ffffff; stroke-width: 0.48"/>
     <use xlink:href="#m5aee2ce8ef" x="580.823271" y="128.432542" style="stroke: #ffffff; stroke-width: 0.48"/>
     <use xlink:href="#m5aee2ce8ef" x="588.703336" y="174.925012" style="stroke: #ffffff; stroke-width: 0.48"/>
     <use xlink:href="#m5aee2ce8ef" x="596.583402" y="169.860377" style="stroke: #ffffff; stroke-width: 0.48"/>
     <use xlink:href="#m5aee2ce8ef" x="604.292161" y="197.372829" style="stroke: #ffffff; stroke-width: 0.48"/>
     <use xlink:href="#m5aee2ce8ef" x="612.086574" y="232.520894" style="stroke: #ffffff; stroke-width: 0.48"/>
     <use xlink:href="#m5aee2ce8ef" x="619.966639" y="202.230761" style="stroke: #ffffff; stroke-width: 0.48"/>
     <use xlink:href="#m5aee2ce8ef" x="627.846705" y="198.855285" style="stroke: #ffffff; stroke-width: 0.48"/>
     <use xlink:href="#m5aee2ce8ef" x="635.555465" y="225.242698" style="stroke: #ffffff; stroke-width: 0.48"/>
     <use xlink:href="#m5aee2ce8ef" x="643.349877" y="196.863084" style="stroke: #ffffff; stroke-width: 0.48"/>
     <use xlink:href="#m5aee2ce8ef" x="651.229943" y="214.579636" style="stroke: #ffffff; stroke-width: 0.48"/>
     <use xlink:href="#m5aee2ce8ef" x="659.110008" y="223.93581" style="stroke: #ffffff; stroke-width: 0.48"/>
     <use xlink:href="#m5aee2ce8ef" x="666.818768" y="236.007124" style="stroke: #ffffff; stroke-width: 0.48"/>
     <use xlink:href="#m5aee2ce8ef" x="674.613181" y="268.061098" style="stroke: #ffffff; stroke-width: 0.48"/>
     <use xlink:href="#m5aee2ce8ef" x="682.493246" y="222.89117" style="stroke: #ffffff; stroke-width: 0.48"/>
     <use xlink:href="#m5aee2ce8ef" x="690.373312" y="230.00887" style="stroke: #ffffff; stroke-width: 0.48"/>
     <use xlink:href="#m5aee2ce8ef" x="698.167724" y="205.421541" style="stroke: #ffffff; stroke-width: 0.48"/>
     <use xlink:href="#m5aee2ce8ef" x="705.962137" y="241.410702" style="stroke: #ffffff; stroke-width: 0.48"/>
     <use xlink:href="#m5aee2ce8ef" x="713.842202" y="236.062627" style="stroke: #ffffff; stroke-width: 0.48"/>
     <use xlink:href="#m5aee2ce8ef" x="721.722268" y="263.383628" style="stroke: #ffffff; stroke-width: 0.48"/>
     <use xlink:href="#m5aee2ce8ef" x="729.431027" y="263.617056" style="stroke: #ffffff; stroke-width: 0.48"/>
     <use xlink:href="#m5aee2ce8ef" x="737.22544" y="207.519958" style="stroke: #ffffff; stroke-width: 0.48"/>
     <use xlink:href="#m5aee2ce8ef" x="745.105506" y="242.034189" style="stroke: #ffffff; stroke-width: 0.48"/>
     <use xlink:href="#m5aee2ce8ef" x="752.985571" y="257.857194" style="stroke: #ffffff; stroke-width: 0.48"/>
     <use xlink:href="#m5aee2ce8ef" x="760.694331" y="203.073083" style="stroke: #ffffff; stroke-width: 0.48"/>
     <use xlink:href="#m5aee2ce8ef" x="768.488743" y="194.667169" style="stroke: #ffffff; stroke-width: 0.48"/>
     <use xlink:href="#m5aee2ce8ef" x="779.024048" y="277.19934" style="stroke: #ffffff; stroke-width: 0.48"/>
     <use xlink:href="#m5aee2ce8ef" x="784.248874" y="256.257653" style="stroke: #ffffff; stroke-width: 0.48"/>
     <use xlink:href="#m5aee2ce8ef" x="794.527221" y="263.620792" style="stroke: #ffffff; stroke-width: 0.48"/>
     <use xlink:href="#m5aee2ce8ef" x="799.752047" y="222.19249" style="stroke: #ffffff; stroke-width: 0.48"/>
     <use xlink:href="#m5aee2ce8ef" x="807.632112" y="251.036604" style="stroke: #ffffff; stroke-width: 0.48"/>
     <use xlink:href="#m5aee2ce8ef" x="815.512178" y="261.764859" style="stroke: #ffffff; stroke-width: 0.48"/>
     <use xlink:href="#m5aee2ce8ef" x="823.30659" y="280.854086" style="stroke: #ffffff; stroke-width: 0.48"/>
     <use xlink:href="#m5aee2ce8ef" x="833.756242" y="282.951478" style="stroke: #ffffff; stroke-width: 0.48"/>
     <use xlink:href="#m5aee2ce8ef" x="838.981068" y="298.632889" style="stroke: #ffffff; stroke-width: 0.48"/>
     <use xlink:href="#m5aee2ce8ef" x="854.569894" y="301.007661" style="stroke: #ffffff; stroke-width: 0.48"/>
     <use xlink:href="#m5aee2ce8ef" x="862.364306" y="307.8" style="stroke: #ffffff; stroke-width: 0.48"/>
     <use xlink:href="#m5aee2ce8ef" x="870.244372" y="265.919008" style="stroke: #ffffff; stroke-width: 0.48"/>
     <use xlink:href="#m5aee2ce8ef" x="888.402783" y="244.795805" style="stroke: #ffffff; stroke-width: 0.48"/>
     <use xlink:href="#m5aee2ce8ef" x="893.627609" y="271.18339" style="stroke: #ffffff; stroke-width: 0.48"/>
     <use xlink:href="#m5aee2ce8ef" x="901.507675" y="276.783085" style="stroke: #ffffff; stroke-width: 0.48"/>
     <use xlink:href="#m5aee2ce8ef" x="924.890913" y="233.241605" style="stroke: #ffffff; stroke-width: 0.48"/>
     <use xlink:href="#m5aee2ce8ef" x="932.770978" y="253.77937" style="stroke: #ffffff; stroke-width: 0.48"/>
     <use xlink:href="#m5aee2ce8ef" x="943.306283" y="286.225013" style="stroke: #ffffff; stroke-width: 0.48"/>
     <use xlink:href="#m5aee2ce8ef" x="956.239869" y="304.488168" style="stroke: #ffffff; stroke-width: 0.48"/>
     <use xlink:href="#m5aee2ce8ef" x="964.119935" y="247.975148" style="stroke: #ffffff; stroke-width: 0.48"/>
    </g>
   </g>
  </g>
 </g>
 <defs>
  <clipPath id="p669909e052">
   <rect x="135" y="43.2" width="837" height="277.2"/>
  </clipPath>
 </defs>
</svg>
