<?xml version="1.0" encoding="utf-8" standalone="no"?>
<!DOCTYPE svg PUBLIC "-//W3C//DTD SVG 1.1//EN"
  "http://www.w3.org/Graphics/SVG/1.1/DTD/svg11.dtd">
<svg xmlns:xlink="http://www.w3.org/1999/xlink" width="1080pt" height="360pt" viewBox="0 0 1080 360" xmlns="http://www.w3.org/2000/svg" version="1.1">
 <metadata>
  <rdf:RDF xmlns:dc="http://purl.org/dc/elements/1.1/" xmlns:cc="http://creativecommons.org/ns#" xmlns:rdf="http://www.w3.org/1999/02/22-rdf-syntax-ns#">
   <cc:Work>
    <dc:type rdf:resource="http://purl.org/dc/dcmitype/StillImage"/>
    <dc:date>2024-01-23T18:50:26.805772</dc:date>
    <dc:format>image/svg+xml</dc:format>
    <dc:creator>
     <cc:Agent>
      <dc:title>Matplotlib v3.8.2, https://matplotlib.org/</dc:title>
     </cc:Agent>
    </dc:creator>
   </cc:Work>
  </rdf:RDF>
 </metadata>
 <defs>
  <style type="text/css">*{stroke-linejoin: round; stroke-linecap: butt}</style>
 </defs>
 <g id="figure_1">
  <g id="patch_1">
   <path d="M 0 360 
L 1080 360 
L 1080 0 
L 0 0 
z
" style="fill: #ffffff"/>
  </g>
  <g id="axes_1">
   <g id="patch_2">
    <path d="M 135 320.4 
L 972 320.4 
L 972 43.2 
L 135 43.2 
z
" style="fill: #ffffff"/>
   </g>
   <g id="PolyCollection_1"/>
   <g id="matplotlib.axis_1">
    <g id="xtick_1">
     <g id="line2d_1">
      <defs>
       <path id="md78ceba7fb" d="M 0 0 
L 0 3.5 
" style="stroke: #000000; stroke-width: 0.8"/>
      </defs>
      <g>
       <use xlink:href="#md78ceba7fb" x="149.368099" y="320.4" style="stroke: #000000; stroke-width: 0.8"/>
      </g>
     </g>
     <g id="text_1">
      <!-- 1992 -->
      <g transform="translate(136.643099 334.998438) scale(0.1 -0.1)">
       <defs>
        <path id="DejaVuSans-31" d="M 794 531 
L 1825 531 
L 1825 4091 
L 703 3866 
L 703 4441 
L 1819 4666 
L 2450 4666 
L 2450 531 
L 3481 531 
L 3481 0 
L 794 0 
L 794 531 
z
" transform="scale(0.015625)"/>
        <path id="DejaVuSans-39" d="M 703 97 
L 703 672 
Q 941 559 1184 500 
Q 1428 441 1663 441 
Q 2288 441 2617 861 
Q 2947 1281 2994 2138 
Q 2813 1869 2534 1725 
Q 2256 1581 1919 1581 
Q 1219 1581 811 2004 
Q 403 2428 403 3163 
Q 403 3881 828 4315 
Q 1253 4750 1959 4750 
Q 2769 4750 3195 4129 
Q 3622 3509 3622 2328 
Q 3622 1225 3098 567 
Q 2575 -91 1691 -91 
Q 1453 -91 1209 -44 
Q 966 3 703 97 
z
M 1959 2075 
Q 2384 2075 2632 2365 
Q 2881 2656 2881 3163 
Q 2881 3666 2632 3958 
Q 2384 4250 1959 4250 
Q 1534 4250 1286 3958 
Q 1038 3666 1038 3163 
Q 1038 2656 1286 2365 
Q 1534 2075 1959 2075 
z
" transform="scale(0.015625)"/>
        <path id="DejaVuSans-32" d="M 1228 531 
L 3431 531 
L 3431 0 
L 469 0 
L 469 531 
Q 828 903 1448 1529 
Q 2069 2156 2228 2338 
Q 2531 2678 2651 2914 
Q 2772 3150 2772 3378 
Q 2772 3750 2511 3984 
Q 2250 4219 1831 4219 
Q 1534 4219 1204 4116 
Q 875 4013 500 3803 
L 500 4441 
Q 881 4594 1212 4672 
Q 1544 4750 1819 4750 
Q 2544 4750 2975 4387 
Q 3406 4025 3406 3419 
Q 3406 3131 3298 2873 
Q 3191 2616 2906 2266 
Q 2828 2175 2409 1742 
Q 1991 1309 1228 531 
z
" transform="scale(0.015625)"/>
       </defs>
       <use xlink:href="#DejaVuSans-31"/>
       <use xlink:href="#DejaVuSans-39" x="63.623047"/>
       <use xlink:href="#DejaVuSans-39" x="127.246094"/>
       <use xlink:href="#DejaVuSans-32" x="190.869141"/>
      </g>
     </g>
    </g>
    <g id="xtick_2">
     <g id="line2d_2">
      <g>
       <use xlink:href="#md78ceba7fb" x="262.837246" y="320.4" style="stroke: #000000; stroke-width: 0.8"/>
      </g>
     </g>
     <g id="text_2">
      <!-- 1996 -->
      <g transform="translate(250.112246 334.998438) scale(0.1 -0.1)">
       <defs>
        <path id="DejaVuSans-36" d="M 2113 2584 
Q 1688 2584 1439 2293 
Q 1191 2003 1191 1497 
Q 1191 994 1439 701 
Q 1688 409 2113 409 
Q 2538 409 2786 701 
Q 3034 994 3034 1497 
Q 3034 2003 2786 2293 
Q 2538 2584 2113 2584 
z
M 3366 4563 
L 3366 3988 
Q 3128 4100 2886 4159 
Q 2644 4219 2406 4219 
Q 1781 4219 1451 3797 
Q 1122 3375 1075 2522 
Q 1259 2794 1537 2939 
Q 1816 3084 2150 3084 
Q 2853 3084 3261 2657 
Q 3669 2231 3669 1497 
Q 3669 778 3244 343 
Q 2819 -91 2113 -91 
Q 1303 -91 875 529 
Q 447 1150 447 2328 
Q 447 3434 972 4092 
Q 1497 4750 2381 4750 
Q 2619 4750 2861 4703 
Q 3103 4656 3366 4563 
z
" transform="scale(0.015625)"/>
       </defs>
       <use xlink:href="#DejaVuSans-31"/>
       <use xlink:href="#DejaVuSans-39" x="63.623047"/>
       <use xlink:href="#DejaVuSans-39" x="127.246094"/>
       <use xlink:href="#DejaVuSans-36" x="190.869141"/>
      </g>
     </g>
    </g>
    <g id="xtick_3">
     <g id="line2d_3">
      <g>
       <use xlink:href="#md78ceba7fb" x="376.306393" y="320.4" style="stroke: #000000; stroke-width: 0.8"/>
      </g>
     </g>
     <g id="text_3">
      <!-- 2000 -->
      <g transform="translate(363.581393 334.998438) scale(0.1 -0.1)">
       <defs>
        <path id="DejaVuSans-30" d="M 2034 4250 
Q 1547 4250 1301 3770 
Q 1056 3291 1056 2328 
Q 1056 1369 1301 889 
Q 1547 409 2034 409 
Q 2525 409 2770 889 
Q 3016 1369 3016 2328 
Q 3016 3291 2770 3770 
Q 2525 4250 2034 4250 
z
M 2034 4750 
Q 2819 4750 3233 4129 
Q 3647 3509 3647 2328 
Q 3647 1150 3233 529 
Q 2819 -91 2034 -91 
Q 1250 -91 836 529 
Q 422 1150 422 2328 
Q 422 3509 836 4129 
Q 1250 4750 2034 4750 
z
" transform="scale(0.015625)"/>
       </defs>
       <use xlink:href="#DejaVuSans-32"/>
       <use xlink:href="#DejaVuSans-30" x="63.623047"/>
       <use xlink:href="#DejaVuSans-30" x="127.246094"/>
       <use xlink:href="#DejaVuSans-30" x="190.869141"/>
      </g>
     </g>
    </g>
    <g id="xtick_4">
     <g id="line2d_4">
      <g>
       <use xlink:href="#md78ceba7fb" x="489.775541" y="320.4" style="stroke: #000000; stroke-width: 0.8"/>
      </g>
     </g>
     <g id="text_4">
      <!-- 2004 -->
      <g transform="translate(477.050541 334.998438) scale(0.1 -0.1)">
       <defs>
        <path id="DejaVuSans-34" d="M 2419 4116 
L 825 1625 
L 2419 1625 
L 2419 4116 
z
M 2253 4666 
L 3047 4666 
L 3047 1625 
L 3713 1625 
L 3713 1100 
L 3047 1100 
L 3047 0 
L 2419 0 
L 2419 1100 
L 313 1100 
L 313 1709 
L 2253 4666 
z
" transform="scale(0.015625)"/>
       </defs>
       <use xlink:href="#DejaVuSans-32"/>
       <use xlink:href="#DejaVuSans-30" x="63.623047"/>
       <use xlink:href="#DejaVuSans-30" x="127.246094"/>
       <use xlink:href="#DejaVuSans-34" x="190.869141"/>
      </g>
     </g>
    </g>
    <g id="xtick_5">
     <g id="line2d_5">
      <g>
       <use xlink:href="#md78ceba7fb" x="603.244688" y="320.4" style="stroke: #000000; stroke-width: 0.8"/>
      </g>
     </g>
     <g id="text_5">
      <!-- 2008 -->
      <g transform="translate(590.519688 334.998438) scale(0.1 -0.1)">
       <defs>
        <path id="DejaVuSans-38" d="M 2034 2216 
Q 1584 2216 1326 1975 
Q 1069 1734 1069 1313 
Q 1069 891 1326 650 
Q 1584 409 2034 409 
Q 2484 409 2743 651 
Q 3003 894 3003 1313 
Q 3003 1734 2745 1975 
Q 2488 2216 2034 2216 
z
M 1403 2484 
Q 997 2584 770 2862 
Q 544 3141 544 3541 
Q 544 4100 942 4425 
Q 1341 4750 2034 4750 
Q 2731 4750 3128 4425 
Q 3525 4100 3525 3541 
Q 3525 3141 3298 2862 
Q 3072 2584 2669 2484 
Q 3125 2378 3379 2068 
Q 3634 1759 3634 1313 
Q 3634 634 3220 271 
Q 2806 -91 2034 -91 
Q 1263 -91 848 271 
Q 434 634 434 1313 
Q 434 1759 690 2068 
Q 947 2378 1403 2484 
z
M 1172 3481 
Q 1172 3119 1398 2916 
Q 1625 2713 2034 2713 
Q 2441 2713 2670 2916 
Q 2900 3119 2900 3481 
Q 2900 3844 2670 4047 
Q 2441 4250 2034 4250 
Q 1625 4250 1398 4047 
Q 1172 3844 1172 3481 
z
" transform="scale(0.015625)"/>
       </defs>
       <use xlink:href="#DejaVuSans-32"/>
       <use xlink:href="#DejaVuSans-30" x="63.623047"/>
       <use xlink:href="#DejaVuSans-30" x="127.246094"/>
       <use xlink:href="#DejaVuSans-38" x="190.869141"/>
      </g>
     </g>
    </g>
    <g id="xtick_6">
     <g id="line2d_6">
      <g>
       <use xlink:href="#md78ceba7fb" x="716.713835" y="320.4" style="stroke: #000000; stroke-width: 0.8"/>
      </g>
     </g>
     <g id="text_6">
      <!-- 2012 -->
      <g transform="translate(703.988835 334.998438) scale(0.1 -0.1)">
       <use xlink:href="#DejaVuSans-32"/>
       <use xlink:href="#DejaVuSans-30" x="63.623047"/>
       <use xlink:href="#DejaVuSans-31" x="127.246094"/>
       <use xlink:href="#DejaVuSans-32" x="190.869141"/>
      </g>
     </g>
    </g>
    <g id="xtick_7">
     <g id="line2d_7">
      <g>
       <use xlink:href="#md78ceba7fb" x="830.182982" y="320.4" style="stroke: #000000; stroke-width: 0.8"/>
      </g>
     </g>
     <g id="text_7">
      <!-- 2016 -->
      <g transform="translate(817.457982 334.998438) scale(0.1 -0.1)">
       <use xlink:href="#DejaVuSans-32"/>
       <use xlink:href="#DejaVuSans-30" x="63.623047"/>
       <use xlink:href="#DejaVuSans-31" x="127.246094"/>
       <use xlink:href="#DejaVuSans-36" x="190.869141"/>
      </g>
     </g>
    </g>
    <g id="xtick_8">
     <g id="line2d_8">
      <g>
       <use xlink:href="#md78ceba7fb" x="943.65213" y="320.4" style="stroke: #000000; stroke-width: 0.8"/>
      </g>
     </g>
     <g id="text_8">
      <!-- 2020 -->
      <g transform="translate(930.92713 334.998438) scale(0.1 -0.1)">
       <use xlink:href="#DejaVuSans-32"/>
       <use xlink:href="#DejaVuSans-30" x="63.623047"/>
       <use xlink:href="#DejaVuSans-32" x="127.246094"/>
       <use xlink:href="#DejaVuSans-30" x="190.869141"/>
      </g>
     </g>
    </g>
   </g>
   <g id="matplotlib.axis_2">
    <g id="ytick_1">
     <g id="line2d_9">
      <defs>
       <path id="m2812954709" d="M 0 0 
L -3.5 0 
" style="stroke: #000000; stroke-width: 0.8"/>
      </defs>
      <g>
       <use xlink:href="#m2812954709" x="135" y="306.581924" style="stroke: #000000; stroke-width: 0.8"/>
      </g>
     </g>
     <g id="text_9">
      <!-- −2.0 -->
      <g transform="translate(103.717187 310.381143) scale(0.1 -0.1)">
       <defs>
        <path id="DejaVuSans-2212" d="M 678 2272 
L 4684 2272 
L 4684 1741 
L 678 1741 
L 678 2272 
z
" transform="scale(0.015625)"/>
        <path id="DejaVuSans-2e" d="M 684 794 
L 1344 794 
L 1344 0 
L 684 0 
L 684 794 
z
" transform="scale(0.015625)"/>
       </defs>
       <use xlink:href="#DejaVuSans-2212"/>
       <use xlink:href="#DejaVuSans-32" x="83.789062"/>
       <use xlink:href="#DejaVuSans-2e" x="147.412109"/>
       <use xlink:href="#DejaVuSans-30" x="179.199219"/>
      </g>
     </g>
    </g>
    <g id="ytick_2">
     <g id="line2d_10">
      <g>
       <use xlink:href="#m2812954709" x="135" y="275.386443" style="stroke: #000000; stroke-width: 0.8"/>
      </g>
     </g>
     <g id="text_10">
      <!-- −1.5 -->
      <g transform="translate(103.717187 279.185662) scale(0.1 -0.1)">
       <defs>
        <path id="DejaVuSans-35" d="M 691 4666 
L 3169 4666 
L 3169 4134 
L 1269 4134 
L 1269 2991 
Q 1406 3038 1543 3061 
Q 1681 3084 1819 3084 
Q 2600 3084 3056 2656 
Q 3513 2228 3513 1497 
Q 3513 744 3044 326 
Q 2575 -91 1722 -91 
Q 1428 -91 1123 -41 
Q 819 9 494 109 
L 494 744 
Q 775 591 1075 516 
Q 1375 441 1709 441 
Q 2250 441 2565 725 
Q 2881 1009 2881 1497 
Q 2881 1984 2565 2268 
Q 2250 2553 1709 2553 
Q 1456 2553 1204 2497 
Q 953 2441 691 2322 
L 691 4666 
z
" transform="scale(0.015625)"/>
       </defs>
       <use xlink:href="#DejaVuSans-2212"/>
       <use xlink:href="#DejaVuSans-31" x="83.789062"/>
       <use xlink:href="#DejaVuSans-2e" x="147.412109"/>
       <use xlink:href="#DejaVuSans-35" x="179.199219"/>
      </g>
     </g>
    </g>
    <g id="ytick_3">
     <g id="line2d_11">
      <g>
       <use xlink:href="#m2812954709" x="135" y="244.190962" style="stroke: #000000; stroke-width: 0.8"/>
      </g>
     </g>
     <g id="text_11">
      <!-- −1.0 -->
      <g transform="translate(103.717187 247.990181) scale(0.1 -0.1)">
       <use xlink:href="#DejaVuSans-2212"/>
       <use xlink:href="#DejaVuSans-31" x="83.789062"/>
       <use xlink:href="#DejaVuSans-2e" x="147.412109"/>
       <use xlink:href="#DejaVuSans-30" x="179.199219"/>
      </g>
     </g>
    </g>
    <g id="ytick_4">
     <g id="line2d_12">
      <g>
       <use xlink:href="#m2812954709" x="135" y="212.995481" style="stroke: #000000; stroke-width: 0.8"/>
      </g>
     </g>
     <g id="text_12">
      <!-- −0.5 -->
      <g transform="translate(103.717187 216.7947) scale(0.1 -0.1)">
       <use xlink:href="#DejaVuSans-2212"/>
       <use xlink:href="#DejaVuSans-30" x="83.789062"/>
       <use xlink:href="#DejaVuSans-2e" x="147.412109"/>
       <use xlink:href="#DejaVuSans-35" x="179.199219"/>
      </g>
     </g>
    </g>
    <g id="ytick_5">
     <g id="line2d_13">
      <g>
       <use xlink:href="#m2812954709" x="135" y="181.8" style="stroke: #000000; stroke-width: 0.8"/>
      </g>
     </g>
     <g id="text_13">
      <!-- 0.0 -->
      <g transform="translate(112.096875 185.599219) scale(0.1 -0.1)">
       <use xlink:href="#DejaVuSans-30"/>
       <use xlink:href="#DejaVuSans-2e" x="63.623047"/>
       <use xlink:href="#DejaVuSans-30" x="95.410156"/>
      </g>
     </g>
    </g>
    <g id="ytick_6">
     <g id="line2d_14">
      <g>
       <use xlink:href="#m2812954709" x="135" y="150.604519" style="stroke: #000000; stroke-width: 0.8"/>
      </g>
     </g>
     <g id="text_14">
      <!-- 0.5 -->
      <g transform="translate(112.096875 154.403738) scale(0.1 -0.1)">
       <use xlink:href="#DejaVuSans-30"/>
       <use xlink:href="#DejaVuSans-2e" x="63.623047"/>
       <use xlink:href="#DejaVuSans-35" x="95.410156"/>
      </g>
     </g>
    </g>
    <g id="ytick_7">
     <g id="line2d_15">
      <g>
       <use xlink:href="#m2812954709" x="135" y="119.409038" style="stroke: #000000; stroke-width: 0.8"/>
      </g>
     </g>
     <g id="text_15">
      <!-- 1.0 -->
      <g transform="translate(112.096875 123.208257) scale(0.1 -0.1)">
       <use xlink:href="#DejaVuSans-31"/>
       <use xlink:href="#DejaVuSans-2e" x="63.623047"/>
       <use xlink:href="#DejaVuSans-30" x="95.410156"/>
      </g>
     </g>
    </g>
    <g id="ytick_8">
     <g id="line2d_16">
      <g>
       <use xlink:href="#m2812954709" x="135" y="88.213557" style="stroke: #000000; stroke-width: 0.8"/>
      </g>
     </g>
     <g id="text_16">
      <!-- 1.5 -->
      <g transform="translate(112.096875 92.012776) scale(0.1 -0.1)">
       <use xlink:href="#DejaVuSans-31"/>
       <use xlink:href="#DejaVuSans-2e" x="63.623047"/>
       <use xlink:href="#DejaVuSans-35" x="95.410156"/>
      </g>
     </g>
    </g>
    <g id="ytick_9">
     <g id="line2d_17">
      <g>
       <use xlink:href="#m2812954709" x="135" y="57.018076" style="stroke: #000000; stroke-width: 0.8"/>
      </g>
     </g>
     <g id="text_17">
      <!-- 2.0 -->
      <g transform="translate(112.096875 60.817295) scale(0.1 -0.1)">
       <use xlink:href="#DejaVuSans-32"/>
       <use xlink:href="#DejaVuSans-2e" x="63.623047"/>
       <use xlink:href="#DejaVuSans-30" x="95.410156"/>
      </g>
     </g>
    </g>
    <g id="text_18">
     <!-- SGI -->
     <g transform="translate(97.6375 190.323437) rotate(-90) scale(0.1 -0.1)">
      <defs>
       <path id="DejaVuSans-53" d="M 3425 4513 
L 3425 3897 
Q 3066 4069 2747 4153 
Q 2428 4238 2131 4238 
Q 1616 4238 1336 4038 
Q 1056 3838 1056 3469 
Q 1056 3159 1242 3001 
Q 1428 2844 1947 2747 
L 2328 2669 
Q 3034 2534 3370 2195 
Q 3706 1856 3706 1288 
Q 3706 609 3251 259 
Q 2797 -91 1919 -91 
Q 1588 -91 1214 -16 
Q 841 59 441 206 
L 441 856 
Q 825 641 1194 531 
Q 1563 422 1919 422 
Q 2459 422 2753 634 
Q 3047 847 3047 1241 
Q 3047 1584 2836 1778 
Q 2625 1972 2144 2069 
L 1759 2144 
Q 1053 2284 737 2584 
Q 422 2884 422 3419 
Q 422 4038 858 4394 
Q 1294 4750 2059 4750 
Q 2388 4750 2728 4690 
Q 3069 4631 3425 4513 
z
" transform="scale(0.015625)"/>
       <path id="DejaVuSans-47" d="M 3809 666 
L 3809 1919 
L 2778 1919 
L 2778 2438 
L 4434 2438 
L 4434 434 
Q 4069 175 3628 42 
Q 3188 -91 2688 -91 
Q 1594 -91 976 548 
Q 359 1188 359 2328 
Q 359 3472 976 4111 
Q 1594 4750 2688 4750 
Q 3144 4750 3555 4637 
Q 3966 4525 4313 4306 
L 4313 3634 
Q 3963 3931 3569 4081 
Q 3175 4231 2741 4231 
Q 1884 4231 1454 3753 
Q 1025 3275 1025 2328 
Q 1025 1384 1454 906 
Q 1884 428 2741 428 
Q 3075 428 3337 486 
Q 3600 544 3809 666 
z
" transform="scale(0.015625)"/>
       <path id="DejaVuSans-49" d="M 628 4666 
L 1259 4666 
L 1259 0 
L 628 0 
L 628 4666 
z
" transform="scale(0.015625)"/>
      </defs>
      <use xlink:href="#DejaVuSans-53"/>
      <use xlink:href="#DejaVuSans-47" x="63.476562"/>
      <use xlink:href="#DejaVuSans-49" x="140.966797"/>
     </g>
    </g>
   </g>
   <g id="line2d_18">
    <path d="M 175.308342 126.449546 
L 180.123597 138.979687 
L 182.298228 147.229336 
L 187.035817 143.026125 
L 189.443444 127.374341 
L 191.773406 110.026283 
L 194.181034 107.33561 
L 196.588661 86.065141 
L 198.918623 90.365059 
L 210.646098 155.688713 
L 217.791315 78.364611 
L 224.936532 126.458686 
L 232.004083 86.083868 
L 238.993969 121.570624 
L 248.469147 73.735758 
L 265.167208 115.410029 
L 272.157094 129.332051 
L 295.767375 99.936609 
L 300.504964 125.448907 
L 307.650181 91.083389 
L 314.795398 100.049592 
L 321.940614 128.038511 
L 328.852835 136.602631 
L 335.998051 59.453625 
L 350.288485 87.421345 
L 357.200705 118.617718 
L 364.345922 131.137317 
L 371.491139 115.080064 
L 378.636355 108.031483 
L 385.626241 102.957567 
L 399.916674 55.8 
L 416.381739 160.248154 
L 421.119328 196.532074 
L 428.264545 146.610914 
L 435.409762 151.675649 
L 442.321982 185.407895 
L 444.729609 182.66324 
L 449.467199 150.061945 
L 456.612415 183.053379 
L 463.757632 55.800543 
L 470.669852 172.174715 
L 477.815069 181.696879 
L 484.960286 160.843226 
L 492.105502 159.01854 
L 499.095388 200.78043 
L 506.240605 209.565305 
L 513.385822 130.080699 
L 520.531038 185.933411 
L 527.443259 146.351387 
L 534.588475 193.898677 
L 541.733692 153.181593 
L 548.878909 149.969609 
L 555.791129 158.678948 
L 560.528719 249.388971 
L 570.081563 181.111629 
L 577.226779 273.621271 
L 581.809038 86.065141 
L 591.284216 227.837056 
L 598.429433 136.108264 
L 605.57465 214.714133 
L 612.564536 303.676297 
L 614.972163 208.478841 
L 617.302125 191.958944 
L 631.592558 162.737117 
L 634.000186 195.289591 
L 636.174817 234.226295 
L 638.582444 161.947202 
L 640.912406 222.154402 
L 643.320033 150.090655 
L 645.649995 186.061545 
L 648.057623 197.593707 
L 650.46525 177.158541 
L 652.795212 185.337266 
L 655.202839 213.595265 
L 657.532801 161.552091 
L 659.940429 178.26219 
L 662.348056 207.107586 
L 664.522687 217.966208 
L 666.930315 126.457931 
L 673.997866 223.342056 
L 678.813121 194.471692 
L 681.143082 158.985992 
L 683.55071 225.076471 
L 685.880672 226.377781 
L 688.288299 90.365059 
L 690.695927 224.815639 
L 692.870558 266.220289 
L 695.278185 161.947207 
L 700.015774 211.484577 
L 702.345736 168.446644 
L 704.753364 141.157267 
L 711.89858 216.61484 
L 719.043797 187.291723 
L 723.703721 237.142069 
L 726.033683 205.106512 
L 728.44131 198.484312 
L 730.771272 289.860476 
L 733.1789 251.908266 
L 735.586527 236.735205 
L 737.916489 200.863461 
L 740.324116 249.946836 
L 742.654078 214.603721 
L 745.061705 231.178207 
L 747.469333 232.407273 
L 749.643964 204.44916 
L 752.051591 212.269305 
L 754.381553 217.816858 
L 756.789181 272.307223 
L 759.119143 202.769223 
L 761.52677 210.121601 
L 763.934397 203.475213 
L 766.264359 231.178207 
L 768.671987 195.397233 
L 771.001949 186.075639 
L 773.409576 204.614001 
L 775.817203 229.927189 
L 777.991834 187.777492 
L 780.399462 191.594455 
L 782.729424 185.407895 
L 785.137051 162.757094 
L 787.467013 131.162398 
L 789.87464 155.963187 
L 792.282268 171.258108 
L 794.61223 132.421793 
L 797.019857 172.593209 
L 799.349819 173.869643 
L 801.757446 132.421793 
L 804.165074 173.882056 
L 808.747332 277.534859 
L 811.077294 228.936683 
L 813.484922 226.514398 
L 815.814884 188.019976 
L 818.222511 245.770096 
L 820.630138 238.79931 
L 822.9601 273.234941 
L 825.367728 236.788325 
L 827.69769 277.513225 
L 830.105317 273.234941 
L 832.512944 218.839969 
L 839.50283 257.092114 
L 846.648047 260.633948 
L 853.793263 276.178437 
L 860.93848 169.841915 
L 867.850701 219.676975 
L 874.995917 167.091256 
L 882.141134 307.8 
L 889.286351 262.764521 
L 896.198571 216.26597 
L 903.343788 217.442591 
L 910.489004 197.880891 
L 917.634221 301.217774 
L 924.546441 171.244357 
L 929.284031 162.729661 
L 931.691658 176.360069 
L 938.836875 182.077576 
L 960.117194 195.47514 
L 967.262411 247.754303 
L 967.262411 247.754303 
" clip-path="url(#pb4338ed113)" style="fill: none; stroke: #7f7f7f; stroke-width: 1.5; stroke-linecap: square"/>
   </g>
   <g id="line2d_19">
    <path d="M 135 181.8 
L 972 181.8 
" clip-path="url(#pb4338ed113)" style="fill: none; stroke: #000000; stroke-width: 1.5; stroke-linecap: square"/>
   </g>
   <g id="patch_3">
    <path d="M 135 320.4 
L 135 43.2 
" style="fill: none; stroke: #000000; stroke-width: 0.8; stroke-linejoin: miter; stroke-linecap: square"/>
   </g>
   <g id="patch_4">
    <path d="M 135 320.4 
L 972 320.4 
" style="fill: none; stroke: #000000; stroke-width: 0.8; stroke-linejoin: miter; stroke-linecap: square"/>
   </g>
   <g id="text_19">
    <!-- SGI for GWIC ID 99215 -->
    <g transform="translate(135 37.2) scale(0.12 -0.12)">
     <defs>
      <path id="DejaVuSans-Bold-53" d="M 3834 4519 
L 3834 3531 
Q 3450 3703 3084 3790 
Q 2719 3878 2394 3878 
Q 1963 3878 1756 3759 
Q 1550 3641 1550 3391 
Q 1550 3203 1689 3098 
Q 1828 2994 2194 2919 
L 2706 2816 
Q 3484 2659 3812 2340 
Q 4141 2022 4141 1434 
Q 4141 663 3683 286 
Q 3225 -91 2284 -91 
Q 1841 -91 1394 -6 
Q 947 78 500 244 
L 500 1259 
Q 947 1022 1364 901 
Q 1781 781 2169 781 
Q 2563 781 2772 912 
Q 2981 1044 2981 1288 
Q 2981 1506 2839 1625 
Q 2697 1744 2272 1838 
L 1806 1941 
Q 1106 2091 782 2419 
Q 459 2747 459 3303 
Q 459 4000 909 4375 
Q 1359 4750 2203 4750 
Q 2588 4750 2994 4692 
Q 3400 4634 3834 4519 
z
" transform="scale(0.015625)"/>
      <path id="DejaVuSans-Bold-47" d="M 4781 347 
Q 4331 128 3847 18 
Q 3363 -91 2847 -91 
Q 1681 -91 1000 561 
Q 319 1213 319 2328 
Q 319 3456 1012 4103 
Q 1706 4750 2913 4750 
Q 3378 4750 3804 4662 
Q 4231 4575 4609 4403 
L 4609 3438 
Q 4219 3659 3833 3768 
Q 3447 3878 3059 3878 
Q 2341 3878 1952 3476 
Q 1563 3075 1563 2328 
Q 1563 1588 1938 1184 
Q 2313 781 3003 781 
Q 3191 781 3352 804 
Q 3513 828 3641 878 
L 3641 1784 
L 2906 1784 
L 2906 2591 
L 4781 2591 
L 4781 347 
z
" transform="scale(0.015625)"/>
      <path id="DejaVuSans-Bold-49" d="M 588 4666 
L 1791 4666 
L 1791 0 
L 588 0 
L 588 4666 
z
" transform="scale(0.015625)"/>
      <path id="DejaVuSans-Bold-20" transform="scale(0.015625)"/>
      <path id="DejaVuSans-Bold-66" d="M 2841 4863 
L 2841 4128 
L 2222 4128 
Q 1984 4128 1890 4042 
Q 1797 3956 1797 3744 
L 1797 3500 
L 2753 3500 
L 2753 2700 
L 1797 2700 
L 1797 0 
L 678 0 
L 678 2700 
L 122 2700 
L 122 3500 
L 678 3500 
L 678 3744 
Q 678 4316 997 4589 
Q 1316 4863 1984 4863 
L 2841 4863 
z
" transform="scale(0.015625)"/>
      <path id="DejaVuSans-Bold-6f" d="M 2203 2784 
Q 1831 2784 1636 2517 
Q 1441 2250 1441 1747 
Q 1441 1244 1636 976 
Q 1831 709 2203 709 
Q 2569 709 2762 976 
Q 2956 1244 2956 1747 
Q 2956 2250 2762 2517 
Q 2569 2784 2203 2784 
z
M 2203 3584 
Q 3106 3584 3614 3096 
Q 4122 2609 4122 1747 
Q 4122 884 3614 396 
Q 3106 -91 2203 -91 
Q 1297 -91 786 396 
Q 275 884 275 1747 
Q 275 2609 786 3096 
Q 1297 3584 2203 3584 
z
" transform="scale(0.015625)"/>
      <path id="DejaVuSans-Bold-72" d="M 3138 2547 
Q 2991 2616 2845 2648 
Q 2700 2681 2553 2681 
Q 2122 2681 1889 2404 
Q 1656 2128 1656 1613 
L 1656 0 
L 538 0 
L 538 3500 
L 1656 3500 
L 1656 2925 
Q 1872 3269 2151 3426 
Q 2431 3584 2822 3584 
Q 2878 3584 2943 3579 
Q 3009 3575 3134 3559 
L 3138 2547 
z
" transform="scale(0.015625)"/>
      <path id="DejaVuSans-Bold-57" d="M 191 4666 
L 1344 4666 
L 2150 1275 
L 2950 4666 
L 4109 4666 
L 4909 1275 
L 5716 4666 
L 6859 4666 
L 5759 0 
L 4372 0 
L 3525 3547 
L 2688 0 
L 1300 0 
L 191 4666 
z
" transform="scale(0.015625)"/>
      <path id="DejaVuSans-Bold-43" d="M 4288 256 
Q 3956 84 3597 -3 
Q 3238 -91 2847 -91 
Q 1681 -91 1000 561 
Q 319 1213 319 2328 
Q 319 3447 1000 4098 
Q 1681 4750 2847 4750 
Q 3238 4750 3597 4662 
Q 3956 4575 4288 4403 
L 4288 3438 
Q 3953 3666 3628 3772 
Q 3303 3878 2944 3878 
Q 2300 3878 1931 3465 
Q 1563 3053 1563 2328 
Q 1563 1606 1931 1193 
Q 2300 781 2944 781 
Q 3303 781 3628 887 
Q 3953 994 4288 1222 
L 4288 256 
z
" transform="scale(0.015625)"/>
      <path id="DejaVuSans-Bold-44" d="M 1791 3756 
L 1791 909 
L 2222 909 
Q 2959 909 3348 1275 
Q 3738 1641 3738 2338 
Q 3738 3031 3350 3393 
Q 2963 3756 2222 3756 
L 1791 3756 
z
M 588 4666 
L 1856 4666 
Q 2919 4666 3439 4514 
Q 3959 4363 4331 4000 
Q 4659 3684 4818 3271 
Q 4978 2859 4978 2338 
Q 4978 1809 4818 1395 
Q 4659 981 4331 666 
Q 3956 303 3431 151 
Q 2906 0 1856 0 
L 588 0 
L 588 4666 
z
" transform="scale(0.015625)"/>
      <path id="DejaVuSans-Bold-39" d="M 641 103 
L 641 966 
Q 928 831 1190 764 
Q 1453 697 1709 697 
Q 2247 697 2547 995 
Q 2847 1294 2900 1881 
Q 2688 1725 2447 1647 
Q 2206 1569 1925 1569 
Q 1209 1569 770 1986 
Q 331 2403 331 3084 
Q 331 3838 820 4291 
Q 1309 4744 2131 4744 
Q 3044 4744 3544 4128 
Q 4044 3513 4044 2388 
Q 4044 1231 3459 570 
Q 2875 -91 1856 -91 
Q 1528 -91 1228 -42 
Q 928 6 641 103 
z
M 2125 2350 
Q 2441 2350 2600 2554 
Q 2759 2759 2759 3169 
Q 2759 3575 2600 3781 
Q 2441 3988 2125 3988 
Q 1809 3988 1650 3781 
Q 1491 3575 1491 3169 
Q 1491 2759 1650 2554 
Q 1809 2350 2125 2350 
z
" transform="scale(0.015625)"/>
      <path id="DejaVuSans-Bold-32" d="M 1844 884 
L 3897 884 
L 3897 0 
L 506 0 
L 506 884 
L 2209 2388 
Q 2438 2594 2547 2791 
Q 2656 2988 2656 3200 
Q 2656 3528 2436 3728 
Q 2216 3928 1850 3928 
Q 1569 3928 1234 3808 
Q 900 3688 519 3450 
L 519 4475 
Q 925 4609 1322 4679 
Q 1719 4750 2100 4750 
Q 2938 4750 3402 4381 
Q 3866 4013 3866 3353 
Q 3866 2972 3669 2642 
Q 3472 2313 2841 1759 
L 1844 884 
z
" transform="scale(0.015625)"/>
      <path id="DejaVuSans-Bold-31" d="M 750 831 
L 1813 831 
L 1813 3847 
L 722 3622 
L 722 4441 
L 1806 4666 
L 2950 4666 
L 2950 831 
L 4013 831 
L 4013 0 
L 750 0 
L 750 831 
z
" transform="scale(0.015625)"/>
      <path id="DejaVuSans-Bold-35" d="M 678 4666 
L 3669 4666 
L 3669 3781 
L 1638 3781 
L 1638 3059 
Q 1775 3097 1914 3117 
Q 2053 3138 2203 3138 
Q 3056 3138 3531 2711 
Q 4006 2284 4006 1522 
Q 4006 766 3489 337 
Q 2972 -91 2053 -91 
Q 1656 -91 1267 -14 
Q 878 63 494 219 
L 494 1166 
Q 875 947 1217 837 
Q 1559 728 1863 728 
Q 2300 728 2551 942 
Q 2803 1156 2803 1522 
Q 2803 1891 2551 2103 
Q 2300 2316 1863 2316 
Q 1603 2316 1309 2248 
Q 1016 2181 678 2041 
L 678 4666 
z
" transform="scale(0.015625)"/>
     </defs>
     <use xlink:href="#DejaVuSans-Bold-53"/>
     <use xlink:href="#DejaVuSans-Bold-47" x="72.021484"/>
     <use xlink:href="#DejaVuSans-Bold-49" x="154.101562"/>
     <use xlink:href="#DejaVuSans-Bold-20" x="191.308594"/>
     <use xlink:href="#DejaVuSans-Bold-66" x="226.123047"/>
     <use xlink:href="#DejaVuSans-Bold-6f" x="269.628906"/>
     <use xlink:href="#DejaVuSans-Bold-72" x="338.330078"/>
     <use xlink:href="#DejaVuSans-Bold-20" x="387.646484"/>
     <use xlink:href="#DejaVuSans-Bold-47" x="422.460938"/>
     <use xlink:href="#DejaVuSans-Bold-57" x="504.541016"/>
     <use xlink:href="#DejaVuSans-Bold-49" x="614.84375"/>
     <use xlink:href="#DejaVuSans-Bold-43" x="652.050781"/>
     <use xlink:href="#DejaVuSans-Bold-20" x="725.439453"/>
     <use xlink:href="#DejaVuSans-Bold-49" x="760.253906"/>
     <use xlink:href="#DejaVuSans-Bold-44" x="797.460938"/>
     <use xlink:href="#DejaVuSans-Bold-20" x="880.46875"/>
     <use xlink:href="#DejaVuSans-Bold-39" x="915.283203"/>
     <use xlink:href="#DejaVuSans-Bold-39" x="984.863281"/>
     <use xlink:href="#DejaVuSans-Bold-32" x="1054.443359"/>
     <use xlink:href="#DejaVuSans-Bold-31" x="1124.023438"/>
     <use xlink:href="#DejaVuSans-Bold-35" x="1193.603516"/>
    </g>
   </g>
   <g id="PathCollection_1">
    <defs>
     <path id="md251eb321d" d="M 0 3 
C 0.795609 3 1.55874 2.683901 2.12132 2.12132 
C 2.683901 1.55874 3 0.795609 3 0 
C 3 -0.795609 2.683901 -1.55874 2.12132 -2.12132 
C 1.55874 -2.683901 0.795609 -3 0 -3 
C -0.795609 -3 -1.55874 -2.683901 -2.12132 -2.12132 
C -2.683901 -1.55874 -3 -0.795609 -3 0 
C -3 0.795609 -2.683901 1.55874 -2.12132 2.12132 
C -1.55874 2.683901 -0.795609 3 0 3 
z
" style="stroke: #ffffff; stroke-width: 0.48"/>
    </defs>
    <g clip-path="url(#pb4338ed113)">
     <use xlink:href="#md251eb321d" x="175.308342" y="126.449546" style="stroke: #ffffff; stroke-width: 0.48"/>
     <use xlink:href="#md251eb321d" x="180.123597" y="138.979687" style="stroke: #ffffff; stroke-width: 0.48"/>
     <use xlink:href="#md251eb321d" x="182.298228" y="147.229336" style="stroke: #ffffff; stroke-width: 0.48"/>
     <use xlink:href="#md251eb321d" x="187.035817" y="143.026125" style="stroke: #ffffff; stroke-width: 0.48"/>
     <use xlink:href="#md251eb321d" x="189.443444" y="127.374341" style="stroke: #ffffff; stroke-width: 0.48"/>
     <use xlink:href="#md251eb321d" x="191.773406" y="110.026283" style="stroke: #ffffff; stroke-width: 0.48"/>
     <use xlink:href="#md251eb321d" x="194.181034" y="107.33561" style="stroke: #ffffff; stroke-width: 0.48"/>
     <use xlink:href="#md251eb321d" x="196.588661" y="86.065141" style="stroke: #ffffff; stroke-width: 0.48"/>
     <use xlink:href="#md251eb321d" x="198.918623" y="90.365059" style="stroke: #ffffff; stroke-width: 0.48"/>
     <use xlink:href="#md251eb321d" x="210.646098" y="155.688713" style="stroke: #ffffff; stroke-width: 0.48"/>
     <use xlink:href="#md251eb321d" x="217.791315" y="78.364611" style="stroke: #ffffff; stroke-width: 0.48"/>
     <use xlink:href="#md251eb321d" x="224.936532" y="126.458686" style="stroke: #ffffff; stroke-width: 0.48"/>
     <use xlink:href="#md251eb321d" x="232.004083" y="86.083868" style="stroke: #ffffff; stroke-width: 0.48"/>
     <use xlink:href="#md251eb321d" x="238.993969" y="121.570624" style="stroke: #ffffff; stroke-width: 0.48"/>
     <use xlink:href="#md251eb321d" x="248.469147" y="73.735758" style="stroke: #ffffff; stroke-width: 0.48"/>
     <use xlink:href="#md251eb321d" x="258.021991" y="97.575561" style="stroke: #ffffff; stroke-width: 0.48"/>
     <use xlink:href="#md251eb321d" x="265.167208" y="115.410029" style="stroke: #ffffff; stroke-width: 0.48"/>
     <use xlink:href="#md251eb321d" x="272.157094" y="129.332051" style="stroke: #ffffff; stroke-width: 0.48"/>
     <use xlink:href="#md251eb321d" x="295.767375" y="99.936609" style="stroke: #ffffff; stroke-width: 0.48"/>
     <use xlink:href="#md251eb321d" x="300.504964" y="125.448907" style="stroke: #ffffff; stroke-width: 0.48"/>
     <use xlink:href="#md251eb321d" x="307.650181" y="91.083389" style="stroke: #ffffff; stroke-width: 0.48"/>
     <use xlink:href="#md251eb321d" x="314.795398" y="100.049592" style="stroke: #ffffff; stroke-width: 0.48"/>
     <use xlink:href="#md251eb321d" x="321.940614" y="128.038511" style="stroke: #ffffff; stroke-width: 0.48"/>
     <use xlink:href="#md251eb321d" x="328.852835" y="136.602631" style="stroke: #ffffff; stroke-width: 0.48"/>
     <use xlink:href="#md251eb321d" x="335.998051" y="59.453625" style="stroke: #ffffff; stroke-width: 0.48"/>
     <use xlink:href="#md251eb321d" x="350.288485" y="87.421345" style="stroke: #ffffff; stroke-width: 0.48"/>
     <use xlink:href="#md251eb321d" x="357.200705" y="118.617718" style="stroke: #ffffff; stroke-width: 0.48"/>
     <use xlink:href="#md251eb321d" x="364.345922" y="131.137317" style="stroke: #ffffff; stroke-width: 0.48"/>
     <use xlink:href="#md251eb321d" x="371.491139" y="115.080064" style="stroke: #ffffff; stroke-width: 0.48"/>
     <use xlink:href="#md251eb321d" x="378.636355" y="108.031483" style="stroke: #ffffff; stroke-width: 0.48"/>
     <use xlink:href="#md251eb321d" x="385.626241" y="102.957567" style="stroke: #ffffff; stroke-width: 0.48"/>
     <use xlink:href="#md251eb321d" x="399.916674" y="55.8" style="stroke: #ffffff; stroke-width: 0.48"/>
     <use xlink:href="#md251eb321d" x="416.381739" y="160.248154" style="stroke: #ffffff; stroke-width: 0.48"/>
     <use xlink:href="#md251eb321d" x="421.119328" y="196.532074" style="stroke: #ffffff; stroke-width: 0.48"/>
     <use xlink:href="#md251eb321d" x="428.264545" y="146.610914" style="stroke: #ffffff; stroke-width: 0.48"/>
     <use xlink:href="#md251eb321d" x="435.409762" y="151.675649" style="stroke: #ffffff; stroke-width: 0.48"/>
     <use xlink:href="#md251eb321d" x="442.321982" y="185.407895" style="stroke: #ffffff; stroke-width: 0.48"/>
     <use xlink:href="#md251eb321d" x="444.729609" y="182.66324" style="stroke: #ffffff; stroke-width: 0.48"/>
     <use xlink:href="#md251eb321d" x="449.467199" y="150.061945" style="stroke: #ffffff; stroke-width: 0.48"/>
     <use xlink:href="#md251eb321d" x="456.612415" y="183.053379" style="stroke: #ffffff; stroke-width: 0.48"/>
     <use xlink:href="#md251eb321d" x="463.757632" y="55.800543" style="stroke: #ffffff; stroke-width: 0.48"/>
     <use xlink:href="#md251eb321d" x="470.669852" y="172.174715" style="stroke: #ffffff; stroke-width: 0.48"/>
     <use xlink:href="#md251eb321d" x="477.815069" y="181.696879" style="stroke: #ffffff; stroke-width: 0.48"/>
     <use xlink:href="#md251eb321d" x="484.960286" y="160.843226" style="stroke: #ffffff; stroke-width: 0.48"/>
     <use xlink:href="#md251eb321d" x="492.105502" y="159.01854" style="stroke: #ffffff; stroke-width: 0.48"/>
     <use xlink:href="#md251eb321d" x="499.095388" y="200.78043" style="stroke: #ffffff; stroke-width: 0.48"/>
     <use xlink:href="#md251eb321d" x="506.240605" y="209.565305" style="stroke: #ffffff; stroke-width: 0.48"/>
     <use xlink:href="#md251eb321d" x="513.385822" y="130.080699" style="stroke: #ffffff; stroke-width: 0.48"/>
     <use xlink:href="#md251eb321d" x="520.531038" y="185.933411" style="stroke: #ffffff; stroke-width: 0.48"/>
     <use xlink:href="#md251eb321d" x="527.443259" y="146.351387" style="stroke: #ffffff; stroke-width: 0.48"/>
     <use xlink:href="#md251eb321d" x="534.588475" y="193.898677" style="stroke: #ffffff; stroke-width: 0.48"/>
     <use xlink:href="#md251eb321d" x="541.733692" y="153.181593" style="stroke: #ffffff; stroke-width: 0.48"/>
     <use xlink:href="#md251eb321d" x="548.878909" y="149.969609" style="stroke: #ffffff; stroke-width: 0.48"/>
     <use xlink:href="#md251eb321d" x="555.791129" y="158.678948" style="stroke: #ffffff; stroke-width: 0.48"/>
     <use xlink:href="#md251eb321d" x="560.528719" y="249.388971" style="stroke: #ffffff; stroke-width: 0.48"/>
     <use xlink:href="#md251eb321d" x="570.081563" y="181.111629" style="stroke: #ffffff; stroke-width: 0.48"/>
     <use xlink:href="#md251eb321d" x="577.226779" y="273.621271" style="stroke: #ffffff; stroke-width: 0.48"/>
     <use xlink:href="#md251eb321d" x="581.809038" y="86.065141" style="stroke: #ffffff; stroke-width: 0.48"/>
     <use xlink:href="#md251eb321d" x="591.284216" y="227.837056" style="stroke: #ffffff; stroke-width: 0.48"/>
     <use xlink:href="#md251eb321d" x="598.429433" y="136.108264" style="stroke: #ffffff; stroke-width: 0.48"/>
     <use xlink:href="#md251eb321d" x="605.57465" y="214.714133" style="stroke: #ffffff; stroke-width: 0.48"/>
     <use xlink:href="#md251eb321d" x="612.564536" y="303.676297" style="stroke: #ffffff; stroke-width: 0.48"/>
     <use xlink:href="#md251eb321d" x="614.972163" y="208.478841" style="stroke: #ffffff; stroke-width: 0.48"/>
     <use xlink:href="#md251eb321d" x="617.302125" y="191.958944" style="stroke: #ffffff; stroke-width: 0.48"/>
     <use xlink:href="#md251eb321d" x="631.592558" y="162.737117" style="stroke: #ffffff; stroke-width: 0.48"/>
     <use xlink:href="#md251eb321d" x="634.000186" y="195.289591" style="stroke: #ffffff; stroke-width: 0.48"/>
     <use xlink:href="#md251eb321d" x="636.174817" y="234.226295" style="stroke: #ffffff; stroke-width: 0.48"/>
     <use xlink:href="#md251eb321d" x="638.582444" y="161.947202" style="stroke: #ffffff; stroke-width: 0.48"/>
     <use xlink:href="#md251eb321d" x="640.912406" y="222.154402" style="stroke: #ffffff; stroke-width: 0.48"/>
     <use xlink:href="#md251eb321d" x="643.320033" y="150.090655" style="stroke: #ffffff; stroke-width: 0.48"/>
     <use xlink:href="#md251eb321d" x="645.649995" y="186.061545" style="stroke: #ffffff; stroke-width: 0.48"/>
     <use xlink:href="#md251eb321d" x="648.057623" y="197.593707" style="stroke: #ffffff; stroke-width: 0.48"/>
     <use xlink:href="#md251eb321d" x="650.46525" y="177.158541" style="stroke: #ffffff; stroke-width: 0.48"/>
     <use xlink:href="#md251eb321d" x="652.795212" y="185.337266" style="stroke: #ffffff; stroke-width: 0.48"/>
     <use xlink:href="#md251eb321d" x="655.202839" y="213.595265" style="stroke: #ffffff; stroke-width: 0.48"/>
     <use xlink:href="#md251eb321d" x="657.532801" y="161.552091" style="stroke: #ffffff; stroke-width: 0.48"/>
     <use xlink:href="#md251eb321d" x="659.940429" y="178.26219" style="stroke: #ffffff; stroke-width: 0.48"/>
     <use xlink:href="#md251eb321d" x="662.348056" y="207.107586" style="stroke: #ffffff; stroke-width: 0.48"/>
     <use xlink:href="#md251eb321d" x="664.522687" y="217.966208" style="stroke: #ffffff; stroke-width: 0.48"/>
     <use xlink:href="#md251eb321d" x="666.930315" y="126.457931" style="stroke: #ffffff; stroke-width: 0.48"/>
     <use xlink:href="#md251eb321d" x="671.667904" y="191.198221" style="stroke: #ffffff; stroke-width: 0.48"/>
     <use xlink:href="#md251eb321d" x="673.997866" y="223.342056" style="stroke: #ffffff; stroke-width: 0.48"/>
     <use xlink:href="#md251eb321d" x="678.813121" y="194.471692" style="stroke: #ffffff; stroke-width: 0.48"/>
     <use xlink:href="#md251eb321d" x="681.143082" y="158.985992" style="stroke: #ffffff; stroke-width: 0.48"/>
     <use xlink:href="#md251eb321d" x="683.55071" y="225.076471" style="stroke: #ffffff; stroke-width: 0.48"/>
     <use xlink:href="#md251eb321d" x="685.880672" y="226.377781" style="stroke: #ffffff; stroke-width: 0.48"/>
     <use xlink:href="#md251eb321d" x="688.288299" y="90.365059" style="stroke: #ffffff; stroke-width: 0.48"/>
     <use xlink:href="#md251eb321d" x="690.695927" y="224.815639" style="stroke: #ffffff; stroke-width: 0.48"/>
     <use xlink:href="#md251eb321d" x="692.870558" y="266.220289" style="stroke: #ffffff; stroke-width: 0.48"/>
     <use xlink:href="#md251eb321d" x="695.278185" y="161.947207" style="stroke: #ffffff; stroke-width: 0.48"/>
     <use xlink:href="#md251eb321d" x="700.015774" y="211.484577" style="stroke: #ffffff; stroke-width: 0.48"/>
     <use xlink:href="#md251eb321d" x="702.345736" y="168.446644" style="stroke: #ffffff; stroke-width: 0.48"/>
     <use xlink:href="#md251eb321d" x="704.753364" y="141.157267" style="stroke: #ffffff; stroke-width: 0.48"/>
     <use xlink:href="#md251eb321d" x="711.89858" y="216.61484" style="stroke: #ffffff; stroke-width: 0.48"/>
     <use xlink:href="#md251eb321d" x="719.043797" y="187.291723" style="stroke: #ffffff; stroke-width: 0.48"/>
     <use xlink:href="#md251eb321d" x="723.703721" y="237.142069" style="stroke: #ffffff; stroke-width: 0.48"/>
     <use xlink:href="#md251eb321d" x="726.033683" y="205.106512" style="stroke: #ffffff; stroke-width: 0.48"/>
     <use xlink:href="#md251eb321d" x="728.44131" y="198.484312" style="stroke: #ffffff; stroke-width: 0.48"/>
     <use xlink:href="#md251eb321d" x="730.771272" y="289.860476" style="stroke: #ffffff; stroke-width: 0.48"/>
     <use xlink:href="#md251eb321d" x="733.1789" y="251.908266" style="stroke: #ffffff; stroke-width: 0.48"/>
     <use xlink:href="#md251eb321d" x="735.586527" y="236.735205" style="stroke: #ffffff; stroke-width: 0.48"/>
     <use xlink:href="#md251eb321d" x="737.916489" y="200.863461" style="stroke: #ffffff; stroke-width: 0.48"/>
     <use xlink:href="#md251eb321d" x="740.324116" y="249.946836" style="stroke: #ffffff; stroke-width: 0.48"/>
     <use xlink:href="#md251eb321d" x="742.654078" y="214.603721" style="stroke: #ffffff; stroke-width: 0.48"/>
     <use xlink:href="#md251eb321d" x="745.061705" y="231.178207" style="stroke: #ffffff; stroke-width: 0.48"/>
     <use xlink:href="#md251eb321d" x="747.469333" y="232.407273" style="stroke: #ffffff; stroke-width: 0.48"/>
     <use xlink:href="#md251eb321d" x="749.643964" y="204.44916" style="stroke: #ffffff; stroke-width: 0.48"/>
     <use xlink:href="#md251eb321d" x="752.051591" y="212.269305" style="stroke: #ffffff; stroke-width: 0.48"/>
     <use xlink:href="#md251eb321d" x="754.381553" y="217.816858" style="stroke: #ffffff; stroke-width: 0.48"/>
     <use xlink:href="#md251eb321d" x="756.789181" y="272.307223" style="stroke: #ffffff; stroke-width: 0.48"/>
     <use xlink:href="#md251eb321d" x="759.119143" y="202.769223" style="stroke: #ffffff; stroke-width: 0.48"/>
     <use xlink:href="#md251eb321d" x="761.52677" y="210.121601" style="stroke: #ffffff; stroke-width: 0.48"/>
     <use xlink:href="#md251eb321d" x="763.934397" y="203.475213" style="stroke: #ffffff; stroke-width: 0.48"/>
     <use xlink:href="#md251eb321d" x="766.264359" y="231.178207" style="stroke: #ffffff; stroke-width: 0.48"/>
     <use xlink:href="#md251eb321d" x="768.671987" y="195.397233" style="stroke: #ffffff; stroke-width: 0.48"/>
     <use xlink:href="#md251eb321d" x="771.001949" y="186.075639" style="stroke: #ffffff; stroke-width: 0.48"/>
     <use xlink:href="#md251eb321d" x="773.409576" y="204.614001" style="stroke: #ffffff; stroke-width: 0.48"/>
     <use xlink:href="#md251eb321d" x="775.817203" y="229.927189" style="stroke: #ffffff; stroke-width: 0.48"/>
     <use xlink:href="#md251eb321d" x="777.991834" y="187.777492" style="stroke: #ffffff; stroke-width: 0.48"/>
     <use xlink:href="#md251eb321d" x="780.399462" y="191.594455" style="stroke: #ffffff; stroke-width: 0.48"/>
     <use xlink:href="#md251eb321d" x="782.729424" y="185.407895" style="stroke: #ffffff; stroke-width: 0.48"/>
     <use xlink:href="#md251eb321d" x="785.137051" y="162.757094" style="stroke: #ffffff; stroke-width: 0.48"/>
     <use xlink:href="#md251eb321d" x="787.467013" y="131.162398" style="stroke: #ffffff; stroke-width: 0.48"/>
     <use xlink:href="#md251eb321d" x="789.87464" y="155.963187" style="stroke: #ffffff; stroke-width: 0.48"/>
     <use xlink:href="#md251eb321d" x="792.282268" y="171.258108" style="stroke: #ffffff; stroke-width: 0.48"/>
     <use xlink:href="#md251eb321d" x="794.61223" y="132.421793" style="stroke: #ffffff; stroke-width: 0.48"/>
     <use xlink:href="#md251eb321d" x="797.019857" y="172.593209" style="stroke: #ffffff; stroke-width: 0.48"/>
     <use xlink:href="#md251eb321d" x="799.349819" y="173.869643" style="stroke: #ffffff; stroke-width: 0.48"/>
     <use xlink:href="#md251eb321d" x="801.757446" y="132.421793" style="stroke: #ffffff; stroke-width: 0.48"/>
     <use xlink:href="#md251eb321d" x="804.165074" y="173.882056" style="stroke: #ffffff; stroke-width: 0.48"/>
     <use xlink:href="#md251eb321d" x="808.747332" y="277.534859" style="stroke: #ffffff; stroke-width: 0.48"/>
     <use xlink:href="#md251eb321d" x="811.077294" y="228.936683" style="stroke: #ffffff; stroke-width: 0.48"/>
     <use xlink:href="#md251eb321d" x="813.484922" y="226.514398" style="stroke: #ffffff; stroke-width: 0.48"/>
     <use xlink:href="#md251eb321d" x="815.814884" y="188.019976" style="stroke: #ffffff; stroke-width: 0.48"/>
     <use xlink:href="#md251eb321d" x="818.222511" y="245.770096" style="stroke: #ffffff; stroke-width: 0.48"/>
     <use xlink:href="#md251eb321d" x="820.630138" y="238.79931" style="stroke: #ffffff; stroke-width: 0.48"/>
     <use xlink:href="#md251eb321d" x="822.9601" y="273.234941" style="stroke: #ffffff; stroke-width: 0.48"/>
     <use xlink:href="#md251eb321d" x="825.367728" y="236.788325" style="stroke: #ffffff; stroke-width: 0.48"/>
     <use xlink:href="#md251eb321d" x="827.69769" y="277.513225" style="stroke: #ffffff; stroke-width: 0.48"/>
     <use xlink:href="#md251eb321d" x="830.105317" y="273.234941" style="stroke: #ffffff; stroke-width: 0.48"/>
     <use xlink:href="#md251eb321d" x="832.512944" y="218.839969" style="stroke: #ffffff; stroke-width: 0.48"/>
     <use xlink:href="#md251eb321d" x="839.50283" y="257.092114" style="stroke: #ffffff; stroke-width: 0.48"/>
     <use xlink:href="#md251eb321d" x="846.648047" y="260.633948" style="stroke: #ffffff; stroke-width: 0.48"/>
     <use xlink:href="#md251eb321d" x="853.793263" y="276.178437" style="stroke: #ffffff; stroke-width: 0.48"/>
     <use xlink:href="#md251eb321d" x="860.93848" y="169.841915" style="stroke: #ffffff; stroke-width: 0.48"/>
     <use xlink:href="#md251eb321d" x="867.850701" y="219.676975" style="stroke: #ffffff; stroke-width: 0.48"/>
     <use xlink:href="#md251eb321d" x="874.995917" y="167.091256" style="stroke: #ffffff; stroke-width: 0.48"/>
     <use xlink:href="#md251eb321d" x="882.141134" y="307.8" style="stroke: #ffffff; stroke-width: 0.48"/>
     <use xlink:href="#md251eb321d" x="889.286351" y="262.764521" style="stroke: #ffffff; stroke-width: 0.48"/>
     <use xlink:href="#md251eb321d" x="896.198571" y="216.26597" style="stroke: #ffffff; stroke-width: 0.48"/>
     <use xlink:href="#md251eb321d" x="903.343788" y="217.442591" style="stroke: #ffffff; stroke-width: 0.48"/>
     <use xlink:href="#md251eb321d" x="910.489004" y="197.880891" style="stroke: #ffffff; stroke-width: 0.48"/>
     <use xlink:href="#md251eb321d" x="917.634221" y="301.217774" style="stroke: #ffffff; stroke-width: 0.48"/>
     <use xlink:href="#md251eb321d" x="924.546441" y="171.244357" style="stroke: #ffffff; stroke-width: 0.48"/>
     <use xlink:href="#md251eb321d" x="929.284031" y="162.729661" style="stroke: #ffffff; stroke-width: 0.48"/>
     <use xlink:href="#md251eb321d" x="931.691658" y="176.360069" style="stroke: #ffffff; stroke-width: 0.48"/>
     <use xlink:href="#md251eb321d" x="938.836875" y="182.077576" style="stroke: #ffffff; stroke-width: 0.48"/>
     <use xlink:href="#md251eb321d" x="960.117194" y="195.47514" style="stroke: #ffffff; stroke-width: 0.48"/>
     <use xlink:href="#md251eb321d" x="967.262411" y="247.754303" style="stroke: #ffffff; stroke-width: 0.48"/>
    </g>
   </g>
  </g>
 </g>
 <defs>
  <clipPath id="pb4338ed113">
   <rect x="135" y="43.2" width="837" height="277.2"/>
  </clipPath>
 </defs>
</svg>
