<?xml version="1.0" encoding="utf-8" standalone="no"?>
<!DOCTYPE svg PUBLIC "-//W3C//DTD SVG 1.1//EN"
  "http://www.w3.org/Graphics/SVG/1.1/DTD/svg11.dtd">
<svg xmlns:xlink="http://www.w3.org/1999/xlink" width="1080pt" height="360pt" viewBox="0 0 1080 360" xmlns="http://www.w3.org/2000/svg" version="1.1">
 <metadata>
  <rdf:RDF xmlns:dc="http://purl.org/dc/elements/1.1/" xmlns:cc="http://creativecommons.org/ns#" xmlns:rdf="http://www.w3.org/1999/02/22-rdf-syntax-ns#">
   <cc:Work>
    <dc:type rdf:resource="http://purl.org/dc/dcmitype/StillImage"/>
    <dc:date>2024-01-23T18:50:23.937373</dc:date>
    <dc:format>image/svg+xml</dc:format>
    <dc:creator>
     <cc:Agent>
      <dc:title>Matplotlib v3.8.2, https://matplotlib.org/</dc:title>
     </cc:Agent>
    </dc:creator>
   </cc:Work>
  </rdf:RDF>
 </metadata>
 <defs>
  <style type="text/css">*{stroke-linejoin: round; stroke-linecap: butt}</style>
 </defs>
 <g id="figure_1">
  <g id="patch_1">
   <path d="M 0 360 
L 1080 360 
L 1080 0 
L 0 0 
z
" style="fill: #ffffff"/>
  </g>
  <g id="axes_1">
   <g id="patch_2">
    <path d="M 135 320.4 
L 972 320.4 
L 972 43.2 
L 135 43.2 
z
" style="fill: #ffffff"/>
   </g>
   <g id="PolyCollection_1"/>
   <g id="matplotlib.axis_1">
    <g id="xtick_1">
     <g id="line2d_1">
      <defs>
       <path id="mc2d8bfd2b7" d="M 0 0 
L 0 3.5 
" style="stroke: #000000; stroke-width: 0.8"/>
      </defs>
      <g>
       <use xlink:href="#mc2d8bfd2b7" x="206.510517" y="320.4" style="stroke: #000000; stroke-width: 0.8"/>
      </g>
     </g>
     <g id="text_1">
      <!-- 1996 -->
      <g transform="translate(193.785517 334.998438) scale(0.1 -0.1)">
       <defs>
        <path id="DejaVuSans-31" d="M 794 531 
L 1825 531 
L 1825 4091 
L 703 3866 
L 703 4441 
L 1819 4666 
L 2450 4666 
L 2450 531 
L 3481 531 
L 3481 0 
L 794 0 
L 794 531 
z
" transform="scale(0.015625)"/>
        <path id="DejaVuSans-39" d="M 703 97 
L 703 672 
Q 941 559 1184 500 
Q 1428 441 1663 441 
Q 2288 441 2617 861 
Q 2947 1281 2994 2138 
Q 2813 1869 2534 1725 
Q 2256 1581 1919 1581 
Q 1219 1581 811 2004 
Q 403 2428 403 3163 
Q 403 3881 828 4315 
Q 1253 4750 1959 4750 
Q 2769 4750 3195 4129 
Q 3622 3509 3622 2328 
Q 3622 1225 3098 567 
Q 2575 -91 1691 -91 
Q 1453 -91 1209 -44 
Q 966 3 703 97 
z
M 1959 2075 
Q 2384 2075 2632 2365 
Q 2881 2656 2881 3163 
Q 2881 3666 2632 3958 
Q 2384 4250 1959 4250 
Q 1534 4250 1286 3958 
Q 1038 3666 1038 3163 
Q 1038 2656 1286 2365 
Q 1534 2075 1959 2075 
z
" transform="scale(0.015625)"/>
        <path id="DejaVuSans-36" d="M 2113 2584 
Q 1688 2584 1439 2293 
Q 1191 2003 1191 1497 
Q 1191 994 1439 701 
Q 1688 409 2113 409 
Q 2538 409 2786 701 
Q 3034 994 3034 1497 
Q 3034 2003 2786 2293 
Q 2538 2584 2113 2584 
z
M 3366 4563 
L 3366 3988 
Q 3128 4100 2886 4159 
Q 2644 4219 2406 4219 
Q 1781 4219 1451 3797 
Q 1122 3375 1075 2522 
Q 1259 2794 1537 2939 
Q 1816 3084 2150 3084 
Q 2853 3084 3261 2657 
Q 3669 2231 3669 1497 
Q 3669 778 3244 343 
Q 2819 -91 2113 -91 
Q 1303 -91 875 529 
Q 447 1150 447 2328 
Q 447 3434 972 4092 
Q 1497 4750 2381 4750 
Q 2619 4750 2861 4703 
Q 3103 4656 3366 4563 
z
" transform="scale(0.015625)"/>
       </defs>
       <use xlink:href="#DejaVuSans-31"/>
       <use xlink:href="#DejaVuSans-39" x="63.623047"/>
       <use xlink:href="#DejaVuSans-39" x="127.246094"/>
       <use xlink:href="#DejaVuSans-36" x="190.869141"/>
      </g>
     </g>
    </g>
    <g id="xtick_2">
     <g id="line2d_2">
      <g>
       <use xlink:href="#mc2d8bfd2b7" x="328.992188" y="320.4" style="stroke: #000000; stroke-width: 0.8"/>
      </g>
     </g>
     <g id="text_2">
      <!-- 2000 -->
      <g transform="translate(316.267187 334.998438) scale(0.1 -0.1)">
       <defs>
        <path id="DejaVuSans-32" d="M 1228 531 
L 3431 531 
L 3431 0 
L 469 0 
L 469 531 
Q 828 903 1448 1529 
Q 2069 2156 2228 2338 
Q 2531 2678 2651 2914 
Q 2772 3150 2772 3378 
Q 2772 3750 2511 3984 
Q 2250 4219 1831 4219 
Q 1534 4219 1204 4116 
Q 875 4013 500 3803 
L 500 4441 
Q 881 4594 1212 4672 
Q 1544 4750 1819 4750 
Q 2544 4750 2975 4387 
Q 3406 4025 3406 3419 
Q 3406 3131 3298 2873 
Q 3191 2616 2906 2266 
Q 2828 2175 2409 1742 
Q 1991 1309 1228 531 
z
" transform="scale(0.015625)"/>
        <path id="DejaVuSans-30" d="M 2034 4250 
Q 1547 4250 1301 3770 
Q 1056 3291 1056 2328 
Q 1056 1369 1301 889 
Q 1547 409 2034 409 
Q 2525 409 2770 889 
Q 3016 1369 3016 2328 
Q 3016 3291 2770 3770 
Q 2525 4250 2034 4250 
z
M 2034 4750 
Q 2819 4750 3233 4129 
Q 3647 3509 3647 2328 
Q 3647 1150 3233 529 
Q 2819 -91 2034 -91 
Q 1250 -91 836 529 
Q 422 1150 422 2328 
Q 422 3509 836 4129 
Q 1250 4750 2034 4750 
z
" transform="scale(0.015625)"/>
       </defs>
       <use xlink:href="#DejaVuSans-32"/>
       <use xlink:href="#DejaVuSans-30" x="63.623047"/>
       <use xlink:href="#DejaVuSans-30" x="127.246094"/>
       <use xlink:href="#DejaVuSans-30" x="190.869141"/>
      </g>
     </g>
    </g>
    <g id="xtick_3">
     <g id="line2d_3">
      <g>
       <use xlink:href="#mc2d8bfd2b7" x="451.473858" y="320.4" style="stroke: #000000; stroke-width: 0.8"/>
      </g>
     </g>
     <g id="text_3">
      <!-- 2004 -->
      <g transform="translate(438.748858 334.998438) scale(0.1 -0.1)">
       <defs>
        <path id="DejaVuSans-34" d="M 2419 4116 
L 825 1625 
L 2419 1625 
L 2419 4116 
z
M 2253 4666 
L 3047 4666 
L 3047 1625 
L 3713 1625 
L 3713 1100 
L 3047 1100 
L 3047 0 
L 2419 0 
L 2419 1100 
L 313 1100 
L 313 1709 
L 2253 4666 
z
" transform="scale(0.015625)"/>
       </defs>
       <use xlink:href="#DejaVuSans-32"/>
       <use xlink:href="#DejaVuSans-30" x="63.623047"/>
       <use xlink:href="#DejaVuSans-30" x="127.246094"/>
       <use xlink:href="#DejaVuSans-34" x="190.869141"/>
      </g>
     </g>
    </g>
    <g id="xtick_4">
     <g id="line2d_4">
      <g>
       <use xlink:href="#mc2d8bfd2b7" x="573.955529" y="320.4" style="stroke: #000000; stroke-width: 0.8"/>
      </g>
     </g>
     <g id="text_4">
      <!-- 2008 -->
      <g transform="translate(561.230529 334.998438) scale(0.1 -0.1)">
       <defs>
        <path id="DejaVuSans-38" d="M 2034 2216 
Q 1584 2216 1326 1975 
Q 1069 1734 1069 1313 
Q 1069 891 1326 650 
Q 1584 409 2034 409 
Q 2484 409 2743 651 
Q 3003 894 3003 1313 
Q 3003 1734 2745 1975 
Q 2488 2216 2034 2216 
z
M 1403 2484 
Q 997 2584 770 2862 
Q 544 3141 544 3541 
Q 544 4100 942 4425 
Q 1341 4750 2034 4750 
Q 2731 4750 3128 4425 
Q 3525 4100 3525 3541 
Q 3525 3141 3298 2862 
Q 3072 2584 2669 2484 
Q 3125 2378 3379 2068 
Q 3634 1759 3634 1313 
Q 3634 634 3220 271 
Q 2806 -91 2034 -91 
Q 1263 -91 848 271 
Q 434 634 434 1313 
Q 434 1759 690 2068 
Q 947 2378 1403 2484 
z
M 1172 3481 
Q 1172 3119 1398 2916 
Q 1625 2713 2034 2713 
Q 2441 2713 2670 2916 
Q 2900 3119 2900 3481 
Q 2900 3844 2670 4047 
Q 2441 4250 2034 4250 
Q 1625 4250 1398 4047 
Q 1172 3844 1172 3481 
z
" transform="scale(0.015625)"/>
       </defs>
       <use xlink:href="#DejaVuSans-32"/>
       <use xlink:href="#DejaVuSans-30" x="63.623047"/>
       <use xlink:href="#DejaVuSans-30" x="127.246094"/>
       <use xlink:href="#DejaVuSans-38" x="190.869141"/>
      </g>
     </g>
    </g>
    <g id="xtick_5">
     <g id="line2d_5">
      <g>
       <use xlink:href="#mc2d8bfd2b7" x="696.4372" y="320.4" style="stroke: #000000; stroke-width: 0.8"/>
      </g>
     </g>
     <g id="text_5">
      <!-- 2012 -->
      <g transform="translate(683.7122 334.998438) scale(0.1 -0.1)">
       <use xlink:href="#DejaVuSans-32"/>
       <use xlink:href="#DejaVuSans-30" x="63.623047"/>
       <use xlink:href="#DejaVuSans-31" x="127.246094"/>
       <use xlink:href="#DejaVuSans-32" x="190.869141"/>
      </g>
     </g>
    </g>
    <g id="xtick_6">
     <g id="line2d_6">
      <g>
       <use xlink:href="#mc2d8bfd2b7" x="818.91887" y="320.4" style="stroke: #000000; stroke-width: 0.8"/>
      </g>
     </g>
     <g id="text_6">
      <!-- 2016 -->
      <g transform="translate(806.19387 334.998438) scale(0.1 -0.1)">
       <use xlink:href="#DejaVuSans-32"/>
       <use xlink:href="#DejaVuSans-30" x="63.623047"/>
       <use xlink:href="#DejaVuSans-31" x="127.246094"/>
       <use xlink:href="#DejaVuSans-36" x="190.869141"/>
      </g>
     </g>
    </g>
    <g id="xtick_7">
     <g id="line2d_7">
      <g>
       <use xlink:href="#mc2d8bfd2b7" x="941.400541" y="320.4" style="stroke: #000000; stroke-width: 0.8"/>
      </g>
     </g>
     <g id="text_7">
      <!-- 2020 -->
      <g transform="translate(928.675541 334.998438) scale(0.1 -0.1)">
       <use xlink:href="#DejaVuSans-32"/>
       <use xlink:href="#DejaVuSans-30" x="63.623047"/>
       <use xlink:href="#DejaVuSans-32" x="127.246094"/>
       <use xlink:href="#DejaVuSans-30" x="190.869141"/>
      </g>
     </g>
    </g>
   </g>
   <g id="matplotlib.axis_2">
    <g id="ytick_1">
     <g id="line2d_8">
      <defs>
       <path id="m29e72663c7" d="M 0 0 
L -3.5 0 
" style="stroke: #000000; stroke-width: 0.8"/>
      </defs>
      <g>
       <use xlink:href="#m29e72663c7" x="135" y="309.004133" style="stroke: #000000; stroke-width: 0.8"/>
      </g>
     </g>
     <g id="text_8">
      <!-- −2.0 -->
      <g transform="translate(103.717187 312.803351) scale(0.1 -0.1)">
       <defs>
        <path id="DejaVuSans-2212" d="M 678 2272 
L 4684 2272 
L 4684 1741 
L 678 1741 
L 678 2272 
z
" transform="scale(0.015625)"/>
        <path id="DejaVuSans-2e" d="M 684 794 
L 1344 794 
L 1344 0 
L 684 0 
L 684 794 
z
" transform="scale(0.015625)"/>
       </defs>
       <use xlink:href="#DejaVuSans-2212"/>
       <use xlink:href="#DejaVuSans-32" x="83.789062"/>
       <use xlink:href="#DejaVuSans-2e" x="147.412109"/>
       <use xlink:href="#DejaVuSans-30" x="179.199219"/>
      </g>
     </g>
    </g>
    <g id="ytick_2">
     <g id="line2d_9">
      <g>
       <use xlink:href="#m29e72663c7" x="135" y="277.003677" style="stroke: #000000; stroke-width: 0.8"/>
      </g>
     </g>
     <g id="text_9">
      <!-- −1.5 -->
      <g transform="translate(103.717187 280.802895) scale(0.1 -0.1)">
       <defs>
        <path id="DejaVuSans-35" d="M 691 4666 
L 3169 4666 
L 3169 4134 
L 1269 4134 
L 1269 2991 
Q 1406 3038 1543 3061 
Q 1681 3084 1819 3084 
Q 2600 3084 3056 2656 
Q 3513 2228 3513 1497 
Q 3513 744 3044 326 
Q 2575 -91 1722 -91 
Q 1428 -91 1123 -41 
Q 819 9 494 109 
L 494 744 
Q 775 591 1075 516 
Q 1375 441 1709 441 
Q 2250 441 2565 725 
Q 2881 1009 2881 1497 
Q 2881 1984 2565 2268 
Q 2250 2553 1709 2553 
Q 1456 2553 1204 2497 
Q 953 2441 691 2322 
L 691 4666 
z
" transform="scale(0.015625)"/>
       </defs>
       <use xlink:href="#DejaVuSans-2212"/>
       <use xlink:href="#DejaVuSans-31" x="83.789062"/>
       <use xlink:href="#DejaVuSans-2e" x="147.412109"/>
       <use xlink:href="#DejaVuSans-35" x="179.199219"/>
      </g>
     </g>
    </g>
    <g id="ytick_3">
     <g id="line2d_10">
      <g>
       <use xlink:href="#m29e72663c7" x="135" y="245.003221" style="stroke: #000000; stroke-width: 0.8"/>
      </g>
     </g>
     <g id="text_10">
      <!-- −1.0 -->
      <g transform="translate(103.717187 248.802439) scale(0.1 -0.1)">
       <use xlink:href="#DejaVuSans-2212"/>
       <use xlink:href="#DejaVuSans-31" x="83.789062"/>
       <use xlink:href="#DejaVuSans-2e" x="147.412109"/>
       <use xlink:href="#DejaVuSans-30" x="179.199219"/>
      </g>
     </g>
    </g>
    <g id="ytick_4">
     <g id="line2d_11">
      <g>
       <use xlink:href="#m29e72663c7" x="135" y="213.002765" style="stroke: #000000; stroke-width: 0.8"/>
      </g>
     </g>
     <g id="text_11">
      <!-- −0.5 -->
      <g transform="translate(103.717187 216.801983) scale(0.1 -0.1)">
       <use xlink:href="#DejaVuSans-2212"/>
       <use xlink:href="#DejaVuSans-30" x="83.789062"/>
       <use xlink:href="#DejaVuSans-2e" x="147.412109"/>
       <use xlink:href="#DejaVuSans-35" x="179.199219"/>
      </g>
     </g>
    </g>
    <g id="ytick_5">
     <g id="line2d_12">
      <g>
       <use xlink:href="#m29e72663c7" x="135" y="181.002309" style="stroke: #000000; stroke-width: 0.8"/>
      </g>
     </g>
     <g id="text_12">
      <!-- 0.0 -->
      <g transform="translate(112.096875 184.801527) scale(0.1 -0.1)">
       <use xlink:href="#DejaVuSans-30"/>
       <use xlink:href="#DejaVuSans-2e" x="63.623047"/>
       <use xlink:href="#DejaVuSans-30" x="95.410156"/>
      </g>
     </g>
    </g>
    <g id="ytick_6">
     <g id="line2d_13">
      <g>
       <use xlink:href="#m29e72663c7" x="135" y="149.001853" style="stroke: #000000; stroke-width: 0.8"/>
      </g>
     </g>
     <g id="text_13">
      <!-- 0.5 -->
      <g transform="translate(112.096875 152.801071) scale(0.1 -0.1)">
       <use xlink:href="#DejaVuSans-30"/>
       <use xlink:href="#DejaVuSans-2e" x="63.623047"/>
       <use xlink:href="#DejaVuSans-35" x="95.410156"/>
      </g>
     </g>
    </g>
    <g id="ytick_7">
     <g id="line2d_14">
      <g>
       <use xlink:href="#m29e72663c7" x="135" y="117.001397" style="stroke: #000000; stroke-width: 0.8"/>
      </g>
     </g>
     <g id="text_14">
      <!-- 1.0 -->
      <g transform="translate(112.096875 120.800615) scale(0.1 -0.1)">
       <use xlink:href="#DejaVuSans-31"/>
       <use xlink:href="#DejaVuSans-2e" x="63.623047"/>
       <use xlink:href="#DejaVuSans-30" x="95.410156"/>
      </g>
     </g>
    </g>
    <g id="ytick_8">
     <g id="line2d_15">
      <g>
       <use xlink:href="#m29e72663c7" x="135" y="85.000941" style="stroke: #000000; stroke-width: 0.8"/>
      </g>
     </g>
     <g id="text_15">
      <!-- 1.5 -->
      <g transform="translate(112.096875 88.800159) scale(0.1 -0.1)">
       <use xlink:href="#DejaVuSans-31"/>
       <use xlink:href="#DejaVuSans-2e" x="63.623047"/>
       <use xlink:href="#DejaVuSans-35" x="95.410156"/>
      </g>
     </g>
    </g>
    <g id="ytick_9">
     <g id="line2d_16">
      <g>
       <use xlink:href="#m29e72663c7" x="135" y="53.000485" style="stroke: #000000; stroke-width: 0.8"/>
      </g>
     </g>
     <g id="text_16">
      <!-- 2.0 -->
      <g transform="translate(112.096875 56.799704) scale(0.1 -0.1)">
       <use xlink:href="#DejaVuSans-32"/>
       <use xlink:href="#DejaVuSans-2e" x="63.623047"/>
       <use xlink:href="#DejaVuSans-30" x="95.410156"/>
      </g>
     </g>
    </g>
    <g id="text_17">
     <!-- SGI -->
     <g transform="translate(97.6375 190.323437) rotate(-90) scale(0.1 -0.1)">
      <defs>
       <path id="DejaVuSans-53" d="M 3425 4513 
L 3425 3897 
Q 3066 4069 2747 4153 
Q 2428 4238 2131 4238 
Q 1616 4238 1336 4038 
Q 1056 3838 1056 3469 
Q 1056 3159 1242 3001 
Q 1428 2844 1947 2747 
L 2328 2669 
Q 3034 2534 3370 2195 
Q 3706 1856 3706 1288 
Q 3706 609 3251 259 
Q 2797 -91 1919 -91 
Q 1588 -91 1214 -16 
Q 841 59 441 206 
L 441 856 
Q 825 641 1194 531 
Q 1563 422 1919 422 
Q 2459 422 2753 634 
Q 3047 847 3047 1241 
Q 3047 1584 2836 1778 
Q 2625 1972 2144 2069 
L 1759 2144 
Q 1053 2284 737 2584 
Q 422 2884 422 3419 
Q 422 4038 858 4394 
Q 1294 4750 2059 4750 
Q 2388 4750 2728 4690 
Q 3069 4631 3425 4513 
z
" transform="scale(0.015625)"/>
       <path id="DejaVuSans-47" d="M 3809 666 
L 3809 1919 
L 2778 1919 
L 2778 2438 
L 4434 2438 
L 4434 434 
Q 4069 175 3628 42 
Q 3188 -91 2688 -91 
Q 1594 -91 976 548 
Q 359 1188 359 2328 
Q 359 3472 976 4111 
Q 1594 4750 2688 4750 
Q 3144 4750 3555 4637 
Q 3966 4525 4313 4306 
L 4313 3634 
Q 3963 3931 3569 4081 
Q 3175 4231 2741 4231 
Q 1884 4231 1454 3753 
Q 1025 3275 1025 2328 
Q 1025 1384 1454 906 
Q 1884 428 2741 428 
Q 3075 428 3337 486 
Q 3600 544 3809 666 
z
" transform="scale(0.015625)"/>
       <path id="DejaVuSans-49" d="M 628 4666 
L 1259 4666 
L 1259 0 
L 628 0 
L 628 4666 
z
" transform="scale(0.015625)"/>
      </defs>
      <use xlink:href="#DejaVuSans-53"/>
      <use xlink:href="#DejaVuSans-47" x="63.476562"/>
      <use xlink:href="#DejaVuSans-49" x="140.966797"/>
     </g>
    </g>
   </g>
   <g id="line2d_17">
    <path d="M 135 116.644792 
L 145.227764 55.8 
L 152.772837 137.853589 
L 160.401743 124.929016 
L 168.114483 113.960788 
L 175.827224 163.468302 
L 183.372296 194.445426 
L 191.001202 77.629254 
L 198.713942 77.736439 
L 206.426683 88.701053 
L 214.055589 159.779069 
L 221.684495 120.481205 
L 237.109976 104.107222 
L 259.996695 137.694433 
L 270.308293 93.122813 
L 275.254507 111.538167 
L 277.769531 168.604399 
L 282.883413 131.700624 
L 293.195012 106.209224 
L 295.710036 102.41811 
L 298.308894 147.042735 
L 300.907752 173.78689 
L 303.255108 142.850333 
L 305.853966 148.48463 
L 308.36899 94.339589 
L 310.967849 87.207961 
L 313.482873 153.296186 
L 318.680589 139.670419 
L 326.309495 167.559191 
L 328.908353 167.514985 
L 331.507212 144.280454 
L 339.052284 152.333398 
L 341.651142 161.447046 
L 354.477764 131.126063 
L 356.992788 132.361477 
L 359.591647 126.468945 
L 362.190505 182.679746 
L 364.537861 145.31392 
L 367.136719 176.553745 
L 369.651743 117.912367 
L 372.250601 130.349936 
L 390.191106 127.928721 
L 397.736178 185.450872 
L 405.365084 193.396651 
L 428.335637 166.111033 
L 435.964543 167.725609 
L 451.390024 143.754749 
L 459.01893 125.866384 
L 476.959435 148.149563 
L 482.073317 182.397738 
L 489.618389 58.445009 
L 512.672776 172.374106 
L 520.217849 92.474161 
L 543.272236 176.556139 
L 591.728365 114.463686 
L 665.753906 196.403119 
L 673.298978 213.519987 
L 680.927885 180.729973 
L 688.640625 156.399397 
L 703.982272 203.725596 
L 709.096154 177.373655 
L 714.210036 150.204232 
L 742.210637 210.138325 
L 744.809495 178.854487 
L 749.923377 195.530091 
L 757.636118 212.797238 
L 765.18119 224.151029 
L 772.810096 241.013478 
L 783.121695 229.558804 
L 788.235577 204.405018 
L 798.295673 212.257391 
L 811.122296 215.958823 
L 818.835036 274.796658 
L 826.463942 253.074229 
L 841.805589 273.305633 
L 849.518329 242.914431 
L 857.063401 265.985932 
L 862.177284 274.796656 
L 880.117788 256.514989 
L 890.177885 237.772436 
L 895.291767 294.234017 
L 897.890625 251.232009 
L 900.489483 240.523684 
L 903.004507 254.524981 
L 905.603365 274.796656 
L 908.118389 269.530456 
L 910.717248 307.8 
L 913.316106 269.530456 
L 915.663462 236.376779 
L 918.26232 303.559608 
L 920.777344 279.207531 
L 923.376202 231.654681 
L 925.891226 252.0353 
L 928.490084 219.626084 
L 931.088942 212.788464 
L 933.603966 202.198435 
L 936.202825 184.459198 
L 938.717849 194.445426 
L 941.316707 231.654681 
L 943.915565 224.151029 
L 946.346755 202.140096 
L 948.945613 236.138234 
L 951.460637 191.049914 
L 954.059495 204.405014 
L 956.574519 216.200997 
L 959.173377 174.327777 
L 961.772236 192.158793 
L 964.28726 176.56793 
L 966.886118 202.370245 
L 969.401142 224.151029 
L 972 221.780891 
" clip-path="url(#p08964e194b)" style="fill: none; stroke: #7f7f7f; stroke-width: 1.5; stroke-linecap: square"/>
   </g>
   <g id="line2d_18">
    <path d="M 135 181.002309 
L 972 181.002309 
" clip-path="url(#p08964e194b)" style="fill: none; stroke: #000000; stroke-width: 1.5; stroke-linecap: square"/>
   </g>
   <g id="patch_3">
    <path d="M 135 320.4 
L 135 43.2 
" style="fill: none; stroke: #000000; stroke-width: 0.8; stroke-linejoin: miter; stroke-linecap: square"/>
   </g>
   <g id="patch_4">
    <path d="M 135 320.4 
L 972 320.4 
" style="fill: none; stroke: #000000; stroke-width: 0.8; stroke-linejoin: miter; stroke-linecap: square"/>
   </g>
   <g id="text_18">
    <!-- SGI for GWIC ID 130860 -->
    <g transform="translate(135 37.2) scale(0.12 -0.12)">
     <defs>
      <path id="DejaVuSans-Bold-53" d="M 3834 4519 
L 3834 3531 
Q 3450 3703 3084 3790 
Q 2719 3878 2394 3878 
Q 1963 3878 1756 3759 
Q 1550 3641 1550 3391 
Q 1550 3203 1689 3098 
Q 1828 2994 2194 2919 
L 2706 2816 
Q 3484 2659 3812 2340 
Q 4141 2022 4141 1434 
Q 4141 663 3683 286 
Q 3225 -91 2284 -91 
Q 1841 -91 1394 -6 
Q 947 78 500 244 
L 500 1259 
Q 947 1022 1364 901 
Q 1781 781 2169 781 
Q 2563 781 2772 912 
Q 2981 1044 2981 1288 
Q 2981 1506 2839 1625 
Q 2697 1744 2272 1838 
L 1806 1941 
Q 1106 2091 782 2419 
Q 459 2747 459 3303 
Q 459 4000 909 4375 
Q 1359 4750 2203 4750 
Q 2588 4750 2994 4692 
Q 3400 4634 3834 4519 
z
" transform="scale(0.015625)"/>
      <path id="DejaVuSans-Bold-47" d="M 4781 347 
Q 4331 128 3847 18 
Q 3363 -91 2847 -91 
Q 1681 -91 1000 561 
Q 319 1213 319 2328 
Q 319 3456 1012 4103 
Q 1706 4750 2913 4750 
Q 3378 4750 3804 4662 
Q 4231 4575 4609 4403 
L 4609 3438 
Q 4219 3659 3833 3768 
Q 3447 3878 3059 3878 
Q 2341 3878 1952 3476 
Q 1563 3075 1563 2328 
Q 1563 1588 1938 1184 
Q 2313 781 3003 781 
Q 3191 781 3352 804 
Q 3513 828 3641 878 
L 3641 1784 
L 2906 1784 
L 2906 2591 
L 4781 2591 
L 4781 347 
z
" transform="scale(0.015625)"/>
      <path id="DejaVuSans-Bold-49" d="M 588 4666 
L 1791 4666 
L 1791 0 
L 588 0 
L 588 4666 
z
" transform="scale(0.015625)"/>
      <path id="DejaVuSans-Bold-20" transform="scale(0.015625)"/>
      <path id="DejaVuSans-Bold-66" d="M 2841 4863 
L 2841 4128 
L 2222 4128 
Q 1984 4128 1890 4042 
Q 1797 3956 1797 3744 
L 1797 3500 
L 2753 3500 
L 2753 2700 
L 1797 2700 
L 1797 0 
L 678 0 
L 678 2700 
L 122 2700 
L 122 3500 
L 678 3500 
L 678 3744 
Q 678 4316 997 4589 
Q 1316 4863 1984 4863 
L 2841 4863 
z
" transform="scale(0.015625)"/>
      <path id="DejaVuSans-Bold-6f" d="M 2203 2784 
Q 1831 2784 1636 2517 
Q 1441 2250 1441 1747 
Q 1441 1244 1636 976 
Q 1831 709 2203 709 
Q 2569 709 2762 976 
Q 2956 1244 2956 1747 
Q 2956 2250 2762 2517 
Q 2569 2784 2203 2784 
z
M 2203 3584 
Q 3106 3584 3614 3096 
Q 4122 2609 4122 1747 
Q 4122 884 3614 396 
Q 3106 -91 2203 -91 
Q 1297 -91 786 396 
Q 275 884 275 1747 
Q 275 2609 786 3096 
Q 1297 3584 2203 3584 
z
" transform="scale(0.015625)"/>
      <path id="DejaVuSans-Bold-72" d="M 3138 2547 
Q 2991 2616 2845 2648 
Q 2700 2681 2553 2681 
Q 2122 2681 1889 2404 
Q 1656 2128 1656 1613 
L 1656 0 
L 538 0 
L 538 3500 
L 1656 3500 
L 1656 2925 
Q 1872 3269 2151 3426 
Q 2431 3584 2822 3584 
Q 2878 3584 2943 3579 
Q 3009 3575 3134 3559 
L 3138 2547 
z
" transform="scale(0.015625)"/>
      <path id="DejaVuSans-Bold-57" d="M 191 4666 
L 1344 4666 
L 2150 1275 
L 2950 4666 
L 4109 4666 
L 4909 1275 
L 5716 4666 
L 6859 4666 
L 5759 0 
L 4372 0 
L 3525 3547 
L 2688 0 
L 1300 0 
L 191 4666 
z
" transform="scale(0.015625)"/>
      <path id="DejaVuSans-Bold-43" d="M 4288 256 
Q 3956 84 3597 -3 
Q 3238 -91 2847 -91 
Q 1681 -91 1000 561 
Q 319 1213 319 2328 
Q 319 3447 1000 4098 
Q 1681 4750 2847 4750 
Q 3238 4750 3597 4662 
Q 3956 4575 4288 4403 
L 4288 3438 
Q 3953 3666 3628 3772 
Q 3303 3878 2944 3878 
Q 2300 3878 1931 3465 
Q 1563 3053 1563 2328 
Q 1563 1606 1931 1193 
Q 2300 781 2944 781 
Q 3303 781 3628 887 
Q 3953 994 4288 1222 
L 4288 256 
z
" transform="scale(0.015625)"/>
      <path id="DejaVuSans-Bold-44" d="M 1791 3756 
L 1791 909 
L 2222 909 
Q 2959 909 3348 1275 
Q 3738 1641 3738 2338 
Q 3738 3031 3350 3393 
Q 2963 3756 2222 3756 
L 1791 3756 
z
M 588 4666 
L 1856 4666 
Q 2919 4666 3439 4514 
Q 3959 4363 4331 4000 
Q 4659 3684 4818 3271 
Q 4978 2859 4978 2338 
Q 4978 1809 4818 1395 
Q 4659 981 4331 666 
Q 3956 303 3431 151 
Q 2906 0 1856 0 
L 588 0 
L 588 4666 
z
" transform="scale(0.015625)"/>
      <path id="DejaVuSans-Bold-31" d="M 750 831 
L 1813 831 
L 1813 3847 
L 722 3622 
L 722 4441 
L 1806 4666 
L 2950 4666 
L 2950 831 
L 4013 831 
L 4013 0 
L 750 0 
L 750 831 
z
" transform="scale(0.015625)"/>
      <path id="DejaVuSans-Bold-33" d="M 2981 2516 
Q 3453 2394 3698 2092 
Q 3944 1791 3944 1325 
Q 3944 631 3412 270 
Q 2881 -91 1863 -91 
Q 1503 -91 1142 -33 
Q 781 25 428 141 
L 428 1069 
Q 766 900 1098 814 
Q 1431 728 1753 728 
Q 2231 728 2486 893 
Q 2741 1059 2741 1369 
Q 2741 1688 2480 1852 
Q 2219 2016 1709 2016 
L 1228 2016 
L 1228 2791 
L 1734 2791 
Q 2188 2791 2409 2933 
Q 2631 3075 2631 3366 
Q 2631 3634 2415 3781 
Q 2200 3928 1806 3928 
Q 1516 3928 1219 3862 
Q 922 3797 628 3669 
L 628 4550 
Q 984 4650 1334 4700 
Q 1684 4750 2022 4750 
Q 2931 4750 3382 4451 
Q 3834 4153 3834 3553 
Q 3834 3144 3618 2883 
Q 3403 2622 2981 2516 
z
" transform="scale(0.015625)"/>
      <path id="DejaVuSans-Bold-30" d="M 2944 2338 
Q 2944 3213 2780 3570 
Q 2616 3928 2228 3928 
Q 1841 3928 1675 3570 
Q 1509 3213 1509 2338 
Q 1509 1453 1675 1090 
Q 1841 728 2228 728 
Q 2613 728 2778 1090 
Q 2944 1453 2944 2338 
z
M 4147 2328 
Q 4147 1169 3647 539 
Q 3147 -91 2228 -91 
Q 1306 -91 806 539 
Q 306 1169 306 2328 
Q 306 3491 806 4120 
Q 1306 4750 2228 4750 
Q 3147 4750 3647 4120 
Q 4147 3491 4147 2328 
z
" transform="scale(0.015625)"/>
      <path id="DejaVuSans-Bold-38" d="M 2228 2088 
Q 1891 2088 1709 1903 
Q 1528 1719 1528 1375 
Q 1528 1031 1709 848 
Q 1891 666 2228 666 
Q 2563 666 2741 848 
Q 2919 1031 2919 1375 
Q 2919 1722 2741 1905 
Q 2563 2088 2228 2088 
z
M 1350 2484 
Q 925 2613 709 2878 
Q 494 3144 494 3541 
Q 494 4131 934 4440 
Q 1375 4750 2228 4750 
Q 3075 4750 3515 4442 
Q 3956 4134 3956 3541 
Q 3956 3144 3739 2878 
Q 3522 2613 3097 2484 
Q 3572 2353 3814 2058 
Q 4056 1763 4056 1313 
Q 4056 619 3595 264 
Q 3134 -91 2228 -91 
Q 1319 -91 855 264 
Q 391 619 391 1313 
Q 391 1763 633 2058 
Q 875 2353 1350 2484 
z
M 1631 3419 
Q 1631 3141 1786 2991 
Q 1941 2841 2228 2841 
Q 2509 2841 2662 2991 
Q 2816 3141 2816 3419 
Q 2816 3697 2662 3845 
Q 2509 3994 2228 3994 
Q 1941 3994 1786 3844 
Q 1631 3694 1631 3419 
z
" transform="scale(0.015625)"/>
      <path id="DejaVuSans-Bold-36" d="M 2316 2303 
Q 2000 2303 1842 2098 
Q 1684 1894 1684 1484 
Q 1684 1075 1842 870 
Q 2000 666 2316 666 
Q 2634 666 2792 870 
Q 2950 1075 2950 1484 
Q 2950 1894 2792 2098 
Q 2634 2303 2316 2303 
z
M 3803 4544 
L 3803 3681 
Q 3506 3822 3243 3889 
Q 2981 3956 2731 3956 
Q 2194 3956 1894 3657 
Q 1594 3359 1544 2772 
Q 1750 2925 1990 3001 
Q 2231 3078 2516 3078 
Q 3231 3078 3670 2659 
Q 4109 2241 4109 1563 
Q 4109 813 3618 361 
Q 3128 -91 2303 -91 
Q 1394 -91 895 523 
Q 397 1138 397 2266 
Q 397 3422 980 4083 
Q 1563 4744 2578 4744 
Q 2900 4744 3203 4694 
Q 3506 4644 3803 4544 
z
" transform="scale(0.015625)"/>
     </defs>
     <use xlink:href="#DejaVuSans-Bold-53"/>
     <use xlink:href="#DejaVuSans-Bold-47" x="72.021484"/>
     <use xlink:href="#DejaVuSans-Bold-49" x="154.101562"/>
     <use xlink:href="#DejaVuSans-Bold-20" x="191.308594"/>
     <use xlink:href="#DejaVuSans-Bold-66" x="226.123047"/>
     <use xlink:href="#DejaVuSans-Bold-6f" x="269.628906"/>
     <use xlink:href="#DejaVuSans-Bold-72" x="338.330078"/>
     <use xlink:href="#DejaVuSans-Bold-20" x="387.646484"/>
     <use xlink:href="#DejaVuSans-Bold-47" x="422.460938"/>
     <use xlink:href="#DejaVuSans-Bold-57" x="504.541016"/>
     <use xlink:href="#DejaVuSans-Bold-49" x="614.84375"/>
     <use xlink:href="#DejaVuSans-Bold-43" x="652.050781"/>
     <use xlink:href="#DejaVuSans-Bold-20" x="725.439453"/>
     <use xlink:href="#DejaVuSans-Bold-49" x="760.253906"/>
     <use xlink:href="#DejaVuSans-Bold-44" x="797.460938"/>
     <use xlink:href="#DejaVuSans-Bold-20" x="880.46875"/>
     <use xlink:href="#DejaVuSans-Bold-31" x="915.283203"/>
     <use xlink:href="#DejaVuSans-Bold-33" x="984.863281"/>
     <use xlink:href="#DejaVuSans-Bold-30" x="1054.443359"/>
     <use xlink:href="#DejaVuSans-Bold-38" x="1124.023438"/>
     <use xlink:href="#DejaVuSans-Bold-36" x="1193.603516"/>
     <use xlink:href="#DejaVuSans-Bold-30" x="1263.183594"/>
    </g>
   </g>
   <g id="PathCollection_1">
    <defs>
     <path id="mbefb545454" d="M 0 3 
C 0.795609 3 1.55874 2.683901 2.12132 2.12132 
C 2.683901 1.55874 3 0.795609 3 0 
C 3 -0.795609 2.683901 -1.55874 2.12132 -2.12132 
C 1.55874 -2.683901 0.795609 -3 0 -3 
C -0.795609 -3 -1.55874 -2.683901 -2.12132 -2.12132 
C -2.683901 -1.55874 -3 -0.795609 -3 0 
C -3 0.795609 -2.683901 1.55874 -2.12132 2.12132 
C -1.55874 2.683901 -0.795609 3 0 3 
z
" style="stroke: #ffffff; stroke-width: 0.48"/>
    </defs>
    <g clip-path="url(#p08964e194b)">
     <use xlink:href="#mbefb545454" x="135" y="116.644792" style="stroke: #ffffff; stroke-width: 0.48"/>
     <use xlink:href="#mbefb545454" x="145.227764" y="55.8" style="stroke: #ffffff; stroke-width: 0.48"/>
     <use xlink:href="#mbefb545454" x="152.772837" y="137.853589" style="stroke: #ffffff; stroke-width: 0.48"/>
     <use xlink:href="#mbefb545454" x="160.401743" y="124.929016" style="stroke: #ffffff; stroke-width: 0.48"/>
     <use xlink:href="#mbefb545454" x="168.114483" y="113.960788" style="stroke: #ffffff; stroke-width: 0.48"/>
     <use xlink:href="#mbefb545454" x="175.827224" y="163.468302" style="stroke: #ffffff; stroke-width: 0.48"/>
     <use xlink:href="#mbefb545454" x="183.372296" y="194.445426" style="stroke: #ffffff; stroke-width: 0.48"/>
     <use xlink:href="#mbefb545454" x="191.001202" y="77.629254" style="stroke: #ffffff; stroke-width: 0.48"/>
     <use xlink:href="#mbefb545454" x="198.713942" y="77.736439" style="stroke: #ffffff; stroke-width: 0.48"/>
     <use xlink:href="#mbefb545454" x="206.426683" y="88.701053" style="stroke: #ffffff; stroke-width: 0.48"/>
     <use xlink:href="#mbefb545454" x="214.055589" y="159.779069" style="stroke: #ffffff; stroke-width: 0.48"/>
     <use xlink:href="#mbefb545454" x="221.684495" y="120.481205" style="stroke: #ffffff; stroke-width: 0.48"/>
     <use xlink:href="#mbefb545454" x="237.109976" y="104.107222" style="stroke: #ffffff; stroke-width: 0.48"/>
     <use xlink:href="#mbefb545454" x="259.996695" y="137.694433" style="stroke: #ffffff; stroke-width: 0.48"/>
     <use xlink:href="#mbefb545454" x="270.308293" y="93.122813" style="stroke: #ffffff; stroke-width: 0.48"/>
     <use xlink:href="#mbefb545454" x="275.254507" y="111.538167" style="stroke: #ffffff; stroke-width: 0.48"/>
     <use xlink:href="#mbefb545454" x="277.769531" y="168.604399" style="stroke: #ffffff; stroke-width: 0.48"/>
     <use xlink:href="#mbefb545454" x="282.883413" y="131.700624" style="stroke: #ffffff; stroke-width: 0.48"/>
     <use xlink:href="#mbefb545454" x="293.195012" y="106.209224" style="stroke: #ffffff; stroke-width: 0.48"/>
     <use xlink:href="#mbefb545454" x="295.710036" y="102.41811" style="stroke: #ffffff; stroke-width: 0.48"/>
     <use xlink:href="#mbefb545454" x="298.308894" y="147.042735" style="stroke: #ffffff; stroke-width: 0.48"/>
     <use xlink:href="#mbefb545454" x="300.907752" y="173.78689" style="stroke: #ffffff; stroke-width: 0.48"/>
     <use xlink:href="#mbefb545454" x="303.255108" y="142.850333" style="stroke: #ffffff; stroke-width: 0.48"/>
     <use xlink:href="#mbefb545454" x="305.853966" y="148.48463" style="stroke: #ffffff; stroke-width: 0.48"/>
     <use xlink:href="#mbefb545454" x="308.36899" y="94.339589" style="stroke: #ffffff; stroke-width: 0.48"/>
     <use xlink:href="#mbefb545454" x="310.967849" y="87.207961" style="stroke: #ffffff; stroke-width: 0.48"/>
     <use xlink:href="#mbefb545454" x="313.482873" y="153.296186" style="stroke: #ffffff; stroke-width: 0.48"/>
     <use xlink:href="#mbefb545454" x="318.680589" y="139.670419" style="stroke: #ffffff; stroke-width: 0.48"/>
     <use xlink:href="#mbefb545454" x="326.309495" y="167.559191" style="stroke: #ffffff; stroke-width: 0.48"/>
     <use xlink:href="#mbefb545454" x="328.908353" y="167.514985" style="stroke: #ffffff; stroke-width: 0.48"/>
     <use xlink:href="#mbefb545454" x="331.507212" y="144.280454" style="stroke: #ffffff; stroke-width: 0.48"/>
     <use xlink:href="#mbefb545454" x="339.052284" y="152.333398" style="stroke: #ffffff; stroke-width: 0.48"/>
     <use xlink:href="#mbefb545454" x="341.651142" y="161.447046" style="stroke: #ffffff; stroke-width: 0.48"/>
     <use xlink:href="#mbefb545454" x="354.477764" y="131.126063" style="stroke: #ffffff; stroke-width: 0.48"/>
     <use xlink:href="#mbefb545454" x="356.992788" y="132.361477" style="stroke: #ffffff; stroke-width: 0.48"/>
     <use xlink:href="#mbefb545454" x="359.591647" y="126.468945" style="stroke: #ffffff; stroke-width: 0.48"/>
     <use xlink:href="#mbefb545454" x="362.190505" y="182.679746" style="stroke: #ffffff; stroke-width: 0.48"/>
     <use xlink:href="#mbefb545454" x="364.537861" y="145.31392" style="stroke: #ffffff; stroke-width: 0.48"/>
     <use xlink:href="#mbefb545454" x="367.136719" y="176.553745" style="stroke: #ffffff; stroke-width: 0.48"/>
     <use xlink:href="#mbefb545454" x="369.651743" y="117.912367" style="stroke: #ffffff; stroke-width: 0.48"/>
     <use xlink:href="#mbefb545454" x="372.250601" y="130.349936" style="stroke: #ffffff; stroke-width: 0.48"/>
     <use xlink:href="#mbefb545454" x="390.191106" y="127.928721" style="stroke: #ffffff; stroke-width: 0.48"/>
     <use xlink:href="#mbefb545454" x="397.736178" y="185.450872" style="stroke: #ffffff; stroke-width: 0.48"/>
     <use xlink:href="#mbefb545454" x="405.365084" y="193.396651" style="stroke: #ffffff; stroke-width: 0.48"/>
     <use xlink:href="#mbefb545454" x="428.335637" y="166.111033" style="stroke: #ffffff; stroke-width: 0.48"/>
     <use xlink:href="#mbefb545454" x="435.964543" y="167.725609" style="stroke: #ffffff; stroke-width: 0.48"/>
     <use xlink:href="#mbefb545454" x="451.390024" y="143.754749" style="stroke: #ffffff; stroke-width: 0.48"/>
     <use xlink:href="#mbefb545454" x="459.01893" y="125.866384" style="stroke: #ffffff; stroke-width: 0.48"/>
     <use xlink:href="#mbefb545454" x="476.959435" y="148.149563" style="stroke: #ffffff; stroke-width: 0.48"/>
     <use xlink:href="#mbefb545454" x="482.073317" y="182.397738" style="stroke: #ffffff; stroke-width: 0.48"/>
     <use xlink:href="#mbefb545454" x="489.618389" y="58.445009" style="stroke: #ffffff; stroke-width: 0.48"/>
     <use xlink:href="#mbefb545454" x="512.672776" y="172.374106" style="stroke: #ffffff; stroke-width: 0.48"/>
     <use xlink:href="#mbefb545454" x="520.217849" y="92.474161" style="stroke: #ffffff; stroke-width: 0.48"/>
     <use xlink:href="#mbefb545454" x="543.272236" y="176.556139" style="stroke: #ffffff; stroke-width: 0.48"/>
     <use xlink:href="#mbefb545454" x="591.728365" y="114.463686" style="stroke: #ffffff; stroke-width: 0.48"/>
     <use xlink:href="#mbefb545454" x="665.753906" y="196.403119" style="stroke: #ffffff; stroke-width: 0.48"/>
     <use xlink:href="#mbefb545454" x="673.298978" y="213.519987" style="stroke: #ffffff; stroke-width: 0.48"/>
     <use xlink:href="#mbefb545454" x="680.927885" y="180.729973" style="stroke: #ffffff; stroke-width: 0.48"/>
     <use xlink:href="#mbefb545454" x="688.640625" y="156.399397" style="stroke: #ffffff; stroke-width: 0.48"/>
     <use xlink:href="#mbefb545454" x="703.982272" y="203.725596" style="stroke: #ffffff; stroke-width: 0.48"/>
     <use xlink:href="#mbefb545454" x="709.096154" y="177.373655" style="stroke: #ffffff; stroke-width: 0.48"/>
     <use xlink:href="#mbefb545454" x="714.210036" y="150.204232" style="stroke: #ffffff; stroke-width: 0.48"/>
     <use xlink:href="#mbefb545454" x="742.210637" y="210.138325" style="stroke: #ffffff; stroke-width: 0.48"/>
     <use xlink:href="#mbefb545454" x="744.809495" y="178.854487" style="stroke: #ffffff; stroke-width: 0.48"/>
     <use xlink:href="#mbefb545454" x="749.923377" y="195.530091" style="stroke: #ffffff; stroke-width: 0.48"/>
     <use xlink:href="#mbefb545454" x="757.636118" y="212.797238" style="stroke: #ffffff; stroke-width: 0.48"/>
     <use xlink:href="#mbefb545454" x="765.18119" y="224.151029" style="stroke: #ffffff; stroke-width: 0.48"/>
     <use xlink:href="#mbefb545454" x="772.810096" y="241.013478" style="stroke: #ffffff; stroke-width: 0.48"/>
     <use xlink:href="#mbefb545454" x="783.121695" y="229.558804" style="stroke: #ffffff; stroke-width: 0.48"/>
     <use xlink:href="#mbefb545454" x="788.235577" y="204.405018" style="stroke: #ffffff; stroke-width: 0.48"/>
     <use xlink:href="#mbefb545454" x="798.295673" y="212.257391" style="stroke: #ffffff; stroke-width: 0.48"/>
     <use xlink:href="#mbefb545454" x="811.122296" y="215.958823" style="stroke: #ffffff; stroke-width: 0.48"/>
     <use xlink:href="#mbefb545454" x="818.835036" y="274.796658" style="stroke: #ffffff; stroke-width: 0.48"/>
     <use xlink:href="#mbefb545454" x="826.463942" y="253.074229" style="stroke: #ffffff; stroke-width: 0.48"/>
     <use xlink:href="#mbefb545454" x="841.805589" y="273.305633" style="stroke: #ffffff; stroke-width: 0.48"/>
     <use xlink:href="#mbefb545454" x="849.518329" y="242.914431" style="stroke: #ffffff; stroke-width: 0.48"/>
     <use xlink:href="#mbefb545454" x="857.063401" y="265.985932" style="stroke: #ffffff; stroke-width: 0.48"/>
     <use xlink:href="#mbefb545454" x="862.177284" y="274.796656" style="stroke: #ffffff; stroke-width: 0.48"/>
     <use xlink:href="#mbefb545454" x="880.117788" y="256.514989" style="stroke: #ffffff; stroke-width: 0.48"/>
     <use xlink:href="#mbefb545454" x="890.177885" y="237.772436" style="stroke: #ffffff; stroke-width: 0.48"/>
     <use xlink:href="#mbefb545454" x="895.291767" y="294.234017" style="stroke: #ffffff; stroke-width: 0.48"/>
     <use xlink:href="#mbefb545454" x="897.890625" y="251.232009" style="stroke: #ffffff; stroke-width: 0.48"/>
     <use xlink:href="#mbefb545454" x="900.489483" y="240.523684" style="stroke: #ffffff; stroke-width: 0.48"/>
     <use xlink:href="#mbefb545454" x="903.004507" y="254.524981" style="stroke: #ffffff; stroke-width: 0.48"/>
     <use xlink:href="#mbefb545454" x="905.603365" y="274.796656" style="stroke: #ffffff; stroke-width: 0.48"/>
     <use xlink:href="#mbefb545454" x="908.118389" y="269.530456" style="stroke: #ffffff; stroke-width: 0.48"/>
     <use xlink:href="#mbefb545454" x="910.717248" y="307.8" style="stroke: #ffffff; stroke-width: 0.48"/>
     <use xlink:href="#mbefb545454" x="913.316106" y="269.530456" style="stroke: #ffffff; stroke-width: 0.48"/>
     <use xlink:href="#mbefb545454" x="915.663462" y="236.376779" style="stroke: #ffffff; stroke-width: 0.48"/>
     <use xlink:href="#mbefb545454" x="918.26232" y="303.559608" style="stroke: #ffffff; stroke-width: 0.48"/>
     <use xlink:href="#mbefb545454" x="920.777344" y="279.207531" style="stroke: #ffffff; stroke-width: 0.48"/>
     <use xlink:href="#mbefb545454" x="923.376202" y="231.654681" style="stroke: #ffffff; stroke-width: 0.48"/>
     <use xlink:href="#mbefb545454" x="925.891226" y="252.0353" style="stroke: #ffffff; stroke-width: 0.48"/>
     <use xlink:href="#mbefb545454" x="928.490084" y="219.626084" style="stroke: #ffffff; stroke-width: 0.48"/>
     <use xlink:href="#mbefb545454" x="931.088942" y="212.788464" style="stroke: #ffffff; stroke-width: 0.48"/>
     <use xlink:href="#mbefb545454" x="933.603966" y="202.198435" style="stroke: #ffffff; stroke-width: 0.48"/>
     <use xlink:href="#mbefb545454" x="936.202825" y="184.459198" style="stroke: #ffffff; stroke-width: 0.48"/>
     <use xlink:href="#mbefb545454" x="938.717849" y="194.445426" style="stroke: #ffffff; stroke-width: 0.48"/>
     <use xlink:href="#mbefb545454" x="941.316707" y="231.654681" style="stroke: #ffffff; stroke-width: 0.48"/>
     <use xlink:href="#mbefb545454" x="943.915565" y="224.151029" style="stroke: #ffffff; stroke-width: 0.48"/>
     <use xlink:href="#mbefb545454" x="946.346755" y="202.140096" style="stroke: #ffffff; stroke-width: 0.48"/>
     <use xlink:href="#mbefb545454" x="948.945613" y="236.138234" style="stroke: #ffffff; stroke-width: 0.48"/>
     <use xlink:href="#mbefb545454" x="951.460637" y="191.049914" style="stroke: #ffffff; stroke-width: 0.48"/>
     <use xlink:href="#mbefb545454" x="954.059495" y="204.405014" style="stroke: #ffffff; stroke-width: 0.48"/>
     <use xlink:href="#mbefb545454" x="956.574519" y="216.200997" style="stroke: #ffffff; stroke-width: 0.48"/>
     <use xlink:href="#mbefb545454" x="959.173377" y="174.327777" style="stroke: #ffffff; stroke-width: 0.48"/>
     <use xlink:href="#mbefb545454" x="961.772236" y="192.158793" style="stroke: #ffffff; stroke-width: 0.48"/>
     <use xlink:href="#mbefb545454" x="964.28726" y="176.56793" style="stroke: #ffffff; stroke-width: 0.48"/>
     <use xlink:href="#mbefb545454" x="966.886118" y="202.370245" style="stroke: #ffffff; stroke-width: 0.48"/>
     <use xlink:href="#mbefb545454" x="969.401142" y="224.151029" style="stroke: #ffffff; stroke-width: 0.48"/>
     <use xlink:href="#mbefb545454" x="972" y="221.780891" style="stroke: #ffffff; stroke-width: 0.48"/>
    </g>
   </g>
  </g>
 </g>
 <defs>
  <clipPath id="p08964e194b">
   <rect x="135" y="43.2" width="837" height="277.2"/>
  </clipPath>
 </defs>
</svg>
