<?xml version="1.0" encoding="utf-8" standalone="no"?>
<!DOCTYPE svg PUBLIC "-//W3C//DTD SVG 1.1//EN"
  "http://www.w3.org/Graphics/SVG/1.1/DTD/svg11.dtd">
<svg xmlns:xlink="http://www.w3.org/1999/xlink" width="1080pt" height="360pt" viewBox="0 0 1080 360" xmlns="http://www.w3.org/2000/svg" version="1.1">
 <metadata>
  <rdf:RDF xmlns:dc="http://purl.org/dc/elements/1.1/" xmlns:cc="http://creativecommons.org/ns#" xmlns:rdf="http://www.w3.org/1999/02/22-rdf-syntax-ns#">
   <cc:Work>
    <dc:type rdf:resource="http://purl.org/dc/dcmitype/StillImage"/>
    <dc:date>2024-01-23T18:50:26.362283</dc:date>
    <dc:format>image/svg+xml</dc:format>
    <dc:creator>
     <cc:Agent>
      <dc:title>Matplotlib v3.8.2, https://matplotlib.org/</dc:title>
     </cc:Agent>
    </dc:creator>
   </cc:Work>
  </rdf:RDF>
 </metadata>
 <defs>
  <style type="text/css">*{stroke-linejoin: round; stroke-linecap: butt}</style>
 </defs>
 <g id="figure_1">
  <g id="patch_1">
   <path d="M 0 360 
L 1080 360 
L 1080 0 
L 0 0 
z
" style="fill: #ffffff"/>
  </g>
  <g id="axes_1">
   <g id="patch_2">
    <path d="M 135 320.4 
L 972 320.4 
L 972 43.2 
L 135 43.2 
z
" style="fill: #ffffff"/>
   </g>
   <g id="PolyCollection_1"/>
   <g id="matplotlib.axis_1">
    <g id="xtick_1">
     <g id="line2d_1">
      <defs>
       <path id="mb65e7176ec" d="M 0 0 
L 0 3.5 
" style="stroke: #000000; stroke-width: 0.8"/>
      </defs>
      <g>
       <use xlink:href="#mb65e7176ec" x="235.714162" y="320.4" style="stroke: #000000; stroke-width: 0.8"/>
      </g>
     </g>
     <g id="text_1">
      <!-- 1996 -->
      <g transform="translate(222.989162 334.998438) scale(0.1 -0.1)">
       <defs>
        <path id="DejaVuSans-31" d="M 794 531 
L 1825 531 
L 1825 4091 
L 703 3866 
L 703 4441 
L 1819 4666 
L 2450 4666 
L 2450 531 
L 3481 531 
L 3481 0 
L 794 0 
L 794 531 
z
" transform="scale(0.015625)"/>
        <path id="DejaVuSans-39" d="M 703 97 
L 703 672 
Q 941 559 1184 500 
Q 1428 441 1663 441 
Q 2288 441 2617 861 
Q 2947 1281 2994 2138 
Q 2813 1869 2534 1725 
Q 2256 1581 1919 1581 
Q 1219 1581 811 2004 
Q 403 2428 403 3163 
Q 403 3881 828 4315 
Q 1253 4750 1959 4750 
Q 2769 4750 3195 4129 
Q 3622 3509 3622 2328 
Q 3622 1225 3098 567 
Q 2575 -91 1691 -91 
Q 1453 -91 1209 -44 
Q 966 3 703 97 
z
M 1959 2075 
Q 2384 2075 2632 2365 
Q 2881 2656 2881 3163 
Q 2881 3666 2632 3958 
Q 2384 4250 1959 4250 
Q 1534 4250 1286 3958 
Q 1038 3666 1038 3163 
Q 1038 2656 1286 2365 
Q 1534 2075 1959 2075 
z
" transform="scale(0.015625)"/>
        <path id="DejaVuSans-36" d="M 2113 2584 
Q 1688 2584 1439 2293 
Q 1191 2003 1191 1497 
Q 1191 994 1439 701 
Q 1688 409 2113 409 
Q 2538 409 2786 701 
Q 3034 994 3034 1497 
Q 3034 2003 2786 2293 
Q 2538 2584 2113 2584 
z
M 3366 4563 
L 3366 3988 
Q 3128 4100 2886 4159 
Q 2644 4219 2406 4219 
Q 1781 4219 1451 3797 
Q 1122 3375 1075 2522 
Q 1259 2794 1537 2939 
Q 1816 3084 2150 3084 
Q 2853 3084 3261 2657 
Q 3669 2231 3669 1497 
Q 3669 778 3244 343 
Q 2819 -91 2113 -91 
Q 1303 -91 875 529 
Q 447 1150 447 2328 
Q 447 3434 972 4092 
Q 1497 4750 2381 4750 
Q 2619 4750 2861 4703 
Q 3103 4656 3366 4563 
z
" transform="scale(0.015625)"/>
       </defs>
       <use xlink:href="#DejaVuSans-31"/>
       <use xlink:href="#DejaVuSans-39" x="63.623047"/>
       <use xlink:href="#DejaVuSans-39" x="127.246094"/>
       <use xlink:href="#DejaVuSans-36" x="190.869141"/>
      </g>
     </g>
    </g>
    <g id="xtick_2">
     <g id="line2d_2">
      <g>
       <use xlink:href="#mb65e7176ec" x="353.523121" y="320.4" style="stroke: #000000; stroke-width: 0.8"/>
      </g>
     </g>
     <g id="text_2">
      <!-- 2000 -->
      <g transform="translate(340.798121 334.998438) scale(0.1 -0.1)">
       <defs>
        <path id="DejaVuSans-32" d="M 1228 531 
L 3431 531 
L 3431 0 
L 469 0 
L 469 531 
Q 828 903 1448 1529 
Q 2069 2156 2228 2338 
Q 2531 2678 2651 2914 
Q 2772 3150 2772 3378 
Q 2772 3750 2511 3984 
Q 2250 4219 1831 4219 
Q 1534 4219 1204 4116 
Q 875 4013 500 3803 
L 500 4441 
Q 881 4594 1212 4672 
Q 1544 4750 1819 4750 
Q 2544 4750 2975 4387 
Q 3406 4025 3406 3419 
Q 3406 3131 3298 2873 
Q 3191 2616 2906 2266 
Q 2828 2175 2409 1742 
Q 1991 1309 1228 531 
z
" transform="scale(0.015625)"/>
        <path id="DejaVuSans-30" d="M 2034 4250 
Q 1547 4250 1301 3770 
Q 1056 3291 1056 2328 
Q 1056 1369 1301 889 
Q 1547 409 2034 409 
Q 2525 409 2770 889 
Q 3016 1369 3016 2328 
Q 3016 3291 2770 3770 
Q 2525 4250 2034 4250 
z
M 2034 4750 
Q 2819 4750 3233 4129 
Q 3647 3509 3647 2328 
Q 3647 1150 3233 529 
Q 2819 -91 2034 -91 
Q 1250 -91 836 529 
Q 422 1150 422 2328 
Q 422 3509 836 4129 
Q 1250 4750 2034 4750 
z
" transform="scale(0.015625)"/>
       </defs>
       <use xlink:href="#DejaVuSans-32"/>
       <use xlink:href="#DejaVuSans-30" x="63.623047"/>
       <use xlink:href="#DejaVuSans-30" x="127.246094"/>
       <use xlink:href="#DejaVuSans-30" x="190.869141"/>
      </g>
     </g>
    </g>
    <g id="xtick_3">
     <g id="line2d_3">
      <g>
       <use xlink:href="#mb65e7176ec" x="471.332081" y="320.4" style="stroke: #000000; stroke-width: 0.8"/>
      </g>
     </g>
     <g id="text_3">
      <!-- 2004 -->
      <g transform="translate(458.607081 334.998438) scale(0.1 -0.1)">
       <defs>
        <path id="DejaVuSans-34" d="M 2419 4116 
L 825 1625 
L 2419 1625 
L 2419 4116 
z
M 2253 4666 
L 3047 4666 
L 3047 1625 
L 3713 1625 
L 3713 1100 
L 3047 1100 
L 3047 0 
L 2419 0 
L 2419 1100 
L 313 1100 
L 313 1709 
L 2253 4666 
z
" transform="scale(0.015625)"/>
       </defs>
       <use xlink:href="#DejaVuSans-32"/>
       <use xlink:href="#DejaVuSans-30" x="63.623047"/>
       <use xlink:href="#DejaVuSans-30" x="127.246094"/>
       <use xlink:href="#DejaVuSans-34" x="190.869141"/>
      </g>
     </g>
    </g>
    <g id="xtick_4">
     <g id="line2d_4">
      <g>
       <use xlink:href="#mb65e7176ec" x="589.14104" y="320.4" style="stroke: #000000; stroke-width: 0.8"/>
      </g>
     </g>
     <g id="text_4">
      <!-- 2008 -->
      <g transform="translate(576.41604 334.998438) scale(0.1 -0.1)">
       <defs>
        <path id="DejaVuSans-38" d="M 2034 2216 
Q 1584 2216 1326 1975 
Q 1069 1734 1069 1313 
Q 1069 891 1326 650 
Q 1584 409 2034 409 
Q 2484 409 2743 651 
Q 3003 894 3003 1313 
Q 3003 1734 2745 1975 
Q 2488 2216 2034 2216 
z
M 1403 2484 
Q 997 2584 770 2862 
Q 544 3141 544 3541 
Q 544 4100 942 4425 
Q 1341 4750 2034 4750 
Q 2731 4750 3128 4425 
Q 3525 4100 3525 3541 
Q 3525 3141 3298 2862 
Q 3072 2584 2669 2484 
Q 3125 2378 3379 2068 
Q 3634 1759 3634 1313 
Q 3634 634 3220 271 
Q 2806 -91 2034 -91 
Q 1263 -91 848 271 
Q 434 634 434 1313 
Q 434 1759 690 2068 
Q 947 2378 1403 2484 
z
M 1172 3481 
Q 1172 3119 1398 2916 
Q 1625 2713 2034 2713 
Q 2441 2713 2670 2916 
Q 2900 3119 2900 3481 
Q 2900 3844 2670 4047 
Q 2441 4250 2034 4250 
Q 1625 4250 1398 4047 
Q 1172 3844 1172 3481 
z
" transform="scale(0.015625)"/>
       </defs>
       <use xlink:href="#DejaVuSans-32"/>
       <use xlink:href="#DejaVuSans-30" x="63.623047"/>
       <use xlink:href="#DejaVuSans-30" x="127.246094"/>
       <use xlink:href="#DejaVuSans-38" x="190.869141"/>
      </g>
     </g>
    </g>
    <g id="xtick_5">
     <g id="line2d_5">
      <g>
       <use xlink:href="#mb65e7176ec" x="706.95" y="320.4" style="stroke: #000000; stroke-width: 0.8"/>
      </g>
     </g>
     <g id="text_5">
      <!-- 2012 -->
      <g transform="translate(694.225 334.998438) scale(0.1 -0.1)">
       <use xlink:href="#DejaVuSans-32"/>
       <use xlink:href="#DejaVuSans-30" x="63.623047"/>
       <use xlink:href="#DejaVuSans-31" x="127.246094"/>
       <use xlink:href="#DejaVuSans-32" x="190.869141"/>
      </g>
     </g>
    </g>
    <g id="xtick_6">
     <g id="line2d_6">
      <g>
       <use xlink:href="#mb65e7176ec" x="824.75896" y="320.4" style="stroke: #000000; stroke-width: 0.8"/>
      </g>
     </g>
     <g id="text_6">
      <!-- 2016 -->
      <g transform="translate(812.03396 334.998438) scale(0.1 -0.1)">
       <use xlink:href="#DejaVuSans-32"/>
       <use xlink:href="#DejaVuSans-30" x="63.623047"/>
       <use xlink:href="#DejaVuSans-31" x="127.246094"/>
       <use xlink:href="#DejaVuSans-36" x="190.869141"/>
      </g>
     </g>
    </g>
    <g id="xtick_7">
     <g id="line2d_7">
      <g>
       <use xlink:href="#mb65e7176ec" x="942.567919" y="320.4" style="stroke: #000000; stroke-width: 0.8"/>
      </g>
     </g>
     <g id="text_7">
      <!-- 2020 -->
      <g transform="translate(929.842919 334.998438) scale(0.1 -0.1)">
       <use xlink:href="#DejaVuSans-32"/>
       <use xlink:href="#DejaVuSans-30" x="63.623047"/>
       <use xlink:href="#DejaVuSans-32" x="127.246094"/>
       <use xlink:href="#DejaVuSans-30" x="190.869141"/>
      </g>
     </g>
    </g>
   </g>
   <g id="matplotlib.axis_2">
    <g id="ytick_1">
     <g id="line2d_8">
      <defs>
       <path id="m5d60c3c7ea" d="M 0 0 
L -3.5 0 
" style="stroke: #000000; stroke-width: 0.8"/>
      </defs>
      <g>
       <use xlink:href="#m5d60c3c7ea" x="135" y="290.288915" style="stroke: #000000; stroke-width: 0.8"/>
      </g>
     </g>
     <g id="text_8">
      <!-- −1.5 -->
      <g transform="translate(103.717187 294.088134) scale(0.1 -0.1)">
       <defs>
        <path id="DejaVuSans-2212" d="M 678 2272 
L 4684 2272 
L 4684 1741 
L 678 1741 
L 678 2272 
z
" transform="scale(0.015625)"/>
        <path id="DejaVuSans-2e" d="M 684 794 
L 1344 794 
L 1344 0 
L 684 0 
L 684 794 
z
" transform="scale(0.015625)"/>
        <path id="DejaVuSans-35" d="M 691 4666 
L 3169 4666 
L 3169 4134 
L 1269 4134 
L 1269 2991 
Q 1406 3038 1543 3061 
Q 1681 3084 1819 3084 
Q 2600 3084 3056 2656 
Q 3513 2228 3513 1497 
Q 3513 744 3044 326 
Q 2575 -91 1722 -91 
Q 1428 -91 1123 -41 
Q 819 9 494 109 
L 494 744 
Q 775 591 1075 516 
Q 1375 441 1709 441 
Q 2250 441 2565 725 
Q 2881 1009 2881 1497 
Q 2881 1984 2565 2268 
Q 2250 2553 1709 2553 
Q 1456 2553 1204 2497 
Q 953 2441 691 2322 
L 691 4666 
z
" transform="scale(0.015625)"/>
       </defs>
       <use xlink:href="#DejaVuSans-2212"/>
       <use xlink:href="#DejaVuSans-31" x="83.789062"/>
       <use xlink:href="#DejaVuSans-2e" x="147.412109"/>
       <use xlink:href="#DejaVuSans-35" x="179.199219"/>
      </g>
     </g>
    </g>
    <g id="ytick_2">
     <g id="line2d_9">
      <g>
       <use xlink:href="#m5d60c3c7ea" x="135" y="257.38237" style="stroke: #000000; stroke-width: 0.8"/>
      </g>
     </g>
     <g id="text_9">
      <!-- −1.0 -->
      <g transform="translate(103.717187 261.181589) scale(0.1 -0.1)">
       <use xlink:href="#DejaVuSans-2212"/>
       <use xlink:href="#DejaVuSans-31" x="83.789062"/>
       <use xlink:href="#DejaVuSans-2e" x="147.412109"/>
       <use xlink:href="#DejaVuSans-30" x="179.199219"/>
      </g>
     </g>
    </g>
    <g id="ytick_3">
     <g id="line2d_10">
      <g>
       <use xlink:href="#m5d60c3c7ea" x="135" y="224.475825" style="stroke: #000000; stroke-width: 0.8"/>
      </g>
     </g>
     <g id="text_10">
      <!-- −0.5 -->
      <g transform="translate(103.717187 228.275044) scale(0.1 -0.1)">
       <use xlink:href="#DejaVuSans-2212"/>
       <use xlink:href="#DejaVuSans-30" x="83.789062"/>
       <use xlink:href="#DejaVuSans-2e" x="147.412109"/>
       <use xlink:href="#DejaVuSans-35" x="179.199219"/>
      </g>
     </g>
    </g>
    <g id="ytick_4">
     <g id="line2d_11">
      <g>
       <use xlink:href="#m5d60c3c7ea" x="135" y="191.569281" style="stroke: #000000; stroke-width: 0.8"/>
      </g>
     </g>
     <g id="text_11">
      <!-- 0.0 -->
      <g transform="translate(112.096875 195.368499) scale(0.1 -0.1)">
       <use xlink:href="#DejaVuSans-30"/>
       <use xlink:href="#DejaVuSans-2e" x="63.623047"/>
       <use xlink:href="#DejaVuSans-30" x="95.410156"/>
      </g>
     </g>
    </g>
    <g id="ytick_5">
     <g id="line2d_12">
      <g>
       <use xlink:href="#m5d60c3c7ea" x="135" y="158.662736" style="stroke: #000000; stroke-width: 0.8"/>
      </g>
     </g>
     <g id="text_12">
      <!-- 0.5 -->
      <g transform="translate(112.096875 162.461954) scale(0.1 -0.1)">
       <use xlink:href="#DejaVuSans-30"/>
       <use xlink:href="#DejaVuSans-2e" x="63.623047"/>
       <use xlink:href="#DejaVuSans-35" x="95.410156"/>
      </g>
     </g>
    </g>
    <g id="ytick_6">
     <g id="line2d_13">
      <g>
       <use xlink:href="#m5d60c3c7ea" x="135" y="125.756191" style="stroke: #000000; stroke-width: 0.8"/>
      </g>
     </g>
     <g id="text_13">
      <!-- 1.0 -->
      <g transform="translate(112.096875 129.55541) scale(0.1 -0.1)">
       <use xlink:href="#DejaVuSans-31"/>
       <use xlink:href="#DejaVuSans-2e" x="63.623047"/>
       <use xlink:href="#DejaVuSans-30" x="95.410156"/>
      </g>
     </g>
    </g>
    <g id="ytick_7">
     <g id="line2d_14">
      <g>
       <use xlink:href="#m5d60c3c7ea" x="135" y="92.849646" style="stroke: #000000; stroke-width: 0.8"/>
      </g>
     </g>
     <g id="text_14">
      <!-- 1.5 -->
      <g transform="translate(112.096875 96.648865) scale(0.1 -0.1)">
       <use xlink:href="#DejaVuSans-31"/>
       <use xlink:href="#DejaVuSans-2e" x="63.623047"/>
       <use xlink:href="#DejaVuSans-35" x="95.410156"/>
      </g>
     </g>
    </g>
    <g id="ytick_8">
     <g id="line2d_15">
      <g>
       <use xlink:href="#m5d60c3c7ea" x="135" y="59.943101" style="stroke: #000000; stroke-width: 0.8"/>
      </g>
     </g>
     <g id="text_15">
      <!-- 2.0 -->
      <g transform="translate(112.096875 63.74232) scale(0.1 -0.1)">
       <use xlink:href="#DejaVuSans-32"/>
       <use xlink:href="#DejaVuSans-2e" x="63.623047"/>
       <use xlink:href="#DejaVuSans-30" x="95.410156"/>
      </g>
     </g>
    </g>
    <g id="text_16">
     <!-- SGI -->
     <g transform="translate(97.6375 190.323437) rotate(-90) scale(0.1 -0.1)">
      <defs>
       <path id="DejaVuSans-53" d="M 3425 4513 
L 3425 3897 
Q 3066 4069 2747 4153 
Q 2428 4238 2131 4238 
Q 1616 4238 1336 4038 
Q 1056 3838 1056 3469 
Q 1056 3159 1242 3001 
Q 1428 2844 1947 2747 
L 2328 2669 
Q 3034 2534 3370 2195 
Q 3706 1856 3706 1288 
Q 3706 609 3251 259 
Q 2797 -91 1919 -91 
Q 1588 -91 1214 -16 
Q 841 59 441 206 
L 441 856 
Q 825 641 1194 531 
Q 1563 422 1919 422 
Q 2459 422 2753 634 
Q 3047 847 3047 1241 
Q 3047 1584 2836 1778 
Q 2625 1972 2144 2069 
L 1759 2144 
Q 1053 2284 737 2584 
Q 422 2884 422 3419 
Q 422 4038 858 4394 
Q 1294 4750 2059 4750 
Q 2388 4750 2728 4690 
Q 3069 4631 3425 4513 
z
" transform="scale(0.015625)"/>
       <path id="DejaVuSans-47" d="M 3809 666 
L 3809 1919 
L 2778 1919 
L 2778 2438 
L 4434 2438 
L 4434 434 
Q 4069 175 3628 42 
Q 3188 -91 2688 -91 
Q 1594 -91 976 548 
Q 359 1188 359 2328 
Q 359 3472 976 4111 
Q 1594 4750 2688 4750 
Q 3144 4750 3555 4637 
Q 3966 4525 4313 4306 
L 4313 3634 
Q 3963 3931 3569 4081 
Q 3175 4231 2741 4231 
Q 1884 4231 1454 3753 
Q 1025 3275 1025 2328 
Q 1025 1384 1454 906 
Q 1884 428 2741 428 
Q 3075 428 3337 486 
Q 3600 544 3809 666 
z
" transform="scale(0.015625)"/>
       <path id="DejaVuSans-49" d="M 628 4666 
L 1259 4666 
L 1259 0 
L 628 0 
L 628 4666 
z
" transform="scale(0.015625)"/>
      </defs>
      <use xlink:href="#DejaVuSans-53"/>
      <use xlink:href="#DejaVuSans-47" x="63.476562"/>
      <use xlink:href="#DejaVuSans-49" x="140.966797"/>
     </g>
    </g>
   </g>
   <g id="line2d_16">
    <path d="M 135 172.069638 
L 139.918786 137.799913 
L 144.837572 82.136799 
L 147.337283 86.692337 
L 149.836994 114.48821 
L 152.094798 107.684303 
L 157.013584 65.599259 
L 159.513295 106.02113 
L 161.93237 135.957034 
L 164.432081 139.377314 
L 166.931792 209.852002 
L 169.350867 229.563118 
L 171.850578 160.85169 
L 174.269653 151.872965 
L 181.526879 258.23646 
L 188.945376 133.204907 
L 203.701734 129.686597 
L 210.95896 165.848449 
L 220.796532 160.732403 
L 230.71474 55.8 
L 238.133237 167.887791 
L 245.390462 200.408735 
L 260.227457 155.813424 
L 269.903757 158.787968 
L 274.822543 120.054453 
L 282.24104 279.801318 
L 289.659538 176.542394 
L 297.078035 232.519326 
L 304.254624 184.963278 
L 311.673121 123.799543 
L 326.510116 253.404695 
L 336.186416 164.973659 
L 341.105202 204.332326 
L 348.523699 234.096931 
L 355.942197 166.672997 
L 363.199422 140.920229 
L 370.617919 197.964234 
L 378.036416 307.8 
L 395.131214 103.614391 
L 407.468497 223.524806 
L 414.886994 246.284945 
L 424.563295 305.224702 
L 429.482081 137.904763 
L 436.900578 226.805604 
L 444.319075 58.818532 
L 451.495665 221.160473 
L 458.914162 158.271513 
L 466.332659 269.878646 
L 473.751156 288.275303 
L 481.008382 289.787737 
L 488.426879 176.580053 
L 495.845376 259.635254 
L 503.263873 171.624476 
L 510.440462 290.708564 
L 517.85896 152.511249 
L 525.277457 94.886861 
L 532.695954 174.187571 
L 539.872543 186.642204 
L 544.791329 113.348122 
L 554.709538 305.133443 
L 562.128035 120.63604 
L 566.885549 138.004848 
L 576.723121 91.162015 
L 584.141618 193.807433 
L 591.560116 251.61006 
L 598.817341 245.665785 
L 601.317052 241.611807 
L 603.736127 243.841021 
L 608.735549 115.312239 
L 613.654335 160.424686 
L 618.573121 198.506755 
L 638.16763 241.496318 
L 640.586705 227.866483 
L 643.086416 163.005762 
L 645.505491 227.731151 
L 648.005202 239.947688 
L 650.504913 248.050148 
L 652.762717 220.20947 
L 655.262428 205.892038 
L 660.181214 242.106581 
L 662.600289 196.660872 
L 667.599711 233.101578 
L 670.018786 129.629628 
L 672.518497 206.584039 
L 674.937572 204.306586 
L 677.437283 209.643388 
L 679.936994 214.609532 
L 682.194798 200.12064 
L 684.694509 170.594281 
L 689.613295 217.937114 
L 692.03237 249.107116 
L 694.532081 277.849333 
L 701.950578 111.95706 
L 709.369075 237.607274 
L 714.207225 226.069847 
L 716.626301 186.642204 
L 719.126012 195.626559 
L 721.545087 164.507492 
L 724.044798 184.43201 
L 726.544509 168.232516 
L 728.963584 212.879985 
L 731.463295 192.342335 
L 733.88237 190.266845 
L 736.382081 218.547499 
L 738.881792 203.801549 
L 741.139595 278.204715 
L 743.639306 252.46427 
L 746.058382 206.444568 
L 748.558092 196.110473 
L 750.977168 211.360746 
L 755.97659 139.072888 
L 758.395665 207.183088 
L 760.895376 196.256317 
L 763.314451 202.877872 
L 765.814162 131.811623 
L 768.313873 208.378623 
L 770.571676 193.870062 
L 773.071387 200.063874 
L 775.490462 142.989369 
L 777.990173 210.156224 
L 780.409249 214.658497 
L 782.90896 175.889367 
L 785.408671 157.881325 
L 787.827746 148.626056 
L 790.327457 182.204546 
L 792.746532 184.480371 
L 795.246243 169.816952 
L 797.745954 140.781028 
L 800.003757 148.687436 
L 802.503468 148.628471 
L 804.922543 217.241924 
L 807.422254 183.206634 
L 809.841329 215.422608 
L 812.34104 235.627923 
L 814.840751 267.921912 
L 817.259827 250.422971 
L 819.759538 228.657218 
L 822.178613 195.813439 
L 824.678324 186.372444 
L 827.178035 184.938141 
L 834.43526 267.045191 
L 841.853757 227.189075 
L 849.272254 211.975374 
L 851.691329 243.529634 
L 856.690751 91.948449 
L 863.867341 168.573719 
L 871.285838 289.718604 
L 878.704335 197.728997 
L 886.122832 170.364032 
L 893.299422 106.824906 
L 900.717919 202.439108 
L 908.136416 128.681098 
L 915.554913 213.038004 
L 922.731503 194.34016 
L 930.15 191.440871 
L 937.568497 123.490874 
L 944.986994 192.00291 
L 959.662717 234.561543 
L 964.581503 174.858722 
L 967.081214 202.648083 
L 969.500289 272.704196 
L 972 258.422066 
L 972 258.422066 
" clip-path="url(#p6a6f35257c)" style="fill: none; stroke: #7f7f7f; stroke-width: 1.5; stroke-linecap: square"/>
   </g>
   <g id="line2d_17">
    <path d="M 135 191.569281 
L 972 191.569281 
" clip-path="url(#p6a6f35257c)" style="fill: none; stroke: #000000; stroke-width: 1.5; stroke-linecap: square"/>
   </g>
   <g id="patch_3">
    <path d="M 135 320.4 
L 135 43.2 
" style="fill: none; stroke: #000000; stroke-width: 0.8; stroke-linejoin: miter; stroke-linecap: square"/>
   </g>
   <g id="patch_4">
    <path d="M 135 320.4 
L 972 320.4 
" style="fill: none; stroke: #000000; stroke-width: 0.8; stroke-linejoin: miter; stroke-linecap: square"/>
   </g>
   <g id="text_17">
    <!-- SGI for GWIC ID 91244 -->
    <g transform="translate(135 37.2) scale(0.12 -0.12)">
     <defs>
      <path id="DejaVuSans-Bold-53" d="M 3834 4519 
L 3834 3531 
Q 3450 3703 3084 3790 
Q 2719 3878 2394 3878 
Q 1963 3878 1756 3759 
Q 1550 3641 1550 3391 
Q 1550 3203 1689 3098 
Q 1828 2994 2194 2919 
L 2706 2816 
Q 3484 2659 3812 2340 
Q 4141 2022 4141 1434 
Q 4141 663 3683 286 
Q 3225 -91 2284 -91 
Q 1841 -91 1394 -6 
Q 947 78 500 244 
L 500 1259 
Q 947 1022 1364 901 
Q 1781 781 2169 781 
Q 2563 781 2772 912 
Q 2981 1044 2981 1288 
Q 2981 1506 2839 1625 
Q 2697 1744 2272 1838 
L 1806 1941 
Q 1106 2091 782 2419 
Q 459 2747 459 3303 
Q 459 4000 909 4375 
Q 1359 4750 2203 4750 
Q 2588 4750 2994 4692 
Q 3400 4634 3834 4519 
z
" transform="scale(0.015625)"/>
      <path id="DejaVuSans-Bold-47" d="M 4781 347 
Q 4331 128 3847 18 
Q 3363 -91 2847 -91 
Q 1681 -91 1000 561 
Q 319 1213 319 2328 
Q 319 3456 1012 4103 
Q 1706 4750 2913 4750 
Q 3378 4750 3804 4662 
Q 4231 4575 4609 4403 
L 4609 3438 
Q 4219 3659 3833 3768 
Q 3447 3878 3059 3878 
Q 2341 3878 1952 3476 
Q 1563 3075 1563 2328 
Q 1563 1588 1938 1184 
Q 2313 781 3003 781 
Q 3191 781 3352 804 
Q 3513 828 3641 878 
L 3641 1784 
L 2906 1784 
L 2906 2591 
L 4781 2591 
L 4781 347 
z
" transform="scale(0.015625)"/>
      <path id="DejaVuSans-Bold-49" d="M 588 4666 
L 1791 4666 
L 1791 0 
L 588 0 
L 588 4666 
z
" transform="scale(0.015625)"/>
      <path id="DejaVuSans-Bold-20" transform="scale(0.015625)"/>
      <path id="DejaVuSans-Bold-66" d="M 2841 4863 
L 2841 4128 
L 2222 4128 
Q 1984 4128 1890 4042 
Q 1797 3956 1797 3744 
L 1797 3500 
L 2753 3500 
L 2753 2700 
L 1797 2700 
L 1797 0 
L 678 0 
L 678 2700 
L 122 2700 
L 122 3500 
L 678 3500 
L 678 3744 
Q 678 4316 997 4589 
Q 1316 4863 1984 4863 
L 2841 4863 
z
" transform="scale(0.015625)"/>
      <path id="DejaVuSans-Bold-6f" d="M 2203 2784 
Q 1831 2784 1636 2517 
Q 1441 2250 1441 1747 
Q 1441 1244 1636 976 
Q 1831 709 2203 709 
Q 2569 709 2762 976 
Q 2956 1244 2956 1747 
Q 2956 2250 2762 2517 
Q 2569 2784 2203 2784 
z
M 2203 3584 
Q 3106 3584 3614 3096 
Q 4122 2609 4122 1747 
Q 4122 884 3614 396 
Q 3106 -91 2203 -91 
Q 1297 -91 786 396 
Q 275 884 275 1747 
Q 275 2609 786 3096 
Q 1297 3584 2203 3584 
z
" transform="scale(0.015625)"/>
      <path id="DejaVuSans-Bold-72" d="M 3138 2547 
Q 2991 2616 2845 2648 
Q 2700 2681 2553 2681 
Q 2122 2681 1889 2404 
Q 1656 2128 1656 1613 
L 1656 0 
L 538 0 
L 538 3500 
L 1656 3500 
L 1656 2925 
Q 1872 3269 2151 3426 
Q 2431 3584 2822 3584 
Q 2878 3584 2943 3579 
Q 3009 3575 3134 3559 
L 3138 2547 
z
" transform="scale(0.015625)"/>
      <path id="DejaVuSans-Bold-57" d="M 191 4666 
L 1344 4666 
L 2150 1275 
L 2950 4666 
L 4109 4666 
L 4909 1275 
L 5716 4666 
L 6859 4666 
L 5759 0 
L 4372 0 
L 3525 3547 
L 2688 0 
L 1300 0 
L 191 4666 
z
" transform="scale(0.015625)"/>
      <path id="DejaVuSans-Bold-43" d="M 4288 256 
Q 3956 84 3597 -3 
Q 3238 -91 2847 -91 
Q 1681 -91 1000 561 
Q 319 1213 319 2328 
Q 319 3447 1000 4098 
Q 1681 4750 2847 4750 
Q 3238 4750 3597 4662 
Q 3956 4575 4288 4403 
L 4288 3438 
Q 3953 3666 3628 3772 
Q 3303 3878 2944 3878 
Q 2300 3878 1931 3465 
Q 1563 3053 1563 2328 
Q 1563 1606 1931 1193 
Q 2300 781 2944 781 
Q 3303 781 3628 887 
Q 3953 994 4288 1222 
L 4288 256 
z
" transform="scale(0.015625)"/>
      <path id="DejaVuSans-Bold-44" d="M 1791 3756 
L 1791 909 
L 2222 909 
Q 2959 909 3348 1275 
Q 3738 1641 3738 2338 
Q 3738 3031 3350 3393 
Q 2963 3756 2222 3756 
L 1791 3756 
z
M 588 4666 
L 1856 4666 
Q 2919 4666 3439 4514 
Q 3959 4363 4331 4000 
Q 4659 3684 4818 3271 
Q 4978 2859 4978 2338 
Q 4978 1809 4818 1395 
Q 4659 981 4331 666 
Q 3956 303 3431 151 
Q 2906 0 1856 0 
L 588 0 
L 588 4666 
z
" transform="scale(0.015625)"/>
      <path id="DejaVuSans-Bold-39" d="M 641 103 
L 641 966 
Q 928 831 1190 764 
Q 1453 697 1709 697 
Q 2247 697 2547 995 
Q 2847 1294 2900 1881 
Q 2688 1725 2447 1647 
Q 2206 1569 1925 1569 
Q 1209 1569 770 1986 
Q 331 2403 331 3084 
Q 331 3838 820 4291 
Q 1309 4744 2131 4744 
Q 3044 4744 3544 4128 
Q 4044 3513 4044 2388 
Q 4044 1231 3459 570 
Q 2875 -91 1856 -91 
Q 1528 -91 1228 -42 
Q 928 6 641 103 
z
M 2125 2350 
Q 2441 2350 2600 2554 
Q 2759 2759 2759 3169 
Q 2759 3575 2600 3781 
Q 2441 3988 2125 3988 
Q 1809 3988 1650 3781 
Q 1491 3575 1491 3169 
Q 1491 2759 1650 2554 
Q 1809 2350 2125 2350 
z
" transform="scale(0.015625)"/>
      <path id="DejaVuSans-Bold-31" d="M 750 831 
L 1813 831 
L 1813 3847 
L 722 3622 
L 722 4441 
L 1806 4666 
L 2950 4666 
L 2950 831 
L 4013 831 
L 4013 0 
L 750 0 
L 750 831 
z
" transform="scale(0.015625)"/>
      <path id="DejaVuSans-Bold-32" d="M 1844 884 
L 3897 884 
L 3897 0 
L 506 0 
L 506 884 
L 2209 2388 
Q 2438 2594 2547 2791 
Q 2656 2988 2656 3200 
Q 2656 3528 2436 3728 
Q 2216 3928 1850 3928 
Q 1569 3928 1234 3808 
Q 900 3688 519 3450 
L 519 4475 
Q 925 4609 1322 4679 
Q 1719 4750 2100 4750 
Q 2938 4750 3402 4381 
Q 3866 4013 3866 3353 
Q 3866 2972 3669 2642 
Q 3472 2313 2841 1759 
L 1844 884 
z
" transform="scale(0.015625)"/>
      <path id="DejaVuSans-Bold-34" d="M 2356 3675 
L 1038 1722 
L 2356 1722 
L 2356 3675 
z
M 2156 4666 
L 3494 4666 
L 3494 1722 
L 4159 1722 
L 4159 850 
L 3494 850 
L 3494 0 
L 2356 0 
L 2356 850 
L 288 850 
L 288 1881 
L 2156 4666 
z
" transform="scale(0.015625)"/>
     </defs>
     <use xlink:href="#DejaVuSans-Bold-53"/>
     <use xlink:href="#DejaVuSans-Bold-47" x="72.021484"/>
     <use xlink:href="#DejaVuSans-Bold-49" x="154.101562"/>
     <use xlink:href="#DejaVuSans-Bold-20" x="191.308594"/>
     <use xlink:href="#DejaVuSans-Bold-66" x="226.123047"/>
     <use xlink:href="#DejaVuSans-Bold-6f" x="269.628906"/>
     <use xlink:href="#DejaVuSans-Bold-72" x="338.330078"/>
     <use xlink:href="#DejaVuSans-Bold-20" x="387.646484"/>
     <use xlink:href="#DejaVuSans-Bold-47" x="422.460938"/>
     <use xlink:href="#DejaVuSans-Bold-57" x="504.541016"/>
     <use xlink:href="#DejaVuSans-Bold-49" x="614.84375"/>
     <use xlink:href="#DejaVuSans-Bold-43" x="652.050781"/>
     <use xlink:href="#DejaVuSans-Bold-20" x="725.439453"/>
     <use xlink:href="#DejaVuSans-Bold-49" x="760.253906"/>
     <use xlink:href="#DejaVuSans-Bold-44" x="797.460938"/>
     <use xlink:href="#DejaVuSans-Bold-20" x="880.46875"/>
     <use xlink:href="#DejaVuSans-Bold-39" x="915.283203"/>
     <use xlink:href="#DejaVuSans-Bold-31" x="984.863281"/>
     <use xlink:href="#DejaVuSans-Bold-32" x="1054.443359"/>
     <use xlink:href="#DejaVuSans-Bold-34" x="1124.023438"/>
     <use xlink:href="#DejaVuSans-Bold-34" x="1193.603516"/>
    </g>
   </g>
   <g id="PathCollection_1">
    <defs>
     <path id="m88eeee842c" d="M 0 3 
C 0.795609 3 1.55874 2.683901 2.12132 2.12132 
C 2.683901 1.55874 3 0.795609 3 0 
C 3 -0.795609 2.683901 -1.55874 2.12132 -2.12132 
C 1.55874 -2.683901 0.795609 -3 0 -3 
C -0.795609 -3 -1.55874 -2.683901 -2.12132 -2.12132 
C -2.683901 -1.55874 -3 -0.795609 -3 0 
C -3 0.795609 -2.683901 1.55874 -2.12132 2.12132 
C -1.55874 2.683901 -0.795609 3 0 3 
z
" style="stroke: #ffffff; stroke-width: 0.48"/>
    </defs>
    <g clip-path="url(#p6a6f35257c)">
     <use xlink:href="#m88eeee842c" x="135" y="172.069638" style="stroke: #ffffff; stroke-width: 0.48"/>
     <use xlink:href="#m88eeee842c" x="139.918786" y="137.799913" style="stroke: #ffffff; stroke-width: 0.48"/>
     <use xlink:href="#m88eeee842c" x="144.837572" y="82.136799" style="stroke: #ffffff; stroke-width: 0.48"/>
     <use xlink:href="#m88eeee842c" x="147.337283" y="86.692337" style="stroke: #ffffff; stroke-width: 0.48"/>
     <use xlink:href="#m88eeee842c" x="149.836994" y="114.48821" style="stroke: #ffffff; stroke-width: 0.48"/>
     <use xlink:href="#m88eeee842c" x="152.094798" y="107.684303" style="stroke: #ffffff; stroke-width: 0.48"/>
     <use xlink:href="#m88eeee842c" x="157.013584" y="65.599259" style="stroke: #ffffff; stroke-width: 0.48"/>
     <use xlink:href="#m88eeee842c" x="159.513295" y="106.02113" style="stroke: #ffffff; stroke-width: 0.48"/>
     <use xlink:href="#m88eeee842c" x="161.93237" y="135.957034" style="stroke: #ffffff; stroke-width: 0.48"/>
     <use xlink:href="#m88eeee842c" x="164.432081" y="139.377314" style="stroke: #ffffff; stroke-width: 0.48"/>
     <use xlink:href="#m88eeee842c" x="166.931792" y="209.852002" style="stroke: #ffffff; stroke-width: 0.48"/>
     <use xlink:href="#m88eeee842c" x="169.350867" y="229.563118" style="stroke: #ffffff; stroke-width: 0.48"/>
     <use xlink:href="#m88eeee842c" x="171.850578" y="160.85169" style="stroke: #ffffff; stroke-width: 0.48"/>
     <use xlink:href="#m88eeee842c" x="174.269653" y="151.872965" style="stroke: #ffffff; stroke-width: 0.48"/>
     <use xlink:href="#m88eeee842c" x="181.526879" y="258.23646" style="stroke: #ffffff; stroke-width: 0.48"/>
     <use xlink:href="#m88eeee842c" x="188.945376" y="133.204907" style="stroke: #ffffff; stroke-width: 0.48"/>
     <use xlink:href="#m88eeee842c" x="203.701734" y="129.686597" style="stroke: #ffffff; stroke-width: 0.48"/>
     <use xlink:href="#m88eeee842c" x="210.95896" y="165.848449" style="stroke: #ffffff; stroke-width: 0.48"/>
     <use xlink:href="#m88eeee842c" x="220.796532" y="160.732403" style="stroke: #ffffff; stroke-width: 0.48"/>
     <use xlink:href="#m88eeee842c" x="230.71474" y="55.8" style="stroke: #ffffff; stroke-width: 0.48"/>
     <use xlink:href="#m88eeee842c" x="238.133237" y="167.887791" style="stroke: #ffffff; stroke-width: 0.48"/>
     <use xlink:href="#m88eeee842c" x="245.390462" y="200.408735" style="stroke: #ffffff; stroke-width: 0.48"/>
     <use xlink:href="#m88eeee842c" x="260.227457" y="155.813424" style="stroke: #ffffff; stroke-width: 0.48"/>
     <use xlink:href="#m88eeee842c" x="269.903757" y="158.787968" style="stroke: #ffffff; stroke-width: 0.48"/>
     <use xlink:href="#m88eeee842c" x="274.822543" y="120.054453" style="stroke: #ffffff; stroke-width: 0.48"/>
     <use xlink:href="#m88eeee842c" x="282.24104" y="279.801318" style="stroke: #ffffff; stroke-width: 0.48"/>
     <use xlink:href="#m88eeee842c" x="289.659538" y="176.542394" style="stroke: #ffffff; stroke-width: 0.48"/>
     <use xlink:href="#m88eeee842c" x="297.078035" y="232.519326" style="stroke: #ffffff; stroke-width: 0.48"/>
     <use xlink:href="#m88eeee842c" x="304.254624" y="184.963278" style="stroke: #ffffff; stroke-width: 0.48"/>
     <use xlink:href="#m88eeee842c" x="311.673121" y="123.799543" style="stroke: #ffffff; stroke-width: 0.48"/>
     <use xlink:href="#m88eeee842c" x="326.510116" y="253.404695" style="stroke: #ffffff; stroke-width: 0.48"/>
     <use xlink:href="#m88eeee842c" x="336.186416" y="164.973659" style="stroke: #ffffff; stroke-width: 0.48"/>
     <use xlink:href="#m88eeee842c" x="341.105202" y="204.332326" style="stroke: #ffffff; stroke-width: 0.48"/>
     <use xlink:href="#m88eeee842c" x="348.523699" y="234.096931" style="stroke: #ffffff; stroke-width: 0.48"/>
     <use xlink:href="#m88eeee842c" x="355.942197" y="166.672997" style="stroke: #ffffff; stroke-width: 0.48"/>
     <use xlink:href="#m88eeee842c" x="363.199422" y="140.920229" style="stroke: #ffffff; stroke-width: 0.48"/>
     <use xlink:href="#m88eeee842c" x="370.617919" y="197.964234" style="stroke: #ffffff; stroke-width: 0.48"/>
     <use xlink:href="#m88eeee842c" x="378.036416" y="307.8" style="stroke: #ffffff; stroke-width: 0.48"/>
     <use xlink:href="#m88eeee842c" x="395.131214" y="103.614391" style="stroke: #ffffff; stroke-width: 0.48"/>
     <use xlink:href="#m88eeee842c" x="407.468497" y="223.524806" style="stroke: #ffffff; stroke-width: 0.48"/>
     <use xlink:href="#m88eeee842c" x="414.886994" y="246.284945" style="stroke: #ffffff; stroke-width: 0.48"/>
     <use xlink:href="#m88eeee842c" x="424.563295" y="305.224702" style="stroke: #ffffff; stroke-width: 0.48"/>
     <use xlink:href="#m88eeee842c" x="429.482081" y="137.904763" style="stroke: #ffffff; stroke-width: 0.48"/>
     <use xlink:href="#m88eeee842c" x="436.900578" y="226.805604" style="stroke: #ffffff; stroke-width: 0.48"/>
     <use xlink:href="#m88eeee842c" x="444.319075" y="58.818532" style="stroke: #ffffff; stroke-width: 0.48"/>
     <use xlink:href="#m88eeee842c" x="451.495665" y="221.160473" style="stroke: #ffffff; stroke-width: 0.48"/>
     <use xlink:href="#m88eeee842c" x="458.914162" y="158.271513" style="stroke: #ffffff; stroke-width: 0.48"/>
     <use xlink:href="#m88eeee842c" x="466.332659" y="269.878646" style="stroke: #ffffff; stroke-width: 0.48"/>
     <use xlink:href="#m88eeee842c" x="473.751156" y="288.275303" style="stroke: #ffffff; stroke-width: 0.48"/>
     <use xlink:href="#m88eeee842c" x="481.008382" y="289.787737" style="stroke: #ffffff; stroke-width: 0.48"/>
     <use xlink:href="#m88eeee842c" x="488.426879" y="176.580053" style="stroke: #ffffff; stroke-width: 0.48"/>
     <use xlink:href="#m88eeee842c" x="495.845376" y="259.635254" style="stroke: #ffffff; stroke-width: 0.48"/>
     <use xlink:href="#m88eeee842c" x="503.263873" y="171.624476" style="stroke: #ffffff; stroke-width: 0.48"/>
     <use xlink:href="#m88eeee842c" x="510.440462" y="290.708564" style="stroke: #ffffff; stroke-width: 0.48"/>
     <use xlink:href="#m88eeee842c" x="517.85896" y="152.511249" style="stroke: #ffffff; stroke-width: 0.48"/>
     <use xlink:href="#m88eeee842c" x="525.277457" y="94.886861" style="stroke: #ffffff; stroke-width: 0.48"/>
     <use xlink:href="#m88eeee842c" x="532.695954" y="174.187571" style="stroke: #ffffff; stroke-width: 0.48"/>
     <use xlink:href="#m88eeee842c" x="539.872543" y="186.642204" style="stroke: #ffffff; stroke-width: 0.48"/>
     <use xlink:href="#m88eeee842c" x="544.791329" y="113.348122" style="stroke: #ffffff; stroke-width: 0.48"/>
     <use xlink:href="#m88eeee842c" x="554.709538" y="305.133443" style="stroke: #ffffff; stroke-width: 0.48"/>
     <use xlink:href="#m88eeee842c" x="562.128035" y="120.63604" style="stroke: #ffffff; stroke-width: 0.48"/>
     <use xlink:href="#m88eeee842c" x="566.885549" y="138.004848" style="stroke: #ffffff; stroke-width: 0.48"/>
     <use xlink:href="#m88eeee842c" x="576.723121" y="91.162015" style="stroke: #ffffff; stroke-width: 0.48"/>
     <use xlink:href="#m88eeee842c" x="584.141618" y="193.807433" style="stroke: #ffffff; stroke-width: 0.48"/>
     <use xlink:href="#m88eeee842c" x="591.560116" y="251.61006" style="stroke: #ffffff; stroke-width: 0.48"/>
     <use xlink:href="#m88eeee842c" x="598.817341" y="245.665785" style="stroke: #ffffff; stroke-width: 0.48"/>
     <use xlink:href="#m88eeee842c" x="601.317052" y="241.611807" style="stroke: #ffffff; stroke-width: 0.48"/>
     <use xlink:href="#m88eeee842c" x="603.736127" y="243.841021" style="stroke: #ffffff; stroke-width: 0.48"/>
     <use xlink:href="#m88eeee842c" x="608.735549" y="115.312239" style="stroke: #ffffff; stroke-width: 0.48"/>
     <use xlink:href="#m88eeee842c" x="613.654335" y="160.424686" style="stroke: #ffffff; stroke-width: 0.48"/>
     <use xlink:href="#m88eeee842c" x="618.573121" y="198.506755" style="stroke: #ffffff; stroke-width: 0.48"/>
     <use xlink:href="#m88eeee842c" x="638.16763" y="241.496318" style="stroke: #ffffff; stroke-width: 0.48"/>
     <use xlink:href="#m88eeee842c" x="640.586705" y="227.866483" style="stroke: #ffffff; stroke-width: 0.48"/>
     <use xlink:href="#m88eeee842c" x="643.086416" y="163.005762" style="stroke: #ffffff; stroke-width: 0.48"/>
     <use xlink:href="#m88eeee842c" x="645.505491" y="227.731151" style="stroke: #ffffff; stroke-width: 0.48"/>
     <use xlink:href="#m88eeee842c" x="648.005202" y="239.947688" style="stroke: #ffffff; stroke-width: 0.48"/>
     <use xlink:href="#m88eeee842c" x="650.504913" y="248.050148" style="stroke: #ffffff; stroke-width: 0.48"/>
     <use xlink:href="#m88eeee842c" x="652.762717" y="220.20947" style="stroke: #ffffff; stroke-width: 0.48"/>
     <use xlink:href="#m88eeee842c" x="655.262428" y="205.892038" style="stroke: #ffffff; stroke-width: 0.48"/>
     <use xlink:href="#m88eeee842c" x="660.181214" y="242.106581" style="stroke: #ffffff; stroke-width: 0.48"/>
     <use xlink:href="#m88eeee842c" x="662.600289" y="196.660872" style="stroke: #ffffff; stroke-width: 0.48"/>
     <use xlink:href="#m88eeee842c" x="667.599711" y="233.101578" style="stroke: #ffffff; stroke-width: 0.48"/>
     <use xlink:href="#m88eeee842c" x="670.018786" y="129.629628" style="stroke: #ffffff; stroke-width: 0.48"/>
     <use xlink:href="#m88eeee842c" x="672.518497" y="206.584039" style="stroke: #ffffff; stroke-width: 0.48"/>
     <use xlink:href="#m88eeee842c" x="674.937572" y="204.306586" style="stroke: #ffffff; stroke-width: 0.48"/>
     <use xlink:href="#m88eeee842c" x="677.437283" y="209.643388" style="stroke: #ffffff; stroke-width: 0.48"/>
     <use xlink:href="#m88eeee842c" x="679.936994" y="214.609532" style="stroke: #ffffff; stroke-width: 0.48"/>
     <use xlink:href="#m88eeee842c" x="682.194798" y="200.12064" style="stroke: #ffffff; stroke-width: 0.48"/>
     <use xlink:href="#m88eeee842c" x="684.694509" y="170.594281" style="stroke: #ffffff; stroke-width: 0.48"/>
     <use xlink:href="#m88eeee842c" x="689.613295" y="217.937114" style="stroke: #ffffff; stroke-width: 0.48"/>
     <use xlink:href="#m88eeee842c" x="692.03237" y="249.107116" style="stroke: #ffffff; stroke-width: 0.48"/>
     <use xlink:href="#m88eeee842c" x="694.532081" y="277.849333" style="stroke: #ffffff; stroke-width: 0.48"/>
     <use xlink:href="#m88eeee842c" x="701.950578" y="111.95706" style="stroke: #ffffff; stroke-width: 0.48"/>
     <use xlink:href="#m88eeee842c" x="709.369075" y="237.607274" style="stroke: #ffffff; stroke-width: 0.48"/>
     <use xlink:href="#m88eeee842c" x="714.207225" y="226.069847" style="stroke: #ffffff; stroke-width: 0.48"/>
     <use xlink:href="#m88eeee842c" x="716.626301" y="186.642204" style="stroke: #ffffff; stroke-width: 0.48"/>
     <use xlink:href="#m88eeee842c" x="719.126012" y="195.626559" style="stroke: #ffffff; stroke-width: 0.48"/>
     <use xlink:href="#m88eeee842c" x="721.545087" y="164.507492" style="stroke: #ffffff; stroke-width: 0.48"/>
     <use xlink:href="#m88eeee842c" x="724.044798" y="184.43201" style="stroke: #ffffff; stroke-width: 0.48"/>
     <use xlink:href="#m88eeee842c" x="726.544509" y="168.232516" style="stroke: #ffffff; stroke-width: 0.48"/>
     <use xlink:href="#m88eeee842c" x="728.963584" y="212.879985" style="stroke: #ffffff; stroke-width: 0.48"/>
     <use xlink:href="#m88eeee842c" x="731.463295" y="192.342335" style="stroke: #ffffff; stroke-width: 0.48"/>
     <use xlink:href="#m88eeee842c" x="733.88237" y="190.266845" style="stroke: #ffffff; stroke-width: 0.48"/>
     <use xlink:href="#m88eeee842c" x="736.382081" y="218.547499" style="stroke: #ffffff; stroke-width: 0.48"/>
     <use xlink:href="#m88eeee842c" x="738.881792" y="203.801549" style="stroke: #ffffff; stroke-width: 0.48"/>
     <use xlink:href="#m88eeee842c" x="741.139595" y="278.204715" style="stroke: #ffffff; stroke-width: 0.48"/>
     <use xlink:href="#m88eeee842c" x="743.639306" y="252.46427" style="stroke: #ffffff; stroke-width: 0.48"/>
     <use xlink:href="#m88eeee842c" x="746.058382" y="206.444568" style="stroke: #ffffff; stroke-width: 0.48"/>
     <use xlink:href="#m88eeee842c" x="748.558092" y="196.110473" style="stroke: #ffffff; stroke-width: 0.48"/>
     <use xlink:href="#m88eeee842c" x="750.977168" y="211.360746" style="stroke: #ffffff; stroke-width: 0.48"/>
     <use xlink:href="#m88eeee842c" x="755.97659" y="139.072888" style="stroke: #ffffff; stroke-width: 0.48"/>
     <use xlink:href="#m88eeee842c" x="758.395665" y="207.183088" style="stroke: #ffffff; stroke-width: 0.48"/>
     <use xlink:href="#m88eeee842c" x="760.895376" y="196.256317" style="stroke: #ffffff; stroke-width: 0.48"/>
     <use xlink:href="#m88eeee842c" x="763.314451" y="202.877872" style="stroke: #ffffff; stroke-width: 0.48"/>
     <use xlink:href="#m88eeee842c" x="765.814162" y="131.811623" style="stroke: #ffffff; stroke-width: 0.48"/>
     <use xlink:href="#m88eeee842c" x="768.313873" y="208.378623" style="stroke: #ffffff; stroke-width: 0.48"/>
     <use xlink:href="#m88eeee842c" x="770.571676" y="193.870062" style="stroke: #ffffff; stroke-width: 0.48"/>
     <use xlink:href="#m88eeee842c" x="773.071387" y="200.063874" style="stroke: #ffffff; stroke-width: 0.48"/>
     <use xlink:href="#m88eeee842c" x="775.490462" y="142.989369" style="stroke: #ffffff; stroke-width: 0.48"/>
     <use xlink:href="#m88eeee842c" x="777.990173" y="210.156224" style="stroke: #ffffff; stroke-width: 0.48"/>
     <use xlink:href="#m88eeee842c" x="780.409249" y="214.658497" style="stroke: #ffffff; stroke-width: 0.48"/>
     <use xlink:href="#m88eeee842c" x="782.90896" y="175.889367" style="stroke: #ffffff; stroke-width: 0.48"/>
     <use xlink:href="#m88eeee842c" x="785.408671" y="157.881325" style="stroke: #ffffff; stroke-width: 0.48"/>
     <use xlink:href="#m88eeee842c" x="787.827746" y="148.626056" style="stroke: #ffffff; stroke-width: 0.48"/>
     <use xlink:href="#m88eeee842c" x="790.327457" y="182.204546" style="stroke: #ffffff; stroke-width: 0.48"/>
     <use xlink:href="#m88eeee842c" x="792.746532" y="184.480371" style="stroke: #ffffff; stroke-width: 0.48"/>
     <use xlink:href="#m88eeee842c" x="795.246243" y="169.816952" style="stroke: #ffffff; stroke-width: 0.48"/>
     <use xlink:href="#m88eeee842c" x="797.745954" y="140.781028" style="stroke: #ffffff; stroke-width: 0.48"/>
     <use xlink:href="#m88eeee842c" x="800.003757" y="148.687436" style="stroke: #ffffff; stroke-width: 0.48"/>
     <use xlink:href="#m88eeee842c" x="802.503468" y="148.628471" style="stroke: #ffffff; stroke-width: 0.48"/>
     <use xlink:href="#m88eeee842c" x="804.922543" y="217.241924" style="stroke: #ffffff; stroke-width: 0.48"/>
     <use xlink:href="#m88eeee842c" x="807.422254" y="183.206634" style="stroke: #ffffff; stroke-width: 0.48"/>
     <use xlink:href="#m88eeee842c" x="809.841329" y="215.422608" style="stroke: #ffffff; stroke-width: 0.48"/>
     <use xlink:href="#m88eeee842c" x="812.34104" y="235.627923" style="stroke: #ffffff; stroke-width: 0.48"/>
     <use xlink:href="#m88eeee842c" x="814.840751" y="267.921912" style="stroke: #ffffff; stroke-width: 0.48"/>
     <use xlink:href="#m88eeee842c" x="817.259827" y="250.422971" style="stroke: #ffffff; stroke-width: 0.48"/>
     <use xlink:href="#m88eeee842c" x="819.759538" y="228.657218" style="stroke: #ffffff; stroke-width: 0.48"/>
     <use xlink:href="#m88eeee842c" x="822.178613" y="195.813439" style="stroke: #ffffff; stroke-width: 0.48"/>
     <use xlink:href="#m88eeee842c" x="824.678324" y="186.372444" style="stroke: #ffffff; stroke-width: 0.48"/>
     <use xlink:href="#m88eeee842c" x="827.178035" y="184.938141" style="stroke: #ffffff; stroke-width: 0.48"/>
     <use xlink:href="#m88eeee842c" x="834.43526" y="267.045191" style="stroke: #ffffff; stroke-width: 0.48"/>
     <use xlink:href="#m88eeee842c" x="841.853757" y="227.189075" style="stroke: #ffffff; stroke-width: 0.48"/>
     <use xlink:href="#m88eeee842c" x="849.272254" y="211.975374" style="stroke: #ffffff; stroke-width: 0.48"/>
     <use xlink:href="#m88eeee842c" x="851.691329" y="243.529634" style="stroke: #ffffff; stroke-width: 0.48"/>
     <use xlink:href="#m88eeee842c" x="856.690751" y="91.948449" style="stroke: #ffffff; stroke-width: 0.48"/>
     <use xlink:href="#m88eeee842c" x="863.867341" y="168.573719" style="stroke: #ffffff; stroke-width: 0.48"/>
     <use xlink:href="#m88eeee842c" x="871.285838" y="289.718604" style="stroke: #ffffff; stroke-width: 0.48"/>
     <use xlink:href="#m88eeee842c" x="878.704335" y="197.728997" style="stroke: #ffffff; stroke-width: 0.48"/>
     <use xlink:href="#m88eeee842c" x="886.122832" y="170.364032" style="stroke: #ffffff; stroke-width: 0.48"/>
     <use xlink:href="#m88eeee842c" x="893.299422" y="106.824906" style="stroke: #ffffff; stroke-width: 0.48"/>
     <use xlink:href="#m88eeee842c" x="900.717919" y="202.439108" style="stroke: #ffffff; stroke-width: 0.48"/>
     <use xlink:href="#m88eeee842c" x="908.136416" y="128.681098" style="stroke: #ffffff; stroke-width: 0.48"/>
     <use xlink:href="#m88eeee842c" x="915.554913" y="213.038004" style="stroke: #ffffff; stroke-width: 0.48"/>
     <use xlink:href="#m88eeee842c" x="922.731503" y="194.34016" style="stroke: #ffffff; stroke-width: 0.48"/>
     <use xlink:href="#m88eeee842c" x="930.15" y="191.440871" style="stroke: #ffffff; stroke-width: 0.48"/>
     <use xlink:href="#m88eeee842c" x="937.568497" y="123.490874" style="stroke: #ffffff; stroke-width: 0.48"/>
     <use xlink:href="#m88eeee842c" x="944.986994" y="192.00291" style="stroke: #ffffff; stroke-width: 0.48"/>
     <use xlink:href="#m88eeee842c" x="959.662717" y="234.561543" style="stroke: #ffffff; stroke-width: 0.48"/>
     <use xlink:href="#m88eeee842c" x="964.581503" y="174.858722" style="stroke: #ffffff; stroke-width: 0.48"/>
     <use xlink:href="#m88eeee842c" x="967.081214" y="202.648083" style="stroke: #ffffff; stroke-width: 0.48"/>
     <use xlink:href="#m88eeee842c" x="969.500289" y="272.704196" style="stroke: #ffffff; stroke-width: 0.48"/>
     <use xlink:href="#m88eeee842c" x="972" y="258.422066" style="stroke: #ffffff; stroke-width: 0.48"/>
    </g>
   </g>
  </g>
 </g>
 <defs>
  <clipPath id="p6a6f35257c">
   <rect x="135" y="43.2" width="837" height="277.2"/>
  </clipPath>
 </defs>
</svg>
