<?xml version="1.0" encoding="utf-8" standalone="no"?>
<!DOCTYPE svg PUBLIC "-//W3C//DTD SVG 1.1//EN"
  "http://www.w3.org/Graphics/SVG/1.1/DTD/svg11.dtd">
<svg xmlns:xlink="http://www.w3.org/1999/xlink" width="1080pt" height="360pt" viewBox="0 0 1080 360" xmlns="http://www.w3.org/2000/svg" version="1.1">
 <metadata>
  <rdf:RDF xmlns:dc="http://purl.org/dc/elements/1.1/" xmlns:cc="http://creativecommons.org/ns#" xmlns:rdf="http://www.w3.org/1999/02/22-rdf-syntax-ns#">
   <cc:Work>
    <dc:type rdf:resource="http://purl.org/dc/dcmitype/StillImage"/>
    <dc:date>2024-01-23T18:50:25.888973</dc:date>
    <dc:format>image/svg+xml</dc:format>
    <dc:creator>
     <cc:Agent>
      <dc:title>Matplotlib v3.8.2, https://matplotlib.org/</dc:title>
     </cc:Agent>
    </dc:creator>
   </cc:Work>
  </rdf:RDF>
 </metadata>
 <defs>
  <style type="text/css">*{stroke-linejoin: round; stroke-linecap: butt}</style>
 </defs>
 <g id="figure_1">
  <g id="patch_1">
   <path d="M 0 360 
L 1080 360 
L 1080 0 
L 0 0 
z
" style="fill: #ffffff"/>
  </g>
  <g id="axes_1">
   <g id="patch_2">
    <path d="M 135 320.4 
L 972 320.4 
L 972 43.2 
L 135 43.2 
z
" style="fill: #ffffff"/>
   </g>
   <g id="PolyCollection_1"/>
   <g id="matplotlib.axis_1">
    <g id="xtick_1">
     <g id="line2d_1">
      <defs>
       <path id="m4d9e007ba0" d="M 0 0 
L 0 3.5 
" style="stroke: #000000; stroke-width: 0.8"/>
      </defs>
      <g>
       <use xlink:href="#m4d9e007ba0" x="160.660749" y="320.4" style="stroke: #000000; stroke-width: 0.8"/>
      </g>
     </g>
     <g id="text_1">
      <!-- 1992 -->
      <g transform="translate(147.935749 334.998438) scale(0.1 -0.1)">
       <defs>
        <path id="DejaVuSans-31" d="M 794 531 
L 1825 531 
L 1825 4091 
L 703 3866 
L 703 4441 
L 1819 4666 
L 2450 4666 
L 2450 531 
L 3481 531 
L 3481 0 
L 794 0 
L 794 531 
z
" transform="scale(0.015625)"/>
        <path id="DejaVuSans-39" d="M 703 97 
L 703 672 
Q 941 559 1184 500 
Q 1428 441 1663 441 
Q 2288 441 2617 861 
Q 2947 1281 2994 2138 
Q 2813 1869 2534 1725 
Q 2256 1581 1919 1581 
Q 1219 1581 811 2004 
Q 403 2428 403 3163 
Q 403 3881 828 4315 
Q 1253 4750 1959 4750 
Q 2769 4750 3195 4129 
Q 3622 3509 3622 2328 
Q 3622 1225 3098 567 
Q 2575 -91 1691 -91 
Q 1453 -91 1209 -44 
Q 966 3 703 97 
z
M 1959 2075 
Q 2384 2075 2632 2365 
Q 2881 2656 2881 3163 
Q 2881 3666 2632 3958 
Q 2384 4250 1959 4250 
Q 1534 4250 1286 3958 
Q 1038 3666 1038 3163 
Q 1038 2656 1286 2365 
Q 1534 2075 1959 2075 
z
" transform="scale(0.015625)"/>
        <path id="DejaVuSans-32" d="M 1228 531 
L 3431 531 
L 3431 0 
L 469 0 
L 469 531 
Q 828 903 1448 1529 
Q 2069 2156 2228 2338 
Q 2531 2678 2651 2914 
Q 2772 3150 2772 3378 
Q 2772 3750 2511 3984 
Q 2250 4219 1831 4219 
Q 1534 4219 1204 4116 
Q 875 4013 500 3803 
L 500 4441 
Q 881 4594 1212 4672 
Q 1544 4750 1819 4750 
Q 2544 4750 2975 4387 
Q 3406 4025 3406 3419 
Q 3406 3131 3298 2873 
Q 3191 2616 2906 2266 
Q 2828 2175 2409 1742 
Q 1991 1309 1228 531 
z
" transform="scale(0.015625)"/>
       </defs>
       <use xlink:href="#DejaVuSans-31"/>
       <use xlink:href="#DejaVuSans-39" x="63.623047"/>
       <use xlink:href="#DejaVuSans-39" x="127.246094"/>
       <use xlink:href="#DejaVuSans-32" x="190.869141"/>
      </g>
     </g>
    </g>
    <g id="xtick_2">
     <g id="line2d_2">
      <g>
       <use xlink:href="#m4d9e007ba0" x="272.572252" y="320.4" style="stroke: #000000; stroke-width: 0.8"/>
      </g>
     </g>
     <g id="text_2">
      <!-- 1996 -->
      <g transform="translate(259.847252 334.998438) scale(0.1 -0.1)">
       <defs>
        <path id="DejaVuSans-36" d="M 2113 2584 
Q 1688 2584 1439 2293 
Q 1191 2003 1191 1497 
Q 1191 994 1439 701 
Q 1688 409 2113 409 
Q 2538 409 2786 701 
Q 3034 994 3034 1497 
Q 3034 2003 2786 2293 
Q 2538 2584 2113 2584 
z
M 3366 4563 
L 3366 3988 
Q 3128 4100 2886 4159 
Q 2644 4219 2406 4219 
Q 1781 4219 1451 3797 
Q 1122 3375 1075 2522 
Q 1259 2794 1537 2939 
Q 1816 3084 2150 3084 
Q 2853 3084 3261 2657 
Q 3669 2231 3669 1497 
Q 3669 778 3244 343 
Q 2819 -91 2113 -91 
Q 1303 -91 875 529 
Q 447 1150 447 2328 
Q 447 3434 972 4092 
Q 1497 4750 2381 4750 
Q 2619 4750 2861 4703 
Q 3103 4656 3366 4563 
z
" transform="scale(0.015625)"/>
       </defs>
       <use xlink:href="#DejaVuSans-31"/>
       <use xlink:href="#DejaVuSans-39" x="63.623047"/>
       <use xlink:href="#DejaVuSans-39" x="127.246094"/>
       <use xlink:href="#DejaVuSans-36" x="190.869141"/>
      </g>
     </g>
    </g>
    <g id="xtick_3">
     <g id="line2d_3">
      <g>
       <use xlink:href="#m4d9e007ba0" x="384.483756" y="320.4" style="stroke: #000000; stroke-width: 0.8"/>
      </g>
     </g>
     <g id="text_3">
      <!-- 2000 -->
      <g transform="translate(371.758756 334.998438) scale(0.1 -0.1)">
       <defs>
        <path id="DejaVuSans-30" d="M 2034 4250 
Q 1547 4250 1301 3770 
Q 1056 3291 1056 2328 
Q 1056 1369 1301 889 
Q 1547 409 2034 409 
Q 2525 409 2770 889 
Q 3016 1369 3016 2328 
Q 3016 3291 2770 3770 
Q 2525 4250 2034 4250 
z
M 2034 4750 
Q 2819 4750 3233 4129 
Q 3647 3509 3647 2328 
Q 3647 1150 3233 529 
Q 2819 -91 2034 -91 
Q 1250 -91 836 529 
Q 422 1150 422 2328 
Q 422 3509 836 4129 
Q 1250 4750 2034 4750 
z
" transform="scale(0.015625)"/>
       </defs>
       <use xlink:href="#DejaVuSans-32"/>
       <use xlink:href="#DejaVuSans-30" x="63.623047"/>
       <use xlink:href="#DejaVuSans-30" x="127.246094"/>
       <use xlink:href="#DejaVuSans-30" x="190.869141"/>
      </g>
     </g>
    </g>
    <g id="xtick_4">
     <g id="line2d_4">
      <g>
       <use xlink:href="#m4d9e007ba0" x="496.395259" y="320.4" style="stroke: #000000; stroke-width: 0.8"/>
      </g>
     </g>
     <g id="text_4">
      <!-- 2004 -->
      <g transform="translate(483.670259 334.998438) scale(0.1 -0.1)">
       <defs>
        <path id="DejaVuSans-34" d="M 2419 4116 
L 825 1625 
L 2419 1625 
L 2419 4116 
z
M 2253 4666 
L 3047 4666 
L 3047 1625 
L 3713 1625 
L 3713 1100 
L 3047 1100 
L 3047 0 
L 2419 0 
L 2419 1100 
L 313 1100 
L 313 1709 
L 2253 4666 
z
" transform="scale(0.015625)"/>
       </defs>
       <use xlink:href="#DejaVuSans-32"/>
       <use xlink:href="#DejaVuSans-30" x="63.623047"/>
       <use xlink:href="#DejaVuSans-30" x="127.246094"/>
       <use xlink:href="#DejaVuSans-34" x="190.869141"/>
      </g>
     </g>
    </g>
    <g id="xtick_5">
     <g id="line2d_5">
      <g>
       <use xlink:href="#m4d9e007ba0" x="608.306763" y="320.4" style="stroke: #000000; stroke-width: 0.8"/>
      </g>
     </g>
     <g id="text_5">
      <!-- 2008 -->
      <g transform="translate(595.581763 334.998438) scale(0.1 -0.1)">
       <defs>
        <path id="DejaVuSans-38" d="M 2034 2216 
Q 1584 2216 1326 1975 
Q 1069 1734 1069 1313 
Q 1069 891 1326 650 
Q 1584 409 2034 409 
Q 2484 409 2743 651 
Q 3003 894 3003 1313 
Q 3003 1734 2745 1975 
Q 2488 2216 2034 2216 
z
M 1403 2484 
Q 997 2584 770 2862 
Q 544 3141 544 3541 
Q 544 4100 942 4425 
Q 1341 4750 2034 4750 
Q 2731 4750 3128 4425 
Q 3525 4100 3525 3541 
Q 3525 3141 3298 2862 
Q 3072 2584 2669 2484 
Q 3125 2378 3379 2068 
Q 3634 1759 3634 1313 
Q 3634 634 3220 271 
Q 2806 -91 2034 -91 
Q 1263 -91 848 271 
Q 434 634 434 1313 
Q 434 1759 690 2068 
Q 947 2378 1403 2484 
z
M 1172 3481 
Q 1172 3119 1398 2916 
Q 1625 2713 2034 2713 
Q 2441 2713 2670 2916 
Q 2900 3119 2900 3481 
Q 2900 3844 2670 4047 
Q 2441 4250 2034 4250 
Q 1625 4250 1398 4047 
Q 1172 3844 1172 3481 
z
" transform="scale(0.015625)"/>
       </defs>
       <use xlink:href="#DejaVuSans-32"/>
       <use xlink:href="#DejaVuSans-30" x="63.623047"/>
       <use xlink:href="#DejaVuSans-30" x="127.246094"/>
       <use xlink:href="#DejaVuSans-38" x="190.869141"/>
      </g>
     </g>
    </g>
    <g id="xtick_6">
     <g id="line2d_6">
      <g>
       <use xlink:href="#m4d9e007ba0" x="720.218267" y="320.4" style="stroke: #000000; stroke-width: 0.8"/>
      </g>
     </g>
     <g id="text_6">
      <!-- 2012 -->
      <g transform="translate(707.493267 334.998438) scale(0.1 -0.1)">
       <use xlink:href="#DejaVuSans-32"/>
       <use xlink:href="#DejaVuSans-30" x="63.623047"/>
       <use xlink:href="#DejaVuSans-31" x="127.246094"/>
       <use xlink:href="#DejaVuSans-32" x="190.869141"/>
      </g>
     </g>
    </g>
    <g id="xtick_7">
     <g id="line2d_7">
      <g>
       <use xlink:href="#m4d9e007ba0" x="832.12977" y="320.4" style="stroke: #000000; stroke-width: 0.8"/>
      </g>
     </g>
     <g id="text_7">
      <!-- 2016 -->
      <g transform="translate(819.40477 334.998438) scale(0.1 -0.1)">
       <use xlink:href="#DejaVuSans-32"/>
       <use xlink:href="#DejaVuSans-30" x="63.623047"/>
       <use xlink:href="#DejaVuSans-31" x="127.246094"/>
       <use xlink:href="#DejaVuSans-36" x="190.869141"/>
      </g>
     </g>
    </g>
    <g id="xtick_8">
     <g id="line2d_8">
      <g>
       <use xlink:href="#m4d9e007ba0" x="944.041274" y="320.4" style="stroke: #000000; stroke-width: 0.8"/>
      </g>
     </g>
     <g id="text_8">
      <!-- 2020 -->
      <g transform="translate(931.316274 334.998438) scale(0.1 -0.1)">
       <use xlink:href="#DejaVuSans-32"/>
       <use xlink:href="#DejaVuSans-30" x="63.623047"/>
       <use xlink:href="#DejaVuSans-32" x="127.246094"/>
       <use xlink:href="#DejaVuSans-30" x="190.869141"/>
      </g>
     </g>
    </g>
   </g>
   <g id="matplotlib.axis_2">
    <g id="ytick_1">
     <g id="line2d_9">
      <defs>
       <path id="mf1d763af37" d="M 0 0 
L -3.5 0 
" style="stroke: #000000; stroke-width: 0.8"/>
      </defs>
      <g>
       <use xlink:href="#mf1d763af37" x="135" y="303.501945" style="stroke: #000000; stroke-width: 0.8"/>
      </g>
     </g>
     <g id="text_9">
      <!-- −2 -->
      <g transform="translate(113.257812 307.301164) scale(0.1 -0.1)">
       <defs>
        <path id="DejaVuSans-2212" d="M 678 2272 
L 4684 2272 
L 4684 1741 
L 678 1741 
L 678 2272 
z
" transform="scale(0.015625)"/>
       </defs>
       <use xlink:href="#DejaVuSans-2212"/>
       <use xlink:href="#DejaVuSans-32" x="83.789062"/>
      </g>
     </g>
    </g>
    <g id="ytick_2">
     <g id="line2d_10">
      <g>
       <use xlink:href="#mf1d763af37" x="135" y="242.400112" style="stroke: #000000; stroke-width: 0.8"/>
      </g>
     </g>
     <g id="text_10">
      <!-- −1 -->
      <g transform="translate(113.257812 246.19933) scale(0.1 -0.1)">
       <use xlink:href="#DejaVuSans-2212"/>
       <use xlink:href="#DejaVuSans-31" x="83.789062"/>
      </g>
     </g>
    </g>
    <g id="ytick_3">
     <g id="line2d_11">
      <g>
       <use xlink:href="#mf1d763af37" x="135" y="181.298278" style="stroke: #000000; stroke-width: 0.8"/>
      </g>
     </g>
     <g id="text_11">
      <!-- 0 -->
      <g transform="translate(121.6375 185.097497) scale(0.1 -0.1)">
       <use xlink:href="#DejaVuSans-30"/>
      </g>
     </g>
    </g>
    <g id="ytick_4">
     <g id="line2d_12">
      <g>
       <use xlink:href="#mf1d763af37" x="135" y="120.196444" style="stroke: #000000; stroke-width: 0.8"/>
      </g>
     </g>
     <g id="text_12">
      <!-- 1 -->
      <g transform="translate(121.6375 123.995663) scale(0.1 -0.1)">
       <use xlink:href="#DejaVuSans-31"/>
      </g>
     </g>
    </g>
    <g id="ytick_5">
     <g id="line2d_13">
      <g>
       <use xlink:href="#mf1d763af37" x="135" y="59.09461" style="stroke: #000000; stroke-width: 0.8"/>
      </g>
     </g>
     <g id="text_13">
      <!-- 2 -->
      <g transform="translate(121.6375 62.893829) scale(0.1 -0.1)">
       <use xlink:href="#DejaVuSans-32"/>
      </g>
     </g>
    </g>
    <g id="text_14">
     <!-- SGI -->
     <g transform="translate(107.178125 190.323437) rotate(-90) scale(0.1 -0.1)">
      <defs>
       <path id="DejaVuSans-53" d="M 3425 4513 
L 3425 3897 
Q 3066 4069 2747 4153 
Q 2428 4238 2131 4238 
Q 1616 4238 1336 4038 
Q 1056 3838 1056 3469 
Q 1056 3159 1242 3001 
Q 1428 2844 1947 2747 
L 2328 2669 
Q 3034 2534 3370 2195 
Q 3706 1856 3706 1288 
Q 3706 609 3251 259 
Q 2797 -91 1919 -91 
Q 1588 -91 1214 -16 
Q 841 59 441 206 
L 441 856 
Q 825 641 1194 531 
Q 1563 422 1919 422 
Q 2459 422 2753 634 
Q 3047 847 3047 1241 
Q 3047 1584 2836 1778 
Q 2625 1972 2144 2069 
L 1759 2144 
Q 1053 2284 737 2584 
Q 422 2884 422 3419 
Q 422 4038 858 4394 
Q 1294 4750 2059 4750 
Q 2388 4750 2728 4690 
Q 3069 4631 3425 4513 
z
" transform="scale(0.015625)"/>
       <path id="DejaVuSans-47" d="M 3809 666 
L 3809 1919 
L 2778 1919 
L 2778 2438 
L 4434 2438 
L 4434 434 
Q 4069 175 3628 42 
Q 3188 -91 2688 -91 
Q 1594 -91 976 548 
Q 359 1188 359 2328 
Q 359 3472 976 4111 
Q 1594 4750 2688 4750 
Q 3144 4750 3555 4637 
Q 3966 4525 4313 4306 
L 4313 3634 
Q 3963 3931 3569 4081 
Q 3175 4231 2741 4231 
Q 1884 4231 1454 3753 
Q 1025 3275 1025 2328 
Q 1025 1384 1454 906 
Q 1884 428 2741 428 
Q 3075 428 3337 486 
Q 3600 544 3809 666 
z
" transform="scale(0.015625)"/>
       <path id="DejaVuSans-49" d="M 628 4666 
L 1259 4666 
L 1259 0 
L 628 0 
L 628 4666 
z
" transform="scale(0.015625)"/>
      </defs>
      <use xlink:href="#DejaVuSans-53"/>
      <use xlink:href="#DejaVuSans-47" x="63.476562"/>
      <use xlink:href="#DejaVuSans-49" x="140.966797"/>
     </g>
    </g>
   </g>
   <g id="line2d_14">
    <path d="M 207.233092 134.666621 
L 216.578201 67.48424 
L 223.472133 135.899042 
L 230.442665 216.228679 
L 237.489796 249.918357 
L 244.536927 100.974561 
L 251.430859 151.779372 
L 258.401391 247.354875 
L 265.448522 265.530451 
L 272.495653 129.741065 
L 279.466185 173.790129 
L 286.436716 159.133491 
L 293.483847 140.935698 
L 300.530978 111.908364 
L 314.395442 120.87484 
L 321.442573 74.801611 
L 330.864281 140.063893 
L 333.00906 120.36084 
L 335.383637 131.769529 
L 337.681614 135.512298 
L 342.354169 165.55548 
L 344.728745 171.015745 
L 349.4013 126.335041 
L 351.775876 173.697496 
L 356.44843 214.377318 
L 358.823007 157.71767 
L 360.967786 162.200944 
L 363.342363 146.625988 
L 365.64034 132.581751 
L 368.014917 233.502264 
L 370.312895 55.8 
L 372.687471 177.355264 
L 375.062048 148.967115 
L 379.734602 119.486124 
L 382.03258 106.097595 
L 384.407157 133.197902 
L 386.781733 134.003386 
L 389.003112 153.503817 
L 391.377688 152.521606 
L 393.675666 229.194084 
L 396.050243 195.814552 
L 398.34822 218.976581 
L 400.722797 206.361758 
L 403.097373 212.874455 
L 405.395351 217.450497 
L 407.769928 212.837207 
L 410.067905 158.962152 
L 412.442482 149.613182 
L 414.817059 179.884976 
L 416.961838 254.561536 
L 419.336414 217.696825 
L 421.634392 192.784259 
L 424.008969 215.407289 
L 426.306946 159.133491 
L 433.354077 239.725272 
L 440.401208 154.717526 
L 447.29514 185.542619 
L 454.265672 208.198225 
L 461.312803 173.222263 
L 468.359934 173.627359 
L 475.253867 129.081805 
L 482.224398 213.516535 
L 489.271529 211.504765 
L 496.31866 210.842232 
L 503.289192 203.370346 
L 510.259724 217.140663 
L 517.306855 125.026577 
L 524.353986 143.238495 
L 531.247918 206.696486 
L 538.21845 234.235601 
L 545.265581 206.715161 
L 552.312712 214.377318 
L 559.206644 217.696825 
L 566.177176 140.598691 
L 573.224307 199.605801 
L 580.271438 184.682356 
L 587.16537 227.236812 
L 594.135902 181.979645 
L 601.183033 152.262228 
L 608.230164 150.649131 
L 615.200696 185.542619 
L 622.171227 169.933856 
L 629.218358 149.366739 
L 636.265489 169.970849 
L 643.159422 195.171584 
L 650.129953 102.257364 
L 657.177084 188.683794 
L 664.224215 306.719126 
L 671.118148 268.500468 
L 678.088679 151.55439 
L 685.13581 186.730271 
L 692.182941 212.011599 
L 699.076874 151.038565 
L 706.047406 139.383935 
L 713.094536 164.294082 
L 720.141667 230.465896 
L 727.112199 223.742908 
L 729.410177 170.455462 
L 731.784753 184.559291 
L 734.082731 207.32537 
L 736.457308 151.413971 
L 738.831884 179.631408 
L 741.129862 119.737329 
L 743.504439 206.093538 
L 745.802416 222.492471 
L 748.176993 198.617775 
L 750.55157 199.636967 
L 755.070925 246.96162 
L 757.368903 224.085928 
L 762.041457 182.751699 
L 769.088588 253.00446 
L 771.463165 169.329794 
L 776.135719 191.448676 
L 778.510296 228.337389 
L 780.655075 198.411821 
L 783.029651 85.440728 
L 785.327629 140.607545 
L 787.702206 149.540596 
L 790.000183 89.885344 
L 792.37476 112.060862 
L 794.749337 177.986256 
L 797.047314 157.582321 
L 799.421891 127.211361 
L 801.719868 146.356341 
L 804.094445 136.603376 
L 806.469022 164.352326 
L 808.613801 203.818149 
L 810.988377 175.34208 
L 813.286355 180.226511 
L 815.660932 103.783667 
L 817.958909 239.207902 
L 820.333486 223.84064 
L 822.708063 235.900211 
L 825.00604 234.393149 
L 827.380617 270.841077 
L 829.678594 265.816326 
L 832.053171 256.786133 
L 839.023703 247.878619 
L 848.368811 219.768015 
L 853.041365 111.979919 
L 860.088496 219.209322 
L 866.982429 63.562453 
L 871.654983 176.010017 
L 881.000092 203.135988 
L 888.047222 234.29165 
L 897.239132 226.269948 
L 901.911687 220.828456 
L 908.958818 71.51147 
L 916.005949 238.128397 
L 922.899881 191.937274 
L 929.870413 266.473625 
L 936.917544 183.976491 
L 946.339251 260.44488 
L 957.905738 169.933856 
L 964.952869 307.8 
L 964.952869 307.8 
" clip-path="url(#p1fa1671772)" style="fill: none; stroke: #7f7f7f; stroke-width: 1.5; stroke-linecap: square"/>
   </g>
   <g id="line2d_15">
    <path d="M 135 181.298278 
L 972 181.298278 
" clip-path="url(#p1fa1671772)" style="fill: none; stroke: #000000; stroke-width: 1.5; stroke-linecap: square"/>
   </g>
   <g id="patch_3">
    <path d="M 135 320.4 
L 135 43.2 
" style="fill: none; stroke: #000000; stroke-width: 0.8; stroke-linejoin: miter; stroke-linecap: square"/>
   </g>
   <g id="patch_4">
    <path d="M 135 320.4 
L 972 320.4 
" style="fill: none; stroke: #000000; stroke-width: 0.8; stroke-linejoin: miter; stroke-linecap: square"/>
   </g>
   <g id="text_15">
    <!-- SGI for GWIC ID 57128 -->
    <g transform="translate(135 37.2) scale(0.12 -0.12)">
     <defs>
      <path id="DejaVuSans-Bold-53" d="M 3834 4519 
L 3834 3531 
Q 3450 3703 3084 3790 
Q 2719 3878 2394 3878 
Q 1963 3878 1756 3759 
Q 1550 3641 1550 3391 
Q 1550 3203 1689 3098 
Q 1828 2994 2194 2919 
L 2706 2816 
Q 3484 2659 3812 2340 
Q 4141 2022 4141 1434 
Q 4141 663 3683 286 
Q 3225 -91 2284 -91 
Q 1841 -91 1394 -6 
Q 947 78 500 244 
L 500 1259 
Q 947 1022 1364 901 
Q 1781 781 2169 781 
Q 2563 781 2772 912 
Q 2981 1044 2981 1288 
Q 2981 1506 2839 1625 
Q 2697 1744 2272 1838 
L 1806 1941 
Q 1106 2091 782 2419 
Q 459 2747 459 3303 
Q 459 4000 909 4375 
Q 1359 4750 2203 4750 
Q 2588 4750 2994 4692 
Q 3400 4634 3834 4519 
z
" transform="scale(0.015625)"/>
      <path id="DejaVuSans-Bold-47" d="M 4781 347 
Q 4331 128 3847 18 
Q 3363 -91 2847 -91 
Q 1681 -91 1000 561 
Q 319 1213 319 2328 
Q 319 3456 1012 4103 
Q 1706 4750 2913 4750 
Q 3378 4750 3804 4662 
Q 4231 4575 4609 4403 
L 4609 3438 
Q 4219 3659 3833 3768 
Q 3447 3878 3059 3878 
Q 2341 3878 1952 3476 
Q 1563 3075 1563 2328 
Q 1563 1588 1938 1184 
Q 2313 781 3003 781 
Q 3191 781 3352 804 
Q 3513 828 3641 878 
L 3641 1784 
L 2906 1784 
L 2906 2591 
L 4781 2591 
L 4781 347 
z
" transform="scale(0.015625)"/>
      <path id="DejaVuSans-Bold-49" d="M 588 4666 
L 1791 4666 
L 1791 0 
L 588 0 
L 588 4666 
z
" transform="scale(0.015625)"/>
      <path id="DejaVuSans-Bold-20" transform="scale(0.015625)"/>
      <path id="DejaVuSans-Bold-66" d="M 2841 4863 
L 2841 4128 
L 2222 4128 
Q 1984 4128 1890 4042 
Q 1797 3956 1797 3744 
L 1797 3500 
L 2753 3500 
L 2753 2700 
L 1797 2700 
L 1797 0 
L 678 0 
L 678 2700 
L 122 2700 
L 122 3500 
L 678 3500 
L 678 3744 
Q 678 4316 997 4589 
Q 1316 4863 1984 4863 
L 2841 4863 
z
" transform="scale(0.015625)"/>
      <path id="DejaVuSans-Bold-6f" d="M 2203 2784 
Q 1831 2784 1636 2517 
Q 1441 2250 1441 1747 
Q 1441 1244 1636 976 
Q 1831 709 2203 709 
Q 2569 709 2762 976 
Q 2956 1244 2956 1747 
Q 2956 2250 2762 2517 
Q 2569 2784 2203 2784 
z
M 2203 3584 
Q 3106 3584 3614 3096 
Q 4122 2609 4122 1747 
Q 4122 884 3614 396 
Q 3106 -91 2203 -91 
Q 1297 -91 786 396 
Q 275 884 275 1747 
Q 275 2609 786 3096 
Q 1297 3584 2203 3584 
z
" transform="scale(0.015625)"/>
      <path id="DejaVuSans-Bold-72" d="M 3138 2547 
Q 2991 2616 2845 2648 
Q 2700 2681 2553 2681 
Q 2122 2681 1889 2404 
Q 1656 2128 1656 1613 
L 1656 0 
L 538 0 
L 538 3500 
L 1656 3500 
L 1656 2925 
Q 1872 3269 2151 3426 
Q 2431 3584 2822 3584 
Q 2878 3584 2943 3579 
Q 3009 3575 3134 3559 
L 3138 2547 
z
" transform="scale(0.015625)"/>
      <path id="DejaVuSans-Bold-57" d="M 191 4666 
L 1344 4666 
L 2150 1275 
L 2950 4666 
L 4109 4666 
L 4909 1275 
L 5716 4666 
L 6859 4666 
L 5759 0 
L 4372 0 
L 3525 3547 
L 2688 0 
L 1300 0 
L 191 4666 
z
" transform="scale(0.015625)"/>
      <path id="DejaVuSans-Bold-43" d="M 4288 256 
Q 3956 84 3597 -3 
Q 3238 -91 2847 -91 
Q 1681 -91 1000 561 
Q 319 1213 319 2328 
Q 319 3447 1000 4098 
Q 1681 4750 2847 4750 
Q 3238 4750 3597 4662 
Q 3956 4575 4288 4403 
L 4288 3438 
Q 3953 3666 3628 3772 
Q 3303 3878 2944 3878 
Q 2300 3878 1931 3465 
Q 1563 3053 1563 2328 
Q 1563 1606 1931 1193 
Q 2300 781 2944 781 
Q 3303 781 3628 887 
Q 3953 994 4288 1222 
L 4288 256 
z
" transform="scale(0.015625)"/>
      <path id="DejaVuSans-Bold-44" d="M 1791 3756 
L 1791 909 
L 2222 909 
Q 2959 909 3348 1275 
Q 3738 1641 3738 2338 
Q 3738 3031 3350 3393 
Q 2963 3756 2222 3756 
L 1791 3756 
z
M 588 4666 
L 1856 4666 
Q 2919 4666 3439 4514 
Q 3959 4363 4331 4000 
Q 4659 3684 4818 3271 
Q 4978 2859 4978 2338 
Q 4978 1809 4818 1395 
Q 4659 981 4331 666 
Q 3956 303 3431 151 
Q 2906 0 1856 0 
L 588 0 
L 588 4666 
z
" transform="scale(0.015625)"/>
      <path id="DejaVuSans-Bold-35" d="M 678 4666 
L 3669 4666 
L 3669 3781 
L 1638 3781 
L 1638 3059 
Q 1775 3097 1914 3117 
Q 2053 3138 2203 3138 
Q 3056 3138 3531 2711 
Q 4006 2284 4006 1522 
Q 4006 766 3489 337 
Q 2972 -91 2053 -91 
Q 1656 -91 1267 -14 
Q 878 63 494 219 
L 494 1166 
Q 875 947 1217 837 
Q 1559 728 1863 728 
Q 2300 728 2551 942 
Q 2803 1156 2803 1522 
Q 2803 1891 2551 2103 
Q 2300 2316 1863 2316 
Q 1603 2316 1309 2248 
Q 1016 2181 678 2041 
L 678 4666 
z
" transform="scale(0.015625)"/>
      <path id="DejaVuSans-Bold-37" d="M 428 4666 
L 3944 4666 
L 3944 3988 
L 2125 0 
L 953 0 
L 2675 3781 
L 428 3781 
L 428 4666 
z
" transform="scale(0.015625)"/>
      <path id="DejaVuSans-Bold-31" d="M 750 831 
L 1813 831 
L 1813 3847 
L 722 3622 
L 722 4441 
L 1806 4666 
L 2950 4666 
L 2950 831 
L 4013 831 
L 4013 0 
L 750 0 
L 750 831 
z
" transform="scale(0.015625)"/>
      <path id="DejaVuSans-Bold-32" d="M 1844 884 
L 3897 884 
L 3897 0 
L 506 0 
L 506 884 
L 2209 2388 
Q 2438 2594 2547 2791 
Q 2656 2988 2656 3200 
Q 2656 3528 2436 3728 
Q 2216 3928 1850 3928 
Q 1569 3928 1234 3808 
Q 900 3688 519 3450 
L 519 4475 
Q 925 4609 1322 4679 
Q 1719 4750 2100 4750 
Q 2938 4750 3402 4381 
Q 3866 4013 3866 3353 
Q 3866 2972 3669 2642 
Q 3472 2313 2841 1759 
L 1844 884 
z
" transform="scale(0.015625)"/>
      <path id="DejaVuSans-Bold-38" d="M 2228 2088 
Q 1891 2088 1709 1903 
Q 1528 1719 1528 1375 
Q 1528 1031 1709 848 
Q 1891 666 2228 666 
Q 2563 666 2741 848 
Q 2919 1031 2919 1375 
Q 2919 1722 2741 1905 
Q 2563 2088 2228 2088 
z
M 1350 2484 
Q 925 2613 709 2878 
Q 494 3144 494 3541 
Q 494 4131 934 4440 
Q 1375 4750 2228 4750 
Q 3075 4750 3515 4442 
Q 3956 4134 3956 3541 
Q 3956 3144 3739 2878 
Q 3522 2613 3097 2484 
Q 3572 2353 3814 2058 
Q 4056 1763 4056 1313 
Q 4056 619 3595 264 
Q 3134 -91 2228 -91 
Q 1319 -91 855 264 
Q 391 619 391 1313 
Q 391 1763 633 2058 
Q 875 2353 1350 2484 
z
M 1631 3419 
Q 1631 3141 1786 2991 
Q 1941 2841 2228 2841 
Q 2509 2841 2662 2991 
Q 2816 3141 2816 3419 
Q 2816 3697 2662 3845 
Q 2509 3994 2228 3994 
Q 1941 3994 1786 3844 
Q 1631 3694 1631 3419 
z
" transform="scale(0.015625)"/>
     </defs>
     <use xlink:href="#DejaVuSans-Bold-53"/>
     <use xlink:href="#DejaVuSans-Bold-47" x="72.021484"/>
     <use xlink:href="#DejaVuSans-Bold-49" x="154.101562"/>
     <use xlink:href="#DejaVuSans-Bold-20" x="191.308594"/>
     <use xlink:href="#DejaVuSans-Bold-66" x="226.123047"/>
     <use xlink:href="#DejaVuSans-Bold-6f" x="269.628906"/>
     <use xlink:href="#DejaVuSans-Bold-72" x="338.330078"/>
     <use xlink:href="#DejaVuSans-Bold-20" x="387.646484"/>
     <use xlink:href="#DejaVuSans-Bold-47" x="422.460938"/>
     <use xlink:href="#DejaVuSans-Bold-57" x="504.541016"/>
     <use xlink:href="#DejaVuSans-Bold-49" x="614.84375"/>
     <use xlink:href="#DejaVuSans-Bold-43" x="652.050781"/>
     <use xlink:href="#DejaVuSans-Bold-20" x="725.439453"/>
     <use xlink:href="#DejaVuSans-Bold-49" x="760.253906"/>
     <use xlink:href="#DejaVuSans-Bold-44" x="797.460938"/>
     <use xlink:href="#DejaVuSans-Bold-20" x="880.46875"/>
     <use xlink:href="#DejaVuSans-Bold-35" x="915.283203"/>
     <use xlink:href="#DejaVuSans-Bold-37" x="984.863281"/>
     <use xlink:href="#DejaVuSans-Bold-31" x="1054.443359"/>
     <use xlink:href="#DejaVuSans-Bold-32" x="1124.023438"/>
     <use xlink:href="#DejaVuSans-Bold-38" x="1193.603516"/>
    </g>
   </g>
   <g id="PathCollection_1">
    <defs>
     <path id="m09380fad79" d="M 0 3 
C 0.795609 3 1.55874 2.683901 2.12132 2.12132 
C 2.683901 1.55874 3 0.795609 3 0 
C 3 -0.795609 2.683901 -1.55874 2.12132 -2.12132 
C 1.55874 -2.683901 0.795609 -3 0 -3 
C -0.795609 -3 -1.55874 -2.683901 -2.12132 -2.12132 
C -2.683901 -1.55874 -3 -0.795609 -3 0 
C -3 0.795609 -2.683901 1.55874 -2.12132 2.12132 
C -1.55874 2.683901 -0.795609 3 0 3 
z
" style="stroke: #ffffff; stroke-width: 0.48"/>
    </defs>
    <g clip-path="url(#p1fa1671772)">
     <use xlink:href="#m09380fad79" x="207.233092" y="134.666621" style="stroke: #ffffff; stroke-width: 0.48"/>
     <use xlink:href="#m09380fad79" x="216.578201" y="67.48424" style="stroke: #ffffff; stroke-width: 0.48"/>
     <use xlink:href="#m09380fad79" x="223.472133" y="135.899042" style="stroke: #ffffff; stroke-width: 0.48"/>
     <use xlink:href="#m09380fad79" x="230.442665" y="216.228679" style="stroke: #ffffff; stroke-width: 0.48"/>
     <use xlink:href="#m09380fad79" x="237.489796" y="249.918357" style="stroke: #ffffff; stroke-width: 0.48"/>
     <use xlink:href="#m09380fad79" x="244.536927" y="100.974561" style="stroke: #ffffff; stroke-width: 0.48"/>
     <use xlink:href="#m09380fad79" x="251.430859" y="151.779372" style="stroke: #ffffff; stroke-width: 0.48"/>
     <use xlink:href="#m09380fad79" x="258.401391" y="247.354875" style="stroke: #ffffff; stroke-width: 0.48"/>
     <use xlink:href="#m09380fad79" x="265.448522" y="265.530451" style="stroke: #ffffff; stroke-width: 0.48"/>
     <use xlink:href="#m09380fad79" x="272.495653" y="129.741065" style="stroke: #ffffff; stroke-width: 0.48"/>
     <use xlink:href="#m09380fad79" x="279.466185" y="173.790129" style="stroke: #ffffff; stroke-width: 0.48"/>
     <use xlink:href="#m09380fad79" x="286.436716" y="159.133491" style="stroke: #ffffff; stroke-width: 0.48"/>
     <use xlink:href="#m09380fad79" x="293.483847" y="140.935698" style="stroke: #ffffff; stroke-width: 0.48"/>
     <use xlink:href="#m09380fad79" x="300.530978" y="111.908364" style="stroke: #ffffff; stroke-width: 0.48"/>
     <use xlink:href="#m09380fad79" x="314.395442" y="120.87484" style="stroke: #ffffff; stroke-width: 0.48"/>
     <use xlink:href="#m09380fad79" x="321.442573" y="74.801611" style="stroke: #ffffff; stroke-width: 0.48"/>
     <use xlink:href="#m09380fad79" x="330.864281" y="140.063893" style="stroke: #ffffff; stroke-width: 0.48"/>
     <use xlink:href="#m09380fad79" x="333.00906" y="120.36084" style="stroke: #ffffff; stroke-width: 0.48"/>
     <use xlink:href="#m09380fad79" x="335.383637" y="131.769529" style="stroke: #ffffff; stroke-width: 0.48"/>
     <use xlink:href="#m09380fad79" x="337.681614" y="135.512298" style="stroke: #ffffff; stroke-width: 0.48"/>
     <use xlink:href="#m09380fad79" x="342.354169" y="165.55548" style="stroke: #ffffff; stroke-width: 0.48"/>
     <use xlink:href="#m09380fad79" x="344.728745" y="171.015745" style="stroke: #ffffff; stroke-width: 0.48"/>
     <use xlink:href="#m09380fad79" x="349.4013" y="126.335041" style="stroke: #ffffff; stroke-width: 0.48"/>
     <use xlink:href="#m09380fad79" x="351.775876" y="173.697496" style="stroke: #ffffff; stroke-width: 0.48"/>
     <use xlink:href="#m09380fad79" x="354.073854" y="194.132456" style="stroke: #ffffff; stroke-width: 0.48"/>
     <use xlink:href="#m09380fad79" x="356.44843" y="214.377318" style="stroke: #ffffff; stroke-width: 0.48"/>
     <use xlink:href="#m09380fad79" x="358.823007" y="157.71767" style="stroke: #ffffff; stroke-width: 0.48"/>
     <use xlink:href="#m09380fad79" x="360.967786" y="162.200944" style="stroke: #ffffff; stroke-width: 0.48"/>
     <use xlink:href="#m09380fad79" x="363.342363" y="146.625988" style="stroke: #ffffff; stroke-width: 0.48"/>
     <use xlink:href="#m09380fad79" x="365.64034" y="132.581751" style="stroke: #ffffff; stroke-width: 0.48"/>
     <use xlink:href="#m09380fad79" x="368.014917" y="233.502264" style="stroke: #ffffff; stroke-width: 0.48"/>
     <use xlink:href="#m09380fad79" x="370.312895" y="55.8" style="stroke: #ffffff; stroke-width: 0.48"/>
     <use xlink:href="#m09380fad79" x="372.687471" y="177.355264" style="stroke: #ffffff; stroke-width: 0.48"/>
     <use xlink:href="#m09380fad79" x="375.062048" y="148.967115" style="stroke: #ffffff; stroke-width: 0.48"/>
     <use xlink:href="#m09380fad79" x="379.734602" y="119.486124" style="stroke: #ffffff; stroke-width: 0.48"/>
     <use xlink:href="#m09380fad79" x="382.03258" y="106.097595" style="stroke: #ffffff; stroke-width: 0.48"/>
     <use xlink:href="#m09380fad79" x="384.407157" y="133.197902" style="stroke: #ffffff; stroke-width: 0.48"/>
     <use xlink:href="#m09380fad79" x="386.781733" y="134.003386" style="stroke: #ffffff; stroke-width: 0.48"/>
     <use xlink:href="#m09380fad79" x="389.003112" y="153.503817" style="stroke: #ffffff; stroke-width: 0.48"/>
     <use xlink:href="#m09380fad79" x="391.377688" y="152.521606" style="stroke: #ffffff; stroke-width: 0.48"/>
     <use xlink:href="#m09380fad79" x="393.675666" y="229.194084" style="stroke: #ffffff; stroke-width: 0.48"/>
     <use xlink:href="#m09380fad79" x="396.050243" y="195.814552" style="stroke: #ffffff; stroke-width: 0.48"/>
     <use xlink:href="#m09380fad79" x="398.34822" y="218.976581" style="stroke: #ffffff; stroke-width: 0.48"/>
     <use xlink:href="#m09380fad79" x="400.722797" y="206.361758" style="stroke: #ffffff; stroke-width: 0.48"/>
     <use xlink:href="#m09380fad79" x="403.097373" y="212.874455" style="stroke: #ffffff; stroke-width: 0.48"/>
     <use xlink:href="#m09380fad79" x="405.395351" y="217.450497" style="stroke: #ffffff; stroke-width: 0.48"/>
     <use xlink:href="#m09380fad79" x="407.769928" y="212.837207" style="stroke: #ffffff; stroke-width: 0.48"/>
     <use xlink:href="#m09380fad79" x="410.067905" y="158.962152" style="stroke: #ffffff; stroke-width: 0.48"/>
     <use xlink:href="#m09380fad79" x="412.442482" y="149.613182" style="stroke: #ffffff; stroke-width: 0.48"/>
     <use xlink:href="#m09380fad79" x="414.817059" y="179.884976" style="stroke: #ffffff; stroke-width: 0.48"/>
     <use xlink:href="#m09380fad79" x="416.961838" y="254.561536" style="stroke: #ffffff; stroke-width: 0.48"/>
     <use xlink:href="#m09380fad79" x="419.336414" y="217.696825" style="stroke: #ffffff; stroke-width: 0.48"/>
     <use xlink:href="#m09380fad79" x="421.634392" y="192.784259" style="stroke: #ffffff; stroke-width: 0.48"/>
     <use xlink:href="#m09380fad79" x="424.008969" y="215.407289" style="stroke: #ffffff; stroke-width: 0.48"/>
     <use xlink:href="#m09380fad79" x="426.306946" y="159.133491" style="stroke: #ffffff; stroke-width: 0.48"/>
     <use xlink:href="#m09380fad79" x="433.354077" y="239.725272" style="stroke: #ffffff; stroke-width: 0.48"/>
     <use xlink:href="#m09380fad79" x="440.401208" y="154.717526" style="stroke: #ffffff; stroke-width: 0.48"/>
     <use xlink:href="#m09380fad79" x="447.29514" y="185.542619" style="stroke: #ffffff; stroke-width: 0.48"/>
     <use xlink:href="#m09380fad79" x="454.265672" y="208.198225" style="stroke: #ffffff; stroke-width: 0.48"/>
     <use xlink:href="#m09380fad79" x="461.312803" y="173.222263" style="stroke: #ffffff; stroke-width: 0.48"/>
     <use xlink:href="#m09380fad79" x="468.359934" y="173.627359" style="stroke: #ffffff; stroke-width: 0.48"/>
     <use xlink:href="#m09380fad79" x="475.253867" y="129.081805" style="stroke: #ffffff; stroke-width: 0.48"/>
     <use xlink:href="#m09380fad79" x="482.224398" y="213.516535" style="stroke: #ffffff; stroke-width: 0.48"/>
     <use xlink:href="#m09380fad79" x="489.271529" y="211.504765" style="stroke: #ffffff; stroke-width: 0.48"/>
     <use xlink:href="#m09380fad79" x="496.31866" y="210.842232" style="stroke: #ffffff; stroke-width: 0.48"/>
     <use xlink:href="#m09380fad79" x="503.289192" y="203.370346" style="stroke: #ffffff; stroke-width: 0.48"/>
     <use xlink:href="#m09380fad79" x="510.259724" y="217.140663" style="stroke: #ffffff; stroke-width: 0.48"/>
     <use xlink:href="#m09380fad79" x="517.306855" y="125.026577" style="stroke: #ffffff; stroke-width: 0.48"/>
     <use xlink:href="#m09380fad79" x="524.353986" y="143.238495" style="stroke: #ffffff; stroke-width: 0.48"/>
     <use xlink:href="#m09380fad79" x="531.247918" y="206.696486" style="stroke: #ffffff; stroke-width: 0.48"/>
     <use xlink:href="#m09380fad79" x="538.21845" y="234.235601" style="stroke: #ffffff; stroke-width: 0.48"/>
     <use xlink:href="#m09380fad79" x="545.265581" y="206.715161" style="stroke: #ffffff; stroke-width: 0.48"/>
     <use xlink:href="#m09380fad79" x="552.312712" y="214.377318" style="stroke: #ffffff; stroke-width: 0.48"/>
     <use xlink:href="#m09380fad79" x="559.206644" y="217.696825" style="stroke: #ffffff; stroke-width: 0.48"/>
     <use xlink:href="#m09380fad79" x="566.177176" y="140.598691" style="stroke: #ffffff; stroke-width: 0.48"/>
     <use xlink:href="#m09380fad79" x="573.224307" y="199.605801" style="stroke: #ffffff; stroke-width: 0.48"/>
     <use xlink:href="#m09380fad79" x="580.271438" y="184.682356" style="stroke: #ffffff; stroke-width: 0.48"/>
     <use xlink:href="#m09380fad79" x="587.16537" y="227.236812" style="stroke: #ffffff; stroke-width: 0.48"/>
     <use xlink:href="#m09380fad79" x="594.135902" y="181.979645" style="stroke: #ffffff; stroke-width: 0.48"/>
     <use xlink:href="#m09380fad79" x="601.183033" y="152.262228" style="stroke: #ffffff; stroke-width: 0.48"/>
     <use xlink:href="#m09380fad79" x="608.230164" y="150.649131" style="stroke: #ffffff; stroke-width: 0.48"/>
     <use xlink:href="#m09380fad79" x="615.200696" y="185.542619" style="stroke: #ffffff; stroke-width: 0.48"/>
     <use xlink:href="#m09380fad79" x="622.171227" y="169.933856" style="stroke: #ffffff; stroke-width: 0.48"/>
     <use xlink:href="#m09380fad79" x="629.218358" y="149.366739" style="stroke: #ffffff; stroke-width: 0.48"/>
     <use xlink:href="#m09380fad79" x="636.265489" y="169.970849" style="stroke: #ffffff; stroke-width: 0.48"/>
     <use xlink:href="#m09380fad79" x="643.159422" y="195.171584" style="stroke: #ffffff; stroke-width: 0.48"/>
     <use xlink:href="#m09380fad79" x="650.129953" y="102.257364" style="stroke: #ffffff; stroke-width: 0.48"/>
     <use xlink:href="#m09380fad79" x="657.177084" y="188.683794" style="stroke: #ffffff; stroke-width: 0.48"/>
     <use xlink:href="#m09380fad79" x="664.224215" y="306.719126" style="stroke: #ffffff; stroke-width: 0.48"/>
     <use xlink:href="#m09380fad79" x="671.118148" y="268.500468" style="stroke: #ffffff; stroke-width: 0.48"/>
     <use xlink:href="#m09380fad79" x="678.088679" y="151.55439" style="stroke: #ffffff; stroke-width: 0.48"/>
     <use xlink:href="#m09380fad79" x="685.13581" y="186.730271" style="stroke: #ffffff; stroke-width: 0.48"/>
     <use xlink:href="#m09380fad79" x="692.182941" y="212.011599" style="stroke: #ffffff; stroke-width: 0.48"/>
     <use xlink:href="#m09380fad79" x="699.076874" y="151.038565" style="stroke: #ffffff; stroke-width: 0.48"/>
     <use xlink:href="#m09380fad79" x="706.047406" y="139.383935" style="stroke: #ffffff; stroke-width: 0.48"/>
     <use xlink:href="#m09380fad79" x="713.094536" y="164.294082" style="stroke: #ffffff; stroke-width: 0.48"/>
     <use xlink:href="#m09380fad79" x="720.141667" y="230.465896" style="stroke: #ffffff; stroke-width: 0.48"/>
     <use xlink:href="#m09380fad79" x="727.112199" y="223.742908" style="stroke: #ffffff; stroke-width: 0.48"/>
     <use xlink:href="#m09380fad79" x="729.410177" y="170.455462" style="stroke: #ffffff; stroke-width: 0.48"/>
     <use xlink:href="#m09380fad79" x="731.784753" y="184.559291" style="stroke: #ffffff; stroke-width: 0.48"/>
     <use xlink:href="#m09380fad79" x="734.082731" y="207.32537" style="stroke: #ffffff; stroke-width: 0.48"/>
     <use xlink:href="#m09380fad79" x="736.457308" y="151.413971" style="stroke: #ffffff; stroke-width: 0.48"/>
     <use xlink:href="#m09380fad79" x="738.831884" y="179.631408" style="stroke: #ffffff; stroke-width: 0.48"/>
     <use xlink:href="#m09380fad79" x="741.129862" y="119.737329" style="stroke: #ffffff; stroke-width: 0.48"/>
     <use xlink:href="#m09380fad79" x="743.504439" y="206.093538" style="stroke: #ffffff; stroke-width: 0.48"/>
     <use xlink:href="#m09380fad79" x="745.802416" y="222.492471" style="stroke: #ffffff; stroke-width: 0.48"/>
     <use xlink:href="#m09380fad79" x="748.176993" y="198.617775" style="stroke: #ffffff; stroke-width: 0.48"/>
     <use xlink:href="#m09380fad79" x="750.55157" y="199.636967" style="stroke: #ffffff; stroke-width: 0.48"/>
     <use xlink:href="#m09380fad79" x="755.070925" y="246.96162" style="stroke: #ffffff; stroke-width: 0.48"/>
     <use xlink:href="#m09380fad79" x="757.368903" y="224.085928" style="stroke: #ffffff; stroke-width: 0.48"/>
     <use xlink:href="#m09380fad79" x="762.041457" y="182.751699" style="stroke: #ffffff; stroke-width: 0.48"/>
     <use xlink:href="#m09380fad79" x="769.088588" y="253.00446" style="stroke: #ffffff; stroke-width: 0.48"/>
     <use xlink:href="#m09380fad79" x="771.463165" y="169.329794" style="stroke: #ffffff; stroke-width: 0.48"/>
     <use xlink:href="#m09380fad79" x="776.135719" y="191.448676" style="stroke: #ffffff; stroke-width: 0.48"/>
     <use xlink:href="#m09380fad79" x="778.510296" y="228.337389" style="stroke: #ffffff; stroke-width: 0.48"/>
     <use xlink:href="#m09380fad79" x="780.655075" y="198.411821" style="stroke: #ffffff; stroke-width: 0.48"/>
     <use xlink:href="#m09380fad79" x="783.029651" y="85.440728" style="stroke: #ffffff; stroke-width: 0.48"/>
     <use xlink:href="#m09380fad79" x="785.327629" y="140.607545" style="stroke: #ffffff; stroke-width: 0.48"/>
     <use xlink:href="#m09380fad79" x="787.702206" y="149.540596" style="stroke: #ffffff; stroke-width: 0.48"/>
     <use xlink:href="#m09380fad79" x="790.000183" y="89.885344" style="stroke: #ffffff; stroke-width: 0.48"/>
     <use xlink:href="#m09380fad79" x="792.37476" y="112.060862" style="stroke: #ffffff; stroke-width: 0.48"/>
     <use xlink:href="#m09380fad79" x="794.749337" y="177.986256" style="stroke: #ffffff; stroke-width: 0.48"/>
     <use xlink:href="#m09380fad79" x="797.047314" y="157.582321" style="stroke: #ffffff; stroke-width: 0.48"/>
     <use xlink:href="#m09380fad79" x="799.421891" y="127.211361" style="stroke: #ffffff; stroke-width: 0.48"/>
     <use xlink:href="#m09380fad79" x="801.719868" y="146.356341" style="stroke: #ffffff; stroke-width: 0.48"/>
     <use xlink:href="#m09380fad79" x="804.094445" y="136.603376" style="stroke: #ffffff; stroke-width: 0.48"/>
     <use xlink:href="#m09380fad79" x="806.469022" y="164.352326" style="stroke: #ffffff; stroke-width: 0.48"/>
     <use xlink:href="#m09380fad79" x="808.613801" y="203.818149" style="stroke: #ffffff; stroke-width: 0.48"/>
     <use xlink:href="#m09380fad79" x="810.988377" y="175.34208" style="stroke: #ffffff; stroke-width: 0.48"/>
     <use xlink:href="#m09380fad79" x="813.286355" y="180.226511" style="stroke: #ffffff; stroke-width: 0.48"/>
     <use xlink:href="#m09380fad79" x="815.660932" y="103.783667" style="stroke: #ffffff; stroke-width: 0.48"/>
     <use xlink:href="#m09380fad79" x="817.958909" y="239.207902" style="stroke: #ffffff; stroke-width: 0.48"/>
     <use xlink:href="#m09380fad79" x="820.333486" y="223.84064" style="stroke: #ffffff; stroke-width: 0.48"/>
     <use xlink:href="#m09380fad79" x="822.708063" y="235.900211" style="stroke: #ffffff; stroke-width: 0.48"/>
     <use xlink:href="#m09380fad79" x="825.00604" y="234.393149" style="stroke: #ffffff; stroke-width: 0.48"/>
     <use xlink:href="#m09380fad79" x="827.380617" y="270.841077" style="stroke: #ffffff; stroke-width: 0.48"/>
     <use xlink:href="#m09380fad79" x="829.678594" y="265.816326" style="stroke: #ffffff; stroke-width: 0.48"/>
     <use xlink:href="#m09380fad79" x="832.053171" y="256.786133" style="stroke: #ffffff; stroke-width: 0.48"/>
     <use xlink:href="#m09380fad79" x="839.023703" y="247.878619" style="stroke: #ffffff; stroke-width: 0.48"/>
     <use xlink:href="#m09380fad79" x="848.368811" y="219.768015" style="stroke: #ffffff; stroke-width: 0.48"/>
     <use xlink:href="#m09380fad79" x="853.041365" y="111.979919" style="stroke: #ffffff; stroke-width: 0.48"/>
     <use xlink:href="#m09380fad79" x="860.088496" y="219.209322" style="stroke: #ffffff; stroke-width: 0.48"/>
     <use xlink:href="#m09380fad79" x="866.982429" y="63.562453" style="stroke: #ffffff; stroke-width: 0.48"/>
     <use xlink:href="#m09380fad79" x="871.654983" y="176.010017" style="stroke: #ffffff; stroke-width: 0.48"/>
     <use xlink:href="#m09380fad79" x="881.000092" y="203.135988" style="stroke: #ffffff; stroke-width: 0.48"/>
     <use xlink:href="#m09380fad79" x="888.047222" y="234.29165" style="stroke: #ffffff; stroke-width: 0.48"/>
     <use xlink:href="#m09380fad79" x="897.239132" y="226.269948" style="stroke: #ffffff; stroke-width: 0.48"/>
     <use xlink:href="#m09380fad79" x="901.911687" y="220.828456" style="stroke: #ffffff; stroke-width: 0.48"/>
     <use xlink:href="#m09380fad79" x="908.958818" y="71.51147" style="stroke: #ffffff; stroke-width: 0.48"/>
     <use xlink:href="#m09380fad79" x="916.005949" y="238.128397" style="stroke: #ffffff; stroke-width: 0.48"/>
     <use xlink:href="#m09380fad79" x="922.899881" y="191.937274" style="stroke: #ffffff; stroke-width: 0.48"/>
     <use xlink:href="#m09380fad79" x="929.870413" y="266.473625" style="stroke: #ffffff; stroke-width: 0.48"/>
     <use xlink:href="#m09380fad79" x="936.917544" y="183.976491" style="stroke: #ffffff; stroke-width: 0.48"/>
     <use xlink:href="#m09380fad79" x="946.339251" y="260.44488" style="stroke: #ffffff; stroke-width: 0.48"/>
     <use xlink:href="#m09380fad79" x="957.905738" y="169.933856" style="stroke: #ffffff; stroke-width: 0.48"/>
     <use xlink:href="#m09380fad79" x="964.952869" y="307.8" style="stroke: #ffffff; stroke-width: 0.48"/>
    </g>
   </g>
  </g>
 </g>
 <defs>
  <clipPath id="p1fa1671772">
   <rect x="135" y="43.2" width="837" height="277.2"/>
  </clipPath>
 </defs>
</svg>
