<?xml version="1.0" encoding="utf-8" standalone="no"?>
<!DOCTYPE svg PUBLIC "-//W3C//DTD SVG 1.1//EN"
  "http://www.w3.org/Graphics/SVG/1.1/DTD/svg11.dtd">
<svg xmlns:xlink="http://www.w3.org/1999/xlink" width="1080pt" height="360pt" viewBox="0 0 1080 360" xmlns="http://www.w3.org/2000/svg" version="1.1">
 <metadata>
  <rdf:RDF xmlns:dc="http://purl.org/dc/elements/1.1/" xmlns:cc="http://creativecommons.org/ns#" xmlns:rdf="http://www.w3.org/1999/02/22-rdf-syntax-ns#">
   <cc:Work>
    <dc:type rdf:resource="http://purl.org/dc/dcmitype/StillImage"/>
    <dc:date>2024-01-23T18:50:25.684267</dc:date>
    <dc:format>image/svg+xml</dc:format>
    <dc:creator>
     <cc:Agent>
      <dc:title>Matplotlib v3.8.2, https://matplotlib.org/</dc:title>
     </cc:Agent>
    </dc:creator>
   </cc:Work>
  </rdf:RDF>
 </metadata>
 <defs>
  <style type="text/css">*{stroke-linejoin: round; stroke-linecap: butt}</style>
 </defs>
 <g id="figure_1">
  <g id="patch_1">
   <path d="M 0 360 
L 1080 360 
L 1080 0 
L 0 0 
z
" style="fill: #ffffff"/>
  </g>
  <g id="axes_1">
   <g id="patch_2">
    <path d="M 135 320.4 
L 972 320.4 
L 972 43.2 
L 135 43.2 
z
" style="fill: #ffffff"/>
   </g>
   <g id="PolyCollection_1"/>
   <g id="matplotlib.axis_1">
    <g id="xtick_1">
     <g id="line2d_1">
      <defs>
       <path id="m4efd400910" d="M 0 0 
L 0 3.5 
" style="stroke: #000000; stroke-width: 0.8"/>
      </defs>
      <g>
       <use xlink:href="#m4efd400910" x="160.660749" y="320.4" style="stroke: #000000; stroke-width: 0.8"/>
      </g>
     </g>
     <g id="text_1">
      <!-- 1992 -->
      <g transform="translate(147.935749 334.998438) scale(0.1 -0.1)">
       <defs>
        <path id="DejaVuSans-31" d="M 794 531 
L 1825 531 
L 1825 4091 
L 703 3866 
L 703 4441 
L 1819 4666 
L 2450 4666 
L 2450 531 
L 3481 531 
L 3481 0 
L 794 0 
L 794 531 
z
" transform="scale(0.015625)"/>
        <path id="DejaVuSans-39" d="M 703 97 
L 703 672 
Q 941 559 1184 500 
Q 1428 441 1663 441 
Q 2288 441 2617 861 
Q 2947 1281 2994 2138 
Q 2813 1869 2534 1725 
Q 2256 1581 1919 1581 
Q 1219 1581 811 2004 
Q 403 2428 403 3163 
Q 403 3881 828 4315 
Q 1253 4750 1959 4750 
Q 2769 4750 3195 4129 
Q 3622 3509 3622 2328 
Q 3622 1225 3098 567 
Q 2575 -91 1691 -91 
Q 1453 -91 1209 -44 
Q 966 3 703 97 
z
M 1959 2075 
Q 2384 2075 2632 2365 
Q 2881 2656 2881 3163 
Q 2881 3666 2632 3958 
Q 2384 4250 1959 4250 
Q 1534 4250 1286 3958 
Q 1038 3666 1038 3163 
Q 1038 2656 1286 2365 
Q 1534 2075 1959 2075 
z
" transform="scale(0.015625)"/>
        <path id="DejaVuSans-32" d="M 1228 531 
L 3431 531 
L 3431 0 
L 469 0 
L 469 531 
Q 828 903 1448 1529 
Q 2069 2156 2228 2338 
Q 2531 2678 2651 2914 
Q 2772 3150 2772 3378 
Q 2772 3750 2511 3984 
Q 2250 4219 1831 4219 
Q 1534 4219 1204 4116 
Q 875 4013 500 3803 
L 500 4441 
Q 881 4594 1212 4672 
Q 1544 4750 1819 4750 
Q 2544 4750 2975 4387 
Q 3406 4025 3406 3419 
Q 3406 3131 3298 2873 
Q 3191 2616 2906 2266 
Q 2828 2175 2409 1742 
Q 1991 1309 1228 531 
z
" transform="scale(0.015625)"/>
       </defs>
       <use xlink:href="#DejaVuSans-31"/>
       <use xlink:href="#DejaVuSans-39" x="63.623047"/>
       <use xlink:href="#DejaVuSans-39" x="127.246094"/>
       <use xlink:href="#DejaVuSans-32" x="190.869141"/>
      </g>
     </g>
    </g>
    <g id="xtick_2">
     <g id="line2d_2">
      <g>
       <use xlink:href="#m4efd400910" x="272.572252" y="320.4" style="stroke: #000000; stroke-width: 0.8"/>
      </g>
     </g>
     <g id="text_2">
      <!-- 1996 -->
      <g transform="translate(259.847252 334.998438) scale(0.1 -0.1)">
       <defs>
        <path id="DejaVuSans-36" d="M 2113 2584 
Q 1688 2584 1439 2293 
Q 1191 2003 1191 1497 
Q 1191 994 1439 701 
Q 1688 409 2113 409 
Q 2538 409 2786 701 
Q 3034 994 3034 1497 
Q 3034 2003 2786 2293 
Q 2538 2584 2113 2584 
z
M 3366 4563 
L 3366 3988 
Q 3128 4100 2886 4159 
Q 2644 4219 2406 4219 
Q 1781 4219 1451 3797 
Q 1122 3375 1075 2522 
Q 1259 2794 1537 2939 
Q 1816 3084 2150 3084 
Q 2853 3084 3261 2657 
Q 3669 2231 3669 1497 
Q 3669 778 3244 343 
Q 2819 -91 2113 -91 
Q 1303 -91 875 529 
Q 447 1150 447 2328 
Q 447 3434 972 4092 
Q 1497 4750 2381 4750 
Q 2619 4750 2861 4703 
Q 3103 4656 3366 4563 
z
" transform="scale(0.015625)"/>
       </defs>
       <use xlink:href="#DejaVuSans-31"/>
       <use xlink:href="#DejaVuSans-39" x="63.623047"/>
       <use xlink:href="#DejaVuSans-39" x="127.246094"/>
       <use xlink:href="#DejaVuSans-36" x="190.869141"/>
      </g>
     </g>
    </g>
    <g id="xtick_3">
     <g id="line2d_3">
      <g>
       <use xlink:href="#m4efd400910" x="384.483756" y="320.4" style="stroke: #000000; stroke-width: 0.8"/>
      </g>
     </g>
     <g id="text_3">
      <!-- 2000 -->
      <g transform="translate(371.758756 334.998438) scale(0.1 -0.1)">
       <defs>
        <path id="DejaVuSans-30" d="M 2034 4250 
Q 1547 4250 1301 3770 
Q 1056 3291 1056 2328 
Q 1056 1369 1301 889 
Q 1547 409 2034 409 
Q 2525 409 2770 889 
Q 3016 1369 3016 2328 
Q 3016 3291 2770 3770 
Q 2525 4250 2034 4250 
z
M 2034 4750 
Q 2819 4750 3233 4129 
Q 3647 3509 3647 2328 
Q 3647 1150 3233 529 
Q 2819 -91 2034 -91 
Q 1250 -91 836 529 
Q 422 1150 422 2328 
Q 422 3509 836 4129 
Q 1250 4750 2034 4750 
z
" transform="scale(0.015625)"/>
       </defs>
       <use xlink:href="#DejaVuSans-32"/>
       <use xlink:href="#DejaVuSans-30" x="63.623047"/>
       <use xlink:href="#DejaVuSans-30" x="127.246094"/>
       <use xlink:href="#DejaVuSans-30" x="190.869141"/>
      </g>
     </g>
    </g>
    <g id="xtick_4">
     <g id="line2d_4">
      <g>
       <use xlink:href="#m4efd400910" x="496.395259" y="320.4" style="stroke: #000000; stroke-width: 0.8"/>
      </g>
     </g>
     <g id="text_4">
      <!-- 2004 -->
      <g transform="translate(483.670259 334.998438) scale(0.1 -0.1)">
       <defs>
        <path id="DejaVuSans-34" d="M 2419 4116 
L 825 1625 
L 2419 1625 
L 2419 4116 
z
M 2253 4666 
L 3047 4666 
L 3047 1625 
L 3713 1625 
L 3713 1100 
L 3047 1100 
L 3047 0 
L 2419 0 
L 2419 1100 
L 313 1100 
L 313 1709 
L 2253 4666 
z
" transform="scale(0.015625)"/>
       </defs>
       <use xlink:href="#DejaVuSans-32"/>
       <use xlink:href="#DejaVuSans-30" x="63.623047"/>
       <use xlink:href="#DejaVuSans-30" x="127.246094"/>
       <use xlink:href="#DejaVuSans-34" x="190.869141"/>
      </g>
     </g>
    </g>
    <g id="xtick_5">
     <g id="line2d_5">
      <g>
       <use xlink:href="#m4efd400910" x="608.306763" y="320.4" style="stroke: #000000; stroke-width: 0.8"/>
      </g>
     </g>
     <g id="text_5">
      <!-- 2008 -->
      <g transform="translate(595.581763 334.998438) scale(0.1 -0.1)">
       <defs>
        <path id="DejaVuSans-38" d="M 2034 2216 
Q 1584 2216 1326 1975 
Q 1069 1734 1069 1313 
Q 1069 891 1326 650 
Q 1584 409 2034 409 
Q 2484 409 2743 651 
Q 3003 894 3003 1313 
Q 3003 1734 2745 1975 
Q 2488 2216 2034 2216 
z
M 1403 2484 
Q 997 2584 770 2862 
Q 544 3141 544 3541 
Q 544 4100 942 4425 
Q 1341 4750 2034 4750 
Q 2731 4750 3128 4425 
Q 3525 4100 3525 3541 
Q 3525 3141 3298 2862 
Q 3072 2584 2669 2484 
Q 3125 2378 3379 2068 
Q 3634 1759 3634 1313 
Q 3634 634 3220 271 
Q 2806 -91 2034 -91 
Q 1263 -91 848 271 
Q 434 634 434 1313 
Q 434 1759 690 2068 
Q 947 2378 1403 2484 
z
M 1172 3481 
Q 1172 3119 1398 2916 
Q 1625 2713 2034 2713 
Q 2441 2713 2670 2916 
Q 2900 3119 2900 3481 
Q 2900 3844 2670 4047 
Q 2441 4250 2034 4250 
Q 1625 4250 1398 4047 
Q 1172 3844 1172 3481 
z
" transform="scale(0.015625)"/>
       </defs>
       <use xlink:href="#DejaVuSans-32"/>
       <use xlink:href="#DejaVuSans-30" x="63.623047"/>
       <use xlink:href="#DejaVuSans-30" x="127.246094"/>
       <use xlink:href="#DejaVuSans-38" x="190.869141"/>
      </g>
     </g>
    </g>
    <g id="xtick_6">
     <g id="line2d_6">
      <g>
       <use xlink:href="#m4efd400910" x="720.218267" y="320.4" style="stroke: #000000; stroke-width: 0.8"/>
      </g>
     </g>
     <g id="text_6">
      <!-- 2012 -->
      <g transform="translate(707.493267 334.998438) scale(0.1 -0.1)">
       <use xlink:href="#DejaVuSans-32"/>
       <use xlink:href="#DejaVuSans-30" x="63.623047"/>
       <use xlink:href="#DejaVuSans-31" x="127.246094"/>
       <use xlink:href="#DejaVuSans-32" x="190.869141"/>
      </g>
     </g>
    </g>
    <g id="xtick_7">
     <g id="line2d_7">
      <g>
       <use xlink:href="#m4efd400910" x="832.12977" y="320.4" style="stroke: #000000; stroke-width: 0.8"/>
      </g>
     </g>
     <g id="text_7">
      <!-- 2016 -->
      <g transform="translate(819.40477 334.998438) scale(0.1 -0.1)">
       <use xlink:href="#DejaVuSans-32"/>
       <use xlink:href="#DejaVuSans-30" x="63.623047"/>
       <use xlink:href="#DejaVuSans-31" x="127.246094"/>
       <use xlink:href="#DejaVuSans-36" x="190.869141"/>
      </g>
     </g>
    </g>
    <g id="xtick_8">
     <g id="line2d_8">
      <g>
       <use xlink:href="#m4efd400910" x="944.041274" y="320.4" style="stroke: #000000; stroke-width: 0.8"/>
      </g>
     </g>
     <g id="text_8">
      <!-- 2020 -->
      <g transform="translate(931.316274 334.998438) scale(0.1 -0.1)">
       <use xlink:href="#DejaVuSans-32"/>
       <use xlink:href="#DejaVuSans-30" x="63.623047"/>
       <use xlink:href="#DejaVuSans-32" x="127.246094"/>
       <use xlink:href="#DejaVuSans-30" x="190.869141"/>
      </g>
     </g>
    </g>
   </g>
   <g id="matplotlib.axis_2">
    <g id="ytick_1">
     <g id="line2d_9">
      <defs>
       <path id="m4a9e8ac203" d="M 0 0 
L -3.5 0 
" style="stroke: #000000; stroke-width: 0.8"/>
      </defs>
      <g>
       <use xlink:href="#m4a9e8ac203" x="135" y="303.518992" style="stroke: #000000; stroke-width: 0.8"/>
      </g>
     </g>
     <g id="text_9">
      <!-- −2 -->
      <g transform="translate(113.257812 307.318211) scale(0.1 -0.1)">
       <defs>
        <path id="DejaVuSans-2212" d="M 678 2272 
L 4684 2272 
L 4684 1741 
L 678 1741 
L 678 2272 
z
" transform="scale(0.015625)"/>
       </defs>
       <use xlink:href="#DejaVuSans-2212"/>
       <use xlink:href="#DejaVuSans-32" x="83.789062"/>
      </g>
     </g>
    </g>
    <g id="ytick_2">
     <g id="line2d_10">
      <g>
       <use xlink:href="#m4a9e8ac203" x="135" y="242.659496" style="stroke: #000000; stroke-width: 0.8"/>
      </g>
     </g>
     <g id="text_10">
      <!-- −1 -->
      <g transform="translate(113.257812 246.458715) scale(0.1 -0.1)">
       <use xlink:href="#DejaVuSans-2212"/>
       <use xlink:href="#DejaVuSans-31" x="83.789062"/>
      </g>
     </g>
    </g>
    <g id="ytick_3">
     <g id="line2d_11">
      <g>
       <use xlink:href="#m4a9e8ac203" x="135" y="181.8" style="stroke: #000000; stroke-width: 0.8"/>
      </g>
     </g>
     <g id="text_11">
      <!-- 0 -->
      <g transform="translate(121.6375 185.599219) scale(0.1 -0.1)">
       <use xlink:href="#DejaVuSans-30"/>
      </g>
     </g>
    </g>
    <g id="ytick_4">
     <g id="line2d_12">
      <g>
       <use xlink:href="#m4a9e8ac203" x="135" y="120.940504" style="stroke: #000000; stroke-width: 0.8"/>
      </g>
     </g>
     <g id="text_12">
      <!-- 1 -->
      <g transform="translate(121.6375 124.739723) scale(0.1 -0.1)">
       <use xlink:href="#DejaVuSans-31"/>
      </g>
     </g>
    </g>
    <g id="ytick_5">
     <g id="line2d_13">
      <g>
       <use xlink:href="#m4a9e8ac203" x="135" y="60.081008" style="stroke: #000000; stroke-width: 0.8"/>
      </g>
     </g>
     <g id="text_13">
      <!-- 2 -->
      <g transform="translate(121.6375 63.880227) scale(0.1 -0.1)">
       <use xlink:href="#DejaVuSans-32"/>
      </g>
     </g>
    </g>
    <g id="text_14">
     <!-- SGI -->
     <g transform="translate(107.178125 190.323437) rotate(-90) scale(0.1 -0.1)">
      <defs>
       <path id="DejaVuSans-53" d="M 3425 4513 
L 3425 3897 
Q 3066 4069 2747 4153 
Q 2428 4238 2131 4238 
Q 1616 4238 1336 4038 
Q 1056 3838 1056 3469 
Q 1056 3159 1242 3001 
Q 1428 2844 1947 2747 
L 2328 2669 
Q 3034 2534 3370 2195 
Q 3706 1856 3706 1288 
Q 3706 609 3251 259 
Q 2797 -91 1919 -91 
Q 1588 -91 1214 -16 
Q 841 59 441 206 
L 441 856 
Q 825 641 1194 531 
Q 1563 422 1919 422 
Q 2459 422 2753 634 
Q 3047 847 3047 1241 
Q 3047 1584 2836 1778 
Q 2625 1972 2144 2069 
L 1759 2144 
Q 1053 2284 737 2584 
Q 422 2884 422 3419 
Q 422 4038 858 4394 
Q 1294 4750 2059 4750 
Q 2388 4750 2728 4690 
Q 3069 4631 3425 4513 
z
" transform="scale(0.015625)"/>
       <path id="DejaVuSans-47" d="M 3809 666 
L 3809 1919 
L 2778 1919 
L 2778 2438 
L 4434 2438 
L 4434 434 
Q 4069 175 3628 42 
Q 3188 -91 2688 -91 
Q 1594 -91 976 548 
Q 359 1188 359 2328 
Q 359 3472 976 4111 
Q 1594 4750 2688 4750 
Q 3144 4750 3555 4637 
Q 3966 4525 4313 4306 
L 4313 3634 
Q 3963 3931 3569 4081 
Q 3175 4231 2741 4231 
Q 1884 4231 1454 3753 
Q 1025 3275 1025 2328 
Q 1025 1384 1454 906 
Q 1884 428 2741 428 
Q 3075 428 3337 486 
Q 3600 544 3809 666 
z
" transform="scale(0.015625)"/>
       <path id="DejaVuSans-49" d="M 628 4666 
L 1259 4666 
L 1259 0 
L 628 0 
L 628 4666 
z
" transform="scale(0.015625)"/>
      </defs>
      <use xlink:href="#DejaVuSans-53"/>
      <use xlink:href="#DejaVuSans-47" x="63.476562"/>
      <use xlink:href="#DejaVuSans-49" x="140.966797"/>
     </g>
    </g>
   </g>
   <g id="line2d_14">
    <path d="M 148.864464 84.816908 
L 207.233092 116.117637 
L 216.578201 60.099465 
L 230.442665 102.4408 
L 251.430859 127.330278 
L 258.401391 124.470588 
L 265.448522 88.946202 
L 272.495653 112.86171 
L 279.466185 61.33491 
L 286.436716 85.959915 
L 293.483847 71.305998 
L 300.530978 92.255266 
L 314.395442 55.8 
L 321.442573 107.29887 
L 330.864281 107.853128 
L 333.00906 131.182272 
L 335.383637 120.279972 
L 337.681614 217.894642 
L 342.354169 114.557093 
L 344.728745 129.582092 
L 347.103322 167.700646 
L 349.4013 121.54813 
L 351.775876 154.760849 
L 354.073854 136.860389 
L 356.44843 120.613701 
L 358.823007 165.65466 
L 360.967786 143.145922 
L 363.342363 100.561763 
L 365.64034 97.617161 
L 368.014917 121.792424 
L 370.312895 133.057881 
L 372.687471 146.383575 
L 375.062048 152.979466 
L 379.734602 133.563415 
L 382.03258 131.683051 
L 384.407157 128.092991 
L 386.781733 147.022978 
L 389.003112 160.070061 
L 391.377688 99.117849 
L 393.675666 140.769189 
L 396.050243 150.165037 
L 398.34822 144.383731 
L 400.722797 165.561209 
L 403.097373 189.146772 
L 405.395351 137.930848 
L 407.769928 194.511622 
L 410.067905 181.017893 
L 412.442482 140.771382 
L 414.817059 193.534475 
L 416.961838 191.801881 
L 419.336414 142.1578 
L 421.634392 198.737852 
L 424.008969 195.804665 
L 426.306946 160.885081 
L 428.681523 176.177972 
L 433.354077 145.313459 
L 440.401208 160.66497 
L 447.29514 208.343592 
L 454.265672 215.729452 
L 461.312803 152.671072 
L 468.359934 191.461473 
L 475.253867 148.247205 
L 479.926421 164.462824 
L 482.224398 167.011357 
L 489.271529 155.125248 
L 496.31866 164.15124 
L 503.289192 203.89596 
L 510.259724 178.873003 
L 517.306855 162.534731 
L 524.353986 154.514677 
L 531.247918 189.018731 
L 538.21845 209.064747 
L 545.265581 195.593063 
L 552.312712 225.683234 
L 559.206644 227.627881 
L 566.177176 249.042907 
L 573.224307 199.26299 
L 580.271438 224.31494 
L 587.16537 250.081595 
L 594.135902 277.640085 
L 601.183033 252.46167 
L 608.230164 301.945172 
L 615.200696 303.430546 
L 622.171227 307.8 
L 629.218358 226.762814 
L 636.265489 253.85463 
L 643.159422 231.221972 
L 650.129953 222.830811 
L 657.177084 180.666252 
L 664.224215 211.615312 
L 671.118148 247.833058 
L 678.088679 261.1592 
L 685.13581 235.691696 
L 692.182941 263.692407 
L 699.076874 247.833058 
L 706.047406 230.542119 
L 713.094536 268.117112 
L 720.141667 212.77244 
L 727.112199 159.392936 
L 734.082731 196.588643 
L 741.129862 243.486096 
L 748.176993 202.886789 
L 755.070925 190.968068 
L 762.041457 187.662473 
L 764.416034 209.069188 
L 769.088588 216.192573 
L 776.135719 244.426729 
L 778.510296 269.893593 
L 780.655075 254.319016 
L 783.029651 229.392374 
L 785.327629 265.982839 
L 787.702206 262.512731 
L 790.000183 239.129412 
L 792.37476 211.733152 
L 794.749337 231.850546 
L 797.047314 200.50571 
L 799.421891 251.790305 
L 801.719868 228.970006 
L 806.469022 229.703192 
L 808.613801 218.280996 
L 810.988377 171.897407 
L 815.660932 205.230313 
L 817.958909 172.986829 
L 820.333486 252.484579 
L 822.708063 231.07384 
L 825.00604 199.26299 
L 829.678594 230.678235 
L 832.053171 179.200386 
L 839.023703 179.213969 
L 848.368811 250.942632 
L 853.041365 212.134276 
L 866.982429 160.613919 
L 873.952961 187.662473 
L 881.000092 175.303151 
L 888.047222 173.730272 
L 897.239132 169.016724 
L 901.911687 154.535253 
L 908.958818 180.121686 
L 916.005949 174.878065 
L 922.899881 171.897407 
L 929.870413 144.383731 
L 936.917544 128.524896 
L 946.339251 169.802275 
L 957.905738 202.714919 
L 964.952869 260.135807 
L 964.952869 260.135807 
" clip-path="url(#p75c81a6c33)" style="fill: none; stroke: #7f7f7f; stroke-width: 1.5; stroke-linecap: square"/>
   </g>
   <g id="line2d_15">
    <path d="M 135 181.8 
L 972 181.8 
" clip-path="url(#p75c81a6c33)" style="fill: none; stroke: #000000; stroke-width: 1.5; stroke-linecap: square"/>
   </g>
   <g id="patch_3">
    <path d="M 135 320.4 
L 135 43.2 
" style="fill: none; stroke: #000000; stroke-width: 0.8; stroke-linejoin: miter; stroke-linecap: square"/>
   </g>
   <g id="patch_4">
    <path d="M 135 320.4 
L 972 320.4 
" style="fill: none; stroke: #000000; stroke-width: 0.8; stroke-linejoin: miter; stroke-linecap: square"/>
   </g>
   <g id="text_15">
    <!-- SGI for GWIC ID 5418 -->
    <g transform="translate(135 37.2) scale(0.12 -0.12)">
     <defs>
      <path id="DejaVuSans-Bold-53" d="M 3834 4519 
L 3834 3531 
Q 3450 3703 3084 3790 
Q 2719 3878 2394 3878 
Q 1963 3878 1756 3759 
Q 1550 3641 1550 3391 
Q 1550 3203 1689 3098 
Q 1828 2994 2194 2919 
L 2706 2816 
Q 3484 2659 3812 2340 
Q 4141 2022 4141 1434 
Q 4141 663 3683 286 
Q 3225 -91 2284 -91 
Q 1841 -91 1394 -6 
Q 947 78 500 244 
L 500 1259 
Q 947 1022 1364 901 
Q 1781 781 2169 781 
Q 2563 781 2772 912 
Q 2981 1044 2981 1288 
Q 2981 1506 2839 1625 
Q 2697 1744 2272 1838 
L 1806 1941 
Q 1106 2091 782 2419 
Q 459 2747 459 3303 
Q 459 4000 909 4375 
Q 1359 4750 2203 4750 
Q 2588 4750 2994 4692 
Q 3400 4634 3834 4519 
z
" transform="scale(0.015625)"/>
      <path id="DejaVuSans-Bold-47" d="M 4781 347 
Q 4331 128 3847 18 
Q 3363 -91 2847 -91 
Q 1681 -91 1000 561 
Q 319 1213 319 2328 
Q 319 3456 1012 4103 
Q 1706 4750 2913 4750 
Q 3378 4750 3804 4662 
Q 4231 4575 4609 4403 
L 4609 3438 
Q 4219 3659 3833 3768 
Q 3447 3878 3059 3878 
Q 2341 3878 1952 3476 
Q 1563 3075 1563 2328 
Q 1563 1588 1938 1184 
Q 2313 781 3003 781 
Q 3191 781 3352 804 
Q 3513 828 3641 878 
L 3641 1784 
L 2906 1784 
L 2906 2591 
L 4781 2591 
L 4781 347 
z
" transform="scale(0.015625)"/>
      <path id="DejaVuSans-Bold-49" d="M 588 4666 
L 1791 4666 
L 1791 0 
L 588 0 
L 588 4666 
z
" transform="scale(0.015625)"/>
      <path id="DejaVuSans-Bold-20" transform="scale(0.015625)"/>
      <path id="DejaVuSans-Bold-66" d="M 2841 4863 
L 2841 4128 
L 2222 4128 
Q 1984 4128 1890 4042 
Q 1797 3956 1797 3744 
L 1797 3500 
L 2753 3500 
L 2753 2700 
L 1797 2700 
L 1797 0 
L 678 0 
L 678 2700 
L 122 2700 
L 122 3500 
L 678 3500 
L 678 3744 
Q 678 4316 997 4589 
Q 1316 4863 1984 4863 
L 2841 4863 
z
" transform="scale(0.015625)"/>
      <path id="DejaVuSans-Bold-6f" d="M 2203 2784 
Q 1831 2784 1636 2517 
Q 1441 2250 1441 1747 
Q 1441 1244 1636 976 
Q 1831 709 2203 709 
Q 2569 709 2762 976 
Q 2956 1244 2956 1747 
Q 2956 2250 2762 2517 
Q 2569 2784 2203 2784 
z
M 2203 3584 
Q 3106 3584 3614 3096 
Q 4122 2609 4122 1747 
Q 4122 884 3614 396 
Q 3106 -91 2203 -91 
Q 1297 -91 786 396 
Q 275 884 275 1747 
Q 275 2609 786 3096 
Q 1297 3584 2203 3584 
z
" transform="scale(0.015625)"/>
      <path id="DejaVuSans-Bold-72" d="M 3138 2547 
Q 2991 2616 2845 2648 
Q 2700 2681 2553 2681 
Q 2122 2681 1889 2404 
Q 1656 2128 1656 1613 
L 1656 0 
L 538 0 
L 538 3500 
L 1656 3500 
L 1656 2925 
Q 1872 3269 2151 3426 
Q 2431 3584 2822 3584 
Q 2878 3584 2943 3579 
Q 3009 3575 3134 3559 
L 3138 2547 
z
" transform="scale(0.015625)"/>
      <path id="DejaVuSans-Bold-57" d="M 191 4666 
L 1344 4666 
L 2150 1275 
L 2950 4666 
L 4109 4666 
L 4909 1275 
L 5716 4666 
L 6859 4666 
L 5759 0 
L 4372 0 
L 3525 3547 
L 2688 0 
L 1300 0 
L 191 4666 
z
" transform="scale(0.015625)"/>
      <path id="DejaVuSans-Bold-43" d="M 4288 256 
Q 3956 84 3597 -3 
Q 3238 -91 2847 -91 
Q 1681 -91 1000 561 
Q 319 1213 319 2328 
Q 319 3447 1000 4098 
Q 1681 4750 2847 4750 
Q 3238 4750 3597 4662 
Q 3956 4575 4288 4403 
L 4288 3438 
Q 3953 3666 3628 3772 
Q 3303 3878 2944 3878 
Q 2300 3878 1931 3465 
Q 1563 3053 1563 2328 
Q 1563 1606 1931 1193 
Q 2300 781 2944 781 
Q 3303 781 3628 887 
Q 3953 994 4288 1222 
L 4288 256 
z
" transform="scale(0.015625)"/>
      <path id="DejaVuSans-Bold-44" d="M 1791 3756 
L 1791 909 
L 2222 909 
Q 2959 909 3348 1275 
Q 3738 1641 3738 2338 
Q 3738 3031 3350 3393 
Q 2963 3756 2222 3756 
L 1791 3756 
z
M 588 4666 
L 1856 4666 
Q 2919 4666 3439 4514 
Q 3959 4363 4331 4000 
Q 4659 3684 4818 3271 
Q 4978 2859 4978 2338 
Q 4978 1809 4818 1395 
Q 4659 981 4331 666 
Q 3956 303 3431 151 
Q 2906 0 1856 0 
L 588 0 
L 588 4666 
z
" transform="scale(0.015625)"/>
      <path id="DejaVuSans-Bold-35" d="M 678 4666 
L 3669 4666 
L 3669 3781 
L 1638 3781 
L 1638 3059 
Q 1775 3097 1914 3117 
Q 2053 3138 2203 3138 
Q 3056 3138 3531 2711 
Q 4006 2284 4006 1522 
Q 4006 766 3489 337 
Q 2972 -91 2053 -91 
Q 1656 -91 1267 -14 
Q 878 63 494 219 
L 494 1166 
Q 875 947 1217 837 
Q 1559 728 1863 728 
Q 2300 728 2551 942 
Q 2803 1156 2803 1522 
Q 2803 1891 2551 2103 
Q 2300 2316 1863 2316 
Q 1603 2316 1309 2248 
Q 1016 2181 678 2041 
L 678 4666 
z
" transform="scale(0.015625)"/>
      <path id="DejaVuSans-Bold-34" d="M 2356 3675 
L 1038 1722 
L 2356 1722 
L 2356 3675 
z
M 2156 4666 
L 3494 4666 
L 3494 1722 
L 4159 1722 
L 4159 850 
L 3494 850 
L 3494 0 
L 2356 0 
L 2356 850 
L 288 850 
L 288 1881 
L 2156 4666 
z
" transform="scale(0.015625)"/>
      <path id="DejaVuSans-Bold-31" d="M 750 831 
L 1813 831 
L 1813 3847 
L 722 3622 
L 722 4441 
L 1806 4666 
L 2950 4666 
L 2950 831 
L 4013 831 
L 4013 0 
L 750 0 
L 750 831 
z
" transform="scale(0.015625)"/>
      <path id="DejaVuSans-Bold-38" d="M 2228 2088 
Q 1891 2088 1709 1903 
Q 1528 1719 1528 1375 
Q 1528 1031 1709 848 
Q 1891 666 2228 666 
Q 2563 666 2741 848 
Q 2919 1031 2919 1375 
Q 2919 1722 2741 1905 
Q 2563 2088 2228 2088 
z
M 1350 2484 
Q 925 2613 709 2878 
Q 494 3144 494 3541 
Q 494 4131 934 4440 
Q 1375 4750 2228 4750 
Q 3075 4750 3515 4442 
Q 3956 4134 3956 3541 
Q 3956 3144 3739 2878 
Q 3522 2613 3097 2484 
Q 3572 2353 3814 2058 
Q 4056 1763 4056 1313 
Q 4056 619 3595 264 
Q 3134 -91 2228 -91 
Q 1319 -91 855 264 
Q 391 619 391 1313 
Q 391 1763 633 2058 
Q 875 2353 1350 2484 
z
M 1631 3419 
Q 1631 3141 1786 2991 
Q 1941 2841 2228 2841 
Q 2509 2841 2662 2991 
Q 2816 3141 2816 3419 
Q 2816 3697 2662 3845 
Q 2509 3994 2228 3994 
Q 1941 3994 1786 3844 
Q 1631 3694 1631 3419 
z
" transform="scale(0.015625)"/>
     </defs>
     <use xlink:href="#DejaVuSans-Bold-53"/>
     <use xlink:href="#DejaVuSans-Bold-47" x="72.021484"/>
     <use xlink:href="#DejaVuSans-Bold-49" x="154.101562"/>
     <use xlink:href="#DejaVuSans-Bold-20" x="191.308594"/>
     <use xlink:href="#DejaVuSans-Bold-66" x="226.123047"/>
     <use xlink:href="#DejaVuSans-Bold-6f" x="269.628906"/>
     <use xlink:href="#DejaVuSans-Bold-72" x="338.330078"/>
     <use xlink:href="#DejaVuSans-Bold-20" x="387.646484"/>
     <use xlink:href="#DejaVuSans-Bold-47" x="422.460938"/>
     <use xlink:href="#DejaVuSans-Bold-57" x="504.541016"/>
     <use xlink:href="#DejaVuSans-Bold-49" x="614.84375"/>
     <use xlink:href="#DejaVuSans-Bold-43" x="652.050781"/>
     <use xlink:href="#DejaVuSans-Bold-20" x="725.439453"/>
     <use xlink:href="#DejaVuSans-Bold-49" x="760.253906"/>
     <use xlink:href="#DejaVuSans-Bold-44" x="797.460938"/>
     <use xlink:href="#DejaVuSans-Bold-20" x="880.46875"/>
     <use xlink:href="#DejaVuSans-Bold-35" x="915.283203"/>
     <use xlink:href="#DejaVuSans-Bold-34" x="984.863281"/>
     <use xlink:href="#DejaVuSans-Bold-31" x="1054.443359"/>
     <use xlink:href="#DejaVuSans-Bold-38" x="1124.023438"/>
    </g>
   </g>
   <g id="PathCollection_1">
    <defs>
     <path id="m93e4235615" d="M 0 3 
C 0.795609 3 1.55874 2.683901 2.12132 2.12132 
C 2.683901 1.55874 3 0.795609 3 0 
C 3 -0.795609 2.683901 -1.55874 2.12132 -2.12132 
C 1.55874 -2.683901 0.795609 -3 0 -3 
C -0.795609 -3 -1.55874 -2.683901 -2.12132 -2.12132 
C -2.683901 -1.55874 -3 -0.795609 -3 0 
C -3 0.795609 -2.683901 1.55874 -2.12132 2.12132 
C -1.55874 2.683901 -0.795609 3 0 3 
z
" style="stroke: #ffffff; stroke-width: 0.48"/>
    </defs>
    <g clip-path="url(#p75c81a6c33)">
     <use xlink:href="#m93e4235615" x="148.864464" y="84.816908" style="stroke: #ffffff; stroke-width: 0.48"/>
     <use xlink:href="#m93e4235615" x="207.233092" y="116.117637" style="stroke: #ffffff; stroke-width: 0.48"/>
     <use xlink:href="#m93e4235615" x="216.578201" y="60.099465" style="stroke: #ffffff; stroke-width: 0.48"/>
     <use xlink:href="#m93e4235615" x="230.442665" y="102.4408" style="stroke: #ffffff; stroke-width: 0.48"/>
     <use xlink:href="#m93e4235615" x="251.430859" y="127.330278" style="stroke: #ffffff; stroke-width: 0.48"/>
     <use xlink:href="#m93e4235615" x="258.401391" y="124.470588" style="stroke: #ffffff; stroke-width: 0.48"/>
     <use xlink:href="#m93e4235615" x="265.448522" y="88.946202" style="stroke: #ffffff; stroke-width: 0.48"/>
     <use xlink:href="#m93e4235615" x="272.495653" y="112.86171" style="stroke: #ffffff; stroke-width: 0.48"/>
     <use xlink:href="#m93e4235615" x="279.466185" y="61.33491" style="stroke: #ffffff; stroke-width: 0.48"/>
     <use xlink:href="#m93e4235615" x="286.436716" y="85.959915" style="stroke: #ffffff; stroke-width: 0.48"/>
     <use xlink:href="#m93e4235615" x="293.483847" y="71.305998" style="stroke: #ffffff; stroke-width: 0.48"/>
     <use xlink:href="#m93e4235615" x="300.530978" y="92.255266" style="stroke: #ffffff; stroke-width: 0.48"/>
     <use xlink:href="#m93e4235615" x="314.395442" y="55.8" style="stroke: #ffffff; stroke-width: 0.48"/>
     <use xlink:href="#m93e4235615" x="321.442573" y="107.29887" style="stroke: #ffffff; stroke-width: 0.48"/>
     <use xlink:href="#m93e4235615" x="330.864281" y="107.853128" style="stroke: #ffffff; stroke-width: 0.48"/>
     <use xlink:href="#m93e4235615" x="333.00906" y="131.182272" style="stroke: #ffffff; stroke-width: 0.48"/>
     <use xlink:href="#m93e4235615" x="335.383637" y="120.279972" style="stroke: #ffffff; stroke-width: 0.48"/>
     <use xlink:href="#m93e4235615" x="337.681614" y="217.894642" style="stroke: #ffffff; stroke-width: 0.48"/>
     <use xlink:href="#m93e4235615" x="342.354169" y="114.557093" style="stroke: #ffffff; stroke-width: 0.48"/>
     <use xlink:href="#m93e4235615" x="344.728745" y="129.582092" style="stroke: #ffffff; stroke-width: 0.48"/>
     <use xlink:href="#m93e4235615" x="347.103322" y="167.700646" style="stroke: #ffffff; stroke-width: 0.48"/>
     <use xlink:href="#m93e4235615" x="349.4013" y="121.54813" style="stroke: #ffffff; stroke-width: 0.48"/>
     <use xlink:href="#m93e4235615" x="351.775876" y="154.760849" style="stroke: #ffffff; stroke-width: 0.48"/>
     <use xlink:href="#m93e4235615" x="354.073854" y="136.860389" style="stroke: #ffffff; stroke-width: 0.48"/>
     <use xlink:href="#m93e4235615" x="356.44843" y="120.613701" style="stroke: #ffffff; stroke-width: 0.48"/>
     <use xlink:href="#m93e4235615" x="358.823007" y="165.65466" style="stroke: #ffffff; stroke-width: 0.48"/>
     <use xlink:href="#m93e4235615" x="360.967786" y="143.145922" style="stroke: #ffffff; stroke-width: 0.48"/>
     <use xlink:href="#m93e4235615" x="363.342363" y="100.561763" style="stroke: #ffffff; stroke-width: 0.48"/>
     <use xlink:href="#m93e4235615" x="365.64034" y="97.617161" style="stroke: #ffffff; stroke-width: 0.48"/>
     <use xlink:href="#m93e4235615" x="368.014917" y="121.792424" style="stroke: #ffffff; stroke-width: 0.48"/>
     <use xlink:href="#m93e4235615" x="370.312895" y="133.057881" style="stroke: #ffffff; stroke-width: 0.48"/>
     <use xlink:href="#m93e4235615" x="372.687471" y="146.383575" style="stroke: #ffffff; stroke-width: 0.48"/>
     <use xlink:href="#m93e4235615" x="375.062048" y="152.979466" style="stroke: #ffffff; stroke-width: 0.48"/>
     <use xlink:href="#m93e4235615" x="379.734602" y="133.563415" style="stroke: #ffffff; stroke-width: 0.48"/>
     <use xlink:href="#m93e4235615" x="382.03258" y="131.683051" style="stroke: #ffffff; stroke-width: 0.48"/>
     <use xlink:href="#m93e4235615" x="384.407157" y="128.092991" style="stroke: #ffffff; stroke-width: 0.48"/>
     <use xlink:href="#m93e4235615" x="386.781733" y="147.022978" style="stroke: #ffffff; stroke-width: 0.48"/>
     <use xlink:href="#m93e4235615" x="389.003112" y="160.070061" style="stroke: #ffffff; stroke-width: 0.48"/>
     <use xlink:href="#m93e4235615" x="391.377688" y="99.117849" style="stroke: #ffffff; stroke-width: 0.48"/>
     <use xlink:href="#m93e4235615" x="393.675666" y="140.769189" style="stroke: #ffffff; stroke-width: 0.48"/>
     <use xlink:href="#m93e4235615" x="396.050243" y="150.165037" style="stroke: #ffffff; stroke-width: 0.48"/>
     <use xlink:href="#m93e4235615" x="398.34822" y="144.383731" style="stroke: #ffffff; stroke-width: 0.48"/>
     <use xlink:href="#m93e4235615" x="400.722797" y="165.561209" style="stroke: #ffffff; stroke-width: 0.48"/>
     <use xlink:href="#m93e4235615" x="403.097373" y="189.146772" style="stroke: #ffffff; stroke-width: 0.48"/>
     <use xlink:href="#m93e4235615" x="405.395351" y="137.930848" style="stroke: #ffffff; stroke-width: 0.48"/>
     <use xlink:href="#m93e4235615" x="407.769928" y="194.511622" style="stroke: #ffffff; stroke-width: 0.48"/>
     <use xlink:href="#m93e4235615" x="410.067905" y="181.017893" style="stroke: #ffffff; stroke-width: 0.48"/>
     <use xlink:href="#m93e4235615" x="412.442482" y="140.771382" style="stroke: #ffffff; stroke-width: 0.48"/>
     <use xlink:href="#m93e4235615" x="414.817059" y="193.534475" style="stroke: #ffffff; stroke-width: 0.48"/>
     <use xlink:href="#m93e4235615" x="416.961838" y="191.801881" style="stroke: #ffffff; stroke-width: 0.48"/>
     <use xlink:href="#m93e4235615" x="419.336414" y="142.1578" style="stroke: #ffffff; stroke-width: 0.48"/>
     <use xlink:href="#m93e4235615" x="421.634392" y="198.737852" style="stroke: #ffffff; stroke-width: 0.48"/>
     <use xlink:href="#m93e4235615" x="424.008969" y="195.804665" style="stroke: #ffffff; stroke-width: 0.48"/>
     <use xlink:href="#m93e4235615" x="426.306946" y="160.885081" style="stroke: #ffffff; stroke-width: 0.48"/>
     <use xlink:href="#m93e4235615" x="428.681523" y="176.177972" style="stroke: #ffffff; stroke-width: 0.48"/>
     <use xlink:href="#m93e4235615" x="433.354077" y="145.313459" style="stroke: #ffffff; stroke-width: 0.48"/>
     <use xlink:href="#m93e4235615" x="440.401208" y="160.66497" style="stroke: #ffffff; stroke-width: 0.48"/>
     <use xlink:href="#m93e4235615" x="447.29514" y="208.343592" style="stroke: #ffffff; stroke-width: 0.48"/>
     <use xlink:href="#m93e4235615" x="454.265672" y="215.729452" style="stroke: #ffffff; stroke-width: 0.48"/>
     <use xlink:href="#m93e4235615" x="461.312803" y="152.671072" style="stroke: #ffffff; stroke-width: 0.48"/>
     <use xlink:href="#m93e4235615" x="468.359934" y="191.461473" style="stroke: #ffffff; stroke-width: 0.48"/>
     <use xlink:href="#m93e4235615" x="475.253867" y="148.247205" style="stroke: #ffffff; stroke-width: 0.48"/>
     <use xlink:href="#m93e4235615" x="479.926421" y="164.462824" style="stroke: #ffffff; stroke-width: 0.48"/>
     <use xlink:href="#m93e4235615" x="482.224398" y="167.011357" style="stroke: #ffffff; stroke-width: 0.48"/>
     <use xlink:href="#m93e4235615" x="489.271529" y="155.125248" style="stroke: #ffffff; stroke-width: 0.48"/>
     <use xlink:href="#m93e4235615" x="496.31866" y="164.15124" style="stroke: #ffffff; stroke-width: 0.48"/>
     <use xlink:href="#m93e4235615" x="503.289192" y="203.89596" style="stroke: #ffffff; stroke-width: 0.48"/>
     <use xlink:href="#m93e4235615" x="510.259724" y="178.873003" style="stroke: #ffffff; stroke-width: 0.48"/>
     <use xlink:href="#m93e4235615" x="517.306855" y="162.534731" style="stroke: #ffffff; stroke-width: 0.48"/>
     <use xlink:href="#m93e4235615" x="524.353986" y="154.514677" style="stroke: #ffffff; stroke-width: 0.48"/>
     <use xlink:href="#m93e4235615" x="531.247918" y="189.018731" style="stroke: #ffffff; stroke-width: 0.48"/>
     <use xlink:href="#m93e4235615" x="538.21845" y="209.064747" style="stroke: #ffffff; stroke-width: 0.48"/>
     <use xlink:href="#m93e4235615" x="545.265581" y="195.593063" style="stroke: #ffffff; stroke-width: 0.48"/>
     <use xlink:href="#m93e4235615" x="552.312712" y="225.683234" style="stroke: #ffffff; stroke-width: 0.48"/>
     <use xlink:href="#m93e4235615" x="559.206644" y="227.627881" style="stroke: #ffffff; stroke-width: 0.48"/>
     <use xlink:href="#m93e4235615" x="566.177176" y="249.042907" style="stroke: #ffffff; stroke-width: 0.48"/>
     <use xlink:href="#m93e4235615" x="573.224307" y="199.26299" style="stroke: #ffffff; stroke-width: 0.48"/>
     <use xlink:href="#m93e4235615" x="580.271438" y="224.31494" style="stroke: #ffffff; stroke-width: 0.48"/>
     <use xlink:href="#m93e4235615" x="587.16537" y="250.081595" style="stroke: #ffffff; stroke-width: 0.48"/>
     <use xlink:href="#m93e4235615" x="594.135902" y="277.640085" style="stroke: #ffffff; stroke-width: 0.48"/>
     <use xlink:href="#m93e4235615" x="601.183033" y="252.46167" style="stroke: #ffffff; stroke-width: 0.48"/>
     <use xlink:href="#m93e4235615" x="608.230164" y="301.945172" style="stroke: #ffffff; stroke-width: 0.48"/>
     <use xlink:href="#m93e4235615" x="615.200696" y="303.430546" style="stroke: #ffffff; stroke-width: 0.48"/>
     <use xlink:href="#m93e4235615" x="622.171227" y="307.8" style="stroke: #ffffff; stroke-width: 0.48"/>
     <use xlink:href="#m93e4235615" x="629.218358" y="226.762814" style="stroke: #ffffff; stroke-width: 0.48"/>
     <use xlink:href="#m93e4235615" x="636.265489" y="253.85463" style="stroke: #ffffff; stroke-width: 0.48"/>
     <use xlink:href="#m93e4235615" x="643.159422" y="231.221972" style="stroke: #ffffff; stroke-width: 0.48"/>
     <use xlink:href="#m93e4235615" x="650.129953" y="222.830811" style="stroke: #ffffff; stroke-width: 0.48"/>
     <use xlink:href="#m93e4235615" x="657.177084" y="180.666252" style="stroke: #ffffff; stroke-width: 0.48"/>
     <use xlink:href="#m93e4235615" x="664.224215" y="211.615312" style="stroke: #ffffff; stroke-width: 0.48"/>
     <use xlink:href="#m93e4235615" x="671.118148" y="247.833058" style="stroke: #ffffff; stroke-width: 0.48"/>
     <use xlink:href="#m93e4235615" x="678.088679" y="261.1592" style="stroke: #ffffff; stroke-width: 0.48"/>
     <use xlink:href="#m93e4235615" x="685.13581" y="235.691696" style="stroke: #ffffff; stroke-width: 0.48"/>
     <use xlink:href="#m93e4235615" x="692.182941" y="263.692407" style="stroke: #ffffff; stroke-width: 0.48"/>
     <use xlink:href="#m93e4235615" x="699.076874" y="247.833058" style="stroke: #ffffff; stroke-width: 0.48"/>
     <use xlink:href="#m93e4235615" x="706.047406" y="230.542119" style="stroke: #ffffff; stroke-width: 0.48"/>
     <use xlink:href="#m93e4235615" x="713.094536" y="268.117112" style="stroke: #ffffff; stroke-width: 0.48"/>
     <use xlink:href="#m93e4235615" x="720.141667" y="212.77244" style="stroke: #ffffff; stroke-width: 0.48"/>
     <use xlink:href="#m93e4235615" x="727.112199" y="159.392936" style="stroke: #ffffff; stroke-width: 0.48"/>
     <use xlink:href="#m93e4235615" x="734.082731" y="196.588643" style="stroke: #ffffff; stroke-width: 0.48"/>
     <use xlink:href="#m93e4235615" x="741.129862" y="243.486096" style="stroke: #ffffff; stroke-width: 0.48"/>
     <use xlink:href="#m93e4235615" x="748.176993" y="202.886789" style="stroke: #ffffff; stroke-width: 0.48"/>
     <use xlink:href="#m93e4235615" x="755.070925" y="190.968068" style="stroke: #ffffff; stroke-width: 0.48"/>
     <use xlink:href="#m93e4235615" x="762.041457" y="187.662473" style="stroke: #ffffff; stroke-width: 0.48"/>
     <use xlink:href="#m93e4235615" x="764.416034" y="209.069188" style="stroke: #ffffff; stroke-width: 0.48"/>
     <use xlink:href="#m93e4235615" x="769.088588" y="216.192573" style="stroke: #ffffff; stroke-width: 0.48"/>
     <use xlink:href="#m93e4235615" x="776.135719" y="244.426729" style="stroke: #ffffff; stroke-width: 0.48"/>
     <use xlink:href="#m93e4235615" x="778.510296" y="269.893593" style="stroke: #ffffff; stroke-width: 0.48"/>
     <use xlink:href="#m93e4235615" x="780.655075" y="254.319016" style="stroke: #ffffff; stroke-width: 0.48"/>
     <use xlink:href="#m93e4235615" x="783.029651" y="229.392374" style="stroke: #ffffff; stroke-width: 0.48"/>
     <use xlink:href="#m93e4235615" x="785.327629" y="265.982839" style="stroke: #ffffff; stroke-width: 0.48"/>
     <use xlink:href="#m93e4235615" x="787.702206" y="262.512731" style="stroke: #ffffff; stroke-width: 0.48"/>
     <use xlink:href="#m93e4235615" x="790.000183" y="239.129412" style="stroke: #ffffff; stroke-width: 0.48"/>
     <use xlink:href="#m93e4235615" x="792.37476" y="211.733152" style="stroke: #ffffff; stroke-width: 0.48"/>
     <use xlink:href="#m93e4235615" x="794.749337" y="231.850546" style="stroke: #ffffff; stroke-width: 0.48"/>
     <use xlink:href="#m93e4235615" x="797.047314" y="200.50571" style="stroke: #ffffff; stroke-width: 0.48"/>
     <use xlink:href="#m93e4235615" x="799.421891" y="251.790305" style="stroke: #ffffff; stroke-width: 0.48"/>
     <use xlink:href="#m93e4235615" x="801.719868" y="228.970006" style="stroke: #ffffff; stroke-width: 0.48"/>
     <use xlink:href="#m93e4235615" x="806.469022" y="229.703192" style="stroke: #ffffff; stroke-width: 0.48"/>
     <use xlink:href="#m93e4235615" x="808.613801" y="218.280996" style="stroke: #ffffff; stroke-width: 0.48"/>
     <use xlink:href="#m93e4235615" x="810.988377" y="171.897407" style="stroke: #ffffff; stroke-width: 0.48"/>
     <use xlink:href="#m93e4235615" x="815.660932" y="205.230313" style="stroke: #ffffff; stroke-width: 0.48"/>
     <use xlink:href="#m93e4235615" x="817.958909" y="172.986829" style="stroke: #ffffff; stroke-width: 0.48"/>
     <use xlink:href="#m93e4235615" x="820.333486" y="252.484579" style="stroke: #ffffff; stroke-width: 0.48"/>
     <use xlink:href="#m93e4235615" x="822.708063" y="231.07384" style="stroke: #ffffff; stroke-width: 0.48"/>
     <use xlink:href="#m93e4235615" x="825.00604" y="199.26299" style="stroke: #ffffff; stroke-width: 0.48"/>
     <use xlink:href="#m93e4235615" x="829.678594" y="230.678235" style="stroke: #ffffff; stroke-width: 0.48"/>
     <use xlink:href="#m93e4235615" x="832.053171" y="179.200386" style="stroke: #ffffff; stroke-width: 0.48"/>
     <use xlink:href="#m93e4235615" x="839.023703" y="179.213969" style="stroke: #ffffff; stroke-width: 0.48"/>
     <use xlink:href="#m93e4235615" x="848.368811" y="250.942632" style="stroke: #ffffff; stroke-width: 0.48"/>
     <use xlink:href="#m93e4235615" x="853.041365" y="212.134276" style="stroke: #ffffff; stroke-width: 0.48"/>
     <use xlink:href="#m93e4235615" x="866.982429" y="160.613919" style="stroke: #ffffff; stroke-width: 0.48"/>
     <use xlink:href="#m93e4235615" x="873.952961" y="187.662473" style="stroke: #ffffff; stroke-width: 0.48"/>
     <use xlink:href="#m93e4235615" x="881.000092" y="175.303151" style="stroke: #ffffff; stroke-width: 0.48"/>
     <use xlink:href="#m93e4235615" x="888.047222" y="173.730272" style="stroke: #ffffff; stroke-width: 0.48"/>
     <use xlink:href="#m93e4235615" x="897.239132" y="169.016724" style="stroke: #ffffff; stroke-width: 0.48"/>
     <use xlink:href="#m93e4235615" x="901.911687" y="154.535253" style="stroke: #ffffff; stroke-width: 0.48"/>
     <use xlink:href="#m93e4235615" x="908.958818" y="180.121686" style="stroke: #ffffff; stroke-width: 0.48"/>
     <use xlink:href="#m93e4235615" x="916.005949" y="174.878065" style="stroke: #ffffff; stroke-width: 0.48"/>
     <use xlink:href="#m93e4235615" x="922.899881" y="171.897407" style="stroke: #ffffff; stroke-width: 0.48"/>
     <use xlink:href="#m93e4235615" x="929.870413" y="144.383731" style="stroke: #ffffff; stroke-width: 0.48"/>
     <use xlink:href="#m93e4235615" x="936.917544" y="128.524896" style="stroke: #ffffff; stroke-width: 0.48"/>
     <use xlink:href="#m93e4235615" x="946.339251" y="169.802275" style="stroke: #ffffff; stroke-width: 0.48"/>
     <use xlink:href="#m93e4235615" x="957.905738" y="202.714919" style="stroke: #ffffff; stroke-width: 0.48"/>
     <use xlink:href="#m93e4235615" x="964.952869" y="260.135807" style="stroke: #ffffff; stroke-width: 0.48"/>
    </g>
   </g>
  </g>
 </g>
 <defs>
  <clipPath id="p75c81a6c33">
   <rect x="135" y="43.2" width="837" height="277.2"/>
  </clipPath>
 </defs>
</svg>
