<?xml version="1.0" encoding="utf-8" standalone="no"?>
<!DOCTYPE svg PUBLIC "-//W3C//DTD SVG 1.1//EN"
  "http://www.w3.org/Graphics/SVG/1.1/DTD/svg11.dtd">
<svg xmlns:xlink="http://www.w3.org/1999/xlink" width="1080pt" height="360pt" viewBox="0 0 1080 360" xmlns="http://www.w3.org/2000/svg" version="1.1">
 <metadata>
  <rdf:RDF xmlns:dc="http://purl.org/dc/elements/1.1/" xmlns:cc="http://creativecommons.org/ns#" xmlns:rdf="http://www.w3.org/1999/02/22-rdf-syntax-ns#">
   <cc:Work>
    <dc:type rdf:resource="http://purl.org/dc/dcmitype/StillImage"/>
    <dc:date>2024-01-23T18:50:24.507855</dc:date>
    <dc:format>image/svg+xml</dc:format>
    <dc:creator>
     <cc:Agent>
      <dc:title>Matplotlib v3.8.2, https://matplotlib.org/</dc:title>
     </cc:Agent>
    </dc:creator>
   </cc:Work>
  </rdf:RDF>
 </metadata>
 <defs>
  <style type="text/css">*{stroke-linejoin: round; stroke-linecap: butt}</style>
 </defs>
 <g id="figure_1">
  <g id="patch_1">
   <path d="M 0 360 
L 1080 360 
L 1080 0 
L 0 0 
z
" style="fill: #ffffff"/>
  </g>
  <g id="axes_1">
   <g id="patch_2">
    <path d="M 135 320.4 
L 972 320.4 
L 972 43.2 
L 135 43.2 
z
" style="fill: #ffffff"/>
   </g>
   <g id="PolyCollection_1"/>
   <g id="matplotlib.axis_1">
    <g id="xtick_1">
     <g id="line2d_1">
      <defs>
       <path id="mcf87bd813d" d="M 0 0 
L 0 3.5 
" style="stroke: #000000; stroke-width: 0.8"/>
      </defs>
      <g>
       <use xlink:href="#mcf87bd813d" x="160.660749" y="320.4" style="stroke: #000000; stroke-width: 0.8"/>
      </g>
     </g>
     <g id="text_1">
      <!-- 1992 -->
      <g transform="translate(147.935749 334.998438) scale(0.1 -0.1)">
       <defs>
        <path id="DejaVuSans-31" d="M 794 531 
L 1825 531 
L 1825 4091 
L 703 3866 
L 703 4441 
L 1819 4666 
L 2450 4666 
L 2450 531 
L 3481 531 
L 3481 0 
L 794 0 
L 794 531 
z
" transform="scale(0.015625)"/>
        <path id="DejaVuSans-39" d="M 703 97 
L 703 672 
Q 941 559 1184 500 
Q 1428 441 1663 441 
Q 2288 441 2617 861 
Q 2947 1281 2994 2138 
Q 2813 1869 2534 1725 
Q 2256 1581 1919 1581 
Q 1219 1581 811 2004 
Q 403 2428 403 3163 
Q 403 3881 828 4315 
Q 1253 4750 1959 4750 
Q 2769 4750 3195 4129 
Q 3622 3509 3622 2328 
Q 3622 1225 3098 567 
Q 2575 -91 1691 -91 
Q 1453 -91 1209 -44 
Q 966 3 703 97 
z
M 1959 2075 
Q 2384 2075 2632 2365 
Q 2881 2656 2881 3163 
Q 2881 3666 2632 3958 
Q 2384 4250 1959 4250 
Q 1534 4250 1286 3958 
Q 1038 3666 1038 3163 
Q 1038 2656 1286 2365 
Q 1534 2075 1959 2075 
z
" transform="scale(0.015625)"/>
        <path id="DejaVuSans-32" d="M 1228 531 
L 3431 531 
L 3431 0 
L 469 0 
L 469 531 
Q 828 903 1448 1529 
Q 2069 2156 2228 2338 
Q 2531 2678 2651 2914 
Q 2772 3150 2772 3378 
Q 2772 3750 2511 3984 
Q 2250 4219 1831 4219 
Q 1534 4219 1204 4116 
Q 875 4013 500 3803 
L 500 4441 
Q 881 4594 1212 4672 
Q 1544 4750 1819 4750 
Q 2544 4750 2975 4387 
Q 3406 4025 3406 3419 
Q 3406 3131 3298 2873 
Q 3191 2616 2906 2266 
Q 2828 2175 2409 1742 
Q 1991 1309 1228 531 
z
" transform="scale(0.015625)"/>
       </defs>
       <use xlink:href="#DejaVuSans-31"/>
       <use xlink:href="#DejaVuSans-39" x="63.623047"/>
       <use xlink:href="#DejaVuSans-39" x="127.246094"/>
       <use xlink:href="#DejaVuSans-32" x="190.869141"/>
      </g>
     </g>
    </g>
    <g id="xtick_2">
     <g id="line2d_2">
      <g>
       <use xlink:href="#mcf87bd813d" x="272.572252" y="320.4" style="stroke: #000000; stroke-width: 0.8"/>
      </g>
     </g>
     <g id="text_2">
      <!-- 1996 -->
      <g transform="translate(259.847252 334.998438) scale(0.1 -0.1)">
       <defs>
        <path id="DejaVuSans-36" d="M 2113 2584 
Q 1688 2584 1439 2293 
Q 1191 2003 1191 1497 
Q 1191 994 1439 701 
Q 1688 409 2113 409 
Q 2538 409 2786 701 
Q 3034 994 3034 1497 
Q 3034 2003 2786 2293 
Q 2538 2584 2113 2584 
z
M 3366 4563 
L 3366 3988 
Q 3128 4100 2886 4159 
Q 2644 4219 2406 4219 
Q 1781 4219 1451 3797 
Q 1122 3375 1075 2522 
Q 1259 2794 1537 2939 
Q 1816 3084 2150 3084 
Q 2853 3084 3261 2657 
Q 3669 2231 3669 1497 
Q 3669 778 3244 343 
Q 2819 -91 2113 -91 
Q 1303 -91 875 529 
Q 447 1150 447 2328 
Q 447 3434 972 4092 
Q 1497 4750 2381 4750 
Q 2619 4750 2861 4703 
Q 3103 4656 3366 4563 
z
" transform="scale(0.015625)"/>
       </defs>
       <use xlink:href="#DejaVuSans-31"/>
       <use xlink:href="#DejaVuSans-39" x="63.623047"/>
       <use xlink:href="#DejaVuSans-39" x="127.246094"/>
       <use xlink:href="#DejaVuSans-36" x="190.869141"/>
      </g>
     </g>
    </g>
    <g id="xtick_3">
     <g id="line2d_3">
      <g>
       <use xlink:href="#mcf87bd813d" x="384.483756" y="320.4" style="stroke: #000000; stroke-width: 0.8"/>
      </g>
     </g>
     <g id="text_3">
      <!-- 2000 -->
      <g transform="translate(371.758756 334.998438) scale(0.1 -0.1)">
       <defs>
        <path id="DejaVuSans-30" d="M 2034 4250 
Q 1547 4250 1301 3770 
Q 1056 3291 1056 2328 
Q 1056 1369 1301 889 
Q 1547 409 2034 409 
Q 2525 409 2770 889 
Q 3016 1369 3016 2328 
Q 3016 3291 2770 3770 
Q 2525 4250 2034 4250 
z
M 2034 4750 
Q 2819 4750 3233 4129 
Q 3647 3509 3647 2328 
Q 3647 1150 3233 529 
Q 2819 -91 2034 -91 
Q 1250 -91 836 529 
Q 422 1150 422 2328 
Q 422 3509 836 4129 
Q 1250 4750 2034 4750 
z
" transform="scale(0.015625)"/>
       </defs>
       <use xlink:href="#DejaVuSans-32"/>
       <use xlink:href="#DejaVuSans-30" x="63.623047"/>
       <use xlink:href="#DejaVuSans-30" x="127.246094"/>
       <use xlink:href="#DejaVuSans-30" x="190.869141"/>
      </g>
     </g>
    </g>
    <g id="xtick_4">
     <g id="line2d_4">
      <g>
       <use xlink:href="#mcf87bd813d" x="496.395259" y="320.4" style="stroke: #000000; stroke-width: 0.8"/>
      </g>
     </g>
     <g id="text_4">
      <!-- 2004 -->
      <g transform="translate(483.670259 334.998438) scale(0.1 -0.1)">
       <defs>
        <path id="DejaVuSans-34" d="M 2419 4116 
L 825 1625 
L 2419 1625 
L 2419 4116 
z
M 2253 4666 
L 3047 4666 
L 3047 1625 
L 3713 1625 
L 3713 1100 
L 3047 1100 
L 3047 0 
L 2419 0 
L 2419 1100 
L 313 1100 
L 313 1709 
L 2253 4666 
z
" transform="scale(0.015625)"/>
       </defs>
       <use xlink:href="#DejaVuSans-32"/>
       <use xlink:href="#DejaVuSans-30" x="63.623047"/>
       <use xlink:href="#DejaVuSans-30" x="127.246094"/>
       <use xlink:href="#DejaVuSans-34" x="190.869141"/>
      </g>
     </g>
    </g>
    <g id="xtick_5">
     <g id="line2d_5">
      <g>
       <use xlink:href="#mcf87bd813d" x="608.306763" y="320.4" style="stroke: #000000; stroke-width: 0.8"/>
      </g>
     </g>
     <g id="text_5">
      <!-- 2008 -->
      <g transform="translate(595.581763 334.998438) scale(0.1 -0.1)">
       <defs>
        <path id="DejaVuSans-38" d="M 2034 2216 
Q 1584 2216 1326 1975 
Q 1069 1734 1069 1313 
Q 1069 891 1326 650 
Q 1584 409 2034 409 
Q 2484 409 2743 651 
Q 3003 894 3003 1313 
Q 3003 1734 2745 1975 
Q 2488 2216 2034 2216 
z
M 1403 2484 
Q 997 2584 770 2862 
Q 544 3141 544 3541 
Q 544 4100 942 4425 
Q 1341 4750 2034 4750 
Q 2731 4750 3128 4425 
Q 3525 4100 3525 3541 
Q 3525 3141 3298 2862 
Q 3072 2584 2669 2484 
Q 3125 2378 3379 2068 
Q 3634 1759 3634 1313 
Q 3634 634 3220 271 
Q 2806 -91 2034 -91 
Q 1263 -91 848 271 
Q 434 634 434 1313 
Q 434 1759 690 2068 
Q 947 2378 1403 2484 
z
M 1172 3481 
Q 1172 3119 1398 2916 
Q 1625 2713 2034 2713 
Q 2441 2713 2670 2916 
Q 2900 3119 2900 3481 
Q 2900 3844 2670 4047 
Q 2441 4250 2034 4250 
Q 1625 4250 1398 4047 
Q 1172 3844 1172 3481 
z
" transform="scale(0.015625)"/>
       </defs>
       <use xlink:href="#DejaVuSans-32"/>
       <use xlink:href="#DejaVuSans-30" x="63.623047"/>
       <use xlink:href="#DejaVuSans-30" x="127.246094"/>
       <use xlink:href="#DejaVuSans-38" x="190.869141"/>
      </g>
     </g>
    </g>
    <g id="xtick_6">
     <g id="line2d_6">
      <g>
       <use xlink:href="#mcf87bd813d" x="720.218267" y="320.4" style="stroke: #000000; stroke-width: 0.8"/>
      </g>
     </g>
     <g id="text_6">
      <!-- 2012 -->
      <g transform="translate(707.493267 334.998438) scale(0.1 -0.1)">
       <use xlink:href="#DejaVuSans-32"/>
       <use xlink:href="#DejaVuSans-30" x="63.623047"/>
       <use xlink:href="#DejaVuSans-31" x="127.246094"/>
       <use xlink:href="#DejaVuSans-32" x="190.869141"/>
      </g>
     </g>
    </g>
    <g id="xtick_7">
     <g id="line2d_7">
      <g>
       <use xlink:href="#mcf87bd813d" x="832.12977" y="320.4" style="stroke: #000000; stroke-width: 0.8"/>
      </g>
     </g>
     <g id="text_7">
      <!-- 2016 -->
      <g transform="translate(819.40477 334.998438) scale(0.1 -0.1)">
       <use xlink:href="#DejaVuSans-32"/>
       <use xlink:href="#DejaVuSans-30" x="63.623047"/>
       <use xlink:href="#DejaVuSans-31" x="127.246094"/>
       <use xlink:href="#DejaVuSans-36" x="190.869141"/>
      </g>
     </g>
    </g>
    <g id="xtick_8">
     <g id="line2d_8">
      <g>
       <use xlink:href="#mcf87bd813d" x="944.041274" y="320.4" style="stroke: #000000; stroke-width: 0.8"/>
      </g>
     </g>
     <g id="text_8">
      <!-- 2020 -->
      <g transform="translate(931.316274 334.998438) scale(0.1 -0.1)">
       <use xlink:href="#DejaVuSans-32"/>
       <use xlink:href="#DejaVuSans-30" x="63.623047"/>
       <use xlink:href="#DejaVuSans-32" x="127.246094"/>
       <use xlink:href="#DejaVuSans-30" x="190.869141"/>
      </g>
     </g>
    </g>
   </g>
   <g id="matplotlib.axis_2">
    <g id="ytick_1">
     <g id="line2d_9">
      <defs>
       <path id="m1a7bb681e2" d="M 0 0 
L -3.5 0 
" style="stroke: #000000; stroke-width: 0.8"/>
      </defs>
      <g>
       <use xlink:href="#m1a7bb681e2" x="135" y="299.42919" style="stroke: #000000; stroke-width: 0.8"/>
      </g>
     </g>
     <g id="text_9">
      <!-- −1.5 -->
      <g transform="translate(103.717187 303.228408) scale(0.1 -0.1)">
       <defs>
        <path id="DejaVuSans-2212" d="M 678 2272 
L 4684 2272 
L 4684 1741 
L 678 1741 
L 678 2272 
z
" transform="scale(0.015625)"/>
        <path id="DejaVuSans-2e" d="M 684 794 
L 1344 794 
L 1344 0 
L 684 0 
L 684 794 
z
" transform="scale(0.015625)"/>
        <path id="DejaVuSans-35" d="M 691 4666 
L 3169 4666 
L 3169 4134 
L 1269 4134 
L 1269 2991 
Q 1406 3038 1543 3061 
Q 1681 3084 1819 3084 
Q 2600 3084 3056 2656 
Q 3513 2228 3513 1497 
Q 3513 744 3044 326 
Q 2575 -91 1722 -91 
Q 1428 -91 1123 -41 
Q 819 9 494 109 
L 494 744 
Q 775 591 1075 516 
Q 1375 441 1709 441 
Q 2250 441 2565 725 
Q 2881 1009 2881 1497 
Q 2881 1984 2565 2268 
Q 2250 2553 1709 2553 
Q 1456 2553 1204 2497 
Q 953 2441 691 2322 
L 691 4666 
z
" transform="scale(0.015625)"/>
       </defs>
       <use xlink:href="#DejaVuSans-2212"/>
       <use xlink:href="#DejaVuSans-31" x="83.789062"/>
       <use xlink:href="#DejaVuSans-2e" x="147.412109"/>
       <use xlink:href="#DejaVuSans-35" x="179.199219"/>
      </g>
     </g>
    </g>
    <g id="ytick_2">
     <g id="line2d_10">
      <g>
       <use xlink:href="#m1a7bb681e2" x="135" y="263.986416" style="stroke: #000000; stroke-width: 0.8"/>
      </g>
     </g>
     <g id="text_10">
      <!-- −1.0 -->
      <g transform="translate(103.717187 267.785635) scale(0.1 -0.1)">
       <use xlink:href="#DejaVuSans-2212"/>
       <use xlink:href="#DejaVuSans-31" x="83.789062"/>
       <use xlink:href="#DejaVuSans-2e" x="147.412109"/>
       <use xlink:href="#DejaVuSans-30" x="179.199219"/>
      </g>
     </g>
    </g>
    <g id="ytick_3">
     <g id="line2d_11">
      <g>
       <use xlink:href="#m1a7bb681e2" x="135" y="228.543643" style="stroke: #000000; stroke-width: 0.8"/>
      </g>
     </g>
     <g id="text_11">
      <!-- −0.5 -->
      <g transform="translate(103.717187 232.342862) scale(0.1 -0.1)">
       <use xlink:href="#DejaVuSans-2212"/>
       <use xlink:href="#DejaVuSans-30" x="83.789062"/>
       <use xlink:href="#DejaVuSans-2e" x="147.412109"/>
       <use xlink:href="#DejaVuSans-35" x="179.199219"/>
      </g>
     </g>
    </g>
    <g id="ytick_4">
     <g id="line2d_12">
      <g>
       <use xlink:href="#m1a7bb681e2" x="135" y="193.10087" style="stroke: #000000; stroke-width: 0.8"/>
      </g>
     </g>
     <g id="text_12">
      <!-- 0.0 -->
      <g transform="translate(112.096875 196.900088) scale(0.1 -0.1)">
       <use xlink:href="#DejaVuSans-30"/>
       <use xlink:href="#DejaVuSans-2e" x="63.623047"/>
       <use xlink:href="#DejaVuSans-30" x="95.410156"/>
      </g>
     </g>
    </g>
    <g id="ytick_5">
     <g id="line2d_13">
      <g>
       <use xlink:href="#m1a7bb681e2" x="135" y="157.658096" style="stroke: #000000; stroke-width: 0.8"/>
      </g>
     </g>
     <g id="text_13">
      <!-- 0.5 -->
      <g transform="translate(112.096875 161.457315) scale(0.1 -0.1)">
       <use xlink:href="#DejaVuSans-30"/>
       <use xlink:href="#DejaVuSans-2e" x="63.623047"/>
       <use xlink:href="#DejaVuSans-35" x="95.410156"/>
      </g>
     </g>
    </g>
    <g id="ytick_6">
     <g id="line2d_14">
      <g>
       <use xlink:href="#m1a7bb681e2" x="135" y="122.215323" style="stroke: #000000; stroke-width: 0.8"/>
      </g>
     </g>
     <g id="text_14">
      <!-- 1.0 -->
      <g transform="translate(112.096875 126.014542) scale(0.1 -0.1)">
       <use xlink:href="#DejaVuSans-31"/>
       <use xlink:href="#DejaVuSans-2e" x="63.623047"/>
       <use xlink:href="#DejaVuSans-30" x="95.410156"/>
      </g>
     </g>
    </g>
    <g id="ytick_7">
     <g id="line2d_15">
      <g>
       <use xlink:href="#m1a7bb681e2" x="135" y="86.77255" style="stroke: #000000; stroke-width: 0.8"/>
      </g>
     </g>
     <g id="text_15">
      <!-- 1.5 -->
      <g transform="translate(112.096875 90.571768) scale(0.1 -0.1)">
       <use xlink:href="#DejaVuSans-31"/>
       <use xlink:href="#DejaVuSans-2e" x="63.623047"/>
       <use xlink:href="#DejaVuSans-35" x="95.410156"/>
      </g>
     </g>
    </g>
    <g id="ytick_8">
     <g id="line2d_16">
      <g>
       <use xlink:href="#m1a7bb681e2" x="135" y="51.329776" style="stroke: #000000; stroke-width: 0.8"/>
      </g>
     </g>
     <g id="text_16">
      <!-- 2.0 -->
      <g transform="translate(112.096875 55.128995) scale(0.1 -0.1)">
       <use xlink:href="#DejaVuSans-32"/>
       <use xlink:href="#DejaVuSans-2e" x="63.623047"/>
       <use xlink:href="#DejaVuSans-30" x="95.410156"/>
      </g>
     </g>
    </g>
    <g id="text_17">
     <!-- SGI -->
     <g transform="translate(97.6375 190.323437) rotate(-90) scale(0.1 -0.1)">
      <defs>
       <path id="DejaVuSans-53" d="M 3425 4513 
L 3425 3897 
Q 3066 4069 2747 4153 
Q 2428 4238 2131 4238 
Q 1616 4238 1336 4038 
Q 1056 3838 1056 3469 
Q 1056 3159 1242 3001 
Q 1428 2844 1947 2747 
L 2328 2669 
Q 3034 2534 3370 2195 
Q 3706 1856 3706 1288 
Q 3706 609 3251 259 
Q 2797 -91 1919 -91 
Q 1588 -91 1214 -16 
Q 841 59 441 206 
L 441 856 
Q 825 641 1194 531 
Q 1563 422 1919 422 
Q 2459 422 2753 634 
Q 3047 847 3047 1241 
Q 3047 1584 2836 1778 
Q 2625 1972 2144 2069 
L 1759 2144 
Q 1053 2284 737 2584 
Q 422 2884 422 3419 
Q 422 4038 858 4394 
Q 1294 4750 2059 4750 
Q 2388 4750 2728 4690 
Q 3069 4631 3425 4513 
z
" transform="scale(0.015625)"/>
       <path id="DejaVuSans-47" d="M 3809 666 
L 3809 1919 
L 2778 1919 
L 2778 2438 
L 4434 2438 
L 4434 434 
Q 4069 175 3628 42 
Q 3188 -91 2688 -91 
Q 1594 -91 976 548 
Q 359 1188 359 2328 
Q 359 3472 976 4111 
Q 1594 4750 2688 4750 
Q 3144 4750 3555 4637 
Q 3966 4525 4313 4306 
L 4313 3634 
Q 3963 3931 3569 4081 
Q 3175 4231 2741 4231 
Q 1884 4231 1454 3753 
Q 1025 3275 1025 2328 
Q 1025 1384 1454 906 
Q 1884 428 2741 428 
Q 3075 428 3337 486 
Q 3600 544 3809 666 
z
" transform="scale(0.015625)"/>
       <path id="DejaVuSans-49" d="M 628 4666 
L 1259 4666 
L 1259 0 
L 628 0 
L 628 4666 
z
" transform="scale(0.015625)"/>
      </defs>
      <use xlink:href="#DejaVuSans-53"/>
      <use xlink:href="#DejaVuSans-47" x="63.476562"/>
      <use xlink:href="#DejaVuSans-49" x="140.966797"/>
     </g>
    </g>
   </g>
   <g id="line2d_17">
    <path d="M 176.89979 246.884469 
L 186.244898 283.880384 
L 188.619475 267.818523 
L 193.13883 307.8 
L 200.185961 220.197763 
L 202.483939 213.605377 
L 204.858516 180.268556 
L 207.233092 189.086196 
L 209.53107 175.895162 
L 211.905647 161.581666 
L 214.203624 181.343932 
L 221.097557 162.283914 
L 228.144687 207.175211 
L 235.191818 272.03505 
L 242.16235 231.56975 
L 249.056283 220.794277 
L 256.103414 144.008613 
L 267.823099 144.601753 
L 274.87023 165.712925 
L 281.764162 152.063936 
L 288.811293 157.48223 
L 295.858424 169.377158 
L 305.050334 154.827826 
L 309.722888 111.871051 
L 316.770019 116.210456 
L 323.81715 126.927038 
L 330.864281 129.805505 
L 337.681614 165.304881 
L 344.728745 155.404739 
L 358.823007 126.85141 
L 365.64034 148.064769 
L 372.687471 150.353645 
L 379.734602 168.02045 
L 386.781733 168.935238 
L 393.675666 200.57764 
L 400.722797 230.900584 
L 407.769928 231.682686 
L 421.634392 156.876101 
L 428.681523 229.144748 
L 435.728654 237.431019 
L 442.775785 229.834344 
L 449.593118 261.658736 
L 451.967695 278.793257 
L 456.640249 258.63815 
L 463.68738 264.590497 
L 470.734511 252.813688 
L 477.551844 246.631921 
L 484.598975 264.953872 
L 491.646106 276.220785 
L 498.693237 276.759798 
L 505.587169 282.882005 
L 512.6343 266.889933 
L 519.681431 264.141955 
L 526.728562 252.59246 
L 540.593026 266.695859 
L 547.640157 248.801789 
L 554.687288 236.673644 
L 561.504622 255.976127 
L 566.177176 264.00953 
L 575.598883 236.8105 
L 582.646014 228.137085 
L 587.16537 227.781349 
L 596.510479 243.960067 
L 603.55761 236.191111 
L 610.604741 220.558699 
L 617.498673 252.833559 
L 619.87325 259.72623 
L 622.171227 264.924133 
L 624.545804 210.66525 
L 626.920381 250.440386 
L 629.218358 270.211124 
L 631.592935 219.367471 
L 636.265489 228.362949 
L 638.640066 193.272395 
L 640.784845 235.242294 
L 643.159422 265.038532 
L 645.457399 217.903607 
L 647.831976 227.766776 
L 650.129953 234.798928 
L 652.50453 205.186061 
L 654.879107 223.090859 
L 657.177084 217.659922 
L 659.551661 189.276086 
L 661.849639 206.396609 
L 664.224215 208.052675 
L 666.598792 178.181865 
L 668.743571 207.161486 
L 671.118148 213.721492 
L 673.416125 214.037102 
L 675.790702 225.30362 
L 678.088679 219.347601 
L 682.837833 211.962537 
L 685.13581 194.37523 
L 687.510387 166.27165 
L 689.808365 182.514484 
L 692.182941 174.617797 
L 696.702297 134.701533 
L 699.076874 160.52828 
L 703.749428 149.764289 
L 706.047406 139.435424 
L 708.421982 125.833182 
L 715.469113 114.849549 
L 722.516244 109.870028 
L 727.112199 111.251532 
L 729.410177 153.083472 
L 731.784753 165.411642 
L 734.082731 139.420412 
L 736.457308 120.51352 
L 738.831884 152.315924 
L 741.129862 117.131212 
L 743.504439 115.835731 
L 745.802416 138.593613 
L 748.176993 138.350823 
L 750.55157 128.196059 
L 752.696348 88.905067 
L 755.070925 142.864152 
L 757.368903 172.285136 
L 759.743479 184.560867 
L 762.041457 181.119158 
L 764.416034 176.129357 
L 766.79061 211.710312 
L 769.088588 211.922966 
L 771.463165 188.404101 
L 773.761142 213.979111 
L 776.135719 208.590393 
L 778.510296 182.771519 
L 780.655075 209.295164 
L 783.029651 185.974937 
L 785.327629 161.522696 
L 787.702206 178.135443 
L 790.000183 172.081466 
L 792.37476 165.511476 
L 794.749337 200.423965 
L 797.047314 189.391086 
L 799.421891 170.814159 
L 801.719868 183.205173 
L 804.094445 163.335408 
L 808.613801 177.891948 
L 810.988377 196.143367 
L 813.286355 206.446306 
L 815.660932 208.997353 
L 817.958909 188.388202 
L 820.333486 189.698338 
L 822.708063 234.735656 
L 825.00604 240.794712 
L 827.380617 203.541334 
L 829.678594 232.675715 
L 832.053171 225.201551 
L 834.427748 195.554918 
L 836.649126 235.528964 
L 839.023703 228.131216 
L 841.32168 223.333793 
L 843.696257 233.785513 
L 845.994234 218.515388 
L 848.368811 203.834057 
L 857.71392 235.568023 
L 873.952961 172.116284 
L 876.327537 170.826377 
L 892.566578 186.912019 
L 899.613709 67.804674 
L 906.66084 117.563772 
L 925.197859 55.8 
L 934.619566 76.381622 
L 941.590098 72.506231 
L 955.607761 110.087885 
L 957.905738 89.353348 
L 960.280315 97.066967 
L 962.654892 146.059819 
L 964.952869 108.405836 
L 967.327446 107.150123 
L 969.625423 128.644883 
L 972 121.463703 
L 972 121.463703 
" clip-path="url(#p624ece26b3)" style="fill: none; stroke: #7f7f7f; stroke-width: 1.5; stroke-linecap: square"/>
   </g>
   <g id="line2d_18">
    <path d="M 135 193.10087 
L 972 193.10087 
" clip-path="url(#p624ece26b3)" style="fill: none; stroke: #000000; stroke-width: 1.5; stroke-linecap: square"/>
   </g>
   <g id="patch_3">
    <path d="M 135 320.4 
L 135 43.2 
" style="fill: none; stroke: #000000; stroke-width: 0.8; stroke-linejoin: miter; stroke-linecap: square"/>
   </g>
   <g id="patch_4">
    <path d="M 135 320.4 
L 972 320.4 
" style="fill: none; stroke: #000000; stroke-width: 0.8; stroke-linejoin: miter; stroke-linecap: square"/>
   </g>
   <g id="text_18">
    <!-- SGI for GWIC ID 135680 -->
    <g transform="translate(135 37.2) scale(0.12 -0.12)">
     <defs>
      <path id="DejaVuSans-Bold-53" d="M 3834 4519 
L 3834 3531 
Q 3450 3703 3084 3790 
Q 2719 3878 2394 3878 
Q 1963 3878 1756 3759 
Q 1550 3641 1550 3391 
Q 1550 3203 1689 3098 
Q 1828 2994 2194 2919 
L 2706 2816 
Q 3484 2659 3812 2340 
Q 4141 2022 4141 1434 
Q 4141 663 3683 286 
Q 3225 -91 2284 -91 
Q 1841 -91 1394 -6 
Q 947 78 500 244 
L 500 1259 
Q 947 1022 1364 901 
Q 1781 781 2169 781 
Q 2563 781 2772 912 
Q 2981 1044 2981 1288 
Q 2981 1506 2839 1625 
Q 2697 1744 2272 1838 
L 1806 1941 
Q 1106 2091 782 2419 
Q 459 2747 459 3303 
Q 459 4000 909 4375 
Q 1359 4750 2203 4750 
Q 2588 4750 2994 4692 
Q 3400 4634 3834 4519 
z
" transform="scale(0.015625)"/>
      <path id="DejaVuSans-Bold-47" d="M 4781 347 
Q 4331 128 3847 18 
Q 3363 -91 2847 -91 
Q 1681 -91 1000 561 
Q 319 1213 319 2328 
Q 319 3456 1012 4103 
Q 1706 4750 2913 4750 
Q 3378 4750 3804 4662 
Q 4231 4575 4609 4403 
L 4609 3438 
Q 4219 3659 3833 3768 
Q 3447 3878 3059 3878 
Q 2341 3878 1952 3476 
Q 1563 3075 1563 2328 
Q 1563 1588 1938 1184 
Q 2313 781 3003 781 
Q 3191 781 3352 804 
Q 3513 828 3641 878 
L 3641 1784 
L 2906 1784 
L 2906 2591 
L 4781 2591 
L 4781 347 
z
" transform="scale(0.015625)"/>
      <path id="DejaVuSans-Bold-49" d="M 588 4666 
L 1791 4666 
L 1791 0 
L 588 0 
L 588 4666 
z
" transform="scale(0.015625)"/>
      <path id="DejaVuSans-Bold-20" transform="scale(0.015625)"/>
      <path id="DejaVuSans-Bold-66" d="M 2841 4863 
L 2841 4128 
L 2222 4128 
Q 1984 4128 1890 4042 
Q 1797 3956 1797 3744 
L 1797 3500 
L 2753 3500 
L 2753 2700 
L 1797 2700 
L 1797 0 
L 678 0 
L 678 2700 
L 122 2700 
L 122 3500 
L 678 3500 
L 678 3744 
Q 678 4316 997 4589 
Q 1316 4863 1984 4863 
L 2841 4863 
z
" transform="scale(0.015625)"/>
      <path id="DejaVuSans-Bold-6f" d="M 2203 2784 
Q 1831 2784 1636 2517 
Q 1441 2250 1441 1747 
Q 1441 1244 1636 976 
Q 1831 709 2203 709 
Q 2569 709 2762 976 
Q 2956 1244 2956 1747 
Q 2956 2250 2762 2517 
Q 2569 2784 2203 2784 
z
M 2203 3584 
Q 3106 3584 3614 3096 
Q 4122 2609 4122 1747 
Q 4122 884 3614 396 
Q 3106 -91 2203 -91 
Q 1297 -91 786 396 
Q 275 884 275 1747 
Q 275 2609 786 3096 
Q 1297 3584 2203 3584 
z
" transform="scale(0.015625)"/>
      <path id="DejaVuSans-Bold-72" d="M 3138 2547 
Q 2991 2616 2845 2648 
Q 2700 2681 2553 2681 
Q 2122 2681 1889 2404 
Q 1656 2128 1656 1613 
L 1656 0 
L 538 0 
L 538 3500 
L 1656 3500 
L 1656 2925 
Q 1872 3269 2151 3426 
Q 2431 3584 2822 3584 
Q 2878 3584 2943 3579 
Q 3009 3575 3134 3559 
L 3138 2547 
z
" transform="scale(0.015625)"/>
      <path id="DejaVuSans-Bold-57" d="M 191 4666 
L 1344 4666 
L 2150 1275 
L 2950 4666 
L 4109 4666 
L 4909 1275 
L 5716 4666 
L 6859 4666 
L 5759 0 
L 4372 0 
L 3525 3547 
L 2688 0 
L 1300 0 
L 191 4666 
z
" transform="scale(0.015625)"/>
      <path id="DejaVuSans-Bold-43" d="M 4288 256 
Q 3956 84 3597 -3 
Q 3238 -91 2847 -91 
Q 1681 -91 1000 561 
Q 319 1213 319 2328 
Q 319 3447 1000 4098 
Q 1681 4750 2847 4750 
Q 3238 4750 3597 4662 
Q 3956 4575 4288 4403 
L 4288 3438 
Q 3953 3666 3628 3772 
Q 3303 3878 2944 3878 
Q 2300 3878 1931 3465 
Q 1563 3053 1563 2328 
Q 1563 1606 1931 1193 
Q 2300 781 2944 781 
Q 3303 781 3628 887 
Q 3953 994 4288 1222 
L 4288 256 
z
" transform="scale(0.015625)"/>
      <path id="DejaVuSans-Bold-44" d="M 1791 3756 
L 1791 909 
L 2222 909 
Q 2959 909 3348 1275 
Q 3738 1641 3738 2338 
Q 3738 3031 3350 3393 
Q 2963 3756 2222 3756 
L 1791 3756 
z
M 588 4666 
L 1856 4666 
Q 2919 4666 3439 4514 
Q 3959 4363 4331 4000 
Q 4659 3684 4818 3271 
Q 4978 2859 4978 2338 
Q 4978 1809 4818 1395 
Q 4659 981 4331 666 
Q 3956 303 3431 151 
Q 2906 0 1856 0 
L 588 0 
L 588 4666 
z
" transform="scale(0.015625)"/>
      <path id="DejaVuSans-Bold-31" d="M 750 831 
L 1813 831 
L 1813 3847 
L 722 3622 
L 722 4441 
L 1806 4666 
L 2950 4666 
L 2950 831 
L 4013 831 
L 4013 0 
L 750 0 
L 750 831 
z
" transform="scale(0.015625)"/>
      <path id="DejaVuSans-Bold-33" d="M 2981 2516 
Q 3453 2394 3698 2092 
Q 3944 1791 3944 1325 
Q 3944 631 3412 270 
Q 2881 -91 1863 -91 
Q 1503 -91 1142 -33 
Q 781 25 428 141 
L 428 1069 
Q 766 900 1098 814 
Q 1431 728 1753 728 
Q 2231 728 2486 893 
Q 2741 1059 2741 1369 
Q 2741 1688 2480 1852 
Q 2219 2016 1709 2016 
L 1228 2016 
L 1228 2791 
L 1734 2791 
Q 2188 2791 2409 2933 
Q 2631 3075 2631 3366 
Q 2631 3634 2415 3781 
Q 2200 3928 1806 3928 
Q 1516 3928 1219 3862 
Q 922 3797 628 3669 
L 628 4550 
Q 984 4650 1334 4700 
Q 1684 4750 2022 4750 
Q 2931 4750 3382 4451 
Q 3834 4153 3834 3553 
Q 3834 3144 3618 2883 
Q 3403 2622 2981 2516 
z
" transform="scale(0.015625)"/>
      <path id="DejaVuSans-Bold-35" d="M 678 4666 
L 3669 4666 
L 3669 3781 
L 1638 3781 
L 1638 3059 
Q 1775 3097 1914 3117 
Q 2053 3138 2203 3138 
Q 3056 3138 3531 2711 
Q 4006 2284 4006 1522 
Q 4006 766 3489 337 
Q 2972 -91 2053 -91 
Q 1656 -91 1267 -14 
Q 878 63 494 219 
L 494 1166 
Q 875 947 1217 837 
Q 1559 728 1863 728 
Q 2300 728 2551 942 
Q 2803 1156 2803 1522 
Q 2803 1891 2551 2103 
Q 2300 2316 1863 2316 
Q 1603 2316 1309 2248 
Q 1016 2181 678 2041 
L 678 4666 
z
" transform="scale(0.015625)"/>
      <path id="DejaVuSans-Bold-36" d="M 2316 2303 
Q 2000 2303 1842 2098 
Q 1684 1894 1684 1484 
Q 1684 1075 1842 870 
Q 2000 666 2316 666 
Q 2634 666 2792 870 
Q 2950 1075 2950 1484 
Q 2950 1894 2792 2098 
Q 2634 2303 2316 2303 
z
M 3803 4544 
L 3803 3681 
Q 3506 3822 3243 3889 
Q 2981 3956 2731 3956 
Q 2194 3956 1894 3657 
Q 1594 3359 1544 2772 
Q 1750 2925 1990 3001 
Q 2231 3078 2516 3078 
Q 3231 3078 3670 2659 
Q 4109 2241 4109 1563 
Q 4109 813 3618 361 
Q 3128 -91 2303 -91 
Q 1394 -91 895 523 
Q 397 1138 397 2266 
Q 397 3422 980 4083 
Q 1563 4744 2578 4744 
Q 2900 4744 3203 4694 
Q 3506 4644 3803 4544 
z
" transform="scale(0.015625)"/>
      <path id="DejaVuSans-Bold-38" d="M 2228 2088 
Q 1891 2088 1709 1903 
Q 1528 1719 1528 1375 
Q 1528 1031 1709 848 
Q 1891 666 2228 666 
Q 2563 666 2741 848 
Q 2919 1031 2919 1375 
Q 2919 1722 2741 1905 
Q 2563 2088 2228 2088 
z
M 1350 2484 
Q 925 2613 709 2878 
Q 494 3144 494 3541 
Q 494 4131 934 4440 
Q 1375 4750 2228 4750 
Q 3075 4750 3515 4442 
Q 3956 4134 3956 3541 
Q 3956 3144 3739 2878 
Q 3522 2613 3097 2484 
Q 3572 2353 3814 2058 
Q 4056 1763 4056 1313 
Q 4056 619 3595 264 
Q 3134 -91 2228 -91 
Q 1319 -91 855 264 
Q 391 619 391 1313 
Q 391 1763 633 2058 
Q 875 2353 1350 2484 
z
M 1631 3419 
Q 1631 3141 1786 2991 
Q 1941 2841 2228 2841 
Q 2509 2841 2662 2991 
Q 2816 3141 2816 3419 
Q 2816 3697 2662 3845 
Q 2509 3994 2228 3994 
Q 1941 3994 1786 3844 
Q 1631 3694 1631 3419 
z
" transform="scale(0.015625)"/>
      <path id="DejaVuSans-Bold-30" d="M 2944 2338 
Q 2944 3213 2780 3570 
Q 2616 3928 2228 3928 
Q 1841 3928 1675 3570 
Q 1509 3213 1509 2338 
Q 1509 1453 1675 1090 
Q 1841 728 2228 728 
Q 2613 728 2778 1090 
Q 2944 1453 2944 2338 
z
M 4147 2328 
Q 4147 1169 3647 539 
Q 3147 -91 2228 -91 
Q 1306 -91 806 539 
Q 306 1169 306 2328 
Q 306 3491 806 4120 
Q 1306 4750 2228 4750 
Q 3147 4750 3647 4120 
Q 4147 3491 4147 2328 
z
" transform="scale(0.015625)"/>
     </defs>
     <use xlink:href="#DejaVuSans-Bold-53"/>
     <use xlink:href="#DejaVuSans-Bold-47" x="72.021484"/>
     <use xlink:href="#DejaVuSans-Bold-49" x="154.101562"/>
     <use xlink:href="#DejaVuSans-Bold-20" x="191.308594"/>
     <use xlink:href="#DejaVuSans-Bold-66" x="226.123047"/>
     <use xlink:href="#DejaVuSans-Bold-6f" x="269.628906"/>
     <use xlink:href="#DejaVuSans-Bold-72" x="338.330078"/>
     <use xlink:href="#DejaVuSans-Bold-20" x="387.646484"/>
     <use xlink:href="#DejaVuSans-Bold-47" x="422.460938"/>
     <use xlink:href="#DejaVuSans-Bold-57" x="504.541016"/>
     <use xlink:href="#DejaVuSans-Bold-49" x="614.84375"/>
     <use xlink:href="#DejaVuSans-Bold-43" x="652.050781"/>
     <use xlink:href="#DejaVuSans-Bold-20" x="725.439453"/>
     <use xlink:href="#DejaVuSans-Bold-49" x="760.253906"/>
     <use xlink:href="#DejaVuSans-Bold-44" x="797.460938"/>
     <use xlink:href="#DejaVuSans-Bold-20" x="880.46875"/>
     <use xlink:href="#DejaVuSans-Bold-31" x="915.283203"/>
     <use xlink:href="#DejaVuSans-Bold-33" x="984.863281"/>
     <use xlink:href="#DejaVuSans-Bold-35" x="1054.443359"/>
     <use xlink:href="#DejaVuSans-Bold-36" x="1124.023438"/>
     <use xlink:href="#DejaVuSans-Bold-38" x="1193.603516"/>
     <use xlink:href="#DejaVuSans-Bold-30" x="1263.183594"/>
    </g>
   </g>
   <g id="PathCollection_1">
    <defs>
     <path id="m5cc4fbbc88" d="M 0 3 
C 0.795609 3 1.55874 2.683901 2.12132 2.12132 
C 2.683901 1.55874 3 0.795609 3 0 
C 3 -0.795609 2.683901 -1.55874 2.12132 -2.12132 
C 1.55874 -2.683901 0.795609 -3 0 -3 
C -0.795609 -3 -1.55874 -2.683901 -2.12132 -2.12132 
C -2.683901 -1.55874 -3 -0.795609 -3 0 
C -3 0.795609 -2.683901 1.55874 -2.12132 2.12132 
C -1.55874 2.683901 -0.795609 3 0 3 
z
" style="stroke: #ffffff; stroke-width: 0.48"/>
    </defs>
    <g clip-path="url(#p624ece26b3)">
     <use xlink:href="#m5cc4fbbc88" x="176.89979" y="246.884469" style="stroke: #ffffff; stroke-width: 0.48"/>
     <use xlink:href="#m5cc4fbbc88" x="186.244898" y="283.880384" style="stroke: #ffffff; stroke-width: 0.48"/>
     <use xlink:href="#m5cc4fbbc88" x="188.619475" y="267.818523" style="stroke: #ffffff; stroke-width: 0.48"/>
     <use xlink:href="#m5cc4fbbc88" x="193.13883" y="307.8" style="stroke: #ffffff; stroke-width: 0.48"/>
     <use xlink:href="#m5cc4fbbc88" x="200.185961" y="220.197763" style="stroke: #ffffff; stroke-width: 0.48"/>
     <use xlink:href="#m5cc4fbbc88" x="202.483939" y="213.605377" style="stroke: #ffffff; stroke-width: 0.48"/>
     <use xlink:href="#m5cc4fbbc88" x="204.858516" y="180.268556" style="stroke: #ffffff; stroke-width: 0.48"/>
     <use xlink:href="#m5cc4fbbc88" x="207.233092" y="189.086196" style="stroke: #ffffff; stroke-width: 0.48"/>
     <use xlink:href="#m5cc4fbbc88" x="209.53107" y="175.895162" style="stroke: #ffffff; stroke-width: 0.48"/>
     <use xlink:href="#m5cc4fbbc88" x="211.905647" y="161.581666" style="stroke: #ffffff; stroke-width: 0.48"/>
     <use xlink:href="#m5cc4fbbc88" x="214.203624" y="181.343932" style="stroke: #ffffff; stroke-width: 0.48"/>
     <use xlink:href="#m5cc4fbbc88" x="221.097557" y="162.283914" style="stroke: #ffffff; stroke-width: 0.48"/>
     <use xlink:href="#m5cc4fbbc88" x="228.144687" y="207.175211" style="stroke: #ffffff; stroke-width: 0.48"/>
     <use xlink:href="#m5cc4fbbc88" x="235.191818" y="272.03505" style="stroke: #ffffff; stroke-width: 0.48"/>
     <use xlink:href="#m5cc4fbbc88" x="242.16235" y="231.56975" style="stroke: #ffffff; stroke-width: 0.48"/>
     <use xlink:href="#m5cc4fbbc88" x="249.056283" y="220.794277" style="stroke: #ffffff; stroke-width: 0.48"/>
     <use xlink:href="#m5cc4fbbc88" x="256.103414" y="144.008613" style="stroke: #ffffff; stroke-width: 0.48"/>
     <use xlink:href="#m5cc4fbbc88" x="267.823099" y="144.601753" style="stroke: #ffffff; stroke-width: 0.48"/>
     <use xlink:href="#m5cc4fbbc88" x="274.87023" y="165.712925" style="stroke: #ffffff; stroke-width: 0.48"/>
     <use xlink:href="#m5cc4fbbc88" x="281.764162" y="152.063936" style="stroke: #ffffff; stroke-width: 0.48"/>
     <use xlink:href="#m5cc4fbbc88" x="288.811293" y="157.48223" style="stroke: #ffffff; stroke-width: 0.48"/>
     <use xlink:href="#m5cc4fbbc88" x="295.858424" y="169.377158" style="stroke: #ffffff; stroke-width: 0.48"/>
     <use xlink:href="#m5cc4fbbc88" x="305.050334" y="154.827826" style="stroke: #ffffff; stroke-width: 0.48"/>
     <use xlink:href="#m5cc4fbbc88" x="309.722888" y="111.871051" style="stroke: #ffffff; stroke-width: 0.48"/>
     <use xlink:href="#m5cc4fbbc88" x="316.770019" y="116.210456" style="stroke: #ffffff; stroke-width: 0.48"/>
     <use xlink:href="#m5cc4fbbc88" x="323.81715" y="126.927038" style="stroke: #ffffff; stroke-width: 0.48"/>
     <use xlink:href="#m5cc4fbbc88" x="330.864281" y="129.805505" style="stroke: #ffffff; stroke-width: 0.48"/>
     <use xlink:href="#m5cc4fbbc88" x="337.681614" y="165.304881" style="stroke: #ffffff; stroke-width: 0.48"/>
     <use xlink:href="#m5cc4fbbc88" x="344.728745" y="155.404739" style="stroke: #ffffff; stroke-width: 0.48"/>
     <use xlink:href="#m5cc4fbbc88" x="358.823007" y="126.85141" style="stroke: #ffffff; stroke-width: 0.48"/>
     <use xlink:href="#m5cc4fbbc88" x="365.64034" y="148.064769" style="stroke: #ffffff; stroke-width: 0.48"/>
     <use xlink:href="#m5cc4fbbc88" x="372.687471" y="150.353645" style="stroke: #ffffff; stroke-width: 0.48"/>
     <use xlink:href="#m5cc4fbbc88" x="379.734602" y="168.02045" style="stroke: #ffffff; stroke-width: 0.48"/>
     <use xlink:href="#m5cc4fbbc88" x="386.781733" y="168.935238" style="stroke: #ffffff; stroke-width: 0.48"/>
     <use xlink:href="#m5cc4fbbc88" x="393.675666" y="200.57764" style="stroke: #ffffff; stroke-width: 0.48"/>
     <use xlink:href="#m5cc4fbbc88" x="400.722797" y="230.900584" style="stroke: #ffffff; stroke-width: 0.48"/>
     <use xlink:href="#m5cc4fbbc88" x="407.769928" y="231.682686" style="stroke: #ffffff; stroke-width: 0.48"/>
     <use xlink:href="#m5cc4fbbc88" x="421.634392" y="156.876101" style="stroke: #ffffff; stroke-width: 0.48"/>
     <use xlink:href="#m5cc4fbbc88" x="428.681523" y="229.144748" style="stroke: #ffffff; stroke-width: 0.48"/>
     <use xlink:href="#m5cc4fbbc88" x="435.728654" y="237.431019" style="stroke: #ffffff; stroke-width: 0.48"/>
     <use xlink:href="#m5cc4fbbc88" x="442.775785" y="229.834344" style="stroke: #ffffff; stroke-width: 0.48"/>
     <use xlink:href="#m5cc4fbbc88" x="449.593118" y="261.658736" style="stroke: #ffffff; stroke-width: 0.48"/>
     <use xlink:href="#m5cc4fbbc88" x="451.967695" y="278.793257" style="stroke: #ffffff; stroke-width: 0.48"/>
     <use xlink:href="#m5cc4fbbc88" x="456.640249" y="258.63815" style="stroke: #ffffff; stroke-width: 0.48"/>
     <use xlink:href="#m5cc4fbbc88" x="463.68738" y="264.590497" style="stroke: #ffffff; stroke-width: 0.48"/>
     <use xlink:href="#m5cc4fbbc88" x="470.734511" y="252.813688" style="stroke: #ffffff; stroke-width: 0.48"/>
     <use xlink:href="#m5cc4fbbc88" x="477.551844" y="246.631921" style="stroke: #ffffff; stroke-width: 0.48"/>
     <use xlink:href="#m5cc4fbbc88" x="484.598975" y="264.953872" style="stroke: #ffffff; stroke-width: 0.48"/>
     <use xlink:href="#m5cc4fbbc88" x="491.646106" y="276.220785" style="stroke: #ffffff; stroke-width: 0.48"/>
     <use xlink:href="#m5cc4fbbc88" x="498.693237" y="276.759798" style="stroke: #ffffff; stroke-width: 0.48"/>
     <use xlink:href="#m5cc4fbbc88" x="505.587169" y="282.882005" style="stroke: #ffffff; stroke-width: 0.48"/>
     <use xlink:href="#m5cc4fbbc88" x="512.6343" y="266.889933" style="stroke: #ffffff; stroke-width: 0.48"/>
     <use xlink:href="#m5cc4fbbc88" x="519.681431" y="264.141955" style="stroke: #ffffff; stroke-width: 0.48"/>
     <use xlink:href="#m5cc4fbbc88" x="526.728562" y="252.59246" style="stroke: #ffffff; stroke-width: 0.48"/>
     <use xlink:href="#m5cc4fbbc88" x="540.593026" y="266.695859" style="stroke: #ffffff; stroke-width: 0.48"/>
     <use xlink:href="#m5cc4fbbc88" x="547.640157" y="248.801789" style="stroke: #ffffff; stroke-width: 0.48"/>
     <use xlink:href="#m5cc4fbbc88" x="554.687288" y="236.673644" style="stroke: #ffffff; stroke-width: 0.48"/>
     <use xlink:href="#m5cc4fbbc88" x="561.504622" y="255.976127" style="stroke: #ffffff; stroke-width: 0.48"/>
     <use xlink:href="#m5cc4fbbc88" x="566.177176" y="264.00953" style="stroke: #ffffff; stroke-width: 0.48"/>
     <use xlink:href="#m5cc4fbbc88" x="575.598883" y="236.8105" style="stroke: #ffffff; stroke-width: 0.48"/>
     <use xlink:href="#m5cc4fbbc88" x="582.646014" y="228.137085" style="stroke: #ffffff; stroke-width: 0.48"/>
     <use xlink:href="#m5cc4fbbc88" x="587.16537" y="227.781349" style="stroke: #ffffff; stroke-width: 0.48"/>
     <use xlink:href="#m5cc4fbbc88" x="596.510479" y="243.960067" style="stroke: #ffffff; stroke-width: 0.48"/>
     <use xlink:href="#m5cc4fbbc88" x="603.55761" y="236.191111" style="stroke: #ffffff; stroke-width: 0.48"/>
     <use xlink:href="#m5cc4fbbc88" x="610.604741" y="220.558699" style="stroke: #ffffff; stroke-width: 0.48"/>
     <use xlink:href="#m5cc4fbbc88" x="617.498673" y="252.833559" style="stroke: #ffffff; stroke-width: 0.48"/>
     <use xlink:href="#m5cc4fbbc88" x="619.87325" y="259.72623" style="stroke: #ffffff; stroke-width: 0.48"/>
     <use xlink:href="#m5cc4fbbc88" x="622.171227" y="264.924133" style="stroke: #ffffff; stroke-width: 0.48"/>
     <use xlink:href="#m5cc4fbbc88" x="624.545804" y="210.66525" style="stroke: #ffffff; stroke-width: 0.48"/>
     <use xlink:href="#m5cc4fbbc88" x="626.920381" y="250.440386" style="stroke: #ffffff; stroke-width: 0.48"/>
     <use xlink:href="#m5cc4fbbc88" x="629.218358" y="270.211124" style="stroke: #ffffff; stroke-width: 0.48"/>
     <use xlink:href="#m5cc4fbbc88" x="631.592935" y="219.367471" style="stroke: #ffffff; stroke-width: 0.48"/>
     <use xlink:href="#m5cc4fbbc88" x="636.265489" y="228.362949" style="stroke: #ffffff; stroke-width: 0.48"/>
     <use xlink:href="#m5cc4fbbc88" x="638.640066" y="193.272395" style="stroke: #ffffff; stroke-width: 0.48"/>
     <use xlink:href="#m5cc4fbbc88" x="640.784845" y="235.242294" style="stroke: #ffffff; stroke-width: 0.48"/>
     <use xlink:href="#m5cc4fbbc88" x="643.159422" y="265.038532" style="stroke: #ffffff; stroke-width: 0.48"/>
     <use xlink:href="#m5cc4fbbc88" x="645.457399" y="217.903607" style="stroke: #ffffff; stroke-width: 0.48"/>
     <use xlink:href="#m5cc4fbbc88" x="647.831976" y="227.766776" style="stroke: #ffffff; stroke-width: 0.48"/>
     <use xlink:href="#m5cc4fbbc88" x="650.129953" y="234.798928" style="stroke: #ffffff; stroke-width: 0.48"/>
     <use xlink:href="#m5cc4fbbc88" x="652.50453" y="205.186061" style="stroke: #ffffff; stroke-width: 0.48"/>
     <use xlink:href="#m5cc4fbbc88" x="654.879107" y="223.090859" style="stroke: #ffffff; stroke-width: 0.48"/>
     <use xlink:href="#m5cc4fbbc88" x="657.177084" y="217.659922" style="stroke: #ffffff; stroke-width: 0.48"/>
     <use xlink:href="#m5cc4fbbc88" x="659.551661" y="189.276086" style="stroke: #ffffff; stroke-width: 0.48"/>
     <use xlink:href="#m5cc4fbbc88" x="661.849639" y="206.396609" style="stroke: #ffffff; stroke-width: 0.48"/>
     <use xlink:href="#m5cc4fbbc88" x="664.224215" y="208.052675" style="stroke: #ffffff; stroke-width: 0.48"/>
     <use xlink:href="#m5cc4fbbc88" x="666.598792" y="178.181865" style="stroke: #ffffff; stroke-width: 0.48"/>
     <use xlink:href="#m5cc4fbbc88" x="668.743571" y="207.161486" style="stroke: #ffffff; stroke-width: 0.48"/>
     <use xlink:href="#m5cc4fbbc88" x="671.118148" y="213.721492" style="stroke: #ffffff; stroke-width: 0.48"/>
     <use xlink:href="#m5cc4fbbc88" x="673.416125" y="214.037102" style="stroke: #ffffff; stroke-width: 0.48"/>
     <use xlink:href="#m5cc4fbbc88" x="675.790702" y="225.30362" style="stroke: #ffffff; stroke-width: 0.48"/>
     <use xlink:href="#m5cc4fbbc88" x="678.088679" y="219.347601" style="stroke: #ffffff; stroke-width: 0.48"/>
     <use xlink:href="#m5cc4fbbc88" x="682.837833" y="211.962537" style="stroke: #ffffff; stroke-width: 0.48"/>
     <use xlink:href="#m5cc4fbbc88" x="685.13581" y="194.37523" style="stroke: #ffffff; stroke-width: 0.48"/>
     <use xlink:href="#m5cc4fbbc88" x="687.510387" y="166.27165" style="stroke: #ffffff; stroke-width: 0.48"/>
     <use xlink:href="#m5cc4fbbc88" x="689.808365" y="182.514484" style="stroke: #ffffff; stroke-width: 0.48"/>
     <use xlink:href="#m5cc4fbbc88" x="692.182941" y="174.617797" style="stroke: #ffffff; stroke-width: 0.48"/>
     <use xlink:href="#m5cc4fbbc88" x="696.702297" y="134.701533" style="stroke: #ffffff; stroke-width: 0.48"/>
     <use xlink:href="#m5cc4fbbc88" x="699.076874" y="160.52828" style="stroke: #ffffff; stroke-width: 0.48"/>
     <use xlink:href="#m5cc4fbbc88" x="703.749428" y="149.764289" style="stroke: #ffffff; stroke-width: 0.48"/>
     <use xlink:href="#m5cc4fbbc88" x="706.047406" y="139.435424" style="stroke: #ffffff; stroke-width: 0.48"/>
     <use xlink:href="#m5cc4fbbc88" x="708.421982" y="125.833182" style="stroke: #ffffff; stroke-width: 0.48"/>
     <use xlink:href="#m5cc4fbbc88" x="715.469113" y="114.849549" style="stroke: #ffffff; stroke-width: 0.48"/>
     <use xlink:href="#m5cc4fbbc88" x="722.516244" y="109.870028" style="stroke: #ffffff; stroke-width: 0.48"/>
     <use xlink:href="#m5cc4fbbc88" x="727.112199" y="111.251532" style="stroke: #ffffff; stroke-width: 0.48"/>
     <use xlink:href="#m5cc4fbbc88" x="729.410177" y="153.083472" style="stroke: #ffffff; stroke-width: 0.48"/>
     <use xlink:href="#m5cc4fbbc88" x="731.784753" y="165.411642" style="stroke: #ffffff; stroke-width: 0.48"/>
     <use xlink:href="#m5cc4fbbc88" x="734.082731" y="139.420412" style="stroke: #ffffff; stroke-width: 0.48"/>
     <use xlink:href="#m5cc4fbbc88" x="736.457308" y="120.51352" style="stroke: #ffffff; stroke-width: 0.48"/>
     <use xlink:href="#m5cc4fbbc88" x="738.831884" y="152.315924" style="stroke: #ffffff; stroke-width: 0.48"/>
     <use xlink:href="#m5cc4fbbc88" x="741.129862" y="117.131212" style="stroke: #ffffff; stroke-width: 0.48"/>
     <use xlink:href="#m5cc4fbbc88" x="743.504439" y="115.835731" style="stroke: #ffffff; stroke-width: 0.48"/>
     <use xlink:href="#m5cc4fbbc88" x="745.802416" y="138.593613" style="stroke: #ffffff; stroke-width: 0.48"/>
     <use xlink:href="#m5cc4fbbc88" x="748.176993" y="138.350823" style="stroke: #ffffff; stroke-width: 0.48"/>
     <use xlink:href="#m5cc4fbbc88" x="750.55157" y="128.196059" style="stroke: #ffffff; stroke-width: 0.48"/>
     <use xlink:href="#m5cc4fbbc88" x="752.696348" y="88.905067" style="stroke: #ffffff; stroke-width: 0.48"/>
     <use xlink:href="#m5cc4fbbc88" x="755.070925" y="142.864152" style="stroke: #ffffff; stroke-width: 0.48"/>
     <use xlink:href="#m5cc4fbbc88" x="757.368903" y="172.285136" style="stroke: #ffffff; stroke-width: 0.48"/>
     <use xlink:href="#m5cc4fbbc88" x="759.743479" y="184.560867" style="stroke: #ffffff; stroke-width: 0.48"/>
     <use xlink:href="#m5cc4fbbc88" x="762.041457" y="181.119158" style="stroke: #ffffff; stroke-width: 0.48"/>
     <use xlink:href="#m5cc4fbbc88" x="764.416034" y="176.129357" style="stroke: #ffffff; stroke-width: 0.48"/>
     <use xlink:href="#m5cc4fbbc88" x="766.79061" y="211.710312" style="stroke: #ffffff; stroke-width: 0.48"/>
     <use xlink:href="#m5cc4fbbc88" x="769.088588" y="211.922966" style="stroke: #ffffff; stroke-width: 0.48"/>
     <use xlink:href="#m5cc4fbbc88" x="771.463165" y="188.404101" style="stroke: #ffffff; stroke-width: 0.48"/>
     <use xlink:href="#m5cc4fbbc88" x="773.761142" y="213.979111" style="stroke: #ffffff; stroke-width: 0.48"/>
     <use xlink:href="#m5cc4fbbc88" x="776.135719" y="208.590393" style="stroke: #ffffff; stroke-width: 0.48"/>
     <use xlink:href="#m5cc4fbbc88" x="778.510296" y="182.771519" style="stroke: #ffffff; stroke-width: 0.48"/>
     <use xlink:href="#m5cc4fbbc88" x="780.655075" y="209.295164" style="stroke: #ffffff; stroke-width: 0.48"/>
     <use xlink:href="#m5cc4fbbc88" x="783.029651" y="185.974937" style="stroke: #ffffff; stroke-width: 0.48"/>
     <use xlink:href="#m5cc4fbbc88" x="785.327629" y="161.522696" style="stroke: #ffffff; stroke-width: 0.48"/>
     <use xlink:href="#m5cc4fbbc88" x="787.702206" y="178.135443" style="stroke: #ffffff; stroke-width: 0.48"/>
     <use xlink:href="#m5cc4fbbc88" x="790.000183" y="172.081466" style="stroke: #ffffff; stroke-width: 0.48"/>
     <use xlink:href="#m5cc4fbbc88" x="792.37476" y="165.511476" style="stroke: #ffffff; stroke-width: 0.48"/>
     <use xlink:href="#m5cc4fbbc88" x="794.749337" y="200.423965" style="stroke: #ffffff; stroke-width: 0.48"/>
     <use xlink:href="#m5cc4fbbc88" x="797.047314" y="189.391086" style="stroke: #ffffff; stroke-width: 0.48"/>
     <use xlink:href="#m5cc4fbbc88" x="799.421891" y="170.814159" style="stroke: #ffffff; stroke-width: 0.48"/>
     <use xlink:href="#m5cc4fbbc88" x="801.719868" y="183.205173" style="stroke: #ffffff; stroke-width: 0.48"/>
     <use xlink:href="#m5cc4fbbc88" x="804.094445" y="163.335408" style="stroke: #ffffff; stroke-width: 0.48"/>
     <use xlink:href="#m5cc4fbbc88" x="808.613801" y="177.891948" style="stroke: #ffffff; stroke-width: 0.48"/>
     <use xlink:href="#m5cc4fbbc88" x="810.988377" y="196.143367" style="stroke: #ffffff; stroke-width: 0.48"/>
     <use xlink:href="#m5cc4fbbc88" x="813.286355" y="206.446306" style="stroke: #ffffff; stroke-width: 0.48"/>
     <use xlink:href="#m5cc4fbbc88" x="815.660932" y="208.997353" style="stroke: #ffffff; stroke-width: 0.48"/>
     <use xlink:href="#m5cc4fbbc88" x="817.958909" y="188.388202" style="stroke: #ffffff; stroke-width: 0.48"/>
     <use xlink:href="#m5cc4fbbc88" x="820.333486" y="189.698338" style="stroke: #ffffff; stroke-width: 0.48"/>
     <use xlink:href="#m5cc4fbbc88" x="822.708063" y="234.735656" style="stroke: #ffffff; stroke-width: 0.48"/>
     <use xlink:href="#m5cc4fbbc88" x="825.00604" y="240.794712" style="stroke: #ffffff; stroke-width: 0.48"/>
     <use xlink:href="#m5cc4fbbc88" x="827.380617" y="203.541334" style="stroke: #ffffff; stroke-width: 0.48"/>
     <use xlink:href="#m5cc4fbbc88" x="829.678594" y="232.675715" style="stroke: #ffffff; stroke-width: 0.48"/>
     <use xlink:href="#m5cc4fbbc88" x="832.053171" y="225.201551" style="stroke: #ffffff; stroke-width: 0.48"/>
     <use xlink:href="#m5cc4fbbc88" x="834.427748" y="195.554918" style="stroke: #ffffff; stroke-width: 0.48"/>
     <use xlink:href="#m5cc4fbbc88" x="836.649126" y="235.528964" style="stroke: #ffffff; stroke-width: 0.48"/>
     <use xlink:href="#m5cc4fbbc88" x="839.023703" y="228.131216" style="stroke: #ffffff; stroke-width: 0.48"/>
     <use xlink:href="#m5cc4fbbc88" x="841.32168" y="223.333793" style="stroke: #ffffff; stroke-width: 0.48"/>
     <use xlink:href="#m5cc4fbbc88" x="843.696257" y="233.785513" style="stroke: #ffffff; stroke-width: 0.48"/>
     <use xlink:href="#m5cc4fbbc88" x="845.994234" y="218.515388" style="stroke: #ffffff; stroke-width: 0.48"/>
     <use xlink:href="#m5cc4fbbc88" x="848.368811" y="203.834057" style="stroke: #ffffff; stroke-width: 0.48"/>
     <use xlink:href="#m5cc4fbbc88" x="857.71392" y="235.568023" style="stroke: #ffffff; stroke-width: 0.48"/>
     <use xlink:href="#m5cc4fbbc88" x="873.952961" y="172.116284" style="stroke: #ffffff; stroke-width: 0.48"/>
     <use xlink:href="#m5cc4fbbc88" x="876.327537" y="170.826377" style="stroke: #ffffff; stroke-width: 0.48"/>
     <use xlink:href="#m5cc4fbbc88" x="892.566578" y="186.912019" style="stroke: #ffffff; stroke-width: 0.48"/>
     <use xlink:href="#m5cc4fbbc88" x="899.613709" y="67.804674" style="stroke: #ffffff; stroke-width: 0.48"/>
     <use xlink:href="#m5cc4fbbc88" x="906.66084" y="117.563772" style="stroke: #ffffff; stroke-width: 0.48"/>
     <use xlink:href="#m5cc4fbbc88" x="925.197859" y="55.8" style="stroke: #ffffff; stroke-width: 0.48"/>
     <use xlink:href="#m5cc4fbbc88" x="934.619566" y="76.381622" style="stroke: #ffffff; stroke-width: 0.48"/>
     <use xlink:href="#m5cc4fbbc88" x="941.590098" y="72.506231" style="stroke: #ffffff; stroke-width: 0.48"/>
     <use xlink:href="#m5cc4fbbc88" x="955.607761" y="110.087885" style="stroke: #ffffff; stroke-width: 0.48"/>
     <use xlink:href="#m5cc4fbbc88" x="957.905738" y="89.353348" style="stroke: #ffffff; stroke-width: 0.48"/>
     <use xlink:href="#m5cc4fbbc88" x="960.280315" y="97.066967" style="stroke: #ffffff; stroke-width: 0.48"/>
     <use xlink:href="#m5cc4fbbc88" x="962.654892" y="146.059819" style="stroke: #ffffff; stroke-width: 0.48"/>
     <use xlink:href="#m5cc4fbbc88" x="964.952869" y="108.405836" style="stroke: #ffffff; stroke-width: 0.48"/>
     <use xlink:href="#m5cc4fbbc88" x="967.327446" y="107.150123" style="stroke: #ffffff; stroke-width: 0.48"/>
     <use xlink:href="#m5cc4fbbc88" x="969.625423" y="128.644883" style="stroke: #ffffff; stroke-width: 0.48"/>
     <use xlink:href="#m5cc4fbbc88" x="972" y="121.463703" style="stroke: #ffffff; stroke-width: 0.48"/>
    </g>
   </g>
  </g>
 </g>
 <defs>
  <clipPath id="p624ece26b3">
   <rect x="135" y="43.2" width="837" height="277.2"/>
  </clipPath>
 </defs>
</svg>
