<?xml version="1.0" encoding="utf-8" standalone="no"?>
<!DOCTYPE svg PUBLIC "-//W3C//DTD SVG 1.1//EN"
  "http://www.w3.org/Graphics/SVG/1.1/DTD/svg11.dtd">
<svg xmlns:xlink="http://www.w3.org/1999/xlink" width="720pt" height="288pt" viewBox="0 0 720 288" xmlns="http://www.w3.org/2000/svg" version="1.1">
 <metadata>
  <rdf:RDF xmlns:dc="http://purl.org/dc/elements/1.1/" xmlns:cc="http://creativecommons.org/ns#" xmlns:rdf="http://www.w3.org/1999/02/22-rdf-syntax-ns#">
   <cc:Work>
    <dc:type rdf:resource="http://purl.org/dc/dcmitype/StillImage"/>
    <dc:date>2024-03-17T20:29:35.395621</dc:date>
    <dc:format>image/svg+xml</dc:format>
    <dc:creator>
     <cc:Agent>
      <dc:title>Matplotlib v3.8.2, https://matplotlib.org/</dc:title>
     </cc:Agent>
    </dc:creator>
   </cc:Work>
  </rdf:RDF>
 </metadata>
 <defs>
  <style type="text/css">*{stroke-linejoin: round; stroke-linecap: butt}</style>
 </defs>
 <g id="figure_1">
  <g id="patch_1">
   <path d="M 0 288 
L 720 288 
L 720 0 
L 0 0 
z
" style="fill: #ffffff"/>
  </g>
  <g id="axes_1">
   <g id="patch_2">
    <path d="M 38.420552 121.071395 
L 417.852318 121.071395 
L 417.852318 18.118365 
L 38.420552 18.118365 
z
" style="fill: #ffffff"/>
   </g>
   <g id="PolyCollection_1">
    <path d="M 48.941997 71.882063 
L 48.941997 66.605176 
L 49.480223 66.605176 
L 49.480223 67.215379 
L 50.556674 67.215379 
L 50.556674 70.04303 
L 51.0949 70.04303 
L 51.0949 71.882063 
L 51.0949 71.882063 
L 50.556674 71.882063 
L 50.556674 71.882063 
L 49.480223 71.882063 
L 49.480223 71.882063 
L 48.941997 71.882063 
z
" clip-path="url(#pe6efce1815)" style="fill: #17becf; fill-opacity: 0.6; stroke: #1f77b4; stroke-opacity: 0.8; stroke-width: 1.5"/>
    <path d="M 101.827014 71.882063 
L 101.827014 66.767094 
L 102.330515 66.767094 
L 102.330515 59.763509 
L 103.372243 59.763509 
L 103.372243 58.705388 
L 104.431332 58.705388 
L 104.431332 57.158942 
L 105.490421 57.158942 
L 105.490421 52.048588 
L 106.549511 52.048588 
L 106.549511 54.361163 
L 107.6086 54.361163 
L 107.6086 57.288754 
L 108.685051 57.288754 
L 108.685051 56.901599 
L 109.744141 56.901599 
L 109.744141 58.086838 
L 110.80323 58.086838 
L 110.80323 56.834188 
L 111.862319 56.834188 
L 111.862319 55.406769 
L 112.921409 55.406769 
L 112.921409 48.526731 
L 113.99786 48.526731 
L 113.99786 44.104819 
L 115.022225 44.104819 
L 115.022225 41.495977 
L 116.04659 41.495977 
L 116.04659 39.278272 
L 117.105679 39.278272 
L 117.105679 39.629862 
L 118.164769 39.629862 
L 118.164769 40.464952 
L 119.223858 40.464952 
L 119.223858 44.569647 
L 120.282947 44.569647 
L 120.282947 44.910405 
L 121.359399 44.910405 
L 121.359399 46.451908 
L 122.418488 46.451908 
L 122.418488 43.395434 
L 123.477577 43.395434 
L 123.477577 41.628578 
L 124.536667 41.628578 
L 124.536667 38.981368 
L 125.595756 38.981368 
L 125.595756 37.525409 
L 126.672207 37.525409 
L 126.672207 36.230072 
L 127.696572 36.230072 
L 127.696572 39.558374 
L 128.720938 39.558374 
L 128.720938 39.046601 
L 129.780027 39.046601 
L 129.780027 38.027384 
L 130.839116 38.027384 
L 130.839116 36.951439 
L 131.898205 36.951439 
L 131.898205 34.593859 
L 132.957295 34.593859 
L 132.957295 30.888204 
L 134.033746 30.888204 
L 134.033746 30.910284 
L 135.092836 30.910284 
L 135.092836 26.627005 
L 136.151925 26.627005 
L 136.151925 31.486546 
L 137.211014 31.486546 
L 137.211014 29.669081 
L 138.270103 29.669081 
L 138.270103 23.731411 
L 139.346555 23.731411 
L 139.346555 20.248601 
L 140.37092 20.248601 
L 140.37092 18.118365 
L 141.395285 18.118365 
L 141.395285 20.207563 
L 142.454374 20.207563 
L 142.454374 21.813523 
L 143.513464 21.813523 
L 143.513464 23.443914 
L 144.572553 23.443914 
L 144.572553 25.407813 
L 145.631642 25.407813 
L 145.631642 27.473272 
L 146.708094 27.473272 
L 146.708094 26.936606 
L 147.767183 26.936606 
L 147.767183 28.390289 
L 148.826272 28.390289 
L 148.826272 33.750281 
L 149.885362 33.750281 
L 149.885362 41.280468 
L 150.944451 41.280468 
L 150.944451 38.564643 
L 152.020902 38.564643 
L 152.020902 41.150249 
L 153.062629 41.150249 
L 153.062629 46.280825 
L 154.104357 46.280825 
L 154.104357 45.936965 
L 155.163446 45.936965 
L 155.163446 50.215797 
L 156.222535 50.215797 
L 156.222535 53.602209 
L 157.281625 53.602209 
L 157.281625 54.150921 
L 158.340714 54.150921 
L 158.340714 52.968582 
L 159.417165 52.968582 
L 159.417165 54.551925 
L 160.476255 54.551925 
L 160.476255 53.018857 
L 161.535344 53.018857 
L 161.535344 52.217483 
L 162.594433 52.217483 
L 162.594433 56.670854 
L 163.653523 56.670854 
L 163.653523 66.746534 
L 164.191748 66.746534 
L 164.191748 71.882063 
L 164.191748 71.882063 
L 163.653523 71.882063 
L 163.653523 71.882063 
L 162.594433 71.882063 
L 162.594433 71.882063 
L 161.535344 71.882063 
L 161.535344 71.882063 
L 160.476255 71.882063 
L 160.476255 71.882063 
L 159.417165 71.882063 
L 159.417165 71.882063 
L 158.340714 71.882063 
L 158.340714 71.882063 
L 157.281625 71.882063 
L 157.281625 71.882063 
L 156.222535 71.882063 
L 156.222535 71.882063 
L 155.163446 71.882063 
L 155.163446 71.882063 
L 154.104357 71.882063 
L 154.104357 71.882063 
L 153.062629 71.882063 
L 153.062629 71.882063 
L 152.020902 71.882063 
L 152.020902 71.882063 
L 150.944451 71.882063 
L 150.944451 71.882063 
L 149.885362 71.882063 
L 149.885362 71.882063 
L 148.826272 71.882063 
L 148.826272 71.882063 
L 147.767183 71.882063 
L 147.767183 71.882063 
L 146.708094 71.882063 
L 146.708094 71.882063 
L 145.631642 71.882063 
L 145.631642 71.882063 
L 144.572553 71.882063 
L 144.572553 71.882063 
L 143.513464 71.882063 
L 143.513464 71.882063 
L 142.454374 71.882063 
L 142.454374 71.882063 
L 141.395285 71.882063 
L 141.395285 71.882063 
L 140.37092 71.882063 
L 140.37092 71.882063 
L 139.346555 71.882063 
L 139.346555 71.882063 
L 138.270103 71.882063 
L 138.270103 71.882063 
L 137.211014 71.882063 
L 137.211014 71.882063 
L 136.151925 71.882063 
L 136.151925 71.882063 
L 135.092836 71.882063 
L 135.092836 71.882063 
L 134.033746 71.882063 
L 134.033746 71.882063 
L 132.957295 71.882063 
L 132.957295 71.882063 
L 131.898205 71.882063 
L 131.898205 71.882063 
L 130.839116 71.882063 
L 130.839116 71.882063 
L 129.780027 71.882063 
L 129.780027 71.882063 
L 128.720938 71.882063 
L 128.720938 71.882063 
L 127.696572 71.882063 
L 127.696572 71.882063 
L 126.672207 71.882063 
L 126.672207 71.882063 
L 125.595756 71.882063 
L 125.595756 71.882063 
L 124.536667 71.882063 
L 124.536667 71.882063 
L 123.477577 71.882063 
L 123.477577 71.882063 
L 122.418488 71.882063 
L 122.418488 71.882063 
L 121.359399 71.882063 
L 121.359399 71.882063 
L 120.282947 71.882063 
L 120.282947 71.882063 
L 119.223858 71.882063 
L 119.223858 71.882063 
L 118.164769 71.882063 
L 118.164769 71.882063 
L 117.105679 71.882063 
L 117.105679 71.882063 
L 116.04659 71.882063 
L 116.04659 71.882063 
L 115.022225 71.882063 
L 115.022225 71.882063 
L 113.99786 71.882063 
L 113.99786 71.882063 
L 112.921409 71.882063 
L 112.921409 71.882063 
L 111.862319 71.882063 
L 111.862319 71.882063 
L 110.80323 71.882063 
L 110.80323 71.882063 
L 109.744141 71.882063 
L 109.744141 71.882063 
L 108.685051 71.882063 
L 108.685051 71.882063 
L 107.6086 71.882063 
L 107.6086 71.882063 
L 106.549511 71.882063 
L 106.549511 71.882063 
L 105.490421 71.882063 
L 105.490421 71.882063 
L 104.431332 71.882063 
L 104.431332 71.882063 
L 103.372243 71.882063 
L 103.372243 71.882063 
L 102.330515 71.882063 
L 102.330515 71.882063 
L 101.827014 71.882063 
z
" clip-path="url(#pe6efce1815)" style="fill: #17becf; fill-opacity: 0.6; stroke: #1f77b4; stroke-opacity: 0.8; stroke-width: 1.5"/>
    <path d="M 239.196106 71.882063 
L 239.196106 70.222346 
L 239.734332 70.222346 
L 239.734332 68.430674 
L 240.810783 68.430674 
L 240.810783 71.678298 
L 241.349009 71.678298 
L 241.349009 71.882063 
L 241.349009 71.882063 
L 240.810783 71.882063 
L 240.810783 71.882063 
L 239.734332 71.882063 
L 239.734332 71.882063 
L 239.196106 71.882063 
z
" clip-path="url(#pe6efce1815)" style="fill: #17becf; fill-opacity: 0.6; stroke: #1f77b4; stroke-opacity: 0.8; stroke-width: 1.5"/>
    <path d="M 256.10681 71.882063 
L 256.10681 68.734252 
L 256.627674 68.734252 
L 256.627674 67.83546 
L 257.148538 67.83546 
L 257.148538 71.882063 
L 257.148538 71.882063 
L 256.627674 71.882063 
L 256.627674 71.882063 
L 256.10681 71.882063 
z
" clip-path="url(#pe6efce1815)" style="fill: #17becf; fill-opacity: 0.6; stroke: #1f77b4; stroke-opacity: 0.8; stroke-width: 1.5"/>
    <path d="M 259.266716 71.882063 
L 259.266716 71.169452 
L 259.266716 71.169452 
L 259.266716 71.882063 
L 259.266716 71.882063 
L 259.266716 71.882063 
z
" clip-path="url(#pe6efce1815)" style="fill: #17becf; fill-opacity: 0.6; stroke: #1f77b4; stroke-opacity: 0.8; stroke-width: 1.5"/>
    <path d="M 265.655976 71.882063 
L 265.655976 70.318024 
L 266.194202 70.318024 
L 266.194202 61.49395 
L 267.218567 61.49395 
L 267.218567 60.829978 
L 268.242932 60.829978 
L 268.242932 56.854543 
L 269.302022 56.854543 
L 269.302022 58.794329 
L 270.361111 58.794329 
L 270.361111 58.427542 
L 271.4202 58.427542 
L 271.4202 60.296014 
L 272.479289 60.296014 
L 272.479289 58.14665 
L 273.555741 58.14665 
L 273.555741 55.008515 
L 274.61483 55.008515 
L 274.61483 56.541394 
L 275.673919 56.541394 
L 275.673919 56.574572 
L 276.733009 56.574572 
L 276.733009 62.203963 
L 277.792098 62.203963 
L 277.792098 66.484566 
L 278.86855 66.484566 
L 278.86855 71.549609 
L 279.406775 71.549609 
L 279.406775 71.882063 
L 279.406775 71.882063 
L 278.86855 71.882063 
L 278.86855 71.882063 
L 277.792098 71.882063 
L 277.792098 71.882063 
L 276.733009 71.882063 
L 276.733009 71.882063 
L 275.673919 71.882063 
L 275.673919 71.882063 
L 274.61483 71.882063 
L 274.61483 71.882063 
L 273.555741 71.882063 
L 273.555741 71.882063 
L 272.479289 71.882063 
L 272.479289 71.882063 
L 271.4202 71.882063 
L 271.4202 71.882063 
L 270.361111 71.882063 
L 270.361111 71.882063 
L 269.302022 71.882063 
L 269.302022 71.882063 
L 268.242932 71.882063 
L 268.242932 71.882063 
L 267.218567 71.882063 
L 267.218567 71.882063 
L 266.194202 71.882063 
L 266.194202 71.882063 
L 265.655976 71.882063 
z
" clip-path="url(#pe6efce1815)" style="fill: #17becf; fill-opacity: 0.6; stroke: #1f77b4; stroke-opacity: 0.8; stroke-width: 1.5"/>
    <path d="M 295.17158 71.882063 
L 295.17158 69.019873 
L 295.709806 69.019873 
L 295.709806 68.111146 
L 296.768895 68.111146 
L 296.768895 66.36591 
L 297.827984 66.36591 
L 297.827984 64.989766 
L 298.904436 64.989766 
L 298.904436 65.14551 
L 299.963525 65.14551 
L 299.963525 68.053933 
L 301.022614 68.053933 
L 301.022614 67.886155 
L 302.081704 67.886155 
L 302.081704 68.444362 
L 302.602567 68.444362 
L 302.602567 71.882063 
L 302.602567 71.882063 
L 302.081704 71.882063 
L 302.081704 71.882063 
L 301.022614 71.882063 
L 301.022614 71.882063 
L 299.963525 71.882063 
L 299.963525 71.882063 
L 298.904436 71.882063 
L 298.904436 71.882063 
L 297.827984 71.882063 
L 297.827984 71.882063 
L 296.768895 71.882063 
L 296.768895 71.882063 
L 295.709806 71.882063 
L 295.709806 71.882063 
L 295.17158 71.882063 
z
" clip-path="url(#pe6efce1815)" style="fill: #17becf; fill-opacity: 0.6; stroke: #1f77b4; stroke-opacity: 0.8; stroke-width: 1.5"/>
    <path d="M 304.75547 71.882063 
L 304.75547 71.320001 
L 304.75547 71.320001 
L 304.75547 71.882063 
L 304.75547 71.882063 
L 304.75547 71.882063 
z
" clip-path="url(#pe6efce1815)" style="fill: #17becf; fill-opacity: 0.6; stroke: #1f77b4; stroke-opacity: 0.8; stroke-width: 1.5"/>
    <path d="M 306.838925 71.882063 
L 306.838925 71.82875 
L 306.838925 71.82875 
L 306.838925 71.882063 
L 306.838925 71.882063 
L 306.838925 71.882063 
z
" clip-path="url(#pe6efce1815)" style="fill: #17becf; fill-opacity: 0.6; stroke: #1f77b4; stroke-opacity: 0.8; stroke-width: 1.5"/>
    <path d="M 308.957103 71.882063 
L 308.957103 71.253695 
L 308.957103 71.253695 
L 308.957103 71.882063 
L 308.957103 71.882063 
L 308.957103 71.882063 
z
" clip-path="url(#pe6efce1815)" style="fill: #17becf; fill-opacity: 0.6; stroke: #1f77b4; stroke-opacity: 0.8; stroke-width: 1.5"/>
    <path d="M 332.187619 71.882063 
L 332.187619 65.858277 
L 332.708483 65.858277 
L 332.708483 64.941723 
L 333.767572 64.941723 
L 333.767572 66.21873 
L 334.826662 66.21873 
L 334.826662 68.680343 
L 335.885751 68.680343 
L 335.885751 68.172026 
L 336.962202 68.172026 
L 336.962202 66.779391 
L 338.021292 66.779391 
L 338.021292 67.980672 
L 339.080381 67.980672 
L 339.080381 68.209464 
L 340.13947 68.209464 
L 340.13947 63.070095 
L 341.19856 63.070095 
L 341.19856 63.984558 
L 342.275011 63.984558 
L 342.275011 66.565902 
L 343.299376 66.565902 
L 343.299376 68.382813 
L 343.785515 68.382813 
L 343.785515 71.882063 
L 343.785515 71.882063 
L 343.299376 71.882063 
L 343.299376 71.882063 
L 342.275011 71.882063 
L 342.275011 71.882063 
L 341.19856 71.882063 
L 341.19856 71.882063 
L 340.13947 71.882063 
L 340.13947 71.882063 
L 339.080381 71.882063 
L 339.080381 71.882063 
L 338.021292 71.882063 
L 338.021292 71.882063 
L 336.962202 71.882063 
L 336.962202 71.882063 
L 335.885751 71.882063 
L 335.885751 71.882063 
L 334.826662 71.882063 
L 334.826662 71.882063 
L 333.767572 71.882063 
L 333.767572 71.882063 
L 332.708483 71.882063 
L 332.708483 71.882063 
L 332.187619 71.882063 
z
" clip-path="url(#pe6efce1815)" style="fill: #17becf; fill-opacity: 0.6; stroke: #1f77b4; stroke-opacity: 0.8; stroke-width: 1.5"/>
    <path d="M 378.7181 71.882063 
L 378.7181 68.958507 
L 379.256326 68.958507 
L 379.256326 67.387789 
L 380.332778 67.387789 
L 380.332778 67.123115 
L 381.357143 67.123115 
L 381.357143 68.695589 
L 381.843282 68.695589 
L 381.843282 71.882063 
L 381.843282 71.882063 
L 381.357143 71.882063 
L 381.357143 71.882063 
L 380.332778 71.882063 
L 380.332778 71.882063 
L 379.256326 71.882063 
L 379.256326 71.882063 
L 378.7181 71.882063 
z
" clip-path="url(#pe6efce1815)" style="fill: #17becf; fill-opacity: 0.6; stroke: #1f77b4; stroke-opacity: 0.8; stroke-width: 1.5"/>
    <path d="M 383.961461 71.882063 
L 383.961461 71.368862 
L 384.499686 71.368862 
L 384.499686 69.430335 
L 385.558776 69.430335 
L 385.558776 66.40883 
L 386.617865 66.40883 
L 386.617865 66.997736 
L 387.694316 66.997736 
L 387.694316 68.936265 
L 388.753406 68.936265 
L 388.753406 69.757007 
L 389.812495 69.757007 
L 389.812495 70.434649 
L 390.350721 70.434649 
L 390.350721 71.882063 
L 390.350721 71.882063 
L 389.812495 71.882063 
L 389.812495 71.882063 
L 388.753406 71.882063 
L 388.753406 71.882063 
L 387.694316 71.882063 
L 387.694316 71.882063 
L 386.617865 71.882063 
L 386.617865 71.882063 
L 385.558776 71.882063 
L 385.558776 71.882063 
L 384.499686 71.882063 
L 384.499686 71.882063 
L 383.961461 71.882063 
z
" clip-path="url(#pe6efce1815)" style="fill: #17becf; fill-opacity: 0.6; stroke: #1f77b4; stroke-opacity: 0.8; stroke-width: 1.5"/>
    <path d="M 396.635808 71.882063 
L 396.635808 69.209091 
L 397.174034 69.209091 
L 397.174034 68.085267 
L 398.233123 68.085267 
L 398.233123 68.059989 
L 399.292212 68.059989 
L 399.292212 69.265751 
L 400.368664 69.265751 
L 400.368664 67.153292 
L 401.427753 67.153292 
L 401.427753 64.240414 
L 402.486842 64.240414 
L 402.486842 61.645603 
L 403.545932 61.645603 
L 403.545932 63.511485 
L 404.605021 63.511485 
L 404.605021 71.353571 
L 405.681472 71.353571 
L 405.681472 65.330055 
L 406.7232 65.330055 
L 406.7232 63.511949 
L 407.764927 63.511949 
L 407.764927 66.0471 
L 408.824016 66.0471 
L 408.824016 65.43183 
L 409.883105 65.43183 
L 409.883105 62.8474 
L 410.942195 62.8474 
L 410.942195 57.569299 
L 412.001284 57.569299 
L 412.001284 58.822595 
L 413.077736 58.822595 
L 413.077736 58.540197 
L 414.136825 58.540197 
L 414.136825 60.18834 
L 415.195914 60.18834 
L 415.195914 58.875239 
L 416.255003 58.875239 
L 416.255003 57.52775 
L 417.314093 57.52775 
L 417.314093 61.436474 
L 417.852318 61.436474 
L 417.852318 71.882063 
L 417.852318 71.882063 
L 417.314093 71.882063 
L 417.314093 71.882063 
L 416.255003 71.882063 
L 416.255003 71.882063 
L 415.195914 71.882063 
L 415.195914 71.882063 
L 414.136825 71.882063 
L 414.136825 71.882063 
L 413.077736 71.882063 
L 413.077736 71.882063 
L 412.001284 71.882063 
L 412.001284 71.882063 
L 410.942195 71.882063 
L 410.942195 71.882063 
L 409.883105 71.882063 
L 409.883105 71.882063 
L 408.824016 71.882063 
L 408.824016 71.882063 
L 407.764927 71.882063 
L 407.764927 71.882063 
L 406.7232 71.882063 
L 406.7232 71.882063 
L 405.681472 71.882063 
L 405.681472 71.882063 
L 404.605021 71.882063 
L 404.605021 71.882063 
L 403.545932 71.882063 
L 403.545932 71.882063 
L 402.486842 71.882063 
L 402.486842 71.882063 
L 401.427753 71.882063 
L 401.427753 71.882063 
L 400.368664 71.882063 
L 400.368664 71.882063 
L 399.292212 71.882063 
L 399.292212 71.882063 
L 398.233123 71.882063 
L 398.233123 71.882063 
L 397.174034 71.882063 
L 397.174034 71.882063 
L 396.635808 71.882063 
z
" clip-path="url(#pe6efce1815)" style="fill: #17becf; fill-opacity: 0.6; stroke: #1f77b4; stroke-opacity: 0.8; stroke-width: 1.5"/>
   </g>
   <g id="PolyCollection_2">
    <path d="M 38.420552 71.882063 
L 38.420552 82.181184 
L 38.906692 82.181184 
L 38.906692 82.841039 
L 39.931057 82.841039 
L 39.931057 81.478559 
L 40.990146 81.478559 
L 40.990146 78.070243 
L 42.049236 78.070243 
L 42.049236 76.473463 
L 43.108325 76.473463 
L 43.108325 74.551276 
L 44.167414 74.551276 
L 44.167414 77.999658 
L 45.243866 77.999658 
L 45.243866 77.997791 
L 46.302955 77.997791 
L 46.302955 77.275174 
L 47.362044 77.275174 
L 47.362044 75.37834 
L 47.90027 75.37834 
L 47.90027 71.882063 
L 47.90027 71.882063 
L 47.362044 71.882063 
L 47.362044 71.882063 
L 46.302955 71.882063 
L 46.302955 71.882063 
L 45.243866 71.882063 
L 45.243866 71.882063 
L 44.167414 71.882063 
L 44.167414 71.882063 
L 43.108325 71.882063 
L 43.108325 71.882063 
L 42.049236 71.882063 
L 42.049236 71.882063 
L 40.990146 71.882063 
L 40.990146 71.882063 
L 39.931057 71.882063 
L 39.931057 71.882063 
L 38.906692 71.882063 
L 38.906692 71.882063 
L 38.420552 71.882063 
z
" clip-path="url(#pe6efce1815)" style="fill: #d62728; fill-opacity: 0.6; stroke: #b22222; stroke-opacity: 0.8; stroke-width: 1.5"/>
    <path d="M 52.101903 71.882063 
L 52.101903 74.5396 
L 52.640129 74.5396 
L 52.640129 79.266233 
L 53.699218 79.266233 
L 53.699218 79.815553 
L 54.758307 79.815553 
L 54.758307 83.21807 
L 55.817397 83.21807 
L 55.817397 82.559859 
L 56.876486 82.559859 
L 56.876486 78.720064 
L 57.952937 78.720064 
L 57.952937 77.137097 
L 59.012027 77.137097 
L 59.012027 75.260064 
L 60.071116 75.260064 
L 60.071116 75.72047 
L 61.130205 75.72047 
L 61.130205 80.147601 
L 62.189294 80.147601 
L 62.189294 76.853162 
L 63.265746 76.853162 
L 63.265746 80.404207 
L 64.290111 80.404207 
L 64.290111 81.110153 
L 65.314476 81.110153 
L 65.314476 83.96882 
L 66.373565 83.96882 
L 66.373565 81.196836 
L 67.432655 81.196836 
L 67.432655 83.019704 
L 68.491744 83.019704 
L 68.491744 78.109288 
L 69.550833 78.109288 
L 69.550833 74.152464 
L 70.627285 74.152464 
L 70.627285 75.267061 
L 71.686374 75.267061 
L 71.686374 75.335378 
L 72.745463 75.335378 
L 72.745463 74.73384 
L 73.804553 74.73384 
L 73.804553 80.59206 
L 74.863642 80.59206 
L 74.863642 81.993262 
L 75.940093 81.993262 
L 75.940093 83.912458 
L 76.964458 83.912458 
L 76.964458 84.851006 
L 77.988824 84.851006 
L 77.988824 84.589024 
L 79.047913 84.589024 
L 79.047913 86.150999 
L 80.107002 86.150999 
L 80.107002 88.650302 
L 81.166091 88.650302 
L 81.166091 86.674823 
L 82.225181 86.674823 
L 82.225181 87.215966 
L 83.301632 87.215966 
L 83.301632 90.372343 
L 84.360721 90.372343 
L 84.360721 91.154243 
L 85.419811 91.154243 
L 85.419811 92.53166 
L 86.4789 92.53166 
L 86.4789 91.917538 
L 87.537989 91.917538 
L 87.537989 92.343598 
L 88.614441 92.343598 
L 88.614441 92.988816 
L 89.638806 92.988816 
L 89.638806 90.891567 
L 90.663171 90.891567 
L 90.663171 90.061588 
L 91.72226 90.061588 
L 91.72226 91.149217 
L 92.78135 91.149217 
L 92.78135 91.549449 
L 93.840439 91.549449 
L 93.840439 91.234622 
L 94.899528 91.234622 
L 94.899528 86.834252 
L 95.97598 86.834252 
L 95.97598 85.416695 
L 97.035069 85.416695 
L 97.035069 83.266569 
L 98.094158 83.266569 
L 98.094158 78.862412 
L 99.153248 78.862412 
L 99.153248 74.984912 
L 100.212337 74.984912 
L 100.212337 75.132663 
L 100.750563 75.132663 
L 100.750563 71.882063 
L 100.750563 71.882063 
L 100.212337 71.882063 
L 100.212337 71.882063 
L 99.153248 71.882063 
L 99.153248 71.882063 
L 98.094158 71.882063 
L 98.094158 71.882063 
L 97.035069 71.882063 
L 97.035069 71.882063 
L 95.97598 71.882063 
L 95.97598 71.882063 
L 94.899528 71.882063 
L 94.899528 71.882063 
L 93.840439 71.882063 
L 93.840439 71.882063 
L 92.78135 71.882063 
L 92.78135 71.882063 
L 91.72226 71.882063 
L 91.72226 71.882063 
L 90.663171 71.882063 
L 90.663171 71.882063 
L 89.638806 71.882063 
L 89.638806 71.882063 
L 88.614441 71.882063 
L 88.614441 71.882063 
L 87.537989 71.882063 
L 87.537989 71.882063 
L 86.4789 71.882063 
L 86.4789 71.882063 
L 85.419811 71.882063 
L 85.419811 71.882063 
L 84.360721 71.882063 
L 84.360721 71.882063 
L 83.301632 71.882063 
L 83.301632 71.882063 
L 82.225181 71.882063 
L 82.225181 71.882063 
L 81.166091 71.882063 
L 81.166091 71.882063 
L 80.107002 71.882063 
L 80.107002 71.882063 
L 79.047913 71.882063 
L 79.047913 71.882063 
L 77.988824 71.882063 
L 77.988824 71.882063 
L 76.964458 71.882063 
L 76.964458 71.882063 
L 75.940093 71.882063 
L 75.940093 71.882063 
L 74.863642 71.882063 
L 74.863642 71.882063 
L 73.804553 71.882063 
L 73.804553 71.882063 
L 72.745463 71.882063 
L 72.745463 71.882063 
L 71.686374 71.882063 
L 71.686374 71.882063 
L 70.627285 71.882063 
L 70.627285 71.882063 
L 69.550833 71.882063 
L 69.550833 71.882063 
L 68.491744 71.882063 
L 68.491744 71.882063 
L 67.432655 71.882063 
L 67.432655 71.882063 
L 66.373565 71.882063 
L 66.373565 71.882063 
L 65.314476 71.882063 
L 65.314476 71.882063 
L 64.290111 71.882063 
L 64.290111 71.882063 
L 63.265746 71.882063 
L 63.265746 71.882063 
L 62.189294 71.882063 
L 62.189294 71.882063 
L 61.130205 71.882063 
L 61.130205 71.882063 
L 60.071116 71.882063 
L 60.071116 71.882063 
L 59.012027 71.882063 
L 59.012027 71.882063 
L 57.952937 71.882063 
L 57.952937 71.882063 
L 56.876486 71.882063 
L 56.876486 71.882063 
L 55.817397 71.882063 
L 55.817397 71.882063 
L 54.758307 71.882063 
L 54.758307 71.882063 
L 53.699218 71.882063 
L 53.699218 71.882063 
L 52.640129 71.882063 
L 52.640129 71.882063 
L 52.101903 71.882063 
z
" clip-path="url(#pe6efce1815)" style="fill: #d62728; fill-opacity: 0.6; stroke: #b22222; stroke-opacity: 0.8; stroke-width: 1.5"/>
    <path d="M 165.2682 71.882063 
L 165.2682 73.007729 
L 165.754339 73.007729 
L 165.754339 75.879092 
L 166.778704 75.879092 
L 166.778704 79.824496 
L 167.837793 79.824496 
L 167.837793 81.61863 
L 168.896883 81.61863 
L 168.896883 82.388557 
L 169.955972 82.388557 
L 169.955972 80.420252 
L 171.015061 80.420252 
L 171.015061 81.92609 
L 172.091513 81.92609 
L 172.091513 83.922696 
L 173.150602 83.922696 
L 173.150602 87.25519 
L 174.209691 87.25519 
L 174.209691 85.988802 
L 175.268781 85.988802 
L 175.268781 86.983564 
L 176.32787 86.983564 
L 176.32787 84.507715 
L 177.404321 84.507715 
L 177.404321 83.107852 
L 178.428687 83.107852 
L 178.428687 83.359793 
L 179.453052 83.359793 
L 179.453052 81.247494 
L 180.512141 81.247494 
L 180.512141 82.383947 
L 181.57123 82.383947 
L 181.57123 82.961854 
L 182.63032 82.961854 
L 182.63032 85.486277 
L 183.689409 85.486277 
L 183.689409 88.173495 
L 184.76586 88.173495 
L 184.76586 85.47169 
L 185.82495 85.47169 
L 185.82495 88.384734 
L 186.884039 88.384734 
L 186.884039 88.976372 
L 187.943128 88.976372 
L 187.943128 94.813737 
L 189.002217 94.813737 
L 189.002217 102.109004 
L 190.078669 102.109004 
L 190.078669 98.909213 
L 191.103034 98.909213 
L 191.103034 100.543861 
L 192.127399 100.543861 
L 192.127399 91.971373 
L 193.186488 91.971373 
L 193.186488 90.498615 
L 194.245578 90.498615 
L 194.245578 88.639939 
L 195.304667 88.639939 
L 195.304667 91.541989 
L 196.363756 91.541989 
L 196.363756 92.013437 
L 197.440208 92.013437 
L 197.440208 93.085587 
L 198.499297 93.085587 
L 198.499297 93.540492 
L 199.558386 93.540492 
L 199.558386 92.126493 
L 200.617476 92.126493 
L 200.617476 90.901334 
L 201.676565 90.901334 
L 201.676565 92.743486 
L 202.753016 92.743486 
L 202.753016 91.546259 
L 203.794744 91.546259 
L 203.794744 94.21281 
L 204.836471 94.21281 
L 204.836471 94.227677 
L 205.89556 94.227677 
L 205.89556 94.997853 
L 206.954649 94.997853 
L 206.954649 89.295043 
L 208.013739 89.295043 
L 208.013739 88.193589 
L 209.072828 88.193589 
L 209.072828 87.538413 
L 210.149279 87.538413 
L 210.149279 82.213604 
L 211.208369 82.213604 
L 211.208369 80.624749 
L 212.267458 80.624749 
L 212.267458 84.661679 
L 213.326547 84.661679 
L 213.326547 83.22093 
L 214.385637 83.22093 
L 214.385637 82.708566 
L 215.462088 82.708566 
L 215.462088 79.063016 
L 216.486453 79.063016 
L 216.486453 81.939 
L 217.510818 81.939 
L 217.510818 81.772943 
L 218.569907 81.772943 
L 218.569907 81.37202 
L 219.628997 81.37202 
L 219.628997 77.650938 
L 220.688086 77.650938 
L 220.688086 78.550968 
L 221.747175 78.550968 
L 221.747175 81.356495 
L 222.823627 81.356495 
L 222.823627 80.283266 
L 223.882716 80.283266 
L 223.882716 78.975663 
L 224.941805 78.975663 
L 224.941805 83.362811 
L 226.000895 83.362811 
L 226.000895 78.042677 
L 227.059984 78.042677 
L 227.059984 77.930486 
L 228.136435 77.930486 
L 228.136435 75.286059 
L 229.160801 75.286059 
L 229.160801 73.935366 
L 230.185166 73.935366 
L 230.185166 75.439787 
L 231.244255 75.439787 
L 231.244255 74.631973 
L 232.303344 74.631973 
L 232.303344 76.389432 
L 233.362434 76.389432 
L 233.362434 78.305648 
L 234.421523 78.305648 
L 234.421523 79.257189 
L 235.497974 79.257189 
L 235.497974 80.589169 
L 236.557064 80.589169 
L 236.557064 80.119724 
L 237.616153 80.119724 
L 237.616153 77.38489 
L 238.154379 77.38489 
L 238.154379 71.882063 
L 238.154379 71.882063 
L 237.616153 71.882063 
L 237.616153 71.882063 
L 236.557064 71.882063 
L 236.557064 71.882063 
L 235.497974 71.882063 
L 235.497974 71.882063 
L 234.421523 71.882063 
L 234.421523 71.882063 
L 233.362434 71.882063 
L 233.362434 71.882063 
L 232.303344 71.882063 
L 232.303344 71.882063 
L 231.244255 71.882063 
L 231.244255 71.882063 
L 230.185166 71.882063 
L 230.185166 71.882063 
L 229.160801 71.882063 
L 229.160801 71.882063 
L 228.136435 71.882063 
L 228.136435 71.882063 
L 227.059984 71.882063 
L 227.059984 71.882063 
L 226.000895 71.882063 
L 226.000895 71.882063 
L 224.941805 71.882063 
L 224.941805 71.882063 
L 223.882716 71.882063 
L 223.882716 71.882063 
L 222.823627 71.882063 
L 222.823627 71.882063 
L 221.747175 71.882063 
L 221.747175 71.882063 
L 220.688086 71.882063 
L 220.688086 71.882063 
L 219.628997 71.882063 
L 219.628997 71.882063 
L 218.569907 71.882063 
L 218.569907 71.882063 
L 217.510818 71.882063 
L 217.510818 71.882063 
L 216.486453 71.882063 
L 216.486453 71.882063 
L 215.462088 71.882063 
L 215.462088 71.882063 
L 214.385637 71.882063 
L 214.385637 71.882063 
L 213.326547 71.882063 
L 213.326547 71.882063 
L 212.267458 71.882063 
L 212.267458 71.882063 
L 211.208369 71.882063 
L 211.208369 71.882063 
L 210.149279 71.882063 
L 210.149279 71.882063 
L 209.072828 71.882063 
L 209.072828 71.882063 
L 208.013739 71.882063 
L 208.013739 71.882063 
L 206.954649 71.882063 
L 206.954649 71.882063 
L 205.89556 71.882063 
L 205.89556 71.882063 
L 204.836471 71.882063 
L 204.836471 71.882063 
L 203.794744 71.882063 
L 203.794744 71.882063 
L 202.753016 71.882063 
L 202.753016 71.882063 
L 201.676565 71.882063 
L 201.676565 71.882063 
L 200.617476 71.882063 
L 200.617476 71.882063 
L 199.558386 71.882063 
L 199.558386 71.882063 
L 198.499297 71.882063 
L 198.499297 71.882063 
L 197.440208 71.882063 
L 197.440208 71.882063 
L 196.363756 71.882063 
L 196.363756 71.882063 
L 195.304667 71.882063 
L 195.304667 71.882063 
L 194.245578 71.882063 
L 194.245578 71.882063 
L 193.186488 71.882063 
L 193.186488 71.882063 
L 192.127399 71.882063 
L 192.127399 71.882063 
L 191.103034 71.882063 
L 191.103034 71.882063 
L 190.078669 71.882063 
L 190.078669 71.882063 
L 189.002217 71.882063 
L 189.002217 71.882063 
L 187.943128 71.882063 
L 187.943128 71.882063 
L 186.884039 71.882063 
L 186.884039 71.882063 
L 185.82495 71.882063 
L 185.82495 71.882063 
L 184.76586 71.882063 
L 184.76586 71.882063 
L 183.689409 71.882063 
L 183.689409 71.882063 
L 182.63032 71.882063 
L 182.63032 71.882063 
L 181.57123 71.882063 
L 181.57123 71.882063 
L 180.512141 71.882063 
L 180.512141 71.882063 
L 179.453052 71.882063 
L 179.453052 71.882063 
L 178.428687 71.882063 
L 178.428687 71.882063 
L 177.404321 71.882063 
L 177.404321 71.882063 
L 176.32787 71.882063 
L 176.32787 71.882063 
L 175.268781 71.882063 
L 175.268781 71.882063 
L 174.209691 71.882063 
L 174.209691 71.882063 
L 173.150602 71.882063 
L 173.150602 71.882063 
L 172.091513 71.882063 
L 172.091513 71.882063 
L 171.015061 71.882063 
L 171.015061 71.882063 
L 169.955972 71.882063 
L 169.955972 71.882063 
L 168.896883 71.882063 
L 168.896883 71.882063 
L 167.837793 71.882063 
L 167.837793 71.882063 
L 166.778704 71.882063 
L 166.778704 71.882063 
L 165.754339 71.882063 
L 165.754339 71.882063 
L 165.2682 71.882063 
z
" clip-path="url(#pe6efce1815)" style="fill: #d62728; fill-opacity: 0.6; stroke: #b22222; stroke-opacity: 0.8; stroke-width: 1.5"/>
    <path d="M 242.321287 71.882063 
L 242.321287 72.923953 
L 242.859513 72.923953 
L 242.859513 81.431301 
L 243.918602 81.431301 
L 243.918602 82.282266 
L 244.977692 82.282266 
L 244.977692 82.001818 
L 246.036781 82.001818 
L 246.036781 79.962951 
L 247.09587 79.962951 
L 247.09587 80.359148 
L 248.172322 80.359148 
L 248.172322 81.330131 
L 249.231411 81.330131 
L 249.231411 79.871398 
L 250.2905 79.871398 
L 250.2905 77.718995 
L 251.34959 77.718995 
L 251.34959 79.249519 
L 252.408679 79.249519 
L 252.408679 77.159324 
L 253.48513 77.159324 
L 253.48513 75.761378 
L 254.526858 75.761378 
L 254.526858 72.174159 
L 255.030359 72.174159 
L 255.030359 71.882063 
L 255.030359 71.882063 
L 254.526858 71.882063 
L 254.526858 71.882063 
L 253.48513 71.882063 
L 253.48513 71.882063 
L 252.408679 71.882063 
L 252.408679 71.882063 
L 251.34959 71.882063 
L 251.34959 71.882063 
L 250.2905 71.882063 
L 250.2905 71.882063 
L 249.231411 71.882063 
L 249.231411 71.882063 
L 248.172322 71.882063 
L 248.172322 71.882063 
L 247.09587 71.882063 
L 247.09587 71.882063 
L 246.036781 71.882063 
L 246.036781 71.882063 
L 244.977692 71.882063 
L 244.977692 71.882063 
L 243.918602 71.882063 
L 243.918602 71.882063 
L 242.859513 71.882063 
L 242.859513 71.882063 
L 242.321287 71.882063 
z
" clip-path="url(#pe6efce1815)" style="fill: #d62728; fill-opacity: 0.6; stroke: #b22222; stroke-opacity: 0.8; stroke-width: 1.5"/>
    <path d="M 258.224989 71.882063 
L 258.224989 72.754376 
L 258.224989 72.754376 
L 258.224989 71.882063 
L 258.224989 71.882063 
L 258.224989 71.882063 
z
" clip-path="url(#pe6efce1815)" style="fill: #d62728; fill-opacity: 0.6; stroke: #b22222; stroke-opacity: 0.8; stroke-width: 1.5"/>
    <path d="M 260.343168 71.882063 
L 260.343168 72.317338 
L 260.881393 72.317338 
L 260.881393 74.373924 
L 261.940483 74.373924 
L 261.940483 78.163599 
L 262.999572 78.163599 
L 262.999572 78.371337 
L 264.058661 78.371337 
L 264.058661 74.17042 
L 264.579525 74.17042 
L 264.579525 71.882063 
L 264.579525 71.882063 
L 264.058661 71.882063 
L 264.058661 71.882063 
L 262.999572 71.882063 
L 262.999572 71.882063 
L 261.940483 71.882063 
L 261.940483 71.882063 
L 260.881393 71.882063 
L 260.881393 71.882063 
L 260.343168 71.882063 
z
" clip-path="url(#pe6efce1815)" style="fill: #d62728; fill-opacity: 0.6; stroke: #b22222; stroke-opacity: 0.8; stroke-width: 1.5"/>
    <path d="M 280.379054 71.882063 
L 280.379054 75.808815 
L 280.91728 75.808815 
L 280.91728 77.281161 
L 281.976369 77.281161 
L 281.976369 79.781482 
L 283.035458 79.781482 
L 283.035458 78.817098 
L 284.094548 78.817098 
L 284.094548 77.761253 
L 285.153637 77.761253 
L 285.153637 78.235822 
L 286.230088 78.235822 
L 286.230088 76.808879 
L 287.289178 76.808879 
L 287.289178 78.048869 
L 288.348267 78.048869 
L 288.348267 77.69713 
L 289.407356 77.69713 
L 289.407356 82.345444 
L 290.466446 82.345444 
L 290.466446 80.770146 
L 291.542897 80.770146 
L 291.542897 74.298361 
L 292.567262 74.298361 
L 292.567262 76.029368 
L 293.591627 76.029368 
L 293.591627 72.088704 
L 294.129853 72.088704 
L 294.129853 71.882063 
L 294.129853 71.882063 
L 293.591627 71.882063 
L 293.591627 71.882063 
L 292.567262 71.882063 
L 292.567262 71.882063 
L 291.542897 71.882063 
L 291.542897 71.882063 
L 290.466446 71.882063 
L 290.466446 71.882063 
L 289.407356 71.882063 
L 289.407356 71.882063 
L 288.348267 71.882063 
L 288.348267 71.882063 
L 287.289178 71.882063 
L 287.289178 71.882063 
L 286.230088 71.882063 
L 286.230088 71.882063 
L 285.153637 71.882063 
L 285.153637 71.882063 
L 284.094548 71.882063 
L 284.094548 71.882063 
L 283.035458 71.882063 
L 283.035458 71.882063 
L 281.976369 71.882063 
L 281.976369 71.882063 
L 280.91728 71.882063 
L 280.91728 71.882063 
L 280.379054 71.882063 
z
" clip-path="url(#pe6efce1815)" style="fill: #d62728; fill-opacity: 0.6; stroke: #b22222; stroke-opacity: 0.8; stroke-width: 1.5"/>
    <path d="M 303.679019 71.882063 
L 303.679019 73.007454 
L 303.679019 73.007454 
L 303.679019 71.882063 
L 303.679019 71.882063 
L 303.679019 71.882063 
z
" clip-path="url(#pe6efce1815)" style="fill: #d62728; fill-opacity: 0.6; stroke: #b22222; stroke-opacity: 0.8; stroke-width: 1.5"/>
    <path d="M 305.762473 71.882063 
L 305.762473 72.29747 
L 305.762473 72.29747 
L 305.762473 71.882063 
L 305.762473 71.882063 
L 305.762473 71.882063 
z
" clip-path="url(#pe6efce1815)" style="fill: #d62728; fill-opacity: 0.6; stroke: #b22222; stroke-opacity: 0.8; stroke-width: 1.5"/>
    <path d="M 307.880652 71.882063 
L 307.880652 71.979251 
L 307.880652 71.979251 
L 307.880652 71.882063 
L 307.880652 71.882063 
L 307.880652 71.882063 
z
" clip-path="url(#pe6efce1815)" style="fill: #d62728; fill-opacity: 0.6; stroke: #b22222; stroke-opacity: 0.8; stroke-width: 1.5"/>
    <path d="M 309.99883 71.882063 
L 309.99883 73.696585 
L 310.537056 73.696585 
L 310.537056 72.584597 
L 311.613507 72.584597 
L 311.613507 75.179207 
L 312.672597 75.179207 
L 312.672597 78.227145 
L 313.731686 78.227145 
L 313.731686 74.441396 
L 314.790775 74.441396 
L 314.790775 76.44738 
L 315.849865 76.44738 
L 315.849865 77.300917 
L 316.926316 77.300917 
L 316.926316 82.803244 
L 317.950681 82.803244 
L 317.950681 83.110476 
L 318.975046 83.110476 
L 318.975046 87.373463 
L 320.034136 87.373463 
L 320.034136 86.667843 
L 321.093225 86.667843 
L 321.093225 89.608878 
L 322.152314 89.608878 
L 322.152314 90.758906 
L 323.211403 90.758906 
L 323.211403 92.853181 
L 324.287855 92.853181 
L 324.287855 95.064707 
L 325.346944 95.064707 
L 325.346944 92.067417 
L 326.406034 92.067417 
L 326.406034 95.099758 
L 327.465123 95.099758 
L 327.465123 92.88804 
L 328.524212 92.88804 
L 328.524212 88.281545 
L 329.600664 88.281545 
L 329.600664 82.990002 
L 330.625029 82.990002 
L 330.625029 72.606831 
L 331.111168 72.606831 
L 331.111168 71.882063 
L 331.111168 71.882063 
L 330.625029 71.882063 
L 330.625029 71.882063 
L 329.600664 71.882063 
L 329.600664 71.882063 
L 328.524212 71.882063 
L 328.524212 71.882063 
L 327.465123 71.882063 
L 327.465123 71.882063 
L 326.406034 71.882063 
L 326.406034 71.882063 
L 325.346944 71.882063 
L 325.346944 71.882063 
L 324.287855 71.882063 
L 324.287855 71.882063 
L 323.211403 71.882063 
L 323.211403 71.882063 
L 322.152314 71.882063 
L 322.152314 71.882063 
L 321.093225 71.882063 
L 321.093225 71.882063 
L 320.034136 71.882063 
L 320.034136 71.882063 
L 318.975046 71.882063 
L 318.975046 71.882063 
L 317.950681 71.882063 
L 317.950681 71.882063 
L 316.926316 71.882063 
L 316.926316 71.882063 
L 315.849865 71.882063 
L 315.849865 71.882063 
L 314.790775 71.882063 
L 314.790775 71.882063 
L 313.731686 71.882063 
L 313.731686 71.882063 
L 312.672597 71.882063 
L 312.672597 71.882063 
L 311.613507 71.882063 
L 311.613507 71.882063 
L 310.537056 71.882063 
L 310.537056 71.882063 
L 309.99883 71.882063 
z
" clip-path="url(#pe6efce1815)" style="fill: #d62728; fill-opacity: 0.6; stroke: #b22222; stroke-opacity: 0.8; stroke-width: 1.5"/>
    <path d="M 344.861967 71.882063 
L 344.861967 72.846596 
L 345.38283 72.846596 
L 345.38283 77.736669 
L 346.44192 77.736669 
L 346.44192 80.023194 
L 347.501009 80.023194 
L 347.501009 85.158581 
L 348.560098 85.158581 
L 348.560098 84.019201 
L 349.63655 84.019201 
L 349.63655 83.319128 
L 350.695639 83.319128 
L 350.695639 82.569928 
L 351.754728 82.569928 
L 351.754728 86.129738 
L 352.813818 86.129738 
L 352.813818 86.400572 
L 353.872907 86.400572 
L 353.872907 81.206122 
L 354.949358 81.206122 
L 354.949358 83.780434 
L 355.991086 83.780434 
L 355.991086 85.333115 
L 357.032813 85.333115 
L 357.032813 86.619278 
L 358.091902 86.619278 
L 358.091902 87.909281 
L 359.150991 87.909281 
L 359.150991 87.701114 
L 360.210081 87.701114 
L 360.210081 89.243075 
L 361.26917 89.243075 
L 361.26917 88.311376 
L 362.345621 88.311376 
L 362.345621 87.552706 
L 363.404711 87.552706 
L 363.404711 84.512535 
L 364.4638 84.512535 
L 364.4638 84.733205 
L 365.522889 84.733205 
L 365.522889 87.075154 
L 366.581979 87.075154 
L 366.581979 86.316997 
L 367.65843 86.316997 
L 367.65843 87.035725 
L 368.682795 87.035725 
L 368.682795 82.586144 
L 369.70716 82.586144 
L 369.70716 75.511327 
L 370.76625 75.511327 
L 370.76625 75.137228 
L 371.825339 75.137228 
L 371.825339 74.670074 
L 372.884428 74.670074 
L 372.884428 72.596313 
L 373.943518 72.596313 
L 373.943518 72.716066 
L 375.019969 72.716066 
L 375.019969 73.844971 
L 376.079058 73.844971 
L 376.079058 75.943169 
L 377.138148 75.943169 
L 377.138148 72.784433 
L 377.676373 72.784433 
L 377.676373 71.882063 
L 377.676373 71.882063 
L 377.138148 71.882063 
L 377.138148 71.882063 
L 376.079058 71.882063 
L 376.079058 71.882063 
L 375.019969 71.882063 
L 375.019969 71.882063 
L 373.943518 71.882063 
L 373.943518 71.882063 
L 372.884428 71.882063 
L 372.884428 71.882063 
L 371.825339 71.882063 
L 371.825339 71.882063 
L 370.76625 71.882063 
L 370.76625 71.882063 
L 369.70716 71.882063 
L 369.70716 71.882063 
L 368.682795 71.882063 
L 368.682795 71.882063 
L 367.65843 71.882063 
L 367.65843 71.882063 
L 366.581979 71.882063 
L 366.581979 71.882063 
L 365.522889 71.882063 
L 365.522889 71.882063 
L 364.4638 71.882063 
L 364.4638 71.882063 
L 363.404711 71.882063 
L 363.404711 71.882063 
L 362.345621 71.882063 
L 362.345621 71.882063 
L 361.26917 71.882063 
L 361.26917 71.882063 
L 360.210081 71.882063 
L 360.210081 71.882063 
L 359.150991 71.882063 
L 359.150991 71.882063 
L 358.091902 71.882063 
L 358.091902 71.882063 
L 357.032813 71.882063 
L 357.032813 71.882063 
L 355.991086 71.882063 
L 355.991086 71.882063 
L 354.949358 71.882063 
L 354.949358 71.882063 
L 353.872907 71.882063 
L 353.872907 71.882063 
L 352.813818 71.882063 
L 352.813818 71.882063 
L 351.754728 71.882063 
L 351.754728 71.882063 
L 350.695639 71.882063 
L 350.695639 71.882063 
L 349.63655 71.882063 
L 349.63655 71.882063 
L 348.560098 71.882063 
L 348.560098 71.882063 
L 347.501009 71.882063 
L 347.501009 71.882063 
L 346.44192 71.882063 
L 346.44192 71.882063 
L 345.38283 71.882063 
L 345.38283 71.882063 
L 344.861967 71.882063 
z
" clip-path="url(#pe6efce1815)" style="fill: #d62728; fill-opacity: 0.6; stroke: #b22222; stroke-opacity: 0.8; stroke-width: 1.5"/>
    <path d="M 382.919733 71.882063 
L 382.919733 73.029443 
L 382.919733 73.029443 
L 382.919733 71.882063 
L 382.919733 71.882063 
L 382.919733 71.882063 
z
" clip-path="url(#pe6efce1815)" style="fill: #d62728; fill-opacity: 0.6; stroke: #b22222; stroke-opacity: 0.8; stroke-width: 1.5"/>
    <path d="M 391.392448 71.882063 
L 391.392448 73.258507 
L 391.930674 73.258507 
L 391.930674 74.833532 
L 393.007125 74.833532 
L 393.007125 76.603992 
L 394.03149 76.603992 
L 394.03149 73.691433 
L 395.055855 73.691433 
L 395.055855 74.591738 
L 395.594081 74.591738 
L 395.594081 71.882063 
L 395.594081 71.882063 
L 395.055855 71.882063 
L 395.055855 71.882063 
L 394.03149 71.882063 
L 394.03149 71.882063 
L 393.007125 71.882063 
L 393.007125 71.882063 
L 391.930674 71.882063 
L 391.930674 71.882063 
L 391.392448 71.882063 
z
" clip-path="url(#pe6efce1815)" style="fill: #d62728; fill-opacity: 0.6; stroke: #b22222; stroke-opacity: 0.8; stroke-width: 1.5"/>
   </g>
   <g id="matplotlib.axis_1">
    <g id="xtick_1">
     <g id="line2d_1">
      <defs>
       <path id="m4aa6047159" d="M 0 0 
L 0 3.5 
" style="stroke: #000000; stroke-width: 0.8"/>
      </defs>
      <g>
       <use xlink:href="#m4aa6047159" x="50.053173" y="121.071395" style="stroke: #000000; stroke-width: 0.8"/>
      </g>
     </g>
    </g>
    <g id="xtick_2">
     <g id="line2d_2">
      <g>
       <use xlink:href="#m4aa6047159" x="100.785287" y="121.071395" style="stroke: #000000; stroke-width: 0.8"/>
      </g>
     </g>
    </g>
    <g id="xtick_3">
     <g id="line2d_3">
      <g>
       <use xlink:href="#m4aa6047159" x="151.517401" y="121.071395" style="stroke: #000000; stroke-width: 0.8"/>
      </g>
     </g>
    </g>
    <g id="xtick_4">
     <g id="line2d_4">
      <g>
       <use xlink:href="#m4aa6047159" x="202.249515" y="121.071395" style="stroke: #000000; stroke-width: 0.8"/>
      </g>
     </g>
    </g>
    <g id="xtick_5">
     <g id="line2d_5">
      <g>
       <use xlink:href="#m4aa6047159" x="252.981629" y="121.071395" style="stroke: #000000; stroke-width: 0.8"/>
      </g>
     </g>
    </g>
    <g id="xtick_6">
     <g id="line2d_6">
      <g>
       <use xlink:href="#m4aa6047159" x="303.713743" y="121.071395" style="stroke: #000000; stroke-width: 0.8"/>
      </g>
     </g>
    </g>
    <g id="xtick_7">
     <g id="line2d_7">
      <g>
       <use xlink:href="#m4aa6047159" x="354.445857" y="121.071395" style="stroke: #000000; stroke-width: 0.8"/>
      </g>
     </g>
    </g>
    <g id="xtick_8">
     <g id="line2d_8">
      <g>
       <use xlink:href="#m4aa6047159" x="405.177971" y="121.071395" style="stroke: #000000; stroke-width: 0.8"/>
      </g>
     </g>
    </g>
   </g>
   <g id="matplotlib.axis_2">
    <g id="ytick_1">
     <g id="line2d_9">
      <defs>
       <path id="m16bd7acca4" d="M 0 0 
L -3.5 0 
" style="stroke: #000000; stroke-width: 0.8"/>
      </defs>
      <g>
       <use xlink:href="#m16bd7acca4" x="38.420552" y="104.674951" style="stroke: #000000; stroke-width: 0.8"/>
      </g>
     </g>
     <g id="text_1">
      <!-- −2 -->
      <g transform="translate(16.678365 108.47417) scale(0.1 -0.1)">
       <defs>
        <path id="DejaVuSans-2212" d="M 678 2272 
L 4684 2272 
L 4684 1741 
L 678 1741 
L 678 2272 
z
" transform="scale(0.015625)"/>
        <path id="DejaVuSans-32" d="M 1228 531 
L 3431 531 
L 3431 0 
L 469 0 
L 469 531 
Q 828 903 1448 1529 
Q 2069 2156 2228 2338 
Q 2531 2678 2651 2914 
Q 2772 3150 2772 3378 
Q 2772 3750 2511 3984 
Q 2250 4219 1831 4219 
Q 1534 4219 1204 4116 
Q 875 4013 500 3803 
L 500 4441 
Q 881 4594 1212 4672 
Q 1544 4750 1819 4750 
Q 2544 4750 2975 4387 
Q 3406 4025 3406 3419 
Q 3406 3131 3298 2873 
Q 3191 2616 2906 2266 
Q 2828 2175 2409 1742 
Q 1991 1309 1228 531 
z
" transform="scale(0.015625)"/>
       </defs>
       <use xlink:href="#DejaVuSans-2212"/>
       <use xlink:href="#DejaVuSans-32" x="83.789062"/>
      </g>
     </g>
    </g>
    <g id="ytick_2">
     <g id="line2d_10">
      <g>
       <use xlink:href="#m16bd7acca4" x="38.420552" y="71.882063" style="stroke: #000000; stroke-width: 0.8"/>
      </g>
     </g>
     <g id="text_2">
      <!-- 0 -->
      <g transform="translate(25.058052 75.681282) scale(0.1 -0.1)">
       <defs>
        <path id="DejaVuSans-30" d="M 2034 4250 
Q 1547 4250 1301 3770 
Q 1056 3291 1056 2328 
Q 1056 1369 1301 889 
Q 1547 409 2034 409 
Q 2525 409 2770 889 
Q 3016 1369 3016 2328 
Q 3016 3291 2770 3770 
Q 2525 4250 2034 4250 
z
M 2034 4750 
Q 2819 4750 3233 4129 
Q 3647 3509 3647 2328 
Q 3647 1150 3233 529 
Q 2819 -91 2034 -91 
Q 1250 -91 836 529 
Q 422 1150 422 2328 
Q 422 3509 836 4129 
Q 1250 4750 2034 4750 
z
" transform="scale(0.015625)"/>
       </defs>
       <use xlink:href="#DejaVuSans-30"/>
      </g>
     </g>
    </g>
    <g id="ytick_3">
     <g id="line2d_11">
      <g>
       <use xlink:href="#m16bd7acca4" x="38.420552" y="39.089175" style="stroke: #000000; stroke-width: 0.8"/>
      </g>
     </g>
     <g id="text_3">
      <!-- 2 -->
      <g transform="translate(25.058052 42.888394) scale(0.1 -0.1)">
       <use xlink:href="#DejaVuSans-32"/>
      </g>
     </g>
    </g>
    <g id="text_4">
     <!-- SPI-48 -->
     <g transform="translate(10.598677 85.425349) rotate(-90) scale(0.1 -0.1)">
      <defs>
       <path id="DejaVuSans-53" d="M 3425 4513 
L 3425 3897 
Q 3066 4069 2747 4153 
Q 2428 4238 2131 4238 
Q 1616 4238 1336 4038 
Q 1056 3838 1056 3469 
Q 1056 3159 1242 3001 
Q 1428 2844 1947 2747 
L 2328 2669 
Q 3034 2534 3370 2195 
Q 3706 1856 3706 1288 
Q 3706 609 3251 259 
Q 2797 -91 1919 -91 
Q 1588 -91 1214 -16 
Q 841 59 441 206 
L 441 856 
Q 825 641 1194 531 
Q 1563 422 1919 422 
Q 2459 422 2753 634 
Q 3047 847 3047 1241 
Q 3047 1584 2836 1778 
Q 2625 1972 2144 2069 
L 1759 2144 
Q 1053 2284 737 2584 
Q 422 2884 422 3419 
Q 422 4038 858 4394 
Q 1294 4750 2059 4750 
Q 2388 4750 2728 4690 
Q 3069 4631 3425 4513 
z
" transform="scale(0.015625)"/>
       <path id="DejaVuSans-50" d="M 1259 4147 
L 1259 2394 
L 2053 2394 
Q 2494 2394 2734 2622 
Q 2975 2850 2975 3272 
Q 2975 3691 2734 3919 
Q 2494 4147 2053 4147 
L 1259 4147 
z
M 628 4666 
L 2053 4666 
Q 2838 4666 3239 4311 
Q 3641 3956 3641 3272 
Q 3641 2581 3239 2228 
Q 2838 1875 2053 1875 
L 1259 1875 
L 1259 0 
L 628 0 
L 628 4666 
z
" transform="scale(0.015625)"/>
       <path id="DejaVuSans-49" d="M 628 4666 
L 1259 4666 
L 1259 0 
L 628 0 
L 628 4666 
z
" transform="scale(0.015625)"/>
       <path id="DejaVuSans-2d" d="M 313 2009 
L 1997 2009 
L 1997 1497 
L 313 1497 
L 313 2009 
z
" transform="scale(0.015625)"/>
       <path id="DejaVuSans-34" d="M 2419 4116 
L 825 1625 
L 2419 1625 
L 2419 4116 
z
M 2253 4666 
L 3047 4666 
L 3047 1625 
L 3713 1625 
L 3713 1100 
L 3047 1100 
L 3047 0 
L 2419 0 
L 2419 1100 
L 313 1100 
L 313 1709 
L 2253 4666 
z
" transform="scale(0.015625)"/>
       <path id="DejaVuSans-38" d="M 2034 2216 
Q 1584 2216 1326 1975 
Q 1069 1734 1069 1313 
Q 1069 891 1326 650 
Q 1584 409 2034 409 
Q 2484 409 2743 651 
Q 3003 894 3003 1313 
Q 3003 1734 2745 1975 
Q 2488 2216 2034 2216 
z
M 1403 2484 
Q 997 2584 770 2862 
Q 544 3141 544 3541 
Q 544 4100 942 4425 
Q 1341 4750 2034 4750 
Q 2731 4750 3128 4425 
Q 3525 4100 3525 3541 
Q 3525 3141 3298 2862 
Q 3072 2584 2669 2484 
Q 3125 2378 3379 2068 
Q 3634 1759 3634 1313 
Q 3634 634 3220 271 
Q 2806 -91 2034 -91 
Q 1263 -91 848 271 
Q 434 634 434 1313 
Q 434 1759 690 2068 
Q 947 2378 1403 2484 
z
M 1172 3481 
Q 1172 3119 1398 2916 
Q 1625 2713 2034 2713 
Q 2441 2713 2670 2916 
Q 2900 3119 2900 3481 
Q 2900 3844 2670 4047 
Q 2441 4250 2034 4250 
Q 1625 4250 1398 4047 
Q 1172 3844 1172 3481 
z
" transform="scale(0.015625)"/>
      </defs>
      <use xlink:href="#DejaVuSans-53"/>
      <use xlink:href="#DejaVuSans-50" x="63.476562"/>
      <use xlink:href="#DejaVuSans-49" x="123.779297"/>
      <use xlink:href="#DejaVuSans-2d" x="153.271484"/>
      <use xlink:href="#DejaVuSans-34" x="189.355469"/>
      <use xlink:href="#DejaVuSans-38" x="252.978516"/>
     </g>
    </g>
   </g>
   <g id="line2d_12">
    <path d="M 38.420552 71.882063 
L 417.852318 71.882063 
" clip-path="url(#pe6efce1815)" style="fill: none; stroke: #000000; stroke-width: 1.5; stroke-linecap: square"/>
   </g>
   <g id="patch_3">
    <path d="M 38.420552 121.071395 
L 38.420552 18.118365 
" style="fill: none; stroke: #000000; stroke-width: 0.8; stroke-linejoin: miter; stroke-linecap: square"/>
   </g>
   <g id="patch_4">
    <path d="M 38.420552 121.071395 
L 417.852318 121.071395 
" style="fill: none; stroke: #000000; stroke-width: 0.8; stroke-linejoin: miter; stroke-linecap: square"/>
   </g>
   <g id="text_5">
    <!-- (a) -->
    <g transform="translate(38.420552 12.118365) scale(0.12 -0.12)">
     <defs>
      <path id="DejaVuSans-Bold-28" d="M 2413 -844 
L 1484 -844 
Q 1006 -72 778 623 
Q 550 1319 550 2003 
Q 550 2688 779 3389 
Q 1009 4091 1484 4856 
L 2413 4856 
Q 2013 4116 1813 3408 
Q 1613 2700 1613 2009 
Q 1613 1319 1811 609 
Q 2009 -100 2413 -844 
z
" transform="scale(0.015625)"/>
      <path id="DejaVuSans-Bold-61" d="M 2106 1575 
Q 1756 1575 1579 1456 
Q 1403 1338 1403 1106 
Q 1403 894 1545 773 
Q 1688 653 1941 653 
Q 2256 653 2472 879 
Q 2688 1106 2688 1447 
L 2688 1575 
L 2106 1575 
z
M 3816 1997 
L 3816 0 
L 2688 0 
L 2688 519 
Q 2463 200 2181 54 
Q 1900 -91 1497 -91 
Q 953 -91 614 226 
Q 275 544 275 1050 
Q 275 1666 698 1953 
Q 1122 2241 2028 2241 
L 2688 2241 
L 2688 2328 
Q 2688 2594 2478 2717 
Q 2269 2841 1825 2841 
Q 1466 2841 1156 2769 
Q 847 2697 581 2553 
L 581 3406 
Q 941 3494 1303 3539 
Q 1666 3584 2028 3584 
Q 2975 3584 3395 3211 
Q 3816 2838 3816 1997 
z
" transform="scale(0.015625)"/>
      <path id="DejaVuSans-Bold-29" d="M 513 -844 
Q 913 -100 1113 609 
Q 1313 1319 1313 2009 
Q 1313 2700 1113 3408 
Q 913 4116 513 4856 
L 1441 4856 
Q 1916 4091 2145 3389 
Q 2375 2688 2375 2003 
Q 2375 1319 2147 623 
Q 1919 -72 1441 -844 
L 513 -844 
z
" transform="scale(0.015625)"/>
     </defs>
     <use xlink:href="#DejaVuSans-Bold-28"/>
     <use xlink:href="#DejaVuSans-Bold-61" x="45.703125"/>
     <use xlink:href="#DejaVuSans-Bold-29" x="113.183594"/>
    </g>
   </g>
  </g>
  <g id="axes_2">
   <g id="patch_5">
    <path d="M 462.817069 254.64351 
L 715.77158 254.64351 
L 715.77158 18.118365 
L 462.817069 18.118365 
z
" style="fill: #ffffff"/>
   </g>
   <g id="matplotlib.axis_3">
    <g id="xtick_9">
     <g id="line2d_13">
      <g>
       <use xlink:href="#m4aa6047159" x="467.979406" y="254.64351" style="stroke: #000000; stroke-width: 0.8"/>
      </g>
     </g>
     <g id="text_6">
      <!-- 1 -->
      <g transform="translate(464.798156 269.241947) scale(0.1 -0.1)">
       <defs>
        <path id="DejaVuSans-31" d="M 794 531 
L 1825 531 
L 1825 4091 
L 703 3866 
L 703 4441 
L 1819 4666 
L 2450 4666 
L 2450 531 
L 3481 531 
L 3481 0 
L 794 0 
L 794 531 
z
" transform="scale(0.015625)"/>
       </defs>
       <use xlink:href="#DejaVuSans-31"/>
      </g>
     </g>
    </g>
    <g id="xtick_10">
     <g id="line2d_14">
      <g>
       <use xlink:href="#m4aa6047159" x="478.30408" y="254.64351" style="stroke: #000000; stroke-width: 0.8"/>
      </g>
     </g>
     <g id="text_7">
      <!-- 3 -->
      <g transform="translate(475.12283 269.241947) scale(0.1 -0.1)">
       <defs>
        <path id="DejaVuSans-33" d="M 2597 2516 
Q 3050 2419 3304 2112 
Q 3559 1806 3559 1356 
Q 3559 666 3084 287 
Q 2609 -91 1734 -91 
Q 1441 -91 1130 -33 
Q 819 25 488 141 
L 488 750 
Q 750 597 1062 519 
Q 1375 441 1716 441 
Q 2309 441 2620 675 
Q 2931 909 2931 1356 
Q 2931 1769 2642 2001 
Q 2353 2234 1838 2234 
L 1294 2234 
L 1294 2753 
L 1863 2753 
Q 2328 2753 2575 2939 
Q 2822 3125 2822 3475 
Q 2822 3834 2567 4026 
Q 2313 4219 1838 4219 
Q 1578 4219 1281 4162 
Q 984 4106 628 3988 
L 628 4550 
Q 988 4650 1302 4700 
Q 1616 4750 1894 4750 
Q 2613 4750 3031 4423 
Q 3450 4097 3450 3541 
Q 3450 3153 3228 2886 
Q 3006 2619 2597 2516 
z
" transform="scale(0.015625)"/>
       </defs>
       <use xlink:href="#DejaVuSans-33"/>
      </g>
     </g>
    </g>
    <g id="xtick_11">
     <g id="line2d_15">
      <g>
       <use xlink:href="#m4aa6047159" x="493.791091" y="254.64351" style="stroke: #000000; stroke-width: 0.8"/>
      </g>
     </g>
     <g id="text_8">
      <!-- 6 -->
      <g transform="translate(490.609841 269.241947) scale(0.1 -0.1)">
       <defs>
        <path id="DejaVuSans-36" d="M 2113 2584 
Q 1688 2584 1439 2293 
Q 1191 2003 1191 1497 
Q 1191 994 1439 701 
Q 1688 409 2113 409 
Q 2538 409 2786 701 
Q 3034 994 3034 1497 
Q 3034 2003 2786 2293 
Q 2538 2584 2113 2584 
z
M 3366 4563 
L 3366 3988 
Q 3128 4100 2886 4159 
Q 2644 4219 2406 4219 
Q 1781 4219 1451 3797 
Q 1122 3375 1075 2522 
Q 1259 2794 1537 2939 
Q 1816 3084 2150 3084 
Q 2853 3084 3261 2657 
Q 3669 2231 3669 1497 
Q 3669 778 3244 343 
Q 2819 -91 2113 -91 
Q 1303 -91 875 529 
Q 447 1150 447 2328 
Q 447 3434 972 4092 
Q 1497 4750 2381 4750 
Q 2619 4750 2861 4703 
Q 3103 4656 3366 4563 
z
" transform="scale(0.015625)"/>
       </defs>
       <use xlink:href="#DejaVuSans-36"/>
      </g>
     </g>
    </g>
    <g id="xtick_12">
     <g id="line2d_16">
      <g>
       <use xlink:href="#m4aa6047159" x="524.765113" y="254.64351" style="stroke: #000000; stroke-width: 0.8"/>
      </g>
     </g>
     <g id="text_9">
      <!-- 12 -->
      <g transform="translate(518.402613 269.241947) scale(0.1 -0.1)">
       <use xlink:href="#DejaVuSans-31"/>
       <use xlink:href="#DejaVuSans-32" x="63.623047"/>
      </g>
     </g>
    </g>
    <g id="xtick_13">
     <g id="line2d_17">
      <g>
       <use xlink:href="#m4aa6047159" x="586.713156" y="254.64351" style="stroke: #000000; stroke-width: 0.8"/>
      </g>
     </g>
     <g id="text_10">
      <!-- 24 -->
      <g transform="translate(580.350656 269.241947) scale(0.1 -0.1)">
       <use xlink:href="#DejaVuSans-32"/>
       <use xlink:href="#DejaVuSans-34" x="63.623047"/>
      </g>
     </g>
    </g>
    <g id="xtick_14">
     <g id="line2d_18">
      <g>
       <use xlink:href="#m4aa6047159" x="710.609243" y="254.64351" style="stroke: #000000; stroke-width: 0.8"/>
      </g>
     </g>
     <g id="text_11">
      <!-- 48 -->
      <g transform="translate(704.246743 269.241947) scale(0.1 -0.1)">
       <use xlink:href="#DejaVuSans-34"/>
       <use xlink:href="#DejaVuSans-38" x="63.623047"/>
      </g>
     </g>
    </g>
    <g id="text_12">
     <!-- SPI Accumulation Period -->
     <g transform="translate(528.794325 282.920073) scale(0.1 -0.1)">
      <defs>
       <path id="DejaVuSans-20" transform="scale(0.015625)"/>
       <path id="DejaVuSans-41" d="M 2188 4044 
L 1331 1722 
L 3047 1722 
L 2188 4044 
z
M 1831 4666 
L 2547 4666 
L 4325 0 
L 3669 0 
L 3244 1197 
L 1141 1197 
L 716 0 
L 50 0 
L 1831 4666 
z
" transform="scale(0.015625)"/>
       <path id="DejaVuSans-63" d="M 3122 3366 
L 3122 2828 
Q 2878 2963 2633 3030 
Q 2388 3097 2138 3097 
Q 1578 3097 1268 2742 
Q 959 2388 959 1747 
Q 959 1106 1268 751 
Q 1578 397 2138 397 
Q 2388 397 2633 464 
Q 2878 531 3122 666 
L 3122 134 
Q 2881 22 2623 -34 
Q 2366 -91 2075 -91 
Q 1284 -91 818 406 
Q 353 903 353 1747 
Q 353 2603 823 3093 
Q 1294 3584 2113 3584 
Q 2378 3584 2631 3529 
Q 2884 3475 3122 3366 
z
" transform="scale(0.015625)"/>
       <path id="DejaVuSans-75" d="M 544 1381 
L 544 3500 
L 1119 3500 
L 1119 1403 
Q 1119 906 1312 657 
Q 1506 409 1894 409 
Q 2359 409 2629 706 
Q 2900 1003 2900 1516 
L 2900 3500 
L 3475 3500 
L 3475 0 
L 2900 0 
L 2900 538 
Q 2691 219 2414 64 
Q 2138 -91 1772 -91 
Q 1169 -91 856 284 
Q 544 659 544 1381 
z
M 1991 3584 
L 1991 3584 
z
" transform="scale(0.015625)"/>
       <path id="DejaVuSans-6d" d="M 3328 2828 
Q 3544 3216 3844 3400 
Q 4144 3584 4550 3584 
Q 5097 3584 5394 3201 
Q 5691 2819 5691 2113 
L 5691 0 
L 5113 0 
L 5113 2094 
Q 5113 2597 4934 2840 
Q 4756 3084 4391 3084 
Q 3944 3084 3684 2787 
Q 3425 2491 3425 1978 
L 3425 0 
L 2847 0 
L 2847 2094 
Q 2847 2600 2669 2842 
Q 2491 3084 2119 3084 
Q 1678 3084 1418 2786 
Q 1159 2488 1159 1978 
L 1159 0 
L 581 0 
L 581 3500 
L 1159 3500 
L 1159 2956 
Q 1356 3278 1631 3431 
Q 1906 3584 2284 3584 
Q 2666 3584 2933 3390 
Q 3200 3197 3328 2828 
z
" transform="scale(0.015625)"/>
       <path id="DejaVuSans-6c" d="M 603 4863 
L 1178 4863 
L 1178 0 
L 603 0 
L 603 4863 
z
" transform="scale(0.015625)"/>
       <path id="DejaVuSans-61" d="M 2194 1759 
Q 1497 1759 1228 1600 
Q 959 1441 959 1056 
Q 959 750 1161 570 
Q 1363 391 1709 391 
Q 2188 391 2477 730 
Q 2766 1069 2766 1631 
L 2766 1759 
L 2194 1759 
z
M 3341 1997 
L 3341 0 
L 2766 0 
L 2766 531 
Q 2569 213 2275 61 
Q 1981 -91 1556 -91 
Q 1019 -91 701 211 
Q 384 513 384 1019 
Q 384 1609 779 1909 
Q 1175 2209 1959 2209 
L 2766 2209 
L 2766 2266 
Q 2766 2663 2505 2880 
Q 2244 3097 1772 3097 
Q 1472 3097 1187 3025 
Q 903 2953 641 2809 
L 641 3341 
Q 956 3463 1253 3523 
Q 1550 3584 1831 3584 
Q 2591 3584 2966 3190 
Q 3341 2797 3341 1997 
z
" transform="scale(0.015625)"/>
       <path id="DejaVuSans-74" d="M 1172 4494 
L 1172 3500 
L 2356 3500 
L 2356 3053 
L 1172 3053 
L 1172 1153 
Q 1172 725 1289 603 
Q 1406 481 1766 481 
L 2356 481 
L 2356 0 
L 1766 0 
Q 1100 0 847 248 
Q 594 497 594 1153 
L 594 3053 
L 172 3053 
L 172 3500 
L 594 3500 
L 594 4494 
L 1172 4494 
z
" transform="scale(0.015625)"/>
       <path id="DejaVuSans-69" d="M 603 3500 
L 1178 3500 
L 1178 0 
L 603 0 
L 603 3500 
z
M 603 4863 
L 1178 4863 
L 1178 4134 
L 603 4134 
L 603 4863 
z
" transform="scale(0.015625)"/>
       <path id="DejaVuSans-6f" d="M 1959 3097 
Q 1497 3097 1228 2736 
Q 959 2375 959 1747 
Q 959 1119 1226 758 
Q 1494 397 1959 397 
Q 2419 397 2687 759 
Q 2956 1122 2956 1747 
Q 2956 2369 2687 2733 
Q 2419 3097 1959 3097 
z
M 1959 3584 
Q 2709 3584 3137 3096 
Q 3566 2609 3566 1747 
Q 3566 888 3137 398 
Q 2709 -91 1959 -91 
Q 1206 -91 779 398 
Q 353 888 353 1747 
Q 353 2609 779 3096 
Q 1206 3584 1959 3584 
z
" transform="scale(0.015625)"/>
       <path id="DejaVuSans-6e" d="M 3513 2113 
L 3513 0 
L 2938 0 
L 2938 2094 
Q 2938 2591 2744 2837 
Q 2550 3084 2163 3084 
Q 1697 3084 1428 2787 
Q 1159 2491 1159 1978 
L 1159 0 
L 581 0 
L 581 3500 
L 1159 3500 
L 1159 2956 
Q 1366 3272 1645 3428 
Q 1925 3584 2291 3584 
Q 2894 3584 3203 3211 
Q 3513 2838 3513 2113 
z
" transform="scale(0.015625)"/>
       <path id="DejaVuSans-65" d="M 3597 1894 
L 3597 1613 
L 953 1613 
Q 991 1019 1311 708 
Q 1631 397 2203 397 
Q 2534 397 2845 478 
Q 3156 559 3463 722 
L 3463 178 
Q 3153 47 2828 -22 
Q 2503 -91 2169 -91 
Q 1331 -91 842 396 
Q 353 884 353 1716 
Q 353 2575 817 3079 
Q 1281 3584 2069 3584 
Q 2775 3584 3186 3129 
Q 3597 2675 3597 1894 
z
M 3022 2063 
Q 3016 2534 2758 2815 
Q 2500 3097 2075 3097 
Q 1594 3097 1305 2825 
Q 1016 2553 972 2059 
L 3022 2063 
z
" transform="scale(0.015625)"/>
       <path id="DejaVuSans-72" d="M 2631 2963 
Q 2534 3019 2420 3045 
Q 2306 3072 2169 3072 
Q 1681 3072 1420 2755 
Q 1159 2438 1159 1844 
L 1159 0 
L 581 0 
L 581 3500 
L 1159 3500 
L 1159 2956 
Q 1341 3275 1631 3429 
Q 1922 3584 2338 3584 
Q 2397 3584 2469 3576 
Q 2541 3569 2628 3553 
L 2631 2963 
z
" transform="scale(0.015625)"/>
       <path id="DejaVuSans-64" d="M 2906 2969 
L 2906 4863 
L 3481 4863 
L 3481 0 
L 2906 0 
L 2906 525 
Q 2725 213 2448 61 
Q 2172 -91 1784 -91 
Q 1150 -91 751 415 
Q 353 922 353 1747 
Q 353 2572 751 3078 
Q 1150 3584 1784 3584 
Q 2172 3584 2448 3432 
Q 2725 3281 2906 2969 
z
M 947 1747 
Q 947 1113 1208 752 
Q 1469 391 1925 391 
Q 2381 391 2643 752 
Q 2906 1113 2906 1747 
Q 2906 2381 2643 2742 
Q 2381 3103 1925 3103 
Q 1469 3103 1208 2742 
Q 947 2381 947 1747 
z
" transform="scale(0.015625)"/>
      </defs>
      <use xlink:href="#DejaVuSans-53"/>
      <use xlink:href="#DejaVuSans-50" x="63.476562"/>
      <use xlink:href="#DejaVuSans-49" x="123.779297"/>
      <use xlink:href="#DejaVuSans-20" x="153.271484"/>
      <use xlink:href="#DejaVuSans-41" x="185.058594"/>
      <use xlink:href="#DejaVuSans-63" x="251.716797"/>
      <use xlink:href="#DejaVuSans-63" x="306.697266"/>
      <use xlink:href="#DejaVuSans-75" x="361.677734"/>
      <use xlink:href="#DejaVuSans-6d" x="425.056641"/>
      <use xlink:href="#DejaVuSans-75" x="522.46875"/>
      <use xlink:href="#DejaVuSans-6c" x="585.847656"/>
      <use xlink:href="#DejaVuSans-61" x="613.630859"/>
      <use xlink:href="#DejaVuSans-74" x="674.910156"/>
      <use xlink:href="#DejaVuSans-69" x="714.119141"/>
      <use xlink:href="#DejaVuSans-6f" x="741.902344"/>
      <use xlink:href="#DejaVuSans-6e" x="803.083984"/>
      <use xlink:href="#DejaVuSans-20" x="866.462891"/>
      <use xlink:href="#DejaVuSans-50" x="898.25"/>
      <use xlink:href="#DejaVuSans-65" x="954.927734"/>
      <use xlink:href="#DejaVuSans-72" x="1016.451172"/>
      <use xlink:href="#DejaVuSans-69" x="1057.564453"/>
      <use xlink:href="#DejaVuSans-6f" x="1085.347656"/>
      <use xlink:href="#DejaVuSans-64" x="1146.529297"/>
     </g>
    </g>
   </g>
   <g id="matplotlib.axis_4">
    <g id="ytick_4">
     <g id="line2d_19">
      <g>
       <use xlink:href="#m16bd7acca4" x="462.817069" y="226.186519" style="stroke: #000000; stroke-width: 0.8"/>
      </g>
     </g>
     <g id="text_13">
      <!-- −0.10 -->
      <g transform="translate(425.171757 229.985738) scale(0.1 -0.1)">
       <defs>
        <path id="DejaVuSans-2e" d="M 684 794 
L 1344 794 
L 1344 0 
L 684 0 
L 684 794 
z
" transform="scale(0.015625)"/>
       </defs>
       <use xlink:href="#DejaVuSans-2212"/>
       <use xlink:href="#DejaVuSans-30" x="83.789062"/>
       <use xlink:href="#DejaVuSans-2e" x="147.412109"/>
       <use xlink:href="#DejaVuSans-31" x="179.199219"/>
       <use xlink:href="#DejaVuSans-30" x="242.822266"/>
      </g>
     </g>
    </g>
    <g id="ytick_5">
     <g id="line2d_20">
      <g>
       <use xlink:href="#m16bd7acca4" x="462.817069" y="183.978274" style="stroke: #000000; stroke-width: 0.8"/>
      </g>
     </g>
     <g id="text_14">
      <!-- −0.05 -->
      <g transform="translate(425.171757 187.777492) scale(0.1 -0.1)">
       <defs>
        <path id="DejaVuSans-35" d="M 691 4666 
L 3169 4666 
L 3169 4134 
L 1269 4134 
L 1269 2991 
Q 1406 3038 1543 3061 
Q 1681 3084 1819 3084 
Q 2600 3084 3056 2656 
Q 3513 2228 3513 1497 
Q 3513 744 3044 326 
Q 2575 -91 1722 -91 
Q 1428 -91 1123 -41 
Q 819 9 494 109 
L 494 744 
Q 775 591 1075 516 
Q 1375 441 1709 441 
Q 2250 441 2565 725 
Q 2881 1009 2881 1497 
Q 2881 1984 2565 2268 
Q 2250 2553 1709 2553 
Q 1456 2553 1204 2497 
Q 953 2441 691 2322 
L 691 4666 
z
" transform="scale(0.015625)"/>
       </defs>
       <use xlink:href="#DejaVuSans-2212"/>
       <use xlink:href="#DejaVuSans-30" x="83.789062"/>
       <use xlink:href="#DejaVuSans-2e" x="147.412109"/>
       <use xlink:href="#DejaVuSans-30" x="179.199219"/>
       <use xlink:href="#DejaVuSans-35" x="242.822266"/>
      </g>
     </g>
    </g>
    <g id="ytick_6">
     <g id="line2d_21">
      <g>
       <use xlink:href="#m16bd7acca4" x="462.817069" y="141.770028" style="stroke: #000000; stroke-width: 0.8"/>
      </g>
     </g>
     <g id="text_15">
      <!-- 0.00 -->
      <g transform="translate(433.551444 145.569247) scale(0.1 -0.1)">
       <use xlink:href="#DejaVuSans-30"/>
       <use xlink:href="#DejaVuSans-2e" x="63.623047"/>
       <use xlink:href="#DejaVuSans-30" x="95.410156"/>
       <use xlink:href="#DejaVuSans-30" x="159.033203"/>
      </g>
     </g>
    </g>
    <g id="ytick_7">
     <g id="line2d_22">
      <g>
       <use xlink:href="#m16bd7acca4" x="462.817069" y="99.561782" style="stroke: #000000; stroke-width: 0.8"/>
      </g>
     </g>
     <g id="text_16">
      <!-- 0.05 -->
      <g transform="translate(433.551444 103.361001) scale(0.1 -0.1)">
       <use xlink:href="#DejaVuSans-30"/>
       <use xlink:href="#DejaVuSans-2e" x="63.623047"/>
       <use xlink:href="#DejaVuSans-30" x="95.410156"/>
       <use xlink:href="#DejaVuSans-35" x="159.033203"/>
      </g>
     </g>
    </g>
    <g id="ytick_8">
     <g id="line2d_23">
      <g>
       <use xlink:href="#m16bd7acca4" x="462.817069" y="57.353537" style="stroke: #000000; stroke-width: 0.8"/>
      </g>
     </g>
     <g id="text_17">
      <!-- 0.10 -->
      <g transform="translate(433.551444 61.152755) scale(0.1 -0.1)">
       <use xlink:href="#DejaVuSans-30"/>
       <use xlink:href="#DejaVuSans-2e" x="63.623047"/>
       <use xlink:href="#DejaVuSans-31" x="95.410156"/>
       <use xlink:href="#DejaVuSans-30" x="159.033203"/>
      </g>
     </g>
    </g>
   </g>
   <g id="line2d_24">
    <path d="M 467.979406 243.892367 
L 473.141743 193.834939 
L 478.30408 167.533955 
L 483.466417 157.007635 
L 488.628754 117.395042 
L 493.791091 91.88668 
L 498.953428 70.456249 
L 504.115765 92.234841 
L 509.278102 117.146885 
L 514.440439 133.725283 
L 519.602776 154.477911 
L 524.765113 126.021291 
L 529.92745 109.591046 
L 535.089787 122.88784 
L 540.252124 139.74773 
L 545.414461 138.151374 
L 550.576798 137.706913 
L 555.739135 142.870069 
L 560.901471 149.488835 
L 566.063808 153.666769 
L 571.226145 140.488499 
L 576.388482 155.837221 
L 581.550819 147.044299 
L 586.713156 127.050959 
L 591.875493 143.155265 
L 597.03783 161.96708 
L 602.200167 137.762471 
L 607.362504 143.999741 
L 612.524841 152.685251 
L 617.687178 136.188338 
L 622.849515 143.599726 
L 628.011852 142.103374 
L 633.174189 139.329196 
L 638.336526 139.499573 
L 643.498863 123.765651 
L 648.6612 130.802951 
L 653.823537 127.799135 
L 658.985874 120.895173 
L 664.148211 110.698495 
L 669.310547 111.468894 
L 674.472884 99.049911 
L 679.635221 96.449814 
L 684.797558 82.071498 
L 689.959895 62.77448 
L 695.122232 52.288903 
L 700.284569 53.455613 
L 705.446906 40.547723 
L 710.609243 28.869508 
" clip-path="url(#p6713feb7a4)" style="fill: none; stroke: #7f7f7f; stroke-opacity: 0.6; stroke-width: 1.5; stroke-linecap: square"/>
   </g>
   <g id="line2d_25">
    <defs>
     <path id="m9a064645f9" d="M 0 3 
C 0.795609 3 1.55874 2.683901 2.12132 2.12132 
C 2.683901 1.55874 3 0.795609 3 0 
C 3 -0.795609 2.683901 -1.55874 2.12132 -2.12132 
C 1.55874 -2.683901 0.795609 -3 0 -3 
C -0.795609 -3 -1.55874 -2.683901 -2.12132 -2.12132 
C -2.683901 -1.55874 -3 -0.795609 -3 0 
C -3 0.795609 -2.683901 1.55874 -2.12132 2.12132 
C -1.55874 2.683901 -0.795609 3 0 3 
z
" style="stroke: #000000"/>
    </defs>
    <g clip-path="url(#p6713feb7a4)">
     <use xlink:href="#m9a064645f9" x="710.609243" y="28.869508" style="stroke: #000000"/>
    </g>
   </g>
   <g id="line2d_26">
    <path d="M 710.609243 254.64351 
L 710.609243 28.869508 
" clip-path="url(#p6713feb7a4)" style="fill: none; stroke-dasharray: 5.55,2.4; stroke-dashoffset: 0; stroke: #000000; stroke-width: 1.5"/>
   </g>
   <g id="patch_6">
    <path d="M 462.817069 254.64351 
L 462.817069 18.118365 
" style="fill: none; stroke: #000000; stroke-width: 0.8; stroke-linejoin: miter; stroke-linecap: square"/>
   </g>
   <g id="patch_7">
    <path d="M 462.817069 254.64351 
L 715.77158 254.64351 
" style="fill: none; stroke: #000000; stroke-width: 0.8; stroke-linejoin: miter; stroke-linecap: square"/>
   </g>
   <g id="text_18">
    <!-- (c) -->
    <g transform="translate(462.817069 12.118365) scale(0.12 -0.12)">
     <defs>
      <path id="DejaVuSans-Bold-63" d="M 3366 3391 
L 3366 2478 
Q 3138 2634 2908 2709 
Q 2678 2784 2431 2784 
Q 1963 2784 1702 2511 
Q 1441 2238 1441 1747 
Q 1441 1256 1702 982 
Q 1963 709 2431 709 
Q 2694 709 2930 787 
Q 3166 866 3366 1019 
L 3366 103 
Q 3103 6 2833 -42 
Q 2563 -91 2291 -91 
Q 1344 -91 809 395 
Q 275 881 275 1747 
Q 275 2613 809 3098 
Q 1344 3584 2291 3584 
Q 2566 3584 2833 3536 
Q 3100 3488 3366 3391 
z
" transform="scale(0.015625)"/>
     </defs>
     <use xlink:href="#DejaVuSans-Bold-28"/>
     <use xlink:href="#DejaVuSans-Bold-63" x="45.703125"/>
     <use xlink:href="#DejaVuSans-Bold-29" x="104.980469"/>
    </g>
   </g>
   <g id="legend_1">
    <g id="patch_8">
     <path d="M 469.817069 40.79649 
L 552.262382 40.79649 
Q 554.262382 40.79649 554.262382 38.79649 
L 554.262382 25.118365 
Q 554.262382 23.118365 552.262382 23.118365 
L 469.817069 23.118365 
Q 467.817069 23.118365 467.817069 25.118365 
L 467.817069 38.79649 
Q 467.817069 40.79649 469.817069 40.79649 
z
" style="fill: #ffffff; opacity: 0.8; stroke: #cccccc; stroke-linejoin: miter"/>
    </g>
    <g id="line2d_27">
     <g>
      <use xlink:href="#m9a064645f9" x="481.817069" y="31.216802" style="stroke: #000000"/>
     </g>
    </g>
    <g id="text_19">
     <!-- Max. Corr. -->
     <g transform="translate(499.817069 34.716802) scale(0.1 -0.1)">
      <defs>
       <path id="DejaVuSans-4d" d="M 628 4666 
L 1569 4666 
L 2759 1491 
L 3956 4666 
L 4897 4666 
L 4897 0 
L 4281 0 
L 4281 4097 
L 3078 897 
L 2444 897 
L 1241 4097 
L 1241 0 
L 628 0 
L 628 4666 
z
" transform="scale(0.015625)"/>
       <path id="DejaVuSans-78" d="M 3513 3500 
L 2247 1797 
L 3578 0 
L 2900 0 
L 1881 1375 
L 863 0 
L 184 0 
L 1544 1831 
L 300 3500 
L 978 3500 
L 1906 2253 
L 2834 3500 
L 3513 3500 
z
" transform="scale(0.015625)"/>
       <path id="DejaVuSans-43" d="M 4122 4306 
L 4122 3641 
Q 3803 3938 3442 4084 
Q 3081 4231 2675 4231 
Q 1875 4231 1450 3742 
Q 1025 3253 1025 2328 
Q 1025 1406 1450 917 
Q 1875 428 2675 428 
Q 3081 428 3442 575 
Q 3803 722 4122 1019 
L 4122 359 
Q 3791 134 3420 21 
Q 3050 -91 2638 -91 
Q 1578 -91 968 557 
Q 359 1206 359 2328 
Q 359 3453 968 4101 
Q 1578 4750 2638 4750 
Q 3056 4750 3426 4639 
Q 3797 4528 4122 4306 
z
" transform="scale(0.015625)"/>
      </defs>
      <use xlink:href="#DejaVuSans-4d"/>
      <use xlink:href="#DejaVuSans-61" x="86.279297"/>
      <use xlink:href="#DejaVuSans-78" x="147.558594"/>
      <use xlink:href="#DejaVuSans-2e" x="206.738281"/>
      <use xlink:href="#DejaVuSans-20" x="238.525391"/>
      <use xlink:href="#DejaVuSans-43" x="270.3125"/>
      <use xlink:href="#DejaVuSans-6f" x="340.136719"/>
      <use xlink:href="#DejaVuSans-72" x="401.318359"/>
      <use xlink:href="#DejaVuSans-72" x="440.681641"/>
      <use xlink:href="#DejaVuSans-2e" x="472.669922"/>
     </g>
    </g>
   </g>
  </g>
  <g id="axes_3">
   <g id="patch_9">
    <path d="M 38.420552 254.64351 
L 417.852318 254.64351 
L 417.852318 151.69048 
L 38.420552 151.69048 
z
" style="fill: #ffffff"/>
   </g>
   <g id="PolyCollection_3"/>
   <g id="matplotlib.axis_5">
    <g id="xtick_15">
     <g id="line2d_28">
      <g>
       <use xlink:href="#m4aa6047159" x="50.053173" y="254.64351" style="stroke: #000000; stroke-width: 0.8"/>
      </g>
     </g>
     <g id="text_20">
      <!-- 1992 -->
      <g transform="translate(37.328173 269.241947) scale(0.1 -0.1)">
       <defs>
        <path id="DejaVuSans-39" d="M 703 97 
L 703 672 
Q 941 559 1184 500 
Q 1428 441 1663 441 
Q 2288 441 2617 861 
Q 2947 1281 2994 2138 
Q 2813 1869 2534 1725 
Q 2256 1581 1919 1581 
Q 1219 1581 811 2004 
Q 403 2428 403 3163 
Q 403 3881 828 4315 
Q 1253 4750 1959 4750 
Q 2769 4750 3195 4129 
Q 3622 3509 3622 2328 
Q 3622 1225 3098 567 
Q 2575 -91 1691 -91 
Q 1453 -91 1209 -44 
Q 966 3 703 97 
z
M 1959 2075 
Q 2384 2075 2632 2365 
Q 2881 2656 2881 3163 
Q 2881 3666 2632 3958 
Q 2384 4250 1959 4250 
Q 1534 4250 1286 3958 
Q 1038 3666 1038 3163 
Q 1038 2656 1286 2365 
Q 1534 2075 1959 2075 
z
" transform="scale(0.015625)"/>
       </defs>
       <use xlink:href="#DejaVuSans-31"/>
       <use xlink:href="#DejaVuSans-39" x="63.623047"/>
       <use xlink:href="#DejaVuSans-39" x="127.246094"/>
       <use xlink:href="#DejaVuSans-32" x="190.869141"/>
      </g>
     </g>
    </g>
    <g id="xtick_16">
     <g id="line2d_29">
      <g>
       <use xlink:href="#m4aa6047159" x="100.785287" y="254.64351" style="stroke: #000000; stroke-width: 0.8"/>
      </g>
     </g>
     <g id="text_21">
      <!-- 1996 -->
      <g transform="translate(88.060287 269.241947) scale(0.1 -0.1)">
       <use xlink:href="#DejaVuSans-31"/>
       <use xlink:href="#DejaVuSans-39" x="63.623047"/>
       <use xlink:href="#DejaVuSans-39" x="127.246094"/>
       <use xlink:href="#DejaVuSans-36" x="190.869141"/>
      </g>
     </g>
    </g>
    <g id="xtick_17">
     <g id="line2d_30">
      <g>
       <use xlink:href="#m4aa6047159" x="151.517401" y="254.64351" style="stroke: #000000; stroke-width: 0.8"/>
      </g>
     </g>
     <g id="text_22">
      <!-- 2000 -->
      <g transform="translate(138.792401 269.241947) scale(0.1 -0.1)">
       <use xlink:href="#DejaVuSans-32"/>
       <use xlink:href="#DejaVuSans-30" x="63.623047"/>
       <use xlink:href="#DejaVuSans-30" x="127.246094"/>
       <use xlink:href="#DejaVuSans-30" x="190.869141"/>
      </g>
     </g>
    </g>
    <g id="xtick_18">
     <g id="line2d_31">
      <g>
       <use xlink:href="#m4aa6047159" x="202.249515" y="254.64351" style="stroke: #000000; stroke-width: 0.8"/>
      </g>
     </g>
     <g id="text_23">
      <!-- 2004 -->
      <g transform="translate(189.524515 269.241947) scale(0.1 -0.1)">
       <use xlink:href="#DejaVuSans-32"/>
       <use xlink:href="#DejaVuSans-30" x="63.623047"/>
       <use xlink:href="#DejaVuSans-30" x="127.246094"/>
       <use xlink:href="#DejaVuSans-34" x="190.869141"/>
      </g>
     </g>
    </g>
    <g id="xtick_19">
     <g id="line2d_32">
      <g>
       <use xlink:href="#m4aa6047159" x="252.981629" y="254.64351" style="stroke: #000000; stroke-width: 0.8"/>
      </g>
     </g>
     <g id="text_24">
      <!-- 2008 -->
      <g transform="translate(240.256629 269.241947) scale(0.1 -0.1)">
       <use xlink:href="#DejaVuSans-32"/>
       <use xlink:href="#DejaVuSans-30" x="63.623047"/>
       <use xlink:href="#DejaVuSans-30" x="127.246094"/>
       <use xlink:href="#DejaVuSans-38" x="190.869141"/>
      </g>
     </g>
    </g>
    <g id="xtick_20">
     <g id="line2d_33">
      <g>
       <use xlink:href="#m4aa6047159" x="303.713743" y="254.64351" style="stroke: #000000; stroke-width: 0.8"/>
      </g>
     </g>
     <g id="text_25">
      <!-- 2012 -->
      <g transform="translate(290.988743 269.241947) scale(0.1 -0.1)">
       <use xlink:href="#DejaVuSans-32"/>
       <use xlink:href="#DejaVuSans-30" x="63.623047"/>
       <use xlink:href="#DejaVuSans-31" x="127.246094"/>
       <use xlink:href="#DejaVuSans-32" x="190.869141"/>
      </g>
     </g>
    </g>
    <g id="xtick_21">
     <g id="line2d_34">
      <g>
       <use xlink:href="#m4aa6047159" x="354.445857" y="254.64351" style="stroke: #000000; stroke-width: 0.8"/>
      </g>
     </g>
     <g id="text_26">
      <!-- 2016 -->
      <g transform="translate(341.720857 269.241947) scale(0.1 -0.1)">
       <use xlink:href="#DejaVuSans-32"/>
       <use xlink:href="#DejaVuSans-30" x="63.623047"/>
       <use xlink:href="#DejaVuSans-31" x="127.246094"/>
       <use xlink:href="#DejaVuSans-36" x="190.869141"/>
      </g>
     </g>
    </g>
    <g id="xtick_22">
     <g id="line2d_35">
      <g>
       <use xlink:href="#m4aa6047159" x="405.177971" y="254.64351" style="stroke: #000000; stroke-width: 0.8"/>
      </g>
     </g>
     <g id="text_27">
      <!-- 2020 -->
      <g transform="translate(392.452971 269.241947) scale(0.1 -0.1)">
       <use xlink:href="#DejaVuSans-32"/>
       <use xlink:href="#DejaVuSans-30" x="63.623047"/>
       <use xlink:href="#DejaVuSans-32" x="127.246094"/>
       <use xlink:href="#DejaVuSans-30" x="190.869141"/>
      </g>
     </g>
    </g>
    <g id="text_28">
     <!-- Date -->
     <g transform="translate(216.185654 282.920073) scale(0.1 -0.1)">
      <defs>
       <path id="DejaVuSans-44" d="M 1259 4147 
L 1259 519 
L 2022 519 
Q 2988 519 3436 956 
Q 3884 1394 3884 2338 
Q 3884 3275 3436 3711 
Q 2988 4147 2022 4147 
L 1259 4147 
z
M 628 4666 
L 1925 4666 
Q 3281 4666 3915 4102 
Q 4550 3538 4550 2338 
Q 4550 1131 3912 565 
Q 3275 0 1925 0 
L 628 0 
L 628 4666 
z
" transform="scale(0.015625)"/>
      </defs>
      <use xlink:href="#DejaVuSans-44"/>
      <use xlink:href="#DejaVuSans-61" x="77.001953"/>
      <use xlink:href="#DejaVuSans-74" x="138.28125"/>
      <use xlink:href="#DejaVuSans-65" x="177.490234"/>
     </g>
    </g>
   </g>
   <g id="matplotlib.axis_6">
    <g id="ytick_9">
     <g id="line2d_36">
      <g>
       <use xlink:href="#m16bd7acca4" x="38.420552" y="237.484672" style="stroke: #000000; stroke-width: 0.8"/>
      </g>
     </g>
     <g id="text_29">
      <!-- −2 -->
      <g transform="translate(16.678365 241.28389) scale(0.1 -0.1)">
       <use xlink:href="#DejaVuSans-2212"/>
       <use xlink:href="#DejaVuSans-32" x="83.789062"/>
      </g>
     </g>
    </g>
    <g id="ytick_10">
     <g id="line2d_37">
      <g>
       <use xlink:href="#m16bd7acca4" x="38.420552" y="203.166995" style="stroke: #000000; stroke-width: 0.8"/>
      </g>
     </g>
     <g id="text_30">
      <!-- 0 -->
      <g transform="translate(25.058052 206.966214) scale(0.1 -0.1)">
       <use xlink:href="#DejaVuSans-30"/>
      </g>
     </g>
    </g>
    <g id="ytick_11">
     <g id="line2d_38">
      <g>
       <use xlink:href="#m16bd7acca4" x="38.420552" y="168.849318" style="stroke: #000000; stroke-width: 0.8"/>
      </g>
     </g>
     <g id="text_31">
      <!-- 2 -->
      <g transform="translate(25.058052 172.648537) scale(0.1 -0.1)">
       <use xlink:href="#DejaVuSans-32"/>
      </g>
     </g>
    </g>
    <g id="text_32">
     <!-- SGI (GWIC 130860) -->
     <g transform="translate(10.598677 251.641995) rotate(-90) scale(0.1 -0.1)">
      <defs>
       <path id="DejaVuSans-47" d="M 3809 666 
L 3809 1919 
L 2778 1919 
L 2778 2438 
L 4434 2438 
L 4434 434 
Q 4069 175 3628 42 
Q 3188 -91 2688 -91 
Q 1594 -91 976 548 
Q 359 1188 359 2328 
Q 359 3472 976 4111 
Q 1594 4750 2688 4750 
Q 3144 4750 3555 4637 
Q 3966 4525 4313 4306 
L 4313 3634 
Q 3963 3931 3569 4081 
Q 3175 4231 2741 4231 
Q 1884 4231 1454 3753 
Q 1025 3275 1025 2328 
Q 1025 1384 1454 906 
Q 1884 428 2741 428 
Q 3075 428 3337 486 
Q 3600 544 3809 666 
z
" transform="scale(0.015625)"/>
       <path id="DejaVuSans-28" d="M 1984 4856 
Q 1566 4138 1362 3434 
Q 1159 2731 1159 2009 
Q 1159 1288 1364 580 
Q 1569 -128 1984 -844 
L 1484 -844 
Q 1016 -109 783 600 
Q 550 1309 550 2009 
Q 550 2706 781 3412 
Q 1013 4119 1484 4856 
L 1984 4856 
z
" transform="scale(0.015625)"/>
       <path id="DejaVuSans-57" d="M 213 4666 
L 850 4666 
L 1831 722 
L 2809 4666 
L 3519 4666 
L 4500 722 
L 5478 4666 
L 6119 4666 
L 4947 0 
L 4153 0 
L 3169 4050 
L 2175 0 
L 1381 0 
L 213 4666 
z
" transform="scale(0.015625)"/>
       <path id="DejaVuSans-29" d="M 513 4856 
L 1013 4856 
Q 1481 4119 1714 3412 
Q 1947 2706 1947 2009 
Q 1947 1309 1714 600 
Q 1481 -109 1013 -844 
L 513 -844 
Q 928 -128 1133 580 
Q 1338 1288 1338 2009 
Q 1338 2731 1133 3434 
Q 928 4138 513 4856 
z
" transform="scale(0.015625)"/>
      </defs>
      <use xlink:href="#DejaVuSans-53"/>
      <use xlink:href="#DejaVuSans-47" x="63.476562"/>
      <use xlink:href="#DejaVuSans-49" x="140.966797"/>
      <use xlink:href="#DejaVuSans-20" x="170.458984"/>
      <use xlink:href="#DejaVuSans-28" x="202.246094"/>
      <use xlink:href="#DejaVuSans-47" x="241.259766"/>
      <use xlink:href="#DejaVuSans-57" x="318.75"/>
      <use xlink:href="#DejaVuSans-49" x="417.626953"/>
      <use xlink:href="#DejaVuSans-43" x="447.119141"/>
      <use xlink:href="#DejaVuSans-20" x="516.943359"/>
      <use xlink:href="#DejaVuSans-31" x="548.730469"/>
      <use xlink:href="#DejaVuSans-33" x="612.353516"/>
      <use xlink:href="#DejaVuSans-30" x="675.976562"/>
      <use xlink:href="#DejaVuSans-38" x="739.599609"/>
      <use xlink:href="#DejaVuSans-36" x="803.222656"/>
      <use xlink:href="#DejaVuSans-30" x="866.845703"/>
      <use xlink:href="#DejaVuSans-29" x="930.46875"/>
     </g>
    </g>
   </g>
   <g id="line2d_39">
    <path d="M 38.420552 203.166995 
L 417.852318 203.166995 
" clip-path="url(#p2d099fde26)" style="fill: none; stroke: #000000; stroke-width: 1.5; stroke-linecap: square"/>
   </g>
   <g id="line2d_40">
    <path d="M 71.16551 185.91255 
L 75.401868 169.599877 
L 78.527049 191.598693 
L 81.686955 188.133575 
L 84.881585 185.19296 
L 88.076215 198.466075 
L 91.201397 206.771135 
L 94.361302 175.452366 
L 97.555933 175.481103 
L 100.750563 178.420749 
L 103.910468 197.47698 
L 107.070374 186.941104 
L 113.459634 182.551189 
L 122.939352 191.556022 
L 127.210433 179.606236 
L 129.259163 184.543448 
L 130.30089 199.843078 
L 132.419069 189.949064 
L 136.690151 183.114743 
L 137.731878 182.098333 
L 138.808329 194.06233 
L 139.884781 201.232519 
L 140.857059 192.938335 
L 141.933511 194.448907 
L 142.975238 179.932457 
L 144.051689 178.020446 
L 145.093417 195.738899 
L 147.246319 192.08579 
L 150.406225 199.562855 
L 151.482677 199.551003 
L 152.559128 193.321754 
L 155.68431 195.480773 
L 156.760761 197.92417 
L 162.07357 189.795022 
L 163.115297 190.126241 
L 164.191748 188.546435 
L 165.2682 203.616721 
L 166.240478 193.59883 
L 167.31693 201.974322 
L 168.358657 186.252391 
L 169.435108 189.58694 
L 176.866096 188.937805 
L 179.991277 204.359668 
L 183.151183 206.489956 
L 192.665625 199.174599 
L 195.825531 199.607472 
L 202.214791 193.180812 
L 205.374696 188.384887 
L 212.805684 194.359074 
L 214.923862 203.541114 
L 218.049044 170.309012 
L 227.59821 200.853748 
L 230.723391 179.43233 
L 240.272557 201.974963 
L 260.343168 185.327789 
L 291.004671 207.295999 
L 294.129853 211.885083 
L 297.289759 203.093981 
L 300.484389 196.57088 
L 306.838925 209.259177 
L 308.957103 202.194142 
L 311.075282 194.909937 
L 322.673178 210.978449 
L 323.749629 202.591157 
L 325.867808 207.061937 
L 329.062438 211.691312 
L 332.187619 214.735297 
L 335.347525 219.256171 
L 339.618607 216.185138 
L 341.736785 209.441332 
L 345.903694 211.546577 
L 351.216503 212.538942 
L 354.411133 228.313544 
L 357.571039 222.489695 
L 363.925574 227.913796 
L 367.120204 219.765823 
L 370.245386 225.951362 
L 372.363565 228.313544 
L 379.794552 223.412173 
L 383.961461 218.387238 
L 386.079639 233.524759 
L 387.156091 221.99579 
L 388.232542 219.124856 
L 389.274269 222.878646 
L 390.350721 228.313544 
L 391.392448 226.90166 
L 392.468899 237.16184 
L 393.545351 226.90166 
L 394.517629 218.013058 
L 395.594081 236.024978 
L 396.635808 229.496113 
L 397.71226 216.74705 
L 398.753987 222.211155 
L 399.830438 213.522146 
L 400.90689 211.68896 
L 401.948617 208.849741 
L 403.025068 204.093798 
L 404.066795 206.771135 
L 405.143247 216.74705 
L 406.219698 214.735297 
L 407.226701 208.8341 
L 408.303153 217.949103 
L 409.34488 205.860788 
L 410.421331 209.441331 
L 411.463058 212.60387 
L 412.53951 201.377533 
L 413.615961 206.158082 
L 414.657688 201.978125 
L 415.73414 208.895803 
L 416.775867 214.735297 
L 417.852318 214.099856 
" clip-path="url(#p2d099fde26)" style="fill: none; stroke: #7f7f7f; stroke-opacity: 0.6; stroke-width: 1.5; stroke-linecap: square"/>
   </g>
   <g id="patch_10">
    <path d="M 38.420552 254.64351 
L 38.420552 151.69048 
" style="fill: none; stroke: #000000; stroke-width: 0.8; stroke-linejoin: miter; stroke-linecap: square"/>
   </g>
   <g id="patch_11">
    <path d="M 38.420552 254.64351 
L 417.852318 254.64351 
" style="fill: none; stroke: #000000; stroke-width: 0.8; stroke-linejoin: miter; stroke-linecap: square"/>
   </g>
   <g id="text_33">
    <!-- (b) -->
    <g transform="translate(38.420552 145.69048) scale(0.12 -0.12)">
     <defs>
      <path id="DejaVuSans-Bold-62" d="M 2400 722 
Q 2759 722 2948 984 
Q 3138 1247 3138 1747 
Q 3138 2247 2948 2509 
Q 2759 2772 2400 2772 
Q 2041 2772 1848 2508 
Q 1656 2244 1656 1747 
Q 1656 1250 1848 986 
Q 2041 722 2400 722 
z
M 1656 2988 
Q 1888 3294 2169 3439 
Q 2450 3584 2816 3584 
Q 3463 3584 3878 3070 
Q 4294 2556 4294 1747 
Q 4294 938 3878 423 
Q 3463 -91 2816 -91 
Q 2450 -91 2169 54 
Q 1888 200 1656 506 
L 1656 0 
L 538 0 
L 538 4863 
L 1656 4863 
L 1656 2988 
z
" transform="scale(0.015625)"/>
     </defs>
     <use xlink:href="#DejaVuSans-Bold-28"/>
     <use xlink:href="#DejaVuSans-Bold-62" x="45.703125"/>
     <use xlink:href="#DejaVuSans-Bold-29" x="117.285156"/>
    </g>
   </g>
   <g id="PathCollection_1">
    <defs>
     <path id="mc531acf4c1" d="M 0 1.936492 
C 0.513564 1.936492 1.006162 1.732451 1.369306 1.369306 
C 1.732451 1.006162 1.936492 0.513564 1.936492 0 
C 1.936492 -0.513564 1.732451 -1.006162 1.369306 -1.369306 
C 1.006162 -1.732451 0.513564 -1.936492 0 -1.936492 
C -0.513564 -1.936492 -1.006162 -1.732451 -1.369306 -1.369306 
C -1.732451 -1.006162 -1.936492 -0.513564 -1.936492 0 
C -1.936492 0.513564 -1.732451 1.006162 -1.369306 1.369306 
C -1.006162 1.732451 -0.513564 1.936492 0 1.936492 
z
" style="stroke: #ffffff; stroke-width: 0.309839"/>
    </defs>
    <g clip-path="url(#p2d099fde26)">
     <use xlink:href="#mc531acf4c1" x="71.16551" y="185.91255" style="stroke: #ffffff; stroke-width: 0.309839"/>
     <use xlink:href="#mc531acf4c1" x="75.401868" y="169.599877" style="stroke: #ffffff; stroke-width: 0.309839"/>
     <use xlink:href="#mc531acf4c1" x="78.527049" y="191.598693" style="stroke: #ffffff; stroke-width: 0.309839"/>
     <use xlink:href="#mc531acf4c1" x="81.686955" y="188.133575" style="stroke: #ffffff; stroke-width: 0.309839"/>
     <use xlink:href="#mc531acf4c1" x="84.881585" y="185.19296" style="stroke: #ffffff; stroke-width: 0.309839"/>
     <use xlink:href="#mc531acf4c1" x="88.076215" y="198.466075" style="stroke: #ffffff; stroke-width: 0.309839"/>
     <use xlink:href="#mc531acf4c1" x="91.201397" y="206.771135" style="stroke: #ffffff; stroke-width: 0.309839"/>
     <use xlink:href="#mc531acf4c1" x="94.361302" y="175.452366" style="stroke: #ffffff; stroke-width: 0.309839"/>
     <use xlink:href="#mc531acf4c1" x="97.555933" y="175.481103" style="stroke: #ffffff; stroke-width: 0.309839"/>
     <use xlink:href="#mc531acf4c1" x="100.750563" y="178.420749" style="stroke: #ffffff; stroke-width: 0.309839"/>
     <use xlink:href="#mc531acf4c1" x="103.910468" y="197.47698" style="stroke: #ffffff; stroke-width: 0.309839"/>
     <use xlink:href="#mc531acf4c1" x="107.070374" y="186.941104" style="stroke: #ffffff; stroke-width: 0.309839"/>
     <use xlink:href="#mc531acf4c1" x="113.459634" y="182.551189" style="stroke: #ffffff; stroke-width: 0.309839"/>
     <use xlink:href="#mc531acf4c1" x="122.939352" y="191.556022" style="stroke: #ffffff; stroke-width: 0.309839"/>
     <use xlink:href="#mc531acf4c1" x="127.210433" y="179.606236" style="stroke: #ffffff; stroke-width: 0.309839"/>
     <use xlink:href="#mc531acf4c1" x="129.259163" y="184.543448" style="stroke: #ffffff; stroke-width: 0.309839"/>
     <use xlink:href="#mc531acf4c1" x="130.30089" y="199.843078" style="stroke: #ffffff; stroke-width: 0.309839"/>
     <use xlink:href="#mc531acf4c1" x="132.419069" y="189.949064" style="stroke: #ffffff; stroke-width: 0.309839"/>
     <use xlink:href="#mc531acf4c1" x="136.690151" y="183.114743" style="stroke: #ffffff; stroke-width: 0.309839"/>
     <use xlink:href="#mc531acf4c1" x="137.731878" y="182.098333" style="stroke: #ffffff; stroke-width: 0.309839"/>
     <use xlink:href="#mc531acf4c1" x="138.808329" y="194.06233" style="stroke: #ffffff; stroke-width: 0.309839"/>
     <use xlink:href="#mc531acf4c1" x="139.884781" y="201.232519" style="stroke: #ffffff; stroke-width: 0.309839"/>
     <use xlink:href="#mc531acf4c1" x="140.857059" y="192.938335" style="stroke: #ffffff; stroke-width: 0.309839"/>
     <use xlink:href="#mc531acf4c1" x="141.933511" y="194.448907" style="stroke: #ffffff; stroke-width: 0.309839"/>
     <use xlink:href="#mc531acf4c1" x="142.975238" y="179.932457" style="stroke: #ffffff; stroke-width: 0.309839"/>
     <use xlink:href="#mc531acf4c1" x="144.051689" y="178.020446" style="stroke: #ffffff; stroke-width: 0.309839"/>
     <use xlink:href="#mc531acf4c1" x="145.093417" y="195.738899" style="stroke: #ffffff; stroke-width: 0.309839"/>
     <use xlink:href="#mc531acf4c1" x="147.246319" y="192.08579" style="stroke: #ffffff; stroke-width: 0.309839"/>
     <use xlink:href="#mc531acf4c1" x="150.406225" y="199.562855" style="stroke: #ffffff; stroke-width: 0.309839"/>
     <use xlink:href="#mc531acf4c1" x="151.482677" y="199.551003" style="stroke: #ffffff; stroke-width: 0.309839"/>
     <use xlink:href="#mc531acf4c1" x="152.559128" y="193.321754" style="stroke: #ffffff; stroke-width: 0.309839"/>
     <use xlink:href="#mc531acf4c1" x="155.68431" y="195.480773" style="stroke: #ffffff; stroke-width: 0.309839"/>
     <use xlink:href="#mc531acf4c1" x="156.760761" y="197.92417" style="stroke: #ffffff; stroke-width: 0.309839"/>
     <use xlink:href="#mc531acf4c1" x="162.07357" y="189.795022" style="stroke: #ffffff; stroke-width: 0.309839"/>
     <use xlink:href="#mc531acf4c1" x="163.115297" y="190.126241" style="stroke: #ffffff; stroke-width: 0.309839"/>
     <use xlink:href="#mc531acf4c1" x="164.191748" y="188.546435" style="stroke: #ffffff; stroke-width: 0.309839"/>
     <use xlink:href="#mc531acf4c1" x="165.2682" y="203.616721" style="stroke: #ffffff; stroke-width: 0.309839"/>
     <use xlink:href="#mc531acf4c1" x="166.240478" y="193.59883" style="stroke: #ffffff; stroke-width: 0.309839"/>
     <use xlink:href="#mc531acf4c1" x="167.31693" y="201.974322" style="stroke: #ffffff; stroke-width: 0.309839"/>
     <use xlink:href="#mc531acf4c1" x="168.358657" y="186.252391" style="stroke: #ffffff; stroke-width: 0.309839"/>
     <use xlink:href="#mc531acf4c1" x="169.435108" y="189.58694" style="stroke: #ffffff; stroke-width: 0.309839"/>
     <use xlink:href="#mc531acf4c1" x="176.866096" y="188.937805" style="stroke: #ffffff; stroke-width: 0.309839"/>
     <use xlink:href="#mc531acf4c1" x="179.991277" y="204.359668" style="stroke: #ffffff; stroke-width: 0.309839"/>
     <use xlink:href="#mc531acf4c1" x="183.151183" y="206.489956" style="stroke: #ffffff; stroke-width: 0.309839"/>
     <use xlink:href="#mc531acf4c1" x="192.665625" y="199.174599" style="stroke: #ffffff; stroke-width: 0.309839"/>
     <use xlink:href="#mc531acf4c1" x="195.825531" y="199.607472" style="stroke: #ffffff; stroke-width: 0.309839"/>
     <use xlink:href="#mc531acf4c1" x="202.214791" y="193.180812" style="stroke: #ffffff; stroke-width: 0.309839"/>
     <use xlink:href="#mc531acf4c1" x="205.374696" y="188.384887" style="stroke: #ffffff; stroke-width: 0.309839"/>
     <use xlink:href="#mc531acf4c1" x="212.805684" y="194.359074" style="stroke: #ffffff; stroke-width: 0.309839"/>
     <use xlink:href="#mc531acf4c1" x="214.923862" y="203.541114" style="stroke: #ffffff; stroke-width: 0.309839"/>
     <use xlink:href="#mc531acf4c1" x="218.049044" y="170.309012" style="stroke: #ffffff; stroke-width: 0.309839"/>
     <use xlink:href="#mc531acf4c1" x="227.59821" y="200.853748" style="stroke: #ffffff; stroke-width: 0.309839"/>
     <use xlink:href="#mc531acf4c1" x="230.723391" y="179.43233" style="stroke: #ffffff; stroke-width: 0.309839"/>
     <use xlink:href="#mc531acf4c1" x="240.272557" y="201.974963" style="stroke: #ffffff; stroke-width: 0.309839"/>
     <use xlink:href="#mc531acf4c1" x="260.343168" y="185.327789" style="stroke: #ffffff; stroke-width: 0.309839"/>
     <use xlink:href="#mc531acf4c1" x="291.004671" y="207.295999" style="stroke: #ffffff; stroke-width: 0.309839"/>
     <use xlink:href="#mc531acf4c1" x="294.129853" y="211.885083" style="stroke: #ffffff; stroke-width: 0.309839"/>
     <use xlink:href="#mc531acf4c1" x="297.289759" y="203.093981" style="stroke: #ffffff; stroke-width: 0.309839"/>
     <use xlink:href="#mc531acf4c1" x="300.484389" y="196.57088" style="stroke: #ffffff; stroke-width: 0.309839"/>
     <use xlink:href="#mc531acf4c1" x="306.838925" y="209.259177" style="stroke: #ffffff; stroke-width: 0.309839"/>
     <use xlink:href="#mc531acf4c1" x="308.957103" y="202.194142" style="stroke: #ffffff; stroke-width: 0.309839"/>
     <use xlink:href="#mc531acf4c1" x="311.075282" y="194.909937" style="stroke: #ffffff; stroke-width: 0.309839"/>
     <use xlink:href="#mc531acf4c1" x="322.673178" y="210.978449" style="stroke: #ffffff; stroke-width: 0.309839"/>
     <use xlink:href="#mc531acf4c1" x="323.749629" y="202.591157" style="stroke: #ffffff; stroke-width: 0.309839"/>
     <use xlink:href="#mc531acf4c1" x="325.867808" y="207.061937" style="stroke: #ffffff; stroke-width: 0.309839"/>
     <use xlink:href="#mc531acf4c1" x="329.062438" y="211.691312" style="stroke: #ffffff; stroke-width: 0.309839"/>
     <use xlink:href="#mc531acf4c1" x="332.187619" y="214.735297" style="stroke: #ffffff; stroke-width: 0.309839"/>
     <use xlink:href="#mc531acf4c1" x="335.347525" y="219.256171" style="stroke: #ffffff; stroke-width: 0.309839"/>
     <use xlink:href="#mc531acf4c1" x="339.618607" y="216.185138" style="stroke: #ffffff; stroke-width: 0.309839"/>
     <use xlink:href="#mc531acf4c1" x="341.736785" y="209.441332" style="stroke: #ffffff; stroke-width: 0.309839"/>
     <use xlink:href="#mc531acf4c1" x="345.903694" y="211.546577" style="stroke: #ffffff; stroke-width: 0.309839"/>
     <use xlink:href="#mc531acf4c1" x="351.216503" y="212.538942" style="stroke: #ffffff; stroke-width: 0.309839"/>
     <use xlink:href="#mc531acf4c1" x="354.411133" y="228.313544" style="stroke: #ffffff; stroke-width: 0.309839"/>
     <use xlink:href="#mc531acf4c1" x="357.571039" y="222.489695" style="stroke: #ffffff; stroke-width: 0.309839"/>
     <use xlink:href="#mc531acf4c1" x="363.925574" y="227.913796" style="stroke: #ffffff; stroke-width: 0.309839"/>
     <use xlink:href="#mc531acf4c1" x="367.120204" y="219.765823" style="stroke: #ffffff; stroke-width: 0.309839"/>
     <use xlink:href="#mc531acf4c1" x="370.245386" y="225.951362" style="stroke: #ffffff; stroke-width: 0.309839"/>
     <use xlink:href="#mc531acf4c1" x="372.363565" y="228.313544" style="stroke: #ffffff; stroke-width: 0.309839"/>
     <use xlink:href="#mc531acf4c1" x="379.794552" y="223.412173" style="stroke: #ffffff; stroke-width: 0.309839"/>
     <use xlink:href="#mc531acf4c1" x="383.961461" y="218.387238" style="stroke: #ffffff; stroke-width: 0.309839"/>
     <use xlink:href="#mc531acf4c1" x="386.079639" y="233.524759" style="stroke: #ffffff; stroke-width: 0.309839"/>
     <use xlink:href="#mc531acf4c1" x="387.156091" y="221.99579" style="stroke: #ffffff; stroke-width: 0.309839"/>
     <use xlink:href="#mc531acf4c1" x="388.232542" y="219.124856" style="stroke: #ffffff; stroke-width: 0.309839"/>
     <use xlink:href="#mc531acf4c1" x="389.274269" y="222.878646" style="stroke: #ffffff; stroke-width: 0.309839"/>
     <use xlink:href="#mc531acf4c1" x="390.350721" y="228.313544" style="stroke: #ffffff; stroke-width: 0.309839"/>
     <use xlink:href="#mc531acf4c1" x="391.392448" y="226.90166" style="stroke: #ffffff; stroke-width: 0.309839"/>
     <use xlink:href="#mc531acf4c1" x="392.468899" y="237.16184" style="stroke: #ffffff; stroke-width: 0.309839"/>
     <use xlink:href="#mc531acf4c1" x="393.545351" y="226.90166" style="stroke: #ffffff; stroke-width: 0.309839"/>
     <use xlink:href="#mc531acf4c1" x="394.517629" y="218.013058" style="stroke: #ffffff; stroke-width: 0.309839"/>
     <use xlink:href="#mc531acf4c1" x="395.594081" y="236.024978" style="stroke: #ffffff; stroke-width: 0.309839"/>
     <use xlink:href="#mc531acf4c1" x="396.635808" y="229.496113" style="stroke: #ffffff; stroke-width: 0.309839"/>
     <use xlink:href="#mc531acf4c1" x="397.71226" y="216.74705" style="stroke: #ffffff; stroke-width: 0.309839"/>
     <use xlink:href="#mc531acf4c1" x="398.753987" y="222.211155" style="stroke: #ffffff; stroke-width: 0.309839"/>
     <use xlink:href="#mc531acf4c1" x="399.830438" y="213.522146" style="stroke: #ffffff; stroke-width: 0.309839"/>
     <use xlink:href="#mc531acf4c1" x="400.90689" y="211.68896" style="stroke: #ffffff; stroke-width: 0.309839"/>
     <use xlink:href="#mc531acf4c1" x="401.948617" y="208.849741" style="stroke: #ffffff; stroke-width: 0.309839"/>
     <use xlink:href="#mc531acf4c1" x="403.025068" y="204.093798" style="stroke: #ffffff; stroke-width: 0.309839"/>
     <use xlink:href="#mc531acf4c1" x="404.066795" y="206.771135" style="stroke: #ffffff; stroke-width: 0.309839"/>
     <use xlink:href="#mc531acf4c1" x="405.143247" y="216.74705" style="stroke: #ffffff; stroke-width: 0.309839"/>
     <use xlink:href="#mc531acf4c1" x="406.219698" y="214.735297" style="stroke: #ffffff; stroke-width: 0.309839"/>
     <use xlink:href="#mc531acf4c1" x="407.226701" y="208.8341" style="stroke: #ffffff; stroke-width: 0.309839"/>
     <use xlink:href="#mc531acf4c1" x="408.303153" y="217.949103" style="stroke: #ffffff; stroke-width: 0.309839"/>
     <use xlink:href="#mc531acf4c1" x="409.34488" y="205.860788" style="stroke: #ffffff; stroke-width: 0.309839"/>
     <use xlink:href="#mc531acf4c1" x="410.421331" y="209.441331" style="stroke: #ffffff; stroke-width: 0.309839"/>
     <use xlink:href="#mc531acf4c1" x="411.463058" y="212.60387" style="stroke: #ffffff; stroke-width: 0.309839"/>
     <use xlink:href="#mc531acf4c1" x="412.53951" y="201.377533" style="stroke: #ffffff; stroke-width: 0.309839"/>
     <use xlink:href="#mc531acf4c1" x="413.615961" y="206.158082" style="stroke: #ffffff; stroke-width: 0.309839"/>
     <use xlink:href="#mc531acf4c1" x="414.657688" y="201.978125" style="stroke: #ffffff; stroke-width: 0.309839"/>
     <use xlink:href="#mc531acf4c1" x="415.73414" y="208.895803" style="stroke: #ffffff; stroke-width: 0.309839"/>
     <use xlink:href="#mc531acf4c1" x="416.775867" y="214.735297" style="stroke: #ffffff; stroke-width: 0.309839"/>
     <use xlink:href="#mc531acf4c1" x="417.852318" y="214.099856" style="stroke: #ffffff; stroke-width: 0.309839"/>
    </g>
   </g>
  </g>
 </g>
 <defs>
  <clipPath id="pe6efce1815">
   <rect x="38.420552" y="18.118365" width="379.431766" height="102.95303"/>
  </clipPath>
  <clipPath id="p6713feb7a4">
   <rect x="462.817069" y="18.118365" width="252.954511" height="236.525145"/>
  </clipPath>
  <clipPath id="p2d099fde26">
   <rect x="38.420552" y="151.69048" width="379.431766" height="102.95303"/>
  </clipPath>
 </defs>
</svg>
