<?xml version="1.0" encoding="utf-8" standalone="no"?>
<!DOCTYPE svg PUBLIC "-//W3C//DTD SVG 1.1//EN"
  "http://www.w3.org/Graphics/SVG/1.1/DTD/svg11.dtd">
<svg xmlns:xlink="http://www.w3.org/1999/xlink" width="720pt" height="288pt" viewBox="0 0 720 288" xmlns="http://www.w3.org/2000/svg" version="1.1">
 <metadata>
  <rdf:RDF xmlns:dc="http://purl.org/dc/elements/1.1/" xmlns:cc="http://creativecommons.org/ns#" xmlns:rdf="http://www.w3.org/1999/02/22-rdf-syntax-ns#">
   <cc:Work>
    <dc:type rdf:resource="http://purl.org/dc/dcmitype/StillImage"/>
    <dc:date>2024-01-23T20:38:30.192470</dc:date>
    <dc:format>image/svg+xml</dc:format>
    <dc:creator>
     <cc:Agent>
      <dc:title>Matplotlib v3.8.2, https://matplotlib.org/</dc:title>
     </cc:Agent>
    </dc:creator>
   </cc:Work>
  </rdf:RDF>
 </metadata>
 <defs>
  <style type="text/css">*{stroke-linejoin: round; stroke-linecap: butt}</style>
 </defs>
 <g id="figure_1">
  <g id="patch_1">
   <path d="M 0 288 
L 720 288 
L 720 0 
L 0 0 
z
" style="fill: #ffffff"/>
  </g>
  <g id="axes_1">
   <g id="patch_2">
    <path d="M 38.420552 121.071395 
L 417.852318 121.071395 
L 417.852318 18.118365 
L 38.420552 18.118365 
z
" style="fill: #ffffff"/>
   </g>
   <g id="PolyCollection_1">
    <path d="M 38.420552 71.627959 
L 38.420552 69.8384 
L 38.906692 69.8384 
L 38.906692 69.219481 
L 39.931057 69.219481 
L 39.931057 69.139147 
L 40.990146 69.139147 
L 40.990146 67.917209 
L 42.049236 67.917209 
L 42.049236 69.064031 
L 43.108325 69.064031 
L 43.108325 69.58288 
L 43.629188 69.58288 
L 43.629188 71.627959 
L 43.629188 71.627959 
L 43.108325 71.627959 
L 43.108325 71.627959 
L 42.049236 71.627959 
L 42.049236 71.627959 
L 40.990146 71.627959 
L 40.990146 71.627959 
L 39.931057 71.627959 
L 39.931057 71.627959 
L 38.906692 71.627959 
L 38.906692 71.627959 
L 38.420552 71.627959 
z
" clip-path="url(#p2e550c634d)" style="fill: #17becf; fill-opacity: 0.6; stroke: #1f77b4; stroke-opacity: 0.8; stroke-width: 1.5"/>
    <path d="M 48.941997 71.627959 
L 48.941997 67.285011 
L 49.480223 67.285011 
L 49.480223 67.811213 
L 50.556674 67.811213 
L 50.556674 70.272156 
L 51.0949 70.272156 
L 51.0949 71.627959 
L 51.0949 71.627959 
L 50.556674 71.627959 
L 50.556674 71.627959 
L 49.480223 71.627959 
L 49.480223 71.627959 
L 48.941997 71.627959 
z
" clip-path="url(#p2e550c634d)" style="fill: #17becf; fill-opacity: 0.6; stroke: #1f77b4; stroke-opacity: 0.8; stroke-width: 1.5"/>
    <path d="M 99.674111 71.627959 
L 99.674111 64.585186 
L 100.212337 64.585186 
L 100.212337 67.425215 
L 101.288788 67.425215 
L 101.288788 61.685126 
L 102.330515 61.685126 
L 102.330515 56.225771 
L 103.372243 56.225771 
L 103.372243 58.972544 
L 104.431332 58.972544 
L 104.431332 53.076913 
L 105.490421 53.076913 
L 105.490421 46.911321 
L 106.549511 46.911321 
L 106.549511 49.069058 
L 107.6086 49.069058 
L 107.6086 51.783295 
L 108.685051 51.783295 
L 108.685051 51.331872 
L 109.744141 51.331872 
L 109.744141 55.67805 
L 110.80323 55.67805 
L 110.80323 59.2909 
L 111.862319 59.2909 
L 111.862319 60.860353 
L 112.921409 60.860353 
L 112.921409 51.532486 
L 113.99786 51.532486 
L 113.99786 48.457618 
L 115.022225 48.457618 
L 115.022225 44.067008 
L 116.04659 44.067008 
L 116.04659 36.52413 
L 117.105679 36.52413 
L 117.105679 34.782361 
L 118.164769 34.782361 
L 118.164769 35.680471 
L 119.223858 35.680471 
L 119.223858 33.36709 
L 120.282947 33.36709 
L 120.282947 28.55007 
L 121.359399 28.55007 
L 121.359399 29.286598 
L 122.418488 29.286598 
L 122.418488 29.086174 
L 123.477577 29.086174 
L 123.477577 25.622479 
L 124.536667 25.622479 
L 124.536667 27.704127 
L 125.595756 27.704127 
L 125.595756 28.842808 
L 126.672207 28.842808 
L 126.672207 29.660833 
L 127.696572 29.660833 
L 127.696572 34.594125 
L 128.720938 34.594125 
L 128.720938 32.235513 
L 129.780027 32.235513 
L 129.780027 28.226024 
L 130.839116 28.226024 
L 130.839116 25.664145 
L 131.898205 25.664145 
L 131.898205 22.740417 
L 132.957295 22.740417 
L 132.957295 18.118365 
L 134.033746 18.118365 
L 134.033746 21.096782 
L 135.092836 21.096782 
L 135.092836 21.713095 
L 136.151925 21.713095 
L 136.151925 25.989239 
L 137.211014 25.989239 
L 137.211014 25.208203 
L 138.270103 25.208203 
L 138.270103 23.712199 
L 139.346555 23.712199 
L 139.346555 25.448254 
L 140.37092 25.448254 
L 140.37092 32.716099 
L 141.395285 32.716099 
L 141.395285 31.553375 
L 142.454374 31.553375 
L 142.454374 37.610431 
L 143.513464 37.610431 
L 143.513464 43.348629 
L 144.572553 43.348629 
L 144.572553 41.0621 
L 145.631642 41.0621 
L 145.631642 43.798871 
L 146.708094 43.798871 
L 146.708094 46.211254 
L 147.767183 46.211254 
L 147.767183 46.097507 
L 148.826272 46.097507 
L 148.826272 46.100075 
L 149.885362 46.100075 
L 149.885362 46.59001 
L 150.944451 46.59001 
L 150.944451 45.307316 
L 152.020902 45.307316 
L 152.020902 45.19775 
L 153.062629 45.19775 
L 153.062629 46.93428 
L 154.104357 46.93428 
L 154.104357 55.420368 
L 155.163446 55.420368 
L 155.163446 59.859318 
L 156.222535 59.859318 
L 156.222535 60.650913 
L 157.281625 60.650913 
L 157.281625 65.759169 
L 158.340714 65.759169 
L 158.340714 67.834495 
L 159.417165 67.834495 
L 159.417165 68.459946 
L 160.476255 68.459946 
L 160.476255 67.631675 
L 161.535344 67.631675 
L 161.535344 67.738784 
L 162.07357 67.738784 
L 162.07357 71.627959 
L 162.07357 71.627959 
L 161.535344 71.627959 
L 161.535344 71.627959 
L 160.476255 71.627959 
L 160.476255 71.627959 
L 159.417165 71.627959 
L 159.417165 71.627959 
L 158.340714 71.627959 
L 158.340714 71.627959 
L 157.281625 71.627959 
L 157.281625 71.627959 
L 156.222535 71.627959 
L 156.222535 71.627959 
L 155.163446 71.627959 
L 155.163446 71.627959 
L 154.104357 71.627959 
L 154.104357 71.627959 
L 153.062629 71.627959 
L 153.062629 71.627959 
L 152.020902 71.627959 
L 152.020902 71.627959 
L 150.944451 71.627959 
L 150.944451 71.627959 
L 149.885362 71.627959 
L 149.885362 71.627959 
L 148.826272 71.627959 
L 148.826272 71.627959 
L 147.767183 71.627959 
L 147.767183 71.627959 
L 146.708094 71.627959 
L 146.708094 71.627959 
L 145.631642 71.627959 
L 145.631642 71.627959 
L 144.572553 71.627959 
L 144.572553 71.627959 
L 143.513464 71.627959 
L 143.513464 71.627959 
L 142.454374 71.627959 
L 142.454374 71.627959 
L 141.395285 71.627959 
L 141.395285 71.627959 
L 140.37092 71.627959 
L 140.37092 71.627959 
L 139.346555 71.627959 
L 139.346555 71.627959 
L 138.270103 71.627959 
L 138.270103 71.627959 
L 137.211014 71.627959 
L 137.211014 71.627959 
L 136.151925 71.627959 
L 136.151925 71.627959 
L 135.092836 71.627959 
L 135.092836 71.627959 
L 134.033746 71.627959 
L 134.033746 71.627959 
L 132.957295 71.627959 
L 132.957295 71.627959 
L 131.898205 71.627959 
L 131.898205 71.627959 
L 130.839116 71.627959 
L 130.839116 71.627959 
L 129.780027 71.627959 
L 129.780027 71.627959 
L 128.720938 71.627959 
L 128.720938 71.627959 
L 127.696572 71.627959 
L 127.696572 71.627959 
L 126.672207 71.627959 
L 126.672207 71.627959 
L 125.595756 71.627959 
L 125.595756 71.627959 
L 124.536667 71.627959 
L 124.536667 71.627959 
L 123.477577 71.627959 
L 123.477577 71.627959 
L 122.418488 71.627959 
L 122.418488 71.627959 
L 121.359399 71.627959 
L 121.359399 71.627959 
L 120.282947 71.627959 
L 120.282947 71.627959 
L 119.223858 71.627959 
L 119.223858 71.627959 
L 118.164769 71.627959 
L 118.164769 71.627959 
L 117.105679 71.627959 
L 117.105679 71.627959 
L 116.04659 71.627959 
L 116.04659 71.627959 
L 115.022225 71.627959 
L 115.022225 71.627959 
L 113.99786 71.627959 
L 113.99786 71.627959 
L 112.921409 71.627959 
L 112.921409 71.627959 
L 111.862319 71.627959 
L 111.862319 71.627959 
L 110.80323 71.627959 
L 110.80323 71.627959 
L 109.744141 71.627959 
L 109.744141 71.627959 
L 108.685051 71.627959 
L 108.685051 71.627959 
L 107.6086 71.627959 
L 107.6086 71.627959 
L 106.549511 71.627959 
L 106.549511 71.627959 
L 105.490421 71.627959 
L 105.490421 71.627959 
L 104.431332 71.627959 
L 104.431332 71.627959 
L 103.372243 71.627959 
L 103.372243 71.627959 
L 102.330515 71.627959 
L 102.330515 71.627959 
L 101.288788 71.627959 
L 101.288788 71.627959 
L 100.212337 71.627959 
L 100.212337 71.627959 
L 99.674111 71.627959 
z
" clip-path="url(#p2e550c634d)" style="fill: #17becf; fill-opacity: 0.6; stroke: #1f77b4; stroke-opacity: 0.8; stroke-width: 1.5"/>
    <path d="M 210.687505 71.627959 
L 210.687505 68.315238 
L 211.208369 68.315238 
L 211.208369 67.372584 
L 212.267458 67.372584 
L 212.267458 70.411455 
L 213.326547 70.411455 
L 213.326547 71.339718 
L 213.847411 71.339718 
L 213.847411 71.627959 
L 213.847411 71.627959 
L 213.326547 71.627959 
L 213.326547 71.627959 
L 212.267458 71.627959 
L 212.267458 71.627959 
L 211.208369 71.627959 
L 211.208369 71.627959 
L 210.687505 71.627959 
z
" clip-path="url(#p2e550c634d)" style="fill: #17becf; fill-opacity: 0.6; stroke: #1f77b4; stroke-opacity: 0.8; stroke-width: 1.5"/>
    <path d="M 229.64694 71.627959 
L 229.64694 71.329605 
L 230.185166 71.329605 
L 230.185166 69.50086 
L 231.244255 69.50086 
L 231.244255 71.232446 
L 231.765119 71.232446 
L 231.765119 71.627959 
L 231.765119 71.627959 
L 231.244255 71.627959 
L 231.244255 71.627959 
L 230.185166 71.627959 
L 230.185166 71.627959 
L 229.64694 71.627959 
z
" clip-path="url(#p2e550c634d)" style="fill: #17becf; fill-opacity: 0.6; stroke: #1f77b4; stroke-opacity: 0.8; stroke-width: 1.5"/>
    <path d="M 256.10681 71.627959 
L 256.10681 70.870873 
L 256.627674 70.870873 
L 256.627674 68.918422 
L 257.686763 68.918422 
L 257.686763 65.217199 
L 258.745853 65.217199 
L 258.745853 62.673248 
L 259.804942 62.673248 
L 259.804942 64.388952 
L 260.881393 64.388952 
L 260.881393 64.681812 
L 261.940483 64.681812 
L 261.940483 66.628629 
L 262.999572 66.628629 
L 262.999572 66.669032 
L 264.058661 66.669032 
L 264.058661 64.31677 
L 265.117751 64.31677 
L 265.117751 62.60968 
L 266.194202 62.60968 
L 266.194202 55.890285 
L 267.218567 55.890285 
L 267.218567 61.24675 
L 268.242932 61.24675 
L 268.242932 57.985162 
L 269.302022 57.985162 
L 269.302022 62.497518 
L 270.361111 62.497518 
L 270.361111 59.927534 
L 271.4202 59.927534 
L 271.4202 58.772619 
L 272.479289 58.772619 
L 272.479289 58.90074 
L 273.555741 58.90074 
L 273.555741 55.334716 
L 274.61483 55.334716 
L 274.61483 57.081715 
L 275.673919 57.081715 
L 275.673919 56.041204 
L 276.733009 56.041204 
L 276.733009 60.229769 
L 277.792098 60.229769 
L 277.792098 65.206245 
L 278.86855 65.206245 
L 278.86855 68.422052 
L 279.406775 68.422052 
L 279.406775 71.627959 
L 279.406775 71.627959 
L 278.86855 71.627959 
L 278.86855 71.627959 
L 277.792098 71.627959 
L 277.792098 71.627959 
L 276.733009 71.627959 
L 276.733009 71.627959 
L 275.673919 71.627959 
L 275.673919 71.627959 
L 274.61483 71.627959 
L 274.61483 71.627959 
L 273.555741 71.627959 
L 273.555741 71.627959 
L 272.479289 71.627959 
L 272.479289 71.627959 
L 271.4202 71.627959 
L 271.4202 71.627959 
L 270.361111 71.627959 
L 270.361111 71.627959 
L 269.302022 71.627959 
L 269.302022 71.627959 
L 268.242932 71.627959 
L 268.242932 71.627959 
L 267.218567 71.627959 
L 267.218567 71.627959 
L 266.194202 71.627959 
L 266.194202 71.627959 
L 265.117751 71.627959 
L 265.117751 71.627959 
L 264.058661 71.627959 
L 264.058661 71.627959 
L 262.999572 71.627959 
L 262.999572 71.627959 
L 261.940483 71.627959 
L 261.940483 71.627959 
L 260.881393 71.627959 
L 260.881393 71.627959 
L 259.804942 71.627959 
L 259.804942 71.627959 
L 258.745853 71.627959 
L 258.745853 71.627959 
L 257.686763 71.627959 
L 257.686763 71.627959 
L 256.627674 71.627959 
L 256.627674 71.627959 
L 256.10681 71.627959 
z
" clip-path="url(#p2e550c634d)" style="fill: #17becf; fill-opacity: 0.6; stroke: #1f77b4; stroke-opacity: 0.8; stroke-width: 1.5"/>
    <path d="M 325.867808 71.627959 
L 325.867808 71.55151 
L 325.867808 71.55151 
L 325.867808 71.627959 
L 325.867808 71.627959 
L 325.867808 71.627959 
z
" clip-path="url(#p2e550c634d)" style="fill: #17becf; fill-opacity: 0.6; stroke: #1f77b4; stroke-opacity: 0.8; stroke-width: 1.5"/>
    <path d="M 331.111168 71.627959 
L 331.111168 67.63054 
L 331.649394 67.63054 
L 331.649394 64.004742 
L 332.708483 64.004742 
L 332.708483 68.036534 
L 333.767572 68.036534 
L 333.767572 70.25697 
L 334.305798 70.25697 
L 334.305798 71.627959 
L 334.305798 71.627959 
L 333.767572 71.627959 
L 333.767572 71.627959 
L 332.708483 71.627959 
L 332.708483 71.627959 
L 331.649394 71.627959 
L 331.649394 71.627959 
L 331.111168 71.627959 
z
" clip-path="url(#p2e550c634d)" style="fill: #17becf; fill-opacity: 0.6; stroke: #1f77b4; stroke-opacity: 0.8; stroke-width: 1.5"/>
    <path d="M 341.736785 71.627959 
L 341.736785 70.58709 
L 341.736785 70.58709 
L 341.736785 71.627959 
L 341.736785 71.627959 
L 341.736785 71.627959 
z
" clip-path="url(#p2e550c634d)" style="fill: #17becf; fill-opacity: 0.6; stroke: #1f77b4; stroke-opacity: 0.8; stroke-width: 1.5"/>
    <path d="M 370.245386 71.627959 
L 370.245386 68.381982 
L 370.76625 68.381982 
L 370.76625 68.355697 
L 371.287113 68.355697 
L 371.287113 71.627959 
L 371.287113 71.627959 
L 370.76625 71.627959 
L 370.76625 71.627959 
L 370.245386 71.627959 
z
" clip-path="url(#p2e550c634d)" style="fill: #17becf; fill-opacity: 0.6; stroke: #1f77b4; stroke-opacity: 0.8; stroke-width: 1.5"/>
    <path d="M 385.037912 71.627959 
L 385.037912 71.373613 
L 385.558776 71.373613 
L 385.558776 65.974262 
L 386.617865 65.974262 
L 386.617865 65.452197 
L 387.694316 65.452197 
L 387.694316 64.154104 
L 388.753406 64.154104 
L 388.753406 63.039962 
L 389.812495 63.039962 
L 389.812495 64.042342 
L 390.871584 64.042342 
L 390.871584 61.376237 
L 391.930674 61.376237 
L 391.930674 62.236331 
L 393.007125 62.236331 
L 393.007125 63.531365 
L 394.03149 63.531365 
L 394.03149 59.976251 
L 395.055855 59.976251 
L 395.055855 67.474112 
L 396.114944 67.474112 
L 396.114944 61.165449 
L 397.174034 61.165449 
L 397.174034 62.712511 
L 398.233123 62.712511 
L 398.233123 66.884597 
L 399.292212 66.884597 
L 399.292212 65.302177 
L 400.368664 65.302177 
L 400.368664 63.900645 
L 401.427753 63.900645 
L 401.427753 58.260102 
L 402.486842 58.260102 
L 402.486842 57.361056 
L 403.545932 57.361056 
L 403.545932 60.302409 
L 404.605021 60.302409 
L 404.605021 66.061157 
L 405.681472 66.061157 
L 405.681472 64.921395 
L 406.7232 64.921395 
L 406.7232 58.003921 
L 407.764927 58.003921 
L 407.764927 62.570923 
L 408.824016 62.570923 
L 408.824016 59.948241 
L 409.883105 59.948241 
L 409.883105 59.909559 
L 410.942195 59.909559 
L 410.942195 62.412326 
L 412.001284 62.412326 
L 412.001284 63.433238 
L 413.077736 63.433238 
L 413.077736 63.42568 
L 414.136825 63.42568 
L 414.136825 66.098307 
L 415.195914 66.098307 
L 415.195914 59.561176 
L 416.255003 59.561176 
L 416.255003 60.716724 
L 417.314093 60.716724 
L 417.314093 62.831733 
L 417.852318 62.831733 
L 417.852318 71.627959 
L 417.852318 71.627959 
L 417.314093 71.627959 
L 417.314093 71.627959 
L 416.255003 71.627959 
L 416.255003 71.627959 
L 415.195914 71.627959 
L 415.195914 71.627959 
L 414.136825 71.627959 
L 414.136825 71.627959 
L 413.077736 71.627959 
L 413.077736 71.627959 
L 412.001284 71.627959 
L 412.001284 71.627959 
L 410.942195 71.627959 
L 410.942195 71.627959 
L 409.883105 71.627959 
L 409.883105 71.627959 
L 408.824016 71.627959 
L 408.824016 71.627959 
L 407.764927 71.627959 
L 407.764927 71.627959 
L 406.7232 71.627959 
L 406.7232 71.627959 
L 405.681472 71.627959 
L 405.681472 71.627959 
L 404.605021 71.627959 
L 404.605021 71.627959 
L 403.545932 71.627959 
L 403.545932 71.627959 
L 402.486842 71.627959 
L 402.486842 71.627959 
L 401.427753 71.627959 
L 401.427753 71.627959 
L 400.368664 71.627959 
L 400.368664 71.627959 
L 399.292212 71.627959 
L 399.292212 71.627959 
L 398.233123 71.627959 
L 398.233123 71.627959 
L 397.174034 71.627959 
L 397.174034 71.627959 
L 396.114944 71.627959 
L 396.114944 71.627959 
L 395.055855 71.627959 
L 395.055855 71.627959 
L 394.03149 71.627959 
L 394.03149 71.627959 
L 393.007125 71.627959 
L 393.007125 71.627959 
L 391.930674 71.627959 
L 391.930674 71.627959 
L 390.871584 71.627959 
L 390.871584 71.627959 
L 389.812495 71.627959 
L 389.812495 71.627959 
L 388.753406 71.627959 
L 388.753406 71.627959 
L 387.694316 71.627959 
L 387.694316 71.627959 
L 386.617865 71.627959 
L 386.617865 71.627959 
L 385.558776 71.627959 
L 385.558776 71.627959 
L 385.037912 71.627959 
z
" clip-path="url(#p2e550c634d)" style="fill: #17becf; fill-opacity: 0.6; stroke: #1f77b4; stroke-opacity: 0.8; stroke-width: 1.5"/>
   </g>
   <g id="PolyCollection_2">
    <path d="M 44.70564 71.627959 
L 44.70564 73.171255 
L 45.243866 73.171255 
L 45.243866 74.378507 
L 46.302955 74.378507 
L 46.302955 74.086468 
L 47.362044 74.086468 
L 47.362044 75.169935 
L 47.90027 75.169935 
L 47.90027 71.627959 
L 47.90027 71.627959 
L 47.362044 71.627959 
L 47.362044 71.627959 
L 46.302955 71.627959 
L 46.302955 71.627959 
L 45.243866 71.627959 
L 45.243866 71.627959 
L 44.70564 71.627959 
z
" clip-path="url(#p2e550c634d)" style="fill: #d62728; fill-opacity: 0.6; stroke: #b22222; stroke-opacity: 0.8; stroke-width: 1.5"/>
    <path d="M 52.101903 71.627959 
L 52.101903 77.463291 
L 52.640129 77.463291 
L 52.640129 78.790413 
L 53.699218 78.790413 
L 53.699218 79.463678 
L 54.758307 79.463678 
L 54.758307 80.207667 
L 55.817397 80.207667 
L 55.817397 83.601134 
L 56.876486 83.601134 
L 56.876486 80.029643 
L 57.952937 80.029643 
L 57.952937 81.290098 
L 59.012027 81.290098 
L 59.012027 77.759949 
L 60.071116 77.759949 
L 60.071116 80.07332 
L 61.130205 80.07332 
L 61.130205 83.888398 
L 62.189294 83.888398 
L 62.189294 81.417122 
L 63.265746 81.417122 
L 63.265746 81.585601 
L 64.290111 81.585601 
L 64.290111 85.79576 
L 65.314476 85.79576 
L 65.314476 83.620808 
L 66.373565 83.620808 
L 66.373565 84.131596 
L 67.432655 84.131596 
L 67.432655 86.726857 
L 68.491744 86.726857 
L 68.491744 79.216136 
L 69.550833 79.216136 
L 69.550833 75.951865 
L 70.627285 75.951865 
L 70.627285 76.102604 
L 71.686374 76.102604 
L 71.686374 75.346497 
L 72.745463 75.346497 
L 72.745463 76.961202 
L 73.804553 76.961202 
L 73.804553 83.939661 
L 74.863642 83.939661 
L 74.863642 86.323891 
L 75.940093 86.323891 
L 75.940093 89.551047 
L 76.964458 89.551047 
L 76.964458 89.395759 
L 77.988824 89.395759 
L 77.988824 90.174901 
L 79.047913 90.174901 
L 79.047913 88.615336 
L 80.107002 88.615336 
L 80.107002 86.512319 
L 81.166091 86.512319 
L 81.166091 86.196432 
L 82.225181 86.196432 
L 82.225181 88.489 
L 83.301632 88.489 
L 83.301632 90.181192 
L 84.360721 90.181192 
L 84.360721 92.833759 
L 85.419811 92.833759 
L 85.419811 90.439977 
L 86.4789 90.439977 
L 86.4789 87.465676 
L 87.537989 87.465676 
L 87.537989 89.233563 
L 88.614441 89.233563 
L 88.614441 90.250691 
L 89.638806 90.250691 
L 89.638806 95.792958 
L 90.663171 95.792958 
L 90.663171 95.536041 
L 91.72226 95.536041 
L 91.72226 90.331587 
L 92.78135 90.331587 
L 92.78135 88.537925 
L 93.840439 88.537925 
L 93.840439 83.04079 
L 94.899528 83.04079 
L 94.899528 81.61524 
L 95.97598 81.61524 
L 95.97598 76.91779 
L 97.035069 76.91779 
L 97.035069 74.195073 
L 98.094158 74.195073 
L 98.094158 74.9438 
L 98.632384 74.9438 
L 98.632384 71.627959 
L 98.632384 71.627959 
L 98.094158 71.627959 
L 98.094158 71.627959 
L 97.035069 71.627959 
L 97.035069 71.627959 
L 95.97598 71.627959 
L 95.97598 71.627959 
L 94.899528 71.627959 
L 94.899528 71.627959 
L 93.840439 71.627959 
L 93.840439 71.627959 
L 92.78135 71.627959 
L 92.78135 71.627959 
L 91.72226 71.627959 
L 91.72226 71.627959 
L 90.663171 71.627959 
L 90.663171 71.627959 
L 89.638806 71.627959 
L 89.638806 71.627959 
L 88.614441 71.627959 
L 88.614441 71.627959 
L 87.537989 71.627959 
L 87.537989 71.627959 
L 86.4789 71.627959 
L 86.4789 71.627959 
L 85.419811 71.627959 
L 85.419811 71.627959 
L 84.360721 71.627959 
L 84.360721 71.627959 
L 83.301632 71.627959 
L 83.301632 71.627959 
L 82.225181 71.627959 
L 82.225181 71.627959 
L 81.166091 71.627959 
L 81.166091 71.627959 
L 80.107002 71.627959 
L 80.107002 71.627959 
L 79.047913 71.627959 
L 79.047913 71.627959 
L 77.988824 71.627959 
L 77.988824 71.627959 
L 76.964458 71.627959 
L 76.964458 71.627959 
L 75.940093 71.627959 
L 75.940093 71.627959 
L 74.863642 71.627959 
L 74.863642 71.627959 
L 73.804553 71.627959 
L 73.804553 71.627959 
L 72.745463 71.627959 
L 72.745463 71.627959 
L 71.686374 71.627959 
L 71.686374 71.627959 
L 70.627285 71.627959 
L 70.627285 71.627959 
L 69.550833 71.627959 
L 69.550833 71.627959 
L 68.491744 71.627959 
L 68.491744 71.627959 
L 67.432655 71.627959 
L 67.432655 71.627959 
L 66.373565 71.627959 
L 66.373565 71.627959 
L 65.314476 71.627959 
L 65.314476 71.627959 
L 64.290111 71.627959 
L 64.290111 71.627959 
L 63.265746 71.627959 
L 63.265746 71.627959 
L 62.189294 71.627959 
L 62.189294 71.627959 
L 61.130205 71.627959 
L 61.130205 71.627959 
L 60.071116 71.627959 
L 60.071116 71.627959 
L 59.012027 71.627959 
L 59.012027 71.627959 
L 57.952937 71.627959 
L 57.952937 71.627959 
L 56.876486 71.627959 
L 56.876486 71.627959 
L 55.817397 71.627959 
L 55.817397 71.627959 
L 54.758307 71.627959 
L 54.758307 71.627959 
L 53.699218 71.627959 
L 53.699218 71.627959 
L 52.640129 71.627959 
L 52.640129 71.627959 
L 52.101903 71.627959 
z
" clip-path="url(#p2e550c634d)" style="fill: #d62728; fill-opacity: 0.6; stroke: #b22222; stroke-opacity: 0.8; stroke-width: 1.5"/>
    <path d="M 163.115297 71.627959 
L 163.115297 72.484795 
L 163.653523 72.484795 
L 163.653523 77.07577 
L 164.729974 77.07577 
L 164.729974 84.792568 
L 165.754339 84.792568 
L 165.754339 84.486629 
L 166.778704 84.486629 
L 166.778704 83.170571 
L 167.837793 83.170571 
L 167.837793 84.849682 
L 168.896883 84.849682 
L 168.896883 84.592907 
L 169.955972 84.592907 
L 169.955972 80.149595 
L 171.015061 80.149595 
L 171.015061 79.76352 
L 172.091513 79.76352 
L 172.091513 83.297711 
L 173.150602 83.297711 
L 173.150602 89.434794 
L 174.209691 89.434794 
L 174.209691 88.979409 
L 175.268781 88.979409 
L 175.268781 89.986714 
L 176.32787 89.986714 
L 176.32787 92.03654 
L 177.404321 92.03654 
L 177.404321 87.380494 
L 178.428687 87.380494 
L 178.428687 93.335161 
L 179.453052 93.335161 
L 179.453052 97.418487 
L 180.512141 97.418487 
L 180.512141 99.431063 
L 181.57123 99.431063 
L 181.57123 102.693889 
L 182.63032 102.693889 
L 182.63032 99.116682 
L 183.689409 99.116682 
L 183.689409 97.355105 
L 184.76586 97.355105 
L 184.76586 93.835133 
L 185.82495 93.835133 
L 185.82495 94.572058 
L 186.884039 94.572058 
L 186.884039 97.757035 
L 187.943128 97.757035 
L 187.943128 101.257828 
L 189.002217 101.257828 
L 189.002217 103.008343 
L 190.078669 103.008343 
L 190.078669 96.908386 
L 191.103034 96.908386 
L 191.103034 94.878291 
L 192.127399 94.878291 
L 192.127399 89.831727 
L 193.186488 89.831727 
L 193.186488 91.664565 
L 194.245578 91.664565 
L 194.245578 92.013892 
L 195.304667 92.013892 
L 195.304667 93.194636 
L 196.363756 93.194636 
L 196.363756 93.248352 
L 197.440208 93.248352 
L 197.440208 91.682874 
L 198.499297 91.682874 
L 198.499297 90.103117 
L 199.558386 90.103117 
L 199.558386 90.763495 
L 200.617476 90.763495 
L 200.617476 86.196508 
L 201.676565 86.196508 
L 201.676565 87.471906 
L 202.753016 87.471906 
L 202.753016 88.915703 
L 203.794744 88.915703 
L 203.794744 86.239759 
L 204.836471 86.239759 
L 204.836471 85.810247 
L 205.89556 85.810247 
L 205.89556 82.371487 
L 206.954649 82.371487 
L 206.954649 75.555659 
L 208.013739 75.555659 
L 208.013739 74.980385 
L 209.072828 74.980385 
L 209.072828 74.849553 
L 209.611054 74.849553 
L 209.611054 71.627959 
L 209.611054 71.627959 
L 209.072828 71.627959 
L 209.072828 71.627959 
L 208.013739 71.627959 
L 208.013739 71.627959 
L 206.954649 71.627959 
L 206.954649 71.627959 
L 205.89556 71.627959 
L 205.89556 71.627959 
L 204.836471 71.627959 
L 204.836471 71.627959 
L 203.794744 71.627959 
L 203.794744 71.627959 
L 202.753016 71.627959 
L 202.753016 71.627959 
L 201.676565 71.627959 
L 201.676565 71.627959 
L 200.617476 71.627959 
L 200.617476 71.627959 
L 199.558386 71.627959 
L 199.558386 71.627959 
L 198.499297 71.627959 
L 198.499297 71.627959 
L 197.440208 71.627959 
L 197.440208 71.627959 
L 196.363756 71.627959 
L 196.363756 71.627959 
L 195.304667 71.627959 
L 195.304667 71.627959 
L 194.245578 71.627959 
L 194.245578 71.627959 
L 193.186488 71.627959 
L 193.186488 71.627959 
L 192.127399 71.627959 
L 192.127399 71.627959 
L 191.103034 71.627959 
L 191.103034 71.627959 
L 190.078669 71.627959 
L 190.078669 71.627959 
L 189.002217 71.627959 
L 189.002217 71.627959 
L 187.943128 71.627959 
L 187.943128 71.627959 
L 186.884039 71.627959 
L 186.884039 71.627959 
L 185.82495 71.627959 
L 185.82495 71.627959 
L 184.76586 71.627959 
L 184.76586 71.627959 
L 183.689409 71.627959 
L 183.689409 71.627959 
L 182.63032 71.627959 
L 182.63032 71.627959 
L 181.57123 71.627959 
L 181.57123 71.627959 
L 180.512141 71.627959 
L 180.512141 71.627959 
L 179.453052 71.627959 
L 179.453052 71.627959 
L 178.428687 71.627959 
L 178.428687 71.627959 
L 177.404321 71.627959 
L 177.404321 71.627959 
L 176.32787 71.627959 
L 176.32787 71.627959 
L 175.268781 71.627959 
L 175.268781 71.627959 
L 174.209691 71.627959 
L 174.209691 71.627959 
L 173.150602 71.627959 
L 173.150602 71.627959 
L 172.091513 71.627959 
L 172.091513 71.627959 
L 171.015061 71.627959 
L 171.015061 71.627959 
L 169.955972 71.627959 
L 169.955972 71.627959 
L 168.896883 71.627959 
L 168.896883 71.627959 
L 167.837793 71.627959 
L 167.837793 71.627959 
L 166.778704 71.627959 
L 166.778704 71.627959 
L 165.754339 71.627959 
L 165.754339 71.627959 
L 164.729974 71.627959 
L 164.729974 71.627959 
L 163.653523 71.627959 
L 163.653523 71.627959 
L 163.115297 71.627959 
z
" clip-path="url(#p2e550c634d)" style="fill: #d62728; fill-opacity: 0.6; stroke: #b22222; stroke-opacity: 0.8; stroke-width: 1.5"/>
    <path d="M 214.923862 71.627959 
L 214.923862 72.102199 
L 215.462088 72.102199 
L 215.462088 78.435562 
L 216.486453 78.435562 
L 216.486453 79.348587 
L 217.510818 79.348587 
L 217.510818 81.142295 
L 218.569907 81.142295 
L 218.569907 81.813324 
L 219.628997 81.813324 
L 219.628997 78.060899 
L 220.688086 78.060899 
L 220.688086 76.83334 
L 221.747175 76.83334 
L 221.747175 78.74207 
L 222.823627 78.74207 
L 222.823627 80.225128 
L 223.882716 80.225128 
L 223.882716 81.302143 
L 224.941805 81.302143 
L 224.941805 82.952633 
L 226.000895 82.952633 
L 226.000895 81.1344 
L 227.059984 81.1344 
L 227.059984 80.313255 
L 228.136435 80.313255 
L 228.136435 73.618412 
L 228.674661 73.618412 
L 228.674661 71.627959 
L 228.674661 71.627959 
L 228.136435 71.627959 
L 228.136435 71.627959 
L 227.059984 71.627959 
L 227.059984 71.627959 
L 226.000895 71.627959 
L 226.000895 71.627959 
L 224.941805 71.627959 
L 224.941805 71.627959 
L 223.882716 71.627959 
L 223.882716 71.627959 
L 222.823627 71.627959 
L 222.823627 71.627959 
L 221.747175 71.627959 
L 221.747175 71.627959 
L 220.688086 71.627959 
L 220.688086 71.627959 
L 219.628997 71.627959 
L 219.628997 71.627959 
L 218.569907 71.627959 
L 218.569907 71.627959 
L 217.510818 71.627959 
L 217.510818 71.627959 
L 216.486453 71.627959 
L 216.486453 71.627959 
L 215.462088 71.627959 
L 215.462088 71.627959 
L 214.923862 71.627959 
z
" clip-path="url(#p2e550c634d)" style="fill: #d62728; fill-opacity: 0.6; stroke: #b22222; stroke-opacity: 0.8; stroke-width: 1.5"/>
    <path d="M 232.84157 71.627959 
L 232.84157 74.94109 
L 233.362434 74.94109 
L 233.362434 82.857098 
L 234.421523 82.857098 
L 234.421523 83.948315 
L 235.497974 83.948315 
L 235.497974 84.338919 
L 236.557064 84.338919 
L 236.557064 80.552457 
L 237.616153 80.552457 
L 237.616153 80.032211 
L 238.675242 80.032211 
L 238.675242 74.629393 
L 239.734332 74.629393 
L 239.734332 74.682303 
L 240.810783 74.682303 
L 240.810783 75.333907 
L 241.835148 75.333907 
L 241.835148 75.649033 
L 242.859513 75.649033 
L 242.859513 78.546059 
L 243.918602 78.546059 
L 243.918602 80.134844 
L 244.977692 80.134844 
L 244.977692 78.214329 
L 246.036781 78.214329 
L 246.036781 76.687036 
L 247.09587 76.687036 
L 247.09587 76.203902 
L 248.172322 76.203902 
L 248.172322 82.365227 
L 249.231411 82.365227 
L 249.231411 79.81211 
L 250.2905 79.81211 
L 250.2905 78.816161 
L 251.34959 78.816161 
L 251.34959 82.43223 
L 252.408679 82.43223 
L 252.408679 83.381518 
L 253.48513 83.381518 
L 253.48513 80.223244 
L 254.526858 80.223244 
L 254.526858 74.578663 
L 255.030359 74.578663 
L 255.030359 71.627959 
L 255.030359 71.627959 
L 254.526858 71.627959 
L 254.526858 71.627959 
L 253.48513 71.627959 
L 253.48513 71.627959 
L 252.408679 71.627959 
L 252.408679 71.627959 
L 251.34959 71.627959 
L 251.34959 71.627959 
L 250.2905 71.627959 
L 250.2905 71.627959 
L 249.231411 71.627959 
L 249.231411 71.627959 
L 248.172322 71.627959 
L 248.172322 71.627959 
L 247.09587 71.627959 
L 247.09587 71.627959 
L 246.036781 71.627959 
L 246.036781 71.627959 
L 244.977692 71.627959 
L 244.977692 71.627959 
L 243.918602 71.627959 
L 243.918602 71.627959 
L 242.859513 71.627959 
L 242.859513 71.627959 
L 241.835148 71.627959 
L 241.835148 71.627959 
L 240.810783 71.627959 
L 240.810783 71.627959 
L 239.734332 71.627959 
L 239.734332 71.627959 
L 238.675242 71.627959 
L 238.675242 71.627959 
L 237.616153 71.627959 
L 237.616153 71.627959 
L 236.557064 71.627959 
L 236.557064 71.627959 
L 235.497974 71.627959 
L 235.497974 71.627959 
L 234.421523 71.627959 
L 234.421523 71.627959 
L 233.362434 71.627959 
L 233.362434 71.627959 
L 232.84157 71.627959 
z
" clip-path="url(#p2e550c634d)" style="fill: #d62728; fill-opacity: 0.6; stroke: #b22222; stroke-opacity: 0.8; stroke-width: 1.5"/>
    <path d="M 280.379054 71.627959 
L 280.379054 77.617316 
L 280.91728 77.617316 
L 280.91728 79.888866 
L 281.976369 79.888866 
L 281.976369 79.339714 
L 283.035458 79.339714 
L 283.035458 81.797287 
L 284.094548 81.797287 
L 284.094548 78.372197 
L 285.153637 78.372197 
L 285.153637 79.269256 
L 286.230088 79.269256 
L 286.230088 78.307781 
L 287.289178 78.307781 
L 287.289178 77.990871 
L 288.348267 77.990871 
L 288.348267 76.539168 
L 289.407356 76.539168 
L 289.407356 75.358254 
L 290.466446 75.358254 
L 290.466446 75.438113 
L 291.542897 75.438113 
L 291.542897 72.769973 
L 292.567262 72.769973 
L 292.567262 72.508521 
L 293.591627 72.508521 
L 293.591627 73.523259 
L 294.650716 73.523259 
L 294.650716 71.704168 
L 295.709806 71.704168 
L 295.709806 73.371171 
L 296.768895 73.371171 
L 296.768895 73.364716 
L 297.827984 73.364716 
L 297.827984 72.674975 
L 298.904436 72.674975 
L 298.904436 73.368033 
L 299.963525 73.368033 
L 299.963525 76.548264 
L 301.022614 76.548264 
L 301.022614 73.161469 
L 302.081704 73.161469 
L 302.081704 75.259497 
L 303.140793 75.259497 
L 303.140793 77.412233 
L 304.217244 77.412233 
L 304.217244 73.587232 
L 305.258972 73.587232 
L 305.258972 72.86189 
L 306.300699 72.86189 
L 306.300699 73.003031 
L 307.359788 73.003031 
L 307.359788 80.159678 
L 308.418877 80.159678 
L 308.418877 77.251248 
L 309.477967 77.251248 
L 309.477967 82.037803 
L 310.537056 82.037803 
L 310.537056 81.068563 
L 311.613507 81.068563 
L 311.613507 84.766129 
L 312.672597 84.766129 
L 312.672597 87.887319 
L 313.731686 87.887319 
L 313.731686 85.80159 
L 314.790775 85.80159 
L 314.790775 88.77947 
L 315.849865 88.77947 
L 315.849865 85.33232 
L 316.926316 85.33232 
L 316.926316 85.929106 
L 317.950681 85.929106 
L 317.950681 83.859777 
L 318.975046 83.859777 
L 318.975046 81.304123 
L 320.034136 81.304123 
L 320.034136 77.927423 
L 321.093225 77.927423 
L 321.093225 75.229946 
L 322.152314 75.229946 
L 322.152314 73.504224 
L 323.211403 73.504224 
L 323.211403 73.866766 
L 324.287855 73.866766 
L 324.287855 73.05225 
L 324.826081 73.05225 
L 324.826081 71.627959 
L 324.826081 71.627959 
L 324.287855 71.627959 
L 324.287855 71.627959 
L 323.211403 71.627959 
L 323.211403 71.627959 
L 322.152314 71.627959 
L 322.152314 71.627959 
L 321.093225 71.627959 
L 321.093225 71.627959 
L 320.034136 71.627959 
L 320.034136 71.627959 
L 318.975046 71.627959 
L 318.975046 71.627959 
L 317.950681 71.627959 
L 317.950681 71.627959 
L 316.926316 71.627959 
L 316.926316 71.627959 
L 315.849865 71.627959 
L 315.849865 71.627959 
L 314.790775 71.627959 
L 314.790775 71.627959 
L 313.731686 71.627959 
L 313.731686 71.627959 
L 312.672597 71.627959 
L 312.672597 71.627959 
L 311.613507 71.627959 
L 311.613507 71.627959 
L 310.537056 71.627959 
L 310.537056 71.627959 
L 309.477967 71.627959 
L 309.477967 71.627959 
L 308.418877 71.627959 
L 308.418877 71.627959 
L 307.359788 71.627959 
L 307.359788 71.627959 
L 306.300699 71.627959 
L 306.300699 71.627959 
L 305.258972 71.627959 
L 305.258972 71.627959 
L 304.217244 71.627959 
L 304.217244 71.627959 
L 303.140793 71.627959 
L 303.140793 71.627959 
L 302.081704 71.627959 
L 302.081704 71.627959 
L 301.022614 71.627959 
L 301.022614 71.627959 
L 299.963525 71.627959 
L 299.963525 71.627959 
L 298.904436 71.627959 
L 298.904436 71.627959 
L 297.827984 71.627959 
L 297.827984 71.627959 
L 296.768895 71.627959 
L 296.768895 71.627959 
L 295.709806 71.627959 
L 295.709806 71.627959 
L 294.650716 71.627959 
L 294.650716 71.627959 
L 293.591627 71.627959 
L 293.591627 71.627959 
L 292.567262 71.627959 
L 292.567262 71.627959 
L 291.542897 71.627959 
L 291.542897 71.627959 
L 290.466446 71.627959 
L 290.466446 71.627959 
L 289.407356 71.627959 
L 289.407356 71.627959 
L 288.348267 71.627959 
L 288.348267 71.627959 
L 287.289178 71.627959 
L 287.289178 71.627959 
L 286.230088 71.627959 
L 286.230088 71.627959 
L 285.153637 71.627959 
L 285.153637 71.627959 
L 284.094548 71.627959 
L 284.094548 71.627959 
L 283.035458 71.627959 
L 283.035458 71.627959 
L 281.976369 71.627959 
L 281.976369 71.627959 
L 280.91728 71.627959 
L 280.91728 71.627959 
L 280.379054 71.627959 
z
" clip-path="url(#p2e550c634d)" style="fill: #d62728; fill-opacity: 0.6; stroke: #b22222; stroke-opacity: 0.8; stroke-width: 1.5"/>
    <path d="M 326.944259 71.627959 
L 326.944259 74.104974 
L 327.465123 74.104974 
L 327.465123 77.011801 
L 328.524212 77.011801 
L 328.524212 75.764634 
L 329.600664 75.764634 
L 329.600664 75.288271 
L 330.138889 75.288271 
L 330.138889 71.627959 
L 330.138889 71.627959 
L 329.600664 71.627959 
L 329.600664 71.627959 
L 328.524212 71.627959 
L 328.524212 71.627959 
L 327.465123 71.627959 
L 327.465123 71.627959 
L 326.944259 71.627959 
z
" clip-path="url(#p2e550c634d)" style="fill: #d62728; fill-opacity: 0.6; stroke: #b22222; stroke-opacity: 0.8; stroke-width: 1.5"/>
    <path d="M 335.347525 71.627959 
L 335.347525 73.901648 
L 335.885751 73.901648 
L 335.885751 78.20165 
L 336.962202 78.20165 
L 336.962202 76.82959 
L 338.021292 76.82959 
L 338.021292 80.465129 
L 339.080381 80.465129 
L 339.080381 80.019581 
L 340.13947 80.019581 
L 340.13947 72.641603 
L 340.660334 72.641603 
L 340.660334 71.627959 
L 340.660334 71.627959 
L 340.13947 71.627959 
L 340.13947 71.627959 
L 339.080381 71.627959 
L 339.080381 71.627959 
L 338.021292 71.627959 
L 338.021292 71.627959 
L 336.962202 71.627959 
L 336.962202 71.627959 
L 335.885751 71.627959 
L 335.885751 71.627959 
L 335.347525 71.627959 
z
" clip-path="url(#p2e550c634d)" style="fill: #d62728; fill-opacity: 0.6; stroke: #b22222; stroke-opacity: 0.8; stroke-width: 1.5"/>
    <path d="M 342.813237 71.627959 
L 342.813237 72.399366 
L 343.299376 72.399366 
L 343.299376 72.758722 
L 344.323741 72.758722 
L 344.323741 73.885681 
L 345.38283 73.885681 
L 345.38283 77.980388 
L 346.44192 77.980388 
L 346.44192 82.338289 
L 347.501009 82.338289 
L 347.501009 88.744193 
L 348.560098 88.744193 
L 348.560098 87.260207 
L 349.63655 87.260207 
L 349.63655 87.666249 
L 350.695639 87.666249 
L 350.695639 86.439099 
L 351.754728 86.439099 
L 351.754728 88.650544 
L 352.813818 88.650544 
L 352.813818 87.50115 
L 353.872907 87.50115 
L 353.872907 80.439289 
L 354.949358 80.439289 
L 354.949358 85.097018 
L 355.991086 85.097018 
L 355.991086 82.520863 
L 357.032813 82.520863 
L 357.032813 84.156257 
L 358.091902 84.156257 
L 358.091902 84.653132 
L 359.150991 84.653132 
L 359.150991 82.603018 
L 360.210081 82.603018 
L 360.210081 84.189074 
L 361.26917 84.189074 
L 361.26917 83.287473 
L 362.345621 83.287473 
L 362.345621 82.424177 
L 363.404711 82.424177 
L 363.404711 79.794897 
L 364.4638 79.794897 
L 364.4638 76.141546 
L 365.522889 76.141546 
L 365.522889 79.544774 
L 366.581979 79.544774 
L 366.581979 79.037954 
L 367.65843 79.037954 
L 367.65843 78.582145 
L 368.682795 78.582145 
L 368.682795 73.332948 
L 369.168935 73.332948 
L 369.168935 71.627959 
L 369.168935 71.627959 
L 368.682795 71.627959 
L 368.682795 71.627959 
L 367.65843 71.627959 
L 367.65843 71.627959 
L 366.581979 71.627959 
L 366.581979 71.627959 
L 365.522889 71.627959 
L 365.522889 71.627959 
L 364.4638 71.627959 
L 364.4638 71.627959 
L 363.404711 71.627959 
L 363.404711 71.627959 
L 362.345621 71.627959 
L 362.345621 71.627959 
L 361.26917 71.627959 
L 361.26917 71.627959 
L 360.210081 71.627959 
L 360.210081 71.627959 
L 359.150991 71.627959 
L 359.150991 71.627959 
L 358.091902 71.627959 
L 358.091902 71.627959 
L 357.032813 71.627959 
L 357.032813 71.627959 
L 355.991086 71.627959 
L 355.991086 71.627959 
L 354.949358 71.627959 
L 354.949358 71.627959 
L 353.872907 71.627959 
L 353.872907 71.627959 
L 352.813818 71.627959 
L 352.813818 71.627959 
L 351.754728 71.627959 
L 351.754728 71.627959 
L 350.695639 71.627959 
L 350.695639 71.627959 
L 349.63655 71.627959 
L 349.63655 71.627959 
L 348.560098 71.627959 
L 348.560098 71.627959 
L 347.501009 71.627959 
L 347.501009 71.627959 
L 346.44192 71.627959 
L 346.44192 71.627959 
L 345.38283 71.627959 
L 345.38283 71.627959 
L 344.323741 71.627959 
L 344.323741 71.627959 
L 343.299376 71.627959 
L 343.299376 71.627959 
L 342.813237 71.627959 
z
" clip-path="url(#p2e550c634d)" style="fill: #d62728; fill-opacity: 0.6; stroke: #b22222; stroke-opacity: 0.8; stroke-width: 1.5"/>
    <path d="M 372.363565 71.627959 
L 372.363565 77.604068 
L 372.884428 77.604068 
L 372.884428 81.049689 
L 373.943518 81.049689 
L 373.943518 83.388517 
L 375.019969 83.388517 
L 375.019969 82.260839 
L 376.079058 82.260839 
L 376.079058 80.040537 
L 377.138148 80.040537 
L 377.138148 79.188679 
L 378.197237 79.188679 
L 378.197237 79.185696 
L 379.256326 79.185696 
L 379.256326 74.777421 
L 380.332778 74.777421 
L 380.332778 75.182043 
L 381.357143 75.182043 
L 381.357143 74.037888 
L 382.381508 74.037888 
L 382.381508 74.360386 
L 383.440597 74.360386 
L 383.440597 72.661477 
L 383.961461 72.661477 
L 383.961461 71.627959 
L 383.961461 71.627959 
L 383.440597 71.627959 
L 383.440597 71.627959 
L 382.381508 71.627959 
L 382.381508 71.627959 
L 381.357143 71.627959 
L 381.357143 71.627959 
L 380.332778 71.627959 
L 380.332778 71.627959 
L 379.256326 71.627959 
L 379.256326 71.627959 
L 378.197237 71.627959 
L 378.197237 71.627959 
L 377.138148 71.627959 
L 377.138148 71.627959 
L 376.079058 71.627959 
L 376.079058 71.627959 
L 375.019969 71.627959 
L 375.019969 71.627959 
L 373.943518 71.627959 
L 373.943518 71.627959 
L 372.884428 71.627959 
L 372.884428 71.627959 
L 372.363565 71.627959 
z
" clip-path="url(#p2e550c634d)" style="fill: #d62728; fill-opacity: 0.6; stroke: #b22222; stroke-opacity: 0.8; stroke-width: 1.5"/>
   </g>
   <g id="matplotlib.axis_1">
    <g id="xtick_1">
     <g id="line2d_1">
      <defs>
       <path id="mfad0f7f2b1" d="M 0 0 
L 0 3.5 
" style="stroke: #000000; stroke-width: 0.8"/>
      </defs>
      <g>
       <use xlink:href="#mfad0f7f2b1" x="50.053173" y="121.071395" style="stroke: #000000; stroke-width: 0.8"/>
      </g>
     </g>
    </g>
    <g id="xtick_2">
     <g id="line2d_2">
      <g>
       <use xlink:href="#mfad0f7f2b1" x="100.785287" y="121.071395" style="stroke: #000000; stroke-width: 0.8"/>
      </g>
     </g>
    </g>
    <g id="xtick_3">
     <g id="line2d_3">
      <g>
       <use xlink:href="#mfad0f7f2b1" x="151.517401" y="121.071395" style="stroke: #000000; stroke-width: 0.8"/>
      </g>
     </g>
    </g>
    <g id="xtick_4">
     <g id="line2d_4">
      <g>
       <use xlink:href="#mfad0f7f2b1" x="202.249515" y="121.071395" style="stroke: #000000; stroke-width: 0.8"/>
      </g>
     </g>
    </g>
    <g id="xtick_5">
     <g id="line2d_5">
      <g>
       <use xlink:href="#mfad0f7f2b1" x="252.981629" y="121.071395" style="stroke: #000000; stroke-width: 0.8"/>
      </g>
     </g>
    </g>
    <g id="xtick_6">
     <g id="line2d_6">
      <g>
       <use xlink:href="#mfad0f7f2b1" x="303.713743" y="121.071395" style="stroke: #000000; stroke-width: 0.8"/>
      </g>
     </g>
    </g>
    <g id="xtick_7">
     <g id="line2d_7">
      <g>
       <use xlink:href="#mfad0f7f2b1" x="354.445857" y="121.071395" style="stroke: #000000; stroke-width: 0.8"/>
      </g>
     </g>
    </g>
    <g id="xtick_8">
     <g id="line2d_8">
      <g>
       <use xlink:href="#mfad0f7f2b1" x="405.177971" y="121.071395" style="stroke: #000000; stroke-width: 0.8"/>
      </g>
     </g>
    </g>
   </g>
   <g id="matplotlib.axis_2">
    <g id="ytick_1">
     <g id="line2d_9">
      <defs>
       <path id="m80917b40a2" d="M 0 0 
L -3.5 0 
" style="stroke: #000000; stroke-width: 0.8"/>
      </defs>
      <g>
       <use xlink:href="#m80917b40a2" x="38.420552" y="104.59025" style="stroke: #000000; stroke-width: 0.8"/>
      </g>
     </g>
     <g id="text_1">
      <!-- −2 -->
      <g transform="translate(16.678365 108.389468) scale(0.1 -0.1)">
       <defs>
        <path id="DejaVuSans-2212" d="M 678 2272 
L 4684 2272 
L 4684 1741 
L 678 1741 
L 678 2272 
z
" transform="scale(0.015625)"/>
        <path id="DejaVuSans-32" d="M 1228 531 
L 3431 531 
L 3431 0 
L 469 0 
L 469 531 
Q 828 903 1448 1529 
Q 2069 2156 2228 2338 
Q 2531 2678 2651 2914 
Q 2772 3150 2772 3378 
Q 2772 3750 2511 3984 
Q 2250 4219 1831 4219 
Q 1534 4219 1204 4116 
Q 875 4013 500 3803 
L 500 4441 
Q 881 4594 1212 4672 
Q 1544 4750 1819 4750 
Q 2544 4750 2975 4387 
Q 3406 4025 3406 3419 
Q 3406 3131 3298 2873 
Q 3191 2616 2906 2266 
Q 2828 2175 2409 1742 
Q 1991 1309 1228 531 
z
" transform="scale(0.015625)"/>
       </defs>
       <use xlink:href="#DejaVuSans-2212"/>
       <use xlink:href="#DejaVuSans-32" x="83.789062"/>
      </g>
     </g>
    </g>
    <g id="ytick_2">
     <g id="line2d_10">
      <g>
       <use xlink:href="#m80917b40a2" x="38.420552" y="71.627959" style="stroke: #000000; stroke-width: 0.8"/>
      </g>
     </g>
     <g id="text_2">
      <!-- 0 -->
      <g transform="translate(25.058052 75.427178) scale(0.1 -0.1)">
       <defs>
        <path id="DejaVuSans-30" d="M 2034 4250 
Q 1547 4250 1301 3770 
Q 1056 3291 1056 2328 
Q 1056 1369 1301 889 
Q 1547 409 2034 409 
Q 2525 409 2770 889 
Q 3016 1369 3016 2328 
Q 3016 3291 2770 3770 
Q 2525 4250 2034 4250 
z
M 2034 4750 
Q 2819 4750 3233 4129 
Q 3647 3509 3647 2328 
Q 3647 1150 3233 529 
Q 2819 -91 2034 -91 
Q 1250 -91 836 529 
Q 422 1150 422 2328 
Q 422 3509 836 4129 
Q 1250 4750 2034 4750 
z
" transform="scale(0.015625)"/>
       </defs>
       <use xlink:href="#DejaVuSans-30"/>
      </g>
     </g>
    </g>
    <g id="ytick_3">
     <g id="line2d_11">
      <g>
       <use xlink:href="#m80917b40a2" x="38.420552" y="38.665669" style="stroke: #000000; stroke-width: 0.8"/>
      </g>
     </g>
     <g id="text_3">
      <!-- 2 -->
      <g transform="translate(25.058052 42.464887) scale(0.1 -0.1)">
       <use xlink:href="#DejaVuSans-32"/>
      </g>
     </g>
    </g>
    <g id="text_4">
     <!-- SPI-39 -->
     <g transform="translate(10.598677 85.425349) rotate(-90) scale(0.1 -0.1)">
      <defs>
       <path id="DejaVuSans-53" d="M 3425 4513 
L 3425 3897 
Q 3066 4069 2747 4153 
Q 2428 4238 2131 4238 
Q 1616 4238 1336 4038 
Q 1056 3838 1056 3469 
Q 1056 3159 1242 3001 
Q 1428 2844 1947 2747 
L 2328 2669 
Q 3034 2534 3370 2195 
Q 3706 1856 3706 1288 
Q 3706 609 3251 259 
Q 2797 -91 1919 -91 
Q 1588 -91 1214 -16 
Q 841 59 441 206 
L 441 856 
Q 825 641 1194 531 
Q 1563 422 1919 422 
Q 2459 422 2753 634 
Q 3047 847 3047 1241 
Q 3047 1584 2836 1778 
Q 2625 1972 2144 2069 
L 1759 2144 
Q 1053 2284 737 2584 
Q 422 2884 422 3419 
Q 422 4038 858 4394 
Q 1294 4750 2059 4750 
Q 2388 4750 2728 4690 
Q 3069 4631 3425 4513 
z
" transform="scale(0.015625)"/>
       <path id="DejaVuSans-50" d="M 1259 4147 
L 1259 2394 
L 2053 2394 
Q 2494 2394 2734 2622 
Q 2975 2850 2975 3272 
Q 2975 3691 2734 3919 
Q 2494 4147 2053 4147 
L 1259 4147 
z
M 628 4666 
L 2053 4666 
Q 2838 4666 3239 4311 
Q 3641 3956 3641 3272 
Q 3641 2581 3239 2228 
Q 2838 1875 2053 1875 
L 1259 1875 
L 1259 0 
L 628 0 
L 628 4666 
z
" transform="scale(0.015625)"/>
       <path id="DejaVuSans-49" d="M 628 4666 
L 1259 4666 
L 1259 0 
L 628 0 
L 628 4666 
z
" transform="scale(0.015625)"/>
       <path id="DejaVuSans-2d" d="M 313 2009 
L 1997 2009 
L 1997 1497 
L 313 1497 
L 313 2009 
z
" transform="scale(0.015625)"/>
       <path id="DejaVuSans-33" d="M 2597 2516 
Q 3050 2419 3304 2112 
Q 3559 1806 3559 1356 
Q 3559 666 3084 287 
Q 2609 -91 1734 -91 
Q 1441 -91 1130 -33 
Q 819 25 488 141 
L 488 750 
Q 750 597 1062 519 
Q 1375 441 1716 441 
Q 2309 441 2620 675 
Q 2931 909 2931 1356 
Q 2931 1769 2642 2001 
Q 2353 2234 1838 2234 
L 1294 2234 
L 1294 2753 
L 1863 2753 
Q 2328 2753 2575 2939 
Q 2822 3125 2822 3475 
Q 2822 3834 2567 4026 
Q 2313 4219 1838 4219 
Q 1578 4219 1281 4162 
Q 984 4106 628 3988 
L 628 4550 
Q 988 4650 1302 4700 
Q 1616 4750 1894 4750 
Q 2613 4750 3031 4423 
Q 3450 4097 3450 3541 
Q 3450 3153 3228 2886 
Q 3006 2619 2597 2516 
z
" transform="scale(0.015625)"/>
       <path id="DejaVuSans-39" d="M 703 97 
L 703 672 
Q 941 559 1184 500 
Q 1428 441 1663 441 
Q 2288 441 2617 861 
Q 2947 1281 2994 2138 
Q 2813 1869 2534 1725 
Q 2256 1581 1919 1581 
Q 1219 1581 811 2004 
Q 403 2428 403 3163 
Q 403 3881 828 4315 
Q 1253 4750 1959 4750 
Q 2769 4750 3195 4129 
Q 3622 3509 3622 2328 
Q 3622 1225 3098 567 
Q 2575 -91 1691 -91 
Q 1453 -91 1209 -44 
Q 966 3 703 97 
z
M 1959 2075 
Q 2384 2075 2632 2365 
Q 2881 2656 2881 3163 
Q 2881 3666 2632 3958 
Q 2384 4250 1959 4250 
Q 1534 4250 1286 3958 
Q 1038 3666 1038 3163 
Q 1038 2656 1286 2365 
Q 1534 2075 1959 2075 
z
" transform="scale(0.015625)"/>
      </defs>
      <use xlink:href="#DejaVuSans-53"/>
      <use xlink:href="#DejaVuSans-50" x="63.476562"/>
      <use xlink:href="#DejaVuSans-49" x="123.779297"/>
      <use xlink:href="#DejaVuSans-2d" x="153.271484"/>
      <use xlink:href="#DejaVuSans-33" x="189.355469"/>
      <use xlink:href="#DejaVuSans-39" x="252.978516"/>
     </g>
    </g>
   </g>
   <g id="line2d_12">
    <path d="M 38.420552 71.627959 
L 417.852318 71.627959 
" clip-path="url(#p2e550c634d)" style="fill: none; stroke: #000000; stroke-width: 1.5; stroke-linecap: square"/>
   </g>
   <g id="patch_3">
    <path d="M 38.420552 121.071395 
L 38.420552 18.118365 
" style="fill: none; stroke: #000000; stroke-width: 0.8; stroke-linejoin: miter; stroke-linecap: square"/>
   </g>
   <g id="patch_4">
    <path d="M 38.420552 121.071395 
L 417.852318 121.071395 
" style="fill: none; stroke: #000000; stroke-width: 0.8; stroke-linejoin: miter; stroke-linecap: square"/>
   </g>
   <g id="text_5">
    <!-- (a) -->
    <g transform="translate(38.420552 12.118365) scale(0.12 -0.12)">
     <defs>
      <path id="DejaVuSans-Bold-28" d="M 2413 -844 
L 1484 -844 
Q 1006 -72 778 623 
Q 550 1319 550 2003 
Q 550 2688 779 3389 
Q 1009 4091 1484 4856 
L 2413 4856 
Q 2013 4116 1813 3408 
Q 1613 2700 1613 2009 
Q 1613 1319 1811 609 
Q 2009 -100 2413 -844 
z
" transform="scale(0.015625)"/>
      <path id="DejaVuSans-Bold-61" d="M 2106 1575 
Q 1756 1575 1579 1456 
Q 1403 1338 1403 1106 
Q 1403 894 1545 773 
Q 1688 653 1941 653 
Q 2256 653 2472 879 
Q 2688 1106 2688 1447 
L 2688 1575 
L 2106 1575 
z
M 3816 1997 
L 3816 0 
L 2688 0 
L 2688 519 
Q 2463 200 2181 54 
Q 1900 -91 1497 -91 
Q 953 -91 614 226 
Q 275 544 275 1050 
Q 275 1666 698 1953 
Q 1122 2241 2028 2241 
L 2688 2241 
L 2688 2328 
Q 2688 2594 2478 2717 
Q 2269 2841 1825 2841 
Q 1466 2841 1156 2769 
Q 847 2697 581 2553 
L 581 3406 
Q 941 3494 1303 3539 
Q 1666 3584 2028 3584 
Q 2975 3584 3395 3211 
Q 3816 2838 3816 1997 
z
" transform="scale(0.015625)"/>
      <path id="DejaVuSans-Bold-29" d="M 513 -844 
Q 913 -100 1113 609 
Q 1313 1319 1313 2009 
Q 1313 2700 1113 3408 
Q 913 4116 513 4856 
L 1441 4856 
Q 1916 4091 2145 3389 
Q 2375 2688 2375 2003 
Q 2375 1319 2147 623 
Q 1919 -72 1441 -844 
L 513 -844 
z
" transform="scale(0.015625)"/>
     </defs>
     <use xlink:href="#DejaVuSans-Bold-28"/>
     <use xlink:href="#DejaVuSans-Bold-61" x="45.703125"/>
     <use xlink:href="#DejaVuSans-Bold-29" x="113.183594"/>
    </g>
   </g>
  </g>
  <g id="axes_2">
   <g id="patch_5">
    <path d="M 462.817069 254.64351 
L 715.77158 254.64351 
L 715.77158 18.118365 
L 462.817069 18.118365 
z
" style="fill: #ffffff"/>
   </g>
   <g id="matplotlib.axis_3">
    <g id="xtick_9">
     <g id="line2d_13">
      <g>
       <use xlink:href="#mfad0f7f2b1" x="467.979406" y="254.64351" style="stroke: #000000; stroke-width: 0.8"/>
      </g>
     </g>
     <g id="text_6">
      <!-- 1 -->
      <g transform="translate(464.798156 269.241947) scale(0.1 -0.1)">
       <defs>
        <path id="DejaVuSans-31" d="M 794 531 
L 1825 531 
L 1825 4091 
L 703 3866 
L 703 4441 
L 1819 4666 
L 2450 4666 
L 2450 531 
L 3481 531 
L 3481 0 
L 794 0 
L 794 531 
z
" transform="scale(0.015625)"/>
       </defs>
       <use xlink:href="#DejaVuSans-31"/>
      </g>
     </g>
    </g>
    <g id="xtick_10">
     <g id="line2d_14">
      <g>
       <use xlink:href="#mfad0f7f2b1" x="478.30408" y="254.64351" style="stroke: #000000; stroke-width: 0.8"/>
      </g>
     </g>
     <g id="text_7">
      <!-- 3 -->
      <g transform="translate(475.12283 269.241947) scale(0.1 -0.1)">
       <use xlink:href="#DejaVuSans-33"/>
      </g>
     </g>
    </g>
    <g id="xtick_11">
     <g id="line2d_15">
      <g>
       <use xlink:href="#mfad0f7f2b1" x="493.791091" y="254.64351" style="stroke: #000000; stroke-width: 0.8"/>
      </g>
     </g>
     <g id="text_8">
      <!-- 6 -->
      <g transform="translate(490.609841 269.241947) scale(0.1 -0.1)">
       <defs>
        <path id="DejaVuSans-36" d="M 2113 2584 
Q 1688 2584 1439 2293 
Q 1191 2003 1191 1497 
Q 1191 994 1439 701 
Q 1688 409 2113 409 
Q 2538 409 2786 701 
Q 3034 994 3034 1497 
Q 3034 2003 2786 2293 
Q 2538 2584 2113 2584 
z
M 3366 4563 
L 3366 3988 
Q 3128 4100 2886 4159 
Q 2644 4219 2406 4219 
Q 1781 4219 1451 3797 
Q 1122 3375 1075 2522 
Q 1259 2794 1537 2939 
Q 1816 3084 2150 3084 
Q 2853 3084 3261 2657 
Q 3669 2231 3669 1497 
Q 3669 778 3244 343 
Q 2819 -91 2113 -91 
Q 1303 -91 875 529 
Q 447 1150 447 2328 
Q 447 3434 972 4092 
Q 1497 4750 2381 4750 
Q 2619 4750 2861 4703 
Q 3103 4656 3366 4563 
z
" transform="scale(0.015625)"/>
       </defs>
       <use xlink:href="#DejaVuSans-36"/>
      </g>
     </g>
    </g>
    <g id="xtick_12">
     <g id="line2d_16">
      <g>
       <use xlink:href="#mfad0f7f2b1" x="524.765113" y="254.64351" style="stroke: #000000; stroke-width: 0.8"/>
      </g>
     </g>
     <g id="text_9">
      <!-- 12 -->
      <g transform="translate(518.402613 269.241947) scale(0.1 -0.1)">
       <use xlink:href="#DejaVuSans-31"/>
       <use xlink:href="#DejaVuSans-32" x="63.623047"/>
      </g>
     </g>
    </g>
    <g id="xtick_13">
     <g id="line2d_17">
      <g>
       <use xlink:href="#mfad0f7f2b1" x="586.713156" y="254.64351" style="stroke: #000000; stroke-width: 0.8"/>
      </g>
     </g>
     <g id="text_10">
      <!-- 24 -->
      <g transform="translate(580.350656 269.241947) scale(0.1 -0.1)">
       <defs>
        <path id="DejaVuSans-34" d="M 2419 4116 
L 825 1625 
L 2419 1625 
L 2419 4116 
z
M 2253 4666 
L 3047 4666 
L 3047 1625 
L 3713 1625 
L 3713 1100 
L 3047 1100 
L 3047 0 
L 2419 0 
L 2419 1100 
L 313 1100 
L 313 1709 
L 2253 4666 
z
" transform="scale(0.015625)"/>
       </defs>
       <use xlink:href="#DejaVuSans-32"/>
       <use xlink:href="#DejaVuSans-34" x="63.623047"/>
      </g>
     </g>
    </g>
    <g id="xtick_14">
     <g id="line2d_18">
      <g>
       <use xlink:href="#mfad0f7f2b1" x="710.609243" y="254.64351" style="stroke: #000000; stroke-width: 0.8"/>
      </g>
     </g>
     <g id="text_11">
      <!-- 48 -->
      <g transform="translate(704.246743 269.241947) scale(0.1 -0.1)">
       <defs>
        <path id="DejaVuSans-38" d="M 2034 2216 
Q 1584 2216 1326 1975 
Q 1069 1734 1069 1313 
Q 1069 891 1326 650 
Q 1584 409 2034 409 
Q 2484 409 2743 651 
Q 3003 894 3003 1313 
Q 3003 1734 2745 1975 
Q 2488 2216 2034 2216 
z
M 1403 2484 
Q 997 2584 770 2862 
Q 544 3141 544 3541 
Q 544 4100 942 4425 
Q 1341 4750 2034 4750 
Q 2731 4750 3128 4425 
Q 3525 4100 3525 3541 
Q 3525 3141 3298 2862 
Q 3072 2584 2669 2484 
Q 3125 2378 3379 2068 
Q 3634 1759 3634 1313 
Q 3634 634 3220 271 
Q 2806 -91 2034 -91 
Q 1263 -91 848 271 
Q 434 634 434 1313 
Q 434 1759 690 2068 
Q 947 2378 1403 2484 
z
M 1172 3481 
Q 1172 3119 1398 2916 
Q 1625 2713 2034 2713 
Q 2441 2713 2670 2916 
Q 2900 3119 2900 3481 
Q 2900 3844 2670 4047 
Q 2441 4250 2034 4250 
Q 1625 4250 1398 4047 
Q 1172 3844 1172 3481 
z
" transform="scale(0.015625)"/>
       </defs>
       <use xlink:href="#DejaVuSans-34"/>
       <use xlink:href="#DejaVuSans-38" x="63.623047"/>
      </g>
     </g>
    </g>
    <g id="text_12">
     <!-- SPI Accumulation Period -->
     <g transform="translate(528.794325 282.920073) scale(0.1 -0.1)">
      <defs>
       <path id="DejaVuSans-20" transform="scale(0.015625)"/>
       <path id="DejaVuSans-41" d="M 2188 4044 
L 1331 1722 
L 3047 1722 
L 2188 4044 
z
M 1831 4666 
L 2547 4666 
L 4325 0 
L 3669 0 
L 3244 1197 
L 1141 1197 
L 716 0 
L 50 0 
L 1831 4666 
z
" transform="scale(0.015625)"/>
       <path id="DejaVuSans-63" d="M 3122 3366 
L 3122 2828 
Q 2878 2963 2633 3030 
Q 2388 3097 2138 3097 
Q 1578 3097 1268 2742 
Q 959 2388 959 1747 
Q 959 1106 1268 751 
Q 1578 397 2138 397 
Q 2388 397 2633 464 
Q 2878 531 3122 666 
L 3122 134 
Q 2881 22 2623 -34 
Q 2366 -91 2075 -91 
Q 1284 -91 818 406 
Q 353 903 353 1747 
Q 353 2603 823 3093 
Q 1294 3584 2113 3584 
Q 2378 3584 2631 3529 
Q 2884 3475 3122 3366 
z
" transform="scale(0.015625)"/>
       <path id="DejaVuSans-75" d="M 544 1381 
L 544 3500 
L 1119 3500 
L 1119 1403 
Q 1119 906 1312 657 
Q 1506 409 1894 409 
Q 2359 409 2629 706 
Q 2900 1003 2900 1516 
L 2900 3500 
L 3475 3500 
L 3475 0 
L 2900 0 
L 2900 538 
Q 2691 219 2414 64 
Q 2138 -91 1772 -91 
Q 1169 -91 856 284 
Q 544 659 544 1381 
z
M 1991 3584 
L 1991 3584 
z
" transform="scale(0.015625)"/>
       <path id="DejaVuSans-6d" d="M 3328 2828 
Q 3544 3216 3844 3400 
Q 4144 3584 4550 3584 
Q 5097 3584 5394 3201 
Q 5691 2819 5691 2113 
L 5691 0 
L 5113 0 
L 5113 2094 
Q 5113 2597 4934 2840 
Q 4756 3084 4391 3084 
Q 3944 3084 3684 2787 
Q 3425 2491 3425 1978 
L 3425 0 
L 2847 0 
L 2847 2094 
Q 2847 2600 2669 2842 
Q 2491 3084 2119 3084 
Q 1678 3084 1418 2786 
Q 1159 2488 1159 1978 
L 1159 0 
L 581 0 
L 581 3500 
L 1159 3500 
L 1159 2956 
Q 1356 3278 1631 3431 
Q 1906 3584 2284 3584 
Q 2666 3584 2933 3390 
Q 3200 3197 3328 2828 
z
" transform="scale(0.015625)"/>
       <path id="DejaVuSans-6c" d="M 603 4863 
L 1178 4863 
L 1178 0 
L 603 0 
L 603 4863 
z
" transform="scale(0.015625)"/>
       <path id="DejaVuSans-61" d="M 2194 1759 
Q 1497 1759 1228 1600 
Q 959 1441 959 1056 
Q 959 750 1161 570 
Q 1363 391 1709 391 
Q 2188 391 2477 730 
Q 2766 1069 2766 1631 
L 2766 1759 
L 2194 1759 
z
M 3341 1997 
L 3341 0 
L 2766 0 
L 2766 531 
Q 2569 213 2275 61 
Q 1981 -91 1556 -91 
Q 1019 -91 701 211 
Q 384 513 384 1019 
Q 384 1609 779 1909 
Q 1175 2209 1959 2209 
L 2766 2209 
L 2766 2266 
Q 2766 2663 2505 2880 
Q 2244 3097 1772 3097 
Q 1472 3097 1187 3025 
Q 903 2953 641 2809 
L 641 3341 
Q 956 3463 1253 3523 
Q 1550 3584 1831 3584 
Q 2591 3584 2966 3190 
Q 3341 2797 3341 1997 
z
" transform="scale(0.015625)"/>
       <path id="DejaVuSans-74" d="M 1172 4494 
L 1172 3500 
L 2356 3500 
L 2356 3053 
L 1172 3053 
L 1172 1153 
Q 1172 725 1289 603 
Q 1406 481 1766 481 
L 2356 481 
L 2356 0 
L 1766 0 
Q 1100 0 847 248 
Q 594 497 594 1153 
L 594 3053 
L 172 3053 
L 172 3500 
L 594 3500 
L 594 4494 
L 1172 4494 
z
" transform="scale(0.015625)"/>
       <path id="DejaVuSans-69" d="M 603 3500 
L 1178 3500 
L 1178 0 
L 603 0 
L 603 3500 
z
M 603 4863 
L 1178 4863 
L 1178 4134 
L 603 4134 
L 603 4863 
z
" transform="scale(0.015625)"/>
       <path id="DejaVuSans-6f" d="M 1959 3097 
Q 1497 3097 1228 2736 
Q 959 2375 959 1747 
Q 959 1119 1226 758 
Q 1494 397 1959 397 
Q 2419 397 2687 759 
Q 2956 1122 2956 1747 
Q 2956 2369 2687 2733 
Q 2419 3097 1959 3097 
z
M 1959 3584 
Q 2709 3584 3137 3096 
Q 3566 2609 3566 1747 
Q 3566 888 3137 398 
Q 2709 -91 1959 -91 
Q 1206 -91 779 398 
Q 353 888 353 1747 
Q 353 2609 779 3096 
Q 1206 3584 1959 3584 
z
" transform="scale(0.015625)"/>
       <path id="DejaVuSans-6e" d="M 3513 2113 
L 3513 0 
L 2938 0 
L 2938 2094 
Q 2938 2591 2744 2837 
Q 2550 3084 2163 3084 
Q 1697 3084 1428 2787 
Q 1159 2491 1159 1978 
L 1159 0 
L 581 0 
L 581 3500 
L 1159 3500 
L 1159 2956 
Q 1366 3272 1645 3428 
Q 1925 3584 2291 3584 
Q 2894 3584 3203 3211 
Q 3513 2838 3513 2113 
z
" transform="scale(0.015625)"/>
       <path id="DejaVuSans-65" d="M 3597 1894 
L 3597 1613 
L 953 1613 
Q 991 1019 1311 708 
Q 1631 397 2203 397 
Q 2534 397 2845 478 
Q 3156 559 3463 722 
L 3463 178 
Q 3153 47 2828 -22 
Q 2503 -91 2169 -91 
Q 1331 -91 842 396 
Q 353 884 353 1716 
Q 353 2575 817 3079 
Q 1281 3584 2069 3584 
Q 2775 3584 3186 3129 
Q 3597 2675 3597 1894 
z
M 3022 2063 
Q 3016 2534 2758 2815 
Q 2500 3097 2075 3097 
Q 1594 3097 1305 2825 
Q 1016 2553 972 2059 
L 3022 2063 
z
" transform="scale(0.015625)"/>
       <path id="DejaVuSans-72" d="M 2631 2963 
Q 2534 3019 2420 3045 
Q 2306 3072 2169 3072 
Q 1681 3072 1420 2755 
Q 1159 2438 1159 1844 
L 1159 0 
L 581 0 
L 581 3500 
L 1159 3500 
L 1159 2956 
Q 1341 3275 1631 3429 
Q 1922 3584 2338 3584 
Q 2397 3584 2469 3576 
Q 2541 3569 2628 3553 
L 2631 2963 
z
" transform="scale(0.015625)"/>
       <path id="DejaVuSans-64" d="M 2906 2969 
L 2906 4863 
L 3481 4863 
L 3481 0 
L 2906 0 
L 2906 525 
Q 2725 213 2448 61 
Q 2172 -91 1784 -91 
Q 1150 -91 751 415 
Q 353 922 353 1747 
Q 353 2572 751 3078 
Q 1150 3584 1784 3584 
Q 2172 3584 2448 3432 
Q 2725 3281 2906 2969 
z
M 947 1747 
Q 947 1113 1208 752 
Q 1469 391 1925 391 
Q 2381 391 2643 752 
Q 2906 1113 2906 1747 
Q 2906 2381 2643 2742 
Q 2381 3103 1925 3103 
Q 1469 3103 1208 2742 
Q 947 2381 947 1747 
z
" transform="scale(0.015625)"/>
      </defs>
      <use xlink:href="#DejaVuSans-53"/>
      <use xlink:href="#DejaVuSans-50" x="63.476562"/>
      <use xlink:href="#DejaVuSans-49" x="123.779297"/>
      <use xlink:href="#DejaVuSans-20" x="153.271484"/>
      <use xlink:href="#DejaVuSans-41" x="185.058594"/>
      <use xlink:href="#DejaVuSans-63" x="251.716797"/>
      <use xlink:href="#DejaVuSans-63" x="306.697266"/>
      <use xlink:href="#DejaVuSans-75" x="361.677734"/>
      <use xlink:href="#DejaVuSans-6d" x="425.056641"/>
      <use xlink:href="#DejaVuSans-75" x="522.46875"/>
      <use xlink:href="#DejaVuSans-6c" x="585.847656"/>
      <use xlink:href="#DejaVuSans-61" x="613.630859"/>
      <use xlink:href="#DejaVuSans-74" x="674.910156"/>
      <use xlink:href="#DejaVuSans-69" x="714.119141"/>
      <use xlink:href="#DejaVuSans-6f" x="741.902344"/>
      <use xlink:href="#DejaVuSans-6e" x="803.083984"/>
      <use xlink:href="#DejaVuSans-20" x="866.462891"/>
      <use xlink:href="#DejaVuSans-50" x="898.25"/>
      <use xlink:href="#DejaVuSans-65" x="954.927734"/>
      <use xlink:href="#DejaVuSans-72" x="1016.451172"/>
      <use xlink:href="#DejaVuSans-69" x="1057.564453"/>
      <use xlink:href="#DejaVuSans-6f" x="1085.347656"/>
      <use xlink:href="#DejaVuSans-64" x="1146.529297"/>
     </g>
    </g>
   </g>
   <g id="matplotlib.axis_4">
    <g id="ytick_4">
     <g id="line2d_19">
      <g>
       <use xlink:href="#m80917b40a2" x="462.817069" y="230.992097" style="stroke: #000000; stroke-width: 0.8"/>
      </g>
     </g>
     <g id="text_13">
      <!-- −0.10 -->
      <g transform="translate(425.171757 234.791316) scale(0.1 -0.1)">
       <defs>
        <path id="DejaVuSans-2e" d="M 684 794 
L 1344 794 
L 1344 0 
L 684 0 
L 684 794 
z
" transform="scale(0.015625)"/>
       </defs>
       <use xlink:href="#DejaVuSans-2212"/>
       <use xlink:href="#DejaVuSans-30" x="83.789062"/>
       <use xlink:href="#DejaVuSans-2e" x="147.412109"/>
       <use xlink:href="#DejaVuSans-31" x="179.199219"/>
       <use xlink:href="#DejaVuSans-30" x="242.822266"/>
      </g>
     </g>
    </g>
    <g id="ytick_5">
     <g id="line2d_20">
      <g>
       <use xlink:href="#m80917b40a2" x="462.817069" y="189.310641" style="stroke: #000000; stroke-width: 0.8"/>
      </g>
     </g>
     <g id="text_14">
      <!-- −0.05 -->
      <g transform="translate(425.171757 193.10986) scale(0.1 -0.1)">
       <defs>
        <path id="DejaVuSans-35" d="M 691 4666 
L 3169 4666 
L 3169 4134 
L 1269 4134 
L 1269 2991 
Q 1406 3038 1543 3061 
Q 1681 3084 1819 3084 
Q 2600 3084 3056 2656 
Q 3513 2228 3513 1497 
Q 3513 744 3044 326 
Q 2575 -91 1722 -91 
Q 1428 -91 1123 -41 
Q 819 9 494 109 
L 494 744 
Q 775 591 1075 516 
Q 1375 441 1709 441 
Q 2250 441 2565 725 
Q 2881 1009 2881 1497 
Q 2881 1984 2565 2268 
Q 2250 2553 1709 2553 
Q 1456 2553 1204 2497 
Q 953 2441 691 2322 
L 691 4666 
z
" transform="scale(0.015625)"/>
       </defs>
       <use xlink:href="#DejaVuSans-2212"/>
       <use xlink:href="#DejaVuSans-30" x="83.789062"/>
       <use xlink:href="#DejaVuSans-2e" x="147.412109"/>
       <use xlink:href="#DejaVuSans-30" x="179.199219"/>
       <use xlink:href="#DejaVuSans-35" x="242.822266"/>
      </g>
     </g>
    </g>
    <g id="ytick_6">
     <g id="line2d_21">
      <g>
       <use xlink:href="#m80917b40a2" x="462.817069" y="147.629185" style="stroke: #000000; stroke-width: 0.8"/>
      </g>
     </g>
     <g id="text_15">
      <!-- 0.00 -->
      <g transform="translate(433.551444 151.428404) scale(0.1 -0.1)">
       <use xlink:href="#DejaVuSans-30"/>
       <use xlink:href="#DejaVuSans-2e" x="63.623047"/>
       <use xlink:href="#DejaVuSans-30" x="95.410156"/>
       <use xlink:href="#DejaVuSans-30" x="159.033203"/>
      </g>
     </g>
    </g>
    <g id="ytick_7">
     <g id="line2d_22">
      <g>
       <use xlink:href="#m80917b40a2" x="462.817069" y="105.94773" style="stroke: #000000; stroke-width: 0.8"/>
      </g>
     </g>
     <g id="text_16">
      <!-- 0.05 -->
      <g transform="translate(433.551444 109.746948) scale(0.1 -0.1)">
       <use xlink:href="#DejaVuSans-30"/>
       <use xlink:href="#DejaVuSans-2e" x="63.623047"/>
       <use xlink:href="#DejaVuSans-30" x="95.410156"/>
       <use xlink:href="#DejaVuSans-35" x="159.033203"/>
      </g>
     </g>
    </g>
    <g id="ytick_8">
     <g id="line2d_23">
      <g>
       <use xlink:href="#m80917b40a2" x="462.817069" y="64.266274" style="stroke: #000000; stroke-width: 0.8"/>
      </g>
     </g>
     <g id="text_17">
      <!-- 0.10 -->
      <g transform="translate(433.551444 68.065493) scale(0.1 -0.1)">
       <use xlink:href="#DejaVuSans-30"/>
       <use xlink:href="#DejaVuSans-2e" x="63.623047"/>
       <use xlink:href="#DejaVuSans-31" x="95.410156"/>
       <use xlink:href="#DejaVuSans-30" x="159.033203"/>
      </g>
     </g>
    </g>
    <g id="ytick_9">
     <g id="line2d_24">
      <g>
       <use xlink:href="#m80917b40a2" x="462.817069" y="22.584818" style="stroke: #000000; stroke-width: 0.8"/>
      </g>
     </g>
     <g id="text_18">
      <!-- 0.15 -->
      <g transform="translate(433.551444 26.384037) scale(0.1 -0.1)">
       <use xlink:href="#DejaVuSans-30"/>
       <use xlink:href="#DejaVuSans-2e" x="63.623047"/>
       <use xlink:href="#DejaVuSans-31" x="95.410156"/>
       <use xlink:href="#DejaVuSans-35" x="159.033203"/>
      </g>
     </g>
    </g>
   </g>
   <g id="line2d_25">
    <path d="M 467.979406 243.892367 
L 473.141743 166.824454 
L 478.30408 181.058917 
L 483.466417 178.167461 
L 488.628754 181.517349 
L 493.791091 192.645227 
L 498.953428 188.731902 
L 504.115765 189.20314 
L 509.278102 188.032728 
L 514.440439 191.462009 
L 519.602776 156.375262 
L 524.765113 131.338178 
L 529.92745 123.191394 
L 535.089787 116.747725 
L 540.252124 127.437658 
L 545.414461 106.859409 
L 550.576798 96.420461 
L 555.739135 71.493504 
L 560.901471 71.58058 
L 566.063808 81.281938 
L 571.226145 77.094578 
L 576.388482 65.498024 
L 581.550819 75.668058 
L 586.713156 75.370974 
L 591.875493 59.932805 
L 597.03783 57.364045 
L 602.200167 47.514145 
L 607.362504 48.641018 
L 612.524841 62.975363 
L 617.687178 46.382149 
L 622.849515 56.001552 
L 628.011852 68.284475 
L 633.174189 45.188687 
L 638.336526 49.652644 
L 643.498863 48.879198 
L 648.6612 44.653422 
L 653.823537 47.905989 
L 658.985874 43.257636 
L 664.148211 28.869508 
L 669.310547 31.540711 
L 674.472884 32.355133 
L 679.635221 31.499733 
L 684.797558 45.570288 
L 689.959895 46.702283 
L 695.122232 44.294872 
L 700.284569 49.173722 
L 705.446906 40.734975 
L 710.609243 42.942623 
" clip-path="url(#p8275335902)" style="fill: none; stroke: #7f7f7f; stroke-opacity: 0.6; stroke-width: 1.5; stroke-linecap: square"/>
   </g>
   <g id="line2d_26">
    <defs>
     <path id="m07a5ad4cd2" d="M 0 3 
C 0.795609 3 1.55874 2.683901 2.12132 2.12132 
C 2.683901 1.55874 3 0.795609 3 0 
C 3 -0.795609 2.683901 -1.55874 2.12132 -2.12132 
C 1.55874 -2.683901 0.795609 -3 0 -3 
C -0.795609 -3 -1.55874 -2.683901 -2.12132 -2.12132 
C -2.683901 -1.55874 -3 -0.795609 -3 0 
C -3 0.795609 -2.683901 1.55874 -2.12132 2.12132 
C -1.55874 2.683901 -0.795609 3 0 3 
z
" style="stroke: #000000"/>
    </defs>
    <g clip-path="url(#p8275335902)">
     <use xlink:href="#m07a5ad4cd2" x="664.148211" y="28.869508" style="stroke: #000000"/>
    </g>
   </g>
   <g id="line2d_27">
    <path d="M 664.148211 254.64351 
L 664.148211 28.869508 
" clip-path="url(#p8275335902)" style="fill: none; stroke-dasharray: 5.55,2.4; stroke-dashoffset: 0; stroke: #000000; stroke-width: 1.5"/>
   </g>
   <g id="patch_6">
    <path d="M 462.817069 254.64351 
L 462.817069 18.118365 
" style="fill: none; stroke: #000000; stroke-width: 0.8; stroke-linejoin: miter; stroke-linecap: square"/>
   </g>
   <g id="patch_7">
    <path d="M 462.817069 254.64351 
L 715.77158 254.64351 
" style="fill: none; stroke: #000000; stroke-width: 0.8; stroke-linejoin: miter; stroke-linecap: square"/>
   </g>
   <g id="text_19">
    <!-- (c) -->
    <g transform="translate(462.817069 12.118365) scale(0.12 -0.12)">
     <defs>
      <path id="DejaVuSans-Bold-63" d="M 3366 3391 
L 3366 2478 
Q 3138 2634 2908 2709 
Q 2678 2784 2431 2784 
Q 1963 2784 1702 2511 
Q 1441 2238 1441 1747 
Q 1441 1256 1702 982 
Q 1963 709 2431 709 
Q 2694 709 2930 787 
Q 3166 866 3366 1019 
L 3366 103 
Q 3103 6 2833 -42 
Q 2563 -91 2291 -91 
Q 1344 -91 809 395 
Q 275 881 275 1747 
Q 275 2613 809 3098 
Q 1344 3584 2291 3584 
Q 2566 3584 2833 3536 
Q 3100 3488 3366 3391 
z
" transform="scale(0.015625)"/>
     </defs>
     <use xlink:href="#DejaVuSans-Bold-28"/>
     <use xlink:href="#DejaVuSans-Bold-63" x="45.703125"/>
     <use xlink:href="#DejaVuSans-Bold-29" x="104.980469"/>
    </g>
   </g>
   <g id="legend_1">
    <g id="patch_8">
     <path d="M 469.817069 40.79649 
L 552.262382 40.79649 
Q 554.262382 40.79649 554.262382 38.79649 
L 554.262382 25.118365 
Q 554.262382 23.118365 552.262382 23.118365 
L 469.817069 23.118365 
Q 467.817069 23.118365 467.817069 25.118365 
L 467.817069 38.79649 
Q 467.817069 40.79649 469.817069 40.79649 
z
" style="fill: #ffffff; opacity: 0.8; stroke: #cccccc; stroke-linejoin: miter"/>
    </g>
    <g id="line2d_28">
     <g>
      <use xlink:href="#m07a5ad4cd2" x="481.817069" y="31.216802" style="stroke: #000000"/>
     </g>
    </g>
    <g id="text_20">
     <!-- Max. Corr. -->
     <g transform="translate(499.817069 34.716802) scale(0.1 -0.1)">
      <defs>
       <path id="DejaVuSans-4d" d="M 628 4666 
L 1569 4666 
L 2759 1491 
L 3956 4666 
L 4897 4666 
L 4897 0 
L 4281 0 
L 4281 4097 
L 3078 897 
L 2444 897 
L 1241 4097 
L 1241 0 
L 628 0 
L 628 4666 
z
" transform="scale(0.015625)"/>
       <path id="DejaVuSans-78" d="M 3513 3500 
L 2247 1797 
L 3578 0 
L 2900 0 
L 1881 1375 
L 863 0 
L 184 0 
L 1544 1831 
L 300 3500 
L 978 3500 
L 1906 2253 
L 2834 3500 
L 3513 3500 
z
" transform="scale(0.015625)"/>
       <path id="DejaVuSans-43" d="M 4122 4306 
L 4122 3641 
Q 3803 3938 3442 4084 
Q 3081 4231 2675 4231 
Q 1875 4231 1450 3742 
Q 1025 3253 1025 2328 
Q 1025 1406 1450 917 
Q 1875 428 2675 428 
Q 3081 428 3442 575 
Q 3803 722 4122 1019 
L 4122 359 
Q 3791 134 3420 21 
Q 3050 -91 2638 -91 
Q 1578 -91 968 557 
Q 359 1206 359 2328 
Q 359 3453 968 4101 
Q 1578 4750 2638 4750 
Q 3056 4750 3426 4639 
Q 3797 4528 4122 4306 
z
" transform="scale(0.015625)"/>
      </defs>
      <use xlink:href="#DejaVuSans-4d"/>
      <use xlink:href="#DejaVuSans-61" x="86.279297"/>
      <use xlink:href="#DejaVuSans-78" x="147.558594"/>
      <use xlink:href="#DejaVuSans-2e" x="206.738281"/>
      <use xlink:href="#DejaVuSans-20" x="238.525391"/>
      <use xlink:href="#DejaVuSans-43" x="270.3125"/>
      <use xlink:href="#DejaVuSans-6f" x="340.136719"/>
      <use xlink:href="#DejaVuSans-72" x="401.318359"/>
      <use xlink:href="#DejaVuSans-72" x="440.681641"/>
      <use xlink:href="#DejaVuSans-2e" x="472.669922"/>
     </g>
    </g>
   </g>
  </g>
  <g id="axes_3">
   <g id="patch_9">
    <path d="M 38.420552 254.64351 
L 417.852318 254.64351 
L 417.852318 151.69048 
L 38.420552 151.69048 
z
" style="fill: #ffffff"/>
   </g>
   <g id="PolyCollection_3"/>
   <g id="matplotlib.axis_5">
    <g id="xtick_15">
     <g id="line2d_29">
      <g>
       <use xlink:href="#mfad0f7f2b1" x="50.053173" y="254.64351" style="stroke: #000000; stroke-width: 0.8"/>
      </g>
     </g>
     <g id="text_21">
      <!-- 1992 -->
      <g transform="translate(37.328173 269.241947) scale(0.1 -0.1)">
       <use xlink:href="#DejaVuSans-31"/>
       <use xlink:href="#DejaVuSans-39" x="63.623047"/>
       <use xlink:href="#DejaVuSans-39" x="127.246094"/>
       <use xlink:href="#DejaVuSans-32" x="190.869141"/>
      </g>
     </g>
    </g>
    <g id="xtick_16">
     <g id="line2d_30">
      <g>
       <use xlink:href="#mfad0f7f2b1" x="100.785287" y="254.64351" style="stroke: #000000; stroke-width: 0.8"/>
      </g>
     </g>
     <g id="text_22">
      <!-- 1996 -->
      <g transform="translate(88.060287 269.241947) scale(0.1 -0.1)">
       <use xlink:href="#DejaVuSans-31"/>
       <use xlink:href="#DejaVuSans-39" x="63.623047"/>
       <use xlink:href="#DejaVuSans-39" x="127.246094"/>
       <use xlink:href="#DejaVuSans-36" x="190.869141"/>
      </g>
     </g>
    </g>
    <g id="xtick_17">
     <g id="line2d_31">
      <g>
       <use xlink:href="#mfad0f7f2b1" x="151.517401" y="254.64351" style="stroke: #000000; stroke-width: 0.8"/>
      </g>
     </g>
     <g id="text_23">
      <!-- 2000 -->
      <g transform="translate(138.792401 269.241947) scale(0.1 -0.1)">
       <use xlink:href="#DejaVuSans-32"/>
       <use xlink:href="#DejaVuSans-30" x="63.623047"/>
       <use xlink:href="#DejaVuSans-30" x="127.246094"/>
       <use xlink:href="#DejaVuSans-30" x="190.869141"/>
      </g>
     </g>
    </g>
    <g id="xtick_18">
     <g id="line2d_32">
      <g>
       <use xlink:href="#mfad0f7f2b1" x="202.249515" y="254.64351" style="stroke: #000000; stroke-width: 0.8"/>
      </g>
     </g>
     <g id="text_24">
      <!-- 2004 -->
      <g transform="translate(189.524515 269.241947) scale(0.1 -0.1)">
       <use xlink:href="#DejaVuSans-32"/>
       <use xlink:href="#DejaVuSans-30" x="63.623047"/>
       <use xlink:href="#DejaVuSans-30" x="127.246094"/>
       <use xlink:href="#DejaVuSans-34" x="190.869141"/>
      </g>
     </g>
    </g>
    <g id="xtick_19">
     <g id="line2d_33">
      <g>
       <use xlink:href="#mfad0f7f2b1" x="252.981629" y="254.64351" style="stroke: #000000; stroke-width: 0.8"/>
      </g>
     </g>
     <g id="text_25">
      <!-- 2008 -->
      <g transform="translate(240.256629 269.241947) scale(0.1 -0.1)">
       <use xlink:href="#DejaVuSans-32"/>
       <use xlink:href="#DejaVuSans-30" x="63.623047"/>
       <use xlink:href="#DejaVuSans-30" x="127.246094"/>
       <use xlink:href="#DejaVuSans-38" x="190.869141"/>
      </g>
     </g>
    </g>
    <g id="xtick_20">
     <g id="line2d_34">
      <g>
       <use xlink:href="#mfad0f7f2b1" x="303.713743" y="254.64351" style="stroke: #000000; stroke-width: 0.8"/>
      </g>
     </g>
     <g id="text_26">
      <!-- 2012 -->
      <g transform="translate(290.988743 269.241947) scale(0.1 -0.1)">
       <use xlink:href="#DejaVuSans-32"/>
       <use xlink:href="#DejaVuSans-30" x="63.623047"/>
       <use xlink:href="#DejaVuSans-31" x="127.246094"/>
       <use xlink:href="#DejaVuSans-32" x="190.869141"/>
      </g>
     </g>
    </g>
    <g id="xtick_21">
     <g id="line2d_35">
      <g>
       <use xlink:href="#mfad0f7f2b1" x="354.445857" y="254.64351" style="stroke: #000000; stroke-width: 0.8"/>
      </g>
     </g>
     <g id="text_27">
      <!-- 2016 -->
      <g transform="translate(341.720857 269.241947) scale(0.1 -0.1)">
       <use xlink:href="#DejaVuSans-32"/>
       <use xlink:href="#DejaVuSans-30" x="63.623047"/>
       <use xlink:href="#DejaVuSans-31" x="127.246094"/>
       <use xlink:href="#DejaVuSans-36" x="190.869141"/>
      </g>
     </g>
    </g>
    <g id="xtick_22">
     <g id="line2d_36">
      <g>
       <use xlink:href="#mfad0f7f2b1" x="405.177971" y="254.64351" style="stroke: #000000; stroke-width: 0.8"/>
      </g>
     </g>
     <g id="text_28">
      <!-- 2020 -->
      <g transform="translate(392.452971 269.241947) scale(0.1 -0.1)">
       <use xlink:href="#DejaVuSans-32"/>
       <use xlink:href="#DejaVuSans-30" x="63.623047"/>
       <use xlink:href="#DejaVuSans-32" x="127.246094"/>
       <use xlink:href="#DejaVuSans-30" x="190.869141"/>
      </g>
     </g>
    </g>
    <g id="text_29">
     <!-- Date -->
     <g transform="translate(216.185654 282.920073) scale(0.1 -0.1)">
      <defs>
       <path id="DejaVuSans-44" d="M 1259 4147 
L 1259 519 
L 2022 519 
Q 2988 519 3436 956 
Q 3884 1394 3884 2338 
Q 3884 3275 3436 3711 
Q 2988 4147 2022 4147 
L 1259 4147 
z
M 628 4666 
L 1925 4666 
Q 3281 4666 3915 4102 
Q 4550 3538 4550 2338 
Q 4550 1131 3912 565 
Q 3275 0 1925 0 
L 628 0 
L 628 4666 
z
" transform="scale(0.015625)"/>
      </defs>
      <use xlink:href="#DejaVuSans-44"/>
      <use xlink:href="#DejaVuSans-61" x="77.001953"/>
      <use xlink:href="#DejaVuSans-74" x="138.28125"/>
      <use xlink:href="#DejaVuSans-65" x="177.490234"/>
     </g>
    </g>
   </g>
   <g id="matplotlib.axis_6">
    <g id="ytick_10">
     <g id="line2d_37">
      <g>
       <use xlink:href="#m80917b40a2" x="38.420552" y="237.484672" style="stroke: #000000; stroke-width: 0.8"/>
      </g>
     </g>
     <g id="text_30">
      <!-- −2 -->
      <g transform="translate(16.678365 241.28389) scale(0.1 -0.1)">
       <use xlink:href="#DejaVuSans-2212"/>
       <use xlink:href="#DejaVuSans-32" x="83.789062"/>
      </g>
     </g>
    </g>
    <g id="ytick_11">
     <g id="line2d_38">
      <g>
       <use xlink:href="#m80917b40a2" x="38.420552" y="203.166995" style="stroke: #000000; stroke-width: 0.8"/>
      </g>
     </g>
     <g id="text_31">
      <!-- 0 -->
      <g transform="translate(25.058052 206.966214) scale(0.1 -0.1)">
       <use xlink:href="#DejaVuSans-30"/>
      </g>
     </g>
    </g>
    <g id="ytick_12">
     <g id="line2d_39">
      <g>
       <use xlink:href="#m80917b40a2" x="38.420552" y="168.849318" style="stroke: #000000; stroke-width: 0.8"/>
      </g>
     </g>
     <g id="text_32">
      <!-- 2 -->
      <g transform="translate(25.058052 172.648537) scale(0.1 -0.1)">
       <use xlink:href="#DejaVuSans-32"/>
      </g>
     </g>
    </g>
    <g id="text_33">
     <!-- SGI (GWIC 140366) -->
     <g transform="translate(10.598677 251.641995) rotate(-90) scale(0.1 -0.1)">
      <defs>
       <path id="DejaVuSans-47" d="M 3809 666 
L 3809 1919 
L 2778 1919 
L 2778 2438 
L 4434 2438 
L 4434 434 
Q 4069 175 3628 42 
Q 3188 -91 2688 -91 
Q 1594 -91 976 548 
Q 359 1188 359 2328 
Q 359 3472 976 4111 
Q 1594 4750 2688 4750 
Q 3144 4750 3555 4637 
Q 3966 4525 4313 4306 
L 4313 3634 
Q 3963 3931 3569 4081 
Q 3175 4231 2741 4231 
Q 1884 4231 1454 3753 
Q 1025 3275 1025 2328 
Q 1025 1384 1454 906 
Q 1884 428 2741 428 
Q 3075 428 3337 486 
Q 3600 544 3809 666 
z
" transform="scale(0.015625)"/>
       <path id="DejaVuSans-28" d="M 1984 4856 
Q 1566 4138 1362 3434 
Q 1159 2731 1159 2009 
Q 1159 1288 1364 580 
Q 1569 -128 1984 -844 
L 1484 -844 
Q 1016 -109 783 600 
Q 550 1309 550 2009 
Q 550 2706 781 3412 
Q 1013 4119 1484 4856 
L 1984 4856 
z
" transform="scale(0.015625)"/>
       <path id="DejaVuSans-57" d="M 213 4666 
L 850 4666 
L 1831 722 
L 2809 4666 
L 3519 4666 
L 4500 722 
L 5478 4666 
L 6119 4666 
L 4947 0 
L 4153 0 
L 3169 4050 
L 2175 0 
L 1381 0 
L 213 4666 
z
" transform="scale(0.015625)"/>
       <path id="DejaVuSans-29" d="M 513 4856 
L 1013 4856 
Q 1481 4119 1714 3412 
Q 1947 2706 1947 2009 
Q 1947 1309 1714 600 
Q 1481 -109 1013 -844 
L 513 -844 
Q 928 -128 1133 580 
Q 1338 1288 1338 2009 
Q 1338 2731 1133 3434 
Q 928 4138 513 4856 
z
" transform="scale(0.015625)"/>
      </defs>
      <use xlink:href="#DejaVuSans-53"/>
      <use xlink:href="#DejaVuSans-47" x="63.476562"/>
      <use xlink:href="#DejaVuSans-49" x="140.966797"/>
      <use xlink:href="#DejaVuSans-20" x="170.458984"/>
      <use xlink:href="#DejaVuSans-28" x="202.246094"/>
      <use xlink:href="#DejaVuSans-47" x="241.259766"/>
      <use xlink:href="#DejaVuSans-57" x="318.75"/>
      <use xlink:href="#DejaVuSans-49" x="417.626953"/>
      <use xlink:href="#DejaVuSans-43" x="447.119141"/>
      <use xlink:href="#DejaVuSans-20" x="516.943359"/>
      <use xlink:href="#DejaVuSans-31" x="548.730469"/>
      <use xlink:href="#DejaVuSans-34" x="612.353516"/>
      <use xlink:href="#DejaVuSans-30" x="675.976562"/>
      <use xlink:href="#DejaVuSans-33" x="739.599609"/>
      <use xlink:href="#DejaVuSans-36" x="803.222656"/>
      <use xlink:href="#DejaVuSans-36" x="866.845703"/>
      <use xlink:href="#DejaVuSans-29" x="930.46875"/>
     </g>
    </g>
   </g>
   <g id="line2d_40">
    <path d="M 38.420552 203.166995 
L 417.852318 203.166995 
" clip-path="url(#p03eff7fd2c)" style="fill: none; stroke: #000000; stroke-width: 1.5; stroke-linecap: square"/>
   </g>
   <g id="line2d_41">
    <path d="M 78.527049 183.565593 
L 81.686955 194.240335 
L 83.839858 215.437555 
L 84.881585 195.664576 
L 88.076215 200.944453 
L 91.201397 193.972064 
L 94.361302 186.166226 
L 97.555933 190.739601 
L 100.750563 192.722043 
L 103.910468 180.239574 
L 107.070374 201.326395 
L 110.265004 186.494868 
L 113.459634 186.205246 
L 119.744722 167.642748 
L 122.939352 175.162452 
L 127.210433 190.957726 
L 129.259163 191.413125 
L 130.30089 191.91411 
L 132.419069 194.630931 
L 133.49552 200.96387 
L 134.571972 206.386363 
L 135.613699 187.146792 
L 136.690151 202.810093 
L 137.731878 219.76569 
L 138.808329 190.509885 
L 139.884781 207.757788 
L 140.857059 212.554982 
L 141.933511 197.187506 
L 142.975238 199.202297 
L 144.051689 200.866705 
L 145.093417 210.675409 
L 146.169868 206.139146 
L 147.246319 198.884248 
L 149.364498 189.203403 
L 150.406225 189.899607 
L 151.482677 186.500789 
L 152.559128 201.580599 
L 153.566131 206.599224 
L 154.642582 195.582798 
L 155.68431 201.186303 
L 156.760761 219.764441 
L 157.802488 192.337203 
L 158.87894 188.749708 
L 159.955391 192.2043 
L 160.997118 187.239765 
L 162.07357 199.949664 
L 163.115297 200.887208 
L 164.191748 182.115079 
L 165.2682 193.827841 
L 166.240478 189.487348 
L 167.31693 191.755596 
L 168.358657 194.198599 
L 169.435108 189.928112 
L 170.476836 191.07912 
L 171.553287 198.406769 
L 173.671466 198.638425 
L 176.866096 203.351296 
L 179.991277 211.365203 
L 183.151183 209.656211 
L 186.345813 194.280978 
L 189.540443 224.243668 
L 192.665625 187.614069 
L 195.825531 192.006844 
L 199.020161 199.348017 
L 202.214791 199.058346 
L 205.374696 210.021894 
L 208.534602 193.979296 
L 211.729232 196.829098 
L 214.923862 190.567071 
L 218.049044 202.646452 
L 221.20895 213.493894 
L 224.40358 199.036378 
L 227.59821 200.675891 
L 230.723391 203.148614 
L 233.883297 190.547552 
L 237.077927 200.753265 
L 240.272557 204.524489 
L 246.557645 198.46817 
L 252.946905 211.073319 
L 256.10681 212.540912 
L 259.266716 185.772819 
L 262.461346 197.377973 
L 265.655976 196.113772 
L 268.781158 202.981254 
L 271.941064 211.75469 
L 275.135694 204.19386 
L 278.330324 203.351296 
L 281.455505 209.937953 
L 284.615411 202.854015 
L 287.810041 207.276308 
L 291.004671 209.611736 
L 294.129853 212.624901 
L 297.289759 220.626009 
L 300.484389 209.35098 
L 303.679019 211.127655 
L 306.838925 204.990322 
L 309.99883 213.973707 
L 313.19346 212.638755 
L 316.38809 219.458449 
L 319.513272 219.516716 
L 322.673178 205.514116 
L 325.867808 214.129338 
L 329.062438 218.078976 
L 332.187619 204.404115 
L 335.347525 202.305885 
L 339.618607 222.907039 
L 341.736785 217.679708 
L 345.903694 219.517648 
L 348.021873 209.17658 
L 351.216503 216.376464 
L 354.411133 219.054382 
L 357.571039 223.819313 
L 361.807396 224.342851 
L 363.925574 228.257145 
L 370.245386 228.84992 
L 373.405292 230.54538 
L 376.599922 220.091314 
L 383.961461 214.818675 
L 386.079639 221.405376 
L 389.274269 222.803136 
L 398.753987 211.934589 
L 401.948617 217.061095 
L 406.219698 225.15997 
L 411.463058 229.718702 
L 414.657688 215.612282 
" clip-path="url(#p03eff7fd2c)" style="fill: none; stroke: #7f7f7f; stroke-opacity: 0.6; stroke-width: 1.5; stroke-linecap: square"/>
   </g>
   <g id="patch_10">
    <path d="M 38.420552 254.64351 
L 38.420552 151.69048 
" style="fill: none; stroke: #000000; stroke-width: 0.8; stroke-linejoin: miter; stroke-linecap: square"/>
   </g>
   <g id="patch_11">
    <path d="M 38.420552 254.64351 
L 417.852318 254.64351 
" style="fill: none; stroke: #000000; stroke-width: 0.8; stroke-linejoin: miter; stroke-linecap: square"/>
   </g>
   <g id="text_34">
    <!-- (b) -->
    <g transform="translate(38.420552 145.69048) scale(0.12 -0.12)">
     <defs>
      <path id="DejaVuSans-Bold-62" d="M 2400 722 
Q 2759 722 2948 984 
Q 3138 1247 3138 1747 
Q 3138 2247 2948 2509 
Q 2759 2772 2400 2772 
Q 2041 2772 1848 2508 
Q 1656 2244 1656 1747 
Q 1656 1250 1848 986 
Q 2041 722 2400 722 
z
M 1656 2988 
Q 1888 3294 2169 3439 
Q 2450 3584 2816 3584 
Q 3463 3584 3878 3070 
Q 4294 2556 4294 1747 
Q 4294 938 3878 423 
Q 3463 -91 2816 -91 
Q 2450 -91 2169 54 
Q 1888 200 1656 506 
L 1656 0 
L 538 0 
L 538 4863 
L 1656 4863 
L 1656 2988 
z
" transform="scale(0.015625)"/>
     </defs>
     <use xlink:href="#DejaVuSans-Bold-28"/>
     <use xlink:href="#DejaVuSans-Bold-62" x="45.703125"/>
     <use xlink:href="#DejaVuSans-Bold-29" x="117.285156"/>
    </g>
   </g>
   <g id="PathCollection_1">
    <defs>
     <path id="m57736b3482" d="M 0 1.936492 
C 0.513564 1.936492 1.006162 1.732451 1.369306 1.369306 
C 1.732451 1.006162 1.936492 0.513564 1.936492 0 
C 1.936492 -0.513564 1.732451 -1.006162 1.369306 -1.369306 
C 1.006162 -1.732451 0.513564 -1.936492 0 -1.936492 
C -0.513564 -1.936492 -1.006162 -1.732451 -1.369306 -1.369306 
C -1.732451 -1.006162 -1.936492 -0.513564 -1.936492 0 
C -1.936492 0.513564 -1.732451 1.006162 -1.369306 1.369306 
C -1.006162 1.732451 -0.513564 1.936492 0 1.936492 
z
" style="stroke: #ffffff; stroke-width: 0.309839"/>
    </defs>
    <g clip-path="url(#p03eff7fd2c)">
     <use xlink:href="#m57736b3482" x="78.527049" y="183.565593" style="stroke: #ffffff; stroke-width: 0.309839"/>
     <use xlink:href="#m57736b3482" x="81.686955" y="194.240335" style="stroke: #ffffff; stroke-width: 0.309839"/>
     <use xlink:href="#m57736b3482" x="83.839858" y="215.437555" style="stroke: #ffffff; stroke-width: 0.309839"/>
     <use xlink:href="#m57736b3482" x="84.881585" y="195.664576" style="stroke: #ffffff; stroke-width: 0.309839"/>
     <use xlink:href="#m57736b3482" x="88.076215" y="200.944453" style="stroke: #ffffff; stroke-width: 0.309839"/>
     <use xlink:href="#m57736b3482" x="91.201397" y="193.972064" style="stroke: #ffffff; stroke-width: 0.309839"/>
     <use xlink:href="#m57736b3482" x="94.361302" y="186.166226" style="stroke: #ffffff; stroke-width: 0.309839"/>
     <use xlink:href="#m57736b3482" x="97.555933" y="190.739601" style="stroke: #ffffff; stroke-width: 0.309839"/>
     <use xlink:href="#m57736b3482" x="100.750563" y="192.722043" style="stroke: #ffffff; stroke-width: 0.309839"/>
     <use xlink:href="#m57736b3482" x="103.910468" y="180.239574" style="stroke: #ffffff; stroke-width: 0.309839"/>
     <use xlink:href="#m57736b3482" x="107.070374" y="201.326395" style="stroke: #ffffff; stroke-width: 0.309839"/>
     <use xlink:href="#m57736b3482" x="110.265004" y="186.494868" style="stroke: #ffffff; stroke-width: 0.309839"/>
     <use xlink:href="#m57736b3482" x="113.459634" y="186.205246" style="stroke: #ffffff; stroke-width: 0.309839"/>
     <use xlink:href="#m57736b3482" x="119.744722" y="167.642748" style="stroke: #ffffff; stroke-width: 0.309839"/>
     <use xlink:href="#m57736b3482" x="122.939352" y="175.162452" style="stroke: #ffffff; stroke-width: 0.309839"/>
     <use xlink:href="#m57736b3482" x="127.210433" y="190.957726" style="stroke: #ffffff; stroke-width: 0.309839"/>
     <use xlink:href="#m57736b3482" x="129.259163" y="191.413125" style="stroke: #ffffff; stroke-width: 0.309839"/>
     <use xlink:href="#m57736b3482" x="130.30089" y="191.91411" style="stroke: #ffffff; stroke-width: 0.309839"/>
     <use xlink:href="#m57736b3482" x="132.419069" y="194.630931" style="stroke: #ffffff; stroke-width: 0.309839"/>
     <use xlink:href="#m57736b3482" x="133.49552" y="200.96387" style="stroke: #ffffff; stroke-width: 0.309839"/>
     <use xlink:href="#m57736b3482" x="134.571972" y="206.386363" style="stroke: #ffffff; stroke-width: 0.309839"/>
     <use xlink:href="#m57736b3482" x="135.613699" y="187.146792" style="stroke: #ffffff; stroke-width: 0.309839"/>
     <use xlink:href="#m57736b3482" x="136.690151" y="202.810093" style="stroke: #ffffff; stroke-width: 0.309839"/>
     <use xlink:href="#m57736b3482" x="137.731878" y="219.76569" style="stroke: #ffffff; stroke-width: 0.309839"/>
     <use xlink:href="#m57736b3482" x="138.808329" y="190.509885" style="stroke: #ffffff; stroke-width: 0.309839"/>
     <use xlink:href="#m57736b3482" x="139.884781" y="207.757788" style="stroke: #ffffff; stroke-width: 0.309839"/>
     <use xlink:href="#m57736b3482" x="140.857059" y="212.554982" style="stroke: #ffffff; stroke-width: 0.309839"/>
     <use xlink:href="#m57736b3482" x="141.933511" y="197.187506" style="stroke: #ffffff; stroke-width: 0.309839"/>
     <use xlink:href="#m57736b3482" x="142.975238" y="199.202297" style="stroke: #ffffff; stroke-width: 0.309839"/>
     <use xlink:href="#m57736b3482" x="144.051689" y="200.866705" style="stroke: #ffffff; stroke-width: 0.309839"/>
     <use xlink:href="#m57736b3482" x="145.093417" y="210.675409" style="stroke: #ffffff; stroke-width: 0.309839"/>
     <use xlink:href="#m57736b3482" x="146.169868" y="206.139146" style="stroke: #ffffff; stroke-width: 0.309839"/>
     <use xlink:href="#m57736b3482" x="147.246319" y="198.884248" style="stroke: #ffffff; stroke-width: 0.309839"/>
     <use xlink:href="#m57736b3482" x="149.364498" y="189.203403" style="stroke: #ffffff; stroke-width: 0.309839"/>
     <use xlink:href="#m57736b3482" x="150.406225" y="189.899607" style="stroke: #ffffff; stroke-width: 0.309839"/>
     <use xlink:href="#m57736b3482" x="151.482677" y="186.500789" style="stroke: #ffffff; stroke-width: 0.309839"/>
     <use xlink:href="#m57736b3482" x="152.559128" y="201.580599" style="stroke: #ffffff; stroke-width: 0.309839"/>
     <use xlink:href="#m57736b3482" x="153.566131" y="206.599224" style="stroke: #ffffff; stroke-width: 0.309839"/>
     <use xlink:href="#m57736b3482" x="154.642582" y="195.582798" style="stroke: #ffffff; stroke-width: 0.309839"/>
     <use xlink:href="#m57736b3482" x="155.68431" y="201.186303" style="stroke: #ffffff; stroke-width: 0.309839"/>
     <use xlink:href="#m57736b3482" x="156.760761" y="219.764441" style="stroke: #ffffff; stroke-width: 0.309839"/>
     <use xlink:href="#m57736b3482" x="157.802488" y="192.337203" style="stroke: #ffffff; stroke-width: 0.309839"/>
     <use xlink:href="#m57736b3482" x="158.87894" y="188.749708" style="stroke: #ffffff; stroke-width: 0.309839"/>
     <use xlink:href="#m57736b3482" x="159.955391" y="192.2043" style="stroke: #ffffff; stroke-width: 0.309839"/>
     <use xlink:href="#m57736b3482" x="160.997118" y="187.239765" style="stroke: #ffffff; stroke-width: 0.309839"/>
     <use xlink:href="#m57736b3482" x="162.07357" y="199.949664" style="stroke: #ffffff; stroke-width: 0.309839"/>
     <use xlink:href="#m57736b3482" x="163.115297" y="200.887208" style="stroke: #ffffff; stroke-width: 0.309839"/>
     <use xlink:href="#m57736b3482" x="164.191748" y="182.115079" style="stroke: #ffffff; stroke-width: 0.309839"/>
     <use xlink:href="#m57736b3482" x="165.2682" y="193.827841" style="stroke: #ffffff; stroke-width: 0.309839"/>
     <use xlink:href="#m57736b3482" x="166.240478" y="189.487348" style="stroke: #ffffff; stroke-width: 0.309839"/>
     <use xlink:href="#m57736b3482" x="167.31693" y="191.755596" style="stroke: #ffffff; stroke-width: 0.309839"/>
     <use xlink:href="#m57736b3482" x="168.358657" y="194.198599" style="stroke: #ffffff; stroke-width: 0.309839"/>
     <use xlink:href="#m57736b3482" x="169.435108" y="189.928112" style="stroke: #ffffff; stroke-width: 0.309839"/>
     <use xlink:href="#m57736b3482" x="170.476836" y="191.07912" style="stroke: #ffffff; stroke-width: 0.309839"/>
     <use xlink:href="#m57736b3482" x="171.553287" y="198.406769" style="stroke: #ffffff; stroke-width: 0.309839"/>
     <use xlink:href="#m57736b3482" x="173.671466" y="198.638425" style="stroke: #ffffff; stroke-width: 0.309839"/>
     <use xlink:href="#m57736b3482" x="176.866096" y="203.351296" style="stroke: #ffffff; stroke-width: 0.309839"/>
     <use xlink:href="#m57736b3482" x="179.991277" y="211.365203" style="stroke: #ffffff; stroke-width: 0.309839"/>
     <use xlink:href="#m57736b3482" x="183.151183" y="209.656211" style="stroke: #ffffff; stroke-width: 0.309839"/>
     <use xlink:href="#m57736b3482" x="186.345813" y="194.280978" style="stroke: #ffffff; stroke-width: 0.309839"/>
     <use xlink:href="#m57736b3482" x="189.540443" y="224.243668" style="stroke: #ffffff; stroke-width: 0.309839"/>
     <use xlink:href="#m57736b3482" x="192.665625" y="187.614069" style="stroke: #ffffff; stroke-width: 0.309839"/>
     <use xlink:href="#m57736b3482" x="195.825531" y="192.006844" style="stroke: #ffffff; stroke-width: 0.309839"/>
     <use xlink:href="#m57736b3482" x="199.020161" y="199.348017" style="stroke: #ffffff; stroke-width: 0.309839"/>
     <use xlink:href="#m57736b3482" x="202.214791" y="199.058346" style="stroke: #ffffff; stroke-width: 0.309839"/>
     <use xlink:href="#m57736b3482" x="205.374696" y="210.021894" style="stroke: #ffffff; stroke-width: 0.309839"/>
     <use xlink:href="#m57736b3482" x="208.534602" y="193.979296" style="stroke: #ffffff; stroke-width: 0.309839"/>
     <use xlink:href="#m57736b3482" x="211.729232" y="196.829098" style="stroke: #ffffff; stroke-width: 0.309839"/>
     <use xlink:href="#m57736b3482" x="214.923862" y="190.567071" style="stroke: #ffffff; stroke-width: 0.309839"/>
     <use xlink:href="#m57736b3482" x="218.049044" y="202.646452" style="stroke: #ffffff; stroke-width: 0.309839"/>
     <use xlink:href="#m57736b3482" x="221.20895" y="213.493894" style="stroke: #ffffff; stroke-width: 0.309839"/>
     <use xlink:href="#m57736b3482" x="224.40358" y="199.036378" style="stroke: #ffffff; stroke-width: 0.309839"/>
     <use xlink:href="#m57736b3482" x="227.59821" y="200.675891" style="stroke: #ffffff; stroke-width: 0.309839"/>
     <use xlink:href="#m57736b3482" x="230.723391" y="203.148614" style="stroke: #ffffff; stroke-width: 0.309839"/>
     <use xlink:href="#m57736b3482" x="233.883297" y="190.547552" style="stroke: #ffffff; stroke-width: 0.309839"/>
     <use xlink:href="#m57736b3482" x="237.077927" y="200.753265" style="stroke: #ffffff; stroke-width: 0.309839"/>
     <use xlink:href="#m57736b3482" x="240.272557" y="204.524489" style="stroke: #ffffff; stroke-width: 0.309839"/>
     <use xlink:href="#m57736b3482" x="246.557645" y="198.46817" style="stroke: #ffffff; stroke-width: 0.309839"/>
     <use xlink:href="#m57736b3482" x="252.946905" y="211.073319" style="stroke: #ffffff; stroke-width: 0.309839"/>
     <use xlink:href="#m57736b3482" x="256.10681" y="212.540912" style="stroke: #ffffff; stroke-width: 0.309839"/>
     <use xlink:href="#m57736b3482" x="259.266716" y="185.772819" style="stroke: #ffffff; stroke-width: 0.309839"/>
     <use xlink:href="#m57736b3482" x="262.461346" y="197.377973" style="stroke: #ffffff; stroke-width: 0.309839"/>
     <use xlink:href="#m57736b3482" x="265.655976" y="196.113772" style="stroke: #ffffff; stroke-width: 0.309839"/>
     <use xlink:href="#m57736b3482" x="268.781158" y="202.981254" style="stroke: #ffffff; stroke-width: 0.309839"/>
     <use xlink:href="#m57736b3482" x="271.941064" y="211.75469" style="stroke: #ffffff; stroke-width: 0.309839"/>
     <use xlink:href="#m57736b3482" x="275.135694" y="204.19386" style="stroke: #ffffff; stroke-width: 0.309839"/>
     <use xlink:href="#m57736b3482" x="278.330324" y="203.351296" style="stroke: #ffffff; stroke-width: 0.309839"/>
     <use xlink:href="#m57736b3482" x="281.455505" y="209.937953" style="stroke: #ffffff; stroke-width: 0.309839"/>
     <use xlink:href="#m57736b3482" x="284.615411" y="202.854015" style="stroke: #ffffff; stroke-width: 0.309839"/>
     <use xlink:href="#m57736b3482" x="287.810041" y="207.276308" style="stroke: #ffffff; stroke-width: 0.309839"/>
     <use xlink:href="#m57736b3482" x="291.004671" y="209.611736" style="stroke: #ffffff; stroke-width: 0.309839"/>
     <use xlink:href="#m57736b3482" x="294.129853" y="212.624901" style="stroke: #ffffff; stroke-width: 0.309839"/>
     <use xlink:href="#m57736b3482" x="297.289759" y="220.626009" style="stroke: #ffffff; stroke-width: 0.309839"/>
     <use xlink:href="#m57736b3482" x="300.484389" y="209.35098" style="stroke: #ffffff; stroke-width: 0.309839"/>
     <use xlink:href="#m57736b3482" x="303.679019" y="211.127655" style="stroke: #ffffff; stroke-width: 0.309839"/>
     <use xlink:href="#m57736b3482" x="306.838925" y="204.990322" style="stroke: #ffffff; stroke-width: 0.309839"/>
     <use xlink:href="#m57736b3482" x="309.99883" y="213.973707" style="stroke: #ffffff; stroke-width: 0.309839"/>
     <use xlink:href="#m57736b3482" x="313.19346" y="212.638755" style="stroke: #ffffff; stroke-width: 0.309839"/>
     <use xlink:href="#m57736b3482" x="316.38809" y="219.458449" style="stroke: #ffffff; stroke-width: 0.309839"/>
     <use xlink:href="#m57736b3482" x="319.513272" y="219.516716" style="stroke: #ffffff; stroke-width: 0.309839"/>
     <use xlink:href="#m57736b3482" x="322.673178" y="205.514116" style="stroke: #ffffff; stroke-width: 0.309839"/>
     <use xlink:href="#m57736b3482" x="325.867808" y="214.129338" style="stroke: #ffffff; stroke-width: 0.309839"/>
     <use xlink:href="#m57736b3482" x="329.062438" y="218.078976" style="stroke: #ffffff; stroke-width: 0.309839"/>
     <use xlink:href="#m57736b3482" x="332.187619" y="204.404115" style="stroke: #ffffff; stroke-width: 0.309839"/>
     <use xlink:href="#m57736b3482" x="335.347525" y="202.305885" style="stroke: #ffffff; stroke-width: 0.309839"/>
     <use xlink:href="#m57736b3482" x="339.618607" y="222.907039" style="stroke: #ffffff; stroke-width: 0.309839"/>
     <use xlink:href="#m57736b3482" x="341.736785" y="217.679708" style="stroke: #ffffff; stroke-width: 0.309839"/>
     <use xlink:href="#m57736b3482" x="345.903694" y="219.517648" style="stroke: #ffffff; stroke-width: 0.309839"/>
     <use xlink:href="#m57736b3482" x="348.021873" y="209.17658" style="stroke: #ffffff; stroke-width: 0.309839"/>
     <use xlink:href="#m57736b3482" x="351.216503" y="216.376464" style="stroke: #ffffff; stroke-width: 0.309839"/>
     <use xlink:href="#m57736b3482" x="354.411133" y="219.054382" style="stroke: #ffffff; stroke-width: 0.309839"/>
     <use xlink:href="#m57736b3482" x="357.571039" y="223.819313" style="stroke: #ffffff; stroke-width: 0.309839"/>
     <use xlink:href="#m57736b3482" x="361.807396" y="224.342851" style="stroke: #ffffff; stroke-width: 0.309839"/>
     <use xlink:href="#m57736b3482" x="363.925574" y="228.257145" style="stroke: #ffffff; stroke-width: 0.309839"/>
     <use xlink:href="#m57736b3482" x="370.245386" y="228.84992" style="stroke: #ffffff; stroke-width: 0.309839"/>
     <use xlink:href="#m57736b3482" x="373.405292" y="230.54538" style="stroke: #ffffff; stroke-width: 0.309839"/>
     <use xlink:href="#m57736b3482" x="376.599922" y="220.091314" style="stroke: #ffffff; stroke-width: 0.309839"/>
     <use xlink:href="#m57736b3482" x="383.961461" y="214.818675" style="stroke: #ffffff; stroke-width: 0.309839"/>
     <use xlink:href="#m57736b3482" x="386.079639" y="221.405376" style="stroke: #ffffff; stroke-width: 0.309839"/>
     <use xlink:href="#m57736b3482" x="389.274269" y="222.803136" style="stroke: #ffffff; stroke-width: 0.309839"/>
     <use xlink:href="#m57736b3482" x="398.753987" y="211.934589" style="stroke: #ffffff; stroke-width: 0.309839"/>
     <use xlink:href="#m57736b3482" x="401.948617" y="217.061095" style="stroke: #ffffff; stroke-width: 0.309839"/>
     <use xlink:href="#m57736b3482" x="406.219698" y="225.15997" style="stroke: #ffffff; stroke-width: 0.309839"/>
     <use xlink:href="#m57736b3482" x="411.463058" y="229.718702" style="stroke: #ffffff; stroke-width: 0.309839"/>
     <use xlink:href="#m57736b3482" x="414.657688" y="215.612282" style="stroke: #ffffff; stroke-width: 0.309839"/>
    </g>
   </g>
  </g>
 </g>
 <defs>
  <clipPath id="p2e550c634d">
   <rect x="38.420552" y="18.118365" width="379.431766" height="102.95303"/>
  </clipPath>
  <clipPath id="p8275335902">
   <rect x="462.817069" y="18.118365" width="252.954511" height="236.525145"/>
  </clipPath>
  <clipPath id="p03eff7fd2c">
   <rect x="38.420552" y="151.69048" width="379.431766" height="102.95303"/>
  </clipPath>
 </defs>
</svg>
