<?xml version="1.0" encoding="utf-8" standalone="no"?>
<!DOCTYPE svg PUBLIC "-//W3C//DTD SVG 1.1//EN"
  "http://www.w3.org/Graphics/SVG/1.1/DTD/svg11.dtd">
<svg xmlns:xlink="http://www.w3.org/1999/xlink" width="720pt" height="288pt" viewBox="0 0 720 288" xmlns="http://www.w3.org/2000/svg" version="1.1">
 <metadata>
  <rdf:RDF xmlns:dc="http://purl.org/dc/elements/1.1/" xmlns:cc="http://creativecommons.org/ns#" xmlns:rdf="http://www.w3.org/1999/02/22-rdf-syntax-ns#">
   <cc:Work>
    <dc:type rdf:resource="http://purl.org/dc/dcmitype/StillImage"/>
    <dc:date>2024-02-05T19:31:01.619547</dc:date>
    <dc:format>image/svg+xml</dc:format>
    <dc:creator>
     <cc:Agent>
      <dc:title>Matplotlib v3.8.2, https://matplotlib.org/</dc:title>
     </cc:Agent>
    </dc:creator>
   </cc:Work>
  </rdf:RDF>
 </metadata>
 <defs>
  <style type="text/css">*{stroke-linejoin: round; stroke-linecap: butt}</style>
 </defs>
 <g id="figure_1">
  <g id="patch_1">
   <path d="M 0 288 
L 720 288 
L 720 0 
L 0 0 
z
" style="fill: #ffffff"/>
  </g>
  <g id="axes_1">
   <g id="patch_2">
    <path d="M 38.420552 121.071395 
L 426.841501 121.071395 
L 426.841501 18.118365 
L 38.420552 18.118365 
z
" style="fill: #ffffff"/>
   </g>
   <g id="PolyCollection_1">
    <path d="M 38.420552 70.875393 
L 38.420552 68.058529 
L 38.420552 68.058529 
L 38.420552 70.875393 
L 38.420552 70.875393 
L 38.420552 70.875393 
z
" clip-path="url(#pe6c4b640d1)" style="fill: #17becf; fill-opacity: 0.6; stroke: #1f77b4; stroke-opacity: 0.8; stroke-width: 1.5"/>
    <path d="M 42.68618 70.875393 
L 42.68618 69.663292 
L 43.219384 69.663292 
L 43.219384 67.28905 
L 44.303564 67.28905 
L 44.303564 68.294594 
L 45.405518 68.294594 
L 45.405518 67.12689 
L 45.956495 67.12689 
L 45.956495 70.875393 
L 45.956495 70.875393 
L 45.405518 70.875393 
L 45.405518 70.875393 
L 44.303564 70.875393 
L 44.303564 70.875393 
L 43.219384 70.875393 
L 43.219384 70.875393 
L 42.68618 70.875393 
z
" clip-path="url(#pe6c4b640d1)" style="fill: #17becf; fill-opacity: 0.6; stroke: #1f77b4; stroke-opacity: 0.8; stroke-width: 1.5"/>
    <path d="M 49.191262 70.875393 
L 49.191262 68.394817 
L 49.742239 68.394817 
L 49.742239 66.392846 
L 50.293216 66.392846 
L 50.293216 70.875393 
L 50.293216 70.875393 
L 49.742239 70.875393 
L 49.742239 70.875393 
L 49.191262 70.875393 
z
" clip-path="url(#pe6c4b640d1)" style="fill: #17becf; fill-opacity: 0.6; stroke: #1f77b4; stroke-opacity: 0.8; stroke-width: 1.5"/>
    <path d="M 101.12528 70.875393 
L 101.12528 61.033665 
L 101.676256 61.033665 
L 101.676256 58.682052 
L 102.77821 58.682052 
L 102.77821 54.70721 
L 103.844617 54.70721 
L 103.844617 51.177389 
L 104.911024 51.177389 
L 104.911024 52.137904 
L 105.995205 52.137904 
L 105.995205 53.097101 
L 107.079385 53.097101 
L 107.079385 54.627803 
L 108.163565 54.627803 
L 108.163565 60.197587 
L 109.247746 60.197587 
L 109.247746 60.078982 
L 110.349699 60.078982 
L 110.349699 58.512673 
L 111.43388 58.512673 
L 111.43388 52.526872 
L 112.51806 52.526872 
L 112.51806 47.240862 
L 113.602241 47.240862 
L 113.602241 46.243514 
L 114.686421 46.243514 
L 114.686421 38.184101 
L 115.788375 38.184101 
L 115.788375 35.06538 
L 116.837008 35.06538 
L 116.837008 33.83505 
L 117.885642 33.83505 
L 117.885642 29.083759 
L 118.969822 29.083759 
L 118.969822 27.774537 
L 120.054002 27.774537 
L 120.054002 29.120896 
L 121.138183 29.120896 
L 121.138183 28.844816 
L 122.222363 28.844816 
L 122.222363 23.380114 
L 123.324317 23.380114 
L 123.324317 23.79929 
L 124.408497 23.79929 
L 124.408497 23.756924 
L 125.492678 23.756924 
L 125.492678 18.282515 
L 126.576858 18.282515 
L 126.576858 18.118365 
L 127.661038 18.118365 
L 127.661038 20.648549 
L 128.762992 20.648549 
L 128.762992 22.437159 
L 129.811626 22.437159 
L 129.811626 24.93303 
L 130.860259 24.93303 
L 130.860259 24.028811 
L 131.94444 24.028811 
L 131.94444 24.507324 
L 133.02862 24.507324 
L 133.02862 26.797016 
L 134.1128 26.797016 
L 134.1128 25.122502 
L 135.196981 25.122502 
L 135.196981 23.532592 
L 136.298935 23.532592 
L 136.298935 26.859616 
L 137.383115 26.859616 
L 137.383115 34.968816 
L 138.467295 34.968816 
L 138.467295 36.128845 
L 139.551476 36.128845 
L 139.551476 37.529403 
L 140.635656 37.529403 
L 140.635656 39.389869 
L 141.73761 39.389869 
L 141.73761 37.262748 
L 142.786243 37.262748 
L 142.786243 37.031394 
L 143.834877 37.031394 
L 143.834877 40.165524 
L 144.919057 40.165524 
L 144.919057 40.760948 
L 146.003238 40.760948 
L 146.003238 40.446746 
L 147.087418 40.446746 
L 147.087418 41.700115 
L 148.171598 41.700115 
L 148.171598 42.469785 
L 149.273552 42.469785 
L 149.273552 41.06353 
L 150.357732 41.06353 
L 150.357732 43.587405 
L 151.441913 43.587405 
L 151.441913 54.380383 
L 152.526093 54.380383 
L 152.526093 56.495447 
L 153.610274 56.495447 
L 153.610274 55.384082 
L 154.712227 55.384082 
L 154.712227 57.961744 
L 155.778634 57.961744 
L 155.778634 59.018853 
L 156.845041 59.018853 
L 156.845041 59.243878 
L 157.929222 59.243878 
L 157.929222 62.337845 
L 159.013402 62.337845 
L 159.013402 65.525968 
L 160.097582 65.525968 
L 160.097582 68.706278 
L 160.630786 68.706278 
L 160.630786 70.875393 
L 160.630786 70.875393 
L 160.097582 70.875393 
L 160.097582 70.875393 
L 159.013402 70.875393 
L 159.013402 70.875393 
L 157.929222 70.875393 
L 157.929222 70.875393 
L 156.845041 70.875393 
L 156.845041 70.875393 
L 155.778634 70.875393 
L 155.778634 70.875393 
L 154.712227 70.875393 
L 154.712227 70.875393 
L 153.610274 70.875393 
L 153.610274 70.875393 
L 152.526093 70.875393 
L 152.526093 70.875393 
L 151.441913 70.875393 
L 151.441913 70.875393 
L 150.357732 70.875393 
L 150.357732 70.875393 
L 149.273552 70.875393 
L 149.273552 70.875393 
L 148.171598 70.875393 
L 148.171598 70.875393 
L 147.087418 70.875393 
L 147.087418 70.875393 
L 146.003238 70.875393 
L 146.003238 70.875393 
L 144.919057 70.875393 
L 144.919057 70.875393 
L 143.834877 70.875393 
L 143.834877 70.875393 
L 142.786243 70.875393 
L 142.786243 70.875393 
L 141.73761 70.875393 
L 141.73761 70.875393 
L 140.635656 70.875393 
L 140.635656 70.875393 
L 139.551476 70.875393 
L 139.551476 70.875393 
L 138.467295 70.875393 
L 138.467295 70.875393 
L 137.383115 70.875393 
L 137.383115 70.875393 
L 136.298935 70.875393 
L 136.298935 70.875393 
L 135.196981 70.875393 
L 135.196981 70.875393 
L 134.1128 70.875393 
L 134.1128 70.875393 
L 133.02862 70.875393 
L 133.02862 70.875393 
L 131.94444 70.875393 
L 131.94444 70.875393 
L 130.860259 70.875393 
L 130.860259 70.875393 
L 129.811626 70.875393 
L 129.811626 70.875393 
L 128.762992 70.875393 
L 128.762992 70.875393 
L 127.661038 70.875393 
L 127.661038 70.875393 
L 126.576858 70.875393 
L 126.576858 70.875393 
L 125.492678 70.875393 
L 125.492678 70.875393 
L 124.408497 70.875393 
L 124.408497 70.875393 
L 123.324317 70.875393 
L 123.324317 70.875393 
L 122.222363 70.875393 
L 122.222363 70.875393 
L 121.138183 70.875393 
L 121.138183 70.875393 
L 120.054002 70.875393 
L 120.054002 70.875393 
L 118.969822 70.875393 
L 118.969822 70.875393 
L 117.885642 70.875393 
L 117.885642 70.875393 
L 116.837008 70.875393 
L 116.837008 70.875393 
L 115.788375 70.875393 
L 115.788375 70.875393 
L 114.686421 70.875393 
L 114.686421 70.875393 
L 113.602241 70.875393 
L 113.602241 70.875393 
L 112.51806 70.875393 
L 112.51806 70.875393 
L 111.43388 70.875393 
L 111.43388 70.875393 
L 110.349699 70.875393 
L 110.349699 70.875393 
L 109.247746 70.875393 
L 109.247746 70.875393 
L 108.163565 70.875393 
L 108.163565 70.875393 
L 107.079385 70.875393 
L 107.079385 70.875393 
L 105.995205 70.875393 
L 105.995205 70.875393 
L 104.911024 70.875393 
L 104.911024 70.875393 
L 103.844617 70.875393 
L 103.844617 70.875393 
L 102.77821 70.875393 
L 102.77821 70.875393 
L 101.676256 70.875393 
L 101.676256 70.875393 
L 101.12528 70.875393 
z
" clip-path="url(#pe6c4b640d1)" style="fill: #17becf; fill-opacity: 0.6; stroke: #1f77b4; stroke-opacity: 0.8; stroke-width: 1.5"/>
    <path d="M 165.003054 70.875393 
L 165.003054 65.197835 
L 165.003054 65.197835 
L 165.003054 70.875393 
L 165.003054 70.875393 
L 165.003054 70.875393 
z
" clip-path="url(#pe6c4b640d1)" style="fill: #17becf; fill-opacity: 0.6; stroke: #1f77b4; stroke-opacity: 0.8; stroke-width: 1.5"/>
    <path d="M 215.835118 70.875393 
L 215.835118 63.887772 
L 216.386094 63.887772 
L 216.386094 65.633843 
L 217.470275 65.633843 
L 217.470275 70.28482 
L 218.554455 70.28482 
L 218.554455 69.839327 
L 219.105432 69.839327 
L 219.105432 70.875393 
L 219.105432 70.875393 
L 218.554455 70.875393 
L 218.554455 70.875393 
L 217.470275 70.875393 
L 217.470275 70.875393 
L 216.386094 70.875393 
L 216.386094 70.875393 
L 215.835118 70.875393 
z
" clip-path="url(#pe6c4b640d1)" style="fill: #17becf; fill-opacity: 0.6; stroke: #1f77b4; stroke-opacity: 0.8; stroke-width: 1.5"/>
    <path d="M 247.151934 70.875393 
L 247.151934 69.917509 
L 247.151934 69.917509 
L 247.151934 70.875393 
L 247.151934 70.875393 
L 247.151934 70.875393 
z
" clip-path="url(#pe6c4b640d1)" style="fill: #17becf; fill-opacity: 0.6; stroke: #1f77b4; stroke-opacity: 0.8; stroke-width: 1.5"/>
    <path d="M 258.029285 70.875393 
L 258.029285 67.556573 
L 258.580262 67.556573 
L 258.580262 65.09684 
L 259.646669 65.09684 
L 259.646669 63.270813 
L 260.713076 63.270813 
L 260.713076 62.341326 
L 261.797256 62.341326 
L 261.797256 65.644287 
L 262.881436 65.644287 
L 262.881436 64.453377 
L 263.965617 64.453377 
L 263.965617 62.497574 
L 265.049797 62.497574 
L 265.049797 64.419443 
L 266.151751 64.419443 
L 266.151751 62.006552 
L 267.235931 62.006552 
L 267.235931 63.855803 
L 268.320112 63.855803 
L 268.320112 66.25109 
L 269.404292 66.25109 
L 269.404292 67.967554 
L 270.488472 67.967554 
L 270.488472 64.909531 
L 271.590426 64.909531 
L 271.590426 57.957554 
L 272.63906 57.957554 
L 272.63906 62.106962 
L 273.687693 62.106962 
L 273.687693 56.542322 
L 274.771873 56.542322 
L 274.771873 58.170665 
L 275.856054 58.170665 
L 275.856054 55.144512 
L 276.940234 55.144512 
L 276.940234 54.764819 
L 278.024415 54.764819 
L 278.024415 54.851247 
L 279.126368 54.851247 
L 279.126368 51.804165 
L 280.210549 51.804165 
L 280.210549 58.455917 
L 281.294729 58.455917 
L 281.294729 57.647377 
L 282.37891 57.647377 
L 282.37891 60.59157 
L 283.46309 60.59157 
L 283.46309 66.849902 
L 284.565044 66.849902 
L 284.565044 68.498896 
L 285.116021 68.498896 
L 285.116021 70.875393 
L 285.116021 70.875393 
L 284.565044 70.875393 
L 284.565044 70.875393 
L 283.46309 70.875393 
L 283.46309 70.875393 
L 282.37891 70.875393 
L 282.37891 70.875393 
L 281.294729 70.875393 
L 281.294729 70.875393 
L 280.210549 70.875393 
L 280.210549 70.875393 
L 279.126368 70.875393 
L 279.126368 70.875393 
L 278.024415 70.875393 
L 278.024415 70.875393 
L 276.940234 70.875393 
L 276.940234 70.875393 
L 275.856054 70.875393 
L 275.856054 70.875393 
L 274.771873 70.875393 
L 274.771873 70.875393 
L 273.687693 70.875393 
L 273.687693 70.875393 
L 272.63906 70.875393 
L 272.63906 70.875393 
L 271.590426 70.875393 
L 271.590426 70.875393 
L 270.488472 70.875393 
L 270.488472 70.875393 
L 269.404292 70.875393 
L 269.404292 70.875393 
L 268.320112 70.875393 
L 268.320112 70.875393 
L 267.235931 70.875393 
L 267.235931 70.875393 
L 266.151751 70.875393 
L 266.151751 70.875393 
L 265.049797 70.875393 
L 265.049797 70.875393 
L 263.965617 70.875393 
L 263.965617 70.875393 
L 262.881436 70.875393 
L 262.881436 70.875393 
L 261.797256 70.875393 
L 261.797256 70.875393 
L 260.713076 70.875393 
L 260.713076 70.875393 
L 259.646669 70.875393 
L 259.646669 70.875393 
L 258.580262 70.875393 
L 258.580262 70.875393 
L 258.029285 70.875393 
z
" clip-path="url(#pe6c4b640d1)" style="fill: #17becf; fill-opacity: 0.6; stroke: #1f77b4; stroke-opacity: 0.8; stroke-width: 1.5"/>
    <path d="M 322.973466 70.875393 
L 322.973466 66.009084 
L 323.524443 66.009084 
L 323.524443 64.654692 
L 324.573077 64.654692 
L 324.573077 66.301154 
L 325.62171 66.301154 
L 325.62171 66.820626 
L 326.705891 66.820626 
L 326.705891 68.408314 
L 327.790071 68.408314 
L 327.790071 68.831651 
L 328.874251 68.831651 
L 328.874251 70.695545 
L 329.407455 70.695545 
L 329.407455 70.875393 
L 329.407455 70.875393 
L 328.874251 70.875393 
L 328.874251 70.875393 
L 327.790071 70.875393 
L 327.790071 70.875393 
L 326.705891 70.875393 
L 326.705891 70.875393 
L 325.62171 70.875393 
L 325.62171 70.875393 
L 324.573077 70.875393 
L 324.573077 70.875393 
L 323.524443 70.875393 
L 323.524443 70.875393 
L 322.973466 70.875393 
z
" clip-path="url(#pe6c4b640d1)" style="fill: #17becf; fill-opacity: 0.6; stroke: #1f77b4; stroke-opacity: 0.8; stroke-width: 1.5"/>
    <path d="M 332.677769 70.875393 
L 332.677769 68.982068 
L 332.677769 68.982068 
L 332.677769 70.875393 
L 332.677769 70.875393 
L 332.677769 70.875393 
z
" clip-path="url(#pe6c4b640d1)" style="fill: #17becf; fill-opacity: 0.6; stroke: #1f77b4; stroke-opacity: 0.8; stroke-width: 1.5"/>
    <path d="M 347.820748 70.875393 
L 347.820748 70.456552 
L 347.820748 70.456552 
L 347.820748 70.875393 
L 347.820748 70.875393 
L 347.820748 70.875393 
z
" clip-path="url(#pe6c4b640d1)" style="fill: #17becf; fill-opacity: 0.6; stroke: #1f77b4; stroke-opacity: 0.8; stroke-width: 1.5"/>
    <path d="M 389.979368 70.875393 
L 389.979368 66.787204 
L 390.530345 66.787204 
L 390.530345 64.415973 
L 391.614525 64.415973 
L 391.614525 58.460354 
L 392.698706 58.460354 
L 392.698706 60.087806 
L 393.782886 60.087806 
L 393.782886 56.677449 
L 394.867066 56.677449 
L 394.867066 58.212343 
L 395.96902 58.212343 
L 395.96902 56.716984 
L 397.053201 56.716984 
L 397.053201 57.04506 
L 398.137381 57.04506 
L 398.137381 61.380993 
L 399.221561 61.380993 
L 399.221561 57.135292 
L 400.305742 57.135292 
L 400.305742 59.441677 
L 401.407696 59.441677 
L 401.407696 63.877963 
L 402.456329 63.877963 
L 402.456329 59.894596 
L 403.504963 59.894596 
L 403.504963 63.028329 
L 404.589143 63.028329 
L 404.589143 55.477369 
L 405.673323 55.477369 
L 405.673323 57.507413 
L 406.757504 57.507413 
L 406.757504 59.90852 
L 407.841684 59.90852 
L 407.841684 61.548617 
L 408.943638 61.548617 
L 408.943638 62.805952 
L 410.027818 62.805952 
L 410.027818 55.147676 
L 411.111999 55.147676 
L 411.111999 56.478231 
L 412.196179 56.478231 
L 412.196179 57.468927 
L 413.280359 57.468927 
L 413.280359 64.954777 
L 414.382313 64.954777 
L 414.382313 68.149257 
L 415.44872 68.149257 
L 415.44872 64.933386 
L 416.515127 64.933386 
L 416.515127 65.177503 
L 417.599307 65.177503 
L 417.599307 68.10262 
L 418.683488 68.10262 
L 418.683488 63.201905 
L 419.767668 63.201905 
L 419.767668 57.826646 
L 420.851848 57.826646 
L 420.851848 59.32628 
L 421.953802 59.32628 
L 421.953802 60.796748 
L 423.037983 60.796748 
L 423.037983 62.891912 
L 424.122163 62.891912 
L 424.122163 61.071765 
L 425.206343 61.071765 
L 425.206343 63.834149 
L 425.739547 63.834149 
L 425.739547 70.875393 
L 425.739547 70.875393 
L 425.206343 70.875393 
L 425.206343 70.875393 
L 424.122163 70.875393 
L 424.122163 70.875393 
L 423.037983 70.875393 
L 423.037983 70.875393 
L 421.953802 70.875393 
L 421.953802 70.875393 
L 420.851848 70.875393 
L 420.851848 70.875393 
L 419.767668 70.875393 
L 419.767668 70.875393 
L 418.683488 70.875393 
L 418.683488 70.875393 
L 417.599307 70.875393 
L 417.599307 70.875393 
L 416.515127 70.875393 
L 416.515127 70.875393 
L 415.44872 70.875393 
L 415.44872 70.875393 
L 414.382313 70.875393 
L 414.382313 70.875393 
L 413.280359 70.875393 
L 413.280359 70.875393 
L 412.196179 70.875393 
L 412.196179 70.875393 
L 411.111999 70.875393 
L 411.111999 70.875393 
L 410.027818 70.875393 
L 410.027818 70.875393 
L 408.943638 70.875393 
L 408.943638 70.875393 
L 407.841684 70.875393 
L 407.841684 70.875393 
L 406.757504 70.875393 
L 406.757504 70.875393 
L 405.673323 70.875393 
L 405.673323 70.875393 
L 404.589143 70.875393 
L 404.589143 70.875393 
L 403.504963 70.875393 
L 403.504963 70.875393 
L 402.456329 70.875393 
L 402.456329 70.875393 
L 401.407696 70.875393 
L 401.407696 70.875393 
L 400.305742 70.875393 
L 400.305742 70.875393 
L 399.221561 70.875393 
L 399.221561 70.875393 
L 398.137381 70.875393 
L 398.137381 70.875393 
L 397.053201 70.875393 
L 397.053201 70.875393 
L 395.96902 70.875393 
L 395.96902 70.875393 
L 394.867066 70.875393 
L 394.867066 70.875393 
L 393.782886 70.875393 
L 393.782886 70.875393 
L 392.698706 70.875393 
L 392.698706 70.875393 
L 391.614525 70.875393 
L 391.614525 70.875393 
L 390.530345 70.875393 
L 390.530345 70.875393 
L 389.979368 70.875393 
z
" clip-path="url(#pe6c4b640d1)" style="fill: #17becf; fill-opacity: 0.6; stroke: #1f77b4; stroke-opacity: 0.8; stroke-width: 1.5"/>
   </g>
   <g id="PolyCollection_2">
    <path d="M 39.415866 70.875393 
L 39.415866 73.52434 
L 39.966843 73.52434 
L 39.966843 74.812497 
L 41.051023 74.812497 
L 41.051023 72.251951 
L 41.584226 72.251951 
L 41.584226 70.875393 
L 41.584226 70.875393 
L 41.051023 70.875393 
L 41.051023 70.875393 
L 39.966843 70.875393 
L 39.966843 70.875393 
L 39.415866 70.875393 
z
" clip-path="url(#pe6c4b640d1)" style="fill: #d62728; fill-opacity: 0.6; stroke: #b22222; stroke-opacity: 0.8; stroke-width: 1.5"/>
    <path d="M 47.022902 70.875393 
L 47.022902 73.058379 
L 47.573879 73.058379 
L 47.573879 72.442085 
L 48.124855 72.442085 
L 48.124855 70.875393 
L 48.124855 70.875393 
L 47.573879 70.875393 
L 47.573879 70.875393 
L 47.022902 70.875393 
z
" clip-path="url(#pe6c4b640d1)" style="fill: #d62728; fill-opacity: 0.6; stroke: #b22222; stroke-opacity: 0.8; stroke-width: 1.5"/>
    <path d="M 51.39517 70.875393 
L 51.39517 73.880509 
L 51.9106 73.880509 
L 51.9106 76.073715 
L 52.977007 76.073715 
L 52.977007 82.61453 
L 54.061187 82.61453 
L 54.061187 79.127209 
L 55.145368 79.127209 
L 55.145368 82.673325 
L 56.229548 82.673325 
L 56.229548 87.147143 
L 57.313728 87.147143 
L 57.313728 82.354298 
L 58.415682 82.354298 
L 58.415682 80.28807 
L 59.499863 80.28807 
L 59.499863 79.481528 
L 60.584043 79.481528 
L 60.584043 78.204261 
L 61.668223 78.204261 
L 61.668223 81.565848 
L 62.752404 81.565848 
L 62.752404 82.103383 
L 63.854358 82.103383 
L 63.854358 81.314147 
L 64.902991 81.314147 
L 64.902991 86.417495 
L 65.951625 86.417495 
L 65.951625 90.787333 
L 67.035805 90.787333 
L 67.035805 85.455543 
L 68.119985 85.455543 
L 68.119985 86.369146 
L 69.204166 86.369146 
L 69.204166 83.410129 
L 70.288346 83.410129 
L 70.288346 76.28038 
L 71.3903 76.28038 
L 71.3903 77.215272 
L 72.47448 77.215272 
L 72.47448 79.690387 
L 73.558661 79.690387 
L 73.558661 78.265045 
L 74.642841 78.265045 
L 74.642841 81.896372 
L 75.727021 81.896372 
L 75.727021 83.721821 
L 76.828975 83.721821 
L 76.828975 83.255692 
L 77.877609 83.255692 
L 77.877609 84.356677 
L 78.926242 84.356677 
L 78.926242 88.674794 
L 80.010422 88.674794 
L 80.010422 89.752923 
L 81.094603 89.752923 
L 81.094603 88.200513 
L 82.178783 88.200513 
L 82.178783 87.144443 
L 83.262964 87.144443 
L 83.262964 86.625431 
L 84.364917 86.625431 
L 84.364917 86.01303 
L 85.449098 86.01303 
L 85.449098 94.979783 
L 86.533278 94.979783 
L 86.533278 92.895275 
L 87.617459 92.895275 
L 87.617459 85.518036 
L 88.701639 85.518036 
L 88.701639 85.488368 
L 89.803593 85.488368 
L 89.803593 84.400247 
L 90.852226 84.400247 
L 90.852226 87.165131 
L 91.90086 87.165131 
L 91.90086 83.440733 
L 92.98504 83.440733 
L 92.98504 82.100841 
L 94.06922 82.100841 
L 94.06922 85.784782 
L 95.153401 85.784782 
L 95.153401 84.048989 
L 96.237581 84.048989 
L 96.237581 82.396727 
L 97.339535 82.396727 
L 97.339535 79.722729 
L 98.423715 79.722729 
L 98.423715 76.456693 
L 99.507896 76.456693 
L 99.507896 75.006657 
L 100.058873 75.006657 
L 100.058873 70.875393 
L 100.058873 70.875393 
L 99.507896 70.875393 
L 99.507896 70.875393 
L 98.423715 70.875393 
L 98.423715 70.875393 
L 97.339535 70.875393 
L 97.339535 70.875393 
L 96.237581 70.875393 
L 96.237581 70.875393 
L 95.153401 70.875393 
L 95.153401 70.875393 
L 94.06922 70.875393 
L 94.06922 70.875393 
L 92.98504 70.875393 
L 92.98504 70.875393 
L 91.90086 70.875393 
L 91.90086 70.875393 
L 90.852226 70.875393 
L 90.852226 70.875393 
L 89.803593 70.875393 
L 89.803593 70.875393 
L 88.701639 70.875393 
L 88.701639 70.875393 
L 87.617459 70.875393 
L 87.617459 70.875393 
L 86.533278 70.875393 
L 86.533278 70.875393 
L 85.449098 70.875393 
L 85.449098 70.875393 
L 84.364917 70.875393 
L 84.364917 70.875393 
L 83.262964 70.875393 
L 83.262964 70.875393 
L 82.178783 70.875393 
L 82.178783 70.875393 
L 81.094603 70.875393 
L 81.094603 70.875393 
L 80.010422 70.875393 
L 80.010422 70.875393 
L 78.926242 70.875393 
L 78.926242 70.875393 
L 77.877609 70.875393 
L 77.877609 70.875393 
L 76.828975 70.875393 
L 76.828975 70.875393 
L 75.727021 70.875393 
L 75.727021 70.875393 
L 74.642841 70.875393 
L 74.642841 70.875393 
L 73.558661 70.875393 
L 73.558661 70.875393 
L 72.47448 70.875393 
L 72.47448 70.875393 
L 71.3903 70.875393 
L 71.3903 70.875393 
L 70.288346 70.875393 
L 70.288346 70.875393 
L 69.204166 70.875393 
L 69.204166 70.875393 
L 68.119985 70.875393 
L 68.119985 70.875393 
L 67.035805 70.875393 
L 67.035805 70.875393 
L 65.951625 70.875393 
L 65.951625 70.875393 
L 64.902991 70.875393 
L 64.902991 70.875393 
L 63.854358 70.875393 
L 63.854358 70.875393 
L 62.752404 70.875393 
L 62.752404 70.875393 
L 61.668223 70.875393 
L 61.668223 70.875393 
L 60.584043 70.875393 
L 60.584043 70.875393 
L 59.499863 70.875393 
L 59.499863 70.875393 
L 58.415682 70.875393 
L 58.415682 70.875393 
L 57.313728 70.875393 
L 57.313728 70.875393 
L 56.229548 70.875393 
L 56.229548 70.875393 
L 55.145368 70.875393 
L 55.145368 70.875393 
L 54.061187 70.875393 
L 54.061187 70.875393 
L 52.977007 70.875393 
L 52.977007 70.875393 
L 51.9106 70.875393 
L 51.9106 70.875393 
L 51.39517 70.875393 
z
" clip-path="url(#pe6c4b640d1)" style="fill: #d62728; fill-opacity: 0.6; stroke: #b22222; stroke-opacity: 0.8; stroke-width: 1.5"/>
    <path d="M 161.73274 70.875393 
L 161.73274 71.241532 
L 162.283717 71.241532 
L 162.283717 75.758569 
L 163.367897 75.758569 
L 163.367897 71.719153 
L 163.9011 71.719153 
L 163.9011 70.875393 
L 163.9011 70.875393 
L 163.367897 70.875393 
L 163.367897 70.875393 
L 162.283717 70.875393 
L 162.283717 70.875393 
L 161.73274 70.875393 
z
" clip-path="url(#pe6c4b640d1)" style="fill: #d62728; fill-opacity: 0.6; stroke: #b22222; stroke-opacity: 0.8; stroke-width: 1.5"/>
    <path d="M 166.069461 70.875393 
L 166.069461 71.124329 
L 166.620438 71.124329 
L 166.620438 71.469881 
L 167.722392 71.469881 
L 167.722392 75.743794 
L 168.771025 75.743794 
L 168.771025 78.676552 
L 169.819659 78.676552 
L 169.819659 82.869725 
L 170.903839 82.869725 
L 170.903839 88.604533 
L 171.98802 88.604533 
L 171.98802 94.045591 
L 173.0722 94.045591 
L 173.0722 88.50033 
L 174.15638 88.50033 
L 174.15638 89.410216 
L 175.258334 89.410216 
L 175.258334 88.876864 
L 176.342515 88.876864 
L 176.342515 94.703215 
L 177.426695 94.703215 
L 177.426695 95.43895 
L 178.510875 95.43895 
L 178.510875 99.921769 
L 179.595056 99.921769 
L 179.595056 104.408904 
L 180.697009 104.408904 
L 180.697009 99.472699 
L 181.745643 99.472699 
L 181.745643 100.115742 
L 182.794276 100.115742 
L 182.794276 98.994307 
L 183.878457 98.994307 
L 183.878457 100.077165 
L 184.962637 100.077165 
L 184.962637 97.072852 
L 186.046818 97.072852 
L 186.046818 96.184298 
L 187.130998 96.184298 
L 187.130998 94.956575 
L 188.232952 94.956575 
L 188.232952 91.284196 
L 189.317132 91.284196 
L 189.317132 92.673407 
L 190.401312 92.673407 
L 190.401312 99.413517 
L 191.485493 99.413517 
L 191.485493 102.905736 
L 192.569673 102.905736 
L 192.569673 107.230083 
L 193.671627 107.230083 
L 193.671627 100.040598 
L 194.72026 100.040598 
L 194.72026 95.971777 
L 195.768894 95.971777 
L 195.768894 87.601771 
L 196.853074 87.601771 
L 196.853074 85.984505 
L 197.937255 85.984505 
L 197.937255 84.004227 
L 199.021435 84.004227 
L 199.021435 85.111854 
L 200.105615 85.111854 
L 200.105615 88.539411 
L 201.207569 88.539411 
L 201.207569 91.564982 
L 202.29175 91.564982 
L 202.29175 87.355427 
L 203.37593 87.355427 
L 203.37593 85.400622 
L 204.46011 85.400622 
L 204.46011 76.533773 
L 205.544291 76.533773 
L 205.544291 74.034366 
L 206.646245 74.034366 
L 206.646245 71.474745 
L 207.712651 71.474745 
L 207.712651 73.686147 
L 208.779058 73.686147 
L 208.779058 73.422688 
L 209.863239 73.422688 
L 209.863239 79.161459 
L 210.947419 79.161459 
L 210.947419 74.718462 
L 212.0316 74.718462 
L 212.0316 73.707338 
L 213.11578 73.707338 
L 213.11578 72.131881 
L 214.217734 72.131881 
L 214.217734 72.035912 
L 214.768711 72.035912 
L 214.768711 70.875393 
L 214.768711 70.875393 
L 214.217734 70.875393 
L 214.217734 70.875393 
L 213.11578 70.875393 
L 213.11578 70.875393 
L 212.0316 70.875393 
L 212.0316 70.875393 
L 210.947419 70.875393 
L 210.947419 70.875393 
L 209.863239 70.875393 
L 209.863239 70.875393 
L 208.779058 70.875393 
L 208.779058 70.875393 
L 207.712651 70.875393 
L 207.712651 70.875393 
L 206.646245 70.875393 
L 206.646245 70.875393 
L 205.544291 70.875393 
L 205.544291 70.875393 
L 204.46011 70.875393 
L 204.46011 70.875393 
L 203.37593 70.875393 
L 203.37593 70.875393 
L 202.29175 70.875393 
L 202.29175 70.875393 
L 201.207569 70.875393 
L 201.207569 70.875393 
L 200.105615 70.875393 
L 200.105615 70.875393 
L 199.021435 70.875393 
L 199.021435 70.875393 
L 197.937255 70.875393 
L 197.937255 70.875393 
L 196.853074 70.875393 
L 196.853074 70.875393 
L 195.768894 70.875393 
L 195.768894 70.875393 
L 194.72026 70.875393 
L 194.72026 70.875393 
L 193.671627 70.875393 
L 193.671627 70.875393 
L 192.569673 70.875393 
L 192.569673 70.875393 
L 191.485493 70.875393 
L 191.485493 70.875393 
L 190.401312 70.875393 
L 190.401312 70.875393 
L 189.317132 70.875393 
L 189.317132 70.875393 
L 188.232952 70.875393 
L 188.232952 70.875393 
L 187.130998 70.875393 
L 187.130998 70.875393 
L 186.046818 70.875393 
L 186.046818 70.875393 
L 184.962637 70.875393 
L 184.962637 70.875393 
L 183.878457 70.875393 
L 183.878457 70.875393 
L 182.794276 70.875393 
L 182.794276 70.875393 
L 181.745643 70.875393 
L 181.745643 70.875393 
L 180.697009 70.875393 
L 180.697009 70.875393 
L 179.595056 70.875393 
L 179.595056 70.875393 
L 178.510875 70.875393 
L 178.510875 70.875393 
L 177.426695 70.875393 
L 177.426695 70.875393 
L 176.342515 70.875393 
L 176.342515 70.875393 
L 175.258334 70.875393 
L 175.258334 70.875393 
L 174.15638 70.875393 
L 174.15638 70.875393 
L 173.0722 70.875393 
L 173.0722 70.875393 
L 171.98802 70.875393 
L 171.98802 70.875393 
L 170.903839 70.875393 
L 170.903839 70.875393 
L 169.819659 70.875393 
L 169.819659 70.875393 
L 168.771025 70.875393 
L 168.771025 70.875393 
L 167.722392 70.875393 
L 167.722392 70.875393 
L 166.620438 70.875393 
L 166.620438 70.875393 
L 166.069461 70.875393 
z
" clip-path="url(#pe6c4b640d1)" style="fill: #d62728; fill-opacity: 0.6; stroke: #b22222; stroke-opacity: 0.8; stroke-width: 1.5"/>
    <path d="M 220.207386 70.875393 
L 220.207386 73.715717 
L 220.705042 73.715717 
L 220.705042 78.588361 
L 221.753676 78.588361 
L 221.753676 81.451057 
L 222.837856 81.451057 
L 222.837856 82.710318 
L 223.922037 82.710318 
L 223.922037 81.011668 
L 225.006217 81.011668 
L 225.006217 79.828998 
L 226.090397 79.828998 
L 226.090397 81.368443 
L 227.192351 81.368443 
L 227.192351 78.911889 
L 228.276532 78.911889 
L 228.276532 74.762151 
L 229.360712 74.762151 
L 229.360712 72.894138 
L 230.444892 72.894138 
L 230.444892 73.172936 
L 231.529073 73.172936 
L 231.529073 75.265995 
L 232.631027 75.265995 
L 232.631027 79.603861 
L 233.67966 79.603861 
L 233.67966 80.065283 
L 234.728294 80.065283 
L 234.728294 81.803525 
L 235.812474 81.803525 
L 235.812474 77.494516 
L 236.896654 77.494516 
L 236.896654 77.645314 
L 237.980835 77.645314 
L 237.980835 77.952403 
L 239.065015 77.952403 
L 239.065015 78.16092 
L 240.166969 78.16092 
L 240.166969 77.837781 
L 241.251149 77.837781 
L 241.251149 78.87008 
L 242.33533 78.87008 
L 242.33533 80.056362 
L 243.41951 80.056362 
L 243.41951 74.771426 
L 244.50369 74.771426 
L 244.50369 73.580916 
L 245.605644 73.580916 
L 245.605644 73.233151 
L 246.156621 73.233151 
L 246.156621 70.875393 
L 246.156621 70.875393 
L 245.605644 70.875393 
L 245.605644 70.875393 
L 244.50369 70.875393 
L 244.50369 70.875393 
L 243.41951 70.875393 
L 243.41951 70.875393 
L 242.33533 70.875393 
L 242.33533 70.875393 
L 241.251149 70.875393 
L 241.251149 70.875393 
L 240.166969 70.875393 
L 240.166969 70.875393 
L 239.065015 70.875393 
L 239.065015 70.875393 
L 237.980835 70.875393 
L 237.980835 70.875393 
L 236.896654 70.875393 
L 236.896654 70.875393 
L 235.812474 70.875393 
L 235.812474 70.875393 
L 234.728294 70.875393 
L 234.728294 70.875393 
L 233.67966 70.875393 
L 233.67966 70.875393 
L 232.631027 70.875393 
L 232.631027 70.875393 
L 231.529073 70.875393 
L 231.529073 70.875393 
L 230.444892 70.875393 
L 230.444892 70.875393 
L 229.360712 70.875393 
L 229.360712 70.875393 
L 228.276532 70.875393 
L 228.276532 70.875393 
L 227.192351 70.875393 
L 227.192351 70.875393 
L 226.090397 70.875393 
L 226.090397 70.875393 
L 225.006217 70.875393 
L 225.006217 70.875393 
L 223.922037 70.875393 
L 223.922037 70.875393 
L 222.837856 70.875393 
L 222.837856 70.875393 
L 221.753676 70.875393 
L 221.753676 70.875393 
L 220.705042 70.875393 
L 220.705042 70.875393 
L 220.207386 70.875393 
z
" clip-path="url(#pe6c4b640d1)" style="fill: #d62728; fill-opacity: 0.6; stroke: #b22222; stroke-opacity: 0.8; stroke-width: 1.5"/>
    <path d="M 248.253888 70.875393 
L 248.253888 77.763385 
L 248.787091 77.763385 
L 248.787091 77.799369 
L 249.871272 77.799369 
L 249.871272 77.537183 
L 250.955452 77.537183 
L 250.955452 82.175571 
L 252.039633 82.175571 
L 252.039633 88.554043 
L 253.141586 88.554043 
L 253.141586 88.177749 
L 254.225767 88.177749 
L 254.225767 82.845987 
L 255.309947 82.845987 
L 255.309947 79.234219 
L 256.394128 79.234219 
L 256.394128 75.767878 
L 256.927331 75.767878 
L 256.927331 70.875393 
L 256.927331 70.875393 
L 256.394128 70.875393 
L 256.394128 70.875393 
L 255.309947 70.875393 
L 255.309947 70.875393 
L 254.225767 70.875393 
L 254.225767 70.875393 
L 253.141586 70.875393 
L 253.141586 70.875393 
L 252.039633 70.875393 
L 252.039633 70.875393 
L 250.955452 70.875393 
L 250.955452 70.875393 
L 249.871272 70.875393 
L 249.871272 70.875393 
L 248.787091 70.875393 
L 248.787091 70.875393 
L 248.253888 70.875393 
z
" clip-path="url(#pe6c4b640d1)" style="fill: #d62728; fill-opacity: 0.6; stroke: #b22222; stroke-opacity: 0.8; stroke-width: 1.5"/>
    <path d="M 286.111334 70.875393 
L 286.111334 72.731198 
L 286.662311 72.731198 
L 286.662311 75.894265 
L 287.746491 75.894265 
L 287.746491 76.914667 
L 288.830671 76.914667 
L 288.830671 76.03352 
L 289.914852 76.03352 
L 289.914852 73.434868 
L 290.999032 73.434868 
L 290.999032 76.472733 
L 292.100986 76.472733 
L 292.100986 77.465307 
L 293.185166 77.465307 
L 293.185166 77.193656 
L 294.269347 77.193656 
L 294.269347 80.807499 
L 295.353527 80.807499 
L 295.353527 81.880222 
L 296.437707 81.880222 
L 296.437707 83.542122 
L 297.539661 83.542122 
L 297.539661 80.611331 
L 298.588295 80.611331 
L 298.588295 80.092181 
L 299.636928 80.092181 
L 299.636928 76.962577 
L 300.721109 76.962577 
L 300.721109 75.314658 
L 301.805289 75.314658 
L 301.805289 72.330688 
L 302.889469 72.330688 
L 302.889469 71.645317 
L 303.97365 71.645317 
L 303.97365 72.184842 
L 305.075604 72.184842 
L 305.075604 71.972437 
L 306.159784 71.972437 
L 306.159784 75.306961 
L 307.243964 75.306961 
L 307.243964 75.93634 
L 308.328145 75.93634 
L 308.328145 83.715116 
L 309.412325 83.715116 
L 309.412325 82.460092 
L 310.514279 82.460092 
L 310.514279 83.5149 
L 311.580686 83.5149 
L 311.580686 79.832039 
L 312.647093 79.832039 
L 312.647093 79.657575 
L 313.731273 79.657575 
L 313.731273 81.424483 
L 314.815453 81.424483 
L 314.815453 81.249035 
L 315.899634 81.249035 
L 315.899634 85.221646 
L 316.983814 85.221646 
L 316.983814 84.044551 
L 318.085768 84.044551 
L 318.085768 86.311282 
L 319.169948 86.311282 
L 319.169948 83.860186 
L 320.254129 83.860186 
L 320.254129 76.098943 
L 321.338309 76.098943 
L 321.338309 72.952578 
L 321.871513 72.952578 
L 321.871513 70.875393 
L 321.871513 70.875393 
L 321.338309 70.875393 
L 321.338309 70.875393 
L 320.254129 70.875393 
L 320.254129 70.875393 
L 319.169948 70.875393 
L 319.169948 70.875393 
L 318.085768 70.875393 
L 318.085768 70.875393 
L 316.983814 70.875393 
L 316.983814 70.875393 
L 315.899634 70.875393 
L 315.899634 70.875393 
L 314.815453 70.875393 
L 314.815453 70.875393 
L 313.731273 70.875393 
L 313.731273 70.875393 
L 312.647093 70.875393 
L 312.647093 70.875393 
L 311.580686 70.875393 
L 311.580686 70.875393 
L 310.514279 70.875393 
L 310.514279 70.875393 
L 309.412325 70.875393 
L 309.412325 70.875393 
L 308.328145 70.875393 
L 308.328145 70.875393 
L 307.243964 70.875393 
L 307.243964 70.875393 
L 306.159784 70.875393 
L 306.159784 70.875393 
L 305.075604 70.875393 
L 305.075604 70.875393 
L 303.97365 70.875393 
L 303.97365 70.875393 
L 302.889469 70.875393 
L 302.889469 70.875393 
L 301.805289 70.875393 
L 301.805289 70.875393 
L 300.721109 70.875393 
L 300.721109 70.875393 
L 299.636928 70.875393 
L 299.636928 70.875393 
L 298.588295 70.875393 
L 298.588295 70.875393 
L 297.539661 70.875393 
L 297.539661 70.875393 
L 296.437707 70.875393 
L 296.437707 70.875393 
L 295.353527 70.875393 
L 295.353527 70.875393 
L 294.269347 70.875393 
L 294.269347 70.875393 
L 293.185166 70.875393 
L 293.185166 70.875393 
L 292.100986 70.875393 
L 292.100986 70.875393 
L 290.999032 70.875393 
L 290.999032 70.875393 
L 289.914852 70.875393 
L 289.914852 70.875393 
L 288.830671 70.875393 
L 288.830671 70.875393 
L 287.746491 70.875393 
L 287.746491 70.875393 
L 286.662311 70.875393 
L 286.662311 70.875393 
L 286.111334 70.875393 
z
" clip-path="url(#pe6c4b640d1)" style="fill: #d62728; fill-opacity: 0.6; stroke: #b22222; stroke-opacity: 0.8; stroke-width: 1.5"/>
    <path d="M 330.509409 70.875393 
L 330.509409 72.086262 
L 331.060386 72.086262 
L 331.060386 72.732808 
L 331.611362 72.732808 
L 331.611362 70.875393 
L 331.611362 70.875393 
L 331.060386 70.875393 
L 331.060386 70.875393 
L 330.509409 70.875393 
z
" clip-path="url(#pe6c4b640d1)" style="fill: #d62728; fill-opacity: 0.6; stroke: #b22222; stroke-opacity: 0.8; stroke-width: 1.5"/>
    <path d="M 333.779723 70.875393 
L 333.779723 74.804491 
L 334.312927 74.804491 
L 334.312927 81.658508 
L 335.397107 81.658508 
L 335.397107 80.693434 
L 336.499061 80.693434 
L 336.499061 81.94992 
L 337.547694 81.94992 
L 337.547694 77.320649 
L 338.596328 77.320649 
L 338.596328 73.012339 
L 339.680508 73.012339 
L 339.680508 75.667113 
L 340.764689 75.667113 
L 340.764689 77.673694 
L 341.848869 77.673694 
L 341.848869 77.213525 
L 342.933049 77.213525 
L 342.933049 76.490633 
L 344.035003 76.490633 
L 344.035003 76.686064 
L 345.119183 76.686064 
L 345.119183 76.89677 
L 346.203364 76.89677 
L 346.203364 74.529172 
L 346.754341 74.529172 
L 346.754341 70.875393 
L 346.754341 70.875393 
L 346.203364 70.875393 
L 346.203364 70.875393 
L 345.119183 70.875393 
L 345.119183 70.875393 
L 344.035003 70.875393 
L 344.035003 70.875393 
L 342.933049 70.875393 
L 342.933049 70.875393 
L 341.848869 70.875393 
L 341.848869 70.875393 
L 340.764689 70.875393 
L 340.764689 70.875393 
L 339.680508 70.875393 
L 339.680508 70.875393 
L 338.596328 70.875393 
L 338.596328 70.875393 
L 337.547694 70.875393 
L 337.547694 70.875393 
L 336.499061 70.875393 
L 336.499061 70.875393 
L 335.397107 70.875393 
L 335.397107 70.875393 
L 334.312927 70.875393 
L 334.312927 70.875393 
L 333.779723 70.875393 
z
" clip-path="url(#pe6c4b640d1)" style="fill: #d62728; fill-opacity: 0.6; stroke: #b22222; stroke-opacity: 0.8; stroke-width: 1.5"/>
    <path d="M 348.922702 70.875393 
L 348.922702 72.561993 
L 349.473678 72.561993 
L 349.473678 74.83141 
L 350.522312 74.83141 
L 350.522312 75.881264 
L 351.570945 75.881264 
L 351.570945 79.089239 
L 352.655126 79.089239 
L 352.655126 80.432782 
L 353.739306 80.432782 
L 353.739306 81.922619 
L 354.823486 81.922619 
L 354.823486 83.585797 
L 355.907667 83.585797 
L 355.907667 79.430157 
L 357.009621 79.430157 
L 357.009621 83.783393 
L 358.093801 83.783393 
L 358.093801 82.559557 
L 359.177981 82.559557 
L 359.177981 87.219342 
L 360.262162 87.219342 
L 360.262162 87.156867 
L 361.346342 87.156867 
L 361.346342 79.251811 
L 362.448296 79.251811 
L 362.448296 79.752637 
L 363.514703 79.752637 
L 363.514703 78.767795 
L 364.58111 78.767795 
L 364.58111 76.079523 
L 365.66529 76.079523 
L 365.66529 76.932132 
L 366.749471 76.932132 
L 366.749471 75.496984 
L 367.833651 75.496984 
L 367.833651 78.512823 
L 368.917831 78.512823 
L 368.917831 80.275523 
L 370.019785 80.275523 
L 370.019785 78.07526 
L 371.103966 78.07526 
L 371.103966 73.23027 
L 372.188146 73.23027 
L 372.188146 72.123797 
L 373.272326 72.123797 
L 373.272326 76.846333 
L 374.356507 76.846333 
L 374.356507 81.81876 
L 375.45846 81.81876 
L 375.45846 90.575432 
L 376.507094 90.575432 
L 376.507094 87.993137 
L 377.555727 87.993137 
L 377.555727 78.744481 
L 378.639908 78.744481 
L 378.639908 76.837036 
L 379.724088 76.837036 
L 379.724088 77.157835 
L 380.808268 77.157835 
L 380.808268 77.353943 
L 381.892449 77.353943 
L 381.892449 77.845957 
L 382.994403 77.845957 
L 382.994403 80.559501 
L 384.078583 80.559501 
L 384.078583 85.333408 
L 385.162763 85.333408 
L 385.162763 86.059135 
L 386.246944 86.059135 
L 386.246944 83.7344 
L 387.331124 83.7344 
L 387.331124 78.979159 
L 388.433078 78.979159 
L 388.433078 75.586318 
L 388.984055 75.586318 
L 388.984055 70.875393 
L 388.984055 70.875393 
L 388.433078 70.875393 
L 388.433078 70.875393 
L 387.331124 70.875393 
L 387.331124 70.875393 
L 386.246944 70.875393 
L 386.246944 70.875393 
L 385.162763 70.875393 
L 385.162763 70.875393 
L 384.078583 70.875393 
L 384.078583 70.875393 
L 382.994403 70.875393 
L 382.994403 70.875393 
L 381.892449 70.875393 
L 381.892449 70.875393 
L 380.808268 70.875393 
L 380.808268 70.875393 
L 379.724088 70.875393 
L 379.724088 70.875393 
L 378.639908 70.875393 
L 378.639908 70.875393 
L 377.555727 70.875393 
L 377.555727 70.875393 
L 376.507094 70.875393 
L 376.507094 70.875393 
L 375.45846 70.875393 
L 375.45846 70.875393 
L 374.356507 70.875393 
L 374.356507 70.875393 
L 373.272326 70.875393 
L 373.272326 70.875393 
L 372.188146 70.875393 
L 372.188146 70.875393 
L 371.103966 70.875393 
L 371.103966 70.875393 
L 370.019785 70.875393 
L 370.019785 70.875393 
L 368.917831 70.875393 
L 368.917831 70.875393 
L 367.833651 70.875393 
L 367.833651 70.875393 
L 366.749471 70.875393 
L 366.749471 70.875393 
L 365.66529 70.875393 
L 365.66529 70.875393 
L 364.58111 70.875393 
L 364.58111 70.875393 
L 363.514703 70.875393 
L 363.514703 70.875393 
L 362.448296 70.875393 
L 362.448296 70.875393 
L 361.346342 70.875393 
L 361.346342 70.875393 
L 360.262162 70.875393 
L 360.262162 70.875393 
L 359.177981 70.875393 
L 359.177981 70.875393 
L 358.093801 70.875393 
L 358.093801 70.875393 
L 357.009621 70.875393 
L 357.009621 70.875393 
L 355.907667 70.875393 
L 355.907667 70.875393 
L 354.823486 70.875393 
L 354.823486 70.875393 
L 353.739306 70.875393 
L 353.739306 70.875393 
L 352.655126 70.875393 
L 352.655126 70.875393 
L 351.570945 70.875393 
L 351.570945 70.875393 
L 350.522312 70.875393 
L 350.522312 70.875393 
L 349.473678 70.875393 
L 349.473678 70.875393 
L 348.922702 70.875393 
z
" clip-path="url(#pe6c4b640d1)" style="fill: #d62728; fill-opacity: 0.6; stroke: #b22222; stroke-opacity: 0.8; stroke-width: 1.5"/>
    <path d="M 426.841501 70.875393 
L 426.841501 72.234147 
L 426.841501 72.234147 
L 426.841501 70.875393 
L 426.841501 70.875393 
L 426.841501 70.875393 
z
" clip-path="url(#pe6c4b640d1)" style="fill: #d62728; fill-opacity: 0.6; stroke: #b22222; stroke-opacity: 0.8; stroke-width: 1.5"/>
   </g>
   <g id="matplotlib.axis_1">
    <g id="xtick_1">
     <g id="line2d_1">
      <defs>
       <path id="me0ece8e90a" d="M 0 0 
L 0 3.5 
" style="stroke: #000000; stroke-width: 0.8"/>
      </defs>
      <g>
       <use xlink:href="#me0ece8e90a" x="50.328763" y="121.071395" style="stroke: #000000; stroke-width: 0.8"/>
      </g>
     </g>
    </g>
    <g id="xtick_2">
     <g id="line2d_2">
      <g>
       <use xlink:href="#me0ece8e90a" x="102.26278" y="121.071395" style="stroke: #000000; stroke-width: 0.8"/>
      </g>
     </g>
    </g>
    <g id="xtick_3">
     <g id="line2d_3">
      <g>
       <use xlink:href="#me0ece8e90a" x="154.196797" y="121.071395" style="stroke: #000000; stroke-width: 0.8"/>
      </g>
     </g>
    </g>
    <g id="xtick_4">
     <g id="line2d_4">
      <g>
       <use xlink:href="#me0ece8e90a" x="206.130815" y="121.071395" style="stroke: #000000; stroke-width: 0.8"/>
      </g>
     </g>
    </g>
    <g id="xtick_5">
     <g id="line2d_5">
      <g>
       <use xlink:href="#me0ece8e90a" x="258.064832" y="121.071395" style="stroke: #000000; stroke-width: 0.8"/>
      </g>
     </g>
    </g>
    <g id="xtick_6">
     <g id="line2d_6">
      <g>
       <use xlink:href="#me0ece8e90a" x="309.998849" y="121.071395" style="stroke: #000000; stroke-width: 0.8"/>
      </g>
     </g>
    </g>
    <g id="xtick_7">
     <g id="line2d_7">
      <g>
       <use xlink:href="#me0ece8e90a" x="361.932866" y="121.071395" style="stroke: #000000; stroke-width: 0.8"/>
      </g>
     </g>
    </g>
    <g id="xtick_8">
     <g id="line2d_8">
      <g>
       <use xlink:href="#me0ece8e90a" x="413.866883" y="121.071395" style="stroke: #000000; stroke-width: 0.8"/>
      </g>
     </g>
    </g>
   </g>
   <g id="matplotlib.axis_2">
    <g id="ytick_1">
     <g id="line2d_9">
      <defs>
       <path id="m161eebf769" d="M 0 0 
L -3.5 0 
" style="stroke: #000000; stroke-width: 0.8"/>
      </defs>
      <g>
       <use xlink:href="#m161eebf769" x="38.420552" y="104.339394" style="stroke: #000000; stroke-width: 0.8"/>
      </g>
     </g>
     <g id="text_1">
      <!-- −2 -->
      <g transform="translate(16.678365 108.138613) scale(0.1 -0.1)">
       <defs>
        <path id="DejaVuSans-2212" d="M 678 2272 
L 4684 2272 
L 4684 1741 
L 678 1741 
L 678 2272 
z
" transform="scale(0.015625)"/>
        <path id="DejaVuSans-32" d="M 1228 531 
L 3431 531 
L 3431 0 
L 469 0 
L 469 531 
Q 828 903 1448 1529 
Q 2069 2156 2228 2338 
Q 2531 2678 2651 2914 
Q 2772 3150 2772 3378 
Q 2772 3750 2511 3984 
Q 2250 4219 1831 4219 
Q 1534 4219 1204 4116 
Q 875 4013 500 3803 
L 500 4441 
Q 881 4594 1212 4672 
Q 1544 4750 1819 4750 
Q 2544 4750 2975 4387 
Q 3406 4025 3406 3419 
Q 3406 3131 3298 2873 
Q 3191 2616 2906 2266 
Q 2828 2175 2409 1742 
Q 1991 1309 1228 531 
z
" transform="scale(0.015625)"/>
       </defs>
       <use xlink:href="#DejaVuSans-2212"/>
       <use xlink:href="#DejaVuSans-32" x="83.789062"/>
      </g>
     </g>
    </g>
    <g id="ytick_2">
     <g id="line2d_10">
      <g>
       <use xlink:href="#m161eebf769" x="38.420552" y="70.875393" style="stroke: #000000; stroke-width: 0.8"/>
      </g>
     </g>
     <g id="text_2">
      <!-- 0 -->
      <g transform="translate(25.058052 74.674612) scale(0.1 -0.1)">
       <defs>
        <path id="DejaVuSans-30" d="M 2034 4250 
Q 1547 4250 1301 3770 
Q 1056 3291 1056 2328 
Q 1056 1369 1301 889 
Q 1547 409 2034 409 
Q 2525 409 2770 889 
Q 3016 1369 3016 2328 
Q 3016 3291 2770 3770 
Q 2525 4250 2034 4250 
z
M 2034 4750 
Q 2819 4750 3233 4129 
Q 3647 3509 3647 2328 
Q 3647 1150 3233 529 
Q 2819 -91 2034 -91 
Q 1250 -91 836 529 
Q 422 1150 422 2328 
Q 422 3509 836 4129 
Q 1250 4750 2034 4750 
z
" transform="scale(0.015625)"/>
       </defs>
       <use xlink:href="#DejaVuSans-30"/>
      </g>
     </g>
    </g>
    <g id="ytick_3">
     <g id="line2d_11">
      <g>
       <use xlink:href="#m161eebf769" x="38.420552" y="37.411392" style="stroke: #000000; stroke-width: 0.8"/>
      </g>
     </g>
     <g id="text_3">
      <!-- 2 -->
      <g transform="translate(25.058052 41.210611) scale(0.1 -0.1)">
       <use xlink:href="#DejaVuSans-32"/>
      </g>
     </g>
    </g>
    <g id="text_4">
     <!-- SPI-34 -->
     <g transform="translate(10.598677 85.425349) rotate(-90) scale(0.1 -0.1)">
      <defs>
       <path id="DejaVuSans-53" d="M 3425 4513 
L 3425 3897 
Q 3066 4069 2747 4153 
Q 2428 4238 2131 4238 
Q 1616 4238 1336 4038 
Q 1056 3838 1056 3469 
Q 1056 3159 1242 3001 
Q 1428 2844 1947 2747 
L 2328 2669 
Q 3034 2534 3370 2195 
Q 3706 1856 3706 1288 
Q 3706 609 3251 259 
Q 2797 -91 1919 -91 
Q 1588 -91 1214 -16 
Q 841 59 441 206 
L 441 856 
Q 825 641 1194 531 
Q 1563 422 1919 422 
Q 2459 422 2753 634 
Q 3047 847 3047 1241 
Q 3047 1584 2836 1778 
Q 2625 1972 2144 2069 
L 1759 2144 
Q 1053 2284 737 2584 
Q 422 2884 422 3419 
Q 422 4038 858 4394 
Q 1294 4750 2059 4750 
Q 2388 4750 2728 4690 
Q 3069 4631 3425 4513 
z
" transform="scale(0.015625)"/>
       <path id="DejaVuSans-50" d="M 1259 4147 
L 1259 2394 
L 2053 2394 
Q 2494 2394 2734 2622 
Q 2975 2850 2975 3272 
Q 2975 3691 2734 3919 
Q 2494 4147 2053 4147 
L 1259 4147 
z
M 628 4666 
L 2053 4666 
Q 2838 4666 3239 4311 
Q 3641 3956 3641 3272 
Q 3641 2581 3239 2228 
Q 2838 1875 2053 1875 
L 1259 1875 
L 1259 0 
L 628 0 
L 628 4666 
z
" transform="scale(0.015625)"/>
       <path id="DejaVuSans-49" d="M 628 4666 
L 1259 4666 
L 1259 0 
L 628 0 
L 628 4666 
z
" transform="scale(0.015625)"/>
       <path id="DejaVuSans-2d" d="M 313 2009 
L 1997 2009 
L 1997 1497 
L 313 1497 
L 313 2009 
z
" transform="scale(0.015625)"/>
       <path id="DejaVuSans-33" d="M 2597 2516 
Q 3050 2419 3304 2112 
Q 3559 1806 3559 1356 
Q 3559 666 3084 287 
Q 2609 -91 1734 -91 
Q 1441 -91 1130 -33 
Q 819 25 488 141 
L 488 750 
Q 750 597 1062 519 
Q 1375 441 1716 441 
Q 2309 441 2620 675 
Q 2931 909 2931 1356 
Q 2931 1769 2642 2001 
Q 2353 2234 1838 2234 
L 1294 2234 
L 1294 2753 
L 1863 2753 
Q 2328 2753 2575 2939 
Q 2822 3125 2822 3475 
Q 2822 3834 2567 4026 
Q 2313 4219 1838 4219 
Q 1578 4219 1281 4162 
Q 984 4106 628 3988 
L 628 4550 
Q 988 4650 1302 4700 
Q 1616 4750 1894 4750 
Q 2613 4750 3031 4423 
Q 3450 4097 3450 3541 
Q 3450 3153 3228 2886 
Q 3006 2619 2597 2516 
z
" transform="scale(0.015625)"/>
       <path id="DejaVuSans-34" d="M 2419 4116 
L 825 1625 
L 2419 1625 
L 2419 4116 
z
M 2253 4666 
L 3047 4666 
L 3047 1625 
L 3713 1625 
L 3713 1100 
L 3047 1100 
L 3047 0 
L 2419 0 
L 2419 1100 
L 313 1100 
L 313 1709 
L 2253 4666 
z
" transform="scale(0.015625)"/>
      </defs>
      <use xlink:href="#DejaVuSans-53"/>
      <use xlink:href="#DejaVuSans-50" x="63.476562"/>
      <use xlink:href="#DejaVuSans-49" x="123.779297"/>
      <use xlink:href="#DejaVuSans-2d" x="153.271484"/>
      <use xlink:href="#DejaVuSans-33" x="189.355469"/>
      <use xlink:href="#DejaVuSans-34" x="252.978516"/>
     </g>
    </g>
   </g>
   <g id="line2d_12">
    <path d="M 38.420552 70.875393 
L 426.841501 70.875393 
" clip-path="url(#pe6c4b640d1)" style="fill: none; stroke: #000000; stroke-width: 1.5; stroke-linecap: square"/>
   </g>
   <g id="patch_3">
    <path d="M 38.420552 121.071395 
L 38.420552 18.118365 
" style="fill: none; stroke: #000000; stroke-width: 0.8; stroke-linejoin: miter; stroke-linecap: square"/>
   </g>
   <g id="patch_4">
    <path d="M 38.420552 121.071395 
L 426.841501 121.071395 
" style="fill: none; stroke: #000000; stroke-width: 0.8; stroke-linejoin: miter; stroke-linecap: square"/>
   </g>
   <g id="text_5">
    <!-- (a) -->
    <g transform="translate(38.420552 12.118365) scale(0.12 -0.12)">
     <defs>
      <path id="DejaVuSans-Bold-28" d="M 2413 -844 
L 1484 -844 
Q 1006 -72 778 623 
Q 550 1319 550 2003 
Q 550 2688 779 3389 
Q 1009 4091 1484 4856 
L 2413 4856 
Q 2013 4116 1813 3408 
Q 1613 2700 1613 2009 
Q 1613 1319 1811 609 
Q 2009 -100 2413 -844 
z
" transform="scale(0.015625)"/>
      <path id="DejaVuSans-Bold-61" d="M 2106 1575 
Q 1756 1575 1579 1456 
Q 1403 1338 1403 1106 
Q 1403 894 1545 773 
Q 1688 653 1941 653 
Q 2256 653 2472 879 
Q 2688 1106 2688 1447 
L 2688 1575 
L 2106 1575 
z
M 3816 1997 
L 3816 0 
L 2688 0 
L 2688 519 
Q 2463 200 2181 54 
Q 1900 -91 1497 -91 
Q 953 -91 614 226 
Q 275 544 275 1050 
Q 275 1666 698 1953 
Q 1122 2241 2028 2241 
L 2688 2241 
L 2688 2328 
Q 2688 2594 2478 2717 
Q 2269 2841 1825 2841 
Q 1466 2841 1156 2769 
Q 847 2697 581 2553 
L 581 3406 
Q 941 3494 1303 3539 
Q 1666 3584 2028 3584 
Q 2975 3584 3395 3211 
Q 3816 2838 3816 1997 
z
" transform="scale(0.015625)"/>
      <path id="DejaVuSans-Bold-29" d="M 513 -844 
Q 913 -100 1113 609 
Q 1313 1319 1313 2009 
Q 1313 2700 1113 3408 
Q 913 4116 513 4856 
L 1441 4856 
Q 1916 4091 2145 3389 
Q 2375 2688 2375 2003 
Q 2375 1319 2147 623 
Q 1919 -72 1441 -844 
L 513 -844 
z
" transform="scale(0.015625)"/>
     </defs>
     <use xlink:href="#DejaVuSans-Bold-28"/>
     <use xlink:href="#DejaVuSans-Bold-61" x="45.703125"/>
     <use xlink:href="#DejaVuSans-Bold-29" x="113.183594"/>
    </g>
   </g>
  </g>
  <g id="axes_2">
   <g id="patch_5">
    <path d="M 456.944626 254.64351 
L 715.891924 254.64351 
L 715.891924 18.118365 
L 456.944626 18.118365 
z
" style="fill: #ffffff"/>
   </g>
   <g id="matplotlib.axis_3">
    <g id="xtick_9">
     <g id="line2d_13">
      <g>
       <use xlink:href="#me0ece8e90a" x="462.229264" y="254.64351" style="stroke: #000000; stroke-width: 0.8"/>
      </g>
     </g>
     <g id="text_6">
      <!-- 1 -->
      <g transform="translate(459.048014 269.241947) scale(0.1 -0.1)">
       <defs>
        <path id="DejaVuSans-31" d="M 794 531 
L 1825 531 
L 1825 4091 
L 703 3866 
L 703 4441 
L 1819 4666 
L 2450 4666 
L 2450 531 
L 3481 531 
L 3481 0 
L 794 0 
L 794 531 
z
" transform="scale(0.015625)"/>
       </defs>
       <use xlink:href="#DejaVuSans-31"/>
      </g>
     </g>
    </g>
    <g id="xtick_10">
     <g id="line2d_14">
      <g>
       <use xlink:href="#me0ece8e90a" x="472.798542" y="254.64351" style="stroke: #000000; stroke-width: 0.8"/>
      </g>
     </g>
     <g id="text_7">
      <!-- 3 -->
      <g transform="translate(469.617292 269.241947) scale(0.1 -0.1)">
       <use xlink:href="#DejaVuSans-33"/>
      </g>
     </g>
    </g>
    <g id="xtick_11">
     <g id="line2d_15">
      <g>
       <use xlink:href="#me0ece8e90a" x="488.652458" y="254.64351" style="stroke: #000000; stroke-width: 0.8"/>
      </g>
     </g>
     <g id="text_8">
      <!-- 6 -->
      <g transform="translate(485.471208 269.241947) scale(0.1 -0.1)">
       <defs>
        <path id="DejaVuSans-36" d="M 2113 2584 
Q 1688 2584 1439 2293 
Q 1191 2003 1191 1497 
Q 1191 994 1439 701 
Q 1688 409 2113 409 
Q 2538 409 2786 701 
Q 3034 994 3034 1497 
Q 3034 2003 2786 2293 
Q 2538 2584 2113 2584 
z
M 3366 4563 
L 3366 3988 
Q 3128 4100 2886 4159 
Q 2644 4219 2406 4219 
Q 1781 4219 1451 3797 
Q 1122 3375 1075 2522 
Q 1259 2794 1537 2939 
Q 1816 3084 2150 3084 
Q 2853 3084 3261 2657 
Q 3669 2231 3669 1497 
Q 3669 778 3244 343 
Q 2819 -91 2113 -91 
Q 1303 -91 875 529 
Q 447 1150 447 2328 
Q 447 3434 972 4092 
Q 1497 4750 2381 4750 
Q 2619 4750 2861 4703 
Q 3103 4656 3366 4563 
z
" transform="scale(0.015625)"/>
       </defs>
       <use xlink:href="#DejaVuSans-36"/>
      </g>
     </g>
    </g>
    <g id="xtick_12">
     <g id="line2d_16">
      <g>
       <use xlink:href="#me0ece8e90a" x="520.360291" y="254.64351" style="stroke: #000000; stroke-width: 0.8"/>
      </g>
     </g>
     <g id="text_9">
      <!-- 12 -->
      <g transform="translate(513.997791 269.241947) scale(0.1 -0.1)">
       <use xlink:href="#DejaVuSans-31"/>
       <use xlink:href="#DejaVuSans-32" x="63.623047"/>
      </g>
     </g>
    </g>
    <g id="xtick_13">
     <g id="line2d_17">
      <g>
       <use xlink:href="#me0ece8e90a" x="583.775956" y="254.64351" style="stroke: #000000; stroke-width: 0.8"/>
      </g>
     </g>
     <g id="text_10">
      <!-- 24 -->
      <g transform="translate(577.413456 269.241947) scale(0.1 -0.1)">
       <use xlink:href="#DejaVuSans-32"/>
       <use xlink:href="#DejaVuSans-34" x="63.623047"/>
      </g>
     </g>
    </g>
    <g id="xtick_14">
     <g id="line2d_18">
      <g>
       <use xlink:href="#me0ece8e90a" x="710.607286" y="254.64351" style="stroke: #000000; stroke-width: 0.8"/>
      </g>
     </g>
     <g id="text_11">
      <!-- 48 -->
      <g transform="translate(704.244786 269.241947) scale(0.1 -0.1)">
       <defs>
        <path id="DejaVuSans-38" d="M 2034 2216 
Q 1584 2216 1326 1975 
Q 1069 1734 1069 1313 
Q 1069 891 1326 650 
Q 1584 409 2034 409 
Q 2484 409 2743 651 
Q 3003 894 3003 1313 
Q 3003 1734 2745 1975 
Q 2488 2216 2034 2216 
z
M 1403 2484 
Q 997 2584 770 2862 
Q 544 3141 544 3541 
Q 544 4100 942 4425 
Q 1341 4750 2034 4750 
Q 2731 4750 3128 4425 
Q 3525 4100 3525 3541 
Q 3525 3141 3298 2862 
Q 3072 2584 2669 2484 
Q 3125 2378 3379 2068 
Q 3634 1759 3634 1313 
Q 3634 634 3220 271 
Q 2806 -91 2034 -91 
Q 1263 -91 848 271 
Q 434 634 434 1313 
Q 434 1759 690 2068 
Q 947 2378 1403 2484 
z
M 1172 3481 
Q 1172 3119 1398 2916 
Q 1625 2713 2034 2713 
Q 2441 2713 2670 2916 
Q 2900 3119 2900 3481 
Q 2900 3844 2670 4047 
Q 2441 4250 2034 4250 
Q 1625 4250 1398 4047 
Q 1172 3844 1172 3481 
z
" transform="scale(0.015625)"/>
       </defs>
       <use xlink:href="#DejaVuSans-34"/>
       <use xlink:href="#DejaVuSans-38" x="63.623047"/>
      </g>
     </g>
    </g>
    <g id="text_12">
     <!-- SPI Accumulation Period -->
     <g transform="translate(525.918275 282.920073) scale(0.1 -0.1)">
      <defs>
       <path id="DejaVuSans-20" transform="scale(0.015625)"/>
       <path id="DejaVuSans-41" d="M 2188 4044 
L 1331 1722 
L 3047 1722 
L 2188 4044 
z
M 1831 4666 
L 2547 4666 
L 4325 0 
L 3669 0 
L 3244 1197 
L 1141 1197 
L 716 0 
L 50 0 
L 1831 4666 
z
" transform="scale(0.015625)"/>
       <path id="DejaVuSans-63" d="M 3122 3366 
L 3122 2828 
Q 2878 2963 2633 3030 
Q 2388 3097 2138 3097 
Q 1578 3097 1268 2742 
Q 959 2388 959 1747 
Q 959 1106 1268 751 
Q 1578 397 2138 397 
Q 2388 397 2633 464 
Q 2878 531 3122 666 
L 3122 134 
Q 2881 22 2623 -34 
Q 2366 -91 2075 -91 
Q 1284 -91 818 406 
Q 353 903 353 1747 
Q 353 2603 823 3093 
Q 1294 3584 2113 3584 
Q 2378 3584 2631 3529 
Q 2884 3475 3122 3366 
z
" transform="scale(0.015625)"/>
       <path id="DejaVuSans-75" d="M 544 1381 
L 544 3500 
L 1119 3500 
L 1119 1403 
Q 1119 906 1312 657 
Q 1506 409 1894 409 
Q 2359 409 2629 706 
Q 2900 1003 2900 1516 
L 2900 3500 
L 3475 3500 
L 3475 0 
L 2900 0 
L 2900 538 
Q 2691 219 2414 64 
Q 2138 -91 1772 -91 
Q 1169 -91 856 284 
Q 544 659 544 1381 
z
M 1991 3584 
L 1991 3584 
z
" transform="scale(0.015625)"/>
       <path id="DejaVuSans-6d" d="M 3328 2828 
Q 3544 3216 3844 3400 
Q 4144 3584 4550 3584 
Q 5097 3584 5394 3201 
Q 5691 2819 5691 2113 
L 5691 0 
L 5113 0 
L 5113 2094 
Q 5113 2597 4934 2840 
Q 4756 3084 4391 3084 
Q 3944 3084 3684 2787 
Q 3425 2491 3425 1978 
L 3425 0 
L 2847 0 
L 2847 2094 
Q 2847 2600 2669 2842 
Q 2491 3084 2119 3084 
Q 1678 3084 1418 2786 
Q 1159 2488 1159 1978 
L 1159 0 
L 581 0 
L 581 3500 
L 1159 3500 
L 1159 2956 
Q 1356 3278 1631 3431 
Q 1906 3584 2284 3584 
Q 2666 3584 2933 3390 
Q 3200 3197 3328 2828 
z
" transform="scale(0.015625)"/>
       <path id="DejaVuSans-6c" d="M 603 4863 
L 1178 4863 
L 1178 0 
L 603 0 
L 603 4863 
z
" transform="scale(0.015625)"/>
       <path id="DejaVuSans-61" d="M 2194 1759 
Q 1497 1759 1228 1600 
Q 959 1441 959 1056 
Q 959 750 1161 570 
Q 1363 391 1709 391 
Q 2188 391 2477 730 
Q 2766 1069 2766 1631 
L 2766 1759 
L 2194 1759 
z
M 3341 1997 
L 3341 0 
L 2766 0 
L 2766 531 
Q 2569 213 2275 61 
Q 1981 -91 1556 -91 
Q 1019 -91 701 211 
Q 384 513 384 1019 
Q 384 1609 779 1909 
Q 1175 2209 1959 2209 
L 2766 2209 
L 2766 2266 
Q 2766 2663 2505 2880 
Q 2244 3097 1772 3097 
Q 1472 3097 1187 3025 
Q 903 2953 641 2809 
L 641 3341 
Q 956 3463 1253 3523 
Q 1550 3584 1831 3584 
Q 2591 3584 2966 3190 
Q 3341 2797 3341 1997 
z
" transform="scale(0.015625)"/>
       <path id="DejaVuSans-74" d="M 1172 4494 
L 1172 3500 
L 2356 3500 
L 2356 3053 
L 1172 3053 
L 1172 1153 
Q 1172 725 1289 603 
Q 1406 481 1766 481 
L 2356 481 
L 2356 0 
L 1766 0 
Q 1100 0 847 248 
Q 594 497 594 1153 
L 594 3053 
L 172 3053 
L 172 3500 
L 594 3500 
L 594 4494 
L 1172 4494 
z
" transform="scale(0.015625)"/>
       <path id="DejaVuSans-69" d="M 603 3500 
L 1178 3500 
L 1178 0 
L 603 0 
L 603 3500 
z
M 603 4863 
L 1178 4863 
L 1178 4134 
L 603 4134 
L 603 4863 
z
" transform="scale(0.015625)"/>
       <path id="DejaVuSans-6f" d="M 1959 3097 
Q 1497 3097 1228 2736 
Q 959 2375 959 1747 
Q 959 1119 1226 758 
Q 1494 397 1959 397 
Q 2419 397 2687 759 
Q 2956 1122 2956 1747 
Q 2956 2369 2687 2733 
Q 2419 3097 1959 3097 
z
M 1959 3584 
Q 2709 3584 3137 3096 
Q 3566 2609 3566 1747 
Q 3566 888 3137 398 
Q 2709 -91 1959 -91 
Q 1206 -91 779 398 
Q 353 888 353 1747 
Q 353 2609 779 3096 
Q 1206 3584 1959 3584 
z
" transform="scale(0.015625)"/>
       <path id="DejaVuSans-6e" d="M 3513 2113 
L 3513 0 
L 2938 0 
L 2938 2094 
Q 2938 2591 2744 2837 
Q 2550 3084 2163 3084 
Q 1697 3084 1428 2787 
Q 1159 2491 1159 1978 
L 1159 0 
L 581 0 
L 581 3500 
L 1159 3500 
L 1159 2956 
Q 1366 3272 1645 3428 
Q 1925 3584 2291 3584 
Q 2894 3584 3203 3211 
Q 3513 2838 3513 2113 
z
" transform="scale(0.015625)"/>
       <path id="DejaVuSans-65" d="M 3597 1894 
L 3597 1613 
L 953 1613 
Q 991 1019 1311 708 
Q 1631 397 2203 397 
Q 2534 397 2845 478 
Q 3156 559 3463 722 
L 3463 178 
Q 3153 47 2828 -22 
Q 2503 -91 2169 -91 
Q 1331 -91 842 396 
Q 353 884 353 1716 
Q 353 2575 817 3079 
Q 1281 3584 2069 3584 
Q 2775 3584 3186 3129 
Q 3597 2675 3597 1894 
z
M 3022 2063 
Q 3016 2534 2758 2815 
Q 2500 3097 2075 3097 
Q 1594 3097 1305 2825 
Q 1016 2553 972 2059 
L 3022 2063 
z
" transform="scale(0.015625)"/>
       <path id="DejaVuSans-72" d="M 2631 2963 
Q 2534 3019 2420 3045 
Q 2306 3072 2169 3072 
Q 1681 3072 1420 2755 
Q 1159 2438 1159 1844 
L 1159 0 
L 581 0 
L 581 3500 
L 1159 3500 
L 1159 2956 
Q 1341 3275 1631 3429 
Q 1922 3584 2338 3584 
Q 2397 3584 2469 3576 
Q 2541 3569 2628 3553 
L 2631 2963 
z
" transform="scale(0.015625)"/>
       <path id="DejaVuSans-64" d="M 2906 2969 
L 2906 4863 
L 3481 4863 
L 3481 0 
L 2906 0 
L 2906 525 
Q 2725 213 2448 61 
Q 2172 -91 1784 -91 
Q 1150 -91 751 415 
Q 353 922 353 1747 
Q 353 2572 751 3078 
Q 1150 3584 1784 3584 
Q 2172 3584 2448 3432 
Q 2725 3281 2906 2969 
z
M 947 1747 
Q 947 1113 1208 752 
Q 1469 391 1925 391 
Q 2381 391 2643 752 
Q 2906 1113 2906 1747 
Q 2906 2381 2643 2742 
Q 2381 3103 1925 3103 
Q 1469 3103 1208 2742 
Q 947 2381 947 1747 
z
" transform="scale(0.015625)"/>
      </defs>
      <use xlink:href="#DejaVuSans-53"/>
      <use xlink:href="#DejaVuSans-50" x="63.476562"/>
      <use xlink:href="#DejaVuSans-49" x="123.779297"/>
      <use xlink:href="#DejaVuSans-20" x="153.271484"/>
      <use xlink:href="#DejaVuSans-41" x="185.058594"/>
      <use xlink:href="#DejaVuSans-63" x="251.716797"/>
      <use xlink:href="#DejaVuSans-63" x="306.697266"/>
      <use xlink:href="#DejaVuSans-75" x="361.677734"/>
      <use xlink:href="#DejaVuSans-6d" x="425.056641"/>
      <use xlink:href="#DejaVuSans-75" x="522.46875"/>
      <use xlink:href="#DejaVuSans-6c" x="585.847656"/>
      <use xlink:href="#DejaVuSans-61" x="613.630859"/>
      <use xlink:href="#DejaVuSans-74" x="674.910156"/>
      <use xlink:href="#DejaVuSans-69" x="714.119141"/>
      <use xlink:href="#DejaVuSans-6f" x="741.902344"/>
      <use xlink:href="#DejaVuSans-6e" x="803.083984"/>
      <use xlink:href="#DejaVuSans-20" x="866.462891"/>
      <use xlink:href="#DejaVuSans-50" x="898.25"/>
      <use xlink:href="#DejaVuSans-65" x="954.927734"/>
      <use xlink:href="#DejaVuSans-72" x="1016.451172"/>
      <use xlink:href="#DejaVuSans-69" x="1057.564453"/>
      <use xlink:href="#DejaVuSans-6f" x="1085.347656"/>
      <use xlink:href="#DejaVuSans-64" x="1146.529297"/>
     </g>
    </g>
   </g>
   <g id="matplotlib.axis_4">
    <g id="ytick_4">
     <g id="line2d_19">
      <g>
       <use xlink:href="#m161eebf769" x="456.944626" y="220.249113" style="stroke: #000000; stroke-width: 0.8"/>
      </g>
     </g>
     <g id="text_13">
      <!-- 0.0 -->
      <g transform="translate(434.041501 224.048332) scale(0.1 -0.1)">
       <defs>
        <path id="DejaVuSans-2e" d="M 684 794 
L 1344 794 
L 1344 0 
L 684 0 
L 684 794 
z
" transform="scale(0.015625)"/>
       </defs>
       <use xlink:href="#DejaVuSans-30"/>
       <use xlink:href="#DejaVuSans-2e" x="63.623047"/>
       <use xlink:href="#DejaVuSans-30" x="95.410156"/>
      </g>
     </g>
    </g>
    <g id="ytick_5">
     <g id="line2d_20">
      <g>
       <use xlink:href="#m161eebf769" x="456.944626" y="179.587897" style="stroke: #000000; stroke-width: 0.8"/>
      </g>
     </g>
     <g id="text_14">
      <!-- 0.1 -->
      <g transform="translate(434.041501 183.387116) scale(0.1 -0.1)">
       <use xlink:href="#DejaVuSans-30"/>
       <use xlink:href="#DejaVuSans-2e" x="63.623047"/>
       <use xlink:href="#DejaVuSans-31" x="95.410156"/>
      </g>
     </g>
    </g>
    <g id="ytick_6">
     <g id="line2d_21">
      <g>
       <use xlink:href="#m161eebf769" x="456.944626" y="138.926682" style="stroke: #000000; stroke-width: 0.8"/>
      </g>
     </g>
     <g id="text_15">
      <!-- 0.2 -->
      <g transform="translate(434.041501 142.7259) scale(0.1 -0.1)">
       <use xlink:href="#DejaVuSans-30"/>
       <use xlink:href="#DejaVuSans-2e" x="63.623047"/>
       <use xlink:href="#DejaVuSans-32" x="95.410156"/>
      </g>
     </g>
    </g>
    <g id="ytick_7">
     <g id="line2d_22">
      <g>
       <use xlink:href="#m161eebf769" x="456.944626" y="98.265466" style="stroke: #000000; stroke-width: 0.8"/>
      </g>
     </g>
     <g id="text_16">
      <!-- 0.3 -->
      <g transform="translate(434.041501 102.064684) scale(0.1 -0.1)">
       <use xlink:href="#DejaVuSans-30"/>
       <use xlink:href="#DejaVuSans-2e" x="63.623047"/>
       <use xlink:href="#DejaVuSans-33" x="95.410156"/>
      </g>
     </g>
    </g>
    <g id="ytick_8">
     <g id="line2d_23">
      <g>
       <use xlink:href="#m161eebf769" x="456.944626" y="57.60425" style="stroke: #000000; stroke-width: 0.8"/>
      </g>
     </g>
     <g id="text_17">
      <!-- 0.4 -->
      <g transform="translate(434.041501 61.403469) scale(0.1 -0.1)">
       <use xlink:href="#DejaVuSans-30"/>
       <use xlink:href="#DejaVuSans-2e" x="63.623047"/>
       <use xlink:href="#DejaVuSans-34" x="95.410156"/>
      </g>
     </g>
    </g>
   </g>
   <g id="line2d_24">
    <path d="M 462.229264 218.111371 
L 467.513903 229.747025 
L 472.798542 224.941139 
L 478.083181 243.892367 
L 483.367819 236.945892 
L 488.652458 220.352537 
L 493.937097 231.062121 
L 499.221736 218.196767 
L 504.506374 218.843878 
L 509.791013 218.667393 
L 515.075652 204.737438 
L 520.360291 184.496733 
L 525.644929 176.631779 
L 530.929568 157.532531 
L 536.214207 147.875214 
L 541.498846 139.955227 
L 546.783484 123.814469 
L 552.068123 110.755552 
L 557.352762 103.053799 
L 562.637401 89.101072 
L 567.922039 83.900467 
L 573.206678 70.778926 
L 578.491317 62.327587 
L 583.775956 55.610732 
L 589.060594 48.39953 
L 594.345233 47.974449 
L 599.629872 41.572609 
L 604.914511 35.647089 
L 610.199149 39.568654 
L 615.483788 36.756286 
L 620.768427 32.54817 
L 626.053066 30.321237 
L 631.337704 30.063152 
L 636.622343 28.869508 
L 641.906982 33.457161 
L 647.191621 29.132337 
L 652.476259 28.918848 
L 657.760898 42.499628 
L 663.045537 36.3758 
L 668.330176 40.413124 
L 673.614814 44.994135 
L 678.899453 41.242412 
L 684.184092 43.438033 
L 689.468731 48.255306 
L 694.753369 48.954603 
L 700.038008 44.777799 
L 705.322647 49.540039 
L 710.607286 41.190226 
" clip-path="url(#pf0ba4e65fe)" style="fill: none; stroke: #7f7f7f; stroke-opacity: 0.6; stroke-width: 1.5; stroke-linecap: square"/>
   </g>
   <g id="line2d_25">
    <defs>
     <path id="m9302125fea" d="M 0 3 
C 0.795609 3 1.55874 2.683901 2.12132 2.12132 
C 2.683901 1.55874 3 0.795609 3 0 
C 3 -0.795609 2.683901 -1.55874 2.12132 -2.12132 
C 1.55874 -2.683901 0.795609 -3 0 -3 
C -0.795609 -3 -1.55874 -2.683901 -2.12132 -2.12132 
C -2.683901 -1.55874 -3 -0.795609 -3 0 
C -3 0.795609 -2.683901 1.55874 -2.12132 2.12132 
C -1.55874 2.683901 -0.795609 3 0 3 
z
" style="stroke: #000000"/>
    </defs>
    <g clip-path="url(#pf0ba4e65fe)">
     <use xlink:href="#m9302125fea" x="636.622343" y="28.869508" style="stroke: #000000"/>
    </g>
   </g>
   <g id="line2d_26">
    <path d="M 636.622343 254.64351 
L 636.622343 28.869508 
" clip-path="url(#pf0ba4e65fe)" style="fill: none; stroke-dasharray: 5.55,2.4; stroke-dashoffset: 0; stroke: #000000; stroke-width: 1.5"/>
   </g>
   <g id="patch_6">
    <path d="M 456.944626 254.64351 
L 456.944626 18.118365 
" style="fill: none; stroke: #000000; stroke-width: 0.8; stroke-linejoin: miter; stroke-linecap: square"/>
   </g>
   <g id="patch_7">
    <path d="M 456.944626 254.64351 
L 715.891924 254.64351 
" style="fill: none; stroke: #000000; stroke-width: 0.8; stroke-linejoin: miter; stroke-linecap: square"/>
   </g>
   <g id="text_18">
    <!-- (c) -->
    <g transform="translate(456.944626 12.118365) scale(0.12 -0.12)">
     <defs>
      <path id="DejaVuSans-Bold-63" d="M 3366 3391 
L 3366 2478 
Q 3138 2634 2908 2709 
Q 2678 2784 2431 2784 
Q 1963 2784 1702 2511 
Q 1441 2238 1441 1747 
Q 1441 1256 1702 982 
Q 1963 709 2431 709 
Q 2694 709 2930 787 
Q 3166 866 3366 1019 
L 3366 103 
Q 3103 6 2833 -42 
Q 2563 -91 2291 -91 
Q 1344 -91 809 395 
Q 275 881 275 1747 
Q 275 2613 809 3098 
Q 1344 3584 2291 3584 
Q 2566 3584 2833 3536 
Q 3100 3488 3366 3391 
z
" transform="scale(0.015625)"/>
     </defs>
     <use xlink:href="#DejaVuSans-Bold-28"/>
     <use xlink:href="#DejaVuSans-Bold-63" x="45.703125"/>
     <use xlink:href="#DejaVuSans-Bold-29" x="104.980469"/>
    </g>
   </g>
   <g id="legend_1">
    <g id="patch_8">
     <path d="M 463.944626 40.79649 
L 546.389938 40.79649 
Q 548.389938 40.79649 548.389938 38.79649 
L 548.389938 25.118365 
Q 548.389938 23.118365 546.389938 23.118365 
L 463.944626 23.118365 
Q 461.944626 23.118365 461.944626 25.118365 
L 461.944626 38.79649 
Q 461.944626 40.79649 463.944626 40.79649 
z
" style="fill: #ffffff; opacity: 0.8; stroke: #cccccc; stroke-linejoin: miter"/>
    </g>
    <g id="line2d_27">
     <g>
      <use xlink:href="#m9302125fea" x="475.944626" y="31.216802" style="stroke: #000000"/>
     </g>
    </g>
    <g id="text_19">
     <!-- Max. Corr. -->
     <g transform="translate(493.944626 34.716802) scale(0.1 -0.1)">
      <defs>
       <path id="DejaVuSans-4d" d="M 628 4666 
L 1569 4666 
L 2759 1491 
L 3956 4666 
L 4897 4666 
L 4897 0 
L 4281 0 
L 4281 4097 
L 3078 897 
L 2444 897 
L 1241 4097 
L 1241 0 
L 628 0 
L 628 4666 
z
" transform="scale(0.015625)"/>
       <path id="DejaVuSans-78" d="M 3513 3500 
L 2247 1797 
L 3578 0 
L 2900 0 
L 1881 1375 
L 863 0 
L 184 0 
L 1544 1831 
L 300 3500 
L 978 3500 
L 1906 2253 
L 2834 3500 
L 3513 3500 
z
" transform="scale(0.015625)"/>
       <path id="DejaVuSans-43" d="M 4122 4306 
L 4122 3641 
Q 3803 3938 3442 4084 
Q 3081 4231 2675 4231 
Q 1875 4231 1450 3742 
Q 1025 3253 1025 2328 
Q 1025 1406 1450 917 
Q 1875 428 2675 428 
Q 3081 428 3442 575 
Q 3803 722 4122 1019 
L 4122 359 
Q 3791 134 3420 21 
Q 3050 -91 2638 -91 
Q 1578 -91 968 557 
Q 359 1206 359 2328 
Q 359 3453 968 4101 
Q 1578 4750 2638 4750 
Q 3056 4750 3426 4639 
Q 3797 4528 4122 4306 
z
" transform="scale(0.015625)"/>
      </defs>
      <use xlink:href="#DejaVuSans-4d"/>
      <use xlink:href="#DejaVuSans-61" x="86.279297"/>
      <use xlink:href="#DejaVuSans-78" x="147.558594"/>
      <use xlink:href="#DejaVuSans-2e" x="206.738281"/>
      <use xlink:href="#DejaVuSans-20" x="238.525391"/>
      <use xlink:href="#DejaVuSans-43" x="270.3125"/>
      <use xlink:href="#DejaVuSans-6f" x="340.136719"/>
      <use xlink:href="#DejaVuSans-72" x="401.318359"/>
      <use xlink:href="#DejaVuSans-72" x="440.681641"/>
      <use xlink:href="#DejaVuSans-2e" x="472.669922"/>
     </g>
    </g>
   </g>
  </g>
  <g id="axes_3">
   <g id="patch_9">
    <path d="M 38.420552 254.64351 
L 426.841501 254.64351 
L 426.841501 151.69048 
L 38.420552 151.69048 
z
" style="fill: #ffffff"/>
   </g>
   <g id="PolyCollection_3"/>
   <g id="matplotlib.axis_5">
    <g id="xtick_15">
     <g id="line2d_28">
      <g>
       <use xlink:href="#me0ece8e90a" x="50.328763" y="254.64351" style="stroke: #000000; stroke-width: 0.8"/>
      </g>
     </g>
     <g id="text_20">
      <!-- 1992 -->
      <g transform="translate(37.603763 269.241947) scale(0.1 -0.1)">
       <defs>
        <path id="DejaVuSans-39" d="M 703 97 
L 703 672 
Q 941 559 1184 500 
Q 1428 441 1663 441 
Q 2288 441 2617 861 
Q 2947 1281 2994 2138 
Q 2813 1869 2534 1725 
Q 2256 1581 1919 1581 
Q 1219 1581 811 2004 
Q 403 2428 403 3163 
Q 403 3881 828 4315 
Q 1253 4750 1959 4750 
Q 2769 4750 3195 4129 
Q 3622 3509 3622 2328 
Q 3622 1225 3098 567 
Q 2575 -91 1691 -91 
Q 1453 -91 1209 -44 
Q 966 3 703 97 
z
M 1959 2075 
Q 2384 2075 2632 2365 
Q 2881 2656 2881 3163 
Q 2881 3666 2632 3958 
Q 2384 4250 1959 4250 
Q 1534 4250 1286 3958 
Q 1038 3666 1038 3163 
Q 1038 2656 1286 2365 
Q 1534 2075 1959 2075 
z
" transform="scale(0.015625)"/>
       </defs>
       <use xlink:href="#DejaVuSans-31"/>
       <use xlink:href="#DejaVuSans-39" x="63.623047"/>
       <use xlink:href="#DejaVuSans-39" x="127.246094"/>
       <use xlink:href="#DejaVuSans-32" x="190.869141"/>
      </g>
     </g>
    </g>
    <g id="xtick_16">
     <g id="line2d_29">
      <g>
       <use xlink:href="#me0ece8e90a" x="102.26278" y="254.64351" style="stroke: #000000; stroke-width: 0.8"/>
      </g>
     </g>
     <g id="text_21">
      <!-- 1996 -->
      <g transform="translate(89.53778 269.241947) scale(0.1 -0.1)">
       <use xlink:href="#DejaVuSans-31"/>
       <use xlink:href="#DejaVuSans-39" x="63.623047"/>
       <use xlink:href="#DejaVuSans-39" x="127.246094"/>
       <use xlink:href="#DejaVuSans-36" x="190.869141"/>
      </g>
     </g>
    </g>
    <g id="xtick_17">
     <g id="line2d_30">
      <g>
       <use xlink:href="#me0ece8e90a" x="154.196797" y="254.64351" style="stroke: #000000; stroke-width: 0.8"/>
      </g>
     </g>
     <g id="text_22">
      <!-- 2000 -->
      <g transform="translate(141.471797 269.241947) scale(0.1 -0.1)">
       <use xlink:href="#DejaVuSans-32"/>
       <use xlink:href="#DejaVuSans-30" x="63.623047"/>
       <use xlink:href="#DejaVuSans-30" x="127.246094"/>
       <use xlink:href="#DejaVuSans-30" x="190.869141"/>
      </g>
     </g>
    </g>
    <g id="xtick_18">
     <g id="line2d_31">
      <g>
       <use xlink:href="#me0ece8e90a" x="206.130815" y="254.64351" style="stroke: #000000; stroke-width: 0.8"/>
      </g>
     </g>
     <g id="text_23">
      <!-- 2004 -->
      <g transform="translate(193.405815 269.241947) scale(0.1 -0.1)">
       <use xlink:href="#DejaVuSans-32"/>
       <use xlink:href="#DejaVuSans-30" x="63.623047"/>
       <use xlink:href="#DejaVuSans-30" x="127.246094"/>
       <use xlink:href="#DejaVuSans-34" x="190.869141"/>
      </g>
     </g>
    </g>
    <g id="xtick_19">
     <g id="line2d_32">
      <g>
       <use xlink:href="#me0ece8e90a" x="258.064832" y="254.64351" style="stroke: #000000; stroke-width: 0.8"/>
      </g>
     </g>
     <g id="text_24">
      <!-- 2008 -->
      <g transform="translate(245.339832 269.241947) scale(0.1 -0.1)">
       <use xlink:href="#DejaVuSans-32"/>
       <use xlink:href="#DejaVuSans-30" x="63.623047"/>
       <use xlink:href="#DejaVuSans-30" x="127.246094"/>
       <use xlink:href="#DejaVuSans-38" x="190.869141"/>
      </g>
     </g>
    </g>
    <g id="xtick_20">
     <g id="line2d_33">
      <g>
       <use xlink:href="#me0ece8e90a" x="309.998849" y="254.64351" style="stroke: #000000; stroke-width: 0.8"/>
      </g>
     </g>
     <g id="text_25">
      <!-- 2012 -->
      <g transform="translate(297.273849 269.241947) scale(0.1 -0.1)">
       <use xlink:href="#DejaVuSans-32"/>
       <use xlink:href="#DejaVuSans-30" x="63.623047"/>
       <use xlink:href="#DejaVuSans-31" x="127.246094"/>
       <use xlink:href="#DejaVuSans-32" x="190.869141"/>
      </g>
     </g>
    </g>
    <g id="xtick_21">
     <g id="line2d_34">
      <g>
       <use xlink:href="#me0ece8e90a" x="361.932866" y="254.64351" style="stroke: #000000; stroke-width: 0.8"/>
      </g>
     </g>
     <g id="text_26">
      <!-- 2016 -->
      <g transform="translate(349.207866 269.241947) scale(0.1 -0.1)">
       <use xlink:href="#DejaVuSans-32"/>
       <use xlink:href="#DejaVuSans-30" x="63.623047"/>
       <use xlink:href="#DejaVuSans-31" x="127.246094"/>
       <use xlink:href="#DejaVuSans-36" x="190.869141"/>
      </g>
     </g>
    </g>
    <g id="xtick_22">
     <g id="line2d_35">
      <g>
       <use xlink:href="#me0ece8e90a" x="413.866883" y="254.64351" style="stroke: #000000; stroke-width: 0.8"/>
      </g>
     </g>
     <g id="text_27">
      <!-- 2020 -->
      <g transform="translate(401.141883 269.241947) scale(0.1 -0.1)">
       <use xlink:href="#DejaVuSans-32"/>
       <use xlink:href="#DejaVuSans-30" x="63.623047"/>
       <use xlink:href="#DejaVuSans-32" x="127.246094"/>
       <use xlink:href="#DejaVuSans-30" x="190.869141"/>
      </g>
     </g>
    </g>
    <g id="text_28">
     <!-- Date -->
     <g transform="translate(220.680245 282.920073) scale(0.1 -0.1)">
      <defs>
       <path id="DejaVuSans-44" d="M 1259 4147 
L 1259 519 
L 2022 519 
Q 2988 519 3436 956 
Q 3884 1394 3884 2338 
Q 3884 3275 3436 3711 
Q 2988 4147 2022 4147 
L 1259 4147 
z
M 628 4666 
L 1925 4666 
Q 3281 4666 3915 4102 
Q 4550 3538 4550 2338 
Q 4550 1131 3912 565 
Q 3275 0 1925 0 
L 628 0 
L 628 4666 
z
" transform="scale(0.015625)"/>
      </defs>
      <use xlink:href="#DejaVuSans-44"/>
      <use xlink:href="#DejaVuSans-61" x="77.001953"/>
      <use xlink:href="#DejaVuSans-74" x="138.28125"/>
      <use xlink:href="#DejaVuSans-65" x="177.490234"/>
     </g>
    </g>
   </g>
   <g id="matplotlib.axis_6">
    <g id="ytick_9">
     <g id="line2d_36">
      <g>
       <use xlink:href="#m161eebf769" x="38.420552" y="237.484672" style="stroke: #000000; stroke-width: 0.8"/>
      </g>
     </g>
     <g id="text_29">
      <!-- −2 -->
      <g transform="translate(16.678365 241.28389) scale(0.1 -0.1)">
       <use xlink:href="#DejaVuSans-2212"/>
       <use xlink:href="#DejaVuSans-32" x="83.789062"/>
      </g>
     </g>
    </g>
    <g id="ytick_10">
     <g id="line2d_37">
      <g>
       <use xlink:href="#m161eebf769" x="38.420552" y="203.166995" style="stroke: #000000; stroke-width: 0.8"/>
      </g>
     </g>
     <g id="text_30">
      <!-- 0 -->
      <g transform="translate(25.058052 206.966214) scale(0.1 -0.1)">
       <use xlink:href="#DejaVuSans-30"/>
      </g>
     </g>
    </g>
    <g id="ytick_11">
     <g id="line2d_38">
      <g>
       <use xlink:href="#m161eebf769" x="38.420552" y="168.849318" style="stroke: #000000; stroke-width: 0.8"/>
      </g>
     </g>
     <g id="text_31">
      <!-- 2 -->
      <g transform="translate(25.058052 172.648537) scale(0.1 -0.1)">
       <use xlink:href="#DejaVuSans-32"/>
      </g>
     </g>
    </g>
    <g id="text_32">
     <!-- SGI (GWIC 136970) -->
     <g transform="translate(10.598677 251.641995) rotate(-90) scale(0.1 -0.1)">
      <defs>
       <path id="DejaVuSans-47" d="M 3809 666 
L 3809 1919 
L 2778 1919 
L 2778 2438 
L 4434 2438 
L 4434 434 
Q 4069 175 3628 42 
Q 3188 -91 2688 -91 
Q 1594 -91 976 548 
Q 359 1188 359 2328 
Q 359 3472 976 4111 
Q 1594 4750 2688 4750 
Q 3144 4750 3555 4637 
Q 3966 4525 4313 4306 
L 4313 3634 
Q 3963 3931 3569 4081 
Q 3175 4231 2741 4231 
Q 1884 4231 1454 3753 
Q 1025 3275 1025 2328 
Q 1025 1384 1454 906 
Q 1884 428 2741 428 
Q 3075 428 3337 486 
Q 3600 544 3809 666 
z
" transform="scale(0.015625)"/>
       <path id="DejaVuSans-28" d="M 1984 4856 
Q 1566 4138 1362 3434 
Q 1159 2731 1159 2009 
Q 1159 1288 1364 580 
Q 1569 -128 1984 -844 
L 1484 -844 
Q 1016 -109 783 600 
Q 550 1309 550 2009 
Q 550 2706 781 3412 
Q 1013 4119 1484 4856 
L 1984 4856 
z
" transform="scale(0.015625)"/>
       <path id="DejaVuSans-57" d="M 213 4666 
L 850 4666 
L 1831 722 
L 2809 4666 
L 3519 4666 
L 4500 722 
L 5478 4666 
L 6119 4666 
L 4947 0 
L 4153 0 
L 3169 4050 
L 2175 0 
L 1381 0 
L 213 4666 
z
" transform="scale(0.015625)"/>
       <path id="DejaVuSans-37" d="M 525 4666 
L 3525 4666 
L 3525 4397 
L 1831 0 
L 1172 0 
L 2766 4134 
L 525 4134 
L 525 4666 
z
" transform="scale(0.015625)"/>
       <path id="DejaVuSans-29" d="M 513 4856 
L 1013 4856 
Q 1481 4119 1714 3412 
Q 1947 2706 1947 2009 
Q 1947 1309 1714 600 
Q 1481 -109 1013 -844 
L 513 -844 
Q 928 -128 1133 580 
Q 1338 1288 1338 2009 
Q 1338 2731 1133 3434 
Q 928 4138 513 4856 
z
" transform="scale(0.015625)"/>
      </defs>
      <use xlink:href="#DejaVuSans-53"/>
      <use xlink:href="#DejaVuSans-47" x="63.476562"/>
      <use xlink:href="#DejaVuSans-49" x="140.966797"/>
      <use xlink:href="#DejaVuSans-20" x="170.458984"/>
      <use xlink:href="#DejaVuSans-28" x="202.246094"/>
      <use xlink:href="#DejaVuSans-47" x="241.259766"/>
      <use xlink:href="#DejaVuSans-57" x="318.75"/>
      <use xlink:href="#DejaVuSans-49" x="417.626953"/>
      <use xlink:href="#DejaVuSans-43" x="447.119141"/>
      <use xlink:href="#DejaVuSans-20" x="516.943359"/>
      <use xlink:href="#DejaVuSans-31" x="548.730469"/>
      <use xlink:href="#DejaVuSans-33" x="612.353516"/>
      <use xlink:href="#DejaVuSans-36" x="675.976562"/>
      <use xlink:href="#DejaVuSans-39" x="739.599609"/>
      <use xlink:href="#DejaVuSans-37" x="803.222656"/>
      <use xlink:href="#DejaVuSans-30" x="866.845703"/>
      <use xlink:href="#DejaVuSans-29" x="930.46875"/>
     </g>
    </g>
   </g>
   <g id="line2d_39">
    <path d="M 38.420552 203.166995 
L 426.841501 203.166995 
" clip-path="url(#pe376359c98)" style="fill: none; stroke: #000000; stroke-width: 1.5; stroke-linecap: square"/>
   </g>
   <g id="line2d_40">
    <path d="M 47.022902 194.113353 
L 60.033066 211.94783 
L 79.477219 207.247718 
L 82.711987 206.218178 
L 85.982301 198.540684 
L 89.252616 217.388752 
L 92.451837 203.961204 
L 95.686604 213.231974 
L 97.890512 222.248927 
L 98.956919 203.409345 
L 102.227233 198.843394 
L 105.462001 193.20159 
L 108.696769 191.721061 
L 111.967083 184.629405 
L 115.237398 182.446988 
L 121.671386 177.864983 
L 124.941701 167.919505 
L 129.313969 184.718634 
L 130.309282 187.177096 
L 131.411236 170.959734 
L 132.477643 188.768084 
L 134.646004 170.30031 
L 136.849911 194.172295 
L 137.916318 176.483343 
L 139.018272 188.207896 
L 140.084679 194.311731 
L 141.186633 170.229729 
L 142.288587 193.590463 
L 143.2839 198.839213 
L 144.385854 177.870751 
L 145.452261 179.541687 
L 146.554214 191.366827 
L 147.620621 180.11407 
L 148.722575 181.174018 
L 149.824529 181.180825 
L 151.99289 180.583243 
L 153.059297 196.344342 
L 154.161251 176.966236 
L 155.263204 195.189644 
L 156.294064 205.277105 
L 157.396018 181.56085 
L 158.462425 193.046686 
L 159.564379 193.501729 
L 160.630786 185.070485 
L 162.834693 203.166993 
L 163.9011 181.174018 
L 165.003054 196.892659 
L 166.069461 206.686615 
L 167.171415 186.039589 
L 168.273369 209.40497 
L 169.268682 222.907134 
L 170.370636 186.039986 
L 171.437043 200.474614 
L 172.538996 206.335471 
L 173.605403 188.697726 
L 174.707357 203.166993 
L 176.875718 196.098717 
L 180.146033 210.983238 
L 183.345253 212.121815 
L 186.580021 206.887758 
L 189.850336 216.413115 
L 193.12065 223.88889 
L 196.319871 218.932503 
L 199.554639 208.988936 
L 202.824953 208.397469 
L 206.095268 195.031917 
L 209.330035 197.931425 
L 212.564803 202.070218 
L 216.937071 209.441331 
L 219.105432 205.680222 
L 222.304653 202.055785 
L 228.809735 213.864668 
L 232.08005 213.215021 
L 235.27927 207.97219 
L 238.514038 209.593446 
L 241.784353 210.739212 
L 245.054667 205.867277 
L 248.253888 204.358593 
L 251.488656 214.694887 
L 254.75897 220.576959 
L 261.264052 222.702225 
L 264.49882 230.745053 
L 267.769135 238.414483 
L 271.039449 235.186165 
L 274.23867 229.375971 
L 277.473438 223.158169 
L 280.743752 225.159971 
L 284.014067 213.595119 
L 287.213288 217.06515 
L 290.448055 222.882585 
L 293.71837 229.850648 
L 296.988684 229.867104 
L 300.187905 234.171469 
L 303.422673 233.623957 
L 306.692987 219.890101 
L 309.963302 195.644053 
L 313.19807 195.637706 
L 314.264477 210.314247 
L 315.36643 209.540244 
L 316.432837 198.486017 
L 317.534791 213.766315 
L 318.636745 213.83586 
L 319.703152 205.025275 
L 320.805106 203.166993 
L 321.871513 215.870913 
L 322.973466 192.168704 
L 324.07542 221.912748 
L 326.172687 190.062616 
L 327.239094 208.159902 
L 329.407455 196.731799 
L 332.677769 192.200196 
L 335.948084 200.527362 
L 339.147305 209.586041 
L 342.382072 217.801628 
L 346.754341 228.313544 
L 348.922702 218.548984 
L 353.188329 229.461868 
L 355.35669 208.839753 
L 358.627005 189.920905 
L 361.897319 189.005713 
L 365.132087 192.41363 
L 369.468808 222.35579 
L 371.637169 201.539597 
L 374.907484 207.365203 
L 378.106704 212.248695 
L 380.275065 214.701905 
L 384.611787 206.14735 
L 387.882101 200.325236 
L 392.147729 216.789372 
L 394.31609 200.546841 
L 397.586404 199.110515 
L 407.290707 194.456935 
L 410.561022 187.462145 
L 414.93329 214.466187 
L 420.300872 191.574216 
L 424.67314 216.74705 
L 424.67314 216.74705 
" clip-path="url(#pe376359c98)" style="fill: none; stroke: #7f7f7f; stroke-opacity: 0.6; stroke-width: 1.5; stroke-linecap: square"/>
   </g>
   <g id="patch_10">
    <path d="M 38.420552 254.64351 
L 38.420552 151.69048 
" style="fill: none; stroke: #000000; stroke-width: 0.8; stroke-linejoin: miter; stroke-linecap: square"/>
   </g>
   <g id="patch_11">
    <path d="M 38.420552 254.64351 
L 426.841501 254.64351 
" style="fill: none; stroke: #000000; stroke-width: 0.8; stroke-linejoin: miter; stroke-linecap: square"/>
   </g>
   <g id="text_33">
    <!-- (b) -->
    <g transform="translate(38.420552 145.69048) scale(0.12 -0.12)">
     <defs>
      <path id="DejaVuSans-Bold-62" d="M 2400 722 
Q 2759 722 2948 984 
Q 3138 1247 3138 1747 
Q 3138 2247 2948 2509 
Q 2759 2772 2400 2772 
Q 2041 2772 1848 2508 
Q 1656 2244 1656 1747 
Q 1656 1250 1848 986 
Q 2041 722 2400 722 
z
M 1656 2988 
Q 1888 3294 2169 3439 
Q 2450 3584 2816 3584 
Q 3463 3584 3878 3070 
Q 4294 2556 4294 1747 
Q 4294 938 3878 423 
Q 3463 -91 2816 -91 
Q 2450 -91 2169 54 
Q 1888 200 1656 506 
L 1656 0 
L 538 0 
L 538 4863 
L 1656 4863 
L 1656 2988 
z
" transform="scale(0.015625)"/>
     </defs>
     <use xlink:href="#DejaVuSans-Bold-28"/>
     <use xlink:href="#DejaVuSans-Bold-62" x="45.703125"/>
     <use xlink:href="#DejaVuSans-Bold-29" x="117.285156"/>
    </g>
   </g>
   <g id="PathCollection_1">
    <defs>
     <path id="m233dec11fb" d="M 0 1.936492 
C 0.513564 1.936492 1.006162 1.732451 1.369306 1.369306 
C 1.732451 1.006162 1.936492 0.513564 1.936492 0 
C 1.936492 -0.513564 1.732451 -1.006162 1.369306 -1.369306 
C 1.006162 -1.732451 0.513564 -1.936492 0 -1.936492 
C -0.513564 -1.936492 -1.006162 -1.732451 -1.369306 -1.369306 
C -1.732451 -1.006162 -1.936492 -0.513564 -1.936492 0 
C -1.936492 0.513564 -1.732451 1.006162 -1.369306 1.369306 
C -1.006162 1.732451 -0.513564 1.936492 0 1.936492 
z
" style="stroke: #ffffff; stroke-width: 0.309839"/>
    </defs>
    <g clip-path="url(#pe376359c98)">
     <use xlink:href="#m233dec11fb" x="47.022902" y="194.113353" style="stroke: #ffffff; stroke-width: 0.309839"/>
     <use xlink:href="#m233dec11fb" x="60.033066" y="211.94783" style="stroke: #ffffff; stroke-width: 0.309839"/>
     <use xlink:href="#m233dec11fb" x="79.477219" y="207.247718" style="stroke: #ffffff; stroke-width: 0.309839"/>
     <use xlink:href="#m233dec11fb" x="82.711987" y="206.218178" style="stroke: #ffffff; stroke-width: 0.309839"/>
     <use xlink:href="#m233dec11fb" x="85.982301" y="198.540684" style="stroke: #ffffff; stroke-width: 0.309839"/>
     <use xlink:href="#m233dec11fb" x="89.252616" y="217.388752" style="stroke: #ffffff; stroke-width: 0.309839"/>
     <use xlink:href="#m233dec11fb" x="92.451837" y="203.961204" style="stroke: #ffffff; stroke-width: 0.309839"/>
     <use xlink:href="#m233dec11fb" x="95.686604" y="213.231974" style="stroke: #ffffff; stroke-width: 0.309839"/>
     <use xlink:href="#m233dec11fb" x="97.890512" y="222.248927" style="stroke: #ffffff; stroke-width: 0.309839"/>
     <use xlink:href="#m233dec11fb" x="98.956919" y="203.409345" style="stroke: #ffffff; stroke-width: 0.309839"/>
     <use xlink:href="#m233dec11fb" x="102.227233" y="198.843394" style="stroke: #ffffff; stroke-width: 0.309839"/>
     <use xlink:href="#m233dec11fb" x="105.462001" y="193.20159" style="stroke: #ffffff; stroke-width: 0.309839"/>
     <use xlink:href="#m233dec11fb" x="108.696769" y="191.721061" style="stroke: #ffffff; stroke-width: 0.309839"/>
     <use xlink:href="#m233dec11fb" x="111.967083" y="184.629405" style="stroke: #ffffff; stroke-width: 0.309839"/>
     <use xlink:href="#m233dec11fb" x="115.237398" y="182.446988" style="stroke: #ffffff; stroke-width: 0.309839"/>
     <use xlink:href="#m233dec11fb" x="121.671386" y="177.864983" style="stroke: #ffffff; stroke-width: 0.309839"/>
     <use xlink:href="#m233dec11fb" x="124.941701" y="167.919505" style="stroke: #ffffff; stroke-width: 0.309839"/>
     <use xlink:href="#m233dec11fb" x="129.313969" y="184.718634" style="stroke: #ffffff; stroke-width: 0.309839"/>
     <use xlink:href="#m233dec11fb" x="130.309282" y="187.177096" style="stroke: #ffffff; stroke-width: 0.309839"/>
     <use xlink:href="#m233dec11fb" x="131.411236" y="170.959734" style="stroke: #ffffff; stroke-width: 0.309839"/>
     <use xlink:href="#m233dec11fb" x="132.477643" y="188.768084" style="stroke: #ffffff; stroke-width: 0.309839"/>
     <use xlink:href="#m233dec11fb" x="134.646004" y="170.30031" style="stroke: #ffffff; stroke-width: 0.309839"/>
     <use xlink:href="#m233dec11fb" x="136.849911" y="194.172295" style="stroke: #ffffff; stroke-width: 0.309839"/>
     <use xlink:href="#m233dec11fb" x="137.916318" y="176.483343" style="stroke: #ffffff; stroke-width: 0.309839"/>
     <use xlink:href="#m233dec11fb" x="139.018272" y="188.207896" style="stroke: #ffffff; stroke-width: 0.309839"/>
     <use xlink:href="#m233dec11fb" x="140.084679" y="194.311731" style="stroke: #ffffff; stroke-width: 0.309839"/>
     <use xlink:href="#m233dec11fb" x="141.186633" y="170.229729" style="stroke: #ffffff; stroke-width: 0.309839"/>
     <use xlink:href="#m233dec11fb" x="142.288587" y="193.590463" style="stroke: #ffffff; stroke-width: 0.309839"/>
     <use xlink:href="#m233dec11fb" x="143.2839" y="198.839213" style="stroke: #ffffff; stroke-width: 0.309839"/>
     <use xlink:href="#m233dec11fb" x="144.385854" y="177.870751" style="stroke: #ffffff; stroke-width: 0.309839"/>
     <use xlink:href="#m233dec11fb" x="145.452261" y="179.541687" style="stroke: #ffffff; stroke-width: 0.309839"/>
     <use xlink:href="#m233dec11fb" x="146.554214" y="191.366827" style="stroke: #ffffff; stroke-width: 0.309839"/>
     <use xlink:href="#m233dec11fb" x="147.620621" y="180.11407" style="stroke: #ffffff; stroke-width: 0.309839"/>
     <use xlink:href="#m233dec11fb" x="148.722575" y="181.174018" style="stroke: #ffffff; stroke-width: 0.309839"/>
     <use xlink:href="#m233dec11fb" x="149.824529" y="181.180825" style="stroke: #ffffff; stroke-width: 0.309839"/>
     <use xlink:href="#m233dec11fb" x="151.99289" y="180.583243" style="stroke: #ffffff; stroke-width: 0.309839"/>
     <use xlink:href="#m233dec11fb" x="153.059297" y="196.344342" style="stroke: #ffffff; stroke-width: 0.309839"/>
     <use xlink:href="#m233dec11fb" x="154.161251" y="176.966236" style="stroke: #ffffff; stroke-width: 0.309839"/>
     <use xlink:href="#m233dec11fb" x="155.263204" y="195.189644" style="stroke: #ffffff; stroke-width: 0.309839"/>
     <use xlink:href="#m233dec11fb" x="156.294064" y="205.277105" style="stroke: #ffffff; stroke-width: 0.309839"/>
     <use xlink:href="#m233dec11fb" x="157.396018" y="181.56085" style="stroke: #ffffff; stroke-width: 0.309839"/>
     <use xlink:href="#m233dec11fb" x="158.462425" y="193.046686" style="stroke: #ffffff; stroke-width: 0.309839"/>
     <use xlink:href="#m233dec11fb" x="159.564379" y="193.501729" style="stroke: #ffffff; stroke-width: 0.309839"/>
     <use xlink:href="#m233dec11fb" x="160.630786" y="185.070485" style="stroke: #ffffff; stroke-width: 0.309839"/>
     <use xlink:href="#m233dec11fb" x="161.73274" y="194.175732" style="stroke: #ffffff; stroke-width: 0.309839"/>
     <use xlink:href="#m233dec11fb" x="162.834693" y="203.166993" style="stroke: #ffffff; stroke-width: 0.309839"/>
     <use xlink:href="#m233dec11fb" x="163.9011" y="181.174018" style="stroke: #ffffff; stroke-width: 0.309839"/>
     <use xlink:href="#m233dec11fb" x="165.003054" y="196.892659" style="stroke: #ffffff; stroke-width: 0.309839"/>
     <use xlink:href="#m233dec11fb" x="166.069461" y="206.686615" style="stroke: #ffffff; stroke-width: 0.309839"/>
     <use xlink:href="#m233dec11fb" x="167.171415" y="186.039589" style="stroke: #ffffff; stroke-width: 0.309839"/>
     <use xlink:href="#m233dec11fb" x="168.273369" y="209.40497" style="stroke: #ffffff; stroke-width: 0.309839"/>
     <use xlink:href="#m233dec11fb" x="169.268682" y="222.907134" style="stroke: #ffffff; stroke-width: 0.309839"/>
     <use xlink:href="#m233dec11fb" x="170.370636" y="186.039986" style="stroke: #ffffff; stroke-width: 0.309839"/>
     <use xlink:href="#m233dec11fb" x="171.437043" y="200.474614" style="stroke: #ffffff; stroke-width: 0.309839"/>
     <use xlink:href="#m233dec11fb" x="172.538996" y="206.335471" style="stroke: #ffffff; stroke-width: 0.309839"/>
     <use xlink:href="#m233dec11fb" x="173.605403" y="188.697726" style="stroke: #ffffff; stroke-width: 0.309839"/>
     <use xlink:href="#m233dec11fb" x="174.707357" y="203.166993" style="stroke: #ffffff; stroke-width: 0.309839"/>
     <use xlink:href="#m233dec11fb" x="176.875718" y="196.098717" style="stroke: #ffffff; stroke-width: 0.309839"/>
     <use xlink:href="#m233dec11fb" x="180.146033" y="210.983238" style="stroke: #ffffff; stroke-width: 0.309839"/>
     <use xlink:href="#m233dec11fb" x="183.345253" y="212.121815" style="stroke: #ffffff; stroke-width: 0.309839"/>
     <use xlink:href="#m233dec11fb" x="186.580021" y="206.887758" style="stroke: #ffffff; stroke-width: 0.309839"/>
     <use xlink:href="#m233dec11fb" x="189.850336" y="216.413115" style="stroke: #ffffff; stroke-width: 0.309839"/>
     <use xlink:href="#m233dec11fb" x="193.12065" y="223.88889" style="stroke: #ffffff; stroke-width: 0.309839"/>
     <use xlink:href="#m233dec11fb" x="196.319871" y="218.932503" style="stroke: #ffffff; stroke-width: 0.309839"/>
     <use xlink:href="#m233dec11fb" x="199.554639" y="208.988936" style="stroke: #ffffff; stroke-width: 0.309839"/>
     <use xlink:href="#m233dec11fb" x="202.824953" y="208.397469" style="stroke: #ffffff; stroke-width: 0.309839"/>
     <use xlink:href="#m233dec11fb" x="206.095268" y="195.031917" style="stroke: #ffffff; stroke-width: 0.309839"/>
     <use xlink:href="#m233dec11fb" x="209.330035" y="197.931425" style="stroke: #ffffff; stroke-width: 0.309839"/>
     <use xlink:href="#m233dec11fb" x="212.564803" y="202.070218" style="stroke: #ffffff; stroke-width: 0.309839"/>
     <use xlink:href="#m233dec11fb" x="216.937071" y="209.441331" style="stroke: #ffffff; stroke-width: 0.309839"/>
     <use xlink:href="#m233dec11fb" x="219.105432" y="205.680222" style="stroke: #ffffff; stroke-width: 0.309839"/>
     <use xlink:href="#m233dec11fb" x="222.304653" y="202.055785" style="stroke: #ffffff; stroke-width: 0.309839"/>
     <use xlink:href="#m233dec11fb" x="228.809735" y="213.864668" style="stroke: #ffffff; stroke-width: 0.309839"/>
     <use xlink:href="#m233dec11fb" x="232.08005" y="213.215021" style="stroke: #ffffff; stroke-width: 0.309839"/>
     <use xlink:href="#m233dec11fb" x="235.27927" y="207.97219" style="stroke: #ffffff; stroke-width: 0.309839"/>
     <use xlink:href="#m233dec11fb" x="238.514038" y="209.593446" style="stroke: #ffffff; stroke-width: 0.309839"/>
     <use xlink:href="#m233dec11fb" x="241.784353" y="210.739212" style="stroke: #ffffff; stroke-width: 0.309839"/>
     <use xlink:href="#m233dec11fb" x="245.054667" y="205.867277" style="stroke: #ffffff; stroke-width: 0.309839"/>
     <use xlink:href="#m233dec11fb" x="248.253888" y="204.358593" style="stroke: #ffffff; stroke-width: 0.309839"/>
     <use xlink:href="#m233dec11fb" x="251.488656" y="214.694887" style="stroke: #ffffff; stroke-width: 0.309839"/>
     <use xlink:href="#m233dec11fb" x="254.75897" y="220.576959" style="stroke: #ffffff; stroke-width: 0.309839"/>
     <use xlink:href="#m233dec11fb" x="261.264052" y="222.702225" style="stroke: #ffffff; stroke-width: 0.309839"/>
     <use xlink:href="#m233dec11fb" x="264.49882" y="230.745053" style="stroke: #ffffff; stroke-width: 0.309839"/>
     <use xlink:href="#m233dec11fb" x="267.769135" y="238.414483" style="stroke: #ffffff; stroke-width: 0.309839"/>
     <use xlink:href="#m233dec11fb" x="271.039449" y="235.186165" style="stroke: #ffffff; stroke-width: 0.309839"/>
     <use xlink:href="#m233dec11fb" x="274.23867" y="229.375971" style="stroke: #ffffff; stroke-width: 0.309839"/>
     <use xlink:href="#m233dec11fb" x="277.473438" y="223.158169" style="stroke: #ffffff; stroke-width: 0.309839"/>
     <use xlink:href="#m233dec11fb" x="280.743752" y="225.159971" style="stroke: #ffffff; stroke-width: 0.309839"/>
     <use xlink:href="#m233dec11fb" x="284.014067" y="213.595119" style="stroke: #ffffff; stroke-width: 0.309839"/>
     <use xlink:href="#m233dec11fb" x="287.213288" y="217.06515" style="stroke: #ffffff; stroke-width: 0.309839"/>
     <use xlink:href="#m233dec11fb" x="290.448055" y="222.882585" style="stroke: #ffffff; stroke-width: 0.309839"/>
     <use xlink:href="#m233dec11fb" x="293.71837" y="229.850648" style="stroke: #ffffff; stroke-width: 0.309839"/>
     <use xlink:href="#m233dec11fb" x="296.988684" y="229.867104" style="stroke: #ffffff; stroke-width: 0.309839"/>
     <use xlink:href="#m233dec11fb" x="300.187905" y="234.171469" style="stroke: #ffffff; stroke-width: 0.309839"/>
     <use xlink:href="#m233dec11fb" x="303.422673" y="233.623957" style="stroke: #ffffff; stroke-width: 0.309839"/>
     <use xlink:href="#m233dec11fb" x="306.692987" y="219.890101" style="stroke: #ffffff; stroke-width: 0.309839"/>
     <use xlink:href="#m233dec11fb" x="309.963302" y="195.644053" style="stroke: #ffffff; stroke-width: 0.309839"/>
     <use xlink:href="#m233dec11fb" x="313.19807" y="195.637706" style="stroke: #ffffff; stroke-width: 0.309839"/>
     <use xlink:href="#m233dec11fb" x="314.264477" y="210.314247" style="stroke: #ffffff; stroke-width: 0.309839"/>
     <use xlink:href="#m233dec11fb" x="315.36643" y="209.540244" style="stroke: #ffffff; stroke-width: 0.309839"/>
     <use xlink:href="#m233dec11fb" x="316.432837" y="198.486017" style="stroke: #ffffff; stroke-width: 0.309839"/>
     <use xlink:href="#m233dec11fb" x="317.534791" y="213.766315" style="stroke: #ffffff; stroke-width: 0.309839"/>
     <use xlink:href="#m233dec11fb" x="318.636745" y="213.83586" style="stroke: #ffffff; stroke-width: 0.309839"/>
     <use xlink:href="#m233dec11fb" x="319.703152" y="205.025275" style="stroke: #ffffff; stroke-width: 0.309839"/>
     <use xlink:href="#m233dec11fb" x="320.805106" y="203.166993" style="stroke: #ffffff; stroke-width: 0.309839"/>
     <use xlink:href="#m233dec11fb" x="321.871513" y="215.870913" style="stroke: #ffffff; stroke-width: 0.309839"/>
     <use xlink:href="#m233dec11fb" x="322.973466" y="192.168704" style="stroke: #ffffff; stroke-width: 0.309839"/>
     <use xlink:href="#m233dec11fb" x="324.07542" y="221.912748" style="stroke: #ffffff; stroke-width: 0.309839"/>
     <use xlink:href="#m233dec11fb" x="326.172687" y="190.062616" style="stroke: #ffffff; stroke-width: 0.309839"/>
     <use xlink:href="#m233dec11fb" x="327.239094" y="208.159902" style="stroke: #ffffff; stroke-width: 0.309839"/>
     <use xlink:href="#m233dec11fb" x="329.407455" y="196.731799" style="stroke: #ffffff; stroke-width: 0.309839"/>
     <use xlink:href="#m233dec11fb" x="332.677769" y="192.200196" style="stroke: #ffffff; stroke-width: 0.309839"/>
     <use xlink:href="#m233dec11fb" x="335.948084" y="200.527362" style="stroke: #ffffff; stroke-width: 0.309839"/>
     <use xlink:href="#m233dec11fb" x="339.147305" y="209.586041" style="stroke: #ffffff; stroke-width: 0.309839"/>
     <use xlink:href="#m233dec11fb" x="342.382072" y="217.801628" style="stroke: #ffffff; stroke-width: 0.309839"/>
     <use xlink:href="#m233dec11fb" x="346.754341" y="228.313544" style="stroke: #ffffff; stroke-width: 0.309839"/>
     <use xlink:href="#m233dec11fb" x="348.922702" y="218.548984" style="stroke: #ffffff; stroke-width: 0.309839"/>
     <use xlink:href="#m233dec11fb" x="353.188329" y="229.461868" style="stroke: #ffffff; stroke-width: 0.309839"/>
     <use xlink:href="#m233dec11fb" x="355.35669" y="208.839753" style="stroke: #ffffff; stroke-width: 0.309839"/>
     <use xlink:href="#m233dec11fb" x="358.627005" y="189.920905" style="stroke: #ffffff; stroke-width: 0.309839"/>
     <use xlink:href="#m233dec11fb" x="361.897319" y="189.005713" style="stroke: #ffffff; stroke-width: 0.309839"/>
     <use xlink:href="#m233dec11fb" x="365.132087" y="192.41363" style="stroke: #ffffff; stroke-width: 0.309839"/>
     <use xlink:href="#m233dec11fb" x="369.468808" y="222.35579" style="stroke: #ffffff; stroke-width: 0.309839"/>
     <use xlink:href="#m233dec11fb" x="371.637169" y="201.539597" style="stroke: #ffffff; stroke-width: 0.309839"/>
     <use xlink:href="#m233dec11fb" x="374.907484" y="207.365203" style="stroke: #ffffff; stroke-width: 0.309839"/>
     <use xlink:href="#m233dec11fb" x="378.106704" y="212.248695" style="stroke: #ffffff; stroke-width: 0.309839"/>
     <use xlink:href="#m233dec11fb" x="380.275065" y="214.701905" style="stroke: #ffffff; stroke-width: 0.309839"/>
     <use xlink:href="#m233dec11fb" x="384.611787" y="206.14735" style="stroke: #ffffff; stroke-width: 0.309839"/>
     <use xlink:href="#m233dec11fb" x="387.882101" y="200.325236" style="stroke: #ffffff; stroke-width: 0.309839"/>
     <use xlink:href="#m233dec11fb" x="392.147729" y="216.789372" style="stroke: #ffffff; stroke-width: 0.309839"/>
     <use xlink:href="#m233dec11fb" x="394.31609" y="200.546841" style="stroke: #ffffff; stroke-width: 0.309839"/>
     <use xlink:href="#m233dec11fb" x="397.586404" y="199.110515" style="stroke: #ffffff; stroke-width: 0.309839"/>
     <use xlink:href="#m233dec11fb" x="407.290707" y="194.456935" style="stroke: #ffffff; stroke-width: 0.309839"/>
     <use xlink:href="#m233dec11fb" x="410.561022" y="187.462145" style="stroke: #ffffff; stroke-width: 0.309839"/>
     <use xlink:href="#m233dec11fb" x="414.93329" y="214.466187" style="stroke: #ffffff; stroke-width: 0.309839"/>
     <use xlink:href="#m233dec11fb" x="420.300872" y="191.574216" style="stroke: #ffffff; stroke-width: 0.309839"/>
     <use xlink:href="#m233dec11fb" x="424.67314" y="216.74705" style="stroke: #ffffff; stroke-width: 0.309839"/>
    </g>
   </g>
  </g>
 </g>
 <defs>
  <clipPath id="pe6c4b640d1">
   <rect x="38.420552" y="18.118365" width="388.420948" height="102.95303"/>
  </clipPath>
  <clipPath id="pf0ba4e65fe">
   <rect x="456.944626" y="18.118365" width="258.947299" height="236.525145"/>
  </clipPath>
  <clipPath id="pe376359c98">
   <rect x="38.420552" y="151.69048" width="388.420948" height="102.95303"/>
  </clipPath>
 </defs>
</svg>
